<svg width="74" height="74" viewBox="0 0 74 74" fill="none" xmlns="http://www.w3.org/2000/svg">
<path d="M37 73.4395C56.8823 73.4395 73 57.3217 73 37.4395C73 17.5572 56.8823 1.43945 37 1.43945C17.1177 1.43945 1 17.5572 1 37.4395C1 57.3217 17.1177 73.4395 37 73.4395Z" stroke="#FF0A47" stroke-miterlimit="10"/>
<path d="M48.4148 34.2266C48.9337 39.3805 49.9814 50.1622 50.1459 54.8084C50.2078 56.562 49.9561 59.6037 46.8609 59.6037C43.7658 59.6037 43.514 56.5634 43.5759 54.8084C43.7419 50.1608 44.7881 39.3791 45.307 34.2266" stroke="#FF0A47" stroke-miterlimit="10"/>
<path d="M29.864 34.2266C30.383 39.3805 31.4306 50.1622 31.5951 54.8084C31.657 56.562 31.4053 59.6037 28.3101 59.6037C25.215 59.6037 24.9633 56.5634 25.0251 54.8084C25.1911 50.1608 26.2373 39.3791 26.7562 34.2266" stroke="#FF0A47" stroke-miterlimit="10"/>
<path d="M54.2864 26.6798C54.2864 31.5524 50.962 34.3677 46.86 34.3677C42.758 34.3677 39.4336 31.5524 39.4336 26.6798C39.4336 21.8071 42.758 16.7207 46.86 16.7207C50.962 16.7207 54.2864 21.8071 54.2864 26.6798Z" stroke="#FF0A47" stroke-miterlimit="10"/>
<path d="M32.4558 18.3098V26.106H29.8992V18.3098C29.8992 17.4323 29.1877 16.7207 28.3102 16.7207C27.4327 16.7207 26.7211 17.4323 26.7211 18.3098V26.106H24.1645V18.3098C24.1645 17.4323 23.453 16.7207 22.5755 16.7207H22.5656C21.6881 16.7207 20.9766 17.4323 20.9766 18.3098V31.0884C20.9766 32.8223 22.3828 34.2285 24.1167 34.2285H32.5036C34.2375 34.2285 35.6438 32.8223 35.6438 31.0884V18.3098C35.6438 17.4323 34.9322 16.7207 34.0547 16.7207H34.0448C33.1673 16.7221 32.4558 17.4323 32.4558 18.3098Z" fill="#FF0A47"/>
</svg>
