<svg width="72" height="72" viewBox="0 0 72 72" fill="none" xmlns="http://www.w3.org/2000/svg">
<path d="M35.5602 31.9253C28.3115 31.9253 22.1887 36.843 20.2566 43.5752C19.7351 45.3924 17.8676 46.4253 16.093 45.9002C14.3152 45.3741 13.2833 43.478 13.8057 41.6578C16.5537 32.0822 25.2511 25.0859 35.5602 25.0859C45.8693 25.0859 54.5666 32.0822 57.3147 41.6578C57.837 43.478 56.8051 45.3741 55.0273 45.9002C53.2527 46.4253 51.3853 45.3924 50.8637 43.5752C48.9317 36.843 42.8088 31.9253 35.5602 31.9253Z" stroke="#FF0A47" stroke-linecap="round"/>
<path d="M5.61692 30.8527L5.61685 30.8527C4.65206 30.6226 3.97836 29.9439 3.63282 29.0271C3.28412 28.1018 3.27759 26.9436 3.67329 25.8316C7.63393 14.7011 20.2208 6.47727 35.2502 6.47727C50.2795 6.47727 62.8664 14.7011 66.827 25.8316C67.2102 26.9084 67.0957 28.0893 66.6778 29.0526C66.2534 30.0309 65.5619 30.6908 64.8834 30.8527C63.7673 31.1191 62.8668 30.9845 62.0607 30.474C61.2317 29.9489 60.4543 28.9956 59.6701 27.5254C56.6331 21.831 53.0934 18.3747 49.0001 16.3533C44.9173 14.3371 40.3319 13.7727 35.2502 13.7727C25.0105 13.7727 16.1796 17.5865 10.8288 27.5237C10.0866 28.9021 9.38097 29.8728 8.57296 30.4311C7.7958 30.968 6.87836 31.1538 5.61692 30.8527Z" stroke="#FF0A47" stroke-width="0.954546" stroke-linecap="round"/>
<path d="M35.5615 48.138C34.7681 48.138 34.029 48.2842 33.3062 48.6544C32.5886 49.022 31.9148 49.5961 31.2279 50.4116C31.0039 50.6775 30.7881 50.9589 30.5848 51.224C30.4986 51.3365 30.4146 51.446 30.3331 51.5502C30.0503 51.912 29.7868 52.2255 29.5095 52.473C29.2355 52.7176 28.9628 52.884 28.6668 52.9664C28.3747 53.0476 28.0251 53.0567 27.5799 52.9331C25.7779 52.4327 24.7281 50.6023 25.1983 48.8318C26.53 46.5163 27.8791 44.7617 29.4981 43.5806C31.1168 42.3997 33.0394 41.7676 35.5615 41.7676C38.0891 41.7676 40.1812 42.4026 41.8835 43.5871C43.5809 44.7681 44.9234 46.5181 45.9177 48.8055C46.4054 50.5841 45.3541 52.4302 43.5432 52.9331C43.0959 53.0573 42.7506 53.0491 42.4654 52.9704C42.1766 52.8907 41.9114 52.7282 41.6416 52.4856C41.3681 52.2396 41.1066 51.9269 40.8188 51.5614C40.7545 51.4798 40.6886 51.3952 40.6212 51.3086C40.3952 51.0183 40.1516 50.7054 39.8895 50.405C38.6828 49.0219 37.2088 48.138 35.5615 48.138Z" stroke="#FF0A47" stroke-linecap="round"/>
<circle cx="35.5617" cy="61.0246" r="4.82927" fill="#FF0A47"/>
</svg>
