<svg width="74" height="74" viewBox="0 0 74 74" fill="none" xmlns="http://www.w3.org/2000/svg">
<path d="M37 73.4395C56.8823 73.4395 73 57.3217 73 37.4395C73 17.5572 56.8823 1.43945 37 1.43945C17.1177 1.43945 1 17.5572 1 37.4395C1 57.3217 17.1177 73.4395 37 73.4395Z" stroke="#FF0A47" stroke-miterlimit="10"/>
<path d="M1.03711 35.8026C9.3593 25.0771 22.3741 18.1738 37.0005 18.1738C51.627 18.1738 64.6418 25.0771 72.964 35.8026" stroke="#FF0A47" stroke-miterlimit="10"/>
<path d="M18.2866 6.67969C18.2866 6.67969 26.7339 6.83016 26.7339 19.3458C26.7339 31.8614 10.0938 39.2934 10.0938 61.3589" stroke="#FF0A47" stroke-miterlimit="10"/>
<path d="M55.7091 6.67969C55.7091 6.67969 47.2617 6.83016 47.2617 19.3458C47.2617 31.8614 63.9019 39.2934 63.9019 61.3589" stroke="#FF0A47" stroke-miterlimit="10"/>
<path d="M37 1.43945V73.4395" stroke="#FF0A47" stroke-miterlimit="10"/>
<path d="M43.8993 49.0827H30.1014C28.5767 49.0827 27.3418 47.904 27.3418 46.4486C27.3418 44.9932 28.5767 43.8145 30.1014 43.8145H43.8993C45.424 43.8145 46.6589 44.9932 46.6589 46.4486C46.6589 47.904 45.424 49.0827 43.8993 49.0827Z" fill="#FF0A47" stroke="#FF0A47" stroke-miterlimit="10"/>
</svg>
