<svg width="74" height="74" viewBox="0 0 74 74" fill="none" xmlns="http://www.w3.org/2000/svg">
<path d="M37 73C56.8823 73 73 56.8823 73 37C73 17.1177 56.8823 1 37 1C17.1177 1 1 17.1177 1 37C1 56.8823 17.1177 73 37 73Z" stroke="#FF0A47" stroke-miterlimit="10"/>
<path d="M64.6589 13.7871C58.0552 18.2096 48.1161 21.0237 37.0003 21.0237C25.8846 21.0237 15.9455 18.2096 9.3418 13.7871" stroke="#FF0A47" stroke-miterlimit="10"/>
<path d="M37 73C48.1061 73 57.1094 56.8823 57.1094 37C57.1094 17.1177 48.1061 1 37 1C25.8939 1 16.8906 17.1177 16.8906 37C16.8906 56.8823 25.8939 73 37 73Z" stroke="#FF0A47" stroke-miterlimit="10"/>
<line x1="37.5" y1="1" x2="37.5" y2="73" stroke="#FF0A47" stroke-miterlimit="10"/>
<line x1="1" y1="36.5" x2="73" y2="36.5" stroke="#FF0A47" stroke-miterlimit="10"/>
<path d="M64.6589 60.0413C58.0552 55.6188 48.1161 52.8047 37.0003 52.8047C25.8846 52.8047 15.9455 55.6188 9.3418 60.0413" stroke="#FF0A47" stroke-miterlimit="10"/>
<path d="M44 13C44 11.8954 44.8954 11 46 11H54C55.1046 11 56 11.8954 56 13V16C56 17.1046 55.1046 18 54 18H45H44V13Z" fill="#FF0A47"/>
<path d="M44 18V24.5C44 24.7761 44.2239 25 44.5 25C44.7761 25 45 24.7761 45 24.5V18H44Z" fill="#FF0A47"/>
</svg>
