<svg width="74" height="74" viewBox="0 0 74 74" fill="none" xmlns="http://www.w3.org/2000/svg">
<mask id="mask0_1796_29895" style="mask-type:alpha" maskUnits="userSpaceOnUse" x="1" y="1" width="72" height="72">
<path d="M37 73C56.8823 73 73 56.8823 73 37C73 17.1177 56.8823 1 37 1C17.1177 1 1 17.1177 1 37C1 56.8823 17.1177 73 37 73Z" fill="#FF0A47"/>
</mask>
<g mask="url(#mask0_1796_29895)">
<path d="M58.1633 49.5366C60.8304 49.5366 62.9925 47.1779 62.9925 44.2683C62.9925 41.3587 60.8304 39 58.1633 39C55.4961 39 53.334 41.3587 53.334 44.2683C53.334 47.1779 55.4961 49.5366 58.1633 49.5366Z" stroke="#FF0A47" stroke-miterlimit="10"/>
<path d="M13.1633 47.5366C15.8304 47.5366 17.9925 45.1779 17.9925 42.2683C17.9925 39.3587 15.8304 37 13.1633 37C10.4961 37 8.33398 39.3587 8.33398 42.2683C8.33398 45.1779 10.4961 47.5366 13.1633 47.5366Z" stroke="#FF0A47" stroke-miterlimit="10"/>
<path d="M49.334 61.3526V70.5825C57.708 75.468 67.5362 71.5978 68.2733 70.6302L68.334 61.3526C68.334 56.1878 64.0802 52 58.834 52C53.5878 52 49.334 56.187 49.334 61.3526Z" fill="#F7F9FD" stroke="#FF0A47" stroke-miterlimit="10"/>
<path d="M3.33398 60.2433V70.3523C12.1488 75.7031 22.4942 71.4643 23.2701 70.4046L23.334 60.2433C23.334 54.5866 18.8563 50 13.334 50C7.81166 50 3.33398 54.5858 3.33398 60.2433Z" fill="#F7F9FD" stroke="#FF0A47" stroke-miterlimit="10"/>
<path d="M23.334 55.8062V69.4314C35.234 76.6433 49.2002 70.9301 50.2477 69.5018L50.334 55.8062C50.334 48.1819 44.2891 42 36.834 42C29.3788 42 23.334 48.1808 23.334 55.8062Z" fill="#F7F9FD" stroke="#FF0A47" stroke-miterlimit="10"/>
<path d="M36.8174 39.2636C40.48 39.2636 43.4492 36.2945 43.4492 32.6318C43.4492 28.9692 40.48 26 36.8174 26C33.1547 26 30.1855 28.9692 30.1855 32.6318C30.1855 36.2945 33.1547 39.2636 36.8174 39.2636Z" fill="#FF0A47" stroke="#FF0A47" stroke-miterlimit="10"/>
</g>
<path d="M37 73C56.8823 73 73 56.8823 73 37C73 17.1177 56.8823 1 37 1C17.1177 1 1 17.1177 1 37C1 56.8823 17.1177 73 37 73Z" stroke="#FF0A47" stroke-miterlimit="10"/>
</svg>
