<svg width="74" height="74" viewBox="0 0 74 74" fill="none" xmlns="http://www.w3.org/2000/svg">
<path fill-rule="evenodd" clip-rule="evenodd" d="M37 1.5C17.3939 1.5 1.5 17.3939 1.5 37C1.5 56.6061 17.3939 72.5 37 72.5C56.6061 72.5 72.5 56.6061 72.5 37C72.5 17.3939 56.6061 1.5 37 1.5ZM0.5 37C0.5 16.8416 16.8416 0.5 37 0.5C57.1584 0.5 73.5 16.8416 73.5 37C73.5 57.1584 57.1584 73.5 37 73.5C16.8416 73.5 0.5 57.1584 0.5 37Z" fill="#FF0A47"/>
<path fill-rule="evenodd" clip-rule="evenodd" d="M14.3156 41.2679C16.4304 41.2679 18.1449 39.5535 18.1449 37.4386C18.1449 35.3238 16.4304 33.6094 14.3156 33.6094C12.2008 33.6094 10.4863 35.3238 10.4863 37.4386C10.4863 39.5535 12.2008 41.2679 14.3156 41.2679ZM14.3156 42.2679C16.9827 42.2679 19.1449 40.1058 19.1449 37.4386C19.1449 34.7715 16.9827 32.6094 14.3156 32.6094C11.6485 32.6094 9.48633 34.7715 9.48633 37.4386C9.48633 40.1058 11.6485 42.2679 14.3156 42.2679Z" fill="#FF0A47"/>
<path fill-rule="evenodd" clip-rule="evenodd" d="M17.3891 24.5849C18.7766 24.5849 19.9013 23.4602 19.9013 22.0727C19.9013 20.6853 18.7766 19.5605 17.3891 19.5605C16.0017 19.5605 14.877 20.6853 14.877 22.0727C14.877 23.4602 16.0017 24.5849 17.3891 24.5849ZM17.3891 25.5849C19.3289 25.5849 20.9013 24.0125 20.9013 22.0727C20.9013 20.133 19.3289 18.5605 17.3891 18.5605C15.4494 18.5605 13.877 20.133 13.877 22.0727C13.877 24.0125 15.4494 25.5849 17.3891 25.5849Z" fill="#FF0A47"/>
<path fill-rule="evenodd" clip-rule="evenodd" d="M28.8043 29.8528C30.6767 29.8528 32.1945 28.3349 32.1945 26.4625C32.1945 24.5901 30.6767 23.0723 28.8043 23.0723C26.9319 23.0723 25.4141 24.5901 25.4141 26.4625C25.4141 28.3349 26.9319 29.8528 28.8043 29.8528ZM28.8043 30.8528C31.229 30.8528 33.1945 28.8872 33.1945 26.4625C33.1945 24.0378 31.229 22.0723 28.8043 22.0723C26.3796 22.0723 24.4141 24.0378 24.4141 26.4625C24.4141 28.8872 26.3796 30.8528 28.8043 30.8528Z" fill="#FF0A47"/>
<path fill-rule="evenodd" clip-rule="evenodd" d="M59.9447 27.3521C60.9839 26.3338 62.6465 26.333 63.6866 27.3505C64.7595 28.4001 64.7587 30.1269 63.6849 31.1755L53.3526 41.2656C53.1821 41.432 53.1426 41.7193 53.2889 41.9602C54.7753 44.4075 55.2642 47.1569 54.5815 49.4827C54.3519 50.2648 53.7356 50.7056 53.0518 50.7968C52.3857 50.8856 51.6633 50.6469 51.1302 50.1253L40.5772 39.8018C40.0288 39.2653 39.7781 38.5272 39.8694 37.8478C39.9633 37.1497 40.4222 36.5255 41.2284 36.3079C43.5921 35.6696 46.3787 36.1578 48.862 37.6134C49.0957 37.7504 49.3713 37.7137 49.5363 37.5521L59.9447 27.3521ZM36.7082 39.7253C36.2772 39.3037 35.6357 39.1811 35.0796 39.4141L27.7733 42.4752C26.6999 42.925 26.1018 44.0281 26.3938 45.0804C27.5087 49.0985 29.9564 53.2463 33.6103 56.8207C37.2926 60.423 41.5723 62.829 45.7149 63.9091C46.7561 64.1805 47.8385 63.5974 48.2964 62.5516L51.4027 55.4562C51.6528 54.8849 51.5234 54.2185 51.0776 53.7824L36.7082 39.7253ZM34.6932 38.4918C35.62 38.1035 36.6892 38.3078 37.4075 39.0105L51.7769 53.0675C52.5199 53.7944 52.7356 54.9051 52.3188 55.8572L49.2124 62.9527C48.5843 64.3875 47.0417 65.2884 45.4626 64.8767C41.1378 63.7492 36.7072 61.2493 32.911 57.5356C29.1442 53.8507 26.5969 49.5526 25.4302 45.3478C24.9848 43.7425 25.9166 42.1689 27.3869 41.5529L34.6932 38.4918Z" fill="#FF0A47"/>
</svg>
