<svg xmlns="http://www.w3.org/2000/svg" width="77" height="74" fill="none"><path fill="#FF0A47" fill-rule="evenodd" d="M29.436 26.57 35.488 8h-1.311l-6.052 18.57h1.31ZM4 24.35c0-.926.187-1.774.562-2.543.38-.769.85-1.386 1.41-1.853a31.176 31.176 0 0 1 1.813-1.42c.65-.472 1.255-.893 1.813-1.26a5.053 5.053 0 0 0 1.4-1.371c.381-.545.572-1.127.572-1.745 0-.82-.27-1.481-.808-1.98-.54-.5-1.279-.75-2.218-.75-.473 0-.904.086-1.291.256-.381.165-.677.365-.887.602a4.8 4.8 0 0 0-.513.71c-.131.236-.223.44-.276.61l-.06.247-1.32-.601c.013-.092.043-.21.089-.355.052-.145.184-.401.394-.769.217-.368.47-.693.76-.976.288-.282.709-.542 1.26-.778a4.634 4.634 0 0 1 1.844-.355c1.347 0 2.441.394 3.282 1.182.841.789 1.262 1.775 1.262 2.957 0 .684-.158 1.318-.473 1.903a4.928 4.928 0 0 1-1.173 1.478c-.467.394-.996.808-1.587 1.242-.592.427-1.153.825-1.686 1.193a7.98 7.98 0 0 0-1.488 1.32c-.453.52-.775 1.068-.966 1.647h7.373v1.41H4Zm19.575-4.445h1.814v1.42h-1.814v3.025h-1.518v-3.026h-7.166V19.61l6.772-9.393h1.912v9.689Zm-1.518 0V11.93l-5.746 7.974h5.746Zm16.053-9.69H47v1.42L40.742 24.35h-1.518l6.259-12.715H38.11v-1.42Z" clip-rule="evenodd"/><path fill="#FF0A47" d="M40 .5a.5.5 0 0 0 0 1v-1ZM4.354 36.646a.5.5 0 0 0-.708 0L.464 39.828a.5.5 0 1 0 .708.707L4 37.707l2.828 2.828a.5.5 0 1 0 .708-.707l-3.182-3.182ZM40 1.5a35.5 35.5 0 0 1 19.723 5.983l.555-.832A36.5 36.5 0 0 0 40 .5v1Zm19.723 5.983a35.5 35.5 0 0 1 13.075 15.932l.924-.383a36.5 36.5 0 0 0-13.444-16.38l-.555.83Zm13.075 15.932a35.5 35.5 0 0 1 2.02 20.51l.98.196a36.5 36.5 0 0 0-2.076-21.089l-.924.383Zm2.02 20.51a35.5 35.5 0 0 1-9.716 18.177l.707.707a36.5 36.5 0 0 0 9.99-18.688l-.981-.195Zm-9.716 18.177a35.5 35.5 0 0 1-18.176 9.716l.195.98a36.5 36.5 0 0 0 18.688-9.989l-.707-.707Zm-18.176 9.716a35.5 35.5 0 0 1-20.511-2.02l-.383.924a36.5 36.5 0 0 0 21.089 2.077l-.195-.981Zm-20.511-2.02a35.5 35.5 0 0 1-15.932-13.075l-.832.555a36.5 36.5 0 0 0 16.381 13.444l.383-.924ZM10.483 56.723A35.5 35.5 0 0 1 4.5 37h-1a36.5 36.5 0 0 0 6.151 20.278l.832-.555Z"/><path fill="#F7F9FD" d="m56.765 37.29 9.093-15.71a1.052 1.052 0 0 0-.386-1.439 1.057 1.057 0 0 0-1.442.386l-9.093 15.71.063.006h.01l.032.005a2.46 2.46 0 0 1 1.661.956l.02.028c.015.019.029.038.042.058Z"/><path fill="#F7F9FD" fill-rule="evenodd" d="m46.847 36.17-3.657-2.106a2.82 2.82 0 0 0-3.846 1.028L27.378 55.766a2.805 2.805 0 0 0 1.03 3.836L40.6 66.623a2.82 2.82 0 0 0 3.846-1.028l11.966-20.674a2.805 2.805 0 0 0-1.03-3.836l-3.658-2.107-4.877-2.808Zm4.946 6.902-8.534-4.915a.705.705 0 0 0-.962.257.701.701 0 0 0 .258.959l8.534 4.915a.705.705 0 0 0 .962-.257.701.701 0 0 0-.258-.96Zm-1.408 2.432-8.534-4.915a.705.705 0 0 0-.961.257.701.701 0 0 0 .257.959l8.534 4.915a.705.705 0 0 0 .962-.257.701.701 0 0 0-.258-.96Zm-1.408 2.432-8.534-4.915a.705.705 0 0 0-.962.257.701.701 0 0 0 .258.96l8.534 4.914a.705.705 0 0 0 .962-.257.701.701 0 0 0-.258-.959Z" clip-rule="evenodd"/><path fill="#FF0A47" d="m40.443 43.021 8.534 4.915a.701.701 0 0 1 .258.96.705.705 0 0 1-.962.256l-8.534-4.915a.701.701 0 0 1-.258-.959.705.705 0 0 1 .962-.257ZM41.851 40.589l8.534 4.915a.701.701 0 0 1 .258.959.705.705 0 0 1-.962.257l-8.534-4.915a.701.701 0 0 1-.257-.96.705.705 0 0 1 .961-.256ZM43.259 38.157l8.534 4.915a.701.701 0 0 1 .258.959.705.705 0 0 1-.962.257l-8.534-4.915a.701.701 0 0 1-.258-.96.705.705 0 0 1 .962-.256Z"/><path stroke="#FF0A47" stroke-miterlimit="10" stroke-width=".9" d="m51.724 38.978.88-1.52m-.88 1.52 3.658 2.107m-3.658-2.107-4.877-2.808m9.1 5.343.924-1.597m-.924 1.597a2.824 2.824 0 0 0-.565-.428m.565.428a2.805 2.805 0 0 1 .465 3.408m.46-5.005a2.452 2.452 0 0 0-.107-2.626m.106 2.626a2.453 2.453 0 0 0-.148-2.684m-4.119.226a2.466 2.466 0 0 1 2.333-1.221m-2.333 1.221A2.466 2.466 0 0 1 55 36.243m.382 4.842L43.19 34.064m12.192 7.02a2.805 2.805 0 0 1 1.03 3.837m0 0L44.446 65.595a2.82 2.82 0 0 1-3.846 1.028l-12.192-7.021a2.805 2.805 0 0 1-1.03-3.836l11.966-20.674m3.846-1.028a2.82 2.82 0 0 0-3.846 1.028m3.846-1.028 3.657 2.106m-3.657-2.106a2.82 2.82 0 0 0-.654-.275m-3.192 1.303a2.82 2.82 0 0 1 3.192-1.303m0 0 .924-1.597a2.467 2.467 0 0 1 3.366-.9 2.454 2.454 0 0 1 .901 3.358l-.88 1.52m8.09.067 9.093-15.71a1.057 1.057 0 0 1 1.442-.386c.505.291.678.935.386 1.439l-9.093 15.71m-1.828-1.053.063.006m1.765 1.047a2.387 2.387 0 0 0-.041-.058m-2.998 13.033.61.351a1.41 1.41 0 0 0 1.922-.514l1.408-2.432a1.402 1.402 0 0 0-.515-1.918l-.61-.351m.162-8.197a2.46 2.46 0 0 0-1.661-.957m1.661.957.02.028m-.02-.028.02.028m-1.68-.984-.034-.004m.033.004-.033-.004m0 0L55 36.243m-12.445 3.13 8.534 4.915a.705.705 0 0 0 .962-.257.701.701 0 0 0-.258-.96l-8.534-4.914a.705.705 0 0 0-.962.257.701.701 0 0 0 .258.959Zm-1.408 2.432 8.534 4.915a.705.705 0 0 0 .962-.257.701.701 0 0 0-.258-.96l-8.534-4.914a.705.705 0 0 0-.961.257.701.701 0 0 0 .257.959Zm-1.408 2.432 8.534 4.915a.705.705 0 0 0 .962-.257.701.701 0 0 0-.258-.959l-8.534-4.915a.705.705 0 0 0-.962.257.701.701 0 0 0 .258.96Z"/></svg>