<svg xmlns="http://www.w3.org/2000/svg" width="74" height="74" fill="none"><path fill="#FF0A47" d="M27.644 42.452c0 1.46-1.148 2.644-2.564 2.644-1.417 0-2.565-1.183-2.565-2.644 0-1.46 1.148-2.643 2.564-2.643 1.417 0 2.565 1.183 2.565 2.643ZM57.542 46.755l2.012-4.03c.37-.74.088-1.652-.632-2.034l-.947-.502-3.326 6.73.92.488c.719.381 1.602.09 1.973-.652Z"/><path stroke="#FF0A47" stroke-miterlimit="10" d="M59.245 37.62c.467.018.929.129 1.36.329l3.897 1.804c1.552.719 3.377.056 4.15-1.507.8-1.618.175-3.599-1.395-4.423L28.531 13.48a3.571 3.571 0 0 0-3.797.294M59.245 37.62a3.556 3.556 0 0 0-.886.076l-6.336 1.357c-.809.173-1.65.06-2.388-.322l-26.727-13.82c-1.817-.939-2.545-3.223-1.622-5.09l2.318-4.69a3.731 3.731 0 0 1 1.13-1.356M59.245 37.62l-1.27 2.569m-33.24-26.414-.692-.363c-1.802-.947-4.008-.208-4.927 1.65l-5.86 11.857c-.918 1.858-.202 4.132 1.601 5.08l7.407 3.89m-7.808 18.648h3.297c2.023 0 3.663-1.69 3.663-3.776v-2.206m-6.96 11.647h7.326c2.833 0 5.862-3.122 5.862-6.042v-5.035m-6.228-.57a6.775 6.775 0 0 0 3.663 1.073 6.76 6.76 0 0 0 2.565-.503m-6.228-.57c-1.979-1.266-3.297-3.525-3.297-6.103 0-2.93 1.703-5.449 4.145-6.564m5.38 13.237c2.575-1.052 4.396-3.643 4.396-6.673a7.42 7.42 0 0 0-.154-1.51m-9.622-5.054 9.622 5.055m0 0 17.152 9.01c1.803.946 4.009.207 4.928-1.651l.683-1.383m0 0 .92.488c.719.381 1.602.09 1.973-.652l2.012-4.03c.37-.74.088-1.652-.632-2.034l-.947-.502m-3.326 6.73 3.326-6.73M14.123 64.798a3.86 3.86 0 0 0 .333-1.575V51.14c0-2.086-1.64-3.777-3.664-3.777H5.663c-1.09 0-2.07.492-2.742 1.272m11.202 16.164A35.852 35.852 0 0 0 37 73c19.882 0 36-16.118 36-36S56.882 1 37 1 1 17.118 1 37c0 4.071.676 7.985 1.921 11.634m11.202 16.164A36.06 36.06 0 0 1 2.921 48.634m24.723-6.182c0 1.46-1.148 2.644-2.564 2.644-1.417 0-2.565-1.183-2.565-2.644 0-1.46 1.148-2.643 2.564-2.643 1.417 0 2.565 1.183 2.565 2.643Z"/></svg>