<svg xmlns="http://www.w3.org/2000/svg" width="74" height="74" fill="none"><path stroke="#FF0A47" stroke-miterlimit="10" d="M37 73.439c19.882 0 36-16.118 36-36s-16.118-36-36-36-36 16.118-36 36 16.118 36 36 36Z"/><path fill="#F7F9FD" d="M21.135 56.15a2.75 2.75 0 1 0 3.535 4.213l9.226-7.742a12.493 12.493 0 0 1-3.535-4.212l-9.226 7.741Z"/><path fill="#F7F9FD" d="M58.574 28.325c-5.206-6.204-15.398-6.222-22.766-.04-6.512 5.464-8.637 13.944-5.447 20.124a12.493 12.493 0 0 0 3.535 4.212c5.532 4.215 14.252 3.595 20.764-1.87 7.368-6.181 9.12-16.222 3.914-22.426Z"/><path stroke="#FF0A47" stroke-miterlimit="10" d="m30.361 48.409-9.226 7.741a2.75 2.75 0 0 0 3.535 4.213l9.226-7.742M30.36 48.41a12.493 12.493 0 0 0 3.535 4.212M30.36 48.41c-3.19-6.18-1.065-14.66 5.447-20.124 7.367-6.182 17.56-6.165 22.766.04 5.206 6.204 3.454 16.245-3.914 22.427-6.512 5.464-15.232 6.084-20.764 1.87"/><path fill="#F7F9FD" d="M18.748 56.08a2.75 2.75 0 1 0 4.984 2.324l5.09-10.914a12.495 12.495 0 0 1-4.984-2.325l-5.09 10.915Z"/><path fill="#F7F9FD" d="M40.92 15.04c-7.34-3.423-16.586.868-20.65 9.585-3.593 7.705-1.935 16.288 3.568 20.54a12.497 12.497 0 0 0 4.984 2.325c6.794 1.482 14.436-2.766 18.028-10.47 4.065-8.717 1.41-18.558-5.93-21.98Z"/><path stroke="#FF0A47" stroke-miterlimit="10" d="m23.838 45.166-5.09 10.914a2.75 2.75 0 1 0 4.984 2.324l5.09-10.914m-4.984-2.325a12.497 12.497 0 0 0 4.984 2.325m-4.984-2.325c-5.503-4.252-7.161-12.835-3.569-20.54 4.065-8.717 13.31-13.008 20.65-9.585 7.34 3.422 9.996 13.263 5.931 21.98-3.593 7.704-11.234 11.952-18.028 10.47"/><circle cx="25" cy="21" r="5" fill="#FF0A47"/></svg>