<svg width="120" height="120" viewBox="0 0 120 120" fill="none" xmlns="http://www.w3.org/2000/svg">
<path d="M55.1693 95.2996C50.7692 95.2996 46.6477 94.4782 42.8049 92.8355C38.9621 91.1928 35.6033 88.934 32.7286 86.0593C29.8538 83.1845 27.5951 79.8257 25.9524 75.9829C24.3096 72.1401 23.4883 68.0187 23.4883 63.6185C23.4883 59.2184 24.3096 55.0969 25.9524 51.2541C27.5951 47.4113 29.8538 44.0526 32.7286 41.1778C35.6033 38.303 38.9621 36.0443 42.8049 34.4016C46.6477 32.7589 50.7692 31.9375 55.1693 31.9375C59.5695 31.9375 63.6909 32.7579 67.5337 34.4006C71.3765 36.0433 74.7353 38.3021 77.61 41.1768C80.4848 44.0516 82.7435 47.4104 84.3863 51.2532C85.6777 54.2741 86.4615 57.4679 86.7376 60.8336C86.7816 60.9389 86.8101 61.0527 86.8202 61.1731C86.8403 61.4116 86.8504 61.6401 86.8504 61.8585V63.6185C86.8504 68.0187 86.029 72.1401 84.3863 75.9829C82.7436 79.8257 80.4848 83.1845 77.6101 86.0593C74.7353 88.934 71.3765 91.1928 67.5337 92.8355C63.6909 94.4782 59.5695 95.2996 55.1693 95.2996Z" fill="white"/>
<g filter="url(#filter0_dii_2136_7132)">
<path d="M65.9451 77.4849C65.4374 77.9926 64.6143 77.9926 64.1066 77.4849L52.0302 65.4085C51.7864 65.1647 51.6494 64.8341 51.6494 64.4893V47.3191C51.6494 46.6012 52.2314 46.0191 52.9494 46.0191H57.3896C58.1076 46.0191 58.6896 46.6012 58.6896 47.3191V61.6732C58.6896 62.018 58.8266 62.3486 59.0704 62.5924L69.0348 72.5568C69.5425 73.0645 69.5425 73.8876 69.0348 74.3953L65.9451 77.4849ZM81.1103 53.0594C80.3924 53.0594 79.8103 52.4773 79.8103 51.7594V43.799C79.8103 43.081 79.2283 42.499 78.5103 42.499H70.55C69.832 42.499 69.25 41.917 69.25 41.199V36.7588C69.25 36.0408 69.832 35.4588 70.55 35.4588H78.5103C79.2283 35.4588 79.8103 34.8768 79.8103 34.1588V26.1984C79.8103 25.4805 80.3924 24.8984 81.1103 24.8984H85.5506C86.2685 24.8984 86.8506 25.4805 86.8506 26.1984V34.1588C86.8506 34.8768 87.4326 35.4588 88.1506 35.4588H96.1109C96.8289 35.4588 97.4109 36.0408 97.4109 36.7588V41.199C97.4109 41.917 96.8289 42.499 96.1109 42.499H88.1506C87.4326 42.499 86.8506 43.081 86.8506 43.799V51.7594C86.8506 52.4773 86.2685 53.0594 85.5506 53.0594H81.1103Z" fill="#ED131C"/>
</g>
<defs>
<filter id="filter0_dii_2136_7132" x="20.6537" y="3.58886" width="88.3809" height="95.5864" filterUnits="userSpaceOnUse" color-interpolation-filters="sRGB">
<feFlood flood-opacity="0" result="BackgroundImageFix"/>
<feColorMatrix in="SourceAlpha" type="matrix" values="0 0 0 0 0 0 0 0 0 0 0 0 0 0 0 0 0 0 127 0" result="hardAlpha"/>
<feOffset dx="-9.68617"/>
<feGaussianBlur stdDeviation="10.6548"/>
<feComposite in2="hardAlpha" operator="out"/>
<feColorMatrix type="matrix" values="0 0 0 0 0.531836 0 0 0 0 0.0249038 0 0 0 0 0.0447835 0 0 0 0.2 0"/>
<feBlend mode="normal" in2="BackgroundImageFix" result="effect1_dropShadow_2136_7132"/>
<feBlend mode="normal" in="SourceGraphic" in2="effect1_dropShadow_2136_7132" result="shape"/>
<feColorMatrix in="SourceAlpha" type="matrix" values="0 0 0 0 0 0 0 0 0 0 0 0 0 0 0 0 0 0 127 0" result="hardAlpha"/>
<feOffset dx="5.51733"/>
<feGaussianBlur stdDeviation="4.82767"/>
<feComposite in2="hardAlpha" operator="arithmetic" k2="-1" k3="1"/>
<feColorMatrix type="matrix" values="0 0 0 0 0.8375 0 0 0 0 0.0628125 0 0 0 0 0.094795 0 0 0 1 0"/>
<feBlend mode="normal" in2="shape" result="effect2_innerShadow_2136_7132"/>
<feColorMatrix in="SourceAlpha" type="matrix" values="0 0 0 0 0 0 0 0 0 0 0 0 0 0 0 0 0 0 127 0" result="hardAlpha"/>
<feOffset dx="-5.51733"/>
<feGaussianBlur stdDeviation="5.51733"/>
<feComposite in2="hardAlpha" operator="arithmetic" k2="-1" k3="1"/>
<feColorMatrix type="matrix" values="0 0 0 0 1 0 0 0 0 0.3125 0 0 0 0 0.340883 0 0 0 1 0"/>
<feBlend mode="normal" in2="effect2_innerShadow_2136_7132" result="effect3_innerShadow_2136_7132"/>
</filter>
</defs>
</svg>
