<svg width="120" height="115" viewBox="0 0 120 115" fill="none" xmlns="http://www.w3.org/2000/svg">
<g filter="url(#filter0_dii_2136_7115)">
<path d="M49.2326 95.9986C48.5146 95.9986 47.9326 95.4166 47.9326 94.6986V78.8985C47.9326 77.4085 48.2861 76.0312 48.993 74.7664C49.6999 73.5017 50.7013 72.4576 51.9973 71.634C54.8249 70.0458 57.7998 68.8105 60.922 67.9281C64.0441 67.0457 67.2252 66.6046 70.4652 66.6046C73.7052 66.6046 76.8833 67.0313 79.9995 67.8849C83.1164 68.7384 86.0942 69.9881 88.933 71.634C90.229 72.3988 91.2305 73.4285 91.9374 74.7232C92.6443 76.0179 92.9977 77.4 92.9977 78.8694V94.6986C92.9977 95.4166 92.4157 95.9986 91.6978 95.9986H49.2326ZM70.4811 64.1339C67.1716 64.1339 64.3534 62.9774 62.0265 60.6645C59.6996 58.3509 58.5362 55.542 58.5362 52.2379C58.5362 48.9331 59.6943 46.119 62.0106 43.7954C64.3275 41.4718 67.1404 40.3101 70.4493 40.3101C73.7588 40.3101 76.577 41.4665 78.9038 43.7795C81.2307 46.0931 82.3942 48.9019 82.3942 52.2061C82.3942 55.5109 81.236 58.325 78.9197 60.6486C76.6029 62.9721 73.79 64.1339 70.4811 64.1339Z" fill="#ED131C"/>
</g>
<path d="M57.501 26.2597C57.963 25.9134 58.5985 25.9134 59.0605 26.2597L73.4004 37.0068C73.7278 37.2523 73.9209 37.6376 73.9209 38.0468V40.787C72.831 40.4705 71.6736 40.3124 70.4492 40.3124C67.1404 40.3125 64.3276 41.4743 62.0107 43.7978C59.6946 46.1213 58.5361 48.9355 58.5361 52.2402C58.5362 55.5442 59.6995 58.3534 62.0264 60.6669C64.3533 62.9799 67.172 64.1357 70.4814 64.1357C71.6948 64.1357 72.8409 63.9774 73.9209 63.665V66.7714C72.7771 66.6621 71.6255 66.6064 70.4658 66.6064C67.2258 66.6064 64.044 67.0482 60.9219 67.9306C57.7999 68.813 54.8246 70.0475 51.9971 71.6357C50.7012 72.4592 49.7 73.5038 48.9932 74.7685C48.2863 76.0331 47.9327 77.4104 47.9326 78.9003V94.7011C47.9329 95.4125 48.5048 95.9898 49.2139 95.9999H28.2998C27.582 95.9999 27.0001 95.4179 27 94.7001L27 49.7675C27 49.3582 27.193 48.9729 27.5205 48.7275L57.501 26.2597Z" fill="white"/>
<defs>
<filter id="filter0_dii_2136_7115" x="17.2994" y="19.2498" width="87.186" height="97.8091" filterUnits="userSpaceOnUse" color-interpolation-filters="sRGB">
<feFlood flood-opacity="0" result="BackgroundImageFix"/>
<feColorMatrix in="SourceAlpha" type="matrix" values="0 0 0 0 0 0 0 0 0 0 0 0 0 0 0 0 0 0 127 0" result="hardAlpha"/>
<feOffset dx="-9.57287"/>
<feGaussianBlur stdDeviation="10.5302"/>
<feComposite in2="hardAlpha" operator="out"/>
<feColorMatrix type="matrix" values="0 0 0 0 0.531836 0 0 0 0 0.0249038 0 0 0 0 0.0447835 0 0 0 0.2 0"/>
<feBlend mode="normal" in2="BackgroundImageFix" result="effect1_dropShadow_2136_7115"/>
<feBlend mode="normal" in="SourceGraphic" in2="effect1_dropShadow_2136_7115" result="shape"/>
<feColorMatrix in="SourceAlpha" type="matrix" values="0 0 0 0 0 0 0 0 0 0 0 0 0 0 0 0 0 0 127 0" result="hardAlpha"/>
<feOffset dx="5.45279"/>
<feGaussianBlur stdDeviation="4.77119"/>
<feComposite in2="hardAlpha" operator="arithmetic" k2="-1" k3="1"/>
<feColorMatrix type="matrix" values="0 0 0 0 0.8375 0 0 0 0 0.0628125 0 0 0 0 0.094795 0 0 0 1 0"/>
<feBlend mode="normal" in2="shape" result="effect2_innerShadow_2136_7115"/>
<feColorMatrix in="SourceAlpha" type="matrix" values="0 0 0 0 0 0 0 0 0 0 0 0 0 0 0 0 0 0 127 0" result="hardAlpha"/>
<feOffset dx="-5.45279"/>
<feGaussianBlur stdDeviation="5.45279"/>
<feComposite in2="hardAlpha" operator="arithmetic" k2="-1" k3="1"/>
<feColorMatrix type="matrix" values="0 0 0 0 1 0 0 0 0 0.3125 0 0 0 0 0.340883 0 0 0 1 0"/>
<feBlend mode="normal" in2="effect2_innerShadow_2136_7115" result="effect3_innerShadow_2136_7115"/>
</filter>
</defs>
</svg>
