<svg xmlns="http://www.w3.org/2000/svg" width="120" height="120" viewBox="0 0 120 120" fill="none">
    <mask id="mask0_12148_28151" style="mask-type:alpha" maskUnits="userSpaceOnUse" x="19" y="22" width="73" height="74">
        <rect x="19" y="22.334" width="73" height="73" fill="#D9D9D9"/>
    </mask>
    <g mask="url(#mask0_12148_28151)">
        <path d="M31.1663 86.2096C29.4934 86.2096 28.0613 85.614 26.87 84.4227C25.6787 83.2313 25.083 81.7992 25.083 80.1263V46.668C25.083 44.9951 25.6787 43.5629 26.87 42.3716C28.0613 41.1803 29.4934 40.5846 31.1663 40.5846H42.033C42.751 40.5846 43.333 40.0026 43.333 39.2846V34.5013C43.333 32.8284 43.9287 31.3963 45.12 30.2049C46.3113 29.0136 47.7434 28.418 49.4163 28.418H61.583C63.2559 28.418 64.688 29.0136 65.8794 30.2049C67.0707 31.3963 67.6663 32.8284 67.6663 34.5013V39.2846C67.6663 40.0026 68.2484 40.5846 68.9663 40.5846H79.833C81.5059 40.5846 82.938 41.1803 84.1294 42.3716C85.3207 43.5629 85.9163 44.9951 85.9163 46.668V80.1263C85.9163 81.7992 85.3207 83.2313 84.1294 84.4227C82.938 85.614 81.5059 86.2096 79.833 86.2096H31.1663ZM49.4163 39.2846C49.4163 40.0026 49.9984 40.5846 50.7163 40.5846H60.283C61.001 40.5846 61.583 40.0026 61.583 39.2846V35.8013C61.583 35.0833 61.001 34.5013 60.283 34.5013H50.7163C49.9984 34.5013 49.4163 35.0833 49.4163 35.8013V39.2846ZM55.4997 69.4805C57.1726 69.4805 58.6047 68.8848 59.796 67.6935C60.9874 66.5022 61.583 65.0701 61.583 63.3971C61.583 61.7242 60.9874 60.2921 59.796 59.1008C58.6047 57.9095 57.1726 57.3138 55.4997 57.3138C53.8268 57.3138 52.3946 57.9095 51.2033 59.1008C50.012 60.2921 49.4163 61.7242 49.4163 63.3971C49.4163 65.0701 50.012 66.5022 51.2033 67.6935C52.3946 68.8848 53.8268 69.4805 55.4997 69.4805Z" fill="white"/>
        <path d="M55.4997 69.4805C57.1726 69.4805 58.6047 68.8848 59.796 67.6935C60.9874 66.5022 61.583 65.0701 61.583 63.3971C61.583 61.7242 60.9874 60.2921 59.796 59.1008C58.6047 57.9095 57.1726 57.3138 55.4997 57.3138C53.8268 57.3138 52.3946 57.9095 51.2033 59.1008C50.012 60.2921 49.4163 61.7242 49.4163 63.3971C49.4163 65.0701 50.012 66.5022 51.2033 67.6935C52.3946 68.8848 53.8268 69.4805 55.4997 69.4805Z" fill="white"/>
    </g>
    <g filter="url(#filter0_dii_12148_28151)">
        <path d="M60 69.3039C60 68.9536 59.8586 68.618 59.6078 68.3734L55.9216 64.7774C55.3936 64.2623 55.3995 63.4117 55.9344 62.9039L59.595 59.4294C59.8536 59.184 60 58.8431 60 58.4866V52.3987C60 51.2512 58.6216 50.6665 57.7965 51.4641L45.9669 62.8993C45.4383 63.4103 45.4383 64.2577 45.9669 64.7687L57.7965 76.2039C58.6216 77.0015 60 76.4168 60 75.2692V69.3039Z" fill="#ED131C"/>
    </g>
    <defs>
        <filter id="filter0_dii_12148_28151" x="14.5746" y="29.7861" width="57.0488" height="68.0957" filterUnits="userSpaceOnUse" color-interpolation-filters="sRGB">
            <feFlood flood-opacity="0" result="BackgroundImageFix"/>
            <feColorMatrix in="SourceAlpha" type="matrix" values="0 0 0 0 0 0 0 0 0 0 0 0 0 0 0 0 0 0 127 0" result="hardAlpha"/>
            <feOffset dx="-9.68617"/>
            <feGaussianBlur stdDeviation="10.6548"/>
            <feComposite in2="hardAlpha" operator="out"/>
            <feColorMatrix type="matrix" values="0 0 0 0 0.531836 0 0 0 0 0.0249038 0 0 0 0 0.0447835 0 0 0 0.2 0"/>
            <feBlend mode="normal" in2="BackgroundImageFix" result="effect1_dropShadow_12148_28151"/>
            <feBlend mode="normal" in="SourceGraphic" in2="effect1_dropShadow_12148_28151" result="shape"/>
            <feColorMatrix in="SourceAlpha" type="matrix" values="0 0 0 0 0 0 0 0 0 0 0 0 0 0 0 0 0 0 127 0" result="hardAlpha"/>
            <feOffset dx="5.51733"/>
            <feGaussianBlur stdDeviation="4.82767"/>
            <feComposite in2="hardAlpha" operator="arithmetic" k2="-1" k3="1"/>
            <feColorMatrix type="matrix" values="0 0 0 0 0.8375 0 0 0 0 0.0628125 0 0 0 0 0.094795 0 0 0 1 0"/>
            <feBlend mode="normal" in2="shape" result="effect2_innerShadow_12148_28151"/>
            <feColorMatrix in="SourceAlpha" type="matrix" values="0 0 0 0 0 0 0 0 0 0 0 0 0 0 0 0 0 0 127 0" result="hardAlpha"/>
            <feOffset dx="-5.51733"/>
            <feGaussianBlur stdDeviation="5.51733"/>
            <feComposite in2="hardAlpha" operator="arithmetic" k2="-1" k3="1"/>
            <feColorMatrix type="matrix" values="0 0 0 0 1 0 0 0 0 0.3125 0 0 0 0 0.340883 0 0 0 1 0"/>
            <feBlend mode="normal" in2="effect2_innerShadow_12148_28151" result="effect3_innerShadow_12148_28151"/>
        </filter>
    </defs>
</svg>
