<svg xmlns="http://www.w3.org/2000/svg" fill="none" viewBox="0 0 79 85"><g filter="url(#a)"><path fill="#ED131C" d="M32.26 84.7A31.74 31.74 0 0 1 2.8 65.37 30.9 30.9 0 0 1 .3 53c0-4.4.83-8.51 2.5-12.36a31.9 31.9 0 0 1 29.49-19.38 31.9 31.9 0 0 1 29.47 19.4 30.9 30.9 0 0 1 2.5 12.37c0 4.39-.83 8.5-2.5 12.36a31.8 31.8 0 0 1-29.5 19.31Zm.02-7.63c6.75 0 12.5-2.33 17.24-7A23.04 23.04 0 0 0 56.62 53c0-6.69-2.36-12.38-7.1-17.08a23.58 23.58 0 0 0-17.24-7.04c-6.75 0-12.5 2.34-17.24 7.04A23.16 23.16 0 0 0 7.93 53c0 6.7 2.37 12.38 7.1 17.05a23.64 23.64 0 0 0 17.25 7.01v.01Zm0-4.4a19.2 19.2 0 0 1-14.05-5.73 18.85 18.85 0 0 1-5.8-13.92 18.9 18.9 0 0 1 5.8-13.93 19.2 19.2 0 0 1 14.04-5.74c5.5 0 10.2 1.91 14.06 5.74A18.85 18.85 0 0 1 52.12 53a18.9 18.9 0 0 1-5.8 13.92 19.2 19.2 0 0 1-14.03 5.74l-.01.01Zm-.01-7.63c3.33 0 6.2-1.17 8.58-3.53a11.5 11.5 0 0 0 3.57-8.49c0-3.3-1.2-6.15-3.57-8.53a11.66 11.66 0 0 0-8.56-3.57 11.7 11.7 0 0 0-8.58 3.57 11.65 11.65 0 0 0-3.57 8.53c0 3.3 1.19 6.14 3.56 8.5a11.73 11.73 0 0 0 8.57 3.52Zm0-4.47a7.5 7.5 0 0 1-5.44-2.2 7.2 7.2 0 0 1-2.25-5.35c0-2.1.75-3.9 2.26-5.4a7.46 7.46 0 0 1 5.45-2.24 7.4 7.4 0 0 1 5.43 2.25 7.34 7.34 0 0 1 2.26 5.4c0 2.1-.76 3.88-2.27 5.35a7.54 7.54 0 0 1-5.44 2.2v-.01Z"/></g><g fill="#ECEDF0" filter="url(#b)"><path d="M32.27 60.57a7.5 7.5 0 0 1-5.44-2.2 7.2 7.2 0 0 1-2.25-5.35c0-2.1.75-3.9 2.26-5.4a7.46 7.46 0 0 1 5.45-2.24 7.4 7.4 0 0 1 5.43 2.25 7.34 7.34 0 0 1 2.26 5.4c0 2.1-.76 3.88-2.27 5.34a7.54 7.54 0 0 1-5.44 2.2Z"/><path d="M60.5 24.57c.03.4.35.72.75.75l6.46.4a.8.8 0 0 1 .52 1.35l-16.35 16.2a.8.8 0 0 1-.62.23l-5.58-.34-6.37 6.31a7.6 7.6 0 0 1 .82 3.52c0 2.15-.77 3.98-2.3 5.48a7.66 7.66 0 0 1-5.56 2.25 7.63 7.63 0 0 1-5.54-2.25 7.38 7.38 0 0 1-2.3-5.48c0-2.15.77-4 2.3-5.52a7.58 7.58 0 0 1 5.56-2.3 7.6 7.6 0 0 1 3.94 1.04l6.27-6.2-.35-5.54a.8.8 0 0 1 .23-.6l16.35-16.2a.8.8 0 0 1 1.37.5l.4 6.4Z"/></g><defs><filter id="a" width="77.66" height="63.44" x="-6.55" y="21.26" color-interpolation-filters="sRGB" filterUnits="userSpaceOnUse"><feFlood flood-opacity="0" result="BackgroundImageFix"/><feBlend in="SourceGraphic" in2="BackgroundImageFix" result="shape"/><feColorMatrix in="SourceAlpha" result="hardAlpha" values="0 0 0 0 0 0 0 0 0 0 0 0 0 0 0 0 0 0 127 0"/><feOffset dx="6.85"/><feGaussianBlur stdDeviation="6"/><feComposite in2="hardAlpha" k2="-1" k3="1" operator="arithmetic"/><feColorMatrix values="0 0 0 0 0.8375 0 0 0 0 0.0628125 0 0 0 0 0.094795 0 0 0 1 0"/><feBlend in2="shape" result="effect1_innerShadow_286_1233"/><feColorMatrix in="SourceAlpha" result="hardAlpha" values="0 0 0 0 0 0 0 0 0 0 0 0 0 0 0 0 0 0 127 0"/><feOffset dx="-6.85"/><feGaussianBlur stdDeviation="6.85"/><feComposite in2="hardAlpha" k2="-1" k3="1" operator="arithmetic"/><feColorMatrix values="0 0 0 0 1 0 0 0 0 0.3125 0 0 0 0 0.340883 0 0 0 1 0"/><feBlend in2="effect1_innerShadow_286_1233" result="effect2_innerShadow_286_1233"/></filter><filter id="b" width="77.7" height="76.97" x=".37" y=".59" color-interpolation-filters="sRGB" filterUnits="userSpaceOnUse"><feFlood flood-opacity="0" result="BackgroundImageFix"/><feColorMatrix in="SourceAlpha" result="hardAlpha" values="0 0 0 0 0 0 0 0 0 0 0 0 0 0 0 0 0 0 127 0"/><feOffset dx="-7.22"/><feGaussianBlur stdDeviation="8.42"/><feComposite in2="hardAlpha" operator="out"/><feColorMatrix values="0 0 0 0 0.608333 0 0 0 0 0.608333 0 0 0 0 0.608333 0 0 0 0.1 0"/><feBlend in2="BackgroundImageFix" result="effect1_dropShadow_286_1233"/><feBlend in="SourceGraphic" in2="effect1_dropShadow_286_1233" result="shape"/></filter></defs></svg>