<svg xmlns="http://www.w3.org/2000/svg" fill="none" viewBox="0 0 104 98"><path fill="#fff" d="M45.13 80.67a2.97 2.97 0 0 1-1.82-1.4 2.8 2.8 0 0 1-.35-2.25 4 4 0 0 1 2-2.54l13.87-7.95c.5-.3.68-.93.4-1.44l-.35-.63c-.29-.52-.94-.7-1.46-.4l-13.86 8c-.52.3-1.03.46-1.52.47a5.4 5.4 0 0 1-1.55-.2 2.85 2.85 0 0 1-1.79-1.39 2.85 2.85 0 0 1-.31-2.24 3.67 3.67 0 0 1 1.84-2.5l13.8-7.97c.5-.3.67-.94.38-1.45l-.34-.59c-.3-.5-.94-.68-1.45-.39l-13.17 7.55c-.46.27-.95.43-1.48.48-.53.06-1.08 0-1.68-.16a2.74 2.74 0 0 1-1.75-1.38 2.91 2.91 0 0 1-.28-2.23 3.76 3.76 0 0 1 1.82-2.44l13.3-7.73c.51-.3.68-.94.39-1.45l-.34-.58c-.3-.51-.94-.69-1.45-.4l-13.3 7.74a3.3 3.3 0 0 1-1.46.44 5.23 5.23 0 0 1-1.67-.19 2.85 2.85 0 0 1-1.79-1.39 2.85 2.85 0 0 1-.31-2.24c.14-.55.42-1.06.81-1.54.4-.48.86-.87 1.38-1.17l17.53-10.17c.5-.3 1.16-.13 1.45.38l5.02 8.69c.63 1.1 1.3 1.97 2 2.62a6.6 6.6 0 0 0 2.83 1.45c1.86.5 3.56.31 5.1-.57a6.46 6.46 0 0 0 3.03-4.12c.32-1.19.38-2.2.17-3.07-.21-.86-.63-1.84-1.26-2.94L61.2 30.5c-.28-.5-.12-1.13.36-1.43l.11-.07a11.3 11.3 0 0 1 3.7-1.28c1.28-.2 2.71-.08 4.3.35a9.5 9.5 0 0 1 3.55 1.79c1.04.84 1.9 1.84 2.56 3l7.1 12.28c.86 1.5 1.44 3.1 1.72 4.78a12.5 12.5 0 0 1-.33 5.32 11.96 11.96 0 0 1-2.43 4.7 14.4 14.4 0 0 1-3.8 3.22l-29.7 17.2c-.51.3-1.05.47-1.59.5a5.33 5.33 0 0 1-1.63-.19Z"/><g filter="url(#a)"><path fill="#ED131C" d="M29.27 47.9c-.5.29-1.15.11-1.45-.4l-1.22-2.1a9.95 9.95 0 0 1-1.28-3.42 9.2 9.2 0 0 1 .23-4.11 11.34 11.34 0 0 1 1.86-3.97 9.95 9.95 0 0 1 2.98-2.64l11.68-6.74c1.1-.64 2.26-1.08 3.47-1.34a8.52 8.52 0 0 1 4 .2c1.65.43 2.97 1.03 3.99 1.8 1.02.75 1.9 1.8 2.67 3.12l8.88 15.19c.4.69.67 1.36.82 2a3.65 3.65 0 0 1-1.83 4.12c-.96.55-1.91.7-2.87.44a3.84 3.84 0 0 1-1.63-.87c-.45-.42-.9-1-1.32-1.75L51.7 36.21c-.3-.5-.94-.68-1.44-.39l-21 12.07Z"/></g><defs><filter id="a" width="75.21" height="61.55" x=".17" y="5.82" color-interpolation-filters="sRGB" filterUnits="userSpaceOnUse"><feFlood flood-opacity="0" result="BackgroundImageFix"/><feColorMatrix in="SourceAlpha" result="hardAlpha" values="0 0 0 0 0 0 0 0 0 0 0 0 0 0 0 0 0 0 127 0"/><feOffset dx="-7.82"/><feGaussianBlur stdDeviation="8.6"/><feComposite in2="hardAlpha" operator="out"/><feColorMatrix values="0 0 0 0 0.531836 0 0 0 0 0.0249038 0 0 0 0 0.0447835 0 0 0 0.2 0"/><feBlend in2="BackgroundImageFix" result="effect1_dropShadow_2136_7045"/><feBlend in="SourceGraphic" in2="effect1_dropShadow_2136_7045" result="shape"/><feColorMatrix in="SourceAlpha" result="hardAlpha" values="0 0 0 0 0 0 0 0 0 0 0 0 0 0 0 0 0 0 127 0"/><feOffset dx="4.45"/><feGaussianBlur stdDeviation="3.9"/><feComposite in2="hardAlpha" k2="-1" k3="1" operator="arithmetic"/><feColorMatrix values="0 0 0 0 0.8375 0 0 0 0 0.0628125 0 0 0 0 0.094795 0 0 0 1 0"/><feBlend in2="shape" result="effect2_innerShadow_2136_7045"/><feColorMatrix in="SourceAlpha" result="hardAlpha" values="0 0 0 0 0 0 0 0 0 0 0 0 0 0 0 0 0 0 127 0"/><feOffset dx="-4.45"/><feGaussianBlur stdDeviation="4.45"/><feComposite in2="hardAlpha" k2="-1" k3="1" operator="arithmetic"/><feColorMatrix values="0 0 0 0 1 0 0 0 0 0.3125 0 0 0 0 0.340883 0 0 0 1 0"/><feBlend in2="effect2_innerShadow_2136_7045" result="effect3_innerShadow_2136_7045"/></filter></defs></svg>