<svg xmlns="http://www.w3.org/2000/svg" fill="none" viewBox="0 0 98 98"><path fill="#fff" d="M32.6 77.68c11.14 5.36 24.26 1.26 29.31-9.17l9.14-18.87-40.33-19.42-9.14 18.87c-5.05 10.42-.11 23.22 11.03 28.59Z"/><path fill="#fff" d="M56.25 27.77c.48 0 .94.22 1.24.6L82.3 59.95a.8.8 0 0 1-.61 1.28l-39.57.02c-.72 0-1.4-.33-1.85-.9l-24.6-31.28a.8.8 0 0 1 .62-1.29l39.95-.01Z"/><g filter="url(#a)"><path fill="#ED131C" d="M30.47 47.07a1.06 1.06 0 0 0-1.8.2l-1.83 3.82c-3.89 8.1-.08 18.04 8.5 22.21 8.57 4.17 18.67.98 22.56-7.12l1.8-3.76c.34-.7-.17-1.52-.95-1.52H42.52c-.72.01-1.4-.32-1.86-.9l-10.2-12.93Z"/></g><g filter="url(#b)"><path fill="#ED131C" d="M72.9 55.92a.65.65 0 0 1 1.2.03l5.88 15.06c.25.64-.49 1.2-1.01.77l-2.83-2.3a.65.65 0 0 0-1 .25l-1.5 3.38a.65.65 0 0 1-1.2-.04l-1.32-3.45a.65.65 0 0 0-.99-.3l-2.94 2.13c-.55.4-1.26-.2-.98-.82l6.69-14.7Z"/></g><defs><filter id="a" width="43.67" height="37.64" x="18.96" y="42.08" color-interpolation-filters="sRGB" filterUnits="userSpaceOnUse"><feFlood flood-opacity="0" result="BackgroundImageFix"/><feColorMatrix in="SourceAlpha" result="hardAlpha" values="0 0 0 0 0 0 0 0 0 0 0 0 0 0 0 0 0 0 127 0"/><feOffset dx="-1.76"/><feGaussianBlur stdDeviation="2.29"/><feComposite in2="hardAlpha" operator="out"/><feColorMatrix values="0 0 0 0 0.531836 0 0 0 0 0.0249038 0 0 0 0 0.0447835 0 0 0 0.2 0"/><feBlend in2="BackgroundImageFix" result="effect1_dropShadow_2136_7042"/><feBlend in="SourceGraphic" in2="effect1_dropShadow_2136_7042" result="shape"/><feColorMatrix in="SourceAlpha" result="hardAlpha" values="0 0 0 0 0 0 0 0 0 0 0 0 0 0 0 0 0 0 127 0"/><feOffset dx="1.1"/><feGaussianBlur stdDeviation=".96"/><feComposite in2="hardAlpha" k2="-1" k3="1" operator="arithmetic"/><feColorMatrix values="0 0 0 0 0.8375 0 0 0 0 0.0628125 0 0 0 0 0.094795 0 0 0 1 0"/><feBlend in2="shape" result="effect2_innerShadow_2136_7042"/><feColorMatrix in="SourceAlpha" result="hardAlpha" values="0 0 0 0 0 0 0 0 0 0 0 0 0 0 0 0 0 0 127 0"/><feOffset dx="-1.1"/><feGaussianBlur stdDeviation="1.1"/><feComposite in2="hardAlpha" k2="-1" k3="1" operator="arithmetic"/><feColorMatrix values="0 0 0 0 1 0 0 0 0 0.3125 0 0 0 0 0.340883 0 0 0 1 0"/><feBlend in2="effect2_innerShadow_2136_7042" result="effect3_innerShadow_2136_7042"/></filter><filter id="b" width="22.01" height="26.09" x="60.53" y="51.47" color-interpolation-filters="sRGB" filterUnits="userSpaceOnUse"><feFlood flood-opacity="0" result="BackgroundImageFix"/><feColorMatrix in="SourceAlpha" result="hardAlpha" values="0 0 0 0 0 0 0 0 0 0 0 0 0 0 0 0 0 0 127 0"/><feOffset dx="-1.56"/><feGaussianBlur stdDeviation="2.03"/><feComposite in2="hardAlpha" operator="out"/><feColorMatrix values="0 0 0 0 0.531836 0 0 0 0 0.0249038 0 0 0 0 0.0447835 0 0 0 0.2 0"/><feBlend in2="BackgroundImageFix" result="effect1_dropShadow_2136_7042"/><feBlend in="SourceGraphic" in2="effect1_dropShadow_2136_7042" result="shape"/><feColorMatrix in="SourceAlpha" result="hardAlpha" values="0 0 0 0 0 0 0 0 0 0 0 0 0 0 0 0 0 0 127 0"/><feOffset dx=".97"/><feGaussianBlur stdDeviation=".85"/><feComposite in2="hardAlpha" k2="-1" k3="1" operator="arithmetic"/><feColorMatrix values="0 0 0 0 0.8375 0 0 0 0 0.0628125 0 0 0 0 0.094795 0 0 0 1 0"/><feBlend in2="shape" result="effect2_innerShadow_2136_7042"/><feColorMatrix in="SourceAlpha" result="hardAlpha" values="0 0 0 0 0 0 0 0 0 0 0 0 0 0 0 0 0 0 127 0"/><feOffset dx="-.97"/><feGaussianBlur stdDeviation=".97"/><feComposite in2="hardAlpha" k2="-1" k3="1" operator="arithmetic"/><feColorMatrix values="0 0 0 0 1 0 0 0 0 0.3125 0 0 0 0 0.340883 0 0 0 1 0"/><feBlend in2="effect2_innerShadow_2136_7042" result="effect3_innerShadow_2136_7042"/></filter></defs></svg>