<svg xmlns="http://www.w3.org/2000/svg" fill="none" viewBox="0 0 97 97"><path fill="#fff" d="M41.12 78.24a27.34 27.34 0 0 1-10.04-4.99 28.55 28.55 0 0 1-10.62-18.43c-.54-3.7-.3-7.44.71-11.22a27.57 27.57 0 0 1 5-10.07 28.55 28.55 0 0 1 18.4-10.65c3.68-.55 7.41-.31 11.2.7a27.57 27.57 0 0 1 10.06 5 28.94 28.94 0 0 1 7.15 8.19 28.28 28.28 0 0 1 3.56 10.26c.54 3.7.3 7.44-.71 11.22a27.57 27.57 0 0 1-5 10.07 28.28 28.28 0 0 1-8.2 7.1 28.94 28.94 0 0 1-10.3 3.53c-3.7.53-7.44.3-11.21-.71Z"/><g filter="url(#a)"><path fill="#ED131C" d="M61.8 47.96c.22.26.54.4.87.38l2.55-.17c.35-.02.67-.22.84-.52l1.25-2.15c.15-.26.18-.57.08-.85a21.17 21.17 0 0 0-3.1-5.8 18.2 18.2 0 0 0-4.74-4.39c-.27-.17-.6-.2-.9-.09l-2.97 1.08c-.33.12-.57.38-.66.71l-.61 2.28c-.09.34-.01.69.2.95l7.2 8.57ZM37.52 41.6c.28.18.63.22.94.11l10.5-3.83c.33-.12.58-.39.66-.72l.62-2.28c.08-.33 0-.68-.22-.95L48 31.51c-.2-.24-.51-.38-.83-.36-2.17.1-4.27.57-6.3 1.43-2.03.86-3.9 2.02-5.58 3.46-.23.2-.35.48-.35.78v2.48c0 .35.17.68.47.88l2.12 1.42Zm-7.36 17.75c.14.3.43.52.76.58l1.81.32c.35.06.7-.06.95-.32l1.94-2.06c.2-.2.3-.49.28-.78l-.59-10.48a1.05 1.05 0 0 0-.44-.8l-2.18-1.54c-.29-.21-.67-.26-1-.12l-1.95.81c-.3.13-.53.39-.61.7a23.05 23.05 0 0 0-.72 6.97c.13 2.17.71 4.41 1.75 6.72Zm13.08 11.22c1 .27 2.05.45 3.13.54.9.07 1.81.12 2.72.14.32.01.63-.13.83-.38l1.95-2.4c.21-.26.29-.62.19-.95l-.6-2.05c-.1-.35-.38-.63-.73-.72l-11.07-2.97c-.36-.1-.74 0-1 .26l-1.53 1.46c-.25.25-.37.6-.3.96l.59 3.09c.05.3.24.56.51.71.77.42 1.55.83 2.36 1.22.96.46 1.94.82 2.95 1.09Zm-2.27-14.38c.03.45.34.84.78.96l9.5 2.54c.43.12.89-.05 1.14-.43l5.07-7.52c.27-.39.24-.9-.07-1.26l-6.19-7.3a1.05 1.05 0 0 0-1.16-.31l-8.9 3.25c-.44.16-.72.59-.7 1.05l.53 9.02Zm18.25 11.33c.32.11.68.07.95-.13a19.13 19.13 0 0 0 4.88-4.94 23.03 23.03 0 0 0 2.85-6.38c.1-.32.02-.67-.2-.93l-1.3-1.6c-.21-.25-.54-.4-.87-.37l-2.64.15c-.34.02-.64.2-.82.48l-5.74 8.77c-.16.24-.21.53-.15.81l.65 2.76c.09.34.33.62.67.74l1.72.64Z"/></g><defs><filter id="a" width="47.61" height="48.15" x="22.8" y="27.12" color-interpolation-filters="sRGB" filterUnits="userSpaceOnUse"><feFlood flood-opacity="0" result="BackgroundImageFix"/><feColorMatrix in="SourceAlpha" result="hardAlpha" values="0 0 0 0 0 0 0 0 0 0 0 0 0 0 0 0 0 0 127 0"/><feOffset dx="-1.55"/><feGaussianBlur stdDeviation="2.01"/><feComposite in2="hardAlpha" operator="out"/><feColorMatrix values="0 0 0 0 0.531836 0 0 0 0 0.0249038 0 0 0 0 0.0447835 0 0 0 0.2 0"/><feBlend in2="BackgroundImageFix" result="effect1_dropShadow_2136_7063"/><feBlend in="SourceGraphic" in2="effect1_dropShadow_2136_7063" result="shape"/><feColorMatrix in="SourceAlpha" result="hardAlpha" values="0 0 0 0 0 0 0 0 0 0 0 0 0 0 0 0 0 0 127 0"/><feOffset dx=".96"/><feGaussianBlur stdDeviation=".84"/><feComposite in2="hardAlpha" k2="-1" k3="1" operator="arithmetic"/><feColorMatrix values="0 0 0 0 0.8375 0 0 0 0 0.0628125 0 0 0 0 0.094795 0 0 0 1 0"/><feBlend in2="shape" result="effect2_innerShadow_2136_7063"/><feColorMatrix in="SourceAlpha" result="hardAlpha" values="0 0 0 0 0 0 0 0 0 0 0 0 0 0 0 0 0 0 127 0"/><feOffset dx="-.96"/><feGaussianBlur stdDeviation=".96"/><feComposite in2="hardAlpha" k2="-1" k3="1" operator="arithmetic"/><feColorMatrix values="0 0 0 0 1 0 0 0 0 0.3125 0 0 0 0 0.340883 0 0 0 1 0"/><feBlend in2="effect2_innerShadow_2136_7063" result="effect3_innerShadow_2136_7063"/></filter></defs></svg>