<svg xmlns="http://www.w3.org/2000/svg" fill="none" viewBox="0 0 98 98"><g filter="url(#a)"><path fill="#ED131C" d="M60.5 62.25c.02-.4.25-.75.6-.92l10.3-4.9c.25-.13.55-.14.82-.04l7.96 2.9c.88.32.94 1.54.1 1.94l-11.16 5.41c-.35.17-.58.53-.6.92l-.4 12.48a1.06 1.06 0 0 1-1.83.68l-5.9-6.32c-.19-.2-.29-.48-.28-.76l.4-11.39Zm-.63-24a1.06 1.06 0 0 1-.69-.85l-.63-4.43c-.04-.28.04-.58.22-.8l4.94-6.28a1.06 1.06 0 0 1 1.88.5l1.82 12.92c.1.79-.66 1.41-1.4 1.14l-6.14-2.2Z"/></g><path fill="#fff" d="M21.46 69.87c-.9.27-1.67-.69-1.22-1.51l8.73-16.3c.19-.35.17-.77-.06-1.1L18.5 35.6c-.53-.78.14-1.8 1.06-1.64l18.25 3.29c.39.07.78-.08 1.02-.4L50.2 22.3a1.06 1.06 0 0 1 1.89.5l2.56 18.3c.05.39.32.71.69.85l17.45 6.27c.88.32.94 1.54.1 1.95l-16.71 8.1c-.36.18-.59.53-.6.92l-.59 18.49a1.06 1.06 0 0 1-1.82.7L40.32 65c-.27-.29-.68-.4-1.05-.29l-17.8 5.16Z"/><defs><filter id="a" width="56.63" height="89.88" x="33.59" y="8.33" color-interpolation-filters="sRGB" filterUnits="userSpaceOnUse"><feFlood flood-opacity="0" result="BackgroundImageFix"/><feColorMatrix in="SourceAlpha" result="hardAlpha" values="0 0 0 0 0 0 0 0 0 0 0 0 0 0 0 0 0 0 127 0"/><feOffset dx="-7.8"/><feGaussianBlur stdDeviation="8.58"/><feComposite in2="hardAlpha" operator="out"/><feColorMatrix values="0 0 0 0 0.531836 0 0 0 0 0.0249038 0 0 0 0 0.0447835 0 0 0 0.2 0"/><feBlend in2="BackgroundImageFix" result="effect1_dropShadow_2136_7051"/><feBlend in="SourceGraphic" in2="effect1_dropShadow_2136_7051" result="shape"/><feColorMatrix in="SourceAlpha" result="hardAlpha" values="0 0 0 0 0 0 0 0 0 0 0 0 0 0 0 0 0 0 127 0"/><feOffset dx="4.44"/><feGaussianBlur stdDeviation="3.89"/><feComposite in2="hardAlpha" k2="-1" k3="1" operator="arithmetic"/><feColorMatrix values="0 0 0 0 0.8375 0 0 0 0 0.0628125 0 0 0 0 0.094795 0 0 0 1 0"/><feBlend in2="shape" result="effect2_innerShadow_2136_7051"/><feColorMatrix in="SourceAlpha" result="hardAlpha" values="0 0 0 0 0 0 0 0 0 0 0 0 0 0 0 0 0 0 127 0"/><feOffset dx="-4.44"/><feGaussianBlur stdDeviation="4.44"/><feComposite in2="hardAlpha" k2="-1" k3="1" operator="arithmetic"/><feColorMatrix values="0 0 0 0 1 0 0 0 0 0.3125 0 0 0 0 0.340883 0 0 0 1 0"/><feBlend in2="effect2_innerShadow_2136_7051" result="effect3_innerShadow_2136_7051"/></filter></defs></svg>