<svg xmlns="http://www.w3.org/2000/svg" fill="none" viewBox="0 0 71 64"><g filter="url(#a)"><path fill="#ED131C" d="M39 63.9a31.2 31.2 0 0 1-12.5-2.5 32.14 32.14 0 0 1-10.1-6.8 32.14 32.14 0 0 1-6.8-10.1A31.2 31.2 0 0 1 7.1 32c0-4.46.84-8.62 2.5-12.5 1.6-3.77 3.91-7.2 6.8-10.1 2.9-2.89 6.33-5.2 10.1-6.8A31.2 31.2 0 0 1 39 .1c4.46 0 8.63.83 12.5 2.5 3.77 1.6 7.2 3.91 10.1 6.8 2.89 2.9 5.2 6.33 6.8 10.1A31.2 31.2 0 0 1 70.9 32c0 4.46-.83 8.62-2.5 12.5a32.13 32.13 0 0 1-6.8 10.1 32.14 32.14 0 0 1-10.1 6.8A31.2 31.2 0 0 1 39 63.9Z"/></g><g filter="url(#b)"><path fill="#ECEDF0" d="M32.9 41.98a1.82 1.82 0 0 1-1.77-1.16c-.1-.23-.14-.48-.13-.73v-3.1h16.51V25.35h3.1c.54 0 .99.18 1.35.55.36.36.54.81.54 1.35v19.82l-5.08-5.09H32.9Zm-7.88-2.13V21.23a1.83 1.83 0 0 1 1.89-1.89h16.3a1.87 1.87 0 0 1 1.9 1.89V32.7c0 .54-.19.99-.55 1.35-.36.36-.81.55-1.35.55h-12.9L25 39.85h.02Z"/></g><defs><filter id="a" width="77.5" height="63.8" x=".25" y=".1" color-interpolation-filters="sRGB" filterUnits="userSpaceOnUse"><feFlood flood-opacity="0" result="BackgroundImageFix"/><feBlend in="SourceGraphic" in2="BackgroundImageFix" result="shape"/><feColorMatrix in="SourceAlpha" result="hardAlpha" values="0 0 0 0 0 0 0 0 0 0 0 0 0 0 0 0 0 0 127 0"/><feOffset dx="6.85"/><feGaussianBlur stdDeviation="6"/><feComposite in2="hardAlpha" k2="-1" k3="1" operator="arithmetic"/><feColorMatrix values="0 0 0 0 0.8375 0 0 0 0 0.0628125 0 0 0 0 0.094795 0 0 0 1 0"/><feBlend in2="shape" result="effect1_innerShadow_286_1247"/><feColorMatrix in="SourceAlpha" result="hardAlpha" values="0 0 0 0 0 0 0 0 0 0 0 0 0 0 0 0 0 0 127 0"/><feOffset dx="-6.85"/><feGaussianBlur stdDeviation="6.85"/><feComposite in2="hardAlpha" k2="-1" k3="1" operator="arithmetic"/><feColorMatrix values="0 0 0 0 1 0 0 0 0 0.3125 0 0 0 0 0.340883 0 0 0 1 0"/><feBlend in2="effect1_innerShadow_286_1247" result="effect2_innerShadow_286_1247"/></filter><filter id="b" width="61.18" height="61.41" x=".94" y="2.5" color-interpolation-filters="sRGB" filterUnits="userSpaceOnUse"><feFlood flood-opacity="0" result="BackgroundImageFix"/><feColorMatrix in="SourceAlpha" result="hardAlpha" values="0 0 0 0 0 0 0 0 0 0 0 0 0 0 0 0 0 0 127 0"/><feOffset dx="-7.22"/><feGaussianBlur stdDeviation="8.42"/><feComposite in2="hardAlpha" operator="out"/><feColorMatrix values="0 0 0 0 0.608333 0 0 0 0 0.608333 0 0 0 0 0.608333 0 0 0 0.1 0"/><feBlend in2="BackgroundImageFix" result="effect1_dropShadow_286_1247"/><feBlend in="SourceGraphic" in2="effect1_dropShadow_286_1247" result="shape"/></filter></defs></svg>