<svg xmlns="http://www.w3.org/2000/svg" fill="none" viewBox="0 0 97 97"><path fill="#fff" d="M34.36 26.43a28.29 28.29 0 1 1 28.28 49 28.29 28.29 0 0 1-28.28-49Z"/><g fill="#ED131C" filter="url(#a)"><path d="m54.85 31.8-.07-.15c-.28-.6-1.02-.8-1.56-.42l-.14.1a15 15 0 0 0-3.02 3.06 42.6 42.6 0 0 0-5.88 11.16l-.06.16c-.21.58.12 1.21.72 1.37l9.27 2.49c.6.16 1.2-.23 1.3-.84l.04-.16c.84-4.88.95-9.25.49-12.6a15 15 0 0 0-1.09-4.16ZM63.05 35.68l-.28-.27a1.05 1.05 0 0 0-1.78.85l.04.4c.33 3.86.07 8.46-.84 13.4l-.02.13c-.1.54.23 1.07.76 1.2l7.55 2.03c.66.18 1.3-.31 1.32-1v-.2a22.37 22.37 0 0 0-6.75-16.54ZM45.3 32.44l.23-.33c.55-.8-.17-1.85-1.11-1.62l-.38.1a22.37 22.37 0 0 0-14.12 10.95l-.1.17c-.33.6 0 1.35.65 1.53l7.55 2.02c.53.14 1.08-.15 1.26-.67l.05-.13a51.42 51.42 0 0 1 5.97-12.02ZM37.24 52.19c.1-.54-.23-1.07-.76-1.2l-7.54-2.03a1.05 1.05 0 0 0-1.32 1v.19a22.37 22.37 0 0 0 6.74 16.55l.29.27c.7.67 1.85.12 1.77-.85l-.04-.4c-.32-3.87-.07-8.47.84-13.4l.02-.13ZM53.3 56.67a1.05 1.05 0 0 0-.72-1.38l-9.28-2.48c-.6-.16-1.2.23-1.3.83l-.03.17a42.6 42.6 0 0 0-.5 12.6 15 15 0 0 0 1.09 4.16l.07.16c.28.6 1.03.8 1.56.42l.15-.1a15 15 0 0 0 3.01-3.06 42.6 42.6 0 0 0 5.88-11.16l.06-.16ZM67.59 60.67c.33-.6.01-1.35-.65-1.53l-7.54-2.02a1.05 1.05 0 0 0-1.27.66l-.04.13a51.42 51.42 0 0 1-5.98 12.03l-.23.33c-.55.8.17 1.85 1.11 1.62l.38-.1A22.37 22.37 0 0 0 67.5 60.84l.1-.17Z"/></g><defs><filter id="a" width="50.24" height="49.5" x="22.04" y="26.44" color-interpolation-filters="sRGB" filterUnits="userSpaceOnUse"><feFlood flood-opacity="0" result="BackgroundImageFix"/><feColorMatrix in="SourceAlpha" result="hardAlpha" values="0 0 0 0 0 0 0 0 0 0 0 0 0 0 0 0 0 0 127 0"/><feOffset dx="-1.55"/><feGaussianBlur stdDeviation="2.01"/><feComposite in2="hardAlpha" operator="out"/><feColorMatrix values="0 0 0 0 0.531836 0 0 0 0 0.0249038 0 0 0 0 0.0447835 0 0 0 0.2 0"/><feBlend in2="BackgroundImageFix" result="effect1_dropShadow_2136_7057"/><feBlend in="SourceGraphic" in2="effect1_dropShadow_2136_7057" result="shape"/><feColorMatrix in="SourceAlpha" result="hardAlpha" values="0 0 0 0 0 0 0 0 0 0 0 0 0 0 0 0 0 0 127 0"/><feOffset dx=".96"/><feGaussianBlur stdDeviation=".84"/><feComposite in2="hardAlpha" k2="-1" k3="1" operator="arithmetic"/><feColorMatrix values="0 0 0 0 0.8375 0 0 0 0 0.0628125 0 0 0 0 0.094795 0 0 0 1 0"/><feBlend in2="shape" result="effect2_innerShadow_2136_7057"/><feColorMatrix in="SourceAlpha" result="hardAlpha" values="0 0 0 0 0 0 0 0 0 0 0 0 0 0 0 0 0 0 127 0"/><feOffset dx="-.96"/><feGaussianBlur stdDeviation=".96"/><feComposite in2="hardAlpha" k2="-1" k3="1" operator="arithmetic"/><feColorMatrix values="0 0 0 0 1 0 0 0 0 0.3125 0 0 0 0 0.340883 0 0 0 1 0"/><feBlend in2="effect2_innerShadow_2136_7057" result="effect3_innerShadow_2136_7057"/></filter></defs></svg>