<svg xmlns="http://www.w3.org/2000/svg" fill="none" viewBox="0 0 76 72"><g filter="url(#a)"><path fill="#ED131C" d="M76 36.15a31.85 31.85 0 1 1-63.7 0 31.85 31.85 0 0 1 63.7 0Z"/></g><g filter="url(#b)"><path fill="#ECEDF0" d="M44.15 54.9a2.8 2.8 0 0 1-2.06-.85 2.77 2.77 0 0 1-.86-2.04h5.83c0 .8-.28 1.48-.85 2.04a2.8 2.8 0 0 1-2.06.85Zm-5.83-4.33v-2.89h11.66v2.9H38.32v-.01Zm.36-4.33c-1.67-.99-3-2.31-3.98-3.97a10.43 10.43 0 0 1-1.48-5.41c0-3.01 1.06-5.57 3.19-7.67a10.6 10.6 0 0 1 7.74-3.16 10.6 10.6 0 0 1 7.74 3.16 10.4 10.4 0 0 1 3.19 7.67c0 1.94-.5 3.75-1.48 5.4a11.1 11.1 0 0 1-4 3.98H38.69Zm3.66-23.75v-5.4h3.62v5.4h-3.62Zm16.3 16.16v-3.59h5.45v3.6h-5.44v-.01Zm-34.44 0v-3.59h5.44v3.6H24.2v-.01Zm32.1-11.31-2.54-2.52 3.17-3.23 2.63 2.6-3.26 3.15Zm-24.3 0-3.26-3.15 2.63-2.6 3.17 3.23L32 27.34Z"/></g><defs><filter id="a" width="77.4" height="63.7" x="5.45" y="4.3" color-interpolation-filters="sRGB" filterUnits="userSpaceOnUse"><feFlood flood-opacity="0" result="BackgroundImageFix"/><feBlend in="SourceGraphic" in2="BackgroundImageFix" result="shape"/><feColorMatrix in="SourceAlpha" result="hardAlpha" values="0 0 0 0 0 0 0 0 0 0 0 0 0 0 0 0 0 0 127 0"/><feOffset dx="6.85"/><feGaussianBlur stdDeviation="6"/><feComposite in2="hardAlpha" k2="-1" k3="1" operator="arithmetic"/><feColorMatrix values="0 0 0 0 0.8375 0 0 0 0 0.0628125 0 0 0 0 0.094795 0 0 0 1 0"/><feBlend in2="shape" result="effect1_innerShadow_285_1225"/><feColorMatrix in="SourceAlpha" result="hardAlpha" values="0 0 0 0 0 0 0 0 0 0 0 0 0 0 0 0 0 0 127 0"/><feOffset dx="-6.85"/><feGaussianBlur stdDeviation="6.85"/><feComposite in2="hardAlpha" k2="-1" k3="1" operator="arithmetic"/><feColorMatrix values="0 0 0 0 1 0 0 0 0 0.3125 0 0 0 0 0.340883 0 0 0 1 0"/><feBlend in2="effect1_innerShadow_285_1225" result="effect2_innerShadow_285_1225"/></filter><filter id="b" width="73.57" height="71.49" x=".14" y=".25" color-interpolation-filters="sRGB" filterUnits="userSpaceOnUse"><feFlood flood-opacity="0" result="BackgroundImageFix"/><feColorMatrix in="SourceAlpha" result="hardAlpha" values="0 0 0 0 0 0 0 0 0 0 0 0 0 0 0 0 0 0 127 0"/><feOffset dx="-7.22"/><feGaussianBlur stdDeviation="8.42"/><feComposite in2="hardAlpha" operator="out"/><feColorMatrix values="0 0 0 0 0.608333 0 0 0 0 0.608333 0 0 0 0 0.608333 0 0 0 0.1 0"/><feBlend in2="BackgroundImageFix" result="effect1_dropShadow_285_1225"/><feBlend in="SourceGraphic" in2="effect1_dropShadow_285_1225" result="shape"/></filter></defs></svg>