<svg xmlns="http://www.w3.org/2000/svg" fill="none" viewBox="0 0 72 66"><g filter="url(#a)"><path fill="#ED131C" d="M40 64.59a31.2 31.2 0 0 1-12.5-2.5 32.13 32.13 0 0 1-10.1-6.8 32.14 32.14 0 0 1-6.8-10.1 31.2 31.2 0 0 1-2.5-12.5c0-4.46.83-8.63 2.5-12.5 1.6-3.77 3.91-7.2 6.8-10.1 2.9-2.89 6.33-5.2 10.1-6.8A31.2 31.2 0 0 1 40 .8c4.46 0 8.62.83 12.5 2.5 3.77 1.6 7.2 3.91 10.1 6.8 2.89 2.9 5.2 6.33 6.8 10.1a31.2 31.2 0 0 1 2.5 12.5c0 4.46-.83 8.62-2.5 12.5a32.13 32.13 0 0 1-6.8 10.1 32.14 32.14 0 0 1-10.1 6.8A31.2 31.2 0 0 1 40 64.6v-.01Z"/></g><g filter="url(#b)"><path fill="#ECEDF0" fill-rule="evenodd" d="m46.69 39.38-22.27 8.9L33.32 26l22.26-8.9-8.89 22.28Zm-4.08-5.29a2.89 2.89 0 0 1-2.6 1.54c-.84 0-1.54-.28-2.1-.85a2.85 2.85 0 0 1-.85-2.1 2.87 2.87 0 0 1 2.95-2.93 2.87 2.87 0 0 1 2.93 2.94 3 3 0 0 1-.33 1.4Z" clip-rule="evenodd"/></g><defs><filter id="a" width="77.5" height="63.8" x="1.25" y=".8" color-interpolation-filters="sRGB" filterUnits="userSpaceOnUse"><feFlood flood-opacity="0" result="BackgroundImageFix"/><feBlend in="SourceGraphic" in2="BackgroundImageFix" result="shape"/><feColorMatrix in="SourceAlpha" result="hardAlpha" values="0 0 0 0 0 0 0 0 0 0 0 0 0 0 0 0 0 0 127 0"/><feOffset dx="6.85"/><feGaussianBlur stdDeviation="6"/><feComposite in2="hardAlpha" k2="-1" k3="1" operator="arithmetic"/><feColorMatrix values="0 0 0 0 0.8375 0 0 0 0 0.0628125 0 0 0 0 0.094795 0 0 0 1 0"/><feBlend in2="shape" result="effect1_innerShadow_286_1240"/><feColorMatrix in="SourceAlpha" result="hardAlpha" values="0 0 0 0 0 0 0 0 0 0 0 0 0 0 0 0 0 0 127 0"/><feOffset dx="-6.85"/><feGaussianBlur stdDeviation="6.85"/><feComposite in2="hardAlpha" k2="-1" k3="1" operator="arithmetic"/><feColorMatrix values="0 0 0 0 1 0 0 0 0 0.3125 0 0 0 0 0.340883 0 0 0 1 0"/><feBlend in2="effect1_innerShadow_286_1240" result="effect2_innerShadow_286_1240"/></filter><filter id="b" width="64.84" height="64.86" x=".36" y=".26" color-interpolation-filters="sRGB" filterUnits="userSpaceOnUse"><feFlood flood-opacity="0" result="BackgroundImageFix"/><feColorMatrix in="SourceAlpha" result="hardAlpha" values="0 0 0 0 0 0 0 0 0 0 0 0 0 0 0 0 0 0 127 0"/><feOffset dx="-7.22"/><feGaussianBlur stdDeviation="8.42"/><feComposite in2="hardAlpha" operator="out"/><feColorMatrix values="0 0 0 0 0.608333 0 0 0 0 0.608333 0 0 0 0 0.608333 0 0 0 0.1 0"/><feBlend in2="BackgroundImageFix" result="effect1_dropShadow_286_1240"/><feBlend in="SourceGraphic" in2="effect1_dropShadow_286_1240" result="shape"/></filter></defs></svg>