<svg xmlns="http://www.w3.org/2000/svg" width="76" height="103" viewBox="0 0 76 103" fill="none"><path fill="#FF3334" stroke="#fff" stroke-width="2" d="M39.567 79.168a49.735 49.735 0 0 0-1.565 2.956c-.42-.86-.96-1.916-1.568-2.974-.71-1.234-1.532-2.512-2.384-3.493-.426-.49-.884-.937-1.366-1.268-.455-.313-1.004-.572-1.611-.591C12.977 71.478 1 56.334 1 37.639 1 17.413 17.556 1 38 1s37 16.413 37 36.64c0 18.332-12.428 33.465-30.087 36.198-.6.023-1.144.28-1.596.589-.481.329-.94.774-1.365 1.262-.852.978-1.676 2.25-2.385 3.48ZM43 97a5 5 0 1 1-10 0 5 5 0 0 1 10 0Z"/><path fill="#fff" d="M24.36 46.49v-8.068c0-.49.517-.798.937-.56l12.075 6.85a.62.62 0 0 0 .603.004l8.754-4.781a.63.63 0 0 1 .927.565v3.561c0 .11-.028.218-.08.314-1.454 2.686-2.084 4.68-2.748 6.58a.624.624 0 0 1-.31.355c-2.011 1-4.352 1.728-6.846 1.728-5.82 0-11.065-3.961-13.138-6.11a.628.628 0 0 1-.173-.438ZM54.99 50.504c.01.033.016.068.015.102C54.976 52.926 53.33 54.5 51 54.5c-2.33 0-3.971-1.541-4-3.86 0-.035.005-.07.016-.103.611-1.851 1.042-3.56 2.27-4.925.475-.527.825-.006 1.675-.006.85 0 1.2-.52 1.674.006 1.229 1.365 1.743 3.04 2.354 4.892Z"/><path fill="#fff" d="m20.333 31.111 16.605-9.035a.62.62 0 0 1 .573-.01l18.136 9.028c.467.232.472.91.008 1.149l-5.373 2.77a.647.647 0 0 0-.024 1.13l.546.374c.198.113.944.802.944 1.177v3.588c.196.226.315.523.315.849 0 .709-.564 1.283-1.26 1.283-.695 0-1.259-.575-1.259-1.283 0-.297.1-.571.266-.789v-2.629c0-.558-.536-.96-.738-1.073l-11.145-6.242a.619.619 0 0 0-.583-.011l-.287.145c-.456.233-.913.892-.465 1.139l7.908 4.357c.439.242.887.883.45 1.127l-7.004 3.919a.62.62 0 0 1-.613-.004l-17.014-9.835a.648.648 0 0 1 .014-1.124Z"/></svg>
