<svg width="82" height="82" viewBox="0 0 82 82" fill="none" xmlns="http://www.w3.org/2000/svg">
<path d="M17.5 23H34.5C35.8807 23 37 24.1193 37 25.5C37 26.8807 35.8807 28 34.5 28H17.5C16.1193 28 15 26.8807 15 25.5C15 24.1193 16.1193 23 17.5 23Z" fill="#FF0A47"/>
<path d="M11.3897 15.7775H11.1893C6.66641 15.7775 3 19.2731 3 23.5852V60.8051C3 65.1172 6.66641 68.6128 11.1893 68.6128H33.164C34.6988 71.2295 37.632 72.9999 41 72.9999C44.368 72.9999 47.3012 71.2295 48.836 68.6128H70.8107C75.3336 68.6128 79 65.1172 79 60.8051V23.5852C79 19.2731 75.3336 15.7775 70.8107 15.7775H70.611M70.611 15.7775V57.2527C70.611 60.6973 67.3542 63.3027 63.7947 62.714C57.36 61.6512 47.7249 60.904 41.0007 64.1745C34.2764 60.9025 24.6399 61.6512 18.2066 62.714C14.6471 63.3013 11.3903 60.6973 11.3903 57.2527V15.7278C11.3903 13.0983 13.3274 10.8255 16.029 10.2991C22.2736 9.08203 33.466 7.70115 41.0007 11.3675M70.611 15.7775V15.7278C70.611 13.0983 68.6739 10.8255 65.9723 10.2991C59.729 9.08199 48.5353 7.70075 41.0007 11.3675M41.0007 11.3675V11.3675ZM41.0007 11.3675L41 10.8979M41.0007 11.3675L41 63.7063M17.5 28H34.5C35.8807 28 37 26.8807 37 25.5C37 24.1193 35.8807 23 34.5 23H17.5C16.1193 23 15 24.1193 15 25.5C15 26.8807 16.1193 28 17.5 28ZM47.5 28H64.5C65.8807 28 67 26.8807 67 25.5C67 24.1193 65.8807 23 64.5 23H47.5C46.1193 23 45 24.1193 45 25.5C45 26.8807 46.1193 28 47.5 28ZM17.5 37H34.5C35.8807 37 37 35.8807 37 34.5C37 33.1193 35.8807 32 34.5 32H17.5C16.1193 32 15 33.1193 15 34.5C15 35.8807 16.1193 37 17.5 37ZM47.5 37H64.5C65.8807 37 67 35.8807 67 34.5C67 33.1193 65.8807 32 64.5 32H47.5C46.1193 32 45 33.1193 45 34.5C45 35.8807 46.1193 37 47.5 37ZM17.5 46H34.5C35.8807 46 37 44.8807 37 43.5C37 42.1193 35.8807 41 34.5 41H17.5C16.1193 41 15 42.1193 15 43.5C15 44.8807 16.1193 46 17.5 46ZM47.5 46H64.5C65.8807 46 67 44.8807 67 43.5C67 42.1193 65.8807 41 64.5 41H47.5C46.1193 41 45 42.1193 45 43.5C45 44.8807 46.1193 46 47.5 46Z" stroke="#FF0A47" stroke-miterlimit="10"/>
</svg>
