<svg width="82" height="82" viewBox="0 0 82 82" fill="none" xmlns="http://www.w3.org/2000/svg">
<path d="M21 34H25C26.1046 34 27 34.8954 27 36V40C27 41.1046 26.1046 42 25 42H21C19.8954 42 19 41.1046 19 40V36C19 34.8954 19.8954 34 21 34Z" fill="#FF0A47"/>
<path d="M33 34H37C38.1046 34 39 34.8954 39 36V40C39 41.1046 38.1046 42 37 42H33C31.8954 42 31 41.1046 31 40V36C31 34.8954 31.8954 34 33 34Z" fill="#FF0A47"/>
<path d="M73 28.9481V21.8831C73 18.2108 70.023 15.2338 66.3506 15.2338H61.3636M73 28.9481V66.3506C73 70.023 70.023 73 66.3506 73H15.6493C11.977 73 9 70.023 9 66.3506V28.9481M73 28.9481H9M9 28.9481V21.8831C9 18.2108 11.977 15.2338 15.6494 15.2338H20.6364M20.6364 15.2338V20.6364C20.6364 21.5544 21.3806 22.2987 22.2987 22.2987H23.961C24.8791 22.2987 25.6234 21.5544 25.6234 20.6364V15.2338M20.6364 15.2338V10.6623C20.6364 9.74425 21.3806 9 22.2987 9H23.961C24.8791 9 25.6234 9.74425 25.6234 10.6623V15.2338M25.6234 15.2338H56.3766M56.3766 15.2338V20.6364C56.3766 21.5544 57.1209 22.2987 58.039 22.2987H59.7013C60.6194 22.2987 61.3636 21.5544 61.3636 20.6364V15.2338M56.3766 15.2338V10.6623C56.3766 9.74425 57.1209 9 58.039 9H59.7013C60.6194 9 61.3636 9.74425 61.3636 10.6623V15.2338M21 42H25C26.1046 42 27 41.1046 27 40V36C27 34.8954 26.1046 34 25 34H21C19.8954 34 19 34.8954 19 36V40C19 41.1046 19.8954 42 21 42ZM33 42H37C38.1046 42 39 41.1046 39 40V36C39 34.8954 38.1046 34 37 34H33C31.8954 34 31 34.8954 31 36V40C31 41.1046 31.8954 42 33 42ZM45 42H49C50.1046 42 51 41.1046 51 40V36C51 34.8954 50.1046 34 49 34H45C43.8954 34 43 34.8954 43 36V40C43 41.1046 43.8954 42 45 42ZM57 42H61C62.1046 42 63 41.1046 63 40V36C63 34.8954 62.1046 34 61 34H57C55.8954 34 55 34.8954 55 36V40C55 41.1046 55.8954 42 57 42ZM21 54H25C26.1046 54 27 53.1046 27 52V48C27 46.8954 26.1046 46 25 46H21C19.8954 46 19 46.8954 19 48V52C19 53.1046 19.8954 54 21 54ZM33 54H37C38.1046 54 39 53.1046 39 52V48C39 46.8954 38.1046 46 37 46H33C31.8954 46 31 46.8954 31 48V52C31 53.1046 31.8954 54 33 54ZM45 54H49C50.1046 54 51 53.1046 51 52V48C51 46.8954 50.1046 46 49 46H45C43.8954 46 43 46.8954 43 48V52C43 53.1046 43.8954 54 45 54ZM57 54H61C62.1046 54 63 53.1046 63 52V48C63 46.8954 62.1046 46 61 46H57C55.8954 46 55 46.8954 55 48V52C55 53.1046 55.8954 54 57 54ZM21 66H25C26.1046 66 27 65.1046 27 64V60C27 58.8954 26.1046 58 25 58H21C19.8954 58 19 58.8954 19 60V64C19 65.1046 19.8954 66 21 66ZM33 66H37C38.1046 66 39 65.1046 39 64V60C39 58.8954 38.1046 58 37 58H33C31.8954 58 31 58.8954 31 60V64C31 65.1046 31.8954 66 33 66ZM45 66H49C50.1046 66 51 65.1046 51 64V60C51 58.8954 50.1046 58 49 58H45C43.8954 58 43 58.8954 43 60V64C43 65.1046 43.8954 66 45 66Z" stroke="#FF0A47"/>
</svg>
