<svg width="82" height="82" viewBox="0 0 82 82" fill="none" xmlns="http://www.w3.org/2000/svg">
<path d="M21.661 48.8919C20.0603 48.8919 18.7627 47.585 18.7627 45.973C18.7627 44.3609 20.0603 43.0541 21.661 43.0541C23.2617 43.0541 24.5593 44.3609 24.5593 45.973C24.5593 47.585 23.2617 48.8919 21.661 48.8919Z" fill="#FF0A47"/>
<path d="M21.661 25.5405C20.0603 25.5405 18.7627 24.2337 18.7627 22.6216C18.7627 21.0095 20.0603 19.7027 21.661 19.7027C23.2617 19.7027 24.5593 21.0095 24.5593 22.6216C24.5593 24.2337 23.2617 25.5405 21.661 25.5405Z" fill="#FF0A47"/>
<path d="M17.7966 75.1622H57.4068C60.6082 75.1622 63.2034 72.5485 63.2034 69.3243V14.8378M17.7966 75.1622C17.4915 75.1622 18.089 75.2079 17.7966 75.1622ZM17.7966 75.1622C15.0212 74.7279 12 72.2412 12 69.3243V14.8378C12 11.6137 14.5952 9 17.7966 9H57.4068C60.303 9 62.7722 12.0427 63.2034 14.8378M17.7966 75.1622C18.2278 77.9573 20.697 81 23.5932 81H63.2034C66.4048 81 69 78.3863 69 75.1622V20.6757C69 17.7588 66.5847 14.8378 63.2034 14.8378M63.2034 14.8378C63.2488 15.1323 63.2034 14.5306 63.2034 14.8378ZM21.661 25.5405C20.0603 25.5405 18.7627 24.2337 18.7627 22.6216C18.7627 21.0095 20.0603 19.7027 21.661 19.7027C23.2617 19.7027 24.5593 21.0095 24.5593 22.6216C24.5593 24.2337 23.2617 25.5405 21.661 25.5405ZM30.3559 25.5405H53.5424C55.1431 25.5405 56.4407 24.2337 56.4407 22.6216C56.4407 21.0095 55.1431 19.7027 53.5424 19.7027H30.3559C28.7552 19.7027 27.4576 21.0095 27.4576 22.6216C27.4576 24.2337 28.7552 25.5405 30.3559 25.5405ZM21.661 37.2162C20.0603 37.2162 18.7627 35.9094 18.7627 34.2973C18.7627 32.6852 20.0603 31.3784 21.661 31.3784C23.2617 31.3784 24.5593 32.6852 24.5593 34.2973C24.5593 35.9094 23.2617 37.2162 21.661 37.2162ZM30.3559 37.2162H53.5424C55.1431 37.2162 56.4407 35.9094 56.4407 34.2973C56.4407 32.6852 55.1431 31.3784 53.5424 31.3784H30.3559C28.7552 31.3784 27.4576 32.6852 27.4576 34.2973C27.4576 35.9094 28.7552 37.2162 30.3559 37.2162ZM21.661 48.8919C20.0603 48.8919 18.7627 47.585 18.7627 45.973C18.7627 44.3609 20.0603 43.0541 21.661 43.0541C23.2617 43.0541 24.5593 44.3609 24.5593 45.973C24.5593 47.585 23.2617 48.8919 21.661 48.8919ZM30.3559 48.8919H53.5424C55.1431 48.8919 56.4407 47.585 56.4407 45.973C56.4407 44.3609 55.1431 43.0541 53.5424 43.0541H30.3559C28.7552 43.0541 27.4576 44.3609 27.4576 45.973C27.4576 47.585 28.7552 48.8919 30.3559 48.8919ZM21.661 60.5676C20.0603 60.5676 18.7627 59.2607 18.7627 57.6486C18.7627 56.0366 20.0603 54.7297 21.661 54.7297C23.2617 54.7297 24.5593 56.0366 24.5593 57.6486C24.5593 59.2607 23.2617 60.5676 21.661 60.5676ZM30.3559 60.5676H53.5424C55.1431 60.5676 56.4407 59.2607 56.4407 57.6486C56.4407 56.0366 55.1431 54.7297 53.5424 54.7297H30.3559C28.7552 54.7297 27.4576 56.0366 27.4576 57.6486C27.4576 59.2607 28.7552 60.5676 30.3559 60.5676Z" stroke="#FF0A47"/>
</svg>
