<svg width="81" height="66" viewBox="0 0 81 66" fill="none" xmlns="http://www.w3.org/2000/svg">
<path d="M24.8201 51.2002H56.1409C57.1547 51.2002 57.9765 51.827 57.9765 52.6002C57.9765 53.3735 57.1547 54.0003 56.1409 54.0003H24.8201C23.8064 54.0003 22.9845 53.3735 22.9845 52.6002C22.9845 51.827 23.8064 51.2002 24.8201 51.2002Z" fill="#FF0040"/>
<path d="M72.2933 46.7202L72.6912 46.4175C72.5967 46.2931 72.4495 46.2202 72.2933 46.2202V46.7202ZM79.961 56.8003L80.461 56.8003C80.461 56.691 80.4252 56.5846 80.359 56.4976L79.961 56.8003ZM1 56.8003L0.602146 56.4975C0.535878 56.5845 0.499995 56.6909 0.5 56.8003L1 56.8003ZM8.67286 46.7202V46.2202C8.51674 46.2202 8.36957 46.2931 8.27501 46.4173L8.67286 46.7202ZM76.8963 63.4186L76.5885 63.0245L76.5861 63.0264L76.8963 63.4186ZM76.4323 63.7855L76.7393 64.1802L76.7425 64.1777L76.4323 63.7855ZM72.419 65.2004V65.7004H72.4198L72.419 65.2004ZM8.54206 65.2004L8.54127 65.7004H8.54206V65.2004ZM4.52874 63.7855L4.21856 64.1777L4.22174 64.1802L4.52874 63.7855ZM4.06477 63.4186L4.37495 63.0264L4.37257 63.0245L4.06477 63.4186ZM65.9609 60.7804C65.6847 60.7804 65.4609 61.0042 65.4609 61.2804C65.4609 61.5565 65.6847 61.7804 65.9609 61.7804V60.7804ZM72.1209 61.7804C72.3971 61.7804 72.6209 61.5565 72.6209 61.2804C72.6209 61.0042 72.3971 60.7804 72.1209 60.7804V61.7804ZM60.3608 0.299564C60.0846 0.299564 59.8608 0.523421 59.8608 0.799564C59.8608 1.07571 60.0846 1.29956 60.3608 1.29956V0.299564ZM67.472 0.799564V1.29956L67.4726 1.29956L67.472 0.799564ZM72.1209 5.92129L71.6209 5.92079V5.92129H72.1209ZM71.6209 46.7202C71.6209 46.9963 71.8448 47.2202 72.1209 47.2202C72.3971 47.2202 72.6209 46.9963 72.6209 46.7202H71.6209ZM8.7098 46.4905C8.7098 46.7666 8.93365 46.9905 9.2098 46.9905C9.48594 46.9905 9.7098 46.7666 9.7098 46.4905H8.7098ZM64.7066 1.30503C64.9827 1.30503 65.2066 1.08117 65.2066 0.805029C65.2066 0.528887 64.9827 0.305029 64.7066 0.305029V1.30503ZM31.0535 21.1434L31.0535 20.6434L31.0526 20.6434L31.0535 21.1434ZM28.5338 18.5755L29.0338 18.5764V18.5755H28.5338ZM28.5338 14.5628H29.0338V14.5628L28.5338 14.5628ZM31.0535 11.9997L31.0526 12.4997H31.0535V11.9997ZM33.5686 18.5755H33.0686V18.5764L33.5686 18.5755ZM21.9423 20.9418C21.9423 21.2179 22.1661 21.4418 22.4423 21.4418C22.7184 21.4418 22.9423 21.2179 22.9423 20.9418H21.9423ZM22.4423 12.2013H22.9423C22.9423 11.9982 22.8194 11.8153 22.6314 11.7384C22.4434 11.6616 22.2276 11.7061 22.0854 11.8511L22.4423 12.2013ZM19.6834 14.299C19.49 14.4961 19.493 14.8127 19.6901 15.0061C19.8872 15.1995 20.2037 15.1965 20.3971 14.9994L19.6834 14.299ZM49.9688 21.1434V20.6434V21.1434ZM47.449 14.5628L46.949 14.5619V14.5628H47.449ZM49.9688 11.9997L49.9688 12.4997H49.9688V11.9997ZM52.4838 18.5755H51.9838V18.5764L52.4838 18.5755ZM40.3857 20.9418C40.3857 21.2179 40.6095 21.4418 40.8857 21.4418C41.1618 21.4418 41.3857 21.2179 41.3857 20.9418H40.3857ZM40.8857 12.2013H41.3857C41.3857 11.9983 41.2629 11.8154 41.075 11.7385C40.8872 11.6616 40.6714 11.706 40.5291 11.8507L40.8857 12.2013ZM38.1224 14.2987C37.9288 14.4956 37.9315 14.8121 38.1284 15.0057C38.3253 15.1993 38.6419 15.1966 38.8355 14.9997L38.1224 14.2987ZM59.3008 20.9418C59.3008 21.2179 59.5246 21.4418 59.8008 21.4418C60.0769 21.4418 60.3008 21.2179 60.3008 20.9418H59.3008ZM59.8008 12.2013H60.3008C60.3008 11.9982 60.1779 11.8153 59.9899 11.7384C59.8019 11.6616 59.5861 11.7061 59.4439 11.8511L59.8008 12.2013ZM57.0419 14.299C56.8485 14.4961 56.8515 14.8127 57.0486 15.0061C57.2457 15.1995 57.5623 15.1965 57.7557 14.9994L57.0419 14.299ZM31.0535 36.08V35.58H31.0526L31.0535 36.08ZM28.5338 33.5169H29.0338H28.5338ZM28.5338 29.5043H29.0338L29.0338 29.5033L28.5338 29.5043ZM31.0535 26.9364L31.0526 27.4364H31.0535L31.0535 26.9364ZM33.5686 29.5043L33.0686 29.5033V29.5043H33.5686ZM33.5686 33.5169H33.0686H33.5686ZM21.9423 35.8738C21.9423 36.1499 22.1661 36.3738 22.4423 36.3738C22.7184 36.3738 22.9423 36.1499 22.9423 35.8738H21.9423ZM22.4423 27.1285H22.9423C22.9423 26.9254 22.8193 26.7424 22.6312 26.6656C22.4431 26.5888 22.2272 26.6335 22.085 26.7787L22.4423 27.1285ZM19.683 29.2314C19.4898 29.4287 19.4931 29.7453 19.6904 29.9385C19.8877 30.1317 20.2043 30.1284 20.3975 29.9311L19.683 29.2314ZM49.9688 36.08V35.58H49.9688L49.9688 36.08ZM47.449 33.5169H46.949L46.949 33.5178L47.449 33.5169ZM47.449 29.5043H47.949H47.449ZM49.9688 26.9364V27.4364V26.9364ZM52.4838 29.5043L51.9838 29.5033V29.5043H52.4838ZM52.4838 33.5169H51.9838H52.4838ZM40.3857 35.8738C40.3857 36.1499 40.6095 36.3738 40.8857 36.3738C41.1618 36.3738 41.3857 36.1499 41.3857 35.8738H40.3857ZM40.8857 27.1285H41.3857C41.3857 26.9254 41.2628 26.7425 41.0748 26.6657C40.8868 26.5889 40.671 26.6334 40.5288 26.7783L40.8857 27.1285ZM38.1221 29.231C37.9287 29.4282 37.9317 29.7447 38.1288 29.9381C38.3259 30.1315 38.6424 30.1285 38.8358 29.9314L38.1221 29.231ZM59.3008 35.8738C59.3008 36.1499 59.5246 36.3738 59.8008 36.3738C60.0769 36.3738 60.3008 36.1499 60.3008 35.8738H59.3008ZM59.8008 27.1285H60.3008C60.3008 26.9254 60.1778 26.7424 59.9897 26.6656C59.8016 26.5888 59.5857 26.6335 59.4436 26.7787L59.8008 27.1285ZM57.0415 29.2314C56.8483 29.4287 56.8516 29.7453 57.0489 29.9385C57.2462 30.1317 57.5628 30.1284 57.756 29.9311L57.0415 29.2314ZM13.8802 6.95964V6.45964C13.604 6.45964 13.3802 6.6835 13.3802 6.95964H13.8802ZM67.0809 6.95964H67.5809C67.5809 6.6835 67.357 6.45964 67.0809 6.45964V6.95964ZM67.0809 41.1201V41.6201C67.357 41.6201 67.5809 41.3962 67.5809 41.1201H67.0809ZM13.8802 41.1201H13.3802C13.3802 41.3962 13.604 41.6201 13.8802 41.6201V41.1201ZM24.8201 51.7002H56.1409V50.7002H24.8201V51.7002ZM56.1409 53.5003H24.8201V54.5003H56.1409V53.5003ZM24.8201 53.5003C24.413 53.5003 24.0629 53.3738 23.8254 53.1926C23.5883 53.0118 23.4845 52.7978 23.4845 52.6002H22.4845C22.4845 53.1759 22.7917 53.6619 23.2189 53.9878C23.6458 54.3133 24.2135 54.5003 24.8201 54.5003V53.5003ZM57.4765 52.6002C57.4765 52.7978 57.3728 53.0118 57.1357 53.1926C56.8981 53.3738 56.5481 53.5003 56.1409 53.5003V54.5003C56.7475 54.5003 57.3153 54.3133 57.7421 53.9878C58.1694 53.6619 58.4765 53.1759 58.4765 52.6002H57.4765ZM56.1409 51.7002C56.5481 51.7002 56.8981 51.8267 57.1357 52.0078C57.3728 52.1887 57.4765 52.4027 57.4765 52.6002H58.4765C58.4765 52.0246 58.1694 51.5386 57.7421 51.2127C57.3153 50.8872 56.7475 50.7002 56.1409 50.7002V51.7002ZM24.8201 50.7002C24.2135 50.7002 23.6458 50.8872 23.2189 51.2127C22.7917 51.5386 22.4845 52.0246 22.4845 52.6002H23.4845C23.4845 52.4027 23.5883 52.1887 23.8254 52.0078C24.0629 51.8267 24.4129 51.7002 24.8201 51.7002V50.7002ZM71.8953 47.0229L79.5631 57.103L80.359 56.4976L72.6912 46.4175L71.8953 47.0229ZM1.39785 57.1031L9.07072 47.023L8.27501 46.4173L0.602146 56.4975L1.39785 57.1031ZM8.67286 47.2202H72.2933V46.2202H8.67286V47.2202ZM79.461 56.8003C79.461 58.0324 79.1971 59.2436 78.6944 60.3291L79.6019 60.7493C80.1671 59.5287 80.461 58.1737 80.461 56.8003L79.461 56.8003ZM78.6944 60.3291C78.1918 61.4144 77.4673 62.338 76.5885 63.0245L77.2041 63.8126C78.2154 63.0226 79.0366 61.9699 79.6019 60.7493L78.6944 60.3291ZM76.5861 63.0264L76.1221 63.3933L76.7425 64.1777L77.2064 63.8107L76.5861 63.0264ZM76.1253 63.3909C75.0266 64.2456 73.7346 64.6983 72.4182 64.7004L72.4198 65.7004C73.9687 65.698 75.474 65.1644 76.7393 64.1802L76.1253 63.3909ZM72.419 64.7004H8.54206V65.7004H72.419V64.7004ZM8.54285 64.7004C7.2264 64.6983 5.93448 64.2456 4.83573 63.3909L4.22174 64.1802C5.48704 65.1644 6.99235 65.698 8.54127 65.7004L8.54285 64.7004ZM4.83891 63.3933L4.37494 63.0264L3.7546 63.8107L4.21857 64.1777L4.83891 63.3933ZM4.37257 63.0245C3.49374 62.338 2.76922 61.4144 2.26661 60.3291L1.35918 60.7493C1.92443 61.9699 2.74565 63.0226 3.75698 63.8126L4.37257 63.0245ZM2.26661 60.3291C1.76396 59.2436 1.50006 58.0324 1.5 56.8003L0.5 56.8003C0.500065 58.1737 0.793968 59.5287 1.35918 60.7493L2.26661 60.3291ZM65.9609 61.7804H72.1209V60.7804H65.9609V61.7804ZM60.3608 1.29956H67.472V0.299564H60.3608V1.29956ZM67.4726 1.29956C68.0104 1.29891 68.5443 1.41513 69.0445 1.64301L69.4591 0.733017C68.8306 0.446649 68.155 0.298735 67.4714 0.299564L67.4726 1.29956ZM69.0445 1.64301C69.5448 1.87095 70.0026 2.20689 70.3905 2.63418L71.1309 1.96208C70.6551 1.43789 70.0875 1.01933 69.4591 0.733017L69.0445 1.64301ZM70.3905 2.63418C70.7785 3.06161 71.0884 3.57167 71.3004 4.13621L72.2366 3.78476C71.9817 3.10586 71.6066 2.48612 71.1309 1.96208L70.3905 2.63418ZM71.3004 4.13621C71.5123 4.70082 71.6215 5.30735 71.6209 5.92079L72.6209 5.92179C72.6217 5.18963 72.4914 4.46359 72.2366 3.78476L71.3004 4.13621ZM71.6209 5.92129V46.7202H72.6209V5.92129H71.6209ZM9.7098 46.4905V5.90115H8.7098V46.4905H9.7098ZM9.7098 5.90115C9.7098 4.68223 10.1941 3.51325 11.0561 2.6513L10.349 1.94419C9.29952 2.99363 8.7098 4.41695 8.7098 5.90115H9.7098ZM11.0561 2.6513C11.918 1.78934 13.087 1.30503 14.3059 1.30503V0.305029C12.8217 0.305029 11.3984 0.894749 10.349 1.94419L11.0561 2.6513ZM14.3059 1.30503H64.7066V0.305029H14.3059V1.30503ZM31.0526 20.6434C30.7887 20.6439 30.527 20.5913 30.2826 20.4884L29.8945 21.41C30.2621 21.5648 30.6563 21.6441 31.0545 21.6434L31.0526 20.6434ZM30.2826 20.4884C30.0381 20.3855 29.8153 20.2341 29.6273 20.0425L28.9135 20.7429C29.1937 21.0284 29.527 21.2553 29.8945 21.41L30.2826 20.4884ZM29.6273 20.0425C29.4393 19.8509 29.2897 19.6228 29.1877 19.3711L28.261 19.7467C28.4117 20.1187 28.6334 20.4573 28.9135 20.7429L29.6273 20.0425ZM29.1877 19.3711C29.0857 19.1194 29.0333 18.8493 29.0338 18.5764L28.0338 18.5746C28.0331 18.9765 28.1102 19.3748 28.261 19.7467L29.1877 19.3711ZM29.0338 18.5755V14.5628H28.0338V18.5755H29.0338ZM29.0338 14.5628C29.0338 14.2902 29.0865 14.0206 29.1888 13.7693L28.2626 13.3924C28.1115 13.7637 28.0338 14.1614 28.0338 14.5628L29.0338 14.5628ZM29.1888 13.7693C29.291 13.5181 29.4407 13.2905 29.6287 13.0992L28.9155 12.3982C28.6354 12.6831 28.4137 13.021 28.2626 13.3924L29.1888 13.7693ZM29.6287 13.0992C29.8166 12.908 30.0392 12.757 30.2834 12.6543L29.8958 11.7325C29.5287 11.8869 29.1957 12.1133 28.9155 12.3982L29.6287 13.0992ZM30.2834 12.6543C30.5276 12.5517 30.7889 12.4992 31.0526 12.4997L31.0545 11.4997C30.6568 11.499 30.263 11.5781 29.8958 11.7325L30.2834 12.6543ZM31.0535 12.4997C31.3168 12.4997 31.5778 12.5526 31.8215 12.6555L32.2104 11.7342C31.844 11.5795 31.4508 11.4997 31.0535 11.4997V12.4997ZM31.8215 12.6555C32.0654 12.7584 32.2875 12.9095 32.475 13.1006L33.1888 12.4002C32.9093 12.1153 32.5769 11.8889 32.2104 11.7342L31.8215 12.6555ZM32.475 13.1006C32.6626 13.2918 32.8119 13.5192 32.9139 13.7702L33.8403 13.3937C33.6896 13.0227 33.4683 12.6851 33.1888 12.4002L32.475 13.1006ZM32.9139 13.7702C33.0159 14.0212 33.0686 14.2906 33.0686 14.5628H34.0686C34.0686 14.1619 33.9911 13.7646 33.8403 13.3937L32.9139 13.7702ZM33.0686 14.5628V18.5755H34.0686V14.5628H33.0686ZM33.0686 18.5764C33.0691 18.849 33.0168 19.1187 32.915 19.3702L33.8419 19.7454C33.9924 19.3738 34.0693 18.976 34.0686 18.5746L33.0686 18.5764ZM32.915 19.3702C32.8132 19.6216 32.664 19.8495 32.4764 20.0411L33.1908 20.7408C33.4704 20.4554 33.6915 20.117 33.8419 19.7454L32.915 19.3702ZM32.4764 20.0411C32.2888 20.2327 32.0665 20.3841 31.8224 20.4872L32.2118 21.4083C32.5786 21.2533 32.9112 21.0263 33.1908 20.7408L32.4764 20.0411ZM31.8224 20.4872C31.5784 20.5904 31.3171 20.6434 31.0535 20.6434L31.0535 21.6434C31.4513 21.6434 31.8449 21.5634 32.2118 21.4083L31.8224 20.4872ZM22.9423 20.9418V12.2013H21.9423V20.9418H22.9423ZM22.0854 11.8511L19.6834 14.299L20.3971 14.9994L22.7991 12.5515L22.0854 11.8511ZM49.9688 20.6434C49.4362 20.6434 48.9234 20.4279 48.5439 20.0411L47.8301 20.7415C48.3957 21.3178 49.1648 21.6434 49.9688 21.6434V20.6434ZM48.5439 20.0411C48.1641 19.654 47.949 19.1269 47.949 18.5755H46.949C46.949 19.3861 47.2649 20.1654 47.8301 20.7415L48.5439 20.0411ZM47.949 18.5755V14.5628H46.949V18.5755H47.949ZM47.949 14.5637C47.95 14.0129 48.1655 13.4869 48.5452 13.1006L47.8321 12.3996C47.2671 12.9744 46.9505 13.7522 46.949 14.5619L47.949 14.5637ZM48.5452 13.1006C48.9247 12.7147 49.4368 12.4997 49.9688 12.4997L49.9688 11.4997C49.1658 11.4997 48.3975 11.8245 47.8321 12.3996L48.5452 13.1006ZM49.9688 12.4997C50.232 12.4997 50.493 12.5526 50.7368 12.6555L51.1257 11.7342C50.7592 11.5795 50.366 11.4997 49.9688 11.4997V12.4997ZM50.7368 12.6555C50.9806 12.7584 51.2027 12.9095 51.3903 13.1006L52.1041 12.4002C51.8245 12.1153 51.4922 11.8889 51.1257 11.7342L50.7368 12.6555ZM51.3903 13.1006C51.5779 13.2918 51.7271 13.5192 51.8292 13.7702L52.7556 13.3937C52.6048 13.0227 52.3836 12.6851 52.1041 12.4002L51.3903 13.1006ZM51.8292 13.7702C51.9312 14.0212 51.9838 14.2906 51.9838 14.5628H52.9838C52.9838 14.1618 52.9063 13.7646 52.7556 13.3937L51.8292 13.7702ZM51.9838 14.5628V18.5755H52.9838V14.5628H51.9838ZM51.9838 18.5764C51.9843 18.8489 51.932 19.1187 51.8302 19.3702L52.7572 19.7454C52.9076 19.3738 52.9845 18.976 52.9838 18.5746L51.9838 18.5764ZM51.8302 19.3702C51.7284 19.6216 51.5792 19.8496 51.3916 20.0411L52.1061 20.7408C52.3856 20.4554 52.6067 20.117 52.7572 19.7454L51.8302 19.3702ZM51.3916 20.0411C51.204 20.2326 50.9817 20.3841 50.7376 20.4872L51.127 21.4083C51.4938 21.2533 51.8264 21.0263 52.1061 20.7408L51.3916 20.0411ZM50.7376 20.4872C50.4936 20.5904 50.2323 20.6434 49.9688 20.6434L49.9688 21.6434C50.3665 21.6434 50.7601 21.5634 51.127 21.4083L50.7376 20.4872ZM41.3857 20.9418V12.2013H40.3857V20.9418H41.3857ZM40.5291 11.8507L38.1224 14.2987L38.8355 14.9997L41.2422 12.5518L40.5291 11.8507ZM60.3008 20.9418V12.2013H59.3008V20.9418H60.3008ZM59.4439 11.8511L57.0419 14.299L57.7557 14.9994L60.1577 12.5515L59.4439 11.8511ZM31.0526 35.58C30.789 35.5805 30.5276 35.5281 30.2834 35.4254L29.8958 36.3472C30.263 36.5016 30.6567 36.5808 31.0545 36.58L31.0526 35.58ZM30.2834 35.4254C30.0392 35.3227 29.8166 35.1717 29.6287 34.9805L28.9155 35.6815C29.1957 35.9665 29.5287 36.1928 29.8958 36.3472L30.2834 35.4254ZM29.6287 34.9805C29.4407 34.7893 29.291 34.5617 29.1888 34.3104L28.2626 34.6874C28.4137 35.0587 28.6354 35.3966 28.9155 35.6815L29.6287 34.9805ZM29.1888 34.3104C29.0865 34.0592 29.0338 33.7895 29.0338 33.5169H28.0338C28.0338 33.9183 28.1114 34.3161 28.2626 34.6874L29.1888 34.3104ZM29.0338 33.5169V29.5043H28.0338V33.5169H29.0338ZM29.0338 29.5033C29.0333 29.2304 29.0857 28.9604 29.1877 28.7087L28.261 28.333C28.1102 28.705 28.0331 29.1033 28.0338 29.5052L29.0338 29.5033ZM29.1877 28.7087C29.2897 28.457 29.4393 28.2289 29.6273 28.0373L28.9135 27.3369C28.6334 27.6224 28.4117 27.961 28.261 28.333L29.1877 28.7087ZM29.6273 28.0373C29.8153 27.8457 30.0381 27.6943 30.2826 27.5914L29.8945 26.6697C29.527 26.8244 29.1937 27.0513 28.9135 27.3369L29.6273 28.0373ZM30.2826 27.5914C30.527 27.4884 30.7887 27.4359 31.0526 27.4364L31.0545 26.4364C30.6563 26.4356 30.2621 26.515 29.8945 26.6697L30.2826 27.5914ZM31.0535 27.4364C31.3172 27.4364 31.5784 27.4893 31.8224 27.5925L32.2118 26.6714C31.8449 26.5163 31.4513 26.4364 31.0535 26.4364L31.0535 27.4364ZM31.8224 27.5925C32.0665 27.6956 32.2888 27.8471 32.4764 28.0386L33.1908 27.3389C32.9112 27.0534 32.5786 26.8264 32.2118 26.6714L31.8224 27.5925ZM32.4764 28.0386C32.664 28.2302 32.8132 28.4581 32.915 28.7096L33.8419 28.3343C33.6915 27.9627 33.4704 27.6244 33.1908 27.3389L32.4764 28.0386ZM32.915 28.7096C33.0168 28.961 33.0691 29.2308 33.0686 29.5033L34.0686 29.5052C34.0693 29.1038 33.9924 28.7059 33.8419 28.3343L32.915 28.7096ZM33.0686 29.5043V33.5169H34.0686V29.5043H33.0686ZM33.0686 33.5169C33.0686 33.7892 33.0159 34.0585 32.9139 34.3095L33.8403 34.6861C33.9911 34.3151 34.0686 33.9178 34.0686 33.5169H33.0686ZM32.9139 34.3095C32.8119 34.5605 32.6626 34.788 32.475 34.9791L33.1888 35.6795C33.4683 35.3947 33.6896 35.057 33.8403 34.6861L32.9139 34.3095ZM32.475 34.9791C32.2875 35.1703 32.0654 35.3214 31.8215 35.4243L32.2104 36.3456C32.5769 36.1909 32.9093 35.9644 33.1888 35.6795L32.475 34.9791ZM31.8215 35.4243C31.5778 35.5272 31.3168 35.58 31.0535 35.58V36.58C31.4508 36.58 31.844 36.5003 32.2104 36.3456L31.8215 35.4243ZM22.9423 35.8738V27.1285H21.9423V35.8738H22.9423ZM22.085 26.7787L19.683 29.2314L20.3975 29.9311L22.7995 27.4784L22.085 26.7787ZM49.9688 35.58C49.4368 35.58 48.9247 35.365 48.5452 34.9791L47.8321 35.6801C48.3975 36.2553 49.1658 36.58 49.9688 36.58L49.9688 35.58ZM48.5452 34.9791C48.1655 34.5928 47.95 34.0668 47.949 33.516L46.949 33.5178C46.9505 34.3275 47.267 35.1053 47.8321 35.6801L48.5452 34.9791ZM47.949 33.5169V29.5043H46.949V33.5169H47.949ZM47.949 29.5043C47.949 28.9528 48.1641 28.4258 48.5439 28.0387L47.8301 27.3383C47.2649 27.9143 46.949 28.6936 46.949 29.5043H47.949ZM48.5439 28.0387C48.9234 27.6519 49.4362 27.4364 49.9688 27.4364V26.4364C49.1648 26.4364 48.3957 26.7619 47.8301 27.3383L48.5439 28.0387ZM49.9688 27.4364C50.2324 27.4364 50.4936 27.4893 50.7376 27.5925L51.127 26.6714C50.7601 26.5163 50.3665 26.4364 49.9688 26.4364L49.9688 27.4364ZM50.7376 27.5925C50.9817 27.6956 51.204 27.8471 51.3916 28.0386L52.1061 27.3389C51.8264 27.0534 51.4938 26.8264 51.127 26.6714L50.7376 27.5925ZM51.3916 28.0386C51.5792 28.2302 51.7284 28.4581 51.8302 28.7096L52.7572 28.3343C52.6067 27.9627 52.3856 27.6244 52.1061 27.3389L51.3916 28.0386ZM51.8302 28.7096C51.932 28.961 51.9843 29.2308 51.9838 29.5033L52.9838 29.5052C52.9845 29.1037 52.9076 28.7059 52.7572 28.3343L51.8302 28.7096ZM51.9838 29.5043V33.5169H52.9838V29.5043H51.9838ZM51.9838 33.5169C51.9838 33.7891 51.9312 34.0585 51.8292 34.3095L52.7556 34.686C52.9063 34.3151 52.9838 33.9179 52.9838 33.5169H51.9838ZM51.8292 34.3095C51.7271 34.5605 51.5779 34.788 51.3903 34.9791L52.1041 35.6795C52.3836 35.3946 52.6048 35.057 52.7556 34.686L51.8292 34.3095ZM51.3903 34.9791C51.2027 35.1702 50.9806 35.3213 50.7368 35.4243L51.1257 36.3455C51.4922 36.1909 51.8245 35.9644 52.1041 35.6795L51.3903 34.9791ZM50.7368 35.4243C50.493 35.5272 50.232 35.58 49.9688 35.58V36.58C50.366 36.58 50.7592 36.5003 51.1257 36.3455L50.7368 35.4243ZM41.3857 35.8738V27.1285H40.3857V35.8738H41.3857ZM40.5288 26.7783L38.1221 29.231L38.8358 29.9314L41.2425 27.4787L40.5288 26.7783ZM60.3008 35.8738V27.1285H59.3008V35.8738H60.3008ZM59.4436 26.7787L57.0415 29.2314L57.756 29.9311L60.158 27.4784L59.4436 26.7787ZM13.8802 7.45964H67.0809V6.45964H13.8802V7.45964ZM66.5809 6.95964V41.1201H67.5809V6.95964H66.5809ZM67.0809 40.6201H13.8802V41.6201H67.0809V40.6201ZM14.3802 41.1201V6.95964H13.3802V41.1201H14.3802ZM79.961 56.3003H1V57.3003H79.961V56.3003Z" fill="#FF0040"/>
</svg>

