<svg xmlns="http://www.w3.org/2000/svg" fill="none" viewBox="0 0 380 380"><path fill="#f5f5f6" d="M380 190c0 104.93-85.07 190-190 190S0 294.93 0 190 85.07 0 190 0s190 85.07 190 190"/><g fill="#7e7f81" opacity=".6"><path d="m345.3 190.69 15.16.7-.56 11.98-15.16-.7.11-2.42 13.05.6.33-7.17-13.05-.6zM347.8 204.86a3 3 0 0 1 1.77.84q.72.72 1 1.83.3 1.12.13 2.52-.1.75-.3 1.49-.22.77-.53 1.33l.7.1a2.4 2.4 0 0 0 1.92-.47q.75-.6.92-1.92.12-.93-.1-1.8a10 10 0 0 0-.69-1.88l1.67-.58q.6 1.2.81 2.35.22 1.17.05 2.4a5 5 0 0 1-1.64 3.34q-1.35 1.14-3.5.85l-4.13-.54q-.4-.06-.6.05-.18.13-.25.46l-1.86-.24a5 5 0 0 1 .02-1.01q.1-.75.51-1.08.4-.33.9-.33l.65.02a5.48 5.48 0 0 1-1.4-4.37q.13-1.1.7-1.91t1.43-1.2a3.3 3.3 0 0 1 1.82-.25m-1.6 6.97q.23.3.49.47.26.2.47.21l1.27.17q.31-.56.5-1.2.22-.64.3-1.28.16-1.27-.23-2.14a1.6 1.6 0 0 0-1.3-.97 1.9 1.9 0 0 0-1.79.8q-.34.47-.44 1.21a3.8 3.8 0 0 0 .72 2.73M341.3 223.04q.27-1.3 1.12-2.18a5 5 0 0 1 1.97-1.24l-6.5-1.4.5-2.3 15.38 3.3-.44 2.03-1.96-.42q.84.84 1.22 1.97.37 1.13.1 2.36-.24 1.13-.9 1.97a5 5 0 0 1-1.59 1.37q-.93.52-2.04.67-1.1.18-2.22-.06a7 7 0 0 1-2.73-1.24 5 5 0 0 1-1.7-2.16 4.4 4.4 0 0 1-.22-2.67m2.12-.33q-.16.74.03 1.39.18.67.62 1.2.42.55 1.05.92a4.3 4.3 0 0 0 2.8.58q.73-.1 1.33-.48.6-.35 1.03-.91a3.1 3.1 0 0 0 .34-3.23 4 4 0 0 0-.53-.88 3 3 0 0 0-.74-.62l-2.87-.61q-.74.15-1.38.51a4 4 0 0 0-1.1.93q-.45.56-.58 1.2M339.17 232.23l8.73 2.58 1.05-3.55 2 .59-2.78 9.37-1.99-.6 1.06-3.56-8.74-2.58zM336.89 239.7l10.45 3.96-.83 2.2-4.16-1.58-1.84 4.85 4.15 1.58-.83 2.2-10.45-3.97.83-2.2 4.4 1.67 1.84-4.85-4.4-1.67zM329.7 256.37q.57-1.17 1.44-1.94a6 6 0 0 1 4.1-1.37 6.1 6.1 0 0 1 4.46 2.5q.88 1.23 1.03 2.75a5.7 5.7 0 0 1-.6 3.1 5.5 5.5 0 0 1-4.79 3.25 6 6 0 0 1-3.57-1l3.89-8.07a3.7 3.7 0 0 0-1.8-.27q-.86.13-1.57.61a3.3 3.3 0 0 0-1.06 1.27 3.6 3.6 0 0 0-.35 1.8q.06.98.62 1.58l-1.4 1.56q-.57-.68-.84-1.64a5.6 5.6 0 0 1 .44-4.13m7.4-.17-2.94 6.1q.9.34 1.76.22.88-.09 1.57-.6.7-.45 1.1-1.27.37-.8.31-1.65a3.48 3.48 0 0 0-1.81-2.8m5.93 3.34 2.12 1.02-.85 1.77-2.12-1.02zm-1.64 3.4 2.12 1.03-.85 1.77-2.12-1.02zM323.08 268.64a4.4 4.4 0 0 1 1.76-1.72 5 5 0 0 1 2.26-.55l-5.72-3.38 1.2-2.02 13.54 8-1.05 1.78-1.73-1.02q.53 1.06.53 2.25 0 1.2-.65 2.27-.6 1-1.48 1.59t-1.94.79q-1.05.2-2.15 0a6.65 6.65 0 0 1-4.28-2.8 5 5 0 0 1-.93-2.6 4.4 4.4 0 0 1 .64-2.6m2.12.36a3 3 0 0 0-.4 1.32q-.05.7.2 1.34.22.66.7 1.2a4.3 4.3 0 0 0 2.48 1.44q.7.13 1.4-.03.69-.15 1.27-.55a3.1 3.1 0 0 0 1.35-2.95 4 4 0 0 0-.23-1q-.19-.49-.5-.82l-2.53-1.5a4.25 4.25 0 0 0-2.8.58q-.6.4-.94.97M309.74 280.54l3.6 2.8.23-.3a5.21 5.21 0 0 1 5.2-2.12q1.43.25 2.6 1.17a6 6 0 0 1 1.77 2.22 5.3 5.3 0 0 1-.77 5.58l-.23.3 3.5 2.73-1.44 1.86-3.5-2.73-.24.3q-1.05 1.35-2.42 1.85-1.38.51-2.8.24a5.96 5.96 0 0 1-4.38-3.38 5.2 5.2 0 0 1 .8-5.57l.23-.3-3.6-2.8zm5.33 3.66-.3.39 5.8 4.52.3-.4q.58-.74.64-1.6a3.5 3.5 0 0 0-.34-1.73 4 4 0 0 0-1.23-1.48 4 4 0 0 0-1.74-.84q-.9-.19-1.72.1-.82.28-1.41 1.04m-1.6 2.06-.32.4a3 3 0 0 0-.33 3.32q.4.84 1.22 1.49.82.64 1.75.82.9.2 1.74-.08a3 3 0 0 0 1.43-1.03l.31-.4zM309.75 293a3 3 0 0 1 .96 1.7q.16 1-.24 2.08a6 6 0 0 1-1.36 2.12q-.5.55-1.12 1.04-.6.51-1.2.78l.52.48a2.4 2.4 0 0 0 1.83.74q.97-.06 1.87-1.04.64-.68.96-1.53.33-.83.53-1.92l1.7.5a7.72 7.72 0 0 1-2.05 4.37 5 5 0 0 1-3.28 1.76q-1.75.15-3.35-1.33l-3.05-2.84q-.3-.27-.5-.3-.24 0-.48.23l-1.38-1.28a5 5 0 0 1 .6-.8q.51-.55 1.04-.59t.93.26l.52.38a5 5 0 0 1 .2-2.35 5.5 5.5 0 0 1 1.18-2.02 4 4 0 0 1 1.68-1.15 3.6 3.6 0 0 1 1.86-.14q.9.18 1.63.85m-5.35 4.74q.03.38.14.68.1.3.25.44l.94.87q.58-.27 1.11-.69.56-.4.99-.86.87-.94 1.05-1.89a1.6 1.6 0 0 0-.5-1.54 1.9 1.9 0 0 0-1.92-.38q-.55.19-1.06.73a3.8 3.8 0 0 0-1 2.64M298.62 299.98l7.58 8.22-1.71 1.58-3-3.25-.82.75.58 5.48-1.91 1.77-.67-6.74-7.26-1.15 2-1.84 5.84.91.8-.74-3.14-3.4zM285.94 304.93q.3-.24.7-.42.39-.2.9-.31l.63 1.74q-.29.06-.5.15-.24.1-.38.22a1.3 1.3 0 0 0-.47.95q-.08.62.2 1.51l.39 1.17 10.63 5.7-1.92 1.54-8.17-4.72 3.14 8.75-1.77 1.42-4.24-13.12a6 6 0 0 1-.32-1.88q0-.85.3-1.53.3-.7.88-1.17M282.35 313.73l1.18 1.73q-.44.3-.65.75-.2.47-.11 1.17.09.71.58 1.75.47 1.05 1.41 2.53l1.79 2.87-6.59 4.5-6.31-9.23 1.94-1.33 5.14 7.52 2.93-2-.82-1.28a22 22 0 0 1-1.78-3.32 7 7 0 0 1-.58-2.44q-.03-1.02.46-1.82.5-.77 1.4-1.4M271.42 321.16l5.62 9.66L275 332l-1.85-3.18-2.3 1.35q-1.72 1-3.12.64a3.5 3.5 0 0 1-2.24-1.76 4 4 0 0 1-.6-1.95q-.06-.99.45-1.85.5-.85 1.6-1.5zm-1.12 2.75-2.13 1.23q-.6.35-.85.8-.23.45-.19.94.05.52.32.98t.65.73q.39.3.9.3.52.01 1.17-.36l2.1-1.22zM259.53 327.7l4.01 8.18 3.32-1.63.92 1.86-8.78 4.3-.9-1.86 3.33-1.64-4.01-8.17zM247.71 332.75q1.2-.48 2.37-.46a5.8 5.8 0 0 1 3.95 1.75 6.1 6.1 0 0 1 1.6 4.86q-.17 1.5-1.09 2.72a5.7 5.7 0 0 1-2.53 1.9 5.5 5.5 0 0 1-5.73-.84 5.8 5.8 0 0 1-1.96-3.16l8.32-3.33a3.6 3.6 0 0 0-1.14-1.4 3.31 3.31 0 0 0-3.22-.39q-.89.33-1.47 1.09-.62.75-.62 1.58l-2.07.21q.03-.9.48-1.78a5.6 5.6 0 0 1 3.11-2.75m5.57 4.86-6.27 2.52q.42.87 1.14 1.36.72.51 1.56.62.83.11 1.67-.21.82-.33 1.35-1 .53-.65.68-1.52.17-.86-.13-1.77M238.13 336.43l2.75 8.68 3.52-1.12.63 1.98-9.32 2.94-.62-1.97 3.54-1.12-2.74-8.68zM232.35 341.64a3 3 0 0 1-.16 1.95 4 4 0 0 1-1.35 1.6q-.94.68-2.3 1-.75.18-1.51.26-.79.08-1.43-.01l.16.68q.28 1.14 1.12 1.63.84.48 2.13.17.9-.23 1.64-.74.75-.51 1.51-1.31l1.14 1.36a7.73 7.73 0 0 1-4.13 2.5q-2.18.51-3.7-.35-1.55-.84-2.06-2.96l-.96-4.06q-.1-.4-.26-.53-.18-.12-.53-.07l-.43-1.83a5 5 0 0 1 .95-.34q.73-.17 1.19.1.45.26.63.72l.21.61q.5-1.08 1.48-1.84a5.5 5.5 0 0 1 2.1-1.03 4 4 0 0 1 2.04-.03q.96.25 1.63.91.66.65.88 1.61m-7.09.99q-.18.33-.26.63t-.04.52l.3 1.24q.64.1 1.3.04.69-.03 1.3-.18 1.26-.3 1.92-.98t.45-1.56a1.9 1.9 0 0 0-1.39-1.38q-.56-.16-1.29.02a3.8 3.8 0 0 0-2.29 1.65M202.53 343.5l.59 15.17-11.99.46-.59-15.16 2.42-.1.5 13.06 7.18-.28-.5-13.05zM187.77 347.18a3 3 0 0 1-.7 1.82q-.64.78-1.74 1.15-1.1.4-2.5.33a11 11 0 0 1-1.51-.18q-.78-.15-1.37-.42l-.04.71q-.06 1.17.62 1.87.66.7 2 .76.93.05 1.78-.25.85-.27 1.82-.83l.7 1.62q-1.14.7-2.27 1t-2.39.24a5 5 0 0 1-3.46-1.37q-1.24-1.23-1.13-3.42l.2-4.16q.03-.4-.1-.58-.14-.18-.47-.22l.09-1.87a5 5 0 0 1 1-.06q.75.03 1.12.42.37.38.4.88l.04.64a5 5 0 0 1 1.93-1.36 5.5 5.5 0 0 1 2.31-.4q1.12.06 1.96.55.85.52 1.3 1.33t.41 1.8m-7.08-1.05q-.27.27-.43.54t-.17.48l-.07 1.28q.59.27 1.24.4.66.18 1.3.2 1.28.06 2.12-.4.81-.48.86-1.37a1.9 1.9 0 0 0-.94-1.72q-.5-.3-1.25-.34a3.8 3.8 0 0 0-2.66.94M169.06 342.14q1.34.18 2.27.95a5 5 0 0 1 1.4 1.86l.86-6.59 2.33.3-2.05 15.6-2.06-.27.26-1.99a5 5 0 0 1-1.86 1.37q-1.1.45-2.35.3a4.96 4.96 0 0 1-3.53-2.21q-.59-.9-.83-1.99a6.63 6.63 0 0 1 .9-5.03 5 5 0 0 1 2.01-1.87 4.4 4.4 0 0 1 2.65-.43m.5 2.1a3 3 0 0 0-1.38.13q-.66.24-1.15.72-.51.47-.84 1.11a4.3 4.3 0 0 0-.35 2.85q.16.7.59 1.28.4.57 1 .95a3.1 3.1 0 0 0 3.24.08q.46-.24.83-.6.38-.36.56-.79l.38-2.9a4.24 4.24 0 0 0-1.63-2.35q-.6-.4-1.25-.49M159.82 340.77l-1.84 8.92 3.62.75-.42 2.03-9.57-1.98.42-2.03 3.65.75 1.84-8.91zM152.23 339.1l-3.09 10.75-2.26-.65 1.23-4.28-5-1.43-1.22 4.27-2.26-.65 3.09-10.74 2.26.65-1.3 4.52 4.99 1.43 1.3-4.52zM135.17 333.36q1.22.47 2.05 1.27a5.9 5.9 0 0 1 1.7 3.97 6 6 0 0 1-2.12 4.66 5.66 5.66 0 0 1-5.8.91 5.5 5.5 0 0 1-3.63-4.5 5.8 5.8 0 0 1 .7-3.65l8.37 3.21q.3-.95.12-1.8a4 4 0 0 0-.74-1.53 3.3 3.3 0 0 0-1.35-.95 3.6 3.6 0 0 0-1.83-.2q-.96.14-1.52.74l-1.67-1.25q.63-.63 1.57-.98a5.6 5.6 0 0 1 4.15.1m.77 7.35-6.3-2.42q-.29.91-.1 1.77.18.87.73 1.52.52.66 1.37.98.81.3 1.67.18.83-.12 1.53-.65.7-.51 1.1-1.38m-2.83 6.2-.85 2.19-1.83-.7.84-2.2zm-3.54-1.36-.84 2.2-1.83-.71.84-2.2zM122.5 327.82q1.2.57 1.86 1.6.64 1.02.74 2.2l2.88-5.98 2.12 1.02-6.82 14.17-1.87-.9.87-1.8q-1.02.62-2.2.72a4.5 4.5 0 0 1-2.32-.46 4.95 4.95 0 0 1-2.66-3.2q-.28-1.03-.18-2.15.09-1.1.58-2.14a7 7 0 0 1 1.85-2.36q1.14-.92 2.5-1.14a4.4 4.4 0 0 1 2.65.42m-.18 2.14a3 3 0 0 0-1.35-.3q-.7.03-1.32.32-.64.3-1.15.8a4.3 4.3 0 0 0-1.22 2.6q-.06.71.16 1.4.2.66.65 1.2a3.1 3.1 0 0 0 3.05 1.1q.52-.09.98-.31.47-.22.78-.58l1.27-2.63a4.23 4.23 0 0 0-.81-2.74q-.44-.57-1.04-.86M109.55 315.5l-2.49 3.81.32.21a5.2 5.2 0 0 1 2.55 5q-.14 1.45-.96 2.7a6 6 0 0 1-2.06 1.95q-1.28.7-2.73.67a5.5 5.5 0 0 1-2.9-.97l-.31-.21-2.43 3.72-1.97-1.28 2.43-3.72-.33-.21a5.16 5.16 0 0 1-2.52-5.01q.12-1.44.93-2.69a6 6 0 0 1 2.07-1.97 5.2 5.2 0 0 1 5.62.32l.32.21 2.49-3.81zm-3.2 5.62-.42-.27-4.02 6.16.42.27q.78.5 1.66.5a3.5 3.5 0 0 0 1.7-.48q.78-.48 1.36-1.36.57-.87.69-1.8.12-.91-.24-1.7a3 3 0 0 0-1.16-1.32m-2.2-1.43-.42-.28a3 3 0 0 0-3.34-.05q-.81.47-1.38 1.34t-.67 1.81q-.12.92.23 1.73.33.8 1.14 1.33l.43.28zM97.04 316.48a3 3 0 0 1-1.62 1.09q-.99.25-2.1-.08-1.11-.3-2.22-1.18a11 11 0 0 1-1.13-1.03 6 6 0 0 1-.87-1.13l-.44.56a2.4 2.4 0 0 0-.59 1.87q.15.96 1.18 1.78.75.6 1.6.83.87.27 1.97.38l-.36 1.74q-1.34-.1-2.43-.51a8 8 0 0 1-2.1-1.19 5 5 0 0 1-2.02-3.12q-.3-1.74 1.06-3.44l2.59-3.27q.25-.33.26-.54-.02-.23-.27-.45l1.17-1.48a5 5 0 0 1 .85.54q.6.46.66.99.09.53-.17.95l-.35.54q1.16-.29 2.36.02 1.2.3 2.11 1.01.87.69 1.28 1.59.4.9.3 1.83t-.72 1.7m-5.16-4.95q-.37.06-.66.18-.3.13-.43.3l-.8 1q.33.56.79 1.05.43.51.94.91 1 .8 1.96.9a1.6 1.6 0 0 0 1.5-.62 1.9 1.9 0 0 0 .23-1.94q-.24-.54-.82-1a3.7 3.7 0 0 0-2.71-.78M89.3 306.05l-7.56 8.24-1.71-1.58 2.99-3.26-.82-.75-5.42 1.04-1.92-1.76 6.66-1.23.54-7.33 2 1.83-.42 5.9.8.74 3.14-3.42zM83.26 293.76q.27.28.48.67.21.38.38.87l-1.68.77a3 3 0 0 0-.2-.5 1.3 1.3 0 0 0-1.23-.75q-.62-.01-1.5.33l-1.13.48-4.83 11.05-1.68-1.79 4.04-8.51-8.48 3.82-1.55-1.65 12.75-5.27a6 6 0 0 1 1.85-.47q.84-.07 1.55.18.72.23 1.23.77M74.3 291.01l-1.62 1.33q-.34-.42-.8-.59a2.3 2.3 0 0 0-1.17-.01q-.7.15-1.7.72t-2.4 1.63l-2.72 2.01-5.03-6.18 8.67-7.06 1.48 1.82-7.06 5.75 2.24 2.75 1.2-.92a22 22 0 0 1 3.16-2.05q1.35-.68 2.4-.79 1-.1 1.85.31.81.42 1.5 1.28M65.92 280.66l-9.18 6.37-1.34-1.93 3.02-2.1-1.53-2.19q-1.13-1.63-.89-3.05a3.5 3.5 0 0 1 1.58-2.37q.9-.64 1.89-.76.98-.13 1.88.3t1.62 1.48zm-2.83-.9-1.4-2.01a2 2 0 0 0-.86-.79 2 2 0 0 0-.96-.11q-.51.1-.95.4-.45.3-.68.7-.26.42-.21.93 0 .51.44 1.13l1.39 2zM58.4 269.32l-7.82 4.66 1.9 3.18-1.79 1.06-5-8.4 1.78-1.05 1.9 3.2 7.83-4.67zM52.44 258.05q.6 1.16.66 2.32a5.8 5.8 0 0 1-1.42 4.08 6 6 0 0 1-4.72 2 5.6 5.6 0 0 1-4.9-3.24 5.5 5.5 0 0 1 .36-5.77 5.8 5.8 0 0 1 3-2.21l4 8q.85-.48 1.31-1.25.44-.76.48-1.62a3.55 3.55 0 0 0-1.57-3 2.4 2.4 0 0 0-1.62-.47l-.39-2.05q.9-.04 1.82.33a5.6 5.6 0 0 1 3 2.88m-4.39 5.94-3.02-6.04q-.83.48-1.26 1.25-.45.75-.49 1.6-.06.86.35 1.65t1.1 1.26 1.57.56q.87.1 1.75-.28M48.02 248.9l-8.43 3.45 1.4 3.42-1.92.78-3.7-9.03 1.92-.79 1.4 3.44 8.43-3.45zM42.37 243.7a3 3 0 0 1-1.95 0 4 4 0 0 1-1.7-1.2q-.76-.9-1.2-2.22-.24-.72-.38-1.48a6 6 0 0 1-.1-1.42l-.68.22a2.4 2.4 0 0 0-1.52 1.24q-.42.88 0 2.14.3.9.88 1.57.57.7 1.43 1.4l-1.26 1.25a7.72 7.72 0 0 1-2.84-3.9 5 5 0 0 1 .04-3.73q.7-1.6 2.78-2.29l3.96-1.3q.39-.12.51-.3.12-.19.03-.53l1.79-.59a5 5 0 0 1 .41.93q.24.7.01 1.19a1.4 1.4 0 0 1-.67.69l-.6.26q1.13.4 1.97 1.31a5.5 5.5 0 0 1 1.2 2.01q.35 1.05.2 2.03a3.6 3.6 0 0 1-.77 1.7q-.6.7-1.54 1.02m-1.57-6.98q-.35-.15-.65-.21t-.52.01l-1.22.4q-.03.65.07 1.3.09.68.29 1.28.4 1.23 1.14 1.84.73.6 1.59.3a1.9 1.9 0 0 0 1.26-1.49q.1-.57-.13-1.28a3.7 3.7 0 0 0-1.83-2.15M37.96 213.94l-15.07 1.8-1.43-11.9 15.07-1.8.29 2.4-12.97 1.55.85 7.13 12.98-1.56zM33.15 200.39a3 3 0 0 1-1.88-.54q-.83-.6-1.3-1.64-.48-1.06-.53-2.47-.03-.75.05-1.52a6 6 0 0 1 .3-1.4l-.7.03a2.4 2.4 0 0 0-1.82.77q-.64.72-.6 2.05.04.94.41 1.76.35.82.98 1.74l-1.55.85a7.71 7.71 0 0 1-1.63-4.54q-.09-2.25 1.07-3.57 1.13-1.35 3.3-1.42l4.17-.14q.4-.02.58-.15.15-.15.17-.5l1.88-.06a5 5 0 0 1 .14 1q.03.75-.32 1.14a1.4 1.4 0 0 1-.84.48l-.64.08a5 5 0 0 1 1.52 1.81q.55 1.11.6 2.27.03 1.1-.39 2-.45.9-1.21 1.41a3.3 3.3 0 0 1-1.76.55m.44-7.14q-.3-.25-.57-.39-.29-.15-.5-.13l-1.28.04q-.21.6-.3 1.28-.1.67-.08 1.3.04 1.29.58 2.08.54.77 1.44.74a1.9 1.9 0 0 0 1.63-1.08q.26-.52.24-1.27a3.7 3.7 0 0 0-1.16-2.57M36.6 180.48q-.06 1.34-.76 2.33a5 5 0 0 1-1.75 1.54l6.65.33-.12 2.35-15.72-.79.1-2.07 2.01.1a5 5 0 0 1-1.52-1.74 4.75 4.75 0 0 1 .1-4.4q.5-.94 1.34-1.6t1.91-1q1.05-.36 2.2-.3 1.6.09 2.9.79a5 5 0 0 1 2.02 1.85q.72 1.16.64 2.6m-2.04.66a3 3 0 0 0-.26-1.36q-.29-.63-.8-1.09a4 4 0 0 0-1.18-.74 4.3 4.3 0 0 0-2.86-.12q-.7.21-1.24.68-.54.45-.86 1.07a3.1 3.1 0 0 0 .17 3.24q.28.45.67.79.4.33.83.49l2.93.14q.7-.26 1.28-.72.55-.47.93-1.1.34-.61.39-1.28M37.17 171.39l-9.04-1.12-.45 3.67-2.06-.26 1.2-9.7 2.06.26-.46 3.7 9.04 1.11zM38.23 163.4l-10.96-2.22.47-2.3 4.36.88 1.03-5.1-4.36-.87.47-2.3 10.96 2.21-.47 2.3-4.6-.93-1.04 5.1 4.61.93zM42.52 146.07q-.37 1.25-1.1 2.15a5.9 5.9 0 0 1-3.82 2.03 6.1 6.1 0 0 1-4.81-1.74 5.6 5.6 0 0 1-1.4-5.7 5.5 5.5 0 0 1 4.2-3.99 5.8 5.8 0 0 1 3.69.4l-2.5 8.6q.95.22 1.8-.02a4 4 0 0 0 1.46-.87q.6-.6.84-1.43.26-.9.04-1.83a2.4 2.4 0 0 0-.86-1.45l1.11-1.77q.68.58 1.1 1.48a5.6 5.6 0 0 1 .25 4.14m-7.26 1.38 1.89-6.48a3.4 3.4 0 0 0-1.78.06q-.85.24-1.45.84-.62.58-.87 1.44a3.31 3.31 0 0 0 .73 3.15q.57.66 1.48 1m-6.41-2.31-2.26-.66.55-1.89 2.26.66zm1.06-3.63-2.26-.66.55-1.89 2.26.66zM46.87 133.3q-.48 1.25-1.45 1.98a5 5 0 0 1-2.14.92l6.2 2.38-.84 2.2-14.69-5.64.75-1.94 1.87.72a5 5 0 0 1-.9-2.13 4.76 4.76 0 0 1 1.46-4.16q.76-.74 1.78-1.1a6 6 0 0 1 2.12-.35q1.11-.02 2.19.4 1.5.57 2.5 1.65 1.02 1.05 1.35 2.4a4.4 4.4 0 0 1-.2 2.66m-2.15-.01q.26-.7.18-1.37-.08-.7-.42-1.29a4 4 0 0 0-.9-1.07 4.3 4.3 0 0 0-2.68-1q-.73-.01-1.39.26-.64.25-1.15.75a3.1 3.1 0 0 0-.84 3.13q.12.51.4.96.26.44.63.72l2.73 1.05q.75-.03 1.44-.3.68-.26 1.23-.74.52-.48.77-1.1M58.1 119.2l-4-2.17-.19.34a5.21 5.21 0 0 1-4.79 2.95 6 6 0 0 1-2.75-.74 6 6 0 0 1-2.11-1.9 5.3 5.3 0 0 1-.16-5.62l.18-.34-3.9-2.12 1.11-2.07 3.91 2.12.19-.34q.81-1.5 2.08-2.22a5.69 5.69 0 0 1 5.46.02 6 6 0 0 1 2.13 1.9 5.2 5.2 0 0 1 .14 5.62l-.18.34 4 2.17zm-5.86-2.73.23-.44-6.46-3.5-.24.43a3 3 0 0 0-.36 1.7q.09.88.62 1.65.54.75 1.46 1.25t1.84.54 1.7-.37q.75-.42 1.2-1.26m1.24-2.3.25-.45a3 3 0 0 0-.22-3.32 4 4 0 0 0-1.45-1.27 4 4 0 0 0-1.86-.52q-.92-.05-1.7.36t-1.24 1.25l-.24.45zM55.85 107.18a3 3 0 0 1-1.22-1.53 4 4 0 0 1-.1-2.1q.21-1.13.99-2.3.41-.64.93-1.21.53-.6 1.05-.97l-.59-.4a2.4 2.4 0 0 0-1.92-.42q-.95.23-1.68 1.33a5 5 0 0 0-.69 1.67q-.2.87-.21 1.98l-1.76-.21a7.72 7.72 0 0 1 1.3-4.65q1.26-1.86 2.96-2.28 1.7-.43 3.51.77l3.48 2.3q.34.23.55.21.23-.03.43-.3l1.57 1.04a5 5 0 0 1-.46.9q-.42.62-.93.74a1.4 1.4 0 0 1-.96-.1l-.57-.3q.38 1.12.18 2.35a5.5 5.5 0 0 1-.83 2.2 4 4 0 0 1-1.48 1.4q-.87.47-1.8.45a3.3 3.3 0 0 1-1.75-.58m4.5-5.56a3 3 0 0 0-.24-.65q-.15-.27-.33-.4l-1.07-.7a6 6 0 0 0-.98.86q-.48.48-.83 1.02a4 4 0 0 0-.73 2.03q0 .94.74 1.44a1.9 1.9 0 0 0 1.96.06q.51-.27.93-.9a3.7 3.7 0 0 0 .55-2.76M65.91 98.11l-8.82-6.87 1.43-1.84 3.5 2.72.67-.87-1.46-5.32 1.6-2.06 1.76 6.55 7.35-.05-1.67 2.14-5.92.05-.67.86 3.66 2.85zM77.23 91.57q-.26.3-.62.54-.37.24-.84.45l-.9-1.61q.26-.1.47-.24t.33-.28q.36-.4.3-1.01 0-.62-.44-1.46l-.57-1.1-11.42-3.88 1.64-1.83 8.83 3.32-4.52-8.12 1.52-1.7 6.31 12.27q.51.94.63 1.8.15.84-.05 1.56-.17.74-.67 1.3M79.61 81.97l-1.45-1.51q.39-.37.52-.85.12-.5-.08-1.17a7 7 0 0 0-.86-1.63 23 23 0 0 0-1.8-2.27L73.7 72l5.76-5.51 7.74 8.07-1.7 1.63-6.3-6.58-2.56 2.46 1.02 1.12q1.48 1.69 2.29 2.98.78 1.3.98 2.32.18 1.01-.16 1.87-.35.84-1.16 1.61M88.8 73.15l-7.12-8.62 1.8-1.5 2.35 2.84 2.06-1.7q1.53-1.27 2.96-1.15 1.45.1 2.5 1.37.7.86.92 1.82t-.15 1.9q-.34.93-1.33 1.74zm.65-2.9 1.9-1.57q.54-.45.71-.92.15-.48.03-.97a2.4 2.4 0 0 0-.47-.9 2 2 0 0 0-.77-.63q-.43-.22-.94-.13-.51.06-1.08.53l-1.88 1.56zM99.55 64.6l-5.3-7.4-3 2.16-1.21-1.69 7.94-5.69 1.2 1.69-3.02 2.16 5.3 7.4zM110.9 57.31q-1.11.67-2.26.85a5.9 5.9 0 0 1-4.18-1.1 6.1 6.1 0 0 1-2.38-4.53q-.06-1.5.64-2.86a5.7 5.7 0 0 1 2.2-2.28q1.5-.9 3-.86 1.5 0 2.78.76a5.8 5.8 0 0 1 2.45 2.8l-7.67 4.63q.57.81 1.36 1.2a3.31 3.31 0 0 0 3.24-.14q.8-.48 1.27-1.31.49-.85.35-1.66l2.02-.55q.1.88-.19 1.84a5.6 5.6 0 0 1-2.63 3.21m-6.28-3.89 5.78-3.5a3.4 3.4 0 0 0-1.35-1.15 3 3 0 0 0-1.64-.36q-.84 0-1.61.48-.76.45-1.17 1.2a3.48 3.48 0 0 0 0 3.33M119.43 52.27l-4.13-8.11-3.3 1.67-.94-1.84 8.7-4.43.95 1.84-3.31 1.69 4.13 8.11zM123.82 46.34a3 3 0 0 1-.17-1.95q.26-.99 1.07-1.8a6 6 0 0 1 2.11-1.38 11 11 0 0 1 1.44-.49q.78-.2 1.42-.22l-.28-.65a2.4 2.4 0 0 0-1.37-1.42q-.9-.34-2.12.18-.87.37-1.5 1-.65.63-1.28 1.54L121.79 40a7.74 7.74 0 0 1 3.66-3.15 5 5 0 0 1 3.72-.27q1.65.58 2.5 2.59L133.3 43q.16.36.34.48.21.1.53-.02l.74 1.73a5 5 0 0 1-.89.5q-.69.28-1.18.1a1.4 1.4 0 0 1-.75-.61l-.31-.57q-.3 1.16-1.15 2.07a5.5 5.5 0 0 1-1.9 1.36 4 4 0 0 1-2.01.36 3.6 3.6 0 0 1-1.75-.63 3.3 3.3 0 0 1-1.15-1.44m6.83-2.14q.13-.36.16-.67t-.06-.51l-.5-1.19a6 6 0 0 0-1.3.18q-.65.14-1.24.4-1.2.48-1.73 1.28a1.6 1.6 0 0 0-.18 1.6 1.9 1.9 0 0 0 1.6 1.14q.57.06 1.26-.23a3.7 3.7 0 0 0 1.99-2M152.95 39.42l-3.08-14.86 11.75-2.43L164.69 37l-2.36.5-2.65-12.8-7.03 1.46 2.64 12.78zM166.6 33.37a3 3 0 0 1 .39-1.91q.53-.88 1.53-1.43a6 6 0 0 1 2.41-.73q.74-.09 1.53-.07.8 0 1.41.18l-.08-.7a2.4 2.4 0 0 0-.9-1.75q-.8-.57-2.1-.42-.94.1-1.73.54-.79.42-1.65 1.12l-.97-1.48a7.72 7.72 0 0 1 4.4-2q2.22-.25 3.64.79 1.42 1.02 1.68 3.18l.48 4.14q.05.4.2.56t.5.13l.22 1.87a5 5 0 0 1-.98.22q-.75.09-1.17-.23a1.4 1.4 0 0 1-.55-.8l-.13-.62q-.62 1.02-1.68 1.66a5.5 5.5 0 0 1-2.22.77 4 4 0 0 1-2.02-.22 3.6 3.6 0 0 1-1.5-1.1 3.3 3.3 0 0 1-.7-1.7m7.16-.14q.22-.3.34-.6.11-.3.1-.5l-.16-1.28a6 6 0 0 0-1.29-.2 7 7 0 0 0-1.31.03q-1.27.15-2.02.75-.74.6-.62 1.5a1.9 1.9 0 0 0 1.2 1.53q.55.22 1.3.13a3.8 3.8 0 0 0 2.46-1.36M186.1 35.2q-1.34.05-2.38-.56a5 5 0 0 1-1.69-1.6l.23 6.64-2.35.08-.54-15.72 2.07-.07.07 2q.6-1.02 1.61-1.66a4.76 4.76 0 0 1 4.4-.28q.98.42 1.7 1.2.74.8 1.16 1.83.45 1.01.49 2.16a7 7 0 0 1-.55 2.95q-.57 1.35-1.67 2.17a4.4 4.4 0 0 1-2.54.86m-.83-1.98q.75-.03 1.33-.37.61-.33 1.02-.89.43-.55.64-1.24a4.3 4.3 0 0 0-.12-2.86 4 4 0 0 0-.79-1.17 4 4 0 0 0-1.14-.77 3.1 3.1 0 0 0-3.21.45q-.42.31-.72.73t-.42.87l.1 2.93q.32.67.83 1.21.51.51 1.17.84.65.3 1.31.27M195.98 35l.39-9.09-3.7-.15.1-2.08 9.75.42-.08 2.07-3.72-.16-.39 9.1zM203.4 35.35l1.3-11.1 2.33.27-.51 4.41 5.16.6.51-4.41 2.34.27-1.29 11.1-2.34-.27.55-4.67-5.16-.6-.55 4.67zM221.3 38.18a6 6 0 0 1-2.24-.92 5.9 5.9 0 0 1-2.34-3.63 6 6 0 0 1 1.33-4.94 5.67 5.67 0 0 1 5.57-1.86q1.71.35 2.79 1.4a5.5 5.5 0 0 1 1.53 2.44 5.8 5.8 0 0 1-.1 3.7l-8.78-1.77q-.12.98.18 1.8.34.81.99 1.38.65.54 1.5.72.91.18 1.82-.11.94-.3 1.38-.99l1.86.97q-.52.72-1.39 1.22a5.6 5.6 0 0 1-4.1.59m-1.99-7.12 6.62 1.34q.13-.96-.2-1.77t-.97-1.37a3 3 0 0 0-1.5-.74 3.31 3.31 0 0 0-3.08.99q-.61.62-.87 1.55m1.77-6.58.47-2.3 1.93.39-.47 2.3zm3.71.75.47-2.3 1.93.39-.47 2.3zM234.52 41.45a4.4 4.4 0 0 1-2.1-1.28q-.8-.9-1.1-2.05l-1.85 6.38-2.26-.66 4.4-15.1 2 .58-.57 1.93q.9-.78 2.05-1.07 1.16-.3 2.36.06 1.12.33 1.9 1.05.8.7 1.25 1.67.45.98.53 2.1.1 1.1-.22 2.2a7 7 0 0 1-1.44 2.63 5 5 0 0 1-2.27 1.54 4.4 4.4 0 0 1-2.68.02m-.18-2.14q.72.2 1.38.07.7-.15 1.25-.53.58-.38 1-.98a4.3 4.3 0 0 0 .78-2.75 4 4 0 0 0-.38-1.36q-.31-.63-.84-1.1a3.1 3.1 0 0 0-3.2-.57q-.5.18-.92.47-.42.3-.67.7l-.82 2.8q.1.75.42 1.42.32.65.84 1.16.53.48 1.16.67M249.88 51.6l1.83-4.16-.35-.16a5.2 5.2 0 0 1-3.33-4.53q-.09-1.43.51-2.8t1.72-2.26a5.3 5.3 0 0 1 5.6-.61l.35.15 1.8-4.07 2.15.95-1.8 4.07.36.15a5.16 5.16 0 0 1 3.3 4.54 5.96 5.96 0 0 1-2.21 5.07 5.2 5.2 0 0 1-5.6.6l-.35-.15-1.83 4.16zm2.25-6.06.45.2 2.96-6.73-.45-.2a3 3 0 0 0-1.72-.22q-.86.16-1.6.75-.7.6-1.12 1.56a4 4 0 0 0-.39 1.88q.04.93.51 1.65.48.73 1.36 1.11m2.38 1.06.47.2a3 3 0 0 0 3.3-.48q.73-.6 1.15-1.55t.37-1.9a3.3 3.3 0 0 0-.5-1.66q-.47-.75-1.35-1.13l-.47-.21zM261.75 48.41a3 3 0 0 1 1.42-1.34 4 4 0 0 1 2.08-.27q1.15.12 2.39.8.65.37 1.27.83a6 6 0 0 1 1.06.97l.34-.61a2.4 2.4 0 0 0 .27-1.95q-.3-.93-1.46-1.57a5 5 0 0 0-1.72-.55 10 10 0 0 0-2-.05l.07-1.77a7.72 7.72 0 0 1 4.74.93 5 5 0 0 1 2.51 2.75q.57 1.66-.48 3.57l-2.01 3.64q-.2.36-.17.57.05.23.34.4l-.9 1.65a5 5 0 0 1-.94-.39q-.66-.36-.82-.86t.02-.97l.26-.59q-1.09.48-2.33.37a5.5 5.5 0 0 1-2.26-.65 4 4 0 0 1-1.52-1.35 3.6 3.6 0 0 1-.59-1.77 3.3 3.3 0 0 1 .43-1.79m5.9 4.04q.36-.12.63-.3.26-.16.36-.35l.62-1.12a6 6 0 0 0-.94-.91 7 7 0 0 0-1.08-.74 4 4 0 0 0-2.08-.57 1.6 1.6 0 0 0-1.37.86 1.9 1.9 0 0 0 .1 1.95q.3.5.96.85a3.7 3.7 0 0 0 2.8.33M270.86 57.24l6.1-9.36 1.96 1.27-2.42 3.7.93.61 5.18-1.9 2.18 1.42-6.37 2.3.66 7.32-2.27-1.49-.55-5.89-.91-.6-2.54 3.9zM279.18 68.57q-.3-.24-.58-.58-.28-.35-.52-.8l1.54-1.03q.12.25.27.45t.3.31q.43.33 1.04.23.6-.07 1.42-.56l1.04-.66 2.96-11.69 1.96 1.5-2.6 9.05 7.73-5.15 1.8 1.38-11.72 7.27q-.9.58-1.74.77-.82.2-1.56.07a3 3 0 0 1-1.34-.56M288.22 69.57l1.39-1.57q.4.36.89.45.5.08 1.15-.18.68-.26 1.56-.99.9-.72 2.1-1.99l2.36-2.43 5.97 5.28-7.4 8.37-1.76-1.55 6.03-6.83-2.66-2.35-1.04 1.11a22 22 0 0 1-2.78 2.54q-1.22.9-2.23 1.16-.99.28-1.88 0a5 5 0 0 1-1.7-1.02M298.53 78.7l8.03-7.78 1.63 1.69-2.63 2.56 1.86 1.91q1.38 1.43 1.38 2.87a3.5 3.5 0 0 1-1.17 2.6 4 4 0 0 1-1.74 1.06q-.95.28-1.9 0a4 4 0 0 1-1.85-1.2zm2.95.43 1.71 1.76q.5.5.97.64.5.11.97-.05.5-.18.87-.55.38-.36.56-.8t.06-.96a2 2 0 0 0-.62-1.03l-1.7-1.75zM307.9 88.75l6.95-5.88-2.39-2.82 1.59-1.34 6.3 7.46-1.58 1.33-2.4-2.84-6.96 5.88zM315.46 98.64a6 6 0 0 1-1.03-2.18 5.8 5.8 0 0 1 .73-4.26 6.1 6.1 0 0 1 4.32-2.74 5.6 5.6 0 0 1 5.36 2.39 5.5 5.5 0 0 1 .6 5.75 5.8 5.8 0 0 1-2.58 2.67l-5.27-7.24q-.75.63-1.09 1.45a3.32 3.32 0 0 0 .41 3.22q.55.75 1.42 1.15.89.42 1.69.2l.71 1.97q-.87.18-1.85-.03a5.7 5.7 0 0 1-3.42-2.35m3.35-6.58 3.98 5.46q.73-.62 1.03-1.44.34-.82.22-1.67a3 3 0 0 0-.61-1.56 3.32 3.32 0 0 0-2.94-1.35q-.87.05-1.68.56M321.7 107.48l7.76-4.78-1.94-3.15 1.76-1.08 5.13 8.31-1.77 1.1-1.95-3.18-7.76 4.78zM327.98 111.42a3 3 0 0 1 1.92-.34q1.01.18 1.89.93.88.74 1.54 1.98.35.67.61 1.4.28.75.34 1.39l.63-.33a2.4 2.4 0 0 0 1.3-1.48q.26-.93-.35-2.1a5 5 0 0 0-1.13-1.42q-.68-.58-1.64-1.14l1.04-1.43a7.72 7.72 0 0 1 3.44 3.39q1.04 1.98.57 3.67-.44 1.7-2.37 2.71l-3.7 1.93q-.35.2-.45.39-.07.2.06.52l-1.67.87a5 5 0 0 1-.56-.84q-.35-.66-.2-1.17t.55-.8l.54-.35a5 5 0 0 1-2.15-.97 5.5 5.5 0 0 1-1.52-1.79 4 4 0 0 1-.52-1.97q0-.99.48-1.8.48-.8 1.35-1.25m2.7 6.62q.36.1.67.1t.5-.1l1.14-.59a6 6 0 0 0-.28-1.27q-.2-.66-.49-1.22-.6-1.14-1.42-1.62a1.6 1.6 0 0 0-1.62-.04 1.9 1.9 0 0 0-1 1.68q0 .58.33 1.24a3.7 3.7 0 0 0 2.16 1.82M337.13 139.63l14.55-4.3 3.4 11.5-14.56 4.3-.68-2.32 12.53-3.7-2.04-6.9-12.53 3.71zM344.2 152.45a3 3 0 0 1 1.95.22q.92.45 1.55 1.4.66.96.93 2.34.15.75.2 1.51.06.8-.06 1.43l.7-.14a2.4 2.4 0 0 0 1.65-1.05q.51-.82.25-2.13a5 5 0 0 0-.69-1.67q-.47-.75-1.25-1.55l1.4-1.1a7.73 7.73 0 0 1 2.36 4.21q.44 2.2-.48 3.7-.9 1.51-3.03 1.95l-4.09.83q-.39.08-.54.23-.13.19-.09.53l-1.84.37a5 5 0 0 1-.3-.97q-.15-.72.12-1.18.3-.45.75-.6l.62-.2a5.49 5.49 0 0 1-2.75-3.67q-.22-1.09.04-2.04.29-.94.97-1.59.68-.63 1.64-.83m.75 7.1q.33.2.63.3.3.08.5.05l1.27-.26q.1-.63.08-1.3 0-.68-.13-1.3a4 4 0 0 0-.92-1.96 1.6 1.6 0 0 0-1.54-.5 1.9 1.9 0 0 0-1.43 1.34q-.18.56-.02 1.3a3.7 3.7 0 0 0 1.56 2.34M344.05 172.42q-.15-1.33.37-2.43.51-1.1 1.47-1.8l-6.6.76-.28-2.33 15.63-1.82.24 2.06-2 .23q1.08.52 1.79 1.48.7.94.86 2.2.13 1.14-.22 2.15a5 5 0 0 1-1.07 1.8q-.72.8-1.72 1.3-.97.52-2.12.66a7 7 0 0 1-2.98-.3q-1.4-.46-2.3-1.5a4.4 4.4 0 0 1-1.07-2.46m1.91-1q.09.75.48 1.3.39.59.97.95.57.39 1.28.54a4.3 4.3 0 0 0 2.85-.35q.65-.34 1.1-.89.45-.53.68-1.2a3.1 3.1 0 0 0-.71-3.16 4 4 0 0 0-.79-.66q-.45-.27-.9-.35l-2.91.34q-.64.38-1.14.93a4 4 0 0 0-.74 1.22q-.24.68-.17 1.34M345 181.53l9.1-.4-.16-3.69 2.07-.08.41 9.75-2.07.1-.16-3.72-9.1.38z"/></g></svg>