<svg xmlns="http://www.w3.org/2000/svg" xmlns:xlink="http://www.w3.org/1999/xlink" fill="none" viewBox="0 0 162 161"><g filter="url(#a)"><circle cx="82" cy="80.2" r="80" fill="#f5f5f6"/></g><g filter="url(#b)"><path fill="#ed131c" d="M121 63.5v17.37a4.5 4.5 0 0 1-2.9 4.17 94.7 94.7 0 0 1-70.82.04 4.5 4.5 0 0 1-3.28-4.3V63.5c0-1.2.51-2.34 1.4-3.19.9-.84 2.1-1.3 3.35-1.3h67.5c1.25 0 2.46.46 3.35 1.3s1.4 2 1.4 3.19m-37.86 34a107 107 0 0 1-35.86-6.45v24.46c0 1.2.5 2.35 1.4 3.19s2.1 1.31 3.36 1.3h60.92a4.8 4.8 0 0 0 3.36-1.3c.9-.84 1.4-1.99 1.4-3.2V91.2a100 100 0 0 1-34.58 6.3M90.01 40H75c-4.38-.25-8.15 2.92-8.45 7.09v6.33h5.84V47.1c0-.73 1.11-1.5 2.6-1.5h15.03c1.5 0 2.6.77 2.6 1.5v6.33h5.85V47.1c-.3-4.17-4.07-7.34-8.45-7.09"/></g><defs><filter id="a" width="172.1" height="165.74" x="-3.58" y=".2" color-interpolation-filters="sRGB" filterUnits="userSpaceOnUse"><feFlood flood-opacity="0" result="BackgroundImageFix"/><feBlend in="SourceGraphic" in2="BackgroundImageFix" result="shape"/><feColorMatrix in="SourceAlpha" result="hardAlpha" values="0 0 0 0 0 0 0 0 0 0 0 0 0 0 0 0 0 0 127 0"/><feOffset dx="-5.58"/><feGaussianBlur stdDeviation="7.28"/><feComposite in2="hardAlpha" k2="-1" k3="1" operator="arithmetic"/><feColorMatrix values="0 0 0 0 0.98903 0 0 0 0 0.98903 0 0 0 0 0.98903 0 0 0 1 0"/><feBlend in2="shape" result="effect1_innerShadow_1639_7909"/><feColorMatrix in="SourceAlpha" result="hardAlpha" values="0 0 0 0 0 0 0 0 0 0 0 0 0 0 0 0 0 0 127 0"/><feOffset dx="6.52" dy="5.74"/><feGaussianBlur stdDeviation="4.43"/><feComposite in2="hardAlpha" k2="-1" k3="1" operator="arithmetic"/><feColorMatrix values="0 0 0 0 0.550342 0 0 0 0 0.550342 0 0 0 0 0.550342 0 0 0 0.15 0"/><feBlend in2="effect1_innerShadow_1639_7909" result="effect2_innerShadow_1639_7909"/></filter><filter id="b" width="133.26" height="136.26" x="5.05" y="11.87" color-interpolation-filters="sRGB" filterUnits="userSpaceOnUse"><feFlood flood-opacity="0" result="BackgroundImageFix"/><feColorMatrix in="SourceAlpha" result="hardAlpha" values="0 0 0 0 0 0 0 0 0 0 0 0 0 0 0 0 0 0 127 0"/><feOffset dx="-10.82"/><feGaussianBlur stdDeviation="14.06"/><feComposite in2="hardAlpha" operator="out"/><feColorMatrix values="0 0 0 0 0.531836 0 0 0 0 0.0249038 0 0 0 0 0.0447835 0 0 0 0.2 0"/><feBlend in2="BackgroundImageFix" result="effect1_dropShadow_1639_7909"/><feBlend in="SourceGraphic" in2="effect1_dropShadow_1639_7909" result="shape"/><feColorMatrix in="SourceAlpha" result="hardAlpha" values="0 0 0 0 0 0 0 0 0 0 0 0 0 0 0 0 0 0 127 0"/><feOffset dx="-6.74"/><feGaussianBlur stdDeviation="6.74"/><feComposite in2="hardAlpha" k2="-1" k3="1" operator="arithmetic"/><feColorMatrix values="0 0 0 0 1 0 0 0 0 0.3125 0 0 0 0 0.340883 0 0 0 1 0"/><feBlend in2="shape" result="effect2_innerShadow_1639_7909"/><feColorMatrix in="SourceAlpha" result="hardAlpha" values="0 0 0 0 0 0 0 0 0 0 0 0 0 0 0 0 0 0 127 0"/><feOffset dx="6.74"/><feGaussianBlur stdDeviation="5.89"/><feComposite in2="hardAlpha" k2="-1" k3="1" operator="arithmetic"/><feColorMatrix values="0 0 0 0 0.8375 0 0 0 0 0.0628125 0 0 0 0 0.094795 0 0 0 1 0"/><feBlend in2="effect2_innerShadow_1639_7909" result="effect3_innerShadow_1639_7909"/></filter></defs></svg>