<svg xmlns="http://www.w3.org/2000/svg" xmlns:xlink="http://www.w3.org/1999/xlink" fill="none" viewBox="0 0 160 160"><g filter="url(#a)"><circle cx="80" cy="80" r="80" fill="#ecedf0"/></g><g fill="#ed131c" filter="url(#b)"><path d="M77.02 40.97a3 3 0 0 0-.36 2.18c.16.74.59 1.4 1.2 1.81.62.45 32.96 19.08 33 19.1.69.35 1.48.42 2.23.2a3 3 0 0 0 1.78-1.42l1.4-2.43c.4-.7.52-1.54.32-2.31-.2-.78-.69-1.44-1.37-1.84L82.54 37.39a3 3 0 0 0-2.28-.28 3 3 0 0 0-1.85 1.44zM82.68 111.1c1.82-3.3 4.94-7.76 5.33-11.5.59-3.07.35-6.23-.67-9.14-.5-1.87-2.19-3.7-1.71-5.75.2-.99.73-1.89 1.52-2.53.78-.65 1.75-1 2.75-1 3.12-.07 6.2-.98 8.9-2.62a19 19 0 0 0 6.55-6.72l3.09-5.34c-.36-.32-30.7-17.73-31.12-17.99l-3.1 5.36a18.7 18.7 0 0 0-2.54 9.03c-.06 3.17.7 6.27 2.2 9.02a4.3 4.3 0 0 1-.03 4.33 4.4 4.4 0 0 1-3.74 2.18c-3.12.1-6.19 1-8.9 2.64a19 19 0 0 0-6.55 6.7l-3.1 5.38c.24.12 30.87 17.81 31.12 17.96M81.59 121.06l1.38-2.43c.4-.66.52-1.44.37-2.17a3 3 0 0 0-1.2-1.8C81.5 114.2 48.99 95.43 49 95.52a3 3 0 0 0-2.17-.14c-.72.24-1.33.74-1.7 1.4-.61 1.28-2.3 3.22-1.73 4.73.2.78.69 1.44 1.37 1.84l32.68 18.87c.7.4 1.51.5 2.28.28a3 3 0 0 0 1.85-1.44"/></g><defs><filter id="a" width="172.1" height="165.74" x="-5.58" y="0" color-interpolation-filters="sRGB" filterUnits="userSpaceOnUse"><feFlood flood-opacity="0" result="BackgroundImageFix"/><feBlend in="SourceGraphic" in2="BackgroundImageFix" result="shape"/><feColorMatrix in="SourceAlpha" result="hardAlpha" values="0 0 0 0 0 0 0 0 0 0 0 0 0 0 0 0 0 0 127 0"/><feOffset dx="-5.58"/><feGaussianBlur stdDeviation="7.28"/><feComposite in2="hardAlpha" k2="-1" k3="1" operator="arithmetic"/><feColorMatrix values="0 0 0 0 0.98903 0 0 0 0 0.98903 0 0 0 0 0.98903 0 0 0 1 0"/><feBlend in2="shape" result="effect1_innerShadow_1639_7901"/><feColorMatrix in="SourceAlpha" result="hardAlpha" values="0 0 0 0 0 0 0 0 0 0 0 0 0 0 0 0 0 0 127 0"/><feOffset dx="6.52" dy="5.74"/><feGaussianBlur stdDeviation="4.43"/><feComposite in2="hardAlpha" k2="-1" k3="1" operator="arithmetic"/><feColorMatrix values="0 0 0 0 0.550342 0 0 0 0 0.550342 0 0 0 0 0.550342 0 0 0 0.15 0"/><feBlend in2="effect1_innerShadow_1639_7901" result="effect2_innerShadow_1639_7901"/></filter><filter id="b" width="129.65" height="141.87" x="4.34" y="8.87" color-interpolation-filters="sRGB" filterUnits="userSpaceOnUse"><feFlood flood-opacity="0" result="BackgroundImageFix"/><feColorMatrix in="SourceAlpha" result="hardAlpha" values="0 0 0 0 0 0 0 0 0 0 0 0 0 0 0 0 0 0 127 0"/><feOffset dx="-10.82"/><feGaussianBlur stdDeviation="14.06"/><feComposite in2="hardAlpha" operator="out"/><feColorMatrix values="0 0 0 0 0.531836 0 0 0 0 0.0249038 0 0 0 0 0.0447835 0 0 0 0.2 0"/><feBlend in2="BackgroundImageFix" result="effect1_dropShadow_1639_7901"/><feBlend in="SourceGraphic" in2="effect1_dropShadow_1639_7901" result="shape"/><feColorMatrix in="SourceAlpha" result="hardAlpha" values="0 0 0 0 0 0 0 0 0 0 0 0 0 0 0 0 0 0 127 0"/><feOffset dx="6.74"/><feGaussianBlur stdDeviation="5.89"/><feComposite in2="hardAlpha" k2="-1" k3="1" operator="arithmetic"/><feColorMatrix values="0 0 0 0 0.8375 0 0 0 0 0.0628125 0 0 0 0 0.094795 0 0 0 1 0"/><feBlend in2="shape" result="effect2_innerShadow_1639_7901"/><feColorMatrix in="SourceAlpha" result="hardAlpha" values="0 0 0 0 0 0 0 0 0 0 0 0 0 0 0 0 0 0 127 0"/><feOffset dx="-6.74"/><feGaussianBlur stdDeviation="6.74"/><feComposite in2="hardAlpha" k2="-1" k3="1" operator="arithmetic"/><feColorMatrix values="0 0 0 0 1 0 0 0 0 0.3125 0 0 0 0 0.340883 0 0 0 1 0"/><feBlend in2="effect2_innerShadow_1639_7901" result="effect3_innerShadow_1639_7901"/></filter></defs></svg>