<svg xmlns="http://www.w3.org/2000/svg" fill="none" viewBox="0 0 259 258"><g filter="url(#a)" opacity=".8"><path fill="#ECEDF0" fill-rule="evenodd" d="M139.4 10a9.98 9.98 0 1 0-19.95 0v67.32L94.23 14.9a9.98 9.98 0 0 0-18.5 7.48l26.07 64.54L52.58 37.7a9.98 9.98 0 0 0-14.12 14.12l47.6 47.6-61.96-26.3a9.98 9.98 0 1 0-7.8 18.37l64.07 27.2h-69.6a9.98 9.98 0 1 0 0 19.96h67.31l-62.41 25.21a9.98 9.98 0 1 0 7.48 18.51l64.53-26.07-49.22 49.21a9.98 9.98 0 1 0 14.12 14.12l47.6-47.6-26.3 61.96a9.98 9.98 0 0 0 18.37 7.8l27.2-64.07v69.6a9.98 9.98 0 1 0 19.96 0v-67.3l25.22 62.4a9.98 9.98 0 1 0 18.5-7.47l-26.07-64.54 49.22 49.22a9.98 9.98 0 1 0 14.11-14.12l-47.6-47.6 61.97 26.3a9.98 9.98 0 1 0 7.8-18.37l-64.07-27.2h69.6a9.98 9.98 0 0 0 0-19.96h-67.31l62.4-25.21a9.98 9.98 0 1 0-7.47-18.51l-64.53 26.07 49.21-49.21a9.98 9.98 0 1 0-14.11-14.12l-47.6 47.6 26.3-61.96a9.98 9.98 0 1 0-18.37-7.8L139.4 79.6V10Z" clip-rule="evenodd"/></g><defs><filter id="a" width="266.33" height="261.57" x="-3.38" y=".02" color-interpolation-filters="sRGB" filterUnits="userSpaceOnUse"><feFlood flood-opacity="0" result="BackgroundImageFix"/><feBlend in="SourceGraphic" in2="BackgroundImageFix" result="shape"/><feColorMatrix in="SourceAlpha" result="hardAlpha" values="0 0 0 0 0 0 0 0 0 0 0 0 0 0 0 0 0 0 127 0"/><feOffset dx="-4.17"/><feGaussianBlur stdDeviation="5.44"/><feComposite in2="hardAlpha" k2="-1" k3="1" operator="arithmetic"/><feColorMatrix values="0 0 0 0 0.98903 0 0 0 0 0.98903 0 0 0 0 0.98903 0 0 0 1 0"/><feBlend in2="shape" result="effect1_innerShadow_24793_20142"/><feColorMatrix in="SourceAlpha" result="hardAlpha" values="0 0 0 0 0 0 0 0 0 0 0 0 0 0 0 0 0 0 127 0"/><feOffset dx="4.87" dy="4.29"/><feGaussianBlur stdDeviation="3.31"/><feComposite in2="hardAlpha" k2="-1" k3="1" operator="arithmetic"/><feColorMatrix values="0 0 0 0 0.550342 0 0 0 0 0.550342 0 0 0 0 0.550342 0 0 0 0.15 0"/><feBlend in2="effect1_innerShadow_24793_20142" result="effect2_innerShadow_24793_20142"/></filter></defs></svg>