<svg xmlns="http://www.w3.org/2000/svg" fill="none" viewBox="0 0 259 258"><g filter="url(#a)" opacity=".8"><path fill="#ECEDF0" d="M167.64 254.68c3.35-2.23 7.81-2.23 8.93-5.56l-1.12-2.23c-13.4-8.9-29.02-13.34-35.72-27.8 12.28 0 24.56 0 36.84-2.22 8.93-2.22 17.85-5.56 25.67-10 17.86-11.13 32.37-25.58 42.41-43.37 11.16-18.9 14.51-40.03 13.4-61.16-1.12-6.67-2.24-13.34-6.7-18.9H248c-10.05 12.23-13.4 30.02-29.02 35.58 4.47-24.46-3.35-48.92-16.74-70.05-11.16-17.79-26.79-28.9-44.65-36.7-22.32-10-50.23-20-73.66-3.33-2.24 1.11 1.11 4.45 3.34 5.56 12.28 6.67 26.8 12.23 32.37 25.58-24.55-4.45-49.1 2.22-70.32 16.67C11.38 82.33-7.6 127.92 4.68 170.17c1.11 2.22 2.23 4.45 4.46 5.56 2.24 0 4.47-2.22 5.58-4.45 3.35-11.12 11.17-20.01 18.98-28.9l6.7-3.34c-4.47 31.13 6.7 62.26 27.9 84.5 25.67 25.58 63.62 40.03 99.34 31.14Z"/></g><defs><filter id="a" width="266.33" height="261.57" x="-3.21" y=".02" color-interpolation-filters="sRGB" filterUnits="userSpaceOnUse"><feFlood flood-opacity="0" result="BackgroundImageFix"/><feBlend in="SourceGraphic" in2="BackgroundImageFix" result="shape"/><feColorMatrix in="SourceAlpha" result="hardAlpha" values="0 0 0 0 0 0 0 0 0 0 0 0 0 0 0 0 0 0 127 0"/><feOffset dx="-4.17"/><feGaussianBlur stdDeviation="5.44"/><feComposite in2="hardAlpha" k2="-1" k3="1" operator="arithmetic"/><feColorMatrix values="0 0 0 0 0.98903 0 0 0 0 0.98903 0 0 0 0 0.98903 0 0 0 1 0"/><feBlend in2="shape" result="effect1_innerShadow_24793_20141"/><feColorMatrix in="SourceAlpha" result="hardAlpha" values="0 0 0 0 0 0 0 0 0 0 0 0 0 0 0 0 0 0 127 0"/><feOffset dx="4.87" dy="4.29"/><feGaussianBlur stdDeviation="3.31"/><feComposite in2="hardAlpha" k2="-1" k3="1" operator="arithmetic"/><feColorMatrix values="0 0 0 0 0.550342 0 0 0 0 0.550342 0 0 0 0 0.550342 0 0 0 0.15 0"/><feBlend in2="effect1_innerShadow_24793_20141" result="effect2_innerShadow_24793_20141"/></filter></defs></svg>