<svg xmlns="http://www.w3.org/2000/svg" fill="none" viewBox="0 0 258 258"><g filter="url(#a)" opacity=".8"><path fill="#ECEDF0" d="M243.31 257.3c-11.38 0-11.38-8.96-22.76-8.96s-11.38 8.97-22.76 8.97-11.38-8.97-22.75-8.97c-11.38 0-11.38 8.97-22.76 8.97s-11.38-8.97-22.76-8.97-11.38 8.97-22.76 8.97-11.38-8.97-22.75-8.97c-11.38 0-11.38 8.97-22.76 8.97s-11.38-8.97-22.76-8.97c-11.39 0-11.38 8.97-22.77 8.97-8.5 0-15.4-7.86-15.4-16.32 0-11.33 9.02-11.33 9.02-22.66S.32 207 .32 195.68c0-11.33 9.01-11.33 9.01-22.66S.32 161.7.32 150.36c0-11.32 9.01-11.32 9.01-22.65 0-11.33-9.01-11.33-9.01-22.66S9.33 93.72 9.33 82.4C9.33 71.07.32 71.06.32 59.73c0-11.33 9.01-11.33 9.01-22.66S.32 26.7.32 15.36C.32 6.89 7.22.03 15.72.03c11.37 0 11.37 8.96 22.75 8.96S49.85.02 61.24.02C72.62.02 72.6 9 83.99 9S95.37.02 106.75.02 118.13 9 129.51 9 140.89.02 152.27.02 163.65 9 175.02 9C186.4 9 186.41.02 197.8.02 209.17.02 209.17 9 220.55 9S230.79.03 242.17.03c8.5 0 15.4 6.86 15.4 15.33h.04c0 11.33-9.02 11.33-9.02 22.65 0 11.33 9.02 11.33 9.02 22.66s-9.02 11.33-9.02 22.66c0 11.32 9.02 11.32 9.02 22.65 0 11.33-9.02 11.33-9.02 22.66s9.02 11.33 9.02 22.65c0 11.33-9.02 11.33-9.02 22.66s9.02 11.33 9.02 22.66c0 11.32-9.02 11.32-9.02 22.66 0 11.33 9.02 11.32 9.02 22.66h-.05c0 8.46-5.75 15.37-14.25 15.37Z"/></g><defs><filter id="a" width="266.33" height="261.57" x="-3.85" y=".02" color-interpolation-filters="sRGB" filterUnits="userSpaceOnUse"><feFlood flood-opacity="0" result="BackgroundImageFix"/><feBlend in="SourceGraphic" in2="BackgroundImageFix" result="shape"/><feColorMatrix in="SourceAlpha" result="hardAlpha" values="0 0 0 0 0 0 0 0 0 0 0 0 0 0 0 0 0 0 127 0"/><feOffset dx="-4.17"/><feGaussianBlur stdDeviation="5.44"/><feComposite in2="hardAlpha" k2="-1" k3="1" operator="arithmetic"/><feColorMatrix values="0 0 0 0 0.98903 0 0 0 0 0.98903 0 0 0 0 0.98903 0 0 0 1 0"/><feBlend in2="shape" result="effect1_innerShadow_24793_20145"/><feColorMatrix in="SourceAlpha" result="hardAlpha" values="0 0 0 0 0 0 0 0 0 0 0 0 0 0 0 0 0 0 127 0"/><feOffset dx="4.87" dy="4.29"/><feGaussianBlur stdDeviation="3.31"/><feComposite in2="hardAlpha" k2="-1" k3="1" operator="arithmetic"/><feColorMatrix values="0 0 0 0 0.550342 0 0 0 0 0.550342 0 0 0 0 0.550342 0 0 0 0.15 0"/><feBlend in2="effect1_innerShadow_24793_20145" result="effect2_innerShadow_24793_20145"/></filter></defs></svg>