<svg xmlns="http://www.w3.org/2000/svg" width="176" height="48" fill="none"><path fill="#9EA0B3" d="M101.358 10.05c1.576.014 3.069.182 4.478.502 1.494.329 2.766.963 3.815 1.901 1.206 1.076 1.968 2.35 2.288 3.822.186.855.278 1.708.277 2.559.008.977-.092 1.892-.3 2.743a8.059 8.059 0 0 1-1.452 2.974 8.092 8.092 0 0 1-1.476 1.475 7.907 7.907 0 0 1-1.873 1.101c-1.554.635-3.22.96-4.997.974a30.234 30.234 0 0 1-3.221-.127c-.031-.004-.047.01-.047.04-.006 3.01-.008 6.036-.005 9.078 0 .046-.023.069-.07.069-1.753.003-3.457.001-5.112-.006-.03 0-.046-.015-.046-.046-.006-8.742-.008-17.515-.005-26.321 0-.063.031-.1.094-.112a41.196 41.196 0 0 1 7.652-.626Zm-2.496 4.729c-.028 2.872-.029 5.732 0 8.579 0 .03.016.049.046.055a9.214 9.214 0 0 0 1.827.146c.808-.006 1.561-.06 2.259-.16a5.107 5.107 0 0 0 2.093-.813 3.506 3.506 0 0 0 1.302-1.695c.155-.443.253-.906.294-1.389a6.627 6.627 0 0 0-.092-1.89 3.215 3.215 0 0 0-.651-1.355c-.603-.747-1.4-1.233-2.392-1.458a9.605 9.605 0 0 0-1.96-.23c-.897-.017-1.794.04-2.691.17-.023.004-.035.017-.035.04ZM122.912 17.566c.693.046 1.362.154 2.006.322 1.228.305 2.259.895 3.095 1.77.791.828 1.317 1.83 1.579 3.008.241 1.016.328 2.067.259 3.153a21.313 21.313 0 0 1-.363 3.025c-.005.027-.021.04-.049.04-3.827-.002-7.63 0-11.408.006-.031 0-.046.016-.045.046.033 1.127.34 2.146.921 3.055.396.62.918 1.057 1.567 1.315a6.432 6.432 0 0 0 2.392.42 9.058 9.058 0 0 0 2.15-.271c.907-.24 1.797-.564 2.671-.976.054-.024.093-.01.118.043.477.985.946 1.949 1.406 2.892.037.075.021.136-.046.185a7.027 7.027 0 0 1-1.002.634c-1.964.998-4.099 1.484-6.403 1.458a11.517 11.517 0 0 1-3.758-.645 6.257 6.257 0 0 1-2.484-1.666c-.844-.918-1.46-2.03-1.85-3.337-.455-1.605-.648-3.334-.576-5.187a14.34 14.34 0 0 1 .812-4.305 7.565 7.565 0 0 1 1.014-1.845 7.157 7.157 0 0 1 3.136-2.42c1.474-.599 3.094-.839 4.858-.72Zm-3.532 4.95c-.461.518-.797 1.143-1.009 1.873a8.901 8.901 0 0 0-.242 1.249c-.006.057.02.086.078.087 2.43.017 4.753.035 6.97.053.031 0 .05-.015.056-.044.018-.175.028-.408.031-.7a6.186 6.186 0 0 0-.208-1.705 2.304 2.304 0 0 0-.466-.87c-.559-.653-1.264-.993-2.116-1.02a5.325 5.325 0 0 0-1.683.184 2.983 2.983 0 0 0-1.411.894ZM146.654 18.137c.064.016.089.055.075.117-.237 1.15-.471 2.306-.704 3.468-.007.03-.025.042-.055.036a15.011 15.011 0 0 0-2.586-.296c-1.141-.04-2.185.192-3.13.697a4.078 4.078 0 0 0-1.522 1.406 5.744 5.744 0 0 0-.841 2.064c-.131.65-.198 1.351-.201 2.103-.004.975.111 1.89.345 2.743.169.618.448 1.17.836 1.655.457.588 1.062 1.012 1.815 1.273.714.257 1.49.372 2.329.346.974-.03 2.04-.13 3.2-.303.07-.01.111.02.125.09.222 1.108.441 2.209.658 3.303.006.026-.004.043-.03.05-1.603.47-3.228.714-4.875.733-1.832.04-3.505-.34-5.02-1.135a6.486 6.486 0 0 1-1.556-1.142c-.918-.858-1.623-1.913-2.115-3.164a12.954 12.954 0 0 1-.83-4.034c-.09-1.673.135-3.254.674-4.743a8.38 8.38 0 0 1 2.409-3.539 7.517 7.517 0 0 1 1.717-1.141 10.752 10.752 0 0 1 4.306-1.066 18.397 18.397 0 0 1 4.976.48Z"/><path fill="#6E708C" d="M51.043 10.438c.04.002.059.022.059.062v26.592c0 .046-.023.069-.07.069h-4.979c-.123 0-.184-.062-.184-.185V15.151c0-.056-.028-.079-.083-.069a2.037 2.037 0 0 1-.632 0 .666.666 0 0 0-.092-.006c-1.61.006-3.226.008-4.846.005-.026 0-.04.014-.041.04a178.47 178.47 0 0 1-.577 9.499 45.022 45.022 0 0 1-.645 4.61 19.309 19.309 0 0 1-.79 2.946c-.257.719-.563 1.382-.916 1.988a6.946 6.946 0 0 1-1.297 1.677c-.389.357-.812.649-1.268.876-1.04.526-2.176.759-3.406.697a6.169 6.169 0 0 1-2.052-.46c-.078-.035-.113-.095-.102-.18.178-1.454.358-2.891.54-4.31.004-.031.02-.042.05-.034.407.12.813.152 1.218.097.627-.081 1.132-.352 1.516-.812.324-.389.586-.82.784-1.291.315-.743.555-1.517.72-2.323.231-1.045.423-2.175.576-3.389.312-2.56.52-5.28.623-8.16.072-2.015.132-4.035.179-6.06 0-.033.018-.05.051-.05 4.58.023 9.16.023 13.74 0 .63-.003 1.272-.004 1.924-.004ZM55.17 18.073h4.853c.031 0 .046.015.046.046l-.023 3.273c0 .08.008.164.023.254.004 1.772.004 3.524 0 5.256 0 .03 0 .061-.003.092-.072.892-.147 1.784-.223 2.675a.113.113 0 0 0 .024.081c.044.055.094.033.15-.064.506-.859 1.001-1.71 1.487-2.553a.667.667 0 0 1 .051-.077 5586.91 5586.91 0 0 1 6.838-8.94.088.088 0 0 1 .073-.038c.997-.006 2.01-.008 3.038-.005.03 0 .046.015.046.046v18.996c0 .03-.015.046-.046.046a789.77 789.77 0 0 1-4.85-.006c-.04 0-.06-.02-.06-.06v-8.51c0-.03 0-.062.003-.092.07-.896.128-1.793.173-2.692a.083.083 0 0 0-.034-.075c-.018-.014-.044.007-.079.064-.532.87-1.047 1.74-1.544 2.61a.604.604 0 0 1-.052.077 1637.828 1637.828 0 0 1-6.784 8.62.157.157 0 0 1-.13.064c-1.015.003-2.015.001-3-.006-.034 0-.05-.017-.051-.05-.007-6.314-.01-12.631-.006-18.952 0-.054.027-.08.08-.08ZM74.541 18.073h15.751c.046 0 .07.023.07.069.003 1.443 0 2.86-.006 4.25 0 .04-.02.06-.061.06h-5.076c-.124 0-.185.063-.183.186.002.996.002 1.987 0 2.973-.008 3.888-.01 7.721-.005 11.498 0 .03-.016.046-.047.046-1.613.007-3.265.009-4.956.006-.073 0-.108-.037-.104-.11.038-.327.044-.667.017-1.02a4.471 4.471 0 0 1-.008-.577.507.507 0 0 0 .008-.091c-.021-4.282-.03-8.568-.028-12.859 0-.03-.016-.046-.046-.046a962.157 962.157 0 0 0-5.346-.005c-.04 0-.06-.02-.06-.061.013-1.101.018-2.226.017-3.374 0-.292-.008-.578-.022-.857-.002-.059.026-.088.085-.088Z"/></svg>