<svg xmlns="http://www.w3.org/2000/svg" width="176" height="48" fill="none"><path fill="#6E708C" d="M58.48 4.008c1.618.012 3.237.013 4.856.003.197-.034.278.013.244.142a.484.484 0 0 0-.015.131c.046 4.394.057 8.811.03 13.252-.02 3.356-.02 6.787 0 10.292.003.133-.06.2-.19.201-.696.007-1.432.012-2.209.014-.204-.011-.385-.025-.543-.04-.044-.005-.065-.03-.065-.075-.031-6.27-.034-12.563-.008-18.88.003-.591.004-1.112.004-1.562-.004-.088-.049-.14-.134-.155-.502-.085-.84.018-1.011.31a.624.624 0 0 1-.078.106 134.39 134.39 0 0 0-3.425 3.977.92.92 0 0 1-.738.344 30.086 30.086 0 0 1-2.043-.063.154.154 0 0 1-.11-.054 544.708 544.708 0 0 1-3.87-4.353.702.702 0 0 0-.592-.26c-.18.018-.322.02-.424.002-.082.005-.124.051-.125.137-.041 6.975-.045 13.797-.01 20.463 0 .04-.02.06-.057.064a23.37 23.37 0 0 1-2.876-.006c-.05-.003-.075-.032-.075-.084-.021-5.812-.021-11.586 0-17.322.007-1.91.007-3.822 0-5.737a3.496 3.496 0 0 1 .053-.767c.013-.042.041-.064.085-.064 1.574-.01 3.171-.012 4.79-.008.156 0 .286.06.389.183a205.862 205.862 0 0 0 3.954 4.509c.054.059.107.058.16-.002 1.131-1.324 2.255-2.633 3.37-3.926a5.59 5.59 0 0 0 .501-.675.172.172 0 0 1 .162-.097ZM83.122 4.008c.148 0 .204.074.168.223-.498 2.1-.973 4.165-1.425 6.194a.233.233 0 0 0 .008.129 7056.01 7056.01 0 0 0 4.445 12.56c.048.137.072.279.072.425v4.33c0 .084-.04.127-.12.132a23.4 23.4 0 0 1-1.768.036c-.074 0-.122-.037-.147-.109a2266.817 2266.817 0 0 1-5.23-15.765c-.018-.058-.058-.087-.117-.087-1.295.002-2.534.022-3.716.057-.073.003-.121.04-.145.11a2034.061 2034.061 0 0 0-5.159 15.56c-.063.163-.183.241-.361.234a46.347 46.347 0 0 0-1.711-.041c-.043 0-.065-.023-.065-.068-.01-1.383-.012-2.79-.008-4.219.001-.185.032-.364.094-.537l4.451-12.444a.668.668 0 0 0 .028-.354 10.897 10.897 0 0 0-.293-1.163c-.34-1.542-.732-3.182-1.176-4.921-.045-.176.02-.265.197-.267.936-.01 1.91-.011 2.925-.007.043 0 .07.022.079.066.344 1.58.672 3.121.984 4.621.03.14.114.211.253.211h3.541c.11 0 .178-.056.201-.168.329-1.569.64-3.121.935-4.656.009-.044.035-.066.078-.066l2.982-.016ZM93.92 4.024c3.02-.013 6.04-.013 9.064 0 .043 0 .069.022.078.066.008.04.026.094.054.16 1.5 6.257 3.006 12.506 4.52 18.747.064.263.096.59.095.98-.006 1.28-.008 2.584-.005 3.91 0 .1-.049.15-.145.15h-1.833c-.039 0-.063-.02-.073-.059-1.199-4.84-2.365-9.597-3.496-14.269-.032-.132-.114-.199-.247-.199-2.379-.003-4.714 0-7.006.008-.043 0-.072.022-.086.065-.143.43-.28.91-.408 1.437-1.041 4.28-2.103 8.575-3.184 12.884-.016.062-.055.096-.117.102-.744.067-1.381.056-1.912-.033-.043-.007-.064-.033-.062-.078a90.148 90.148 0 0 0-.01-4.353c0-.045.005-.089.015-.132A4149.193 4149.193 0 0 0 93.84 4.09c.01-.044.037-.066.08-.066Zm2.158 3.338a136.137 136.137 0 0 0-.713 2.94c-.021.097.016.146.112.147 2.006.014 3.99.014 5.951 0 .043 0 .065-.022.067-.067a4.182 4.182 0 0 0-.117-.67 29.887 29.887 0 0 1-.459-2.246c-.021-.108-.085-.162-.192-.162H96.15c-.039 0-.063.02-.072.058ZM113.919 4.016c4.939.03 9.884.03 14.835 0 .139 0 .255.053.348.16.45.514.91 1.023 1.378 1.526.092.099.138.217.138.354.004 7.363.002 14.654-.008 21.872 0 .045-.022.068-.065.07-.769.046-1.702.056-2.799.031-.069 0-.103-.037-.103-.109a9190.7 9190.7 0 0 1-.008-20.466c0-.094-.046-.142-.136-.143-1.508-.024-3.04-.015-4.598.026-.022.001-.033.013-.033.035.008 6.896-.003 13.762-.032 20.598 0 .039-.019.058-.057.06-.947.009-1.875.012-2.785.007-.098 0-.146-.05-.144-.151.037-2.278.048-4.464.035-6.559-.029-4.562-.04-9.224-.031-13.984 0-.02-.01-.031-.031-.031a270.154 270.154 0 0 0-4.664 0c-.043 0-.065.022-.065.067.006 6.86-.007 13.712-.04 20.558 0 .044-.022.067-.065.07a50.03 50.03 0 0 1-2.881.03 1.427 1.427 0 0 1-.037-.402c.026-1.534.037-3.032.032-4.496-.015-5.558-.015-11.093 0-16.607a.84.84 0 0 0-.01-.133c-.04-.361.107-.694.44-1 .485-.443.851-.86 1.099-1.249.022-.09.118-.135.287-.134ZM67.898 31.736c.053 0 .089.025.109.075l2.735 6.997c.016.037.039.043.069.017a1.24 1.24 0 0 0 .185-.346c.847-2.21 1.633-4.246 2.36-6.109.078-.158.15-.337.214-.536.013-.043.042-.066.085-.068.437-.018.864-.018 1.282 0 .043.002.064.026.063.07a530.708 530.708 0 0 0-.023 7.608c0 .044.004.089.011.133.042.224.044.451.007.681-.007.044-.032.069-.075.074-.2.023-.506.03-.916.018-.17-.005-.257-.094-.26-.269l.058-5.36c0-.062-.044-.034-.13.085a96.547 96.547 0 0 1-2.2 5.454c-.025.06-.068.09-.13.09h-1.09c-.055 0-.094-.027-.116-.08a205.173 205.173 0 0 1-2.142-5.354c-.108-.28-.158-.27-.15.032a96.94 96.94 0 0 1-.006 5.327c-.002.044-.024.067-.067.068a15.32 15.32 0 0 1-1.055.001c-.043-.002-.072-.023-.087-.066a.866.866 0 0 1-.023-.331c-.006-2.45-.004-4.955.005-7.515.001-.192-.01-.36-.032-.503-.026-.108.015-.164.123-.168.414-.012.813-.021 1.196-.025ZM81.073 31.761h5.35c.065 0 .097.034.097.1v.94c0 .09-.043.134-.13.134H82.38c-.066 0-.099.034-.099.102-.01 2.338-.012 4.697-.008 7.078 0 .153-.073.231-.22.235a8.118 8.118 0 0 1-.988-.018c-.043-.005-.064-.03-.065-.075a522.508 522.508 0 0 1-.016-8.403c0-.062.03-.093.09-.093ZM91.76 37.259a3.275 3.275 0 0 1-.9 2.305 3.155 3.155 0 0 1-2.237.981 3.15 3.15 0 0 1-2.262-.916 3.269 3.269 0 0 1-.963-2.278 3.275 3.275 0 0 1 .901-2.305 3.155 3.155 0 0 1 2.237-.982 3.15 3.15 0 0 1 2.262.917c.605.599.951 1.418.963 2.278Zm-3.244 2.094c.25.008.498-.037.732-.132.233-.095.447-.24.63-.424.181-.184.328-.405.431-.65a2.18 2.18 0 0 0 .048-1.565 2.068 2.068 0 0 0-.392-.677 1.903 1.903 0 0 0-.603-.464 1.785 1.785 0 0 0-1.453-.047 1.89 1.89 0 0 0-.63.423 2.06 2.06 0 0 0-.431.65 2.184 2.184 0 0 0-.048 1.566c.088.251.22.481.392.677.17.196.375.353.602.463.228.11.473.172.722.18ZM97.474 34.244c.493.225.892.552 1.198.98.214.32.368.664.461 1.033.264 1.037.153 1.996-.332 2.877-.326.579-.79.984-1.391 1.216-.398.154-.818.21-1.26.167-.554-.044-1.01-.253-1.37-.629-.106-.11-.204-.2-.294-.264-.043-.025-.065-.011-.065.04.012 1.118.015 2.175.01 3.17 0 .11-.054.166-.161.166h-.951c-.08 0-.12-.041-.12-.123v-8.5c0-.066.033-.1.098-.1h.973c.153 0 .218.078.194.235l-.079.534c-.006.048.012.062.054.044.126-.063.231-.144.317-.242.359-.41.823-.656 1.394-.739.423-.06.864-.016 1.324.135Zm-1.322 5.104c.24.003.477-.046.699-.146.222-.1.424-.247.596-.435a2.07 2.07 0 0 0 .402-.657 2.255 2.255 0 0 0 .019-1.56 2.073 2.073 0 0 0-.387-.667 1.823 1.823 0 0 0-.586-.45 1.653 1.653 0 0 0-1.393-.017c-.222.1-.425.247-.596.434a2.07 2.07 0 0 0-.403.657 2.256 2.256 0 0 0-.018 1.561c.088.249.22.475.387.667.166.191.365.344.585.45.22.105.456.16.695.163ZM115.67 34.076c.984.004 1.781.375 2.392 1.115.225.275.399.574.521.898.133.423.2.848.2 1.275 0 .959-.343 1.756-1.03 2.39-.366.35-.822.582-1.37.696a3.515 3.515 0 0 1-1.873-.108c-.505-.163-.954-.482-1.345-.957a3.08 3.08 0 0 1-.608-1.283c-.196-.854-.099-1.66.292-2.416a2.788 2.788 0 0 1 1.043-1.107 3.126 3.126 0 0 1 1.778-.503Zm-.112 5.274a1.84 1.84 0 0 0 1.366-.552 2.12 2.12 0 0 0 .604-1.424 2.203 2.203 0 0 0-.12-.786 2.065 2.065 0 0 0-.392-.677 1.91 1.91 0 0 0-.604-.463 1.792 1.792 0 0 0-.723-.18 1.839 1.839 0 0 0-1.366.551 2.16 2.16 0 0 0-.484 2.21c.088.252.221.481.392.677.17.196.375.353.603.464a1.8 1.8 0 0 0 .724.18ZM128.056 34.076c1.059.063 1.868.524 2.424 1.383.293.454.458.944.495 1.469.108.969-.132 1.816-.722 2.541-.229.281-.52.519-.872.713-.58.249-1.183.36-1.811.335a2.897 2.897 0 0 1-1.484-.477c-.442-.301-.777-.67-1.005-1.108-.305-.56-.438-1.183-.397-1.87.056-.954.458-1.737 1.205-2.349a3.173 3.173 0 0 1 2.167-.637Zm-.274 5.269c.505.016.996-.183 1.364-.554.369-.37.585-.883.602-1.424a2.126 2.126 0 0 0-.514-1.461 1.848 1.848 0 0 0-1.328-.641c-.251-.008-.5.036-.734.131a1.892 1.892 0 0 0-.631.422 2.04 2.04 0 0 0-.433.649 2.168 2.168 0 0 0-.048 1.561c.089.25.222.48.393.675.171.196.377.353.605.463.227.11.474.17.724.179ZM50.224 34.283c.073.009.11.051.11.128v5.823c0 .077-.037.116-.112.116h-.796c-.192 0-.29-.1-.292-.298-.021-1.526-.007-2.76.043-3.701.017-.314-.058-.34-.226-.078a436.412 436.412 0 0 0-2.468 3.883.383.383 0 0 1-.344.194h-1.01c-.075 0-.113-.04-.113-.117v-5.858c0-.059.029-.09.086-.091.354-.013.7-.013 1.041-.001.044.001.065.025.065.07.02 1.346.015 2.65-.011 3.91-.007.314.072.339.237.074a215.687 215.687 0 0 1 2.542-3.995.14.14 0 0 1 .101-.066 4.517 4.517 0 0 1 1.147.007ZM57.58 34.246c.665-.01 1.154.01 1.468.062.044.007.065.033.064.078-.03 1.86-.035 3.817-.016 5.871 0 .045-.021.07-.064.075a7.875 7.875 0 0 1-.985.016c-.084-.002-.126-.046-.126-.133a59.065 59.065 0 0 1 0-3.455.932.932 0 0 1 .057-.329c0-.191-.048-.204-.141-.039-.142.258-.257.5-.345.729a548.707 548.707 0 0 1-1.21 3.102.136.136 0 0 1-.112.093c-.21.036-.475.046-.796.03a.287.287 0 0 1-.274-.198c-.512-1.284-1.02-2.57-1.524-3.858-.023-.06-.043-.088-.06-.082-.041.016-.061.046-.06.09.026 1.23.033 2.492.023 3.786-.002.177-.088.266-.26.266h-.842c-.065 0-.098-.034-.098-.101v-5.905c0-.044.022-.067.065-.067h1.427c.134 0 .226.065.276.194a81.739 81.739 0 0 1 1.32 3.522c.09.256.173.473.247.652.074.139.138.134.192-.014a151.77 151.77 0 0 1 1.597-4.258c.032-.083.092-.125.177-.127ZM111.811 34.25c.017.054.014.094-.007.12a65.48 65.48 0 0 1-2.481 2.7c-.045.047-.045.096-.003.145.851.995 1.689 1.987 2.516 2.975.125.15.096.215-.089.193a4.723 4.723 0 0 0-1.034-.023.4.4 0 0 1-.374-.154c-.659-.81-1.301-1.584-1.928-2.323-.115-.137-.169-.114-.161.067a21.74 21.74 0 0 1-.009 2.325c-.003.044-.026.067-.069.068-.289.009-.632.011-1.03.007-.086-.001-.129-.047-.129-.136-.003-2.042-.001-4.021.005-5.937a33.43 33.43 0 0 1 1.187.007c.043 0 .064.024.064.068.008.681.001 1.343-.02 1.987-.006.194.055.22.182.077.588-.656 1.185-1.332 1.792-2.026a.327.327 0 0 1 .224-.115c.369-.035.824-.044 1.364-.026ZM100.787 34.272c.369-.013.747-.01 1.135.005.058.003.081.07.07.201a15.18 15.18 0 0 0-.012 1.72c.008.119.069.175.183.169.813-.066 1.489-.035 2.029.09.545.129.943.456 1.192.982.124.31.181.642.169.998-.019.623-.26 1.123-.721 1.502-.384.28-.846.417-1.386.41-.895-.01-1.774-.012-2.638-.007-.057 0-.086-.03-.086-.089.01-1.97.01-3.896 0-5.775-.001-.09.021-.16.065-.206Zm3.185 3.285a1.5 1.5 0 0 0-.818-.227c-.405-.003-.766.01-1.084.04-.056.005-.083.037-.083.094-.005.669-.002 1.27.007 1.804 0 .045.022.068.065.07.57.027 1.065.017 1.484-.028a.858.858 0 0 0 .641-.378c.172-.241.222-.52.152-.834a.85.85 0 0 0-.364-.541ZM120.307 34.277c1.289.003 2.543.001 3.761-.005.038.289.048.608.03.958-.005.105-.059.156-.16.154a33.536 33.536 0 0 0-2.334.03.098.098 0 0 0-.091.066c-.037.106-.05.31-.039.609.053 1.41.054 2.797.003 4.16-.002.045-.025.07-.068.076a3.78 3.78 0 0 1-1.127-.008c-.043-.006-.064-.031-.062-.076.028-1.223.034-2.574.017-4.051.006-.598.007-1.213.005-1.846 0-.044.021-.067.065-.067ZM61.099 38.907H62.2c.091 0 .143.047.155.14a4.3 4.3 0 0 1 .015.908c-.015.127-.02.234-.013.32-.001.044-.024.067-.067.068-.345.009-.738.011-1.178.007-.074 0-.111-.039-.111-.116v-1.226c0-.067.032-.101.097-.101ZM76.995 38.914c.326-.01.734-.011 1.226-.007.064 0 .096.035.096.1v1.074c0 .174-.084.263-.252.269a9.923 9.923 0 0 1-1.086-.02c-.043-.004-.067-.028-.071-.073-.044-.537-.04-.962.012-1.275.007-.045.032-.067.075-.068Z"/></svg>