<svg xmlns="http://www.w3.org/2000/svg" width="176" height="48" fill="none"><path fill="#6E708C" d="M53.45 9c1.921-.001 3.785 0 5.59.005.004.049.026.069.067.061a.075.075 0 0 1 .078.028c.114.135.13.271.049.408a.379.379 0 0 0-.039.09 46.687 46.687 0 0 1-.84 2.623c-.011.03-.02.062-.03.094-.35 1.307-.725 2.62-1.126 3.938-.01.031-.019.063-.026.095a744.35 744.35 0 0 0-.902 3.701 1.754 1.754 0 0 0-.02.097c-.155.893-.33 1.799-.523 2.718a22.997 22.997 0 0 0-.31 1.877.604.604 0 0 1-.017.097 4.47 4.47 0 0 0-.155 1.089c-.001.033.003.065.013.096.062.203.2.284.415.244a.9.9 0 0 0 .495-.334c.39-.543.75-1.09 1.076-1.642.286-.483.561-.983.828-1.501.261-.538.53-1.072.803-1.6.117-.225.195-.45.232-.673.964-1.999 1.906-4.002 2.826-6.008.819-1.786 1.64-3.58 2.466-5.385a.186.186 0 0 1 .18-.117h5.918c.053 0 .069.025.047.074a7.497 7.497 0 0 0-.27.716c-.023-.002-.036 0-.039.006a16.218 16.218 0 0 0-.917 2.608 181.883 181.883 0 0 1-1.24 3.76c-.096.28-.193.551-.29.814a27.05 27.05 0 0 1-.822 2.767 4.41 4.41 0 0 0-.125.414.28.28 0 0 1-.019.094c-.15.38-.278.77-.387 1.171-.194.743-.387 1.475-.58 2.199a89.16 89.16 0 0 0-.58 2.445 4.946 4.946 0 0 0-.118.914c-.138.724-.181 1.39-.128 2a.612.612 0 0 0 .015.097c.08.32.261.452.545.398.175-.034.322-.147.44-.34.339-.481.672-.975 1-1.482.018-.027.038-.03.062-.008.277.253.56.531.848.836.05.052.05.104.002.157-.33.36-.638.732-.92 1.114-.74.998-1.451 1.868-2.133 2.613-.682.744-1.431 1.295-2.248 1.654-.607.265-1.212.348-1.813.248a2.45 2.45 0 0 1-1.529-.86c-.5-.562-.766-1.264-.795-2.105.074-.41.1-.863.078-1.358a.725.725 0 0 1 .003-.099c.041-.388.104-.791.189-1.21.24-1.186.54-2.32.9-3.403a64.465 64.465 0 0 1 1.305-3.754c.087-.23.133-.43.135-.6.103-.379.207-.726.313-1.043a1.93 1.93 0 0 0 .102-.784c-.012-.084-.06-.1-.145-.045-.067-.002-.123.037-.17.12-.058.068-.108.149-.15.24a64.153 64.153 0 0 0-.859 1.815 69.334 69.334 0 0 1-1.305 2.84l-1.093 2.242a21.198 21.198 0 0 1-.816 1.587c-.277.494-.547 1-.81 1.52-.02.043-.01.061.027.055-.46.79-.916 1.492-1.368 2.106a13.14 13.14 0 0 1-1.626 1.846c-.525.478-1.065.774-1.619.89-.437.08-.88.015-1.33-.198a2.712 2.712 0 0 1-1.25-1.093 3.718 3.718 0 0 1-.465-1.155c-.141-.646-.173-1.362-.097-2.149.093-.897.23-1.877.41-2.94.108-.627.206-1.26.297-1.895.041-.279.065-.468.07-.567-.013-.242-.072-.255-.179-.038a71.104 71.104 0 0 1-2.32 4.347 28.741 28.741 0 0 1-1.705 2.606c-.569.78-1.127 1.412-1.673 1.9a.582.582 0 0 0-.339.169c-.373.345-.8.6-1.28.766a2.743 2.743 0 0 1-1.306.123 2.187 2.187 0 0 1-1.396-.722c-.615-.688-.91-1.532-.883-2.533a1.05 1.05 0 0 0-.002-.098 9.921 9.921 0 0 1 .477-3.714.268.268 0 0 0 .014-.096 1.096 1.096 0 0 0-.05-.272 3.1 3.1 0 0 1 .137-.426c.036-.095.105-.142.205-.142 1.781-.002 3.521 0 5.22.004-.09.005-.125.07-.105.195a.256.256 0 0 1 0 .096c-.04.22-.103.473-.19.761-.16.53-.247 1.01-.26 1.439 0 .033.003.065.01.098.058.268.184.414.376.44a.255.255 0 0 0 .095-.007c.273-.075.55-.267.83-.575a10.25 10.25 0 0 0 1.643-2.37 111.05 111.05 0 0 0 2.889-6.188 71.219 71.219 0 0 0 2.05-5.35.356.356 0 0 1 .043-.088c.06-.09.066-.195.016-.315.599-1.723 1.209-3.466 1.829-5.229.012-.035.037-.053.073-.053Z"/><path fill="#6E708C" d="M59.04 9.005c.118-.005.242-.006.372-.004.036 0 .049.019.036.054a104.323 104.323 0 0 0-3.212 11.506 52.25 52.25 0 0 0-.87 5.162c-.022.173 0 .297.064.374.089.098.19.115.304.052.19-.103.34-.23.447-.382a23.147 23.147 0 0 0 1.602-2.662c.444-.865.886-1.73 1.325-2.594a2.267 2.267 0 0 1-.232.673 69.002 69.002 0 0 0-.803 1.6 28.978 28.978 0 0 1-.828 1.5c-.327.553-.685 1.1-1.076 1.643a.9.9 0 0 1-.495.334c-.215.04-.353-.041-.415-.244a.305.305 0 0 1-.013-.096 4.47 4.47 0 0 1 .155-1.09.604.604 0 0 0 .018-.096c.083-.666.186-1.292.31-1.877.193-.919.367-1.825.522-2.718l.02-.097c.3-1.242.6-2.476.901-3.701a120.728 120.728 0 0 0 1.153-4.033c.01-.032.019-.063.03-.094.288-.81.568-1.685.84-2.623a.379.379 0 0 1 .039-.09c.082-.137.066-.273-.049-.408a.075.075 0 0 0-.078-.028c-.04.008-.063-.012-.068-.061ZM70.236 9.797c.003-.006.016-.008.039-.006a210.188 210.188 0 0 0-4.033 12.647 49.94 49.94 0 0 0-1.084 4.545c.01-.297.048-.601.117-.914a89.16 89.16 0 0 1 .58-2.445c.194-.724.387-1.456.58-2.199.11-.402.239-.792.388-1.17a.28.28 0 0 0 .019-.095c.03-.122.071-.26.125-.414.347-.986.62-1.908.822-2.767.097-.263.194-.534.29-.815a181.883 181.883 0 0 0 1.24-3.76c.243-.929.55-1.798.917-2.607ZM89.808 11.743c.452-.019.893.033 1.324.154a.854.854 0 0 1 .507.32c.116.187.128.442.036.767a8.097 8.097 0 0 1-.857 2.013c-1.122 1.868-2.53 3.649-4.224 5.341a34.352 34.352 0 0 1-7.672 5.8.28.28 0 0 0-.146.202c-.09.484-.15.912-.183 1.285-.07.785-.022 1.502.145 2.149.055.21.129.406.224.587.093.183.22.3.38.352.218.07.435-.013.653-.247.136-.147.247-.313.333-.5.216-.49.34-1.023.368-1.6.047-.937.008-1.843-.114-2.718-.004-.032.008-.056.037-.07 1.1-.544 2.222-1.097 3.364-1.658.05-.024.081-.009.096.044a9.863 9.863 0 0 1 .291 3.34c-.122 1.746-.631 3.3-1.529 4.662-.581.884-1.299 1.534-2.15 1.952-.476.24-.965.365-1.47.376-1.094.02-2.06-.295-2.894-.944-.606-.472-1.069-1.094-1.39-1.866a7.967 7.967 0 0 1-.618-3.093c.068.13.093.295.073.494a.38.38 0 0 0 .003.098c.072.577.198 1.187.38 1.828.1.355.258.712.477 1.069.294.54.704 1.029 1.23 1.463.026.02.052.04.08.058.766.522 1.661.779 2.684.77a3.34 3.34 0 0 0 1.577-.414 4.859 4.859 0 0 0 1.56-1.321 8.97 8.97 0 0 0 1.256-2.248c.241-.626.422-1.24.544-1.84.088-.432.118-.879.09-1.34a23.05 23.05 0 0 1-.024-1.087 6.266 6.266 0 0 0-.207-1.746c-.03-.091-.088-.116-.174-.076-.999.473-2.001.957-3.007 1.453-.111.055-.158.145-.14.27.09.647.115 1.28.075 1.902a.724.724 0 0 0 0 .099c.02.592-.075 1.236-.287 1.932a1.787 1.787 0 0 1-.713.976.857.857 0 0 1-.37.105.267.267 0 0 1-.253-.074 1.655 1.655 0 0 1-.405-.648 3.746 3.746 0 0 1-.296-1.155 5.106 5.106 0 0 1 .025-1.655c.065-.343.152-.719.259-1.126a.078.078 0 0 1 .04-.055 33.874 33.874 0 0 0 6.245-4.432c.255-.227.493-.454.713-.68a20.876 20.876 0 0 0 2.216-2.332.7.7 0 0 1 .067-.073c.317-.299.636-.666.955-1.102.432-.556.84-1.111 1.221-1.667.363-.528.689-1.092.979-1.692a.987.987 0 0 0 .097-.272c.23-.46.349-.915.355-1.365a.22.22 0 0 0-.019-.094c-.091-.206-.294-.347-.608-.424a4.6 4.6 0 0 0-2.152-.036.597.597 0 0 1-.096.014c-.306.02-.62.077-.943.17-.352.101-.705.2-1.06.296.028-.04.011-.058-.051-.053a9.888 9.888 0 0 1 3.093-.638Z"/><path fill="#6E708C" d="M91.017 11.99c.314.077.517.218.608.424a.22.22 0 0 1 .02.094c-.007.45-.126.904-.356 1.365a.987.987 0 0 1-.097.272c-.29.6-.616 1.164-.978 1.692-.383.556-.79 1.111-1.222 1.667-.32.436-.638.803-.955 1.102a.7.7 0 0 0-.067.072 20.876 20.876 0 0 1-2.216 2.333c-.22.226-.458.453-.713.68a33.874 33.874 0 0 1-6.246 4.432.078.078 0 0 0-.04.055c-.106.407-.193.783-.258 1.126a5.106 5.106 0 0 0-.025 1.655c.04.412.139.797.296 1.155.102.274.236.49.405.648.072.07.156.094.253.074a.857.857 0 0 0 .37-.105c.351-.243.589-.568.713-.976.212-.696.308-1.34.288-1.932a.724.724 0 0 1-.001-.1 9.286 9.286 0 0 0-.076-1.901c-.017-.125.03-.215.14-.27 1.007-.496 2.01-.98 3.008-1.453.086-.04.144-.015.174.076.145.518.214 1.1.207 1.746.002.436.01.799.024 1.087.028.461-.002.908-.09 1.34a11.374 11.374 0 0 1-.544 1.84 8.97 8.97 0 0 1-1.257 2.248 4.859 4.859 0 0 1-1.56 1.32 3.34 3.34 0 0 1-1.576.415c-1.023.009-1.918-.248-2.685-.77a.828.828 0 0 1-.078-.058 4.974 4.974 0 0 1-1.231-1.464 4.262 4.262 0 0 1-.478-1.068 12.324 12.324 0 0 1-.379-1.828.38.38 0 0 1-.002-.098.872.872 0 0 0-.074-.494c-.019-.112-.036-.22-.052-.325-.114-.03-.26-.014-.441.047-.715.227-1.43.451-2.145.673-.104.032-.162-.01-.177-.13a.518.518 0 0 1 .032-.263c.165-.413.345-.9.542-1.46a.376.376 0 0 1 .28-.258c.637-.18 1.258-.342 1.86-.483.243-.056.394-.19.454-.4a.364.364 0 0 0-.022-.217c.067-.24.132-.43.193-.568.012.05.02.073.022.068.22-.605.454-1.206.701-1.803.194-.471.432-.961.713-1.47.074-.152.154-.284.242-.395.756-1.413 1.735-2.776 2.937-4.088.251-.275.517-.547.797-.815a20.094 20.094 0 0 1 4-2.952c.837-.468 1.674-.84 2.512-1.118.354-.096.707-.195 1.06-.296.322-.093.636-.15.942-.17a.597.597 0 0 0 .096-.014 4.6 4.6 0 0 1 2.152.036ZM79.68 23.8c-.039.064-.033.1.018.107.033.005.064 0 .093-.013.825-.35 1.592-.87 2.301-1.564.023-.023.047-.045.072-.066a39.994 39.994 0 0 0 3.456-3.389 36.559 36.559 0 0 0 1.958-2.346c.225-.307.438-.641.64-1.001.12-.213.143-.413.07-.599-.023-.133-.105-.182-.245-.148a4.5 4.5 0 0 0-1.07.463c-.532.314-1.064.693-1.595 1.136a20.667 20.667 0 0 0-1.8 1.692 28.92 28.92 0 0 0-3.127 3.923 1.13 1.13 0 0 1-.058.08c-.346.441-.6.924-.761 1.45-.045.147-.03.239.048.275Z"/><path fill="#6E708C" d="M86.715 12.38c.062-.004.08.014.052.054-.838.278-1.675.65-2.512 1.118a20.094 20.094 0 0 0-4 2.952c-.28.268-.546.54-.797.815-1.202 1.312-2.18 2.675-2.938 4.088a2.207 2.207 0 0 0-.241.395c-.281.509-.519.999-.713 1.47-.247.597-.48 1.198-.7 1.803-.003.005-.01-.017-.023-.068.702-2.072 1.638-3.94 2.808-5.607a20.9 20.9 0 0 1 2.737-3.156 18.974 18.974 0 0 1 4.659-3.192 12.44 12.44 0 0 1 1.668-.671ZM51.547 14.283c.05.12.045.225-.016.315a.356.356 0 0 0-.042.088 71.219 71.219 0 0 1-2.051 5.35 111.05 111.05 0 0 1-2.889 6.187 10.25 10.25 0 0 1-1.643 2.371c-.28.308-.557.5-.83.575a.255.255 0 0 1-.095.006c-.193-.025-.318-.171-.376-.44a.418.418 0 0 1-.01-.097c.013-.43.1-.91.26-1.439.087-.288.15-.541.19-.76a.256.256 0 0 0 0-.097c-.02-.125.015-.19.105-.195.105-.007.152.006.14.04a16.767 16.767 0 0 0-.575 2.154c-.05.256-.031.46.054.612.11.16.28.172.508.037.23-.141.447-.33.653-.569a10.122 10.122 0 0 0 1.517-2.204c1.427-2.756 2.61-5.335 3.547-7.737a125.77 125.77 0 0 0 1.553-4.197ZM88.29 14.929c.072.186.048.386-.071.599-.202.36-.415.694-.64 1a36.559 36.559 0 0 1-1.958 2.347 39.994 39.994 0 0 1-3.456 3.39 1.306 1.306 0 0 0-.072.065c-.709.693-1.476 1.215-2.3 1.564a.166.166 0 0 1-.094.013c-.05-.008-.057-.043-.018-.107a.956.956 0 0 0 .344-.096 7.155 7.155 0 0 0 1.324-.87 34.045 34.045 0 0 0 2.47-2.218 39.707 39.707 0 0 0 3.59-4.013c.285-.367.535-.745.75-1.137a1.01 1.01 0 0 0 .13-.537ZM61.384 19.009c-.105.117-.192.25-.26.397a850.022 850.022 0 0 1-2.501 5.373 62.109 62.109 0 0 1-2.415 4.65c-.038.005-.046-.013-.026-.056.262-.52.532-1.026.809-1.52.297-.523.569-1.052.816-1.587l1.093-2.241c.434-.888.87-1.835 1.305-2.84.281-.62.568-1.224.859-1.816.042-.091.092-.172.15-.24.047-.083.103-.122.17-.12ZM93.138 19.85a.983.983 0 0 1 .417.859c.003.192-.021.39-.073.593-.115.414-.254.832-.416 1.253a302.52 302.52 0 0 0-1.735 4.551c-.3.805-.556 1.59-.767 2.353a3.083 3.083 0 0 0-.103 1.052c-.043.014-.067-.01-.073-.07a3.17 3.17 0 0 1 .041-.84.527.527 0 0 1 .024-.096 61.758 61.758 0 0 1 1.102-3.208l1.583-4.112c.15-.39.254-.817.314-1.284.064-.401-.06-.723-.375-.964-.324-.263-.697-.327-1.117-.191a5.713 5.713 0 0 0-1.155.549c-1.417.872-2.868 1.81-4.352 2.814a.32.32 0 0 0-.147.269c-.015.448-.007.834.022 1.159.006.067.036.082.09.044a10.5 10.5 0 0 1 1.438-.828.768.768 0 0 1 .381-.076 10.72 10.72 0 0 0-2.036 1.176c-.03.021-.044.013-.042-.025.027-.439.025-.924-.008-1.454a.274.274 0 0 1 .127-.261 187.883 187.883 0 0 1 3.995-2.596c.523-.33 1.023-.6 1.499-.815.515-.213.97-.164 1.366.148Z"/><path fill="#6E708C" d="M93.077 19.937c.314.241.44.563.375.964-.06.467-.164.895-.314 1.284l-1.584 4.112a61.758 61.758 0 0 0-1.1 3.208.527.527 0 0 0-.025.095 3.17 3.17 0 0 0-.04.84c.005.061.03.085.072.071a.737.737 0 0 0 .17 0c.054-.006.086-.002.094.012.017.028.042.038.073.032.264-.062.53-.19.799-.386.41-.312.787-.684 1.13-1.117a19.11 19.11 0 0 0 1.915-2.958 39 39 0 0 0 1.65-3.428c.344-.805.606-1.588.785-2.347.008-.033.029-.05.06-.05.428-.014.83-.015 1.204-.005.812.023 1.574.019 2.287-.011.173-.012.232.066.178.234-.466 1.41-.927 2.823-1.384 4.242a232.94 232.94 0 0 0-1.42 4.625 51.881 51.881 0 0 0-.458 1.673.373.373 0 0 0 0 .185c.017.064.057.086.12.065a.54.54 0 0 1 .028.028c0 .086.052.109.16.069.276-.102.53-.28.76-.532a.787.787 0 0 1 .393-.25c.034-.008.056.006.067.04a6.1 6.1 0 0 0 .332.871c.053.113.034.211-.056.295-.485.428-.98.817-1.485 1.168a8.456 8.456 0 0 1-2.006 1.062c-.418.155-.821.2-1.209.137a1.437 1.437 0 0 1-.749-.321 1.743 1.743 0 0 1-.562-1.254c-.008-.258 0-.53.024-.815.057-.29.114-.619.17-.988.013-.088-.01-.138-.069-.148.067-.122.08-.203.039-.242-.038-.034-.107.005-.208.118-.038-.048-.086-.046-.143.006-.73.684-1.467 1.33-2.211 1.94-.624.509-1.22.912-1.789 1.21a4.188 4.188 0 0 1-1.493.5c-.441.066-.81-.026-1.106-.278-.24-.21-.42-.457-.54-.74a.468.468 0 0 1-.033-.093 3.623 3.623 0 0 1-.085-1.28.476.476 0 0 1 .021-.095 114.77 114.77 0 0 1 1.314-3.659c.454-1.201.894-2.407 1.318-3.618.076-.219.092-.437.048-.655-.001-.005-.014-.007-.039-.006-.014-.108-.12-.131-.318-.07a.768.768 0 0 0-.38.076 10.5 10.5 0 0 0-1.438.828c-.055.038-.085.023-.091-.044a9.749 9.749 0 0 1-.022-1.16.32.32 0 0 1 .147-.268 120.611 120.611 0 0 1 4.352-2.814 5.713 5.713 0 0 1 1.155-.55c.42-.135.793-.071 1.117.192ZM138.119 20.048c.315.193.533.473.653.84.206.542.273 1.15.199 1.822a16.002 16.002 0 0 1-1.813 5.858c-.034-.023-.032-.072.006-.147a15.286 15.286 0 0 0 1.312-3.514c.008-.032.017-.064.027-.095.21-.642.333-1.343.369-2.102a.799.799 0 0 1 .011-.098c.075-.408.048-.886-.081-1.434a1.765 1.765 0 0 0-.526-.895 1.313 1.313 0 0 0-1.021-.315 4.673 4.673 0 0 0-.683.117 7.331 7.331 0 0 0-1.704 1 14.29 14.29 0 0 0-2.767 2.903c-.097.136-.093.26.011.37l.475.508a.216.216 0 0 1 .048.084c.03.103.079.15.148.14a.374.374 0 0 0 .288-.197c.221-.382.464-.723.728-1.022.3-.342.677-.6 1.131-.773a.296.296 0 0 1 .298.044c.15.087.238.19.263.309.066.357.048.758-.055 1.204a18.173 18.173 0 0 1-1.257 3.606c-.04.087-.085.122-.135.105a20.15 20.15 0 0 0 1.156-3.162c.136-.49.217-.975.242-1.457.01-.229-.048-.391-.175-.488-.142-.095-.325-.089-.55.019a2.613 2.613 0 0 0-.731.537 6.04 6.04 0 0 0-1.041 1.475c-.018.033-.038.035-.063.008-.279-.31-.614-.654-1.004-1.031-.048-.046-.052-.096-.013-.15.267-.347.523-.67.768-.969.972-1.186 2.051-2.133 3.238-2.84.301-.18.618-.318.949-.414a1.506 1.506 0 0 1 1.299.154ZM123.164 19.894a3.65 3.65 0 0 1 1.976.524c.503.305.786.788.852 1.452.037.302.027.604-.03.908a5.456 5.456 0 0 1-.653 1.754c-.462.829-1.066 1.62-1.813 2.37-1.408 1.432-3.084 2.667-5.027 3.706-.183.097-.228.19-.136.277-.021.093.016.177.112.253.31.251.619.35.925.299a.424.424 0 0 1 .096-.005c.323.023.651-.038.985-.182 1.052-.456 2.039-1.135 2.96-2.038.058-.057.11-.051.156.017.232.345.444.69.635 1.036.049.088.039.17-.029.244-.315.341-.637.679-.967 1.013-.983 1.016-2.046 1.757-3.19 2.223a5.588 5.588 0 0 1-2.629.401 4.04 4.04 0 0 1-2.167-.804.428.428 0 0 1-.07-.067 2.878 2.878 0 0 0-.494-.438c-.08-.06-.106-.043-.077.05-.481.266-1.028.601-1.641 1.004-.028.018-.046.01-.055-.02a18.012 18.012 0 0 0-.59-1.707c-.024-.059-.007-.102.048-.13.416-.21.827-.444 1.233-.698.065-.04.096-.1.091-.179a11.64 11.64 0 0 1-.073-1.334c-.009-2.251.597-4.225 1.819-5.922a8.953 8.953 0 0 1 2.054-2.075 9.73 9.73 0 0 1 4.514-1.883c.344-.05.739-.066 1.185-.05Zm-5.001 9.166a37.564 37.564 0 0 0 2.396-2.195 16.538 16.538 0 0 0 1.68-1.988c.35-.509.619-1.032.81-1.569.14-.352.154-.675.042-.969-.091-.213-.236-.328-.435-.346a1.883 1.883 0 0 0-1.009.18 4.799 4.799 0 0 0-.858.63 7.407 7.407 0 0 0-1.402 1.704c-.312.539-.59 1.102-.834 1.691-.19.418-.339.837-.449 1.257a.284.284 0 0 0-.016.096 2.11 2.11 0 0 1-.121.445c-.091.239-.133.52-.127.845-.006.143.046.227.156.254a.178.178 0 0 0 .167-.035Z"/><path fill="#6E708C" d="M138.276 20.283c.271.256.446.554.526.895.129.548.156 1.026.081 1.434a.799.799 0 0 0-.011.098 7.955 7.955 0 0 1-.369 2.102c-.01.031-.019.063-.027.095a15.286 15.286 0 0 1-1.312 3.514c-.038.075-.04.124-.006.147a2.997 2.997 0 0 1-.334.613c-.023-.047-.062-.029-.119.055a12.561 12.561 0 0 1-1.075 1.52 10.942 10.942 0 0 1-1.198 1.241 11.808 11.808 0 0 1-3.171 1.853 4.527 4.527 0 0 1-2.272.271 3.024 3.024 0 0 1-1.336-.562 4.193 4.193 0 0 1-1.178-1.438 4.873 4.873 0 0 1-.387-1.013c-.06-.39-.139-.795-.236-1.216a.339.339 0 0 0-.078-.167c-.028-.09-.038-.09-.028 0a5.865 5.865 0 0 1 .028-1.384 9.592 9.592 0 0 1 .628-2.322 14.38 14.38 0 0 1 1.832-3.118 16.29 16.29 0 0 1 2.344-2.47.5.5 0 0 1 .344-.12c1.273.036 2.517.037 3.732.003.061-.002.068.016.021.055a17.844 17.844 0 0 0-3.288 3.532c-.497.701-.909 1.415-1.238 2.143a6.898 6.898 0 0 0-.629 2.248 4.795 4.795 0 0 0 .115 1.66c.106.416.319.766.64 1.051.233.199.503.281.811.247.331-.034.657-.162.978-.383.289-.191.571-.447.846-.766a7.79 7.79 0 0 0 1.134-1.735c.05.017.095-.018.135-.105.561-1.202.98-2.404 1.257-3.606.103-.446.121-.847.055-1.204-.025-.12-.113-.222-.263-.309a.296.296 0 0 0-.298-.044c-.454.173-.831.43-1.131.773-.264.3-.507.64-.728 1.022a.374.374 0 0 1-.288.198c-.069.009-.118-.038-.148-.142a.216.216 0 0 0-.048-.083l-.475-.507c-.104-.112-.108-.235-.011-.37a14.29 14.29 0 0 1 2.767-2.904 7.331 7.331 0 0 1 1.704-1c.209-.053.437-.092.683-.117.385-.04.726.065 1.021.315ZM108.057 19.993c.863.025 1.54.395 2.03 1.107-.061.01-.124-.023-.187-.1a2.127 2.127 0 0 0-1.408-.834 3.918 3.918 0 0 0-2.314.326c-.74.363-1.428.82-2.067 1.372-.486.42-.929.898-1.329 1.433-.518.686-.909 1.373-1.173 2.061a12.162 12.162 0 0 0-.674 2.515.534.534 0 0 0-.008.098 5.564 5.564 0 0 1-.067.82c-.072.47-.071.924.004 1.36a.64.64 0 0 1 .01.098c-.005.915.245 1.779.748 2.594.066.107.155.214.266.32a1.953 1.953 0 0 0 1.48.785c.772.027 1.482-.227 2.133-.76.345-.281.681-.588 1.009-.92a.492.492 0 0 1 .266-.168c-.557.657-1.163 1.18-1.819 1.57-.415.248-.848.381-1.299.402-.641.04-1.203-.177-1.686-.648a3.292 3.292 0 0 1-.725-1.062 6.482 6.482 0 0 1-.489-2.465 36.709 36.709 0 0 1 0-.938c.098-1.944.637-3.692 1.617-5.244.017-.028.036-.055.054-.082a9.983 9.983 0 0 1 3.217-2.968c.77-.446 1.574-.67 2.411-.672ZM100.854 20.116c.098 0 .131.049.099.143a240.915 240.915 0 0 0-3.24 10.355c-.07.241-.087.462-.05.663-.062.02-.102 0-.12-.065a.373.373 0 0 1 0-.185c.174-.667.326-1.224.46-1.673a232.94 232.94 0 0 1 1.42-4.625c.456-1.419.917-2.833 1.383-4.242.054-.168-.005-.246-.178-.234-.713.03-1.475.034-2.287.011-.375-.01-.776-.009-1.203.005-.032 0-.053.017-.061.05-.18.76-.44 1.542-.785 2.347a39 39 0 0 1-1.65 3.428 19.11 19.11 0 0 1-1.915 2.958c-.343.433-.72.805-1.13 1.117a2.244 2.244 0 0 1-.799.386c-.031.006-.056-.004-.073-.032-.008-.014-.04-.018-.095-.012.228-.032.46-.123.695-.274a4.95 4.95 0 0 0 .93-.803 14.807 14.807 0 0 0 1.596-2.149 32.5 32.5 0 0 0 2.368-4.718c.328-.802.59-1.593.786-2.372.008-.032.028-.049.06-.05 1.117-.032 2.38-.041 3.789-.029Z"/><path fill="#6E708C" d="M108.492 20.166c.582.09 1.051.368 1.408.833.063.078.126.112.187.101.113.138.193.146.242.025.072.022.12-.01.145-.095.079-.272.182-.507.307-.705a.084.084 0 0 1 .074-.043c.631-.034 1.286-.04 1.964-.018.443.015.909.013 1.399-.006.045-.003.069.02.069.067.002.278-.062.54-.189.785a.416.416 0 0 0-.034.092 9.548 9.548 0 0 1-.405 1.29c-.012.03-.023.06-.033.092a329.375 329.375 0 0 1-1.774 5.782c-.071.225-.127.414-.169.568a4.784 4.784 0 0 1-.318.944.432.432 0 0 0-.032.093c-.13.466-.279.952-.448 1.458a20.21 20.21 0 0 0-.393 1.328c-.71 2.413-1.45 4.764-2.219 7.053-.013.04-.04.06-.082.06-1.097.008-2.205.01-3.324.007-.153-.001-.209-.077-.169-.227.317-1.136.649-2.277.996-3.423.154-.508.295-.99.424-1.445.263-.802.531-1.607.803-2.414a.312.312 0 0 0-.004-.198c.008-.105-.039-.129-.141-.07a.492.492 0 0 0-.266.169c-.328.331-.664.638-1.009.92-.651.532-1.361.786-2.133.76a1.953 1.953 0 0 1-1.48-.785 1.656 1.656 0 0 1-.266-.321c-.503-.815-.753-1.68-.748-2.594a.64.64 0 0 0-.01-.098 4.215 4.215 0 0 1-.004-1.36c.043-.274.065-.547.067-.82 0-.033.002-.066.008-.098.128-.838.353-1.676.674-2.515.264-.688.655-1.375 1.173-2.061.4-.535.843-1.013 1.329-1.433a9.628 9.628 0 0 1 2.067-1.372 3.918 3.918 0 0 1 2.314-.326Zm-1.335 3.056a4.83 4.83 0 0 0-.556.79 16.142 16.142 0 0 0-1.275 2.674 6.311 6.311 0 0 0-.363 2.742c.016.195.067.383.151.562.164.351.428.477.792.377.443-.128.827-.41 1.154-.846.486-.682.892-1.427 1.22-2.236.415-1.021.695-2.07.841-3.143a2.285 2.285 0 0 0-.043-.87.984.984 0 0 0-.277-.532c-.16-.174-.367-.233-.623-.178-.385.082-.725.302-1.021.66Z"/><path fill="#6E708C" d="M114.465 20.17c-2.037 6.541-4.077 13.104-6.12 19.688-.029.095-.093.143-.191.142-1.261-.007-2.468-.01-3.62-.006-.032 0-.044-.016-.034-.047.52-1.797 1.061-3.607 1.623-5.43.245-.793.509-1.575.794-2.347a.312.312 0 0 1 .004.197c-.272.808-.54 1.613-.803 2.415-.129.455-.27.937-.424 1.445a162.723 162.723 0 0 0-.996 3.423c-.04.15.016.226.169.227 1.119.003 2.227 0 3.324-.006.042-.001.069-.021.082-.06.769-2.29 1.509-4.641 2.219-7.054.111-.431.242-.874.393-1.328.169-.506.318-.992.448-1.458a.432.432 0 0 1 .032-.093c.136-.295.242-.61.318-.944.042-.154.098-.343.169-.568a329.375 329.375 0 0 0 1.774-5.782l.033-.093c.164-.415.299-.845.405-1.29a.416.416 0 0 1 .034-.09c.127-.246.191-.508.189-.786 0-.048-.024-.07-.069-.067-.49.019-.956.02-1.399.006a22.514 22.514 0 0 0-1.964.018.084.084 0 0 0-.074.043 2.761 2.761 0 0 0-.307.705c-.025.086-.073.117-.145.095.123-.352.247-.663.372-.933a.073.073 0 0 1 .069-.046 79.885 79.885 0 0 1 3.662-.025c.032 0 .043.017.033.049ZM61.114 20.882c-.002.17-.047.37-.135.599a64.465 64.465 0 0 0-1.305 3.754 29.18 29.18 0 0 0-.9 3.403c-.085.419-.148.822-.189 1.21a.725.725 0 0 0-.003.099c.022.495-.004.948-.078 1.358a6.48 6.48 0 0 1 .004-1.482c.156-1.312.44-2.611.851-3.896.485-1.51 1.07-3.192 1.755-5.045ZM122.656 21.993c.199.018.344.133.435.346.112.294.098.617-.042.97a6.777 6.777 0 0 1-.81 1.568 16.538 16.538 0 0 1-1.68 1.988 37.564 37.564 0 0 1-2.396 2.195.178.178 0 0 1-.167.035c-.11-.027-.162-.111-.156-.254a2.256 2.256 0 0 1 .127-.845 2.11 2.11 0 0 0 .121-.445c0-.033.005-.065.016-.096.11-.42.259-.839.449-1.257.244-.588.522-1.152.834-1.691a7.407 7.407 0 0 1 1.402-1.705c.293-.264.579-.474.858-.63.294-.148.63-.208 1.009-.179Zm-4.2 6.7a21.508 21.508 0 0 0 3.687-3.865c.312-.437.558-.877.736-1.322.145-.316.208-.639.188-.97-.012-.219-.124-.367-.338-.444-.216-.09-.456-.089-.72.006a2.81 2.81 0 0 0-1.051.655 9.511 9.511 0 0 0-2.03 2.84 11.635 11.635 0 0 0-.937 2.798 2.075 2.075 0 0 0-.021.521c.005.07.039.09.101.063a4.67 4.67 0 0 0 .385-.282ZM88.555 23.747c.025 0 .038.001.04.006.043.218.027.436-.05.655-.423 1.21-.863 2.417-1.317 3.618a114.77 114.77 0 0 0-1.314 3.659.476.476 0 0 0-.021.096c-.05.411-.02.838.085 1.28a.468.468 0 0 0 .033.092c.12.283.3.53.54.74.296.252.665.344 1.106.278a4.188 4.188 0 0 0 1.493-.5 10.73 10.73 0 0 0 1.789-1.21 43.169 43.169 0 0 0 2.21-1.94c.058-.052.106-.054.144-.006-1.264 1.223-2.56 2.263-3.89 3.118a4.085 4.085 0 0 1-1.867.661c-.63.053-1.103-.196-1.42-.747a2.505 2.505 0 0 1-.327-1.674.618.618 0 0 1 .022-.096c.342-1.082.73-2.188 1.164-3.318a81.11 81.11 0 0 0 1.45-4.026c.082-.25.125-.478.13-.686ZM74.65 25.575c.03.079.037.151.022.216-.06.211-.211.345-.453.401-.603.141-1.224.302-1.862.483a.376.376 0 0 0-.28.257 36.226 36.226 0 0 1-.541 1.46.518.518 0 0 0-.032.265c.014.118.073.161.177.129.714-.222 1.43-.446 2.145-.673.18-.06.327-.076.44-.047-.99.315-1.99.629-2.996.942-.034.01-.044 0-.032-.034.265-.703.536-1.429.81-2.177a.231.231 0 0 1 .17-.154 52.726 52.726 0 0 0 2.175-.593.22.22 0 0 0 .163-.174 1.9 1.9 0 0 1 .094-.301ZM38.587 26.711c.031.104.048.194.05.272a.268.268 0 0 1-.013.096 9.921 9.921 0 0 0-.477 3.714c.002.033.003.066.002.098-.027 1.001.268 1.845.883 2.533.367.409.832.65 1.396.722.443.065.878.023 1.305-.123.48-.166.908-.421 1.282-.766a.582.582 0 0 1 .338-.17c-.477.44-.978.774-1.505 1.004a2.373 2.373 0 0 1-1.371.178 2.561 2.561 0 0 1-1.553-.809 3.026 3.026 0 0 1-.72-1.414 7.172 7.172 0 0 1-.193-2.148 12.5 12.5 0 0 1 .576-3.187ZM123.558 29.062c.246.415.514.834.804 1.256.022.033.021.064-.003.094a13.772 13.772 0 0 1-2.67 2.499 8.67 8.67 0 0 1-1.988 1.056 5.38 5.38 0 0 1-2.604.278 3.576 3.576 0 0 1-1.668-.667 10.102 10.102 0 0 1-.85-.692c-.029-.092-.003-.108.077-.05.229.17.394.317.494.439a.428.428 0 0 0 .07.067 4.04 4.04 0 0 0 2.167.804 5.588 5.588 0 0 0 2.629-.401c1.144-.466 2.207-1.207 3.19-2.223.33-.334.652-.672.967-1.013.068-.074.078-.156.029-.244a13.965 13.965 0 0 0-.635-1.036c-.046-.068-.098-.074-.156-.017-.921.903-1.908 1.582-2.96 2.038a2.087 2.087 0 0 1-.985.182.424.424 0 0 0-.096.005c-.306.052-.615-.048-.925-.299-.096-.076-.133-.16-.112-.253.265.294.562.45.891.47.388.026.767-.032 1.136-.173a7.83 7.83 0 0 0 1.601-.883c.458-.325.963-.741 1.514-1.25.032-.03.06-.026.083.013ZM136.824 29.181c-.247.438-.569.909-.965 1.414a10.748 10.748 0 0 1-4.52 3.335 6.33 6.33 0 0 1-1.19.34 3.435 3.435 0 0 1-2.369-.52 3.876 3.876 0 0 1-1.396-1.537 6.124 6.124 0 0 1-.638-2.488c-.01-.09 0-.09.028 0a.339.339 0 0 1 .078.167c.097.421.176.826.236 1.216.09.348.219.686.387 1.012a4.193 4.193 0 0 0 1.178 1.44c.389.29.834.478 1.336.561a4.527 4.527 0 0 0 2.272-.271 11.808 11.808 0 0 0 3.171-1.853 10.942 10.942 0 0 0 1.198-1.24c.392-.476.751-.982 1.075-1.52.057-.085.096-.103.119-.056ZM99.029 30.367c.038-.038.064-.03.077.021.122.458.254.863.395 1.214a.147.147 0 0 1-.037.175 11.453 11.453 0 0 1-3.401 2.289c-.308.134-.62.21-.937.228-.685.057-1.215-.167-1.59-.673a1.676 1.676 0 0 1-.32-1.031 5.96 5.96 0 0 1 .246-1.952c.06.011.082.06.069.149-.056.37-.113.699-.17.988a6.93 6.93 0 0 0-.024.815c.016.496.204.914.562 1.254.202.172.451.279.75.32.387.065.79.02 1.208-.136.72-.266 1.39-.62 2.006-1.062.505-.35 1-.74 1.485-1.168.09-.084.109-.182.056-.295a6.1 6.1 0 0 1-.332-.87c-.01-.035-.033-.049-.067-.04a.787.787 0 0 0-.393.249c-.23.252-.483.43-.76.532-.108.04-.16.017-.16-.069.17-.035.335-.11.498-.228a7.38 7.38 0 0 0 .839-.71ZM71.518 32.65c0 .434-.169.85-.47 1.157-.3.308-.708.48-1.133.48-.425 0-.833-.172-1.133-.48a1.657 1.657 0 0 1-.348-1.785c.08-.198.199-.38.348-.531a1.601 1.601 0 0 1 1.133-.48 1.574 1.574 0 0 1 1.134.48 1.669 1.669 0 0 1 .47 1.158Zm-.099 0c0-.407-.157-.797-.438-1.084a1.482 1.482 0 0 0-1.06-.448c-.398 0-.779.161-1.06.448a1.549 1.549 0 0 0-.439 1.083c0 .406.158.796.44 1.083.28.287.662.449 1.059.449.397 0 .779-.162 1.06-.449.28-.287.439-.677.439-1.083Z"/><path fill="#6E708C" d="M69.921 34.18c.828 0 1.498-.685 1.498-1.53 0-.847-.67-1.532-1.498-1.532s-1.499.685-1.499 1.531c0 .846.671 1.532 1.499 1.532Z"/></svg>