<svg xmlns="http://www.w3.org/2000/svg" width="176" height="48" fill="none"><path fill="#6E708C" d="M28.927 5h29.146c.02 0 .03.01.03.03.036.553.043 1.203.022 1.951-.004.696-.004 1.385 0 2.07 0 .1-.006.189-.021.263-.008.745-.008 1.508 0 2.29a97.6 97.6 0 0 1 0 1.827c-.005.257.002.478.021.66-.01.968-.011 1.907 0 2.818 0 .029.01.055.029.077a213.286 213.286 0 0 1 2.74 3.197c.05.06.058.082.022.066a144.947 144.947 0 0 1-2.748-2.705 1.134 1.134 0 0 1-.068-.107 13.942 13.942 0 0 0-.017-.509.12.12 0 0 0-.03-.076 553.516 553.516 0 0 1-4.695-5.518c-.234-.278-.451-.55-.653-.813a.567.567 0 0 0-.06-.065c-.658-.662-1.46-.947-2.402-.855a5.171 5.171 0 0 0-2.122.699c-.32.173-.65.372-.994.594a546.666 546.666 0 0 1-6.425 4.303 4123.94 4123.94 0 0 0-11.687 7.737.27.27 0 0 0-.123.307c.034.167-.018.288-.154.365a1056.278 1056.278 0 0 1-5.383 3.076.714.714 0 0 1 .092-.105l5.378-3.533a.112.112 0 0 0 .054-.1c.006-5.919.008-11.886.005-17.9 0-.03.014-.044.043-.044Z"/><path fill="#6E708C" d="M50.696 12.264c.923.01 1.728.268 2.414.776.287.21.55.412.788.606a62.13 62.13 0 0 1 3.963 3.62.816.816 0 0 0 .24.171c.018.034.04.07.067.107-.03-.004-.044.026-.043.091.02.914.013 1.824-.021 2.73a.951.951 0 0 0 .021.264c.064.218.101.334.113.347 1.434 1.474 2.874 2.956 4.32 4.446.214.22.416.441.604.66.05.056.064.085.044.089a115.995 115.995 0 0 1-3.672-3.148c-.444-.398-.884-.81-1.32-1.235a.33.33 0 0 1-.11-.257c.002-.253.001-.472-.005-.655 0-.03-.01-.054-.03-.076-1.525-1.58-3.052-3.167-4.584-4.757a1.654 1.654 0 0 1-.058-.065c-.672-.783-1.524-1.22-2.558-1.315-1.103-.095-2.163.16-3.18.766a1865.293 1865.293 0 0 1-15.346 9.03.708.708 0 0 0-.069-.308 27.483 27.483 0 0 0-.782-1.602 1.042 1.042 0 0 0-.297-.339c5.322-3.037 10.64-6.068 15.954-9.093a6.18 6.18 0 0 1 .87-.413 7.828 7.828 0 0 1 2.677-.44Z"/><path fill="#6E708C" d="M53.24 18.015a5.556 5.556 0 0 0-2.35-.644c-1.314-.071-2.546.122-3.695.578a.941.941 0 0 0-.08.036 7466.51 7466.51 0 0 1-13.945 6.96l-.415.202c-1.224.62-2.457 1.237-3.701 1.853a.286.286 0 0 0-.17.276v2.532l18.719-9.47a5.587 5.587 0 0 1 2.23-.612c1.11-.065 2.116.172 3.018.71.25.154.498.341.744.562a487.481 487.481 0 0 0 4.449 3.922.109.109 0 0 1 .038.072c.025.188.031.45.018.79a.342.342 0 0 0 .146.306 1335.78 1335.78 0 0 1 5.586 4.133c.368.273.727.53 1.076.768.024.016.039.01.043-.02-.012.007-.04-.007-.082-.044A311.44 311.44 0 0 1 58.4 25.21a.414.414 0 0 0-.07-.05c-.163-.102-.239-.277-.227-.524a27.847 27.847 0 0 0 0-2.862.19.19 0 0 0-.066-.141 72.506 72.506 0 0 0-2.305-1.933 18.265 18.265 0 0 0-2.494-1.684ZM81.26 18.004a4.928 4.928 0 0 1 2.037 1.483c.028.035.025.066-.01.094-.425.333-.862.677-1.31 1.031-.032.025-.06.022-.085-.01a3.81 3.81 0 0 0-1.35-1.074 4.166 4.166 0 0 0-2.203-.374 4.663 4.663 0 0 0-1.84.567 4.484 4.484 0 0 0-1.48 1.31c-.728 1.047-1.061 2.234-.999 3.56.06 1.272.472 2.37 1.236 3.297a4.044 4.044 0 0 0 1.685 1.21 4.77 4.77 0 0 0 2.889.204c.896-.21 1.638-.708 2.227-1.494.042-.056.091-.064.148-.025.464.32.907.637 1.33.949.014.01.015.022.004.036a6.936 6.936 0 0 1-1.519 1.406.95.95 0 0 1-.074.046c-1.008.565-2.116.838-3.326.82-1.539-.02-2.883-.454-4.033-1.303a5.69 5.69 0 0 1-1.36-1.431c-.794-1.213-1.178-2.613-1.15-4.2a7.312 7.312 0 0 1 .707-3.064c.47-.94 1.114-1.692 1.932-2.257 1.066-.761 2.281-1.174 3.645-1.238 1.046-.05 2.012.103 2.9.457ZM107.818 17.547c.408.024.761.06 1.059.11 1.125.17 2.109.596 2.953 1.282.489.398.865.866 1.128 1.404a5.59 5.59 0 0 1 .562 2.2 5.987 5.987 0 0 1-.48 2.725 3.848 3.848 0 0 1-.53.87c-.449.58-.927 1.016-1.436 1.31a6.687 6.687 0 0 1-3.383.906c-.043 0-.066.023-.067.068-.03.919-.032 1.78-.006 2.582.001.04-.017.059-.055.059h-1.645c-.058 0-.086-.03-.086-.088v-2.548c0-.044-.022-.066-.065-.067-1.319-.024-2.514-.365-3.586-1.022a.818.818 0 0 1-.072-.05 6.333 6.333 0 0 1-1.321-1.324.805.805 0 0 1-.049-.072c-.61-.982-.885-2.076-.825-3.282a5.753 5.753 0 0 1 .319-1.634 4.258 4.258 0 0 1 1.069-1.75 5.705 5.705 0 0 1 2.71-1.464c.35-.081.741-.145 1.172-.193a19.214 19.214 0 0 1 2.634-.022Zm-4.929 8.106c.239.234.509.42.81.562.641.299 1.329.474 2.063.524.028.003.043-.01.045-.04.051-1.38.059-2.78.025-4.2a40.457 40.457 0 0 1 0-.99c.01-.802.001-1.585-.026-2.35-.001-.03-.016-.043-.044-.041-.318.034-.604.075-.859.124a4.04 4.04 0 0 0-2.095 1.079c-.42.441-.703.96-.847 1.557a4.885 4.885 0 0 0-.06 1.92c.121.736.45 1.354.988 1.855Zm7.505-5.536a3.968 3.968 0 0 0-1.296-.726 5.774 5.774 0 0 0-1.436-.263c-.025-.001-.038.01-.038.037-.003 2.515-.001 5.02.005 7.512 0 .03.015.043.043.042a4.909 4.909 0 0 0 2.479-.741c.291-.199.534-.428.729-.688a3.644 3.644 0 0 0 .718-1.91 5.126 5.126 0 0 0 0-.858c-.081-.992-.482-1.793-1.204-2.405ZM129.56 17.794c-.021 4.254-.025 8.529-.01 12.824 0 .037-.018.055-.054.054a26.624 26.624 0 0 0-1.695.011c-.015 0-.022-.007-.022-.022-.001-2.926-.012-5.769-.032-8.528-.001-.016-.006-.018-.017-.007-1.398 1.417-2.835 2.87-4.31 4.359-.046.046-.092.046-.139 0a9241.05 9241.05 0 0 1-4.287-4.338c-.036-.036-.053-.028-.053.023v8.452c0 .03-.015.044-.044.044h-1.641c-.043 0-.065-.022-.065-.066V17.858c0-.053.019-.061.056-.023a394.558 394.558 0 0 1 6.072 6.332c.015.015.029.015.044 0 2.061-2.146 4.116-4.275 6.167-6.385.02-.021.03-.017.03.012ZM92.745 17.89c1.811 4.27 3.61 8.534 5.397 12.797.012.027.003.04-.025.04a73.29 73.29 0 0 1-1.934.001c-.029 0-.048-.015-.058-.042-.193-.52-.414-1.102-.665-1.749a.047.047 0 0 0-.046-.032 1447.462 1447.462 0 0 1-6.93 0 .094.094 0 0 0-.09.06c-.246.547-.493 1.12-.742 1.72-.013.032-.036.048-.07.048-.64.002-1.27 0-1.895-.006-.028 0-.037-.013-.025-.04a852.045 852.045 0 0 1 2.94-6.927c.834-1.939 1.663-3.89 2.488-5.856a.066.066 0 0 1 .064-.044l1.53-.01c.03 0 .05.013.061.04Zm-.898 2.21a1214.36 1214.36 0 0 0-2.774 7.174c-.011.027-.002.041.027.041 1.876.007 3.758.008 5.645.005.048 0 .063-.022.045-.068-.974-2.403-1.933-4.787-2.879-7.152-.022-.055-.043-.055-.064 0ZM138.49 17.86a75.8 75.8 0 0 1 1.485-.005.13.13 0 0 1 .127.086c1.797 4.221 3.584 8.462 5.363 12.721.018.043.004.065-.042.065-.602.007-1.225.008-1.87.006a.104.104 0 0 1-.101-.067l-.75-1.678a.128.128 0 0 0-.124-.082 311.5 311.5 0 0 0-3.013.021c-.009 0-.018-.005-.027-.016a232.024 232.024 0 0 0-3.732-.006.065.065 0 0 0-.065.044c-.238.561-.487 1.137-.747 1.727a.079.079 0 0 1-.076.051c-.61.007-1.228.008-1.853.006-.066 0-.085-.031-.059-.092 1.831-4.266 3.639-8.513 5.424-12.74a.06.06 0 0 1 .06-.04Zm.679 2.218c-.898 2.35-1.816 4.748-2.754 7.192-.014.034-.003.05.032.05 1.862.003 3.699.002 5.511-.005.041 0 .054-.02.039-.059-.933-2.422-1.851-4.814-2.756-7.178-.024-.062-.048-.062-.072 0ZM148.693 17.86c1.302.002 2.614 0 3.938-.005a6.523 6.523 0 0 1 2.284.38c.474.179.884.443 1.231.792.298.286.514.646.648 1.079.13.408.196.824.199 1.25a3.647 3.647 0 0 1-.242 1.557c-.284.726-.795 1.261-1.534 1.607a5.694 5.694 0 0 1-2.457.533c-.769 0-1.523.001-2.262.006-.029 0-.043.014-.043.044a346.255 346.255 0 0 0-.011 5.58c0 .03-.014.044-.043.044a95.29 95.29 0 0 1-1.703.005c-.042 0-.062-.021-.062-.064v-12.75c0-.037.019-.057.057-.058Zm5.865 2.147a2.427 2.427 0 0 0-.934-.457 4.948 4.948 0 0 0-1.274-.132c-.631.012-1.246.007-1.847-.016-.036 0-.053.017-.053.053v4.02c0 .036.017.053.051.054.742.01 1.488.005 2.238-.017a3.471 3.471 0 0 0 1.636-.445c.378-.22.623-.542.734-.969.121-.41.128-.817.022-1.222a1.553 1.553 0 0 0-.573-.869Z"/><path fill="#6E708C" d="M52.894 22.725a24.561 24.561 0 0 1 4.34 2.598c.276.206.52.392.736.557a.346.346 0 0 1 .155.3c.015.665.015 1.273 0 1.823a20.26 20.26 0 0 0-.003 1.145.384.384 0 0 0-.04.025 390.13 390.13 0 0 1-4.357-3.266 8.556 8.556 0 0 0-.831-.562 5.12 5.12 0 0 0-2.263-.512c-.029 0-.057 0-.086-.002a5.984 5.984 0 0 0-2.878.437 3699.64 3699.64 0 0 0-18.735 7.921c-.03.012-.043.035-.038.069.023.142.018.356-.014.64-.007.06.017.08.072.061 5.926-1.957 11.83-3.948 17.71-5.973a13.893 13.893 0 0 1 3.213-.688 8.916 8.916 0 0 1 1.188-.021 6.395 6.395 0 0 1 2.791.765c1.444.782 2.833 1.564 4.168 2.346a.188.188 0 0 1 .098.174c.003.7-.002 1.403-.016 2.108-.005.24.01.451.043.634-.02.004-.04.005-.061.004a.13.13 0 0 0-.064-.071 708.27 708.27 0 0 0-4.416-2.675 3.48 3.48 0 0 0-.988-.402 8.711 8.711 0 0 0-2.332-.305 14.596 14.596 0 0 0-4.453.93 5346.65 5346.65 0 0 0-16.87 5.695c-.028.01-.042.03-.043.058l-.036.949c0 .02-.011.034-.031.038-2.879.72-5.744 1.438-8.596 2.157-.06.015-.084-.008-.069-.07a.428.428 0 0 1 .295-.295c2.58-.836 5.187-1.714 7.823-2.636.186-.064.342-.11.469-.135.069-.014.103-.057.104-.128l.01-2.298c0-.078-.035-.104-.108-.08a587.468 587.468 0 0 1-8.19 2.768c-.077.025-.118.027-.125.005.195-.13.393-.236.595-.319 1.6-.648 3.216-1.327 4.848-2.036 1.074-.467 2.049-.878 2.926-1.235.032-.012.049-.037.049-.074v-2.548c0-.07.032-.118.096-.144a765.031 765.031 0 0 0 4.871-2.014c4.568-1.912 9.141-3.81 13.719-5.696a7.583 7.583 0 0 1 2.608-.555 5.663 5.663 0 0 1 2.716.533ZM34.616 28.33a.074.074 0 0 0-.042-.037.072.072 0 0 0-.056.005l-.039.02a.076.076 0 0 0-.032.1l.904 1.8a.073.073 0 0 0 .099.033l.038-.02a.076.076 0 0 0 .032-.1l-.904-1.8ZM31.195 22.21c.13.1.23.212.297.34.28.527.54 1.06.782 1.6.048.107.071.21.069.309a286.31 286.31 0 0 1-3.333 1.953.16.16 0 0 0-.083.12c-.033.2-.048.353-.043.458a.167.167 0 0 1-.101.171c-1.97.98-3.922 1.952-5.855 2.916-.474.237-.719.336-.734.298-.004-.014.119-.076.367-.188a1516.08 1516.08 0 0 0 6.274-3.674.094.094 0 0 0 .049-.086v-2.82c0-.097.045-.16.135-.192.113-.044.24-.107.383-.189.597-.342 1.194-.68 1.793-1.016Z"/><path fill="#6E708C" d="m34.517 28.298-.038.02a.076.076 0 0 0-.032.1l.904 1.8a.073.073 0 0 0 .099.033l.038-.02a.075.075 0 0 0 .032-.1l-.904-1.8a.073.073 0 0 0-.099-.033ZM58.122 29.148c.006.02.014.035.025.044a1017.75 1017.75 0 0 1 8.206 6.119c.005.003-.023.001-.08-.005a301.018 301.018 0 0 0-8.05-4.795.23.23 0 0 1-.121-.22c.01-.456.004-.83-.02-1.118a.384.384 0 0 1 .04-.025ZM28.884 29.808c.023.16.02.371-.01.635a.11.11 0 0 1-.071.097c-1.194.486-2.332.956-3.413 1.408a126.416 126.416 0 0 1-4.394 1.817c-.053.02-.053.006 0-.044a470.705 470.705 0 0 0 6.51-3.247c.49-.249.949-.47 1.378-.666ZM50.566 32.538c.257.002.524.017.8.044a7.52 7.52 0 0 1 2.046.401c.858.298 1.693.62 2.505.969.7.3 1.376.577 2.031.833.118.045.177.133.177.262v2.311c0 .105-.047.136-.14.094-.96-.437-1.914-.88-2.862-1.33a.18.18 0 0 1 .022-.085c.34-.44.727-.962 1.161-1.568.061-.085.065-.133.01-.143a.095.095 0 0 0-.072.032c-.246.258-.51.57-.791.936-.17.22-.34.409-.509.566a.09.09 0 0 0-.03.073.122.122 0 0 1-.028.086c-.343-.174-.734-.35-1.172-.527a6.933 6.933 0 0 0-2.953-.49 15.964 15.964 0 0 0-4.033.47 7781.789 7781.789 0 0 0-17.808 4.403c-.024.005-.036-.004-.036-.03-.003-.761-.001-1.517.005-2.267 0-.045.022-.073.065-.083a23362.435 23362.435 0 0 1 16.422-4.16 20.981 20.981 0 0 1 2.302-.55c.947-.177 1.91-.26 2.889-.247ZM38.17 35.395a.023.023 0 0 0-.013-.011.023.023 0 0 0-.017.001l-.081.043a.022.022 0 0 0-.011.013.023.023 0 0 0 0 .017l.85 1.69c.002.006.007.01.012.012a.023.023 0 0 0 .018-.002l.081-.042a.023.023 0 0 0 .011-.014.024.024 0 0 0-.001-.017l-.849-1.69ZM58.086 33.308c.02.001.04 0 .06-.004a484.95 484.95 0 0 1 8.58 5.194c.052.031.057.06.016.087a.12.12 0 0 1-.081-.006 3771.924 3771.924 0 0 0-8.501-3.707.064.064 0 0 1-.04-.062c-.01-.506-.022-1.007-.034-1.502Z"/><path fill="#6E708C" d="M56.316 34.326c.054.01.051.058-.01.143a52.97 52.97 0 0 1-1.161 1.568.18.18 0 0 0-.022.085 1.005 1.005 0 0 1-.237-.103.122.122 0 0 0 .028-.086.09.09 0 0 1 .03-.073c.17-.157.34-.346.508-.566.282-.366.546-.678.792-.936a.095.095 0 0 1 .072-.032ZM38.14 35.385l-.081.043a.023.023 0 0 0-.01.03l.848 1.69c.006.012.02.016.03.01l.082-.042a.023.023 0 0 0 .01-.031l-.849-1.69a.022.022 0 0 0-.03-.01ZM58.15 37.534c.27.108.588.245.952.413 2.541 1.178 5.086 2.348 7.635 3.51.096.045.157.1.184.169.033.11-.004.149-.111.116-2.858-.853-5.738-1.707-8.642-2.56-.05-.026-.072-.061-.068-.107.002-.52.005-1.024.009-1.513 0-.03.013-.039.04-.028ZM51.538 37.578c.591.03 1.138.105 1.642.224a.36.36 0 0 0 .073.135c.02.021.02.044.004.068a85.95 85.95 0 0 1-1.584 2c-.664.816-1.406 1.732-2.226 2.749a.16.16 0 0 0-.031.157c.008.027-.004.046-.037.057-6.81.004-13.627.005-20.452.003-.029 0-.043-.014-.043-.044V41.01c0-.052.025-.082.074-.09a3231.29 3231.29 0 0 0 18.05-3.05 20.562 20.562 0 0 1 4.53-.29Z"/><path fill="#6E708C" d="M53.18 37.802c.189.033.376.076.561.129 1.503.44 2.943.843 4.32 1.21.008.003.021-.02.04-.066-.005.046.017.081.067.107-.03-.004-.044.034-.043.113a92.653 92.653 0 0 1-.016 3.605c0 .048-.024.071-.071.071-2.908.002-5.794 0-8.66-.003.034-.011.046-.03.038-.057a.16.16 0 0 1 .031-.157c.82-1.017 1.562-1.933 2.226-2.749a85.95 85.95 0 0 0 1.584-2c.017-.024.016-.047-.004-.068a.36.36 0 0 1-.073-.135ZM97.058 38.926a.755.755 0 0 1 .324.375c.137.278.144.568.022.87-.091.223-.264.393-.52.512-.058.03-.056.055.007.074.328.094.544.29.648.585.158.409.106.774-.157 1.096-.355.415-.842.6-1.463.555a2.176 2.176 0 0 1-1.267-.525c-.051-.046-.055-.096-.013-.15a5.36 5.36 0 0 1 .343-.385c.04-.04.08-.04.121-.002.316.312.667.446 1.053.402.291-.033.491-.16.6-.38.12-.229.107-.435-.04-.618a.568.568 0 0 0-.344-.213 2.821 2.821 0 0 0-.67-.044c-.032.002-.052-.015-.056-.048a3.266 3.266 0 0 1-.03-.524c.002-.048.026-.07.073-.068.27.015.506-.014.705-.086a.474.474 0 0 0 .308-.331.495.495 0 0 0-.162-.566c-.18-.145-.402-.198-.664-.16a1.169 1.169 0 0 0-.627.3c-.051.049-.101.048-.15-.002l-.292-.297c-.073-.075-.069-.145.013-.21.322-.245.674-.38 1.056-.407.455-.04.849.042 1.182.247ZM72.103 38.772a364.25 364.25 0 0 1 3.225-.005c.02 0 .031.01.031.032v4.017c0 .06-.029.089-.086.09-.232.002-.432 0-.6-.005-.029 0-.043-.016-.042-.045.014-1.129.01-2.263-.01-3.401-.001-.03-.016-.045-.044-.045a58.72 58.72 0 0 0-1.73 0c-.039.001-.058.02-.058.06a69.714 69.714 0 0 0 0 3.26c.004.166-.049.224-.159.174a.185.185 0 0 0-.084-.011 3.504 3.504 0 0 1-.405.012c-.044 0-.065-.024-.065-.068.009-1.375.003-2.715-.015-4.02 0-.03.013-.045.042-.045ZM80.445 38.767h2.679c.05 0 .075.025.075.077v3.971c0 .08-.038.11-.114.094-.124-.028-.317-.029-.578-.003-.054.006-.08-.02-.08-.075.021-1.12.025-2.245.01-3.376 0-.03-.014-.045-.043-.045a55.201 55.201 0 0 0-1.227-.005c-.058 0-.086.03-.085.088-.006.468-.013.878-.021 1.233a4.337 4.337 0 0 1-.334 1.627.983.983 0 0 1-.876.574 2.753 2.753 0 0 1-.513-.027c-.048-.006-.071-.035-.068-.084.01-.198.025-.38.042-.546.005-.043.028-.062.07-.056.31.051.53-.021.658-.216.167-.287.263-.615.286-.986.054-.838.078-1.57.071-2.195-.001-.033.015-.05.048-.05ZM89.327 38.772a.09.09 0 0 1 .08.058 602.31 602.31 0 0 1 1.696 4.01c.017.04.004.06-.039.06-.252 0-.498-.005-.739-.015a.07.07 0 0 1-.063-.04 7.65 7.65 0 0 1-.227-.488.063.063 0 0 0-.06-.042 68.058 68.058 0 0 0-1.869.001.068.068 0 0 0-.064.039 3.55 3.55 0 0 0-.223.493.068.068 0 0 1-.058.046 6.032 6.032 0 0 1-.724.008c-.05-.001-.065-.026-.045-.072a1603.59 1603.59 0 0 1 1.702-3.995.077.077 0 0 1 .06-.049c.145-.027.336-.031.573-.014Zm-.324 1.046c-.22.553-.448 1.143-.68 1.772-.016.04-.002.06.04.06h1.321c.036 0 .047-.016.034-.05a131.41 131.41 0 0 1-.632-1.78c-.026-.075-.054-.076-.083-.002ZM103.472 38.77a.224.224 0 0 1 .205.146 321.97 321.97 0 0 1 1.669 3.95c.005.012.001.017-.011.017h-.74a.116.116 0 0 1-.115-.076c-.063-.151-.131-.302-.201-.452-.014-.03-.036-.044-.068-.044-.661-.003-1.292-.001-1.894.005-.029 0-.049.014-.06.042-.068.168-.137.33-.208.486a.076.076 0 0 1-.062.045c-.214.03-.46.03-.739 0-.024-.003-.031-.015-.022-.037.594-1.43 1.167-2.769 1.721-4.017a.086.086 0 0 1 .06-.051c.088-.024.243-.03.465-.014Zm-.214 1.021c-.23.56-.461 1.17-.694 1.829-.011.032 0 .048.034.046.403-.018.827-.023 1.273-.014.067 0 .088-.03.065-.095-.23-.64-.437-1.228-.619-1.764-.018-.053-.038-.053-.059-.002ZM28.887 40.002c.036.349.035.647-.002.895-.004.03-.02.046-.049.051-1.769.32-3.554.625-5.356.917-1.14.185-2.272.377-3.398.576-.071.013-.096-.016-.074-.086a.7.7 0 0 1 .15-.255.174.174 0 0 1 .087-.053c2.812-.712 5.65-1.424 8.515-2.136.077-.019.12.011.127.091Z"/></svg>