<svg xmlns="http://www.w3.org/2000/svg" width="176" height="48" fill="none"><path fill="#6E708C" d="M74.484 18.198c.062.42-.044 1.079-.32 1.978-.04.124-.115.154-.229.09-1.153-.68-2.375-.988-3.667-.926-.78.037-1.239.26-1.375.67-.213.59-.012.954.604 1.091 1.384.266 2.618.747 3.702 1.442.68.435 1.035 1.03 1.063 1.785.08.894-.1 1.662-.542 2.301-.556.858-1.417 1.41-2.584 1.655-1.873.395-3.66.158-5.362-.709-.296-.144-.425-.38-.386-.708.08-.629.172-1.188.278-1.679.047-.216.16-.258.34-.127.843.591 1.808.97 2.894 1.138.84.129 1.55.071 2.128-.172.575-.254.844-.564.81-.928-.017-.544-.291-.882-.824-1.015-1.396-.273-2.65-.772-3.764-1.497-.813-.532-1.11-1.356-.89-2.473.21-1.39 1.02-2.278 2.432-2.666 2.086-.573 3.924-.408 5.515.495.1.058.158.142.177.255ZM108.184 20.19c.333-.05.473.088.42.416a47.41 47.41 0 0 0-.226 1.596c-.032.255-.176.361-.43.32-.695-.103-1.31.005-1.844.323-.727.431-1.077 1.005-1.049 1.72.004.115-.005.229-.028.34a28.085 28.085 0 0 0-.465 2.994c-.019.17-.114.26-.285.271-.989.07-1.642.059-1.959-.03-.111-.033-.158-.106-.142-.22.343-2.45.744-4.888 1.205-7.314.021-.113.089-.173.205-.182.539-.035 1.118-.046 1.736-.035a.435.435 0 0 1 .299.12c.081.076.093.283.035.62-.021.112.016.135.111.069.768-.542 1.574-.878 2.417-1.008ZM91.39 20.675c.766.614 1.076 1.488.93 2.621a94.354 94.354 0 0 1-.73 4.754c-.02.113-.087.158-.2.138-.16-.032-.429-.029-.806.01-.512.053-.89.041-1.136-.034-.111-.035-.156-.108-.135-.22.324-1.718.514-3.267.57-4.648a.738.738 0 0 0-.063-.33c-.243-.546-.777-.7-1.601-.465-.757.237-1.184.73-1.282 1.483a62.542 62.542 0 0 1-.608 3.784c-.039.261-.192.4-.458.416-.757.046-1.35.048-1.778.007-.116-.01-.166-.071-.15-.186.31-2.26.663-4.52 1.056-6.776a1.031 1.031 0 0 0 0-.338c-.071-.435.312-.585 1.15-.45.354.057.704.04 1.049-.052.264-.07.367.088.309.478-.019.115.02.138.114.07 1.063-.78 2.22-.925 3.473-.434.109.041.207.098.295.172ZM98.484 20.286c.797.1 1.484.452 2.063 1.053.771.862.986 2.042.646 3.54-.018.091-.075.137-.17.137h-5.067c-.204 0-.274.096-.212.289.13.447.465.752 1.004.915 1.192.36 2.378.249 3.556-.334.104-.05.164-.018.181.097.074.506 0 1.04-.223 1.603a.535.535 0 0 1-.205.258c-.636.346-1.479.521-2.528.526-1.24.005-2.29-.39-3.146-1.183a3.042 3.042 0 0 1-.76-1.304c-.478-1.436-.24-2.778.715-4.028.995-1.269 2.378-1.791 4.146-1.569Zm-.066 1.957c-.8-.318-1.567-.087-2.299.695-.32.335-.246.508.22.52.573.016 1.39.02 2.448.01.28-.002.376-.135.288-.399-.116-.422-.335-.697-.657-.826ZM113.331 20.286c.611.055 1.19.298 1.736.73.234.192.34.138.319-.162-.018-.246.071-.384.268-.417.393-.068 1.002-.088 1.827-.058.208.007.297.112.267.316-.37 1.959-.685 3.944-.945 5.955-.185 1.433-.67 2.558-1.455 3.375-.632.587-1.471.988-2.518 1.204-1.375.243-2.66.131-3.854-.334a.517.517 0 0 1-.344-.533c.023-.668.101-1.185.233-1.552.039-.107.109-.134.211-.079.917.51 1.988.704 3.213.585.958-.092 1.617-.557 1.976-1.397.136-.305.155-.486.055-.543-.081-.083-.162-.084-.243-.004-.224.248-.567.43-1.028.547-1.194.305-2.222.133-3.084-.516a2.982 2.982 0 0 1-1.149-1.785c-.389-1.635-.013-3.04 1.129-4.214.861-.885 1.989-1.258 3.386-1.118Zm1.149 2.473c-.583-.53-1.307-.63-2.17-.302-.94.357-1.324 1.096-1.15 2.215.109.81.592 1.246 1.448 1.31.449.037.87-.055 1.261-.278.678-.385.998-.952.958-1.7-.034-.674-.15-1.089-.347-1.245ZM75.546 20.44c.753-.05 1.388-.044 1.907.018a.237.237 0 0 1 .219.186c.405 1.415.794 2.832 1.167 4.252.067.266.164.277.291.034a473.992 473.992 0 0 1 2.32-4.341c.056-.101.14-.163.254-.186.414-.083 1.117-.052 2.108.093.1.014.125.065.076.155a734.712 734.712 0 0 1-4.223 7.482c-.338.594-.699 1.153-1.083 1.678-.468.686-1.12 1.159-1.956 1.418-.919.286-1.707.244-2.365-.128a.293.293 0 0 1-.16-.258c-.01-.282.067-.82.233-1.616.044-.216.16-.264.348-.145.303.234.655.312 1.055.234.739-.142 1.296-.594 1.67-1.355a.27.27 0 0 0 .022-.224c-.723-2.35-1.438-4.655-2.147-6.914-.076-.239.012-.366.264-.382ZM118.807 20.475c.956-.135 1.687-.145 2.191-.03a.233.233 0 0 1 .185.175c.451 1.591.867 3.062 1.246 4.413.06.209.137.215.229.017a64.448 64.448 0 0 1 2.306-4.444.332.332 0 0 1 .261-.169c.59-.068 1.27-.083 2.038-.044.179.009.226.09.143.244a250.114 250.114 0 0 0-4.418 7.84c-.47.871-1.033 1.603-1.691 2.194-.995.736-2.125.905-3.389.506-.243-.069-.341-.226-.292-.471.081-.427.159-.921.233-1.483.027-.222.14-.277.337-.165.486.264.922.321 1.309.172.678-.264 1.146-.67 1.403-1.221a.437.437 0 0 0 .024-.32 270.864 270.864 0 0 0-2.191-7.09c-.023-.071.002-.112.076-.124ZM66.034 3h.087c.047 2.346.177 4.704.393 7.073.145 1.628-.289 3.047-1.303 4.258-.615.794-1.354 1.38-2.215 1.762a.643.643 0 0 0-.358.505c-.137 1.376-.841 2.57-2.115 3.581-1.364 1.083-3.088 1.607-5.174 1.572a.378.378 0 0 0-.34.19 7.803 7.803 0 0 0-.716 1.54.61.61 0 0 1-.142-.106c-.065-.096-.123-.093-.174.01-.058.122-.131.12-.219-.003.111-.495.296-.974.556-1.434.078-.138.038-.216-.122-.234-2.456-.294-4.518.47-6.185 2.294-.185.204-.184.406.004.605 2.542 2.72 5.099 5.516 7.671 8.387-.114.25-.282.312-.507.186A1530.11 1530.11 0 0 1 47 24.479v-.258C53.323 17.19 59.668 10.116 66.034 3Zm-1.128 10.685c.84-1.2 1.123-2.755.847-4.665-.206-1.569-.299-2.964-.278-4.186-.007-.253-.092-.283-.257-.09a140.293 140.293 0 0 1-3.493 3.946.873.873 0 0 0-.195.939c.435.956.794 1.964 1.077 3.024.252.954.318 1.842.198 2.666-.007.144.052.178.177.103.796-.463 1.438-1.043 1.924-1.737Zm-11.502 4.344c-.093.101-.23.21-.413.327-.142.179-.106.227.107.145a41.677 41.677 0 0 1 5.536-1.397c1.252-.23 2.381-.611 3.386-1.145a.3.3 0 0 0 .17-.252c.16-1.545-.093-3.065-.757-4.558a5.013 5.013 0 0 1-.368-1.183c-.028-.303-.144-.342-.347-.117a496.137 496.137 0 0 1-7.314 8.18Z"/><path fill="#6E708C" d="M54.15 23.375a.61.61 0 0 0 .143.107c-.093.264-.086.395.02.395 2.534-.032 4.603.87 6.21 2.708.898 1.057 1.337 2.313 1.316 3.766.017.365.162.669.438.912 1.299 1.133 2.11 2.376 2.434 3.729a61.28 61.28 0 0 1 .434 3.956c.181 2.259.898 4.416 2.15 6.47a.762.762 0 0 1 .087.582h-.174a675.77 675.77 0 0 1-12.033-12.814c.225.126.394.064.507-.186.236.193.287.176.153-.051-1.452-2.452-2.226-5.01-2.324-7.675a6.643 6.643 0 0 1 .247-1.892c.088.124.161.125.219.003.05-.103.109-.106.174-.01Zm4.852 2.652c-1.424-1.057-2.925-1.567-4.504-1.53-.204.006-.294.11-.271.31.04 1.128.444 2.022 1.215 2.682 1.575 1.344 3.444 2.302 5.609 2.873.111.034.164-.006.16-.12-.081-1.78-.817-3.185-2.209-4.215ZM94.41 30.18c.336.002.455.162.355.481-.1.319-.161.796-.184 1.431-.007.179-.102.266-.285.261-.852-.027-1.713-.036-2.584-.027-.405.005-.64.205-.705.602a919.39 919.39 0 0 0-1.285 7.964c-.023.142-.107.21-.253.206-.854-.025-1.488-.008-1.9.052-.194.027-.276-.054-.246-.245.414-2.697.848-5.405 1.302-8.125.049-.291-.076-.431-.375-.42-.894.037-1.798.034-2.712-.01-.144-.005-.211-.078-.202-.22.074-.97.189-1.555.344-1.755a.363.363 0 0 1 .281-.14c2.598-.062 5.415-.08 8.45-.056ZM129.722 30.259c.114.016.161.079.143.189a733.03 733.03 0 0 0-1.341 8.328c-.042.27.075.407.351.41.183 0 .378-.03.587-.087.113-.03.166.013.159.128-.023.442-.064.86-.125 1.255-.055.358-.26.58-.614.664-.91.218-1.636.123-2.178-.285-.495-.377-.699-.87-.611-1.483.44-3.036.915-6.026 1.424-8.968.021-.113.089-.173.205-.182a9.69 9.69 0 0 1 2 .03ZM99.332 33.09c.428-.076.609.1.541.526a67.315 67.315 0 0 1-.26 1.548c-.025.138-.109.198-.25.182-.926-.105-1.702.07-2.327.523a1.386 1.386 0 0 0-.566.895 90.516 90.516 0 0 0-.674 4.055.231.231 0 0 1-.194.21c-.718.163-1.387.152-2.007-.034-.111-.032-.159-.104-.143-.217.36-2.41.747-4.834 1.164-7.272.018-.112.085-.173.201-.182.336-.021.893-.038 1.67-.052.408-.007.554.175.438.547-.055.202.005.245.18.13a5.967 5.967 0 0 1 2.227-.86ZM104.562 33.1c1.373.016 2.321.51 2.844 1.483.375.7.418 1.444.128 2.236-.143.539-.237 1.191-.281 1.957-.055.475.16.625.646.45.169-.073.245-.019.229.162-.044.486-.088.849-.132 1.087-.069.397-.306.62-.712.671-1.113.14-1.845-.057-2.194-.592-.063-.096-.142-.11-.237-.044-.993.697-2.074.922-3.243.674-.97-.206-1.585-.744-1.844-1.613-.271-.902-.184-1.632.26-2.192.493-.715 1.195-1.138 2.105-1.269a6.234 6.234 0 0 1 2.962.285c.109.04.195.01.257-.086.097-.155.027-.406-.212-.753a1.068 1.068 0 0 0-.837-.478c-1.12-.083-2.13.034-3.028.35-.109.04-.162.002-.16-.113.005-.621.099-1.155.282-1.603a.37.37 0 0 1 .225-.223c.818-.317 1.798-.446 2.942-.389Zm.062 4.71c-.616-.308-1.295-.323-2.038-.045-.431.163-.638.426-.622.79-.021.432.182.693.608.785.91.2 1.66.012 2.25-.564.433-.424.367-.747-.198-.967ZM122.426 33.12c1.35.223 2.218.968 2.604 2.237.262.802.277 1.564.046 2.284a.245.245 0 0 1-.219.192c-.686.035-1.489.034-2.41-.003-.801-.032-1.596 0-2.383.096-.565.014-.647.218-.246.613.537.465 1.24.688 2.108.667a5.244 5.244 0 0 0 2.25-.547c.137-.08.197-.041.181.117-.047.433-.115.924-.205 1.472a.64.64 0 0 1-.372.5c-.829.423-1.765.598-2.809.522-1.802-.099-2.981-.937-3.539-2.515-.519-1.465-.258-2.827.781-4.086 1.005-1.328 2.409-1.844 4.213-1.548Zm-.132 2.023c-1.1-.43-1.937-.134-2.511.891-.093.165-.044.248.146.248h2.782c.115 0 .172-.057.17-.172.004-.49-.191-.813-.587-.967ZM109.056 33.272h1.93c.114 0 .184.054.212.162.401 1.433.776 2.867 1.125 4.303.058.243.15.256.275.038.683-1.204 1.475-2.595 2.375-4.173a.616.616 0 0 1 .573-.33h1.865c.169 0 .211.072.125.217a585.943 585.943 0 0 1-4.383 7.354.662.662 0 0 1-.604.341h-1.389c-.153 0-.249-.072-.288-.217-.683-2.456-1.368-4.918-2.056-7.385-.056-.207.024-.31.24-.31Z"/></svg>