<svg xmlns="http://www.w3.org/2000/svg" width="176" height="48" fill="none"><path fill="#6E708C" d="M11 15v18h17.36V15H11Zm14.88 15.429h-12.4V17.57h12.4V30.43Z"/><path fill="#6E708C" d="M21.683 25.802 19.886 24l1.797-1.753v-3.555L16.34 24l5.342 5.308v-3.506Z"/><path fill="#6E708C" fill-rule="evenodd" d="M38.446 25.902a1.818 1.818 0 0 0-.711-.456l-.004-.002-.004-.001a8.869 8.869 0 0 0-1.128-.356l-.005-.001a13.89 13.89 0 0 1-1.348-.428 6.88 6.88 0 0 1-1.273-.625l-.002-.001a3.012 3.012 0 0 1-1.02-1.128v-.002c-.268-.5-.392-1.082-.392-1.729 0-1.028.398-1.899 1.173-2.582.782-.695 1.82-1.02 3.06-1.02.465 0 .914.059 1.345.178.418.108.781.244 1.08.413.275.147.52.3.733.46.206.147.38.29.504.429l.008.009.38.48-1.736 1.764-.311-.314a3.122 3.122 0 0 1-.115-.124l-.017-.02-.009-.013a2.3 2.3 0 0 0-.181-.15l-.007-.005-.008-.006a2.257 2.257 0 0 0-.384-.252l-.008-.004-.007-.004a2.281 2.281 0 0 0-.54-.2h-.001a2.796 2.796 0 0 0-.726-.092c-.522 0-.897.13-1.165.348-.277.23-.379.46-.379.705 0 .255.077.445.221.6.174.188.405.346.707.466.342.128.722.248 1.143.358.45.112.899.252 1.347.42.462.166.885.372 1.269.618.43.272.773.657 1.03 1.138.266.5.39 1.079.39 1.72 0 1.15-.414 2.112-1.244 2.85-.833.742-1.958 1.086-3.319 1.086-.56 0-1.1-.067-1.616-.201l-.006-.002c-.495-.136-.92-.3-1.267-.496l-.005-.003a7.275 7.275 0 0 1-.849-.57 4.096 4.096 0 0 1-.552-.506l-.006-.006-.411-.519 1.807-1.822.297.448c.013.02.037.055.077.108.041.043.134.131.293.272.16.132.332.25.516.356a3.73 3.73 0 0 0 1.722.4c.645 0 1.097-.158 1.41-.424.32-.273.464-.588.464-.97a.807.807 0 0 0-.217-.589l-.003-.003Zm-2.758 2.29a4.137 4.137 0 0 1-.83-.317 4.065 4.065 0 0 1-.588-.406l-.158-.142a3.118 3.118 0 0 1-.188-.183 3.632 3.632 0 0 1-.105-.147l-1.152 1.162.161.203c.102.12.266.268.492.447.225.179.491.357.797.536.306.173.696.325 1.169.455.478.124.98.187 1.506.187 1.29 0 2.299-.325 3.03-.975.73-.65 1.095-1.49 1.095-2.518 0-.585-.113-1.089-.338-1.511a2.533 2.533 0 0 0-.878-.975 5.882 5.882 0 0 0-1.185-.577c-.435-.162-.87-.297-1.305-.406a12.075 12.075 0 0 1-1.192-.373 2.34 2.34 0 0 1-.87-.577 1.277 1.277 0 0 1-.339-.902c0-.4.18-.75.54-1.048.365-.298.846-.447 1.442-.447.296 0 .575.036.838.106.269.07.483.152.645.244.166.086.32.187.459.3l.094.073c.091.073.151.13.18.171.043.049.075.084.096.106l1.153-1.17-.13-.163a2.64 2.64 0 0 0-.434-.365 5.228 5.228 0 0 0-.685-.43 4.076 4.076 0 0 0-.983-.374 4.608 4.608 0 0 0-1.233-.163c-1.165 0-2.09.303-2.771.91-.682.601-1.023 1.351-1.023 2.25 0 .59.112 1.097.338 1.52.226.416.516.738.87.966.36.227.757.422 1.192.585.435.162.87.3 1.306.414.435.108.83.233 1.184.374.36.135.653.325.878.568.226.238.338.536.338.894 0 .52-.206.956-.62 1.308-.413.352-.977.528-1.692.528-.386 0-.755-.046-1.104-.138Zm8.28-10.458 2.879 5.118 2.879-5.118h2.99l-4.529 8.048v4.484h-2.689v-4.484l-4.519-8.048h2.99Zm1.968 7.931v4.16h1.813v-4.16l4.214-7.49H49.98l-3.134 5.573-3.134-5.572H41.73l4.206 7.49Zm15.57-7.931h2.69v12.532H61.98l-5.784-7.547v7.547h-2.69V17.734h2.217l5.784 7.554v-7.554Zm.44 8.85-6.438-8.408h-1.563v11.648h1.813v-8.399l6.437 8.4h1.563v-11.65h-1.813v8.408Zm13.884 1.133v2.55h-9.207V17.733h9.046v2.549h-6.357v2.195h5.035v2.549h-5.035v2.69h6.518Zm-6.956.442v-3.574h5.035V22.92h-5.035v-3.08h6.357v-1.664h-8.17v11.648h8.33V28.16h-6.517Zm8.56 2.107V17.734h5.305c1.172 0 2.17.38 2.964 1.156.791.773 1.189 1.74 1.189 2.868 0 .528-.09 1.03-.272 1.5v.003c-.176.447-.396.826-.671 1.117a6.9 6.9 0 0 1-.723.668c-.16.127-.317.236-.468.321l2.782 4.9h-2.996l-2.474-4.493h-1.946v4.492h-2.69Zm2.252-4.934h2.642l2.474 4.492h1.982L84.14 25.17l.234-.106c.052-.02.107-.048.165-.08.124-.07.262-.164.415-.285a6.47 6.47 0 0 0 .677-.626c.225-.238.419-.563.58-.975.16-.417.241-.863.241-1.34 0-1.013-.351-1.863-1.055-2.55-.704-.688-1.59-1.032-2.659-1.032h-4.866v11.648h1.813v-4.492Zm4.089-4.626-.002-.003c-.274-.28-.608-.42-1.034-.42h-2.615v2.942h2.615c.428 0 .763-.14 1.036-.415.28-.281.42-.622.42-1.052 0-.436-.141-.775-.418-1.05l-.002-.002Zm-4.09 2.961v-3.826h3.054c.537 0 .986.184 1.346.552.365.363.548.818.548 1.365 0 .542-.183.996-.548 1.365-.36.362-.809.544-1.346.544h-3.053Zm15.652-.442h4.921v4.756l-.096.121a6.96 6.96 0 0 1-.217.254c-.115.13-.342.327-.647.577a6.634 6.634 0 0 1-1.062.705l-.002.001c-.388.204-.883.385-1.474.547h-.003a7.294 7.294 0 0 1-1.884.243c-1.838 0-3.4-.62-4.658-1.865C88.96 27.32 88.327 25.79 88.327 24s.632-3.32 1.888-4.564c1.258-1.244 2.82-1.865 4.658-1.865.624 0 1.226.084 1.804.253.563.159 1.047.36 1.441.61.367.23.691.46.972.691.272.225.494.435.646.628l.001.002.417.534-1.783 1.81-.304-.409a3.406 3.406 0 0 0-.127-.156l-.01-.013-.01-.014a3.829 3.829 0 0 0-.364-.367 3.46 3.46 0 0 0-.63-.47h-.003l-.003-.003a4.076 4.076 0 0 0-.893-.37l-.004-.002h-.003a3.713 3.713 0 0 0-1.147-.175c-1.084 0-1.987.375-2.736 1.13v.001c-.749.75-1.12 1.656-1.12 2.749 0 1.093.369 2.004 1.112 2.758.748.755 1.654 1.13 2.744 1.13.368 0 .716-.035 1.044-.104.342-.076.602-.163.79-.256.218-.112.404-.22.558-.322.162-.11.257-.184.303-.23v-1.202h-2.231v-2.549Zm2.67 2.107v1.828l-.121.122a2.655 2.655 0 0 1-.379.292c-.172.114-.373.23-.604.35a4.04 4.04 0 0 1-.894.292c-.36.076-.739.114-1.136.114-1.204 0-2.221-.42-3.054-1.26-.827-.839-1.24-1.862-1.24-3.07 0-1.208.416-2.229 1.248-3.062.833-.84 1.848-1.26 3.046-1.26.45 0 .878.066 1.28.195a4.5 4.5 0 0 1 .992.415c.252.146.488.322.709.528.115.107.208.198.279.271.065.067.111.12.14.16.064.075.112.135.145.178l1.152-1.17-.178-.227a3.935 3.935 0 0 0-.58-.56 8.879 8.879 0 0 0-.926-.659c-.35-.222-.792-.409-1.33-.56a5.971 5.971 0 0 0-1.683-.236c-1.73 0-3.18.58-4.35 1.739-1.172 1.159-1.757 2.575-1.757 4.248s.585 3.09 1.756 4.248c1.171 1.16 2.621 1.739 4.35 1.739.613 0 1.204-.076 1.773-.228.575-.157 1.037-.327 1.386-.511.354-.19.685-.41.99-.658.312-.255.511-.43.597-.528.091-.103.159-.182.202-.236v-4.159h-4.045v1.665h2.232Zm5.355-7.598 2.879 5.118 2.878-5.118h2.99l-4.528 8.048v4.484h-2.689v-4.484l-4.519-8.048h2.989Zm1.968 7.931v4.16h1.813v-4.16l4.214-7.49h-1.982l-3.134 5.573-3.134-5.572h-1.982l4.205 7.49Zm12.799.24-.003-.003a1.812 1.812 0 0 0-.711-.456l-.004-.002-.003-.001a8.913 8.913 0 0 0-1.129-.356l-.005-.001c-.45-.118-.899-.26-1.347-.428a6.853 6.853 0 0 1-1.273-.625l-.003-.001a3.008 3.008 0 0 1-1.019-1.128l-.002-.002c-.267-.5-.39-1.082-.39-1.729 0-1.028.397-1.899 1.172-2.582.783-.695 1.82-1.02 3.061-1.02.465 0 .914.059 1.345.178.417.108.781.244 1.08.413.275.147.52.3.732.46.207.147.381.29.505.429l.008.009.38.48-1.737 1.764-.311-.314a2.683 2.683 0 0 1-.114-.124l-.017-.02-.009-.013a2.304 2.304 0 0 0-.182-.15l-.007-.005-.007-.006a2.286 2.286 0 0 0-.385-.252l-.008-.004-.007-.004a2.287 2.287 0 0 0-.539-.2h-.002a2.793 2.793 0 0 0-.725-.092c-.523 0-.897.13-1.166.348-.277.23-.378.46-.378.705 0 .255.076.445.22.6.174.188.406.346.707.466.342.128.723.248 1.143.358.45.112.899.252 1.348.42.461.166.885.372 1.268.618.431.273.773.657 1.03 1.138.267.5.391 1.079.391 1.72 0 1.15-.414 2.112-1.244 2.85-.834.742-1.959 1.086-3.319 1.086a6.391 6.391 0 0 1-1.617-.201l-.005-.002a5.612 5.612 0 0 1-1.268-.496l-.005-.003a7.279 7.279 0 0 1-.849-.57 4.147 4.147 0 0 1-.552-.506l-.005-.006-.412-.519 1.808-1.822.296.448c.013.02.038.055.077.108.042.043.135.131.294.272.16.132.331.25.515.356a3.74 3.74 0 0 0 1.723.4c.644 0 1.097-.158 1.409-.424.32-.273.465-.588.465-.97a.806.806 0 0 0-.218-.589Zm-2.76 2.287a4.12 4.12 0 0 1-.83-.317 3.999 3.999 0 0 1-.588-.406l-.158-.142a3.3 3.3 0 0 1-.189-.183 3.277 3.277 0 0 1-.104-.147l-1.152 1.162.161.203c.102.12.266.268.491.447.226.179.492.357.798.536.306.173.695.325 1.168.455.478.124.98.187 1.507.187 1.289 0 2.298-.325 3.029-.975.73-.65 1.096-1.49 1.096-2.518 0-.585-.113-1.089-.339-1.511a2.527 2.527 0 0 0-.878-.975 5.87 5.87 0 0 0-1.184-.577 12.04 12.04 0 0 0-1.305-.406 12.013 12.013 0 0 1-1.193-.373 2.347 2.347 0 0 1-.87-.577 1.275 1.275 0 0 1-.338-.902c0-.4.18-.75.539-1.048.366-.298.846-.447 1.443-.447.295 0 .574.036.837.106.269.07.484.152.645.244.167.086.32.187.459.3l.094.073c.092.073.151.13.18.171.043.049.075.084.097.106l1.152-1.17-.129-.163a2.614 2.614 0 0 0-.435-.365 5.21 5.21 0 0 0-.685-.43 4.071 4.071 0 0 0-.983-.374 4.608 4.608 0 0 0-1.232-.163c-1.166 0-2.09.303-2.772.91-.682.601-1.023 1.351-1.023 2.25 0 .59.113 1.097.338 1.52.226.416.516.738.87.966.36.227.758.422 1.193.585.435.162.87.3 1.305.414.435.108.83.233 1.184.374.36.135.653.325.878.568.226.238.339.536.339.894 0 .52-.207.956-.621 1.308-.413.352-.977.528-1.691.528-.387 0-.755-.046-1.104-.138Zm5.604-10.458h9.618v2.549h-3.464v9.983h-2.69v-9.983h-3.464v-2.55Zm3.903 2.107v9.983h1.812v-9.983h3.465v-1.665h-8.742v1.665h3.465Zm14.779 6.918h.001c.749-.756 1.12-1.666 1.12-2.759s-.371-2-1.119-2.749l-.002-.002c-.743-.754-1.645-1.129-2.735-1.129-1.083 0-1.986.375-2.735 1.13-.743.749-1.113 1.656-1.113 2.75 0 1.093.37 2.004 1.113 2.758.749.755 1.652 1.13 2.735 1.13 1.09 0 1.992-.375 2.735-1.129Zm-7.384 1.805c-1.256-1.243-1.888-2.774-1.888-4.564s.632-3.32 1.888-4.564c1.257-1.244 2.817-1.865 4.649-1.865 1.838 0 3.4.62 4.658 1.865 1.256 1.243 1.888 2.774 1.888 4.564s-.632 3.32-1.888 4.564c-1.258 1.244-2.82 1.865-4.658 1.865-1.832 0-3.392-.62-4.649-1.865Zm12.969 1.702V17.734h5.304c1.172 0 2.171.38 2.964 1.156.791.773 1.189 1.74 1.189 2.868 0 .528-.09 1.03-.272 1.5l-.001.003c-.175.447-.395.826-.67 1.117a7.012 7.012 0 0 1-.723.668 3.673 3.673 0 0 1-.468.321l2.781 4.9h-2.995l-2.474-4.493h-1.946v4.492h-2.689Zm2.251-4.934h2.642l2.474 4.492h1.982l-2.643-4.654.234-.106c.052-.02.107-.048.165-.08.124-.07.262-.164.415-.285.225-.18.451-.388.677-.626.225-.238.418-.563.58-.975.161-.417.241-.863.241-1.34 0-1.013-.351-1.863-1.055-2.55-.704-.688-1.59-1.032-2.659-1.032h-4.866v11.648h1.813v-4.492Zm4.089-4.626-.002-.003c-.274-.28-.608-.42-1.034-.42h-2.615v2.942h2.615c.428 0 .763-.14 1.036-.415.279-.281.419-.622.419-1.052 0-.436-.14-.775-.417-1.05l-.002-.002Zm-4.089 2.961v-3.826h3.053c.537 0 .986.184 1.346.552.365.363.548.818.548 1.365 0 .542-.183.996-.548 1.365-.36.362-.809.544-1.346.544h-3.053ZM166 27.717v2.55h-9.207V17.733h9.046v2.549h-6.357v2.195h5.036v2.549h-5.036v2.69H166Zm-6.956.442v-3.574h5.035V22.92h-5.035v-3.08h6.357v-1.664h-8.17v11.648h8.331V28.16h-6.518ZM132.634 24c0-1.208.414-2.229 1.241-3.062.832-.84 1.848-1.26 3.045-1.26 1.203 0 2.219.42 3.046 1.26.832.834 1.249 1.854 1.249 3.062 0 1.208-.417 2.231-1.249 3.07-.827.84-1.843 1.26-3.046 1.26-1.197 0-2.213-.42-3.045-1.26-.827-.839-1.241-1.862-1.241-3.07Zm-1.813 0c0 1.673.586 3.09 1.757 4.248 1.171 1.16 2.618 1.739 4.342 1.739 1.73 0 3.18-.58 4.351-1.739 1.171-1.159 1.756-2.575 1.756-4.248s-.585-3.09-1.756-4.248c-1.171-1.16-2.621-1.739-4.351-1.739-1.724 0-3.171.58-4.342 1.739-1.171 1.159-1.757 2.575-1.757 4.248Z" clip-rule="evenodd"/><path fill="#6E708C" d="M45.937 29.824v-4.159l-4.206-7.49h1.982l3.134 5.573 3.134-5.572h1.982l-4.214 7.49v4.158h-1.813ZM34.859 27.875a4.137 4.137 0 0 0 1.933.455c.715 0 1.279-.176 1.692-.528.414-.352.62-.788.62-1.308 0-.358-.112-.655-.338-.894a2.254 2.254 0 0 0-.878-.568 9.306 9.306 0 0 0-1.184-.374c-.435-.114-.87-.252-1.306-.414a6.442 6.442 0 0 1-1.192-.585 2.572 2.572 0 0 1-.87-.967c-.226-.422-.338-.929-.338-1.519 0-.899.34-1.649 1.023-2.25.682-.606 1.606-.91 2.771-.91.43 0 .84.054 1.233.163.397.103.725.227.983.373.263.141.491.285.685.43.198.142.343.264.435.366l.129.163-1.153 1.17a2.647 2.647 0 0 1-.096-.106.978.978 0 0 0-.18-.171 3.975 3.975 0 0 0-.094-.073 2.69 2.69 0 0 0-.46-.3 2.699 2.699 0 0 0-.644-.244 3.23 3.23 0 0 0-.838-.105c-.596 0-1.077.148-1.442.446-.36.298-.54.647-.54 1.048 0 .358.113.658.339.902.225.244.515.436.87.577.36.135.757.26 1.192.373.435.109.87.244 1.305.406.435.157.83.35 1.185.577.36.228.652.553.878.975.225.422.338.926.338 1.51 0 1.03-.365 1.87-1.096 2.519-.73.65-1.74.975-3.029.975a5.95 5.95 0 0 1-1.506-.187 5.175 5.175 0 0 1-1.169-.455 6.828 6.828 0 0 1-.797-.536 3.691 3.691 0 0 1-.492-.447l-.16-.203 1.151-1.162c.022.033.057.082.105.147.036.04.099.1.188.183l.158.142c.183.151.38.287.589.406ZM61.945 26.583v-8.407h1.813v11.648h-1.563l-6.437-8.399v8.4h-1.813v-11.65h1.563l6.437 8.408ZM68.874 28.16h6.518v1.664h-8.33V18.176h8.169v1.665h-6.357v3.079h5.035v1.665h-5.035v3.574Z"/><path fill="#6E708C" fill-rule="evenodd" d="m84.802 29.824-2.474-4.492h-2.642v4.492h-1.813V18.176h4.866c1.07 0 1.955.344 2.659 1.031.704.688 1.055 1.538 1.055 2.551 0 .477-.08.923-.241 1.34-.161.412-.355.737-.58.975a6.47 6.47 0 0 1-.677.626 3.196 3.196 0 0 1-.415.285c-.058.032-.113.06-.165.08l-.234.106 2.643 4.654h-1.982Zm-2.063-9.983c.537 0 .986.184 1.346.552.365.363.548.818.548 1.365 0 .542-.183.996-.548 1.365-.36.362-.809.544-1.346.544h-3.053v-3.826h3.053Z" clip-rule="evenodd"/><path fill="#6E708C" d="m97.886 27.282.12-.122v-1.828h-2.231v-1.665h4.044v4.159c-.043.054-.11.133-.201.236-.086.097-.285.273-.596.528-.306.249-.637.468-.991.658-.35.184-.811.354-1.386.511-.57.152-1.16.228-1.772.228-1.73 0-3.18-.58-4.35-1.739-1.172-1.159-1.757-2.575-1.757-4.248s.585-3.09 1.756-4.248c1.171-1.16 2.621-1.739 4.35-1.739.586 0 1.147.079 1.684.236.538.151.98.338 1.33.56.354.222.663.442.926.658.264.217.457.404.58.56l.178.228-1.152 1.17a3.807 3.807 0 0 0-.145-.179 1.658 1.658 0 0 0-.14-.159 7.92 7.92 0 0 0-.28-.271 3.895 3.895 0 0 0-.708-.528 4.5 4.5 0 0 0-.991-.415 4.15 4.15 0 0 0-1.281-.195c-1.198 0-2.213.42-3.046 1.26-.832.834-1.248 1.854-1.248 3.062 0 1.208.413 2.231 1.24 3.07.833.84 1.85 1.26 3.054 1.26.397 0 .776-.038 1.136-.114a4.04 4.04 0 0 0 .894-.293c.23-.119.432-.235.604-.349.177-.119.304-.216.379-.292ZM105.33 29.824v-4.159l-4.205-7.49h1.982l3.134 5.573 3.134-5.572h1.982l-4.214 7.49v4.158h-1.813ZM114.539 27.875c.209.113.486.22.83.317.349.092.717.138 1.104.138.714 0 1.278-.176 1.691-.528.414-.352.621-.788.621-1.308 0-.358-.113-.655-.339-.894a2.248 2.248 0 0 0-.878-.568 9.275 9.275 0 0 0-1.184-.374c-.435-.114-.87-.252-1.305-.414a6.454 6.454 0 0 1-1.193-.585 2.579 2.579 0 0 1-.87-.967c-.225-.422-.338-.929-.338-1.519 0-.899.341-1.649 1.023-2.25.682-.606 1.606-.91 2.772-.91.429 0 .84.054 1.232.163.398.103.725.227.983.373.263.141.492.285.685.43.199.142.344.264.435.366l.129.163-1.152 1.17a2.261 2.261 0 0 1-.097-.106.962.962 0 0 0-.18-.171 2.687 2.687 0 0 0-.094-.073 2.646 2.646 0 0 0-.459-.3 2.693 2.693 0 0 0-.645-.244 3.225 3.225 0 0 0-.837-.105c-.597 0-1.077.148-1.443.446-.359.298-.539.647-.539 1.048 0 .358.112.658.338.902.226.244.516.436.87.577.36.135.757.26 1.193.373.435.109.87.244 1.305.406.435.157.83.35 1.184.577.36.228.653.553.878.975.226.422.339.926.339 1.51 0 1.03-.366 1.87-1.096 2.519-.731.65-1.74.975-3.029.975a5.95 5.95 0 0 1-1.507-.187 5.166 5.166 0 0 1-1.168-.455 6.895 6.895 0 0 1-.798-.536 3.713 3.713 0 0 1-.491-.447l-.161-.203 1.152-1.162c.021.033.056.082.104.147.036.04.099.1.189.183l.158.142c.182.151.378.287.588.406ZM124.876 19.84h-3.465v-1.664h8.742v1.665h-3.465v9.983h-1.812v-9.983Z"/><path fill="#6E708C" fill-rule="evenodd" d="M132.578 28.248c-1.171-1.159-1.757-2.575-1.757-4.248s.586-3.09 1.757-4.248c1.171-1.16 2.618-1.739 4.342-1.739 1.73 0 3.18.58 4.351 1.739 1.171 1.159 1.756 2.575 1.756 4.248s-.585 3.09-1.756 4.248c-1.171 1.16-2.621 1.739-4.351 1.739-1.724 0-3.171-.58-4.342-1.739Zm.056-4.248c0-1.208.414-2.229 1.241-3.062.832-.84 1.848-1.26 3.045-1.26 1.203 0 2.219.42 3.046 1.26.832.834 1.249 1.854 1.249 3.062 0 1.208-.417 2.231-1.249 3.07-.827.84-1.843 1.26-3.046 1.26-1.197 0-2.213-.42-3.045-1.26-.827-.839-1.241-1.862-1.241-3.07ZM152.607 29.824l-2.474-4.492h-2.642v4.492h-1.813V18.176h4.866c1.069 0 1.955.344 2.659 1.031.704.688 1.055 1.538 1.055 2.551 0 .477-.08.923-.241 1.34-.162.412-.355.737-.58.975a6.572 6.572 0 0 1-.677.626 3.151 3.151 0 0 1-.415.285c-.058.032-.113.06-.165.08l-.234.106 2.643 4.654h-1.982Zm-2.063-9.983c.537 0 .986.184 1.346.552.365.363.548.818.548 1.365 0 .542-.183.996-.548 1.365-.36.362-.809.544-1.346.544h-3.053v-3.826h3.053Z" clip-rule="evenodd"/><path fill="#6E708C" d="M159.044 28.16h6.518v1.664h-8.331V18.176h8.17v1.665h-6.357v3.079h5.035v1.665h-5.035v3.574Z"/></svg>