<svg xmlns="http://www.w3.org/2000/svg" width="176" height="48" fill="none"><path fill="#9EA0B3" d="M42.143 17.166c1.536 0 2.782-1.138 2.782-2.542s-1.245-2.543-2.782-2.543c-1.536 0-2.78 1.139-2.78 2.543 0 1.404 1.244 2.542 2.78 2.542ZM56.114 18.412c.31.039.608.154.892.345a92.306 92.306 0 0 1 4.299 3.012 77.209 77.209 0 0 1 3.21 2.519c.751.63 1.46 1.28 2.128 1.95.46.462.86.948 1.204 1.46.162.246.275.497.34.753.064.245.033.456-.095.635a.728.728 0 0 1-.42.281c-1.982.586-3.936 1.129-5.863 1.627-1.184.307-2.332.585-3.444.836-1.615.359-3.22.656-4.814.892-1.846.265-3.67.443-5.472.535a2.812 2.812 0 0 1-1.014-.123.7.7 0 0 1-.388-.303 1.077 1.077 0 0 1-.17-.522c-.012-.28.005-.578.053-.894.048-.315.068-.604.059-.866a1.836 1.836 0 0 0-.293-1.079c-.186-.283-.464-.474-.833-.57a2.881 2.881 0 0 0-.694-.11 7.952 7.952 0 0 0-1.156.065 26.232 26.232 0 0 0-3.176.601c-1.201.313-2.41.646-3.625 1-.743.217-1.488.427-2.235.63-.663.188-1.32.343-1.975.466a8.362 8.362 0 0 1-1.048.122c-.36.024-.675-.025-.944-.147a.55.55 0 0 1-.315-.41c-.04-.21-.019-.438.064-.683.058-.168.123-.335.196-.498a.263.263 0 0 1 .023-.038c.15-.209.334-.416.55-.623.389-.375.803-.748 1.243-1.12.989-.834 2.025-1.673 3.109-2.519a381.57 381.57 0 0 1 5.873-4.491c.232-.173.495-.245.789-.215.358.037.699.16 1.023.371.566.378 1.106.814 1.62 1.31.341.327.683.654 1.026.98.523.52 1.026.987 1.51 1.399.263.223.531.423.806.6.321.217.641.372.96.465.203.057.406.084.611.08a.813.813 0 0 0 .432-.114c.226-.16.429-.386.607-.675.249-.401.479-.82.691-1.259.31-.642.619-1.284.925-1.928.307-.643.64-1.254.998-1.833.188-.305.396-.59.624-.858a4.01 4.01 0 0 1 .724-.68c.43-.313.89-.438 1.385-.376Z"/><path fill="#6E708C" d="M50.698 8.76a.71.71 0 0 1 .354.103c.121.062.19.165.203.31a1.38 1.38 0 0 1-.112.624c-.107.28-.245.568-.415.867-.354.6-.701 1.2-1.042 1.8a6.147 6.147 0 0 0-.448.966 1.77 1.77 0 0 0-.123.791.597.597 0 0 0 .243.438c.076.061.162.109.259.142.292.089.604.119.936.089a8.051 8.051 0 0 0 1.215-.212c.304-.076.622-.17.955-.281.69-.23 1.386-.493 2.087-.789 1.16-.495 2.32-.992 3.48-1.49.69-.297 1.384-.562 2.081-.794.372-.128.748-.21 1.126-.245a5.18 5.18 0 0 1 2.148.28c.329.12.632.278.908.475.29.206.525.46.708.763.191.31.315.65.37 1.023a4.618 4.618 0 0 1-.087 1.734c-.134.431-.164.845-.09 1.241.063.34.17.676.32 1.006.07.17.138.34.2.513.357.949.573 1.947.65 2.995.035.485.009.923-.078 1.315a.92.92 0 0 1-.288.482.69.69 0 0 1-.526.153 1.754 1.754 0 0 1-.301-.044 3.101 3.101 0 0 1-.755-.326 16.399 16.399 0 0 1-1.683-1.17 230.39 230.39 0 0 0-3.215-2.503 49.514 49.514 0 0 0-1.627-1.192 6.537 6.537 0 0 0-.44-.284 2.492 2.492 0 0 0-1.508-.376 2.854 2.854 0 0 0-1.067.28c-.32.145-.617.32-.892.525-.5.369-.977.798-1.432 1.287-.368.397-.725.802-1.07 1.215-.422.514-.85 1.03-1.281 1.549-.192.23-.39.455-.597.674a4.108 4.108 0 0 1-.752.652c-.15.1-.312.156-.487.17a1.944 1.944 0 0 1-.703-.056 4.022 4.022 0 0 1-1.206-.565 14.353 14.353 0 0 1-1.393-1.081 92.153 92.153 0 0 0-1.36-1.182 11.433 11.433 0 0 0-.78-.613 4.985 4.985 0 0 0-.92-.529 1.898 1.898 0 0 0-.693-.164 1.237 1.237 0 0 0-.928.32c-.439.41-.858.773-1.259 1.092-.241.192-.5.398-.775.619a71.077 71.077 0 0 0-1.716 1.515c-.612.552-1.233 1.117-1.861 1.694a9.844 9.844 0 0 1-1.17.925 1.359 1.359 0 0 1-.772.244.243.243 0 0 1-.044-.006.397.397 0 0 1-.277-.243 1.54 1.54 0 0 1-.103-.677c.01-.163.024-.342.045-.535.089-.578.224-1.153.404-1.725.192-.595.399-1.213.619-1.855.26-.787.427-1.592.504-2.416.02-.214 0-.436-.059-.666a6.193 6.193 0 0 0-.418-1.008 65.852 65.852 0 0 1-.368-.725 8.992 8.992 0 0 1-.448-.989 2.495 2.495 0 0 1-.145-.568c-.047-.298.01-.55.17-.755.242-.3.544-.57.908-.808.573-.376 1.19-.71 1.85-1.003a23.465 23.465 0 0 1 2.043-.8 45.035 45.035 0 0 1 8.66-1.973 27.9 27.9 0 0 1 4.268-.223Zm-11.382 3.932a2.559 2.559 0 0 0-.666 1.808c.013.677.218 1.293.616 1.847.191.273.425.511.702.714.467.341.99.524 1.569.548.3.013.582-.003.844-.047a5.082 5.082 0 0 0 2.43-1.114c.264-.225.477-.461.64-.708.23-.33.355-.672.376-1.028a1.86 1.86 0 0 0-.264-1.084 2.973 2.973 0 0 0-.658-.825 4.739 4.739 0 0 0-1.741-.989 4.256 4.256 0 0 0-1.728-.19 3.972 3.972 0 0 0-.602.123 3.148 3.148 0 0 0-1.518.945ZM73.738 12.906c7.71-.001 15.405 0 23.085.003.015 0 .023.007.023.022.004.816.004 1.631 0 2.447 0 .015-.008.022-.023.022-2.183.003-4.374.004-6.572.003-.06 0-.09.03-.09.089v9.886c0 .016-.008.024-.024.024-3.26-.004-6.518-.004-9.772 0-.02 0-.03-.01-.03-.03-.004-3.283-.005-6.576-.003-9.88 0-.06-.03-.09-.09-.09h-6.508c-.022 0-.033-.01-.033-.033v-2.425c0-.025.012-.038.037-.038ZM98.75 12.909c7.389-.003 14.788-.004 22.2-.003.01 0 .016.006.016.016v2.313c0 .023-.012.034-.034.034h-12.343c-.011 0-.016.005-.016.016v2.67c0 .03.014.044.044.044h11.947c.015 0 .023.008.023.023v2.123c0 .026-.013.039-.039.039h-11.951c-.015 0-.022.007-.022.021-.004.93-.004 1.858 0 2.785 0 .015.008.022.023.022 4.096.003 8.204.004 12.323.003.03 0 .045.014.045.044v2.32c0 .013-.008.02-.022.02-7.416 0-14.815 0-22.198.003-.017 0-.025-.008-.025-.025V12.938c0-.02.01-.03.029-.03ZM123.105 12.906h23.789c.026 0 .039.013.039.039v2.462c0 .019-.008.034-.025.044-3.865 2.458-7.758 4.93-11.679 7.418-.033.02-.03.032.009.032 3.859.003 7.747.004 11.663.002.02 0 .029.01.029.03.004.76.004 1.572.003 2.434 0 .02-.01.03-.029.03-7.923.003-15.864.004-23.821.003-.013 0-.019-.007-.019-.02-.008-.815-.006-1.623.005-2.424a.04.04 0 0 1 .019-.034l12.107-7.489c.033-.02.03-.03-.009-.03h-12.081c-.029 0-.044-.015-.044-.045v-2.407c0-.03.015-.045.044-.045ZM73.745 27.473H146.9c.014 0 .028.003.041.01.017.01.037.012.059.003v8.66c-24.44-.003-48.88-.004-73.322-.003-.015 0-.022-.007-.022-.022v-8.56c0-.059.03-.088.09-.088Zm12.223 2.532c.005 1.484.005 2.983 0 4.495 0 .018.01.027.027.027h3.297c.022 0 .034-.011.034-.033v-4.48c0-.023.01-.034.033-.034 1.587.002 3.172 0 4.753-.003.024 0 .036-.012.037-.035.003-.287.004-.578.002-.87 0-.012-.005-.017-.016-.017-4.35-.001-8.686 0-13.01.003-.014 0-.022.007-.022.022-.003.281-.004.567-.002.859 0 .027.014.041.041.041 1.628-.001 3.23 0 4.804.003.015 0 .022.007.022.022Zm43.794 2.34a1316.312 1316.312 0 0 1 4.399-.003 3.24 3.24 0 0 1 1.215.146c.175.057.329.141.459.253a.735.735 0 0 1 .299.571c.011.397.011.79 0 1.176 0 .026.013.04.038.04h3.266c.026 0 .039-.014.039-.04-.003-.379-.003-.763 0-1.153.002-.291-.095-.55-.292-.778a1.77 1.77 0 0 0-.385-.317 4.142 4.142 0 0 0-.962-.422c-.041-.011-.041-.022.001-.032.351-.078.651-.224.9-.438.165-.142.275-.307.328-.496a.614.614 0 0 0-.002-.46 1.113 1.113 0 0 0-.371-.454c-.188-.149-.4-.272-.635-.368a5.662 5.662 0 0 0-1.268-.348 9.586 9.586 0 0 0-1.226-.134 35.78 35.78 0 0 0-1.605-.033c-2.511.004-5.022.004-7.533 0-.015 0-.023.008-.023.022v5.394c0 .038.019.056.056.056h3.236c.025 0 .038-.012.038-.037l.005-2.122c0-.015.008-.023.023-.023Zm-18.161 1.081c.267.207.576.37.928.488a8.46 8.46 0 0 0 1.482.368 20.851 20.851 0 0 0 3.544.235 22.01 22.01 0 0 0 3.453-.193c.475-.066.921-.158 1.34-.276a4.717 4.717 0 0 0 1.078-.437c.156-.092.297-.203.423-.335a1.12 1.12 0 0 0 .311-.588.217.217 0 0 0 .004-.044v-3.55c0-.011-.005-.017-.016-.017-1.11-.001-2.208 0-3.291.003-.015 0-.022.008-.022.022.005 1.084.004 2.205-.003 3.363a.73.73 0 0 1-.298.594 1.354 1.354 0 0 1-.449.253 5.41 5.41 0 0 1-1.237.234c-.815.061-1.628.061-2.441 0a5.719 5.719 0 0 1-.858-.133 2.42 2.42 0 0 1-.515-.187 1.052 1.052 0 0 1-.385-.295.743.743 0 0 1-.17-.477c.005-1.128.003-2.248-.008-3.357 0-.015-.008-.022-.022-.022l-3.299.005c-.015 0-.024.008-.027.022l.002.232c.012 1.122.012 2.236 0 3.343 0 .015.001.03.004.044.048.262.206.497.472.706Zm-15.357-.055c.187.16.4.292.64.396.47.2.96.346 1.469.437.941.168 1.929.264 2.964.29.616.016 1.232.02 1.85.01a19.475 19.475 0 0 0 3.076-.278 7.062 7.062 0 0 0 1.569-.46c.247-.103.468-.243.663-.417.209-.185.337-.397.383-.639a.217.217 0 0 0 .004-.044v-1.739a.322.322 0 0 0-.003-.044 1.1 1.1 0 0 0-.367-.633 1.994 1.994 0 0 0-.535-.367 6.27 6.27 0 0 0-1.583-.502 9.97 9.97 0 0 0-.732-.125 20.558 20.558 0 0 0-2.486-.179 41.293 41.293 0 0 0-2.307.023c-.54.02-1.075.064-1.605.133-.481.058-.934.14-1.36.246-.353.086-.686.199-1 .337a2.184 2.184 0 0 0-.76.498 1.065 1.065 0 0 0-.314.88l.002.046v1.337c0 .015 0 .03.002.044.039.293.182.543.43.75Z"/><path fill="#6E708C" d="M129.759 29.958h4.636l.045.001a5.7 5.7 0 0 1 .813.11c.284.06.538.166.761.32a.499.499 0 0 1 .15.184.355.355 0 0 1-.044.396.852.852 0 0 1-.446.279c-.221.07-.458.12-.711.147-.329.031-.663.046-1.003.045a573.727 573.727 0 0 0-4.19 0c-.022 0-.033-.011-.033-.033V29.98c0-.015.007-.022.022-.022ZM102.499 30.002a9.144 9.144 0 0 1 1.872.156c.194.038.379.098.555.181.167.072.31.175.428.307a.872.872 0 0 1 .176.582c-.011.401-.011.802 0 1.204a.69.69 0 0 1-.17.488 1.3 1.3 0 0 1-.535.367 3.877 3.877 0 0 1-.577.16c-.496.082-1.027.127-1.593.133-.57.006-1.086-.009-1.549-.045a5.612 5.612 0 0 1-.925-.156 1.906 1.906 0 0 1-.705-.331.745.745 0 0 1-.299-.583c-.002-.43-.002-.86 0-1.292a.923.923 0 0 1 .115-.443.916.916 0 0 1 .379-.335c.355-.165.733-.27 1.134-.315.523-.05 1.087-.075 1.694-.078ZM42.506 30.526c.479-.017.92.016 1.324.1a.133.133 0 0 1 .042.014c.114.061.179.18.194.354.026.298.01.625-.044.981a8.032 8.032 0 0 0-.09.959c-.006.16.002.301.023.423.017.276.115.48.292.61.156.114.345.15.57.109a.378.378 0 0 1 .043-.004c1.83-.039 3.66-.103 5.492-.191a85.053 85.053 0 0 0 5.051-.388 50.25 50.25 0 0 0 8.245-1.585c.337-.095.668-.154.992-.178.267-.024.513.006.735.089a.817.817 0 0 1 .455.382c.094.164.146.345.158.543.02.205.02.447 0 .724a8.675 8.675 0 0 1-1.114 3.69 5.777 5.777 0 0 1-.914 1.214c-.256.261-.54.453-.85.577a7.752 7.752 0 0 1-2.471.493c-.876.029-1.78-.03-2.708-.178a28.881 28.881 0 0 1-1.29-.237 53.367 53.367 0 0 1-2.299-.555 89.47 89.47 0 0 0-2.427-.604 28.147 28.147 0 0 0-2.064-.399 12.783 12.783 0 0 0-1.842-.153 19.241 19.241 0 0 0-4.592.54c-.64.156-1.283.3-1.928.435-.4.087-.786.151-1.156.193-.579.074-1.166.103-1.76.089a13.195 13.195 0 0 1-2.389-.265c-.9-.18-1.682-.56-2.346-1.142a4.071 4.071 0 0 1-1.13-1.622c-.108-.27-.208-.53-.302-.78a3.84 3.84 0 0 1-.253-.983c-.034-.285.048-.5.248-.644.144-.108.307-.186.49-.234.366-.097.748-.195 1.145-.293.87-.213 1.738-.463 2.605-.75a56.087 56.087 0 0 1 3.19-.933 12.7 12.7 0 0 1 2.675-.4Z"/></svg>