<svg xmlns="http://www.w3.org/2000/svg" width="176" height="48" fill="none"><path fill="#6E708C" d="M89.19 2.805c.083-.015.143-.007.179.026a.688.688 0 0 1-.109.15c-.328.263-.628.514-.9.753l-.627.556c-.146-.021-.315.068-.507.268a.23.23 0 0 1-.185.076c-.071-.005-.14.04-.205.135a5.37 5.37 0 0 1-.502.527c-.2.18-.327.32-.383.42-.032.035-.082.052-.15.051-.154.051-.244.095-.27.132-.235.323-.476.56-.723.713a.365.365 0 0 0-.076.065c-.16.183-.342.33-.544.44-.33.179-.573.39-.727.634a.086.086 0 0 1-.076.044.458.458 0 0 0-.433.304.149.149 0 0 1-.062.073c-.527.309-1.015.71-1.463 1.203-.14.154-.304.285-.494.392a.273.273 0 0 0-.08.058c-.272.301-.55.561-.831.78-.411.318-.775.625-1.092.92a.462.462 0 0 1-.08.059 2.69 2.69 0 0 0-.648.59c-.11.131-.283.288-.521.47a.75.75 0 0 0-.182.189c-.114.112-.25.242-.407.388-.223.207-.487.463-.794.768a.297.297 0 0 1-.08.058c-.225.107-.445.259-.658.454-.372.334-.743.683-1.11 1.049-.82.812-1.635 1.604-2.449 2.374a1.77 1.77 0 0 0-.07.072l-1.396 1.544c-.057.063-.087.115-.09.157a3.99 3.99 0 0 0-.367.345.14.14 0 0 0-.036.088 5.91 5.91 0 0 0 0 .52 30.075 30.075 0 0 1-.283 5.096c-.125.02-.199.07-.222.15a4.54 4.54 0 0 0-.251 1.28 2.09 2.09 0 0 1-.053.407.363.363 0 0 0-.032.094 11.842 11.842 0 0 1-.625 2.238.708.708 0 0 0-.03.097 7.746 7.746 0 0 1-.37 1.174.997.997 0 0 0-.077.301.187.187 0 0 1-.023.095c-.183.387-.33.719-.44.997a3.335 3.335 0 0 1-.414.74c-.152.302-.299.582-.44.84a.84.84 0 0 1-.163.215c-.25.444-.578.904-.984 1.38a.716.716 0 0 1-.07.07c-.241.202-.492.471-.753.809a5.503 5.503 0 0 1-.84.871.373.373 0 0 1-.084.053 2.235 2.235 0 0 0-.673.494.328.328 0 0 1-.078.062c-.246.182-.482.366-.71.553a2.645 2.645 0 0 1-.585.373.27.27 0 0 0-.07.07c-.072.102-.145.124-.22.066-.08-.063-.087-.133-.02-.21.141-.167.201-.34.18-.52a.233.233 0 0 1 .009-.098c.052-.16.111-.314.18-.46.262-.56.456-1.16.583-1.8.026-.132.057-.252.094-.358a6.938 6.938 0 0 0 .384-1.62.683.683 0 0 1 .017-.098c.205-.806.362-1.631.47-2.475a.859.859 0 0 1 .02-.098 5.63 5.63 0 0 0 .172-1.702.446.446 0 0 1 .007-.099c.078-.428.094-.839.047-1.23a.562.562 0 0 1-.003-.101 8.1 8.1 0 0 0-.023-1.406.356.356 0 0 1 .004-.1c.026-.148-.011-.23-.11-.244-.034-.005-.048-.024-.043-.056.003-.019-.015-.036-.053-.052a2.24 2.24 0 0 0-.028-.32c-.005-.033-.02-.038-.043-.015a6.855 6.855 0 0 0-.28.285c-.05-.031-.138 0-.262.095a8.455 8.455 0 0 0-.646.508 8.01 8.01 0 0 0-1.11 1.223c-.322.449-.715.934-1.18 1.456-.214.24-.422.51-.625.811a.594.594 0 0 1-.062.079c-.51.55-.94 1.108-1.295 1.677a.535.535 0 0 1-.06.08 16.846 16.846 0 0 0-1.608 2.117 1.017 1.017 0 0 1-.059.081 24.255 24.255 0 0 0-1.662 2.308c-.17.27-.368.541-.59.816a4.713 4.713 0 0 0-.503.702.864.864 0 0 1-.2.256.299.299 0 0 0-.063.077c-.228.41-.493.784-.795 1.123a.583.583 0 0 0-.059.081c-.255.397-.535.796-.84 1.2-.262.345-.5.693-.715 1.041-.292.393-.556.807-.791 1.242a6.474 6.474 0 0 1-.734 1.076c-.094.103-.192.108-.296.015a4.91 4.91 0 0 0-.36-.295.2.2 0 0 1-.063-.075 6.925 6.925 0 0 1-.737-2.584 9.149 9.149 0 0 1-.028-1.582.706.706 0 0 1 .013-.099c.127-.583.251-1.183.373-1.802.047-.24.112-.46.194-.658.184-.375.305-.75.363-1.124a.148.148 0 0 0-.015-.094c-.022-.044-.062-.048-.118-.012a22.753 22.753 0 0 1 2.06-3.709 44.6 44.6 0 0 1 4.142-5.195c2.279-2.465 4.853-4.944 7.724-7.435a.171.171 0 0 0 .062-.154 23.864 23.864 0 0 0-1.398-6.065 9.367 9.367 0 0 0-1.118-2.146c-.47-.684-1.009-1.182-1.618-1.493-.567-.285-1.184-.362-1.851-.232a5.106 5.106 0 0 0-2.29 1.098 9.063 9.063 0 0 0-1.506 1.606c-.798 1.102-1.456 2.352-1.973 3.75-.015.039-.042.05-.081.036a3.358 3.358 0 0 1-.47-.226c-.074-.043-.101-.107-.08-.19a23.996 23.996 0 0 1 1.324-3.847 18.44 18.44 0 0 1 2.309-3.89 10.757 10.757 0 0 1 2.39-2.282c.224-.011.423-.062.597-.153a7.37 7.37 0 0 1 1.537-.646c.1-.029.228-.042.382-.04a.318.318 0 0 0 .097-.023c.959-.422 2.029-.551 3.21-.389.245.034.498.034.757 0 .805.207 1.563.636 2.274 1.286a11.289 11.289 0 0 1 2.647 3.828 26.202 26.202 0 0 1 1.61 5.334c.008.037.026.044.055.021.42-.318.833-.622 1.241-.91.166-.066.308-.098.427-.097a.215.215 0 0 0 .095-.022c.39-.185.728-.411 1.016-.677a.79.79 0 0 1 .078-.064c.8-.556 1.605-1.118 2.415-1.686a.446.446 0 0 1 .087-.048c.273-.112.522-.294.75-.546a.543.543 0 0 1 .071-.069A54.143 54.143 0 0 1 78.19 9a7.19 7.19 0 0 1 .759-.446c.39-.147.74-.34 1.048-.583.195-.154.39-.286.583-.396.32-.182.627-.385.923-.608a2.21 2.21 0 0 1 .68-.363.329.329 0 0 0 .09-.042c.344-.227.663-.473.956-.736a.199.199 0 0 1 .086-.045c.186-.045.345-.096.476-.15a.186.186 0 0 0 .077-.06.739.739 0 0 1 .373-.273c.032-.008.05-.03.052-.063.004-.062-.043-.074-.143-.038l-.165.06c-.032.01-.044-.001-.038-.034.008-.038-.026-.05-.104-.036.252-.1.458-.212.618-.335a.4.4 0 0 1 .087-.052c.41-.182.83-.41 1.259-.682a.29.29 0 0 0 .144-.032c.192-.113.37-.207.535-.282a.258.258 0 0 0 .089-.043c.082-.065.184-.124.305-.176a.45.45 0 0 0 .157-.12c.012-.024.045-.024.098-.001.03.013.061.013.091-.002a7.497 7.497 0 0 1 1.963-.656Z"/><path fill="#6E708C" d="M62.79 4.512c-.26.034-.513.034-.758 0-1.181-.162-2.251-.033-3.21.389a.318.318 0 0 1-.097.023 1.358 1.358 0 0 0-.382.04 7.37 7.37 0 0 0-1.537.646c-.174.09-.372.142-.597.153 1.227-.846 2.557-1.338 3.991-1.477.962-.093 1.825-.017 2.59.226ZM87.733 4.29c-.19.149-.374.325-.55.53a.1.1 0 0 1-.083.036.253.253 0 0 0-.075.052c-.415.366-.832.728-1.253 1.085-.19.114-.373.272-.549.473a1.262 1.262 0 0 1-.282.274c-.13.096-.272.213-.426.351-.537.478-1.087.956-1.65 1.437a212.677 212.677 0 0 0-5.567 4.825 313.05 313.05 0 0 0-6.854 6.344c.004-.042.034-.094.09-.157l1.397-1.544a1.77 1.77 0 0 1 .07-.072c.814-.77 1.63-1.562 2.45-2.374.367-.366.737-.715 1.11-1.049.212-.195.431-.346.657-.454a.297.297 0 0 0 .08-.058c.307-.305.571-.56.793-.768.158-.146.294-.276.408-.388a.75.75 0 0 1 .182-.189c.238-.182.412-.339.52-.47a2.69 2.69 0 0 1 .648-.59.462.462 0 0 0 .08-.06c.318-.294.682-.6 1.093-.919.282-.219.559-.479.831-.78a.273.273 0 0 1 .08-.058c.19-.107.355-.238.494-.392a6.241 6.241 0 0 1 1.463-1.203.149.149 0 0 0 .063-.073.458.458 0 0 1 .432-.304.086.086 0 0 0 .076-.044c.154-.244.397-.455.727-.635.202-.11.383-.256.544-.44a.365.365 0 0 1 .076-.064c.247-.152.488-.39.723-.713.026-.037.116-.081.27-.132.068 0 .118-.016.15-.05.056-.101.183-.241.383-.42a5.37 5.37 0 0 0 .502-.528c.065-.095.134-.14.205-.135a.23.23 0 0 0 .185-.076c.192-.2.361-.29.507-.268ZM83.843 5.186c.078-.014.112-.002.104.036-.006.033.006.044.038.034l.165-.06c.1-.036.147-.024.143.038-.003.033-.02.055-.052.063a.739.739 0 0 0-.373.273.186.186 0 0 1-.077.06c-.131.054-.29.105-.476.15a.199.199 0 0 0-.086.045 8.209 8.209 0 0 1-.956.736.329.329 0 0 1-.09.042 2.21 2.21 0 0 0-.68.363 8.576 8.576 0 0 1-.923.608c-.193.11-.388.242-.583.396a3.891 3.891 0 0 1-1.048.583 7.19 7.19 0 0 0-.76.446 54.143 54.143 0 0 0-2.634 1.863.543.543 0 0 0-.072.07 2.068 2.068 0 0 1-.749.545.446.446 0 0 0-.087.048c-.81.568-1.615 1.13-2.415 1.686a.79.79 0 0 0-.078.064 4.037 4.037 0 0 1-1.016.677.215.215 0 0 1-.095.022c-.119 0-.261.031-.427.097a153.745 153.745 0 0 1 8.889-6.17 286.502 286.502 0 0 1 4.338-2.715ZM97.597 22.884c.62-.041 1.133.158 1.537.597.32.346.468.75.446 1.21-.026.506-.194.917-.502 1.234-.097-.008-.129-.041-.094-.098.146-.24.247-.463.3-.667a.446.446 0 0 0 .016-.098c.02-.553-.113-1.03-.4-1.428a.291.291 0 0 0-.07-.07c-.311-.23-.607-.37-.888-.422-.392-.073-.718-.016-.975.171a.631.631 0 0 1-.087.051c-.63.294-.996.785-1.096 1.472-.062.42.05.808.334 1.164.02.027.045.047.077.06.115.048.24.118.373.213.22.154.496.215.828.18a.148.148 0 0 1 .094.022c.225.138.463.123.716-.046.115-.076.205-.101.27-.074.03.016.035.039.018.067-.007.012.004.023.032.03-.192.086-.371.168-.538.245a.425.425 0 0 1-.095.032c-.687.138-1.277.026-1.77-.337a1.552 1.552 0 0 1-.628-.953 1.955 1.955 0 0 1 .2-1.344c.185-.34.436-.616.754-.828a2.411 2.411 0 0 1 1.148-.383Z"/><path fill="#6E708C" d="M97.942 23.142c.281.052.577.193.888.422.028.02.05.043.07.07.287.399.42.875.4 1.428a.446.446 0 0 1-.015.098 2.593 2.593 0 0 1-.301.667c-.034.057-.003.09.094.098a2.35 2.35 0 0 1-.552.527c-.028-.008-.039-.018-.032-.03.017-.028.011-.05-.018-.067-.065-.027-.155-.003-.27.074-.253.17-.491.184-.716.046a.148.148 0 0 0-.094-.022c-.332.035-.608-.026-.828-.18a1.952 1.952 0 0 0-.373-.213.169.169 0 0 1-.077-.06c-.284-.356-.395-.744-.334-1.164.1-.687.466-1.178 1.096-1.472a.631.631 0 0 0 .087-.05c.257-.188.583-.245.975-.172ZM69.759 25.746a24.663 24.663 0 0 1-1.883 6.751c-.898 1.972-2.112 3.66-3.641 5.064a12.852 12.852 0 0 1-2.786 1.958.825.825 0 0 1-.266.098c-.048.004-.064-.016-.048-.06a47.475 47.475 0 0 0 1.019-3.37c.378-1.385.7-2.847.963-4.386.12-.696.21-1.408.27-2.136.137-1.002.163-2.074.08-3.216.038.015.056.032.053.05-.005.034.01.052.042.057.1.015.137.096.11.245a.356.356 0 0 0-.003.1 8.1 8.1 0 0 1 .023 1.405.562.562 0 0 0 .003.1c.047.392.03.803-.047 1.231a.446.446 0 0 0-.008.1 5.63 5.63 0 0 1-.17 1.701.859.859 0 0 0-.02.099c-.11.843-.266 1.668-.471 2.474a.683.683 0 0 0-.017.099 6.938 6.938 0 0 1-.384 1.619 2.705 2.705 0 0 0-.094.357 7.787 7.787 0 0 1-.583 1.802c-.069.145-.129.299-.18.46a.233.233 0 0 0-.01.098c.022.18-.038.352-.18.519-.066.077-.059.147.021.21.075.058.148.036.22-.067a.27.27 0 0 1 .07-.069c.194-.088.39-.212.586-.373.227-.187.463-.371.71-.553a.328.328 0 0 0 .077-.062c.191-.205.416-.37.673-.494a.373.373 0 0 0 .084-.053c.302-.249.582-.54.84-.871a5.24 5.24 0 0 1 .752-.809.716.716 0 0 0 .071-.07c.406-.476.734-.936.984-1.38a.84.84 0 0 0 .163-.214c.141-.26.288-.54.44-.84.171-.233.309-.48.413-.741.111-.278.258-.61.441-.997a.187.187 0 0 0 .023-.095.997.997 0 0 1 .076-.3c.157-.388.28-.78.372-1.175a.708.708 0 0 1 .029-.097c.278-.713.487-1.46.625-2.238a.363.363 0 0 1 .032-.094 2.09 2.09 0 0 0 .053-.407 4.54 4.54 0 0 1 .25-1.28c.024-.08.098-.13.223-.15ZM63.115 26.398a112.75 112.75 0 0 0-6.247 7.636 188.215 188.215 0 0 0-7.486 10.733c-.114.214-.222.348-.325.401-.03.016-.057.011-.08-.013-.598-.626-1.015-1.44-1.251-2.443a9.09 9.09 0 0 1-.226-2.007c.03-1.595.391-3.118 1.083-4.568.056-.036.096-.032.118.012.015.03.02.06.015.094a3.888 3.888 0 0 1-.363 1.123 3.48 3.48 0 0 0-.194.66c-.122.617-.246 1.218-.373 1.801a.706.706 0 0 0-.013.1c-.037.443-.028.97.028 1.58.087.943.332 1.805.737 2.585a.2.2 0 0 0 .063.075c.112.083.232.18.36.295.104.093.202.088.296-.015.287-.343.532-.702.734-1.076.235-.435.5-.849.79-1.242.216-.348.454-.696.716-1.042.305-.403.585-.802.84-1.199a.583.583 0 0 1 .06-.08c.301-.34.566-.715.794-1.124a.299.299 0 0 1 .064-.077.864.864 0 0 0 .2-.256c.129-.226.296-.46.501-.702.223-.275.42-.547.59-.816a24.255 24.255 0 0 1 1.663-2.308c.021-.026.04-.053.058-.081.437-.69.973-1.395 1.61-2.116a.535.535 0 0 0 .06-.08c.353-.57.785-1.129 1.294-1.678a.594.594 0 0 0 .062-.079c.203-.301.411-.572.625-.81.465-.523.858-1.008 1.18-1.457a8.01 8.01 0 0 1 1.11-1.223c.223-.192.438-.362.646-.508.124-.095.211-.126.261-.095ZM112.151 13.121c.084 0 .119.043.104.126-.169.971-.337 1.919-.503 2.842-.017.098-.076.146-.175.144a86.285 86.285 0 0 0-3.187.024c-.034.001-.067.003-.101.008-.514.061-.947.337-1.299.828a2.314 2.314 0 0 0-.432 1.048c-.053.284-.106.591-.162.923-.005.037.011.056.048.056h4.467c.051 0 .072.025.064.075-.157.966-.33 1.955-.517 2.967-.009.047-.037.07-.084.07-1.498.015-2.986.026-4.463.031-.033 0-.053.017-.058.05-.473 2.866-.955 5.744-1.448 8.634-.019.115-.088.171-.207.17a95.468 95.468 0 0 0-2.979.018c-.035 0-.049-.016-.044-.05.751-4.458 1.489-8.892 2.214-13.302a7.116 7.116 0 0 1 .753-2.233 4.937 4.937 0 0 1 1.593-1.67 4.522 4.522 0 0 1 2.178-.735c1.383-.027 2.795-.035 4.238-.024ZM116.829 16.485c.959-.687 1.27-1.896.694-2.7-.576-.804-1.82-.9-2.78-.213-.959.687-1.27 1.896-.694 2.7.576.805 1.82.9 2.78.213ZM120.855 13.127c1.043-.01 2.082-.01 3.115 0 .034 0 .047.016.041.05-.352 1.978-.706 3.942-1.064 5.893-.006.033.008.05.042.05 1.611-.004 3.217-.002 4.819.006.015 0 .021.008.019.023l-.486 3.027c-.005.033-.024.05-.058.05a286.38 286.38 0 0 1-4.857.037c-.033 0-.053.017-.059.05a743.501 743.501 0 0 1-.725 3.885c-.084.445-.041.836.131 1.173.209.411.575.622 1.099.634 1.146.024 2.283.024 3.412 0 .056 0 .079.027.071.082-.172 1.02-.344 2.009-.519 2.965-.008.043-.034.065-.078.065a198.1 198.1 0 0 0-2.51 0c-.6.004-1.144-.03-1.631-.1a4.456 4.456 0 0 1-1.989-.773c-.483-.343-.832-.814-1.048-1.411a3.402 3.402 0 0 1-.226-1.104 9.325 9.325 0 0 1 .157-1.927c.759-4.152 1.52-8.36 2.284-12.624.006-.033.026-.05.06-.05ZM84.866 19.126c1.147-.01 2.301-.01 3.464 0a.07.07 0 0 1 .07.046c.464 1.107.928 2.23 1.393 3.367.018.046.043.05.073.01l2.536-3.329c.05-.066.118-.1.202-.1 1.253-.004 2.464-.002 3.635.006.056 0 .067.022.032.066l-4.566 5.712a.078.078 0 0 0-.01.085c.879 1.982 1.797 4.004 2.755 6.066.02.041.006.062-.04.062-1.202-.009-2.401 0-3.598.025a.154.154 0 0 1-.161-.106c-.463-1.187-.93-2.358-1.402-3.514-.022-.052-.05-.056-.085-.012-.924 1.18-1.842 2.35-2.755 3.513a.234.234 0 0 1-.195.094c-.925-.002-1.841.006-2.747.025a8.28 8.28 0 0 1-1.048-.04c-.034-.003-.04-.017-.019-.042 1.677-2.062 3.317-4.082 4.919-6.06a.075.075 0 0 0 .012-.084c-.819-1.865-1.657-3.77-2.514-5.714-.022-.05-.006-.076.05-.076ZM113.594 19.14c1.03-.013 2.039-.02 3.028-.02.085 0 .12.042.106.125-.702 3.966-1.418 7.9-2.149 11.804-.006.032-.026.05-.059.05-1.033.025-2.07.029-3.112.013-.034 0-.047-.017-.041-.05.714-3.95 1.433-7.903 2.155-11.86.007-.042.031-.062.072-.062ZM129 30.257a.871.871 0 0 1-.868.868.871.871 0 0 1-.869-.868.872.872 0 0 1 .869-.869.869.869 0 0 1 .868.869Zm-.252-.002a.617.617 0 1 0-1.233 0 .617.617 0 0 0 1.233 0Z"/><path fill="#6E708C" d="M128.388 29.918c.079.082.083.199.012.352-.002.004.019.088.063.25.021.08.013.12-.024.12a.204.204 0 0 1-.174-.088c-.092-.125-.148-.183-.17-.175-.031.012-.046.035-.046.068.003.194-.047.255-.148.181a.118.118 0 0 1-.048-.08 2.598 2.598 0 0 1 .001-.64.071.071 0 0 1 .055-.064c.209-.061.369-.035.479.076Zm-.147.191a.105.105 0 0 0-.032-.076.106.106 0 0 0-.151 0 .105.105 0 0 0-.032.076c0 .028.011.056.032.076a.106.106 0 0 0 .151 0 .104.104 0 0 0 .032-.076ZM101.063 35.202c-.057.11-.139.247-.247.414-.029.045-.068.056-.116.03-.492-.268-.939-.312-1.34-.13a.552.552 0 0 0-.343.442.36.36 0 0 0 .094.327c.114.107.27.183.47.228.26.061.501.138.721.232.39.16.584.443.583.847.003.472-.208.821-.633 1.049a2.207 2.207 0 0 1-1.35.232c-.446-.064-.794-.22-1.044-.466-.023-.024-.025-.05-.006-.077.097-.133.2-.259.313-.375.023-.024.05-.028.078-.011.031.017.09.053.177.106.489.32.966.359 1.43.114.265-.14.372-.329.321-.567a.409.409 0 0 0-.34-.356 2.86 2.86 0 0 1-1.16-.446c-.257-.172-.364-.442-.32-.809.019-.334.17-.619.451-.853.183-.152.384-.244.602-.276.658-.123 1.205-.032 1.641.272.027.02.033.044.018.073ZM103.847 34.832c.383.038.696.136.939.296.026.02.033.045.021.076a1.969 1.969 0 0 1-.251.412c-.033.043-.073.051-.12.025a1.759 1.759 0 0 0-.815-.232.958.958 0 0 0-.608.17.523.523 0 0 0-.241.535.301.301 0 0 0 .154.229c.191.114.391.194.601.24.215.046.414.115.596.206.189.098.325.23.408.396.103.194.126.422.069.683-.056.302-.225.542-.508.722-.42.25-.886.345-1.4.282a2.165 2.165 0 0 1-1.071-.433c-.036-.03-.041-.064-.014-.103.147-.215.253-.344.316-.388.028-.02.055-.02.082 0a1.59 1.59 0 0 0 1.265.322c.261-.04.453-.16.574-.362.128-.198.107-.379-.065-.54-.119-.12-.314-.204-.585-.252a1.806 1.806 0 0 1-.834-.37c-.199-.16-.289-.397-.27-.71.018-.469.229-.81.634-1.023.34-.178.715-.239 1.123-.181ZM125.71 35.186a1.612 1.612 0 0 1-.272.435c-.021.026-.046.031-.075.016a1.95 1.95 0 0 0-.91-.228c-.35-.003-.599.124-.747.382-.132.231-.091.42.126.566.195.111.417.19.665.237.293.048.544.165.753.352.206.196.291.453.257.772-.027.365-.205.655-.533.872-.41.25-.868.344-1.374.282a2.118 2.118 0 0 1-1.093-.443c-.024-.022-.03-.049-.016-.08a.962.962 0 0 1 .34-.402c.027-.019.054-.018.08.003.336.278.75.384 1.241.32.363-.047.581-.223.652-.527.054-.214-.038-.373-.276-.477a3.822 3.822 0 0 0-.627-.2 1.551 1.551 0 0 1-.558-.246c-.236-.148-.359-.376-.371-.683a1.08 1.08 0 0 1 .232-.772c.222-.294.523-.47.904-.527.609-.093 1.134-.001 1.576.275.029.017.037.041.026.073ZM110.492 35.258a2.63 2.63 0 0 1-.312.415c-.022.025-.049.03-.079.016a2.06 2.06 0 0 1-.186-.098c-.39-.23-.763-.238-1.118-.026a.8.8 0 0 0-.382.572c-.113.455-.205.915-.276 1.38-.054.357.063.592.351.703.404.159.821.09 1.249-.207.03-.02.054-.014.07.017.083.153.155.298.218.435.025.053.012.094-.04.122-.478.27-.985.366-1.522.285a1.151 1.151 0 0 1-.533-.22c-.355-.233-.512-.561-.471-.984.043-.449.122-.876.237-1.282a.467.467 0 0 0 .017-.099 1.67 1.67 0 0 1 .292-.834c.265-.368.635-.567 1.111-.596.524-.032.976.078 1.357.33.028.018.034.042.017.071ZM81.554 34.876l2.534.012c.034 0 .049.017.046.05a3.871 3.871 0 0 1-.079.48c-.01.044-.037.066-.082.066H82.11c-.05 0-.08.025-.09.075-.069.36-.126.684-.172.973-.005.034.01.05.042.052.463.006 1.008.008 1.636.005.03-.001.043.014.036.044-.03.135-.063.3-.098.493-.005.026-.021.04-.049.04a80.647 80.647 0 0 0-1.65.006c-.033 0-.053.017-.06.05a40.706 40.706 0 0 1-.317 1.57.076.076 0 0 1-.06.061c-.18.045-.361.045-.543 0-.033-.008-.046-.028-.04-.06.234-1.26.485-2.55.753-3.872.006-.03.024-.045.055-.045ZM85.28 34.87c.1.016.277.02.528.012.035-.002.05.015.043.05-.242 1.293-.49 2.575-.742 3.845-.01.054-.044.083-.1.087-.2.015-.36.005-.484-.028-.05-.013-.07-.045-.06-.095.242-1.297.494-2.573.755-3.83.006-.032.026-.046.06-.04ZM112.244 34.867c.051-.007.071.015.061.065a337.21 337.21 0 0 0-.636 3.283c-.007.033.006.05.04.05l1.92.011c.034 0 .05.017.048.05a3.44 3.44 0 0 1-.075.478c-.007.033-.027.05-.061.051-.679.045-1.409.05-2.19.018a7.546 7.546 0 0 0-.396-.009c-.048.013-.068-.005-.058-.054l.75-3.873c.006-.037.028-.056.066-.054.223.008.4.002.531-.016ZM86.954 34.882h2.662c.073 0 .107.036.102.11-.011.196-.037.339-.076.428a.078.078 0 0 1-.07.05 9.88 9.88 0 0 1-.936.014c-.07-.002-.111.032-.124.1l-.603 3.163c-.009.045-.067.079-.175.1a1.076 1.076 0 0 1-.427.02c-.06-.015-.085-.052-.072-.113.228-1.122.43-2.193.609-3.215.006-.032-.008-.05-.041-.054-.287-.03-.59-.03-.908 0-.089.008-.123-.031-.103-.118.033-.145.061-.285.085-.421.008-.043.034-.064.078-.064ZM91.12 34.887a.143.143 0 0 1 .133.09c.405.87.805 1.751 1.201 2.642.016.035.033.035.05 0 .032-.081.058-.18.08-.297.147-.79.297-1.585.451-2.382.007-.039.03-.058.07-.058h.515c.05 0 .071.025.062.075a818.634 818.634 0 0 1-.725 3.835.07.07 0 0 1-.058.06c-.187.044-.36.045-.517.002a.106.106 0 0 1-.072-.058 66.406 66.406 0 0 1-1.22-2.653c-.03-.07-.053-.068-.07.007-.182.865-.35 1.742-.504 2.63-.008.04-.032.061-.073.063-.257.011-.439.012-.545.002-.033-.002-.047-.02-.04-.053.242-1.279.482-2.56.722-3.842a.069.069 0 0 1 .058-.06c.076-.014.237-.015.483-.003ZM97.442 34.883c.067 0 .094.034.08.1a5.355 5.355 0 0 0-.068.372c-.014.1-.071.147-.173.14-.67-.05-1.265-.053-1.786-.009-.033.003-.053.02-.06.053-.058.308-.116.633-.172.974-.005.034.01.05.043.05.594-.003 1.13-.001 1.608.005.033.001.048.018.045.052a4.257 4.257 0 0 1-.085.49c-.007.033-.027.05-.06.05-.47.007-.994.01-1.576.006-.07 0-.112.033-.127.1a13.63 13.63 0 0 0-.185.948c-.005.033.008.05.042.05l1.996.012c.033 0 .05.017.052.05.006.109-.018.249-.071.421-.021.067-.071.1-.15.1-.873 0-1.742.009-2.61.026-.03 0-.042-.015-.036-.045.248-1.332.497-2.624.747-3.878.006-.033.026-.05.06-.051.792-.02 1.62-.026 2.486-.016ZM115.242 34.882h.567c.051 0 .071.025.06.075a29.723 29.723 0 0 0-.502 2.585c-.065.435.113.684.533.747.5.078.848-.097 1.042-.527a2.09 2.09 0 0 0 .157-.596c.142-.757.287-1.496.436-2.216.007-.033.026-.052.059-.057.131-.02.315-.022.553-.008.034.002.047.02.041.052-.164.825-.326 1.669-.487 2.53a1.99 1.99 0 0 1-.42.935c-.267.268-.612.425-1.035.47-.477.054-.873-.044-1.186-.295-.272-.216-.396-.52-.373-.91a.827.827 0 0 1 .012-.099c.156-.847.325-1.732.507-2.656.004-.02.016-.03.036-.03ZM119.339 34.887a22.993 22.993 0 0 1 1.851.018.55.55 0 0 1 .1.013c.372.088.59.327.653.717.082.498-.111.877-.577 1.136-.03.016-.031.035-.005.055.187.147.289.36.306.64.022.458-.139.832-.483 1.124a1.11 1.11 0 0 1-.571.257 9.925 9.925 0 0 1-1.983 0c-.067-.004-.094-.038-.082-.104.236-1.29.48-2.558.731-3.806.006-.033.026-.05.06-.05Zm1.725.687a.629.629 0 0 0-.326-.09h-.809c-.051 0-.083.025-.094.075-.056.251-.117.537-.181.856-.013.065.014.098.08.098.302.016.604.016.904 0 .319-.017.517-.17.596-.458.065-.222.008-.383-.17-.481Zm-.294 1.636a.172.172 0 0 0-.107-.07c-.258-.04-.604-.048-1.037-.022-.068 0-.108.035-.12.101l-.198.985c-.006.027.006.041.034.041.329.013.661.013.995 0 .339-.014.546-.175.621-.483.063-.243 0-.428-.188-.552Z"/></svg>