<svg width="132" height="133" viewBox="0 0 132 133" fill="none" xmlns="http://www.w3.org/2000/svg">
<path d="M65.6771 1.65423L66.2796 0.943604L66.8821 1.65423L66.8872 1.66011L66.9115 1.68807C66.9348 1.71432 66.972 1.75549 67.0234 1.81056C67.1262 1.92077 67.2858 2.08673 67.5055 2.3005C67.9454 2.72806 68.626 3.34714 69.574 4.09416C71.47 5.58813 74.4371 7.59539 78.6873 9.60811C87.1849 13.6322 100.835 17.6885 121.346 17.6885H122.137V85.8238C122.137 94.9826 118.503 103.798 111.947 110.199C106.947 115.08 101.474 119.215 94.9864 122.911C88.5711 126.567 80.8741 129.88 71.7486 132.225C68.1574 133.147 64.3995 133.147 60.8106 132.225C53.2478 130.283 46.6661 127.674 40.9821 124.757C35.2981 121.84 24.0264 113.532 20.6123 110.199C14.056 103.798 10.4219 94.9825 10.4219 85.8213V17.6885H11.2134C31.7241 17.6885 45.3739 13.6322 53.8716 9.60811C58.1221 7.59539 61.0889 5.58813 62.9849 4.09416C63.9329 3.34714 64.6138 2.72806 65.0533 2.3005C65.2731 2.08673 65.433 1.92077 65.5355 1.81056C65.5868 1.75549 65.624 1.71432 65.6474 1.68807L65.6721 1.66011L65.6771 1.65423Z" fill="white"/>
<path fill-rule="evenodd" clip-rule="evenodd" d="M66.9537 97.2414C71.658 105.419 81.4063 109.298 93.3639 109.06L96.0682 109.006L96.0552 122.357C93.581 123.829 86.951 127.182 83.5604 128.388C83.3004 126.752 82.6662 124.907 81.7757 123.131C80.9329 121.45 80.1591 120.422 78.5106 118.795C72.72 113.08 63.5186 112.232 56.5611 116.772C55.9587 117.165 54.8052 118.132 53.9978 118.921C51.3157 121.541 49.5749 128.227 49.0834 128.475C42.8052 125.974 36.5809 122.347 36.5809 122.347L36.491 109.133L40.3989 109.041C45.3944 108.925 47.7811 108.56 51.6886 107.316C57.7157 105.398 62.6536 102.361 65.5686 97.3955C65.9607 96.7277 66.2941 96.1789 66.3094 96.1759C66.325 96.1729 66.615 96.6524 66.9537 97.2414Z" fill="#ED131C"/>
<path d="M69.382 117.022C70.7836 117.301 72.5414 117.975 73.8692 118.742C75.1898 119.504 77.2644 121.377 78.1995 122.651C79.5739 124.523 80.551 127.083 80.8391 129.565C76.7433 130.858 72.7862 132.944 67.2605 132.944C61.7348 132.944 55.737 131.354 51.808 129.417C52.0821 126.264 53.9496 122.653 56.4275 120.452C59.9527 117.32 64.6429 116.078 69.382 117.022Z" fill="#ED131C"/>
<path d="M55.2227 74.7874L61.4531 70.3709C60.6439 72.6939 59.4741 75.4283 57.5294 78.4694C52.7517 87.7214 48.6923 95.5317 48.5083 95.8258C48.3243 96.12 48.0558 96.3607 47.9115 96.3607C47.7673 96.3607 45.9849 95.2637 43.9501 93.9229C41.9155 92.5823 40.209 91.5261 40.1577 91.5758C40.1066 91.6257 40.2739 92.5161 40.5298 93.5546C41.1587 96.1068 41.7478 99.2117 42.2455 102.597C42.473 104.146 42.7029 105.907 42.7309 105.93C42.7587 105.951 43.4382 105.901 44.2407 105.818C54.3075 104.771 61.3527 99.7883 65.1373 92.4182C66.1906 90.3675 66.4735 90.3802 67.5392 92.5262C69.5803 96.6375 72.4991 100.414 76.9816 102.597C80.2731 104.201 84.2744 104.987 89.0724 105.525L89.9478 105.607L90.2972 103.237C90.6391 100.638 91.5665 95.7495 92.1878 93.2739C92.418 92.3564 92.5731 91.5733 92.5325 91.5338C92.4917 91.4944 90.7614 92.57 88.6873 93.9243C86.6128 95.2785 84.7878 96.362 84.6312 96.3319C84.5649 96.3192 84.4012 95.9106 84.0378 95.0034L84.0373 95.0022C82.9802 92.3628 78.2517 83.9686 71.3017 70.3709L77.3444 74.7874C78.2001 75.3941 79.3514 74.5779 79.0246 73.5964L75.0448 61.6462C74.8986 61.2072 75.0589 60.7264 75.4416 60.4552L85.8607 53.0695C86.7164 52.4629 86.2765 51.1424 85.2188 51.1424H72.3402C71.8671 51.1424 71.4479 50.8452 71.3017 50.4062L67.322 38.456C66.9951 37.4746 65.572 37.4746 65.2451 38.456L61.2654 50.4062C61.1192 50.8452 60.6999 51.1424 60.227 51.1424H47.3481C46.2904 51.1424 45.8507 52.4629 46.7064 53.0695L57.1256 60.4552C57.5082 60.7264 57.6683 61.2072 57.5221 61.6462L53.5424 73.5964C53.2155 74.5779 54.367 75.3941 55.2227 74.7874Z" fill="#ED131C"/>
</svg>
