<svg width="1440" height="816" viewBox="0 0 1440 816" fill="none" xmlns="http://www.w3.org/2000/svg">
<path d="M1405.21 301H1400.79V339H1405.21V301Z" fill="#FF0A47"/>
<path d="M1422 317.791H1384V322.209H1422V317.791Z" fill="#FF0A47"/>
<path d="M1391.43 305.288L1388.28 308.439L1414.91 335.069L1418.06 331.917L1391.43 305.288Z" fill="#FF0A47"/>
<path d="M1414.91 305.286L1388.28 331.916L1391.43 335.067L1418.06 308.437L1414.91 305.286Z" fill="#FF0A47"/>
<path d="M772.002 41.3708C768.317 41.3704 764.715 42.4628 761.65 44.5097C758.586 46.5567 756.198 49.4664 754.788 52.8708C753.377 56.2752 753.008 60.0213 753.727 63.6355C754.445 67.2497 756.22 70.5696 758.825 73.1754C761.431 75.7812 764.75 77.5559 768.365 78.2749C771.979 78.994 775.725 78.6251 779.129 77.215C782.534 75.8049 785.444 73.4169 787.491 70.353C789.538 67.2891 790.631 63.6869 790.631 60.0019C790.628 55.062 788.664 50.3255 785.171 46.8323C781.678 43.3391 776.942 41.3748 772.002 41.3708ZM772.002 84C767.255 84.0004 762.615 82.5931 758.668 79.9561C754.72 77.3191 751.644 73.5708 749.827 69.1853C748.011 64.7998 747.535 59.974 748.461 55.3183C749.387 50.6626 751.673 46.386 755.029 43.0295C758.386 39.6729 762.663 37.3871 767.318 36.4611C771.974 35.5351 776.8 36.0105 781.185 37.8273C785.571 39.644 789.319 42.7205 791.956 46.6675C794.593 50.6146 796 55.255 796 60.0019C795.993 66.3644 793.462 72.4643 788.963 76.9633C784.464 81.4623 778.364 83.993 772.002 84Z" fill="#FF0A47"/>
<path d="M772.003 54.4715C770.909 54.4711 769.839 54.7951 768.929 55.4026C768.02 56.0101 767.311 56.8737 766.892 57.8843C766.473 58.8948 766.363 60.0069 766.576 61.0798C766.789 62.1528 767.316 63.1384 768.089 63.9121C768.863 64.6857 769.848 65.2126 770.921 65.4262C771.994 65.6397 773.106 65.5303 774.117 65.1118C775.127 64.6932 775.991 63.9844 776.599 63.0748C777.207 62.1653 777.531 61.0959 777.531 60.002C777.529 58.5362 776.946 57.1309 775.91 56.0942C774.873 55.0575 773.468 54.474 772.003 54.4715ZM772.003 70.9014C769.847 70.9018 767.739 70.2629 765.947 69.0655C764.154 67.8681 762.757 66.1659 761.931 64.1743C761.106 62.1828 760.89 59.9912 761.31 57.8768C761.731 55.7624 762.769 53.8201 764.293 52.2956C765.817 50.7711 767.759 49.7329 769.874 49.3122C771.988 48.8915 774.18 49.1072 776.171 49.9321C778.163 50.757 779.865 52.154 781.063 53.9464C782.261 55.7389 782.9 57.8462 782.9 60.002C782.898 62.8916 781.749 65.6622 779.706 67.7056C777.663 69.7491 774.892 70.8984 772.003 70.9014Z" fill="#FF0A47"/>
<path d="M1082.94 168.12L1092.61 170.711C1088.45 186.311 1090.64 202.925 1098.71 216.909C1106.78 230.893 1120.06 241.107 1135.65 245.312C1151.26 249.482 1167.89 247.288 1181.88 239.214C1195.87 231.14 1206.09 217.844 1210.29 202.245L1219.96 204.836C1215.06 222.993 1203.16 238.467 1186.87 247.867C1170.59 257.267 1151.23 259.825 1133.06 254.982C1114.92 250.077 1099.46 238.183 1090.06 221.903C1080.67 205.623 1078.11 186.284 1082.94 168.12V168.12Z" fill="#FFD11A"/>
<path d="M1091.53 136.062C1092.51 132.386 1094.21 128.939 1096.53 125.92C1098.85 122.9 1101.74 120.367 1105.03 118.464C1108.33 116.561 1111.97 115.326 1115.74 114.829C1119.51 114.332 1123.35 114.584 1127.02 115.569C1130.7 116.554 1134.15 118.253 1137.17 120.57C1140.18 122.887 1142.72 125.776 1144.62 129.072C1146.52 132.368 1147.76 136.007 1148.26 139.78C1148.75 143.553 1148.5 147.388 1147.52 151.064L1137.72 148.439C1138.36 146.049 1138.52 143.557 1138.2 141.104C1137.88 138.651 1137.07 136.286 1135.84 134.144C1134.6 132.001 1132.95 130.124 1130.99 128.618C1129.03 127.112 1126.79 126.007 1124.4 125.367C1122.01 124.726 1119.52 124.563 1117.06 124.886C1114.61 125.209 1112.25 126.012 1110.1 127.249C1107.96 128.485 1106.08 130.132 1104.58 132.095C1103.07 134.058 1101.97 136.298 1101.33 138.687L1091.53 136.062Z" fill="#FFD11A"/>
<path d="M1258.5 208.192C1242.77 266.873 1182.45 301.697 1123.77 285.974C1065.09 270.25 1030.27 209.933 1045.99 151.252C1061.72 92.5706 1122.03 57.7465 1180.71 73.4701C1239.39 89.1937 1274.22 149.511 1258.5 208.192ZM1053.87 153.363C1039.31 207.693 1071.55 263.539 1125.88 278.096C1180.21 292.654 1236.06 260.412 1250.62 206.081C1265.18 151.751 1232.93 95.9053 1178.6 81.3474C1124.27 66.7895 1068.43 99.0318 1053.87 153.363Z" fill="#FFD11A"/>
<path d="M1172.56 157.775C1173.55 154.099 1175.25 150.653 1177.57 147.633C1179.88 144.614 1182.77 142.08 1186.07 140.177C1189.36 138.274 1193 137.039 1196.78 136.542C1200.55 136.046 1204.38 136.297 1208.06 137.282C1211.74 138.267 1215.18 139.967 1218.2 142.283C1221.22 144.6 1223.75 147.489 1225.66 150.785C1227.56 154.081 1228.8 157.72 1229.29 161.493C1229.79 165.267 1229.54 169.101 1228.55 172.777L1218.75 170.152C1219.39 167.762 1219.56 165.27 1219.24 162.817C1218.91 160.365 1218.11 158 1216.87 155.857C1215.64 153.715 1213.99 151.837 1212.03 150.331C1210.06 148.825 1207.82 147.72 1205.43 147.08C1203.04 146.44 1200.55 146.276 1198.1 146.599C1195.65 146.922 1193.28 147.725 1191.14 148.962C1189 150.199 1187.12 151.846 1185.61 153.808C1184.11 155.771 1183 158.011 1182.36 160.401L1172.56 157.775Z" fill="#FFD11A"/>
</svg>
