<svg width="768" height="356" viewBox="0 0 768 356" fill="none" xmlns="http://www.w3.org/2000/svg">
<g clip-path="url(#clip0_16379_322760)">
<path d="M647.576 65.5422L654.608 67.4266C651.582 78.772 653.179 90.8544 659.047 101.025C664.915 111.195 674.577 118.624 685.914 121.682C697.265 124.714 709.356 123.119 719.533 117.247C729.71 111.375 737.141 101.705 740.197 90.3601L747.23 92.2444C743.666 105.45 735.013 116.704 723.166 123.54C711.319 130.376 697.246 132.237 684.029 128.714C670.833 125.147 659.588 116.497 652.756 104.657C645.924 92.8169 644.061 78.7524 647.576 65.5422V65.5422Z" fill="#FFD11A"/>
<path d="M653.823 42.2271C654.539 39.5535 655.775 37.0471 657.46 34.8511C659.145 32.6552 661.246 30.8126 663.643 29.4286C666.041 28.0447 668.687 27.1464 671.431 26.7851C674.175 26.4238 676.964 26.6066 679.638 27.323C682.311 28.0394 684.817 29.2754 687.013 30.9604C689.209 32.6454 691.052 34.7465 692.436 37.1436C693.82 39.5407 694.718 42.1869 695.08 44.9312C695.441 47.6755 695.258 50.4641 694.542 53.1377L687.416 51.2283C687.881 49.4905 688 47.6779 687.765 45.8941C687.531 44.1103 686.947 42.3903 686.047 40.8322C685.148 39.274 683.95 37.9084 682.523 36.8131C681.095 35.7178 679.466 34.9144 677.728 34.4488C675.99 33.9831 674.178 33.8643 672.394 34.0991C670.61 34.334 668.89 34.9179 667.332 35.8174C665.774 36.717 664.408 37.9147 663.313 39.3421C662.218 40.7695 661.414 42.3986 660.949 44.1364L653.823 42.2271Z" fill="#FFD11A"/>
<path d="M775.253 94.6854C763.818 137.363 719.951 162.689 677.274 151.254C634.597 139.819 609.27 95.9516 620.705 53.2743C632.141 10.597 676.008 -14.7296 718.685 -3.29423C761.362 8.14111 786.689 52.0081 775.253 94.6854ZM626.434 54.8094C615.847 94.3226 639.296 134.937 678.809 145.525C718.322 156.112 758.937 132.664 769.525 93.1503C780.112 53.637 756.663 13.0223 717.15 2.43472C677.637 -8.15283 637.022 15.2961 626.434 54.8094Z" fill="#FFD11A"/>
<path d="M712.758 58.0186C713.474 55.345 714.71 52.8386 716.396 50.6426C718.081 48.4467 720.182 46.6041 722.579 45.2201C724.976 43.8362 727.622 42.9379 730.366 42.5766C733.111 42.2153 735.899 42.3981 738.573 43.1145C741.246 43.8309 743.753 45.0669 745.949 46.7519C748.145 48.4369 749.987 50.538 751.371 52.9351C752.755 55.3322 753.654 57.9784 754.015 60.7227C754.376 63.467 754.193 66.2556 753.477 68.9292L746.351 67.0198C746.817 65.282 746.936 63.4694 746.701 61.6856C746.466 59.9019 745.882 58.1818 744.982 56.6237C744.083 55.0655 742.885 53.6999 741.458 52.6046C740.03 51.5093 738.401 50.7059 736.663 50.2403C734.926 49.7746 733.113 49.6558 731.329 49.8906C729.545 50.1255 727.825 50.7094 726.267 51.6089C724.709 52.5085 723.343 53.7062 722.248 55.1336C721.153 56.561 720.35 58.1901 719.884 59.928L712.758 58.0186Z" fill="#FFD11A"/>
<path d="M450.003 -14.5244C446.932 -14.5247 443.93 -13.6144 441.376 -11.9085C438.823 -10.2027 436.832 -7.77798 435.657 -4.94101C434.481 -2.10404 434.174 1.01773 434.773 4.02958C435.372 7.04142 436.85 9.80802 439.022 11.9795C441.193 14.151 443.96 15.6299 446.972 16.2291C449.984 16.8283 453.106 16.5209 455.943 15.3459C458.781 14.1708 461.206 12.1808 462.912 9.62753C464.618 7.07426 465.529 4.07239 465.529 1.00158C465.526 -3.11498 463.889 -7.06211 460.979 -9.97311C458.068 -12.8841 454.12 -14.521 450.003 -14.5244ZM450.003 21C446.047 21.0003 442.18 19.8276 438.89 17.6301C435.601 15.4326 433.037 12.309 431.523 8.65441C430.009 4.99983 429.613 0.978352 430.384 -2.90141C431.156 -6.78118 433.061 -10.345 435.858 -13.1421C438.656 -15.9393 442.22 -17.8441 446.1 -18.6158C449.98 -19.3874 454.002 -18.9912 457.657 -17.4773C461.312 -15.9633 464.436 -13.3996 466.633 -10.1104C468.831 -6.82118 470.004 -2.95418 470.003 1.00158C469.998 6.30368 467.889 11.3869 464.139 15.1361C460.39 18.8853 455.306 20.9941 450.003 21Z" fill="#FFD11A"/>
<path d="M450.004 -3.6071C449.092 -3.60742 448.201 -3.33739 447.443 -2.83116C446.685 -2.32493 446.094 -1.60523 445.744 -0.763113C445.395 0.0790081 445.304 1.00572 445.481 1.89985C445.659 2.79397 446.098 3.61534 446.743 4.26005C447.387 4.90476 448.208 5.34384 449.103 5.5218C449.997 5.69975 450.923 5.60858 451.766 5.25979C452.608 4.91101 453.328 4.32031 453.835 3.56236C454.341 2.80441 454.611 1.91327 454.611 1.00167C454.61 -0.219873 454.124 -1.39091 453.26 -2.25482C452.397 -3.11872 451.226 -3.60501 450.004 -3.6071ZM450.004 10.0845C448.207 10.0848 446.451 9.5524 444.957 8.55456C443.463 7.55671 442.298 6.13826 441.611 4.47862C440.923 2.81898 440.743 0.992697 441.093 -0.769304C441.443 -2.53131 442.308 -4.14989 443.579 -5.4203C444.849 -6.69072 446.468 -7.55594 448.23 -7.90653C449.992 -8.25712 451.818 -8.07733 453.478 -7.38992C455.138 -6.7025 456.557 -5.53834 457.555 -4.04464C458.553 -2.55094 459.086 -0.794817 459.086 1.00167C459.084 3.40966 458.126 5.71849 456.424 7.42135C454.721 9.12421 452.412 10.082 450.004 10.0845Z" fill="#FFD11A"/>
<path d="M688.002 286L687.992 286C687.992 285.86 687.994 285.721 687.997 285.582C687.889 280.961 686.005 276.552 682.728 273.275C679.359 269.907 674.793 268.012 670.029 268.003C674.794 267.993 679.361 266.097 682.73 262.728C686.006 259.452 687.889 255.044 687.997 250.423C687.994 250.282 687.992 250.141 687.992 250H688.002C688.002 250.141 688.001 250.282 687.997 250.423C688.107 255.044 689.991 259.452 693.268 262.728C696.638 266.097 701.206 267.993 705.971 268.003C701.207 268.012 696.64 269.907 693.27 273.275C689.992 276.551 688.107 280.96 687.997 285.582C688.001 285.721 688.002 285.86 688.002 286Z" fill="#FFD11A"/>
</g>
<defs>
<clipPath id="clip0_16379_322760">
<rect width="768" height="356" fill="white"/>
</clipPath>
</defs>
</svg>
