<svg width="360" height="608" viewBox="0 0 360 608" fill="none" xmlns="http://www.w3.org/2000/svg">
<g clip-path="url(#clip0_16379_322886)">
<path d="M261.576 30.5422L268.608 32.4266C265.582 43.772 267.179 55.8544 273.047 66.0247C278.915 76.1951 288.577 83.6237 299.914 86.6818C311.265 89.714 323.356 88.119 333.533 82.2469C343.71 76.3748 351.141 66.7052 354.197 55.3601L361.23 57.2444C357.666 70.4497 349.013 81.7037 337.166 88.5398C325.319 95.376 311.246 97.2368 298.029 93.7144C284.833 90.1471 273.588 81.4966 266.756 69.6568C259.924 57.8169 258.061 43.7524 261.576 30.5422V30.5422Z" fill="#FFD11A"/>
<path d="M267.823 7.22685C268.539 4.55321 269.775 2.04686 271.46 -0.149104C273.145 -2.34507 275.246 -4.18764 277.643 -5.57162C280.041 -6.95559 282.687 -7.85387 285.431 -8.21516C288.175 -8.57645 290.964 -8.39368 293.638 -7.67728C296.311 -6.96088 298.817 -5.72488 301.013 -4.03985C303.209 -2.35483 305.052 -0.253778 306.436 2.14334C307.82 4.54046 308.718 7.1867 309.08 9.93097C309.441 12.6752 309.258 15.4638 308.542 18.1374L301.416 16.2281C301.881 14.4902 302 12.6777 301.765 10.8939C301.531 9.1101 300.947 7.39005 300.047 5.83192C299.148 4.27379 297.95 2.90811 296.523 1.81285C295.095 0.717579 293.466 -0.0858191 291.728 -0.551479C289.99 -1.01714 288.178 -1.13594 286.394 -0.901103C284.61 -0.666265 282.89 -0.0823851 281.332 0.817199C279.774 1.71678 278.408 2.91446 277.313 4.34183C276.218 5.76921 275.414 7.39834 274.949 9.1362L267.823 7.22685Z" fill="#FFD11A"/>
<path d="M389.253 59.6854C377.818 102.363 333.951 127.689 291.274 116.254C248.597 104.819 223.27 60.9516 234.705 18.2743C246.141 -24.403 290.008 -49.7296 332.685 -38.2942C375.362 -26.8589 400.689 17.0081 389.253 59.6854ZM240.434 19.8094C229.847 59.3226 253.296 99.9374 292.809 110.525C332.322 121.112 372.937 97.6636 383.525 58.1503C394.112 18.637 370.663 -21.9777 331.15 -32.5653C291.637 -43.1528 251.022 -19.7039 240.434 19.8094Z" fill="#FFD11A"/>
<path d="M326.758 23.0186C327.474 20.345 328.71 17.8386 330.396 15.6426C332.081 13.4467 334.182 11.6041 336.579 10.2201C338.976 8.83615 341.622 7.93788 344.366 7.57659C347.111 7.2153 349.899 7.39807 352.573 8.11447C355.246 8.83087 357.753 10.0669 359.949 11.7519C362.145 13.4369 363.987 15.538 365.371 17.9351C366.755 20.3322 367.654 22.9784 368.015 25.7227C368.376 28.467 368.193 31.2556 367.477 33.9292L360.351 32.0198C360.817 30.282 360.936 28.4694 360.701 26.6856C360.466 24.9019 359.882 23.1818 358.982 21.6237C358.083 20.0655 356.885 18.6999 355.458 17.6046C354.03 16.5093 352.401 15.7059 350.663 15.2403C348.926 14.7746 347.113 14.6558 345.329 14.8906C343.545 15.1255 341.825 15.7094 340.267 16.6089C338.709 17.5085 337.343 18.7062 336.248 20.1336C335.153 21.561 334.35 23.1901 333.884 24.928L326.758 23.0186Z" fill="#FFD11A"/>
<path d="M0.00331879 -15.5244C-3.06776 -15.5247 -6.06995 -14.6144 -8.62361 -12.9085C-11.1773 -11.2027 -13.1677 -8.77798 -14.3432 -5.94101C-15.5186 -3.10404 -15.8263 0.0177345 -15.2274 3.02958C-14.6284 6.04142 -13.1498 8.80802 -10.9783 10.9795C-8.80682 13.151 -6.04012 14.6299 -3.02808 15.2291C-0.0160351 15.8283 3.10607 15.5209 5.94341 14.3459C8.78074 13.1708 11.2059 11.1808 12.9121 8.62753C14.6184 6.07426 15.5291 3.07239 15.5291 0.00157928C15.5261 -4.11498 13.8895 -8.06211 10.9785 -10.9731C8.06758 -13.8841 4.12024 -15.521 0.00331879 -15.5244ZM0.00331879 20C-3.95278 20.0003 -7.82012 18.8276 -11.1096 16.6301C-14.3991 14.4326 -16.9631 11.309 -18.4771 7.65441C-19.9912 3.99983 -20.3875 -0.0216484 -19.6157 -3.90141C-18.844 -7.78118 -16.939 -11.345 -14.1416 -14.1421C-11.3442 -16.9393 -7.78012 -18.8441 -3.90002 -19.6158C-0.0199146 -20.3874 4.00191 -19.9912 7.65681 -18.4773C11.3117 -16.9633 14.4356 -14.3996 16.6333 -11.1104C18.831 -7.82118 20.0038 -3.95418 20.0035 0.00157928C19.9976 5.30368 17.8885 10.3869 14.1391 14.1361C10.3896 17.8853 5.30588 19.9941 0.00331879 20Z" fill="#FFD11A"/>
<path d="M0.0038662 -4.6071C-0.907812 -4.60742 -1.7991 -4.33739 -2.55729 -3.83116C-3.31547 -3.32493 -3.9065 -2.60523 -4.2556 -1.76311C-4.6047 -0.920992 -4.69618 0.00572395 -4.51851 0.899847C-4.34085 1.79397 -3.90201 2.61534 -3.25747 3.26005C-2.61292 3.90476 -1.79163 4.34384 -0.89749 4.5218C-0.0033493 4.69975 0.923466 4.60858 1.76578 4.25979C2.60809 3.91101 3.32805 3.32031 3.83458 2.56236C4.34112 1.80441 4.61149 0.913267 4.61149 0.00166512C4.60981 -1.21987 4.12389 -2.39091 3.26021 -3.25482C2.39652 -4.11872 1.22551 -4.60501 0.0038662 -4.6071ZM0.0038662 9.0845C-1.79277 9.08482 -3.54915 8.5524 -5.04315 7.55456C-6.53715 6.55671 -7.70165 5.13826 -8.38941 3.47862C-9.07717 1.81898 -9.25728 -0.00730324 -8.90696 -1.7693C-8.55665 -3.53131 -7.69167 -5.14989 -6.42137 -6.4203C-5.15106 -7.69072 -3.53249 -8.55594 -1.7704 -8.90653C-0.00830269 -9.25712 1.81816 -9.07733 3.47807 -8.38992C5.13797 -7.7025 6.55675 -6.53834 7.55494 -5.04464C8.55313 -3.55094 9.08591 -1.79482 9.08591 0.00166512C9.08381 2.40966 8.12636 4.71849 6.42365 6.42135C4.72093 8.12421 2.41207 9.08198 0.0038662 9.0845Z" fill="#FFD11A"/>
<path d="M330.002 436L329.992 436C329.992 435.86 329.994 435.721 329.997 435.582C329.889 430.961 328.005 426.552 324.728 423.275C321.359 419.907 316.793 418.012 312.029 418.003C316.794 417.993 321.361 416.097 324.73 412.728C328.006 409.452 329.889 405.044 329.997 400.423C329.994 400.282 329.992 400.141 329.992 400H330.002C330.002 400.141 330.001 400.282 329.997 400.423C330.107 405.044 331.991 409.452 335.268 412.728C338.638 416.097 343.206 417.993 347.971 418.003C343.207 418.012 338.64 419.907 335.27 423.275C331.992 426.551 330.107 430.96 329.997 435.582C330.001 435.721 330.002 435.86 330.002 436Z" fill="#FFD11A"/>
</g>
<defs>
<clipPath id="clip0_16379_322886">
<rect width="360" height="608" fill="white"/>
</clipPath>
</defs>
</svg>
