    <svg
      class="icon2"
      xmlns="http://www.w3.org/2000/svg"
      fill="none"
      viewBox="0 0 35 36"
    ><path
      fill="#fff"
      d="M7.3.9 0 27.9l27 7.3 7.3-27L7.3.8Zm17 29.4L4.9 25l5.2-19.3L29.4 11l-5.1 19.3Z"
    /><path
      fill="#fff"
      d="m19.6 21.6-2-3.5 3.4-1.9 1.5-5.3L12 16.6l6.2 10.2 1.4-5.2Z"
    /><path
      fill="#fff"
      d="M8 2.1 1.3 27.2l25 6.8 6.8-25.2L8 2.1Zm15.8 27.3-18-4.8 4.8-18 18 4.9-4.8 17.9Z"
    /><path
      fill="#fff"
      d="m19.4 21.3-2-3.2 3.3-1.7 1.4-5-9.7 5.3 5.7 9.5 1.3-4.9Z"
    /></svg>