    <svg
      class="icon1"
      xmlns="http://www.w3.org/2000/svg"
      fill="none"
      viewBox="0 0 31 26"
    ><path
      fill="#fff"
      fill-rule="evenodd"
      d="M7 2.6.3 23l6-3 16 5.3a3 3 0 0 0 2.3-.2 3 3 0 0 0 1.6-1.8l4.3-13.1a3 3 0 0 0-.2-2.4 3 3 0 0 0-1.8-1.5L10.9.6a3 3 0 0 0-2.3.2A3 3 0 0 0 7 2.6Zm4 10.8a1.5 1.5 0 1 0 .9-2.8 1.5 1.5 0 0 0-1 2.8Zm7 .7a1.5 1.5 0 1 1-2.9-1 1.5 1.5 0 0 1 2.8 1Zm3.2 2.5a1.5 1.5 0 1 0 .9-2.8 1.5 1.5 0 0 0-1 2.8Z"
      clip-rule="evenodd"
    /></svg>