<svg width="216" height="216" viewBox="0 0 216 216" fill="none" xmlns="http://www.w3.org/2000/svg">
<g filter="url(#filter0_ii_1203_2958)">
<path d="M215.365 108.183C215.365 167.378 167.378 215.365 108.183 215.365C48.9873 215.365 1 167.378 1 108.183C1 48.9873 48.9873 1 108.183 1C167.378 1 215.365 48.9873 215.365 108.183Z" fill="#F5F5F6"/>
</g>
<g filter="url(#filter1_dii_1203_2958)">
<path d="M107.804 133.637C100.657 133.637 94.5646 131.119 89.5271 126.081C84.4896 121.044 81.9708 114.951 81.9708 107.804C81.9708 100.657 84.4896 94.5646 89.5271 89.5271C94.5646 84.4896 100.657 81.9708 107.804 81.9708C114.951 81.9708 121.044 84.4896 126.081 89.5271C131.119 94.5646 133.637 100.657 133.637 107.804C133.637 114.951 131.119 121.044 126.081 126.081C121.044 131.119 114.951 133.637 107.804 133.637ZM74.6083 115.942H48V99.6667H74.6083V115.942ZM167.608 115.942H141V99.6667H167.608V115.942ZM99.6667 74.6083V48H115.942V74.6083H99.6667ZM99.6667 167.608V141H115.942V167.608H99.6667ZM78.7417 90.2375L61.6917 73.575L73.0583 61.5625L89.85 78.3542L78.7417 90.2375ZM142.55 154.046L125.629 137.125L136.737 125.629L153.917 142.033L142.55 154.046ZM125.629 78.8708L142.033 61.6917L154.046 73.0583L137.254 89.85L125.629 78.8708ZM61.5625 142.55L78.4833 125.629L89.9792 136.737L73.575 153.917L61.5625 142.55Z" fill="#ED131C"/>
</g>
<defs>
<filter id="filter0_ii_1203_2958" x="-4.57836" y="1" width="226.463" height="220.104" filterUnits="userSpaceOnUse" color-interpolation-filters="sRGB">
<feFlood flood-opacity="0" result="BackgroundImageFix"/>
<feBlend mode="normal" in="SourceGraphic" in2="BackgroundImageFix" result="shape"/>
<feColorMatrix in="SourceAlpha" type="matrix" values="0 0 0 0 0 0 0 0 0 0 0 0 0 0 0 0 0 0 127 0" result="hardAlpha"/>
<feOffset dx="-5.57836"/>
<feGaussianBlur stdDeviation="7.28277"/>
<feComposite in2="hardAlpha" operator="arithmetic" k2="-1" k3="1"/>
<feColorMatrix type="matrix" values="0 0 0 0 0.98903 0 0 0 0 0.98903 0 0 0 0 0.98903 0 0 0 1 0"/>
<feBlend mode="normal" in2="shape" result="effect1_innerShadow_1203_2958"/>
<feColorMatrix in="SourceAlpha" type="matrix" values="0 0 0 0 0 0 0 0 0 0 0 0 0 0 0 0 0 0 127 0" result="hardAlpha"/>
<feOffset dx="6.51957" dy="5.73906"/>
<feGaussianBlur stdDeviation="4.43055"/>
<feComposite in2="hardAlpha" operator="arithmetic" k2="-1" k3="1"/>
<feColorMatrix type="matrix" values="0 0 0 0 0.550342 0 0 0 0 0.550342 0 0 0 0 0.550342 0 0 0 0.15 0"/>
<feBlend mode="normal" in2="effect1_innerShadow_1203_2958" result="effect2_innerShadow_1203_2958"/>
</filter>
<filter id="filter1_dii_1203_2958" x="21.8228" y="29.0943" width="157.42" height="157.42" filterUnits="userSpaceOnUse" color-interpolation-filters="sRGB">
<feFlood flood-opacity="0" result="BackgroundImageFix"/>
<feColorMatrix in="SourceAlpha" type="matrix" values="0 0 0 0 0 0 0 0 0 0 0 0 0 0 0 0 0 0 127 0" result="hardAlpha"/>
<feOffset dx="-7.27144"/>
<feGaussianBlur stdDeviation="9.45287"/>
<feComposite in2="hardAlpha" operator="out"/>
<feColorMatrix type="matrix" values="0 0 0 0 0.531836 0 0 0 0 0.0249038 0 0 0 0 0.0447835 0 0 0 0.2 0"/>
<feBlend mode="normal" in2="BackgroundImageFix" result="effect1_dropShadow_1203_2958"/>
<feBlend mode="normal" in="SourceGraphic" in2="effect1_dropShadow_1203_2958" result="shape"/>
<feColorMatrix in="SourceAlpha" type="matrix" values="0 0 0 0 0 0 0 0 0 0 0 0 0 0 0 0 0 0 127 0" result="hardAlpha"/>
<feOffset dx="-4.52784"/>
<feGaussianBlur stdDeviation="4.52784"/>
<feComposite in2="hardAlpha" operator="arithmetic" k2="-1" k3="1"/>
<feColorMatrix type="matrix" values="0 0 0 0 1 0 0 0 0 0.3125 0 0 0 0 0.340883 0 0 0 1 0"/>
<feBlend mode="normal" in2="shape" result="effect2_innerShadow_1203_2958"/>
<feColorMatrix in="SourceAlpha" type="matrix" values="0 0 0 0 0 0 0 0 0 0 0 0 0 0 0 0 0 0 127 0" result="hardAlpha"/>
<feOffset dx="4.52784"/>
<feGaussianBlur stdDeviation="3.96186"/>
<feComposite in2="hardAlpha" operator="arithmetic" k2="-1" k3="1"/>
<feColorMatrix type="matrix" values="0 0 0 0 0.8375 0 0 0 0 0.0628125 0 0 0 0 0.094795 0 0 0 1 0"/>
<feBlend mode="normal" in2="effect2_innerShadow_1203_2958" result="effect3_innerShadow_1203_2958"/>
</filter>
</defs>
</svg>
