<svg width="216" height="215" viewBox="0 0 216 215" fill="none" xmlns="http://www.w3.org/2000/svg">
<g filter="url(#filter0_ii_1203_2977)">
<path d="M215.365 107.817C215.365 167.013 167.378 215 108.183 215C48.9873 215 1 167.013 1 107.817C1 48.622 48.9873 0.634766 108.183 0.634766C167.378 0.634766 215.365 48.622 215.365 107.817Z" fill="#F5F5F6"/>
</g>
<g filter="url(#filter1_dii_1203_2977)">
<path d="M78.4737 75.5789V63.7895C78.4737 60.5474 79.6281 57.7719 81.9368 55.4632C84.2456 53.1544 87.0211 52 90.2632 52H125.632C128.874 52 131.649 53.1544 133.958 55.4632C136.267 57.7719 137.421 60.5474 137.421 63.7895V75.5789H155.105C158.347 75.5789 161.123 76.7333 163.432 79.0421C165.74 81.3509 166.895 84.1263 166.895 87.3684V152.211C166.895 155.453 165.74 158.228 163.432 160.537C161.123 162.846 158.347 164 155.105 164H60.7895C57.5474 164 54.7719 162.846 52.4632 160.537C50.1544 158.228 49 155.453 49 152.211V87.3684C49 84.1263 50.1544 81.3509 52.4632 79.0421C54.7719 76.7333 57.5474 75.5789 60.7895 75.5789H78.4737ZM90.2632 75.5789H125.632V63.7895H90.2632V75.5789ZM60.7895 140.421H155.105V122.737H60.7895V140.421Z" fill="#ED131C"/>
</g>
<defs>
<filter id="filter0_ii_1203_2977" x="-4.57836" y="0.634766" width="226.463" height="220.104" filterUnits="userSpaceOnUse" color-interpolation-filters="sRGB">
<feFlood flood-opacity="0" result="BackgroundImageFix"/>
<feBlend mode="normal" in="SourceGraphic" in2="BackgroundImageFix" result="shape"/>
<feColorMatrix in="SourceAlpha" type="matrix" values="0 0 0 0 0 0 0 0 0 0 0 0 0 0 0 0 0 0 127 0" result="hardAlpha"/>
<feOffset dx="-5.57836"/>
<feGaussianBlur stdDeviation="7.28277"/>
<feComposite in2="hardAlpha" operator="arithmetic" k2="-1" k3="1"/>
<feColorMatrix type="matrix" values="0 0 0 0 0.98903 0 0 0 0 0.98903 0 0 0 0 0.98903 0 0 0 1 0"/>
<feBlend mode="normal" in2="shape" result="effect1_innerShadow_1203_2977"/>
<feColorMatrix in="SourceAlpha" type="matrix" values="0 0 0 0 0 0 0 0 0 0 0 0 0 0 0 0 0 0 127 0" result="hardAlpha"/>
<feOffset dx="6.51957" dy="5.73906"/>
<feGaussianBlur stdDeviation="4.43055"/>
<feComposite in2="hardAlpha" operator="arithmetic" k2="-1" k3="1"/>
<feColorMatrix type="matrix" values="0 0 0 0 0.550342 0 0 0 0 0.550342 0 0 0 0 0.550342 0 0 0 0.15 0"/>
<feBlend mode="normal" in2="effect1_innerShadow_1203_2977" result="effect2_innerShadow_1203_2977"/>
</filter>
<filter id="filter1_dii_1203_2977" x="22.8228" y="33.0943" width="155.706" height="149.811" filterUnits="userSpaceOnUse" color-interpolation-filters="sRGB">
<feFlood flood-opacity="0" result="BackgroundImageFix"/>
<feColorMatrix in="SourceAlpha" type="matrix" values="0 0 0 0 0 0 0 0 0 0 0 0 0 0 0 0 0 0 127 0" result="hardAlpha"/>
<feOffset dx="-7.27144"/>
<feGaussianBlur stdDeviation="9.45287"/>
<feComposite in2="hardAlpha" operator="out"/>
<feColorMatrix type="matrix" values="0 0 0 0 0.531836 0 0 0 0 0.0249038 0 0 0 0 0.0447835 0 0 0 0.2 0"/>
<feBlend mode="normal" in2="BackgroundImageFix" result="effect1_dropShadow_1203_2977"/>
<feBlend mode="normal" in="SourceGraphic" in2="effect1_dropShadow_1203_2977" result="shape"/>
<feColorMatrix in="SourceAlpha" type="matrix" values="0 0 0 0 0 0 0 0 0 0 0 0 0 0 0 0 0 0 127 0" result="hardAlpha"/>
<feOffset dx="-4.52784"/>
<feGaussianBlur stdDeviation="4.52784"/>
<feComposite in2="hardAlpha" operator="arithmetic" k2="-1" k3="1"/>
<feColorMatrix type="matrix" values="0 0 0 0 1 0 0 0 0 0.3125 0 0 0 0 0.340883 0 0 0 1 0"/>
<feBlend mode="normal" in2="shape" result="effect2_innerShadow_1203_2977"/>
<feColorMatrix in="SourceAlpha" type="matrix" values="0 0 0 0 0 0 0 0 0 0 0 0 0 0 0 0 0 0 127 0" result="hardAlpha"/>
<feOffset dx="4.52784"/>
<feGaussianBlur stdDeviation="3.96186"/>
<feComposite in2="hardAlpha" operator="arithmetic" k2="-1" k3="1"/>
<feColorMatrix type="matrix" values="0 0 0 0 0.8375 0 0 0 0 0.0628125 0 0 0 0 0.094795 0 0 0 1 0"/>
<feBlend mode="normal" in2="effect2_innerShadow_1203_2977" result="effect3_innerShadow_1203_2977"/>
</filter>
</defs>
</svg>
