<svg width="199" height="221" viewBox="0 0 199 221" fill="none" xmlns="http://www.w3.org/2000/svg">
<g filter="url(#filter0_ii_1203_3030)">
<path d="M22.1 221C16.0225 221 10.8198 218.836 6.49188 214.508C2.16396 210.18 0 204.978 0 198.9V44.2C0 38.1225 2.16396 32.9198 6.49188 28.5919C10.8198 24.264 16.0225 22.1 22.1 22.1H68.51C71.0883 15.47 75.14 10.1292 80.665 6.0775C86.19 2.02583 92.4517 0 99.45 0C106.448 0 112.71 2.02583 118.235 6.0775C123.76 10.1292 127.812 15.47 130.39 22.1H176.8C182.878 22.1 188.08 24.264 192.408 28.5919C196.736 32.9198 198.9 38.1225 198.9 44.2V198.9C198.9 204.978 196.736 210.18 192.408 214.508C188.08 218.836 182.878 221 176.8 221H22.1ZM99.45 35.9125C101.844 35.9125 103.824 35.1298 105.389 33.5644C106.955 31.999 107.738 30.0192 107.738 27.625C107.738 25.2308 106.955 23.251 105.389 21.6856C103.824 20.1202 101.844 19.3375 99.45 19.3375C97.0558 19.3375 95.076 20.1202 93.5106 21.6856C91.9452 23.251 91.1625 25.2308 91.1625 27.625C91.1625 30.0192 91.9452 31.999 93.5106 33.5644C95.076 35.1298 97.0558 35.9125 99.45 35.9125ZM99.45 132.6C110.132 132.6 119.248 128.825 126.799 121.274C134.35 113.723 138.125 104.607 138.125 93.925C138.125 83.2433 134.35 74.1271 126.799 66.5762C119.248 59.0254 110.132 55.25 99.45 55.25C88.7683 55.25 79.6521 59.0254 72.1012 66.5762C64.5504 74.1271 60.775 83.2433 60.775 93.925C60.775 104.607 64.5504 113.723 72.1012 121.274C79.6521 128.825 88.7683 132.6 99.45 132.6ZM22.1 198.9H176.8V186.193C166.855 176.432 155.299 168.743 142.131 163.126C128.963 157.509 114.736 154.7 99.45 154.7C84.1642 154.7 69.9373 157.509 56.7694 163.126C43.6015 168.743 32.045 176.432 22.1 186.193V198.9Z" fill="#E0E1E5"/>
</g>
<defs>
<filter id="filter0_ii_1203_3030" x="-4.86" y="0" width="209.44" height="226" filterUnits="userSpaceOnUse" color-interpolation-filters="sRGB">
<feFlood flood-opacity="0" result="BackgroundImageFix"/>
<feBlend mode="normal" in="SourceGraphic" in2="BackgroundImageFix" result="shape"/>
<feColorMatrix in="SourceAlpha" type="matrix" values="0 0 0 0 0 0 0 0 0 0 0 0 0 0 0 0 0 0 127 0" result="hardAlpha"/>
<feOffset dx="-4.86"/>
<feGaussianBlur stdDeviation="6.34492"/>
<feComposite in2="hardAlpha" operator="arithmetic" k2="-1" k3="1"/>
<feColorMatrix type="matrix" values="0 0 0 0 0.98903 0 0 0 0 0.98903 0 0 0 0 0.98903 0 0 0 1 0"/>
<feBlend mode="normal" in2="shape" result="effect1_innerShadow_1203_3030"/>
<feColorMatrix in="SourceAlpha" type="matrix" values="0 0 0 0 0 0 0 0 0 0 0 0 0 0 0 0 0 0 127 0" result="hardAlpha"/>
<feOffset dx="5.68" dy="5"/>
<feGaussianBlur stdDeviation="3.86"/>
<feComposite in2="hardAlpha" operator="arithmetic" k2="-1" k3="1"/>
<feColorMatrix type="matrix" values="0 0 0 0 0.550342 0 0 0 0 0.550342 0 0 0 0 0.550342 0 0 0 0.15 0"/>
<feBlend mode="normal" in2="effect1_innerShadow_1203_3030" result="effect2_innerShadow_1203_3030"/>
</filter>
</defs>
</svg>
