<svg width="199" height="224" viewBox="0 0 199 224" fill="none" xmlns="http://www.w3.org/2000/svg">
<g filter="url(#filter0_ii_1203_3023)">
<path d="M22.1111 224C16.0306 224 10.8252 221.807 6.49514 217.42C2.16505 213.033 0 207.76 0 201.6V44.8C0 38.64 2.16505 33.3667 6.49514 28.98C10.8252 24.5933 16.0306 22.4 22.1111 22.4H68.5444C70.9398 15.68 74.9474 10.2667 80.5674 6.16C86.1873 2.05333 92.4981 0 99.5 0C106.502 0 112.813 2.05333 118.433 6.16C124.053 10.2667 128.06 15.68 130.456 22.4H176.889C182.969 22.4 188.175 24.5933 192.505 28.98C196.835 33.3667 199 38.64 199 44.8V201.6C199 207.76 196.835 213.033 192.505 217.42C188.175 221.807 182.969 224 176.889 224H22.1111ZM44.2222 179.2H121.611V156.8H44.2222V179.2ZM44.2222 134.4H154.778V112H44.2222V134.4ZM44.2222 89.6H154.778V67.2H44.2222V89.6ZM99.5 36.4C101.895 36.4 103.876 35.6067 105.442 34.02C107.009 32.4333 107.792 30.4267 107.792 28C107.792 25.5733 107.009 23.5667 105.442 21.98C103.876 20.3933 101.895 19.6 99.5 19.6C97.1046 19.6 95.1238 20.3933 93.5576 21.98C91.9914 23.5667 91.2083 25.5733 91.2083 28C91.2083 30.4267 91.9914 32.4333 93.5576 34.02C95.1238 35.6067 97.1046 36.4 99.5 36.4Z" fill="#E0E1E5"/>
</g>
<defs>
<filter id="filter0_ii_1203_3023" x="-4.86" y="0" width="209.54" height="229" filterUnits="userSpaceOnUse" color-interpolation-filters="sRGB">
<feFlood flood-opacity="0" result="BackgroundImageFix"/>
<feBlend mode="normal" in="SourceGraphic" in2="BackgroundImageFix" result="shape"/>
<feColorMatrix in="SourceAlpha" type="matrix" values="0 0 0 0 0 0 0 0 0 0 0 0 0 0 0 0 0 0 127 0" result="hardAlpha"/>
<feOffset dx="-4.86"/>
<feGaussianBlur stdDeviation="6.34492"/>
<feComposite in2="hardAlpha" operator="arithmetic" k2="-1" k3="1"/>
<feColorMatrix type="matrix" values="0 0 0 0 0.98903 0 0 0 0 0.98903 0 0 0 0 0.98903 0 0 0 1 0"/>
<feBlend mode="normal" in2="shape" result="effect1_innerShadow_1203_3023"/>
<feColorMatrix in="SourceAlpha" type="matrix" values="0 0 0 0 0 0 0 0 0 0 0 0 0 0 0 0 0 0 127 0" result="hardAlpha"/>
<feOffset dx="5.68" dy="5"/>
<feGaussianBlur stdDeviation="3.86"/>
<feComposite in2="hardAlpha" operator="arithmetic" k2="-1" k3="1"/>
<feColorMatrix type="matrix" values="0 0 0 0 0.550342 0 0 0 0 0.550342 0 0 0 0 0.550342 0 0 0 0.15 0"/>
<feBlend mode="normal" in2="effect1_innerShadow_1203_3023" result="effect2_innerShadow_1203_3023"/>
</filter>
</defs>
</svg>
