<svg xmlns="http://www.w3.org/2000/svg" width="24" height="24" viewBox="0 0 24 24" fill="none">
    <mask id="path-1-inside-1_1203_2889" fill="white">
        <path d="M11.5 3C9.62108 3 7.78435 3.55717 6.22208 4.60104C4.65982 5.64491 3.44218 7.12861 2.72314 8.86451C2.00411 10.6004 1.81598 12.5105 2.18254 14.3534C2.5491 16.1962 3.45389 17.8889 4.78249 19.2175C6.11108 20.5461 7.80382 21.4509 9.64664 21.8175C11.4895 22.184 13.3996 21.9959 15.1355 21.2769C16.8714 20.5578 18.3551 19.3402 19.399 17.7779C20.4428 16.2157 21 14.3789 21 12.5H11.5V3Z"/>
    </mask>
    <path d="M11.5 3C9.62108 3 7.78435 3.55717 6.22208 4.60104C4.65982 5.64491 3.44218 7.12861 2.72314 8.86451C2.00411 10.6004 1.81598 12.5105 2.18254 14.3534C2.5491 16.1962 3.45389 17.8889 4.78249 19.2175C6.11108 20.5461 7.80382 21.4509 9.64664 21.8175C11.4895 22.184 13.3996 21.9959 15.1355 21.2769C16.8714 20.5578 18.3551 19.3402 19.399 17.7779C20.4428 16.2157 21 14.3789 21 12.5H11.5V3Z" stroke="white" stroke-width="3.6" mask="url(#path-1-inside-1_1203_2889)"/>
    <path d="M16.9999 3.09619V11.0962M21.0049 7.09119L13.0049 7.09119" stroke="white" stroke-width="1.8"/>
</svg>
