<svg xmlns="http://www.w3.org/2000/svg" width="176" height="48" fill="none"><path fill="#6E708C" d="M78.42 2.146c1.344.22 2.532.74 3.563 1.556 1.058.845 1.909 1.901 2.551 3.167.422.83.774 1.7 1.057 2.607.077.255.116.52.116.796-.002.117-.05.138-.143.063a1.199 1.199 0 0 1-.374-.44 12.468 12.468 0 0 0-1.69-2.528 7.416 7.416 0 0 0-2.813-2.06c-1.424-.596-2.976-.777-4.657-.543-.032-.014.01-.067.126-.158a.067.067 0 0 0 .027-.052c.037-.746.038-1.475.004-2.188a.113.113 0 0 0-.052-.09c-.063-.043-.084-.079-.06-.107.024-.03.016-.041-.022-.034-.165.048-.357.08-.576.096-.04.003-.061-.013-.066-.05-.005-.022-.158-.026-.459-.011a9.614 9.614 0 0 1 3.469-.024Z"/><path fill="#6E708C" d="M76.075 2.169c-.024.028-.003.064.06.108a.113.113 0 0 1 .052.09c.034.712.033 1.44-.004 2.187 0 .021-.01.039-.027.052-.116.091-.158.144-.126.158-1.565.235-3.122.724-4.67 1.466a27.146 27.146 0 0 0-3.556 2.046 38.871 38.871 0 0 0-4.098 3.217c-.025-.097.002-.16.08-.187a.167.167 0 0 0 .087-.066c.198-.28.431-.525.7-.735a.219.219 0 0 0 .09-.182 73.28 73.28 0 0 1 0-2.552c.003-.153-.053-.241-.169-.265a.079.079 0 0 0-.088.037c-.083.127-.201.154-.355.082 2.095-1.71 4.312-3.1 6.653-4.165a16.559 16.559 0 0 1 4.248-1.29c.3-.015.454-.01.46.011.004.037.026.053.065.05.219-.016.41-.048.576-.096.038-.007.046.004.022.034Z"/><path fill="#6E708C" d="M64.494 7.506c.116.024.172.112.17.265a73.28 73.28 0 0 0 0 2.552c0 .075-.03.136-.09.182-.27.21-.503.455-.701.735a.167.167 0 0 1-.088.066c-.077.027-.104.09-.08.187a52.996 52.996 0 0 0-5.71 6.002 61.74 61.74 0 0 0-6.035 8.915c.03-.147.095-.3.192-.462.016-.026.01-.053-.015-.078a.083.083 0 0 1 .003-.097c.068-.121.135-.276.2-.465a.136.136 0 0 0-.001-.102.172.172 0 0 1-.034-.103v-2.756a.36.36 0 0 0-.059-.2c-.004-.022-.036-.005-.094.05-.071.077-.081.058-.03-.056.047-.101.038-.166-.026-.192a52.486 52.486 0 0 1 6.964-9.61 44.14 44.14 0 0 1 4.991-4.714c.154.072.272.045.355-.082a.079.079 0 0 1 .088-.037ZM71.28 13.373c.324.015.487.026.488.03-.553-.01-.83-.001-.831.03 0 .006.07.02.21.04.03.025.064.034.102.026.122-.034.18.046.176.239a76.685 76.685 0 0 0-.007 3.732.247.247 0 0 1-.16.24.917.917 0 0 0-.327.24.206.206 0 0 1-.092.061c-.175.06-.34.15-.492.268-1.698.75-3.38 1.483-5.047 2.198a.3.3 0 0 1-.112.024c-.207.005-.289-.09-.246-.286a.505.505 0 0 1 .037-.107c.792-1.576 1.552-3.084 2.278-4.523a5.802 5.802 0 0 1 1.231-1.641c.303-.267.64-.43 1.013-.49.52-.1 1.112-.127 1.778-.08Z"/><path fill="#6E708C" d="M71.28 13.373c3.07-.005 6.199-.007 9.385-.004.096 0 .145.047.146.142.025 2.004.015 3.992-.03 5.966-.007.294-.124.47-.352.525a.577.577 0 0 1-.114.018 22.67 22.67 0 0 1-2.477-.003c-.192-.01-.248-.103-.168-.277.813-1.787 1.648-3.64 2.505-5.562.058-.131.02-.168-.113-.11a3971.948 3971.948 0 0 1-9.715 4.211c.153-.119.317-.208.492-.268a.206.206 0 0 0 .092-.061.917.917 0 0 1 .328-.24.247.247 0 0 0 .16-.24 76.685 76.685 0 0 1 .006-3.732c.005-.193-.054-.273-.176-.239a.115.115 0 0 1-.101-.026c-.14-.02-.211-.034-.211-.04.001-.031.278-.04.831-.03 0-.005-.164-.015-.489-.03ZM52.096 21.949c.064.026.073.09.027.192-.052.114-.042.133.03.057.057-.056.089-.073.093-.05a.36.36 0 0 1 .059.199v2.756c0 .037.011.072.034.103a.136.136 0 0 1 .002.102 3.009 3.009 0 0 1-.2.465.083.083 0 0 0-.004.097c.026.025.03.052.015.078a1.513 1.513 0 0 0-.192.462c-1.456 2.687-2.653 5.358-3.59 8.012a38.807 38.807 0 0 0-2.011 9.12c-.044.45-.063.905-.059 1.364.01.437-.018.787-.087 1.05-.018.058-.047.058-.087 0a6.304 6.304 0 0 1-.088-.852 37.36 37.36 0 0 1 .292-6.648 42.627 42.627 0 0 1 2.324-9.155 51.637 51.637 0 0 1 3.442-7.352ZM65.683 22.318c3.265.006 6.53.007 9.794.005-1.525.012-3.06.02-4.606.024-.493.001-.979.02-1.457.056-.15.007-.236.016-.259.028-.017.034-.006.05.033.05.133-.004.245.006.337.03.038.008.057.032.056.07a699.001 699.001 0 0 0-.021 10.846c.003.488-.012.931-.044 1.329-.005.038.011.05.048.037.048-.016.071-.025.07-.028a.33.33 0 0 1-.045.234c-.14.23-.18.342-.117.336-.167.385-.354.76-.56 1.126a2.36 2.36 0 0 1-.933.909 3.585 3.585 0 0 1-1.45.4.416.416 0 0 0-.185-.032c-.11 0-.165-.053-.165-.16.012-4.88.012-9.758 0-14.635-.001-.157.01-.293.032-.408.009-.027-.001-.042-.031-.044a1.56 1.56 0 0 1-.49-.066c-.007-.002.05-.01.168-.021.121-.017.112-.027-.029-.029-.205-.003-.4-.01-.583-.024.142-.022.287-.033.437-.033Z"/><path fill="#6E708C" d="M75.477 22.323c.124-.005.203.005.236.03.098.073.12.164.067.272-2.134 4.31-4.236 8.547-6.308 12.71-.063.006-.024-.106.117-.336a.33.33 0 0 0 .045-.234c.001.003-.022.012-.07.028-.037.013-.053 0-.048-.037.032-.398.047-.84.044-1.329-.021-3.642-.014-7.257.02-10.846.002-.038-.017-.062-.055-.07a1.239 1.239 0 0 0-.337-.03c-.039 0-.05-.016-.033-.05.023-.012.11-.02.26-.027a19.99 19.99 0 0 1 1.456-.057c1.546-.004 3.08-.012 4.606-.024ZM65.246 22.351c.184.013.378.021.583.024.14.002.15.012.03.029-.12.012-.176.019-.169.021.147.046.31.068.49.066.03.002.04.017.031.044-.022.115-.033.25-.032.408.012 4.877.012 9.755 0 14.635 0 .107.055.16.165.16.078 0 .14.01.184.032-.23.04-.502.061-.816.061a1715.3 1715.3 0 0 0-9.298 0 .595.595 0 0 1-.203-.024c1.68.013 3.39.012 5.13-.004.006 0 .009-.012.006-.036.113-.052.169-.144.168-.277a593.316 593.316 0 0 1 0-9.546 2.04 2.04 0 0 0-.116-.667c-.018-.046-.036-.046-.054 0a1.283 1.283 0 0 1-.1.262c-.065.13-.113.113-.142-.05.563-1.131 1.109-2.23 1.636-3.296.197-.397.433-.773.707-1.13.458-.55 1.058-.787 1.8-.712ZM121.415 23.789A202.182 202.182 0 0 1 121 27.63c-.037.122-.055.103-.054-.057.014-.18-.005-.19-.058-.028-.094.286-.289.403-.584.351a.669.669 0 0 0-.116-.01 473.41 473.41 0 0 1-4.146-.007.129.129 0 0 1-.127-.084.63.63 0 0 0-.043-.093c-.037-.01-.052-.034-.043-.07.047-.208.053-.362.016-.46.1-1.071.207-2.14.321-3.207.019-.17.106-.256.262-.256 1.448.02 2.896.02 4.343 0 .218-.003.415.001.591.012.038.007.056.029.053.067ZM87.835 23.71c1.486-.023 2.995-.023 4.527 0 .073 0 .12.035.141.104.167.557.332 1.128.496 1.715-.087-.032-.136-.021-.145.032-.016.092-.073.138-.169.138h-6.103a.416.416 0 0 1-.115-.016.3.3 0 0 0-.268.033c-.032.022-.043.015-.035-.022.085-.328.27-.727.556-1.195.036-.059.037-.104.003-.135.255-.428.625-.646 1.112-.654ZM98.97 23.71h14.897c.039 0 .058.02.055.058a93.918 93.918 0 0 1-.326 3.01 1.073 1.073 0 0 0-.113-.375c-.018-.034-.046-.045-.084-.035-.085.02-.144.056-.176.106a.098.098 0 0 1-.088.05H98.954a.277.277 0 0 0-.281.19c-.06.156-.088.168-.088.037.082-.93.182-1.919.301-2.968.006-.048.033-.073.083-.073ZM127.3 23.71c1.555.019 3.103.019 4.645 0 .04 0 .058.02.055.057a35.815 35.815 0 0 1-.158 1.535c-.046.045-.065.022-.055-.07.004-.03-.01-.04-.039-.03a1.947 1.947 0 0 1-.513.071 437.68 437.68 0 0 0-5.276 0c-.216 0-.32-.021-.313-.064.011-.07-.03-.088-.124-.054.259-.352.529-.693.809-1.025.249-.295.572-.435.969-.42Z"/><path fill="#6E708C" d="M86.723 24.364c.034.031.033.076-.003.135-.286.468-.471.867-.556 1.195-.008.037.003.044.035.022a.3.3 0 0 1 .268-.033c.038.011.076.016.115.016h6.103c.096 0 .153-.046.17-.138.008-.053.057-.064.144-.032.915 3.04 1.817 6.087 2.706 9.144-.031.041-.049.06-.052.054a.7.7 0 0 0-.072-.27c-.02-.038-.06-.022-.12.049a.087.087 0 0 1-.084.05c-4.343-.021-8.771-.019-13.284.008-.164 0-.29.005-.38.013-.038-.009-.049-.03-.031-.064.044-.09.084-.187.12-.29.025-.074.013-.095-.037-.064-.031.06-.066.09-.105.092 1.656-3.274 3.343-6.57 5.063-9.887Zm.493 8.672c.886.044 1.75.04 2.594-.01.039-.002.058-.022.056-.06a10.757 10.757 0 0 0-.136-.675c-.252-1.105-.498-2.21-.736-3.315-.027-.113-.063-.116-.11-.01a554.958 554.958 0 0 0-1.716 3.998c-.02.046-.003.07.048.072ZM125.646 25.21c-.007.042.097.063.313.063 1.759-.01 3.518-.01 5.276 0 .161 0 .332-.023.513-.072.029-.01.043 0 .039.031-.01.092.009.115.055.07-.201 1.911-.405 3.824-.612 5.739-.027-.16-.043-.215-.046-.164a.99.99 0 0 1-.03.22c-.019.034-.028.032-.025-.006.002-.037-.023-.061-.076-.072a12.61 12.61 0 0 0-.845-.042 69.663 69.663 0 0 0-3.935 0c-.119.003-.175-.023-.168-.078.014-.105-.004-.152-.054-.142-.024-.073-.052-.09-.085-.05-.475.575-.926 1.15-1.352 1.726a.307.307 0 0 1-.04-.22c.006-.038-.011-.057-.05-.057-2.943-.009-5.918-.011-8.925-.007-.178 0-.252-.086-.221-.256.051-.293.06-.52.025-.682.134-1.383.281-2.73.442-4.039.037.1.031.253-.016.46-.009.037.006.061.043.07a.63.63 0 0 1 .043.094.129.129 0 0 0 .127.084c1.381.009 2.763.01 4.146.007.039 0 .077.003.116.01.295.052.49-.065.584-.351.053-.161.072-.152.058.028-.001.16.017.178.054.057a518.538 518.538 0 0 1-.347 3.362c-.023.22.035.242.173.068a1564.04 1564.04 0 0 1 4.696-5.906c.094-.034.135-.016.124.054ZM113.483 26.403c.055.098.092.224.113.376a492.85 492.85 0 0 1-.816 7.671c-.104-.08-.178-.08-.223 0-.018.033-.045.041-.079.024a1.54 1.54 0 0 0-.334-.024c-1.453.008-2.879.016-4.278.022a.105.105 0 0 1-.091-.047c-.054-.074-.091-.1-.112-.075-.025.029-.034.025-.027-.012.045-.238.05-.446.014-.627.204-1.96.419-3.93.645-5.91.005-.052-.018-.078-.07-.078-1.45-.011-2.876-.011-4.279 0-.095.001-.146.047-.155.139a102.64 102.64 0 0 1-.362 3.325c-.01.152-.098.226-.263.223-1.592-.03-3.166-.03-4.721-.001a.105.105 0 0 1-.093-.046.127.127 0 0 0-.046-.031c-.085-.041-.126-.072-.124-.092a.44.44 0 0 0-.034-.228c.133-1.43.278-2.85.438-4.262-.001.132.028.12.087-.036a.277.277 0 0 1 .281-.19h14.181a.098.098 0 0 0 .088-.05c.032-.05.091-.085.176-.107.038-.01.066.002.084.036ZM61.399 27.277c.079.235.118.457.116.667a593.316 593.316 0 0 0 0 9.546c.001.133-.055.225-.168.277.003.024 0 .036-.007.036-1.74.016-3.45.017-5.13.004-.103-.019-.145-.087-.125-.204a.375.375 0 0 1 .035-.107 2720.02 2720.02 0 0 1 4.983-10.007c.03.163.077.18.143.05.043-.086.076-.174.099-.262.018-.046.036-.046.054 0Z"/><path fill="#6E708C" d="M126.051 30.757c.05-.01.068.037.054.142-.007.055.049.081.168.078a69.663 69.663 0 0 1 3.935 0c.282.005.564.019.845.042.053.01.078.035.076.072-.003.038.006.04.025.006a.99.99 0 0 0 .03-.22c.003-.051.019.003.046.164-.228 2.177-.462 4.372-.701 6.584-.01.1-.066.15-.169.15-1.669.003-3.311 0-4.924-.008-.09 0-.131-.044-.122-.131.267-2.386.513-4.678.737-6.88ZM98.148 31.012a.44.44 0 0 1 .034.228c-.002.02.039.05.124.092.025.012.04.022.046.031a.105.105 0 0 0 .093.046c1.555-.029 3.129-.028 4.721.001.165.003.253-.071.263-.223a417.263 417.263 0 0 1-.714 6.507c-.006.053-.037.08-.092.08h-5.111c-.043 0-.062-.02-.058-.062.223-2.242.454-4.475.694-6.7ZM115.403 31.211c.035.162.026.389-.025.682-.031.17.043.256.221.256 3.007-.004 5.982-.002 8.925.007.039 0 .056.019.05.056a.307.307 0 0 0 .04.22 188.587 188.587 0 0 1-3.821 4.88c-.266.33-.633.483-1.1.462-1.65-.008-3.289-.01-4.917-.007-.05 0-.073-.024-.067-.073.221-2.17.453-4.331.694-6.483ZM107.65 33.711c.036.18.031.39-.014.627-.007.037.002.04.027.012.021-.024.058 0 .112.075a.105.105 0 0 0 .091.047c1.399-.006 2.825-.014 4.278-.022.154 0 .266.007.334.024.034.017.061.01.079-.024.045-.08.119-.08.223 0a105.93 105.93 0 0 1-.344 3.287c-.003.025-.017.037-.043.037h-5.059c-.088 0-.128-.043-.12-.13.13-1.324.275-2.636.436-3.933ZM81.802 34.223c-.036.103-.076.2-.12.29-.018.034-.007.055.03.064.09-.008.217-.012.381-.013 4.513-.027 8.94-.03 13.284-.007a.087.087 0 0 0 .084-.051c.06-.07.1-.087.12-.05a.7.7 0 0 1 .072.271c.003.006.02-.012.052-.054.315 1.016.616 2.027.9 3.034.013.045-.004.067-.052.067h-5.287c-.06 0-.096-.028-.108-.085a20.599 20.599 0 0 1-.292-1.108c-.05-.212-.147-.348-.293-.408a.365.365 0 0 0-.115-.018c-1.4.027-2.818.027-4.255 0-.31-.006-.521.081-.635.262a16.82 16.82 0 0 0-.63 1.291.107.107 0 0 1-.105.066H79.92c-.038 0-.048-.016-.032-.049a157.555 157.555 0 0 1 1.772-3.474c.039-.001.074-.032.105-.092.05-.03.062-.01.037.064Z"/></svg>