<svg width="99" height="17" fill="none" xmlns="http://www.w3.org/2000/svg">
    <path d="M64.485.32h.875c.012.011.062.02.148.025 1.709.112 3.216.749 4.521 1.91.225.203.435.413.63.63a7.641 7.641 0 0 1 1.872 3.866c.145.817.154 1.64.025 2.47a7.544 7.544 0 0 1-1.897 3.993 7.755 7.755 0 0 1-6.257 2.54 7.476 7.476 0 0 1-3.158-.906 7.615 7.615 0 0 1-3.164-3.19 7.497 7.497 0 0 1-.88-3.287c-.061-1.737.391-3.308 1.356-4.713a7.356 7.356 0 0 1 1.608-1.712C61.422.974 62.862.432 64.485.32Zm5.116 7.725a4.688 4.688 0 1 0-9.376 0 4.688 4.688 0 0 0 9.376 0ZM4.507.628h5.049c.045 0 .074.022.087.066 1.412 4.931 2.82 9.834 4.22 14.71.014.044-.003.066-.049.067-1.018.004-1.984.002-2.9-.006-.058 0-.096-.028-.111-.085-.308-1.09-.58-2.076-.818-2.96a.82.82 0 0 0-.282-.434c-.159-.1-.387-.148-.685-.142-1.448.029-2.88.03-4.295.001a.317.317 0 0 0-.101.014c-.273.087-.452.281-.536.583a421.9 421.9 0 0 0-.812 2.957c-.014.048-.046.072-.095.072H.294c-.035 0-.05-.017-.047-.051.016-.103.042-.214.077-.335C1.705 10.28 3.078 5.478 4.44.68c.01-.034.031-.05.066-.05Zm2.877 2.844c-.214-.147-.43-.158-.649-.034-.146.112-.25.29-.315.534-.444 1.712-.92 3.442-1.428 5.19-.015.056.007.084.065.084h3.99c.042 0 .057-.02.047-.06A613.086 613.086 0 0 0 7.6 3.768a.514.514 0 0 0-.217-.297ZM18.46.628c1.095-.017 2.193-.017 3.292 0 .587.01 1.144.147 1.672.412.62.317 1.106.782 1.46 1.395.337.586.502 1.263.495 2.032 0 .065-.032.097-.096.097h-2.555c-.051 0-.077-.026-.076-.077a1.16 1.16 0 0 0-.16-.714c-.191-.285-.472-.424-.843-.418-.96.02-1.92.02-2.881 0a.906.906 0 0 0-.727.303.872.872 0 0 0-.225.675c.016.369.185.688.508.958.487.38 1.046.696 1.678.945.396.157.789.322 1.178.495.813.317 1.55.651 2.212 1.003a6.172 6.172 0 0 1 1.453 1.068c.783.783 1.158 1.737 1.126 2.862-.029.967-.38 1.816-1.055 2.547-.755.824-1.69 1.244-2.804 1.26a50.055 50.055 0 0 1-3.601 0c-1.19-.043-2.156-.543-2.901-1.498-.593-.74-.878-1.595-.855-2.566 0-.12.06-.18.18-.18a191.81 191.81 0 0 1 2.51.006c.02 0 .03.01.031.03.024.697.277 1.155.758 1.372.212.096.45.133.714.11 1.012.006 2.023.006 3.035 0 .419-.003.744-.158.978-.464.293-.36.36-.743.2-1.151a1.14 1.14 0 0 0-.335-.463 4.031 4.031 0 0 0-.99-.656 13.746 13.746 0 0 0-1.12-.502c-.816-.332-1.6-.662-2.354-.99a7.323 7.323 0 0 1-2.032-1.311c-.83-.776-1.253-1.734-1.266-2.875a3.649 3.649 0 0 1 .411-1.75c.382-.71.94-1.25 1.678-1.614.405-.2.84-.313 1.306-.34ZM31.178.628h5.005c.053 0 .088.026.103.078 1.407 4.895 2.814 9.793 4.22 14.693.014.048-.004.072-.054.072h-2.908c-.053 0-.087-.026-.1-.077-.276-1.029-.557-2.04-.842-3.031a.593.593 0 0 0-.035-.096.686.686 0 0 0-.616-.423h-4.579a.384.384 0 0 0-.1.013c-.256.071-.42.22-.491.45a50.146 50.146 0 0 0-.848 3.078c-.015.057-.052.086-.111.086H26.93c-.047 0-.064-.023-.051-.068a9538.63 9538.63 0 0 0 3.819-13.34c.13-.456.258-.91.385-1.364.015-.047.046-.07.095-.07Zm2.003 3.02a.43.43 0 0 0-.064.135 750.915 750.915 0 0 0-1.481 5.382c-.015.054.005.08.062.08h3.883c.12 0 .164-.057.133-.173-.5-1.725-.976-3.444-1.428-5.157-.06-.259-.182-.428-.367-.508-.294-.128-.54-.047-.738.241ZM42.717.628h6.2l.102.003c1.747.107 3.28.768 4.599 1.984a6.842 6.842 0 0 1 1.498 1.975c.514.964.797 1.993.849 3.087a6.927 6.927 0 0 1-.103 1.646 7.513 7.513 0 0 1-2.155 4.045c-.41.403-.907.78-1.492 1.132a7.43 7.43 0 0 1-3.736.971h-5.75c-.06 0-.09-.03-.09-.09V.707c0-.052.026-.078.078-.078Zm3.08 3.081c-.082.196-.123.43-.122.7.008 2.53.008 5.06 0 7.59.003.347.176.581.518.702a.35.35 0 0 0 .1.02c.787.056 1.61.055 2.469-.002 1.115-.071 2.068-.523 2.861-1.358.822-.863 1.257-1.894 1.306-3.093.05-1.147-.258-2.176-.926-3.086a3.897 3.897 0 0 0-.83-.869 4.3 4.3 0 0 0-2.745-.958 81.436 81.436 0 0 0-2.007 0c-.283.004-.491.122-.623.354ZM72.398.635c.93-.008 1.908-.01 2.933-.007.044.001.072.023.083.066.257 1.138.54 2.28.853 3.427a255.96 255.96 0 0 0 2.34 8.206c.085.277.274.415.567.411.3.006.493-.14.579-.437a835.34 835.34 0 0 0 2.013-7.068c.413-1.476.807-3.002 1.183-4.579.004-.017.015-.026.033-.026h2.9c.077 0 .104.037.083.11-1.4 4.9-2.8 9.79-4.196 14.668-.013.043-.041.065-.086.065-1.719.004-3.392.002-5.019-.006-.046 0-.075-.022-.088-.067-1.401-4.855-2.808-9.758-4.22-14.708-.01-.037.004-.055.042-.055Z" fill="#6E708C"/>
    <path fill-rule="evenodd" clip-rule="evenodd" d="M64.913 12.733a4.708 4.708 0 0 1-1.794-.357 4.69 4.69 0 0 1 1.794.357Zm-3.541-1.617Zm.466-6.61Zm-.433.43Zm8.172 3.588a4.74 4.74 0 0 0 .024-.479" fill="#6E708C"/>
    <path d="M87.475 15.471c3.842-.011 7.684-.01 11.524.006v1.203H87.392a.622.622 0 0 1-.425-.289.578.578 0 0 1 0-.63.541.541 0 0 1 .508-.29Z" fill="#9EA0B3"/>
</svg>
