<svg width="61" height="21" fill="none" xmlns="http://www.w3.org/2000/svg">
    <path d="M15.172.925a10.89 10.89 0 0 1 3.161 2.111 10.458 10.458 0 0 1 2.907 4.992c.008.032-.005.049-.039.049h-5.125a.1.1 0 0 1-.095-.057 5.796 5.796 0 0 0-2.956-2.718 5.75 5.75 0 0 0-2.733-.426 5.602 5.602 0 0 0-3.33 1.365 5.472 5.472 0 0 0-1.874 3.133 5.32 5.32 0 0 0 .1 2.634c.28 1.043.846 1.939 1.694 2.688a5.6 5.6 0 0 0 3.196 1.418 5.925 5.925 0 0 0 3.216-.527 5.737 5.737 0 0 0 1.61-1.123A5.88 5.88 0 0 0 16 12.957a.067.067 0 0 1 .064-.038h5.127c.04 0 .055.018.046.056a10.403 10.403 0 0 1-1.402 3.193 10.369 10.369 0 0 1-2.982 3.002 10.725 10.725 0 0 1-5.443 1.806c-1.67.09-3.246-.164-4.727-.76a10.893 10.893 0 0 1-3.11-1.908 10.551 10.551 0 0 1-1.9-2.179 10.066 10.066 0 0 1-1.595-4.353 10.216 10.216 0 0 1 .343-4.179A10.21 10.21 0 0 1 2.086 4.3c.435-.58.944-1.124 1.526-1.632A11.01 11.01 0 0 1 6.738.775a10.986 10.986 0 0 1 8.434.15ZM23.279 0H38.04c.046 0 .069.022.069.067v4.73c0 .052-.027.073-.08.064a2.2 2.2 0 0 0-.278-.019 915.56 915.56 0 0 1-4.453 0c-.106 0-.16.052-.16.155v15.882c0 .078-.04.116-.119.116H28.24c-.046 0-.07-.022-.07-.067V4.895c0-.035-.018-.053-.054-.053-1.57-.002-3.193 0-4.869.006-.028 0-.042-.014-.042-.04A875.101 875.101 0 0 1 23.2.077c0-.052.027-.078.08-.078ZM54.85.89a10.915 10.915 0 0 1 3.116 2.02 10.504 10.504 0 0 1 3.032 5.124c.006.025-.004.038-.03.038-1.72.008-3.44.008-5.16 0a.058.058 0 0 1-.056-.036 5.18 5.18 0 0 0-.868-1.272c-.393-.43-.79-.76-1.188-.992-1.047-.67-2.207-.973-3.48-.91a5.737 5.737 0 0 0-2.797.876A5.496 5.496 0 0 0 46.067 6.9c-.787.92-1.226 1.971-1.317 3.152-.115 1.412.265 2.689 1.138 3.83.393.514.842.935 1.347 1.264 1.132.772 2.391 1.1 3.777.988 1.392-.11 2.584-.641 3.574-1.593a5.95 5.95 0 0 0 1.168-1.569.093.093 0 0 1 .09-.053h5.102c.045 0 .062.02.05.062a10.695 10.695 0 0 1-2.136 4.175 10.717 10.717 0 0 1-6.814 3.743c-.95.128-1.905.135-2.863.019a10.764 10.764 0 0 1-4.428-1.554 10.53 10.53 0 0 1-4.458-5.593 10.216 10.216 0 0 1 .303-7.336c.682-1.583 1.716-2.932 3.1-4.048A10.59 10.59 0 0 1 47.002.586c.937-.323 1.93-.511 2.977-.567 1.72-.071 3.344.22 4.871.872Z" fill="#6E708C"/>
</svg>
