<svg width="73" height="31" fill="none" xmlns="http://www.w3.org/2000/svg">
    <path d="M30.47.923c.766-.02 1.554-.013 2.365.02.045.001.068.025.07.07.012 1.243.012 2.49 0 3.744-.002.046.018.08.058.103.041.023.136.025.284.006.105-.014.158.032.158.138v1.634c0 .045-.023.068-.068.068h-.75c-.046 0-.068-.023-.067-.068.005-.392.002-.73-.007-1.013 0-.046-.024-.07-.07-.074-.6-.056-1.31-.056-2.127.002-.046.002-.066.026-.061.072.029.326.034.661.015 1.005-.003.045-.027.068-.073.069l-.714.014c-.046 0-.07-.022-.074-.067a9.95 9.95 0 0 1 .008-1.648c.01-.107.068-.162.176-.164.23 0 .366-.114.408-.34.178-.954.258-2.066.24-3.337 0-.151.077-.23.229-.234Zm.646.975c.02 1.039-.105 1.995-.375 2.87-.02.075.008.11.085.108.308-.01.674-.012 1.1-.007.078.001.118-.038.118-.117-.031-.968-.031-1.95 0-2.948.006-.207-.07-.283-.23-.23a.71.71 0 0 1-.406-.004c-.2-.073-.297.037-.292.328ZM33.848.92c.897-.005 1.712-.003 2.442.007.046 0 .071.023.077.068.02.154.005.31-.045.469-.03.094-.094.14-.194.136-.462-.02-.908-.02-1.34-.001-.059.002-.088.034-.09.094-.004.398-.002.739.007 1.022.001.045.024.07.07.072.355.026.763.046 1.225.062.046.001.068.025.067.07-.004.103-.006.244-.007.422 0 .097-.049.143-.144.14-.299-.01-.663-.012-1.093-.008-.081.001-.123.042-.124.123-.013.416-.006.808.02 1.178.004.045.028.07.073.072.482.023.97.033 1.464.03.046 0 .075.021.09.064.038.112.045.279.02.498-.005.046-.03.068-.076.068-.779.01-1.581.013-2.408.008-.068 0-.102-.034-.102-.102V.987c0-.045.022-.068.068-.068ZM37.013.92h3.064c.068 0 .102.033.102.101.004 1.519.002 2.991-.008 4.417 0 .046-.023.068-.068.067-.23-.001-.46.01-.69.031-.06.006-.089-.022-.088-.081.022-1.515.01-2.785-.037-3.813-.002-.045-.025-.067-.07-.065-.358.017-.8.028-1.328.031-.04.001-.06.021-.06.06-.003 1.29 0 2.542.008 3.752 0 .046-.022.072-.066.08-.138.021-.382.026-.732.013-.086-.004-.129-.048-.129-.135V1.021c0-.068.034-.102.102-.102ZM42.108.92c.302-.004.563-.003.786.005.045.001.074.024.087.068.417 1.447.843 2.94 1.276 4.478.008.029-.003.043-.034.043h-.805c-.038 0-.063-.018-.074-.054-.086-.29-.154-.545-.204-.763-.014-.064-.055-.1-.121-.106a6.329 6.329 0 0 0-1.028-.026.093.093 0 0 0-.09.07c-.073.218-.14.48-.203.787a.09.09 0 0 1-.08.077 4.218 4.218 0 0 1-.798.009c-.05-.004-.068-.03-.054-.077.416-1.473.841-2.96 1.274-4.46.01-.035.033-.052.068-.052Zm.377 1.59c-.135.417-.249.815-.341 1.194-.011.044.005.071.05.081.296.071.5.087.61.05.042-.015.059-.045.049-.09a88.561 88.561 0 0 0-.293-1.231c-.022-.09-.047-.09-.075-.003ZM46.68.953c.326.028.601.196.825.503.26.362.348.773.264 1.233-.076.42-.26.724-.552.911-.432.26-.926.36-1.482.297-.045-.006-.068.014-.068.06l-.016 1.481c0 .046-.023.07-.068.071-.255.012-.51.012-.767 0-.045-.002-.068-.025-.068-.07l-.016-4.426c0-.045.023-.07.068-.073a11.44 11.44 0 0 1 1.88.013Zm.085 1.935c.122-.207.16-.452.111-.735-.06-.344-.357-.535-.893-.573-.196-.016-.3.074-.313.27-.02.31-.024.705-.011 1.182.002.067.036.1.102.1h.605a.419.419 0 0 0 .399-.244ZM48.254.927c.904-.01 1.832-.012 2.783-.008.1 0 .155.05.165.15.023.229.02.382-.012.459-.017.042-.048.062-.093.06a5.309 5.309 0 0 0-.869.013c-.045.005-.068.03-.068.075-.01 1.2-.012 2.435-.008 3.708 0 .09-.045.134-.136.13a3.182 3.182 0 0 0-.605.015c-.096.016-.144-.025-.144-.123v-3.74c0-.077-.039-.11-.117-.097-.21.034-.493.043-.847.027-.063-.003-.094-.036-.091-.098a2.799 2.799 0 0 0-.016-.503c-.007-.045.013-.068.058-.068ZM52.317.925c.172-.009.402-.01.689-.006.093.002.151.047.175.136.412 1.474.814 2.928 1.208 4.36.012.044-.004.07-.049.078-.164.03-.406.035-.724.013-.107-.007-.17-.064-.188-.17a9.045 9.045 0 0 0-.11-.57c-.031-.137-.116-.205-.256-.205h-.896c-.08 0-.128.04-.14.12-.04.265-.094.518-.162.76-.012.043-.04.066-.086.068-.192.008-.427.01-.707.005-.113-.001-.155-.057-.124-.166a597.5 597.5 0 0 1 1.24-4.323.13.13 0 0 1 .13-.1Zm.344 1.55c-.153.488-.277.92-.373 1.297-.011.044.005.068.05.07.29.02.494.017.615-.008.044-.009.062-.036.054-.08a16.924 16.924 0 0 0-.306-1.279c-.013-.044-.026-.044-.04 0ZM55.146.92c.411-.013.69-.008.836.014a.095.095 0 0 1 .083.076c.273 1.108.557 2.179.853 3.214.028.098.053.097.076-.002.227-1 .488-2.068.783-3.2.017-.066.06-.1.126-.101.445-.013.77-.008.973.016.044.005.066.03.066.076-.01 1.392-.013 2.868-.008 4.43 0 .041-.02.063-.061.066-.17.008-.377.01-.62.005-.117-.001-.174-.061-.171-.18.028-.937.01-1.725-.056-2.364-.02-.195-.052-.197-.097-.007a40.18 40.18 0 0 1-.668 2.462.108.108 0 0 1-.087.077c-.166.034-.33.034-.496 0a.105.105 0 0 1-.086-.079 40.245 40.245 0 0 0-.764-2.692c-.01-.029-.03-.009-.06.06.006.863.006 1.744 0 2.643 0 .053-.026.08-.078.08-.285.004-.528.002-.73-.005-.046-.002-.068-.025-.068-.07 0-1.38-.002-2.795-.009-4.247 0-.177.087-.267.263-.273ZM60.02.92a40.988 40.988 0 0 1 2.258.022c.045.002.067.026.064.071-.004.07-.005.181-.004.334.002.183-.089.268-.272.253-.501-.04-.93-.04-1.286.001-.045.005-.068.03-.07.075l-.014 1.021c0 .046.022.073.067.082.317.065.672.08 1.064.046.201-.017.28.06.24.23a.642.642 0 0 0-.001.247c.035.128-.022.185-.17.17a4.847 4.847 0 0 0-1.116 0c-.045.006-.068.031-.07.076-.012.415-.012.83 0 1.243.002.046.025.069.07.069.495-.003.983.007 1.464.03.045.002.073.026.083.07.024.103.026.262.008.478-.003.046-.028.068-.073.068-.78.01-1.582.013-2.409.008-.045 0-.068-.022-.068-.068V1.157c0-.156.078-.235.234-.238ZM63.68.922c.105.007.157.063.156.167-.005.654-.003 1.241.006 1.762.001.046.025.069.07.07.437.012.875.012 1.311 0 .045-.001.07-.024.072-.07a19.17 19.17 0 0 0 .015-1.822c-.002-.045.02-.074.063-.087.17-.049.41-.05.719-.006.044.006.067.032.068.077.015 1.422.023 2.877.024 4.365 0 .091-.045.136-.136.136h-.614c-.09 0-.136-.045-.135-.136.005-.616.003-1.17-.007-1.66 0-.045-.024-.068-.069-.069a43.87 43.87 0 0 0-1.285-.007c-.068.001-.102.036-.102.104v1.7c0 .046-.023.068-.068.068h-.715c-.092 0-.137-.045-.136-.137.011-1.491.003-2.94-.025-4.348 0-.045.021-.073.065-.084.14-.037.38-.045.723-.023ZM66.873.927c.947-.013 1.895-.014 2.843-.001.046 0 .07.024.072.07.008.12.009.276.004.47-.001.09-.047.134-.136.134h-.817c-.089 0-.134.044-.135.133a105.38 105.38 0 0 0 .024 3.705c0 .046-.022.069-.067.07l-.698.015c-.08.001-.12-.038-.119-.117.014-1.256.014-2.478 0-3.667 0-.13-.066-.188-.196-.173a6.24 6.24 0 0 1-.763.034c-.046 0-.075-.024-.088-.068a.908.908 0 0 1-.012-.54c.013-.043.043-.065.088-.065ZM62.061 11.486a1.53 1.53 0 0 1-1.545 1.518l-.245-.002a1.535 1.535 0 0 1-1.518-1.545l.014-1.661a1.532 1.532 0 0 1 1.545-1.519l.245.003a1.532 1.532 0 0 1 1.518 1.545l-.014 1.66Zm-.865-1.766a.748.748 0 0 0-.748-.747h-.068a.748.748 0 0 0-.748.747v1.836a.746.746 0 0 0 .748.747h.068a.748.748 0 0 0 .748-.747V9.72ZM69.109 11.472a1.526 1.526 0 0 1-1.525 1.53l-.248.001a1.528 1.528 0 0 1-1.53-1.525l-.003-1.67a1.528 1.528 0 0 1 1.525-1.53h.248a1.528 1.528 0 0 1 1.53 1.525l.003 1.67Zm-.893-1.752a.761.761 0 0 0-.762-.758h-.002a.76.76 0 0 0-.759.76l.004 1.836a.761.761 0 0 0 .76.759h.003a.76.76 0 0 0 .759-.761l-.003-1.836ZM29.777 8.33c.215.01.438.013.67.01.116-.002.172.055.167.17-.02.59-.015 1.075.019 1.455.027.314.112.33.253.05.33-.656.617-1.195.858-1.618.044-.078.11-.109.198-.091.272.052.521.052.748 0 .14-.033.172.011.096.133-.365.583-.746 1.19-1.141 1.825a.328.328 0 0 0-.01.356c.439.79.859 1.532 1.26 2.225.049.083.025.124-.07.124h-.884a.16.16 0 0 1-.15-.091 58.633 58.633 0 0 1-.845-1.637c-.067-.134-.138-.22-.214-.259-.079-.034-.118-.008-.118.078v1.805c0 .069-.034.103-.102.104-.291.004-.533.002-.726-.006-.068-.002-.102-.038-.1-.106.014-1.526.014-3.007 0-4.441 0-.06.03-.09.09-.086ZM33.383 8.315c.28.012.552.027.813.045a.1.1 0 0 1 .093.068c.26.67.515 1.342.768 2.015.037.1.07.098.1-.004.212-.704.44-1.38.684-2.027a.09.09 0 0 1 .091-.064 8.26 8.26 0 0 0 .705-.038c.105-.011.14.033.104.132a61.468 61.468 0 0 1-1.54 3.974.935.935 0 0 1-.579.545c-.305.109-.585.096-.841-.037a.122.122 0 0 1-.07-.1 1.29 1.29 0 0 1 .035-.435c.02-.095.077-.128.17-.1.33.096.568-.016.716-.337a.525.525 0 0 0 .01-.439c-.41-1.003-.847-2.044-1.308-3.124-.022-.051-.005-.076.05-.074ZM37.5 8.33c.799.011 1.658.014 2.575.01.07-.001.104.033.104.102v4.357c0 .103-.052.159-.155.166-.267.02-.477.014-.63-.017-.044-.009-.066-.036-.065-.081.018-1.502.005-2.77-.04-3.804-.003-.046-.026-.067-.072-.063-.247.019-.505.026-.774.02-.125-.002-.183.059-.172.184.115 1.056.068 1.968-.143 2.736-.159.576-.544.916-1.157 1.02-.215.04-.292-.133-.231-.52.016-.11.079-.173.189-.187.213-.028.343-.164.39-.407.056-.217.087-.458.094-.723.023-.904.026-1.81.009-2.715 0-.053.026-.079.077-.078ZM46.902 8.376c.04.095.044.241.011.44-.022.132-.1.2-.233.204a3.953 3.953 0 0 1-.68-.034c-.113-.015-.17.034-.17.147a119.28 119.28 0 0 0 .024 3.726c0 .045-.02.074-.064.085-.125.037-.343.043-.657.02-.103-.007-.155-.062-.155-.165.005-1.258.002-2.492-.008-3.702 0-.046-.023-.068-.068-.068-.31-.001-.596-.017-.86-.048-.076-.01-.116-.054-.119-.13a14.432 14.432 0 0 0-.022-.435c-.003-.046.019-.068.064-.068.956.003 1.904-.008 2.843-.033.045 0 .077.02.094.061ZM47.286 8.31c.192.032.432.042.722.03.094-.005.157.038.189.128.244.685.496 1.36.756 2.024.028.073.052.072.073-.003.187-.661.422-1.361.705-2.099.024-.064.069-.087.135-.07.177.043.389.04.635-.009.109-.022.144.02.107.125a81.166 81.166 0 0 1-1.506 3.94.975.975 0 0 1-.32.415c-.332.25-.697.297-1.094.143a.127.127 0 0 1-.08-.09.936.936 0 0 1 .025-.46c.024-.09.08-.122.17-.096.172.062.322.053.451-.026.292-.173.38-.414.264-.723a54.075 54.075 0 0 0-1.299-3.144c-.029-.069-.007-.097.067-.085ZM51.256 8.316c.427.04.876.048 1.347.024.54-.041.962.104 1.267.434.334.368.444.836.333 1.404a1.312 1.312 0 0 1-.451.774c-.407.323-.928.43-1.566.323-.055-.008-.084.016-.087.072-.02.511-.015 1.017.018 1.517.003.07-.03.105-.098.105h-.71c-.09 0-.136-.045-.136-.136V8.394c0-.055.028-.081.083-.078Zm.862 2.126c-.003.058.025.09.083.098.41.052.714.019.914-.098a.249.249 0 0 0 .092-.094c.108-.185.144-.435.11-.749-.032-.3-.18-.481-.442-.545a2.017 2.017 0 0 0-.689-.03c-.075.007-.108.047-.1.122.044.365.055.797.032 1.296ZM55.81 8.4c-.02.638-.016 1.256.014 1.854.003.045.027.07.073.074.424.03.855.035 1.293.014.045-.001.07-.025.075-.07.043-.461.055-1.037.035-1.728-.003-.136.063-.204.199-.204h.55c.068 0 .102.034.102.102v4.423c0 .069-.034.103-.102.104-.267.004-.491.002-.672-.006-.046-.001-.068-.025-.067-.07a19.09 19.09 0 0 0-.047-1.788c-.003-.046-.028-.067-.073-.064a13.95 13.95 0 0 1-1.251.022c-.09-.002-.136.042-.136.132-.005.606-.002 1.161.01 1.665 0 .072-.035.108-.107.109-.273.004-.522.001-.749-.007-.05-.002-.074-.028-.074-.079.027-1.523.03-3.012.01-4.467 0-.046.021-.069.067-.07.274-.009.535-.014.783-.015.045 0 .067.023.066.069ZM65.317 8.376c.033.08.05.251.052.516 0 .087-.043.13-.128.128a54.5 54.5 0 0 0-1.533.007c-.046.001-.068.024-.068.07a174.94 174.94 0 0 0 0 3.778c0 .045-.023.072-.067.079-.138.022-.382.026-.731.013-.087-.003-.13-.048-.13-.134V8.474c0-.09.046-.135.136-.134.824.01 1.615.003 2.375-.024a.09.09 0 0 1 .094.06ZM41.132 8.34c.291-.004.538-.002.74.005.046.002.07.025.071.07.025.59.017 1.086-.024 1.489-.008.078.026.11.103.098.638-.122 1.144-.027 1.519.286.423.37.585.867.484 1.49-.044.273-.16.52-.348.74-.359.344-.844.494-1.456.45a7.794 7.794 0 0 0-1.09 0c-.074 0-.11-.036-.11-.11.01-1.46.013-2.93.009-4.415 0-.068.034-.102.102-.103Zm1.88 3.65c.213-.292.224-.627.034-1.004-.102-.213-.298-.312-.587-.298-.204.008-.35.003-.435-.012-.045-.009-.068.01-.07.054-.02.495-.016.983.015 1.464.004.045.028.072.072.08.449.086.772-.009.971-.284ZM39.915 15.854c.348.287.483.639.403 1.055a.098.098 0 0 1-.077.086c-.117.033-.322.044-.615.035a.091.091 0 0 1-.09-.066c-.075-.224-.14-.408-.193-.553a.187.187 0 0 0-.082-.1c-.323-.21-.616-.197-.878.036-.24.213-.326.506-.259.878.008.044.012.09.01.135-.016.446-.014.932.005 1.457.008.2.08.373.218.518.204.214.474.257.81.13a.37.37 0 0 0 .237-.259c.04-.138.06-.274.065-.408.002-.046.026-.07.071-.074.29-.027.529-.014.718.038a.1.1 0 0 1 .076.086c.042.255-.035.528-.231.818-.266.358-.648.542-1.15.553-.662.034-1.147-.185-1.455-.655a1.355 1.355 0 0 1-.212-.843 24.456 24.456 0 0 1 .005-2.034.554.554 0 0 1 .022-.133c.157-.555.536-.896 1.138-1.024.582-.123 1.07-.015 1.464.324ZM32.86 15.556c.068-.001.102.032.103.1.015 1.324.004 2.619-.034 3.882-.008.224 0 .403.024.535.015.075-.014.112-.09.112h-.683c-.068 0-.102-.034-.102-.102V18.38c0-.074-.037-.11-.11-.11l-1.278.017c-.045 0-.068.023-.068.068l-.016 1.754c0 .045-.023.069-.068.07-.202.009-.449.01-.741.006-.074 0-.111-.038-.11-.113.01-1.458.012-2.929.008-4.413 0-.068.034-.102.102-.103.291-.004.538-.002.74.005.046.002.07.026.07.071.013.625.013 1.237 0 1.838 0 .046.021.07.067.074.38.026.805.032 1.274.019.088-.003.131-.048.13-.135-.011-.638.007-1.243.054-1.814.004-.044.028-.065.074-.064.182.008.4.01.654.006ZM47.497 15.62v.514c0 .069-.034.103-.102.103h-1.43c-.09 0-.136.045-.136.136v.823c0 .182.091.27.273.266a8.696 8.696 0 0 1 1.03.018c.045.005.072.03.08.075.034.165.034.33 0 .495-.009.045-.036.067-.081.067a63.929 63.929 0 0 0-1.191 0c-.046 0-.07.023-.075.068a9.904 9.904 0 0 0-.036 1.187c.003.088.048.132.136.132h1.422c.069 0 .106.034.11.102l.033.448c.005.088-.035.131-.121.131h-2.402c-.06 0-.088-.03-.087-.09.04-1.496.04-2.979 0-4.45-.002-.06.027-.09.087-.09h2.426c.043 0 .064.022.064.065ZM34.847 15.564c.244-.01.508-.013.792-.008.069 0 .112.034.13.1.428 1.577.85 3.047 1.263 4.41.024.08-.005.12-.087.12h-.717c-.081 0-.13-.04-.148-.12a8.611 8.611 0 0 0-.194-.744.114.114 0 0 0-.087-.08c-.297-.065-.645-.067-1.043-.003a.135.135 0 0 0-.119.11c-.061.271-.123.52-.185.745a.097.097 0 0 1-.084.076 3.687 3.687 0 0 1-.657.015c-.132-.005-.181-.072-.147-.199.406-1.51.831-2.982 1.276-4.417.001-.003.003-.005.007-.005Zm.396 1.626c-.132.425-.248.82-.348 1.186-.012.043.005.069.05.076.164.027.334.037.508.03.153-.008.205-.084.156-.229a5.394 5.394 0 0 1-.26-1.054c-.02-.168-.056-.17-.106-.01ZM41.74 15.556a48.735 48.735 0 0 1 2.463.023c.046.002.069.025.069.07-.022 1.55-.017 3.024.016 4.426 0 .045-.02.074-.064.086-.124.036-.343.043-.656.02-.104-.007-.155-.063-.155-.166.004-1.27.001-2.514-.009-3.736 0-.046-.022-.067-.068-.064-.253.016-.508.026-.765.028-.145.002-.212.075-.199.22.117 1.077.067 1.989-.15 2.735-.164.56-.539.888-1.124.987-.15.028-.237-.034-.26-.185-.033-.227-.03-.366.007-.415a.185.185 0 0 1 .106-.071.461.461 0 0 0 .377-.222c.128-.237.187-.53.178-.877a50.446 50.446 0 0 1 0-2.62c0-.157.078-.236.234-.24ZM48.965 15.556h2.378c.091 0 .137.045.137.136-.005 1.269-.002 2.514.008 3.736 0 .045.023.07.068.075.095.008.203.012.324.01.045 0 .068.022.07.067.008.435.01.985.006 1.648 0 .076-.04.114-.116.114h-.631c-.082 0-.121-.04-.117-.122.012-.32.017-.626.013-.916 0-.073-.037-.11-.11-.11-.6-.01-1.28-.014-2.042-.009-.088.001-.13.045-.127.132.01.412.005.723-.02.933-.005.044-.03.07-.074.077a2.319 2.319 0 0 1-.7 0c-.044-.007-.067-.033-.07-.079a17.54 17.54 0 0 1 .033-1.65c.003-.045.027-.07.073-.073.236-.017.383-.106.442-.267a6.077 6.077 0 0 0 .247-1.864c-.007-.567.016-1.135.068-1.702.002-.09.05-.136.14-.136Zm.702 1.421a10.033 10.033 0 0 1-.398 2.499c-.011.037.003.054.042.051.351-.025.743-.032 1.177-.021.071.002.107-.033.107-.104v-3.067c0-.069-.034-.101-.102-.098-.29.012-.522.004-.698-.026-.083-.014-.124.022-.122.106.003.274 0 .494-.006.66ZM52.438 15.561c.234-.011.468-.011.7 0 .07.004.107.041.109.112.014.995.008 1.882-.02 2.663-.006.155.026.164.096.025.437-.865.863-1.735 1.28-2.61a.317.317 0 0 1 .302-.194c.273-.004.49-.003.651.004.046.002.068.026.068.071.007 1.414.001 2.894-.019 4.439 0 .076-.039.114-.114.114h-.642c-.093 0-.141-.047-.144-.14a86.46 86.46 0 0 1-.034-2.603c0-.088-.02-.092-.06-.014-.448.883-.884 1.754-1.307 2.613a.22.22 0 0 1-.188.13c-.33.028-.555.025-.678-.01-.043-.012-.065-.04-.065-.086a445.06 445.06 0 0 1-.008-4.438c0-.048.024-.073.073-.076ZM57.607 15.556h1.463c.046 0 .068.023.068.068.005 1.508.002 2.991-.008 4.45 0 .046-.022.075-.065.087-.179.05-.43.052-.753.008-.045-.007-.068-.032-.071-.078a33.172 33.172 0 0 1-.031-1.566c0-.045-.022-.07-.067-.076a.985.985 0 0 0-.429.022.147.147 0 0 0-.094.083c-.181.4-.375.877-.581 1.432a.28.28 0 0 1-.285.2h-.689c-.058 0-.075-.028-.053-.081.273-.661.544-1.303.81-1.925.018-.042.01-.077-.027-.104-.319-.24-.493-.59-.524-1.048-.026-.382.058-.71.255-.987.258-.325.619-.486 1.08-.485Zm-.349.945c-.163.247-.18.542-.052.885.101.267.345.386.733.357.187-.011.28-.094.28-.247v-.987c0-.169-.084-.26-.253-.271-.34-.025-.576.063-.708.263ZM35.367 27.098a1.288 1.288 0 0 1-1.261 1.315l-.22.005a1.29 1.29 0 0 1-1.316-1.261l-.032-1.533a1.29 1.29 0 0 1 1.261-1.315l.22-.004a1.29 1.29 0 0 1 1.315 1.26l.032 1.533Zm-.577-1.555a.795.795 0 0 0-.798-.793h-.09a.796.796 0 0 0-.793.798l.006 1.632a.796.796 0 0 0 .798.792h.09a.796.796 0 0 0 .792-.798l-.005-1.631ZM36.256 24.338c.471-.016.916-.016 1.336 0 .525.018.874.27 1.047.757.122.347.114.685-.026 1.013-.163.4-.457.615-.885.646-.344.026-.659.04-.945.041-.045.001-.068.024-.07.07-.008.354-.01.77-.006 1.251 0 .154-.067.245-.204.272-.213.054-.315-.037-.307-.272a51.8 51.8 0 0 0 0-3.718c0-.04.02-.06.06-.06Zm.477.604c-.046.434-.043.868.008 1.302.007.064.044.098.109.1.231 0 .456-.011.674-.032.297-.03.48-.167.544-.408.113-.414.057-.747-.167-.997a.222.222 0 0 0-.112-.068c-.233-.066-.53-.085-.892-.057-.1.007-.154.06-.164.16ZM42.097 27.153a1.269 1.269 0 0 1-1.272 1.263h-.242a1.268 1.268 0 0 1-1.263-1.273l.005-1.574a1.268 1.268 0 0 1 1.272-1.263h.242a1.267 1.267 0 0 1 1.264 1.273l-.006 1.574Zm-.562-1.6a.808.808 0 0 0-.81-.804h-.075a.806.806 0 0 0-.803.809l.005 1.615a.806.806 0 0 0 .809.803h.076a.806.806 0 0 0 .803-.81l-.005-1.614ZM58.388 27.161a1.26 1.26 0 0 1-1.262 1.258h-.236a1.259 1.259 0 0 1-1.258-1.262l.003-1.596a1.259 1.259 0 0 1 1.262-1.258h.237a1.259 1.259 0 0 1 1.257 1.263l-.003 1.595Zm-.523-1.595a.822.822 0 0 0-.822-.822h-.044a.822.822 0 0 0-.822.822v1.59a.822.822 0 0 0 .822.823h.044a.822.822 0 0 0 .822-.823v-1.59ZM60.33 24.304c.414-.056.763.027 1.047.246.258.2.385.482.382.843.004.14-.135.19-.415.15-.075-.01-.116-.053-.121-.128-.027-.417-.237-.648-.63-.695-.441-.055-.72.127-.834.545a3.165 3.165 0 0 0-.083 1.15.62.62 0 0 1-.001.135c-.046.4.017.772.186 1.115.153.305.434.41.843.315.35-.08.524-.315.52-.707a.09.09 0 0 1 .063-.092.515.515 0 0 1 .4-.002.096.096 0 0 1 .066.094c.018.49-.21.837-.683 1.04a1.396 1.396 0 0 1-.987.05 1.224 1.224 0 0 1-.646-.443 1.33 1.33 0 0 1-.265-.825 15.354 15.354 0 0 1 0-1.634c.016-.297.127-.55.333-.757.192-.231.467-.365.825-.4ZM30.024 24.338a70.626 70.626 0 0 1 1.74.007c.044 0 .078.02.099.06.036.069.024.17-.037.304a.101.101 0 0 1-.097.064c-.371.01-.811.012-1.32.007-.088 0-.133.044-.134.134a86.759 86.759 0 0 0 .023 3.364c.001.046-.02.076-.063.091a.593.593 0 0 1-.434.002.094.094 0 0 1-.065-.093 80.265 80.265 0 0 1 .019-3.676c.004-.175.094-.263.27-.264ZM43.625 24.346c.563-.01 1.195-.013 1.898-.008.09 0 .135.046.136.135a97.116 97.116 0 0 1-.023 3.397c-.002.045.02.065.065.06.16-.015.273.001.338.051a.126.126 0 0 1 .053.11c0 .388.01.768.031 1.14a.092.092 0 0 1-.057.097c-.06.028-.174.032-.339.014-.15-.018-.23-.097-.238-.239a1.638 1.638 0 0 1 .034-.51c.032-.133-.02-.2-.155-.203a36.485 36.485 0 0 0-2.202.024c-.093.004-.09.222.008.655.054.233-.048.324-.306.273-.159-.032-.238-.112-.238-.239v-1.066c0-.062.03-.092.092-.091.184.004.316-.038.398-.128a.317.317 0 0 0 .068-.116 5.31 5.31 0 0 0 .258-1.56c.019-.603.053-1.179.104-1.728.005-.045.03-.068.075-.068Zm.463.669c-.017.514-.05 1.003-.097 1.467-.056.56-.17 1.024-.339 1.393-.018.042-.004.063.04.064a22.1 22.1 0 0 0 1.298 0c.06-.002.09-.033.09-.093v-2.974c0-.054-.026-.082-.08-.085-.191-.008-.414-.01-.669-.007-.154.003-.235.081-.243.235ZM48.24 24.497c.355 1.207.723 2.445 1.103 3.714.022.073-.003.12-.076.143-.212.067-.362.066-.448-.001a.163.163 0 0 1-.065-.108 2.896 2.896 0 0 0-.232-.757.143.143 0 0 0-.095-.079c-.24-.066-.576-.074-1.006-.024a.126.126 0 0 0-.1.068c-.11.2-.196.45-.26.749a.189.189 0 0 1-.143.152.742.742 0 0 1-.408 0c-.037-.01-.05-.033-.04-.07.389-1.336.767-2.61 1.135-3.822a.17.17 0 0 1 .079-.098c.158-.09.318-.08.48.03.038.025.062.06.075.103Zm-.366 1.028c-.168.47-.296.9-.385 1.29-.017.073.012.11.088.11h.68c.09 0 .122-.043.094-.13-.16-.479-.274-.9-.346-1.26-.032-.163-.075-.166-.13-.01ZM51.505 24.34c.255-.018.448-.01.58.024.045.01.074.038.086.081.295 1.016.584 2.035.866 3.057.035.127.072.128.11.001.31-1.005.608-2.029.896-3.07.019-.064.06-.095.126-.095h.535c.059 0 .088.03.087.088a88.632 88.632 0 0 0 .015 3.852c0 .046-.021.074-.066.085-.182.046-.321.045-.418-.003a.105.105 0 0 1-.06-.1c.034-.928.045-1.836.035-2.723-.001-.017-.024-.011-.068.018a52.548 52.548 0 0 0-.892 2.7.153.153 0 0 1-.08.097c-.124.064-.23.064-.318 0a.19.19 0 0 1-.075-.105 41.248 41.248 0 0 1-.567-1.833 4.65 4.65 0 0 0-.273-.758c-.023-.04-.035-.036-.038.01a25.81 25.81 0 0 0-.007 2.612c.002.046-.02.071-.065.078a4.767 4.767 0 0 1-.319.034c-.1.008-.15-.038-.15-.138v-3.846c0-.041.02-.063.06-.066ZM63.113 24.448c.004.486-.004.994-.026 1.524-.004.091.04.137.132.136.1-.007.195-.083.284-.23.3-.448.585-.902.851-1.362.09-.153.305-.204.644-.154.093.017.111.063.055.138a20.227 20.227 0 0 0-1.148 1.685.106.106 0 0 0 0 .117c.35.588.778 1.24 1.284 1.958.028.041.018.067-.03.078-.265.065-.455.076-.57.033a.195.195 0 0 1-.1-.083 11.283 11.283 0 0 0-1.036-1.627c-.11-.144-.204-.173-.283-.089a.251.251 0 0 0-.05.123c-.053.429-.054.948-.005 1.557.004.046-.016.075-.06.089-.193.061-.33.073-.41.035a.102.102 0 0 1-.06-.098 179.771 179.771 0 0 1 0-3.83c0-.045.02-.076.063-.093a.515.515 0 0 1 .4 0 .094.094 0 0 1 .065.093ZM66.695 24.338c.411-.044.76.027 1.047.212.33.21.457.547.382 1.013-.04.247-.159.459-.358.635-.033.03-.03.056.01.077.21.112.358.274.442.488.127.312.139.624.034.936-.106.373-.364.59-.774.655-.449.07-.914.082-1.396.034-.177-.003-.268-.094-.272-.272a74.69 74.69 0 0 1-.01-3.684c.001-.046.024-.07.07-.071.148-.006.423-.014.825-.023Zm-.349.672c-.045.298-.042.596.008.894.018.101.078.157.18.167.296.03.53.014.701-.05a.335.335 0 0 0 .115-.07c.271-.243.311-.551.12-.924-.125-.242-.406-.324-.843-.247-.167.023-.26.1-.28.23Zm1.302 2.653a.876.876 0 0 0 .04-.77.523.523 0 0 0-.416-.344 3.472 3.472 0 0 0-.815-.067c-.087.005-.132.05-.135.138-.014.452-.007.863.019 1.232.004.045.028.071.072.078.297.041.592.036.886-.015a.468.468 0 0 0 .349-.252ZM69.192 24.349c.212-.027.344-.027.395 0 .04.02.061.054.062.1.01.351.012.774.007 1.268-.002.162.078.235.238.22.42-.07.78-.033 1.082.11.415.21.625.546.629 1.006.002.313-.066.59-.205.833a.96.96 0 0 1-.723.468c-.372.051-.85.062-1.433.033-.088-.002-.132-.047-.132-.135V24.44c0-.054.026-.084.08-.091Zm.49 2.091c-.03.415-.038.837-.026 1.268.005.147.08.226.228.237.311.023.556.01.736-.04a.295.295 0 0 0 .116-.064c.344-.314.412-.696.206-1.146a.454.454 0 0 0-.379-.277 5.171 5.171 0 0 0-.821-.037c-.037.001-.057.02-.06.059ZM72.93 24.344h-.362a.063.063 0 0 0-.063.064l.007 3.902c0 .034.028.062.063.062h.362a.063.063 0 0 0 .063-.063l-.007-3.902a.063.063 0 0 0-.063-.063Z" fill="#6E708C"/>
    <path d="M12.273 2.192c-.088.185-.04.258.144.218-.141.113-.245.089-.312-.074a.317.317 0 0 1 .074-.204c.114-.068.145-.048.094.06ZM12.41 3.372a.098.098 0 1 0 0-.196.098.098 0 0 0 0 .196ZM13.028 4.146a.216.216 0 0 1 .103 0c.076.197.066.41-.029.641a.21.21 0 0 1-.176.136c-.16.046-.19-.02-.094-.196a1.74 1.74 0 0 0 .196-.581ZM9.797 4.79a1.5 1.5 0 0 1 .757.227c.411.204.842.42 1.293.647.208.103.216.185.026.246a.118.118 0 0 1-.074-.01c-.928-.475-1.672-.755-2.232-.84-.045-.006-.07-.032-.07-.077-.003-.055.055-.111.17-.167a.275.275 0 0 1 .13-.026ZM14.45 5.343c.375-.243.646-.493.604-.558-.042-.065-.381.08-.757.323-.375.243-.646.492-.604.557.042.065.381-.079.757-.322ZM11.192 5.193c.153.066.3.065.329-.002.028-.066-.074-.173-.227-.238-.154-.065-.301-.064-.33.002-.028.066.074.173.228.238Z" fill="#9EA0B3"/>
    <path d="M10.333 5.465c.466.28.925.494 1.378.641.161.052.352.044.57-.025.227-.04.243 0 .048.123a1.092 1.092 0 0 1-.355.134.26.26 0 0 1-.133-.004c-.602-.172-1.19-.361-1.764-.568a2.23 2.23 0 0 0-.893-.128c-.19.012-.314-.011-.372-.07-.102-.122-.074-.2.082-.232a2.53 2.53 0 0 1 1.314.077c.043.014.085.031.125.052ZM18.469 6.283c.094.183.247.362.459.538.154.128.319.281.494.459.203.223.172.265-.095.124a8.95 8.95 0 0 1-1.068-.688c-.14-.102-.18-.235-.117-.399.037-.094.113-.13.226-.106.045.01.078.033.101.072ZM7.85 6.661c.028.07.079.116.114.102.036-.014.043-.082.016-.152-.027-.07-.077-.116-.113-.102-.036.014-.043.082-.016.152ZM7.592 6.787c.12.245.257.438.408.579.031.028.051.042.06.042-.073.153-.183.173-.332.06-.304-.233-.6-.347-.885-.342a.094.094 0 0 1-.095-.061c-.016-.034-.007-.064.027-.091.122-.098.264-.187.426-.266.159-.115.289-.089.39.079ZM17.937 6.966a.677.677 0 0 1-.079.306h-.125c-.018-.23-.016-.393.005-.487a.155.155 0 0 1 .073-.101c.083-.051.125.043.126.282ZM12.894 7c.072.143.172.2.301.17.022.214.046.375.074.482-.167.024-.258.153-.271.386-.013.218-.093.246-.24.085-.136-.15-.258-.136-.366.042-.054.089-.127.112-.22.068a.658.658 0 0 0-.578-.003.111.111 0 0 1-.117-.01c-.086-.058-.136-.182-.149-.37-.018-.28-.111-.307-.28-.083-.055.013-.084.015-.086.007-.024-.152.04-.274.19-.366.18.082.374.161.585.238.346.123.675.145.987.068.13-.031.2-.152.206-.362.004-.161-.07-.216-.225-.165-.294.1-.628.104-1.002.011.341.02.667-.05.979-.207.11-.056.181-.053.212.008ZM15.51 7.408c.04.052.052.12.033.204a.297.297 0 0 0-.091.102c-.045-.087-.09-.087-.136 0 .01-.124-.015-.183-.074-.175a.762.762 0 0 1 .267-.131ZM14.078 8.292c.169-.08.217-.034.144.137-.07.111-.152.21-.246.298-.07.064-.044.114.076.15a.205.205 0 0 0-.034.16c-.132.037-.222-.007-.272-.131a.244.244 0 0 1 .005-.202c.105-.221.214-.359.327-.412ZM7.31 8.43c.306.035.635.038.987.008a.447.447 0 0 1 .135.004c.219.04.447.097.685.171.043.014.088.02.133.02.329-.006.553.122.673.383.018.041.006.067-.037.08a8.066 8.066 0 0 0-.984.449A6.262 6.262 0 0 1 7.844 10a.252.252 0 0 0-.112.07c-.076.084-.09.124-.04.12.916-.075 1.712-.354 2.387-.837.037-.026.067-.02.087.02.045.087-.03.194-.227.323-.472.31-.974.519-1.507.625a.278.278 0 0 0-.12.056c-.109.087-.08.13.087.128a3.477 3.477 0 0 0 1.79-.523c.107-.06.148-.03.122.09-.042.268-.149.443-.32.527-.636.327-1.27.42-1.898.28a11.658 11.658 0 0 0-2.613-.282c-.045.001-.07-.021-.075-.066-.009-.078.056-.157.195-.239.246-.173.52-.272.825-.298a4.896 4.896 0 0 0 1.932-.485c.128-.063.176-.12.144-.168a.127.127 0 0 0-.11-.05c-.23.01-.432.031-.605.062a3.947 3.947 0 0 0-1.77.034c-.231-.138-.285-.31-.162-.517a.357.357 0 0 1 .088-.101c.347-.292.803-.406 1.368-.34Z" fill="#9EA0B3"/>
    <path d="M7.79 9.354c-.399.195-.876.253-1.431.174a.243.243 0 0 0-.13.016c-.13.054-.2.002-.21-.156a3.947 3.947 0 0 1 1.77-.034ZM14.095 10.601c.16.003.356.019.588.048.065.007.077.036.036.088a1.71 1.71 0 0 1-.272.271.104.104 0 0 1-.116.014 7.622 7.622 0 0 0-.32-.134c-.135-.053-.192-.036-.17.053.01.045.038.074.081.087.09.03.18.09.268.178.058.056.054.108-.01.156-.147.11-.154.188-.02.233-.141.252-.289.46-.443.622-.031.034-.067.04-.108.02-.12-.057-.163-.215-.13-.472.095.016.15-.007.166-.068a3.41 3.41 0 0 1 .076-.468c.026-.106.012-.178-.042-.218-.063-.086-.058-.14.016-.16a.188.188 0 0 0 .146-.18c.009-.138.053-.175.133-.114a.196.196 0 0 0 .121.044ZM5.44 10.911a8.614 8.614 0 0 1 2.939.383.642.642 0 0 0 .132.027c.557.063 1.057-.038 1.499-.303a.169.169 0 0 1 .125-.022c.095.02.096.096.002.224a1.034 1.034 0 0 1-.741.417c-.306.038-.592.068-.86.089a.312.312 0 0 1-.131-.018 6.302 6.302 0 0 0-1.434-.454c-.487-.096-1.069-.034-1.747.187-.139.038-.218-.014-.237-.157-.022-.163.085-.28.319-.35a.553.553 0 0 1 .133-.023ZM10.7 11.494c.055-.065.097-.057.125.023a1.6 1.6 0 0 1 .094.617 1.373 1.373 0 0 1-.51-.034.63.63 0 0 1 .2-.147c.043-.017.053-.046.032-.087-.064-.124-.045-.248.059-.372ZM9.883 11.807c.068.08.03.17-.114.272-.266.168-.587.245-.961.23-.148-.005-.227-.077-.237-.217-.004-.058.024-.084.083-.076.375.05.722-.028 1.039-.236.07-.046.134-.037.19.027ZM12.553 12.469c.031.165-.013.26-.134.283a.793.793 0 0 0-.369.17c.002-.05-.023-.075-.073-.073a3 3 0 0 0 .468-.412c.056-.061.092-.05.107.032ZM16.312 12.425c.067.067.151.12.253.157.155.188.304.379.448.573a.35.35 0 0 0-.136.034c-.003-.063-.046-.121-.128-.173a1.36 1.36 0 0 1-.445-.48.205.205 0 0 0-.104-.078c-.15-.053-.152-.08-.004-.08.045 0 .084.016.116.047ZM17.52 12.65c.07.199.072.413.005.641h-.068a3.48 3.48 0 0 0-.244-.641c.02-.06.123-.06.306 0ZM13.03 13.058c.124.091.214.18.272.267-.255-.038-.504-.163-.75-.374.112-.078.27-.042.477.107ZM7.414 13.836c.142.2.109.344-.1.43a.257.257 0 0 0-.105.079c-.325.374-.552.841-.68 1.402a8.85 8.85 0 0 0-.194 1.813c-.001.045 0 .09.006.136.072.602.044 1.11-.085 1.523-.088.28-.255.488-.502.621-.343.152-.573.365-.689.639-.103.242-.16.534-.169.877a.1.1 0 0 1-.075.088c-.073.013-.114-.05-.122-.19-.026-.49.105-.956.392-1.396.147-.289.218-.615.212-.979a3.122 3.122 0 0 0-.672-1.914.415.415 0 0 1-.077-.4c.126-.43.282-.829.469-1.2.239-.474.573-.813 1.002-1.017a.493.493 0 0 1 .128-.043l.716-.123c.215-.039.27-.115.162-.23-.04-.049-.14-.053-.298-.014v-.023c.232-.016.46-.042.68-.08ZM10.063 14.114c.01.147.01.294 0 .442a8.992 8.992 0 0 0-.437-.278c-.006-.03.018-.062.074-.096a.509.509 0 0 0 .363-.069ZM20.642 14.484a.127.127 0 1 0 0-.253.127.127 0 0 0 0 .253ZM7.884 14.692c-.004.055.032.08.108.074a3.645 3.645 0 0 0-.754 2.309c.002.616-.019 1.229-.063 1.838-.036.074-.07.05-.102-.068-.153-.578-.164-1.304-.034-2.178a3.98 3.98 0 0 1 .587-1.694c.08-.143.167-.236.258-.28ZM13.741 14.965c.03.267-.004.516-.102.749-.139-.02-.194-.088-.165-.205.055-.218.144-.4.267-.544ZM14.69 15.645c.097.242.09.4-.022.477a2.052 2.052 0 0 0-.181-.17c-.037-.028-.04-.06-.009-.093.05-.053.121-.124.213-.214ZM3.375 16.751c.07.224.193.385.275.36.083-.026.094-.229.024-.453-.069-.224-.192-.385-.275-.36-.082.026-.093.229-.024.453ZM14.878 16.754c.192-.04.342-.101.334-.139-.007-.037-.17-.036-.362.003-.192.038-.342.1-.334.138.007.037.17.036.362-.002ZM2.983 16.939c.14.193.276.304.407.333a.18.18 0 0 1 .108.07c.061.09.028.16-.101.21-.129.05-.19-.005-.183-.162.003-.046-.017-.077-.06-.093-.026-.01-.083.167-.17.53-.026.113-.096.168-.21.167-.062-.008-.078-.04-.05-.094.165-.32.22-.596.162-.83.034-.048.066-.091.097-.131ZM15.109 17.04c.115.012.127.123.034.336a2.602 2.602 0 0 1-.267.005c-.083-.25-.006-.363.233-.34ZM23.481 17.83c.093.056.125.156.097.3-.16.123-.27.109-.327-.042-.073-.195.004-.282.23-.259ZM16.756 18.258c.097-.048.181-.032.254.048.35.361.608.714.777 1.058.122.248.274.464.458.645.126.11.148.237.068.383-.07.145-.047.308.07.487.466.72.812 1.419 1.037 2.1.036.1.02.19-.047.272-.44.58-.91.825-1.408.734-.289-.054-.425-.28-.408-.68.013-.6.09-1.247.232-1.945a.974.974 0 0 0-.096-.677c-.128-.234-.355-.359-.68-.374a1.733 1.733 0 0 0-.715.102c-.379.163-.722.11-1.03-.162-.051-.046-.128-.058-.23-.037-.177-.098-.35-.2-.518-.304-.047-.028-.08-.02-.1.026a.906.906 0 0 0-.598-.459c-.15-.032-.185.017-.107.149.217.366.248.78.094 1.242a.096.096 0 0 1-.09.069 8.24 8.24 0 0 0-1.063.162.311.311 0 0 0-.17-.034 8.72 8.72 0 0 0-1.16-.332.218.218 0 0 0-.129.012c-.11.044-.098.1.037.17.408.21.708.476.901.797.07.144.025.219-.134.224-.368.013-.717.026-1.047.04a.242.242 0 0 1-.128-.03c-.312-.174-.453-.402-.424-.682a.24.24 0 0 1 .048-.123c.114-.149.28-.315.495-.498.364-.31.696-.671.998-1.085a.177.177 0 0 1 .107-.072c.43-.114.893-.19 1.388-.23.356-.03.685-.086.987-.17a17.62 17.62 0 0 0 2.331-.826ZM7.992 18.34c.073.115.025.236-.144.36-.116.086-.184.18-.202.281-.069.01-.112 0-.13-.028.107-.295.266-.5.476-.613ZM2.525 19.162a.204.204 0 1 0 0-.408.204.204 0 0 0 0 .408Z" fill="#9EA0B3"/>
    <path d="M4.828 19.736c.086-.079.107-.195.047-.26-.06-.064-.178-.052-.263.027-.086.079-.107.195-.047.26s.178.053.263-.027ZM9.702 19.704c.195-.11.235-.06.12.154-.206.307-.439.619-.698.936-.184.224-.121.44.188.646.277.183.416.394.416.633-.207 0-.41.014-.607.04.016-.118-.017-.16-.1-.128-.307.124-.605.19-.893.195a.511.511 0 0 0-.133.02 2.84 2.84 0 0 1-1.17.1.24.24 0 0 1-.12-.052c-.164-.14-.359-.174-.585-.101-.246.08-.348 0-.306-.238.055-.397.223-.683.502-.86.246-.155.51-.254.791-.298a8.803 8.803 0 0 0 2.595-1.047ZM4.207 20.249c.076.028.066.173-.031.434h-.194c.07-.318.145-.462.225-.434ZM15.35 20.547c.214.09.3.155.26.196-.053.053-.164 0-.333-.156.04 0 .065-.014.074-.04ZM12.486 21.063a.31.31 0 0 1 .17.034c.132.092.233.152.302.181.043.017.047.041.012.07-.046.04-.13.036-.254-.01-.165-.06-.242-.152-.23-.275Z" fill="#9EA0B3"/>
    <path d="M17.928 0a71.9 71.9 0 0 0 3.736.042c1.506-.02 2.99-.018 4.45.007.046.001.072.024.077.07.034.25.045.576.034.979-.013 1.273-.01 2.61.008 4.008.043 1.432.051 2.876.026 4.331-.026 1.631-.049 3.23-.068 4.8a154.16 154.16 0 0 0 0 5.65c.025 1.309.025 2.648 0 4.016-.011.43-.045.85-.102 1.26-.083.864-.375 1.616-.877 2.255-.57.695-1.267 1.143-2.093 1.345-.577.14-1.13.234-1.66.28-.557.03-1.192.04-1.906.034-1.11-.01-2.052.01-2.825.064-.045.003-.09.008-.135.017-1.226.216-2.353.773-3.38 1.669-.07.06-.138.059-.206-.003-1.006-.913-2.148-1.469-3.428-1.668a1.12 1.12 0 0 0-.135-.013 75.938 75.938 0 0 0-3.744-.066c-.755.003-1.379-.042-1.872-.136-.844-.1-1.579-.397-2.205-.893-.906-.684-1.408-1.59-1.506-2.715-.129-1.253-.151-2.682-.068-4.289.047-.899.081-1.806.102-2.723V16.79A694.84 694.84 0 0 0 .117 4.263 187.477 187.477 0 0 1 .113.29C.121.065.236-.03.458.009c.311.052.618.055.92.009a.952.952 0 0 1 .135-.01c5.038.01 10.098.01 15.181 0 .43 0 .842-.003 1.234-.008ZM7.095 3.35c-.045-.047-.089-.071-.13-.074.005-.064-.043-.105-.143-.124a.183.183 0 0 1-.11-.064c-.392-.467-.811-.95-1.259-1.446-.036-.04-.072-.04-.107.002-.105.102-.12.224-.047.364.273.518.59 1.003.953 1.457.073.101.098.213.077.335a.695.695 0 0 0 .18.54c.243.267.424.608.544 1.02.097.256.203.484.319.687.061.18.018.33-.131.45-.262.21-.478.44-.647.69-.11.164-.072.278.115.341.058.021.175.022.352.003.236-.026.376.022.42.144.076.209.015.364-.182.464-.27.123-.544.224-.825.303a1.22 1.22 0 0 0-.646.374c-.237.253-.223.528.042.825.122.138.118.273-.012.405-.481.482-.86 1.076-1.137 1.782-.057.147-.011.196.139.147a6.804 6.804 0 0 1 1.725-.325c.646-.041 1.188.12 1.625.484.228.189.438.365.63.528.234.15.392.286.476.409.058.084.132.175.223.272.09.097.07.157-.061.179-.455.076-.926.19-1.415.344a.297.297 0 0 1-.279-.046c-.427-.3-.881-.573-1.361-.817a1.57 1.57 0 0 0-1.106-.17c-.42.098-.8.319-1.14.663-.402.405-.652.836-.75 1.293-.023.127.017.136.123.026.127.144.142.27.045.375-.02-.151-.087-.16-.202-.026-.19.222-.331.489-.425.8-.059.17-.166.21-.322.116a1.707 1.707 0 0 1-.563-.542c-.184-.297-.139-.574.135-.83.13-.12.233-.1.312.055a.854.854 0 0 0 .456.409c.179.073.258.014.237-.179-.017-.416-.113-.757-.289-1.02-.126-.19-.189-.145-.189.133.018.175-.06.26-.237.254-.227-.011-.434.106-.62.353-.242.291-.296.606-.163.945.156.39.404.662.746.817.354.187.408.44.165.757a2.215 2.215 0 0 0-.45 1.6.397.397 0 0 1-.009.134c-.004.152.044.348.145.589.113.272.207.553.28.842.08.1.126.1.136 0 .044-.43.112-.816.205-1.157a.578.578 0 0 0 0-.437.396.396 0 0 0 .17-.113c.42-.305.738-.575.953-.811.099-.11.178-.096.238.039.25.513.281.962.094 1.348A39.23 39.23 0 0 0 3.7 20.78c-.216.614-.125 1.131.272 1.55.194.214.333.399.415.555a.183.183 0 0 1-.008.128c-.046.102-.005.137.124.107a.767.767 0 0 0-.16.511c.225.44.367.86.428 1.26a.296.296 0 0 1-.01.133c-.056.171-.032.385.071.64a.348.348 0 0 0 .365.237c.327-.01.527-.023.6-.038.28-.058.344-.208.19-.451-.387-.534-.673-1.017-.858-1.449-.09-.212-.032-.4.177-.562a.122.122 0 0 1 .119-.022c.338.11.67.203.998.278.197.044.286.167.268.369-.077.362-.079.65-.004.864.084.194.212.384.382.571.258.29.553.46.885.51.683.104 1.177-.089 1.482-.578.234-.372.28-.79.139-1.251-.047-.177.02-.277.202-.299.28-.03.418.036.416.197-.002.178.061.374.189.586.05.071.044.136-.02.196a2.15 2.15 0 0 0-.458.602.338.338 0 0 0 .064.414c.163.107.303.225.42.354.115.126.093.227-.066.302a.264.264 0 0 1-.13.028 29.91 29.91 0 0 1-.578-.028.28.28 0 0 0-.13.024c-.385.163-.679.395-.883.695-.136.203-.1.242.11.119a.485.485 0 0 1 .29-.093c.386.007.704-.01.953-.053a.661.661 0 0 1 .452.06c.5.26 1.007.457 1.52.59.215.057.27-.012.162-.207-.075-.138-.091-.237-.048-.3.06-.085.138-.11.237-.076.507.132.992.207 1.456.224a.588.588 0 0 1 .201.032c.042.019.067.006.074-.04.039-.223-.06-.384-.294-.483-.13-.055-.132-.116-.007-.181.123-.054.268-.045.434.026.126.01.16-.035.102-.136-.159-.28-.363-.416-.612-.41a.218.218 0 0 0-.124.04c-.162.117-.413.025-.753-.276-.136-.119-.17-.262-.1-.429.071-.172.215-.197.432-.073.04.022.075.05.105.083.187.205.447.29.78.254a.31.31 0 0 1 .132.015c.238.083.5.155.787.217.136.029.261.081.374.157.076.067.152.069.23.005.26-.212.51-.31.75-.294a.094.094 0 0 1 .09.07c.067.199.177.39.33.571.043.051.032.084-.033.098-.366.084-.64.3-.82.647-.097.187-.05.234.137.142.153-.076.323-.11.508-.105a.78.78 0 0 0 .445-.122c.118-.074.247-.04.385.104a.446.446 0 0 0 .463.13c.233-.093.505-.152.817-.178.385-.03.685.072.9.307.134.128.177.103.13-.077-.046-.175.02-.297.196-.366.21-.082.35-.017.416.196.061.189.126.18.196-.026a.814.814 0 0 0 .009-.484c-.057-.212.01-.265.202-.161.086.046.167.103.243.171.188.17.24.135.159-.104-.117-.345-.333-.526-.647-.542a.226.226 0 0 1-.124-.042c-.17-.134-.318-.152-.446-.055-.308.236-.592.265-.851.086-.129-.095-.121-.178.023-.25a.413.413 0 0 0 .267-.193c.15-.258.32-.462.51-.612.57-.451.92-.948 1.049-1.491a.3.3 0 0 0 0-.134c-.04-.183-.004-.334.109-.452.096-.1.17-.196.22-.29.058-.104.166-.178.324-.22.103-.027.122-.083.058-.168a10.098 10.098 0 0 1-.994-1.636c-.151-.315-.355-.464-.613-.447a.124.124 0 0 1-.11-.049 3.368 3.368 0 0 1-.485-.918c-.076-.207-.225-.301-.445-.281-.118.01-.149.054-.091.132-.068.004-.104.04-.108.107a4.712 4.712 0 0 1-.938-1.097c-.074-.115-.043-.18.092-.198a8.21 8.21 0 0 0 2.613-.79 5.893 5.893 0 0 1 1.261-.45.153.153 0 0 1 .142.031c.272.217.589.527.95.93a.331.331 0 0 1 .072.349c-.062.184.027.361.267.53.157.112.2.256.13.435a.509.509 0 0 0 .014.357.112.112 0 0 1-.02.117c-.216.259-.244.496-.083.71.027.037.06.068.096.095.227.159.479.266.755.322.12.025.178-.024.174-.147-.032-.382-.099-.692-.201-.93a4.454 4.454 0 0 1-.354-1.319c.028-.144-.005-.245-.097-.3.067-.065.058-.127-.026-.185a2.603 2.603 0 0 1-.82-.927.298.298 0 0 1-.034-.128 1.623 1.623 0 0 0-.287-.83.459.459 0 0 0-.487-.209c-.258.042-.469.026-.632-.047-.042-.02-.046-.044-.011-.074.435-.373.876-.81 1.325-1.308.042-.048.089-.051.139-.011.463.366.772.68.925.94a.274.274 0 0 1 .04.126c.018.24.13.455.336.647.217.202.231.415.043.638-.1.116-.193.22-.282.313-.065.071-.073.148-.025.232.219.382.491.595.817.638a.118.118 0 0 0 .112-.045c.141-.172.168-.394.08-.664a.208.208 0 0 1-.001-.13c.052-.175.019-.357-.101-.547a.416.416 0 0 1-.048-.367c.146-.415.05-.733-.288-.953a.87.87 0 0 1-.358-.255 16.167 16.167 0 0 1-1.035-1.32l.01-.102c.098-.058.08-.169-.055-.333-.118-.146-.26-.174-.426-.085a7.98 7.98 0 0 0-.417.478c-.142.171-.352.324-.63.46-.203.134-.325.081-.367-.157-.128-.796-.493-1.498-1.097-2.107a2.924 2.924 0 0 1-.459-.8 58.36 58.36 0 0 0-.91-2.22c-.069-.179-.009-.26.18-.242.418.04.783.14 1.095.304.04.02.075.048.104.083.136.166.326.322.57.467.039.022.076.019.11-.011a.764.764 0 0 1 .323-.16c.092-.022.115-.066.068-.13.152.005.232-.087.238-.278.002-.054-.032-.079-.102-.073.142-.07.203-.218.184-.446a.146.146 0 0 0-.058-.109 5.07 5.07 0 0 1-1.377-1.627 2.263 2.263 0 0 1-.259-.744.129.129 0 0 1 .017-.12c.122-.162.14-.31.055-.447-.285-.454-.693-.592-1.224-.414a.342.342 0 0 1-.385-.1c-.257-.265-.523-.368-.8-.31a5.729 5.729 0 0 1-.502.075c-.12.027-.186.118-.198.274-.004.045-.028.07-.073.075a3.992 3.992 0 0 0-.724.154c-.15.048-.33.037-.54-.034a.635.635 0 0 0-.522.034c-.3.153-.54.27-.72.35-.152.067-.212.02-.181-.143.052-.433.082-.888.091-1.365.005-.299-.06-.553-.196-.76-.149-.188-.14-.366.029-.536.192-.193.27-.442.235-.746-.004-.032-.036-.043-.097-.034-.056-.034-.149-.048-.277-.04-.306-.21-.567-.33-.783-.359a.395.395 0 0 0-.135.004 4.202 4.202 0 0 0-1.348.554.246.246 0 0 1-.125.04c-.17.008-.37-.027-.597-.105-.373-.129-.476-.014-.306.343-.009-.02.064.051.218.217.059.063.066.132.02.205-.094.168-.04.279.162.333.441.116.867.134 1.277.054.306-.04.36.057.163.294-.252.321-.391.716-.418 1.183a1.106 1.106 0 0 1-.14.455.17.17 0 0 1-.155.112c-.588.047-1.053-.006-1.394-.158a.394.394 0 0 0-.416.04c-.333.236-.632.446-.899.632-.097.067-.184.056-.26-.035a2.006 2.006 0 0 1-.444-.937.223.223 0 0 0-.057-.117c-.275-.304-.515-.599-.72-.885a.285.285 0 0 0-.179-.122Z" fill="#9EA0B3"/>
    <path d="M12.848 1.243c.216.03.477.15.783.36l-.068.01a.216.216 0 0 0-.103 0 .912.912 0 0 0-.614-.087.42.42 0 0 1-.134.006c-.44-.058-.774.064-1.002.366-.13.17-.295.22-.496.153a2.83 2.83 0 0 0-.621-.23c-.139-.03-.179.02-.12.153.14.212.377.343.71.392.107.027.112.067.016.122-.103.01-.208.038-.317.081-.131.054-.142.117-.034.188.256.09.467.033.63-.17.074-.078.147-.1.22-.068a.464.464 0 0 0 .463-.026c.067.163.17.187.312.074.2-.074.374-.175.52-.304.08-.07.189-.096.326-.076.068.043.102.061.102.053.012.245.084.264.218.058a2.01 2.01 0 0 0 .27-.656c.06-.009.092.002.096.034.035.304-.043.553-.236.746-.167.17-.177.348-.028.535.136.208.201.462.196.762-.01.476-.04.93-.091 1.364-.031.162.03.21.18.143.181-.08.422-.197.721-.35a.635.635 0 0 1 .522-.034c.21.07.39.082.54.034.219-.07.46-.121.725-.154.044-.005.068-.03.072-.075.012-.156.079-.247.198-.274.194-.021.361-.047.503-.076.276-.057.542.046.8.31.106.117.235.15.384.101.531-.178.94-.04 1.224.414.086.136.067.285-.055.447a.129.129 0 0 0-.017.12c.037.247.124.496.259.744a5.07 5.07 0 0 0 1.377 1.627.146.146 0 0 1 .058.11c.02.227-.042.376-.184.445-.192-.039-.269-.08-.23-.123.105-.114.182-.167.23-.16.095-.129.07-.23-.073-.304-.347-.21-.586-.418-.718-.625-.14-.22-.295-.454-.463-.7-.039-.074-.095-.09-.167-.049-.166.094-.294.069-.383-.076-.095-.155-.056-.246.117-.271.105-.018.14-.078.106-.18-.043-.083-.16-.14-.35-.17-.281-.046-.5-.261-.656-.644-.016-.08.018-.113.102-.097a.25.25 0 0 1 .137.076c.218.296.4.498.544.605.076.056.096.002.06-.162-.082-.18-.063-.31.057-.394.118-.084.125-.177.02-.279-.31-.3-.714-.345-1.208-.133-.07.03-.088.079-.055.147.035.067.06.148.076.242a9.977 9.977 0 0 1-.079.102c-.066.1-.13.12-.19.06a.962.962 0 0 0-.31-.196c-.138-.091-.265-.114-.38-.068-.555.234-.983.577-1.284 1.03-.121.181-.226.264-.315.247a.34.34 0 0 0-.37.187c-.276.503-.584.877-.923 1.123-.07.05-.09.035-.064-.046.074-.232.215-.416.423-.554a.374.374 0 0 0 .097-.093c.223-.31.517-.588.88-.832a.201.201 0 0 0 .093-.148c.04-.163.164-.286.375-.37.151-.06.183-.162.096-.306a.887.887 0 0 1 .074-.062c.209-.047.353-.121.433-.222.108-.137.075-.21-.1-.22-.854-.05-1.495.223-1.925.819-.192.268-.283.472-.272.613.01.135.087.198.23.19.026.01.04.034.04.074-.018.107-.07.176-.154.207a.281.281 0 0 0-.11.072 2.64 2.64 0 0 0-.571.984.103.103 0 0 0 .026.113c.052.055.068.092.046.113-.308.294-.473.58-.497.86a.14.14 0 0 0 .042.115l.313.313a.11.11 0 0 1 .03.113.68.68 0 0 1-.111.221.175.175 0 0 0-.036.122c.015.166.084.203.207.11.1-.073.165-.202.196-.387.137.09.26.077.367-.037.108-.146.178-.302.212-.468.012-.057.034-.057.068 0 .05.23-.038.425-.264.586a1.997 1.997 0 0 0-.669.772.21.21 0 0 1-.087.097 2.242 2.242 0 0 0-.282.204c-.147.117-.147.235 0 .357.02.016.024.047.014.094a1.639 1.639 0 0 1-.197.257.146.146 0 0 0-.041.117c.006.094.074.207.204.34-.034.258.01.415.13.473.04.02.076.013.107-.02.154-.163.302-.37.444-.622.142.063.163.154.062.272-.142.168-.199.296-.17.385.072.142.151.146.239.014.19-.291.314-.55.374-.774.05-.19.139-.352.264-.484.247-.262.335-.522.264-.778a.246.246 0 0 1 0-.13c.046-.165.043-.284-.01-.357a.123.123 0 0 0-.11-.052c-.248.01-.373.089-.374.236 0 .045.01.088.033.128.13.23.141.346.035.348-.042.001-.087-.124-.136-.374-.05-.163.012-.291.182-.385a.416.416 0 0 0 .228-.305c.085-.436.184-.751.296-.945.023-.04.035-.036.035.01v1.855c0 .045-.023.069-.069.07-.067.003-.078.08-.032.228a.175.175 0 0 1-.004.116 5.981 5.981 0 0 0-.185.623.219.219 0 0 1-.162.17c-.153.042-.184.122-.093.239a.414.414 0 0 1 .076.332c-.064.397-.042.719.067.967.018.042.05.064.095.068.58.042 1.183.08 1.812.117a.352.352 0 0 1 .137-.034c.168.148.315.193.442.136h.068c.11.083.232.14.37.174.078.02.117-.011.116-.092.024-.144.066-.192.127-.144.278.196.595.332.953.408.321.069.566.2.735.393.032.033.07.051.116.055.107.009.154-.077.142-.258-.015-.216-.127-.294-.336-.235-.279.078-.442-.007-.487-.256.148-.453.18-.92.097-1.401.007-.056-.025-.113-.097-.17a1.282 1.282 0 0 1-.374-.437c.071-.055.172-.04.302.043.073.047.1.027.084-.058a5.472 5.472 0 0 0-.721-1.829c-.17-.412-.311-.788-.426-1.127a.194.194 0 0 1 0-.128c.048-.14-.019-.276-.2-.404-.213-.15-.277-.335-.191-.553h.125c.14.192.355.365.644.518.178.095.35.128.519.1.298.092.56.181.783.267.18.069.327.065.44-.013.118-.093.224-.08.317.039.082.1.145.218.188.356.044.146.115.235.212.27.047.064.024.108-.068.13a.764.764 0 0 0-.323.16c-.034.03-.071.033-.11.01a2.148 2.148 0 0 1-.57-.466.339.339 0 0 0-.104-.083 2.928 2.928 0 0 0-1.095-.304c-.189-.017-.249.063-.18.241.303.698.607 1.438.91 2.22.114.298.267.565.459.801.604.61.97 1.311 1.097 2.107.042.238.164.29.367.156.278-.135.488-.288.63-.459.182-.22.32-.38.417-.477.166-.09.308-.062.426.084.134.164.153.275.056.333a.37.37 0 0 0-.248-.283.129.129 0 0 0-.121.015.537.537 0 0 0-.166.198c-.064.115-.03.173.102.173h.422c.317.452.662.891 1.035 1.319a.87.87 0 0 0 .358.255c.338.22.434.538.288.953a.416.416 0 0 0 .048.367c.12.19.153.372.1.546a.208.208 0 0 0 .002.131c.088.27.061.492-.08.664a.118.118 0 0 1-.112.045c-.326-.043-.598-.256-.817-.638-.048-.084-.04-.16.025-.232.089-.092.183-.197.282-.313.188-.223.174-.436-.043-.638-.206-.192-.318-.408-.336-.647a.274.274 0 0 0-.04-.127c-.153-.26-.462-.573-.925-.94-.05-.04-.097-.036-.14.012-.448.499-.89.935-1.324 1.308-.035.03-.03.055.01.074.164.073.375.089.633.047a.459.459 0 0 1 .487.21c.175.26.271.536.287.83a.298.298 0 0 0 .034.127c.205.381.478.69.82.927.084.058.093.12.026.184-.226-.023-.303.064-.23.259.057.15.166.165.327.042.043.433.161.873.354 1.32.102.237.17.547.201.93.004.122-.054.17-.174.146a1.996 1.996 0 0 1-.755-.322.436.436 0 0 1-.096-.094c-.16-.215-.133-.452.083-.711a.112.112 0 0 0 .02-.117.509.509 0 0 1-.013-.357c.07-.179.026-.323-.131-.434-.24-.17-.329-.347-.267-.531a.331.331 0 0 0-.072-.349 8.251 8.251 0 0 0-.95-.93.153.153 0 0 0-.142-.031 5.893 5.893 0 0 0-1.26.45 8.21 8.21 0 0 1-2.614.79c-.135.018-.166.083-.092.198.28.442.593.808.938 1.097a.681.681 0 0 1 .068.34c-.102.07-.145.207-.13.41.003.404.13.707.382.91.14.112.202.083.188-.086a.741.741 0 0 0-.206-.342c-.238-.213-.3-.462-.186-.747.013-.033.045-.056.094-.07.063-.004.108-.04.136-.108.079-.2 0-.337-.239-.414-.057-.078-.026-.122.092-.132.22-.02.369.074.445.281.136.373.298.678.485.918a.124.124 0 0 0 .11.05c.258-.018.462.13.613.446.268.559.6 1.104.994 1.636.064.085.045.14-.058.168-.159.042-.267.116-.324.22-.05.094-.124.19-.22.29-.113.118-.15.269-.11.452a.3.3 0 0 1 0 .134c-.128.543-.477 1.04-1.048 1.49-.19.15-.36.355-.51.613a.413.413 0 0 1-.267.194c-.144.07-.152.154-.023.249.26.179.543.15.85-.086.129-.097.278-.079.447.055.038.026.079.04.124.042.314.016.53.197.647.542.082.24.029.274-.16.104a1.278 1.278 0 0 0-.242-.171c-.191-.104-.259-.05-.202.16a.814.814 0 0 1-.009.485c-.07.206-.135.215-.196.026-.067-.213-.206-.279-.416-.196-.176.07-.242.191-.196.366.047.18.004.205-.13.077-.215-.235-.515-.338-.9-.307a2.827 2.827 0 0 0-.817.177.446.446 0 0 1-.463-.129c-.139-.143-.267-.178-.385-.104a.78.78 0 0 1-.445.122 1.063 1.063 0 0 0-.508.105c-.188.092-.234.045-.138-.142.181-.348.455-.563.821-.647.065-.014.076-.047.033-.098a1.752 1.752 0 0 1-.33-.572.094.094 0 0 0-.09-.07c-.24-.015-.49.082-.75.295-.078.064-.154.062-.23-.005a1.077 1.077 0 0 0-.374-.157 6.696 6.696 0 0 1-.787-.217.31.31 0 0 0-.132-.015c-.333.036-.593-.049-.78-.254a.389.389 0 0 0-.105-.083c-.217-.124-.36-.1-.432.073-.07.167-.036.31.1.43.34.3.591.392.753.276a.218.218 0 0 1 .124-.041c.25-.006.454.13.612.41.058.101.024.147-.102.136-.166-.071-.31-.08-.434-.026-.125.065-.123.126.007.18.235.1.333.261.294.484-.007.046-.032.059-.074.04a.588.588 0 0 0-.201-.032 6.749 6.749 0 0 1-1.456-.224c-.099-.035-.178-.01-.237.076-.043.063-.027.162.048.3.107.195.053.264-.162.208a7.322 7.322 0 0 1-1.52-.591.661.661 0 0 0-.452-.06c-.25.043-.567.06-.953.053a.485.485 0 0 0-.29.093c-.21.123-.246.084-.11-.119.204-.3.498-.532.882-.695a.28.28 0 0 1 .131-.024c.193.011.385.02.579.028a.264.264 0 0 0 .13-.028c.158-.075.18-.176.066-.302a2.23 2.23 0 0 0-.42-.354.338.338 0 0 1-.065-.414 2.15 2.15 0 0 1 .459-.602c.063-.06.069-.125.019-.196-.128-.212-.191-.408-.19-.586.003-.161-.136-.226-.415-.197-.181.022-.249.122-.202.299.141.462.095.879-.14 1.25-.304.49-.798.683-1.48.58-.333-.051-.628-.221-.886-.511a2.101 2.101 0 0 1-.382-.57c-.075-.215-.073-.503.004-.865.018-.202-.071-.325-.268-.369-.327-.075-.66-.167-.998-.278a.122.122 0 0 0-.119.022c-.209.163-.268.35-.177.562.185.432.471.915.858 1.449.154.243.09.393-.19.45a5.028 5.028 0 0 1-.6.039.348.348 0 0 1-.365-.237c-.103-.255-.127-.469-.072-.64a.296.296 0 0 0 .011-.132 4.162 4.162 0 0 0-.427-1.26c.142.027.313-.008.511-.107a.143.143 0 0 0 .08-.095c.056-.213.141-.42.255-.624a.242.242 0 0 0 .03-.128c-.008-.154.058-.305.2-.45.177-.188.304-.381.38-.582.058-.093.034-.128-.073-.105-.166.035-.23-.014-.19-.148.065-.216.144-.387.239-.51.193-.254.393-.353.599-.296.13.036.25.015.36-.064.377-.274.676-.4.897-.379a.107.107 0 0 0 .106-.05.767.767 0 0 1 .474-.338.27.27 0 0 0 .12-.057c.17-.138.34-.28.507-.424a.552.552 0 0 1 .113-.073 4.625 4.625 0 0 0 1.472-1.088c.07-.08.138-.079.204.003.16.191.279.25.356.178.221-.205.449-.242.682-.11.039.023.074.017.105-.016.112-.124.229-.25.35-.378a.164.164 0 0 0 .046-.117c0-.138-.069-.194-.204-.17-.47.085-.987.163-1.554.232a.313.313 0 0 0-.294.253.934.934 0 0 1-.365.57c-.595.451-1.24.713-1.932.785a.255.255 0 0 0-.124.046.412.412 0 0 1-.258.088c-.117-.005-.142-.065-.077-.178a.668.668 0 0 1 .213-.19c.018.028.062.038.13.028.266.072.515-.01.747-.246.129-.132.245-.256.348-.372.107-.085.207-.142.298-.173.355-.12.592-.355.71-.701a.354.354 0 0 1 .065-.117.671.671 0 0 0 .147-.501c0-.519.038-1.131.113-1.838.083-.117.08-.275-.01-.477a3.59 3.59 0 0 0 0-.442c.044-.059.06-.113.047-.164a.098.098 0 0 0-.083-.079c-.491-.11-.906-.061-1.245.149-.178.11-.226.223-.144.337l.005.063c-.18.15-.397.265-.652.346-.076.005-.112-.02-.107-.074.12-.164.283-.343.49-.536.099-.092.137-.148.113-.17a.094.094 0 0 0-.113-.01c-.812.441-1.333 1.136-1.566 2.086a7.614 7.614 0 0 0-.178 2.34c.059.748-.194 1.29-.757 1.626-.33.193-.52.423-.57.689-.094.766-.38 1.515-.857 2.247-.129.03-.17-.006-.124-.108a.183.183 0 0 0 .008-.128 2.898 2.898 0 0 0-.415-.556c-.397-.418-.488-.934-.272-1.549.195-.451.428-.956.698-1.514.187-.386.156-.835-.094-1.348-.06-.135-.14-.148-.238-.04-.215.237-.533.507-.953.812v-.193c.13-.17.297-.337.5-.499a.35.35 0 0 0 .085-.103 3.28 3.28 0 0 0 .444-.927c.165-.512.34-1.024.522-1.536a.535.535 0 0 1 .06-.12c.212-.324.546-.628 1.002-.913a.524.524 0 0 1 .352-.084.17.17 0 0 0 .127-.002c.188-.08.382-.153.584-.218.158-.04.257-.035.298.013.107.116.053.192-.162.23l-.716.124a.493.493 0 0 0-.128.043c-.43.204-.763.543-1.002 1.017a7.073 7.073 0 0 0-.469 1.2.415.415 0 0 0 .077.4c.436.56.66 1.199.672 1.914.006.364-.065.69-.212.979-.287.44-.418.905-.392 1.395.008.14.049.204.122.191a.1.1 0 0 0 .075-.088c.01-.343.066-.635.169-.877.116-.274.346-.487.689-.639.247-.133.414-.34.502-.62.13-.415.157-.922.085-1.524-.006-.046-.007-.091-.006-.137a8.85 8.85 0 0 1 .194-1.812c.128-.56.355-1.028.68-1.402a.257.257 0 0 1 .105-.079c.209-.086.242-.23.1-.43.006-.056-.02-.108-.077-.157-.457-.39-.934-.662-1.43-.817a1.134 1.134 0 0 0-.69.008c-.785.26-1.348.844-1.69 1.754a.605.605 0 0 0-.033.034c-.106.11-.146.101-.123-.026.098-.457.348-.888.75-1.293.34-.344.72-.565 1.14-.663a1.57 1.57 0 0 1 1.106.17c.48.244.934.516 1.361.817a.297.297 0 0 0 .28.046c.488-.153.96-.268 1.414-.344.13-.022.151-.082.061-.179a2.394 2.394 0 0 1-.223-.272c-.084-.123-.242-.259-.477-.409-.191-.163-.4-.339-.629-.528-.437-.364-.98-.525-1.625-.485a6.804 6.804 0 0 0-1.725.326c-.15.049-.196 0-.14-.147.278-.706.657-1.3 1.138-1.782.13-.132.134-.267.012-.405-.265-.297-.28-.572-.042-.825.184-.197.4-.322.646-.374.28-.08.556-.18.825-.303.197-.1.258-.255.183-.464-.045-.122-.185-.17-.42-.144-.178.019-.295.018-.353-.003-.187-.063-.225-.177-.115-.34.169-.25.385-.48.647-.69a.376.376 0 0 0 .13-.451 4.939 4.939 0 0 1-.318-.686 2.547 2.547 0 0 0-.545-1.022.695.695 0 0 1-.18-.539.424.424 0 0 0-.076-.335A9.144 9.144 0 0 1 5.3 2.008c-.073-.14-.058-.262.047-.364.035-.042.07-.043.107-.002.448.497.867.979 1.258 1.446a.183.183 0 0 0 .11.064c.101.02.149.06.144.124-.146.007-.236.044-.27.11-.106.207-.18.406-.223.598a.148.148 0 0 0 .024.123c.075.105.183.23.323.374.106.109.187.093.242-.048a.543.543 0 0 1 .204-.243c.188.041.211.123.069.243-.228.171-.305.372-.23.605.043.134.1.158.171.072a.165.165 0 0 0-.001-.127c-.048-.117-.017-.202.092-.256.041-.02.071-.05.09-.092.056-.12.164-.16.323-.117a.112.112 0 0 0 .114-.03c.042-.041.011-.09-.091-.149a3.936 3.936 0 0 0-.366-.183.35.35 0 0 0-.077-.225 1.426 1.426 0 0 1-.264-.581c.07.013.13.054.179.122.205.286.445.581.72.885.03.034.05.073.057.117.06.34.209.653.444.937.076.09.163.102.26.035.267-.186.566-.396.899-.631a.394.394 0 0 1 .416-.041c.341.152.806.205 1.394.158a.17.17 0 0 0 .156-.112c.084-.159.13-.31.139-.455.027-.467.166-.862.418-1.183.197-.237.143-.335-.162-.294-.41.08-.837.062-1.278-.054-.202-.054-.256-.165-.162-.333.046-.073.039-.142-.02-.205-.154-.166-.227-.238-.218-.217-.17-.357-.067-.472.306-.343.227.078.426.113.597.105a.246.246 0 0 0 .125-.04c.435-.27.884-.455 1.348-.554.045-.009.09-.01.135-.004ZM6.58 3.431c.015-.012.015-.043 0-.092a1.167 1.167 0 0 0-.09-.195c-.045-.08-.101-.171-.167-.269-.065-.097-.139-.2-.216-.3a4.929 4.929 0 0 0-.45-.519c-.131-.128-.222-.186-.253-.163-.015.011-.014.043.001.092.016.05.047.116.09.195.045.08.1.17.166.269.066.097.14.2.217.3.156.205.317.39.45.519.13.127.222.186.252.163Zm5.86.395c-.068-.02-.125.013-.17.102-.118-.13-.197-.132-.24-.005-.054.169 0 .243.163.222a.1.1 0 0 1 .105.047c.146.223.238.482.277.778.006.045.028.08.067.103.13.08.184.15.16.215-.015.043-.038.048-.07.017a4.407 4.407 0 0 1-.607-.795c-.106-.105-.13-.048-.068.17.082.296.218.545.408.749.12.166.21.194.273.085a.232.232 0 0 1 .234-.129c.192.013.325.01.397-.008a.09.09 0 0 0 .074-.083c.018-.173.096-.416.235-.731.073-.165.024-.276-.147-.334-.098-.034-.212-.009-.343.074a.216.216 0 0 0-.102 0 12.078 12.078 0 0 1-.374-.216.154.154 0 0 1-.034-.125c.17-.089.366-.07.586.055.16.09.302.09.427 0 .126-.097.126-.183 0-.256a2.21 2.21 0 0 0-.4-.145c-.152-.039-.184-.13-.097-.272h.057a.557.557 0 0 0 .32.23c.09.026.142-.008.154-.102a.479.479 0 0 0-.147-.42.143.143 0 0 1-.045-.116c.019-.292-.122-.448-.421-.469-.213-.014-.312.108-.298.366.01.155.007.243-.008.265-.09.123-.087.24.008.348.064.075.05.129-.043.162a.88.88 0 0 0-.332.218Zm.125-.395a.098.098 0 0 0-.168-.07.098.098 0 1 0 .168.07Zm5.553 1.424c.011-.046-.043-.105-.15-.164a1.695 1.695 0 0 0-.418-.15 1.693 1.693 0 0 0-.442-.05c-.122.006-.196.035-.207.081-.01.046.043.105.15.164.106.06.257.114.418.152.08.018.16.032.236.04.076.009.146.012.207.009a.475.475 0 0 0 .145-.026c.035-.014.056-.033.061-.056Zm-2.508 10.64a5.98 5.98 0 0 0 1.56 1.47c.293.102.602.16.928.172a.094.094 0 0 0 .095-.06c.005-.01.038-.028.1-.055.133.1.237.17.316.211.04.022.074.016.104-.019.053-.06.015-.18-.113-.357.002-.053.056-.05.162.009.235.13.441.241.621.332.136.04.182-.007.136-.142.001-.08.044-.098.128-.054.105.054.198.108.28.162.073.028.126.008.162-.06.127-.243.344-.36.653-.347a.599.599 0 0 0 .411-.138c.11-.09.27-.179.477-.267.2-.076.322-.052.366.071a.516.516 0 0 0 .255.29c.104.054.157.023.16-.094.02-.386-.096-.644-.347-.775-.05-.025-.102-.012-.155.039a.14.14 0 0 1-.117.04c-.463-.048-.991-.006-1.584.126-.526.117-.943.094-1.25-.07a.125.125 0 0 1-.068-.1 2.292 2.292 0 0 0-.347-.963c-.024-.04-.014-.057.031-.053.095.008.177.093.247.256a.167.167 0 0 0 .088.09c.181.045.234.007.16-.113a2.355 2.355 0 0 1-.327-.791c.317.22.564.56.743 1.02.086.22.175.221.268.006.051-.136-.004-.308-.166-.516-.119-.152-.107-.266.035-.34.182-.092.171-.132-.033-.121a4.605 4.605 0 0 1-.13.006.124.124 0 0 1-.11-.049.89.89 0 0 0-.408-.279c-.136-.046-.217-.012-.244.102-.307-.247-.68-.362-1.118-.345-.468-.091-.945-.167-1.43-.228-.085-.018-.142-.01-.17.023-.331-.019-.652-.05-.964-.094-.114-.015-.142.027-.083.126.102.168.145.316.128.442a.154.154 0 0 1-.062.109c-.166.127-.19.264-.068.41-.04.023-.09-.008-.15-.094a353.867 353.867 0 0 0-6.937-9.51.348.348 0 0 0-.1-.09c-.09-.058-.15-.047-.18.03a.121.121 0 0 0 .014.12A706.512 706.512 0 0 0 14.86 15.06a.517.517 0 0 1 .064.118.625.625 0 0 0 .24.326.29.29 0 0 1 .096.092c.167.27.348.534.542.794a160.22 160.22 0 0 1 2.501 3.456c.048.068.088.064.12-.013.045-.147.005-.301-.12-.464a59.156 59.156 0 0 1-1.804-2.485c-.267-.364-.53-.701-.791-1.013-.125-.148-.158-.272-.097-.374Zm-3.707-9.674c-.451-.227-.882-.443-1.294-.647a1.5 1.5 0 0 0-.757-.227.276.276 0 0 0-.129.025c-.116.057-.173.113-.172.168.002.045.026.071.071.078.56.084 1.304.364 2.232.838a.118.118 0 0 0 .075.011c.19-.06.18-.143-.026-.246Zm3.207-.879c-.02-.031-.111-.015-.253.046-.142.06-.323.16-.503.277-.09.057-.176.118-.255.177-.079.06-.148.116-.204.168a.864.864 0 0 0-.123.134c-.025.036-.032.063-.022.078.02.032.11.015.253-.045a4.384 4.384 0 0 0 .758-.454c.078-.06.148-.117.204-.169a.867.867 0 0 0 .123-.133c.024-.037.032-.063.022-.079Zm-3.532.406c.014-.032-.003-.075-.045-.12a.664.664 0 0 0-.292-.155.45.45 0 0 0-.102-.012.201.201 0 0 0-.077.014.073.073 0 0 0-.04.037c-.014.032.002.075.045.12a.664.664 0 0 0 .292.155c.036.007.07.012.101.011.03 0 .057-.004.077-.013a.073.073 0 0 0 .04-.037Zm-3.972.13c-.11-.094-.149-.07-.113.07.07.275.178.54.325.793a.407.407 0 0 0 .086.103c.182.16.354.38.513.663.027.048.062.057.108.028.107-.07.132-.167.076-.293a3.747 3.747 0 0 0-.995-1.364Zm4.16.785a6.677 6.677 0 0 1-1.377-.641.758.758 0 0 0-.125-.052 2.53 2.53 0 0 0-1.314-.077c-.156.032-.184.11-.082.232.058.059.182.082.372.07.313-.017.61.025.893.128a26.9 26.9 0 0 0 1.764.568.26.26 0 0 0 .133.004c.142-.03.26-.075.355-.134.195-.122.18-.164-.048-.124-.219.07-.409.078-.57.026Zm-1.813.147c-.077-.023-.096 0-.056.07.041.076.026.2-.045.37-.055.133-.053.193.006.181a.498.498 0 0 0 .36-.291c.068-.147-.02-.257-.265-.33Zm3.706.542c-.24-.046-.376.079-.408.375-.13.03-.23-.027-.301-.17-.031-.062-.102-.065-.212-.009a1.904 1.904 0 0 1-.98.207 1.321 1.321 0 0 1-.584-.233c.01-.078.01-.166-.002-.264-.021-.15-.1-.189-.239-.118-.253.13-.402.38-.446.75-.008.066.02.105.086.116.113.017.19-.087.232-.313.009-.045.109-.068.301-.069a.63.63 0 0 1 .103.34c-.152.093-.216.215-.191.367.002.008.03.006.086-.007.169-.224.262-.196.28.083.013.188.062.312.149.37a.111.111 0 0 0 .117.01.658.658 0 0 1 .577.003c.093.044.167.02.22-.068.109-.178.23-.192.367-.042.147.161.227.133.24-.085.013-.233.103-.362.27-.386.327-.138.5-.344.516-.619a5.57 5.57 0 0 0 .412-.336c.166-.158.149-.293-.05-.404-.13-.073-.182-.033-.155.12.038.207.047.312.026.314-.148.01-.286.033-.414.068ZM8.022 6.92c.017-.007.029-.026.032-.055a.254.254 0 0 0-.04-.144.18.18 0 0 0-.03-.036.09.09 0 0 0-.03-.02.042.042 0 0 0-.03 0c-.017.007-.028.027-.03.056a.254.254 0 0 0 .04.144.18.18 0 0 0 .028.035.09.09 0 0 0 .032.02c.01.003.02.003.028 0Zm.034.603a1.964 1.964 0 0 1-.408-.579c-.102-.168-.232-.194-.39-.079a2.287 2.287 0 0 0-.427.266c-.033.027-.043.057-.027.09.018.043.05.063.095.062.286-.005.581.108.885.342.149.113.26.093.332-.06-.009 0-.029-.014-.06-.042ZM6.074 9.545c.01.157.08.21.21.156a.243.243 0 0 1 .13-.016c.555.079 1.032.02 1.43-.174.173-.031.374-.052.605-.063a.127.127 0 0 1 .11.05c.032.05-.016.106-.144.17a4.896 4.896 0 0 1-1.932.484c-.305.025-.58.125-.826.298-.138.082-.203.161-.194.238.004.046.03.068.075.067.864-.006 1.735.088 2.612.282.63.14 1.262.046 1.898-.28.172-.084.279-.26.32-.528.027-.12-.014-.15-.122-.09-.56.34-1.157.515-1.79.523-.166.002-.195-.04-.086-.128a.28.28 0 0 1 .12-.055 4.225 4.225 0 0 0 1.507-.625c.196-.13.271-.237.227-.323-.02-.04-.05-.047-.087-.02-.675.482-1.471.762-2.387.837-.05.003-.037-.036.04-.12a.252.252 0 0 1 .111-.07c.344-.11.697-.263 1.058-.457.32-.172.648-.322.985-.45.042-.011.055-.037.036-.078-.12-.262-.344-.39-.672-.384a.416.416 0 0 1-.134-.02 5.763 5.763 0 0 0-.685-.17.447.447 0 0 0-.134-.005c-.353.03-.682.027-.987-.008-.565-.065-1.021.048-1.369.34a.357.357 0 0 0-.087.101c-.123.207-.07.38.162.518Zm14.571-.489c.021-.028.02-.072-.004-.121a.403.403 0 0 0-.122-.14.47.47 0 0 0-.086-.05.332.332 0 0 0-.084-.027.173.173 0 0 0-.071.002.083.083 0 0 0-.046.03c-.022.029-.02.073.003.122a.466.466 0 0 0 .208.19c.03.013.058.022.085.026.027.004.05.004.07-.002a.083.083 0 0 0 .047-.03Zm-8.436.883a5.79 5.79 0 0 0-.35-.283.1.1 0 0 0-.109.04c-.05.076-.014.137.11.183.392.147.707.326.947.538.125.126.218.105.279-.061.074-.234.005-.336-.204-.306-.29.041-.514.005-.673-.11Zm-3.774 1.512a8.614 8.614 0 0 0-2.94-.383.554.554 0 0 0-.133.022c-.234.07-.34.188-.319.351.02.143.098.195.237.157.678-.22 1.26-.283 1.747-.187a6.302 6.302 0 0 1 1.434.454.309.309 0 0 0 .132.017c.267-.02.553-.05.86-.088.317-.04.564-.178.74-.417.094-.129.094-.204-.002-.225a.17.17 0 0 0-.125.022c-.442.265-.942.367-1.499.304a.642.642 0 0 1-.132-.027Zm2.03.806c-.122.04-.246.098-.374.175-.11.066-.117.142-.025.23.09.074.222.11.4.11.28.008.556-.046.824-.161.353-.15.677-.315.97-.493.14-.08.12-.124-.059-.128-.253.013-.506.1-.757.264a.446.446 0 0 1-.468.037 1.601 1.601 0 0 0-.094-.617c-.028-.08-.07-.088-.126-.023-.103.123-.123.247-.058.372.02.04.01.07-.031.087a.63.63 0 0 0-.202.147Zm-1.754-.085c-.059-.007-.086.018-.083.077.01.14.09.212.237.217.375.015.696-.062.961-.23.145-.102.183-.193.115-.272-.056-.064-.12-.074-.19-.027a1.475 1.475 0 0 1-1.04.235Zm11.238 1.425c.042.002.086-.08.121-.225.036-.147.061-.346.07-.554a3.7 3.7 0 0 0 0-.302 2.298 2.298 0 0 0-.023-.256.742.742 0 0 0-.044-.173c-.017-.04-.037-.062-.058-.062-.042-.002-.085.079-.121.225-.036.146-.06.346-.07.554a3.612 3.612 0 0 0 0 .302c.004.095.012.183.023.256a.748.748 0 0 0 .044.173c.018.04.038.061.058.062Zm-7.918-.591a5.115 5.115 0 0 1-.375.005c-.068-.002-.104.032-.107.1-.006.235.04.349.142.342.163-.01.3-.134.413-.374a.793.793 0 0 1 .37-.17c.12-.024.165-.118.133-.283-.016-.083-.051-.093-.108-.032a3.007 3.007 0 0 1-.468.412Zm.579.102c-.263.021-.445.17-.546.444-.017.042-.007.078.028.106.015.01.064-.003.149-.041a.162.162 0 0 1 .126-.003c.441.168.907.315 1.398.441.09.024.11-.004.062-.083a1.836 1.836 0 0 0-.469-.49 1.086 1.086 0 0 0-.272-.267c-.207-.15-.366-.185-.476-.107Zm8.85 1.576a.794.794 0 0 1-.077-.201c-.05-.179-.149-.227-.298-.145-.02.013.005.147.076.4a.632.632 0 0 1-.012.378c-.014.044 0 .056.041.038.067-.028.168-.117.304-.265.048-.03.236-.22.563-.572.127-.136.102-.233-.075-.292-.184-.06-.315.001-.393.183a.248.248 0 0 0-.02.13.383.383 0 0 1-.11.346Zm-7.767 1.186c.098-.232.132-.482.102-.749.246-.201.353-.437.32-.708-.013-.11-.06-.126-.137-.046-.166.168-.394.351-.684.549a.307.307 0 0 0-.141.261 4.775 4.775 0 0 1-.428 1.902c-.078.176-.14.17-.185-.017-.01-.046-.055-.068-.135-.068-.294 0-.577.046-.85.136-.18.055-.395.032-.647-.068-.314-.097-.47-.167-.469-.213.028-.886.142-1.726.342-2.521a.331.331 0 0 0 .005-.134c-.051-.114-.099-.143-.143-.086a1.585 1.585 0 0 0-.318 1.082.388.388 0 0 1-.015.133c-.169.589-.205 1.268-.11 2.037.014.1.07.148.173.144.77.001 1.414-.067 1.93-.204.122-.032.2.016.237.144a.241.241 0 0 1-.063.245 1.23 1.23 0 0 1-.245.196c-.038.024-.04.052-.006.083.16.152.326.256.498.312.073.024.102-.002.086-.077a1.012 1.012 0 0 0-.107-.384c-.053-.153-.025-.17.085-.05.113.12.192.251.235.393a.139.139 0 0 0 .084.091c.182.074.393.05.633-.07.04-.022.048-.05.023-.088a2.82 2.82 0 0 0-.582-.59.112.112 0 0 1-.043-.111c.012-.093.03-.226.05-.4.023-.186.1-.302.23-.349.087-.026.124-.084.11-.173a.488.488 0 0 1 .137-.398c.043-.048.053-.116.028-.204Zm-2.683-1.537a.743.743 0 0 0-.145.338c-.105.733-.159 1.403-.162 2.01-.002.206.1.3.307.278.449-.044.87-.107 1.26-.19a.3.3 0 0 1 .134.003c.109.026.142-.048.098-.22-.025-.176.014-.3.116-.371a.191.191 0 0 0 .083-.151c.02-.363.066-.674.137-.936a.249.249 0 0 1 .066-.114c.111-.114.216-.242.314-.384.06-.085.037-.136-.065-.151a4.903 4.903 0 0 0-1.292-.046.317.317 0 0 1-.134-.013 3.645 3.645 0 0 0-.615-.115c-.047-.006-.081.015-.102.062Zm9.297 1.481c.038-.005.064-.086.072-.225a2.813 2.813 0 0 0-.03-.516 2.81 2.81 0 0 0-.112-.504c-.045-.132-.092-.203-.13-.198-.038.006-.064.087-.072.226-.008.139.002.324.029.516.026.191.067.373.113.504.045.132.092.203.13.197Zm.517-1.3a.128.128 0 0 0-.037-.09.128.128 0 0 0-.09-.036.127.127 0 0 0-.09.216.127.127 0 0 0 .217-.09Zm3.593 1.474c.048-.014.084-.066.098-.143a.59.59 0 0 0-.022-.266.59.59 0 0 0-.128-.235c-.055-.056-.112-.08-.16-.065-.05.014-.084.066-.099.142a.589.589 0 0 0 .022.267.59.59 0 0 0 .129.235c.054.056.112.08.16.065Zm-9.669-.186c-.091.09-.162.161-.212.214-.03.034-.028.064.008.093.052.041.112.098.181.17-.106.094-.266.15-.482.17-.181.016-.235.085-.162.205.023.04.056.067.098.082.126.046.195.096.209.149.011.044-.005.071-.05.081a.945.945 0 0 0-.427.24c-.053.05-.059.107-.019.167.165.25.358.44.579.574.134.082.229.05.284-.098a1.42 1.42 0 0 1 .175-.31c.09.002.178 0 .266-.006.08.009.16.009.239 0 .157.014.212-.12.164-.403a.728.728 0 0 0 .103-.34c.001-.199-.04-.335-.126-.41-.01-.142-.089-.23-.237-.265a.111.111 0 0 1-.087-.08 103.98 103.98 0 0 1-.158-.471c-.052-.157-.14-.226-.264-.206-.045.007-.069.033-.07.078-.005.082-.009.204-.011.366Zm9.718 1.208a.285.285 0 0 1 .103-.053.147.147 0 0 0 .09-.086c.07-.167.016-.322-.162-.464-.118-.096-.202-.006-.253.27-.014.11-.076.17-.188.178-.168.026-.214.126-.137.3.1.228.241.34.426.335a.12.12 0 0 0 .11-.047c.06-.075.059-.181-.005-.32a.097.097 0 0 1 .016-.113Zm-10.52 1.337a.27.27 0 0 0-.208-.044c-.332.057-.503.153-.512.29a.142.142 0 0 0 .045.116c.214.206.508.328.882.365.157.016.226-.054.207-.21-.02-.174-.158-.346-.415-.517ZM12.54 21.22c-.011.122.065.214.23.275.124.046.209.05.255.01.035-.03.03-.053-.012-.07a1.894 1.894 0 0 1-.302-.181 8.24 8.24 0 0 1 1.063-.162.096.096 0 0 0 .09-.07c.154-.462.123-.876-.094-1.241-.078-.132-.042-.181.107-.149.255.057.454.21.598.46.262.302.548.52.857.651.168.157.28.21.332.157.04-.041-.046-.106-.259-.196a1.341 1.341 0 0 0-.312-.335c.102-.021.179-.009.23.037.308.271.651.325 1.03.162.208-.081.446-.115.715-.103.325.016.552.14.68.375.114.214.146.44.096.677a10.998 10.998 0 0 0-.232 1.944c-.017.4.12.627.409.68.498.092.967-.152 1.408-.733a.262.262 0 0 0 .046-.273c-.225-.68-.571-1.38-1.038-2.099-.116-.18-.14-.342-.07-.487.082-.147.059-.274-.067-.383a2.354 2.354 0 0 1-.458-.645c-.169-.344-.428-.697-.777-1.058-.073-.08-.157-.096-.253-.048a17.62 17.62 0 0 1-2.331.825 5.257 5.257 0 0 1-.987.17c-.496.04-.959.117-1.39.23a.177.177 0 0 0-.106.073 6.292 6.292 0 0 1-.998 1.085c-.215.183-.38.35-.495.498a.24.24 0 0 0-.048.123c-.029.28.112.507.424.682.04.021.082.032.128.03.33-.014.68-.027 1.047-.04.16-.005.204-.08.134-.225-.193-.32-.493-.585-.9-.796-.136-.07-.148-.127-.038-.17a.218.218 0 0 1 .13-.012 8.72 8.72 0 0 1 1.158.332Zm-7.785-1.83a.098.098 0 0 0 .056.02.17.17 0 0 0 .07-.013.294.294 0 0 0 .074-.044.398.398 0 0 0 .066-.068.348.348 0 0 0 .073-.164c.006-.054-.008-.097-.039-.121A.098.098 0 0 0 5 18.98a.17.17 0 0 0-.07.014.294.294 0 0 0-.074.044.391.391 0 0 0-.139.232c-.006.053.008.097.039.12Zm18.966-.15a.182.182 0 1 0-.364 0 .182.182 0 0 0 .364 0Zm-18.792.393a.143.143 0 0 0-.122-.04.25.25 0 0 0-.141.067.25.25 0 0 0-.078.135.143.143 0 0 0 .031.125.143.143 0 0 0 .122.04.25.25 0 0 0 .141-.067.25.25 0 0 0 .078-.135.143.143 0 0 0-.031-.125Zm18.525.675a.228.228 0 0 0 .197-.059.4.4 0 0 0 .122-.218.399.399 0 0 0-.023-.249.228.228 0 0 0-.156-.134.228.228 0 0 0-.197.06.4.4 0 0 0-.122.217.4.4 0 0 0 .023.25c.034.071.09.12.156.133Zm-12.301-.566c-.182-.086-.353-.046-.51.119-.238.25-.42.476-.545.68-.036.082.007.125.128.127a.158.158 0 0 0 .117-.046c.217-.212.491-.436.824-.672.107-.077.102-.146-.014-.207Zm8.171.103a.146.146 0 0 0-.187-.087l-.08.03a.146.146 0 0 0-.085.186l.376 1.023a.146.146 0 0 0 .187.086l.079-.03a.146.146 0 0 0 .086-.186l-.376-1.022ZM9.177 22.27a2.123 2.123 0 0 0-.28.141c-.039.025-.048.057-.028.098.026.054.127.065.303.033a1.49 1.49 0 0 1 .586-.008c.15.038.226.03.23-.026.019-.198-.05-.29-.204-.278 0-.24-.139-.45-.416-.633-.309-.207-.372-.423-.188-.647.26-.317.492-.628.698-.935.115-.213.075-.265-.12-.154a8.803 8.803 0 0 1-2.595 1.047 2.06 2.06 0 0 0-.79.298c-.28.176-.448.463-.503.86-.042.238.06.318.306.238.226-.073.421-.04.586.1.035.03.075.047.12.053.36.051.75.018 1.17-.1a.51.51 0 0 1 .132-.02c.288-.006.586-.071.894-.195.082-.033.115.01.099.128Zm-5.14-1.43c-.091.189-.085.418.02.689.049.124.11.13.182.019.132-.205.13-.441-.008-.708.097-.262.107-.406.03-.434-.079-.028-.154.116-.224.434Zm16.951 1.628c.132.04.212.052.241.037.04-.02.044-.047.011-.078-.257-.245-.46-.59-.606-1.034-.038-.115-.098-.128-.18-.04-.145.16-.26.202-.348.125-.077-.068-.015-.172.185-.311.106-.061.123-.142.053-.241a.664.664 0 0 0-.288-.35c-.134-.071-.188-.006-.162.196.052.127.067.22.042.28-.087.215-.196.37-.327.463-.037.027-.043.058-.016.096.122.171.3.402.53.693a.752.752 0 0 0 .205.178 3.2 3.2 0 0 0 .557.275c.043.015.076.004.1-.034.009-.013-.006-.083-.043-.21-.013-.043.003-.058.046-.045Zm-3.72-1.606c-.062-.017-.097.007-.105.072-.058.458-.113.94-.167 1.444-.02.193.017.205.112.037.208-.37.359-.736.453-1.101a.33.33 0 0 0 .009-.134c-.023-.164-.123-.27-.301-.318Zm-2.072.858c.28.022.379.135.299.337-.045.112-.1.217-.168.315a.285.285 0 0 0-.233-.063c-.16-.115-.292-.122-.394-.019a.168.168 0 0 1-.116.05.586.586 0 0 1-.243-.046.173.173 0 0 0-.128 0 1.483 1.483 0 0 1-.812.052.902.902 0 0 0-.58.068c-.14.07-.193.12-.16.15.034.03.073.043.119.038.325-.017.642-.003.953.042.332.047.763.045 1.293-.005.14.018.264-.001.375-.058.237-.113.409-.092.516.063-.026.229-.166.373-.422.434-.45.107-.864.237-1.243.391-.079.087-.059.118.06.094.389-.08.772-.111 1.149-.094.094.046.063.1-.094.162-.2.08-.407.178-.621.298-.096.073-.083.106.037.1.248-.014.442-.093.58-.237a.32.32 0 0 1 .109-.078c.264-.117.464-.263.601-.438.028-.036.064-.045.107-.029.11.044.166.172.168.384-.131.169-.24.32-.326.45-.078.119-.078.207-.003.265a10.51 10.51 0 0 1-.712.723c-.085.103-.079.132.017.086.304-.148.61-.33.922-.546.14-.088.172-.058.098.088-.11.235-.235.456-.373.662-.01.087.003.112.042.076.445-.421.754-.952.928-1.591a.326.326 0 0 0-.073-.344 5.45 5.45 0 0 1-.433-.536.256.256 0 0 1-.046-.124 1.06 1.06 0 0 1 .046-.437.213.213 0 0 0 0-.13 4.564 4.564 0 0 1-.178-.815c-.036-.294-.2-.41-.49-.35-.716.15-1.569.242-2.557.275-.106.004-.113.032-.02.085.323.17.688.259 1.096.265.28.005.583 0 .91-.014Zm-10.794.587c.047.012.099 0 .143-.034a.294.294 0 0 0 .104-.238.248.248 0 0 0-.019-.084.188.188 0 0 0-.044-.064.15.15 0 0 0-.064-.036.166.166 0 0 0-.143.034.293.293 0 0 0-.104.238c.001.03.008.058.019.084.01.025.026.047.044.064a.15.15 0 0 0 .064.036Zm7.49.513c.147-.098.26-.203.34-.315.065-.09.043-.146-.065-.167a1.117 1.117 0 0 0-.51 0 1.74 1.74 0 0 1-.877-.043.569.569 0 0 0-.406-.015c-.18.05-.187.117-.02.202a.445.445 0 0 0 .33.031c.252-.07.34.02.267.271a7.836 7.836 0 0 0-.229 1.06.202.202 0 0 0 .02.129c.06.114.183.204.37.27.109.039.129-.004.06-.127-.176-.203-.262-.328-.256-.375.037-.335.202-.636.494-.901.074-.068.118-.093.13-.073.027.037.03.076.01.117-.09.183-.151.395-.182.637a.15.15 0 0 0 .034.121c.038.039.086.01.144-.087.105-.176.194-.387.267-.633a.189.189 0 0 1 .079-.102Zm-3.47-.276c-.025-.044-.086-.066-.169-.06a.685.685 0 0 0-.275.09.802.802 0 0 0-.127.088.557.557 0 0 0-.093.1.267.267 0 0 0-.046.097.111.111 0 0 0 .01.078c.024.044.085.066.168.06a.685.685 0 0 0 .275-.09.802.802 0 0 0 .127-.088.557.557 0 0 0 .093-.1.267.267 0 0 0 .046-.096.111.111 0 0 0-.01-.079Zm-2.469-.034c-.019-.018-.054-.017-.097.002a.529.529 0 0 0-.226.24.156.156 0 0 0-.011.058c0 .017.006.03.015.039.019.018.054.017.097-.002a.522.522 0 0 0 .226-.24.156.156 0 0 0 .011-.058.054.054 0 0 0-.015-.04Zm.652.073a.145.145 0 0 0-.119-.06.301.301 0 0 0-.225.105.245.245 0 0 0-.042.07.172.172 0 0 0-.012.07.126.126 0 0 0 .02.062.145.145 0 0 0 .118.06.301.301 0 0 0 .225-.105.245.245 0 0 0 .043-.07.172.172 0 0 0 .012-.07.126.126 0 0 0-.02-.062Zm.921.176c-.01-.047-.048-.085-.107-.108a.427.427 0 0 0-.31.025.328.328 0 0 0-.082.057.201.201 0 0 0-.048.07.125.125 0 0 0-.007.072c.01.047.048.085.107.107a.38.38 0 0 0 .207.01.38.38 0 0 0 .185-.092c.045-.043.065-.094.055-.141Zm-.498 1.217c.04.019.094.002.153-.048a.683.683 0 0 0 .159-.216.682.682 0 0 0 .073-.26c.003-.076-.018-.13-.057-.15-.04-.018-.094-.001-.153.048a.683.683 0 0 0-.16.217.682.682 0 0 0-.072.26c-.003.076.018.13.057.149Zm3.52.475a.145.145 0 0 0 .067 0 .176.176 0 0 0 .064-.032.22.22 0 0 0 .052-.058.254.254 0 0 0 .038-.156.217.217 0 0 0-.02-.075.173.173 0 0 0-.045-.057.146.146 0 0 0-.127-.03.174.174 0 0 0-.065.031.218.218 0 0 0-.052.058.252.252 0 0 0-.037.156c.002.027.01.052.02.075a.173.173 0 0 0 .044.057.145.145 0 0 0 .06.03Zm-5.521-.215c-.16-.168-.226-.137-.197.094.014.095.055.237.12.424.058.161.193.24.407.237.098 0 .128-.046.09-.136a2.024 2.024 0 0 0-.42-.62Zm3.258.276a.137.137 0 1 0-.274 0 .137.137 0 0 0 .274 0Zm.662-.01a.037.037 0 0 0-.018-.05l-.131-.06a.036.036 0 0 0-.04.006.037.037 0 0 0-.009.011l-.338.73a.037.037 0 0 0 .018.048l.13.06a.037.037 0 0 0 .05-.017l.338-.729Zm9.485.277c.02.014.05.011.084-.007a.284.284 0 0 0 .092-.09.28.28 0 0 0 .047-.12c.004-.038-.005-.067-.026-.08-.02-.014-.05-.011-.083.007a.28.28 0 0 0-.092.09.28.28 0 0 0-.047.12c-.004.038.005.067.025.08Zm-11.199.293c.033-.02.049-.066.043-.127a.472.472 0 0 0-.072-.198.472.472 0 0 0-.146-.152c-.052-.031-.1-.038-.133-.017-.034.02-.049.067-.043.128a.471.471 0 0 0 .072.197c.041.066.094.12.146.152.052.032.1.038.133.017Zm11.998-.324a.095.095 0 0 0-.045-.041.18.18 0 0 0-.074-.017.332.332 0 0 0-.092.011.46.46 0 0 0-.245.163c-.031.048-.04.095-.02.13a.095.095 0 0 0 .044.042c.02.01.045.016.073.017a.455.455 0 0 0 .337-.174c.032-.048.04-.095.022-.13Zm-1.61.9c.104-.111.109-.32.015-.628a.404.404 0 0 0-.316-.274c-.08.004-.093.072-.039.204.108.265.177.504.206.715-.001.046.02.076.064.09-.003-.018.02-.054.07-.107Zm-12.439-.439c-.079-.12-.167-.17-.265-.148-.13.029-.144.188-.042.476.087.225.22.258.4.097.072-.064.146-.157.22-.276.023-.04.016-.072-.02-.099a.683.683 0 0 0-.176-.004.157.157 0 0 1-.117-.046Zm5.495.402a.103.103 0 0 0 .016-.06.176.176 0 0 0-.02-.072.304.304 0 0 0-.052-.072.405.405 0 0 0-.165-.105.303.303 0 0 0-.087-.016.177.177 0 0 0-.074.013.103.103 0 0 0-.048.04.103.103 0 0 0-.015.06c.001.022.008.046.02.071.012.025.03.05.052.072a.402.402 0 0 0 .252.12.175.175 0 0 0 .073-.012.103.103 0 0 0 .048-.039Zm.828.49a.06.06 0 0 0 .018-.038.138.138 0 0 0-.005-.055.28.28 0 0 0-.028-.064.397.397 0 0 0-.166-.153.136.136 0 0 0-.054-.011.06.06 0 0 0-.04.014c-.02.018-.024.05-.012.092a.34.34 0 0 0 .075.128.34.34 0 0 0 .119.089c.04.016.073.015.093-.003Zm6.472.378c.018-.03.018-.068 0-.107a.236.236 0 0 0-.093-.102.236.236 0 0 0-.134-.037c-.042.003-.076.021-.095.05-.018.03-.018.07 0 .108.017.04.05.076.093.102a.265.265 0 0 0 .067.029.208.208 0 0 0 .067.007.138.138 0 0 0 .056-.015.097.097 0 0 0 .039-.035Zm-5.427.105c-.131-.136-.2-.198-.205-.188-.039.084.047.244.258.481.076.103.17.121.28.056.124-.098.11-.175-.043-.23a3.19 3.19 0 0 1-.29-.119Zm-1.037.774c.012-.012.015-.032.009-.059a.35.35 0 0 0-.043-.097.972.972 0 0 0-.088-.122 1.524 1.524 0 0 0-.377-.323.354.354 0 0 0-.099-.04c-.027-.004-.046 0-.058.011-.011.012-.014.032-.008.059.006.027.02.06.043.098a.979.979 0 0 0 .088.121 1.556 1.556 0 0 0 .25.241.99.99 0 0 0 .126.083c.039.02.072.034.1.039.026.004.046 0 .058-.011Zm7.67-.471c.007-.037-.012-.078-.055-.115a.407.407 0 0 0-.173-.08.406.406 0 0 0-.191-.001c-.054.015-.09.044-.097.08a.088.088 0 0 0 .007.058c.01.02.025.04.046.057a.34.34 0 0 0 .077.049.477.477 0 0 0 .197.044.338.338 0 0 0 .09-.011.177.177 0 0 0 .067-.032.088.088 0 0 0 .031-.049Zm-1.099.103c-.003-.03-.042-.055-.11-.07a.834.834 0 0 0-.249-.011.835.835 0 0 0-.243.056c-.063.027-.098.06-.095.09.003.03.043.056.11.071a.837.837 0 0 0 .25.01.837.837 0 0 0 .243-.056c.063-.027.097-.06.094-.09Z" fill="#6E708C"/>
    <path d="M13.46 1.614a.216.216 0 0 1 .103 0c-.021.186-.09.276-.205.272-.2.018-.407.07-.62.156-.2.081-.45.16-.75.239-.192.077-.224.016-.095-.181a.845.845 0 0 1 .76-.296c.133.015.29-.026.467-.121a.148.148 0 0 1 .124-.01c.123.04.196.021.216-.06ZM13.332 2.825c.055.118.04.223-.042.315-.041.046-.055.114-.04.204h-.056c.052-.13.06-.218.02-.264-.103-.12-.115-.216-.037-.285.066-.057.117-.047.155.03ZM16.422 5.392a.887.887 0 0 0-.074.062c-.19-.068-.344-.051-.461.05a.324.324 0 0 1-.117.065.922.922 0 0 0-.565.472c-.1.198-.226.4-.377.605 0-.04-.014-.065-.04-.074.067-.057.101-.169.102-.335 0-.08.02-.124.061-.132a.145.145 0 0 0 .102-.07c.18-.293.488-.509.926-.649a.737.737 0 0 1 .443.006ZM11.172 6.858c.011.098.012.186.002.264a.494.494 0 0 0-.068.102c-.192.001-.292.024-.3.069-.042.226-.12.33-.233.313-.066-.011-.094-.05-.086-.116.044-.37.193-.62.446-.75.138-.071.218-.032.239.118ZM15.713 6.854c.068-.092.09-.082.062.03-.052.212-.122.44-.21.68a.764.764 0 0 0-.266.132c-.138.075-.266.199-.383.371-.088.13-.187.189-.296.179-.076-.006-.087-.035-.034-.089.412-.41.787-.844 1.127-1.303ZM15.508 7.871c-.05.458-.29.707-.72.75a1.52 1.52 0 0 1 .383-.401.505.505 0 0 0 .201-.349c.046-.087.092-.087.136 0ZM14.788 8.62c-.22.279-.414.507-.579.686-.053-.005-.099-.043-.136-.113a.205.205 0 0 1 .034-.159c.223-.216.45-.354.681-.414ZM2.934 13.972c.176.264.272.605.289 1.021.02.193-.058.252-.237.179a.854.854 0 0 1-.456-.409c-.079-.156-.183-.174-.312-.056-.274.257-.319.534-.135.831.128.207.316.388.563.542.156.094.263.055.322-.116.094-.311.235-.578.425-.8.115-.134.182-.125.202.026-.19.455-.363.943-.516 1.463a1.243 1.243 0 0 0-.04.443 4.1 4.1 0 0 0-.096.13c-.164.107-.29.247-.378.421a.341.341 0 0 0-.036.13c-.024.275-.022.522.005.74.006.046.03.065.076.057.006 0 .037-.007.094-.02.09.113.17.196.239.249a.578.578 0 0 1 0 .437c-.093.34-.161.726-.205 1.157-.01.1-.055.1-.136 0a6.078 6.078 0 0 0-.28-.842c-.101-.24-.15-.437-.145-.589a.397.397 0 0 0 .01-.134 2.215 2.215 0 0 1 .45-1.6c.242-.318.188-.57-.166-.757-.342-.155-.59-.427-.746-.817-.133-.339-.08-.654.162-.945.187-.247.394-.364.621-.353.176.006.255-.08.237-.254 0-.278.063-.322.19-.134Zm-.15 5.143a.204.204 0 1 0-.408 0 .204.204 0 0 0 .409 0ZM9.756 14.338c-.056.035-.08.067-.074.097a.822.822 0 0 0-.442.074.761.761 0 0 1-.54.068l-.005-.063a.762.762 0 0 0 .332-.15c.25-.186.493-.194.729-.026ZM15.576 16.38c.086.075.127.211.126.41a3.122 3.122 0 0 0-.327-.039c-.046-.003-.068-.027-.067-.072.002-.085.091-.185.268-.298Z" fill="#6E708C"/>
    <path d="M3.113 18.497v.193a.396.396 0 0 1-.17.113 1.448 1.448 0 0 1-.239-.25c.048-.182.185-.2.409-.056ZM20.417 21.972c.084-.077.12-.176.077-.222-.041-.045-.143-.02-.228.057-.084.077-.119.177-.077.222.041.046.144.02.228-.057ZM15.094 22.309a.285.285 0 0 1 .233.063c-.024.124 0 .194.074.21a.628.628 0 0 1-.375.056.72.72 0 0 0 .068-.329Z" fill="#6E708C"/>
    <path d="M16.292 23.474c.096.182.109.318.04.409-.094.12-.216.223-.37.306-.075-.058-.074-.146.003-.264.086-.132.195-.282.327-.45ZM10.373 24.05c-.026.113.027.222.119.244.092.022.188-.052.215-.165.027-.112-.026-.221-.118-.243-.092-.022-.189.051-.216.164ZM8.093 24.493a.138.138 0 1 0 0-.275.138.138 0 0 0 0 .275ZM8.875 24.296l-.13-.061a.037.037 0 0 0-.05.018l-.338.728c-.008.019 0 .04.018.049l.131.06c.018.01.04.001.049-.017l.338-.729a.037.037 0 0 0-.018-.049ZM18.4 24.423c-.055.082-.064.171-.022.2.043.028.122-.016.176-.098.054-.082.064-.172.021-.2-.043-.028-.121.015-.175.098ZM11.235 25.857c.075.085.17.124.212.087.042-.038.014-.136-.062-.22-.076-.086-.17-.124-.212-.087-.041.037-.014.136.062.22ZM17.69 26.336c.09.054.192.048.23-.014.037-.062-.005-.155-.093-.21-.09-.053-.191-.047-.229.015-.037.062.004.155.093.21ZM17.692 26.98c.192-.018.343-.084.338-.146-.006-.063-.167-.1-.36-.082-.192.018-.343.083-.337.146.006.063.166.1.359.082Z" fill="#9EA0B3"/>
</svg>
