<svg width="85" height="33" fill="none" xmlns="http://www.w3.org/2000/svg">
    <path d="M20.9 18.463c.004 1.717.007 3.44.009 5.168 0 .447-.003.892-.008 1.335a7.35 7.35 0 0 1-.047.516 1.68 1.68 0 0 1-.321.812c-.138.177-.33.299-.575.366a3.22 3.22 0 0 1-.914.114c-.473-.005-.945 0-1.415.016-.346.014-.67.095-.97.244a2.03 2.03 0 0 0-.627.437c-.01.01-.02.01-.031 0a2.48 2.48 0 0 0-1.145-.608 2.49 2.49 0 0 0-.522-.073 25.36 25.36 0 0 0-1.375-.016 3.186 3.186 0 0 1-.89-.114 1.16 1.16 0 0 1-.55-.342.84.84 0 0 1-.169-.259c.158-.457.351-.888.582-1.292a10.73 10.73 0 0 1 .958-1.396 9.63 9.63 0 0 0 .383-.43 2.37 2.37 0 0 1 .265-.275 194.1 194.1 0 0 1-.065 1.528 583.52 583.52 0 0 0-.072 1.616.296.296 0 0 1-.03.123c-.01.025-.025.029-.045.01a2.169 2.169 0 0 1-.27-.31 2.365 2.365 0 0 0-.201-.245c-.015-.016-.027-.014-.036.006a.814.814 0 0 0-.015.514.407.407 0 0 0 .109.19.987.987 0 0 0 .497.292c.072.016.117-.012.134-.084.014-.069.022-.14.026-.215.052-1.14.111-2.286.178-3.439a.048.048 0 0 1 .029-.043 1.37 1.37 0 0 0 .462-.374c.091-.11.167-.214.228-.31.022-.033.036-.03.043.01.027.181.06.385.097.611.016.096.07.181.163.256.067.055.116.12.144.193.046.109.124.197.233.265.112.074.2.16.264.259.065.1.148.196.25.287a4.88 4.88 0 0 0 1.174.775.27.27 0 0 0 .16.023c.067-.01.112.017.134.082a.308.308 0 0 0 .182.2c.01.004.018.01.025.018a.767.767 0 0 1 .108.215c.052.15.154.233.308.247.113.011.213.03.302.055a.09.09 0 0 1 .028.014c.09.064.184.142.285.232.028.014.036.006.024-.024a3.996 3.996 0 0 0-.169-.357.06.06 0 0 1-.005-.03c.01-.106.012-.215.007-.33a.544.544 0 0 0-.143-.308 6.817 6.817 0 0 0-.233-.257.425.425 0 0 1-.113-.145.829.829 0 0 0-.105-.177.075.075 0 0 0-.026-.018.512.512 0 0 1-.138-.091.115.115 0 0 1-.02-.025c-.153-.24-.315-.481-.486-.722-.07-.099-.144-.186-.221-.26a.627.627 0 0 0-.237-.174.212.212 0 0 1-.133-.132 1.396 1.396 0 0 0-.114-.248.3.3 0 0 1-.032-.176.511.511 0 0 0 .002-.153.103.103 0 0 0-.01-.03.728.728 0 0 1-.08-.468c.002-.02.008-.02.017-.003l.302.615c.056.116.116.22.18.313a.043.043 0 0 0 .024.018c.037.01.077.02.121.026.03.005.054.02.071.045.171.26.357.474.556.64.066.06.119.135.159.226.078.171.18.335.303.493.147.187.316.377.507.57.173.171.307.356.402.555a.554.554 0 0 0 .211.24.136.136 0 0 1 .025.02c.071.074.145.159.222.255.076.094.16.151.251.17.01.003.021.004.032.003.055-.003.112-.01.17-.021a.21.21 0 0 1 .15.024c.108.062.214.126.32.193.028.017.034.011.02-.018a44.595 44.595 0 0 1-.16-.307.168.168 0 0 1-.014-.12.87.87 0 0 0 .037-.224c.003-.075-.032-.14-.103-.195-.12-.09-.245-.184-.378-.281a.48.48 0 0 1-.201-.352.147.147 0 0 0-.007-.031c-.104-.324-.22-.639-.346-.943a2.906 2.906 0 0 0-.472-.776.13.13 0 0 1-.018-.026.752.752 0 0 1-.05-.169 1.974 1.974 0 0 0-.2-.564.232.232 0 0 1 0-.222.388.388 0 0 0 .047-.195c0-.01-.003-.02-.008-.03a13.113 13.113 0 0 1-.717-1.834.056.056 0 0 1 .025-.024 15.07 15.07 0 0 1 1.943-.814 9.924 9.924 0 0 1 1.343-.336ZM15.774 0h.065c0 .007.008.011.024.014a.865.865 0 0 1 .538.314.074.074 0 0 1 .008.089c-.203.365-.401.725-.594 1.08-.005.01-.01.01-.016 0-.17-.318-.343-.633-.517-.942a1.282 1.282 0 0 1-.086-.188.036.036 0 0 1 .008-.036c.156-.176.346-.287.57-.331Z" fill="#9EA0B3"/>
    <path d="M15.097 1.463a.031.031 0 0 1 .034.016c.217.361.428.718.631 1.07.027.047.056.043.089-.01.214-.36.427-.714.638-1.06a.023.023 0 0 1 .025-.012 1.968 1.968 0 0 1 .945.366c.23.189.352.414.368.677v.032c-.016.3-.095.594-.236.884-.112.23-.244.447-.397.649a.12.12 0 0 1-.099.048h-2.609a.049.049 0 0 1-.04-.02 3.297 3.297 0 0 1-.603-1.161 1.376 1.376 0 0 1-.048-.474.852.852 0 0 1 .263-.54c.135-.131.301-.239.499-.322.174-.069.354-.116.54-.143ZM11.912 3.224c.045.043.094.085.147.126.018.013.021.029.01.048-.15.268-.294.535-.434.8-.007.012-.014.012-.02 0l-.437-.815c-.004-.005-.003-.01.002-.015a.85.85 0 0 1 .254-.2c.146-.07.297-.058.453.037a.155.155 0 0 1 .025.02ZM19.976 3.127a.406.406 0 0 1 .175.026c.107.042.2.112.281.21a.022.022 0 0 1 .003.027c-.128.246-.269.504-.42.775-.018.03-.034.03-.05 0a40.748 40.748 0 0 0-.41-.75c-.011-.02-.01-.04.006-.058.128-.142.266-.218.415-.23ZM8.225 3.593c.14.04.274.083.404.127.146.038.29.06.432.066.182.002.315.067.4.195a.42.42 0 0 1 .058.343 3.987 3.987 0 0 1-.236.79 2.13 2.13 0 0 0-.078.633.965.965 0 0 0 .147.513c.051.076.128.14.23.188.016.01.011.015-.017.016a1.263 1.263 0 0 1-.35-.1.921.921 0 0 1-.41-.354 1.454 1.454 0 0 1-.225-.667 1.287 1.287 0 0 1 .03-.4c.027-.13.045-.248.057-.353a.462.462 0 0 0-.03-.222.086.086 0 0 0-.067-.052 1.019 1.019 0 0 0-.588.07 1.594 1.594 0 0 0-.6.455.637.637 0 0 0-.146.311.336.336 0 0 0 .11.3c.085.088.18.17.286.245.104.075.2.156.29.241a.505.505 0 0 1 .166.307c.007.13-.006.25-.04.362a1.947 1.947 0 0 1-.392.71 1.538 1.538 0 0 1-.61.425c-.022.009-.035.002-.041-.02a1.481 1.481 0 0 1-.042-.279.413.413 0 0 0-.17-.32 2.341 2.341 0 0 0-.31-.204c-.029-.017-.027-.03.005-.04a.883.883 0 0 0 .497-.338A.258.258 0 0 0 7 6.274a1.965 1.965 0 0 0-.493-.497c-.11-.08-.201-.165-.276-.255a.592.592 0 0 1-.128-.25.297.297 0 0 1 .026-.222.676.676 0 0 1 .35-.293 1.83 1.83 0 0 0 .184-.089c.263-.123.503-.293.72-.51.147-.148.291-.296.432-.444a.383.383 0 0 1 .41-.121ZM23.553 3.58a.484.484 0 0 1 .296.176c.176.212.365.404.566.575.2.17.42.299.657.387a.949.949 0 0 1 .284.175c.125.1.178.221.158.364a.475.475 0 0 1-.146.28c-.121.125-.258.246-.41.36a1.13 1.13 0 0 0-.35.399.216.216 0 0 0 .008.22c.11.182.278.301.505.36.033.01.035.024.006.043a22.98 22.98 0 0 0-.274.185.417.417 0 0 0-.19.259 1.52 1.52 0 0 0-.025.265.202.202 0 0 1-.04.106c-.006.011-.015.014-.027.01a1.625 1.625 0 0 1-.578-.387 1.956 1.956 0 0 1-.402-.668 1.174 1.174 0 0 1-.07-.435.435.435 0 0 1 .127-.268 1.59 1.59 0 0 1 .267-.239c.11-.079.206-.154.29-.225a.442.442 0 0 0 .176-.313.361.361 0 0 0-.058-.224 1.19 1.19 0 0 0-.225-.289 1.434 1.434 0 0 0-.655-.374.687.687 0 0 0-.45.028.046.046 0 0 0-.026.029.489.489 0 0 0-.023.24 4.407 4.407 0 0 0 .08.445c.028.24-.004.48-.096.717a1.053 1.053 0 0 1-.193.322.92.92 0 0 1-.669.351c-.043.003-.046-.005-.01-.026a.48.48 0 0 0 .267-.279 1.24 1.24 0 0 0 .083-.468 2.27 2.27 0 0 0-.048-.472c-.09-.258-.17-.521-.244-.788a.617.617 0 0 1-.008-.33.34.34 0 0 1 .179-.239.807.807 0 0 1 .312-.066c.193-.004.384-.045.57-.12.122-.05.24-.08.354-.088l.032.001ZM28.904 3.732c.363.29.647.625.852 1.004.273.511.42 1.065.444 1.662.01.229-.001.472-.032.73a.08.08 0 0 1-.01.03 7.503 7.503 0 0 1-1.266 1.645c-.284.282-.56.54-.828.772-.614.523-1.263 1-1.947 1.429a.025.025 0 0 0-.012.028 20 20 0 0 1 .14.75c.003.023.015.03.036.02 1.678-.801 3.163-1.89 4.456-3.268.189-.2.376-.416.562-.645.007-.008.013-.007.018.003.233.451.354.94.362 1.464a3.526 3.526 0 0 1-.44 1.797.144.144 0 0 0-.012.029.247.247 0 0 1-.112.15 15.406 15.406 0 0 1-4.747 1.913.02.02 0 0 0-.018.02c-.027.223-.05.447-.069.67 0 .011.004.016.015.015a16.196 16.196 0 0 0 4.063-.955c.497-.187.975-.399 1.434-.634.004-.003.007-.001.007.004.031.425-.008.819-.119 1.18-.137.461-.381.874-.731 1.239a3.125 3.125 0 0 1-.377.332.068.068 0 0 1-.029.013c-.092.02-.196.038-.311.055-.836.125-1.675.182-2.516.168a12.423 12.423 0 0 1-1.734-.154c-.023-.004-.038.005-.047.027a1.323 1.323 0 0 1-.07.166 1.535 1.535 0 0 0-.133.37c-.002.01.002.017.013.02a16.862 16.862 0 0 0 4.949.456c.007 0 .01.003.009.01-.06.282-.15.543-.272.783a2.273 2.273 0 0 1-.788.893 2.43 2.43 0 0 1-.908.376.192.192 0 0 1-.095-.005 20.713 20.713 0 0 1-3.574-1.45c-.01-.006-.02-.004-.028.005-.11.131-.21.256-.302.374-.016.022-.013.04.008.056.187.139.39.276.61.41a21.523 21.523 0 0 0 3.132 1.59c.01.004.013.01.008.02a1.89 1.89 0 0 1-.386.48c-.19.175-.422.313-.696.414-.3.111-.648.167-1.044.167a.105.105 0 0 1-.068-.024 19.246 19.246 0 0 1-1.516-1.352 15.245 15.245 0 0 1-.858-.926c-.007-.008-.015-.01-.025-.004-.132.072-.247.15-.343.234-.037.032-.041.068-.013.107a23.19 23.19 0 0 0 2.38 2.775c.008.006.007.012-.001.017-.28.183-.587.307-.917.37-.427.083-.852.081-1.276-.005a.122.122 0 0 1-.09-.069 25.96 25.96 0 0 1-1.112-2.57c-.005-.014-.015-.018-.03-.012a6.622 6.622 0 0 1-.786.31c.004-1.035.004-2.07 0-3.103.56-.092 1.179-.156 1.855-.193.02-.001.02-.017 0-.05a4.238 4.238 0 0 1-.249-1.115 3.104 3.104 0 0 1 .262-1.55c.005-.01.002-.018-.01-.022-.122-.044-.118.005-.244-.045a1.428 1.428 0 0 0-.147-.463c-.088-.174-.2-.475-.333-.649-.007-.008-.006-.015.003-.021.24-.162.36-.332.616-.576.352-.338.652-.7.9-1.085.289-.45.5-.926.633-1.427.006-.023.018-.026.034-.008.152.165.29.348.418.548.038.061.08.064.127.01.173-.2.342-.398.508-.594a16.132 16.132 0 0 0 1.58-2.239c.536-.918.941-1.882 1.215-2.89.003-.014.011-.017.022-.007ZM2.914 3.7c.006-.006.01-.004.013.004.207.791.506 1.56.895 2.306A15.548 15.548 0 0 0 6.27 9.455c.019.02.038.02.058 0a.411.411 0 0 0 .062-.077 3.5 3.5 0 0 1 .383-.497c.022-.023.036-.02.044.01.137.521.363 1.018.678 1.492.214.32.465.627.754.918.246.245.525.48.839.706.009.007.01.014.003.022a2.424 2.424 0 0 0-.498.974c-.047.194.05.44.05.645 0 .302.064.402.07.784v.165s-.054.858-.19 1.31c-.003.01 0 .016.012.017.642.03 1.253.091 1.832.186.013.002.02.01.02.023v3.125c0 .015-.007.02-.02.015a8.882 8.882 0 0 1-.798-.29 2.316 2.316 0 0 0-.263-.093c-.018-.004-.03.003-.037.021a24.755 24.755 0 0 1-1.126 2.582.034.034 0 0 1-.024.02c-.336.069-.678.087-1.028.053a2.72 2.72 0 0 1-1.191-.4c-.012-.007-.013-.016-.003-.025.902-.91 1.697-1.84 2.384-2.792.025-.034.02-.064-.013-.088a4.654 4.654 0 0 0-.33-.225c-.032-.02-.06-.015-.084.014-.271.322-.547.62-.827.895-.478.47-.979.92-1.503 1.35a.162.162 0 0 1-.108.039 3.056 3.056 0 0 1-1.056-.185 1.94 1.94 0 0 1-.643-.386 2.074 2.074 0 0 1-.405-.494c-.006-.01-.004-.016.006-.02a21.709 21.709 0 0 0 3.69-1.94.112.112 0 0 1 .028-.014c.033-.01.045-.036.038-.075a.192.192 0 0 0-.044-.094 4.431 4.431 0 0 1-.23-.287c-.02-.027-.046-.033-.076-.018-1.14.59-2.33 1.072-3.569 1.449a.138.138 0 0 1-.07.002c-.549-.116-.997-.366-1.345-.751a2.553 2.553 0 0 1-.628-1.295c-.002-.01.003-.015.013-.015l.276.01a17.096 17.096 0 0 0 3.126-.17 15.387 15.387 0 0 0 1.546-.311c.02-.006.026-.017.018-.036-.076-.183-.15-.357-.22-.522-.007-.018-.02-.026-.04-.023-.209.038-.43.07-.663.095-.715.077-1.45.09-2.208.042a18.682 18.682 0 0 1-1.609-.174.304.304 0 0 1-.149-.066 4.36 4.36 0 0 1-.278-.248 3.041 3.041 0 0 1-.761-1.184c-.129-.366-.181-.79-.158-1.27.002-.025.013-.032.036-.02.522.272 1.07.51 1.647.713 1.129.396 2.295.674 3.498.835.122.016.229.023.32.022.01 0 .016-.006.015-.016a11.892 11.892 0 0 0-.057-.66c-.002-.01-.008-.017-.018-.019a14.383 14.383 0 0 1-2.183-.652A15.81 15.81 0 0 1 .698 11.3a.21.21 0 0 1-.075-.08A3.65 3.65 0 0 1 .147 9.06c.037-.416.152-.817.344-1.201.006-.014.014-.015.023-.003.152.19.32.385.507.587 1.1 1.186 2.36 2.169 3.778 2.95.273.15.521.277.744.378.017.008.027.003.03-.016.028-.233.072-.478.132-.737.006-.024-.002-.044-.024-.057A14.872 14.872 0 0 1 3.13 8.986 8.948 8.948 0 0 1 1.74 7.288a.806.806 0 0 1-.114-.27 4.446 4.446 0 0 1 .048-1.207c.076-.409.212-.79.408-1.143.207-.373.485-.696.832-.969Z" fill="#9EA0B3"/>
    <path d="M11.033 4.127a.04.04 0 0 1 .043.02c.176.314.353.607.531.881.021.033.041.032.06-.002.166-.306.34-.601.522-.887a.023.023 0 0 1 .024-.011c.261.036.5.125.716.267a.81.81 0 0 1 .253.26c.105.182.126.395.064.64a2.62 2.62 0 0 1-.495.987.049.049 0 0 1-.04.02c-.758.003-1.49 0-2.195-.008a.03.03 0 0 1-.024-.012 2.735 2.735 0 0 1-.457-.85 1.407 1.407 0 0 1-.066-.368.722.722 0 0 1 .082-.376.786.786 0 0 1 .241-.273c.23-.162.476-.258.74-.288ZM19.436 4.147l.504.846c.018.03.043.038.075.024a.259.259 0 0 0 .05-.066l.48-.805a.024.024 0 0 1 .026-.014c.318.033.59.145.814.335.215.183.3.411.255.685-.06.402-.235.78-.522 1.135a.032.032 0 0 1-.026.013c-.73.003-1.46.003-2.191 0a.05.05 0 0 1-.042-.021 3.189 3.189 0 0 1-.4-.695 1.87 1.87 0 0 1-.13-.576.799.799 0 0 1 .19-.46c.02-.024.044-.05.069-.077a1.53 1.53 0 0 1 .824-.336.023.023 0 0 1 .024.012ZM14.477 4.686h.853c.02 0 .027.01.02.028a2.607 2.607 0 0 1-.582.977c-.329.345-.732.55-1.21.615-.024.003-.025-.001-.005-.013.233-.131.423-.322.57-.572a2.5 2.5 0 0 0 .33-1.013c0-.014.009-.022.024-.022ZM16.279 4.686h.861c.012 0 .018.006.02.017.033.272.096.521.188.747.048.118.11.229.183.331.139.21.313.38.522.515.017.01.015.014-.004.011a1.81 1.81 0 0 1-.82-.297 2.213 2.213 0 0 1-.55-.518 3.074 3.074 0 0 1-.42-.777c-.007-.02 0-.029.02-.029ZM14.84 6.237a2.235 2.235 0 0 1 .113.499.814.814 0 0 1-.316.64 1.167 1.167 0 0 1-.368.204c-.123.04-.263.076-.419.105-.04.009-.046.028-.017.057.185.186.43.314.734.384.074.017.157.026.249.024a.428.428 0 0 0 .3-.135c.012-.012.017-.01.016.007a.64.64 0 0 1-.527.578c-.034.005-.042.022-.023.051.023.039.05.077.083.116.408.487.768 1 1.081 1.54.019.032.039.052.06.06.016.004.029-.001.037-.016.257-.444.541-.865.852-1.262.112-.143.22-.285.323-.426.022-.03.016-.049-.02-.06a.698.698 0 0 1-.452-.334.395.395 0 0 1-.05-.252c.001-.019.007-.02.016-.003a.21.21 0 0 0 .106.094.701.701 0 0 0 .418.02c.258-.055.5-.174.728-.357.037-.031.036-.06-.005-.088a1.908 1.908 0 0 1-.57-.17 1.095 1.095 0 0 1-.341-.26.742.742 0 0 1-.183-.573c.012-.15.05-.298.11-.444.011-.03.017-.03.016-.005a.445.445 0 0 0 .17.367c.157.111.343.186.558.224.277.05.582.075.914.075 1.17.002 2.342.002 3.512 0 .206 0 .384.002.535.007.026.001.029.01.01.026a4.689 4.689 0 0 0-.575.563c-.026.03-.019.045.021.044.401-.01.8-.01 1.2.002.01 0 .019.005.026.013.203.237.41.475.622.715.007.008.006.016-.002.023-.388.344-.777.688-1.168 1.03-.009.006-.016.006-.023-.003a4.834 4.834 0 0 0-.275-.31.087.087 0 0 0-.065-.029h-1.27c-.01 0-.02.003-.03.009a.393.393 0 0 0-.157.17c-.01.024-.002.039.025.042.226.031.438.086.638.163.309.114.616.233.92.358.197.08.398.12.605.118a.462.462 0 0 0 .37-.2c.006-.007.009-.004.01.01-.062.152-.144.28-.245.381a.792.792 0 0 1-.51.23 1.567 1.567 0 0 1-.808-.145 1.99 1.99 0 0 0-.191-.075c-.023-.007-.034.001-.032.025a.609.609 0 0 1-.11.416c-.013.019-.022.017-.029-.005a.364.364 0 0 0-.177-.217 1.001 1.001 0 0 0-.4-.122c-.3-.03-.594-.03-.882 0a.04.04 0 0 0-.027.014c-.37.413-.608.899-.714 1.457-.025.13-.044.282-.058.458a18.872 18.872 0 0 0-1.976-.201 22.2 22.2 0 0 0-4.453.217c-.09.013-.179.03-.265.048-.025.008-.042.008-.05 0a3.17 3.17 0 0 0-.306-1.276 2.894 2.894 0 0 0-.35-.558 1.378 1.378 0 0 1-.099-.144.034.034 0 0 0-.025-.015 7.608 7.608 0 0 0-.737-.016 1.208 1.208 0 0 0-.626.179.238.238 0 0 0-.1.156c-.006.02-.017.024-.034.011a.287.287 0 0 1-.1-.161.888.888 0 0 1-.012-.27c0-.014-.006-.02-.02-.016a.679.679 0 0 0-.087.038c-.202.104-.411.17-.63.2a.99.99 0 0 1-.68-.123.883.883 0 0 1-.358-.446c-.012-.03-.007-.035.016-.016.038.041.068.07.092.084a.53.53 0 0 0 .366.089 2.24 2.24 0 0 0 .599-.165c.313-.137.613-.255.9-.354.184-.063.36-.106.531-.129.044-.006.054-.028.03-.066a.392.392 0 0 0-.119-.12.206.206 0 0 0-.11-.032 53.975 53.975 0 0 0-1.244.005c-.01 0-.02.004-.027.012a2.76 2.76 0 0 0-.241.28c-.032.042-.068.046-.109.01-.367-.325-.731-.65-1.094-.973-.028-.025-.03-.052-.004-.08.201-.224.398-.45.59-.68a.06.06 0 0 1 .048-.021h1.187c.018 0 .024-.009.019-.026a.25.25 0 0 0-.055-.077l-.511-.507c-.018-.017-.014-.025.01-.025 1.316.003 2.627.003 3.935 0 .118 0 .239-.004.361-.009.378 0 .731-.064 1.06-.194a.478.478 0 0 0 .265-.233.414.414 0 0 0 .042-.256c-.001-.012.01-.001.032.032Zm-3.133 1.381a43.364 43.364 0 0 0-1.498-.008c-.035 0-.04.012-.016.037.117.117.23.226.342.327.017.015.037.02.058.013.38-.112.746-.222 1.099-.328a.073.073 0 0 0 .027-.016c.012-.016.008-.025-.012-.025Zm9.709.027c.02-.02.015-.031-.014-.032-.465-.01-.964-.01-1.496 0-.01 0-.018.006-.021.016-.005.014.004.024.027.031.375.112.753.223 1.134.333.01.003.02.001.027-.006.101-.095.216-.208.343-.342ZM2.545 21.17a.387.387 0 0 1 .093.01c.184.037.355.123.513.26.264.225.433.505.508.841a1.2 1.2 0 0 1 .024.322 1.122 1.122 0 0 1-.21.633 6.274 6.274 0 0 0-.104.15.079.079 0 0 0-.007.077c.025.06.051.143.079.248a.102.102 0 0 0 .026.046c.46.46.926.92 1.401 1.378.05.048.095.044.136-.012a.653.653 0 0 1 .343-.278c.145-.045.289-.013.432.099.11.086.205.177.282.273.153.195.329.365.526.51.312.225.665.349 1.059.372.263.016.533-.006.81-.066.26-.06.524-.146.794-.258.017-.007.022-.019.014-.036a3.494 3.494 0 0 0-.139-.235 6.108 6.108 0 0 1-.29-.505c-.006-.011-.014-.013-.024-.005a1.617 1.617 0 0 1-.17.139.574.574 0 0 1-.53.074c-.03-.01-.032-.02-.003-.034a.323.323 0 0 0 .181-.215c.04-.137.056-.29.048-.458a33.66 33.66 0 0 0-.032-.724c-.013-.235-.02-.446-.024-.635 0-.223.03-.43.088-.619.082-.247.219-.453.41-.619.095-.081.195-.15.3-.207.346-.176 1.226-.277 1.611-.304.011 0 .017.004.017.015-.002.725-.002 1.456.002 2.192 0 .235-.005.436-.015.603-.001.01-.004.021-.008.031-.14.319-.202.673-.187 1.062.01.267.046.54.105.82.005.023-.004.036-.027.039-.268.039-1.042.111-1.293.216-.22.092-.446.206-.68.342a9.214 9.214 0 0 0-1.177.846c-.046.039-.048.08-.005.122.38.379.756.747 1.13 1.106a.94.94 0 0 1 .263.4c.003.01.005.021.006.032.005.116-.057.215-.186.297a.247.247 0 0 1-.225.024.602.602 0 0 1-.17-.088 3.764 3.764 0 0 1-.279-.267c-.385-.405-.782-.82-1.192-1.243a.086.086 0 0 0-.058-.027 7.304 7.304 0 0 1-.946-.11 2.656 2.656 0 0 1-.762-.268 1.142 1.142 0 0 1-.325-.253.786.786 0 0 1-.215-.444.932.932 0 0 1 .026-.357.064.064 0 0 0-.028-.072.515.515 0 0 1-.215-.423c-.006-.176.05-.308.172-.396.04-.027.042-.059.009-.094-.455-.476-.9-.942-1.333-1.398a.05.05 0 0 0-.027-.014 1.016 1.016 0 0 1-.284-.099.021.021 0 0 0-.026.004c-.229.217-.502.33-.818.34a1.257 1.257 0 0 1-.669-.166 1.512 1.512 0 0 1-.625-.589.895.895 0 0 1-.122-.41c-.001-.019.008-.03.027-.034a.768.768 0 0 1 .28.01c.12.025.241.043.362.057.106.011.199-.008.279-.059a.23.23 0 0 0 .114-.159c.023-.086-.004-.16-.082-.223a.298.298 0 0 0-.27-.064.426.426 0 0 0-.214.142c-.013.012-.018.01-.018-.008a.97.97 0 0 1 .064-.319.55.55 0 0 1 .233-.297.277.277 0 0 1 .191-.042c.057.003.073-.014.048-.05a.052.052 0 0 1-.007-.03c.004-.122.068-.226.194-.312a.69.69 0 0 1 .47-.126c.011 0 .012.005.004.012a.383.383 0 0 0-.138.297c0 .108.03.185.09.23.073.05.144.062.213.033a.27.27 0 0 0 .187-.247 1.182 1.182 0 0 0-.008-.322 7.007 7.007 0 0 1-.058-.411c-.002-.043.018-.067.06-.072ZM21.72 21.428c.338.05.649.16.93.325.173.1.312.226.419.377.173.237.266.508.281.812.01.345 0 .677-.03.995a5.655 5.655 0 0 0-.024.514c-.008.17.006.323.04.459.028.128.1.217.214.267.013.005.013.01 0 .015a.553.553 0 0 1-.602-.104 1.514 1.514 0 0 0-.115-.091c-.014-.013-.026-.01-.034.006-.098.194-.2.375-.305.544a1.142 1.142 0 0 0-.09.172c-.007.016-.002.027.016.032.622.174 1.233.377 1.833.608.017.006.027 0 .03-.018a2.24 2.24 0 0 1 .277-.85c.106-.184.234-.34.382-.47.153-.14.325-.255.514-.348.01-.004.017-.002.022.008.288.53.55 1.005.783 1.427.022.04.044.04.065 0 .249-.466.507-.941.775-1.428.004-.008.011-.01.02-.006.128.057.242.123.345.197.239.179.43.397.574.655a1.9 1.9 0 0 1 .255 1.104 1.955 1.955 0 0 1-.202.733.147.147 0 0 0-.01.087c.05.253.007.47-.127.649-.203.277-.47.444-.802.5a.933.933 0 0 1-.45-.024c-.026-.008-.046 0-.06.022-.042.06-.078.108-.11.145a.7.7 0 0 1-.465.259 1.248 1.248 0 0 1-.653-.127 2.161 2.161 0 0 1-.601-.42 2.136 2.136 0 0 1-.348-.44 4.075 4.075 0 0 0-.438-.575 3.91 3.91 0 0 0-1.264-.93c-.37-.17-.77-.29-1.199-.359-.017-.002-.024-.013-.02-.03.013-.059.023-.108.029-.15.004-.061.012-.117.025-.168.077-.306.115-.636.112-.989-.005-.683-.005-1.366 0-2.05.004-.382.004-.8 0-1.254 0-.038.002-.065.008-.081Z" fill="#9EA0B3"/>
    <path d="M26.433 23.332c.13.03.242.085.337.169.038.033.088.08.15.144.027.029.03.06.012.095-.218.396-.428.781-.631 1.155-.009.015-.017.015-.025 0-.207-.398-.42-.79-.64-1.177a.04.04 0 0 1 .005-.048.97.97 0 0 1 .412-.312.665.665 0 0 1 .38-.026ZM11.441 27.144a.658.658 0 0 1 .073.03c.405.192.844.281 1.317.268.028-.001.042.004.041.016-.544.854-1.088 1.715-1.631 2.582-.065.103-.127.199-.187.288a.032.032 0 0 1-.026.014 4.768 4.768 0 0 1-1.251-.125.036.036 0 0 1-.03-.031 6.48 6.48 0 0 1-.075-.67 3.386 3.386 0 0 1 .024-.618.045.045 0 0 1 .013-.027 61.258 61.258 0 0 1 .945-.937c.265-.264.528-.527.787-.79ZM20.313 27.28a.433.433 0 0 0 .059.071c.497.487.997.987 1.5 1.5a.172.172 0 0 1 .05.102c.026.231.028.464.007.699a13.55 13.55 0 0 1-.06.549.022.022 0 0 1-.018.019 5.237 5.237 0 0 1-1.255.123.056.056 0 0 1-.049-.027 608.403 608.403 0 0 0-1.81-2.858c.011-.012.028-.018.05-.016h.458a3.51 3.51 0 0 0 .996-.145.402.402 0 0 1 .072-.016ZM13.562 27.45c.274.009.51.014.707.016.207.01.4.042.579.097a464.195 464.195 0 0 1-1.203 3.993.033.033 0 0 1-.02.021 5.802 5.802 0 0 1-1.261.403.023.023 0 0 1-.025-.01 4.475 4.475 0 0 1-.306-.5 3.207 3.207 0 0 1-.233-.546c-.025-.072-.021-.132.01-.18a.2.2 0 0 0 .017-.027c.527-1.024 1.055-2.054 1.584-3.089.03-.056.056-.113.08-.17a.226.226 0 0 1 .07-.008ZM18.16 27.443c-.012.011-.016.023-.015.037.015.059.04.12.073.185a198.901 198.901 0 0 1 1.612 3.138c.008.017.01.034.005.051-.04.161-.1.318-.178.472a6.112 6.112 0 0 1-.379.642.033.033 0 0 1-.037.015A6.975 6.975 0 0 1 18 31.587a.053.053 0 0 1-.032-.036l-1.125-3.701a.443.443 0 0 1-.019-.095c0-.013.006-.023.02-.03.28-.148.582-.234.906-.26.135-.01.272-.017.41-.022ZM15.31 27.61c.114.135.209.034.284.211.062.149.128.29.196.422.028.053.049.054.063.002a1.99 1.99 0 0 0 .033-.144c.014-.003.024.007.033.576.031.08.066.156.102.226.012.024.023.024.034 0 .106-.233.207-.455.302-.668a.121.121 0 0 1 .033-.046c.247 1.222.502 2.445.765 3.667a.1.1 0 0 1-.026.093c-.373.4-.794.709-1.262.924a.132.132 0 0 1-.114 0 3.828 3.828 0 0 1-1.284-.943.044.044 0 0 1-.011-.04c.274-1.33.55-2.947.828-4.274.004-.018.011-.02.023-.006Z" fill="#9EA0B3"/>
    <path d="M16.669 12.716a.487.487 0 0 1 .25.026c.057.023.087.08.09.167.01.114-.026.18-.106.2a.361.361 0 0 1-.176.003 1.259 1.259 0 0 0-.078-.005.023.023 0 0 1-.015-.023 10.893 10.893 0 0 1-.002-.328c0-.024.012-.037.037-.04ZM17.814 12.764c.11.003.18.052.21.148a.13.13 0 0 1 .006.031c.014.214.014.431 0 .654a.098.098 0 0 1-.05.082.221.221 0 0 1-.249-.01.167.167 0 0 1-.079-.128 2.802 2.802 0 0 1-.001-.648.15.15 0 0 1 .007-.031c.023-.067.075-.1.155-.098ZM10.925 13.287c.072.01.109.053.11.13.006.173.007.36.003.561a.27.27 0 0 1-.075.191.215.215 0 0 1-.24.06.086.086 0 0 1-.064-.082c0-.14-.003-.316-.007-.53a.362.362 0 0 1 .078-.252c.059-.06.124-.086.195-.078Z" fill="#6E708C"/>
    <path d="M17.203 11.864c.702.037 1.361.103 1.976.201.017.007.039.012.065.016a21.11 21.11 0 0 1 3.069.685c.28.085.541.168.782.248a.52.52 0 0 0 .104.022c.126.05.25.098.373.142.011.004.015.012.01.023a3.103 3.103 0 0 0-.262 1.549c.032.382.115.754.249 1.116-.017.015-.03.02-.04.017l-1.144-.384a.77.77 0 0 0-.167-.033c.041 0 .041-.006 0-.017a22.97 22.97 0 0 0-.505-.129 3.137 3.137 0 0 0-.491-.135 3.216 3.216 0 0 0-.314-.072 23.227 23.227 0 0 0-3.995-.541 58.692 58.692 0 0 0-.763-.007 21.979 21.979 0 0 0-5.34.625c-.003 0-.005.004-.007.01a2.736 2.736 0 0 0-.449.114c-.11.024-.214.056-.313.096-.49.126-.975.277-1.456.451a.026.026 0 0 1-.028-.004c-.015-.012-.022-.05-.02-.11.09-.338.144-.673.162-1.005a4.049 4.049 0 0 0-.207-1.537c-.004-.012 0-.02.011-.024 1.167-.43 2.35-.754 3.547-.971.141-.026.27-.053.385-.08.008.007.024.007.05 0 .086-.02.174-.036.265-.049a22.24 22.24 0 0 1 4.453-.217Zm-2.136.416a.115.115 0 0 1-.044-.072.031.031 0 0 0-.028-.016c-.076 0-.133.003-.171.01-.01.001-.015.007-.013.017.02.152.097.243.23.272.1.023.19.007.27-.05a.279.279 0 0 0 .131-.245c0-.012-.006-.018-.019-.018h-.125a.07.07 0 0 0-.065.037c-.052.09-.108.11-.167.065Zm.268.745c.012-.023.018-.022.019.005.005.273.01.54.018.802 0 .01.005.017.016.02a.289.289 0 0 0 .168-.003c.036-.012.055-.037.055-.075.003-.44 0-.864-.008-1.275 0-.01-.005-.014-.014-.014a3.467 3.467 0 0 0-.18-.002.029.029 0 0 0-.026.016c-.16.285-.312.565-.455.838-.016.032-.025.03-.024-.006.003-.306 0-.574-.01-.806 0-.01-.005-.016-.016-.017-.05-.001-.104 0-.16.007-.037.003-.055.023-.055.06-.004.447-.002.877.007 1.29 0 .011.005.02.015.024a.69.69 0 0 0 .19-.024.042.042 0 0 0 .031-.023c.143-.275.286-.547.429-.817Zm1.3.346c-.001-.026.012-.038.038-.035.201.026.35.001.447-.075.113-.09.159-.218.139-.384-.02-.161-.09-.273-.213-.336a.135.135 0 0 0-.03-.012 1.861 1.861 0 0 0-.615-.037c-.01 0-.016.006-.016.017 0 .358 0 .722-.002 1.091 0 .091.003.164.01.22a.03.03 0 0 0 .018.022.289.289 0 0 0 .197.004c.01-.003.016-.01.017-.02.006-.157.01-.308.01-.455Zm-2.72.324a1.33 1.33 0 0 1-.003-.314c0-.01.006-.017.017-.018.13-.019.275-.03.436-.036.016 0 .024-.009.024-.025.002-.066.001-.124 0-.174-.001-.01-.007-.016-.018-.016-.127.002-.259.01-.394.028-.046.006-.07-.014-.07-.062v-.255c0-.016.008-.025.024-.027l.488-.04c.04-.003.059-.024.059-.064v-.138c0-.016-.008-.024-.025-.023-.254.015-.505.037-.755.065-.017.002-.026.011-.026.028-.007.427-.009.863-.006 1.307 0 .022.011.032.033.03l.707-.055c.044-.004.069-.028.072-.073a.451.451 0 0 0-.006-.143c-.003-.01-.01-.015-.02-.014-.172.013-.345.025-.519.034-.01 0-.017-.004-.018-.015Zm3.655.14a.498.498 0 0 0 .332.103c.145-.005.251-.059.32-.163a.337.337 0 0 0 .058-.183c.004-.104.007-.236.008-.394a.977.977 0 0 0-.026-.351.381.381 0 0 0-.298-.282c-.152-.047-.28-.039-.382.024a.388.388 0 0 0-.178.36c.005.175.005.35 0 .523.002.16.058.281.166.363Zm-4.746-.59-.004-.492c0-.025-.013-.038-.039-.037a.39.39 0 0 0-.184.034.027.027 0 0 0-.014.024 88.89 88.89 0 0 0 0 1.307c0 .01.005.016.016.017a.762.762 0 0 0 .193-.017c.014-.003.021-.012.022-.026.008-.155.011-.338.01-.55 0-.01.005-.017.016-.019a.963.963 0 0 1 .167-.022.09.09 0 0 1 .09.05.71.71 0 0 1 .07.175c.028.105.057.205.087.3.005.016.017.023.034.022.076-.006.127-.011.155-.016.042-.009.057-.033.046-.074a4.713 4.713 0 0 0-.138-.463.332.332 0 0 0-.09-.13c-.007-.007-.008-.016-.003-.025.105-.19.176-.41.21-.657.002-.011-.002-.017-.013-.017a.757.757 0 0 0-.182.024.05.05 0 0 0-.041.04c-.03.15-.07.292-.122.423-.042.104-.132.153-.27.145-.01 0-.016-.006-.016-.016Zm5.972.514a.258.258 0 0 1-.068-.231.169.169 0 0 0 .001-.032 3.763 3.763 0 0 1 .009-.49c.004-.065.041-.105.113-.121.108-.024.194.016.257.12l.032.051a.02.02 0 0 0 .024.01c.042-.009.094-.02.155-.03.021-.004.03-.017.025-.038a.384.384 0 0 0-.074-.155.495.495 0 0 0-.315-.183.421.421 0 0 0-.378.11.485.485 0 0 0-.088.284 5.52 5.52 0 0 0 .008.61c.006.081.04.153.098.216a.53.53 0 0 0 .432.17.363.363 0 0 0 .298-.166c.031-.046.024-.085-.023-.116a.825.825 0 0 0-.136-.069c-.016-.006-.027-.002-.034.014a.164.164 0 0 1-.09.094c-.093.042-.174.026-.246-.048Zm-7.045-.365a4.487 4.487 0 0 1-.006-.451c0-.028-.013-.042-.04-.042a.61.61 0 0 0-.157.025c-.024.006-.036.022-.036.047.003.439 0 .87-.006 1.292 0 .011.005.017.016.018a.485.485 0 0 0 .194-.024c.02-.007.029-.02.029-.04-.001-.194 0-.37.002-.528 0-.011.005-.018.015-.022a.424.424 0 0 1 .187-.028.099.099 0 0 1 .093.072c.046.134.09.278.129.432.004.015.014.022.03.02.072-.006.134-.015.187-.026.024-.005.032-.02.026-.042l-.114-.392a.606.606 0 0 0-.122-.223c-.007-.008-.008-.017-.003-.026.114-.198.183-.417.21-.658 0-.01-.004-.016-.015-.016a.682.682 0 0 0-.176.025.04.04 0 0 0-.031.03c-.042.136-.08.265-.113.386-.028.102-.105.175-.229.218-.043.014-.066-.002-.07-.047Zm7.95.707c.144.105.3.136.466.092a.249.249 0 0 0 .191-.207.023.023 0 0 0-.01-.025.935.935 0 0 0-.167-.093c-.017-.007-.03-.003-.04.014-.022.053-.053.085-.093.096-.098.028-.182-.003-.251-.094a.306.306 0 0 1-.046-.18c.002-.172.002-.343 0-.514-.002-.078.028-.126.088-.144.122-.037.223.019.303.167a.032.032 0 0 0 .03.017.655.655 0 0 0 .179-.033c.015-.005.021-.015.016-.031a.504.504 0 0 0-.255-.297.499.499 0 0 0-.361-.048.29.29 0 0 0-.232.243.936.936 0 0 0-.011.287v.032c-.01.165-.008.307.01.426.022.122.083.22.183.292Zm1.527-.49c.002.266.003.539.002.817a.03.03 0 0 0 .02.03c.073.031.138.047.195.048.01 0 .016-.005.016-.015.01-.378.014-.816.01-1.314 0-.02-.01-.033-.029-.039a.672.672 0 0 0-.178-.034.025.025 0 0 0-.024.014c-.138.23-.282.465-.431.704-.019.03-.028.027-.027-.008.007-.263.006-.53-.002-.8a.025.025 0 0 0-.015-.024.577.577 0 0 0-.192-.045c-.011-.001-.017.003-.017.014-.002.373-.005.801-.01 1.284 0 .05.015.075.044.075a.23.23 0 0 1 .101.022c.041.019.075.005.103-.042.139-.24.28-.47.425-.69.006-.01.009-.008.009.002Zm-10.675.811c.04.026.083.041.13.045a.611.611 0 0 0 .272-.04.516.516 0 0 0 .298-.306c.023-.093.034-.2.034-.32 0-.197-.008-.368-.022-.514a.194.194 0 0 0-.008-.031.258.258 0 0 0-.211-.194.497.497 0 0 0-.52.203.517.517 0 0 0-.109.392 7.425 7.425 0 0 0 .009.563.295.295 0 0 0 .128.203Zm11.848-.463c-.002.287.002.55.012.789 0 .01.005.019.014.025a.398.398 0 0 0 .191.062c.011 0 .017-.004.017-.015.013-.434.014-.876.001-1.325 0-.016-.008-.026-.024-.031a3.025 3.025 0 0 0-.168-.047c-.01-.002-.018 0-.023.01l-.422.67c-.025.04-.038.037-.038-.011.003-.256.003-.514 0-.775 0-.026-.013-.042-.038-.047a1.185 1.185 0 0 1-.147-.041c-.026-.01-.04 0-.04.027-.01.425-.012.861-.008 1.311 0 .015.008.025.022.03a.875.875 0 0 0 .177.042.023.023 0 0 0 .024-.012c.128-.203.266-.427.415-.671.024-.039.035-.036.035.01Zm-12.575-.208a4.321 4.321 0 0 0-.174-.318c-.012-.021-.03-.029-.054-.023-.049.013-.11.031-.183.056-.012.004-.015.011-.01.022.092.174.193.347.304.519a.028.028 0 0 1 .002.028l-.315.723c-.026.06-.007.083.057.072a.592.592 0 0 0 .157-.055.044.044 0 0 0 .021-.022c.065-.146.13-.298.193-.456.015-.037.033-.038.054-.004.064.108.129.22.195.338.007.014.019.018.034.014l.174-.058c.024-.008.03-.024.018-.047a6.986 6.986 0 0 0-.31-.524.073.073 0 0 1-.005-.076c.116-.246.216-.473.301-.68.006-.015.001-.023-.014-.024-.096-.005-.17.014-.224.058a.064.064 0 0 0-.018.026c-.064.15-.127.294-.191.43-.004.01-.008.01-.012.001Z" fill="#6E708C"/>
    <path d="M16.913 14.572c1.376.068 2.707.248 3.995.54-.003 1.06-.003 2.123 0 3.19 0 .06-.003.114-.01.161-.446.079-.894.19-1.342.336a15.07 15.07 0 0 0-1.943.814.056.056 0 0 0-.026.024 7.39 7.39 0 0 0-.262-.26.437.437 0 0 1-.128-.24.253.253 0 0 0-.113-.153 13.865 13.865 0 0 1-.145-.113.042.042 0 0 1-.018-.045c.04-.206.054-.399.04-.58a.955.955 0 0 0-.23-.564 2.635 2.635 0 0 0-.266-.266c-.22-.19-.456-.37-.707-.538a.06.06 0 0 1-.027-.064 8.61 8.61 0 0 0 .08-.625v-.033a.459.459 0 0 0-.07-.195.09.09 0 0 1-.012-.03.931.931 0 0 0-.12-.351.156.156 0 0 0-.175-.083.862.862 0 0 1-.436-.086.22.22 0 0 0-.213.008.755.755 0 0 0-.217.169 8.98 8.98 0 0 0-.174.196.09.09 0 0 0-.017.028c-.08.2-.113.422-.101.663.001.03-.013.045-.044.044a2.868 2.868 0 0 0-.51.015.447.447 0 0 0-.239.107c-.394.322-.688.71-.884 1.165a1.19 1.19 0 0 0-.088.296.04.04 0 0 0 .006.03c.063.11.106.237.128.38.033.21.065.417.094.619a.027.027 0 0 1-.01.026.46.46 0 0 1-.07.044c-.049.026-.064.065-.044.117.023.062.04.126.051.19a.1.1 0 0 1 .001.032.575.575 0 0 0 .14.505c.042.045.073.088.095.13.045.122.095.238.151.348a.972.972 0 0 0 .217.281c.093.08.189.13.286.146.01.002.016.008.017.02.008.074.012.155.013.242a.225.225 0 0 1-.05.145c-.161.201-.287.413-.378.633-.02.05-.01.094.03.13.05.047.076.08.079.1a.114.114 0 0 1-.048.111c-.085.063-.117.13-.097.202a.114.114 0 0 0 .086.084c.085.022.192.033.321.034.007 0 .01.005.008.015-.082.07-.17.162-.265.274a9.568 9.568 0 0 1-.404.455c-.358.449-.67.906-.936 1.372-.23.404-.425.835-.582 1.292a4.558 4.558 0 0 1-.232-1.246v-6.117a.845.845 0 0 1 .062-.267c.3-.717.732-1.347 1.295-1.889a6.44 6.44 0 0 1 1.046-.802c.419-.26.88-.484 1.385-.673a9.86 9.86 0 0 1 1.595-.446c.095-.018.203-.028.324-.03.03 0 .059-.006.088-.017Z" fill="#6E708C"/>
    <path d="M21.222 15.185c.194.04.358.084.491.135a.514.514 0 0 0 0 .08 5.42 5.42 0 0 0 0 .708c.004 1.034.004 2.068 0 3.103.002.7.002 1.404-.001 2.114 0 .04.002.074.008.103a.238.238 0 0 0-.008.082c.004.453.004.87 0 1.253-.005.684-.005 1.367 0 2.05a3.9 3.9 0 0 1-.113.989c-.012.05-.02.107-.025.169-.013-.024-.02-.034-.02-.03a2.055 2.055 0 0 1-.632 1c-.175.15-.371.258-.587.322-.015.005-.022.01-.023.018a.402.402 0 0 0-.071.016c-.309.094-.64.142-.997.145h-.458c-.022-.002-.038.004-.05.016a.1.1 0 0 0-.062-.016c-.177.003-.348.003-.515 0-.137.006-.274.014-.41.024a2.313 2.313 0 0 0-.906.259c-.014.007-.02.017-.02.03-.016-.005-.027-.006-.032-.002a1.848 1.848 0 0 0-.358.35.233.233 0 0 0-.043.086.122.122 0 0 0-.033.046l-.303.667c-.01.025-.021.025-.033 0a2.161 2.161 0 0 1-.103-.225c-.008-.022-.019-.032-.032-.03a.216.216 0 0 0-.024-.106 4.83 4.83 0 0 0-.222-.435 1.526 1.526 0 0 0-.72-.528.237.237 0 0 0-.072-.014 2.343 2.343 0 0 0-.58-.098 27.753 27.753 0 0 1-.707-.016.227.227 0 0 0-.07.008.156.156 0 0 0-.052-.01 19.825 19.825 0 0 0-.344-.006c-.07-.001-.133 0-.19.002a.04.04 0 0 0-.034.014c.002-.011-.012-.017-.04-.016a2.843 2.843 0 0 1-1.317-.268.687.687 0 0 0-.073-.03 1.936 1.936 0 0 1-.586-.516c-.19-.256-.32-.55-.388-.882a5.536 5.536 0 0 1-.105-1.11c-.003-2.462-.003-4.924 0-7.386 0-.11.003-.216.006-.316l.002-.786c0-.01-.003-.02-.01-.028-.01-.011-.033-.023-.07-.035a.176.176 0 0 0 .072-.043.046.046 0 0 0 .01-.028 10.162 10.162 0 0 0-.018-.7c.153-.052.302-.09.45-.114v9.63c.005.05.008.101.008.152.004.393.07.762.195 1.107.083.211.208.392.374.543.186.168.407.285.661.351.218.06.456.095.716.105.338.013.678.016 1.02.008.253-.003.503.007.748.032.36.036.68.15.963.34.193.13.362.298.508.507.012.016.023.016.035 0 .201-.288.45-.503.747-.644.22-.105.455-.173.705-.203.182-.024.367-.035.555-.032.398.006.795.003 1.19-.008.278-.012.538-.05.779-.113.27-.07.5-.201.693-.392.168-.169.291-.378.368-.628a3.23 3.23 0 0 0 .145-.909c.006-.515.009-1.032.008-1.551-.005-2.77-.005-5.54 0-8.31Z" fill="#6E708C"/>
    <path d="M10.361 15.296c.01.214.014.517.012.718 0 .01-.004.02-.01.028a.176.176 0 0 1-.073.043c-.6-.083-1.193-.14-1.78-.173-.016 0-.022-.008-.018-.023.012-.045.027-.092.045-.143-.002.062.005.098.02.11a.026.026 0 0 0 .028.005c.48-.174.966-.421 1.456-.547.002.008.005.012.01.012.127-.001.23-.011.31-.03ZM22.218 15.37c.064.006.12.017.167.033.387.129.768.353 1.143.48.01.004.024-.002.04-.017.02.032.02.048 0 .05-.676.036-1.294.1-1.855.192a6.998 6.998 0 0 1 0-.804c.132.007.3.029.505.066ZM13.668 18.748c.019.156.058.33.117.521.083.248.164.51.243.786 0 .004-.002.006-.008.008a4.602 4.602 0 0 1-.344-.526.068.068 0 0 1-.009-.03c-.003-.09-.03-.201-.078-.335a.058.058 0 0 1-.003-.022c.005-.148.023-.282.055-.404.013-.047.021-.047.027.002ZM40.068 5.28c-.047.28.14.423.56.43.982.006 1.59.436 1.826 1.287.292.968.073 1.7-.658 2.195-.487.33-1.003.467-1.546.412-.088 0-.126.043-.114.128.043.322-.013.508-.165.557-.535.174-.754-.016-.658-.573.021-.086-.015-.129-.108-.127-.73.034-1.325-.162-1.783-.588-.414-.386-.594-.89-.542-1.51-.014-.625.255-1.107.805-1.448.398-.246.897-.378 1.497-.397.047-.007.096-.15.147-.43.06-.217.271-.254.634-.112.082.032.117.09.105.176Zm-1.983 3.187c.32.241.642.36.968.359.174-.002.26-.087.26-.254v-1.86c0-.268-.135-.371-.405-.31-.882.198-1.276.68-1.183 1.445a.892.892 0 0 0 .36.62ZM40.91 6.52c-.479-.284-.748-.156-.808.384-.022.203-.022.762.003 1.676.004.165.09.247.26.247.728.012 1.166-.285 1.315-.89.142-.58-.114-1.053-.77-1.417ZM65.835 5.188a714.604 714.604 0 0 1 2.28 4.92c.047.098.015.158-.094.178-.323.061-.557.04-.705-.066a.356.356 0 0 1-.144-.196 2.803 2.803 0 0 0-.382-.824.25.25 0 0 0-.205-.11 24.757 24.757 0 0 0-1.81 0 .2.2 0 0 0-.186.123c-.112.237-.258.527-.437.87-.136.26-.422.32-.857.178-.086-.027-.11-.08-.071-.158.83-1.701 1.628-3.34 2.39-4.917.076-.155.15-.154.221.002Zm.458 3.15c.107.011.138-.03.092-.125-.214-.44-.41-.853-.592-1.242-.071-.157-.142-.156-.21.003-.16.375-.345.758-.558 1.15-.117.213-.052.3.195.257.379-.066.737-.08 1.073-.044ZM79.817 5.333a170.688 170.688 0 0 0 0 4.638c.004.271-.234.363-.712.274-.095-.016-.142-.072-.142-.167a93.058 93.058 0 0 0-.016-2.865c-.002-.125-.048-.142-.137-.05a237.242 237.242 0 0 0-3.046 3.128c-.21.219-.307.18-.292-.12.093-1.638.103-3.205.03-4.7-.006-.095.04-.152.136-.17.494-.12.726.038.694.472-.061.823-.061 1.65 0 2.48 0 .25.087.282.26.097a118.567 118.567 0 0 1 3.012-3.1c.142-.142.213-.114.213.083ZM44.458 5.277a77.626 77.626 0 0 1 2.483-.013c.087 0 .164.028.231.082.055.042.065.185.032.427-.023.172-.125.256-.305.255a33.394 33.394 0 0 0-1.652.012c-.088.002-.134.045-.14.13-.012.244-.014.558-.007.941.001.083.045.125.131.125h1.583c.18 0 .287.085.324.254.098.384-.077.553-.526.51-.535-.055-.99-.056-1.365-.003-.088.011-.133.06-.137.145-.014.301-.017.68-.01 1.134.003.166.09.25.263.25h1.499c.215 0 .327.104.334.312.016.426-.074.594-.268.504a.573.573 0 0 0-.25-.05c-.705.02-1.411.017-2.118-.008-.166-.007-.25-.09-.25-.25-.008-1.587-.003-3.13.016-4.627 0-.085.044-.128.132-.13ZM49.615 5.28c1-.026 1.966-.027 2.899-.003.088.002.137.045.147.13.151.899.151 2.144 0 3.737-.031.329.073.458.313.387.197-.05.292.023.287.218-.02.638-.01 1.13.029 1.478.009.085-.026.146-.105.184a.65.65 0 0 1-.587 0c-.079-.038-.111-.099-.097-.184a1.993 1.993 0 0 0-.021-.798c-.021-.084-.076-.125-.163-.125l-2.894-.03c-.087 0-.142.04-.165.122-.034.12-.039.339-.016.656.016.212-.085.334-.302.366-.37.073-.533-.07-.487-.43a5.18 5.18 0 0 0 .016-1.272c-.01-.085.026-.14.11-.165.547-.158.834-.633.86-1.425.03-.888.03-1.779 0-2.67 0-.114.059-.173.176-.176Zm2.1 4.266c.105.003.157-.046.157-.148v-3.18c0-.127-.066-.19-.197-.19h-1.052c-.242 0-.353.116-.331.348.094 1.103-.034 2.12-.385 3.053-.024.064-.001.096.069.096.56-.006 1.14 0 1.738.02ZM54.97 5.264c.954-.006 1.801-.002 2.541.013.088.002.136.045.145.13.017.16.017.319 0 .478-.009.085-.057.13-.145.132-.428.016-.99.018-1.688.008-.135-.002-.203.063-.203.193v.764c0 .17.088.254.263.254h1.57c.056 0 .09.026.1.079.125.502-.037.73-.486.684-.512-.052-.945-.053-1.3-.002-.087.011-.133.06-.136.145-.014.339-.018.759-.01 1.259 0 .085.045.126.13.124.66-.006 1.224-.003 1.694.01.088.004.151.044.19.12a.592.592 0 0 1 0 .568c-.039.076-.102.11-.19.104a24.79 24.79 0 0 0-2.406-.036c-.139.005-.208-.06-.208-.193V5.402c0-.092.046-.138.14-.138ZM59.647 5.264a3.933 3.933 0 0 1 1.628.064c.843.212 1.216.742 1.118 1.59-.072.624-.401 1.027-.987 1.208-.37.128-.672.157-.907.09-.14-.045-.21.004-.21.147v1.661c0 .17-.088.258-.263.265-.202.007-.35.006-.445-.003-.088-.008-.131-.055-.131-.14-.02-1.477-.025-3.034-.016-4.67.002-.138.073-.208.213-.212Zm1.644.94a1.142 1.142 0 0 0-.855-.179c-.088.012-.134.06-.14.145-.036.58-.031.984.016 1.211.018.083.07.13.155.14.556.068.916-.086 1.079-.46.154-.352.07-.637-.255-.858ZM70.241 5.295c.15.032.223.122.216.27a44.454 44.454 0 0 0-.027 3.757c.004.136.076.204.216.204h1.644c.152 0 .229-.074.229-.222V5.53c0-.17.087-.258.263-.265.201-.006.35-.005.444.003.088.008.132.055.132.14.019 1.128.024 2.46.016 3.996-.002.165.075.214.231.148.286-.119.428-.021.426.292a4.464 4.464 0 0 0 0 1.082c.053.434-.18.591-.7.473-.124-.026-.169-.098-.134-.216.091-.307.095-.56.01-.761-.03-.078-.09-.117-.178-.117l-3.296-.03c-.115 0-.173-.057-.173-.168a43.49 43.49 0 0 0 0-4.333c-.023-.432.204-.592.681-.478ZM84.704 5.44c.132 1.562.141 3.173.029 4.833-.005.066-.21.059-.613-.022-.15-.036-.226-.13-.226-.28V8.444c0-.176-.056-.195-.168-.056a24.072 24.072 0 0 0-1.29 1.776.233.233 0 0 1-.202.112c-.27.005-.474.016-.612.033-.263.034-.313-.05-.15-.252.492-.612.92-1.194 1.283-1.745.047-.071.028-.114-.058-.13-.585-.107-.932-.443-1.039-1.01-.171-.76.031-1.305.608-1.638.617-.354 1.385-.437 2.304-.25.086.02.13.071.134.156Zm-1.888 1.933c.249.155.542.215.88.181.132-.014.198-.084.198-.211v-.997c0-.2-.103-.305-.31-.313-.56-.027-.911.124-1.055.455-.16.373-.064.668.287.885ZM45.297 13.023c.927.141 1.58.591 1.957 1.351.189.385.26.846.213 1.384.001.682-.267 1.27-.805 1.765-.445.41-.94.605-1.486.588.117-.507-.083-.737-.602-.69.676.067 1.208-.101 1.593-.503.386-.4.556-.893.51-1.478-.022-.551-.247-.991-.673-1.32-.657-.531-1.348-.595-2.072-.191-.928.519-1.196 1.358-.805 2.518a3.167 3.167 0 0 0-.658.275c-.324-.522-.395-1.145-.213-1.87.127-.505.4-.94.821-1.305.649-.495 1.389-.67 2.22-.524ZM40.747 13.214a25.57 25.57 0 0 1-1.286 2.05.321.321 0 0 0-.01.372 85.71 85.71 0 0 0 1.348 2.18c.118.183.064.28-.16.29-.398.053-.643.012-.734-.122a9.579 9.579 0 0 1-.868-1.582c-.105-.18-.205-.178-.3.007-.233.453-.47.843-.712 1.17a.453.453 0 0 0-.09.23c-.028.252-.263.351-.705.297-.3-.037-.367-.179-.202-.425.496-.74.95-1.45 1.365-2.132a.188.188 0 0 0-.005-.216 35.738 35.738 0 0 1-1.295-2.134c-.024-.044-.01-.07.04-.079.519-.085.846-.006.98.237.204.37.429.767.674 1.193.083.14.17.142.26.005.3-.458.55-.883.75-1.275a.31.31 0 0 1 .182-.157 1.26 1.26 0 0 1 .702-.051c.086.02.108.068.066.142ZM50.097 13.469c-.044.54-.03 1.008.042 1.401.016.083.053.094.113.033.512-.519 1.027-1.045 1.546-1.58a.618.618 0 0 1 .21-.145c.243-.106.569-.158.98-.155.101.002.119.04.052.112-.57.621-1.25 1.3-2.038 2.035-.13.12-.138.245-.024.38a94.916 94.916 0 0 0 2.057 2.337c.058.065.053.125-.013.18-.132.111-.413.119-.842.024a.376.376 0 0 1-.21-.127c-.505-.6-1.037-1.235-1.594-1.903-.169-.204-.258-.175-.269.086-.073.428-.077.934-.01 1.519.04.354-.155.494-.587.417-.135-.018-.202-.094-.202-.226v-4.495c0-.087.041-.148.123-.184.477-.217.7-.12.666.29ZM58.324 13.036c.084.005.098.038.042.1-.57.62-1.287 1.333-2.151 2.139-.067.063-.07.127-.008.193a61.254 61.254 0 0 1 2.18 2.488c.05.061.035.102-.042.122-.586.146-1.029.003-1.328-.427a13.546 13.546 0 0 0-1.41-1.682c-.109-.124-.165-.104-.168.059l-.03 1.877a.195.195 0 0 1-.12.183c-.228.107-.418.104-.568-.01a.248.248 0 0 1-.103-.206l.032-4.602c0-.088.045-.141.136-.16.472-.11.684.052.637.486-.055.495-.055.914-.003 1.256.012.085.052.099.119.041.559-.487 1.088-1.009 1.588-1.567a.574.574 0 0 1 .208-.148c.252-.111.582-.159.989-.142ZM60.157 13.087a87.42 87.42 0 0 1 2.483.013c.088.001.152.04.192.114.095.17.096.34.003.509a.199.199 0 0 1-.195.107 94.391 94.391 0 0 0-1.744-.026c-.087-.001-.134.04-.14.125-.02.309-.019.643.006 1.002.007.102.063.15.168.145.58-.027 1.107-.03 1.578-.007a.213.213 0 0 1 .192.117c.06.105.07.27.03.493-.016.085-.068.124-.156.117a13.627 13.627 0 0 0-1.644.003c-.087.005-.135.049-.142.132-.024.277-.037.663-.04 1.16 0 .171.087.257.264.257h1.578c.147 0 .232.07.255.209.077.395-.096.58-.518.554-.7-.04-1.402-.04-2.107 0-.187 0-.28-.09-.276-.27.02-1.373.025-2.894.016-4.56-.002-.128.064-.192.197-.194ZM66.535 13.087c.395.02.677.032.847.036.082.028.124.085.124.17.019 1.303.024 2.841.016 4.617-.002.093-.048.154-.137.18-.298.094-.503.084-.613-.03a.268.268 0 0 1-.079-.218c.037-.489.05-1.014.04-1.575-.006-.248-.088-.264-.248-.049a59.288 59.288 0 0 0-1.21 1.707.35.35 0 0 1-.197.145c-.379.116-.648.113-.807-.007-.069-.053-.076-.112-.021-.178.468-.577.894-1.16 1.278-1.75.047-.072.029-.12-.055-.146-.528-.155-.853-.466-.976-.93-.126-.48-.077-.9.147-1.257.354-.524.985-.762 1.891-.715Zm-.936 2.114c.25.127.527.186.828.175.144.002.22-.066.226-.206.032-.614.029-1.017-.01-1.21-.017-.084-.07-.134-.155-.15-.384-.079-.724-.001-1.018.23a.53.53 0 0 0-.158.197c-.207.442-.111.764.287.964Z" fill="#6E708C"/>
    <path d="M43.127 16.447c.35.592.833.917 1.447.975.519-.048.72.182.602.69-.125.079-.325.1-.602.063-1.08-.148-1.782-.632-2.105-1.453.223-.122.442-.213.658-.275ZM63.56 20.797c.02 1.54.025 3.144.016 4.811-.002.168-.09.255-.263.262-.201.007-.35.006-.444-.003-.088-.008-.133-.055-.134-.14a98.524 98.524 0 0 1-.014-2.887c.002-.173-.058-.197-.181-.071l-3.046 3.137c-.172.178-.258.145-.258-.1v-4.632c0-.17.088-.258.264-.265.201-.006.35-.005.444.003.088.009.132.055.134.14.018.897.022 1.91.013 3.037-.001.158.04.17.124.033.142-.159.315-.345.518-.557.949-.99 1.86-1.925 2.735-2.803.062-.061.092-.05.092.035ZM46.483 23.395c0 .694-.285 1.36-.793 1.85a2.754 2.754 0 0 1-1.913.767 2.754 2.754 0 0 1-1.914-.766 2.575 2.575 0 0 1-.793-1.851c0-.694.285-1.36.793-1.851a2.753 2.753 0 0 1 1.914-.767c.717 0 1.406.276 1.913.767.508.49.793 1.157.793 1.85Zm-2.54 1.837a1.851 1.851 0 0 0 1.26-.65 1.844 1.844 0 0 0 .426-1.353 1.869 1.869 0 0 0-2.014-1.697 1.846 1.846 0 0 0-1.686 2.003 1.869 1.869 0 0 0 2.014 1.697ZM57 20.91c.415.1.588.412.522.938-.02.14-.089.169-.208.084-.395-.309-.871-.438-1.43-.387-.793.051-1.314.46-1.563 1.224-.317.896-.098 1.606.657 2.132.795.551 1.595.509 2.402-.127.064-.05.104-.035.118.043.098.517.02.826-.234.926-1.022.404-1.926.324-2.712-.24-.701-.501-1.068-1.185-1.102-2.05-.031-.853.27-1.557.905-2.114.682-.55 1.564-.692 2.646-.43ZM69.736 20.803c.096-.094.142-.074.137.058a49.332 49.332 0 0 0-.008 4.803c.005.085-.032.146-.11.183-.125.06-.316.069-.574.028-.088-.013-.131-.063-.131-.147l-.032-2.931c-.002-.129-.048-.147-.14-.053a426.601 426.601 0 0 0-3.071 3.162c-.172.18-.258.146-.258-.1v-4.67c0-.17.087-.266.263-.29.28-.038.448-.026.502.033.06.063.09.136.09.221-.01.982-.01 1.966 0 2.951 0 .099.034.111.102.038a87.101 87.101 0 0 1 3.23-3.286ZM51.42 20.904c.363.046.599.238.707.575-.016-.049-.035.058-.058.32-.015.175-.097.213-.244.113-.663-.458-1.343-.512-2.041-.16-.465.233-.75.552-.855.953-.293.864-.14 1.553.46 2.069.809.693 1.646.703 2.512.03.068-.052.118-.039.147.04.048.125.063.302.048.532a.31.31 0 0 1-.108.214c-.368.307-.933.422-1.694.344-.86-.089-1.538-.54-2.038-1.354a1.223 1.223 0 0 1-.108-.231c-.379-.982-.228-1.89.452-2.725.56-.685 1.5-.925 2.82-.72ZM39.132 21.212c.503.292.712.737.626 1.336-.132.87-.696 1.299-1.694 1.287-.263-.002-.395.125-.395.381v1.39c0 .17-.087.257-.263.264a4.01 4.01 0 0 1-.444-.003c-.088-.008-.132-.055-.132-.14a253.86 253.86 0 0 1-.015-4.627c0-.085.043-.135.129-.15.895-.152 1.625-.065 2.188.262Zm-.592.509c-.186-.098-.41-.136-.673-.112-.132.012-.198.081-.198.209v1.127c0 .133.07.199.208.195.52-.017.846-.145.981-.386.25-.446.143-.79-.318-1.033Z" fill="#6E708C"/>
</svg>
