<svg xmlns="http://www.w3.org/2000/svg" width="176" height="48" fill="none"><path fill="#6E708C" fill-rule="evenodd" d="M60.251.547c-1.372 2.12-2.669 4.89-3.28 7.008-.732 2.541-1.002 4.327-1.057 7.017-.061 2.919.125 4.688.747 7.092.6 2.324 1.45 4.515 2.43 6.277.653 1.172 1.437 2.352 1.54 2.319.278-.09 1.67-2.487 2.392-4.118 1.557-3.52 2.354-7.197 2.354-10.864 0-3.492-.77-7.337-2.085-10.405-.598-1.393-1.712-3.444-2.5-4.6L60.604 0l-.354.547Zm1.126 3.39c1.902 3.844 2.686 7.015 2.78 11.256.034 1.518.014 2.226-.091 3.217-.191 1.797-.262 2.103-.274 1.176-.048-3.834-1.036-7.97-2.733-11.443-.219-.447-.428-.814-.465-.814-.182 0-1.314 2.642-1.87 4.365-.808 2.507-1.052 3.94-1.303 7.669l-.06.874-.096-.834c-.674-5.784.108-10.373 2.67-15.667.463-.956.629-1.23.705-1.168.055.046.386.662.737 1.37Zm-9.069 10.988c-3.584.484-6.909 2.142-9.534 4.753-2.038 2.028-3.61 4.767-4.298 7.485-.419 1.657-.477 2.169-.476 4.194.001 2.075.064 2.597.523 4.327 1.187 4.48 4.364 8.367 8.56 10.47 1.455.73 2.622 1.13 4.344 1.489 1.218.253 3.697.354 4.989.203 3.71-.435 7.005-1.977 9.724-4.55l.593-.561V31.317H54.536v2.63c0 2.938-.058 2.701.537 2.201.35-.295 1.323-.745 1.838-.852.599-.123 1.575-.108 2.132.034 1.58.402 2.902 1.68 3.333 3.22a4.64 4.64 0 0 1-.3 3.294c-.755 1.52-2.985 3.117-5.104 3.652-3.313.837-6.663-.079-9.02-2.465a9.216 9.216 0 0 1-.128-12.836c1.6-1.695 3.494-2.616 5.893-2.865l.899-.093V14.796l-.738.008c-.405.004-1.112.059-1.57.12Zm8.849 4.636c.558 1.524.838 3.552.709 5.137-.113 1.378-.572 3.11-1.09 4.114l-.162.314-.2-.394c-.328-.646-.68-1.724-.872-2.676-.241-1.194-.261-3.551-.04-4.578.2-.92.5-1.847.828-2.552l.276-.596.166.318c.092.175.265.586.385.913Zm7.668 20.075.02 8.322h3.348l.02-7.247.021-7.246 1.494-.021 1.495-.022v-2.065l-3.21-.02-3.208-.022.02 8.321Zm8.155-8.22c-.031.101-1.72 16.3-1.719 16.482.001.076.381.1 1.632.1h1.63l.041-.259c.039-.244.286-3.755.286-4.05 0-.123.089-.14.752-.14h.752l.044.338c.023.185.098 1.155.166 2.155.068 1 .142 1.85.166 1.887.052.084 3.2.092 3.243.009.018-.033-.355-3.724-.828-8.201-.473-4.478-.861-8.205-.864-8.28-.003-.13-.184-.14-2.637-.14-2.037 0-2.64.023-2.664.1Zm10.139-.015c-.918.224-1.425.782-1.643 1.806-.05.232-.09 1.117-.09 1.966v1.545h3.336l.026-1.515c.024-1.392.039-1.525.181-1.629a.515.515 0 0 1 .682.047c.151.15.16.261.155 2.085-.003 1.272-.037 2.02-.1 2.204-.153.448-.468.556-1.632.556h-.979l.023.933.022.933 1.04.04c1.132.043 1.406.136 1.555.526.042.11.076 1.18.076 2.378 0 2.074-.008 2.187-.16 2.338-.162.162-.44.206-.612.097-.21-.133-.265-.551-.265-2.048V42.12h-3.362l.031 2.005c.029 1.85.045 2.04.21 2.457.228.573.67 1.015 1.218 1.217.386.143.628.159 2.422.159 1.746 0 2.046-.019 2.424-.15.628-.218 1.068-.687 1.277-1.36.152-.49.165-.729.165-3.016 0-2.651-.025-2.857-.41-3.377-.231-.31-.861-.614-1.424-.686l-.438-.055.505-.103c.916-.186 1.463-.647 1.686-1.42.126-.435.07-4.57-.067-4.983-.168-.508-.568-.954-1.088-1.213l-.478-.238-1.993-.015c-1.096-.008-2.128.018-2.293.059Zm8.152 8.258V48l1.694-.022 1.694-.021.02-7.248.02-7.248h.957v14.535h3.348v-16.68H95.271v8.342Zm9.905-.022.02 8.32h3.348l.021-2.788.021-2.789 1.254-.044c1.385-.049 1.792-.145 2.271-.538.761-.625.896-1.547.836-5.715-.031-2.223-.063-2.817-.167-3.145-.258-.808-.759-1.302-1.522-1.498-.385-.1-1.012-.123-3.289-.123h-2.814l.021 8.32Zm11.524-8.212c-.728.201-1.218.681-1.484 1.453-.117.343-.135 1.046-.157 6.42-.026 6.3-.004 6.828.311 7.455.359.714.832 1.03 1.757 1.172.71.11 3.715.05 4.15-.082.81-.247 1.355-1.003 1.494-2.07.1-.768.102-11.45.002-12.212a4.436 4.436 0 0 0-.248-.976c-.198-.46-.71-.948-1.16-1.107-.437-.155-4.145-.197-4.665-.053Zm8.245 8.212.021 8.32h3.348l.04-5.202c.023-2.861.051-5.15.062-5.084.012.066.393 2.377.847 5.136.454 2.758.85 5.055.879 5.103.036.058.496.087 1.356.087 1.286 0 1.303-.002 1.343-.178.022-.099.412-2.442.865-5.207l.826-5.027.039 5.186.04 5.187h3.348l.021-8.32.02-8.32h-2.184c-1.675 0-2.192.022-2.22.098-.019.055-.497 2.61-1.062 5.678-.565 3.068-1.05 5.552-1.077 5.52-.027-.032-.506-2.524-1.063-5.538a551.275 551.275 0 0 0-1.054-5.62c-.037-.128-.213-.139-2.228-.139h-2.187l.02 8.32Zm-45.218-5.924c0 .29.454 7.07.512 7.632l.038.377h-.634c-.62 0-.634-.004-.634-.194 0-.294.47-7.172.523-7.65.05-.451.195-.574.195-.165Zm29.622-.084c.144.158.152.331.152 3.343v3.176l-.189.152a.844.844 0 0 1-.458.152h-.27v-6.99h.306c.211 0 .355.052.459.167Zm9.931-.036c.138.125.145.415.145 5.997 0 5.76-.003 5.868-.159 6.024-.194.194-.455.205-.651.028-.139-.125-.146-.417-.146-6.031 0-5.258.013-5.913.125-6.024.163-.163.501-.16.686.006Z" clip-rule="evenodd"/></svg>