<svg width="130" height="28" fill="none" xmlns="http://www.w3.org/2000/svg">
    <path d="M14.284.008c1.517.057 2.98.367 4.387.928 1.69.661 3.203 1.643 4.538 2.947a13.9 13.9 0 0 1 3.136 4.625 13.977 13.977 0 0 1 1.101 5.805c-.046 2.239-.58 4.323-1.605 6.254a13.698 13.698 0 0 1-2.607 3.522 13.664 13.664 0 0 1-3.657 2.57 13.19 13.19 0 0 1-5 1.313 13.167 13.167 0 0 1-5.575-.829 13.403 13.403 0 0 1-4.35-2.64 13.9 13.9 0 0 1-3.25-4.326A14.48 14.48 0 0 1 0 14.691v-1.36a.432.432 0 0 0 .016-.128 13.829 13.829 0 0 1 1.69-5.968c.453-.86 1.02-1.685 1.703-2.473A13.95 13.95 0 0 1 7.77 1.388C9.796.392 11.967-.068 14.284.008Zm12.672 13.99c0-3.58-1.394-7.014-3.876-9.546A13.104 13.104 0 0 0 13.722.498c-3.51 0-6.877 1.423-9.359 3.954a13.639 13.639 0 0 0-3.876 9.546 13.64 13.64 0 0 0 3.876 9.547 13.104 13.104 0 0 0 9.358 3.954c3.51 0 6.877-1.423 9.359-3.954a13.639 13.639 0 0 0 3.876-9.547Z" fill="#6E708C"/>
    <path d="M14.609 3.671a8.847 8.847 0 0 1 3.461.83c.534.249 1.023.568 1.466.957.284.245.485.544.603.898.02.059.057.102.112.13.6.29 1.13.676 1.593 1.16.366.383.52.858.461 1.425a.065.065 0 0 0 .034.067c.15.087.299.197.447.331.443.398.675.896.695 1.496.01.296-.078.572-.266.828-.014.019-.01.035.01.047.102.058.202.143.301.256.277.311.403.658.378 1.04a2.029 2.029 0 0 1-.345.991 3.394 3.394 0 0 1-1.024 1.077 12.166 12.166 0 0 1-4.006 1.716c-.855.197-1.75.389-2.685.576-1.298.229-2.585.45-3.864.662-.021.003-.022.008 0 .014 1.354.35 2.772.507 4.254.468a14.795 14.795 0 0 0 2.222-.236 18.674 18.674 0 0 0 5.08-1.709c.043-.022.058-.009.043.038-.041.13-.08.249-.117.358a.213.213 0 0 1-.097.12c-.672.384-1.343.7-2.012.948-1.23.436-2.503.768-3.82.995-.871.15-1.727.222-2.567.215a18.04 18.04 0 0 1-4.747-.787.332.332 0 0 0-.184-.003 7.456 7.456 0 0 0-1.161.416c-.02.009-.02.018 0 .027 1.281.596 2.606.995 3.976 1.197a20.475 20.475 0 0 0 2.961.226c2.337-.112 4.6-.568 6.789-1.367.029-.01.034-.003.016.022a4.576 4.576 0 0 0-.222.333.331.331 0 0 1-.138.128c-.397.193-.78.356-1.147.488a20.172 20.172 0 0 1-3.852.978 7.2 7.2 0 0 1-.845.083c-.798.028-1.594.023-2.388-.017a15.138 15.138 0 0 1-3.38-.497 15.786 15.786 0 0 1-2.669-.99.058.058 0 0 0-.072.014 1.24 1.24 0 0 0-.293.496c-.007.023 0 .039.02.05 2.1 1.136 4.28 1.782 6.54 1.936a17.762 17.762 0 0 0 4.57-.375 29.205 29.205 0 0 0 2.356-.612c.053-.016.06-.005.023.036-.105.11-.221.226-.348.346a.173.173 0 0 1-.054.036 16.087 16.087 0 0 1-5.003 1.284c-1.597.146-3.15.017-4.66-.385a16.318 16.318 0 0 1-3.205-1.223c-.073-.036-.082-.026-.029.03.222.232.47.447.748.646 1.1.791 2.29 1.34 3.57 1.645.482.114.975.18 1.48.199 1.834.077 3.54-.161 5.116-.715.02-.007.021-.005.003.006-1.63.977-3.428 1.422-5.396 1.338a10.154 10.154 0 0 1-3.506-.766 8.93 8.93 0 0 1-2.559-1.633 2.42 2.42 0 0 1-.76-1.33.098.098 0 0 0-.054-.071c-.692-.348-1.22-.834-1.583-1.458a.877.877 0 0 1-.118-.36 1.945 1.945 0 0 1 .102-.942c.01-.026.004-.047-.02-.064-.167-.13-.32-.253-.46-.367-.353-.274-.535-.624-.548-1.048a1.437 1.437 0 0 1 .227-.812c.029-.05.023-.097-.015-.14-.356-.389-.519-.829-.488-1.319.023-.373.144-.725.361-1.057.396-.596.935-1.09 1.617-1.483.448-.258.925-.49 1.43-.696 1.049-.411 2.1-.747 3.157-1.007a55.059 55.059 0 0 1 3.705-.784c1.155-.158 2.287-.4 3.396-.725.076-.022.075-.04-.003-.053a19.598 19.598 0 0 0-3.475-.295c-2.628.007-5.096.556-7.406 1.645-.808.382-1.577.827-2.308 1.337-.02.014-.026.009-.02-.015a6.97 6.97 0 0 1 .252-.728.107.107 0 0 1 .04-.049c.77-.526 1.593-.997 2.467-1.415a14.748 14.748 0 0 1 3.096-1.102 16.629 16.629 0 0 1 4.075-.435c1.377.018 2.77.152 4.179.4.064.012.123.001.18-.032.295-.172.49-.422.58-.75.007-.023-.001-.038-.024-.046a11.992 11.992 0 0 0-2.287-.58 18.486 18.486 0 0 0-2.824-.202c-.777 0-1.575.064-2.392.195-1.375.208-2.723.54-4.046.994-.653.224-1.28.504-1.88.84-.05.027-.057.019-.021-.025.169-.207.336-.421.502-.641a.507.507 0 0 1 .164-.14c.454-.247.938-.466 1.454-.656A21.474 21.474 0 0 1 12.17 5.38c.759-.104 1.55-.148 2.373-.133.973.003 1.921.108 2.843.315.496.111.985.231 1.466.36.023.008.028 0 .014-.02a1.148 1.148 0 0 0-.362-.352 6.547 6.547 0 0 0-1.41-.684c-1.21-.413-2.534-.597-3.969-.551a14.563 14.563 0 0 0-5.245 1.148c-.011.005-.002-.008.029-.037a8.215 8.215 0 0 1 2.055-1.07c1.437-.517 2.985-.745 4.644-.684Zm5.01 4.274c.447.134.905.29 1.376.467.048.018.063.003.043-.045a1.7 1.7 0 0 0-.29-.481 2.833 2.833 0 0 0-.68-.58c-.019-.011-.033-.007-.043.013a2.71 2.71 0 0 1-.415.592c-.015.016-.012.028.009.034ZM17.707 9.31c.732.172 1.46.376 2.188.612a.227.227 0 0 0 .193-.02 2.56 2.56 0 0 0 .668-.574c.022-.026.018-.044-.013-.057a18.234 18.234 0 0 0-1.846-.65.06.06 0 0 0-.057.012 4.814 4.814 0 0 1-1.135.654c-.022.01-.022.017.002.023Zm3.749 1.243c.281.12.547.259.799.415.022.014.04.01.053-.013a.477.477 0 0 0 .068-.403c-.05-.185-.177-.36-.38-.524-.034-.03-.066-.028-.095.006a3.544 3.544 0 0 1-.455.447c-.036.03-.033.054.01.072Zm-2.895-.055a8.24 8.24 0 0 0-2.847-.407 39.215 39.215 0 0 0-7.081 1.376c-.542.159-1.064.338-1.568.54-.51.2-.98.427-1.41.683-.347.205-.627.45-.841.733a1.038 1.038 0 0 0-.167.344c-.063.231-.027.47.11.717.035.063.078.07.13.022a6.492 6.492 0 0 1 1.885-1.19c.486-.206.99-.387 1.515-.543.796-.238 1.63-.448 2.503-.63a95.848 95.848 0 0 1 2.941-.58 78.773 78.773 0 0 0 4.83-1.029c.042-.01.042-.022 0-.036Zm2.98 1.213a7.524 7.524 0 0 0-1.03-.534.23.23 0 0 0-.193.002c-.492.216-1.007.406-1.545.57-.958.29-1.94.526-2.945.709-1.245.226-2.487.462-3.726.709-.821.16-1.601.332-2.34.514-.566.149-1.107.31-1.62.484a9.114 9.114 0 0 0-2.367 1.186c-.044.032-.043.064 0 .095.252.18.53.345.835.497.04.02.079.018.117-.004a8.976 8.976 0 0 1 2.207-.9 45.026 45.026 0 0 1 3.123-.691c.667-.118 1.333-.234 2-.349a49.669 49.669 0 0 0 4.7-1.04c.515-.141 1.043-.31 1.584-.505.449-.167.85-.383 1.203-.647.046-.034.044-.066-.004-.096ZM8.12 16.746c.5.25 1.028.484 1.582.705.02.008.041.009.062.003a18.181 18.181 0 0 1 1.643-.439c.807-.159 1.618-.31 2.433-.451 1.099-.196 2.194-.41 3.287-.643a21.924 21.924 0 0 0 3.217-.945c.512-.196.976-.43 1.394-.7.216-.138.408-.3.576-.49.194-.208.295-.43.305-.666a.897.897 0 0 0-.141-.497c-.01-.02-.023-.022-.04-.008-.294.266-.61.488-.944.667a12.26 12.26 0 0 1-2.206.866c-.9.264-1.809.497-2.726.7-.956.211-1.985.404-3.088.58-.463.086-.91.166-1.34.24-.967.167-1.892.367-2.775.601-.43.119-.842.26-1.238.425-.039.016-.04.033-.002.052Zm-2.77.186c.044.035.086.033.125-.008.059-.062.141-.13.247-.204.026-.02.026-.037-.003-.053-.223-.126-.426-.25-.61-.371-.08-.053-.115-.03-.107.066.018.21.134.401.348.57Zm1.089.829c.372.227.719.427 1.039.598.019.01.038.01.056-.001.27-.16.531-.286.785-.381.04-.015.04-.032.002-.05-.425-.194-.853-.388-1.284-.58a.15.15 0 0 0-.152.012c-.165.11-.315.222-.451.336-.029.024-.028.046.005.066Zm-.09 1.53c.045.041.088.085.13.132.023.024.041.02.054-.01.052-.125.114-.244.188-.36.012-.019.008-.034-.01-.045a22.49 22.49 0 0 0-.732-.415c-.02-.01-.028-.005-.025.018.024.23.156.457.395.68ZM52.813 7.65c.61.032 1.155.21 1.637.534.41.273.722.624.934 1.053.23.444.358.926.386 1.446.027.493-.038.957-.195 1.393-.18.498-.469.91-.865 1.239a2.384 2.384 0 0 1-.612.377.097.097 0 0 0-.047.04c-.03.05-.004.089.078.117.323.102.622.277.897.527.398.367.663.804.797 1.31.1.379.148.79.142 1.23-.013.945-.305 1.73-.874 2.358a2.87 2.87 0 0 1-1.12.779 4.544 4.544 0 0 1-1.699.315 5.308 5.308 0 0 1-2.507-.595.1.1 0 0 1-.057-.096c.01-.85.023-1.67.037-2.46.001-.042.02-.055.057-.038.6.28 1.241.403 1.922.367.241-.013.457-.086.646-.22.158-.103.282-.252.374-.447.147-.305.16-.619.036-.941a.918.918 0 0 0-.524-.543 2.017 2.017 0 0 0-.809-.153H50.4c-.038 0-.056-.02-.056-.058v-2.528c0-.033.016-.05.048-.05h1.04c.304 0 .58-.073.829-.215.228-.13.39-.32.484-.568.082-.23.094-.467.036-.709a.909.909 0 0 0-.435-.634 1.359 1.359 0 0 0-.751-.195 3.688 3.688 0 0 0-1.46.32c-.056.026-.084.008-.084-.054-.004-.858-.013-1.707-.028-2.548 0-.031.014-.05.043-.058a8.791 8.791 0 0 1 2.748-.295ZM80.775 8.068c.466.226.87.55 1.21.97.313.377.565.805.756 1.284.373.981.58 2.024.621 3.13a12.074 12.074 0 0 1-.292 3.182 6.4 6.4 0 0 1-.532 1.43 4.456 4.456 0 0 1-.732 1.044c-.369.398-.8.694-1.291.887a4.078 4.078 0 0 1-1.556.286 4.288 4.288 0 0 1-1.317-.2 3.466 3.466 0 0 1-1.336-.774 4.47 4.47 0 0 1-1.085-1.562 9.185 9.185 0 0 1-.666-3.1c-.046-1.18.044-2.265.272-3.253.22-.954.612-1.772 1.174-2.453l.042-.05c.693-.74 1.567-1.143 2.623-1.206.767-.046 1.47.082 2.109.385Zm-2.487 8.968c.223.2.49.28.8.244.386-.036.675-.25.866-.642a4.392 4.392 0 0 0 .435-1.794c.018-.3.03-.648.032-1.044a7.145 7.145 0 0 0-.211-1.84 2.434 2.434 0 0 0-.321-.75c-.22-.341-.51-.522-.865-.543a1.02 1.02 0 0 0-.865.36c-.16.178-.282.39-.366.638-.1.265-.17.55-.216.858a9.991 9.991 0 0 0 .017 3c.062.418.192.805.39 1.16.088.142.19.26.305.353ZM35.23 7.849h5.623c.043 0 .064.022.064.066v2.96c0 .038-.018.057-.056.057h-2.773c-.029 0-.043.014-.043.044-.005 3.001-.006 6.034-.004 9.098 0 .038-.019.058-.056.058h-2.747c-.038 0-.057-.02-.057-.058V7.898c0-.033.017-.05.049-.05ZM43.023 7.849h3.42c.034 0 .055.017.062.052.768 3.995 1.544 7.983 2.326 11.965.017.087.028.164.033.234-.001.021-.012.032-.033.032h-2.753c-.024 0-.039-.013-.042-.038-.107-.688-.215-1.37-.324-2.048-.003-.021-.016-.032-.037-.032-.583-.005-1.206-.006-1.867-.004-.026 0-.042.014-.046.04-.113.683-.224 1.357-.332 2.022-.006.04-.03.06-.069.06h-2.72c-.043 0-.06-.022-.052-.065.793-4.06 1.58-8.114 2.362-12.159.008-.04.032-.06.072-.06Zm1.677 4.024c-.145 1.096-.305 2.22-.481 3.369-.005.033.01.05.042.05h.937c.036 0 .051-.018.046-.054-.165-1.14-.324-2.27-.475-3.39a.183.183 0 0 0-.02-.063c-.016-.068-.033-.04-.05.088ZM57.314 7.849h7.442c.087 0 .13.044.13.132v12.1c0 .034-.016.05-.048.05h-2.706c-.038 0-.057-.019-.057-.057V10.88c0-.029-.014-.044-.043-.044a92.585 92.585 0 0 0-1.93 0c-.028 0-.042.015-.042.044v9.194c0 .038-.019.058-.057.058h-2.681c-.038 0-.057-.02-.057-.058V7.898c0-.033.016-.05.049-.05ZM66.511 7.849c1.22.009 2.427.009 3.624 0a3.681 3.681 0 0 1 1.475.285c.48.21.881.519 1.202.929.572.716.899 1.554.98 2.515.058.7-.038 1.392-.29 2.076-.174.5-.429.947-.763 1.343-.242.28-.531.509-.87.688-.498.267-1.043.4-1.636.402-.348 0-.66.002-.94.004-.02 0-.032.011-.032.033-.004 1.314-.006 2.63-.004 3.95 0 .038-.018.058-.056.058h-2.682c-.038 0-.056-.02-.056-.058V7.898c0-.033.016-.05.048-.05Zm4.119 3.017a.855.855 0 0 0-.657-.299 22.716 22.716 0 0 0-.65 0c-.044 0-.066.022-.066.066v2.636c0 .062.03.095.091.098.362.042.673.026.933-.048.245-.075.417-.248.516-.518.081-.24.126-.505.134-.792a2.247 2.247 0 0 0-.128-.866.962.962 0 0 0-.173-.277ZM84.751 7.849c.77-.003 1.534-.001 2.296.004.022 0 .04.009.052.026.671.917 1.346 1.85 2.024 2.8.029.039.057.04.086 0 .68-.928 1.357-1.857 2.033-2.787a.098.098 0 0 1 .083-.043h2.277c.028 0 .043.014.043.043.005 4.046.006 8.104.004 12.173 0 .044-.022.067-.065.067-.91.002-1.81 0-2.704-.004-.028 0-.042-.015-.042-.044v-7.328c0-.061-.02-.068-.056-.02-.536.686-1.063 1.357-1.582 2.012-.021.028-.043.028-.064 0-.551-.693-1.073-1.359-1.567-1.998-.042-.054-.063-.047-.063.022v7.293c0 .044-.021.067-.065.067-.909.002-1.81 0-2.703-.004-.029 0-.043-.015-.043-.044V7.906c0-.038.019-.057.056-.057ZM95.574 7.849c2.147-.003 4.253-.001 6.319.004.029 0 .043.014.043.043v2.853c0 .045-.021.067-.065.067h-3.576c-.029 0-.043.014-.044.044a59.79 59.79 0 0 0 0 1.527c0 .022.011.033.033.033.15.003.327.004.532.004a4.649 4.649 0 0 1 1.93.385 2.913 2.913 0 0 1 1.56 1.591c.201.513.3 1.07.296 1.67a5.49 5.49 0 0 1-.211 1.526c-.138.469-.364.896-.678 1.28-.213.26-.476.484-.788.671-.665.393-1.4.587-2.206.585a776.97 776.97 0 0 0-3.159-.004c-.028 0-.043-.015-.043-.044V7.906c0-.038.02-.057.057-.057Zm3.88 7.273a1.112 1.112 0 0 0-.67-.228c-.194-.003-.36-.002-.5.003-.022 0-.033.012-.033.034-.01.892-.008 1.782.008 2.668 0 .023.011.035.033.039.404.063.75-.014 1.04-.229.221-.17.368-.396.44-.68.094-.377.095-.746.003-1.106a.928.928 0 0 0-.321-.501ZM112.661 7.849h2.633c.032 0 .048.016.048.05-.002 1.457 0 2.904.004 4.338 0 .022.011.034.033.034.594.004 1.21.006 1.848.003.033 0 .049-.016.049-.05V7.982c0-.088.044-.132.13-.132.866-.003 1.724-.001 2.574.004.028 0 .042.014.042.043v12.178c0 .038-.018.058-.056.058h-2.643c-.029 0-.043-.015-.043-.044-.005-1.574-.006-3.157-.004-4.747 0-.088-.043-.132-.13-.132h-1.757c-.028 0-.043.014-.043.043-.004 1.54-.006 3.122-.004 4.747 0 .088-.043.133-.13.133h-2.47c-.086 0-.13-.045-.13-.133v-12.1c0-.034.017-.05.049-.05ZM121.889 7.849c.916-.003 1.804-.001 2.663.004.025 0 .037.012.037.037.004 1.502 0 2.946-.012 4.33 0 .023.01.034.032.035.171.006.341.006.512 0 .022 0 .036-.011.044-.032.514-1.43 1.027-2.871 1.536-4.325.012-.033.035-.05.069-.05h2.889c.034 0 .045.017.033.05l-2.085 5.697a.217.217 0 0 0 0 .159c.792 2.11 1.589 4.215 2.393 6.315v.05c-1.063.017-2.121.02-3.173.009a.052.052 0 0 1-.054-.04c-.522-1.632-1.039-3.245-1.553-4.838-.013-.039-.039-.058-.079-.058h-.439c-.087 0-.13.044-.13.133a309.1 309.1 0 0 1 .017 4.724c-.001.055-.028.083-.082.083h-2.6c-.043 0-.065-.023-.065-.067-.002-4.069 0-8.127.004-12.173 0-.029.015-.043.043-.043ZM105.562 7.865h3.433c.033 0 .052.017.059.05.791 4.055 1.58 8.115 2.366 12.18.007.035-.007.053-.043.053h-2.739c-.043 0-.068-.021-.074-.065a94.45 94.45 0 0 0-.321-2.014c-.005-.028-.021-.042-.049-.043-.65-.002-1.267 0-1.85.004-.022 0-.034.011-.038.034-.113.66-.221 1.334-.324 2.024-.006.04-.029.06-.069.06h-2.725c-.053 0-.073-.026-.063-.078.797-4.049 1.591-8.102 2.382-12.159.006-.03.025-.046.055-.046Zm1.724 3.941c-.02-.014-.031-.017-.032-.008a443.16 443.16 0 0 0-.492 3.477c-.003.022.006.033.028.033h.931c.042 0 .06-.021.054-.063l-.464-3.38a.116.116 0 0 0-.025-.059Z" fill="#6E708C"/>
</svg>
