<svg xmlns="http://www.w3.org/2000/svg" width="176" height="48" fill="none"><path fill="#6E708C" d="M114.794 17.609h2.639c1.705 0 3.092 1.4 3.092 3.12 0 1.72-1.387 3.12-3.092 3.12h-2.639v4.64c0 1.887-1.524 3.424-3.394 3.424s-3.394-1.537-3.394-3.423V17c0-4.626 3.711-8.37 8.296-8.37h2.338c1.704 0 3.092 1.4 3.092 3.12 0 1.72-1.388 3.12-3.092 3.12h-2.187c-.92 0-1.659.746-1.659 1.674v1.065Zm-13.801 0h2.639c1.705 0 3.092 1.4 3.092 3.12 0 1.72-1.387 3.12-3.092 3.12h-2.639v13.01c0 1.887-1.523 3.424-3.394 3.424-1.87 0-3.394-1.537-3.394-3.424V17c0-4.626 3.71-8.37 8.296-8.37h2.338c1.704 0 3.092 1.4 3.092 3.12 0 1.72-1.388 3.12-3.092 3.12h-2.187c-.92 0-1.659.746-1.659 1.674v1.065ZM63.21 32.339v4.535c0 1.887-1.523 3.424-3.394 3.424-1.87 0-3.393-1.537-3.393-3.424v-25.87c0-1.902 1.523-3.439 3.393-3.439 1.87 0 3.394 1.537 3.394 3.424v6.696h4.374V10.99c0-1.887 1.524-3.424 3.394-3.424s3.394 1.537 3.394 3.424v25.87c0 1.887-1.524 3.424-3.394 3.424s-3.394-1.537-3.394-3.424V25.446c0-.928-.739-1.674-1.659-1.674H63.21v8.568ZM84.1 15.86h.302c4.585 0 8.295 3.743 8.295 8.37v7.684c0 4.627-3.71 8.37-8.295 8.37H84.1c-4.585 0-8.296-3.743-8.296-8.37V24.23c0-4.627 3.71-8.37 8.296-8.37Zm.15 6.087c-.965 0-1.734.776-1.734 1.75v8.75c0 .974.77 1.75 1.735 1.75.965 0 1.734-.776 1.734-1.75v-8.75c0-.974-.769-1.75-1.734-1.75Zm27.15 10.88c2.081 0 3.771 1.705 3.771 3.805s-1.69 3.804-3.771 3.804-3.771-1.704-3.771-3.804c0-2.1 1.69-3.804 3.771-3.804Z"/></svg>