<svg width="82" height="31" fill="none" xmlns="http://www.w3.org/2000/svg">
    <path d="M25.709.02c.018-.026.038-.027.058-.001.478.586.74 1.224.784 1.914a5.38 5.38 0 0 1-.197 1.845.174.174 0 0 0 .03.154c.215.282.423.566.624.853.054.078.06.17.019.277-.019.05-.05.06-.096.03a9.647 9.647 0 0 1-.492-.361c-.031-.024-.088.001-.172.075-.151.132-.35.184-.596.156-.154-.017-.264-.103-.332-.256-.011-.026-.03-.032-.054-.017a7.094 7.094 0 0 1-.692.363c-.026.012-.044.004-.053-.023-.056-.171.004-.324.18-.459a3.79 3.79 0 0 0 .46-.416.19.19 0 0 0 .061-.18c-.122-.714-.2-1.359-.234-1.933a.88.88 0 0 1 0-.086c.022-.682.256-1.327.701-1.935ZM62.437 9.364c0 .353-.078.702-.226 1.028a2.688 2.688 0 0 1-.642.871c-.274.25-.6.447-.958.581a3.202 3.202 0 0 1-2.257-.004 2.983 2.983 0 0 1-.956-.584 2.685 2.685 0 0 1-.638-.873 2.48 2.48 0 0 1 .004-2.057c.148-.326.366-.622.64-.871.275-.25.6-.447.958-.581a3.202 3.202 0 0 1 2.258.004c.358.135.683.334.956.584.274.25.49.547.638.873.148.326.223.676.223 1.03Zm-1.051.002c0-.238-.048-.474-.142-.694a1.809 1.809 0 0 0-.41-.59 1.909 1.909 0 0 0-.615-.395 1.98 1.98 0 0 0-1.454-.005c-.23.09-.44.223-.618.391a1.81 1.81 0 0 0-.414.587 1.742 1.742 0 0 0-.005 1.387c.095.22.234.421.41.59.176.17.385.303.615.395a1.978 1.978 0 0 0 1.454.005c.231-.09.441-.223.618-.39.177-.168.318-.368.414-.587.096-.22.146-.456.147-.694ZM38.666 6.766h.902c.029 0 .043.015.043.043v2.063c0 .043.022.064.065.064h.917a.08.08 0 0 0 .07-.035c.515-.732 1.018-1.43 1.506-2.094a.081.081 0 0 1 .068-.036c.274-.006.604-.007.99-.005.038.001.046.017.023.048-.599.82-1.195 1.63-1.787 2.431-.017.023-.018.047-.001.07l1.845 2.565c.04.057.026.085-.044.085h-1.024a.074.074 0 0 1-.064-.033c-.503-.696-1.002-1.38-1.497-2.052a.246.246 0 0 0-.207-.106 24.14 24.14 0 0 0-.812.004c-.028 0-.043.015-.043.044-.006.656-.008 1.346-.005 2.068 0 .05-.024.075-.074.075h-.871c-.043 0-.064-.021-.064-.065V6.83c0-.042.021-.064.064-.064ZM44.188 6.766h.859c.043 0 .064.022.064.065v3.488c0 .069.022.076.066.022.912-1.15 1.823-2.297 2.732-3.44a.336.336 0 0 1 .264-.133c.286-.009.535-.005.746.011.029.003.043.018.043.047.027 1.693.027 3.386 0 5.08 0 .028-.015.044-.043.046-.241.017-.502.021-.784.013-.111-.003-.167-.06-.167-.172.003-1.144.001-2.286-.005-3.424 0-.04-.013-.044-.038-.013a725.461 725.461 0 0 0-2.83 3.564.112.112 0 0 1-.091.045h-.86c-.028 0-.042-.014-.042-.043v-5.07c0-.057.028-.086.086-.086ZM50.719 6.767h.687c.115 0 .172.057.172.171v1.89c0 .044.021.065.064.065h2.664c.043 0 .065-.021.065-.064V6.852c0-.056.028-.085.085-.085.336-.003.629-.001.876.004.029 0 .043.015.043.044.014 1.7.01 3.397-.01 5.09 0 .03-.015.045-.044.047-.297.02-.598.023-.902.01-.029-.002-.043-.016-.043-.045l-.01-2.138c0-.029-.015-.043-.044-.043a263.66 263.66 0 0 0-2.701-.005c-.029 0-.043.014-.043.043v2.116c0 .05-.025.075-.075.075h-.882c-.05 0-.074-.025-.074-.074V6.938c0-.114.057-.171.172-.171Z" fill="#6E708C"/>
    <path d="M.064 8.012h1.43c.05 0 .074.025.074.075v1.644c0 .043.022.064.065.064h2.46c.05 0 .074-.024.074-.074-.002-.55 0-1.101.006-1.652 0-.038.018-.057.056-.057h21.914c.061 0 .086.03.074.09a15343.05 15343.05 0 0 1-4.56 22.698c-.006.028-.023.042-.052.042-.943.006-1.901.008-2.876.005-.06 0-.08-.028-.062-.086a4126.82 4126.82 0 0 0 6.031-18.21c.002-.005-.006-.002-.02.01-3.214 6.08-6.428 12.166-9.642 18.261a.045.045 0 0 1-.042.025h-2.758c-.066 0-.078-.025-.037-.076 2.176-2.671 4.347-5.352 6.511-8.044.01-.011-.024.005-.102.048-2.9 2.62-5.792 5.248-8.678 7.884a.674.674 0 0 1-.37.188 98.653 98.653 0 0 0-3.03 0c-.062 0-.066-.016-.013-.048 2.432-1.435 4.876-2.888 7.333-4.36.009-.006-.004-.011-.037-.017-3.182 1.388-6.38 2.785-9.593 4.19-.035.015-.053.003-.053-.034v-1.535c0-.029-.014-.043-.043-.043H1.63c-.038 0-.057.019-.057.057-.006.55-.008 1.125-.005 1.725 0 .044-.02.065-.064.065H.074c-.05 0-.074-.025-.074-.075V8.078c0-.043.021-.065.064-.065ZM4.108 18.19a57.836 57.836 0 0 0-2.484-.01c-.037 0-.056.019-.056.056v2.29c0 .05.025.076.075.076h2.444c.052 0 .079-.027.08-.08.008-.805.004-1.568-.014-2.288-.001-.03-.016-.044-.045-.044ZM27.26 8.012c.83-.002 1.634 0 2.413.006.038 0 .057.019.057.056V9.71c0 .058.029.086.086.086h2.578c.029 0 .043-.014.043-.043V8.077c0-.043.021-.065.064-.065h1.43c.049 0 .074.025.074.075.003 7.604.001 15.171-.005 22.704 0 .037-.02.056-.057.056h-1.432c-.05 0-.075-.025-.074-.075.003-.607 0-1.182-.005-1.724 0-.029-.015-.043-.043-.043-.814-.006-1.644-.008-2.488-.005-.114 0-.17.058-.17.172v1.6c0 .05-.026.075-.076.075h-2.374c-.057 0-.086-.028-.086-.086V8.077c0-.043.022-.065.065-.065Zm5.177 10.213a.052.052 0 0 0-.052-.052h-2.603a.05.05 0 0 0-.048.032.052.052 0 0 0-.004.02v2.325a.052.052 0 0 0 .052.052h2.603a.052.052 0 0 0 .052-.052v-2.325Z" fill="#9EA0B3"/>
    <path d="M41.35 15.81c.67.068 1.253.33 1.746.788.043.04.042.079-.001.117-.163.145-.344.313-.544.503-.03.03-.062.03-.093.001-.536-.495-1.163-.671-1.88-.528-.354.07-.65.219-.887.446a1.69 1.69 0 0 0-.532.929 1.85 1.85 0 0 0 .194 1.289c.16.292.387.515.682.67.359.192.761.269 1.208.232a1.92 1.92 0 0 0 1.215-.572c.02-.02.042-.02.064-.002.185.158.377.333.574.526.041.04.04.078 0 .117a2.73 2.73 0 0 1-1.51.747 3.85 3.85 0 0 1-.837.043c-.702-.052-1.298-.286-1.788-.704-.542-.459-.834-1.055-.876-1.788a2.56 2.56 0 0 1 1.294-2.422 3.296 3.296 0 0 1 1.971-.392ZM43.51 15.853h4.51c.045 0 .056.02.032.058a.512.512 0 0 0-.018.221c.015.24.012.408-.008.5-.006.028-.023.043-.052.044-.52.018-1.072.023-1.657.014-.044 0-.066.021-.066.065v4.232c0 .043-.022.065-.065.065h-.902c-.043 0-.064-.022-.064-.065.002-1.43 0-2.847-.006-4.248 0-.029-.014-.043-.042-.043a98.144 98.144 0 0 0-1.672-.005c-.038 0-.058-.018-.06-.056a17.23 17.23 0 0 1-.002-.71c0-.048.024-.072.072-.072ZM48.207 15.857c.233-.005.527-.007.881-.004.046 0 .08.02.1.061.535 1.005 1.04 1.965 1.518 2.88.03.057.061.057.093 0a191.67 191.67 0 0 0 1.557-2.85.162.162 0 0 1 .153-.09h.825c.062 0 .078.026.048.08-.77 1.365-1.546 2.74-2.325 4.124-.085.15-.178.286-.28.409-.281.365-.632.587-1.052.666-.37.068-.747.03-1.13-.116-.026-.01-.034-.027-.024-.053.077-.212.153-.442.229-.69.012-.04.036-.051.074-.038a.994.994 0 0 0 .62.085c.286-.046.517-.224.694-.536a.1.1 0 0 0 .003-.109 587.953 587.953 0 0 0-2.064-3.68c-.052-.09-.025-.137.08-.14ZM54.779 15.853h3.888c.029 0 .043.014.043.043v4.254c0 .043.021.064.065.064.246-.002.464-.001.652.004.038.001.056.02.056.058v1.813c0 .053-.026.08-.08.08h-.78c-.057 0-.085-.03-.085-.086.003-.381.002-.709-.004-.983 0-.029-.015-.043-.044-.043-1.3-.007-2.646-.008-4.036-.005-.037 0-.056.018-.057.056-.006.285-.007.612-.005.98 0 .05-.025.077-.075.078-.315.01-.585.006-.81-.01-.03-.003-.044-.018-.045-.047a42.128 42.128 0 0 1-.015-1.819c.001-.056.03-.082.086-.076.316.03.55-.086.704-.35.091-.157.158-.327.198-.51.104-.425.169-.89.194-1.396.033-.688.061-1.37.085-2.043.001-.041.023-.062.065-.062Zm.811 1.026c-.01.93-.088 1.776-.231 2.54-.05.264-.15.5-.3.709-.04.057-.025.086.045.086.856.003 1.703 0 2.54-.005.038-.001.056-.02.056-.057v-3.397c0-.043-.021-.064-.064-.064h-1.854c-.126 0-.19.063-.192.188ZM60.6 15.853h.751c.115 0 .172.057.172.172v3.415c0 .043.013.047.04.014.923-1.169 1.85-2.339 2.78-3.51a.231.231 0 0 1 .189-.091h.75c.058 0 .087.029.087.086v5.038c0 .05-.025.075-.075.075h-.87c-.044 0-.065-.022-.065-.065v-3.449c0-.111-.034-.123-.102-.034a171.461 171.461 0 0 1-2.777 3.509.087.087 0 0 1-.07.034c-.228.006-.498.007-.811.005-.071-.001-.107-.037-.107-.108V15.96c0-.071.036-.107.108-.107ZM70.956 15.853c.099.001.148.051.148.15v4.984c0 .043-.021.065-.064.065h-.773c-.115 0-.172-.058-.172-.172v-1.203c0-.043-.022-.065-.065-.065h-1.295a.128.128 0 0 0-.111.059c-.323.459-.635.905-.938 1.34a.079.079 0 0 1-.067.036c-.318.008-.648.008-.988 0-.034-.001-.041-.015-.021-.044.347-.489.709-.99 1.085-1.506.021-.028.015-.049-.018-.062a1.592 1.592 0 0 1-.778-.558 1.778 1.778 0 0 1-.327-.983 1.945 1.945 0 0 1 .263-1.133c.167-.276.403-.484.709-.623.3-.16.628-.247.983-.263a33.922 33.922 0 0 1 2.429-.022Zm-2.972 2.712c.065.066.14.112.226.14.317.102.673.14 1.068.113.25-.008.501-.008.752 0 .043 0 .064-.022.064-.064a49.81 49.81 0 0 0-.014-2.004c-.001-.029-.016-.044-.045-.046a9.741 9.741 0 0 0-1.38.008c-.36.01-.637.133-.832.37-.222.273-.283.588-.182.946a.88.88 0 0 0 .343.537ZM48.066 27.565c0 .353-.078.702-.226 1.028a2.686 2.686 0 0 1-.641.87c-.274.25-.6.447-.958.582a3.198 3.198 0 0 1-1.129.202 3.1 3.1 0 0 1-2.084-.79 2.573 2.573 0 0 1-.86-1.903 2.573 2.573 0 0 1 .867-1.899 3.1 3.1 0 0 1 2.087-.783 3.101 3.101 0 0 1 2.084.79c.552.506.861 1.19.86 1.903Zm-1.052-.001c0-.238-.048-.474-.143-.694a1.808 1.808 0 0 0-.41-.59 1.906 1.906 0 0 0-.616-.393 1.977 1.977 0 0 0-1.454-.003c-.23.09-.44.224-.616.392a1.81 1.81 0 0 0-.413.588 1.742 1.742 0 0 0-.002 1.387c.095.22.234.42.41.59.176.168.385.302.616.393a1.979 1.979 0 0 0 1.453.003c.23-.091.44-.224.617-.392a1.81 1.81 0 0 0 .412-.588c.096-.22.146-.455.146-.693ZM71.38 27.56c0 .712-.31 1.396-.864 1.9a3.103 3.103 0 0 1-2.086.787 3.102 3.102 0 0 1-2.086-.788 2.571 2.571 0 0 1-.863-1.9c0-.712.31-1.396.864-1.9a3.102 3.102 0 0 1 2.085-.786c.783 0 1.533.283 2.086.787.553.503.864 1.187.864 1.9Zm-1.05.007c0-.238-.048-.474-.143-.694a1.808 1.808 0 0 0-.41-.59 1.907 1.907 0 0 0-.614-.395 1.976 1.976 0 0 0-.726-.14 1.946 1.946 0 0 0-1.345.526c-.357.338-.559.799-.56 1.28-.002.48.196.943.551 1.284.355.341.837.534 1.341.535.25.001.496-.045.727-.135.23-.09.44-.223.618-.39a1.81 1.81 0 0 0 .413-.588c.096-.22.146-.455.147-.693ZM82 27.555c0 .353-.076.703-.224 1.03a2.684 2.684 0 0 1-.637.872c-.274.25-.599.448-.956.584a3.204 3.204 0 0 1-2.258.004 2.985 2.985 0 0 1-.958-.58 2.689 2.689 0 0 1-.641-.871 2.48 2.48 0 0 1-.226-1.028c-.001-.353.075-.703.222-1.029.148-.326.365-.623.638-.873.274-.25.599-.448.956-.584a3.201 3.201 0 0 1 2.258-.004c.358.135.684.332.958.581.274.25.492.545.64.87.15.326.227.676.227 1.028Zm-1.052.002c0-.238-.05-.473-.145-.693a1.811 1.811 0 0 0-.413-.588 1.908 1.908 0 0 0-.617-.392 1.98 1.98 0 0 0-1.454.003 1.91 1.91 0 0 0-.616.394 1.811 1.811 0 0 0-.41.589 1.74 1.74 0 0 0 .002 1.388c.096.22.236.419.412.587.177.168.387.301.618.392a1.978 1.978 0 0 0 1.453-.003c.23-.091.44-.225.616-.394a1.81 1.81 0 0 0 .411-.589c.095-.22.144-.456.143-.694ZM38.676 24.961h3.577c.042 0 .063.021.064.062.007.267 0 .505-.019.716-.004.04-.026.06-.066.06a236.69 236.69 0 0 0-2.573.005c-.028 0-.043.015-.043.043a183.22 183.22 0 0 0 .018 4.204c.002.068-.032.103-.1.105a25.9 25.9 0 0 1-.847.004c-.057 0-.085-.03-.085-.086v-5.038c0-.05.025-.075.074-.075ZM49.289 24.961c.76-.002 1.5-.002 2.224 0 .6.002 1.123.146 1.57.433a.645.645 0 0 1 .068.051c.459.39.664.91.617 1.557a1.61 1.61 0 0 1-.606 1.176c-.432.33-.953.488-1.563.478a28.488 28.488 0 0 0-1.305.005c-.03 0-.044.014-.044.043-.006.383-.008.81-.005 1.284 0 .113-.055.17-.169.172-.313.002-.584 0-.814-.005-.028 0-.043-.015-.043-.043-.006-1.688-.008-3.38-.005-5.076 0-.05.025-.075.075-.075Zm3.11 1.112a1.24 1.24 0 0 0-.671-.253c-.397-.032-.87-.04-1.42-.02-.042 0-.063.022-.063.063v1.89c0 .056.028.085.084.086a9.662 9.662 0 0 0 1.484-.042c.298-.03.536-.15.715-.36.209-.246.266-.55.171-.913a.788.788 0 0 0-.3-.45ZM54.83 24.961h.905c.049 0 .074.025.074.075-.003.55-.002 1.097.005 1.639 0 .028.014.043.043.043.527.003 1.07.004 1.627.005.243 0 .492.038.747.113.333.077.605.256.816.537.255.37.337.843.247 1.417-.057.36-.232.665-.526.914-.426.311-.94.463-1.542.456-.8-.01-1.59-.012-2.37-.005-.038 0-.057-.02-.057-.057v-5.106c0-.02.01-.03.03-.03Zm3.132 2.723a1.787 1.787 0 0 0-.95-.21c-.387.014-.773.014-1.16 0-.03 0-.043.015-.043.044-.003.629-.002 1.243.005 1.842 0 .029.014.044.043.046a7.918 7.918 0 0 0 1.605-.04c.418-.06.68-.263.79-.607.07-.2.078-.406.027-.618a.676.676 0 0 0-.317-.457ZM60.49 24.961h.86c.057 0 .086.03.085.087-.008.7-.003 1.375.015 2.024.001.028.016.044.045.046.233.017.518.02.856.01a.223.223 0 0 0 .185-.1c.472-.664.957-1.338 1.456-2.024a.1.1 0 0 1 .085-.043h1.004c.03 0 .036.012.018.036-.596.806-1.195 1.614-1.797 2.424-.027.036-.027.072-.001.109.609.852 1.224 1.71 1.846 2.57.028.04.017.06-.031.06h-1.04a.097.097 0 0 1-.083-.042 343.195 343.195 0 0 1-1.49-2.042.247.247 0 0 0-.208-.107 24.383 24.383 0 0 0-.812.004c-.028 0-.042.015-.042.044-.007.67-.009 1.356-.006 2.057 0 .057-.028.086-.086.086h-.859c-.043 0-.064-.021-.064-.064v-5.07c0-.043.021-.065.064-.065ZM72.715 24.961h3.437c.057 0 .086.03.086.086v.688c0 .043-.022.064-.065.064a236.69 236.69 0 0 0-2.572.005c-.029 0-.043.015-.043.043a649.154 649.154 0 0 0-.005 4.24c0 .049-.025.073-.073.073h-.894c-.029 0-.043-.014-.043-.043v-4.984c0-.114.057-.172.172-.172Z" fill="#6E708C"/>
</svg>
