<svg width="32" height="37" fill="none" xmlns="http://www.w3.org/2000/svg">
    <path d="M32 36.94a.06.06 0 0 1-.018.042.063.063 0 0 1-.044.018H.062a.063.063 0 0 1-.044-.018A.06.06 0 0 1 0 36.94V.06A.06.06 0 0 1 .018.018.063.063 0 0 1 .062 0h31.876c.016 0 .032.006.044.018A.06.06 0 0 1 32 .06v36.88ZM31.197.802c0-.01-.004-.02-.011-.028a.041.041 0 0 0-.029-.011H.839A.041.041 0 0 0 .81.774a.039.039 0 0 0-.012.028v35.404c0 .01.005.02.012.028a.041.041 0 0 0 .029.011h30.318c.01 0 .021-.004.029-.011a.039.039 0 0 0 .011-.028V.802Z" fill="#6E708C"/>
    <path d="M30.373 7.98a.03.03 0 0 1-.01.021.033.033 0 0 1-.022.01H1.611A.033.033 0 0 1 1.59 8a.03.03 0 0 1-.01-.022V1.587a.03.03 0 0 1 .01-.022.033.033 0 0 1 .022-.009h28.73c.008 0 .017.003.023.01a.03.03 0 0 1 .01.021V7.98ZM10.61 6.38c.354.232.77.373 1.249.422.785.082 1.456-.104 2.013-.56.47-.404.68-.947.627-1.629a1.991 1.991 0 0 0-.278-.937c-.191-.33-.494-.581-.906-.755a2.83 2.83 0 0 0-.99-.22 2.72 2.72 0 0 0-1.379.27c-.368.18-.651.435-.848.761a2.046 2.046 0 0 0-.285 1.158c.028.625.293 1.122.797 1.49ZM4.068 4.33a18.801 18.801 0 0 1-.036-1.523c0-.033-.017-.05-.051-.051a24.21 24.21 0 0 0-.822-.005c-.035 0-.052.017-.052.05v3.926c0 .034.017.05.052.05h.828c.035 0 .052-.016.052-.05v-1.61c0-.087.028-.097.085-.03.463.542.937 1.079 1.423 1.609.05.054.113.081.187.081h.946c.055 0 .064-.02.028-.06L4.896 4.736c-.027-.03-.027-.06 0-.09.555-.603 1.12-1.213 1.697-1.833.023-.024.018-.039-.017-.043a4.231 4.231 0 0 0-.984 0 .132.132 0 0 0-.086.044c-.459.516-.926 1.025-1.4 1.53-.023.024-.036.02-.038-.014Zm15.68 1.12c.008.335.01.718.006 1.15-.001.118.06.177.181.177h.725c.035 0 .052-.016.052-.05-.003-.48-.002-.906.005-1.277 0-.034.018-.05.053-.05.386.004.753-.067 1.1-.214.387-.164.64-.43.758-.8a1.042 1.042 0 0 0-.006-.773 1.204 1.204 0 0 0-.79-.742 4.304 4.304 0 0 0-.965-.12 25.025 25.025 0 0 0-1.916.025c-.446.047-.772.242-.977.585a1.077 1.077 0 0 0-.188.673c.01.447.202.789.576 1.026.394.25.839.363 1.334.34.035 0 .052.016.053.05Zm7.157.566c-.01-.289-.01-.582 0-.88.001-.046.025-.069.072-.069a99.35 99.35 0 0 0 1.482-.019c.035 0 .055-.017.06-.05.02-.13.023-.315.009-.555-.002-.033-.02-.05-.055-.051-.43-.007-.928-.009-1.495-.005-.052 0-.078-.025-.078-.076v-.805c0-.05.026-.076.077-.076h1.396c.116 0 .19-.055.219-.165.034-.128.088-.283.162-.464.014-.033.003-.049-.034-.049a77.838 77.838 0 0 0-2.707.016c-.034.001-.052.019-.053.052a158.397 158.397 0 0 0 0 3.888c.001.033.019.05.053.051.816.022 1.716.027 2.701.016.046 0 .07-.023.07-.066.007-.158.008-.345.006-.559-.001-.057-.031-.084-.09-.08-.664.046-1.245.047-1.742.002-.035-.004-.052-.022-.053-.056Z" fill="#6E708C"/>
    <path d="M10.782 4.767c.001.773.615 1.398 1.371 1.396.756-.001 1.368-.628 1.367-1.4-.002-.772-.616-1.397-1.372-1.396-.756.001-1.368.628-1.366 1.4ZM19.712 3.5c.02.34.026.703.016 1.088-.002.096-.054.146-.155.151-.33.035-.57-.051-.719-.258-.188-.26-.184-.512.014-.755.175-.216.438-.31.79-.28.034.002.051.02.054.054ZM21.262 3.5c.22.056.363.178.428.364.11.281.067.512-.13.693-.202.206-.478.27-.828.188-.007-.001-.007-.03 0-.088.003-.383-.001-.757-.012-1.12-.001-.033.015-.055.048-.065.123-.04.287-.03.494.028ZM1.683 8.539c9.578-.003 19.125-.001 28.643.006.046 0 .069.022.069.066v19.23c0 .05-.026.075-.079.075-1.507.02-2.991.029-4.452.025-2.015-.006-4.1-.006-6.257.002-.025 0-.04.012-.045.036-.046.236-.043.385.01.446.022.025.05.038.085.038l10.693.012c.03 0 .045.015.045.044a217.955 217.955 0 0 0-.008 6.88c.001.044-.021.066-.067.066-9.632.003-19.186.001-28.662-.006-.053 0-.079-.026-.079-.077-.032-2.214-.03-4.365.006-6.454a6.01 6.01 0 0 0-.006-.383c-.016-.055.006-.082.064-.082 4.895.008 9.813.01 14.752.006.12 0 .127-.026.02-.08a11.328 11.328 0 0 0-.988-.43.303.303 0 0 0-.1-.02 262.797 262.797 0 0 0-7.793 0 97.525 97.525 0 0 0-4.427 0c-.035.001-.07 0-.104-.001a9.882 9.882 0 0 0-1.34-.007c-.034.002-.052-.013-.052-.047-.007-6.302-.01-12.726-.006-19.27 0-.05.026-.075.078-.075Zm23.45 2.774a.464.464 0 0 0 .027.052c.034.008.05-.005.052-.039.019-.85.013-1.696-.02-2.536a.152.152 0 0 0-.033-.09c-.02-.026-.05-.007-.09.054a.164.164 0 0 0-.027.093c-.01.768-.01 1.536 0 2.303 0 .034.012.062.036.086.023.025.042.05.055.077ZM2.2 8.879a.08.08 0 0 0-.025-.057.084.084 0 0 0-.117 0 .08.08 0 0 0-.024.057v15.926a.08.08 0 0 0 .024.057.084.084 0 0 0 .117 0 .08.08 0 0 0 .025-.057V8.88Zm.568-.01a.073.073 0 0 0-.022-.053.078.078 0 0 0-.109 0 .073.073 0 0 0-.022.053v15.95c0 .02.008.039.022.053a.078.078 0 0 0 .109 0 .073.073 0 0 0 .022-.053V8.87Zm1.116-.012a.055.055 0 0 0-.016-.04.058.058 0 0 0-.04-.015H3.8a.058.058 0 0 0-.04.016.055.055 0 0 0-.017.039V24.83c0 .015.006.03.016.04.011.01.025.016.04.016h.027c.016 0 .03-.006.04-.016a.055.055 0 0 0 .017-.04V8.857Zm1.139.014c0-.02-.009-.04-.023-.053a.079.079 0 0 0-.11 0 .074.074 0 0 0-.023.053v2.464c0 .02.008.04.023.053a.079.079 0 0 0 .11 0 .074.074 0 0 0 .023-.053V8.871Zm.57 0a.068.068 0 0 0-.022-.05.072.072 0 0 0-.05-.02h-.013a.073.073 0 0 0-.05.02.068.068 0 0 0-.021.05v2.468c0 .019.007.036.02.05.014.012.032.02.051.02h.013a.073.073 0 0 0 .05-.02.068.068 0 0 0 .021-.05V8.871Zm.567-.003a.074.074 0 0 0-.023-.053.078.078 0 0 0-.055-.022H6.08a.08.08 0 0 0-.055.022.075.075 0 0 0-.023.053l.005 2.472a.074.074 0 0 0 .022.054.078.078 0 0 0 .055.022h.002a.08.08 0 0 0 .055-.023.076.076 0 0 0 .023-.053L6.16 8.868Zm1.127-.006a.06.06 0 0 0-.018-.043.064.064 0 0 0-.045-.018h-.029a.064.064 0 0 0-.044.018.06.06 0 0 0-.019.043v2.482a.06.06 0 0 0 .019.044.064.064 0 0 0 .044.018h.03a.064.064 0 0 0 .044-.018.06.06 0 0 0 .018-.044V8.862Zm1.699.014a.074.074 0 0 0-.023-.053.078.078 0 0 0-.055-.022h-.004a.08.08 0 0 0-.055.022.076.076 0 0 0-.023.053l.005 2.454a.073.073 0 0 0 .022.054.078.078 0 0 0 .055.022h.005a.08.08 0 0 0 .054-.023.076.076 0 0 0 .023-.053l-.004-2.454Zm1.704-.006a.073.073 0 0 0-.022-.052.077.077 0 0 0-.107 0 .073.073 0 0 0-.022.052v2.482a.072.072 0 0 0 .022.052.075.075 0 0 0 .054.022.077.077 0 0 0 .053-.022.073.073 0 0 0 .022-.052V8.87Zm.555-.003a.067.067 0 0 0-.043-.062.07.07 0 0 0-.026-.005h-.005a.071.071 0 0 0-.049.02.066.066 0 0 0-.02.048l.01 2.471a.067.067 0 0 0 .042.063.073.073 0 0 0 .027.005h.004a.072.072 0 0 0 .049-.02.069.069 0 0 0 .02-.048l-.009-2.472Zm6.255.002a.073.073 0 0 0-.023-.053.078.078 0 0 0-.125.025.074.074 0 0 0-.006.028v2.464a.073.073 0 0 0 .047.069.078.078 0 0 0 .084-.016.073.073 0 0 0 .023-.053V8.87Zm2.231-.012a.053.053 0 0 0-.017-.04.057.057 0 0 0-.04-.015h-.02a.058.058 0 0 0-.041.016.055.055 0 0 0-.017.039l.005 2.492a.053.053 0 0 0 .017.04.056.056 0 0 0 .04.016h.02c.016 0 .03-.006.04-.017a.055.055 0 0 0 .017-.039l-.004-2.492Zm.567 0a.061.061 0 0 0-.04-.058.066.066 0 0 0-.07.014.063.063 0 0 0-.019.044v2.488c0 .017.007.033.019.044a.065.065 0 0 0 .09 0 .061.061 0 0 0 .02-.044V8.857Zm.575.003a.064.064 0 0 0-.02-.046.067.067 0 0 0-.108.021.063.063 0 0 0-.005.025l-.005 2.494a.067.067 0 0 0 .128.025.063.063 0 0 0 .005-.025l.005-2.494Zm.564-.004a.061.061 0 0 0-.019-.044.065.065 0 0 0-.07-.014.065.065 0 0 0-.035.034.06.06 0 0 0-.005.024v2.504c0 .017.007.033.02.044a.065.065 0 0 0 .104-.02.062.062 0 0 0 .005-.024V8.856Zm.568 0a.061.061 0 0 0-.04-.058.066.066 0 0 0-.07.014.063.063 0 0 0-.018.044v2.492c0 .017.007.033.019.044a.065.065 0 0 0 .09 0 .061.061 0 0 0 .02-.044V8.856Zm2.254 0a.061.061 0 0 0-.019-.043.064.064 0 0 0-.045-.018.066.066 0 0 0-.046.018.061.061 0 0 0-.019.044v2.488c0 .017.007.033.02.044a.065.065 0 0 0 .09 0 .062.062 0 0 0 .019-.044V8.857Zm1.158.012a.07.07 0 0 0-.022-.05.075.075 0 0 0-.052-.021h-.004a.075.075 0 0 0-.052.02.07.07 0 0 0-.022.051v5.077c0 .02.008.037.022.05.014.014.032.022.052.022h.004c.02 0 .038-.008.052-.021a.07.07 0 0 0 .022-.05V8.867Zm.55-.014a.062.062 0 0 0-.02-.044.065.065 0 0 0-.09 0 .062.062 0 0 0-.019.044v5.097c0 .017.007.033.019.044a.065.065 0 0 0 .09 0 .062.062 0 0 0 .02-.044V8.854Zm.572.003a.052.052 0 0 0-.016-.037.055.055 0 0 0-.038-.015h-.027a.055.055 0 0 0-.038.015.052.052 0 0 0-.015.037v5.107c0 .014.005.027.015.037.01.01.024.016.038.016h.027a.055.055 0 0 0 .038-.016.052.052 0 0 0 .016-.037V8.857Zm-23.223.025a.064.064 0 0 0-.02-.045.067.067 0 0 0-.046-.02h-.025a.067.067 0 0 0-.047.02.064.064 0 0 0-.02.045v15.942c0 .017.007.034.02.046.012.012.03.019.047.019h.025a.067.067 0 0 0 .046-.02.063.063 0 0 0 .02-.045V8.882Zm1.137 0a.065.065 0 0 0-.02-.048.07.07 0 0 0-.048-.02h-.019a.07.07 0 0 0-.048.02.066.066 0 0 0-.02.047v2.46c0 .018.007.035.02.047a.07.07 0 0 0 .048.02h.019a.07.07 0 0 0 .048-.02.066.066 0 0 0 .02-.047v-2.46Zm2.278.006a.073.073 0 0 0-.022-.053.078.078 0 0 0-.054-.021h-.002c-.02 0-.04.008-.055.021a.073.073 0 0 0-.022.053v2.446c0 .02.008.039.022.053a.078.078 0 0 0 .055.022h.002c.02 0 .04-.008.054-.022a.073.073 0 0 0 .022-.053V8.888Zm1.14-.013a.06.06 0 0 0-.019-.043.063.063 0 0 0-.044-.018H7.78a.064.064 0 0 0-.045.018.06.06 0 0 0-.019.043l-.004 2.466a.06.06 0 0 0 .018.043.064.064 0 0 0 .045.019h.027a.064.064 0 0 0 .058-.038.06.06 0 0 0 .005-.024l.005-2.466Zm.544.007a.068.068 0 0 0-.02-.049.073.073 0 0 0-.051-.02H8.33a.073.073 0 0 0-.05.02.068.068 0 0 0-.021.05v2.465c0 .019.007.036.02.05.014.012.032.02.051.02h.013a.072.072 0 0 0 .05-.02.068.068 0 0 0 .021-.05V8.882Zm1.14-.008a.054.054 0 0 0-.016-.039.057.057 0 0 0-.04-.016h-.031a.058.058 0 0 0-.04.016.055.055 0 0 0-.017.039l-.005 2.476a.054.054 0 0 0 .017.04.058.058 0 0 0 .04.016h.031c.015 0 .03-.006.04-.017a.055.055 0 0 0 .017-.039l.005-2.476Zm.568.007a.068.068 0 0 0-.021-.049.073.073 0 0 0-.05-.02h-.013a.073.073 0 0 0-.05.02.068.068 0 0 0-.021.05v2.47c0 .018.007.035.02.048.014.013.032.02.051.02h.012a.073.073 0 0 0 .051-.02.069.069 0 0 0 .02-.049v-2.47Zm1.71.004a.07.07 0 0 0-.044-.065.074.074 0 0 0-.027-.005h-.01a.074.074 0 0 0-.052.02.07.07 0 0 0-.021.05l-.005 2.452a.07.07 0 0 0 .045.065.073.073 0 0 0 .027.006h.01a.075.075 0 0 0 .052-.02.07.07 0 0 0 .021-.05l.005-2.453Zm.541-.04a.03.03 0 0 0-.009-.022.031.031 0 0 0-.022-.008h-.066a.031.031 0 0 0-.022.008.03.03 0 0 0-.01.022v2.53a.03.03 0 0 0 .01.022.032.032 0 0 0 .022.009h.066a.032.032 0 0 0 .022-.01.03.03 0 0 0 .01-.02V8.844Zm1.087.044c.032-.043.021-.067-.034-.071a1.97 1.97 0 0 0-.295 0 .12.12 0 0 0-.085.042c-.218.248-.276.542-.174.88.067.22.128.426.182.619a.321.321 0 0 1 .011.098c-.012.333-.152.624-.42.876-.033.032-.027.051.018.059.237.024.402-.027.494-.154.228-.312.33-.624.305-.938a4.805 4.805 0 0 0-.181-.578c-.103-.27-.044-.547.179-.833Zm.461.021a.99.99 0 0 0-.123.912c.107.235.158.47.156.705-.004.3-.142.577-.415.83-.06.06-.048.081.037.064.08-.018.18-.023.3-.016a.11.11 0 0 0 .088-.034c.259-.254.393-.544.404-.87-.01-.236-.07-.48-.181-.73-.138-.31-.074-.609.192-.898.023-.025.018-.043-.015-.053a.683.683 0 0 0-.39.015 1.44 1.44 0 0 0-.053.075Zm.915-.025c-.219.343-.239.733-.06 1.17.177.432.086.843-.272 1.233-.056.063-.042.102.042.119.228.045.376-.017.444-.186a.385.385 0 0 1 .05-.087c.26-.343.302-.728.124-1.155-.165-.395-.133-.756.096-1.084.035-.047.023-.074-.038-.078a1.789 1.789 0 0 0-.268 0 .149.149 0 0 0-.118.068Zm.898 0c-.24.28-.287.59-.143.931.233.55.16 1.056-.218 1.518-.056.066-.04.095.047.088l.276-.027a.133.133 0 0 0 .084-.044c.35-.391.463-.792.337-1.204a.457.457 0 0 0-.04-.092 1.122 1.122 0 0 1-.124-.806.694.694 0 0 1 .216-.374c.025-.023.02-.039-.013-.047-.206-.057-.347-.037-.422.057Zm.88.025a1.066 1.066 0 0 0-.195.604c.046.22.104.423.175.61.154.404.033.824-.364 1.258-.039.045-.03.058.027.039a.54.54 0 0 1 .212-.013.262.262 0 0 0 .235-.095c.285-.303.404-.632.356-.988a2.096 2.096 0 0 0-.215-.682.367.367 0 0 1-.022-.098c-.02-.23.06-.447.24-.653.027-.03.02-.048-.02-.054-.234-.028-.377-.004-.429.072Zm1.43-.03a.065.065 0 0 0-.02-.047.068.068 0 0 0-.047-.02h-.02a.068.068 0 0 0-.048.02.065.065 0 0 0-.02.046v2.462c0 .018.007.034.02.046.012.013.03.02.047.02h.02a.068.068 0 0 0 .049-.02.064.064 0 0 0 .02-.046V8.88Zm.57-.013a.052.052 0 0 0-.016-.037.055.055 0 0 0-.038-.015h-.048a.055.055 0 0 0-.038.015.052.052 0 0 0-.016.037v2.486c0 .014.006.027.016.037.01.01.024.016.038.016h.048a.055.055 0 0 0 .038-.016.052.052 0 0 0 .016-.037V8.867Zm.57.02a.073.073 0 0 0-.023-.053.078.078 0 0 0-.054-.021h-.002c-.02 0-.04.007-.055.021a.073.073 0 0 0-.022.053v2.446c0 .02.008.039.023.053a.078.078 0 0 0 .054.022h.002c.02 0 .04-.008.054-.022a.073.073 0 0 0 .022-.053V8.887Zm3.389-.006a.06.06 0 0 0-.019-.043.064.064 0 0 0-.044-.018h-.023a.065.065 0 0 0-.045.018.061.061 0 0 0-.018.043l.004 2.466a.06.06 0 0 0 .019.044.065.065 0 0 0 .044.018h.023a.065.065 0 0 0 .045-.019.062.062 0 0 0 .018-.043l-.004-2.466Zm.571.007a.072.072 0 0 0-.022-.052.077.077 0 0 0-.053-.021h-.004c-.02 0-.04.007-.054.021a.073.073 0 0 0-.022.052v2.448c0 .02.008.038.022.052a.077.077 0 0 0 .054.022h.004c.02 0 .04-.008.053-.022a.072.072 0 0 0 .022-.052V8.888Zm.57-.012a.06.06 0 0 0-.018-.043.063.063 0 0 0-.044-.017h-.031a.064.064 0 0 0-.044.017.06.06 0 0 0-.018.043v2.472a.059.059 0 0 0 .018.043.061.061 0 0 0 .044.018h.031a.063.063 0 0 0 .044-.018.06.06 0 0 0 .018-.043V8.876Zm1.12-.011a.049.049 0 0 0-.031-.046.052.052 0 0 0-.02-.003h-.041a.052.052 0 0 0-.036.014.049.049 0 0 0-.015.035l.014 2.487c0 .013.005.025.015.034.01.01.022.015.036.015h.041a.051.051 0 0 0 .047-.03.048.048 0 0 0 .003-.02l-.013-2.486Zm2.272.025c0-.02-.008-.04-.023-.053a.08.08 0 0 0-.11 0 .074.074 0 0 0-.023.053v5.06c0 .02.008.039.023.053a.079.079 0 0 0 .11 0 .074.074 0 0 0 .023-.054V8.89Zm.56-.003a.068.068 0 0 0-.02-.05.073.073 0 0 0-.051-.02h-.005a.074.074 0 0 0-.05.021.069.069 0 0 0-.02.05l.017 5.06a.067.067 0 0 0 .021.05.073.073 0 0 0 .051.02h.004a.073.073 0 0 0 .05-.02.069.069 0 0 0 .021-.05l-.018-5.061Zm.579.008c0-.02-.008-.04-.023-.054a.08.08 0 0 0-.056-.022h-.002a.08.08 0 0 0-.056.022.076.076 0 0 0-.023.054v5.047c0 .02.009.04.023.054a.08.08 0 0 0 .056.023h.002a.08.08 0 0 0 .056-.023.075.075 0 0 0 .023-.054V8.895Zm.57-.005c0-.02-.009-.04-.023-.053a.079.079 0 0 0-.11 0 .074.074 0 0 0-.023.053v5.06c0 .02.008.039.023.053a.079.079 0 0 0 .11 0 .074.074 0 0 0 .022-.054V8.89Zm.569-.014a.062.062 0 0 0-.02-.045.066.066 0 0 0-.045-.018h-.025a.066.066 0 0 0-.046.018.063.063 0 0 0-.02.045v5.081a.066.066 0 0 0 .065.063h.026a.066.066 0 0 0 .046-.018.062.062 0 0 0 .019-.045v-5.08Zm.554.012a.066.066 0 0 0-.02-.048.07.07 0 0 0-.05-.02h-.016a.07.07 0 0 0-.049.02.066.066 0 0 0-.02.048V24.82c0 .018.007.035.02.048a.07.07 0 0 0 .05.02h.016a.07.07 0 0 0 .049-.02.066.066 0 0 0 .02-.048V8.888Zm-11.007 2.148c.03 0 .045-.002.045-.006.02-.67.02-1.378 0-2.122 0-.038-.02-.06-.058-.064-.13-.016-.197.041-.2.173-.023.695-.02 1.39.006 2.083.002.061.07.04.207-.064Zm1.04.083c0 .062.03.102.092.119.035.012.053-.007.052-.057-.006-.738-.006-1.476 0-2.214 0-.068-.03-.087-.093-.056-.122.058-.158.158-.107.301.045.113.069.224.071.333.008.444.003.968-.014 1.574Zm1.794.914c-.01-.033.027-.049.11-.047.907.021 1.814.021 2.72 0 .124-.002.168-.047.13-.136a.099.099 0 0 0-.07-.058 4.291 4.291 0 0 0-.604-.032c-5.657.01-11.3.01-16.932 0-.918 0-1.859.009-2.822.025-.08.001-.122.04-.129.116-.013.146-.01.26.012.34.009.031.03.048.065.048.806.022 1.643.03 2.511.024 2.502-.016 4.988-.016 7.457 0a.649.649 0 0 0 .102-.008c.234-.034.468-.034.701 0a.575.575 0 0 0 .103.008c2.5-.045 5.02-.054 7.56-.025.671.008 1.319.009 1.941.003a.211.211 0 0 0 .097-.029c.048-.029.042-.08-.02-.155a.1.1 0 0 0-.083-.038c-.922.024-1.85.028-2.784.013-.034 0-.056-.017-.065-.05ZM7.223 23.793c-.007.049.01.082.052.1-.009.09.034.165.13.227a.26.26 0 0 0 .047.147.252.252 0 0 0 .16.205.682.682 0 0 0 .03.097.324.324 0 0 0 .15.23c-.007.063.01.112.048.147.037.087.09.155.16.205-.008.062-.001.102.022.122a.861.861 0 0 0 .104.158.112.112 0 0 0 .087.037c.44-.01.886-.007 1.34.006a.113.113 0 0 0 .087-.036c.046-.046.041-.118-.013-.215a.155.155 0 0 0 0-.075.24.24 0 0 0 0-.252.155.155 0 0 0 0-.076.437.437 0 0 0 .03-.176c-.011-2.885-.011-5.77 0-8.656 0-.067.034-.101.103-.101h5.46c.102 0 .2-.02.293-.063 1.274-.564 2.44-1.063 3.5-1.496a.366.366 0 0 1 .1-.026c.109-.013.22-.02.333-.02.067 0 .1.033.1.098-.001 2.272 0 4.527.005 6.766a.156.156 0 0 0 0 .076.981.981 0 0 0 0 .201.275.275 0 0 0 0 .1c-.03.157-.005.242.074.256-.038.036-.054.068-.048.097-.034.052-.043.12-.026.201a.385.385 0 0 0 0 .126c-.048.098-.04.175.022.23a.554.554 0 0 0 .004.097c-.069.149-.044.226.073.23a.454.454 0 0 0-.073.098c-.05.083-.059.159-.026.226-.013.051-.004.093.026.126-.047.081-.049.158-.004.23a.554.554 0 0 0 .004.097c-.05.11-.043.195.022.256-.026.03-.033.063-.022.096-.042.091-.044.16-.004.206v.143c-.062.095-.052.172.03.23-.004.023-.006.047-.004.072-.076.086-.076.173 0 .26a.321.321 0 0 0-.022.096c-.043.09-.043.166 0 .226a.275.275 0 0 0 0 .101c-.071.117-.064.202.022.256v.067c-.07.08-.077.174-.022.28a.275.275 0 0 0 0 .102c-.05.1-.043.169.022.205a.26.26 0 0 0-.022.122c-.062.099-.063.166-.004.201.083.05.214.06.394.033a.162.162 0 0 0 .093-.032c.052-.04.09-.1.112-.177.024-.02.031-.06.022-.122.132-.017.21-.1.233-.252a.13.13 0 0 0 .048-.08c.096-.078.147-.153.155-.226.019-.034.037-.074.056-.121.105-.068.155-.145.151-.23a.11.11 0 0 0 .03-.098c.095-.036.154-.113.177-.23.028-.031.038-.072.03-.122.121-.049.18-.126.177-.23a.858.858 0 0 0 .03-.097c.114-.074.165-.159.152-.256l.082-.096a.302.302 0 0 0 .103-.227c.043-.018.06-.051.052-.1a.289.289 0 0 0 .13-.252.13.13 0 0 0 .047-.08c.08-.07.124-.145.13-.226a.187.187 0 0 1 .03-.122c.084-.062.126-.138.125-.23a.352.352 0 0 0 .051-.101c.081-.075.116-.159.104-.252 0-.037.01-.07.03-.096.1-.065.142-.142.125-.23a.348.348 0 0 0 .052-.101c.082-.072.116-.147.104-.227a.349.349 0 0 0 .052-.1.483.483 0 0 0 .081-.248.761.761 0 0 1 .026-.1.21.21 0 0 0 .108-.181c.022-.013.03-.046.022-.097.066-.08.1-.156.1-.23a.323.323 0 0 0 .03-.122c.065-.05.098-.127.099-.23a.45.45 0 0 0 .004-.097c.081-.055.123-.14.125-.256a.31.31 0 0 0 .004-.071c.082-.05.116-.125.104-.227.042-.035.059-.085.051-.15a.286.286 0 0 0 .048-.231.11.11 0 0 0 .03-.097c.07-.041.103-.11.1-.205a.225.225 0 0 0 .025-.126.288.288 0 0 0 .06-.201.214.214 0 0 0 .044-.151.26.26 0 0 0 .052-.227.638.638 0 0 0 .03-.096c.063-.05.088-.126.073-.23a.283.283 0 0 0 .026-.102.348.348 0 0 0 .052-.251.275.275 0 0 0 0-.1c.087-.085.114-.162.082-.231.027-.033.034-.073.021-.122.056-.053.074-.129.052-.227a.143.143 0 0 0 .03-.122c.066-.07.075-.14.026-.209v-.092c.108-.077.134-.163.078-.26a.32.32 0 0 0 .022-.097c.087-.091.105-.168.056-.23.026-.032.034-.073.021-.122.064-.104.065-.18.005-.23a.113.113 0 0 0 .025-.093c.076-.04.1-.117.074-.23a.275.275 0 0 0 0-.101.479.479 0 0 0 .052-.252c.011-.036.003-.07-.026-.1a.23.23 0 0 0 .052-.202c.03-.033.039-.075.026-.126a.384.384 0 0 0 .025-.226.553.553 0 0 0 0-.151.163.163 0 0 0 0-.202c.03-.033.04-.074.026-.125a.2.2 0 0 0 0-.227.443.443 0 0 0 .004-.096c.063-.087.07-.164.022-.231a.45.45 0 0 0 .004-.097c.06-.1.067-.185.022-.255a.274.274 0 0 0 0-.101c.047-.081.048-.158.004-.23v-.093c.09-.122.072-.182-.052-.18-3.731.03-7.425.039-11.08.025a1.802 1.802 0 0 0-.311-.025c-2.77-.008-5.54-.008-8.31 0a.253.253 0 0 0-.13.029.42.42 0 0 0-.13 0 .65.65 0 0 0-.41-.014c-.033.01-.049.033-.048.066a26.732 26.732 0 0 0 2.912 11.022c.04.08.085.146.135.2Zm21.614-8.988a8.98 8.98 0 0 1-.095.075c0-.033-.01-.05-.03-.05-1.062.007-2.15.007-3.262 0-.129-.001-.157-.03-.085-.088a.14.14 0 0 1 .091-.032l3.224-.012a.115.115 0 0 0 .087-.037c.041-.044.05-.12.027-.229-.007-.033-.028-.049-.062-.049-1.223-.007-2.485-.01-3.786-.006-.053 0-.083.026-.088.079-.04.428-.1.857-.179 1.286-.011.063.016.095.081.095h2.355c.035 0 .049.016.044.05a8.989 8.989 0 0 1-.81 2.51 6.579 6.579 0 0 1-1.385 1.875 6.246 6.246 0 0 1-1.798 1.188.304.304 0 0 0-.164.174c-.189.494-.401.97-.637 1.425a1.04 1.04 0 0 0-.1.247.734.734 0 0 0-.135.208c-.028.068-.006.09.066.07a9.607 9.607 0 0 0 3.688-2.066 9.859 9.859 0 0 0 2.433-3.347 9.93 9.93 0 0 0 .866-3.72c.002-.06-.028-.091-.089-.096-.173-.014-.248.052-.227.198a.519.519 0 0 1-.03.252Zm-9.57 14.218c-.031.046-.082.066-.154.06a.1.1 0 0 0-.086.033c-.044.024 0 .043.131.058.161.018.238-.024.23-.126.008-4.85.008-9.705-.003-14.564a.075.075 0 0 0-.046-.073c-.098-.047-.13-.006-.097.125a.342.342 0 0 1 .013.099 766.03 766.03 0 0 0 .007 6.285c-.009.56-.018 1.18-.026 1.862a182.21 182.21 0 0 0 .03 6.24Zm-3.664-1.214c1.072.464 2.125.915 3.16 1.352.074.03.11.006.11-.07.004-4.86.002-9.686-.006-14.481 0-.034-.015-.044-.047-.03-1.05.446-2.132.922-3.248 1.428a.11.11 0 0 0-.07.107 2337.438 2337.438 0 0 1 0 11.543c0 .072.034.122.101.15Zm3.601-12.207a.035.035 0 0 0-.01-.025.037.037 0 0 0-.026-.01h-.009a.036.036 0 0 0-.033.022.035.035 0 0 0-.003.013l.013 2.307c0 .01.004.019.01.025.007.007.017.01.026.01h.008a.037.037 0 0 0 .026-.01.036.036 0 0 0 .01-.025l-.012-2.307Zm10.124.375a1.442 1.442 0 0 0-.098.514c-.005 2.8-.002 5.583.006 8.349 0 .033.017.054.05.062.066.015.099-.012.099-.082v-8.832c0-.11-.019-.112-.057-.01ZM9.842 24.444c-.005 1.066.004 2.112.027 3.14 0 .033.018.05.053.05 1.79.03 3.582.039 5.373.025.074 0 .092-.033.053-.096a.087.087 0 0 0-.08-.043 822.35 822.35 0 0 0-5.171-.006c-.069 0-.104-.034-.104-.1-.002-3.308 0-6.596.005-9.865.013-.336.02-.68.021-1.032 0-.033.018-.05.052-.05 1.742.003 3.466.001 5.172-.006.034 0 .066-.01.094-.03.05-.033.044-.064-.015-.093a.226.226 0 0 0-.099-.022c-1.742.003-3.51.001-5.305-.006-.035 0-.053.017-.055.05-.016.273-.024.569-.025.887-.003 2.446-.002 4.845.004 7.197ZM24.81 20.02c.03-.095.045-.206.045-.333l-.006-3.24a.084.084 0 0 0-.044-.077c-.07-.05-.106-.019-.105.096a280.2 280.2 0 0 1 .006 3.567c0 .034.017.051.052.052.018 0 .035-.022.052-.065Zm.453-3.51c.013.966.015 1.931.006 2.896 0 .137.033.145.098.023.02-.085.03-.184.032-.296.012-1.004.012-1.902.002-2.692a.088.088 0 0 0-.047-.077c-.062-.04-.093.008-.09.146Zm.61 2.134a.663.663 0 0 0 .096-.366 37.74 37.74 0 0 1 0-1.812c0-.134-.046-.15-.137-.05a.59.59 0 0 1 .007.125c.008.703.01 1.402.006 2.095.001.03.01.033.028.008Zm.585-1.208c.01 0 .019-.014.028-.041a.742.742 0 0 0 .026-.119 3.922 3.922 0 0 0 .015-.776.743.743 0 0 0-.02-.119c-.009-.027-.018-.042-.027-.042-.01 0-.02.014-.029.041a.742.742 0 0 0-.025.119c-.008.05-.014.11-.02.177a3.922 3.922 0 0 0 .005.598.743.743 0 0 0 .02.12c.009.027.018.042.027.042ZM4.433 24.8c.016-2.387.023-4.796.02-7.228 0-.387-.035-.74-.104-1.057-.03-.04-.045-.056-.045-.044-.031 2.79-.031 5.562 0 8.317a.18.18 0 0 0 .026.094c.03.053.058.058.08.014a.21.21 0 0 0 .023-.096Zm10.886-7.76c0-.02-.009-.039-.023-.053a.078.078 0 0 0-.055-.022h-5.008c-.02 0-.04.008-.055.022a.074.074 0 0 0 0 .107.08.08 0 0 0 .055.022h5.008c.02 0 .04-.008.055-.022a.075.075 0 0 0 .023-.053Zm.003.563a.071.071 0 0 0-.022-.052.076.076 0 0 0-.054-.021l-4.76-.008a.08.08 0 0 0-.053.021.073.073 0 0 0-.022.052.072.072 0 0 0 .022.052.077.077 0 0 0 .053.022l4.76.008a.075.075 0 0 0 .076-.074Zm8.934.369c-.004-.091-.025-.095-.061-.011-.052.127-.083.333-.091.617a21.7 21.7 0 0 0 .02 1.894c.006.118.04.145.1.081a.131.131 0 0 0 .037-.087c.038-.742.036-1.574-.005-2.494Zm4.476-.003a.822.822 0 0 0-.072.333c.017 2.147.017 4.294 0 6.442 0 .083.01.13.03.143.083.03.125.002.125-.086V17.95c0-.108-.027-.102-.083.02Zm-23.845.989c-.006 1.937-.012 3.866-.02 5.786 0 .125.031.176.096.153.04-.012.06-.038.06-.079v-5.485c0-.15-.023-.28-.068-.387-.044-.11-.067-.105-.068.012Zm-.106.168c0-.003 0-.007-.002-.01a.026.026 0 0 0-.024-.015h-.072c-.004 0-.007 0-.01.002a.027.027 0 0 0-.009.005.024.024 0 0 0-.007.018l.009 4.99a.025.025 0 0 0 .007.019.026.026 0 0 0 .019.007h.072a.026.026 0 0 0 .024-.016.025.025 0 0 0 .002-.01l-.01-4.99Zm23.33.126a98.588 98.588 0 0 0-.014 5.587c0 .033.016.055.05.064.066.02.099-.025.099-.134 0-1.878-.003-3.738-.006-5.58 0-.034-.018-.051-.052-.052-.05-.002-.076.036-.078.115Zm-4.454.654c-.11.261-.139.576-.085.944a.098.098 0 0 0 .052.075c.055.023.086-.013.091-.107.02-.345.018-.646-.005-.903-.002-.084-.02-.087-.053-.009Zm3.884 4.912c0 .04.02.066.06.076.05.015.076-.019.075-.1a532.14 532.14 0 0 1 0-4.694c0-.126-.028-.132-.084-.018a1.493 1.493 0 0 0-.071.535c.034 1.42.04 2.82.02 4.201ZM5.57 20.786c-.002-.094-.048-.157-.14-.188.004.003.006.018.006.045-.01 1.408-.007 2.798.006 4.171 0 .034.012.063.036.087.024.023.047.022.07-.001a.115.115 0 0 0 .037-.086c.017-1.304.012-2.647-.015-4.028Zm21.537.071a.027.027 0 0 0-.008-.019.029.029 0 0 0-.02-.008h-.1a.028.028 0 0 0-.02.008.027.027 0 0 0-.008.02v4.02c0 .007.003.014.009.019a.028.028 0 0 0 .02.008h.099a.029.029 0 0 0 .02-.008.027.027 0 0 0 .008-.02v-4.02Zm-.566.615a.025.025 0 0 0-.007-.018.026.026 0 0 0-.019-.008h-.078a.026.026 0 0 0-.026.025l-.006 3.399a.025.025 0 0 0 .016.023.026.026 0 0 0 .01.002h.078a.026.026 0 0 0 .018-.007.025.025 0 0 0 .008-.018l.006-3.398Zm-.576.573a.062.062 0 0 0-.018-.044.065.065 0 0 0-.091 0 .062.062 0 0 0-.019.044v2.784c0 .017.007.033.019.044a.065.065 0 0 0 .09 0 .062.062 0 0 0 .02-.044v-2.784ZM6.043 24.898c.077.021.117.004.12-.052.038-.804.038-1.61 0-2.416-.002-.165-.015-.258-.039-.28-.078-.117-.117-.105-.117.034v2.662c0 .024.012.042.036.052Zm19.368-2.404a.027.027 0 0 0-.008-.02.03.03 0 0 0-.02-.008h-.085a.03.03 0 0 0-.02.008.027.027 0 0 0-.007.01.027.027 0 0 0-.003.01l-.004 2.367.002.011a.028.028 0 0 0 .016.016.03.03 0 0 0 .011.002h.085c.004 0 .008 0 .011-.002a.029.029 0 0 0 .01-.006.029.029 0 0 0 .008-.02l.004-2.368Zm-.56.443a.072.072 0 0 0-.022-.052.077.077 0 0 0-.107 0 .072.072 0 0 0-.022.052v1.888c0 .02.008.039.022.052a.077.077 0 0 0 .107 0 .072.072 0 0 0 .022-.052v-1.888Zm-.563.336a.078.078 0 0 0-.023-.057.083.083 0 0 0-.134.025.08.08 0 0 0-.006.03l-.012 1.539a.078.078 0 0 0 .024.056.08.08 0 0 0 .058.024.082.082 0 0 0 .082-.08l.011-1.537ZM6.713 24.776l.018-.836a1.981 1.981 0 0 0-.077-.63c-.045-.114-.07-.112-.072.007a8.752 8.752 0 0 0 0 1.497c.008.097.04.114.096.05a.136.136 0 0 0 .035-.088Zm17.003-1.212a.071.071 0 0 0-.022-.051.076.076 0 0 0-.052-.021h-.007a.076.076 0 0 0-.052.02.07.07 0 0 0-.022.052v1.26a.07.07 0 0 0 .022.052.074.074 0 0 0 .052.02h.007a.071.071 0 0 0 .075-.072v-1.26Zm-.557.235a.053.053 0 0 0-.016-.038.055.055 0 0 0-.039-.015h-.058a.056.056 0 0 0-.039.015.053.053 0 0 0-.016.037l-.006 1.037a.054.054 0 0 0 .055.054h.058a.055.055 0 0 0 .039-.015.052.052 0 0 0 .016-.038l.006-1.037Zm-.667 1.12c.012.001.025-.012.037-.036a.506.506 0 0 0 .033-.108c.01-.046.019-.101.025-.162a2.496 2.496 0 0 0-.004-.547c-.015-.094-.037-.148-.062-.148-.025-.001-.05.051-.07.145a2.05 2.05 0 0 0-.038.353c-.003.133.003.26.017.355.015.095.038.148.062.149Zm-.554-.006c.01 0 .02-.01.03-.031.01-.02.018-.05.025-.089.007-.038.013-.083.017-.132a1.966 1.966 0 0 0-.02-.444c-.015-.077-.035-.12-.056-.12-.01 0-.02.011-.03.032a.4.4 0 0 0-.025.088 1.965 1.965 0 0 0 .003.576.398.398 0 0 0 .026.09c.01.02.02.03.03.03Zm-14.721.01c.018 0 .035-.029.046-.08a.948.948 0 0 0-.016-.377.211.211 0 0 0-.025-.056c-.009-.013-.018-.02-.027-.02-.01.001-.019.008-.027.022a.21.21 0 0 0-.02.059.947.947 0 0 0 .016.377.212.212 0 0 0 .025.057c.009.013.018.02.028.019Zm-5.333.244c-.039.16-.042.271-.01.332.014.03.04.045.074.045 1.913.008 3.849.01 5.806.006.106 0 .125-.04.058-.12a.946.946 0 0 1-.162-.254c-.013-.032-.036-.048-.07-.048-1.845-.007-3.724-.009-5.64-.006-.03 0-.05.015-.056.045Zm19.194.383c-.046.026-.065.058-.055.097-.14.024-.176.063-.111.117a.14.14 0 0 0 .09.032c.982.007 2.038.009 3.168.005.031 0 .06.01.086.03.032.026.027.054-.015.085a.142.142 0 0 1-.092.03 90.062 90.062 0 0 0-3.302-.012.225.225 0 0 0-.098.022c-.084.04-.087.076-.008.105a.287.287 0 0 0 .1.018c3.114-.017 6.193-.027 9.237-.032.034 0 .053-.016.056-.05a2.647 2.647 0 0 0-.002-.346.275.275 0 0 0 0-.1 7.46 7.46 0 0 0 .004-.393c0-.024-.013-.036-.037-.036-2.952-.003-5.872-.001-8.76.006a.225.225 0 0 0-.098.023c-.084.04-.087.075-.008.104a.269.269 0 0 0 .1.017 54.425 54.425 0 0 1 3.605.02c.052.002.06.024.022.064a.111.111 0 0 1-.086.037c-.824.01-1.608.003-2.35-.019a22.381 22.381 0 0 0-1.346 0c-.123.001-.156.06-.1.176Zm-12.664.256c0 .068.025.117.074.147.019.09.08.158.185.205-.008.061-.001.102.022.122.07.184.164.256.278.215a.716.716 0 0 1 .335-.033c.292.04.398-.03.319-.207a.274.274 0 0 0 0-.1c.044-.068.044-.152 0-.253a.155.155 0 0 0 0-.075c.04-.105.05-.173.027-.204a.1.1 0 0 0-.081-.045c-.394-.021-.804-.02-1.23.003-.116.007-.092.082.071.225Zm10.734 2.241c-.005.07-.001.11.01.115.03.016.046.008.045-.026-.02-.778-.018-1.573.007-2.385.005-.153-.028-.205-.098-.155a.117.117 0 0 0-.068.106c-.036.897-.023 1.66.037 2.29.003.028.011.038.026.03.03-.016.044-.008.041.026ZM7.851 25.67c-1.981-.007-3.944-.007-5.89 0a.085.085 0 0 0-.077.043c-.03.053-.037.141-.02.265.007.05.037.075.089.075h6.12c.065 0 .086-.029.063-.087-.073-.198-.168-.296-.285-.296Zm15.191.534a28.748 28.748 0 0 0-2.388-.008.166.166 0 0 0-.093.033c-.048.061-.047.093.002.095a36.99 36.99 0 0 0 2.73.006c.115 0 .137.043.067.131-.02.019-.092.026-.215.02a39.745 39.745 0 0 0-2.66-.02.213.213 0 0 0-.097.025c-.064.059-.049.088.045.09 3.199.033 6.399.035 9.6.006.066 0 .1-.032.102-.097.004-.106.004-.18-.001-.224-.003-.034-.022-.05-.056-.05-2.258.007-4.535.005-6.829-.007a2.642 2.642 0 0 1-.207 0Zm-14.54.276a1.027 1.027 0 0 0-.179-.241.131.131 0 0 0-.09-.035c-2.096-.003-4.191 0-6.285.006a.09.09 0 0 0-.08.043c-.016.024-.017.09 0 .2.012.086.062.129.151.129H8.44c.08 0 .1-.034.061-.102Zm6.848-.129a.065.065 0 0 0-.02-.047.07.07 0 0 0-.049-.02h-4.813a.07.07 0 0 0-.049.02.065.065 0 0 0 0 .094.07.07 0 0 0 .049.02h4.813a.07.07 0 0 0 .048-.02.065.065 0 0 0 .02-.047Zm4.585.274a.096.096 0 0 0-.03-.045.152.152 0 0 0-.056-.03.243.243 0 0 0-.074-.009.311.311 0 0 0-.08.012.275.275 0 0 0-.13.078c-.03.035-.042.073-.032.108a.095.095 0 0 0 .03.044.152.152 0 0 0 .057.03c.022.006.047.01.073.01a.314.314 0 0 0 .08-.013.274.274 0 0 0 .13-.078c.031-.035.042-.073.032-.107Zm-10.822.187c.019.063.043.103.074.122.065.206.196.281.392.227.098-.027.114-.103.048-.227a.385.385 0 0 0 0-.126c.049-.083.059-.143.029-.18a.105.105 0 0 0-.083-.042 13.436 13.436 0 0 0-.59-.004c-.057 0-.07.024-.038.07a.83.83 0 0 0 .168.16Zm12.712.277c.258.025.508.033.751.023a.135.135 0 0 1 .092.03c.037.03.023.06-.04.09a254.23 254.23 0 0 0-2.719-.021.186.186 0 0 0-.096.026c-.068.04-.077.073-.027.1.03.017.063.025.097.026.552.01 1.139.01 1.76-.001.11-.002.145.025.103.08a.1.1 0 0 1-.082.04c-.61.007-1.262.01-1.956.006a.119.119 0 0 0-.117.071c-.05.071-.014.106.111.105 3.418-.032 6.835-.032 10.253 0 .09 0 .15-.067.18-.201.033-.138.016-.223-.05-.256.075-.054.094-.103.055-.147a9.397 9.397 0 0 0-.008-.296c-.002-.034-.02-.05-.054-.05-2.74-.014-5.508-.016-8.305-.006a23.56 23.56 0 0 1-1.384-.04.26.26 0 0 0-.237.105c-.021.039.019.06.12.06.758.01 1.498.012 2.22.007.035 0 .066.01.094.029.05.034.044.065-.015.093a.24.24 0 0 1-.099.023c-.73.021-1.472.013-2.226-.026-.136-.006-.213 0-.23.02-.046.088-.018.13.084.126.576-.024 1.15-.03 1.725-.016Zm-19.857.025a.84.84 0 0 1-.03.097c-.073.046-.09.177-.054.395.007.038.03.058.071.058h7.34c.06 0 .072-.024.036-.07a9.77 9.77 0 0 0-.25-.327c-.026-.032-.076-.044-.149-.035.03-.04.022-.088-.022-.147a.933.933 0 0 0-.226-.342.125.125 0 0 0-.089-.035H2.071c-.117 0-.186.067-.207.201-.02.122.015.19.104.205Zm13.386-.192a.063.063 0 0 0-.02-.045.067.067 0 0 0-.045-.018h-5.073a.066.066 0 0 0-.046.018.062.062 0 0 0 0 .09.066.066 0 0 0 .046.018h5.073a.066.066 0 0 0 .046-.018.063.063 0 0 0 .019-.045Zm4.214.183a.05.05 0 0 0 .028.004.083.083 0 0 0 .032-.013.174.174 0 0 0 .071-.145.078.078 0 0 0-.01-.032.048.048 0 0 0-.02-.019.05.05 0 0 0-.029-.004.084.084 0 0 0-.032.013.132.132 0 0 0-.03.027.176.176 0 0 0-.039.078.13.13 0 0 0-.002.04.077.077 0 0 0 .01.032.048.048 0 0 0 .02.02Zm-9.919.343c.018-.014.025-.038.021-.067a.18.18 0 0 0-.042-.09.209.209 0 0 0-.039-.035.162.162 0 0 0-.042-.022.1.1 0 0 0-.04-.005.06.06 0 0 0-.033.012c-.017.015-.025.039-.021.068a.18.18 0 0 0 .042.089.206.206 0 0 0 .039.035c.014.01.028.018.042.023a.098.098 0 0 0 .04.005.06.06 0 0 0 .033-.013Zm-3.03 3.997c-.019.78-.025 1.577-.017 2.39 0 .047.024.07.071.07h.628c.137 0 .206-.067.207-.2a387.7 387.7 0 0 0-.006-3.594c0-.034-.017-.051-.052-.052a10.448 10.448 0 0 0-.738 0 .101.101 0 0 0-.082.043 56.65 56.65 0 0 0-1.245 1.755c-.031.045-.063.046-.097.003-.468-.6-.928-1.187-1.38-1.76a.105.105 0 0 0-.083-.041c-.161-.006-.36-.007-.597-.004-.136.002-.202.069-.199.2a70.74 70.74 0 0 1 .007 3.568c0 .034.017.053.051.059.267.043.533.045.797.006.034-.006.051-.025.051-.059v-2.343c0-.09.028-.1.083-.026.351.467.708.911 1.069 1.33.022.026.05.043.083.053.22.059.392-.009.52-.203.284-.436.584-.839.898-1.206.022-.027.033-.023.031.01Zm3.406 1.534c.464-.014.92-.016 1.367-.006a.08.08 0 0 1 .074.046c.117.227.232.478.346.754.037.088.104.132.202.132h.754c.047 0 .06-.021.041-.064a435.447 435.447 0 0 1-1.657-3.63.247.247 0 0 0-.23-.153 2.713 2.713 0 0 0-.496.007.091.091 0 0 0-.071.055l-1.64 3.718c-.019.045-.004.067.045.067h.69a.175.175 0 0 0 .174-.113c.12-.282.23-.537.33-.766a.073.073 0 0 1 .071-.047Zm6.845-.703c.085.002.132.043.14.126.043.41.043.852 0 1.327-.011.117.044.176.165.176h.663c.052 0 .078-.025.078-.076v-3.724c0-.033-.017-.05-.051-.05a17.858 17.858 0 0 0-.76.005c-.053.001-.08.027-.078.078.01.415.012.867.008 1.358 0 .063-.033.094-.099.094a31.837 31.837 0 0 0-1.842.025c-.047.002-.071-.02-.072-.066-.007-.42-.01-.877-.006-1.369 0-.08-.041-.123-.125-.125a5.578 5.578 0 0 0-.71.013c-.034.004-.051.022-.051.056.015 1.276.011 2.51-.013 3.7 0 .033.016.053.05.06.143.028.385.035.727.02.081-.004.122-.046.122-.125v-1.41c0-.066.034-.1.103-.1a88.117 88.117 0 0 1 1.75.007Zm3.848.239-.012-2.404c0-.034-.018-.05-.052-.051a23.8 23.8 0 0 0-.812-.005c-.024 0-.036.012-.036.036v3.726c0 .059.03.088.09.088h.64a.2.2 0 0 0 .156-.07c.788-.876 1.52-1.715 2.194-2.515.03-.036.046-.031.046.016.008.816.01 1.639.006 2.468 0 .058.03.086.09.084.21-.01.423-.012.635-.008.121.002.182-.049.182-.151-.004-1.226-.002-2.429.006-3.607 0-.045-.023-.067-.07-.067h-.79a.107.107 0 0 0-.086.038c-.712.816-1.43 1.627-2.153 2.434-.022.025-.034.021-.034-.012Zm7.236-.039c-.002.458.007.911.025 1.36.001.033.019.052.053.056.307.033.567.03.778-.01.034-.005.051-.025.051-.059.008-1.18.01-2.377.006-3.592 0-.112-.058-.17-.174-.175-.658-.049-1.246-.022-1.761.08-.452.09-.737.317-.855.68a.877.877 0 0 0 .026.742c.125.255.33.445.613.57.032.014.038.035.017.062a26.974 26.974 0 0 0-1.178 1.647c-.026.04-.014.061.035.063.23.006.5.007.81.005a.263.263 0 0 0 .235-.132c.248-.407.511-.797.789-1.17a.453.453 0 0 1 .48-.186c.034.006.05.026.05.06Z" fill="#6E708C"/>
    <path d="M25.193 8.79c.032.84.038 1.685.019 2.536-.001.034-.018.047-.052.04a.464.464 0 0 1-.027-.053.326.326 0 0 0-.055-.077.118.118 0 0 1-.036-.086c-.01-.767-.01-1.535 0-2.303 0-.034.009-.065.028-.093.039-.061.069-.08.089-.054a.152.152 0 0 1 .034.09ZM2.2 8.88a.082.082 0 0 0-.083-.081.082.082 0 0 0-.083.08v15.926c0 .045.037.08.083.08a.082.082 0 0 0 .083-.08V8.88ZM5.023 8.871a.077.077 0 0 0-.078-.075.077.077 0 0 0-.078.075v2.464c0 .042.035.076.078.076a.077.077 0 0 0 .078-.076V8.871ZM6.082 8.793H6.08a.077.077 0 0 0-.078.075l.005 2.472c0 .042.034.076.077.076h.002a.077.077 0 0 0 .078-.076L6.16 8.868a.077.077 0 0 0-.078-.075ZM7.224 8.8h-.029a.062.062 0 0 0-.063.062v2.482c0 .034.028.062.063.062h.03a.062.062 0 0 0 .062-.062V8.862a.062.062 0 0 0-.063-.061ZM8.908 8.8h-.004a.077.077 0 0 0-.078.076l.005 2.454c0 .042.035.076.077.076h.005a.077.077 0 0 0 .077-.076l-.004-2.454a.077.077 0 0 0-.078-.075ZM25.343 8.797h-.004a.072.072 0 0 0-.073.071v5.077c0 .04.033.072.073.072h.004c.04 0 .074-.032.074-.072V8.868a.073.073 0 0 0-.074-.071ZM8.344 8.813H8.33a.07.07 0 0 0-.071.07v2.465c0 .039.032.07.071.07h.013a.07.07 0 0 0 .071-.07V8.882a.07.07 0 0 0-.071-.07ZM10.051 8.812h-.012a.07.07 0 0 0-.071.07v2.47c0 .038.032.069.071.069h.012a.07.07 0 0 0 .072-.07v-2.47a.07.07 0 0 0-.072-.07ZM27.596 8.818h-.005a.07.07 0 0 0-.07.07l.017 5.06c0 .039.033.07.072.07h.004a.07.07 0 0 0 .072-.07l-.019-5.061a.07.07 0 0 0-.071-.07ZM28.167 8.819h-.002a.078.078 0 0 0-.078.076v5.047c0 .042.035.077.078.077h.002a.078.078 0 0 0 .08-.077V8.895a.078.078 0 0 0-.08-.076ZM18.92 8.844c.038.005.057.026.057.064.02.744.02 1.452 0 2.122 0 .004-.015.006-.045.006-.136.104-.205.125-.207.064a29.877 29.877 0 0 1-.007-2.083c.005-.132.072-.19.201-.173ZM20.117 8.967a118.45 118.45 0 0 0 0 2.214c0 .05-.017.069-.053.057-.062-.017-.092-.057-.091-.12.018-.605.022-1.129.014-1.573a.93.93 0 0 0-.071-.333c-.05-.143-.015-.243.107-.3.063-.032.094-.013.094.055ZM4.634 12.519a.42.42 0 0 1 .13 0 23.88 23.88 0 0 0 .466 3.997c.44 2.2 1.138 4.3 2.094 6.302.015.03.021.062.018.096-.03.066-.067.054-.112-.037a24.483 24.483 0 0 1-2.596-10.358ZM24.647 12.67v.092c-.944.023-1.867.024-2.77.005a.215.215 0 0 1-.097-.025c-.054-.047-.048-.072.02-.076a22.666 22.666 0 0 1 2.847.004ZM21.857 12.999c.911-.007 1.84-.01 2.786-.006a.274.274 0 0 1 0 .1c-.88.019-1.776.027-2.688.026-.127 0-.182-.024-.166-.072.011-.032.034-.048.068-.048ZM21.955 13.32a88.212 88.212 0 0 1 2.666.03.45.45 0 0 1-.004.096c-.93.01-1.841.016-2.734.02a.09.09 0 0 1-.08-.043c-.055-.069-.004-.103.152-.103ZM21.877 13.672a79.511 79.511 0 0 1 2.719.005.45.45 0 0 1-.005.096c-.914.032-1.817.038-2.708.02a.11.11 0 0 1-.085-.039c-.036-.053-.01-.08.08-.082ZM21.935 14.006c.867-.008 1.753-.01 2.656-.006.013.05.005.092-.026.125-.896.021-1.793.021-2.688 0-.099-.002-.11-.031-.034-.088a.147.147 0 0 1 .092-.031ZM21.857 14.333c.885-.008 1.787-.01 2.708-.006.007.05.007.1 0 .15-.91.005-1.812.003-2.708-.005a.205.205 0 0 1-.097-.024c-.057-.03-.057-.06 0-.091a.205.205 0 0 1 .097-.024ZM19.385 14.484c.01 4.859.011 9.714.002 14.564a.16.16 0 0 0-.12-.025 182.21 182.21 0 0 1-.03-6.241c.007-.681.016-1.302.025-1.862a766.03 766.03 0 0 1-.007-6.285.342.342 0 0 0-.013-.099c-.034-.13-.001-.172.097-.125a.075.075 0 0 1 .046.073ZM21.851 14.68a56.896 56.896 0 0 1 2.689.024c.013.051.004.093-.026.126a27.914 27.914 0 0 0-2.43-.025 1.598 1.598 0 0 1-.274-.004c-.106-.079-.092-.119.041-.121ZM28.837 14.805a2.55 2.55 0 0 1-.021.377 10.07 10.07 0 0 1-1.858 4.637 9.677 9.677 0 0 1-2.615 2.49c-.65.43-1.343.763-2.078.997a1.04 1.04 0 0 1 .1-.247c-.024.076-.022.11.004.1a9.31 9.31 0 0 0 2.052-1.05 9.222 9.222 0 0 0 1.935-1.693 9.683 9.683 0 0 0 1.444-2.195 10.86 10.86 0 0 0 .942-3.34 8.98 8.98 0 0 0 .095-.076ZM21.806 15.014c.861.02 1.747.025 2.656.017.029.032.038.065.026.101-.879.052-1.775.06-2.689.025-.116-.005-.143-.04-.08-.108a.109.109 0 0 1 .087-.035ZM24.436 15.384a.275.275 0 0 1 0 .1c-.913-.006-1.782 0-2.605.018a.203.203 0 0 1-.097-.022c-.077-.04-.09-.075-.038-.103a.214.214 0 0 1 .097-.026c.859-.004 1.74.006 2.643.033ZM19.168 15.567h-.009a.036.036 0 0 0-.036.035l.013 2.307c0 .02.016.036.036.035h.008c.02 0 .037-.016.037-.035l-.013-2.307a.036.036 0 0 0-.036-.035ZM21.831 15.69c.942-.019 1.785-.01 2.532.025a.113.113 0 0 1-.026.092c-.84.037-1.704.039-2.59.004-.078-.003-.08-.033-.008-.088a.151.151 0 0 1 .092-.032ZM21.702 16.044c.859-.007 1.736-.01 2.63-.006.013.049.006.09-.021.122-.858.033-1.738.034-2.641.004-.066-.002-.083-.028-.049-.078a.093.093 0 0 1 .081-.042ZM9.918 16.309c1.795.007 3.564.01 5.305.006.035 0 .068.007.099.022.06.029.064.06.015.093a.163.163 0 0 1-.094.03c-1.706.007-3.43.01-5.172.006-.034 0-.052.017-.052.05 0 .352-.008.696-.021 1.032.026-.1.023-.165-.01-.195-.055-.05-.096-.027-.124.069a869.552 869.552 0 0 0 0 6.845.489.489 0 0 1-.022.176c-.006-2.352-.007-4.751-.004-7.197 0-.318.01-.614.025-.887.002-.034.02-.05.055-.05ZM21.634 16.364l2.62.026a.32.32 0 0 1-.02.097c-.724.013-1.535.023-2.435.029-.142 0-.219.006-.228.016-.14-.113-.12-.17.063-.168Z" fill="#6E708C"/>
    <path d="M25.4 16.44c.01.791.01 1.689-.002 2.693a1.38 1.38 0 0 1-.032.296c-.065.122-.097.114-.097-.023.008-.965.006-1.93-.007-2.896-.002-.138.029-.186.092-.146.03.017.045.043.046.076ZM24.155 16.747v.092c-.855.005-1.718.006-2.589.004a.187.187 0 0 1-.096-.026c-.046-.049-.034-.076.038-.08.883-.06 1.765-.056 2.647.01ZM15.241 16.966h-5.008a.077.077 0 0 0-.078.075c0 .042.035.076.078.076h5.008a.077.077 0 0 0 .078-.076.077.077 0 0 0-.078-.075ZM21.495 17.05c.86-.009 1.738-.01 2.634-.002a.143.143 0 0 1-.03.122c-.084.018-.16.026-.229.025a87.55 87.55 0 0 0-2.381 0c-.126.002-.153-.034-.081-.107a.115.115 0 0 1 .087-.038ZM21.391 17.403c.868-.008 1.753-.01 2.657-.006.012.049.005.09-.022.122-.857.018-1.737.02-2.64.004-.118-.002-.145-.03-.085-.086a.13.13 0 0 1 .09-.034ZM15.246 17.53l-4.76-.007a.075.075 0 0 0-.075.073c0 .04.034.073.075.074l4.76.008a.075.075 0 0 0 .076-.074.074.074 0 0 0-.076-.073ZM21.288 17.73c.835.002 1.72.008 2.656.02a.275.275 0 0 1 0 .1 26.7 26.7 0 0 1-2.74 0c-.047-.003-.047-.03-.001-.082a.107.107 0 0 1 .085-.038ZM24.195 17.962c.036-.084.057-.08.06.01.042.921.044 1.753.006 2.495a.131.131 0 0 1-.037.087c-.06.064-.094.037-.1-.081a21.7 21.7 0 0 1-.02-1.893c.009-.285.039-.491.09-.618ZM21.592 18.075a42.655 42.655 0 0 1 2.3.026c0 .029-.009.062-.026.101-.923.034-1.845.034-2.766 0-.09-.036-.1-.078-.026-.126.107-.07.246-.075.418-.017a.284.284 0 0 0 .1.016ZM21.06 18.405a47.196 47.196 0 0 1 2.733.028.638.638 0 0 1-.03.096c-.86-.005-1.688.004-2.482.025-.157.004-.25-.001-.28-.016-.083-.086-.063-.13.059-.133ZM20.945 18.732c.9.024 1.822.032 2.766.024a.214.214 0 0 1-.043.15.436.436 0 0 0-.186-.024c-.887.012-1.756.01-2.608-.007a.116.116 0 0 1-.087-.036c-.03-.03-.01-.059.059-.088a.242.242 0 0 1 .1-.02ZM4.955 18.947c.045.107.068.236.068.387v5.485c0 .04-.02.067-.06.079-.065.023-.096-.028-.096-.153.008-1.92.014-3.849.02-5.786.001-.117.024-.122.068-.012ZM4.755 19.102h-.072a.026.026 0 0 0-.026.025l.009 4.99c0 .015.011.026.026.026h.072a.026.026 0 0 0 .026-.025l-.009-4.991a.026.026 0 0 0-.026-.025ZM23.608 19.108a.225.225 0 0 1-.026.126h-2.844c-.133 0-.172-.031-.117-.094a.114.114 0 0 1 .085-.04 39.361 39.361 0 0 1 2.902.008ZM20.615 19.416c.937.001 1.893.01 2.867.023a.11.11 0 0 1-.03.097c-.95.05-1.904.057-2.863.019-.107-.004-.127-.038-.062-.103a.12.12 0 0 1 .088-.036ZM20.433 19.768c.973-.01 1.963-.01 2.971-.002.008.066-.01.116-.051.151a37.425 37.425 0 0 0-2.874-.006.237.237 0 0 1-.1-.017c-.093-.037-.108-.072-.044-.102a.218.218 0 0 1 .098-.024ZM20.252 20.122c.912.002 1.842 0 2.79-.007.084-.001.153.009.207.029a.31.31 0 0 1-.004.071c-1.01.053-2.025.06-3.045.02-.073-.004-.086-.03-.036-.078a.117.117 0 0 1 .088-.035ZM23.12 20.47a.45.45 0 0 1-.004.098c-1.017-.011-2.034-.011-3.051 0-.09 0-.133-.02-.13-.062.001-.043.025-.064.07-.064.567.011 1.104.011 1.613 0a17.583 17.583 0 0 1 1.502.029ZM23.016 20.798c0 .037-.01.078-.03.122-.382.006-.77.006-1.16 0a35.947 35.947 0 0 0-1.923.019c-.193.003-.256-.035-.188-.113a.113.113 0 0 1 .084-.04 43.624 43.624 0 0 1 3.217.012ZM22.136 21.096c.28-.007.531.01.75.054.008.051.001.084-.021.097a89.705 89.705 0 0 1-3.314-.025.156.156 0 0 1 0-.076c.871-.01 1.733-.027 2.585-.05ZM21.667 21.416a2.04 2.04 0 0 0 .288-.018c.294-.035.562-.025.802.03a.761.761 0 0 0-.026.1l-3.18-.004a.275.275 0 0 1 0-.1 41.016 41.016 0 0 1 2.015-.027c.035 0 .068.007.1.02ZM19.625 21.78a449.82 449.82 0 0 1 3.024-.005.349.349 0 0 1-.051.101h-3.021c-.006-.029.01-.061.047-.097ZM6.123 22.15c.024.022.037.115.039.28.038.806.038 1.612 0 2.416-.003.056-.043.073-.12.052a.053.053 0 0 1-.036-.052v-2.662c0-.14.04-.15.117-.034ZM19.551 22.077c.076.005.17.005.28 0a24.26 24.26 0 0 1 2.663.026.351.351 0 0 1-.052.1 33.51 33.51 0 0 1-2.89 0 .385.385 0 0 1 0-.126ZM19.573 22.434c.915-.007 1.83-.007 2.744 0a.149.149 0 0 0-.03.096h-2.71c-.004-.031-.006-.063-.004-.096ZM25.381 22.466h-.084a.029.029 0 0 0-.03.028l-.004 2.367c0 .016.013.029.03.029h.084a.029.029 0 0 0 .03-.028l.003-2.368a.029.029 0 0 0-.029-.028ZM19.65 22.76c.926-.014 1.77-.007 2.534.022a.352.352 0 0 1-.052.1c-.859.013-1.71.005-2.555-.024a.454.454 0 0 1 .073-.097ZM19.551 23.084c.664.027 1.335.027 2.015 0 .146-.006.293.004.44.03a.187.187 0 0 0-.03.121c-.894.011-1.694.003-2.4-.025-.03-.033-.038-.075-.025-.126ZM24.287 23.273a.08.08 0 0 0-.081-.08.08.08 0 0 0-.082.079l-.011 1.538c0 .044.036.08.08.08a.08.08 0 0 0 .083-.08l.011-1.537ZM19.573 23.44c.764-.017 1.522-.01 2.274.021a.13.13 0 0 1-.048.08c-.75.037-1.491.035-2.222-.004-.004-.032-.006-.064-.004-.097ZM23.642 23.492h-.007a.074.074 0 0 0-.074.072v1.26c0 .04.033.073.074.073h.007a.074.074 0 0 0 .074-.073v-1.26a.074.074 0 0 0-.074-.072ZM23.104 23.745h-.058a.054.054 0 0 0-.055.053l-.006 1.037c0 .03.025.053.055.054h.058c.03 0 .055-.024.055-.053l.006-1.037a.054.054 0 0 0-.055-.053ZM7.605 23.77c.101.046.11.084.026.113a.72.72 0 0 1-.356.01c-.042-.018-.06-.051-.052-.1a.818.818 0 0 1 .382-.023ZM21.67 23.793c.008.049-.009.082-.052.1a18.15 18.15 0 0 1-2.041-.004c-.011-.033-.004-.066.022-.096a14.61 14.61 0 0 1 2.071 0ZM22.413 24.416c-.007.277.028.502.08.504.05.001.099-.222.107-.499.008-.276-.027-.502-.079-.503-.051-.002-.1.222-.108.498ZM8.187 24.11c.078.015.09.047.033.097a.12.12 0 0 1-.09.031 3.87 3.87 0 0 0-.678.029.26.26 0 0 1-.048-.147c.228-.065.489-.068.783-.01ZM19.573 24.095c.26.02.561.027.906.02.39-.007.735-.005 1.036.005l-.082.096c-.51.031-1.13.038-1.86.021v-.142ZM21.857 24.506c.002.225.038.407.081.407.044 0 .078-.183.077-.408-.002-.225-.038-.408-.081-.407-.044 0-.078.183-.077.408ZM8.86 24.462c.075.008.085.032.03.07a.16.16 0 0 1-.094.032c-.323.006-.708.008-1.154.005a.682.682 0 0 1-.03-.097c.342-.061.758-.064 1.249-.01ZM21.282 24.472a.858.858 0 0 1-.03.097c-.639.013-1.19.003-1.653-.03a.305.305 0 0 1 .004-.071 10.464 10.464 0 0 1 1.678.004ZM21.074 24.8c.008.049-.002.09-.03.121-.573.012-1.063.004-1.467-.025 0-.026.008-.059.022-.097a41.649 41.649 0 0 1 1.475 0ZM7.793 24.8c.617-.018 1.228-.011 1.834.02a.155.155 0 0 1 0 .076c-.425.035-.942.043-1.55.025a.62.62 0 0 0-.236.025c-.04-.035-.056-.084-.048-.147ZM9.627 25.148a.155.155 0 0 1 0 .075c-.34.034-.77.043-1.29.025a.943.943 0 0 0-.315.025c-.023-.02-.03-.06-.022-.122a9.674 9.674 0 0 1 1.627-.003ZM19.577 25.122c.556-.013.986-.003 1.29.03a.11.11 0 0 1-.03.096c-.51.012-.93.003-1.26-.025a.275.275 0 0 1 0-.1ZM20.686 25.479a1.124 1.124 0 0 1-.056.121 4.155 4.155 0 0 0-.792-.019.453.453 0 0 1-.24-.035v-.067c.308-.023.67-.023 1.088 0ZM29.463 25.525c.258-.001.481.007.669.025a.275.275 0 0 1 0 .1c-1.639-.01-3.277-.01-4.915 0-1.262.009-2.66.008-4.194-.003-.01-.038.009-.07.056-.097.14.037.243.043.31.018a.285.285 0 0 1 .1-.018c2.64-.003 5.297-.012 7.974-.025ZM19.21 25.751a42.314 42.314 0 0 0-.007 2.385c0 .034-.014.042-.044.026-.012-.006-.016-.044-.01-.114.002-.034-.012-.042-.042-.026-.015.008-.023-.002-.026-.03-.06-.63-.073-1.393-.037-2.29a.117.117 0 0 1 .068-.106c.07-.05.103.002.098.155ZM9.627 25.827a.155.155 0 0 1 0 .075l-1.14.05c-.048-.029-.073-.078-.073-.146a9.57 9.57 0 0 1 1.213.02ZM20.475 25.827a.13.13 0 0 1-.048.08c-.201.022-.485.029-.85.02a.275.275 0 0 1 0-.1c.299-.042.598-.042.898 0ZM9.627 26.154a.274.274 0 0 1 0 .1c-.287.032-.57.032-.85 0-.059-.006-.086.002-.082.026-.023-.02-.03-.06-.022-.122a3.38 3.38 0 0 1 .954-.004ZM19.599 26.133c.236-.019.434-.01.595.025.01.061.002.102-.022.122a2.747 2.747 0 0 0-.595-.025.26.26 0 0 1 .022-.122ZM15.281 26.285h-4.813a.067.067 0 0 0-.069.066c0 .037.031.067.069.067h4.813c.038 0 .069-.03.069-.067a.067.067 0 0 0-.069-.066ZM9.113 26.812c.168-.004.34-.006.514-.004a.385.385 0 0 1 0 .126c-.164-.003-.31-.003-.44 0-.03-.019-.055-.06-.074-.122ZM15.289 26.859h-5.073a.064.064 0 0 0-.065.063c0 .035.03.063.065.063h5.073a.064.064 0 0 0 .065-.063.064.064 0 0 0-.065-.063ZM19.554 26.973c-.028.056-.022.116.014.132.035.017.087-.016.115-.073.028-.056.021-.116-.014-.132-.036-.017-.087.016-.115.073ZM30.14 27.06c.039.044.02.093-.056.147-.147.02-.276.03-.388.03-2.394-.003-4.75-.005-7.068-.005.063-.03.077-.06.04-.09a.135.135 0 0 0-.092-.03 5.58 5.58 0 0 1-.75-.023c2.774.002 5.542.007 8.304.015.003 0 .007-.014.01-.044ZM2.227 27.085c2.061-.031 4.109-.03 6.142.006.193.002.374 0 .541-.006.045.058.052.107.022.147a1166.3 1166.3 0 0 0-6.835.004.353.353 0 0 1-.16-.025.83.83 0 0 0 .03-.097c.1-.018.186-.027.26-.029ZM27.956 30.79c.007.268.009.588.005.96 0 .056-.03.087-.086.092a1.12 1.12 0 0 1-.715-.157.484.484 0 0 1-.237-.385c-.027-.226.062-.388.268-.484.211-.1.449-.127.712-.084.035.005.052.025.053.058ZM10.747 31.22c.109.318.234.653.377 1.005.03.07.005.103-.072.1a20.504 20.504 0 0 0-.774-.006c-.018 0-.024-.008-.018-.025.136-.37.274-.729.413-1.076.026-.066.05-.065.074.002Z" fill="#6E708C"/>
</svg>
