<svg width="90" height="15" fill="none" xmlns="http://www.w3.org/2000/svg">
    <path d="M.101.01c1.557-.013 3.114-.013 4.672 0 .088 0 .133.044.134.13.005 2.41-.003 4.723-.024 6.939-.002.114.042.133.131.06C7.804 4.83 10.63 2.495 13.492.131a.554.554 0 0 1 .363-.13C16.062-.002 18.247 0 20.409.01c.044 0 .049.014.014.041-1.274 1.001-2.6 2.03-3.975 3.088a312.442 312.442 0 0 0-5.193 4.08c-.034.027-.035.054-.001.082 3.013 2.435 6.058 4.88 9.136 7.334.091.072.078.108-.04.108h-6.504a.492.492 0 0 1-.33-.121 2521.852 2521.852 0 0 1-8.02-6.838 7.301 7.301 0 0 0-.49-.388c-.119-.077-.163-.047-.132.09.023.138.034.3.033.483a836.661 836.661 0 0 0 0 6.662c0 .075-.039.112-.115.112H.122c-.075 0-.112-.036-.112-.107C0 9.846-.002 5.003.002.108c0-.065.033-.097.1-.098ZM22.737.002h4.59c.077 0 .116.037.116.112a387.75 387.75 0 0 1 0 7.984 8.245 8.245 0 0 0 .165 1.839c.143.532.486.876 1.028 1.032.578.14 1.218.204 1.922.194a292.04 292.04 0 0 1 5.103-.033c.045 0 .089-.002.133-.007.545-.066.995-.26 1.35-.58.175-.158.29-.35.348-.574.11-.505.162-1.075.158-1.71-.02-2.709-.02-5.418 0-8.128 0-.086.044-.129.133-.129h4.59c.077 0 .116.037.116.112a1398.31 1398.31 0 0 0 0 9.823c.004 1.276-.352 2.359-1.069 3.25-.566.69-1.311 1.158-2.238 1.403a9.938 9.938 0 0 1-2.684.387c-2.8.033-5.542.03-8.227-.008-1.295-.019-2.474-.323-3.538-.911-.925-.52-1.535-1.302-1.83-2.347-.272-.942-.373-1.953-.303-3.032.003-.043.004-.086.004-.13V.132c0-.086.044-.129.133-.129ZM46.383.002h4.646c.068 0 .101.033.101.098.023 2.28.026 4.58.008 6.902 0 .093.012.168.039.225a.364.364 0 0 0-.033.13c-.007 2.337-.008 4.762-.006 7.274 0 .075-.038.112-.114.112-1.557.004-3.107.002-4.65-.008-.044 0-.066-.021-.066-.064-.018-3.762-.02-7.566-.008-11.411.003-1.06-.008-2.107-.033-3.14-.002-.079.037-.118.116-.118Z" fill="#6E708C"/>
    <path d="M60.111.002h6.552c.08 0 .089.024.026.072a3726.783 3726.783 0 0 1-9.18 7.129c-.04.032-.04.064 0 .095 3.062 2.448 6.094 4.88 9.097 7.3.104.084.191.07.262-.042 3.115-4.867 6.236-9.697 9.363-14.49a.114.114 0 0 1 .102-.056C77.7 0 79.09-.002 80.501.002c.03 0 .052.012.067.037 3.132 4.866 6.264 9.716 9.398 14.552.065.101.037.152-.086.152-1.8.004-3.575.002-5.328-.008a.112.112 0 0 1-.1-.054 111.44 111.44 0 0 1-1.465-2.325.322.322 0 0 0-.292-.161h-8.557a.388.388 0 0 0-.347.188c-.484.756-.96 1.521-1.43 2.298a.121.121 0 0 1-.112.062H60.053a.267.267 0 0 1-.179-.066c-2.5-2.114-4.983-4.218-7.451-6.313a34.617 34.617 0 0 1-1.111-.983c-.064-.06-.12-.068-.168-.025 0-.036.012-.079.033-.129 2.849-2.37 5.731-4.744 8.647-7.123a.44.44 0 0 1 .287-.102Zm15.954 8.451c-.14.217-.277.438-.413.662-.045.074-.024.111.065.112.62.003 1.21.001 1.768-.005 1.16.006 2.373.008 3.64.005.06 0 .074-.024.043-.073-.87-1.41-1.775-2.913-2.717-4.51-.032-.053-.064-.053-.096 0-.782 1.29-1.546 2.56-2.29 3.81Z" fill="#6E708C"/>
</svg>
