<svg xmlns="http://www.w3.org/2000/svg" width="176" height="48" fill="none"><path fill="#6E708C" d="M40.065 13c3.413.025 6.611.685 9.596 1.981a15.211 15.211 0 0 1 3.382 2.008c.023.017.045.017.068 0a15.259 15.259 0 0 1 2.132-1.37 19.898 19.898 0 0 1 3.872-1.556c2.22-.63 4.51-.965 6.87-1.002.028 0 .043.013.045.041.02.428.023.86.01 1.295-.001.032-.018.048-.05.048-2.963-.005-5.712.535-8.247 1.62a16.782 16.782 0 0 0-3.386 1.953c-.037.027-.04.057-.007.09.395.41.728.779.998 1.108.023.028.049.032.078.011a12.416 12.416 0 0 1 2.783-1.485c2.442-.923 5.026-1.378 7.755-1.364.053 0 .08.027.08.08v1.194c0 .11-.056.167-.167.17a23.713 23.713 0 0 0-3.88.424c-1.175.23-2.303.57-3.385 1.025-.744.319-1.485.735-2.224 1.25-.027.018-.03.04-.011.066.288.397.558.803.808 1.217.019.03.042.035.07.015a9.589 9.589 0 0 1 2.877-1.386c1.814-.523 3.735-.778 5.763-.764.099 0 .148.05.148.148.003.491.002.936-.004 1.333 0 .029-.015.043-.043.044a22.676 22.676 0 0 0-5.165.747 8.601 8.601 0 0 0-2.735 1.298c-.023.016-.029.037-.016.062.197.404.418.846.662 1.326.014.028.034.033.059.013a5.626 5.626 0 0 1 1.93-1.08 12.581 12.581 0 0 1 2.728-.493c.85-.06 1.692-.101 2.528-.123.037 0 .056.019.056.056.003.594.002 1.103-.004 1.527 0 .028-.015.043-.043.044a29.416 29.416 0 0 0-3.745.364 6.435 6.435 0 0 0-2.808 1.194c-.043.031-.056.072-.039.123.202.581.373 1.142.513 1.68.013.051.036.056.069.015.292-.39.618-.712.978-.968.638-.458 1.37-.7 2.198-.727.94-.03 1.87-.037 2.787-.017.063 0 .094.033.094.097v1.532c0 .028-.014.043-.042.044-.653.029-1.31.036-1.97.021a7.043 7.043 0 0 0-1.674.149c-.454.105-.83.35-1.128.738a4.267 4.267 0 0 0-.885 1.81 2.868 2.868 0 0 0-.063.828 97.997 97.997 0 0 0 0 3.48c.002.044-.02.067-.064.067h-1.388c-.049 0-.074-.025-.075-.074a58.762 58.762 0 0 1 .001-4.428 7.13 7.13 0 0 0-.164-1.768 20.894 20.894 0 0 0-.305-1.084c-.014-.044-.034-.046-.057-.006-.616.998-.992 2.022-1.127 3.07a8.04 8.04 0 0 0-.063 1.232c-.006.997-.006 2.006 0 3.027 0 .02-.01.03-.03.03h-1.435c-.036 0-.055-.018-.055-.055l.016-4.34a3.543 3.543 0 0 0-.106-.934 15.065 15.065 0 0 0-.591-2.177c-.026-.072-.056-.074-.09-.006a8.811 8.811 0 0 0-.93 3.966 345.243 345.243 0 0 1-.02 3.462c0 .056-.03.085-.086.085h-1.356c-.056 0-.084-.029-.084-.085v-3.993a.862.862 0 0 0-.005-.084 9.993 9.993 0 0 0-.943-3.433c-.016-.033-.03-.033-.042.002-.33.921-.57 1.845-.72 2.773a.588.588 0 0 0-.007.084c-.01.423-.01.861 0 1.317.026 1.1.019 2.22-.022 3.364 0 .036-.018.055-.055.055h-1.412c-.035 0-.052-.018-.051-.052.02-.844.033-1.697.036-2.56.004-.896-.065-1.696-.204-2.4a1 1 0 0 0-.019-.083c-.193-.736-.511-1.5-.955-2.292-.031-.056-.057-.053-.075.009-.119.423-.245.893-.378 1.41a4.603 4.603 0 0 0-.127 1.338c.038.551.052 1.11.042 1.678-.017.944-.024 1.906-.021 2.887 0 .043-.02.065-.064.065h-1.42c-.027 0-.042-.015-.042-.043.021-1.232.021-2.464 0-3.695-.014-.845-.309-1.654-.884-2.426a2.342 2.342 0 0 0-.689-.648 2.618 2.618 0 0 0-1.059-.276 36.304 36.304 0 0 0-3.093-.043c-.029 0-.044-.013-.045-.042-.025-.506-.024-1.039.004-1.598.002-.043.025-.064.067-.063l3.009.041.084.005a3.914 3.914 0 0 1 2.209.926c.32.267.566.538.736.812.017.025.03.023.038-.006a18.13 18.13 0 0 1 .525-1.688c.03-.079.01-.143-.06-.191a7.792 7.792 0 0 0-3.575-1.3 72.517 72.517 0 0 0-3.008-.255c-.013-.001-.02-.008-.022-.022-.023-.364-.029-.867-.018-1.51 0-.066.034-.098.1-.098 1.331.002 2.623.102 3.875.297a8.093 8.093 0 0 1 1.568.403 5.97 5.97 0 0 1 1.753 1.03c.021.018.039.014.052-.01.236-.436.468-.877.697-1.321.013-.026.008-.047-.015-.063a9.245 9.245 0 0 0-3.202-1.446 24.09 24.09 0 0 0-4.702-.634c-.086-.004-.129-.048-.129-.134v-1.319c0-.064.032-.095.096-.093.456.018.898.037 1.324.057 1.467.075 2.864.29 4.19.642a9.945 9.945 0 0 1 3.227 1.497c.033.025.062.02.085-.015.248-.374.518-.774.81-1.2.023-.035.018-.064-.016-.088a12.72 12.72 0 0 0-3.508-1.75c-1.922-.622-3.97-.948-6.146-.977-.041 0-.062-.022-.062-.063V16.42c0-.07.035-.106.106-.106 2.402.01 4.676.356 6.822 1.04a13.993 13.993 0 0 1 3.71 1.809c.07.049.134.04.189-.025.306-.359.63-.707.97-1.045.024-.026.023-.05-.006-.07a16.235 16.235 0 0 0-3.02-1.815c-2.688-1.242-5.594-1.845-8.718-1.81-.031 0-.047-.015-.049-.046-.015-.51-.01-.949.017-1.313.001-.026.015-.038.04-.038Zm13.759 7.566c.09-.097.202-.21.337-.34.017-.018.017-.036 0-.055-.33-.348-.68-.698-1.051-1.05-.03-.029-.06-.03-.09-.002-.395.366-.724.696-.986.99-.06.068-.059.133.004.196.35.358.682.713.995 1.068.018.021.037.021.056 0 .23-.26.475-.528.735-.807Zm-2.649 1.094a4.488 4.488 0 0 1-.208-.198c-.02-.02-.039-.02-.056.003-.306.405-.593.821-.862 1.247-.016.024-.014.047.005.068.388.455.755.9 1.1 1.335.022.028.042.027.06-.004.23-.384.503-.82.821-1.308.057-.087.053-.17-.012-.251a9 9 0 0 0-.848-.892Zm3.295.488c-.184.194-.336.362-.455.504-.018.022-.02.044-.003.067.312.457.604.924.879 1.402.028.048.058.05.09.004.27-.387.628-.829 1.076-1.324.019-.021.021-.044.006-.068a18.35 18.35 0 0 0-.82-1.222c-.03-.04-.063-.045-.102-.012-.26.236-.484.453-.67.65Zm-1.44 1.846a13.32 13.32 0 0 0-.89 1.488.22.22 0 0 0 .003.221c.325.585.62 1.204.885 1.858.018.045.035.045.052 0 .23-.607.531-1.241.905-1.901a.13.13 0 0 0 .002-.134 26.945 26.945 0 0 0-.884-1.53c-.023-.038-.047-.039-.073-.002Zm-3.775.222c-.032-.031-.057-.027-.076.012-.24.48-.468.96-.685 1.44a.212.212 0 0 0 .023.228c.38.526.738 1.094 1.072 1.705.019.033.034.032.046-.004.22-.635.458-1.23.713-1.784a.236.236 0 0 0-.018-.242 8.37 8.37 0 0 0-1.075-1.355Zm7.61.008a9.915 9.915 0 0 0-1.145 1.428.069.069 0 0 0-.006.07 19.1 19.1 0 0 1 .727 1.873c.026.08.058.083.096.007.305-.596.658-1.172 1.059-1.725a.146.146 0 0 0 .018-.153 22.54 22.54 0 0 0-.69-1.49c-.015-.032-.035-.035-.059-.01ZM81.256 13.596c.543.004 1.122-.003 1.737-.021.112-.004.169.05.17.164a706.363 706.363 0 0 1 .002 11.133c.03.773.03 1.5-.002 2.178 0 .02-.01.03-.03.03H81.15c-.042 0-.063-.021-.063-.064V15.373c0-.035-.018-.052-.052-.052a251 251 0 0 1-3.699-.005 5.32 5.32 0 0 0-.567.022c-.028.003-.042.018-.042.047.024 1.466 0 2.936-.069 4.411-.05 1.08-.15 2.156-.296 3.228a8.113 8.113 0 0 1-.546 2.129c-.275.647-.674 1.153-1.197 1.518-.45.31-.945.5-1.483.574-.355.056-.69.09-1.007.103-.028.002-.046-.01-.053-.038a63.32 63.32 0 0 1-.397-1.568c-.017-.071.011-.112.084-.121a4.781 4.781 0 0 0 1.225-.309c.304-.122.544-.32.72-.594.291-.43.49-.91.599-1.44.207-1.005.327-2.08.36-3.227.06-2.105.082-4.221.063-6.349 0-.07.035-.105.105-.106 2.144-.017 4.285-.017 6.421 0ZM102.086 13.575c.111.001.167.058.167.17v5.266c0 .042.021.064.063.064h5.856c.049 0 .072-.024.071-.072-.023-1.738-.021-3.505.006-5.3.001-.068.035-.104.102-.107a28.58 28.58 0 0 1 1.821-.017c.028 0 .042.015.043.043.008.264.01.58.004.95a.834.834 0 0 0 .021.213c.03 3.956.03 7.828 0 11.615-.001.146.003.325.011.538.013.09-.027.137-.118.138-.565.005-1.172.007-1.822.004-.041 0-.062-.022-.062-.064-.005-1.854-.005-3.709 0-5.563 0-.234-.007-.452-.022-.653-.003-.029-.019-.043-.047-.043a119.57 119.57 0 0 0-2.431-.026c-.914-.01-1.832-.01-2.755 0l-.676.007c-.044-.002-.065.019-.065.062v6.195c0 .057-.029.085-.085.085h-1.833c-.049 0-.074-.025-.074-.074v-13.37c0-.026.013-.04.039-.04a34.46 34.46 0 0 1 1.786-.021ZM115.156 13.575c.643-.004 1.267 0 1.872.015.037.001.056.02.056.058-.003 3.546-.001 7.03.005 10.45.001.151.036.16.105.026 1.834-3.518 3.667-7.018 5.498-10.5a.083.083 0 0 1 .076-.047 47.094 47.094 0 0 1 2.295.019c.02 0 .03.01.03.03v13.369c0 .057-.029.085-.085.085-.642.003-1.263.001-1.862-.004-.059 0-.088-.03-.088-.09.006-1.694.013-3.312.022-4.854.004-.64.004-1.185 0-1.635a578.37 578.37 0 0 1-.008-3.918c.003-.118-.024-.125-.079-.02-1.891 3.57-3.724 7.062-5.499 10.477a.075.075 0 0 1-.072.044h-2.256c-.049 0-.074-.025-.074-.074V13.638c0-.042.021-.063.064-.063ZM136.941 13.575c.039 0 .059.02.059.058v1.526c0 .048-.024.072-.072.072h-3.636c-.042 0-.063.021-.063.064v11.721c0 .043-.022.064-.064.064h-1.907c-.028 0-.042-.014-.042-.042.003-3.954.001-7.873-.005-11.76 0-.028-.014-.042-.043-.042l-3.676-.01c-.028 0-.043-.014-.045-.043a15.691 15.691 0 0 1-.02-1.54c.001-.028.016-.042.044-.042 3.151.001 6.308-.008 9.47-.026ZM89.863 13.602c.973.02 1.967.024 2.983.01.083-.001.138.038.164.116 1.37 4.076 2.734 8.153 4.09 12.232.117.356.236.698.355 1.026.024.059.004.088-.06.089-.66.006-1.33.008-2.007.005-.049 0-.08-.023-.095-.07a249.266 249.266 0 0 1-1.021-3.345c-.008-.028-.026-.041-.054-.042-1.794-.04-3.685-.042-5.673-.004-.039 0-.064.02-.077.057l-1.086 3.356c-.01.032-.033.048-.066.048-.62.003-1.233.001-1.838-.005-.029 0-.038-.014-.03-.04 1.447-4.474 2.9-8.939 4.36-13.393.009-.027.027-.04.055-.04Zm1.42.734c-.762 2.509-1.529 5.045-2.3 7.61-.007.025.002.038.03.038h4.574c.087 0 .118-.042.093-.125-.776-2.522-1.556-5.03-2.34-7.523-.02-.061-.038-.061-.057 0Z"/></svg>