<svg xmlns="http://www.w3.org/2000/svg" width="176" height="48" fill="none"><path fill="#6E708C" d="M26 29.726c2.16 5.069 7.187 8.624 13.046 8.624-2.16-5.07-7.187-8.624-13.046-8.624ZM39.047 38.35c4.304 0 8.01-2.558 9.682-6.235a10.635 10.635 0 0 0-9.682 6.235Z"/><path fill="#6E708C" fill-rule="evenodd" d="M39.047 31.262c5.871 0 10.631-4.758 10.631-10.63 0-5.87-4.76-10.632-10.63-10.632-5.873 0-10.632 4.761-10.632 10.631 0 5.873 4.759 10.631 10.631 10.631Zm0-5.314a5.315 5.315 0 1 0-.001-10.631 5.315 5.315 0 0 0 .001 10.63Z" clip-rule="evenodd"/><path fill="#6E708C" d="M107.445 20.632h4.447v17.236h-4.447v-6.713h-7.764v6.713h-4.447V20.632h4.447v6.352h7.764v-6.352Zm6.541 4.275h5.536v12.96h4.447v-12.96h5.469v-4.275h-15.452v4.275ZM151 34.119v3.664c-.758.38-1.705.568-2.811.568-2.31 0-3.473-1.005-3.939-2.624l-.074.108c-1.345 1.689-3.206 2.516-5.619 2.516-2.311 0-4.276-.861-5.93-2.62-1.62-1.758-2.447-3.93-2.447-6.481 0-2.55.827-4.687 2.447-6.445 1.654-1.758 3.619-2.655 5.93-2.655 2.306 0 4.108.758 5.437 2.303v-1.82h4.447v12.192c0 1.042.474 1.578 1.422 1.578.443 0 .822-.095 1.137-.284Zm-6.824-4.87c0-1.412-.448-2.584-1.379-3.48-.896-.93-2.034-1.38-3.413-1.38s-2.516.448-3.413 1.38c-.896.896-1.344 2.069-1.344 3.48 0 1.414.448 2.586 1.344 3.518.897.895 2.034 1.343 3.413 1.343s2.517-.448 3.413-1.343c.931-.932 1.379-2.104 1.379-3.518Zm-85.577-8.617-.132 6.476c-.032 2.622-.127 3.917-.506 5.4-.347 1.422-1.01 1.823-2.051 1.823-.349 0-.664-.032-.917-.127v3.664c.347.189.917.283 1.674.283 3.127-.094 4.643-1.57 5.401-4.222.537-1.896.632-3.349.727-5.527l.1-3.496h5.521v12.96h4.447V20.632H58.599Zm21.417 9.781c.478 2.942 2.81 3.905 5.177 3.905 1.569 0 3.212-.613 4.223-1.53l2.742 2.76c-1.638 1.813-3.918 2.803-7.034 2.803-4.363 0-9.626-2.575-9.626-9.101 0-6.525 5.068-9.1 9.373-9.1 5.444 0 7.696 2.557 7.696 5.425.002 4.688-5.957 6.853-12.551 4.838Zm7.724-4.33c0-1.337-1.322-1.935-2.804-1.935-2.264 0-4.226.956-4.822 3.415 4.613 1.333 7.626.339 7.626-1.48Z"/></svg>