<svg xmlns="http://www.w3.org/2000/svg" width="176" height="48" fill="none"><path fill="#6E708C" d="M118.732 12.027c.064.329.242.582.534.76.238.143.507.21.806.2.379 0 .694-.106.947-.321.196-.166.332-.38.409-.64.008-.024.023-.031.047-.021.546.225 1.126.457 1.739.696.022.009.028.023.018.044a2.761 2.761 0 0 1-.938 1.143c-.635.431-1.38.64-2.236.625a5.142 5.142 0 0 1-1.194-.155 3.123 3.123 0 0 1-1.226-.633 2.58 2.58 0 0 1-.707-.98c-.008-.017-.002-.03.016-.037l1.744-.701c.023-.01.036-.003.041.02ZM39.088 12.267c8.565.004 17.14.004 25.723 0 .03 0 .044.014.044.042v24.65c0 .027-.014.041-.044.041-8.584-.013-17.163-.013-25.737 0a.145.145 0 0 1-.074-.017V12.292a.174.174 0 0 1 .088-.025Zm15.193 2.793a1.366 1.366 0 0 0-.626-.304 1.631 1.631 0 0 0-.744.014 1.35 1.35 0 0 0-.766.467c-.21.257-.315.57-.313.943.012 3.181.007 6.35-.015 9.506 0 .019.002.038.005.056.002.119 0 .251-.005.396-.001.165-.032.32-.092.463-.082.208-.243.36-.482.455a1.02 1.02 0 0 1-.781 0 .922.922 0 0 1-.501-.424 1.174 1.174 0 0 1-.133-.55c.012-3.287.012-6.573 0-9.86a1.378 1.378 0 0 0-.239-.872c-.29-.415-.706-.618-1.249-.611-.538-.002-.95.201-1.234.61-.16.25-.24.546-.239.887.013 3.296.013 6.592 0 9.888 0 .738.178 1.415.534 2.03.218.394.522.738.913 1.032.728.546 1.562.816 2.501.808.93 0 1.748-.255 2.457-.766.364-.254.668-.574.914-.96.354-.56.546-1.16.578-1.805.01-.262.015-.544.014-.848-.009-3.008-.009-6.017 0-9.026.012-.265.002-.5-.03-.706a1.226 1.226 0 0 0-.467-.823Zm7.366-.042a1.476 1.476 0 0 0-.96-.293 1.525 1.525 0 0 0-.664.17 1.42 1.42 0 0 0-.49.462 3572.725 3572.725 0 0 0-3.38 5.343 3.61 3.61 0 0 0-.343.974 2.017 2.017 0 0 0 .192 1.393c1.149 2.623 2.29 5.235 3.422 7.836.015.035.003.052-.036.052-4.428-.005-8.843-.005-13.243 0-.18.006-.332.002-.457-.014a.862.862 0 0 1-.585-.343.807.807 0 0 1-.21-.477c-.01-.279-.016-.599-.015-.96.012-4.318.012-8.635 0-12.953a1.32 1.32 0 0 0-.313-.929 1.487 1.487 0 0 0-1.086-.526c-.523-.029-.95.142-1.279.512-.23.26-.344.578-.342.957.007 2.17.017 4.34.03 6.512.016 2.713.026 5.425.029 8.136 0 .604.154 1.154.46 1.65.247.389.576.7.987.932a3.15 3.15 0 0 0 1.573.398c6.202.002 12.393 0 18.574-.003.02 0 .026-.009.02-.026-1.514-3.689-3.021-7.39-4.524-11.101-.156-.384-.16-.736-.012-1.056.095-.184.207-.374.336-.569a187.396 187.396 0 0 0 2.707-4.212c.14-.23.2-.492.18-.788a1.414 1.414 0 0 0-.57-1.077ZM107.005 14.894a6.746 6.746 0 0 1 2.427.4 5.376 5.376 0 0 1 2.947 2.57c.524 1.01.781 2.1.769 3.274a7.306 7.306 0 0 1-.593 2.864 5.544 5.544 0 0 1-1.34 1.878 5.113 5.113 0 0 1-1.739 1.06 7.129 7.129 0 0 1-2.722.399c-1.07-.034-2.041-.309-2.913-.823a4.116 4.116 0 0 1-.788-.6 5.66 5.66 0 0 1-1.396-1.982c-.419-.968-.605-2.018-.56-3.15a6.928 6.928 0 0 1 .674-2.743 5.453 5.453 0 0 1 1.657-2.027 5.573 5.573 0 0 1 2.387-1.003 7.71 7.71 0 0 1 1.19-.117Zm-1.595 9.001c.465.42 1.012.636 1.639.647a2.512 2.512 0 0 0 1.779-.653c.373-.318.648-.709.825-1.173a4.607 4.607 0 0 0 .284-1.946 4.23 4.23 0 0 0-.295-1.341 2.74 2.74 0 0 0-.766-1.06 2.683 2.683 0 0 0-1.871-.65c-.522.014-.997.17-1.426.47a2.475 2.475 0 0 0-.501.452 2.97 2.97 0 0 0-.622 1.197c-.106.394-.16.79-.162 1.187-.003.589.09 1.14.28 1.652.19.492.468.898.836 1.218ZM70.866 15.19c1.637-.023 3.287-.027 4.95-.013.264.002.49.007.678.014.636-.005 1.282-.006 1.938-.003.024 0 .034.013.029.036-.005.05-.008.124-.008.221.004 3.849.005 7.683.004 11.502 0 .018-.01.028-.03.028-1.018.014-2.04.017-3.064.007-.02 0-.03-.01-.029-.028a645.87 645.87 0 0 0-.007-8.935c0-.018-.01-.028-.03-.029a33.033 33.033 0 0 0-2.136-.006c-.076.002-.114.036-.114.103.005 1.61.005 3.22 0 4.83 0 .154-.006.286-.015.396a5.29 5.29 0 0 1-.401 1.946 2.648 2.648 0 0 1-1.032 1.243c-.693.45-1.482.669-2.368.654h-.059a4.146 4.146 0 0 1-1.427-.146c-.03-.01-.046-.029-.047-.059a97.514 97.514 0 0 1-.014-2.678c0-.047.025-.066.074-.056.349.074.707.079 1.075.014.374-.065.648-.255.822-.568.119-.215.193-.45.22-.707.04-.285.06-.586.063-.9.016-2.243.022-4.52.015-6.832 0-.021.01-.033.033-.035.277-.021.551-.021.821 0l.06.002ZM83.197 15.188c.027 0 .045.011.056.035.705 1.624 1.41 3.241 2.113 4.852.03.067.058.067.084-.002a365.063 365.063 0 0 0 1.78-4.843c.009-.025.027-.038.055-.039a110.78 110.78 0 0 1 3.301 0c.017 0 .023.007.016.022L85.6 26.944a.066.066 0 0 1-.066.043c-1.105.002-2.197 0-3.276-.004-.027 0-.034-.011-.023-.034.542-1.125 1.05-2.197 1.526-3.213a.057.057 0 0 0-.001-.052l-4.219-8.46c-.01-.022-.004-.032.02-.032l3.637-.004Z"/><path fill="#6E708C" d="M91.642 15.188c.98.002 1.988 0 3.022-.008.033 0 .05.015.05.048a141.488 141.488 0 0 1-.009 3.565c.02.297.025.655.013 1.073-.003.09-.002.151.004.186.017.06.043.063.079.012a576.059 576.059 0 0 0 3.282-4.838.076.076 0 0 1 .068-.035c.756.01 1.502.01 2.239 0 .454-.006.919-.005 1.396.002.02 0 .024.009.012.024l-4.288 5.665c-.009.012-.009.024 0 .037 1.46 2.009 2.924 4.021 4.392 6.038.016.021.01.032-.018.032l-3.907-.007a.048.048 0 0 1-.044-.024 537.863 537.863 0 0 0-3.142-4.95c-.049-.077-.073-.07-.073.02-.01.873-.015 1.745-.015 2.613 0 .184.005.41.015.678-.01.47-.008 1.007.004 1.612 0 .039-.019.058-.059.058-.978-.004-1.996-.005-3.055-.003-.021 0-.029-.01-.024-.03.007-.05.01-.115.01-.196a4025.93 4025.93 0 0 1 0-11.527c0-.03.017-.046.049-.046ZM114.842 15.19c.952.003 1.918.002 2.899-.003.015 0 .022.007.022.021.001 2.062 0 4.142-.004 6.24 0 .288.003.501.01.639.01.12.047.127.11.024l4.23-6.892a.049.049 0 0 1 .044-.025c.804-.004 1.618-.01 2.442-.017.214-.002.39.003.527.014.02.002.03.013.03.032.004 3.862.005 7.776.003 11.742 0 .014-.007.02-.021.02h-2.94c-.039 0-.059-.018-.059-.056-.007-2.185-.007-4.37 0-6.554 0-.143-.003-.26-.01-.35-.011-.072-.036-.077-.074-.014-1.428 2.313-2.85 4.629-4.266 6.947-.009.016-.024.024-.044.024-.961.004-1.946.006-2.957.004-.032 0-.044-.015-.035-.046.003-.027.005-.074.005-.138-.005-3.842-.005-7.684 0-11.526 0-.057.029-.085.088-.085ZM128.541 15.188c2.737-.016 5.453-.015 8.15.003a.308.308 0 0 0 .058-.006.503.503 0 0 1 .251.01v11.794a518.29 518.29 0 0 0-3.08-.003c-.06 0-.076-.026-.047-.076a.616.616 0 0 0 .004-.08c-.004-2.93-.005-5.864-.004-8.802 0-.034-.018-.05-.053-.051-.725-.004-1.457-.005-2.197-.003-.02 0-.03.009-.03.028-.017 1.73-.022 3.462-.015 5.198a5.087 5.087 0 0 1-.401 2.045 2.798 2.798 0 0 1-.795 1.073 2.985 2.985 0 0 1-.855.509 5.01 5.01 0 0 1-1.985.33.83.83 0 0 0-.059 0c-.43.018-.829-.032-1.199-.15-.036-.011-.053-.035-.053-.071-.001-.92-.006-1.823-.015-2.711 0-.02.01-.027.029-.022.24.049.475.072.707.07.276-.002.525-.05.748-.144a.882.882 0 0 0 .472-.424c.205-.39.305-.822.298-1.296.018-.264.028-.527.029-.791.014-2.138.014-4.268 0-6.39 0-.027.014-.04.042-.04ZM77.637 29.178a.943.943 0 0 1 .233-.016c.075.004.113.041.113.113v.34c0 .05.026.073.078.07.277-.008.525.011.747.056.42.073.76.246 1.02.52.274.291.41.65.409 1.076-.002.4-.126.751-.372 1.056-.165.201-.371.347-.619.438a3.075 3.075 0 0 1-1.22.201c-.03 0-.045.015-.044.045l.016.462c.001.039-.018.058-.058.058h-.223c-.08 0-.118-.037-.117-.113.002-.163 0-.302-.003-.42 0-.019-.01-.028-.03-.029a6.038 6.038 0 0 1-.733-.073c-.525-.076-.926-.308-1.205-.696a1.42 1.42 0 0 1-.269-.886 1.538 1.538 0 0 1 .976-1.508 2.79 2.79 0 0 1 1.232-.186c.021.001.032-.008.032-.028v-.436c0-.024.012-.039.037-.044Zm-1.396 3.166a.993.993 0 0 0 .287.162c.317.12.663.177 1.037.173.016 0 .024-.007.024-.022-.005-.88-.006-1.753-.004-2.62 0-.016-.009-.024-.026-.024-.108.012-.218.02-.328.025-.446.017-.808.15-1.086.399-.267.25-.381.588-.343 1.013.023.388.17.685.439.894Zm3.1-1.985a1.929 1.929 0 0 0-1.005-.321 4.163 4.163 0 0 0-.294-.015c-.02 0-.03.01-.03.029l-.015 2.587c0 .028.015.042.043.04a5.06 5.06 0 0 0 .664-.07 1.58 1.58 0 0 0 .652-.265.931.931 0 0 0 .376-.544c.06-.233.07-.472.033-.717-.043-.319-.185-.56-.424-.724ZM132.901 29.235c.004 1.41.005 2.855.003 4.334 0 .024-.013.037-.039.039a5.484 5.484 0 0 1-.315.002c-.039 0-.058-.02-.058-.056V30.35c0-.042-.021-.056-.061-.041a.696.696 0 0 0-.134.133c-.949 1.11-1.902 2.221-2.858 3.333-.018.02-.026.017-.026-.009v-4.39c0-.033.017-.047.05-.041.067.01.163.013.289.009.049-.002.074.02.073.068-.006 1.099-.001 2.172.014 3.219.002.083.03.093.086.029l2.957-3.432c.013-.015.019-.013.019.006ZM109.691 31.498a2.161 2.161 0 0 1-.186.869 2.271 2.271 0 0 1-.527.736c-.225.21-.493.378-.787.491a2.563 2.563 0 0 1-.928.172 2.509 2.509 0 0 1-1.712-.669 2.205 2.205 0 0 1-.707-1.607c.001-.298.064-.594.186-.87.123-.275.302-.525.527-.736.225-.21.493-.377.787-.49a2.566 2.566 0 0 1 1.855.002c.294.115.56.283.785.494.225.212.403.462.524.738.121.276.183.572.183.87Zm-2.415 1.917a1.994 1.994 0 0 0 1.392-.572c.367-.364.572-.856.57-1.368a1.914 1.914 0 0 0-.585-1.361 1.997 1.997 0 0 0-1.398-.559 1.993 1.993 0 0 0-1.391.573 1.907 1.907 0 0 0-.416 2.105 1.94 1.94 0 0 0 1.073 1.04c.24.095.496.144.755.142ZM110.959 29.273c.597 1.23 1.193 2.453 1.79 3.666.023.048.049.05.077.004.046-.077.093-.166.142-.268a189.481 189.481 0 0 1 1.654-3.406c.015-.029.024-.027.029.005.208 1.484.405 2.917.589 4.298.003.018-.006.03-.025.033-.048.008-.128.01-.24.005-.069-.003-.108-.04-.118-.113-.129-1.01-.266-1.988-.41-2.938-.012-.08-.036-.084-.072-.01a397.995 397.995 0 0 0-1.564 3.217c-.01.02-.02.02-.031 0l-1.6-3.24c-.022-.044-.038-.042-.05.005a2.897 2.897 0 0 0-.059.325c-.116.9-.233 1.793-.351 2.68-.006.042-.031.065-.076.068a.978.978 0 0 1-.293-.002c-.018-.006-.027-.018-.024-.037.184-1.426.383-2.854.596-4.287.006-.04.018-.042.036-.005ZM93.75 29.285l1.954 4.296c.008.017.002.027-.017.028a4.486 4.486 0 0 1-.298 0c-.06-.002-.101-.03-.124-.082a31.216 31.216 0 0 0-.568-1.272.042.042 0 0 0-.041-.026c-.583-.004-1.18-.005-1.794-.003-.055 0-.093.025-.115.074-.187.437-.374.862-.562 1.274a.05.05 0 0 1-.041.03c-.083.01-.201.013-.354.005-.02-.001-.026-.01-.018-.028.638-1.418 1.286-2.85 1.946-4.296.01-.024.021-.024.031 0Zm-.043.925c-.247.539-.493 1.09-.738 1.653-.01.023-.002.035.024.035.492.006.989.006 1.49 0 .025 0 .033-.012.023-.035a85.512 85.512 0 0 0-.75-1.653c-.016-.036-.032-.036-.049 0ZM122.219 29.306a640.122 640.122 0 0 0 1.936 4.237c.02.045.005.067-.046.067h-.292c-.035 0-.06-.015-.073-.047a38.684 38.684 0 0 0-.584-1.308c-.008-.017-.022-.026-.042-.026a188.14 188.14 0 0 0-1.852-.003.046.046 0 0 0-.046.031c-.192.48-.388.918-.586 1.317a.055.055 0 0 1-.042.03c-.06.01-.162.011-.307.006-.043-.002-.057-.021-.039-.06.638-1.415 1.279-2.83 1.922-4.244.017-.037.034-.037.051 0Zm-.055.903c-.24.532-.477 1.067-.71 1.604-.026.059-.005.088.061.088h1.421c.033 0 .043-.014.03-.043a194.64 194.64 0 0 0-.744-1.649c-.02-.042-.039-.042-.058 0ZM67.722 29.337c.073.01.192.012.357.006.032 0 .047.014.047.044v1.695c0 .019.01.028.03.028h2.533c.02 0 .03-.01.03-.028v-1.717c0-.014.007-.02.021-.02h.347c.032 0 .048.015.048.045a492.228 492.228 0 0 0 0 4.175c0 .03-.015.045-.047.045h-.325c-.03 0-.044-.014-.044-.042.002-.715 0-1.42-.004-2.115 0-.02-.01-.029-.03-.029-.813-.004-1.65-.005-2.508-.003-.034 0-.051.016-.051.05.002.7 0 1.398-.004 2.094 0 .019-.01.03-.028.034a.936.936 0 0 1-.378 0c-.019-.004-.028-.015-.028-.034a925.594 925.594 0 0 1-.004-4.197c0-.024.013-.035.038-.031ZM128.25 29.337c.022-.003.032.006.032.028-.004 1.373-.006 2.764-.004 4.175 0 .047-.024.07-.073.07h-.221c-.079 0-.118-.037-.118-.113v-2.013c0-.042-.022-.063-.066-.063h-2.483c-.039 0-.059.019-.059.056v2.092c0 .024-.013.037-.039.039a3.82 3.82 0 0 1-.34 0c-.02 0-.03-.01-.03-.03a979.107 979.107 0 0 1-.003-4.21c0-.016.008-.023.024-.023h.344c.03 0 .044.014.044.042-.002.583-.001 1.147.004 1.692 0 .018.01.028.029.028.809.004 1.633.005 2.472.003.069 0 .103-.033.103-.099v-1.61c0-.04.021-.058.062-.057.146.005.253.003.322-.007ZM72.314 29.348c.764-.004 1.539-.005 2.324-.003.03 0 .044.014.044.042v.254c0 .028-.015.043-.044.043h-1.913c-.021 0-.032.01-.032.03-.002.455 0 .89.004 1.308 0 .019.01.029.03.03.489.019 1.072.024 1.749.016.073 0 .113.034.117.104a.732.732 0 0 1-.004.183c-.004.018-.016.027-.036.027a69.46 69.46 0 0 1-1.815.01c-.03 0-.045.015-.045.043-.002.62 0 1.232.004 1.833 0 .019.01.028.03.028.616.004 1.254.005 1.91.004.03 0 .045.014.045.042v.226c0 .028-.015.042-.044.042H72.36c-.059 0-.086-.028-.08-.084a22.76 22.76 0 0 0 0-.523c-.015-1.222-.014-2.43.002-3.627 0-.019.01-.028.03-.028ZM80.711 29.348a400.97 400.97 0 0 1 2.692-.003c.04 0 .06.018.06.056v.226c0 .038-.02.056-.06.056h-1.06c-.04 0-.06.02-.06.057v3.842c0 .019-.009.028-.029.028h-.332c-.034 0-.05-.016-.05-.049.001-1.303 0-2.585-.004-3.846 0-.019-.01-.028-.03-.028a69.633 69.633 0 0 0-1.116-.004c-.028 0-.043-.013-.043-.04a4.33 4.33 0 0 1 .001-.267c.001-.019.011-.028.031-.028ZM85.378 29.345c.343-.003.697-.003 1.06 0 .03 0 .045.014.045.042.001 1.402 0 2.795-.004 4.178 0 .019-.01.03-.029.034a.809.809 0 0 1-.347 0c-.02-.004-.03-.015-.03-.034-.004-.578-.005-1.17-.003-1.777 0-.037-.02-.056-.059-.056h-.237a.165.165 0 0 0-.15.081c-.352.563-.72 1.144-1.105 1.746a.106.106 0 0 1-.095.051h-.343c-.04 0-.049-.016-.028-.048.374-.583.755-1.187 1.145-1.812.012-.019.007-.029-.017-.03-.322.005-.599-.082-.831-.26-.244-.187-.377-.417-.401-.689-.059-.43.058-.785.35-1.064a.46.46 0 0 1 .044-.038c.277-.213.622-.321 1.035-.325Zm-.711 1.867c.176.112.384.172.622.18.186.007.417.012.693.015.049 0 .073-.025.073-.073-.002-.558 0-1.095.004-1.611 0-.02-.01-.029-.03-.029-.157.012-.33.013-.519.004-.289-.015-.539.025-.75.118a.312.312 0 0 0-.051.029c-.241.162-.357.405-.348.728.008.282.11.495.306.64ZM87.68 29.347c.09-.004.203-.004.335-.003.039 0 .059.02.059.058-.002.573-.001 1.132.003 1.677 0 .018.01.028.03.028.842.006 1.684.006 2.526 0 .02 0 .03-.01.03-.028.004-.545.005-1.109.004-1.692 0-.028.014-.043.044-.043h.294c.04 0 .06.02.06.057v4.181c0 .019-.01.028-.03.028h-.324c-.03 0-.044-.014-.044-.042v-2.034c0-.075-.04-.113-.118-.113-.825-.002-1.639 0-2.442.003-.02 0-.03.01-.03.029l-.007 2.112c0 .019-.01.03-.029.034a.809.809 0 0 1-.347 0c-.02-.004-.03-.015-.03-.034a146.362 146.362 0 0 1-.013-4.189c0-.019.009-.029.028-.03ZM97.753 29.345c.31.004.628.004.957 0 .03 0 .045.014.045.042v4.182c0 .025-.013.037-.04.039a6.62 6.62 0 0 1-.342.002c-.023 0-.035-.011-.034-.034.004-.609.005-1.21.003-1.802 0-.026-.014-.04-.042-.041a2.132 2.132 0 0 0-.33.005.064.064 0 0 0-.045.028c-.387.598-.77 1.198-1.147 1.803a.067.067 0 0 1-.045.03 1.31 1.31 0 0 1-.413 0c-.02-.002-.024-.01-.014-.026.379-.598.767-1.207 1.166-1.828.01-.016.005-.024-.014-.024a1.32 1.32 0 0 1-.88-.29.962.962 0 0 1-.372-.674 1.333 1.333 0 0 1 .062-.618 1.07 1.07 0 0 1 .678-.664c.261-.093.53-.137.807-.13Zm-.829 1.867c.087.07.186.117.298.138.309.06.663.078 1.064.056.028-.001.041-.015.041-.041v-1.642c0-.025-.013-.036-.038-.034-.169.017-.347.02-.536.009-.316-.035-.585.018-.807.158-.24.154-.35.393-.328.717.01.283.112.496.306.64ZM101.451 29.345h.353c.02 0 .03.009.03.028V31.3c0 .024.009.028.026.01.659-.64 1.305-1.285 1.939-1.934a.08.08 0 0 1 .05-.024c.163-.017.316-.017.46.003.019.002.022.01.009.023a252.02 252.02 0 0 0-2.071 2.015c-.014.014-.015.028-.001.042.701.715 1.398 1.429 2.093 2.14.023.024.018.035-.015.035h-.411a.182.182 0 0 1-.135-.056 675.546 675.546 0 0 0-1.915-1.978c-.017-.017-.026-.014-.026.01l-.007 1.993c0 .019-.01.028-.029.03a7.093 7.093 0 0 1-.361 0c-.032 0-.048-.015-.048-.046V29.4c0-.038.019-.056.059-.056ZM116.142 29.348c1.118-.006 2.235-.006 3.352 0 .02 0 .03.01.03.028.004 1.373.005 2.769.003 4.186 0 .032-.017.048-.051.048h-.332c-.029 0-.044-.014-.044-.042.005-1.262.005-2.514 0-3.757a.46.46 0 0 1 .004-.08c.018-.032.008-.048-.03-.048h-2.523c-.029 0-.044.015-.044.043v3.864c0 .014-.007.02-.021.02h-.325c-.034 0-.052-.016-.052-.048-.002-1.433 0-2.828.004-4.186 0-.019.01-.028.029-.028ZM135.247 29.345c.387-.007.764-.006 1.131.002.019 0 .029.01.029.03.005 1.373.006 2.768.004 4.185 0 .032-.017.048-.052.048h-.331c-.02 0-.03-.009-.03-.028.002-.611.001-1.213-.003-1.805 0-.018-.01-.03-.029-.034a.81.81 0 0 0-.348 0 .067.067 0 0 0-.044.03l-1.148 1.803a.06.06 0 0 1-.044.028 2.441 2.441 0 0 1-.399.003c-.028-.002-.035-.014-.02-.037.381-.593.765-1.195 1.152-1.805.012-.02.006-.03-.017-.033a7.39 7.39 0 0 1-.37-.067 1.097 1.097 0 0 1-.582-.318 1.01 1.01 0 0 1-.284-.618c-.036-.28.014-.537.151-.774.112-.194.268-.336.468-.427.229-.118.485-.179.766-.183Zm-.681 1.853c.091.079.195.13.313.152.306.06.65.08 1.033.057.047-.002.071-.025.072-.07.005-.551.001-1.089-.011-1.614 0-.02-.01-.028-.03-.028-.25-.007-.517-.006-.799.003-.324.003-.569.118-.733.342-.157.214-.191.475-.103.784.043.165.129.29.258.374Z"/></svg>