<svg xmlns="http://www.w3.org/2000/svg" width="176" height="48" fill="none"><path fill="#6E708C" d="M93.473 32.64V15.36h10.252v4.014h-5.977V32.64h-4.275ZM116.623 32.64v-6.767h-6.351v6.767h-4.275V15.36h4.275v6.449h6.351V15.36h4.275V32.64h-4.275ZM145.706 32.64V19.375h-4.993V15.36H155v4.014h-5.017V32.64h-4.277ZM134.422 32.638v-9.845l-6.805 9.845h-3.574V15.364h4.275v9.742l6.69-9.742h3.691v17.274h-4.277ZM68.907 32.64V22.37l-4.269 5.425-4.268-5.425V32.64h-4.274V15.36h4.219l4.323 5.941 4.325-5.94h4.218V32.64h-4.274ZM81.297 26.563h3.973l-1.987-5.418-1.986 5.418Zm6.2 6.074-.894-2.42h-6.646l-.895 2.42h-4.297l6.575-17.276h3.952l6.577 17.276h-4.371ZM22.995 18.872c.005-2.087.785-4.087 2.172-5.562 1.387-1.475 3.267-2.306 5.228-2.31H47.48v4.002h-17.08a3.547 3.547 0 0 0-2.568 1.138 4.019 4.019 0 0 0-1.07 2.732l-.023 6.717a4.032 4.032 0 0 1-.977 2.3 3.615 3.615 0 0 1-2.095 1.188l-.67.109V18.872ZM22.996 37v-4H40.08a3.55 3.55 0 0 0 2.568-1.14 4.021 4.021 0 0 0 1.071-2.733v-6.375a4.048 4.048 0 0 1 .885-2.52 3.613 3.613 0 0 1 2.207-1.31l.67-.107v10.311c-.003 2.087-.784 4.088-2.171 5.563-1.387 1.476-3.267 2.307-5.228 2.312H22.996Z"/><path fill="#6E708C" d="M37.469 29.2v-5.172l-2.228 2.83-2.226-2.83V29.2h-2.95V19.022h2.793l2.383 3.273 2.382-3.273h2.794V29.2h-2.948Z"/></svg>