<svg xmlns="http://www.w3.org/2000/svg" width="176" height="48" fill="none"><path fill="#6E708C" d="M102.33 25.47c-.157-.158-.314-.317-.571-.417-.209-.106-.518-.159-.832-.159h-.99v3.941h1.194c.209 0 .361-.053.57-.106.21-.052.361-.158.518-.317.157-.16.262-.365.361-.577.105-.264.105-.523.105-.894 0-.317-.052-.576-.105-.841a.899.899 0 0 0-.25-.63Z"/><path fill="#6E708C" d="M116.568 24c0 3.206 2.543 5.776 5.716 5.776 3.172 0 5.716-2.57 5.716-5.776s-2.544-5.776-5.716-5.776c-.833 0-1.613.158-2.288.47a1.825 1.825 0 0 1-.57.106c-.728 0-1.298-.63-1.298-1.365 0-.264.052-.47.209-.682a7.323 7.323 0 0 0 1.089-3.835c0-3.989-3.173-7.194-7.119-7.194-3.947 0-7.119 3.205-7.119 7.194 0 1.47.413 2.782 1.141 3.94.157.213.209.524.209.842 0 .841-.675 1.47-1.507 1.47-.21 0-.414-.052-.623-.158-1.089-.47-2.288-.788-3.533-.788-1.35 0-2.597.317-3.743.894a2.054 2.054 0 0 1-.78.159 1.87 1.87 0 0 1-1.869-1.889c0-.317.105-.63.21-.894a10.83 10.83 0 0 0 1.455-5.459C96.148 4.935 91.258 0 85.234 0 79.209 0 74.32 4.935 74.32 11.03c0 1.835.413 3.57 1.193 5.04.157.318.262.683.314 1.053.157 1.577-1.042 2.995-2.596 3.1-.57.053-1.14-.105-1.612-.317a14.811 14.811 0 0 0-6.805-1.682C56.601 18.224 50 24.894 50 33.135 50 41.377 56.6 48 64.756 48c8.155 0 14.704-6.67 14.704-14.859 0-2.835-.78-5.512-2.183-7.77a3.298 3.298 0 0 1-.414-1.206c-.157-1.577.99-2.994 2.544-3.153.518-.053.99.053 1.403.212 1.35.576 2.806.894 4.313.894a10.53 10.53 0 0 0 5.402-1.47c.262-.16.57-.213.885-.213a1.87 1.87 0 0 1 1.868 1.889c0 .317-.052.576-.21.788a8.443 8.443 0 0 0-.884 3.782c0 4.777 3.848 8.665 8.574 8.665 4.727 0 8.574-3.888 8.574-8.665 0-1.888-.57-3.623-1.612-5.041-.157-.265-.262-.524-.262-.841 0-.841.675-1.47 1.508-1.47.209 0 .361.052.518.105.832.365 1.717.524 2.701.524 1.193 0 2.287-.318 3.271-.789.21-.106.413-.106.623-.106.727.053 1.298.683 1.245 1.418a.88.88 0 0 1-.157.524c-.337.788-.599 1.73-.599 2.782Zm4.051-2.047h.832v2.676l1.665-2.676h.885v3.988h-.832v-2.676l-1.665 2.676h-.885v-3.988ZM70.006 38.335h-2.025v-7.14h-.053l-3.219 4.517-3.219-4.465v7.035h-2.025v-9.976h2.34l2.91 4.306 2.91-4.306h2.34v10.03h.041Zm18.086-23.63h-5.769v-7.67h5.664v1.418h-3.999v1.63h3.69v1.311h-3.69v1.888h4.104v1.424Zm15.798 13.39a3.18 3.18 0 0 1-.518 1c-.262.264-.518.523-.885.681-.361.16-.78.265-1.246.265h-2.648v-6.306h2.648c.414 0 .78.053 1.089.212.361.106.623.318.885.576.262.265.465.577.57.948.157.364.21.84.21 1.364.099.47.046.894-.105 1.26Zm10.443-13.76c-.105.265-.262.47-.414.63-.209.159-.413.317-.623.364a2.122 2.122 0 0 1-.832.16c-.361 0-.675-.054-.99-.213-.314-.105-.518-.317-.727-.523a1.962 1.962 0 0 1-.466-.788 3.07 3.07 0 0 1-.157-1c0-.365.052-.683.157-1 .105-.318.262-.577.466-.788.209-.212.466-.418.727-.524.315-.106.623-.212.99-.212.262 0 .518.053.728.106l.622.318c.21.159.361.317.466.523.105.212.21.47.21.736h-1.042c0-.106-.053-.212-.105-.318a.63.63 0 0 0-.262-.265c-.105-.053-.21-.159-.314-.159-.105-.053-.262-.053-.361-.053-.262 0-.413.053-.623.16-.157.105-.314.211-.413.364a1.624 1.624 0 0 0-.21.524c-.052.211-.052.417-.052.629 0 .212 0 .418.052.576.053.212.105.365.21.524.104.159.262.265.413.365.151.1.361.158.623.158.314 0 .57-.105.78-.317.209-.212.314-.47.314-.788h1.042c-.052.288-.105.6-.209.811Z"/></svg>