<svg width="100" height="19" fill="none" xmlns="http://www.w3.org/2000/svg">
    <path d="M26.086 3.485a1.969 1.969 0 0 1 .944.418c.357.332.64.763.85 1.292.942 2.385 1.884 4.769 2.823 7.153.028.07.05.068.067-.005.038-.122.09-.263.152-.421.85-2.124 1.687-4.255 2.513-6.393.101-.261.21-.51.324-.747.164-.349.38-.638.651-.866a1.881 1.881 0 0 1 1.097-.449c.511-.05.966.096 1.364.44.365.315.59.707.676 1.178.059.28.086.565.081.853.006 2.908.006 5.826 0 8.753 0 .017-.008.025-.023.025h-2.079c-.031 0-.047-.017-.047-.052.016-2.825.014-5.661-.008-8.509 0-.007-.016.014-.048.063-.067.189-.146.393-.236.612-.9 2.237-1.804 4.473-2.71 6.71a2.147 2.147 0 0 1-.502.746 1.72 1.72 0 0 1-1.373.52 1.671 1.671 0 0 1-.95-.378 2.55 2.55 0 0 1-.783-1.158 1.183 1.183 0 0 0-.024-.066c-.963-2.378-1.907-4.704-2.831-6.979-.03-.074-.046-.07-.046.011.007 2.84.007 5.626.001 8.359 0 .045-.021.068-.063.068h-2.04c-.028 0-.042-.016-.042-.047a928.845 928.845 0 0 1-.004-8.643c0-.104.006-.216.016-.338-.003-.533.133-.994.409-1.381.178-.251.383-.435.615-.551.384-.208.792-.28 1.226-.218ZM71.881 3.699c.973-.007 1.863.005 2.67.035a4.213 4.213 0 0 1 1.583.413c.411.186.775.455 1.093.809.348.38.606.837.773 1.373.214.672.327 1.377.34 2.114.01.741-.08 1.471-.271 2.19a3.856 3.856 0 0 1-.672 1.378 2.98 2.98 0 0 1-.935.804c-.382.222-.775.37-1.182.444-.724.132-1.544.184-2.46.157-.04 0-.06.021-.062.066-.004.329-.005.701-.003 1.117 0 .044-.02.065-.06.063-.356-.012-.72-.012-1.09.001a7.18 7.18 0 0 1-.967-.02c-.021-.001-.032-.014-.032-.038a60.698 60.698 0 0 1-.004-1.155c0-.03-.013-.044-.041-.043-.937.045-1.787-.008-2.553-.161a3.501 3.501 0 0 1-1.829-.96c-.443-.438-.76-1.014-.951-1.728a7.635 7.635 0 0 1-.243-1.724 7.9 7.9 0 0 1 .097-1.581c.076-.587.253-1.151.53-1.693.243-.474.591-.856 1.044-1.146a4.029 4.029 0 0 1 1.502-.609c.267-.05.575-.08.922-.089l2.801-.018Zm-4.018 7.254a.955.955 0 0 0 .282.223c.322.163.677.253 1.065.27.412.018.834.024 1.264.018.053 0 .08-.03.08-.089v-5.58c0-.057-.027-.087-.08-.088a17.91 17.91 0 0 0-1.669.033.487.487 0 0 0-.064.009c-.487.093-.873.367-1.16.821a.637.637 0 0 0-.034.06c-.26.507-.397 1.082-.409 1.724-.007.383-.002.739.016 1.067.025.316.105.607.24.875.123.267.279.487.469.657Zm7.583-4.735c-.312-.31-.67-.475-1.072-.494a23.32 23.32 0 0 0-1.54-.017c-.052 0-.079.03-.079.088-.006 1.801-.006 3.602 0 5.403 0 .102-.004.188-.014.258-.01.04.005.06.042.06.465.004.903-.002 1.316-.016a2.15 2.15 0 0 0 1.194-.395c.323-.235.546-.553.667-.956.12-.355.185-.716.194-1.084a.77.77 0 0 1 .004-.07 4.54 4.54 0 0 0-.185-1.916 2.082 2.082 0 0 0-.527-.861ZM59.983 4.978c.364.037.708.192 1.032.466.213.175.38.394.502.658.177.4.344.792.502 1.173a633.162 633.162 0 0 0 3.1 7.387c.015.033.005.05-.028.05-.73.005-1.461.007-2.194.004-.047 0-.079-.023-.097-.07-.224-.606-.455-1.221-.694-1.846-.026-.07-.074-.105-.143-.105a811.906 811.906 0 0 0-4.279-.005c-.086 0-.146.044-.18.131a43.257 43.257 0 0 0-.69 1.844c-.01.034-.033.051-.066.051h-2.204c-.045 0-.058-.022-.04-.067a681.254 681.254 0 0 0 3.44-8.214c.158-.385.364-.704.618-.955.422-.388.896-.556 1.421-.502Zm-.204 2.253c-.061-.01-.12.024-.177.105a.237.237 0 0 0-.031.06c-.292.798-.598 1.601-.92 2.411-.123.312-.242.631-.355.957-.008.026 0 .039.024.039.937.005 1.894.006 2.871.004.04 0 .051-.02.036-.06-.435-1.132-.872-2.265-1.313-3.4a.17.17 0 0 0-.135-.116ZM87.146 5.333c.256.063.51.17.76.32.457.242.834.581 1.13 1.017a3.6 3.6 0 0 1 .518 1.156c.15.6.232 1.197.247 1.79.01.726-.044 1.401-.162 2.026-.144.849-.496 1.54-1.056 2.075a3.16 3.16 0 0 1-1.275.75 5.849 5.849 0 0 1-1.554.32c-.758.054-1.514.048-2.267-.017a4.403 4.403 0 0 1-1.89-.609 2.63 2.63 0 0 1-.59-.471 3.549 3.549 0 0 1-.76-1.173 4.996 4.996 0 0 1-.353-1.444c-.098-.905-.082-1.8.048-2.683.056-.373.165-.74.328-1.098a3.043 3.043 0 0 1 1.21-1.497 3.714 3.714 0 0 1 1.538-.568c.317-.05.636-.091.955-.125a9.826 9.826 0 0 1 3.173.231Zm-4.52 6.882c.181.18.393.316.635.404.364.133.763.199 1.198.196.425-.002.781-.008 1.068-.018.546-.02 1.014-.193 1.405-.52.224-.182.38-.407.47-.675.174-.531.261-1.08.262-1.648a4.805 4.805 0 0 0-.23-1.542c-.143-.42-.384-.73-.721-.933a1.669 1.669 0 0 0-.554-.244c-.515-.123-1.1-.166-1.753-.129-.443.021-.858.094-1.242.218a1.65 1.65 0 0 0-.66.448 1.581 1.581 0 0 0-.392.707 5.59 5.59 0 0 0-.081 2.559c.087.49.285.882.595 1.177ZM40.768 5.138c1.986-.005 3.972-.005 5.957 0 .087 0 .13.047.13.142v1.848c0 .024-.01.036-.032.036h-5.247a.529.529 0 0 0-.19.035c-.077.029-.115.106-.116.231-.002.444-.002.905 0 1.384 0 .025.012.038.035.038h5.34c.034 0 .051.019.052.057a89.73 89.73 0 0 1-.004 1.81c0 .059-.028.088-.08.088-1.78-.003-3.55-.001-5.307.004-.021 0-.032.012-.032.036-.005.513-.006 1.053-.004 1.62 0 .108.05.165.148.17a.295.295 0 0 0 .114-.039c.02-.01.04-.014.062-.014 1.738-.017 3.48-.015 5.225.004.021 0 .032.012.032.036.007.642.007 1.285 0 1.928 0 .024-.01.036-.032.036-2.06.005-4.12.006-6.18.004-.022 0-.043 0-.065.003a1.255 1.255 0 0 1-.886-.256c-.378-.276-.568-.684-.57-1.222a307.886 307.886 0 0 1 0-6.504c.004-.49.165-.878.48-1.163a.406.406 0 0 1 .052-.042c.222-.154.47-.239.746-.252l.372-.018ZM49.805 5.195c2.07-.015 4.15-.017 6.237-.004.015 0 .023.009.024.025.024.608.025 1.262.003 1.963-.001.028-.014.042-.04.042-1.6-.007-3.202-.009-4.803-.004a3.66 3.66 0 0 0-.658.05c-.045.007-.068.037-.07.087-.011.14-.017.277-.017.414-.004 2.28-.004 4.56 0 6.842 0 .035-.016.053-.048.053-.757.006-1.443.001-2.056-.013-.024 0-.036-.014-.037-.04a416.66 416.66 0 0 1-.012-7.464c.001-.158.007-.295.016-.409a1.662 1.662 0 0 1 .247-.973c.167-.263.392-.43.676-.502.165-.045.344-.067.538-.067ZM99.995 5.269c.005 3.086.006 6.217.004 9.394 0 .035-.016.053-.049.053h-2.072c-.021 0-.032-.012-.032-.035v-3.768c0-.035-.016-.053-.049-.053h-4.273c-.043 0-.065.024-.065.071v3.732c0 .035-.016.053-.048.053h-2.079c-.043 0-.068-.023-.074-.07a3.38 3.38 0 0 1-.016-.32c.007-2.844.007-5.687 0-8.53-.001-.196.004-.38.014-.55.002-.025.014-.037.037-.037h2.134c.021 0 .032.012.032.036-.002 1.183 0 2.355.004 3.514 0 .024.01.035.032.035 1.433-.022 2.859-.022 4.278 0 .049 0 .073-.026.073-.08v-3.48c0-.016.008-.025.023-.025h2.072c.036 0 .054.02.054.06ZM9.443 0c.042-.001.062.019.061.06-.017.696-.02 1.398-.01 2.106a2546.82 2546.82 0 0 0-.003 7.215c0 .04-.021.06-.061.059a7.238 7.238 0 0 0-1.212.016.79.79 0 0 0-.579.342.58.58 0 0 0-.128.351 6.821 6.821 0 0 0-.018.551c.004 2.66.004 5.332 0 8.019 0 .022-.01.032-.033.03a5.123 5.123 0 0 1-.82-.19c-1.385-.453-2.581-1.146-3.587-2.08a9.873 9.873 0 0 1-1.096-1.19A9.52 9.52 0 0 1 .423 12.3a9.432 9.432 0 0 1 .265-6.326 9.437 9.437 0 0 1 1.666-2.732 8.98 8.98 0 0 1 1.255-1.19A9.16 9.16 0 0 1 7.153.3a10.537 10.537 0 0 1 2.29-.3Zm-.618 6.65c0-.31-.122-.606-.34-.825a1.156 1.156 0 0 0-1.639 0 1.168 1.168 0 0 0 0 1.648 1.156 1.156 0 0 0 1.64 0c.217-.219.339-.515.339-.824Z" fill="#6E708C"/>
    <path d="M10.746.073c.364.046.723.11 1.078.196 1.54.357 2.918 1.099 4.132 2.225a9.415 9.415 0 0 1 2.602 4.101c.292.919.44 1.89.442 2.914a9.305 9.305 0 0 1-1.184 4.603 9.745 9.745 0 0 1-1.15 1.635 9.432 9.432 0 0 1-1.802 1.6 9.023 9.023 0 0 1-3.146 1.386 9.047 9.047 0 0 1-2.656.252l-.398-.023c-.023-.002-.035-.015-.035-.038-.005-2.723-.007-5.466-.004-8.23 0-.042.02-.064.062-.066.306-.024.668-.03 1.086-.017.203.007.384-.03.544-.11.228-.123.341-.335.34-.636.013-.964.02-1.924.018-2.879-.003-2.278-.003-4.562 0-6.852 0-.048.024-.068.07-.06Zm.885 13.466c0-.31-.123-.608-.341-.827a1.16 1.16 0 0 0-1.646 0 1.174 1.174 0 0 0 0 1.655 1.16 1.16 0 0 0 1.987-.828Zm2.788-.005c0-.31-.122-.607-.34-.826a1.159 1.159 0 0 0-1.644 0 1.172 1.172 0 0 0 .822 1.995c.308 0 .604-.123.822-.342.218-.22.34-.517.34-.827Zm2.793 0a1.174 1.174 0 0 0-.718-1.08 1.157 1.157 0 0 0-1.52.632 1.174 1.174 0 0 0 .252 1.274 1.16 1.16 0 0 0 1.645 0c.218-.219.341-.516.341-.826Z" fill="#6E708C"/>
</svg>
