<svg width="43" height="41" fill="none" xmlns="http://www.w3.org/2000/svg">
    <path d="M10.697.033c.24.402.388.836.444 1.3.085.535.04 1.02-.13 1.456a3.302 3.302 0 0 0-.158.502c-.01.12.044.21.16.27.07.045.138.042.203-.011a.483.483 0 0 0 .11-.183c.228-.67.405-1.323.531-1.956.014-.074.038-.078.075-.011.302.554.35 1.088.143 1.602-.178.442-.485.84-.92 1.193-.12.1-.229.196-.325.288a.116.116 0 0 0-.037.057.605.605 0 0 0-.015.211.102.102 0 0 1-.017.066c-.04.06-.095.07-.165.027-.07-.04-.091-.123-.066-.247a.117.117 0 0 0-.039-.112 7.56 7.56 0 0 0-.383-.353c-.429-.355-.726-.761-.893-1.219a1.22 1.22 0 0 1-.076-.476c-.011-.42.093-.793.312-1.121.017-.025.028-.023.034.006.135.69.286 1.332.452 1.93.046.164.124.276.234.335.118.06.206.032.262-.086.056-.118.053-.255-.01-.41a3.71 3.71 0 0 1-.238-1.633c.04-.502.19-.977.449-1.426.021-.036.042-.036.063 0ZM32.427.038c.222.394.362.802.42 1.224.088.632.01 1.255-.235 1.87-.062.154-.06.277.004.369.094.128.204.147.33.057a.348.348 0 0 0 .135-.195c.182-.66.343-1.334.484-2.024.01-.052.03-.055.055-.008.143.25.233.5.273.75.075.425-.004.833-.239 1.224a3.93 3.93 0 0 1-1.022 1.1.277.277 0 0 0-.112.252c.01.127-.04.195-.15.202-.046.002-.076-.017-.09-.06a.6.6 0 0 1-.035-.217.173.173 0 0 0-.068-.148c-.454-.366-.795-.719-1.022-1.058a1.809 1.809 0 0 1-.293-.779c-.052-.41.031-.816.248-1.216.034-.066.058-.063.072.01.13.678.316 1.358.557 2.04a.26.26 0 0 0 .031.063c.104.152.22.149.35-.011.078-.095.08-.232.01-.41a3.47 3.47 0 0 1-.24-1.08 3.483 3.483 0 0 1 .452-1.955c.029-.05.057-.05.085 0Z" fill="#6E708C"/>
    <path d="M8.716 3.91c.38.252.741.552 1.086.899.357.36.637.779.838 1.255.03.07.06.07.09 0 .168-.398.4-.76.696-1.086.365-.402.783-.75 1.253-1.044.058-.036.082-.02.07.046a3.734 3.734 0 0 1-1.17 2.075c-.22.203-.46.4-.725.592a.085.085 0 0 0-.039.09c.017.106-.002.184-.057.235-.103.095-.168.079-.194-.05a1.166 1.166 0 0 1-.023-.226.063.063 0 0 0-.03-.056 5.817 5.817 0 0 1-.827-.7 3.64 3.64 0 0 1-1.038-1.986c-.011-.068.012-.082.07-.044ZM30.344 3.924c.372.242.706.502 1 .778.436.41.766.878.99 1.407.018.04.035.04.052 0 .184-.45.426-.84.727-1.166a6.165 6.165 0 0 1 1.225-1.03c.048-.032.068-.02.06.036-.117.788-.5 1.49-1.15 2.106a7.89 7.89 0 0 1-.701.588.102.102 0 0 0-.045.097.323.323 0 0 1-.057.232c-.074.092-.138.087-.19-.018a.278.278 0 0 1-.028-.206c.013-.042 0-.077-.036-.102a6.126 6.126 0 0 1-.973-.84 3.504 3.504 0 0 1-.916-1.856c-.006-.039.008-.048.042-.026ZM18.105 5.872c.041.001.051.02.03.055a4.942 4.942 0 0 1-.214.28.66.66 0 0 0-.176.573c.03.185.155.334.379.445.736.4 1.447.838 2.133 1.313.334.232.657.489.97.771.036.032.039.066.01.104a5.12 5.12 0 0 1-.333.385c-.022.023-.045.024-.07.004a14.625 14.625 0 0 0-1.975-1.398l-1.723-1.012a.181.181 0 0 1-.095-.167c.003-.315.001-.587-.003-.814a.05.05 0 0 0-.034-.05.298.298 0 0 0-.158-.01c-.023.005-.035.018-.035.042-.02 2.745-.027 5.454-.023 8.128 0 .038.017.066.051.085.057.031.1.033.127.003a.2.2 0 0 0 .057-.142c.003-2.294.01-4.522.022-6.686 0-.071.034-.091.099-.06.477.244.967.516 1.471.817.71.424 1.393.903 2.05 1.44.025.02.027.043.006.068-.102.12-.217.253-.347.396-.025.028-.053.03-.082.006a16.356 16.356 0 0 0-2.418-1.633c-.038-.021-.057-.01-.057.032-.004 1.717-.012 3.461-.022 5.232a.588.588 0 0 1-.005.07c-.038.325.077.6.343.824.096.08.08.12-.045.12a19.854 19.854 0 0 0-1.448 0 9.71 9.71 0 0 1-.704 0c-.051-.005-.061-.028-.03-.069a2.62 2.62 0 0 0 .26-.327c.065-.129.096-.282.095-.458.005-2.398.015-4.794.032-7.187 0-.062-.004-.14-.014-.236a.759.759 0 0 0-.112-.548 9.7 9.7 0 0 0-.239-.326c-.029-.045-.016-.069.038-.07a27.817 27.817 0 0 1 2.189 0ZM27.145 5.873c.058.001.072.026.04.074-.031.052-.07.102-.116.153-.195.21-.279.442-.252.698a.707.707 0 0 1 .003.071c.005 2.451.005 4.914 0 7.388 0 .205.055.376.167.511l.208.24c.032.044.02.066-.033.068-.727.029-1.427.03-2.101.003-.152-.006-.171-.059-.059-.16a.85.85 0 0 0 .289-.658c-.001-.06.004-.139.014-.236-.02-1.669-.027-3.385-.023-5.148 0-.055-.024-.07-.073-.042a18.399 18.399 0 0 0-2.402 1.608c-.019.015-.037.014-.056-.001a2.224 2.224 0 0 1-.348-.368c-.037-.05-.03-.095.019-.134A19.045 19.045 0 0 1 25.89 7.73c.088-.043.132-.017.132.08l.004 6.359c0 .13.007.246.02.351a.096.096 0 0 0 .028.062c.04.042.092.04.154-.005a.068.068 0 0 0 .029-.057c0-2.705-.006-5.408-.018-8.108a.056.056 0 0 0-.032-.053c-.019-.01-.055-.011-.108-.005-.05.006-.073.033-.073.082.006.346.002.615-.013.806a.192.192 0 0 1-.1.158c-.284.184-.573.356-.865.516A19.683 19.683 0 0 0 22.26 9.77c-.056.045-.107.041-.154-.013a7.229 7.229 0 0 1-.262-.31c-.048-.062-.042-.118.017-.169.455-.401.949-.77 1.48-1.105.572-.36 1.142-.7 1.71-1.023a.548.548 0 0 0 .252-.459.693.693 0 0 0-.14-.431 8.762 8.762 0 0 0-.224-.296c-.05-.059-.036-.089.041-.09.809-.015 1.53-.016 2.164-.001Z" fill="#6E708C"/>
    <path d="M8.692 6.103c.454.306.853.652 1.2 1.038.296.33.534.714.716 1.153.027.063.053.063.08 0 .18-.437.44-.833.782-1.189a6.351 6.351 0 0 1 1.16-.95c.065-.042.091-.025.076.051-.1.565-.316 1.07-.649 1.514a4.783 4.783 0 0 1-1.2 1.13c-.08.054-.107.113-.081.178.045.102.012.166-.098.192-.1.023-.154-.02-.164-.13a1.74 1.74 0 0 1-.009-.161.1.1 0 0 0-.038-.056 8.28 8.28 0 0 1-.607-.508c-.691-.636-1.104-1.376-1.238-2.219-.011-.07.012-.084.07-.043ZM34.416 6.146c-.123.8-.503 1.51-1.14 2.125a6.22 6.22 0 0 1-.684.577.063.063 0 0 0-.03.055c-.002.05-.009.12-.022.21-.017.106-.075.146-.176.12-.083-.026-.116-.097-.097-.215a.167.167 0 0 0-.075-.173c-.682-.466-1.184-1.001-1.506-1.606a3.107 3.107 0 0 1-.343-1.068c-.009-.052.01-.063.053-.034.389.26.738.537 1.047.835.4.384.71.838.93 1.361.013.031.026.031.04 0 .169-.417.393-.791.672-1.121a5.86 5.86 0 0 1 1.266-1.105c.052-.036.073-.023.065.039Z" fill="#6E708C"/>
    <path d="M34.433 8.32c-.095.739-.412 1.402-.95 1.99-.26.282-.546.54-.857.774a.12.12 0 0 0-.052.12c.024.147-.005.234-.088.258-.1.029-.154-.037-.164-.197a.247.247 0 0 0-.111-.208 5.278 5.278 0 0 1-1.083-.997 3.275 3.275 0 0 1-.742-1.66c-.008-.06.012-.073.063-.037.323.222.597.432.823.629a4.06 4.06 0 0 1 1.139 1.575c.011.028.023.028.034 0 .189-.479.447-.9.776-1.263.352-.39.743-.726 1.171-1.008.033-.023.046-.015.04.024ZM8.669 8.31c.38.253.737.554 1.07.905.35.37.63.805.84 1.307.012.028.032.035.06.024a.385.385 0 0 0 .037-.077c.154-.387.377-.737.668-1.05a6.146 6.146 0 0 1 1.254-1.04c.048-.031.068-.019.06.037a3.403 3.403 0 0 1-.723 1.622 5.09 5.09 0 0 1-1.12 1.034.194.194 0 0 0-.089.194c.013.109-.026.169-.118.18a.1.1 0 0 1-.109-.057.347.347 0 0 1-.028-.213.07.07 0 0 0-.028-.07c-.515-.394-.92-.798-1.214-1.21a3.282 3.282 0 0 1-.614-1.555c-.006-.05.012-.06.054-.032ZM21.638 9.633c.11.064.217.165.317.303.035.048.031.092-.01.133l-.385.379c-.025.024-.049.024-.072-.001a7.758 7.758 0 0 0-.4-.406c-.024-.021-.026-.045-.007-.07.126-.167.24-.28.344-.339a.201.201 0 0 1 .213 0ZM22.197 10.202c.097.097.187.198.27.303.097.122.105.252.023.387-.065.109-.16.225-.281.35-.026.024-.049.022-.069-.007a5.248 5.248 0 0 0-.41-.518c-.024-.026-.025-.053-.003-.08.065-.066.131-.136.2-.212.055-.062.126-.137.212-.225.02-.017.04-.017.058.002ZM20.914 10.218c.107.073.244.212.412.42.024.03.024.06-.002.09-.134.152-.274.316-.417.492-.015.02-.032.021-.052.007a.952.952 0 0 1-.337-.444.168.168 0 0 1-.01-.069c.007-.098.07-.206.191-.324a2.52 2.52 0 0 0 .156-.17c.02-.015.04-.015.059-.002Z" fill="#6E708C"/>
    <path d="M12.566 10.498a3.19 3.19 0 0 1-.613 1.712 5.45 5.45 0 0 1-1.086 1.121.058.058 0 0 0-.023.058.685.685 0 0 1-.01.209c-.016.098-.074.126-.173.085-.082-.038-.114-.101-.098-.189.01-.085-.027-.156-.112-.212a9.243 9.243 0 0 1-.65-.534 4.068 4.068 0 0 1-1.263-2.138c-.005-.026.003-.032.026-.019.453.262.874.592 1.264.991.343.351.61.743.798 1.177.028.063.054.063.078-.002.165-.474.402-.892.712-1.255a6.73 6.73 0 0 1 1.118-1.02c.023-.017.033-.012.032.017ZM30.607 10.56c.239.173.481.384.728.63a4.05 4.05 0 0 1 1.003 1.58c.02.06.044.062.071.003.184-.415.422-.78.712-1.093.387-.416.83-.775 1.332-1.077.034-.021.047-.012.04.027a3.517 3.517 0 0 1-.911 1.789 6.72 6.72 0 0 1-.984.863.26.26 0 0 0-.112.218c-.001.143-.067.205-.199.187-.106-.015-.136-.068-.09-.16.046-.093.014-.18-.095-.263-.164-.14-.326-.289-.487-.445-.591-.576-.972-1.302-1.14-2.178-.025-.135.02-.163.132-.082ZM21.555 10.887c.189.194.332.375.43.544a.05.05 0 0 1-.003.06 1.65 1.65 0 0 1-.25.274c-.128.108-.255.11-.383.004a1.338 1.338 0 0 1-.28-.29.05.05 0 0 1 .002-.06c.107-.163.248-.34.422-.531.02-.022.041-.023.062-.001Z" fill="#6E708C"/>
    <path d="M20.352 11.067c.094.081.212.206.352.373.022.026.023.053.004.08-.495.737-.92 1.547-1.271 2.43a3.23 3.23 0 0 0-.13.38c-.013.068.015.103.086.103 1.387.012 2.69.019 3.909.02.11 0 .242-.008.393-.023.049-.006.066-.032.05-.079a10.84 10.84 0 0 0-1.368-2.792c-.034-.05-.032-.1.007-.148.144-.178.25-.295.319-.35.043-.036.08-.03.113.014.383.533.715 1.112.995 1.736.235.52.457 1.06.668 1.62.054.14.096.29.126.445.014.103-.03.168-.13.197a.865.865 0 0 1-.199.02c-1.81-.017-3.62-.017-5.43 0-.153.002-.259-.015-.32-.049a.21.21 0 0 1-.073-.25c.187-.533.376-1.028.569-1.485a12.61 12.61 0 0 1 1.203-2.226c.036-.052.078-.058.127-.016Z" fill="#6E708C"/>
    <path d="m20.928 11.684.345.397c.041.049.045.1.01.153a7.664 7.664 0 0 0-.706 1.291c-.009.022-.001.033.023.033.575.005 1.177.007 1.806.004.067 0 .086-.03.059-.09a9.816 9.816 0 0 0-.687-1.242.115.115 0 0 1 .004-.142c.09-.122.206-.254.348-.395.024-.023.044-.021.063.007.487.74.908 1.564 1.264 2.471.01.024.001.037-.026.037l-3.787-.01c-.024 0-.032-.01-.024-.033.298-.851.716-1.677 1.255-2.478.016-.024.034-.025.053-.003ZM12.5 12.51c.071-.074.11-.06.116.043.043.849-.152 1.596-.586 2.242-.141.21-.295.42-.46.632a.308.308 0 0 0-.072.24c.014.173-.026.253-.118.24-.102-.013-.157-.103-.167-.27a.103.103 0 0 0-.06-.087 5.932 5.932 0 0 1-1.523-1.03 3.765 3.765 0 0 1-.948-1.364c-.022-.053-.007-.067.046-.043.425.197.81.41 1.155.64.46.307.88.717 1.261 1.228.028.04.047.035.055-.012.044-.343.14-.68.29-1.01a4.762 4.762 0 0 1 1.01-1.448ZM30.51 12.486c.404.388.73.831.979 1.33.185.373.3.761.346 1.165.008.052.027.056.057.013.274-.396.596-.738.968-1.027a6.553 6.553 0 0 1 1.475-.855c.044-.02.058-.007.04.038-.196.512-.49.957-.883 1.334a5.34 5.34 0 0 1-1.548 1.046.168.168 0 0 0-.095.107c-.067.209-.149.292-.246.25a.082.082 0 0 1-.046-.048.28.28 0 0 1-.002-.199.154.154 0 0 0-.03-.16 5.477 5.477 0 0 1-.749-1.085c-.276-.539-.39-1.165-.341-1.88.004-.066.029-.075.075-.03Z" fill="#6E708C"/>
    <path d="M30.075 14.38c.414.6.658 1.24.733 1.924.021.2.018.46-.01.78-.003.034.009.04.034.016.276-.259.552-.476.828-.65a6.812 6.812 0 0 1 2.013-.845c.04-.01.048.002.027.037-.336.544-.769.98-1.3 1.307a5.475 5.475 0 0 1-1.606.658c-.09.022-.145.074-.165.155a.257.257 0 0 1-.122.162c-.07.04-.127.017-.168-.072-.026-.053-.01-.118.046-.195a.11.11 0 0 0 .003-.12 3.945 3.945 0 0 1-.573-1.714c-.047-.535.028-1.016.226-1.44.009-.022.02-.023.034-.003ZM13.018 14.386c.137.378.21.744.216 1.099.005.28-.019.535-.072.765-.107.424-.27.843-.492 1.26a.145.145 0 0 0-.006.134c.072.175.051.274-.061.297-.078.016-.143-.05-.195-.198a.19.19 0 0 0-.155-.13 4.358 4.358 0 0 1-1.811-.744 3.717 3.717 0 0 1-1.114-1.26c-.01-.016-.005-.021.013-.017.308.086.601.18.88.284.736.274 1.388.67 1.954 1.19.074.067.102.052.083-.045-.069-.387-.038-.816.092-1.287.126-.456.334-.907.624-1.353.017-.026.032-.024.044.005Z" fill="#6E708C"/>
    <path d="M13.85 16.17c.007-.015.014-.016.023-.002.448.695.638 1.434.57 2.218a4.969 4.969 0 0 1-.172.927.071.071 0 0 0 .013.063.77.77 0 0 1 .1.207c.028.08-.005.13-.098.151-.075.015-.13-.01-.166-.078-.051-.096-.118-.152-.2-.166l-.672-.138a5.522 5.522 0 0 1-2.691-1.381c-.02-.019-.016-.026.01-.023a7.473 7.473 0 0 1 1.675.331 5.598 5.598 0 0 1 1.475.726c.056.037.072.024.048-.038a3.181 3.181 0 0 1-.242-1.346c.026-.515.135-.998.328-1.451ZM29.208 16.178c.14.376.235.756.283 1.14a3.62 3.62 0 0 1-.19 1.624c-.023.067-.005.081.055.042.876-.577 1.91-.92 3.1-1.03.025-.003.03.005.013.024a4.186 4.186 0 0 1-1.824 1.21 5.895 5.895 0 0 1-1.511.303.178.178 0 0 0-.068.02.539.539 0 0 0-.187.181.089.089 0 0 1-.055.037c-.12.027-.175-.022-.163-.146a.087.087 0 0 1 .031-.059c.09-.079.122-.161.095-.248a3.721 3.721 0 0 1-.18-1.53 3.46 3.46 0 0 1 .565-1.57c.015-.023.026-.022.036.002Z" fill="#6E708C"/>
    <path d="M15.155 17.852c.57.558.908 1.206 1.016 1.945.059.411.074.764.044 1.06-.001.059.04.107.123.143.092.052.103.117.031.195-.078.084-.156.075-.232-.027a.182.182 0 0 0-.149-.078 10.399 10.399 0 0 1-1.559-.145 5.322 5.322 0 0 1-2.122-.865c-.02-.014-.017-.021.007-.023a7.87 7.87 0 0 1 2.273.216c.34.083.67.21.988.378l.083.05c.034-.007.042-.025.023-.054-.522-.826-.713-1.753-.573-2.78.004-.038.02-.043.046-.015ZM27.953 17.96c.05.33.05.698.004 1.103a2.99 2.99 0 0 1-.365 1.188l-.221.396c-.026.056-.012.07.043.04a5.183 5.183 0 0 1 1.535-.52 9.558 9.558 0 0 1 1.753-.125c.066.002.072.021.016.057-.446.292-.897.51-1.354.655a7.037 7.037 0 0 1-2.231.32.25.25 0 0 0-.199.09c-.092.104-.169.123-.232.055-.095-.102-.08-.188.042-.256.091-.051.123-.111.094-.18a.208.208 0 0 1-.015-.07c-.062-1.003.27-1.933.997-2.79.072-.084.116-.072.133.038Z" fill="#6E708C"/>
    <path d="M16.768 19.276c.658.483 1.127 1.042 1.405 1.678.136.309.227.616.275.921.02.13.093.244.216.343.063.046.075.103.038.17-.049.083-.114.095-.195.035a.542.542 0 0 0-.18-.098c-.328.037-.66.065-.997.084a5.908 5.908 0 0 1-2.818-.517c-.067-.03-.065-.052.008-.066.33-.07.713-.113 1.15-.129a7.3 7.3 0 0 1 2.148.233c.066.016.076 0 .03-.05a4.255 4.255 0 0 1-1.114-2.586c-.002-.03.01-.036.034-.018ZM26.277 19.273c.018-.012.026-.008.024.013a4.215 4.215 0 0 1-1.086 2.57c-.059.066-.045.09.043.068a7.16 7.16 0 0 1 1.49-.227c.6-.028 1.194.014 1.782.127.072.012.075.034.009.064-.764.36-1.595.54-2.495.539-.444 0-.865-.03-1.263-.089-.096-.012-.17.01-.223.068-.063.072-.127.073-.192.003-.07-.075-.035-.165.104-.27a.29.29 0 0 0 .116-.192 3.779 3.779 0 0 1 1.003-2.07c.219-.232.448-.433.688-.604Z" fill="#6E708C"/>
    <path d="M18.694 20.245a4.665 4.665 0 0 1 2.346 2.785c.007.022.02.025.037.009a.987.987 0 0 1 .208-.145c.205-.11.42-.063.647.141.04.034.067.026.082-.023a4.415 4.415 0 0 1 1.013-1.764c.38-.415.82-.75 1.316-1.008.041-.022.055-.011.041.033-.1.324-.215.625-.347.904a4.573 4.573 0 0 1-1.34 1.666c-.079.061-.068.085.032.069a5.775 5.775 0 0 1 2.016.031c.456.088.907.213 1.354.374.041.015.041.03-.001.042a5.761 5.761 0 0 1-2.056.26c-.556-.028-1.175-.146-1.857-.353-.055-.016-.088.004-.097.06-.02.118-.049.221-.085.31-.01.022-.002.036.02.043.336.08.64.216.914.408.479.337.782.804.91 1.4.012.054-.01.078-.065.072a2.289 2.289 0 0 1-1.035-.36 2.228 2.228 0 0 1-.973-1.274c-.007-.023-.022-.03-.045-.023a.72.72 0 0 1-.337.015c-.071-.013-.119.014-.143.08a2.187 2.187 0 0 1-.473.797 2.246 2.246 0 0 1-1.524.763c-.048.005-.066-.016-.056-.062.108-.493.345-.906.71-1.239.3-.275.668-.463 1.104-.565.034-.009.044-.03.03-.061a.637.637 0 0 1-.066-.277c.002-.083-.036-.111-.116-.087a6.938 6.938 0 0 1-1.796.354 5.427 5.427 0 0 1-2.097-.263c-.044-.013-.044-.028-.002-.044a6.763 6.763 0 0 1 2.478-.477c.326 0 .632.023.919.072.066.007.073-.01.02-.05a4.704 4.704 0 0 1-1.115-1.218 5.259 5.259 0 0 1-.597-1.375c-.007-.026.001-.033.026-.02ZM11.263 29.094c-.005.069-.02.144-.045.226-.16.523-.312 1.033-.46 1.532a.125.125 0 0 1-.036.059c-.056.05-.095.055-.12.019a.102.102 0 0 1-.018-.066 1.158 1.158 0 0 0-.15-.779c-.072-.115-.19-.176-.357-.182a7.585 7.585 0 0 0-1.15-.031c-.17.008-.262.095-.276.263a4.66 4.66 0 0 0 .018.974c.003.024.017.035.04.034.205-.01.444-.009.718.006.276.015.476-.072.6-.262.04-.067.08-.123.118-.17.056-.039.081-.02.076.058-.109.489-.25.933-.424 1.334a.17.17 0 0 1-.04.058c-.056.054-.082.035-.077-.056.012-.224-.05-.347-.185-.37-.328-.056-.596-.053-.805.008-.023.006-.035.022-.036.045-.014.56-.021 1.242-.02 2.043 0 .181.015.334.047.46a.08.08 0 0 0 .043.05c.08.038.188.058.324.06.37.01.683.003.938-.018.296-.025.541-.169.736-.432.212-.28.385-.574.518-.884a.083.083 0 0 1 .047-.046c.048-.02.066-.006.053.045-.18.71-.383 1.404-.607 2.08a.048.048 0 0 1-.047.036c-.036.002-.078-.028-.124-.09a.067.067 0 0 0-.057-.028c-1.062.001-2.12-.006-3.17-.022a.258.258 0 0 1-.072-.011c-.068-.022-.067-.054.004-.096a.167.167 0 0 1 .067-.022c.21-.024.33-.112.355-.264a.43.43 0 0 0 .006-.07c.014-1.626.014-3.264 0-4.913-.001-.164-.075-.258-.22-.28a1.377 1.377 0 0 1-.217-.054c-.049-.03-.05-.06-.005-.09a.146.146 0 0 1 .067-.017c1.123-.014 2.258-.015 3.406-.004.157.001.333-.045.53-.138.004-.002.007 0 .007.005ZM12.351 29.13c.04.063.081.095.125.097 1.107.023 2.22.029 3.338.018.141-.002.245-.033.311-.094.056-.069.096-.06.12.023.21.648.378 1.282.508 1.904.009.043-.028.054-.112.031a.13.13 0 0 1-.054-.042c-.056-.094-.129-.22-.218-.376a1.49 1.49 0 0 0-.523-.57 1.913 1.913 0 0 0-.88-.289c-.093-.008-.141.034-.144.127a31.36 31.36 0 0 0-.018 1.795c.005.297.005.593 0 .89a21.68 21.68 0 0 0 0 1.585c.004.113.015.227.032.342.016.17.096.281.239.334.073.027.138.058.194.093.05.043.04.065-.032.067-.59.015-1.168.015-1.732.001a.22.22 0 0 1-.07-.013c-.067-.023-.07-.053-.01-.089a.158.158 0 0 1 .066-.023.355.355 0 0 0 .32-.25c.039-.15.057-.322.055-.516-.017-1.382-.017-2.79 0-4.223 0-.088-.045-.133-.135-.136a1.764 1.764 0 0 0-1.07.287c-.235.15-.421.363-.56.641-.07.129-.137.241-.201.338a.119.119 0 0 1-.058.038c-.084.027-.113-.011-.087-.113.159-.63.326-1.248.501-1.853.018-.063.05-.07.095-.024ZM2.084 29.227c.15 0 .164.044.042.13a.805.805 0 0 1-.119.061c-.053.024-.067.062-.042.114.12.231.255.468.407.71.299.472.594.947.886 1.426.013.022.027.022.04 0 .404-.64.82-1.32 1.25-2.04.048-.08.037-.151-.034-.213a.624.624 0 0 0-.155-.09.063.063 0 0 1-.04-.048c-.006-.033.036-.05.128-.05a16.801 16.801 0 0 1 1.877.018c.054.003.052.031-.005.084a2.657 2.657 0 0 0-.212.076c-.137.062-.21.18-.216.356a5.876 5.876 0 0 0-.018.463c-.005.772 0 1.532.017 2.278 0 .024 0 .047-.002.071-.05.672-.049 1.355.003 2.047.012.165.137.273.374.325.095.024.118.056.07.098a.112.112 0 0 1-.065.024c-.575.02-1.142.022-1.7.004a.21.21 0 0 1-.07-.015c-.05-.02-.046-.05.012-.09a.156.156 0 0 1 .065-.027c.223-.038.346-.156.371-.354a.59.59 0 0 0 .005-.072v-4.36c0-.056-.015-.06-.044-.013-.57.931-1.151 1.883-1.743 2.855-.017.027-.033.027-.05 0-.532-.854-1.069-1.719-1.61-2.595-.033-.052-.05-.047-.05.014-.013 1.357-.015 2.73-.004 4.117.002.223.118.358.347.406.095.02.13.048.109.084a.064.064 0 0 1-.054.033c-.577.034-1.156.038-1.737.013a.112.112 0 0 1-.065-.024c-.058-.044-.05-.074.025-.089.23-.047.365-.166.407-.357a.316.316 0 0 0 .008-.07c.007-1.57.007-3.14 0-4.709a.49.49 0 0 0-.005-.07c-.026-.189-.16-.316-.402-.383-.093-.026-.11-.06-.05-.103a.193.193 0 0 1 .068-.014 75.572 75.572 0 0 1 1.98-.021ZM17.546 29.227c.845.043 1.68.048 2.508.018.318-.012.605.043.862.164.272.136.455.335.55.597.09.243.109.49.054.738a1.59 1.59 0 0 1-.365.78c-.2.23-.397.41-.59.54-.025.017-.03.038-.015.063.348.605.68 1.2.997 1.786.134.247.279.485.433.712.12.161.294.268.524.32.084.022.111.053.082.093a.081.081 0 0 1-.06.029c-.605.028-1.194.028-1.768 0a.085.085 0 0 1-.06-.028c-.04-.04-.024-.072.046-.094.121-.037.198-.074.23-.11a.226.226 0 0 0 0-.23c-.36-.656-.7-1.283-1.022-1.88-.063-.117-.157-.153-.282-.108-.372.134-.716.278-1.032.431a.22.22 0 0 0-.135.214c-.01.42-.01.83 0 1.234.006.244.126.392.36.445.086.02.122.046.108.078a.053.053 0 0 1-.05.036c-.585.038-1.168.04-1.75.008a.095.095 0 0 1-.061-.027c-.028-.026-.031-.044-.01-.055.113-.063.213-.109.3-.14a.13.13 0 0 0 .057-.04.552.552 0 0 0 .107-.359c.001-1.565 0-3.118-.004-4.66a.377.377 0 0 0-.006-.07c-.028-.16-.156-.276-.382-.347-.108-.034-.126-.072-.054-.116.115-.022.258-.03.428-.022Zm3.036.939a.801.801 0 0 0-.42-.103c-.462.003-.95.003-1.464 0-.1 0-.154.05-.163.148-.046.53-.05 1.166-.014 1.908.003.05.028.067.076.05a6.42 6.42 0 0 0 1.678-.926c.265-.205.414-.437.447-.699.021-.182-.025-.308-.14-.378ZM28.396 29.227c.993.014 1.977.02 2.953.018.369-.001.686.095.952.289.265.197.41.464.433.8.053.456-.073.85-.379 1.185a4.747 4.747 0 0 1-1.832 1.219 5.93 5.93 0 0 0-.689.304.24.24 0 0 0-.145.232c-.015.423-.015.842 0 1.257.008.221.137.358.386.41.036.008.059.03.068.065.014.038-.017.058-.093.06a44.62 44.62 0 0 1-1.696 0 .09.09 0 0 1-.062-.025c-.048-.044-.028-.078.062-.1.26-.064.391-.202.393-.414a133.45 133.45 0 0 0 0-4.726c-.005-.232-.125-.374-.361-.427-.094-.023-.131-.05-.112-.08a.13.13 0 0 1 .122-.067Zm3.318.903a1.322 1.322 0 0 0-.401-.067c-.507-.014-1-.008-1.48.018-.08.008-.123.052-.126.133-.02.584-.026 1.227-.016 1.93 0 .04.02.052.056.038a6.047 6.047 0 0 0 1.778-.984c.226-.182.354-.395.383-.636.03-.205-.035-.349-.194-.432ZM38.769 29.249c.58-.007 1.16-.007 1.741 0a.09.09 0 0 1 .063.024c.049.044.03.076-.059.096-.198.043-.317.134-.356.271a2.69 2.69 0 0 0-.04.53c.02 1.14.02 2.279 0 3.418a2.77 2.77 0 0 0 .03.517c.021.099.084.152.186.16.266.009.591.015.974.017.384.014.695-.088.934-.307.209-.19.367-.42.474-.69.068-.147.134-.265.199-.355.08-.098.103-.087.071.035-.194.747-.393 1.488-.596 2.224-.026.094-.057.096-.094.005-.033-.065-.11-.096-.23-.093-1.117.026-2.217.02-3.302-.016a.109.109 0 0 1-.064-.024c-.046-.036-.025-.065.064-.085.222-.05.352-.168.39-.356a.441.441 0 0 0 .009-.07c.011-.765.01-1.542-.002-2.333a41.45 41.45 0 0 1 .018-2.029 2.151 2.151 0 0 0-.065-.585.185.185 0 0 0-.034-.06c-.068-.08-.18-.142-.338-.187-.074-.022-.087-.051-.04-.089a.128.128 0 0 1 .067-.018ZM25.114 35.118c-.695 0-1.36-.307-1.852-.854a3.093 3.093 0 0 1-.767-2.063c0-.774.276-1.516.767-2.063.491-.547 1.157-.854 1.852-.854.695 0 1.36.307 1.852.854.491.547.767 1.29.767 2.063 0 .774-.276 1.516-.767 2.063-.491.547-1.157.854-1.852.854Zm-.77-.85c.247.2.543.288.889.263.231-.017.44-.095.627-.235.22-.157.388-.37.505-.641.254-.591.341-1.273.261-2.047a3.138 3.138 0 0 0-.333-1.166 1.113 1.113 0 0 0-.641-.525 1.8 1.8 0 0 0-.857-.054 1.16 1.16 0 0 0-.74.41c-.198.24-.329.532-.392.876-.086.465-.11.957-.072 1.478.032.322.103.62.212.894.127.31.308.56.541.748ZM35.651 35.118c-.693 0-1.358-.308-1.848-.855a3.1 3.1 0 0 1-.766-2.063 3.1 3.1 0 0 1 .766-2.064c.49-.548 1.155-.855 1.848-.855.693 0 1.358.307 1.848.855a3.1 3.1 0 0 1 .766 2.064 3.1 3.1 0 0 1-.766 2.063c-.49.547-1.155.855-1.848.855Zm-.842-.903c.148.14.331.239.55.294.25.07.505.052.767-.053.257-.09.462-.257.613-.499.286-.457.432-.978.438-1.562a5.482 5.482 0 0 0-.145-1.495 1.478 1.478 0 0 0-.31-.619c-.28-.32-.663-.47-1.151-.449-.48.02-.845.218-1.096.592-.15.258-.248.548-.293.868-.091.643-.08 1.25.031 1.82.104.46.302.829.596 1.103ZM11.013 38.126c.026.01.04.028.039.056a5 5 0 0 1-.045.644.067.067 0 0 1-.038.051.43.43 0 0 1-.22.031c-.024-.001-.039-.014-.042-.037a3.037 3.037 0 0 1-.035-.46c0-.035-.018-.059-.053-.07-.258-.097-.563-.114-.917-.05-.14.026-.22.14-.242.34a.331.331 0 0 0 .08.27c.07.09.177.158.32.205.155.058.301.105.438.138.302.059.555.178.757.356.129.113.193.25.194.414.024.253-.034.456-.176.61a.742.742 0 0 1-.401.226 2.683 2.683 0 0 1-1.6-.086.058.058 0 0 1-.042-.058 3.874 3.874 0 0 1 .051-.742c.005-.023.02-.036.044-.038.069-.005.138-.005.208 0 .024.002.036.015.037.039.012.218.03.387.055.508.004.023.017.04.04.05.246.111.594.128 1.043.05a.281.281 0 0 0 .173-.098c.105-.105.137-.24.095-.404-.05-.197-.217-.329-.5-.395a3.616 3.616 0 0 1-.998-.406.589.589 0 0 1-.262-.346.634.634 0 0 1 .037-.49c.128-.261.368-.41.717-.45.45-.049.864-.002 1.243.142ZM18.8 38.13c.044.016.066.048.064.096l-.019.666c-.002.069-.037.11-.105.121a.587.587 0 0 1-.153.016.05.05 0 0 1-.041-.043 7.595 7.595 0 0 1-.074-.51.17.17 0 0 0-.138-.159 2.14 2.14 0 0 0-.643-.048.845.845 0 0 0-.456.16.262.262 0 0 0-.047.053c-.185.286-.27.63-.255 1.034.01.446.18.777.51.992a.806.806 0 0 0 .536.129c.312-.019.559-.106.742-.264.028-.025.057-.026.088-.002.11.083.117.161.023.235a1.573 1.573 0 0 1-.907.316c-.362.018-.67-.07-.924-.263-.306-.242-.479-.594-.52-1.054-.039-.451.053-.835.276-1.153.198-.27.462-.424.794-.463.437-.067.853-.02 1.248.14ZM27.794 37.967a1.33 1.33 0 0 1 .506.053c.283.11.463.317.541.623a2.3 2.3 0 0 1-.122 1.5c-.172.401-.457.654-.857.757a2.46 2.46 0 0 1-.685.079c-.024 0-.037-.011-.038-.035a.914.914 0 0 1 .02-.286.048.048 0 0 1 .044-.039c.22-.026.432-.048.634-.065.111-.01.2-.059.266-.148.205-.294.318-.62.341-.98a3.282 3.282 0 0 0-.036-.694.539.539 0 0 0-.22-.352.657.657 0 0 0-.668-.062.268.268 0 0 0-.16.154c-.087.184-.116.39-.089.616.027.26.155.418.383.477.172.043.343.046.514.007.084-.013.116.021.096.103-.026.095-.105.16-.24.192-.355.087-.656.036-.901-.151a.789.789 0 0 1-.29-.499c-.064-.327-.014-.614.152-.86a.398.398 0 0 1 .045-.056 1.12 1.12 0 0 1 .764-.334ZM30.447 37.967c.44-.04.776.092 1.006.396.19.251.288.553.293.903.033.475-.047.884-.24 1.229a.406.406 0 0 1-.04.059c-.197.253-.44.394-.73.421-.322.03-.6-.04-.835-.21a1.152 1.152 0 0 1-.298-.328 2.28 2.28 0 0 1-.203-1.224 1.74 1.74 0 0 1 .289-.837c.203-.263.455-.4.758-.41Zm-.189 2.6c.207.127.431.138.673.034a.287.287 0 0 0 .15-.143c.156-.36.215-.781.178-1.263-.024-.305-.122-.553-.293-.743a.592.592 0 0 0-.573-.165c-.183.024-.302.103-.357.236-.13.313-.185.662-.167 1.046.007.297.07.561.19.79a.548.548 0 0 0 .2.209ZM12.782 38.053c.033.041.02.094-.04.159-.045.05-.116.069-.212.057-.068 0-.104.034-.107.102-.031.792-.032 1.49-.002 2.096.007.125.073.182.2.173.126-.01.18.035.163.136-.014.073-.058.11-.134.11h-.962c-.05 0-.077-.024-.08-.073-.012-.093.014-.15.079-.172.09-.03.16-.038.211-.025.049-.003.073-.028.073-.076v-2.188c0-.05-.025-.076-.076-.078a.639.639 0 0 1-.248-.047.053.053 0 0 1-.033-.05c0-.033.005-.07.018-.11a.05.05 0 0 1 .046-.038c.347-.038.695-.04 1.047-.008a.08.08 0 0 1 .057.032ZM13.888 38.025a.065.065 0 0 1 .05.03c.473.729.945 1.44 1.417 2.132.03.043.044.038.044-.013.003-.622.001-1.232-.004-1.83 0-.023-.012-.038-.035-.045a1.837 1.837 0 0 0-.317-.052c-.069-.006-.087-.066-.055-.18a.05.05 0 0 1 .046-.038 4.528 4.528 0 0 1 1.056 0 .051.051 0 0 1 .045.039c.031.108-.055.179-.258.213-.063.01-.095.047-.095.11a265.3 265.3 0 0 0-.004 2.416c0 .048-.024.074-.072.077a2.78 2.78 0 0 1-.242.001.197.197 0 0 1-.169-.092c-.441-.672-.91-1.37-1.406-2.094-.036-.054-.055-.048-.055.016a127.48 127.48 0 0 0-.005 1.726c.001.083.04.137.12.164a.83.83 0 0 0 .237.036c.037.001.063.047.076.138.01.06 0 .092-.031.094-.398.025-.76.025-1.087-.002a.058.058 0 0 1-.051-.035.154.154 0 0 1 .01-.155.081.081 0 0 1 .053-.04.828.828 0 0 1 .213-.023c.054.002.082-.024.082-.078v-2.19c0-.037-.018-.059-.055-.066a1.028 1.028 0 0 1-.248-.037c-.083-.025-.096-.09-.04-.195a.067.067 0 0 1 .054-.036c.214-.027.456-.023.726.01ZM20.253 38.02c.481-.003.964-.007 1.448-.013.022 0 .032.01.032.032-.006.324-.018.59-.034.8a.078.078 0 0 1-.03.058c-.039.03-.11.033-.213.008a.053.053 0 0 1-.042-.043 4.903 4.903 0 0 1-.063-.517c-.001-.024-.014-.037-.038-.038a11.747 11.747 0 0 0-1.13-.017c-.04.001-.06.02-.063.06a4.82 4.82 0 0 0 .006.912c.003.024.017.036.04.036.146.005.32.006.52.004.058 0 .079-.029.063-.084a.439.439 0 0 1-.01-.179.049.049 0 0 1 .04-.045c.105-.029.188-.03.248-.005a.05.05 0 0 1 .033.05c-.001.329-.012.622-.033.882a.12.12 0 0 1-.024.064c-.024.032-.075.037-.151.016a.06.06 0 0 1-.046-.043 1.111 1.111 0 0 1-.03-.29c0-.05-.027-.075-.077-.077a11.317 11.317 0 0 0-.482-.004c-.054 0-.083.027-.088.08-.035.368-.034.657.005.868.004.023.018.036.042.037.41.02.794.027 1.155.025.025 0 .038-.013.041-.036.023-.177.047-.353.072-.528a.087.087 0 0 1 .067-.077.447.447 0 0 1 .191-.027c.023.006.035.021.037.045.016.285.03.571.042.857.001.035-.016.052-.052.053-.85.01-1.635.005-2.353-.015-.04 0-.059-.021-.055-.061.012-.118.07-.174.172-.168.12.006.181-.05.185-.168.021-.686.025-1.395.012-2.127 0-.024-.012-.04-.036-.046a1.062 1.062 0 0 0-.228-.044.074.074 0 0 1-.071-.06c-.035-.114-.006-.172.086-.175.292.002.563.002.812 0ZM26.094 38.06l.009 2.52c0 .023.012.038.035.044.098.027.21.048.335.066a.092.092 0 0 1 .06.032c.03.033.041.077.035.13-.005.054-.036.082-.09.083-.447.03-.885.03-1.313 0-.009 0-.01-.034-.005-.102.01-.09.057-.14.14-.147a1.9 1.9 0 0 0 .278-.05c.063-.008.094-.044.091-.107-.03-.766-.021-1.405.025-1.917.002-.024-.008-.031-.03-.022-.114.045-.27.109-.472.191-.076.032-.13-.008-.158-.12a.114.114 0 0 1 .05-.129c.222-.157.433-.313.63-.468a.163.163 0 0 1 .063-.03.586.586 0 0 1 .282-.018c.023.006.035.02.035.044ZM32.346 38.016a19.873 19.873 0 0 1 1.597.007c.024.001.035.013.035.037-.006.23-.022.458-.049.686a.05.05 0 0 1-.039.045.448.448 0 0 1-.237.008.05.05 0 0 1-.04-.044 6.334 6.334 0 0 1-.044-.37c-.002-.03-.019-.044-.05-.044a30.49 30.49 0 0 0-.83.003c-.025 0-.038.013-.04.036a5.289 5.289 0 0 0-.033.733c.001.07.037.1.107.091.415-.07.75-.02 1.003.155.242.168.346.427.311.78a.847.847 0 0 1-.776.818c-.424.08-.795.048-1.114-.093-.04-.018-.044-.11-.011-.275.006-.042.031-.06.075-.055.347.05.685.088 1.014.117.024.002.048 0 .07-.008.122-.042.208-.155.26-.34.069-.232.045-.419-.073-.56a.582.582 0 0 0-.419-.21 5.334 5.334 0 0 0-.797-.017c-.05.001-.072-.023-.069-.072.032-.468.056-.92.072-1.353.002-.049.028-.074.077-.075Z" fill="#6E708C"/>
</svg>
