<svg width="72" height="18" fill="none" xmlns="http://www.w3.org/2000/svg">
    <path d="M6.417 0c.627 0 1.203.183 1.726.546.215.149.43.315.644.498a10.99 10.99 0 0 1 1.2 1.273c.488.67.922 1.38 1.301 2.126.434.85.773 1.709 1.016 2.578.104.374.2.756.288 1.145.13.608.214 1.208.25 1.8.048.652.044 1.302-.012 1.948a7.812 7.812 0 0 1-.814 2.814 5.49 5.49 0 0 1-1.247 1.65 4.84 4.84 0 0 1-1.305.948 5.926 5.926 0 0 1-1.614.523c-.294.05-.589.091-.884.123a4.92 4.92 0 0 1-.918.012 9.141 9.141 0 0 1-2.01-.403 5.827 5.827 0 0 1-2.084-1.37 4.699 4.699 0 0 1-.598-.733 6.568 6.568 0 0 1-.926-1.929.403.403 0 0 0-.065-.139.07.07 0 0 1-.022-.036 11.441 11.441 0 0 1-.339-2.322c-.01-.22-.002-.44.023-.66l.09-.93C.174 8.846.278 8.26.43 7.704c.172-.637.37-1.265.594-1.885a.227.227 0 0 1 .019-.04 1.49 1.49 0 0 0 .111-.228 13.838 13.838 0 0 1 1.612-2.967 9.781 9.781 0 0 1 1.12-1.321c.28-.273.587-.521.922-.745A2.823 2.823 0 0 1 6.418 0ZM17.623.963c2.862-.001 5.706 0 8.531.003.026 0 .041.012.046.036.11.51.235 1.02.373 1.529.11.405.21.782.302 1.13.192.732.398 1.483.616 2.251.053.188.102.375.146.56a137.74 137.74 0 0 1 .602 2.303c.14.443.267.915.382 1.415.015.063.035.065.06.005.06-.148.112-.31.153-.487.087-.34.177-.668.269-.985.185-.656.364-1.32.537-1.993.101-.396.202-.773.302-1.131.397-1.505.808-3.03 1.232-4.572a.065.065 0 0 1 .064-.052c.158-.008.356-.012.595-.012 2.627.004 5.253.004 7.88 0 .022 0 .033.011.033.034v15.972c0 .025-.013.038-.038.038-1.565.003-3.157.004-4.776.002-.02 0-.03-.01-.03-.03l-.005-12.766a.057.057 0 0 0-.015-.039c-.011-.012-.02.003-.027.048a6.733 6.733 0 0 1-.32 1.264 44.03 44.03 0 0 0-.268 1.088.103.103 0 0 0 0 .043c.01.055-.008.09-.053.103a.037.037 0 0 0-.027.029l-.72 2.77c-.196.75-.401 1.52-.615 2.306-.235.878-.477 1.777-.728 2.699-.049.18-.1.362-.156.548-.15.654-.316 1.287-.5 1.9-.007.025-.024.037-.05.037h-5.495c-.03 0-.049-.015-.055-.044a12.84 12.84 0 0 0-.165-.63c-.374-1.31-.715-2.577-1.024-3.802-.204-.811-.417-1.621-.638-2.43a3.434 3.434 0 0 0-.098-.305c-.17-.67-.347-1.331-.53-1.983a.26.26 0 0 1-.01-.044.932.932 0 0 0-.099-.316.209.209 0 0 1-.016-.041 55.05 55.05 0 0 1-.404-1.624 12.275 12.275 0 0 1-.36-1.376.033.033 0 0 0-.027-.027c-.004-.001-.006.004-.006.016-.012 4.178-.013 8.367-.003 12.567 0 .026-.013.04-.039.04h-4.818c-.03 0-.045-.016-.045-.045-.001-5.344 0-10.667.003-15.968 0-.023.011-.034.034-.034ZM40.97.963h13.683c.052 0 .078.026.078.078.002 1.444 0 2.873-.002 4.286 0 .015-.008.023-.023.023-1.46.003-2.928.004-4.4.003-.026 0-.04.013-.04.04-.016 3.88-.017 7.742-.003 11.584 0 .021-.01.032-.032.032h-4.8c-.015 0-.022-.007-.022-.022V5.385c0-.02-.01-.03-.03-.03-1.436.001-2.877 0-4.324-.002a.414.414 0 0 0-.063.003c-.04.021-.06.01-.06-.036V1c0-.025.013-.038.038-.038ZM71.958.963c.028 0 .042.014.042.042v4.316c0 .023-.012.034-.035.034a3160.604 3160.604 0 0 0-6.78-.003 8.033 8.033 0 0 0-1.545.068c-.284.042-.564.1-.842.176a4.102 4.102 0 0 0-1.455.638 3.01 3.01 0 0 0-.938 1.056c-.176.337-.284.7-.324 1.086-.07.54-.052 1.067.056 1.579a2.72 2.72 0 0 0 .943 1.576c.559.474 1.227.768 2.004.88.021.004.04.013.055.027.035.026.071.042.11.047.37.066.773.107 1.208.124.53.01 1.064.014 1.6.01 1.951-.01 3.902-.01 5.853 0 .06 0 .09.03.09.09v4.21c0 .06-.03.09-.09.09-2.182.004-4.364.004-6.547 0-.517 0-.999-.012-1.443-.033a14.351 14.351 0 0 1-2.317-.302 17.487 17.487 0 0 1-1.153-.292.489.489 0 0 1-.103-.044.115.115 0 0 0-.038-.021 69.518 69.518 0 0 1-.642-.226 6.021 6.021 0 0 1-.977-.467 8.013 8.013 0 0 1-1.69-1.3 6.928 6.928 0 0 1-1.888-3.764A11.355 11.355 0 0 1 55 9.338c-.029-.803.035-1.593.193-2.371.077-.381.192-.752.344-1.112a7.235 7.235 0 0 1 1.055-1.766A7.517 7.517 0 0 1 58.5 2.46c.31-.188.623-.356.94-.503.7-.297 1.417-.52 2.152-.67.28-.057.562-.112.842-.165a10.31 10.31 0 0 1 1.62-.137c.007 0 .015-.003.022-.01 2.613-.017 5.24-.02 7.882-.012Z" fill="#6E708C"/>
</svg>
