<svg width="48" height="40" fill="none" xmlns="http://www.w3.org/2000/svg">
    <path d="M15.258.163a2283.08 2283.08 0 0 0 15.307 12.569c.374.316.762.638 1.163.966.104.086.088.13-.048.13-.67.005-1.235.002-1.694-.009a.275.275 0 0 1-.163-.056c-.195-.145-.4-.29-.612-.434A9856.251 9856.251 0 0 1 16.366 3.33c-.403-.315-.76-.583-1.068-.805-.052-.031-.101-.027-.147.013a984.872 984.872 0 0 0-10.646 9.376 36.166 36.166 0 0 0-2.159 1.896.201.201 0 0 0-.063.155c.117 7.787.207 15.612.27 23.475.003.24.124.36.363.36h26.789a.56.56 0 0 1 .396.156 72.98 72.98 0 0 0 1.658 1.513c.102.092.085.137-.053.134a291.87 291.87 0 0 0-7.451-.032c-7.445.069-14.89.069-22.337 0a7.277 7.277 0 0 0-.947.043c-.148.024-.223-.039-.223-.189C.735 30.813.731 22.234.738 13.69c0-.19.07-.347.21-.474A262.928 262.928 0 0 0 4.732 9.75c2.298-2.073 4.646-4.21 7.045-6.41A454.758 454.758 0 0 1 15.258.164Z" fill="#6E708C"/>
    <path d="M15.946 6.564a2148.89 2148.89 0 0 1 10.135 7.617c.135.101.265.18.39.238.069.065.044.114-.072.147-.365.104-.754.212-1.166.323a.675.675 0 0 1-.604-.118 638.98 638.98 0 0 0-6.821-5.081c-.623-.483-1.312-1-2.069-1.55-.071-.051-.142-.05-.212.002a3359.364 3359.364 0 0 1-9.207 6.916.533.533 0 0 0-.226.448c-.003 1.498 0 3.012.008 4.542-.009 4.767-.011 9.534-.008 14.302 0 .242.121.363.364.363h18.594a.32.32 0 0 1 .221.085c.422.379.813.774 1.175 1.184.055.062.04.093-.041.093H4.783c-.033 0-.05-.017-.05-.05a238.3 238.3 0 0 1 0-6.17c.063-5.107.05-10.192-.039-15.255a780.054 780.054 0 0 1 10.671-8.037c.194-.145.387-.144.581.001Z" fill="#6E708C"/>
    <path d="M26.316 22.52c.077.081.236.08.476-.002a.134.134 0 0 0 .096-.12.423.423 0 0 1 .063-.194c.152-.196.247-.172.285.073.061.376-.055.572-.348.586-.49.024-.76.02-.807-.01-.23-.155-.28-.37-.15-.645a.249.249 0 0 1 .12-.122c.164-.079.235.014.21.278a.187.187 0 0 0 .055.156ZM9.999 23.09c.26-.068.381.053.363.363-.052.885-.05 1.684.004 2.396.005.06.037.091.098.092.379.011.827.014 1.344.01.065-.002.098-.035.098-.1v-2.625c0-.059.029-.095.087-.107.344-.086.511.026.503.334a54.056 54.056 0 0 0 0 5.812c.017.31-.15.42-.503.334-.058-.012-.087-.048-.087-.107v-2.843c0-.105-.053-.157-.158-.156-.465.006-.89.002-1.277-.012-.072-.003-.109.032-.109.105.006 1.065.003 2.03-.009 2.895a.161.161 0 0 1-.078.14c-.044.029-.15.031-.321.007-.091-.014-.137-.066-.137-.156v-6.159c0-.123.06-.197.182-.223ZM16.173 29.228a.394.394 0 0 1-.394.394h-1.845a.394.394 0 0 1-.394-.394v-5.746a.394.394 0 0 1 .394-.394h1.845a.394.394 0 0 1 .394.394v5.746Zm-.544-5.555a.047.047 0 0 0-.03-.043.047.047 0 0 0-.018-.004h-1.449a.047.047 0 0 0-.047.047v5.361c0 .006.001.012.004.018a.047.047 0 0 0 .043.03h1.45a.047.047 0 0 0 .047-.048v-5.36ZM17.306 23.092c.94-.017 1.672-.004 2.198.038.121.01.187.075.198.194.086.893.09 1.658.013 2.298a.298.298 0 0 1-.07.16 2.233 2.233 0 0 1-.446.39c-.05.034-.047.065.007.093.27.135.44.294.51.475a.502.502 0 0 1 .035.175c.012.653.014 1.44.007 2.357-.001.174-.088.272-.26.294a10.85 10.85 0 0 1-2.202.035c-.06-.005-.09-.038-.09-.098.006-2.062.01-4.169.012-6.32 0-.06.03-.09.088-.091Zm1.887 2.326c.049-.364.04-.92-.029-1.669-.01-.106-.07-.16-.176-.16h-1.09c-.09 0-.136.046-.136.137v1.861c0 .242.121.363.363.363.49 0 .825-.124 1.003-.368a.37.37 0 0 0 .065-.164Zm-.149 1.339a1.761 1.761 0 0 0-1.124-.304c-.105.015-.158.076-.158.182v2.27c0 .121.06.18.182.178.356-.005.735.001 1.139.018.08.003.12-.035.121-.114.058-.696.058-1.402 0-2.118a3.656 3.656 0 0 0-.16-.112ZM20.904 23.087c.161-.03.28-.024.354.016.053.029.08.074.082.134.012.654.015 1.392.01 2.214-.002.157.076.234.233.229.58-.02 1.052.003 1.42.07.16.03.24.125.242.286.013 1.001.017 2.094.01 3.278 0 .172-.086.265-.257.28-.496.04-1.184.05-2.063.032-.087-.002-.13-.047-.13-.134a674.55 674.55 0 0 1 .01-6.3c0-.06.03-.096.09-.105Zm1.78 3.24a.097.097 0 0 0-.027-.07.098.098 0 0 0-.07-.03l-1.169-.01a.097.097 0 0 0-.07.029.1.1 0 0 0-.029.069l-.023 2.706a.097.097 0 0 0 .028.07.098.098 0 0 0 .069.029l1.17.01a.099.099 0 0 0 .09-.06.097.097 0 0 0 .008-.037l.024-2.706ZM24.188 23.092h-.374a.073.073 0 0 0-.073.072l-.011 6.385c0 .04.032.073.072.073h.375c.04 0 .072-.032.072-.072l.011-6.385a.073.073 0 0 0-.072-.073ZM25.39 23.1c.324-.067.454.006.389.22a.63.63 0 0 0-.026.179 275.61 275.61 0 0 0 .011 4.01c.002.227.04.234.114.02.5-1.448.997-2.866 1.49-4.252a.43.43 0 0 1 .092-.15c.087-.094.2-.102.336-.024.053.029.08.074.08.134v6.244c0 .06-.03.096-.089.107-.008.001-.05 0-.127-.006-.212-.014-.318-.105-.318-.272v-4.262c0-.205-.034-.21-.102-.016a590.48 590.48 0 0 1-1.581 4.43.241.241 0 0 1-.11.131c-.222.13-.332.07-.33-.181.02-2.035.029-4.078.024-6.13-.003-.101.046-.162.147-.183ZM30.585 23.09h1.795c.132 0 .194.066.187.198-.005.247-.116.351-.333.312-.481-.084-.846-.086-1.095-.005-.056.02-.085.06-.085.12.012 1.887.016 3.784.01 5.691 0 .114-.055.179-.168.195-.332.046-.47.007-.414-.117a.416.416 0 0 0 .038-.174v-6.154c0-.044.022-.066.066-.066ZM36.01 29.212a.405.405 0 0 1-.405.405h-1.863a.405.405 0 0 1-.405-.405v-5.713a.405.405 0 0 1 .405-.405h1.863a.405.405 0 0 1 .405.405v5.713Zm-.543-5.508a.114.114 0 0 0-.115-.114h-1.358a.114.114 0 0 0-.114.114v5.288a.114.114 0 0 0 .114.115h1.358a.114.114 0 0 0 .115-.115v-5.288ZM37.19 23.09a20.943 20.943 0 0 1 2.116.044c.12.01.184.074.192.194.085 1.226.092 2.338.022 3.334-.017.242-.146.367-.389.374-.559.017-1.035.01-1.427-.023-.06-.005-.091.023-.093.083-.05.659-.053 1.397-.009 2.214.015.268-.091.373-.317.318-.152-.03-.227-.121-.227-.273.006-2.04.002-4.08-.011-6.118-.002-.095.046-.144.143-.147Zm1.813.587a.089.089 0 0 0-.026-.062.086.086 0 0 0-.062-.025l-1.195.006a.089.089 0 0 0-.061.026.087.087 0 0 0-.026.062l.015 2.728a.089.089 0 0 0 .026.061.087.087 0 0 0 .061.025l1.195-.006a.085.085 0 0 0 .062-.026.088.088 0 0 0 .025-.062l-.014-2.727ZM43.135 29.183a.439.439 0 0 1-.44.44l-1.798-.004a.44.44 0 0 1-.44-.44l.01-5.648a.44.44 0 0 1 .44-.439l1.799.003a.439.439 0 0 1 .438.44l-.01 5.648Zm-.579-5.503a.09.09 0 0 0-.09-.091l-1.377.005a.09.09 0 0 0-.084.056.09.09 0 0 0-.007.035l.019 5.328a.09.09 0 0 0 .056.084.093.093 0 0 0 .035.007l1.376-.005a.092.092 0 0 0 .065-.027.09.09 0 0 0 .026-.064l-.019-5.328ZM44.912 23.09h2.36c.122 0 .182.06.182.182-.006 1.934-.002 3.838.011 5.71 0 .06.026.106.078.137.024.015.107 0 .247-.041.14-.043.21.01.21.156-.03.445-.03.91 0 1.393.012.225-.115.309-.382.252-.14-.027-.21-.11-.21-.252v-.681c0-.212-.105-.318-.317-.318h-2.225c-.212 0-.317.106-.317.318a2.936 2.936 0 0 0 0 .635c.03.268-.107.368-.41.3-.134-.028-.19-.11-.17-.244.06-.376.051-.82-.025-1.332-.03-.199.05-.261.236-.188.174.072.267 0 .278-.216.07-1.043.16-2.118.272-3.223.063-.622.078-1.438.044-2.448-.001-.093.045-.14.138-.14Zm.398 2.26a100.78 100.78 0 0 1-.322 3.624c-.005.082.034.122.116.12a45.82 45.82 0 0 1 1.657-.011c.078.001.117-.038.116-.118-.034-1.78-.023-3.526.032-5.24.003-.078-.035-.12-.114-.125a8.557 8.557 0 0 0-1.35.015c-.06.006-.092.04-.096.1.014.508 0 1.053-.04 1.634ZM11.234 19.21v1.63h.2v.592h-.248v-.357H9.881V19.21h.248v1.63h.857v-1.63h.248ZM12.923 20.516h-1.116c.023.117.077.21.162.277a.508.508 0 0 0 .32.098c.176 0 .304-.065.384-.194l.197.112c-.131.2-.327.3-.586.3a.71.71 0 0 1-.517-.196.694.694 0 0 1-.197-.504.672.672 0 0 1 .698-.7c.195 0 .354.069.477.207a.704.704 0 0 1 .178.6Zm-.655-.59a.468.468 0 0 0-.31.105.452.452 0 0 0-.151.282h.89a.457.457 0 0 0-.147-.285.417.417 0 0 0-.282-.101ZM14.12 20.297v-.554h.231v1.332h-.232v-.557h-.69v.557h-.231v-1.332h.232v.554h.69ZM14.555 19.743h1.14v.224h-.453v1.108h-.231v-1.108h-.456v-.224ZM16.634 19.708c.186 0 .345.069.477.206a.689.689 0 0 1 .197.495.692.692 0 0 1-.197.498.635.635 0 0 1-.477.203.565.565 0 0 1-.504-.264v.762H15.9v-1.865h.231v.23a.565.565 0 0 1 .504-.265Zm-.03 1.178a.456.456 0 0 0 .336-.136.474.474 0 0 0 .136-.341.459.459 0 0 0-.136-.338.452.452 0 0 0-.335-.139.455.455 0 0 0-.339.139.459.459 0 0 0-.136.338c0 .133.046.247.136.341a.46.46 0 0 0 .339.136ZM18.78 20.116l.85.96h-.303l-.805-.896v.895h-.247V19.21h.247v.842l.778-.842h.304l-.823.906ZM20.563 19.708c.186 0 .345.069.477.206a.69.69 0 0 1 .197.495.693.693 0 0 1-.197.498.636.636 0 0 1-.477.203.565.565 0 0 1-.504-.264v.762h-.232v-1.865h.232v.23a.565.565 0 0 1 .504-.265Zm-.03 1.178a.456.456 0 0 0 .336-.136.474.474 0 0 0 .136-.341.459.459 0 0 0-.136-.338.452.452 0 0 0-.336-.139.455.455 0 0 0-.338.139.459.459 0 0 0-.136.338c0 .133.045.247.136.341a.46.46 0 0 0 .338.136ZM22.792 20.516h-1.116c.023.117.077.21.162.277a.508.508 0 0 0 .32.098c.176 0 .304-.065.384-.194l.197.112c-.131.2-.327.3-.586.3a.71.71 0 0 1-.517-.196.694.694 0 0 1-.197-.504.672.672 0 0 1 .698-.7c.195 0 .354.069.477.207a.704.704 0 0 1 .178.6Zm-.655-.59a.467.467 0 0 0-.31.105.451.451 0 0 0-.151.282h.89a.457.457 0 0 0-.147-.285.417.417 0 0 0-.282-.101ZM24.167 19.972v-.23h.232v1.333h-.232v-.229a.561.561 0 0 1-.503.264.635.635 0 0 1-.477-.203.692.692 0 0 1-.198-.498c0-.194.066-.359.198-.495a.637.637 0 0 1 .477-.206c.222 0 .39.088.503.264Zm-.474.914a.459.459 0 0 0 .338-.136.474.474 0 0 0 .136-.341.459.459 0 0 0-.136-.338.454.454 0 0 0-.338-.139.452.452 0 0 0-.336.139.459.459 0 0 0-.136.338c0 .133.046.247.136.341.09.09.203.136.336.136ZM24.6 19.743h1.141v.224h-.453v1.108h-.232v-1.108h-.455v-.224ZM26.174 20.678l.738-.935h.186v1.332h-.23v-.935l-.737.935h-.187v-1.332h.23v.935ZM28.338 20.39c.137.057.205.16.205.31a.357.357 0 0 1-.112.274.452.452 0 0 1-.314.101h-.666v-1.332h.613c.131 0 .233.033.306.099a.334.334 0 0 1 .112.263c0 .128-.048.223-.144.285Zm-.285-.44h-.376v.35h.376c.135 0 .203-.06.203-.179 0-.113-.068-.17-.203-.17Zm-.376.915h.427c.067 0 .119-.016.154-.048a.17.17 0 0 0 .056-.136.155.155 0 0 0-.056-.128c-.035-.032-.087-.048-.154-.048h-.427v.36ZM29.715 20.297v-.554h.232v1.332h-.232v-.557h-.69v.557h-.231v-1.332h.231v.554h.69ZM30.532 20.223h.33a.47.47 0 0 1 .33.12c.09.078.134.18.134.306s-.045.229-.134.309a.482.482 0 0 1-.33.117H30.3v-1.332h.232v.48Zm.967.852v-1.332h.232v1.332h-.232Zm-.967-.216h.33c.068 0 .124-.02.168-.058a.193.193 0 0 0 .067-.152.19.19 0 0 0-.07-.152.234.234 0 0 0-.165-.061h-.33v.423ZM32.732 20.388l.51.687h-.273l-.373-.503-.375.503h-.272l.512-.685-.483-.647h.275l.343.463.344-.463h.272l-.48.645ZM35.553 21.075h-.248v-1.39l-.959 1.39h-.2V19.21h.248v1.393l.96-1.393h.199v1.865ZM36.85 20.297v-.554h.232v1.332h-.232v-.557h-.69v.557h-.232v-1.332h.232v.554h.69ZM38.58 19.743v1.111h.184v.578h-.23v-.357h-.998v.357h-.23v-.578h.163c.085-.117.128-.282.128-.493v-.618h.983Zm-.847 1.111h.618v-.895h-.525v.402c0 .195-.031.36-.093.493ZM39.508 20.787l.384-1.044h.247l-.543 1.415a.747.747 0 0 1-.24.343.5.5 0 0 1-.352.107v-.216c.162.013.282-.076.36-.266l.021-.048-.578-1.335h.245l.456 1.044ZM40.907 21.11a.68.68 0 0 1-.7-.701c0-.199.066-.365.2-.498a.675.675 0 0 1 .5-.203c.131 0 .25.032.354.096a.587.587 0 0 1 .235.253l-.195.112a.392.392 0 0 0-.157-.17.443.443 0 0 0-.237-.064.456.456 0 0 0-.336.136.47.47 0 0 0-.133.338.456.456 0 0 0 .469.472c.089 0 .169-.02.24-.062a.428.428 0 0 0 .162-.17l.198.114a.685.685 0 0 1-.6.346ZM41.565 19.743h1.14v.224h-.452v1.108h-.232v-1.108h-.456v-.224ZM43.644 19.708c.187 0 .346.069.477.206a.69.69 0 0 1 .197.495.693.693 0 0 1-.197.498.636.636 0 0 1-.477.203.565.565 0 0 1-.503-.264v.762h-.232v-1.865h.232v.23a.565.565 0 0 1 .503-.265Zm-.03 1.178a.456.456 0 0 0 .337-.136.475.475 0 0 0 .135-.341.46.46 0 0 0-.135-.338.452.452 0 0 0-.336-.139.455.455 0 0 0-.339.139.459.459 0 0 0-.135.338c0 .133.045.247.136.341a.46.46 0 0 0 .338.136ZM44.824 20.678l.738-.935h.187v1.332h-.23v-.935l-.738.935h-.186v-1.332h.229v.935ZM47.04 19.543h-.72v-.202h.72v.202Zm-.71 1.135.739-.935h.186v1.332h-.23v-.935l-.737.935H46.1v-1.332h.23v.935Z" fill="#6E708C"/>
</svg>
