<svg xmlns="http://www.w3.org/2000/svg" width="176" height="48" fill="none"><path fill="#6E708C" fill-rule="evenodd" d="M49.502 13.06a11.712 11.712 0 0 0-6.747 1.34 11.16 11.16 0 0 0-4.712 4.854 10.666 10.666 0 0 0-.95 6.592 10.875 10.875 0 0 0 3.158 5.916 11.517 11.517 0 0 0 6.111 3.07c2.316.39 4.7.075 6.825-.898a11.235 11.235 0 0 0 5.038-4.539 10.692 10.692 0 0 0 1.406-6.516 10.835 10.835 0 0 0-3.259-6.649 11.53 11.53 0 0 0-6.87-3.17Zm-.369 16.757a6.252 6.252 0 0 1-3.656-.634 5.963 5.963 0 0 1-2.59-2.575 5.692 5.692 0 0 1-.551-3.55 5.8 5.8 0 0 1 1.692-3.196 6.144 6.144 0 0 1 3.302-1.645 6.258 6.258 0 0 1 3.675.522 5.983 5.983 0 0 1 2.672 2.494c.6 1.081.833 2.316.668 3.532a5.79 5.79 0 0 1-1.72 3.38 6.15 6.15 0 0 1-3.492 1.672Zm16.584-16.321c-.394 0-.784.086-1.14.251-.356.165-.67.404-.917.7a2.532 2.532 0 0 0-.518 1.014c-.092.371-.098.757-.016 1.13.25 1.21 1.418 2.036 2.691 2.036h7.388L61.708 33.33a.72.72 0 0 0-.075.767.742.742 0 0 0 .278.297c.12.072.258.11.399.11h18.033c1.272 0 2.442-.825 2.691-2.034.082-.373.076-.76-.016-1.13a2.534 2.534 0 0 0-.517-1.014 2.643 2.643 0 0 0-.917-.7 2.732 2.732 0 0 0-1.14-.253h-9.001L82.93 14.682a.726.726 0 0 0 .075-.775.75.75 0 0 0-.28-.3.785.785 0 0 0-.403-.111H65.717Zm72.061.059a2.707 2.707 0 0 0-1.504.935 2.544 2.544 0 0 0-.567 1.64v8.543l-14.324-11.016a.78.78 0 0 0-1.12.187.721.721 0 0 0-.116.392v17.64a2.556 2.556 0 0 0 .567 1.639 2.71 2.71 0 0 0 1.505.935c.387.083.789.08 1.176-.008a2.688 2.688 0 0 0 1.056-.498c.31-.241.559-.546.73-.892.171-.346.26-.725.259-1.108v-8.617l14.325 11.016a.79.79 0 0 0 .806.086.751.751 0 0 0 .313-.273.72.72 0 0 0 .116-.392V16.06a2.5 2.5 0 0 0-.259-1.108 2.59 2.59 0 0 0-.73-.89 2.692 2.692 0 0 0-1.057-.5 2.742 2.742 0 0 0-1.176-.007Zm-37.296 4.58c6.058 0 10.586 3.095 10.586 5.863 0 2.767-4.528 5.862-10.586 5.862-6.06 0-10.586-3.095-10.586-5.862 0-2.768 4.527-5.863 10.586-5.863Zm0-5.13c-8.77 0-15.88 4.921-15.88 10.993 0 6.07 7.11 10.992 15.88 10.992 8.769 0 15.878-4.921 15.878-10.992 0-6.072-7.109-10.993-15.878-10.993Z" clip-rule="evenodd"/></svg>