<svg xmlns="http://www.w3.org/2000/svg" width="176" height="48" fill="none"><path fill="#6E708C" d="M77.562 43.905a.095.095 0 0 1-.094.095H38.095a.095.095 0 0 1-.095-.095V4.095A.095.095 0 0 1 38.095 4h39.373a.095.095 0 0 1 .094.095v39.81ZM46.197 21.727c.06 1.534.061 3.111.003 4.732-.002.049-.027.077-.074.085-.198.03-.414.042-.649.036-.048-.002-.073.022-.074.07a61.688 61.688 0 0 0 0 2.244c.001.049.026.073.074.073 1.745.01 3.515.013 5.31.009.074 0 .11-.037.11-.11v-2.115c0-.138-.069-.2-.206-.184-.27.031-.447.02-.533-.033a.128.128 0 0 1-.065-.111 66.602 66.602 0 0 1 .002-4.825c.004-.095.053-.14.146-.135.26.013.446.009.557-.013.047-.01.072-.039.074-.087.03-.676.038-1.397.023-2.163 0-.096-.049-.143-.144-.143H45.47c-.049 0-.073.024-.073.073.038.682.038 1.363 0 2.042-.014.249.129.336.427.262.24-.05.365.047.374.293Zm5.863-.239c.099.02.149.08.149.181v4.754c0 .097-.049.146-.146.146h-.583c-.073 0-.11.036-.11.11v2.193c0 .075.038.112.113.112 2.412 0 4.864-.003 7.356-.008.84.018 1.518-.3 2.032-.957.56-.716.735-1.58.527-2.59-.129-.71-.56-1.304-1.294-1.782-.055-.036-.056-.072-.001-.11.334-.206.578-.51.731-.915.262-.65.287-1.313.073-1.989-.23-.72-.74-1.194-1.53-1.422a3.922 3.922 0 0 0-1.048-.154c-2.234.01-4.518.01-6.852 0-.064 0-.097.032-.1.096-.013.75-.013 1.494 0 2.229.002.048.027.072.075.07.249-.007.452.005.608.036Zm14.688.056c.025.15.026.352.001.608-.01.1.036.15.136.15h3.086c.066 0 .099-.034.098-.1a66.23 66.23 0 0 1 .018-3.055c.001-.06-.028-.09-.088-.09-1.818.012-3.594.012-5.33 0a3.634 3.634 0 0 0-1.886.482c-.45.27-.815.67-1.093 1.204-.34.648-.416 1.387-.228 2.216.103.41.3.796.592 1.158.574.71 1.288 1.077 2.14 1.102.817.017 1.579.02 2.287.01.473.024.707.252.701.683 0 .382-.221.597-.664.648a6.15 6.15 0 0 1-1.157.009c-.16-.002-.234-.083-.22-.242a1.559 1.559 0 0 0-.017-.49c-.012-.047-.043-.072-.091-.073a52.04 52.04 0 0 0-3.066-.034c-.126.002-.188.066-.185.191.01.969.013 1.938.008 2.909 0 .097.049.146.146.146 1.907.03 3.814.03 5.72 0 .812-.004 1.513-.323 2.104-.957.655-.675.925-1.523.81-2.544-.113-1.016-.626-1.778-1.538-2.289-.588-.342-1.265-.467-2.032-.373-.544.052-1.018.028-1.42-.073-.375-.103-.52-.346-.438-.73.07-.316.276-.486.62-.51.343-.024.644-.035.901-.032.049.003.077.028.085.076ZM106.055 18.947c.519-.017.961.033 1.325.152a.11.11 0 0 1 .08.093c.023.153.028.434.013.843-.006.191-.102.266-.288.225-.401-.088-.729-.053-.985.104a.607.607 0 0 0-.289.402c-.068.304-.096.721-.084 1.253 0 .049.025.075.074.079.407.028.857.035 1.351.02.101-.003.151.047.151.148v1.005c0 .083-.041.125-.125.125h-1.405c-.048 0-.073.024-.073.073-.004 1.846-.001 3.643.009 5.391 0 .053-.026.08-.079.08h-1.533c-.076 0-.112-.039-.11-.115.039-1.711.04-3.4.001-5.064a.993.993 0 0 1 .023-.234c.02-.086-.015-.13-.105-.13a147.677 147.677 0 0 0-2.621.007c-.093.001-.139.049-.139.14a62.44 62.44 0 0 1 0 3.244c-.008.303.055.543.191.72.271.291.665.353 1.181.185.097-.029.149.008.156.11.02.332.014.666-.018 1-.005.048-.031.078-.079.09-.425.104-.939.143-1.54.12-.496-.02-.894-.218-1.194-.593a1.837 1.837 0 0 1-.409-1.231 140.76 140.76 0 0 1-.035-3.688c.001-.064-.03-.097-.095-.099-.275-.008-.639-.01-1.093-.004-.082 0-.124-.04-.125-.123-.004-.411-.002-.77.007-1.073.001-.05.026-.074.075-.075.303-.01.664-.012 1.084-.007.1 0 .149-.049.147-.149a9.051 9.051 0 0 1 .017-1.101.12.12 0 0 1 .076-.1c.4-.177.912-.343 1.536-.498.072-.018.109.01.11.084.01.48.013 1.027.008 1.638 0 .083.042.125.124.126 1 .005 1.879.002 2.636-.009.049 0 .075-.024.078-.073.015-.305.029-.63.04-.976a2.273 2.273 0 0 1 .373-1.34c.32-.492.839-.75 1.558-.775ZM90.927 19.138c.01 3.157.014 6.387.009 9.692 0 .073-.037.11-.11.11-.559.003-1.054 0-1.484-.008a.118.118 0 0 1-.108-.066c-.03-.054-.032-.164-.004-.328.066-.069.101-.178.103-.328-.028-.73-.028-1.46 0-2.188.033-1.318.048-2.64.045-3.966 0-.38-.05-.674-.148-.884-.012-.703-.012-1.381 0-2.034.002-.048.027-.073.075-.074a27.39 27.39 0 0 1 1.55 0c.048 0 .072.026.072.074ZM132.496 19.239h-1.693a.045.045 0 0 0-.045.045v1.733c0 .025.02.045.045.045h1.693c.025 0 .046-.02.046-.045v-1.733a.046.046 0 0 0-.046-.045ZM82.4 19.722c1.437-.059 2.619-.037 3.545.064.56.061 1.048.265 1.466.611.754.569 1.103 1.362 1.048 2.38-.053.955-.493 1.694-1.32 2.215-.554.349-1.17.498-1.85.446-.453-.01-.82.006-1.103.05-.048.01-.073.039-.075.087-.03.992-.025 2.038.014 3.137.004.151-.069.227-.22.227h-1.458c-.097 0-.145-.049-.145-.146-.005-3.083-.002-6.077.008-8.98 0-.06.03-.09.09-.091Zm3.626 1.696a1.6 1.6 0 0 0-.883-.283 21.595 21.595 0 0 0-.874 0c-.098 0-.147.05-.146.147.005.919.002 1.789-.01 2.611-.001.081.039.122.12.123.426.046.812.043 1.156-.009.472-.072.8-.303.984-.693.165-.282.229-.607.191-.975-.042-.402-.22-.709-.538-.92Z"/><path fill="#6E708C" d="M89.23 21.172c.098.21.147.504.148.884a145.29 145.29 0 0 1-.045 3.966 28.405 28.405 0 0 0 0 2.188c-.002.15-.037.259-.103.328-.01-2.455-.01-4.91 0-7.366ZM55.706 21.463c.377-.012.753-.012 1.13 0 .324.011.552.136.683.374a.57.57 0 0 1 .03.544c-.135.262-.421.394-.86.395-.394.001-.724.004-.992.009-.042-.006-.064-.03-.064-.073v-1.176c0-.048.024-.073.073-.073ZM95.991 22.128c.638.112 1.123.428 1.458.949.26.385.384.832.373 1.34-.005 1.5.004 2.969.026 4.404 0 .049-.022.077-.07.086-.219.042-.682.052-1.39.03-.165-.004-.245-.089-.242-.253.005-.22.003-.405-.006-.556-.006-.108-.043-.12-.112-.036-.508.577-1.125.884-1.85.92-.628.031-1.184-.081-1.667-.337-.513-.306-.807-.765-.883-1.377-.124-.846.158-1.512.847-1.997a2.3 2.3 0 0 1 .866-.373c.779-.182 1.64-.243 2.586-.183.118.006.178-.05.182-.169.015-.436-.134-.777-.446-1.025a1.424 1.424 0 0 0-.72-.3c-.795-.115-1.61.052-2.446.5-.063.032-.094.012-.094-.059.01-.386.027-.767.05-1.143a.111.111 0 0 1 .071-.102c.995-.443 2.15-.549 3.467-.319Zm-.019 3.703c-.688-.024-1.262.016-1.72.118a1.16 1.16 0 0 0-.738.465c-.195.267-.226.584-.092.948.088.245.307.403.656.474.745.15 1.316-.039 1.712-.566.261-.347.367-.782.318-1.307-.003-.087-.048-.131-.136-.132ZM124.627 22.347c.298.212.504.497.616.855.042.102.093.107.152.013.373-.614.897-.992 1.572-1.132.503-.104.961-.089 1.376.046.559.16.947.525 1.166 1.093a2.7 2.7 0 0 1 .191.976c.01 1.556.01 3.105 0 4.646 0 .063-.031.094-.093.094-.612.005-1.113.003-1.506-.006-.079-.002-.117-.042-.116-.121.017-1.576.006-3.04-.032-4.394a.874.874 0 0 0-.015-.144c-.084-.48-.359-.76-.825-.84a1.103 1.103 0 0 0-.902.227c-.444.327-.665.81-.664 1.45a2286 2286 0 0 1 0 3.704c0 .083-.042.125-.126.125h-1.488c-.083 0-.125-.041-.125-.124a109.03 109.03 0 0 1-.01-3.96 3.355 3.355 0 0 0-.082-.72c-.112-.44-.376-.674-.793-.702-.589-.041-1.029.211-1.32.757-.133.248-.203.53-.21.847a116.568 116.568 0 0 0-.035 3.777c0 .062-.031.096-.093.1-.412.027-.905.034-1.481.022-.088 0-.131-.046-.129-.134.041-2.064.036-4.23-.015-6.498-.002-.115.055-.174.169-.177.391-.01.843-.012 1.357-.007.081 0 .12.04.119.12-.005.38-.005.653.002.824.01.22.072.237.188.05.385-.608.928-.963 1.631-1.067.593-.088 1.1.012 1.521.3ZM114.485 25.846a3.134 3.134 0 0 1-3.119 3.145l-.615.002a3.133 3.133 0 0 1-3.141-3.123l-.002-.659a3.134 3.134 0 0 1 3.119-3.144l.615-.002a3.131 3.131 0 0 1 3.141 3.122l.002.66Zm-3.441 1.961c.221 0 .44-.058.644-.172a1.74 1.74 0 0 0 .547-.494c.157-.211.281-.463.366-.74a2.95 2.95 0 0 0 .13-.872c.001-.605-.175-1.186-.49-1.614-.315-.429-.743-.67-1.189-.67-.221-.001-.44.058-.644.172a1.742 1.742 0 0 0-.547.493 2.472 2.472 0 0 0-.367.74 2.984 2.984 0 0 0-.129.873c-.001.3.042.596.126.873.085.277.208.529.364.74.156.213.341.381.545.496.204.115.423.175.644.175ZM118.884 22.047c.199.018.295.128.287.328-.01.256-.022.511-.037.766-.007.136-.079.198-.214.185-.659-.08-1.156.08-1.489.48-.334.444-.507.988-.519 1.632-.02 1.143-.024 2.263-.012 3.361.004.089-.038.134-.126.137a15.8 15.8 0 0 1-1.474-.019c-.048-.004-.073-.03-.074-.079a504.61 504.61 0 0 1-.035-6.617c0-.05.024-.075.073-.08.395-.027.826-.035 1.291-.021.118.004.176.064.175.182-.003.404.012.787.045 1.15.007.08.025.082.055.008.122-.341.298-.639.528-.894.374-.412.883-.585 1.526-.52ZM130.947 22.155l1.469-.025c.059-.001.089.028.089.088v6.612c0 .073-.036.11-.109.11h-1.458c-.097 0-.145-.05-.145-.147-.005-2.21-.002-4.374.009-6.49 0-.097.048-.146.145-.148ZM133.231 22.12a72.374 72.374 0 0 1 1.816.007.124.124 0 0 1 .11.064c.408.653.837 1.39 1.287 2.21.068.126.133.124.195-.004.359-.742.734-1.435 1.125-2.079a.386.386 0 0 1 .352-.198h1.482c.108 0 .133.046.075.137-.636 1.016-1.279 2.04-1.93 3.073a.134.134 0 0 0 0 .154 258.491 258.491 0 0 0 2.167 3.382c.027.042.015.063-.035.064a70.67 70.67 0 0 1-1.842.01.16.16 0 0 1-.142-.078 31.797 31.797 0 0 1-1.46-2.43c-.061-.113-.122-.113-.184 0a64.847 64.847 0 0 1-1.409 2.443.125.125 0 0 1-.113.064h-1.72c-.08 0-.098-.033-.054-.1.715-1.084 1.425-2.18 2.131-3.29a.23.23 0 0 0 0-.26 234.042 234.042 0 0 1-1.905-3.07c-.04-.065-.022-.098.054-.1ZM55.779 25.256h1.071c.14 0 .271.034.395.1.287.15.39.393.31.73-.07.305-.297.466-.683.483-.514.022-.894.016-1.14-.018-.047-.006-.074-.034-.08-.083a8.581 8.581 0 0 1-.017-1.07c.002-.095.05-.142.144-.142ZM82.398 39.304c19.159-.014 38.309-.014 57.45 0 .086 0 .128.043.127.129-.014 1.568-.006 3.06.025 4.477.002.06-.027.09-.088.09H82.374c-.055 0-.083-.028-.083-.083.012-1.478.015-2.983.01-4.515 0-.065.032-.098.097-.098Zm55.77 4.582c0-.02-.008-.04-.023-.054a.076.076 0 0 0-.054-.023H84.874a.077.077 0 0 0 0 .155h53.217c.02 0 .04-.009.054-.023a.076.076 0 0 0 .023-.055Z"/><path fill="#6E708C" d="M138.091 43.809H84.874a.077.077 0 0 0 0 .155h53.217a.077.077 0 0 0 .077-.078.077.077 0 0 0-.077-.077Z"/></svg>