<svg width="140" height="33" fill="none" xmlns="http://www.w3.org/2000/svg">
    <path d="M22.274 1.21c-.591.604-1.06 1.11-1.035 1.11.136 0 1.96-.641 2.675-.925.444-.185 1.22-.493 1.726-.678 1.676-.628 1.7-.604-.37-.604L23.36.101l-1.085 1.11ZM47.58.2c.012.049.406.357.887.702.48.333 1.085.777 1.331.986.26.197.58.456.74.555.148.098.518.37.826.604.308.222.604.357.653.308.086-.099 1.603-3.082 1.603-3.168 0-.012-1.356-.037-3.02-.05C48.935.126 47.58.15 47.58.2ZM34.083 1.605a262.63 262.63 0 0 1-3.156 1.208c-.172.049-.468.172-.665.27-.32.173-.296.186.752.272.604.05 1.54.136 2.083.197.542.062 1.762.173 2.712.247.949.061 2.194.185 2.76.246.568.074 1.048.111 1.073.087.062-.062-2.54-3.661-2.638-3.65-.049 0-1.356.506-2.921 1.123ZM80.664 4.92c-.037.074.11.32.332.555.383.395.457.42 1.233.42.715 0 .888-.05 1.208-.321.21-.173.382-.42.382-.555 0-.197-.086-.234-.493-.234-.357 0-.493.05-.493.185 0 .098-.037.185-.086.197-.062 0-.284.025-.505.037-.296.037-.432-.012-.53-.185-.136-.259-.9-.333-1.048-.099ZM103.752 4.957c-.049.111.099.333.358.555.382.345.505.382 1.232.382.765 0 .839-.024 1.245-.431.235-.234.395-.481.345-.555-.135-.222-.899-.148-1.035.111-.099.185-.234.222-.592.197-.246-.024-.493-.135-.554-.234-.148-.247-.912-.259-.999-.025ZM55.548 8.116l-.776.037v5.535h.492c.555 0 .53.061.53-1.27v-.703h.666c.752 0 1.43-.258 1.714-.665.653-.937.37-2.318-.567-2.7-.481-.185-1.22-.27-2.059-.234Zm1.8 1.405c.27.481.074.962-.506 1.184-.258.098-.591.148-.764.098-.259-.061-.308-.148-.296-.604 0-1.047.025-1.084.74-1.047.555.036.678.086.826.37ZM61.392 8.128c-.666.136-1.455.728-1.788 1.344-.382.678-.419 2.293-.086 2.835.727 1.146 1.393 1.492 2.724 1.442 1.307-.037 1.948-.431 2.515-1.516.345-.666.382-1.873.061-2.502-.296-.58-.912-1.208-1.368-1.405-.518-.21-1.491-.309-2.058-.198Zm1.43 1.048c.677.271 1.023.801 1.06 1.59.049 1.171-.407 1.85-1.381 2.059-1.282.27-2.342-.875-2.12-2.305.172-1.159 1.343-1.812 2.44-1.344ZM67.234 8.363c-1.085.567-1.578 1.54-1.467 2.909.148 1.75 1.578 2.785 3.452 2.477.937-.148 1.257-.493.961-1.035-.11-.21-.136-.222-.764 0-1.701.58-2.995-.69-2.502-2.44.11-.383.308-.74.505-.888.444-.358 1.233-.444 1.898-.21.567.197.567.197.875-.32.1-.185.05-.271-.283-.469-.666-.406-1.935-.419-2.675-.024ZM72.693 8.215c-.604.21-1.257.85-1.565 1.528-.555 1.245-.124 2.848.998 3.624.48.345.604.37 1.603.37.616 0 1.183-.062 1.319-.136.567-.345.567-.345.37-.74l-.186-.37-.64.223c-1.443.493-2.564-.308-2.564-1.837 0-.678.037-.776.48-1.27.481-.542.481-.542 1.295-.53.456 0 .887.074.961.148.086.087.185.148.234.148.148 0 .456-.702.37-.826-.283-.406-1.861-.616-2.675-.332ZM90.95 8.091c-.136.037-.37.087-.53.124-.42.086-1.27.9-1.517 1.467-.555 1.22-.098 2.945.974 3.685.48.345.604.37 1.602.37.617 0 1.184-.062 1.32-.136.591-.357.591-.345.381-.74l-.184-.37-.678.223c-.654.222-.703.222-1.332.024-.875-.295-1.158-.74-1.195-1.8-.025-.751 0-.813.468-1.33.48-.543.48-.543 1.294-.53.457 0 .888.073.962.147.222.222.308.185.505-.221.198-.383.16-.444-.382-.728-.296-.16-1.306-.27-1.689-.185ZM76.588 13.688h.431c.444 0 .666-.235 1.91-2.022.247-.345.642-.9.9-1.22l.457-.604v3.846h.986V8.14h-.42c-.468 0-.443-.025-2.292 2.502l-.974 1.331-.074-3.772-.456-.037-.468-.037v5.56ZM82.875 13.688h.42c.394 0 .492-.087 1.441-1.393.567-.752 1.073-1.443 1.122-1.504.062-.074.246-.32.42-.555.221-.32.295-.37.283-.185-.013.136-.013 1.011-.013 1.935l.025 1.702h.986V8.14h-.419c-.32 0-.493.086-.69.332-1.159 1.517-2.466 3.304-2.466 3.39 0 .05-.037.099-.086.099-.061 0-.086-.863-.061-1.91l.036-1.911h-.998v5.547ZM94.301 8.215c-.05.049-.086 1.306-.086 2.785v2.688h1.134l-.05-1.356c-.012-.752 0-1.356.062-1.356.05 0 .087.05.087.098 0 .05.332.506.74 1.011.406.505.874 1.073 1.022 1.257.222.296.358.346.85.346.334 0 .592-.037.592-.074 0-.074-1.984-2.54-2.144-2.65a.194.194 0 0 1-.062-.21c.05-.136 1.035-1.282 1.75-2.046.185-.198.333-.407.333-.456 0-.062-.246-.111-.542-.111-.506 0-.58.049-1.085.64-.284.358-.604.728-.69.814-.087.099-.296.358-.469.592-.185.234-.357.419-.406.419-.037 0-.074-.542-.074-1.196V8.202l-.432-.037c-.246-.024-.48 0-.53.05ZM99.64 13.688h.469c.407 0 .505-.074.888-.617.234-.345.567-.8.739-1.035.173-.222.604-.814.962-1.32l.641-.899v3.87h.986V8.142h-.419c-.395 0-.493.098-1.837 1.935l-1.43 1.935-.074-3.809-.456-.037-.468-.037v5.56ZM105.926 13.688l.468-.013c.419 0 .506-.061 1.097-.887.345-.493.962-1.332 1.356-1.874l.715-.986.074 3.76h.974V8.14h-.419c-.345 0-.493.086-.728.394-.16.222-.788 1.085-1.392 1.923l-1.097 1.516-.074-3.833h-.974v5.547ZM17.811 8.051c-1.627.777-3.155 1.504-3.39 1.627l-.43.222-.038 2.503c-.012 1.43.013 2.49.087 2.49.061 0 .185-.124.295-.284.099-.148.284-.382.42-.518.357-.37 2.724-3.204 3.55-4.252.406-.506.8-.986.875-1.048.32-.308 1.787-2.157 1.688-2.145-.049 0-1.43.641-3.056 1.405ZM40.974 9.062c-1.307 2.071-2.392 3.747-2.75 4.265a78.07 78.07 0 0 0-1.811 2.798c-.308.506-.604.95-.654.986-.086.062-.172.222-.74 1.184-.196.345-.43.702-.53.8-.27.297-.616.975-.492.975.098 0 2.095-.79 2.798-1.11.283-.123 1.097-.468 1.91-.801.309-.123.839-.345 1.171-.493.518-.234.986-.42 1.295-.493a47.68 47.68 0 0 0 1.023-.468c.53-.26 1.01-.457 1.072-.457.062 0 .32-.098.58-.21 1.836-.813 2.354-1.034 2.995-1.269.234-.086.48-.197.53-.246.05-.05-.395-.666-.986-1.38-.592-.716-1.64-1.985-2.318-2.811a211.569 211.569 0 0 0-1.627-1.96c-.222-.247-.407-.48-.407-.543-.012-.295-.32.062-1.06 1.233ZM30.076 8.323c-3.476 1.343-6.829 2.674-6.89 2.711-.05.037.221 1.11.69 2.712.098.358.197.715.21.801.012.087.073.345.123.567.11.444.148.444 1.121.025.272-.11.69-.283.925-.37.234-.086.653-.259.924-.37.481-.197.85-.345 2.034-.8a40.3 40.3 0 0 0 .925-.383c1.047-.444 2.354-.949 2.49-.949.086 0 .184-.099.221-.222.062-.197-.147-.629-1.54-3.217l-.444-.814-.789.309ZM106.48 17.632c-.111.173.136.555.468.777.752.493 1.936.345 2.49-.296.173-.222.296-.42.259-.456-.172-.16-.875-.136-1.084.05-.309.295-.937.32-1.122.049-.16-.222-.9-.309-1.011-.124ZM54.869 19.074c-.493.198-.58.444-.308.814.135.197.197.197.764.024.9-.27 1.8-.061 2.293.543.58.703.517.752-.875.752H55.51v.863h1.233c1.047 0 1.232.024 1.232.197 0 .308-.468.9-.9 1.11-.48.258-1.43.258-1.947 0a4.653 4.653 0 0 0-.432-.198c-.049 0-.419.703-.419.789 0 .037.234.185.518.333.653.333 1.948.357 2.638.037 2.108-.962 2.194-4.191.148-5.239-.58-.296-2.046-.308-2.712-.025ZM60.07 24.535h1.11v-2.86l1.134 1.43c1.11 1.418 1.121 1.43 1.64 1.43.283 0 .542-.037.59-.074.038-.037-.233-.444-.603-.887-.37-.457-.912-1.122-1.184-1.48l-.505-.653.42-.456c.233-.247.443-.48.48-.518.456-.468 1.233-1.405 1.233-1.491 0-.062-.235-.111-.53-.111-.53 0-.543.012-1.603 1.306l-1.072 1.307v-2.613h-1.11v5.67ZM66.346 19.222c-1.097.69-1.615 2.219-1.159 3.415.271.715.826 1.343 1.467 1.676.703.358 1.997.345 2.6-.025.482-.296.494-.345.284-.8-.147-.334-.234-.37-.406-.198-.272.259-1.085.37-1.628.246-.628-.16-1.257-.813-1.294-1.319-.037-.862-.024-1.133.062-1.133.05 0 .074-.037.074-.1-.074-.418.456-.948 1.11-1.133.468-.123 1.109-.062 1.515.135.148.087.26.037.395-.16.11-.148.197-.345.197-.419 0-.283-.826-.542-1.75-.542-.79 0-.986.049-1.467.357ZM70.672 24.535h.986v-4.684h2.465v4.684h.986v-5.67h-4.437v5.67ZM77.76 19.124c-.702.37-.912.58-1.27 1.282-.554 1.084-.406 2.12.444 3.242.654.862 2.429 1.195 3.476.653 1.208-.629 1.726-1.689 1.541-3.156a2.62 2.62 0 0 0-1.417-2.009c-.752-.37-2.071-.382-2.774-.012Zm2.256.875c.789.394 1.146 1.787.678 2.687-.592 1.134-2.428 1.183-3.106.074-.272-.444-.309-1.565-.074-2.046.443-.863 1.54-1.183 2.502-.715ZM83.123 24.535h.986v-2.096h.752c1.319 0 1.96-.604 1.96-1.811-.012-1.282-.715-1.763-2.589-1.763h-1.109v5.67Zm2.256-4.573c.32.123.456.505.333.998-.087.358-.814.69-1.295.567-.296-.074-.308-.123-.308-.875v-.801h.48c.272 0 .63.05.79.11ZM87.313 19.85h1.725l.025 2.306.037 2.317h.986l.037-2.317.025-2.305h1.725v-.986h-4.56v.986ZM92.738 24.535h.986V22.07h2.453l.074 2.403.469.037.456.037v-5.682h-.986v2.342h-2.466v-2.342h-.986v5.67ZM98.777 24.535h.999c.85 0 1.097-.05 1.59-.32.752-.407 1.048-.999.961-1.899-.098-1.023-.727-1.516-1.91-1.516h-.641l-.074-1.873-.456-.037-.469-.038v5.683Zm2.281-2.527c.357.345.382.555.123 1.036-.185.357-.481.505-1.072.505h-.346v-1.85h.494c.369 0 .579.087.801.31ZM102.967 24.535h1.109v-5.67h-1.109v5.67ZM105.643 18.939c-.049.05-.086 1.331-.086 2.847v2.749l.468-.012c.431 0 .493-.05 1.381-1.295.505-.715 1.121-1.553 1.356-1.873l.431-.58.074 3.76h1.097v-5.683l-.456.038c-.444.037-.53.135-1.824 1.848a80.213 80.213 0 0 1-1.418 1.874c-.037.025-.062-.789-.062-1.812v-1.873l-.431-.037c-.247-.025-.481 0-.53.049ZM114.678 24.535h4.191v.431c0 .42.012.432.493.432h.493v-1.85h-.74l-.024-2.316-.037-2.306h-.986l-.037 2.306-.025 2.317h-2.342v-4.684h-.986v5.67ZM120.84 24.535h3.205v-.986h-1.097c-1.233 0-1.233 0-1.134-1.023l.037-.456h1.947v-.863h-1.972V19.85h2.231l-.037-.468-.037-.456-3.143-.075v5.683ZM125.402 24.547l.469-.037.456-.037.074-2.403h2.391v2.403h.986v-5.547h-.986l-.074 2.293-2.268-.05-.123-2.243-.456-.037-.469-.037v5.695ZM130.701 19.85h1.726l.025 2.306.037 2.317h.986l.037-2.317.024-2.305h1.726v-.986h-4.561v.986ZM136.125 24.535h.986v-2.07l.863-.05c.814-.037.9-.074 1.331-.505.432-.432.456-.506.456-1.245 0-.666-.049-.839-.296-1.11-.505-.53-.998-.69-2.218-.69h-1.122v5.67Zm2.342-4.56c.123.073.185.307.185.677 0 .616-.111.752-.764.875-.691.136-.777.025-.777-.875v-.801h.592c.32 0 .665.062.764.123ZM4.253 20.144C.986 23.804 0 24.939 0 25.024c0 .075.32.149 2.28.53.481.1 1.32.272 1.886.383.617.123 1.06.173 1.122.099.099-.124.37-2.182.456-3.501.025-.444.111-1.418.185-2.157.074-.752.123-1.541.099-1.763-.05-.407-.074-.382-1.775 1.529ZM13.928 28.18l.9-.37c.888-.37 3.87-1.626 4.34-1.824.135-.061.554-.234.924-.382.37-.135.85-.333 1.047-.419.444-.197.863-.37 2.466-1.048.678-.283 1.405-.579 1.602-.665.21-.087.69-.296 1.073-.444.382-.16.677-.32.653-.37-.074-.11-1.492-.468-4.191-1.048a62.494 62.494 0 0 1-1.91-.456c-.506-.123-1.06-.258-1.233-.27a8.588 8.588 0 0 1-.863-.198c-.308-.086-.666-.16-.802-.185-.48-.062-2.625-.555-2.946-.678a2.713 2.713 0 0 0-.702-.123h-.358v8.48ZM42.342 25.567c-.407.173-1.233.506-1.85.752-.603.234-1.355.555-1.664.69-.308.136-.9.37-1.319.53-.419.16-1.01.395-1.294.53-.296.136-1.331.58-2.317.999-.986.42-1.85.826-1.935.887-.087.062-.198.087-.272.05-.061-.037-.135-.037-.16.024-.012.05-.468.284-.998.506-.95.419-1.06.616-.333.628.172 0 .58.087.924.185.333.111.802.21 1.024.247.234.024.813.136 1.294.234.493.111 1.306.271 1.812.37.9.172 1.775.357 2.773.58.271.06.703.135.95.172l.455.05 1.134-2.306c2.441-4.968 2.675-5.448 2.589-5.448-.037 0-.407.148-.813.32Z" fill="#6E708C"/>
</svg>
