<svg width="116" height="27" fill="none" xmlns="http://www.w3.org/2000/svg">
    <path d="M13.845 1.003a8.978 8.978 0 0 1 3.827 1.002 9.321 9.321 0 0 1 2.356 1.73c.039.04.076.08.112.123a9.124 9.124 0 0 1 1.93 3.084c.274.731.45 1.484.526 2.258.062.606.065 1.211.009 1.817a8.906 8.906 0 0 1-.786 2.944 9.258 9.258 0 0 1-2.316 3.101c-.295.249-.592.475-.891.68-.008.005.007.003.044-.007a8.916 8.916 0 0 0 2.057-1.544 9.14 9.14 0 0 0 2.642-5.565c.003-.037.02-.044.049-.02.232.18.459.374.68.582a9.12 9.12 0 0 1 2.872 6.893 8.797 8.797 0 0 1-.553 2.914 9.24 9.24 0 0 1-2.009 3.21 9.033 9.033 0 0 1-2.35 1.757A9.127 9.127 0 0 1 17.812 27a9.055 9.055 0 0 1-3.252-.583 9.11 9.11 0 0 1-2.34-1.298 9.444 9.444 0 0 1-1.44-1.372 9.01 9.01 0 0 1-1.662-2.92 8.689 8.689 0 0 1-.48-2.537c0-.013-.003-.013-.008-.002a.422.422 0 0 0-.028.15 9.16 9.16 0 0 0 2.534 6.64c.46.477.941.887 1.446 1.231.024.017.022.03-.005.041a9.336 9.336 0 0 1-2.953.64H8.668a9.072 9.072 0 0 1-3.604-.953 9.229 9.229 0 0 1-3.813-3.564 8.903 8.903 0 0 1-1.24-4.167 9.074 9.074 0 0 1 1.134-4.9 9.107 9.107 0 0 1 1.597-2.096 9.075 9.075 0 0 1 3.206-2.044 9.253 9.253 0 0 1 3.235-.581c1.38.019 2.69.316 3.93.89.01.004.006-.004-.011-.026A8.849 8.849 0 0 0 8.499 8.3c-.295 0-.554.007-.779.018a9.138 9.138 0 0 0-3.34.93c-.014.007-.02.002-.02-.014a9.247 9.247 0 0 1 .952-3.246c.389-.77.89-1.479 1.5-2.127a9.022 9.022 0 0 1 2.224-1.724 9.049 9.049 0 0 1 4.809-1.135Zm-2.329 10.2a9.02 9.02 0 0 0-1.284 1.498 8.883 8.883 0 0 0-1.276 2.774 9.56 9.56 0 0 0-.317 2.403c0 .021.01.038.027.05a9.062 9.062 0 0 0 4.044 1.334 9.136 9.136 0 0 0 5.59-1.342.031.031 0 0 0 .016-.028 9.116 9.116 0 0 0-2.148-5.926 9.096 9.096 0 0 0-1.207-1.192 9.12 9.12 0 0 0-1.428-.963.103.103 0 0 0-.104 0c-.7.386-1.338.85-1.912 1.392Z" fill="#6E708C"/>
    <path d="M10.912 12.816a4.014 4.014 0 0 1 1.752.361c.328.149.598.33.811.543.01.009.018.009.028 0 .315-.292.681-.51 1.099-.658a4.307 4.307 0 0 1 1.44-.246c.022 0 .033.012.033.034.004 1.232.001 2.44-.007 3.627 0 .012-.007.019-.02.02-.502.009-.974.09-1.415.245-.418.146-.79.367-1.113.661-.025.022-.05.022-.073-.001a2.614 2.614 0 0 0-.624-.448 4.092 4.092 0 0 0-1.907-.451c-.022 0-.033-.011-.033-.033-.001-1.22 0-2.428.003-3.627 0-.018.009-.026.026-.027Zm.308 2.743c.302.05.566.116.79.197.507.18.966.467 1.377.858.021.02.032.016.032-.013.003-.78.004-1.602.002-2.464a.06.06 0 0 0-.017-.044 2.862 2.862 0 0 0-1.232-.77 4.562 4.562 0 0 0-.943-.191c-.019-.002-.028.007-.028.026-.002.8 0 1.594.002 2.381 0 .012.006.018.017.02Zm2.874.64a4.035 4.035 0 0 1 1.653-.632c.02-.004.03-.015.03-.036V13.17c0-.024-.012-.035-.036-.033a3.73 3.73 0 0 0-1.461.407c-.264.138-.491.316-.68.533a.167.167 0 0 0-.044.115v2.416c0 .025.01.029.028.012a8.562 8.562 0 0 1 .51-.421Zm-2.864-.306a3.73 3.73 0 0 1 1.943.72c.01.008.011.007.002-.002a2.28 2.28 0 0 0-.328-.273 3.842 3.842 0 0 0-1.6-.64c-.028-.005-.044.008-.045.037a1.786 1.786 0 0 0-.001.128c0 .019.01.029.029.03Zm2.617.689c.45-.32.955-.533 1.517-.643a1.94 1.94 0 0 1 .35-.04c.028 0 .045-.014.05-.042.023-.113.005-.165-.054-.156-.718.107-1.343.4-1.877.876-.056.05-.051.05.014.005Zm1.894-.567c-.71.05-1.352.3-1.923.748-.043.037-.043.043 0 .02a4.448 4.448 0 0 1 1.938-.577c.012-.001.02-.008.02-.02.01-.09.008-.142-.004-.157a.035.035 0 0 0-.031-.014Zm-4.521.194a4.11 4.11 0 0 1 1.992.607c.02.009.027.012.025.01a2.156 2.156 0 0 0-.265-.201 3.775 3.775 0 0 0-1.74-.61c-.021-.002-.032.008-.031.03 0 .046 0 .093-.004.14 0 .015.007.023.023.024Z" fill="#6E708C"/>
    <path d="M12.925 14.34c.047.042.067.108.058.2-.003.02-.01.023-.022.01a2.911 2.911 0 0 0-1.141-.71.098.098 0 0 1-.056-.05c-.022-.04-.02-.072.004-.094.009-.009.019-.011.03-.008.405.129.78.346 1.127.652ZM15.316 13.702c.035.069.022.113-.04.133-.464.146-.88.382-1.25.71-.026.023-.042.015-.047-.022-.01-.07-.003-.115.023-.138.397-.348.826-.58 1.286-.697.012-.004.021.001.027.014ZM11.797 14.187c.258.08.507.183.746.31.14.075.278.17.416.286.025.023.032.065.021.127-.003.022-.013.027-.03.013a3.131 3.131 0 0 0-1.175-.62c-.013-.004-.02-.013-.023-.028-.011-.07.004-.1.045-.088ZM15.326 14.214c.018.05.008.08-.03.09-.48.13-.907.336-1.281.62a.024.024 0 0 1-.03.002c-.014-.01-.014-.044 0-.106a.056.056 0 0 1 .018-.03.974.974 0 0 1 .169-.129 3.91 3.91 0 0 1 1.1-.474c.025-.007.043.002.054.027ZM11.792 14.558c.384.117.764.336 1.14.658.04.035.057.1.052.195-.002.019-.008.023-.02.011-.372-.358-.76-.597-1.166-.719a.067.067 0 0 1-.03-.018c-.025-.027-.026-.065-.002-.113.006-.012.015-.016.026-.014ZM15.325 14.567c.014.012.013.049-.003.11-.002.01-.008.016-.016.018a3.242 3.242 0 0 0-1.293.728c-.01.009-.018.007-.025-.005-.018-.03-.018-.074 0-.13a.071.071 0 0 1 .02-.034 3.102 3.102 0 0 1 1.285-.695.034.034 0 0 1 .032.008ZM11.771 15.056c.43.11.815.299 1.155.569.055.043.072.099.05.166-.004.012-.01.014-.02.006a3.073 3.073 0 0 0-1.099-.594.708.708 0 0 1-.094-.035c-.014-.006-.018-.038-.011-.097.002-.013.008-.018.02-.015ZM15.193 15.056c.007-.002.011.001.013.009.014.069 0 .109-.043.12-.436.119-.82.323-1.155.611-.008.008-.017.008-.025 0-.011-.013-.011-.043 0-.091a.091.091 0 0 1 .015-.033c.048-.052.114-.106.199-.163a3.39 3.39 0 0 1 .996-.453ZM75.797.01c.32.198.665.414 1.036.65.063.04.124.036.183-.01.22-.176.502-.376.848-.6.053-.035.101-.03.144.016.156.16.297.315.422.468.021.025.021.05 0 .074a9.743 9.743 0 0 1-.752.716c-.189.166-.355.32-.5.46-.063.058-.13.062-.2.012a38.625 38.625 0 0 0-1.41-.966c-.072-.048-.093-.112-.064-.194.052-.143.128-.345.229-.604.012-.033.034-.04.064-.022ZM84.186 1.794c.085-.025.128.007.128.097-.03.525-.03 1.039 0 1.544.02.328.035.722.049 1.183-.004.106.022.115.079.024.566-.898 1.136-1.823 1.709-2.774.015-.025.031-.026.05-.004.186.224.37.438.553.643.038.044.042.09.01.137-.598.947-1.186 1.898-1.764 2.85a.13.13 0 0 0-.002.143c.55.966 1.088 1.927 1.614 2.882.016.03.01.054-.015.076-.202.168-.427.35-.676.547-.09.071-.158.055-.205-.05-.404-.898-.819-1.817-1.246-2.758-.038-.083-.057-.079-.057.013v2.714c0 .124-.062.19-.185.198a4.74 4.74 0 0 1-.598 0c-.123-.007-.183-.073-.18-.198.016-.604.001-1.11-.044-1.519a.832.832 0 0 1-.006-.1V3.51a.831.831 0 0 0-.005-.1 8.855 8.855 0 0 1-.042-1.33c.003-.08.043-.126.122-.138a5.93 5.93 0 0 0 .71-.147ZM72.117 1.786c.046-.007.071.012.075.06-.002.363.005.843.022 1.44.015.828.031 1.683.05 2.563.004.182.02.346.049.492.004.033.01.034.02.002.441-1.421.874-2.848 1.3-4.28a.083.083 0 0 1 .06-.06 2.03 2.03 0 0 1 .91-.04c.034.006.053.025.058.058.051.306.046.612-.017.917a.495.495 0 0 0-.01.098c.017 1.138.015 2.24-.006 3.305-.003.176-.017.36-.043.554a22.043 22.043 0 0 0 0 2.066c0 .107-.074.173-.222.2-.358.061-.636.07-.835.028-.032-.006-.048-.026-.046-.06.061-1.248.108-2.515.14-3.802.002-.103-.012-.126-.044-.07-.416 1.33-.81 2.62-1.183 3.874a.073.073 0 0 1-.062.056c-.364.063-.69.087-.977.07-.033-.002-.05-.02-.048-.053a3.466 3.466 0 0 0-.048-.667.493.493 0 0 1-.008-.099c.016-1.045 0-1.975-.047-2.788a1.002 1.002 0 0 1-.001-.1c.024-.556.024-1.129-.002-1.717-.023-.505-.039-1.1-.05-1.786.003-.097.052-.149.149-.156.262-.02.534-.054.816-.105Z" fill="#6E708C"/>
    <path d="M76.222 1.797c.082-.011.121.024.119.106.014.584.03 1.07.047 1.457.031.72.032 1.426.001 2.116a.216.216 0 0 0 .018.096c.03.071.04.172.03.302-.016.193-.01.35.02.468.007.033.015.033.025.001a251.57 251.57 0 0 0 1.26-4.177.265.265 0 0 1 .233-.201c.174-.025.385-.033.635-.024.129.005.195.07.198.199.015.675 0 1.239-.045 1.693a1.006 1.006 0 0 0-.005.1c.033 1.079.033 2.174 0 3.286l-.05 1.797c.003.086-.038.134-.123.144-.36.046-.671.062-.932.047-.033-.002-.046-.02-.038-.052a.883.883 0 0 0 .013-.113c.063-.832.086-1.655.07-2.47-.001-.034 0-.067.005-.1.057-.379.066-.76.029-1.14-.004-.033-.01-.033-.02-.001l-1.18 3.813a.07.07 0 0 1-.063.053 6.915 6.915 0 0 1-.959.064c-.06-.001-.09-.033-.089-.095a38.88 38.88 0 0 0-.04-1.22 19.138 19.138 0 0 1-.008-1.823 1.002 1.002 0 0 0 0-.1 37.654 37.654 0 0 1-.048-2.763.611.611 0 0 0-.006-.098 6.501 6.501 0 0 1-.043-1.097c.004-.106.058-.164.163-.173.264-.023.525-.055.784-.095ZM57.349 1.866c.351.025.679.144.981.355.133.097.21.227.23.391.043.137.067.295.073.474.038.357.055.672.049.946-.005.255-.022.545-.05.871.007.51-.2.89-.623 1.14a3.062 3.062 0 0 1-1.332.427c-.046.004-.07.03-.07.076v2.54c0 .05-.024.074-.073.074h-.667c-.094 0-.142-.046-.146-.14a166.375 166.375 0 0 1-.15-3.818 243.3 243.3 0 0 0-.11-3.148c-.003-.065.028-.103.09-.114a7.776 7.776 0 0 1 1.798-.074Zm-.673 2.683c-.004.253.019.445.069.575a.098.098 0 0 0 .064.063c.22.076.444.033.669-.128.155-.11.22-.27.197-.48a.354.354 0 0 1 .003-.098c.06-.382.053-.797-.02-1.244a.357.357 0 0 0-.243-.296 1.283 1.283 0 0 0-.753-.06c-.032.008-.047.028-.043.062.046.444.066.98.057 1.606ZM61.497 1.94c.214.021.425.065.636.131.253.114.408.32.465.618.007.032.01.065.011.098.014 1.372.022 2.766.024 4.183 0 .468-.024.974-.074 1.518-.038.328-.196.546-.472.654a.48.48 0 0 1-.095.026c-.451.072-.986.071-1.606-.002a.41.41 0 0 0-.099 0 .914.914 0 0 1-.697-.174.793.793 0 0 1-.34-.653c-.01-1.876-.01-3.684 0-5.426 0-.178.04-.345.12-.503.138-.272.328-.429.571-.47a7.516 7.516 0 0 1 1.556 0Zm-1.059 6.343c.264.098.553.093.867-.013.191-.064.289-.197.293-.4.049-1.3.056-2.637.023-4.012a12.98 12.98 0 0 0-.075-1.07.16.16 0 0 0-.114-.156 1.474 1.474 0 0 0-.92-.03c-.167.047-.25.156-.25.33v5.096a.25.25 0 0 0 .176.255ZM90.111 1.997c.307.07.515.267.624.591.087.245.106.511.057.798a.705.705 0 0 0-.009.098c-.022 1.608-.03 3.226-.024 4.855a.416.416 0 0 1-.011.098 1.085 1.085 0 0 1-.304.555.871.871 0 0 1-.524.218 53.7 53.7 0 0 1-1.556-.05 1.089 1.089 0 0 1-.673-.243 1.046 1.046 0 0 1-.271-.462.373.373 0 0 1-.013-.097c.014-1.69.012-3.398-.006-5.123a2.084 2.084 0 0 1 .204-.965.644.644 0 0 1 .463-.33 5.063 5.063 0 0 1 2.043.057ZM88.432 4.35a66.103 66.103 0 0 0-.019 2.022 74.99 74.99 0 0 0 0 1.643c.012.2.136.308.37.324.266.018.51-.012.733-.089a.364.364 0 0 0 .235-.252c.041-.137.058-.333.051-.586a80.701 80.701 0 0 1-.03-2.857 20.833 20.833 0 0 0-.065-1.758.187.187 0 0 0-.12-.169c-.23-.098-.564-.093-1 .015-.079.02-.118.07-.118.152l-.037 1.555ZM92.167 1.891c.862-.006 1.679.016 2.45.066a.068.068 0 0 1 .066.05c.038.113.047.29.027.531-.012.15-.086.224-.222.224-.706.004-1.383.002-2.03-.006-.034 0-.05.017-.05.05.007.79.034 1.596.08 2.421.013.223.027.39.044.5.03.073.083.107.16.102.598-.038 1.16-.04 1.685-.007.052.004.079.032.082.084.015.287.013.503-.007.647-.005.033-.023.051-.056.056-.555.077-1.127.154-1.716.23-.096.012-.144.067-.144.165.007.477.044.908.11 1.292.006.033.025.05.058.05.638.018 1.28.026 1.927.024.032 0 .052.016.057.049.028.155.034.363.02.625-.003.078-.044.116-.12.116-.996.004-1.967.002-2.913-.006-.072 0-.108-.036-.105-.11.018-.781.005-1.39-.04-1.825a1.006 1.006 0 0 1-.005-.1c0-1.71-.03-3.41-.09-5.097-.002-.034.013-.054.046-.062.175-.044.404-.067.686-.069ZM66.33 1.939c.087-.008.129.032.125.12-.014.291-.033.59-.058.895-.006.078-.047.122-.125.131-.524.096-.98.155-1.367.175-.286.016-.482.109-.587.28a1.352 1.352 0 0 0-.135.79.722.722 0 0 1 .005.1c-.017 1.196 0 2.275.05 3.237.01.202.104.367.28.494.028.019.057.033.088.041.128.034.294.046.496.037.473-.02.916-.054 1.328-.1.053-.006.086.017.098.07.063.278.09.52.082.726-.003.057-.032.088-.087.094-.569.042-1.11.088-1.624.137-.22.022-.441.02-.66-.006-.397-.069-.666-.253-.81-.553-.12-.25-.17-.539-.154-.866.028-.71.044-1.324.05-1.842a65.48 65.48 0 0 0 0-1.344c.02-.444.038-.957.054-1.538 0-.033.007-.065.019-.095.117-.316.374-.525.772-.627.664-.169 1.384-.288 2.16-.356ZM70.278 1.944c.087-.007.125.033.117.12-.04.388-.06.702-.063.943-.001.04-.02.063-.06.068-.58.1-1.068.161-1.465.185-.263.016-.442.101-.538.255-.153.292-.206.639-.16 1.04a.707.707 0 0 1 .005.1c-.015 1.121 0 2.117.047 2.987a.71.71 0 0 0 .013.098c.062.313.215.48.46.5.559.045 1.159.004 1.8-.125.04-.006.058.012.054.054-.004.131.005.244.028.338.057.229.054.389-.009.481a.098.098 0 0 1-.077.046c-.455.02-.923.061-1.401.126-.437.06-.822.033-1.155-.08a.945.945 0 0 1-.568-.598 2.082 2.082 0 0 1-.086-.784c-.006-.37-.004-.77.006-1.201 0-.585.008-1.149.025-1.693.014-.48.036-.913.066-1.3a.413.413 0 0 0-.008-.1c-.051-.273-.011-.502.12-.685.183-.225.426-.37.73-.436.703-.152 1.41-.265 2.12-.34ZM82.438 1.94c.085-.006.132.034.142.12.031.298.013.612-.056.943-.01.05-.039.077-.088.083-.482.071-.968.13-1.456.174-.239.022-.401.107-.487.255-.117.253-.17.548-.16.884.011.457.013.932.005 1.425-.008.53.014 1.143.067 1.842.006.094.03.184.069.27.074.166.218.267.432.303.124.02.246.027.365.02.465-.028.918-.072 1.358-.131.033-.005.053.009.06.042.062.267.081.49.058.67-.015.106-.074.165-.178.18a21.82 21.82 0 0 1-1.959.188.7.7 0 0 1-.099-.003c-.509-.054-.836-.287-.981-.698a2.374 2.374 0 0 1-.105-.99c.023-.402.04-.759.05-1.07.016-.53.016-1.045.001-1.544a.452.452 0 0 1 .007-.098c.064-.37.078-.826.04-1.37-.027-.413.086-.724.338-.935a.404.404 0 0 1 .084-.051c.352-.142.79-.256 1.313-.34.388-.062.781-.118 1.18-.168ZM45.464 12.129c.027.467.046.93.056 1.388-.005.793.003 1.49.025 2.091.012.34.016.696.01 1.065-.003.033.006.037.027.01.042-.052.085-.156.13-.31.385-1.333.781-2.666 1.189-3.996.024-.077.075-.113.154-.109.286.017.517.004.693-.039.125-.03.19.02.191.15.016 1.019 0 1.862-.045 2.532a1.226 1.226 0 0 0-.002.1c.016 1.429 0 2.865-.05 4.308-.005.112-.062.17-.173.173-.296.01-.57.004-.821-.015-.033-.003-.051-.02-.054-.054-.01-.483-.005-.89.016-1.22.061-.828.084-1.66.068-2.495-.002-.103-.016-.126-.043-.069-.408 1.268-.801 2.56-1.18 3.874-.007.019-.02.029-.04.029-.374.002-.69 0-.95-.004-.078-.002-.116-.043-.114-.122.02-.725.007-1.28-.037-1.667-.004-.033-.006-.066-.004-.1.015-.49.015-.996-.002-1.518-.03-.934-.047-1.955-.05-3.062a.551.551 0 0 0-.009-.099 3.086 3.086 0 0 1-.04-.693c.001-.032.018-.05.05-.054.356-.05.675-.095.956-.137.033-.005.05.01.049.043ZM80.63 12.155c.036.18.054.352.054.516-.001.77-.007 1.536-.019 2.296-.003.126.028.135.093.028.575-.946 1.143-1.873 1.703-2.78.017-.028.04-.033.067-.013.175.127.358.335.549.623.033.05.033.1.002.15-.584.937-1.152 1.857-1.706 2.76a.232.232 0 0 0-.003.253c.536.936 1.061 1.88 1.576 2.83.02.037.013.067-.019.093l-.747.6c-.026.02-.046.016-.06-.014-.45-.964-.9-1.936-1.347-2.916-.014-.03-.021-.03-.022.004-.02.9-.026 1.827-.017 2.782.001.113-.055.171-.167.175-.33.008-.57.004-.721-.012-.053-.006-.079-.036-.078-.09-.005-1.574-.02-2.934-.047-4.08a67.1 67.1 0 0 1 0-2.997c0-.084.041-.13.124-.14.234-.03.465-.071.691-.125.05-.012.082.007.094.057ZM101.372 12.129c0 .287.008.536.025.747.02.266.024.482.011.647-.022.423-.022.859 0 1.307.034.664.05 1.27.05 1.818 0 .033.016.053.048.06a.557.557 0 0 0 .039-.11c.436-1.439.863-2.863 1.282-4.272.009-.032.03-.048.063-.047a5.19 5.19 0 0 0 .844-.05c.073-.012.111.02.112.096a34.014 34.014 0 0 1-.048 2.636c-.013.986-.013 1.974 0 2.962.005.43-.011.897-.05 1.402-.004.111-.062.167-.172.167h-.694c-.132 0-.197-.067-.195-.2.015-.825.039-1.646.074-2.464.013-.326.02-.714.018-1.164 0-.033-.01-.037-.032-.012a.495.495 0 0 0-.06.155 61.466 61.466 0 0 1-1.112 3.61c-.025.08-.079.122-.163.124a8.76 8.76 0 0 1-.88-.014c-.033-.003-.049-.021-.05-.054a72.585 72.585 0 0 1-.067-2.172c-.015-1.022-.039-2.06-.072-3.112a.662.662 0 0 1 .002-.1 8.645 8.645 0 0 0-.034-1.683c-.013-.12.04-.188.159-.203.305-.035.589-.074.852-.116.033-.005.05.009.05.042ZM105.452 12.123c-.003.961-.001 1.922.006 2.882.002.1.034.096.099-.013a290.16 290.16 0 0 1 1.685-2.773c.034-.056.074-.06.12-.011.138.147.301.348.49.603a.142.142 0 0 1 .006.172c-.577.924-1.155 1.86-1.733 2.805a.122.122 0 0 0-.002.134 99.818 99.818 0 0 1 1.602 2.904c.016.029.011.054-.014.075-.208.176-.445.368-.713.576-.052.04-.092.03-.119-.029-.238-.496-.465-.99-.68-1.48-.205-.47-.411-.908-.618-1.313-.016-.03-.024-.028-.025.005.026.468.024.989-.005 1.562-.016.31-.031.715-.044 1.218.002.062-.028.095-.09.098-.248.008-.454.01-.619.004-.173-.006-.26-.097-.259-.272a96.596 96.596 0 0 0-.006-4.378.382.382 0 0 0-.044-.155c.004-.804.006-1.607.006-2.409.001-.05.025-.078.073-.086.265-.045.546-.097.844-.153.027-.005.04.006.04.034ZM63.627 12.192c.03.077.044.145.043.205a91.78 91.78 0 0 0 .068 3.093 13.4 13.4 0 0 1-.011 1.257c-.001.034.007.036.025.008.022-.035.052-.118.091-.25.402-1.38.82-2.776 1.25-4.187.01-.031.03-.046.062-.046.22.004.518-.002.897-.018.021 0 .032.01.032.031.03.922.034 1.8.012 2.632a220.67 220.67 0 0 1-.055 1.836 69.457 69.457 0 0 0 0 2.67c0 .046-.023.069-.068.069h-.933c-.076 0-.112-.038-.109-.115.033-.93.071-1.902.116-2.916.013-.308.03-.607.05-.897 0-.067-.024-.063-.075.013a290.467 290.467 0 0 1-1.183 3.899.068.068 0 0 1-.064.05c-.293.02-.608.025-.944.015-.068-.001-.1-.036-.1-.103 0-.764-.008-1.46-.024-2.087-.015-.615-.025-1.202-.03-1.762-.025-.964-.048-2.034-.069-3.21 0-.09.044-.147.13-.17.186-.05.448-.079.786-.087a.1.1 0 0 1 .103.07ZM53.453 12.167l.778.01c.033.001.048.018.044.051a83.694 83.694 0 0 0-.183 2.534.445.445 0 0 0 .005.098.903.903 0 0 1-.187.742.697.697 0 0 1-.462.274c-.081.022-.084.05-.007.087.339.16.536.44.592.84a.64.64 0 0 1 .005.1 17.721 17.721 0 0 1-.14 1.966.425.425 0 0 0 0 .1c.023.197-.005.355-.084.475a.077.077 0 0 1-.077.037c-.16-.014-.35-.028-.569-.041-.139-.009-.202-.083-.19-.222.044-.671.093-1.343.148-2.017.02-.251-.079-.392-.296-.423a4.763 4.763 0 0 0-.9-.042c-.057-.002-.089.027-.094.085a54.413 54.413 0 0 0-.165 2.297.492.492 0 0 0 .006.099c.03.2-.08.29-.33.275-.199-.013-.315-.01-.348.01-.197-.043-.295-.167-.294-.37.004-.788.002-1.512-.005-2.174 0-.033-.017-.049-.05-.048a3.067 3.067 0 0 1-.54-.044.237.237 0 0 0-.263.117 1 1 0 0 0-.178.517c-.041.64-.047 1.294-.02 1.96.002.054-.023.08-.076.081-.332.003-.62.002-.861-.004-.033-.001-.052-.018-.055-.051a3.093 3.093 0 0 1 .018-.697c.054-.316.056-.646.006-.99-.063-.487.066-.904.39-1.25a.666.666 0 0 1 .279-.194c.104-.023.105-.05.003-.08-.3-.093-.506-.27-.619-.53a1.556 1.556 0 0 1-.13-.592c-.02-.845-.017-1.787.008-2.825 0-.033.017-.05.05-.05.276-.007.605-.01.987-.006.053 0 .078.028.075.08-.058.748-.1 1.49-.123 2.23-.008.254.02.447.087.578a.333.333 0 0 0 .242.216c.338.084.594.112.77.084.033-.005.05-.024.05-.057 0-1.005.024-2.056.074-3.154.003-.05.03-.076.08-.076.348-.003.65-.001.907.005.033 0 .05.017.051.05.054 1.038.09 2.093.11 3.165 0 .032.016.048.047.048.267.012.494-.017.681-.088.257-.1.399-.323.426-.666a85.81 85.81 0 0 1 .223-2.427c.006-.063.04-.095.104-.093ZM61.895 12.176c.046.003.07.028.07.074l-.048 2.537a116.7 116.7 0 0 0 0 4.506c0 .066-.033.1-.099.1h-.617c-.122 0-.188-.062-.197-.185-.07-.624-.12-1.243-.149-1.857a4.527 4.527 0 0 0-.051-.532.074.074 0 0 0-.066-.053c-.265-.028-.524-.05-.778-.065-.033-.003-.05.013-.051.046-.03.82-.052 1.672-.067 2.555-.002.081-.042.128-.123.14-.19.028-.41.055-.659.082-.083.009-.125-.029-.125-.113a72.726 72.726 0 0 0-.056-2.483c-.017-.822-.042-1.685-.074-2.59a31.55 31.55 0 0 1-.008-1.947c.002-.034.019-.052.052-.055.234-.022.472-.026.716-.011.033.002.05.02.052.053.074 1.131.142 2.264.205 3.398.001.034.018.05.051.05.318 0 .62.013.905.04.05.005.076-.018.08-.068.094-1.194.197-2.38.307-3.558.004-.032.022-.05.054-.054.208-.024.433-.027.676-.01ZM76.727 12.229c.017 1.27.026 2.473.025 3.61 0 .824.007 1.704.023 2.638.001.033.018.049.05.046.248-.022.5-.059.755-.11a.083.083 0 0 0 .065-.057c.063-.174.081-.384.056-.632a.72.72 0 0 1-.003-.1l.25-5.37c0-.034.018-.05.05-.047.321.019.648.024.981.016.06 0 .088.029.086.09a734.609 734.609 0 0 0-.213 7.073c0 .033-.017.05-.05.05-1.716.01-3.43.01-5.144 0-.058 0-.087-.03-.087-.089.014-2.352.031-4.686.052-7 0-.051.026-.076.077-.074.31.015.587-.002.83-.05.104-.02.156.023.155.13.005 1.29.021 2.533.048 3.728.018.812.02 1.607.006 2.384 0 .033.016.05.05.049.286-.004.564-.024.833-.06.033-.006.05-.024.05-.058.015-2.031.026-4.087.03-6.168 0-.033.017-.05.05-.051.304-.012.613-.012.926 0 .033.001.05.018.05.052ZM94.04 12.204c.05 1.084.084 2.187.102 3.308.002.114.06.17.173.17h.963a.34.34 0 0 1 .097.015.58.58 0 0 1 .367.303c.088.169.139.347.153.535.075.658.053 1.405-.067 2.24-.047.327-.255.536-.626.63a.427.427 0 0 1-.096.014 31.12 31.12 0 0 1-1.998.021c-.052 0-.077-.027-.076-.08.06-1.813.1-3.63.117-5.45.006-.713.025-1.273.055-1.681.004-.034.023-.05.056-.05.248-.002.49-.009.728-.022.033-.002.05.013.052.047Zm.072 5.34c-.028.365-.026.755.006 1.17.004.05.031.075.08.075.255.017.481-.016.68-.1.152-.075.237-.23.252-.467.04-.595.018-1.093-.067-1.493a.276.276 0 0 0-.19-.204c-.24-.08-.446-.11-.62-.092-.072.007-.109.047-.11.121.001.373-.01.703-.031.99ZM43.11 12.382c.276.194.429.514.46.96.06.568.049 1.122-.031 1.663-.048.316-.237.523-.568.622-.324.08-.665.1-1.026.062-.009 0-.005.016.013.05.259.083.566.156.92.218.294.052.534.174.722.367a.626.626 0 0 1 .167.554c-.06.547-.102 1.095-.124 1.643a1.95 1.95 0 0 1-.11.62.253.253 0 0 1-.054.082c-.146.131-.355.204-.626.219-.834.045-1.555.078-2.165.1-.125 0-.191-.063-.198-.189-.06-.711-.096-1.37-.106-1.977a68.172 68.172 0 0 1 .006-4.7c.004-.12.019-.238.043-.354 0-.028.014-.043.042-.045.368-.016.716-.042 1.045-.08.607-.068 1.109-.023 1.503.137.031.013.06.029.087.048Zm-1.041.457c-.106-.118-.248-.16-.427-.126-.03.006-.047.025-.048.057-.025.667-.025 1.342.002 2.024.004.095.052.134.146.117.193-.022.323-.132.39-.33.153-.458.165-.973.036-1.543a.396.396 0 0 0-.1-.2Zm-.133 3.71a76.053 76.053 0 0 1-.228-.064c-.062-.018-.1.005-.114.07-.04.208-.057.449-.05.721l.042 1.525c.001.033.018.054.05.063.046-.018.131-.032.254-.044.202-.014.325-.114.37-.3.037-.24.07-.488.1-.746a2.23 2.23 0 0 0-.095-.922.471.471 0 0 0-.328-.303ZM98.968 12.173h.607c.05 0 .074.025.074.074v7.05c0 .064-.031.095-.094.095h-.686c-.082 0-.127-.041-.133-.124-.064-.843-.13-1.662-.2-2.459-.002-.033-.02-.05-.053-.052-.266-.013-.53-.032-.79-.056-.033-.002-.05.013-.052.046-.035.834-.063 1.71-.084 2.626 0 .034-.017.053-.05.059-.208.037-.442.07-.702.099-.078.009-.118-.026-.12-.105-.078-2.385-.151-4.732-.221-7.04-.001-.037.016-.057.052-.059.262-.016.507-.013.735.008.069.007.105.044.109.113.064 1.233.125 2.338.181 3.316.002.033.02.05.053.051.356.012.669.03.938.056.033.003.05-.012.053-.045.09-1.186.189-2.378.299-3.576.004-.051.032-.077.084-.077ZM114.441 12.173c.408-.019.748.079 1.018.292.274.23.388.53.344.903a.415.415 0 0 0 .003.1c.07.526.055 1.065-.047 1.618a.384.384 0 0 1-.03.094c-.129.287-.394.454-.794.503a5.13 5.13 0 0 1-.686.032c-.033-.001-.034.005-.003.017.221.079.574.17 1.059.274a.984.984 0 0 1 .537.305c.121.148.172.354.155.617-.05.729-.107 1.442-.173 2.14a.314.314 0 0 1-.211.27c-.159.056-.328.09-.505.104-.694.051-1.432.085-2.216.102-.078 0-.123-.038-.137-.115a4.973 4.973 0 0 1-.067-.709 150.085 150.085 0 0 1-.074-5.576 4.37 4.37 0 0 1 .067-.818c.008-.032.029-.05.062-.053a54.64 54.64 0 0 1 1.698-.1Zm-.045 2.295c.104-.488.121-.87.051-1.145a.215.215 0 0 1-.002-.098c.05-.226-.082-.404-.396-.534-.13-.054-.199-.01-.207.13-.033.627-.034 1.3-.003 2.021a.07.07 0 0 0 .05.067c.122.045.239.003.349-.124a.695.695 0 0 0 .158-.317Zm-.097 2.13c-.158-.103-.295-.14-.409-.112a.077.077 0 0 0-.06.06c-.06.244-.079.545-.056.904.027.43.044.877.05 1.344.001.067.034.092.098.075.104-.027.198-.043.282-.047.136-.008.222-.078.259-.21.11-.41.16-.846.151-1.311-.007-.337-.112-.57-.315-.703ZM92.18 12.265c.037.249.057.525.061.829.026 2.008.076 4.088.148 6.24.004.137-.062.206-.197.208-.321.002-.604 0-.849-.005-.043-.002-.065-.024-.065-.068.003-2.125.001-4.198-.006-6.22 0-.033-.017-.051-.05-.054a8.056 8.056 0 0 0-.814 0c-.095.003-.143.052-.143.148-.013 1.294-.013 2.589 0 3.883.006.5-.134.965-.42 1.394-.26.376-.513.62-.758.731a1.22 1.22 0 0 1-.649.14 2.008 2.008 0 0 0-.62.052c-.078.02-.119-.011-.123-.092-.009-.207.011-.451.06-.735.02-.106.083-.155.19-.145.518.058.903-.102 1.154-.48.196-.295.25-.61.164-.94a.493.493 0 0 1-.01-.099v-4.75c0-.049.024-.074.073-.074l2.797-.011c.033 0 .052.016.058.048ZM38.236 12.223c.116.002.174.061.172.179.001 1.425.017 2.834.05 4.227.014.627.016 1.223.006 1.786 0 .034.016.05.05.05.399-.002.794.006 1.184.023.033.001.05.019.053.052.04.69.028 1.371-.035 2.041-.003.033-.021.053-.054.058-.181.03-.471.034-.87.014-.054-.003-.081-.032-.082-.086-.007-.272-.009-.589-.005-.95 0-.05-.024-.075-.074-.075h-3.47c-.058 0-.086.028-.086.086v1.009c0 .05-.025.075-.074.075h-.866c-.04 0-.063-.021-.067-.062a17.51 17.51 0 0 1-.053-2c.001-.071.036-.114.105-.131a1.97 1.97 0 0 1 .657-.036c.05.005.084-.017.102-.064.19-.479.37-.968.541-1.466.236-.676.35-1.365.346-2.067l-.018-2.558c0-.033.016-.05.049-.053.69-.048 1.503-.066 2.439-.053Zm-1.51 1.055c-.06-.003-.09.026-.09.087.014.717.011 1.457-.006 2.218a7.683 7.683 0 0 1-.58 2.823c-.012.03-.002.048.03.051.4.04.793.026 1.18-.04.026-.005.038-.02.037-.046a899.604 899.604 0 0 1-.102-5c0-.047-.024-.072-.072-.074l-.397-.019ZM55.077 12.223a284.45 284.45 0 0 1 3.031.005c.033 0 .053.017.058.05.046.23.046.46.001.686-.006.033-.026.05-.059.05-.712.01-1.428.015-2.148.012-.064 0-.096.031-.095.096.01 1.063.048 2.027.115 2.89.003.034.02.05.054.052.596.017 1.197.025 1.803.023.032 0 .053.016.062.048.033.123.036.356.01.698-.005.056-.035.088-.091.095-.588.067-1.17.141-1.748.223-.032.004-.05.023-.051.056-.016.468.015.938.093 1.409.005.032.024.049.057.05.61.028 1.262.038 1.953.03.042-.002.063.02.064.063.004.277.003.49-.003.637-.002.063-.034.094-.096.095-1.06.01-2.048.004-2.967-.017-.033 0-.05-.018-.051-.05-.044-1.958-.082-3.893-.116-5.807a28.214 28.214 0 0 0-.05-1.218c0-.117.057-.176.174-.176ZM66.905 12.223h3.062c.05 0 .074.024.074.074v.672c0 .034-.016.05-.05.05-.78.006-1.505.008-2.177.007-.065 0-.097.032-.096.098.011 1.061.05 2.024.115 2.888.003.034.02.05.054.052.596.017 1.197.025 1.802.023.033 0 .054.016.062.048.046.176.05.409.01.696-.008.055-.04.086-.094.093-.572.07-1.152.145-1.74.228-.039.006-.058.028-.059.066-.008.489.024.955.097 1.398.005.032.024.05.057.051.628.04 1.259.041 1.892.005.085-.005.127.035.127.12v.615c0 .057-.028.085-.083.085-1.022.003-2.013.001-2.972-.006-.05 0-.076-.026-.077-.078a224.622 224.622 0 0 0-.122-6.32 65.102 65.102 0 0 0-.028-.726c.005-.093.054-.14.146-.14ZM84.66 12.223c.404.02.807.02 1.21 0 .248-.013.487.028.716.124.347.145.528.394.543.747.019.604.019 1.218 0 1.842-.012.425-.01.883.006 1.375.003.172-.013.428-.048.767a.703.703 0 0 0-.007.099 86.09 86.09 0 0 1-.005 1.612.406.406 0 0 1-.014.097c-.083.313-.277.509-.582.587a.367.367 0 0 1-.096.013c-.485 0-1.026.002-1.624.006a1.107 1.107 0 0 1-.612-.18.807.807 0 0 1-.351-.468 3.107 3.107 0 0 1-.08-.69 21.886 21.886 0 0 1-.019-2.023 3.63 3.63 0 0 1 .055-.517c.017-.426.021-.862.013-1.306-.006-.371-.004-.743.006-1.115.008-.202.055-.395.142-.578.168-.27.417-.401.747-.393Zm.118 1.288c.007.918.003 1.872-.013 2.863v1.948c.001.16.08.254.238.282.128.012.302.017.521.017.264-.001.446-.094.546-.28a.299.299 0 0 0 .03-.094c.012-.205.018-.42.017-.647-.003-.935.005-1.856.025-2.764a.61.61 0 0 0-.008-.098 6.27 6.27 0 0 1-.066-1.047c.004-.26-.01-.474-.044-.643a.178.178 0 0 0-.159-.143c-.403-.058-.713-.055-.93.008a.115.115 0 0 0-.071.055c-.06.127-.088.308-.086.543ZM109.576 12.222c.436-.01.872-.01 1.309 0 .34.008.606.13.796.368.168.184.242.427.222.728a.83.83 0 0 0-.005.1c-.002.689-.002 1.41-.001 2.165a94.77 94.77 0 0 1-.047 3.187.548.548 0 0 1-.013.098c-.077.34-.263.544-.558.613a.441.441 0 0 1-.098.01 18.496 18.496 0 0 0-1.58 0c-.325.014-.595-.08-.809-.28a.878.878 0 0 1-.247-.522c.006-1.823.004-3.663-.006-5.52a.955.955 0 0 1 .389-.803c.166-.122.382-.17.648-.144Zm-.03 1.936v.946c-.013.206-.019.432-.019.678 0 .826.008 1.673.025 2.54 0 .033.003.066.009.098.033.133.17.2.41.2.269.001.506-.026.711-.08a.273.273 0 0 0 .182-.253 40.34 40.34 0 0 0 .027-2.374c-.016-.931-.034-1.863-.055-2.794-.007-.133-.075-.207-.205-.225a4.202 4.202 0 0 0-.777-.018c-.145.008-.23.084-.255.229a9.049 9.049 0 0 0-.053 1.053ZM35.692 23.923c1.546.116 3.053.207 4.519.274 2.325.09 4.663.132 7.013.124 4.289-.035 8.577-.035 12.866 0a29 29 0 0 1 .963.025c2.566-.05 5.118-.033 7.655.05.27.009.541.009.815 0a60.619 60.619 0 0 1 4.908-.019c.236.009.502.015.796.02.728.004 1.51-.004 2.346-.026.198-.005.38-.022.543-.05a198.12 198.12 0 0 1 6.464.006c.099.002.216.017.352.044 1.893-.021 3.786-.021 5.68 0 .192.002.364.01.518.025 1.92.054 3.847.062 5.778.025.187-.003.336.008.448.034.03.01.063.016.096.016a126.14 126.14 0 0 1 5.012 0c.096.002.211.018.346.05a55.805 55.805 0 0 1 4.025 0c.179.006.385.023.618.05.684-.002 1.334.006 1.95.024 1.98.067 3.957.099 5.933.094.259 0 .414.037.467.114.115.19.063.3-.156.325-.701.071-1.344.149-1.928.233-.89.123-1.744.183-2.562.18-.453-.002-.906-.002-1.359 0a1.15 1.15 0 0 0-.298.036.34.34 0 0 1-.097.014H98.044a.19.19 0 0 1-.093-.024c-.085-.047-.165-.05-.24-.007a.179.179 0 0 1-.093.025c-2.348.017-4.692.011-7.031-.018a.992.992 0 0 1-.1-.007 3.25 3.25 0 0 0-.988.022.533.533 0 0 1-.098.009c-4.508.012-9.01.004-13.507-.025a.989.989 0 0 1-.1-.005c-.375-.04-.885-.047-1.53-.02-.946.044-1.895.054-2.846.031a116.17 116.17 0 0 0-1.895-.03 851.016 851.016 0 0 0-13.137 0c-.498.003-.992.02-1.482.049a173.45 173.45 0 0 1-7.482 0 7.608 7.608 0 0 1-.717-.05 156.02 156.02 0 0 1-7.235-.147 214.74 214.74 0 0 1-4.272-.444.532.532 0 0 1-.097-.021c-.221-.07-.479-.162-.773-.278a.25.25 0 0 1-.153-.162c-.083-.25-.007-.399.227-.448a3.942 3.942 0 0 1 1.29-.118Zm32.972 1.176a.572.572 0 0 1 .232-.118c.05-.034.067-.08.05-.137-.052-.164-.14-.214-.263-.15-.116.061-.215.078-.296.05-.142-.062-.292-.039-.45.07-.098.073-.094.14.011.198.192.107.387.16.587.156a.433.433 0 0 0 .13-.069Z" fill="#6E708C"/>
    <path d="M68.946 24.844c.017.058 0 .103-.05.137a.572.572 0 0 0-.232.118.433.433 0 0 1-.13.069 1.15 1.15 0 0 1-.586-.156c-.105-.059-.11-.125-.012-.199.159-.108.31-.13.45-.068.082.027.181.01.297-.05.123-.065.21-.015.263.15Z" fill="#6E708C"/>
</svg>
