<svg width="104" height="24" fill="none" xmlns="http://www.w3.org/2000/svg">
    <path d="M53.968.606c-2.312.313-5.164.69-6.31.836l-2.081.25.125 3.823 1.457 1.002c.791.543 1.645 1.128 1.874 1.274.396.272.354.314-.562.543-2.624.669-4.185 3.906-3.498 7.248.708 3.384 2.686 4.763 6.87 4.72 4.581-.02 6.663-2.004 6.663-6.349 0-1.692-.333-2.945-1.04-3.948-.23-.334-1.854-1.566-3.602-2.757l-3.165-2.151 2.915-.25c1.603-.147 3.414-.314 4.018-.398l1.083-.104V2.152c0-1.608-.063-2.172-.25-2.152-.146.021-2.166.293-4.497.606ZM52.926 11.05c1.27.355 1.624 1.023 1.624 3.028 0 1.42-.083 1.818-.416 2.256-.77.982-2.623 1.253-4.08.585-.771-.355-.896-.501-1.125-1.462-.292-1.212-.125-3.05.312-3.634.313-.439 1.603-.961 2.395-.982.291 0 .874.104 1.29.209ZM7.183 7.854c-.791.167-2.061.71-2.644 1.128l-.583.418V8.126H0V24h3.748v-2.59c0-1.441.083-2.653.187-2.715.083-.063.333.062.541.292.563.627 2.478 1.253 3.832 1.253 2.207 0 3.747-.856 4.622-2.569.874-1.713.853-5.535-.042-7.415-.895-1.817-3.456-2.903-5.705-2.402Zm1.354 3.363c1.624.794 1.707 4.553.124 5.577-.416.271-.895.334-2.102.271-2.166-.104-2.478-.417-2.582-2.694-.084-1.984.187-2.736 1.082-3.196.896-.439 2.582-.418 3.478.042ZM19.925 7.917c-1.644.292-3.185 1.17-3.893 2.172-.833 1.232-1.104 2.527-1 4.574.105 1.88.521 2.945 1.541 3.99 1.708 1.692 5.018 2.193 8.391 1.253 1.478-.418 2.936-1.859 3.373-3.321.417-1.462.375-4.157-.083-5.368-.5-1.295-1.895-2.548-3.269-2.966-1.374-.418-3.769-.564-5.06-.334Zm3.936 3.446c.916.585 1.228 3.342.541 4.7-.437.919-1.562 1.337-3.04 1.17-1.915-.21-2.415-.899-2.415-3.217 0-1.692.291-2.319 1.25-2.82.853-.439 2.873-.355 3.664.167ZM34.646 8.021c-1.666.355-2.353.731-3.248 1.734-.979 1.086-1.291 2.088-1.312 4.115 0 2.318.396 3.53 1.54 4.72 1.23 1.274 2.687 1.734 5.331 1.734 2.353 0 3.81-.46 5.018-1.588.812-.752 1.749-2.527 1.499-2.799-.063-.062-.958-.167-1.957-.23l-1.853-.104-.354.627c-.25.46-.583.71-1.229.877-.916.25-2.477.125-3.165-.25-.957-.502-1.311-3.363-.603-4.763.25-.543.583-.814 1.186-1.002 1.562-.523 3.748.041 4.019 1.044.104.397.229.418 1.957.334 1.02-.063 1.916-.167 1.978-.25.25-.251-.625-2.048-1.333-2.737-.416-.397-1.228-.898-1.81-1.128-1.48-.543-4.082-.71-5.664-.334ZM63.92 7.896c-2.603.543-3.956 2.632-3.956 6.203 0 4.073 1.79 6.141 5.35 6.141 1.333 0 2.27-.292 3.457-1.044l.979-.627v1.253h3.748V8.126H69.75v1.462l-.875-.627c-1.457-1.065-3.144-1.42-4.955-1.065Zm4.476 3.237c.375.167.792.48.916.71.355.69.5 2.59.25 3.51-.333 1.274-.853 1.629-2.477 1.712-2.499.146-3.227-.501-3.227-2.882 0-1.692.333-2.611 1.082-3.029.708-.376 2.54-.397 3.456-.02ZM75.788 19.822h3.748v-4.386h4.996v4.386h3.748V8.126h-3.727l-.125 4.282-4.892.125V8.126h-3.748v11.696ZM90.362 19.822h3.748V17.15l.02-2.653 5.165 5.347 4.705-.125-5.788-5.974 2.79-2.82 2.79-2.798h-4.58l-5.102 5.117V8.126h-3.748v11.696Z" fill="#6E708C"/>
</svg>
