<svg width="121" height="30" fill="none" xmlns="http://www.w3.org/2000/svg">
    <path d="M5.479 0h7.556a.69.69 0 0 1-.182.015 95.663 95.663 0 0 0-1.363 0c-.323.003-.631.003-.925 0H9.282a538.036 538.036 0 0 0-3.59.006c-.065 0-.137-.003-.216-.01A.471.471 0 0 1 5.479 0Z" fill="#6E708C"/>
    <path d="M13.035 0h.098c.01 1.073.013 2.176.008 3.309 0 .025.013.037.038.037a13.376 13.376 0 0 1 9.342 3.635c.958.898 1.767 1.92 2.427 3.065a13.012 13.012 0 0 1 1.774 6.362 12.945 12.945 0 0 1-.837 4.918 13.355 13.355 0 0 1-2.22 3.829c-.365.443-.78.881-1.248 1.316a13.094 13.094 0 0 1-2.963 2.07A13.338 13.338 0 0 1 13.905 30h-1.107a.463.463 0 0 0-.119-.012 13.117 13.117 0 0 1-5.877-1.7 13.622 13.622 0 0 1-2.455-1.774 12.375 12.375 0 0 1-.663-.65A13.263 13.263 0 0 1 0 17.23v-1.116h.01c.083-1.967.57-3.816 1.46-5.546a12.785 12.785 0 0 1 1.715-2.55 13.548 13.548 0 0 1 2.256-2.085.045.045 0 0 0 .02-.038c.008-1.924.01-3.857.003-5.798 0-.04.004-.07.012-.087.079.008.15.012.216.011a403.556 403.556 0 0 1 3.59-.006h1.283c.294.003.602.003.925 0 .456-.003.91-.003 1.363 0A.69.69 0 0 0 13.035 0ZM8.668 5.49l-.281-.262a.155.155 0 0 1-.052-.119V.9c0-.033-.016-.05-.048-.05-.132-.001-.245 0-.34.003-.033 0-.05.018-.05.051V4.73c0 .014-.005.016-.015.006l-.292-.291a.148.148 0 0 1-.046-.11V.898c0-.032-.016-.048-.048-.048h-.28c-.065 0-.098.032-.098.097.002 1.006.001 2.005-.002 2.994 0 .016-.007.02-.02.009a4.198 4.198 0 0 1-.326-.304.058.058 0 0 1-.017-.042V.886c0-.024-.012-.036-.036-.036h-.34c-.03 0-.047.015-.047.046-.003 1.345-.004 2.687-.002 4.027 0 .04.014.074.042.102.91.894 1.807 1.774 2.694 2.638.042.04.062.031.062-.026V.898c0-.032-.016-.048-.048-.048-.14-.002-.261-.001-.363.002-.016 0-.024.009-.024.025l-.006 4.606c0 .016-.006.018-.017.007Zm2.834-1.549L11.496.89c0-.016-.008-.026-.024-.03a1.522 1.522 0 0 0-.35-.005c-.039.003-.058.023-.058.061l-.006 3.463c0 .016-.006.03-.017.041-.105.102-.201.199-.288.291-.03.032-.045.026-.045-.018V.947c0-.065-.032-.097-.097-.097h-.274c-.037 0-.055.018-.055.054v4.181a.185.185 0 0 1-.054.133 6.59 6.59 0 0 1-.294.282c-.011.01-.017.008-.017-.007V.886c0-.024-.012-.036-.036-.036h-.344c-.03 0-.046.015-.046.045-.001 2.259 0 4.513.003 6.763 0 .042.015.048.045.019l2.682-2.638a.183.183 0 0 0 .057-.136c.002-1.347 0-2.685-.003-4.014 0-.016-.008-.026-.024-.03a1.618 1.618 0 0 0-.372-.008c-.016.001-.024.01-.024.026L11.849 3.6c0 .017-.005.03-.016.043a2.306 2.306 0 0 1-.312.306c-.013.01-.019.007-.019-.009Zm10.13 4.57a11.679 11.679 0 0 1 2.306 3.33 11.587 11.587 0 0 1 1.044 5.453 11.313 11.313 0 0 1-1.293 4.73 11.482 11.482 0 0 1-2.428 3.173 11.59 11.59 0 0 1-8.545 3.068 11.736 11.736 0 0 1-3.626-.79 11.476 11.476 0 0 1-3.794-2.43 11.736 11.736 0 0 1-2.312-3.106 11.47 11.47 0 0 1-1.268-5.191 11.285 11.285 0 0 1 1.007-4.785 11.514 11.514 0 0 1 2.373-3.459c.245-.247.49-.477.736-.688a.051.051 0 0 0 .019-.04c.004-.346.004-.692-.001-1.038 0-.016-.007-.02-.02-.01-.47.345-.944.76-1.422 1.248a12.3 12.3 0 0 0-1.515 1.875 12.264 12.264 0 0 0-1.664 3.79c-.252.96-.378 1.971-.377 3.034.001 2.282.578 4.393 1.73 6.332a12.287 12.287 0 0 0 2.456 2.976 12.471 12.471 0 0 0 3.568 2.23c1.657.686 3.405.994 5.242.925a12.265 12.265 0 0 0 5.667-1.605 12.24 12.24 0 0 0 3.103-2.475 12.497 12.497 0 0 0 2.294-3.61c.644-1.55.959-3.185.946-4.907a12.18 12.18 0 0 0-.813-4.299 12.418 12.418 0 0 0-2.038-3.49 12.465 12.465 0 0 0-1.478-1.51 12.11 12.11 0 0 0-1.826-1.31A12.374 12.374 0 0 0 14.48 4.26a12.041 12.041 0 0 0-1.691-.037c-.024.002-.037.014-.037.039v.793c0 .018.01.027.028.027 2.335-.096 4.493.434 6.473 1.59a10.983 10.983 0 0 1 2.38 1.838ZM6.356 5.541c-.02.002-.029.016-.028.04.004.559.004 1.109 0 1.651 0 .016.005.03.017.041A258.3 258.3 0 0 0 9.07 9.951c.038.036.056.028.056-.024V8.252a.055.055 0 0 0-.017-.04C8.207 7.331 7.3 6.447 6.39 5.554a.043.043 0 0 0-.035-.013Zm3.485 2.343c-.074.073-.171.166-.29.28a.209.209 0 0 0-.06.148v1.64c0 .035.013.04.038.015.902-.887 1.811-1.78 2.73-2.679a.062.062 0 0 0 .019-.046V5.558c0-.035-.013-.04-.039-.016-.802.787-1.602 1.568-2.398 2.343ZM8.606 10.01c-.745-.72-1.49-1.447-2.231-2.183-.032-.031-.047-.024-.047.02v1.68c0 .017.005.03.017.042.91.891 1.826 1.79 2.748 2.699.022.022.033.017.033-.015v-1.706a.06.06 0 0 0-.016-.042c-.161-.161-.33-.326-.504-.495Zm1.4 1.766c.76-.738 1.512-1.474 2.255-2.207a.056.056 0 0 0 .017-.041v-1.7c0-.027-.01-.032-.03-.012-.91.89-1.82 1.777-2.73 2.663a.084.084 0 0 0-.027.062v1.693c0 .036.013.042.039.016.163-.167.321-.325.475-.474Zm-1.266.65a325.603 325.603 0 0 1-2.386-2.33c-.015-.016-.023-.013-.024.01-.003.545-.004 1.1-.002 1.663 0 .048.017.089.051.122.884.862 1.784 1.743 2.7 2.643.019.019.032.015.04-.01a.94.94 0 0 0 .007-.154 87.004 87.004 0 0 1 0-1.541.06.06 0 0 0-.016-.043c-.118-.115-.241-.236-.37-.36Zm3.097-1.918c-.775.756-1.548 1.507-2.321 2.254a.077.077 0 0 0-.025.057v1.709c0 .028.01.032.03.012.912-.891 1.823-1.784 2.733-2.677a.076.076 0 0 0 .024-.057v-1.684c0-.031-.012-.036-.035-.014l-.406.4Zm9.334 3.72c.004.078.004.157 0 .236 0 .016-.01.024-.025.024l-.445.006c-.016 0-.024.008-.025.024-.002.112-.003.24-.002.38 0 .028.014.042.042.042h.42c.025 0 .037.012.037.037v.352c0 .025-.013.038-.039.037a4.067 4.067 0 0 0-.426.006c-.017.002-.025.01-.026.027-.01.228-.012.482-.007.76 0 .029.015.043.045.043h.422c.026 0 .04-.012.04-.038.004-.081.004-.181.003-.3 0-.025.012-.038.037-.038h.587c.065 0 .096.033.094.097-.004.115-.002.197.005.246.003.016.012.025.028.027.148.013.297.013.445 0 .016-.002.024-.01.025-.027a6.971 6.971 0 0 0 0-.77c0-.017-.01-.025-.025-.027a3.876 3.876 0 0 0-.415-.006c-.034 0-.05-.016-.05-.05v-.34c0-.025.012-.037.038-.036.16.005.302.002.427-.007.016-.001.025-.01.027-.026.008-.074.01-.198.006-.37-.001-.03-.018-.046-.049-.046h-.413c-.025 0-.037-.012-.037-.036v-.219c0-.024.012-.036.037-.036.328.01.657.01.985 0 .108 0 .19-.04.244-.121a.597.597 0 0 0 .085-.389.467.467 0 0 0-.052-.252.355.355 0 0 0-.325-.172c-2.24.01-4.478.01-6.717 0-.013 0-.016-.006-.01-.017.17-.276.239-.578.204-.906a1.4 1.4 0 0 0-.52-.961 1.389 1.389 0 0 0-.989-.337c-.333.009-.63.122-.888.34a1.4 1.4 0 0 0-.499.849c-.071.38.002.741.219 1.083.008.014.007.027-.005.038a.493.493 0 0 0-.165.263.46.46 0 0 0 .168.49c.014.012.016.025.007.04-.158.252-.24.512-.248.78-.012.406.122.754.402 1.044.255.273.571.422.949.449.388.027.732-.08 1.031-.319.286-.224.461-.522.526-.895.06-.331.004-.648-.168-.95-.02-.038-.009-.057.034-.057 1.65-.002 3.293 0 4.926.003.016 0 .024.008.025.024ZM6.349 12.338c-.014.01-.021.019-.021.027-.003.583-.003 1.165 0 1.745 0 .04.013.073.041.1.803.785 1.595 1.563 2.377 2.333.12.118.229.22.328.307.035.03.052.022.052-.024v-1.742a.129.129 0 0 0-.04-.095 468.325 468.325 0 0 0-2.731-2.67c.004.006.002.012-.006.02Zm4.539 1.323c-.466.45-.925.9-1.377 1.348a.056.056 0 0 0-.017.042c-.003.585-.004 1.18-.003 1.786 0 .048.017.055.052.022.911-.895 1.816-1.785 2.714-2.671a.055.055 0 0 0 .018-.041c.005-.601.005-1.203 0-1.804 0-.026-.01-.03-.028-.012-.468.462-.92.905-1.36 1.33Zm-4.064 5.613c.374.371.752.743 1.131 1.116.27.257.506.52.706.79.135.188.237.382.307.579.024.027.036.023.037-.012a37.424 37.424 0 0 0 .001-1.724 3.947 3.947 0 0 0-.296-1.805 3.263 3.263 0 0 0-.925-1.228 13.613 13.613 0 0 1-2.97-2.934 5.523 5.523 0 0 1-.906-1.414.97.97 0 0 1-.074-.213c-.003-.016-.013-.024-.03-.025-.005 0-.008.024-.008.07a106.853 106.853 0 0 0 .014 2.149 5.36 5.36 0 0 0 .36 1.556c.196.522.486.974.87 1.354a186.8 186.8 0 0 0 1.783 1.74Zm.51 4.988c.255.25.51.505.767.764.392.397.68.83.864 1.299.026.068.04.066.04-.008.005-.709.005-1.423 0-2.143a5.206 5.206 0 0 0-.07-.695 3.223 3.223 0 0 0-.956-1.814l-2.835-2.768A7.712 7.712 0 0 1 3.958 17.4a1.227 1.227 0 0 1-.121-.25.036.036 0 0 0-.031-.027c-.007-.002-.01.018-.01.061v1.493c.001.757.15 1.466.448 2.127a4.622 4.622 0 0 0 1.016 1.438c.707.68 1.399 1.354 2.075 2.02Zm5.846.764c.008.06.011.141.01.24-.009.788-.006 1.566.01 2.333 0 .016.008.026.024.028.1.015.233.016.398.004.037-.003.055-.022.055-.06a6764.02 6764.02 0 0 1 0-8.057c.004-.178.024-.337.058-.477a.691.691 0 0 1 .31-.48.952.952 0 0 1 .557-.149l.049-.001c.43-.04.803-.024 1.12.05.22.047.374.157.459.331.101.223.15.473.149.75-.007.772-.007 1.553 0 2.342 0 .024-.013.037-.037.037h-.973c-.065 0-.098-.033-.098-.098.002-.812 0-1.616-.003-2.412 0-.016-.008-.024-.024-.024a13.068 13.068 0 0 0-.424-.003c-.024 0-.036.012-.036.037v8.11c0 .017.009.024.025.02.138-.025.277-.046.416-.063.03-.003.046-.02.046-.052v-4.982c0-.024.012-.036.037-.036.356-.002.704 0 1.043.003.017 0 .025.008.025.024.003 1.569.004 3.145.003 4.73 0 .034.016.046.048.036.217-.064.42-.131.613-.2.021-.007.032-.022.032-.045v-4.378c0-.016 0-.032-.002-.049a.987.987 0 0 1 .212-.713.684.684 0 0 1 .347-.236c.045-.017.063-.05.055-.096-.175-.985-.354-1.967-.539-2.946-.006-.033.008-.05.041-.05h.97c.06 0 .093.03.096.092.075 1.063.136 2.125.183 3.185.003.06.034.084.095.07.04-.006.06-.03.063-.07.058-1.048.12-2.125.184-3.231.002-.03.018-.046.049-.046h1.07c.033 0 .046.017.04.05-.204.989-.408 1.976-.613 2.96-.008.04.007.066.046.08.291.093.47.281.538.563.035.175.052.39.049.643-.008.881-.007 1.754.003 2.618 0 .028.011.034.034.016.317-.25.614-.5.891-.752a.052.052 0 0 0 .018-.04c.004-1.982.005-4.024.003-6.126 0-.024.012-.036.037-.036h3.235c.021 0 .033-.01.035-.03.014-.11.032-.235.055-.373.006-.037-.01-.055-.047-.055-2.527-.004-5.08-.005-7.659-.003-.022 0-.03.01-.025.032.042.169.069.31.08.426.002.016-.002.018-.011.004a1.131 1.131 0 0 0-.51-.423 1.794 1.794 0 0 0-.763-.148h-.645a1.57 1.57 0 0 0-.97.294c-.198.147-.341.352-.43.614-.006.015-.01.015-.015 0a1.214 1.214 0 0 0-.243-.469 1.103 1.103 0 0 0-.462-.34 2.277 2.277 0 0 0-.837-.148H9.662c-.033 0-.049.016-.049.049v9.058c0 .02.01.035.03.041l.43.147c.026.01.039 0 .039-.028v-8.672c0-.064.032-.097.096-.098.605-.019 1.205-.015 1.802.013a.86.86 0 0 1 .52.173c.188.14.29.354.308.64.016.143.024.285.024.424a2021.62 2021.62 0 0 0 0 4.406c.001.264-.031.503-.097.716a.629.629 0 0 1-.426.413 2.046 2.046 0 0 1-.743.097l-.337-.009c-.017 0-.025.007-.025.024-.005.722-.005 1.444 0 2.166 0 .016.008.026.025.029.136.024.284.049.442.072.02.003.03-.005.03-.025V25.74c0-.016.007-.024.024-.024.405.008.756-.086 1.055-.282a.955.955 0 0 0 .354-.41c.008-.014.013-.013.016.003Zm-1.45-5.716a.015.015 0 0 0-.005-.01.015.015 0 0 0-.01-.005h-.469a.015.015 0 0 0-.015.015v4.946c0 .004.002.008.005.01a.015.015 0 0 0 .01.005h.469a.015.015 0 0 0 .015-.015V19.31Zm11.24.498c.3.004.57.091.808.263.025.018.041.012.049-.017.055-.212.118-.438.19-.678.005-.014 0-.02-.014-.02h-1.771c-.024 0-.037.012-.037.036-.001.156 0 .285.002.386 0 .016.009.024.025.024.242 0 .491.002.749.006Zm-.736 3.35c.161-.231.324-.474.487-.73a.208.208 0 0 0 .034-.115v-1.598c0-.016-.008-.024-.025-.024h-.486c-.033 0-.049.016-.049.048-.002.809 0 1.611.003 2.407 0 .042.012.046.036.011Zm-3.933 3.314c.144-.074.29-.152.438-.233a.044.044 0 0 0 .024-.041c.002-1.264.001-2.504-.002-3.72 0-.017-.008-.025-.025-.026a2.427 2.427 0 0 0-.456.01c-.017.002-.025.012-.025.028-.003 1.31-.004 2.627-.002 3.953 0 .036.015.046.048.03Z" fill="#6E708C"/>
    <path d="M15.137 11.796a.71.71 0 0 1 .423.355.7.7 0 0 1 .073.504 3.81 3.81 0 0 1-.311.834.107.107 0 0 0-.012.045c-.003.087-.003.2-.002.338a.39.39 0 0 0 .04.166c.133.276.232.549.295.817a.711.711 0 0 1-.204.628.693.693 0 0 1-.545.22.736.736 0 0 1-.477-.19.754.754 0 0 1-.24-.416c-.036-.202.016-.405.154-.61.053-.078.104-.163.152-.255.013-.02.01-.038-.006-.054a.598.598 0 0 1-.18-.319c-.04-.194.02-.388.183-.582.01-.013.011-.026.003-.04a5.904 5.904 0 0 1-.249-.43.58.58 0 0 1-.07-.32.724.724 0 0 1 .307-.579.68.68 0 0 1 .666-.112ZM30.04 12.515l2.96-.003c.35 0 .671.02.962.06.493.069.93.247 1.311.538.284.216.495.486.636.81.163.367.236.768.219 1.201-.014.344-.091.675-.231.995-.16.363-.388.658-.685.884-.47.363-1.028.554-1.676.573-.657.019-1.31.024-1.956.015-.016 0-.025.008-.025.024a644.91 644.91 0 0 0-.003 3.177c0 .024-.012.036-.036.036h-1.467c-.028 0-.042-.014-.042-.042v-8.236c0-.021.01-.032.032-.032Zm4.132 1.548a1.624 1.624 0 0 0-.953-.325 31.65 31.65 0 0 0-1.618-.012c-.032 0-.049.016-.049.048v2.537c0 .032.017.048.05.048.518.004 1.037.004 1.557 0l.255-.024a1.24 1.24 0 0 0 .898-.476c.153-.195.243-.425.27-.69a1.318 1.318 0 0 0-.258-.955.827.827 0 0 0-.152-.151ZM93.385 12.512h5.896c.025 0 .037.012.037.037v1.383c0 .024-.012.036-.037.036h-3.944c-.021 0-.032.011-.032.033-.003.57-.004 1.156-.003 1.758 0 .028.014.042.043.042.592.01 1.19.01 1.795 0 .378-.007.742.035 1.092.124.378.118.708.302.991.553.368.312.605.714.713 1.207.099.46.083.916-.05 1.366-.13.498-.385.906-.766 1.225a2.192 2.192 0 0 1-1.007.476 3.787 3.787 0 0 1-.742.073c-1.322.003-2.653.003-3.991 0-.025 0-.037-.012-.037-.036v-8.235c0-.028.014-.042.042-.042Zm4.22 4.936a1.075 1.075 0 0 0-.684-.227c-.507-.002-1.014-.002-1.521 0-.065 0-.098.032-.098.097v2.002c0 .026.014.04.04.04.542-.006 1.096-.007 1.664-.003a.934.934 0 0 0 .763-.367c.164-.214.239-.46.225-.74a1.048 1.048 0 0 0-.389-.802ZM40.095 14.563a2.8 2.8 0 0 1 1.12.437c.309.207.563.47.763.792a3.61 3.61 0 0 1 .526 1.975 3.754 3.754 0 0 1-.423 1.726c-.17.32-.39.592-.657.813a2.58 2.58 0 0 1-1.016.528 3.47 3.47 0 0 1-1.14.1c-.702-.051-1.29-.31-1.768-.773a2.864 2.864 0 0 1-.715-1.156 3.937 3.937 0 0 1-.207-1.517 3.613 3.613 0 0 1 .465-1.6c.185-.325.429-.6.73-.824a2.7 2.7 0 0 1 1.068-.477 3.442 3.442 0 0 1 1.254-.024Zm-1.342 5.076c.279.218.6.306.964.264.199-.023.38-.093.545-.21.167-.104.297-.25.39-.436.198-.399.3-.835.306-1.308.016-.422-.02-.83-.109-1.226a2.004 2.004 0 0 0-.228-.56 1.222 1.222 0 0 0-.383-.408 1.221 1.221 0 0 0-.691-.209 1.238 1.238 0 0 0-1.132.692 1.99 1.99 0 0 0-.206.57 4.652 4.652 0 0 0-.086 1.226c.022.422.116.814.28 1.177.092.175.208.317.35.428ZM47.323 14.782c.284.133.526.325.727.573.302.38.494.836.579 1.366.003.023-.006.036-.029.039-.407.053-.82.103-1.24.15-.015.002-.024-.005-.026-.021a1.717 1.717 0 0 0-.38-.988.882.882 0 0 0-.517-.31 1.134 1.134 0 0 0-.669.007c-.226.071-.41.204-.55.397a1.723 1.723 0 0 0-.256.522 4.33 4.33 0 0 0-.146 1.201c.005.376.041.733.106 1.071.045.203.116.391.213.565.1.164.231.295.396.394.187.116.39.172.611.167.245-.003.461-.08.648-.228a1.21 1.21 0 0 0 .34-.437c.1-.202.168-.426.203-.67.006-.037.027-.053.063-.048.395.046.794.096 1.194.147.03.004.042.02.037.05-.044.315-.133.61-.267.886a2.155 2.155 0 0 1-.712.855c-.484.337-1.043.496-1.676.477-.692-.02-1.273-.242-1.743-.665a2.684 2.684 0 0 1-.727-1.12 4.36 4.36 0 0 1-.232-1.359 3.781 3.781 0 0 1 .417-1.878c.181-.346.42-.625.718-.837.391-.297.825-.48 1.302-.546a2.824 2.824 0 0 1 1.616.24ZM53.042 14.66c.39.12.722.335.994.646.331.392.537.862.618 1.409.004.025-.006.04-.031.043-.432.06-.842.109-1.232.148-.016.001-.025-.006-.028-.021a3.196 3.196 0 0 0-.154-.596 1.168 1.168 0 0 0-.328-.485 1.098 1.098 0 0 0-.752-.258 1.135 1.135 0 0 0-.666.222 1.066 1.066 0 0 0-.353.436 2.988 2.988 0 0 0-.271 1.357v.048c-.03.535.04 1.041.207 1.517.095.27.266.479.514.628.19.12.4.173.63.161a.98.98 0 0 0 .764-.355 1.71 1.71 0 0 0 .403-.992c.003-.029.02-.042.048-.038l1.222.148c.02.002.03.014.026.034-.081.569-.29 1.052-.625 1.448a2.438 2.438 0 0 1-1.327.726 3.13 3.13 0 0 1-.876.048c-.621-.053-1.15-.275-1.585-.664a2.392 2.392 0 0 1-.408-.48 3.484 3.484 0 0 1-.502-1.453 4.842 4.842 0 0 1 .04-1.429c.074-.404.214-.774.42-1.11.123-.202.273-.384.45-.546.398-.377.877-.61 1.439-.701.465-.075.92-.039 1.363.11ZM58.931 14.575c.53.094.987.318 1.372.67.291.267.51.59.657.972.214.528.312 1.098.295 1.71-.001.055-.03.083-.085.083h-4.287c-.02 0-.03.01-.03.03-.002.381.071.734.22 1.059.086.189.21.349.37.48.287.244.625.356 1.014.336a1.42 1.42 0 0 0 1.092-.537 1.12 1.12 0 0 0 .24-.495c.004-.016.014-.023.03-.021.416.04.854.094 1.315.164.016.002.022.01.017.026-.079.253-.19.487-.337.702a2.428 2.428 0 0 1-.79.753c-.353.21-.737.344-1.154.403a3.378 3.378 0 0 1-1.64-.16 2.928 2.928 0 0 1-.967-.565 2.68 2.68 0 0 1-.739-1.156 4.066 4.066 0 0 1-.195-.91 4.074 4.074 0 0 1 .049-1.104c.085-.46.25-.874.496-1.241.206-.308.463-.565.772-.771a2.816 2.816 0 0 1 1.178-.452c.37-.055.74-.047 1.107.024Zm.283 1.247a1.243 1.243 0 0 0-.88-.324 1.316 1.316 0 0 0-1.043.476c-.265.304-.399.662-.4 1.074-.001.016.007.024.023.024.923.005 1.846.005 2.769 0 .016 0 .024-.008.024-.024 0-.227-.04-.452-.119-.677a1.28 1.28 0 0 0-.374-.549ZM82.963 14.515c.432 0 .833.073 1.202.22.355.143.661.352.919.626.243.255.434.55.572.886.206.499.302 1.03.289 1.593a3.832 3.832 0 0 1-.344 1.502 2.694 2.694 0 0 1-.973 1.14 2.886 2.886 0 0 1-1.591.465 3.405 3.405 0 0 1-1.044-.149 2.726 2.726 0 0 1-.955-.552 2.841 2.841 0 0 1-.651-.856 3.756 3.756 0 0 1-.368-1.866c.031-.65.21-1.235.538-1.757.201-.32.46-.583.779-.788a2.915 2.915 0 0 1 1.627-.464Zm-.781 5.112c.22.186.485.282.794.288.382.008.7-.133.952-.422.115-.128.203-.275.262-.442.206-.586.265-1.225.176-1.918a2.747 2.747 0 0 0-.342-1.04 1.219 1.219 0 0 0-.963-.547 1.178 1.178 0 0 0-.91.306c-.15.13-.263.288-.34.474-.141.35-.224.725-.247 1.125-.024.417.007.826.095 1.23.047.207.12.402.219.582.087.147.189.268.304.364ZM90.627 14.675c.37.095.682.269.937.522.293.295.432.646.416 1.053-.013.353-.13.65-.35.889a1.42 1.42 0 0 1-.87.407c-.022.002-.028.01-.018.024.38.071.697.214.95.427.012.01.023.022.034.034.31.34.436.754.376 1.24-.052.427-.25.792-.593 1.096-.258.234-.576.39-.955.467a6.083 6.083 0 0 1-1.713.088 3.39 3.39 0 0 1-1.226-.33 1.67 1.67 0 0 1-.487-.377 2.174 2.174 0 0 1-.547-1.098c-.005-.02.004-.033.025-.037.378-.068.782-.137 1.212-.205.033-.005.053.008.062.04.042.197.124.38.246.548.164.222.399.36.706.413.349.064.693.057 1.031-.022a.935.935 0 0 0 .472-.257.85.85 0 0 0 .234-.616.893.893 0 0 0-.122-.462.885.885 0 0 0-.453-.324 1.64 1.64 0 0 0-.496-.088c-.26-.004-.527-.004-.803 0-.024 0-.037-.012-.037-.037v-.873c0-.033.017-.049.049-.049.114-.003.227-.003.34 0 .313.008.6-.02.865-.085a.76.76 0 0 0 .404-.24.756.756 0 0 0 .168-.476.637.637 0 0 0-.207-.522 1.025 1.025 0 0 0-.523-.242 2.199 2.199 0 0 0-.813.002c-.308.059-.557.2-.745.422-.13.154-.215.329-.256.524-.008.04-.033.055-.073.047l-1.128-.246c-.034-.007-.046-.028-.037-.061.132-.517.404-.923.816-1.22.43-.296.932-.467 1.505-.512a4.867 4.867 0 0 1 1.604.136ZM105.015 14.597a2.05 2.05 0 0 1 1.053.442c.313.273.508.62.587 1.041.032.17.052.348.061.534a423.366 423.366 0 0 0 .014 3.252c.03.33.084.636.164.92.008.026-.002.04-.03.04h-1.705c-.022 0-.035-.011-.038-.033a6.723 6.723 0 0 1-.087-.887c-.002-.043-.018-.037-.049.018-.065.13-.158.256-.28.377-.334.33-.738.53-1.211.6-.252.038-.498.05-.736.036a2.826 2.826 0 0 1-1.07-.279 1.53 1.53 0 0 1-.475-.364 1.701 1.701 0 0 1-.432-.977c-.069-.544.069-1.016.414-1.414.248-.286.555-.493.922-.621a4.974 4.974 0 0 1 1.058-.267 14.17 14.17 0 0 1 1.762-.149c.016 0 .024-.008.025-.024.014-.222-.01-.43-.074-.625-.07-.215-.228-.353-.475-.413a2.03 2.03 0 0 0-1.04 0 .943.943 0 0 0-.383.2.881.881 0 0 0-.305.486c-.009.04-.034.058-.076.054a99.482 99.482 0 0 1-1.6-.173c-.021-.002-.03-.014-.025-.035a2.18 2.18 0 0 1 .624-1.102c.252-.244.534-.414.849-.513a4.788 4.788 0 0 1 1.205-.194c.467-.013.918.01 1.353.07Zm-2.11 4.896c.183.143.403.22.66.228.336.011.635-.083.897-.282.236-.181.383-.443.441-.786.044-.222.064-.474.06-.757-.001-.023-.013-.034-.036-.032-.268.025-.536.05-.803.073a3.237 3.237 0 0 0-.739.148c-.173.057-.323.15-.45.28a.84.84 0 0 0-.259.664c.014.2.09.355.229.464ZM63.105 14.636h4.088c.033 0 .05.016.05.049v6.095c0 .03-.016.045-.046.045h-1.344c-.02 0-.032-.01-.032-.032-.003-1.65-.004-3.337-.003-5.059 0-.028-.013-.042-.041-.042-.503-.002-.998 0-1.484.003-.04 0-.061.02-.063.06l-.067 1.332c-.02.425-.049.846-.085 1.262-.046.498-.157.97-.331 1.418-.072.184-.17.346-.292.485-.344.397-.797.604-1.36.622a1.214 1.214 0 0 1-.351-.041c-.023-.007-.035-.022-.035-.046a56.712 56.712 0 0 1-.004-.945c0-.06.033-.092.098-.097.14-.01.276-.048.41-.112.243-.116.419-.318.527-.604.102-.27.167-.558.194-.861.046-.467.079-.936.098-1.408a61.24 61.24 0 0 0 .049-2.1c0-.016.008-.024.024-.024ZM68.759 14.639c.441-.004.889-.005 1.343-.003.024 0 .036.012.036.037-.001.727 0 1.44.003 2.14 0 .021.011.032.032.032.553.002 1.089.002 1.608 0 .469-.003.894.1 1.275.306.079.043.15.094.212.152.125.095.228.206.31.333.207.344.31.736.308 1.175.003.45-.1.854-.307 1.21-.106.18-.247.327-.426.437-.38.245-.817.368-1.311.367-1.034 0-2.062-.001-3.083-.003-.022 0-.032-.01-.032-.032v-6.12c0-.02.01-.03.032-.031Zm3.28 3.465a1.19 1.19 0 0 0-.708-.228 53.143 53.143 0 0 0-1.158 0c-.021 0-.032.01-.032.032-.004.602-.004 1.219-.003 1.85 0 .024.012.036.037.036.401-.004.803-.004 1.204 0 .233.002.435-.056.606-.173a.86.86 0 0 0 .331-.507c.066-.26.046-.509-.058-.743a.692.692 0 0 0-.219-.267ZM74.324 14.636h1.544a.11.11 0 0 1 .102.058l1.08 1.815c.018.03.037.03.056 0 .385-.628.765-1.245 1.139-1.85a.04.04 0 0 1 .037-.02c.408-.004.826-.005 1.255-.003.02 0 .025.008.014.025l-1.786 2.757a.041.041 0 0 0 0 .049c.707 1.107 1.414 2.215 2.119 3.324.014.023.008.034-.019.034h-1.59a.065.065 0 0 1-.06-.033l-1.35-2.223c-.023-.039-.047-.039-.07-.001l-1.4 2.197a.124.124 0 0 1-.111.06h-1.17c-.046 0-.056-.019-.03-.058.698-1.049 1.386-2.095 2.064-3.137a.035.035 0 0 0 0-.041c-.61-.963-1.228-1.93-1.852-2.902-.021-.034-.012-.051.028-.051ZM108.151 14.636h1.735c.028 0 .043.014.043.042v2.24c0 .024.012.036.036.036.632.002 1.258 0 1.878-.003.022 0 .033-.011.033-.032v-2.247c0-.022.011-.033.033-.033.566-.004 1.15-.005 1.75-.003.028 0 .042.014.042.042v6.099c0 .032-.016.048-.049.048h-1.735c-.028 0-.041-.014-.041-.042.001-.861 0-1.704-.003-2.528 0-.016-.009-.024-.025-.024a121.76 121.76 0 0 0-1.892 0c-.016 0-.024.008-.024.024-.004.824-.005 1.667-.003 2.528 0 .028-.014.042-.042.042h-1.735c-.024 0-.037-.012-.037-.036-.001-2.055 0-4.095.003-6.121 0-.021.011-.032.033-.032ZM115.124 14.636h1.753c.024 0 .036.012.036.036v2.307c0 .021.011.033.032.033.132.004.283.005.455.003.262.008.476-.066.642-.222.138-.13.235-.295.292-.497.087-.24.161-.49.222-.75.058-.244.156-.457.295-.64.142-.182.315-.272.52-.27.471-.008.941-.008 1.412 0 .032 0 .038.012.016.036a2.39 2.39 0 0 0-.403.55c-.157.31-.284.636-.38.98-.055.197-.125.39-.21.58a1.112 1.112 0 0 1-.335.454c-.16.117-.347.19-.559.218-.036.005-.052.015-.049.031.256.054.475.155.657.303.159.13.284.293.374.489.081.16.157.343.229.549.186.555.399 1.091.638 1.608.059.126.134.242.227.347.022.03.014.044-.023.044h-1.63a.204.204 0 0 1-.049-.006.588.588 0 0 1-.374-.288 4.245 4.245 0 0 1-.429-1.077 4.022 4.022 0 0 0-.292-.789c-.115-.258-.302-.4-.56-.425a4.096 4.096 0 0 0-.658-.012c-.04 0-.06.021-.06.06.002.87.001 1.704-.003 2.505 0 .022-.01.032-.032.032h-1.755c-.021 0-.032-.01-.032-.032-.004-1.988-.005-4.028-.003-6.12 0-.025.012-.037.036-.037ZM20.328 18.777c.012.059.017.13.017.216.002.918.002 1.847 0 2.789 0 .037-.013.043-.04.017a59.85 59.85 0 0 1-.452-.438.065.065 0 0 1-.019-.063c.172-.861.334-1.702.486-2.52.003-.017.005-.017.008-.001Z" fill="#6E708C"/>
</svg>
