<svg width="93" height="34" fill="none" xmlns="http://www.w3.org/2000/svg">
    <path d="M9.149.052c3.926 3.94 7.87 7.886 11.829 11.84.033.034.033.067 0 .1A7292.893 7292.893 0 0 1 7.65 25.256a10594.568 10594.568 0 0 0-6.02 6.007 1.55 1.55 0 0 0-.411 1.127c.02.494.233.89.637 1.186l-.088.029a2.39 2.39 0 0 1-.59-.472 2.46 2.46 0 0 1-.637-1.339.617.617 0 0 1-.006-.087C.542 24.675.534 17.634.514 10.582.51 9.243.97 8.096 1.896 7.14A360.712 360.712 0 0 1 8.94.052c.07-.07.14-.07.209 0ZM19.209 18.974l4.104-.021c.094-.001.19.006.286.022a3.783 3.783 0 0 1 1.89.445c.67.338 1.105.858 1.304 1.56.232.822.209 1.583-.071 2.285a2.578 2.578 0 0 1-1.234 1.366 4.444 4.444 0 0 1-2.043.467c-.814 0-1.636-.006-2.466-.017-.027 0-.04.012-.04.039a354.34 354.34 0 0 0-.005 3.172c0 .045-.022.067-.066.067h-1.674c-.03 0-.044-.015-.044-.045-.003-3.112-.002-6.207.005-9.287 0-.035.018-.053.053-.053Zm5.497 2c-.344-.273-.757-.41-1.239-.413-.83-.005-1.66-.005-2.49 0-.029 0-.043.014-.043.044v2.82c0 .043.021.064.065.064.947.032 1.872.025 2.776-.02.371-.02.685-.146.942-.38.207-.182.334-.401.38-.656.073-.398.044-.75-.088-1.057a1.058 1.058 0 0 0-.303-.402ZM32.124 21.706a3.43 3.43 0 0 1 1.713 1.15c.237.293.4.6.49.92.177.58.229 1.183.154 1.807a3.51 3.51 0 0 1-.336 1.14c-.313.59-.787 1.05-1.42 1.377a4.054 4.054 0 0 1-2.099.435c-.918-.057-1.698-.37-2.34-.942a3.15 3.15 0 0 1-.727-.97 3.552 3.552 0 0 1-.325-1.437 4.386 4.386 0 0 1 .105-1.106 3.063 3.063 0 0 1 1.084-1.735c.569-.464 1.245-.735 2.027-.815a4.133 4.133 0 0 1 1.674.176Zm.668 3.33a1.922 1.922 0 1 0-3.844 0 1.922 1.922 0 0 0 3.844 0ZM39.63 21.601a3.12 3.12 0 0 1 1.498.75c.29.271.509.585.656.94.015.033.006.06-.025.079-.46.284-.902.576-1.325.875-.028.02-.05.015-.064-.017a1.891 1.891 0 0 0-.651-.82c-.324-.21-.711-.3-1.163-.27-.318.021-.61.126-.875.314-.496.408-.733.971-.71 1.69.02.678.294 1.198.82 1.56.284.185.605.268.964.247.405.013.76-.102 1.062-.347a2.23 2.23 0 0 0 .627-.827c.018-.036.045-.043.078-.021.435.276.87.562 1.308.856.021.015.026.034.014.058-.313.634-.735 1.108-1.266 1.421-.61.341-1.299.49-2.066.446-.822-.054-1.528-.324-2.12-.81-.51-.419-.86-.973-1.047-1.663a3.942 3.942 0 0 1-.093-1.47 3.409 3.409 0 0 1 .622-1.67c.348-.483.796-.85 1.344-1.1.748-.327 1.552-.4 2.412-.22ZM53.354 21.755c.481.189.881.486 1.2.893.452.58.692 1.242.722 1.988.008.201.015.445.02.73 0 .057-.03.085-.086.085-1.696-.007-3.36.002-4.995.027-.03 0-.043.015-.04.044.047.37.184.69.414.959.297.35.678.548 1.145.595.608.07 1.122-.088 1.542-.474.212-.194.372-.412.482-.655.029-.055.07-.068.123-.037l1.168.655c.029.016.037.04.023.07a4.08 4.08 0 0 1-.325.556 2.95 2.95 0 0 1-1.349 1.096c-.535.221-1.128.304-1.779.248a3.21 3.21 0 0 1-2.264-1.15c-.54-.63-.813-1.393-.82-2.287-.028-.95.25-1.759.832-2.428a3.205 3.205 0 0 1 1.944-1.096 3.678 3.678 0 0 1 2.043.181Zm.294 2.446c.034.001.048-.016.042-.05a1.38 1.38 0 0 0-.336-.743c-.345-.401-.791-.594-1.338-.579-.46.001-.865.146-1.217.436-.307.26-.505.561-.595.904-.008.029.003.043.032.042 1.1-.021 2.238-.024 3.412-.01ZM67.964 21.64a2.86 2.86 0 0 1 1.294.754c.562.56.872 1.227.93 2 .027.346.033.682.02 1.008-.002.029-.017.044-.047.044a654.7 654.7 0 0 0-4.985.028c-.056 0-.079.028-.067.084.052.307.168.585.349.835.223.305.5.505.832.6.612.188 1.168.12 1.669-.204.338-.219.587-.511.747-.877.02-.04.048-.049.086-.026.385.232.78.455 1.18.67.039.02.049.05.03.09-.19.45-.496.851-.92 1.2-.614.506-1.34.737-2.175.692a1.078 1.078 0 0 0-.089-.002 3.2 3.2 0 0 1-2.186-.81 3.207 3.207 0 0 1-.964-1.416c-.14-.43-.206-.9-.198-1.41.009-.912.32-1.696.93-2.351a3.115 3.115 0 0 1 1.537-.909 3.781 3.781 0 0 1 2.027 0Zm-2.12 2.56c.494.026.995.032 1.503.017.41-.013.81-.014 1.201-.002.066.005.09-.024.075-.088a1.606 1.606 0 0 0-.5-.884 1.838 1.838 0 0 0-1.15-.413 1.878 1.878 0 0 0-1.173.369c-.317.247-.542.56-.675.938-.017.048 0 .07.05.068.25-.013.474-.014.669-.004ZM84.616 25.154a3.375 3.375 0 0 1-3.375 3.375h-.513a3.375 3.375 0 0 1-3.376-3.375v-.257a3.375 3.375 0 0 1 3.376-3.376h.513a3.375 3.375 0 0 1 3.375 3.376v.257Zm-1.71-.117a1.921 1.921 0 1 0-3.842 0 1.921 1.921 0 0 0 3.842 0ZM42.641 21.684c1.799-.003 3.564-.001 5.294.005.03 0 .044.015.044.044l.01 1.378c.001.037-.017.055-.054.054a59.638 59.638 0 0 0-1.775 0c-.048 0-.071.025-.07.073.013 1.716.015 3.4.005 5.05 0 .032-.016.049-.05.049-.564.003-1.08 0-1.546-.006-.04 0-.061-.02-.061-.06-.01-1.48-.002-2.957.022-4.428a5.659 5.659 0 0 0-.022-.621c-.003-.026-.017-.04-.043-.04a14.403 14.403 0 0 0-1.75.004c-.053.002-.08-.023-.08-.075v-1.35c0-.051.026-.077.076-.077ZM57.415 21.684h5.13c.03 0 .044.015.044.044v6.52c0 .06-.03.089-.088.089H61c-.04 0-.058-.02-.058-.059.017-1.638.022-3.293.016-4.964 0-.04-.02-.06-.06-.06l-1.983-.011c-.044 0-.067.02-.07.065a46.603 46.603 0 0 1-.354 3.575 1.83 1.83 0 0 1-.154.528c-.09.375-.283.645-.578.81-.517.289-1.127.329-1.829.12-.017-.003-.024-.014-.022-.032.06-.434.127-.859.201-1.273.02-.114.088-.158.201-.131.322.077.523-.027.605-.31a.476.476 0 0 0 .016-.087c.168-1.581.32-3.181.458-4.801.002-.015.01-.023.025-.023Z" fill="#6E708C"/>
    <path d="M71.202 21.706H72.7c.044 0 .066.022.066.066-.002 1.016 0 1.996.005 2.94 0 .078.027.088.078.029.842-.979 1.686-1.956 2.533-2.93a.286.286 0 0 1 .22-.103c.639-.012 1.22-.006 1.746.018.03.002.034.013.015.035a425.87 425.87 0 0 1-2.73 3.05c-.029.031-.029.063 0 .095a674.47 674.47 0 0 0 3.044 3.379c.028.03.021.046-.02.046-.618.007-1.234.009-1.848.006a.253.253 0 0 1-.202-.095 575.829 575.829 0 0 0-2.78-3.226c-.039-.046-.057-.04-.053.02.019.236.023.492.014.767-.028.837-.03 1.663-.006 2.48.001.036-.016.054-.052.054h-1.506c-.044 0-.066-.023-.066-.067v-6.52c0-.03.015-.044.044-.044ZM85.564 21.706H87.2c.063 0 .105.03.127.088a482.615 482.615 0 0 0 1.784 4.694c.012.03.023.03.035 0 .606-1.585 1.203-3.16 1.789-4.726a.08.08 0 0 1 .08-.056h1.652c.06 0 .093.03.1.088.035.264.036.514.006.75a.743.743 0 0 0-.005.087v5.639c0 .058-.03.088-.088.089-.51.002-.967.001-1.373-.005-.045 0-.067-.023-.066-.068.017-1.207.013-2.36-.014-3.459-.002-.085-.018-.087-.047-.008a219.456 219.456 0 0 0-1.267 3.514c-.01.028-.03.042-.058.042a65.43 65.43 0 0 1-1.403.006.116.116 0 0 1-.117-.083 144.088 144.088 0 0 1-1.278-3.59c-.024-.071-.037-.066-.039.016-.022 1.17-.03 2.36-.022 3.568 0 .044-.021.067-.066.067h-1.366c-.044 0-.066-.022-.066-.067v-6.52c0-.044.022-.066.066-.066Z" fill="#6E708C"/>
    <path d="M7.65 25.256c.732.705 1.46 1.421 2.187 2.15a2843.81 2843.81 0 0 1 6.485 6.53c.041.041.033.062-.027.062a9788.1 9788.1 0 0 1-13.05 0c-.438 0-.828-.08-1.171-.242.031-.03.018-.059-.04-.088a9.316 9.316 0 0 1-.177-.092 1.486 1.486 0 0 1-.639-1.186 1.55 1.55 0 0 1 .412-1.127l4.787-4.777 1.234-1.23Z" fill="#9EA0B3"/>
</svg>
