<svg xmlns="http://www.w3.org/2000/svg" width="176" height="48" fill="none"><path fill="#6E708C" fill-rule="evenodd" d="M17.211 12.302c-3.456.905-6.367 3.2-7.933 6.25-1.926 3.756-1.657 8.467.683 11.947 1.761 2.618 4.697 4.59 7.768 5.22 1.832.375 3.142.375 4.953 0 5.61-1.158 9.521-5.64 9.81-11.236.138-2.692.043-2.792-1.558-1.638-1.232.888-1.295.974-1.295 1.784 0 2.01-1.306 4.623-3.096 6.193-5.258 4.612-13.642 2.11-15.435-4.606-1.115-4.177 1.07-8.663 5.171-10.618 1.405-.67 1.527-.691 3.936-.691 2.387 0 2.544.027 3.967.678l1.482.677 1.168-.86 1.168-.86-.579-.383c-1.136-.754-2.91-1.552-4.146-1.865-1.563-.395-4.54-.39-6.064.008Zm29.121 4.334c-1.457.238-3.475 1.272-4.37 2.24-.425.457-1.017 1.343-1.317 1.968-.47.977-.546 1.403-.546 3.06 0 1.762.056 2.035.673 3.257.798 1.581 2.098 2.823 3.744 3.576 1.04.475 1.428.537 3.355.537 2.037 0 2.268-.042 3.536-.651 1.216-.585 2.26-1.372 2.033-1.534-.047-.033-.49-.365-.984-.737l-.899-.677-.96.455c-2.063.978-4.341.738-5.928-.624-1.197-1.028-1.644-2.16-1.531-3.88.119-1.822.912-3.065 2.436-3.819 1.39-.688 3.176-.751 4.508-.161l.87.385.995-.727c.546-.4 1.03-.755 1.075-.79.187-.142-.534-.74-1.423-1.18-.933-.461-2.973-.935-3.823-.888-.235.013-.885.099-1.444.19Zm-21.057 3.352c-2.555 1.845-4.754 3.395-4.885 3.445-.132.05-1.215-.507-2.407-1.237-1.193-.73-2.227-1.328-2.299-1.328-.071 0-.13.75-.13 1.667v1.667l2.314 1.414c1.272.778 2.388 1.393 2.479 1.366.092-.026 2.636-1.838 5.654-4.026l5.488-3.979-.546-.977c-.3-.538-.653-1.065-.784-1.172-.164-.133-1.684.85-4.884 3.16Zm31.014-3.229c-.076.074-.138 3.348-.138 7.275v7.14h4.11c5.56 0 6.94-.434 8.01-2.516 1.211-2.353.13-5.154-2.292-5.944-.45-.146-2.1-.315-3.666-.375l-2.848-.108V19.05h6.28l1.52-1.117c.837-.614 1.521-1.16 1.521-1.212 0-.151-12.342-.113-12.497.038Zm15.535 0c-.076.074-.138 3.348-.138 7.275v7.14H82.87v-2.425H75V25.11h6.835v-2.425H75V19.05H79.669l1.445-1.024c.796-.564 1.534-1.11 1.643-1.213.12-.115-1.914-.188-5.3-.188-3.022 0-5.557.061-5.633.135Zm14.154 7.119v7.295h3.106v-3.991l2.434-.106c2.833-.123 3.652-.328 4.863-1.216 1.263-.928 1.924-2.307 1.91-3.987-.02-2.303-1.085-3.809-3.338-4.715-.847-.34-1.613-.416-4.988-.49l-3.987-.086v7.296Zm19.055.018v7.277h4.105c3.171 0 4.361-.074 5.229-.325 2.857-.828 4.075-3.88 2.573-6.446-.884-1.512-2.795-2.12-6.663-2.12h-2.137V19.26l4.195-.055 4.194-.055v-2.424l-5.748-.054-5.748-.054v7.278Zm17.131-.35c-1.668 3.806-3.094 7.083-3.169 7.282-.124.332 0 .358 1.477.304l1.612-.06.571-1.313.571-1.314h6.926l.54 1.364.54 1.364h3.426l-.285-.656-3.136-7.275-2.852-6.617h-3.189l-3.032 6.92Zm14.706-6.795c-.08.079-.146 3.356-.146 7.283v7.14h3.314v-5.86h6.835v5.86h3.107V16.624h-3.107v6.061h-6.824l-.057-2.98-.058-2.98-1.459-.059c-.802-.032-1.524.006-1.605.084Zm17.045 7.14v7.282h3.314v-5.882l.975.062.975.061 2.391 2.87 2.391 2.868 2.02.01c1.11.006 2.019-.03 2.019-.08 0-.049-1.398-1.693-3.107-3.654-1.709-1.96-3.107-3.637-3.107-3.727 0-.09 1.211-1.65 2.69-3.468 1.479-1.818 2.691-3.373 2.693-3.457.001-.083-.769-.151-1.712-.151h-1.714l-2.376 3.124-2.377 3.125-.875.007-.875.008-.057-3.082-.057-3.081-1.605-.06-1.606-.058v7.282Zm-60.122-4.365c.83.42 1.298 1.268 1.298 2.352 0 1.985-1.236 2.817-4.194 2.825l-1.813.004v-5.712l2.02.096c1.318.062 2.252.213 2.69.435Zm34.159 3.63 1.066 2.663-2.285.057c-1.256.031-2.319.024-2.36-.017-.042-.04.454-1.314 1.102-2.83.648-1.517 1.231-2.708 1.294-2.647.064.061.596 1.31 1.183 2.774Zm-63.178 2.013c.719.368.905.695.905 1.589 0 1.528-.936 1.99-4.032 1.99h-2.182v-4.092l2.33.091c1.607.062 2.532.193 2.979.422Zm47.807-.274c1.208.194 1.98.918 1.98 1.858 0 1.574-.851 1.995-4.028 1.995h-2.393v-1.885c0-1.038.062-1.947.138-2.021.189-.184 3.044-.149 4.303.053Z" clip-rule="evenodd"/></svg>