<svg width="51" height="37" fill="none" xmlns="http://www.w3.org/2000/svg">
    <path d="M23.55 0c1.25.073 2.49.143 3.72.212.06.003.087.033.083.09-.06.945-.128 1.902-.2 2.872-.004.041.016.064.057.07.202.021.39.03.561.025a.06.06 0 0 0 .06-.04c.213-.544.49-1.014.83-1.41.335-.392.72-.7 1.155-.927A5.25 5.25 0 0 1 32.01.324c1.075-.06 2.074.12 2.998.536.452.204.854.486 1.205.846.266.258.487.55.664.878.377.731.575 1.525.595 2.38.04 1.214-.142 2.319-.546 3.316a4.727 4.727 0 0 1-.77 1.288c-.3.375-.672.697-1.116.967-.838.475-1.777.702-2.817.68-1.031-.02-1.954-.274-2.767-.76a3.782 3.782 0 0 1-1.041-.96 4.621 4.621 0 0 1-.726-1.395c-.005-.017-.017-.025-.035-.027a37.292 37.292 0 0 0-.839-.044c-.02 0-.032.01-.033.03l-.202 2.622c-.002.022-.014.031-.035.03-.993-.055-1.992-.102-2.997-.14a.826.826 0 0 1-.209-.029.035.035 0 0 1-.023-.035c.053-3.47.115-6.957.186-10.463 0-.031.017-.046.048-.044Zm7.341 6.491a.924.924 0 0 0-.23.636c.001.278.116.514.345.71.09.085.194.154.315.205.34.143.69.218 1.05.225.343.015.656-.032.939-.14.246-.098.429-.256.55-.476a.924.924 0 0 0 .102-.64.904.904 0 0 0-.414-.593 2.448 2.448 0 0 0-.833-.294 3.404 3.404 0 0 0-1.176.004c-.282.06-.498.182-.648.363ZM8.492.115c1.196-.018 2.31.157 3.344.524.02.008.03.022.03.044a3.986 3.986 0 0 1-.028.35 987.8 987.8 0 0 0-.556 4.84c-.005.033-.023.047-.057.041a24.763 24.763 0 0 0-1.683-.192 4.588 4.588 0 0 0-1.28.08 1.458 1.458 0 0 0-.726.369.964.964 0 0 0-.24.969c.07.261.23.453.478.576.273.16.58.24.919.241a7.065 7.065 0 0 0 2.52-.448c.02-.007.034 0 .04.02.244.802.492 1.613.745 2.434.018.058-.002.1-.058.125a10.17 10.17 0 0 1-3.07.87A6.037 6.037 0 0 1 7 10.893a5.165 5.165 0 0 1-1.394-.45 3.897 3.897 0 0 1-1.243-.923 4.633 4.633 0 0 1-1.041-1.942 8.074 8.074 0 0 1-.258-1.97A6.818 6.818 0 0 1 3.33 3.55c.15-.52.378-.985.68-1.393.286-.402.631-.744 1.038-1.027A5.46 5.46 0 0 1 6.471.433 6.944 6.944 0 0 1 8.492.115ZM42.392.228a5.733 5.733 0 0 1 2.653.648c.46.243.84.552 1.14.927.476.572.726 1.223.75 1.953.011.352-.016.675-.082.967a2.794 2.794 0 0 1-.685 1.39 2.22 2.22 0 0 1-.566.461c-.037.023-.037.047 0 .07a2.6 2.6 0 0 1 .73.637c.324.431.476.921.455 1.47-.014.6-.2 1.103-.562 1.51a2.15 2.15 0 0 1-.836.58 4.86 4.86 0 0 1-1.39.343c-.487.044-.98.055-1.476.032a12.856 12.856 0 0 1-5.015-1.245c-.026-.013-.035-.033-.025-.061.27-.785.539-1.564.803-2.336.01-.026.026-.034.052-.024.71.275 1.416.493 2.118.653a9.777 9.777 0 0 0 2.395.258c.225-.004.388-.086.488-.246.095-.149.084-.28-.033-.395-.092-.092-.222-.136-.39-.133a479.68 479.68 0 0 1-3.114-.259c-.03-.002-.043-.018-.042-.048.035-.59.07-1.17.106-1.739.004-.059.035-.086.095-.08.865.061 1.73.125 2.595.193.204.016.379.016.525 0 .156-.026.243-.106.262-.242.021-.16-.044-.283-.197-.37a1.271 1.271 0 0 0-.394-.145 8.025 8.025 0 0 0-1.656-.097c-.977.036-1.946.18-2.907.431-.036.01-.057-.004-.061-.041a1538.23 1538.23 0 0 1-.545-4.43c-.004-.036.011-.06.047-.072a9.591 9.591 0 0 1 1.236-.286 20.595 20.595 0 0 1 3.526-.274ZM19.755.618a4.465 4.465 0 0 1 1.927 1.25c.286.314.513.671.68 1.07.318.769.467 1.6.448 2.494a8.222 8.222 0 0 1-.357 2.275 4.76 4.76 0 0 1-1.058 1.78 4.5 4.5 0 0 1-1.541 1.064 6.343 6.343 0 0 1-1.997.488 6.982 6.982 0 0 1-2.431-.238 4.904 4.904 0 0 1-1.436-.685 4.252 4.252 0 0 1-1.59-2.062 6.95 6.95 0 0 1-.431-2.477 6.025 6.025 0 0 1 .48-2.462c.199-.45.47-.855.812-1.216.307-.34.67-.633 1.09-.878A5.875 5.875 0 0 1 17.004.26c.973-.05 1.89.069 2.751.358Zm-3.69 5.76c-.25.298-.292.621-.127.97.1.216.277.381.529.497.38.173.793.238 1.242.197.305-.025.583-.096.833-.214.311-.144.51-.373.594-.689.092-.343.02-.632-.217-.866a1.303 1.303 0 0 0-.57-.31 3.107 3.107 0 0 0-1.538-.028c-.317.08-.566.228-.746.443ZM41.313 13.107c3.213.198 6.426.406 9.64.624.035.003.05.021.046.055-.213 1.65-.43 3.27-.65 4.861-.004.035-.024.05-.059.048a78.134 78.134 0 0 0-2.564-.159c-.022-.001-.034.009-.037.03-.23 1.757-.471 3.51-.72 5.261-.004.022-.017.031-.038.03-.99-.065-1.982-.128-2.977-.189-.022-.001-.033-.013-.033-.034-.005-1.739-.006-3.488-.004-5.249 0-.07-.036-.108-.108-.112-.761-.047-1.58-.098-2.453-.155-.031-.002-.047-.019-.047-.05-.005-1.655-.014-3.299-.028-4.931 0-.022.01-.032.032-.03ZM11.907 13.137c.022-.001.033.01.033.031-.005 3.356-.006 6.744-.004 10.164 0 .038-.02.059-.058.062-.962.086-1.916.172-2.861.26-.051.005-.08-.018-.084-.069l-.343-3.943a1.938 1.938 0 0 1-.008-.206c.003-.021-.006-.035-.027-.041-.007-.003-.016.022-.026.074L7.862 22.9c-.004.021-.017.033-.038.035-.698.08-1.457.157-2.277.23-.026.003-.044-.008-.054-.032-.373-.915-.761-1.855-1.163-2.82a4.836 4.836 0 0 1-.13-.346c-.006-.022-.02-.033-.042-.035-.01-.002-.014.025-.012.08l.176 4.04c0 .02-.01.031-.031.033-.943.082-1.893.17-2.848.262-.025.002-.04-.008-.043-.033C.93 20.912.464 17.511 0 14.112c-.003-.026.009-.04.035-.042l4.947-.388c.035-.002.057.012.07.043.39 1.065.774 2.127 1.153 3.188.027.074.048.072.064-.005.212-1.066.433-2.149.661-3.247.018-.087.069-.134.152-.141 1.594-.129 3.202-.256 4.825-.383ZM32.704 13.291c1.273.067 2.507.138 3.702.213.02 0 .029.011.028.03a91.222 91.222 0 0 1-.185 2.415c-.005.06.023.089.084.087.935-.036 1.789.088 2.562.371.531.195.982.488 1.352.879.563.593.884 1.325.964 2.195.047.516.02 1.043-.082 1.579a4.339 4.339 0 0 1-.767 1.744 3.12 3.12 0 0 1-.791.737 3.804 3.804 0 0 1-1.525.564 6.502 6.502 0 0 1-.902.064 23.428 23.428 0 0 1-4.73-.569c-.044-.01-.065-.036-.063-.079.084-3.383.177-6.77.279-10.161 0-.048.026-.071.074-.069Zm3.255 8.047c.396.077.818.124 1.267.14.277.01.517-.051.717-.18a.544.544 0 0 0 .234-.415.507.507 0 0 0-.184-.48 1.172 1.172 0 0 0-.673-.258 8.505 8.505 0 0 0-1.277.001c-.051.003-.08.03-.084.08-.028.347-.052.704-.072 1.072-.002.021.009.033.03.035a.121.121 0 0 1 .042.005ZM12.853 13.347c1.431.036 2.875.066 4.331.092.086.002.136.044.148.128.205 1.468.418 2.934.64 4.4.004.03.015.02.032-.033.24-1.45.492-2.9.755-4.35.011-.066.05-.098.12-.097 1.457.026 2.905.058 4.342.096.042.002.057.022.044.062a183.746 183.746 0 0 1-1.39 4.16c-.185.533-.37 1.033-.554 1.503a9.89 9.89 0 0 1-1.467 2.602 4.372 4.372 0 0 1-.55.588 4.527 4.527 0 0 1-2.907 1.333c-1.223.09-2.343-.11-3.358-.6a2.243 2.243 0 0 1-.32-.188.046.046 0 0 1-.02-.05c.152-.841.303-1.661.451-2.46.005-.022.018-.029.04-.019a5.48 5.48 0 0 0 2.193.481c.05.001.067-.021.05-.068l-2.612-7.537c-.01-.03 0-.043.032-.043ZM29.095 13.507c.895 3.409 1.79 6.829 2.686 10.26.008.03-.005.047-.038.047-1.024.014-2.021.024-2.992.03a.052.052 0 0 1-.049-.03L26.7 20.338c-.023-.04-.045-.04-.065.002a243.45 243.45 0 0 1-1.806 3.516.062.062 0 0 1-.047.033c-.11.016-.253.024-.43.024a81.563 81.563 0 0 0-2.542.032c-.04 0-.056-.019-.047-.057.8-3.43 1.597-6.858 2.391-10.287.01-.042.037-.063.081-.064l4.82-.06c.021 0 .035.01.04.03ZM7.75 26.09c.005.18.006.406.004.676 0 .066.032.102.098.11a5.527 5.527 0 0 1 1.64.451c.431.193.818.447 1.161.761.337.307.606.654.807 1.044.297.588.467 1.222.509 1.9a6.6 6.6 0 0 1-.095 1.616 4.126 4.126 0 0 1-.922 1.913 4.04 4.04 0 0 1-1.185.93 5.757 5.757 0 0 1-1.812.6c-.022.003-.032.015-.031.037.012.236.015.483.01.74 0 .018-.009.027-.027.028-.959.04-1.927.075-2.906.104-.033.001-.05-.014-.053-.047l-.05-.68c0-.022-.012-.033-.034-.034-1-.057-1.889-.355-2.666-.892a3.46 3.46 0 0 1-1-1.08C.722 33.437.49 32.515.505 31.5c.012-.842.205-1.62.578-2.332.252-.456.588-.85 1.009-1.184a4.638 4.638 0 0 1 2.15-.975c.051-.01.075-.04.07-.092a15.481 15.481 0 0 1-.046-.698c0-.021.01-.032.032-.033a795.42 795.42 0 0 0 3.42-.126c.021-.001.032.009.033.03Zm.828 5.97a1.511 1.511 0 0 0-.873-.286c-.057-.001-.085.026-.083.082.023.63.04 1.243.054 1.84 0 .027.015.04.043.035.319-.048.589-.146.81-.294a.787.787 0 0 0 .39-.632.803.803 0 0 0-.341-.745Zm-4.55 1.522c.238.167.53.252.874.255.045 0 .066-.021.064-.065-.028-.598-.061-1.21-.1-1.834-.002-.043-.025-.061-.068-.055-.28.038-.53.13-.75.278a.792.792 0 0 0-.378.644c-.02.338.099.597.357.777ZM38.886 26.253c1.557.079 3.118.163 4.683.255.021 0 .035.012.04.033.201.89.402 1.79.602 2.7.008.031.017.032.028.002l.99-2.598c.013-.033.038-.049.073-.047 1.582.09 3.108.172 4.58.248.031.002.046.018.042.049l-1.038 9.938c-.002.022-.014.033-.037.032-.91-.036-1.81-.08-2.698-.13-.022-.002-.032-.013-.032-.035.016-1.302.03-2.605.044-3.911a.13.13 0 0 1 .017-.06c.016-.03.017-.042.004-.04a.052.052 0 0 0-.042.038 230.05 230.05 0 0 0-.946 3.075c-.007.023-.023.034-.047.033a114.06 114.06 0 0 1-2.183-.098c-.023 0-.036-.012-.042-.034a142.176 142.176 0 0 1-.764-3.024c-.007-.02-.011-.02-.012.001a177.447 177.447 0 0 0-.218 3.827c-.001.021-.012.032-.034.03l-2.637-.123c-.086-.004-.13-.047-.131-.129-.017-.85-.04-1.698-.066-2.545-.077-2.495-.146-4.98-.208-7.456 0-.022.01-.032.032-.03ZM33.614 26.461c.003.821-.001 1.652-.013 2.494 0 .024.012.035.037.031.372-.045.705-.071.996-.08.831-.03 1.579.128 2.243.471.445.23.8.569 1.066 1.015.286.475.466.996.541 1.563.044.329.067.65.07.963a4.206 4.206 0 0 1-.529 2.139 2.931 2.931 0 0 1-1.017 1.08 3.84 3.84 0 0 1-1.505.583c-.435.073-.906.116-1.41.13a17.486 17.486 0 0 1-3.498-.25c-.016-.002-.024-.011-.025-.027-.234-3.243-.478-6.531-.73-9.866-.005-.055.021-.084.078-.087 1.197-.065 2.418-.128 3.663-.19.022 0 .032.01.032.031Zm.114 7.589c.409.047.815.05 1.218.012a.918.918 0 0 0 .357-.133c.212-.135.317-.316.315-.544.001-.228-.088-.383-.266-.463-.303-.136-.673-.18-1.111-.133-.2.018-.415.043-.645.074-.03.006-.047.024-.05.055-.05.457-.053.827-.01 1.112.004-.001.069.005.192.02ZM12.377 26.585c1.223.03 2.454.063 3.694.101.021 0 .031.01.031.032-.006 1.034-.01 2.025-.013 2.972 0 .081.017.084.05.01.435-.989.874-1.959 1.315-2.91a.102.102 0 0 1 .103-.064c1.278.037 2.502.071 3.672.102.064.002.093.034.088.096-.27 3.252-.541 6.5-.815 9.745-.002.025-.016.037-.042.036-.955-.018-1.914-.044-2.878-.077-.013 0-.02-.007-.02-.02l-.069-3.288c-.002-.064-.017-.068-.048-.012-.577 1.069-1.156 2.144-1.738 3.227a.07.07 0 0 1-.068.04c-.945-.023-1.895-.05-2.85-.08-.01 0-.016-.006-.016-.016-.17-3.264-.333-6.53-.492-9.796-.004-.066.029-.099.096-.098ZM27.576 26.683c.077 0 .124.036.142.11.807 3.34 1.61 6.67 2.41 9.988.006.022-.002.032-.024.031-.975-.015-1.963-.024-2.965-.027a.09.09 0 0 1-.087-.054 145.585 145.585 0 0 0-1.532-3.036c-.01-.02-.02-.019-.03 0a665.55 665.55 0 0 0-1.479 3.012.076.076 0 0 1-.074.045c-1.036 0-2.039-.006-3.01-.019-.021 0-.03-.011-.024-.032.828-3.322 1.665-6.645 2.51-9.967.005-.02.018-.031.04-.031 1.36-.011 2.734-.018 4.123-.02Z" fill="#6E708C"/>
</svg>
