<svg xmlns="http://www.w3.org/2000/svg" width="176" height="48" fill="none"><path fill="#6E708C" d="M49.155 19.47v4.56l11.698-1.353v-4.935L49.155 19.47Zm3.733 4.837v15.624h4.283V23.847l-4.283.46Zm9.546-6.799v22.423h4.513V16.84l-4.514.667Zm5.353-.791v5.158l6.517-.754v-5.367l-6.517.963Zm0 8.997v5.252l4.278-.245v-5.394l-4.278.387Zm0 9.038v5.179h6.517v-5.386l-6.517.207Zm23.37-21.496v26.675h5.916V12.38l-5.916.875Zm7.021-1.038v6.136l8.622-.997v-6.413l-8.622 1.274Zm0 10.75v6.25l5.651-.324V22.46l-5.65.509Zm0 10.818v6.145h8.622v-6.419l-8.622.274Zm-22.15-18.287v24.432h5.141V14.739l-5.14.76Zm6.1 18.798v5.633h7.463v-5.87l-7.462.237Zm44.002-23.655c-1.87-1.857-4.612-2.619-7.61-2.166v6.805c1.214-.07 2.198.403 2.636 1.357.693 1.504-.022 3.76-1.706 5.852-2.601 3.226-9.516 9.83-9.516 9.83l9.927-.343c6.065-6.23 8.244-10.012 8.634-14.732.206-2.497-.656-4.903-2.365-6.603Zm2.715 29.289V32.81l-20.134.638m0 0 .002 6.482h20.132M117.362 8.63c-5.849 1.31-8.721 5.834-8.39 13.217l6.237-.582c-.284-4.171.929-5.16 2.156-5.704l-.003-6.931Z"/></svg>