<svg xmlns="http://www.w3.org/2000/svg" width="176" height="48" fill="none"><path fill="#6E708C" d="M24.169 31.36V20.702h5.884v-3.878H14v3.878h5.884v10.656h4.285Zm11.74-6.077v-8.458h-4.141v14.534h3.656l7.141-8.458v8.458h4.142V16.825H43.05l-7.14 8.458Zm24.732.672v5.404h4.141V16.825h-4.141v5.313h-6.656v-5.313h-4.142v14.534h4.142v-5.404h6.656Zm15.676 5.404c.943 0 1.8-.091 2.6-.336 2.141-.641 3.541-2.503 3.541-5.038 0-2.412-1.2-4.091-3.113-4.855-.914-.366-2-.397-3.028-.397H72.06v-3.908h-4.142v14.534h8.398Zm-.714-7.206c.571 0 1.114 0 1.6.183.685.245 1.085.855 1.085 1.588 0 .764-.4 1.405-1.057 1.71-.457.214-.914.214-1.628.214H72.06v-3.695h3.542Zm14.282 1.71 4.94 5.496h5.514l-6.884-7.572 6.627-6.962h-5.199l-4.998 5.466h-1.143v-5.466H84.6v14.534h4.142v-5.496h1.142Zm18.976-9.435c-5.57 0-8.912 3.359-8.912 7.695 0 4.335 3.342 7.694 8.912 7.694 5.542 0 8.883-3.359 8.883-7.694 0-4.336-3.341-7.695-8.883-7.695Zm0 11.847c-2.77 0-4.542-1.77-4.542-4.152S106.091 20 108.861 20c2.742 0 4.542 1.74 4.542 4.123 0 2.381-1.8 4.152-4.542 4.152Zm22.677-12.274h-4.142v1.465c-5.198.122-8.312 2.473-8.312 6.626 0 4.153 3.114 6.32 8.312 6.443V32h4.142v-1.466c5.227-.122 8.341-2.29 8.341-6.443s-3.114-6.504-8.341-6.626V16Zm-4.142 11.42c-2.856-.123-4.113-1.375-4.113-3.329 0-1.954 1.257-3.359 4.113-3.48v6.808Zm4.142-6.81c2.885.122 4.113 1.527 4.113 3.481s-1.228 3.206-4.113 3.328v-6.809Zm22.121-4.61h-4.142v1.465c-5.199.122-8.312 2.473-8.312 6.626 0 4.153 3.113 6.32 8.312 6.443V32h4.142v-1.466c5.227-.122 8.341-2.29 8.341-6.443s-3.114-6.504-8.341-6.626V16Zm-4.142 11.42c-2.857-.123-4.113-1.375-4.113-3.329 0-1.954 1.256-3.359 4.113-3.48v6.808Zm4.142-6.81c2.884.122 4.114 1.527 4.114 3.481s-1.23 3.206-4.114 3.328v-6.809Z"/></svg>