<svg xmlns="http://www.w3.org/2000/svg" width="176" height="48" fill="none"><path fill="#6E708C" d="M130.865 34.381c1.849 0 3.159-.343 4.135-1.083v-3.355c-1.002.714-2.209 1.163-3.904 1.163-2.851 0-4.032-2.272-4.032-5.865 0-3.777 1.438-5.705 4.058-5.705 1.541 0 3.056.555 3.852 1.083v-3.487c-.847-.475-2.311-.819-4.314-.819-5.111 0-7.757 3.778-7.757 9.06.026 5.785 2.62 9.008 7.962 9.008Zm-24.99-1.532v-3.355c-1.232.872-3.338 1.638-5.265 1.638-2.927 0-4.032-1.426-4.212-4.332h9.657v-2.166c0-6.05-2.594-8.32-6.575-8.32-4.88 0-7.19 3.83-7.19 9.086 0 6.05 2.901 8.981 7.987 8.981 2.542 0 4.417-.713 5.598-1.532ZM69.225 16.63v6.868h-5.341V16.63h-4.007v17.408h4.007v-7.264h5.342v7.264h4.006V16.63h-4.006Zm22.062 14.132h-1.772V16.63h-11.66v1.48c0 4.252-.257 9.747-1.67 12.652h-1.283V38H78.6v-3.962h8.963V38h3.699v-7.238h.025Zm27.353 3.276h4.546l-6.421-9.378 5.65-8.03h-4.032l-5.65 8.03v-8.03h-4.007v17.408h4.007v-8.559l5.907 8.559ZM99.378 19.536c1.977 0 2.594 1.69 2.594 3.883v.343h-5.574c.103-2.773 1.079-4.226 2.98-4.226Zm-13.87 11.226h-5.65c1.105-2.615 1.413-7.37 1.413-10.38v-.53h4.238v10.91ZM56.538 34.038h-4.083V13.249H50.63c-3.339 0-5.085 1.717-5.085 4.28 0 2.905 1.207 4.252 3.698 5.97l2.055 1.425-5.907 9.114H41l5.316-8.136c-3.056-2.245-4.777-4.438-4.777-8.136 0-4.623 3.134-7.766 9.066-7.766h5.908v24.038h.025Z"/></svg>