<svg width="20" height="20" viewBox="0 0 20 20" fill="none" xmlns="http://www.w3.org/2000/svg">
<circle cx="10" cy="10" r="10" fill="#181940"/>
<g clip-path="url(#clip0_4248_1591)">
<path d="M9.43192 14.066C8.88786 14.6101 8.00508 14.6101 7.46128 14.066L4.40804 11.0127C3.86399 10.4689 3.86399 9.58608 4.40804 9.04227C4.95184 8.4982 5.83462 8.4982 6.37868 9.04227L8.19781 10.8612C8.33513 10.9982 8.55806 10.9982 8.69565 10.8612L13.6213 5.9354C14.1651 5.39133 15.0479 5.39133 15.592 5.9354C15.8532 6.19667 16 6.55115 16 6.9206C16 7.29006 15.8532 7.64454 15.592 7.90581L9.43192 14.066Z" fill="white"/>
</g>
<defs>
<clipPath id="clip0_4248_1591">
<rect width="12" height="12" fill="white" transform="translate(4 4)"/>
</clipPath>
</defs>
</svg>
