<svg width="152" height="152" viewBox="0 0 152 152" fill="none" xmlns="http://www.w3.org/2000/svg">
<rect x="0.5" y="0.5" width="151" height="151" rx="75.5" fill="#F7F9FD"/>
<path d="M75.6811 42.2921V101.145M102.202 41.6086C95.5721 40.2415 83.6785 38.8061 75.6811 42.8389C67.6153 38.7377 55.7901 40.2415 49.1598 41.6086C46.3572 42.1554 44.1699 44.7529 44.1699 47.6921V93.8993C44.1699 97.7271 47.656 100.666 51.4154 99.9828C58.2508 98.8208 68.5039 97.9322 75.6811 101.623C82.8582 98.0005 93.1113 98.8208 99.9467 99.9828C103.706 100.598 107.192 97.7271 107.192 93.8993V47.6237C107.192 44.7529 105.073 42.2238 102.202 41.6086Z" stroke="#0D1140" stroke-width="0.76" stroke-miterlimit="10"/>
<path d="M71.5802 95.7449C65.9068 94.3778 58.9347 94.4462 50.6639 95.8816C49.8436 96.0183 49.2968 95.6765 49.0234 95.4715C48.75 95.2664 48.2715 94.7196 48.2715 93.8993V47.6238C48.2715 46.6668 49.0234 45.7782 49.912 45.5731C54.2866 44.6845 58.3879 44.2744 62.079 44.2744C65.7017 44.2744 68.9144 44.6845 71.5802 45.5731V95.7449Z" fill="#FF0A47"/>
<path d="M79.7148 45.5731C82.3123 44.6845 85.5249 44.2744 89.216 44.2744C92.9071 44.2744 97.0084 44.6845 101.383 45.5731C102.34 45.7782 103.024 46.6668 103.024 47.6238V93.831C103.024 94.7196 102.545 95.1981 102.272 95.4031C101.998 95.6082 101.451 95.95 100.631 95.8133C92.3603 94.3778 85.3882 94.3778 79.7148 95.6765V45.5731Z" fill="#FF0A47"/>
<path d="M44.1712 48.8535H43.9661C39.1813 48.8535 35.2852 52.6813 35.2852 57.5345V98.9569C35.2852 103.742 39.113 107.706 44.0345 107.706H67.4115C69.052 110.645 72.1279 112.559 75.7507 112.559C79.3734 112.559 82.4493 110.577 84.0898 107.706H107.33C112.115 107.706 116.079 103.878 116.079 98.9569V57.5345C116.079 52.7497 112.252 48.7852 107.33 48.7852H107.125" stroke="#0D1140" stroke-width="0.76" stroke-miterlimit="10"/>
<path d="M52.3723 49.6749C56.747 48.9913 62.4203 48.4445 67.752 49.0597" stroke="#F7F9FD" stroke-width="0.76" stroke-miterlimit="10"/>
<path d="M52.3723 53.0928C56.747 52.4093 62.4203 51.8625 67.752 52.4777" stroke="#F7F9FD" stroke-width="0.76" stroke-miterlimit="10"/>
<path d="M52.3723 56.5098C56.747 55.8263 62.4203 55.2795 67.752 55.8947" stroke="#F7F9FD" stroke-width="0.76" stroke-miterlimit="10"/>
<path d="M52.3723 59.9278C56.747 59.2443 62.4203 58.6974 67.752 59.3126" stroke="#F7F9FD" stroke-width="0.76" stroke-miterlimit="10"/>
<path d="M52.3723 63.3458C56.747 62.6622 62.4203 62.1154 67.752 62.7306" stroke="#F7F9FD" stroke-width="0.76" stroke-miterlimit="10"/>
<path d="M52.3723 66.7628C56.747 66.0792 62.4203 65.5324 67.752 66.1476" stroke="#F7F9FD" stroke-width="0.76" stroke-miterlimit="10"/>
<path d="M52.3723 70.1807C56.747 69.4972 62.4203 68.9504 67.752 69.5655" stroke="#F7F9FD" stroke-width="0.76" stroke-miterlimit="10"/>
<path d="M52.3723 73.5987C56.747 72.9152 62.4203 72.3683 67.752 72.9835" stroke="#F7F9FD" stroke-width="0.76" stroke-miterlimit="10"/>
<path d="M52.3723 77.0167C56.747 76.3331 62.4203 75.7863 67.752 76.4015" stroke="#F7F9FD" stroke-width="0.76" stroke-miterlimit="10"/>
<path d="M83.8137 86.9954C89.1453 86.3119 94.8187 86.8587 99.1934 87.6106" stroke="#F7F9FD" stroke-width="0.76" stroke-miterlimit="10"/>
<path d="M83.8137 90.4134C89.1453 89.7298 94.8187 90.2767 99.1934 91.0286" stroke="#F7F9FD" stroke-width="0.76" stroke-miterlimit="10"/>
<rect x="0.5" y="0.5" width="151" height="151" rx="75.5" stroke="#D3D8E3"/>
</svg>
