<svg width="152" height="152" viewBox="0 0 152 152" fill="none" xmlns="http://www.w3.org/2000/svg">
<rect x="0.5" y="0.5" width="151" height="151" rx="75.5" fill="#F7F9FD"/>
<g clip-path="url(#clip0_12862_200846)">
<path d="M42.2461 83.996V34.4074C42.2461 32.4384 43.7727 30.832 45.644 30.832H106.708C108.579 30.832 110.106 32.4384 110.106 34.4074V83.996" stroke="#0D1140" stroke-width="0.76" stroke-miterlimit="10"/>
<path d="M116.626 100.467L109.902 83.6816H42.2717L35.5479 100.467C35.1553 101.399 34.959 102.43 34.959 103.411V105.473C34.959 107.485 36.5786 109.104 38.5908 109.104H113.485C115.497 109.104 117.117 107.485 117.117 105.473V103.411C117.215 102.43 117.018 101.399 116.626 100.467Z" stroke="#0D1140" stroke-width="0.76" stroke-miterlimit="10"/>
<path d="M42.5664 101.89H109.657" stroke="#0D1140" stroke-width="0.76" stroke-miterlimit="10"/>
<path d="M47.1309 87.3145H105.485" stroke="#0D1140" stroke-width="0.76" stroke-miterlimit="10"/>
<path d="M45.8535 91.2402H106.809" stroke="#0D1140" stroke-width="0.76" stroke-miterlimit="10"/>
<path d="M44.5293 95.4121H108.135" stroke="#0D1140" stroke-width="0.76" stroke-miterlimit="10"/>
<path d="M53.1676 87.3145L50.5664 95.4124" stroke="#0D1140" stroke-width="0.76" stroke-miterlimit="10"/>
<path d="M58.9098 87.3145L56.3086 95.4124" stroke="#0D1140" stroke-width="0.76" stroke-miterlimit="10"/>
<path d="M64.6514 87.3145L62.4824 95.4124" stroke="#0D1140" stroke-width="0.76" stroke-miterlimit="10"/>
<path d="M70.3947 87.3145L68.8242 95.4124" stroke="#0D1140" stroke-width="0.76" stroke-miterlimit="10"/>
<path d="M99.0059 87.3145L101.607 95.4124" stroke="#0D1140" stroke-width="0.76" stroke-miterlimit="10"/>
<path d="M93.3125 87.3145L95.9137 95.4124" stroke="#0D1140" stroke-width="0.76" stroke-miterlimit="10"/>
<path d="M87.5703 87.3145L89.7392 95.4124" stroke="#0D1140" stroke-width="0.76" stroke-miterlimit="10"/>
<path d="M81.8301 87.3145L83.4006 95.4124" stroke="#0D1140" stroke-width="0.76" stroke-miterlimit="10"/>
<path d="M76.0859 87.3145V95.4124" stroke="#0D1140" stroke-width="0.76" stroke-miterlimit="10"/>
<path d="M79.6551 98.6628L77.0536 96.0613C76.3846 95.3923 75.3068 95.3923 74.6378 96.0613L72.0363 98.6628H62.8826C60.8013 98.6628 59.1289 100.335 59.1289 102.417V117.631C59.1289 119.712 60.8013 121.384 62.8826 121.384H88.7717C90.8529 121.384 92.5253 119.712 92.5253 117.631V102.417C92.5253 100.335 90.8529 98.6628 88.7717 98.6628H79.6551Z" fill="#F7F9FD" stroke="#0D1140" stroke-width="0.76" stroke-miterlimit="10"/>
<path d="M83.4055 112.479H68.2051" stroke="#0D1140" stroke-width="0.76" stroke-miterlimit="10"/>
<path d="M83.4055 109.692H68.2051" stroke="#0D1140" stroke-width="0.76" stroke-miterlimit="10"/>
<path d="M83.4055 106.904H68.2051" stroke="#0D1140" stroke-width="0.76" stroke-miterlimit="10"/>
<path d="M59.6988 42.7806H59.5746C57.0508 42.7806 55.0234 44.8052 55.0234 47.3256V69.1006C55.0234 71.6211 57.0508 73.687 59.616 73.687H71.9042C72.7731 75.2158 74.3867 76.2488 76.2899 76.2488C78.1932 76.2488 79.8068 75.2158 80.6756 73.687H92.8811C95.405 73.687 97.4737 71.6624 97.4737 69.1006V47.3256C97.4737 44.8052 95.4463 42.7393 92.8811 42.7393H92.757" stroke="#0D1140" stroke-width="0.76" stroke-miterlimit="10"/>
<path d="M76.1338 39.9303V70.8367ZM90.077 39.5584C86.6015 38.856 80.354 38.0709 76.1338 40.2195C71.9136 38.0709 65.666 38.856 62.1906 39.5584C60.7011 39.8476 59.584 41.2112 59.584 42.74V67.0354C59.584 69.06 61.4045 70.5888 63.3904 70.2169C66.99 69.5972 72.3687 69.1427 76.1338 71.0846C79.8989 69.184 85.2776 69.5972 88.8771 70.2169C90.8631 70.5475 92.6836 69.0187 92.6836 67.0354V42.74C92.6836 41.2112 91.5665 39.889 90.077 39.5584Z" fill="#FF0A47"/>
<path d="M76.1338 39.9303V70.8367M90.077 39.5584C86.6015 38.856 80.354 38.0709 76.1338 40.2195C71.9136 38.0709 65.666 38.856 62.1906 39.5584C60.7011 39.8476 59.584 41.2112 59.584 42.74V67.0354C59.584 69.06 61.4045 70.5888 63.3904 70.2169C66.99 69.5972 72.3687 69.1427 76.1338 71.0846C79.8989 69.184 85.2776 69.5972 88.8771 70.2169C90.8631 70.5475 92.6836 69.0187 92.6836 67.0354V42.74C92.6836 41.2112 91.5665 39.889 90.077 39.5584Z" stroke="white" stroke-width="0.76" stroke-miterlimit="10"/>
</g>
<rect x="0.5" y="0.5" width="151" height="151" rx="75.5" stroke="#D3D8E3"/>
<defs>
<clipPath id="clip0_12862_200846">
<rect width="91.2" height="91.2" fill="white" transform="translate(30.4004 30.4004)"/>
</clipPath>
</defs>
</svg>