<svg width="152" height="152" viewBox="0 0 152 152" fill="none" xmlns="http://www.w3.org/2000/svg">
<rect x="0.5" y="0.5" width="151" height="151" rx="75.5" fill="#F7F9FD"/>
<g clip-path="url(#clip0_12862_200860)">
<path d="M91.0488 36.3281V36.3281C91.0488 33.306 88.5989 30.8561 85.5768 30.8561L70.9848 30.8561C67.9627 30.8561 65.5128 33.306 65.5128 36.3281V36.3281" stroke="#0D1140" stroke-width="0.76"/>
<path d="M42.5605 83.508V39.3572C42.5605 37.5303 43.9708 36.0459 45.6945 36.0459H110.215C111.939 36.0459 113.349 37.5303 113.349 39.3572V83.546C113.349 85.3729 111.939 86.8573 110.215 86.8573H45.6945C43.9708 86.8193 42.5605 85.3349 42.5605 83.508Z" stroke="#0D1140" stroke-width="0.76" stroke-miterlimit="10"/>
<path d="M58.6719 54.5674V56.8474C58.6719 58.6103 60.101 60.0394 61.8639 60.0394V60.0394C63.6268 60.0394 65.0559 58.6103 65.0559 56.8474V54.5674" stroke="#0D1140" stroke-width="0.76"/>
<path d="M92.416 54.5674V56.8474C92.416 58.6103 93.8451 60.0394 95.608 60.0394V60.0394C97.3709 60.0394 98.8 58.6103 98.8 56.8474V54.5674" stroke="#0D1140" stroke-width="0.76"/>
<path d="M42.5605 47.3379V51.9703C42.5605 53.2442 43.7194 54.2865 45.1358 54.2865H110.774C112.19 54.2865 113.349 53.2442 113.349 51.9703V48.0038" stroke="#0D1140" stroke-width="0.76" stroke-miterlimit="10"/>
<rect x="62.2452" y="100.2" width="9.66285" height="19.6514" rx="4.18" fill="#F7F9FD" stroke="#0D1140" stroke-width="0.76"/>
<rect x="95.2491" y="65.8917" width="9.66285" height="53.96" rx="4.18" fill="#F7F9FD" stroke="#0D1140" stroke-width="0.76"/>
<rect x="78.7452" y="77.1837" width="9.66285" height="42.6686" rx="4.18" fill="#F7F9FD" stroke="#0D1140" stroke-width="0.76"/>
<path d="M69.0508 41.6914H87.2908" stroke="#0D1140" stroke-width="0.76"/>
<path d="M56.993 91.105L59.9297 88.1567C60.6849 87.3985 60.6849 86.1771 59.9297 85.4189L56.993 82.4706L56.993 64.7491C56.993 62.3905 55.1051 60.4951 52.7557 60.4951L35.0934 60.4951C32.744 60.4951 30.8561 62.3905 30.8561 64.7491L30.8561 94.0891C30.8561 96.4478 32.744 98.3431 35.0934 98.3431L52.7557 98.3431C55.1051 98.3431 56.993 96.4478 56.993 94.0891L56.993 91.105Z" fill="#FF0A47" stroke="#F7F9FD" stroke-width="0.76" stroke-miterlimit="10"/>
<path d="M38.6087 84.7263L49.4082 73.9268" stroke="#F7F9FD" stroke-width="0.76" stroke-miterlimit="10"/>
<circle cx="40.7786" cy="75.7717" r="2.052" stroke="#F7F9FD" stroke-width="0.76"/>
<circle cx="47.1614" cy="82.6116" r="2.052" stroke="#F7F9FD" stroke-width="0.76"/>
</g>
<rect x="0.5" y="0.5" width="151" height="151" rx="75.5" stroke="#D3D8E3"/>
<defs>
<clipPath id="clip0_12862_200860">
<rect width="91.2" height="91.2" fill="white" transform="translate(30.4004 30.4004)"/>
</clipPath>
</defs>
</svg>
