<svg width="48" height="48" viewBox="0 0 48 48" fill="none" xmlns="http://www.w3.org/2000/svg">
<ellipse cx="24" cy="24" rx="24" ry="24" fill="#ED131C"/>
<mask id="mask0_43300_51606" style="mask-type:alpha" maskUnits="userSpaceOnUse" x="8" y="8" width="32" height="32">
<rect x="8" y="8" width="32" height="32" fill="#D9D9D9"/>
</mask>
<g mask="url(#mask0_43300_51606)">
<path d="M29.3333 25.3332L23.8 19.9332C23.1111 19.2665 22.5278 18.5276 22.05 17.7165C21.5722 16.9054 21.3333 16.0221 21.3333 15.0665C21.3333 13.8443 21.7611 12.8054 22.6166 11.9498C23.4722 11.0943 24.5111 10.6665 25.7333 10.6665C26.4444 10.6665 27.1111 10.8165 27.7333 11.1165C28.3555 11.4165 28.8889 11.8221 29.3333 12.3332C29.7778 11.8221 30.3111 11.4165 30.9333 11.1165C31.5555 10.8165 32.2222 10.6665 32.9333 10.6665C34.1555 10.6665 35.1944 11.0943 36.05 11.9498C36.9055 12.8054 37.3333 13.8443 37.3333 15.0665C37.3333 16.0221 37.1 16.9054 36.6333 17.7165C36.1666 18.5276 35.5889 19.2665 34.9 19.9332L29.3333 25.3332ZM29.3333 21.5998L32.9666 18.0332C33.3889 17.6109 33.7778 17.1609 34.1333 16.6832C34.4889 16.2054 34.6666 15.6665 34.6666 15.0665C34.6666 14.5776 34.5 14.1665 34.1666 13.8332C33.8333 13.4998 33.4222 13.3332 32.9333 13.3332C32.6222 13.3332 32.3278 13.3943 32.05 13.5165C31.7722 13.6387 31.5333 13.8221 31.3333 14.0665L29.3333 16.4665L27.3333 14.0665C27.1333 13.8221 26.8944 13.6387 26.6166 13.5165C26.3389 13.3943 26.0444 13.3332 25.7333 13.3332C25.2444 13.3332 24.8333 13.4998 24.5 13.8332C24.1666 14.1665 24 14.5776 24 15.0665C24 15.6665 24.1778 16.2054 24.5333 16.6832C24.8889 17.1609 25.2778 17.6109 25.7 18.0332L29.3333 21.5998ZM17.3333 32.6665L26.6 35.1998L34.5333 32.7332C34.4222 32.5332 34.2611 32.361 34.05 32.2165C33.8389 32.0721 33.6 31.9998 33.3333 31.9998H26.6C26 31.9998 25.5222 31.9776 25.1666 31.9332C24.8111 31.8887 24.4444 31.7998 24.0666 31.6665L20.9666 30.6332L21.7 28.0332L24.4 28.9332C24.7778 29.0443 25.2222 29.1332 25.7333 29.1998C26.2444 29.2665 27 29.3109 28 29.3332C28 29.0887 27.9278 28.8554 27.7833 28.6332C27.6389 28.4109 27.4666 28.2665 27.2666 28.1998L19.4666 25.3332H17.3333V32.6665ZM9.33331 37.3332V22.6665H19.4666C19.6222 22.6665 19.7778 22.6832 19.9333 22.7165C20.0889 22.7498 20.2333 22.7887 20.3666 22.8332L28.2 25.7332C28.9333 25.9998 29.5278 26.4665 29.9833 27.1332C30.4389 27.7998 30.6666 28.5332 30.6666 29.3332H33.3333C34.4444 29.3332 35.3889 29.6998 36.1666 30.4332C36.9444 31.1665 37.3333 32.1332 37.3333 33.3332V34.6665L26.6666 37.9998L17.3333 35.3998V37.3332H9.33331ZM12 34.6665H14.6666V25.3332H12V34.6665Z" fill="white"/>
</g>
</svg>
