<svg width="48" height="48" viewBox="0 0 48 48" fill="none" xmlns="http://www.w3.org/2000/svg">
<ellipse cx="24" cy="24" rx="24" ry="24" fill="#ED131C"/>
<mask id="mask0_43300_51577" style="mask-type:alpha" maskUnits="userSpaceOnUse" x="8" y="8" width="32" height="32">
<rect x="8" y="8" width="32" height="32" fill="#D9D9D9"/>
</mask>
<g mask="url(#mask0_43300_51577)">
<path d="M17.3333 36V33.3333H22.6667V29.2C21.5778 28.9556 20.6056 28.4944 19.75 27.8167C18.8944 27.1389 18.2667 26.2889 17.8667 25.2667C16.2 25.0667 14.8056 24.3389 13.6833 23.0833C12.5611 21.8278 12 20.3556 12 18.6667V17.3333C12 16.6 12.2611 15.9722 12.7833 15.45C13.3056 14.9278 13.9333 14.6667 14.6667 14.6667H17.3333V12H30.6667V14.6667H33.3333C34.0667 14.6667 34.6944 14.9278 35.2167 15.45C35.7389 15.9722 36 16.6 36 17.3333V18.6667C36 20.3556 35.4389 21.8278 34.3167 23.0833C33.1944 24.3389 31.8 25.0667 30.1333 25.2667C29.7333 26.2889 29.1056 27.1389 28.25 27.8167C27.3944 28.4944 26.4222 28.9556 25.3333 29.2V33.3333H30.6667V36H17.3333ZM17.3333 22.4V17.3333H14.6667V18.6667C14.6667 19.5111 14.9111 20.2722 15.4 20.95C15.8889 21.6278 16.5333 22.1111 17.3333 22.4ZM24 26.6667C25.1111 26.6667 26.0556 26.2778 26.8333 25.5C27.6111 24.7222 28 23.7778 28 22.6667V14.6667H20V22.6667C20 23.7778 20.3889 24.7222 21.1667 25.5C21.9444 26.2778 22.8889 26.6667 24 26.6667ZM30.6667 22.4C31.4667 22.1111 32.1111 21.6278 32.6 20.95C33.0889 20.2722 33.3333 19.5111 33.3333 18.6667V17.3333H30.6667V22.4Z" fill="white"/>
</g>
</svg>
