<svg width="48" height="48" viewBox="0 0 48 48" fill="none" xmlns="http://www.w3.org/2000/svg">
<ellipse cx="24" cy="24" rx="24" ry="24" fill="#ED131C"/>
<mask id="mask0_43300_51588" style="mask-type:alpha" maskUnits="userSpaceOnUse" x="8" y="8" width="32" height="32">
<rect x="8" y="8" width="32" height="32" fill="#D9D9D9"/>
</mask>
<g mask="url(#mask0_43300_51588)">
<path d="M24 34.6665C25.6666 34.6665 27.0833 34.0832 28.25 32.9165C29.4166 31.7498 30 30.3332 30 28.6665C30 26.9998 29.4166 25.5832 28.25 24.4165C27.0833 23.2498 25.6666 22.6665 24 22.6665C22.3333 22.6665 20.9166 23.2498 19.75 24.4165C18.5833 25.5832 18 26.9998 18 28.6665C18 30.3332 18.5833 31.7498 19.75 32.9165C20.9166 34.0832 22.3333 34.6665 24 34.6665ZM20.1 20.9332C20.5444 20.6887 21.0166 20.4943 21.5166 20.3498C22.0166 20.2054 22.5222 20.1109 23.0333 20.0665L19.6666 13.3332H16.3333L20.1 20.9332ZM27.9 20.9332L31.7 13.3332H28.3333L25.5 18.9998L26.1333 20.2665C26.4444 20.3554 26.7444 20.4498 27.0333 20.5498C27.3222 20.6498 27.6111 20.7776 27.9 20.9332ZM16.5333 33.0665C16.1555 32.4221 15.8611 31.7276 15.65 30.9832C15.4388 30.2387 15.3333 29.4665 15.3333 28.6665C15.3333 27.8665 15.4388 27.0943 15.65 26.3498C15.8611 25.6054 16.1555 24.9109 16.5333 24.2665C15.6 24.5776 14.8333 25.1276 14.2333 25.9165C13.6333 26.7054 13.3333 27.6221 13.3333 28.6665C13.3333 29.7109 13.6333 30.6276 14.2333 31.4165C14.8333 32.2054 15.6 32.7554 16.5333 33.0665ZM31.4666 33.0665C32.4 32.7554 33.1666 32.2054 33.7666 31.4165C34.3666 30.6276 34.6666 29.7109 34.6666 28.6665C34.6666 27.6221 34.3666 26.7054 33.7666 25.9165C33.1666 25.1276 32.4 24.5776 31.4666 24.2665C31.8444 24.9109 32.1388 25.6054 32.35 26.3498C32.5611 27.0943 32.6666 27.8665 32.6666 28.6665C32.6666 29.4665 32.5611 30.2387 32.35 30.9832C32.1388 31.7276 31.8444 32.4221 31.4666 33.0665ZM24 37.3332C23.1111 37.3332 22.2611 37.2054 21.45 36.9498C20.6388 36.6943 19.8888 36.3443 19.2 35.8998C19 35.9443 18.8 35.9721 18.6 35.9832C18.4 35.9943 18.1888 35.9998 17.9666 35.9998C15.9444 35.9998 14.2222 35.2887 12.8 33.8665C11.3777 32.4443 10.6666 30.7221 10.6666 28.6998C10.6666 26.7665 11.3111 25.1109 12.6 23.7332C13.8888 22.3554 15.4777 21.5887 17.3666 21.4332L12 10.6665H21.3333L24 15.9998L26.6666 10.6665H36L30.6666 21.3665C32.5555 21.5443 34.1388 22.3221 35.4166 23.6998C36.6944 25.0776 37.3333 26.7332 37.3333 28.6665C37.3333 30.7109 36.6222 32.4443 35.2 33.8665C33.7777 35.2887 32.0444 35.9998 30 35.9998C29.8 35.9998 29.5944 35.9943 29.3833 35.9832C29.1722 35.9721 28.9666 35.9443 28.7666 35.8998C28.0777 36.3443 27.3333 36.6943 26.5333 36.9498C25.7333 37.2054 24.8888 37.3332 24 37.3332ZM21.5333 32.3332L22.4666 29.2998L20 27.5332H23.0333L24 24.3332L24.9666 27.5332H28L25.5333 29.2998L26.4666 32.3332L24 30.4665L21.5333 32.3332Z" fill="white"/>
</g>
</svg>
