<svg width="32" height="33" viewBox="0 0 32 33" fill="none" xmlns="http://www.w3.org/2000/svg">
<rect width="32" height="32" rx="7.75758" fill="#ED131C"/>
<g filter="url(#filter0_dii_1190_29586)">
<path d="M15.9864 27.6365C12.8185 25.0111 10.4472 22.6091 8.87241 20.4304C7.29764 18.2517 6.51025 16.0958 6.51025 13.9627C6.51025 11.0508 7.46281 8.72295 9.36792 6.97928C11.273 5.23561 13.4792 4.36377 15.9864 4.36377C18.4857 4.36377 20.6945 5.23561 22.6128 6.97928C24.5309 8.72295 25.4899 11.0508 25.4899 13.9627C25.4899 16.0958 24.698 18.2517 23.114 20.4304C21.5301 22.6091 19.1542 25.0111 15.9864 27.6365Z" fill="#F8F8F8"/>
</g>
<g filter="url(#filter1_diii_1190_29586)">
<path d="M16.2427 19.879C17.5759 19.879 18.7782 19.5698 19.8494 18.9513C20.9207 18.3328 21.7806 17.5081 22.429 16.4773C21.5471 15.8331 20.5845 15.337 19.5413 14.9891C18.4983 14.6412 17.3959 14.4672 16.2341 14.4672C15.0726 14.4672 13.9731 14.6412 12.9356 14.9891C11.898 15.337 10.9383 15.8331 10.0564 16.4773C10.7049 17.5081 11.5647 18.3328 12.636 18.9513C13.7072 19.5698 14.9095 19.879 16.2427 19.879Z" fill="#ED131C"/>
<path d="M16.2758 13.346C15.4295 13.346 14.707 13.0517 14.1082 12.4631C13.5094 11.8745 13.2099 11.1598 13.2099 10.319C13.2099 9.47817 13.5062 8.7603 14.0986 8.16536C14.6911 7.57042 15.4104 7.27295 16.2567 7.27295C17.103 7.27295 17.8255 7.56725 18.4244 8.15586C19.0232 8.74446 19.3226 9.45917 19.3226 10.3C19.3226 11.1408 19.0264 11.8586 18.4339 12.4536C17.8415 13.0485 17.1221 13.346 16.2758 13.346Z" fill="#ED131C"/>
</g>
<defs>
<filter id="filter0_dii_1190_29586" x="3.60116" y="3.39407" width="25.0842" height="29.0906" filterUnits="userSpaceOnUse" color-interpolation-filters="sRGB">
<feFlood flood-opacity="0" result="BackgroundImageFix"/>
<feColorMatrix in="SourceAlpha" type="matrix" values="0 0 0 0 0 0 0 0 0 0 0 0 0 0 0 0 0 0 127 0" result="hardAlpha"/>
<feOffset dy="1.93939"/>
<feGaussianBlur stdDeviation="1.45455"/>
<feComposite in2="hardAlpha" operator="out"/>
<feColorMatrix type="matrix" values="0 0 0 0 0 0 0 0 0 0 0 0 0 0 0 0 0 0 0.12 0"/>
<feBlend mode="normal" in2="BackgroundImageFix" result="effect1_dropShadow_1190_29586"/>
<feBlend mode="normal" in="SourceGraphic" in2="effect1_dropShadow_1190_29586" result="shape"/>
<feColorMatrix in="SourceAlpha" type="matrix" values="0 0 0 0 0 0 0 0 0 0 0 0 0 0 0 0 0 0 127 0" result="hardAlpha"/>
<feOffset dx="-2.73408"/>
<feGaussianBlur stdDeviation="3.56945"/>
<feComposite in2="hardAlpha" operator="arithmetic" k2="-1" k3="1"/>
<feColorMatrix type="matrix" values="0 0 0 0 0.98903 0 0 0 0 0.98903 0 0 0 0 0.98903 0 0 0 0.7 0"/>
<feBlend mode="normal" in2="shape" result="effect2_innerShadow_1190_29586"/>
<feColorMatrix in="SourceAlpha" type="matrix" values="0 0 0 0 0 0 0 0 0 0 0 0 0 0 0 0 0 0 127 0" result="hardAlpha"/>
<feOffset dx="3.19539" dy="2.81284"/>
<feGaussianBlur stdDeviation="2.17151"/>
<feComposite in2="hardAlpha" operator="arithmetic" k2="-1" k3="1"/>
<feColorMatrix type="matrix" values="0 0 0 0 0.550342 0 0 0 0 0.550342 0 0 0 0 0.550342 0 0 0 0.07 0"/>
<feBlend mode="normal" in2="effect2_innerShadow_1190_29586" result="effect3_innerShadow_1190_29586"/>
</filter>
<filter id="filter1_diii_1190_29586" x="9.12261" y="6.57261" width="14.2401" height="14.6369" filterUnits="userSpaceOnUse" color-interpolation-filters="sRGB">
<feFlood flood-opacity="0" result="BackgroundImageFix"/>
<feColorMatrix in="SourceAlpha" type="matrix" values="0 0 0 0 0 0 0 0 0 0 0 0 0 0 0 0 0 0 127 0" result="hardAlpha"/>
<feOffset dy="0.396858"/>
<feGaussianBlur stdDeviation="0.466891"/>
<feComposite in2="hardAlpha" operator="out"/>
<feColorMatrix type="matrix" values="0 0 0 0 0.41854 0 0 0 0 0 0 0 0 0 0.0164594 0 0 0 0.41 0"/>
<feBlend mode="normal" in2="BackgroundImageFix" result="effect1_dropShadow_1190_29586"/>
<feBlend mode="normal" in="SourceGraphic" in2="effect1_dropShadow_1190_29586" result="shape"/>
<feColorMatrix in="SourceAlpha" type="matrix" values="0 0 0 0 0 0 0 0 0 0 0 0 0 0 0 0 0 0 127 0" result="hardAlpha"/>
<feOffset dx="0.227125"/>
<feGaussianBlur stdDeviation="0.198734"/>
<feComposite in2="hardAlpha" operator="arithmetic" k2="-1" k3="1"/>
<feColorMatrix type="matrix" values="0 0 0 0 0.8375 0 0 0 0 0.0628125 0 0 0 0 0.094795 0 0 0 1 0"/>
<feBlend mode="normal" in2="shape" result="effect2_innerShadow_1190_29586"/>
<feColorMatrix in="SourceAlpha" type="matrix" values="0 0 0 0 0 0 0 0 0 0 0 0 0 0 0 0 0 0 127 0" result="hardAlpha"/>
<feOffset dx="-0.227125"/>
<feGaussianBlur stdDeviation="0.227125"/>
<feComposite in2="hardAlpha" operator="arithmetic" k2="-1" k3="1"/>
<feColorMatrix type="matrix" values="0 0 0 0 1 0 0 0 0 0.3125 0 0 0 0 0.340883 0 0 0 1 0"/>
<feBlend mode="normal" in2="effect2_innerShadow_1190_29586" result="effect3_innerShadow_1190_29586"/>
<feColorMatrix in="SourceAlpha" type="matrix" values="0 0 0 0 0 0 0 0 0 0 0 0 0 0 0 0 0 0 127 0" result="hardAlpha"/>
<feOffset dy="-0.700337"/>
<feGaussianBlur stdDeviation="0.466891"/>
<feComposite in2="hardAlpha" operator="arithmetic" k2="-1" k3="1"/>
<feColorMatrix type="matrix" values="0 0 0 0 0 0 0 0 0 0 0 0 0 0 0 0 0 0 0.13 0"/>
<feBlend mode="normal" in2="effect3_innerShadow_1190_29586" result="effect4_innerShadow_1190_29586"/>
</filter>
</defs>
</svg>
