<svg width="20" height="21" viewBox="0 0 20 21" fill="none" xmlns="http://www.w3.org/2000/svg">
<path fill-rule="evenodd" clip-rule="evenodd" d="M15.3623 0.617188C17.9236 0.617188 20 2.69355 20 5.25487V15.9795C20 18.5408 17.9236 20.6172 15.3623 20.6172H4.63768C2.07636 20.6172 4.66859e-08 18.5408 0 15.9795V5.25487C4.66859e-08 2.69355 2.07636 0.617188 4.63768 0.617188H15.3623ZM9.63542 14.7714C9.03284 14.7714 8.53012 14.9619 8.1284 15.3421C7.73412 15.7222 7.53736 16.1924 7.53736 16.7517C7.53748 17.311 7.73397 17.7813 8.1284 18.1613C8.5301 18.5415 9.03288 18.7309 9.63542 18.7309C10.2378 18.7308 10.7366 18.5414 11.1311 18.1613C11.5255 17.7813 11.722 17.311 11.7221 16.7517C11.7221 16.1923 11.5254 15.7222 11.1311 15.3421C10.7366 14.9619 10.2379 14.7714 9.63542 14.7714ZM9.95811 2.64391C9.09736 2.64391 8.30486 2.78124 7.58039 3.05378C6.86303 3.32638 6.30299 3.62733 5.90127 3.95731C5.50687 4.28719 5.15552 4.66725 4.84715 5.09749C4.53869 5.52071 4.34823 5.81866 4.27649 5.99083C4.2048 6.16289 4.15461 6.29916 4.12591 6.39957L7.64493 8.04586L7.71966 7.91678C7.74836 7.83074 7.81292 7.72312 7.91327 7.59409C8.0137 7.45779 8.13551 7.32466 8.27899 7.19554C8.4296 7.05927 8.63448 6.94873 8.89266 6.86266C9.15091 6.7694 9.43452 6.72226 9.74298 6.72226C10.1661 6.72229 10.5102 6.84112 10.7756 7.07779C11.041 7.31447 11.1741 7.60122 11.1741 7.93829C11.1741 8.23241 11.0553 8.50885 10.8186 8.7671C10.5891 9.02529 10.3054 9.266 9.9683 9.48834C9.63856 9.70341 9.30543 9.94021 8.96852 10.1983C8.63137 10.4565 8.34361 10.7974 8.10688 11.2207C7.87746 11.6438 7.76268 12.1283 7.76268 12.6733C7.76273 12.9673 7.83443 13.2973 7.97781 13.6629H11.841C11.841 13.3115 11.9702 12.9674 12.2283 12.6303C12.4937 12.2932 12.8131 11.9696 13.1861 11.6611C13.5661 11.3528 13.9463 11.0126 14.3263 10.6398C14.7065 10.2668 15.0301 9.79275 15.2955 9.21886C15.5609 8.64504 15.6929 7.99885 15.6929 7.28159C15.6928 6.07672 15.1481 5.00444 14.058 4.06488C12.9676 3.11799 11.6008 2.64393 9.95811 2.64391Z" fill="#1C8D00"/>
</svg>
