<svg width="32" height="32" viewBox="0 0 32 32" fill="none" xmlns="http://www.w3.org/2000/svg">
<rect width="32" height="32" rx="7.75758" fill="#ED131C"/>
<g filter="url(#filter0_dii_1190_29618)">
<path d="M5.81812 24.2427V21.4571C5.81812 20.8483 5.98762 20.2775 6.32663 19.7447C6.66564 19.212 7.12792 18.8162 7.71348 18.5574C8.68428 18.1312 9.67958 17.7888 10.6994 17.53C11.7193 17.2712 12.7504 17.1418 13.7925 17.1418C14.4551 17.1418 15.1139 17.1926 15.7688 17.2941C16.4237 17.3955 17.0747 17.5198 17.7219 17.667V19.0369C16.9515 19.2957 16.2927 19.7561 15.7457 20.4183C15.1986 21.0804 14.9251 21.8301 14.9251 22.6672V24.2427H5.81812ZM16.312 24.2427V22.6901C16.312 22.2655 16.416 21.8702 16.624 21.5039C16.832 21.1379 17.1287 20.8483 17.5139 20.6352C18.0995 20.3384 18.7043 20.1234 19.3284 19.9902C19.9525 19.857 20.5881 19.7904 21.2353 19.7904C21.8979 19.7904 22.5413 19.8589 23.1653 19.9959C23.7894 20.1329 24.3865 20.346 24.9567 20.6352C25.3419 20.8331 25.6424 21.1175 25.8582 21.4884C26.0739 21.8594 26.1818 22.2599 26.1818 22.6901V24.2427H16.312ZM21.2353 18.6716C20.5191 18.6716 19.9124 18.4261 19.4153 17.935C18.9182 17.444 18.6696 16.8447 18.6696 16.1372C18.6696 15.4145 18.9182 14.8076 19.4153 14.3166C19.9124 13.8255 20.5191 13.58 21.2353 13.58C21.967 13.58 22.5813 13.8255 23.0784 14.3166C23.5755 14.8076 23.8241 15.4145 23.8241 16.1372C23.8241 16.8447 23.5755 17.444 23.0784 17.935C22.5813 18.4261 21.967 18.6716 21.2353 18.6716ZM13.7925 15.7491C12.6676 15.7491 11.7122 15.3609 10.9264 14.5846C10.1405 13.8083 9.74753 12.8646 9.74753 11.7534C9.74753 10.6271 10.1405 9.67952 10.9264 8.91084C11.7122 8.14215 12.6676 7.75781 13.7925 7.75781C14.9174 7.75781 15.8767 8.14215 16.6702 8.91084C17.4638 9.67952 17.8606 10.6271 17.8606 11.7534C17.8606 12.8646 17.4638 13.8083 16.6702 14.5846C15.8767 15.3609 14.9174 15.7491 13.7925 15.7491Z" fill="#F8F8F8"/>
</g>
<defs>
<filter id="filter0_dii_1190_29618" x="2.90902" y="6.78812" width="26.468" height="22.303" filterUnits="userSpaceOnUse" color-interpolation-filters="sRGB">
<feFlood flood-opacity="0" result="BackgroundImageFix"/>
<feColorMatrix in="SourceAlpha" type="matrix" values="0 0 0 0 0 0 0 0 0 0 0 0 0 0 0 0 0 0 127 0" result="hardAlpha"/>
<feOffset dy="1.93939"/>
<feGaussianBlur stdDeviation="1.45455"/>
<feComposite in2="hardAlpha" operator="out"/>
<feColorMatrix type="matrix" values="0 0 0 0 0 0 0 0 0 0 0 0 0 0 0 0 0 0 0.12 0"/>
<feBlend mode="normal" in2="BackgroundImageFix" result="effect1_dropShadow_1190_29618"/>
<feBlend mode="normal" in="SourceGraphic" in2="effect1_dropShadow_1190_29618" result="shape"/>
<feColorMatrix in="SourceAlpha" type="matrix" values="0 0 0 0 0 0 0 0 0 0 0 0 0 0 0 0 0 0 127 0" result="hardAlpha"/>
<feOffset dx="-2.73408"/>
<feGaussianBlur stdDeviation="3.56945"/>
<feComposite in2="hardAlpha" operator="arithmetic" k2="-1" k3="1"/>
<feColorMatrix type="matrix" values="0 0 0 0 0.98903 0 0 0 0 0.98903 0 0 0 0 0.98903 0 0 0 0.7 0"/>
<feBlend mode="normal" in2="shape" result="effect2_innerShadow_1190_29618"/>
<feColorMatrix in="SourceAlpha" type="matrix" values="0 0 0 0 0 0 0 0 0 0 0 0 0 0 0 0 0 0 127 0" result="hardAlpha"/>
<feOffset dx="3.19539" dy="2.81284"/>
<feGaussianBlur stdDeviation="2.17151"/>
<feComposite in2="hardAlpha" operator="arithmetic" k2="-1" k3="1"/>
<feColorMatrix type="matrix" values="0 0 0 0 0.550342 0 0 0 0 0.550342 0 0 0 0 0.550342 0 0 0 0.07 0"/>
<feBlend mode="normal" in2="effect2_innerShadow_1190_29618" result="effect3_innerShadow_1190_29618"/>
</filter>
</defs>
</svg>
