<svg width="187" height="33" fill="none" xmlns="http://www.w3.org/2000/svg"><path d="m19.2 19.437-3.23-3.123 3.23-3.038V7.114l-9.6 9.2 9.6 9.2v-6.077Z" fill="#FF0040"/><path d="M0 .714v31.2h31.2V.714H0Zm26.743 26.743H4.457V5.17h22.286v22.286Z" fill="#FF0040"/><path d="m49.39 27.546 2.21 2.542c-.425.508-.935.931-1.53 1.355-1.275.847-2.72 1.27-4.42 1.27-2.21 0-3.995-.677-5.44-2.117-1.445-1.355-2.21-3.05-2.21-5.082 0-2.034.765-3.728 2.21-5.083 1.445-1.355 3.23-2.117 5.44-2.117 1.615 0 3.06.423 4.42 1.355.595.423 1.02.847 1.445 1.27l-2.21 2.541c-.34-.338-.595-.592-1.02-.846-.85-.593-1.7-.848-2.635-.848-1.105 0-1.955.34-2.72 1.102-.765.762-1.105 1.609-1.105 2.71s.34 1.948 1.105 2.71c.765.763 1.615 1.102 2.72 1.102a4.62 4.62 0 0 0 2.635-.847c.425-.424.765-.678 1.105-1.017ZM53.2 32.629V19.113h3.73v7.434l5.849-7.434H66v13.6h-3.73v-7.518l-5.849 7.434h-3.22ZM69.2 32.629V19.113h3.858v4.9h5.085v-4.9H82v13.6h-3.857v-5.152h-5.085v5.152H69.2v-.084ZM84.4 32.629V19.113h10.234v3.295h-6.573v1.942h5.075v3.126h-5.075v1.943h6.74v3.294H84.4v-.084ZM97.2 32.713v-13.6h6.109c1.528 0 2.715.425 3.649 1.36.933.935 1.442 2.04 1.442 3.4 0 1.36-.509 2.55-1.442 3.4-.934.85-2.121 1.36-3.649 1.36h-2.46v4.08H97.2Zm3.734-7.395h2.206c.424 0 .763-.17 1.103-.425.339-.255.424-.595.424-1.02 0-.425-.17-.765-.424-1.02-.34-.255-.679-.425-1.103-.425h-2.206v2.89ZM110.8 32.713v-13.6h9.6v3.485h-5.914v10.115H110.8ZM122 32.629V19.113h3.73v7.434l5.849-7.434h3.221v13.6h-3.73v-7.518l-5.849 7.434H122ZM136.4 31.913l2.829-5.068c-.429-.169-.857-.507-1.2-.845-.771-.76-1.2-1.773-1.2-3.04 0-1.352.514-2.45 1.457-3.295.943-.845 2.143-1.351 3.6-1.351h6.514v13.6h-3.771V27.69h-2.057l-2.229 4.223H136.4Zm5.658-7.518h2.571v-2.703h-2.571a1.43 1.43 0 0 0-1.029.423c-.257.253-.429.591-.429.929 0 .422.172.676.429.93.257.253.6.421 1.029.421ZM38.556 14.862v-3.274c.17.084.255.084.34.084.254.084.508.084.847.084 1.017 0 1.696-.42 2.035-1.176l.084-.168L37.2 1.514h4.07l2.457 5.54h.085l2.12-5.54H50l-4.747 9.99c-.593 1.175-1.271 2.099-2.034 2.686-.763.588-1.78.924-2.882.924a5.18 5.18 0 0 1-1.272-.168l-.508-.084ZM50.8 15.03V1.513h3.857v4.899h5.085v-4.9H63.6v13.6h-3.858V9.962h-5.085v5.153H50.8v-.085ZM66.8 15.03V1.513h3.73v7.433l5.849-7.433h3.22v13.6H75.87V7.596l-5.849 7.433H66.8ZM82 15.03V1.513h5.89c1.494 0 2.572.338 3.402 1.013.83.676 1.244 1.52 1.244 2.534 0 .93-.332 1.69-.995 2.281-.25.254-.581.423-.996.592.498.168.913.422 1.328.675.912.676 1.327 1.605 1.327 2.703 0 1.099-.415 1.943-1.327 2.704-.83.76-2.075 1.098-3.568 1.098H82v-.085Zm3.65-8.364h1.991c.415 0 .664-.084.913-.337.249-.254.332-.507.332-.845 0-.338-.083-.591-.332-.845-.249-.253-.498-.338-.913-.338h-1.99v2.365Zm0 5.491h2.49c.414 0 .746-.169.995-.422.249-.254.415-.591.415-.93 0-.337-.166-.675-.415-.929a1.362 1.362 0 0 0-.996-.422H85.65v2.703ZM95.6 15.03V1.513h10.234v3.294h-6.573v1.943h5.076v3.125h-5.076v1.943h6.74v3.295h-10.4v-.085ZM108.4 15.114v-13.6h6.109c1.528 0 2.716.425 3.649 1.36.933.935 1.442 2.04 1.442 3.4 0 1.36-.509 2.55-1.442 3.4-.933.85-2.121 1.36-3.649 1.36h-2.46v4.08H108.4Zm3.649-7.395h2.206c.424 0 .764-.17 1.103-.425.339-.255.424-.595.424-1.02 0-.425-.169-.765-.424-1.02-.339-.255-.679-.425-1.103-.425h-2.206v2.89ZM132.59 9.947l2.21 2.541c-.425.508-.935.932-1.53 1.355-1.275.847-2.72 1.27-4.42 1.27-2.21 0-3.995-.677-5.44-2.117-1.445-1.355-2.21-3.05-2.21-5.082 0-2.033.765-3.727 2.21-5.082 1.445-1.356 3.23-2.118 5.44-2.118 1.615 0 3.06.423 4.42 1.355.595.424 1.02.847 1.445 1.27l-2.21 2.542c-.34-.339-.595-.593-1.02-.847-.85-.593-1.7-.847-2.635-.847-1.105 0-1.955.339-2.72 1.101-.765.762-1.105 1.61-1.105 2.71 0 1.102.34 1.949 1.105 2.711.765.763 1.615 1.101 2.72 1.101a4.62 4.62 0 0 0 2.635-.847c.425-.423.765-.677 1.105-1.016ZM136.4 15.03V1.513h3.73v7.433l5.849-7.433h3.221v13.6h-3.729V7.596l-5.849 7.433H136.4ZM154.589 15.03V4.807H150.8V1.514H162v3.294h-3.79v10.306h-3.621v-.085ZM163.601 15.03V1.513h10.233v3.294h-6.573v1.943h5.076v3.125h-5.076v1.943h6.74v3.295h-10.4v-.085ZM179.39 15.03V4.807h-3.789V1.514h11.2v3.294h-3.79v10.306h-3.621v-.085Z" fill="#fff"/></svg>