<svg width="233" height="30" viewBox="0 0 233 30" fill="none" xmlns="http://www.w3.org/2000/svg">
<path d="M0 0.463867V29.5364H29.0617V0.463867H0ZM4.84541 24.6909V5.30928H24.2271V24.6909H4.84541Z" fill="#ED131C"/>
<path d="M17.4118 23.7114V17.6062L14.7953 14.9896L17.4118 12.3731V6.27865L8.69008 15.0004L17.4118 23.7114Z" fill="#ED131C"/>
<path d="M44.1996 9.90692C42.8321 11.2636 42.1537 12.9757 42.1537 15.0323C42.1537 17.0889 42.8321 18.8009 44.1996 20.1577C45.567 21.5144 47.2791 22.2035 49.3249 22.2035C50.5955 22.2035 51.8015 21.9343 52.9321 21.3959C54.0627 20.8576 54.881 20.3192 55.3871 19.77L56.1408 18.9625L60.0818 23.2695C59.9848 23.4095 59.8556 23.5925 59.6726 23.8186C59.4895 24.0448 59.0696 24.4539 58.4128 25.0246C57.756 25.6061 57.0453 26.1121 56.2808 26.5536C55.5163 26.9951 54.5041 27.3935 53.2551 27.7488C51.9953 28.1041 50.6924 28.2872 49.3465 28.2872C45.4486 28.2872 42.143 26.9843 39.4295 24.3786C36.7161 21.7728 35.3594 18.6502 35.3594 15.0215C35.3594 11.3928 36.7161 8.27025 39.4295 5.66449C42.1322 3.05874 45.4378 1.75586 49.3357 1.75586C50.6817 1.75586 51.9522 1.92814 53.169 2.28347C54.3857 2.6388 55.3871 3.05874 56.1731 3.54328C56.9592 4.03859 57.6483 4.52313 58.2405 5.01844C58.8327 5.51375 59.2526 5.93368 59.5111 6.27825L59.9095 6.78432L55.7747 11.0914C55.6993 10.9944 55.6132 10.876 55.4948 10.736C55.3763 10.5853 55.1071 10.3376 54.6872 9.96076C54.2673 9.59466 53.8258 9.27164 53.3735 8.98091C52.9213 8.69019 52.3183 8.44253 51.5754 8.20564C50.8324 7.97952 50.0894 7.86108 49.3249 7.86108C47.2791 7.86108 45.567 8.55021 44.1996 9.90692Z" fill="#1C1C1C"/>
<path d="M62.5589 2.47746H69.364V16.4646L80.1101 2.47746H86.0322V27.5875H79.2271V13.5896L68.4488 27.5767H62.5697V2.47746H62.5589Z" fill="#1C1C1C"/>
<path d="M113.435 2.47746V27.5875H106.619V17.9074H97.4773V27.5875H90.6722V2.47746H97.4773V11.813H106.619V2.47746H113.435Z" fill="#1C1C1C"/>
<path d="M137.77 21.8376V27.5767H118.055V2.47746H137.415V8.21658H124.86V12.1575H134.54V17.5521H124.86V21.8376H137.77Z" fill="#1C1C1C"/>
<path d="M140.968 2.47746H152.264C155.02 2.47746 157.26 3.30656 158.983 4.97554C160.705 6.63375 161.578 8.73343 161.578 11.2746C161.578 13.805 160.716 15.9046 158.983 17.5736C157.249 19.2318 155.009 20.0717 152.264 20.0717H147.784V27.5982H140.968V2.47746ZM151.897 8.58268H147.784V13.9557H151.897C152.694 13.9557 153.373 13.6865 153.933 13.1481C154.492 12.6098 154.772 11.9852 154.772 11.2638C154.772 10.5424 154.492 9.91786 153.933 9.37948C153.362 8.85187 152.694 8.58268 151.897 8.58268Z" fill="#1C1C1C"/>
<path d="M164.774 27.5767V2.47746H182.702V8.58268H171.59V27.5767H164.774Z" fill="#1C1C1C"/>
<path d="M184.814 2.47746H191.619V16.4646L202.365 2.47746H208.287V27.5875H201.482V13.5896L190.693 27.5767H184.814V2.47746Z" fill="#1C1C1C"/>
<path d="M232.999 2.47746V27.5875H226.183V19.6948H222.597L218.29 27.5875H211.108L216.309 18.4458C216.191 18.4027 216.04 18.3166 215.846 18.2089C215.652 18.1012 215.308 17.832 214.823 17.4013C214.328 16.9706 213.897 16.5076 213.52 16.0015C213.143 15.4955 212.799 14.7956 212.487 13.9234C212.174 13.0405 212.024 12.1037 212.024 11.0915C212.024 8.64728 212.885 6.60144 214.608 4.954C216.331 3.30656 218.516 2.47746 221.165 2.47746H232.999ZM219.582 9.29334C219.087 9.76711 218.84 10.3593 218.84 11.0808C218.84 11.8022 219.087 12.3944 219.593 12.8789C220.099 13.3527 220.735 13.6004 221.521 13.6004H226.194V8.59345H221.521C220.724 8.58268 220.078 8.81957 219.582 9.29334Z" fill="#1C1C1C"/>
</svg>
