<svg xmlns="http://www.w3.org/2000/svg" fill="none" viewBox="0 0 475 65"><path fill="#1C1C1C" d="M21.25 20.03c-3.29 3.28-4.92 7.4-4.92 12.37 0 4.96 1.63 9.09 4.92 12.36a16.79 16.79 0 0 0 12.31 4.94c3.06 0 5.96-.65 8.67-1.95 2.72-1.3 4.69-2.6 5.9-3.92l1.82-1.95 9.47 10.39c-.24.33-.55.78-.99 1.32-.44.55-1.45 1.53-3.02 2.91a31.32 31.32 0 0 1-5.13 3.69 32.59 32.59 0 0 1-7.27 2.88c-3.03.86-6.16 1.3-9.4 1.3-9.36 0-17.3-3.14-23.83-9.43C3.26 48.66 0 41.12 0 32.37S3.26 16.1 9.78 9.8C16.28 3.51 24.22.37 33.6.37c3.23 0 6.29.42 9.21 1.27 2.93.86 5.33 1.87 7.22 3.04A45.85 45.85 0 0 1 55 8.24c1.42 1.2 2.43 2.2 3.06 3.04L59 12.5l-9.93 10.4c-.19-.24-.4-.53-.68-.87a27.02 27.02 0 0 0-5.1-4.23c-1.08-.7-2.53-1.3-4.32-1.87a18.35 18.35 0 0 0-5.4-.83c-4.92 0-9.04 1.66-12.32 4.93ZM65.37 2.11h16.36v33.74l25.82-33.74h14.23v60.57h-16.35V28.92l-25.9 33.74H65.4V2.1h-.03ZM187.64 2.11v60.57h-16.38V39.33H149.3v23.35h-16.35V2.11h16.35v22.52h21.97V2.11h16.38ZM246.13 48.81v13.85h-47.38V2.1h46.53v13.85H215.1v9.5h23.27v13.02H215.1V48.8h31.03ZM253.82 2.11h27.14c6.63 0 12.01 2 16.15 6.03 4.14 4 6.24 9.06 6.24 15.2 0 6.1-2.07 11.16-6.24 15.19-4.17 4-9.55 6.02-16.15 6.02H270.2v18.16h-16.38V2.1Zm26.26 14.73h-9.88V29.8h9.88c1.92 0 3.55-.65 4.9-1.95a6.12 6.12 0 0 0 0-9.09 6.91 6.91 0 0 0-4.9-1.92ZM311.03 62.66V2.1h43.09v14.73h-26.7v45.82h-16.39ZM359.2 2.11h16.35v33.74l25.82-33.74h14.24v60.57h-16.36V28.92l-25.93 33.74H359.2V2.1ZM475 2.11v60.57h-16.38V43.64H450l-10.35 19.04h-17.26l12.5-22.05c-.29-.1-.65-.31-1.11-.57-.47-.26-1.3-.9-2.46-1.95a21.36 21.36 0 0 1-3.13-3.37c-.91-1.23-1.74-2.91-2.49-5.02a20.32 20.32 0 0 1-1.11-6.83c0-5.9 2.07-10.83 6.21-14.8 4.14-3.98 9.4-5.98 15.76-5.98H475Zm-32.25 16.44a5.71 5.71 0 0 0-1.78 4.31c0 1.75.6 3.17 1.81 4.34a6.49 6.49 0 0 0 4.63 1.74h11.23V16.86h-11.23a6.33 6.33 0 0 0-4.66 1.7Z"/></svg>