<svg width="360" height="1520" viewBox="0 0 360 1520" fill="none" xmlns="http://www.w3.org/2000/svg">
<g clip-path="url(#clip0_16379_323859)">
<path d="M277.846 57.5667L283.999 55.9178C286.67 65.8389 293.166 74.2962 302.062 79.4356C310.958 84.575 321.53 85.9772 331.458 83.3347C341.387 80.6662 349.851 74.1678 354.994 65.2657C360.136 56.3636 361.537 45.785 358.889 35.8511L365.043 34.2022C368.12 45.7678 366.486 58.0816 360.5 68.4448C354.514 78.808 344.663 86.3753 333.107 89.4882C321.547 92.5583 309.241 90.9229 298.884 84.9401C288.527 78.9573 280.962 69.1146 277.846 57.5667V57.5667Z" fill="#FF0A47"/>
<path d="M272.379 37.1656C271.752 34.8261 271.592 32.3861 271.908 29.9849C272.224 27.5837 273.01 25.2682 274.221 23.1707C275.432 21.0732 277.045 19.2348 278.966 17.7604C280.887 16.286 283.081 15.2045 285.42 14.5777C287.759 13.9508 290.199 13.7909 292.601 14.1071C295.002 14.4232 297.317 15.2092 299.415 16.4202C301.512 17.6311 303.351 19.2434 304.825 21.1649C306.3 23.0863 307.381 25.2794 308.008 27.6188L301.773 29.2895C301.365 27.7689 300.662 26.3434 299.704 25.0944C298.746 23.8455 297.551 22.7975 296.187 22.0104C294.824 21.2232 293.319 20.7123 291.758 20.5068C290.197 20.3014 288.611 20.4053 287.091 20.8128C285.57 21.2202 284.145 21.9232 282.896 22.8815C281.647 23.8399 280.599 25.0349 279.812 26.3982C279.024 27.7616 278.513 29.2666 278.308 30.8275C278.103 32.3883 278.206 33.9743 278.614 35.4949L272.379 37.1656Z" fill="#FF0A47"/>
<path d="M387.347 23.7913C397.353 61.1339 375.192 99.5175 337.849 109.523C300.507 119.529 262.123 97.3686 252.117 60.0259C242.111 22.6833 264.272 -15.7003 301.615 -25.7062C338.957 -35.7121 377.341 -13.5514 387.347 23.7913ZM257.13 58.6828C266.394 93.2569 301.932 113.775 336.506 104.511C371.08 95.2465 391.598 59.7086 382.334 25.1345C373.07 -9.43966 337.532 -29.9575 302.958 -20.6934C268.384 -11.4293 247.866 24.1086 257.13 58.6828Z" fill="#FF0A47"/>
<path d="M323.947 23.3481C323.32 21.0086 323.16 18.5686 323.477 16.1674C323.793 13.7662 324.579 11.4507 325.79 9.35322C327.001 7.25574 328.613 5.41732 330.534 3.94293C332.456 2.46853 334.649 1.38704 336.988 0.760188C339.328 0.13334 341.768 -0.0265849 344.169 0.289545C346.57 0.605676 348.886 1.39167 350.983 2.60265C353.081 3.81363 354.919 5.42588 356.393 7.34735C357.868 9.26882 358.949 11.4619 359.576 13.8013L353.341 15.472C352.934 13.9514 352.231 12.5259 351.272 11.2769C350.314 10.028 349.119 8.98 347.756 8.19286C346.392 7.40573 344.887 6.89483 343.326 6.68934C341.766 6.48386 340.18 6.58781 338.659 6.99526C337.138 7.40271 335.713 8.10569 334.464 9.06404C333.215 10.0224 332.167 11.2174 331.38 12.5807C330.593 13.9441 330.082 15.4491 329.876 17.0099C329.671 18.5708 329.775 20.1567 330.182 21.6774L323.947 23.3481Z" fill="#FF0A47"/>
<path d="M347.002 1031L346.992 1031C346.992 1030.86 346.994 1030.72 346.997 1030.58C346.889 1025.96 345.005 1021.55 341.728 1018.28C338.359 1014.91 333.793 1013.01 329.029 1013C333.794 1012.99 338.361 1011.1 341.73 1007.73C345.006 1004.45 346.889 1000.04 346.997 995.423C346.994 995.282 346.992 995.141 346.992 995H347.002C347.002 995.141 347.001 995.282 346.997 995.423C347.107 1000.04 348.991 1004.45 352.268 1007.73C355.638 1011.1 360.206 1012.99 364.971 1013C360.207 1013.01 355.64 1014.91 352.27 1018.28C348.992 1021.55 347.107 1025.96 346.997 1030.58C347.001 1030.72 347.002 1030.86 347.002 1031Z" fill="#FF0A47"/>
<path d="M0.00331879 -15.5244C-3.06776 -15.5247 -6.06995 -14.6144 -8.62361 -12.9085C-11.1773 -11.2027 -13.1677 -8.77798 -14.3432 -5.94101C-15.5186 -3.10404 -15.8263 0.0177345 -15.2274 3.02958C-14.6284 6.04142 -13.1498 8.80802 -10.9783 10.9795C-8.80682 13.151 -6.04012 14.6299 -3.02808 15.2291C-0.0160351 15.8283 3.10607 15.5209 5.94341 14.3459C8.78074 13.1708 11.2059 11.1808 12.9121 8.62753C14.6184 6.07426 15.5291 3.07239 15.5291 0.00157928C15.5261 -4.11498 13.8895 -8.06211 10.9785 -10.9731C8.06758 -13.8841 4.12024 -15.521 0.00331879 -15.5244ZM0.00331879 20C-3.95278 20.0003 -7.82012 18.8276 -11.1096 16.6301C-14.3991 14.4326 -16.9631 11.309 -18.4771 7.65441C-19.9912 3.99983 -20.3875 -0.0216484 -19.6157 -3.90141C-18.844 -7.78118 -16.939 -11.345 -14.1416 -14.1421C-11.3442 -16.9393 -7.78012 -18.8441 -3.90002 -19.6158C-0.0199146 -20.3874 4.00191 -19.9912 7.65681 -18.4773C11.3117 -16.9633 14.4356 -14.3996 16.6333 -11.1104C18.831 -7.82118 20.0038 -3.95418 20.0035 0.00157928C19.9976 5.30368 17.8885 10.3869 14.1391 14.1361C10.3896 17.8853 5.30588 19.9941 0.00331879 20Z" fill="#FF0A47"/>
<path d="M0.0038662 -4.6071C-0.907812 -4.60742 -1.7991 -4.33739 -2.55729 -3.83116C-3.31547 -3.32493 -3.9065 -2.60523 -4.2556 -1.76311C-4.6047 -0.920992 -4.69618 0.00572395 -4.51851 0.899847C-4.34085 1.79397 -3.90201 2.61534 -3.25747 3.26005C-2.61292 3.90476 -1.79163 4.34384 -0.89749 4.5218C-0.0033493 4.69975 0.923466 4.60858 1.76578 4.25979C2.60809 3.91101 3.32805 3.32031 3.83458 2.56236C4.34112 1.80441 4.61149 0.913267 4.61149 0.00166512C4.60981 -1.21987 4.12389 -2.39091 3.26021 -3.25482C2.39652 -4.11872 1.22551 -4.60501 0.0038662 -4.6071ZM0.0038662 9.0845C-1.79277 9.08482 -3.54915 8.5524 -5.04315 7.55456C-6.53715 6.55671 -7.70165 5.13826 -8.38941 3.47862C-9.07717 1.81898 -9.25728 -0.00730324 -8.90696 -1.7693C-8.55665 -3.53131 -7.69167 -5.14989 -6.42137 -6.4203C-5.15106 -7.69072 -3.53249 -8.55594 -1.7704 -8.90653C-0.00830269 -9.25712 1.81816 -9.07733 3.47807 -8.38992C5.13797 -7.7025 6.55675 -6.53834 7.55494 -5.04464C8.55313 -3.55094 9.08591 -1.79482 9.08591 0.00166512C9.08381 2.40966 8.12636 4.71849 6.42365 6.42135C4.72093 8.12421 2.41207 9.08198 0.0038662 9.0845Z" fill="#FF0A47"/>
</g>
</svg>
