<svg width="768" height="946" viewBox="0 0 768 946" fill="none" xmlns="http://www.w3.org/2000/svg">
<g clip-path="url(#clip0_16379_323808)">
<path d="M643.846 102.567L649.999 100.918C652.67 110.839 659.166 119.296 668.062 124.436C676.958 129.575 687.53 130.977 697.458 128.335C707.387 125.666 715.851 119.168 720.994 110.266C726.136 101.364 727.537 90.785 724.889 80.8511L731.043 79.2022C734.12 90.7678 732.486 103.082 726.5 113.445C720.514 123.808 710.663 131.375 699.107 134.488C687.547 137.558 675.241 135.923 664.884 129.94C654.527 123.957 646.962 114.115 643.846 102.567V102.567Z" fill="#FF0A47"/>
<path d="M638.379 82.1658C637.752 79.8264 637.592 77.3864 637.908 74.9851C638.224 72.5839 639.01 70.2684 640.221 68.171C641.432 66.0735 643.045 64.2351 644.966 62.7607C646.887 61.2863 649.081 60.2048 651.42 59.5779C653.759 58.9511 656.199 58.7912 658.601 59.1073C661.002 59.4234 663.317 60.2094 665.415 61.4204C667.512 62.6314 669.351 64.2436 670.825 66.1651C672.3 68.0866 673.381 70.2796 674.008 72.6191L667.773 74.2897C667.365 72.7691 666.662 71.3436 665.704 70.0947C664.746 68.8457 663.551 67.7977 662.187 67.0106C660.824 66.2235 659.319 65.7126 657.758 65.5071C656.197 65.3016 654.611 65.4056 653.091 65.813C651.57 66.2205 650.145 66.9234 648.896 67.8818C647.647 68.8401 646.599 70.0351 645.812 71.3985C645.024 72.7618 644.513 74.2669 644.308 75.8277C644.103 77.3885 644.206 78.9745 644.614 80.4951L638.379 82.1658Z" fill="#FF0A47"/>
<path d="M753.347 68.7913C763.353 106.134 741.192 144.517 703.849 154.523C666.507 164.529 628.123 142.369 618.117 105.026C608.111 67.6833 630.272 29.2997 667.615 19.2938C704.957 9.28787 743.341 31.4486 753.347 68.7913ZM623.13 103.683C632.394 138.257 667.932 158.775 702.506 149.511C737.08 140.246 757.598 104.709 748.334 70.1345C739.07 35.5603 703.532 15.0425 668.958 24.3066C634.384 33.5707 613.866 69.1086 623.13 103.683Z" fill="#FF0A47"/>
<path d="M689.947 68.3479C689.32 66.0085 689.16 63.5685 689.477 61.1673C689.793 58.766 690.579 56.4506 691.79 54.3531C693.001 52.2556 694.613 50.4172 696.534 48.9428C698.456 47.4684 700.649 46.3869 702.988 45.7601C705.328 45.1332 707.768 44.9733 710.169 45.2894C712.57 45.6056 714.886 46.3915 716.983 47.6025C719.081 48.8135 720.919 50.4258 722.393 52.3472C723.868 54.2687 724.949 56.4618 725.576 58.8012L719.341 60.4719C718.934 58.9512 718.231 57.5258 717.272 56.2768C716.314 55.0278 715.119 53.9799 713.756 53.1927C712.392 52.4056 710.887 51.8947 709.326 51.6892C707.766 51.4837 706.18 51.5877 704.659 51.9951C703.138 52.4026 701.713 53.1056 700.464 54.0639C699.215 55.0223 698.167 56.2173 697.38 57.5806C696.593 58.944 696.082 60.449 695.876 62.0098C695.671 63.5706 695.775 65.1566 696.182 66.6773L689.947 68.3479Z" fill="#FF0A47"/>
<path d="M450.003 -14.5244C446.932 -14.5247 443.93 -13.6144 441.376 -11.9085C438.823 -10.2027 436.832 -7.77798 435.657 -4.94101C434.481 -2.10404 434.174 1.01773 434.773 4.02958C435.372 7.04142 436.85 9.80802 439.022 11.9795C441.193 14.151 443.96 15.6299 446.972 16.2291C449.984 16.8283 453.106 16.5209 455.943 15.3459C458.781 14.1708 461.206 12.1808 462.912 9.62753C464.618 7.07426 465.529 4.07239 465.529 1.00158C465.526 -3.11498 463.889 -7.06211 460.979 -9.97311C458.068 -12.8841 454.12 -14.521 450.003 -14.5244ZM450.003 21C446.047 21.0003 442.18 19.8276 438.89 17.6301C435.601 15.4326 433.037 12.309 431.523 8.65441C430.009 4.99983 429.613 0.978352 430.384 -2.90141C431.156 -6.78118 433.061 -10.345 435.858 -13.1421C438.656 -15.9393 442.22 -17.8441 446.1 -18.6158C449.98 -19.3874 454.002 -18.9912 457.657 -17.4773C461.312 -15.9633 464.436 -13.3996 466.633 -10.1104C468.831 -6.82118 470.004 -2.95418 470.003 1.00158C469.998 6.30368 467.889 11.3869 464.139 15.1361C460.39 18.8853 455.306 20.9941 450.003 21Z" fill="#FF0A47"/>
<path d="M450.004 -3.6071C449.092 -3.60742 448.201 -3.33739 447.443 -2.83116C446.685 -2.32493 446.094 -1.60523 445.744 -0.763113C445.395 0.0790081 445.304 1.00572 445.481 1.89985C445.659 2.79397 446.098 3.61534 446.743 4.26005C447.387 4.90476 448.208 5.34384 449.103 5.5218C449.997 5.69975 450.923 5.60858 451.766 5.25979C452.608 4.91101 453.328 4.32031 453.835 3.56236C454.341 2.80441 454.611 1.91327 454.611 1.00167C454.61 -0.219873 454.124 -1.39091 453.26 -2.25482C452.397 -3.11872 451.226 -3.60501 450.004 -3.6071ZM450.004 10.0845C448.207 10.0848 446.451 9.5524 444.957 8.55456C443.463 7.55671 442.298 6.13826 441.611 4.47862C440.923 2.81898 440.743 0.992697 441.093 -0.769304C441.443 -2.53131 442.308 -4.14989 443.579 -5.4203C444.849 -6.69072 446.468 -7.55594 448.23 -7.90653C449.992 -8.25712 451.818 -8.07733 453.478 -7.38992C455.138 -6.7025 456.557 -5.53834 457.555 -4.04464C458.553 -2.55094 459.086 -0.794817 459.086 1.00167C459.084 3.40966 458.126 5.71849 456.424 7.42135C454.721 9.12421 452.412 10.082 450.004 10.0845Z" fill="#FF0A47"/>
<path d="M688.002 448L687.992 448C687.992 447.86 687.994 447.721 687.997 447.582C687.889 442.961 686.005 438.552 682.728 435.275C679.359 431.907 674.793 430.012 670.029 430.003C674.794 429.993 679.361 428.097 682.73 424.728C686.006 421.452 687.889 417.044 687.997 412.423C687.994 412.282 687.992 412.141 687.992 412H688.002C688.002 412.141 688.001 412.282 687.997 412.423C688.107 417.044 689.991 421.452 693.268 424.728C696.638 428.097 701.206 429.993 705.971 430.003C701.207 430.012 696.64 431.907 693.27 435.275C689.992 438.551 688.107 442.96 687.997 447.582C688.001 447.721 688.002 447.86 688.002 448Z" fill="#FF0A47"/>
</g>
</svg>
