<svg width="1440" height="720" viewBox="0 0 1440 720" fill="none" xmlns="http://www.w3.org/2000/svg">
<g clip-path="url(#clip0_16357_323409)">
<path d="M1118.22 134.748L1132.29 130.979C1138.39 153.656 1153.24 172.987 1173.57 184.734C1193.91 196.481 1218.07 199.686 1240.76 193.647C1263.46 187.547 1282.8 172.694 1294.56 152.346C1306.31 131.998 1309.52 107.818 1303.46 85.1124L1317.53 81.3436C1324.56 107.779 1320.83 135.925 1307.14 159.612C1293.46 183.3 1270.95 200.596 1244.53 207.712C1218.11 214.729 1189.98 210.991 1166.31 197.316C1142.63 183.641 1125.34 161.143 1118.22 134.748V134.748Z" fill="#FF0A47"/>
<path d="M1105.73 88.1192C1104.29 82.7719 1103.93 77.1948 1104.65 71.7063C1105.37 66.2177 1107.17 60.9253 1109.94 56.131C1112.7 51.3368 1116.39 47.1347 1120.78 43.7646C1125.17 40.3946 1130.19 37.9226 1135.53 36.4898C1140.88 35.057 1146.46 34.6915 1151.95 35.4141C1157.43 36.1366 1162.73 37.9332 1167.52 40.7011C1172.32 43.4691 1176.52 47.1542 1179.89 51.5462C1183.26 55.9381 1185.73 60.9508 1187.16 66.2981L1172.91 70.1168C1171.98 66.6411 1170.37 63.3828 1168.18 60.528C1165.99 57.6733 1163.26 55.2779 1160.14 53.4788C1157.03 51.6796 1153.59 50.5118 1150.02 50.0422C1146.45 49.5725 1142.83 49.8101 1139.35 50.7414C1135.88 51.6727 1132.62 53.2795 1129.76 55.47C1126.91 57.6606 1124.51 60.3919 1122.71 63.5082C1120.91 66.6244 1119.75 70.0646 1119.28 73.6321C1118.81 77.1997 1119.05 80.8248 1119.98 84.3005L1105.73 88.1192Z" fill="#FF0A47"/>
<path d="M1368.51 57.5483C1391.38 142.903 1340.72 230.637 1255.37 253.507C1170.02 276.378 1082.28 225.725 1059.41 140.37C1036.54 55.0158 1087.19 -32.7181 1172.55 -55.5888C1257.9 -78.4595 1345.64 -27.8063 1368.51 57.5483ZM1070.87 137.3C1092.04 216.327 1173.27 263.225 1252.3 242.05C1331.33 220.874 1378.22 139.645 1357.05 60.6184C1335.87 -18.4081 1254.64 -65.306 1175.62 -44.1309C1096.59 -22.9558 1049.69 58.2737 1070.87 137.3Z" fill="#FF0A47"/>
<path d="M1223.59 56.5352C1222.16 51.188 1221.8 45.6108 1222.52 40.1223C1223.24 34.6337 1225.04 29.3413 1227.81 24.547C1230.57 19.7528 1234.26 15.5507 1238.65 12.1807C1243.04 8.81061 1248.06 6.33862 1253.4 4.90582C1258.75 3.47303 1264.33 3.10749 1269.82 3.83007C1275.3 4.55265 1280.6 6.34921 1285.39 9.11716C1290.18 11.8851 1294.39 15.5703 1297.76 19.9622C1301.13 24.3541 1303.6 29.3668 1305.03 34.7141L1290.78 38.5328C1289.85 35.0571 1288.24 31.7988 1286.05 28.9441C1283.86 26.0893 1281.13 23.694 1278.01 21.8948C1274.9 20.0956 1271.46 18.9279 1267.89 18.4582C1264.32 17.9885 1260.7 18.2261 1257.22 19.1574C1253.75 20.0887 1250.49 21.6955 1247.63 23.8861C1244.78 26.0766 1242.38 28.808 1240.58 31.9242C1238.78 35.0405 1237.62 38.4806 1237.15 42.0481C1236.68 45.6157 1236.91 49.2408 1237.85 52.7165L1223.59 56.5352Z" fill="#FF0A47"/>
<path d="M678.002 60L677.992 60C677.993 59.8605 677.994 59.721 677.998 59.5819C677.889 54.9606 676.005 50.5515 672.728 47.2753C669.359 43.9073 664.793 42.0116 660.029 42.0025C664.794 41.9935 669.361 40.097 672.73 36.7279C676.006 33.4519 677.889 29.0437 677.998 24.4234C677.994 24.2825 677.992 24.1413 677.992 24H678.002C678.002 24.1413 678.001 24.2825 677.998 24.4234C678.107 29.0442 679.991 33.4523 683.268 36.7282C686.638 40.0972 691.206 41.9935 695.971 42.0025C691.207 42.0116 686.64 43.9072 683.27 47.275C679.992 50.5511 678.107 54.9601 677.998 59.5819C678.001 59.721 678.002 59.8604 678.002 60Z" fill="#FF0A47"/>
<path d="M7.00371 -29.4822C-0.212692 -29.483 -7.26723 -27.3438 -13.2678 -23.3351C-19.2684 -19.3264 -23.9455 -13.6282 -26.7076 -6.96137C-29.4697 -0.294495 -30.1927 7.04168 -28.7853 14.1195C-27.3779 21.1973 -23.9033 27.6988 -18.8008 32.8019C-13.6983 37.9049 -7.19714 41.3802 -0.119453 42.7884C6.95824 44.1965 14.2945 43.4742 20.9617 40.7128C27.6289 37.9513 33.3275 33.2749 37.3368 27.2747C41.3461 21.2745 43.486 14.2201 43.486 7.00371C43.4791 -2.67021 39.6334 -11.946 32.7932 -18.7868C25.9531 -25.6277 16.6776 -29.4743 7.00371 -29.4822ZM7.00371 54C-2.29232 54.0007 -11.3798 51.2448 -19.1094 46.0807C-26.8391 40.9165 -32.8638 33.5761 -36.4216 24.9879C-39.9794 16.3996 -40.9105 6.94912 -39.0971 -2.16833C-37.2837 -11.2858 -32.8073 -19.6607 -26.234 -26.234C-19.6607 -32.8073 -11.2858 -37.2837 -2.16833 -39.0971C6.94912 -40.9105 16.3996 -39.9794 24.9879 -36.4216C33.5761 -32.8638 40.9165 -26.8391 46.0807 -19.1094C51.2448 -11.3798 54.0007 -2.29232 54 7.00371C53.9862 19.4637 49.0303 31.4093 40.2198 40.2198C31.4093 49.0303 19.4637 53.9862 7.00371 54Z" fill="#FF0A47"/>
<path d="M7.00261 -3.82774C4.86035 -3.82848 2.76601 -3.19391 0.984425 -2.00427C-0.79716 -0.814625 -2.18594 0.876654 -3.00626 2.85563C-3.82658 4.83462 -4.04154 7.0124 -3.62406 9.11359C-3.20658 11.2148 -2.17541 13.145 -0.660859 14.6601C0.853688 16.1751 2.78356 17.207 4.88461 17.6252C6.98565 18.0434 9.16348 17.8291 11.1427 17.0095C13.122 16.1898 14.8138 14.8017 16.004 13.0205C17.1943 11.2393 17.8296 9.14513 17.8296 7.00286C17.8256 4.13225 16.6838 1.38031 14.6543 -0.649872C12.6249 -2.68006 9.87322 -3.82281 7.00261 -3.82774ZM7.00261 28.3475C2.78088 28.3483 -1.34624 27.0971 -4.85684 24.7522C-8.36744 22.4072 -11.1038 19.0739 -12.7199 15.1737C-14.336 11.2735 -14.7592 6.98178 -13.936 2.84108C-13.1128 -1.29962 -11.0803 -5.10328 -8.09538 -8.08876C-5.11043 -11.0742 -1.3071 -13.1075 2.83346 -13.9314C6.97402 -14.7553 11.2658 -14.3328 15.1663 -12.7174C19.0667 -11.1019 22.4005 -8.36614 24.7461 -4.85595C27.0916 -1.34576 28.3435 2.78113 28.3435 7.00286C28.3386 12.6617 26.0888 18.0874 22.0878 22.0891C18.0868 26.0908 12.6614 28.3416 7.00261 28.3475Z" fill="#FF0A47"/>
<path d="M853.015 510L848 505.871L842.967 510L837.952 505.871L833.837 509.237L832 506.931L837.952 502.021L842.967 506.169L848 502.021L853.015 506.169L858.048 502.021L864 506.931L862.145 509.237L858.048 505.871L853.015 510Z" fill="#FF0A47"/>
<path d="M853.015 502.988L848 498.841L842.967 502.988L837.952 498.841L833.837 502.225L832 499.902L837.952 495.01L842.967 499.139L848 495.01L853.015 499.139L858.048 495.01L864 499.902L862.145 502.225L858.048 498.841L853.015 502.988Z" fill="#FF0A47"/>
<path d="M853.015 495.959L848 491.831L842.967 495.959L837.952 491.831L833.837 495.197L832 492.891L837.952 488L842.967 492.129L848 488L853.015 492.129L858.048 488L864 492.891L862.145 495.197L858.048 491.831L853.015 495.959Z" fill="#FF0A47"/>
</g>
</svg>
