<svg xmlns="http://www.w3.org/2000/svg" width="200" height="149" fill="none"><path fill="#D3D8E3" fill-rule="evenodd" d="M130.605 2.95c.522-1.055 1.737-1.44 2.709-.918l5.024 2.692c.991.531 1.409 1.828.881 2.9l-.001.002c-.522 1.056-1.738 1.44-2.71.92l-5.024-2.693c-.992-.532-1.41-1.83-.879-2.902Zm9.591 6.096c-1.061 1.3-2.896 1.739-4.444.91l-5.023-2.693c-1.783-.955-2.456-3.205-1.559-5.021.906-1.833 3.098-2.586 4.9-1.62l5.024 2.692c1.553.832 2.264 2.648 1.827 4.303l41.98 23.845c2.751 1.562 4.446 4.536 4.446 7.751v4.521h12.792c5.59 0 9.763 5.145 8.611 10.615l-12.239 58.089a.803.803 0 0 1-.392.533l-18.161 10.16a8.802 8.802 0 0 1-4.296 1.12h-2.839l1.756 24.692a.798.798 0 0 1-.798.857H46.425a.798.798 0 0 1-.798-.856l1.74-24.693h-2.865a8.805 8.805 0 0 1-4.073-.999l-19.668-10.27a.798.798 0 0 1-.417-.568L9.898 54.086c-.966-5.395 3.181-10.352 8.662-10.352h17.516v-4.52c0-3.216 1.696-6.19 4.447-7.752l41.98-23.845c-.438-1.655.273-3.47 1.827-4.303L89.353.622c1.803-.966 3.994-.213 4.9 1.62.898 1.816.224 4.066-1.558 5.021L87.67 9.955c-1.548.83-3.382.392-4.444-.91L41.314 32.854c-2.236 1.27-3.637 3.703-3.637 6.36v4.521h148.071v-4.52c0-2.658-1.401-5.091-3.636-6.361L140.196 9.046ZM84.205 7.624c-.529-1.072-.11-2.369.88-2.9l5.024-2.692c.973-.521 2.188-.137 2.71.919.53 1.073.112 2.37-.88 2.902l-5.024 2.692c-.972.521-2.187.138-2.709-.918l-.001-.003ZM47.476 122.651l.63-9.578H24.393l16.777 8.76a7.202 7.202 0 0 0 3.333.818h2.974Zm-25.675-11.178h173.278l12.105-57.454c.943-4.476-2.471-8.685-7.045-8.685H18.56c-4.484 0-7.878 4.055-7.087 8.47L21.8 111.473Zm170.859 1.6-15.483 8.661a7.198 7.198 0 0 1-3.515.917h-2.942l-.548-9.578h22.488Zm-24.09 0 .596 10.435 1.756 24.692H47.283l1.74-24.697.687-10.43h118.86Zm-52.088-50.07a7.2 7.2 0 0 1 7.2 7.2v15.653a7.2 7.2 0 0 1-7.2 7.2h-14.678a7.2 7.2 0 0 1-7.2-7.2V70.204a7.2 7.2 0 0 1 7.2-7.2h14.678Zm8.8 7.2a8.8 8.8 0 0 0-8.8-8.8h-14.678a8.8 8.8 0 0 0-8.8 8.8v15.654a8.8 8.8 0 0 0 8.8 8.8h14.678a8.8 8.8 0 0 0 8.8-8.8V70.203Zm-11.981-2.805a.799.799 0 0 0-.857.127l-11.281 9.894a.798.798 0 0 0 0 1.203l11.281 9.894a.799.799 0 0 0 1.327-.602V81.38a.798.798 0 0 0-.283-.61l-3.232-2.74 3.224-2.66a.801.801 0 0 0 .291-.616v-6.627a.8.8 0 0 0-.47-.728Zm-1.13 2.494v4.483l-3.672 3.028a.801.801 0 0 0-.008 1.228l3.68 3.119v4.399l-9.268-8.129 9.268-8.128Z" clip-rule="evenodd"/></svg>