<svg xmlns="http://www.w3.org/2000/svg" width="200" height="148" fill="none"><g clip-path="url(#a)"><path fill="#D3D8E3" fill-rule="evenodd" d="M122.92 37.002c0-6.864-4.319-12.802-10.051-12.802H18.503c-5.732 0-10.051 5.938-10.051 12.802v54.495l-10.079 13.075H101.08v30.844c0 6.694 4.53 12.384 10.416 12.384h114.208l-10.52-12.673V79.812c0-6.693-4.53-12.384-10.415-12.384H122.92V37.003Zm-1.6 30.426h-9.824c-5.886 0-10.416 5.69-10.416 12.384v23.16H1.627l8.425-10.93v-55.04c0-6.393 3.965-11.202 8.451-11.202h94.366c4.486 0 8.451 4.81 8.451 11.202v30.426Zm-16.6-12.304c0-2.997-2.547-5.319-5.587-5.319H32.476c-1.492 0-2.887.484-3.92 1.412-1.042.936-1.667 2.285-1.667 3.907 0 3.298 2.553 5.441 5.587 5.441h66.657c3.068 0 5.587-2.472 5.587-5.441Zm-5.587-3.719c2.248 0 3.987 1.694 3.987 3.718 0 2.052-1.767 3.842-3.987 3.842H32.476c-2.254 0-3.987-1.527-3.987-3.842 0-1.185.446-2.095 1.137-2.716.7-.63 1.698-1.002 2.85-1.002h66.657ZM204.77 69.028c4.735 0 8.815 4.682 8.815 10.784v55.893l8.712 10.495h-110.8c-4.736 0-8.816-4.682-8.816-10.784V79.812c0-6.102 4.08-10.784 8.816-10.784h93.273ZM92.425 72.747c0-2.997-2.547-5.319-5.587-5.319H32.476c-1.492 0-2.887.484-3.92 1.412-1.042.936-1.667 2.286-1.667 3.907 0 3.298 2.553 5.441 5.587 5.441h54.362c3.068 0 5.587-2.472 5.587-5.441Zm-5.587-3.719c2.248 0 3.987 1.695 3.987 3.719 0 2.05-1.768 3.841-3.987 3.841H32.476c-2.254 0-3.987-1.527-3.987-3.841 0-1.186.446-2.096 1.137-2.717.7-.63 1.698-1.002 2.85-1.002h54.362Zm110.693 21.1c0-2.997-2.547-5.319-5.587-5.319h-66.657c-1.492 0-2.887.484-3.92 1.412-1.041.937-1.667 2.286-1.667 3.907 0 3.299 2.553 5.442 5.587 5.442h66.657c3.069 0 5.587-2.473 5.587-5.442Zm-5.587-3.719c2.248 0 3.987 1.695 3.987 3.719 0 2.051-1.767 3.841-3.987 3.841h-66.657c-2.254 0-3.987-1.526-3.987-3.841 0-1.186.446-2.096 1.137-2.717.7-.63 1.698-1.002 2.85-1.002h66.657Zm5.587 21.11c0-2.997-2.547-5.319-5.587-5.319h-66.657c-1.492 0-2.887.484-3.92 1.412-1.041.936-1.667 2.285-1.667 3.907 0 3.298 2.553 5.441 5.587 5.441h66.657c3.069 0 5.587-2.472 5.587-5.441Zm-5.587-3.719c2.248 0 3.987 1.695 3.987 3.719 0 2.051-1.767 3.841-3.987 3.841h-66.657c-2.254 0-3.987-1.527-3.987-3.841 0-1.186.446-2.096 1.137-2.717.7-.63 1.698-1.002 2.85-1.002h66.657Zm-6.708 20.342c0-2.997-2.547-5.319-5.587-5.319h-54.362c-1.492 0-2.887.484-3.92 1.412-1.041.937-1.667 2.286-1.667 3.907 0 3.298 2.553 5.441 5.587 5.441h54.362c3.068 0 5.587-2.472 5.587-5.441Zm-5.587-3.719c2.248 0 3.987 1.695 3.987 3.719 0 2.051-1.768 3.841-3.987 3.841h-54.362c-2.254 0-3.987-1.527-3.987-3.841 0-1.186.446-2.096 1.137-2.717.7-.63 1.698-1.002 2.85-1.002h54.362Z" clip-rule="evenodd"/></g><defs><clipPath id="a"><path fill="#fff" d="M0 0h200v148H0z"/></clipPath></defs></svg>