<svg xmlns="http://www.w3.org/2000/svg" width="200" height="148" fill="none"><g clip-path="url(#a)"><path fill="#D3D8E3" fill-rule="evenodd" d="M33.2 34.072c0-6.398 5.531-11.393 11.896-10.744l89.217 9.104a10.8 10.8 0 0 1 9.704 10.744v27.212l64.144-4.997c6.276-.488 11.639 4.473 11.639 10.768v110.376l-76.595-2.253H33.2V34.072Zm1.6 28.433v7.948h80.361a3.974 3.974 0 1 0 0-7.948H34.8Zm0 9.548h80.361a5.574 5.574 0 1 0 0-11.148H34.8V34.072c0-5.45 4.712-9.705 10.134-9.152l89.217 9.104a9.2 9.2 0 0 1 8.266 9.152v139.506H34.8v-52.834h80.361a5.574 5.574 0 1 0 0-11.148H34.8v-7.4h80.361a5.574 5.574 0 1 0 0-11.148H34.8v-8.32h80.361a5.575 5.575 0 1 0 0-11.148H34.8v-8.63Zm0 18.18h80.361a3.974 3.974 0 0 0 0-7.949H34.8v7.949Zm0 11.519v7.948h80.361a3.974 3.974 0 1 0 0-7.948H34.8Zm0 18.548v7.948h80.361a3.974 3.974 0 1 0 0-7.948H34.8Zm109.217 62.405 74.183 2.182v-55.039h-46.361a5.574 5.574 0 1 1 0-11.148H218.2v-7.4h-46.426a5.575 5.575 0 0 1 0-11.148H218.2V76.159c0-5.363-4.568-9.589-9.915-9.172l-64.268 5.006v110.712Zm74.118-80.953h-46.361a3.974 3.974 0 1 0 0 7.948h46.361v-7.948Zm.065 18.548h-46.361a3.975 3.975 0 1 0 0 7.948H218.2V120.3Z" clip-rule="evenodd"/></g><defs><clipPath id="a"><path fill="#fff" d="M0 0h200v148H0z"/></clipPath></defs></svg>