<svg xmlns="http://www.w3.org/2000/svg" fill="none" viewBox="0 0 160 160"><path fill="#fff" d="M105.85 73.23a11.9 11.9 0 0 0 8.76-3.56 11.9 11.9 0 0 0 3.56-8.75 11.9 11.9 0 0 0-3.56-8.76 11.84 11.84 0 0 0-8.7-3.56c-3.44 0-6.34 1.2-8.7 3.59a11.9 11.9 0 0 0-3.56 8.7c0 3.41 1.18 6.32 3.56 8.73 2.37 2.4 5.25 3.61 8.64 3.61Zm-51.76 0c3.43 0 6.34-1.2 8.7-3.58a11.9 11.9 0 0 0 3.56-8.7c0-3.42-1.19-6.33-3.56-8.74a11.69 11.69 0 0 0-8.64-3.6 11.9 11.9 0 0 0-8.76 3.55 11.9 11.9 0 0 0-3.56 8.76 11.9 11.9 0 0 0 3.56 8.75 11.84 11.84 0 0 0 8.7 3.56ZM80 121.98c8.94 0 17-2.57 24.16-7.72a42.06 42.06 0 0 0 15.3-20.29H40.54a42.06 42.06 0 0 0 15.3 20.29A40.41 40.41 0 0 0 80 121.98ZM80 160a77.91 77.91 0 0 1-31.17-6.28 80.73 80.73 0 0 1-25.42-17.13 80.71 80.71 0 0 1-17.13-25.43A77.98 77.98 0 0 1 0 80c0-11.06 2.1-21.44 6.28-31.16A80.75 80.75 0 0 1 23.41 23.4 80.72 80.72 0 0 1 48.84 6.28 77.97 77.97 0 0 1 80 0c11.06 0 21.44 2.1 31.16 6.28a80.74 80.74 0 0 1 25.42 17.13 80.7 80.7 0 0 1 17.13 25.43A77.98 77.98 0 0 1 160 80c0 11.06-2.1 21.44-6.28 31.16a80.72 80.72 0 0 1-17.13 25.42 80.7 80.7 0 0 1-25.43 17.13A77.98 77.98 0 0 1 80 160Z"/><path fill="#ED1B24" d="M105.85 73.23a11.9 11.9 0 0 0 8.76-3.56 11.9 11.9 0 0 0 3.56-8.75 11.9 11.9 0 0 0-3.56-8.76 11.84 11.84 0 0 0-8.7-3.56c-3.44 0-6.34 1.2-8.7 3.59a11.9 11.9 0 0 0-3.56 8.7c0 3.41 1.18 6.32 3.56 8.73 2.37 2.4 5.25 3.61 8.64 3.61Zm-51.76 0c3.43 0 6.34-1.2 8.7-3.58a11.9 11.9 0 0 0 3.56-8.7c0-3.42-1.19-6.33-3.56-8.74a11.69 11.69 0 0 0-8.64-3.6 11.9 11.9 0 0 0-8.76 3.55 11.9 11.9 0 0 0-3.56 8.76 11.9 11.9 0 0 0 3.56 8.75 11.84 11.84 0 0 0 8.7 3.56ZM80 121.98c8.94 0 17-2.57 24.16-7.72a42.06 42.06 0 0 0 15.3-20.29H40.54a42.06 42.06 0 0 0 15.3 20.29A40.41 40.41 0 0 0 80 121.98Z"/></svg>