<svg xmlns="http://www.w3.org/2000/svg" fill="none" viewBox="0 0 162 161"><path fill="#fff" fill-rule="evenodd" d="m92.45 27.01-9.4-5.69a3 3 0 0 0-3.1 0l-9.4 5.69a43 43 0 0 1-15.69 5.71L44.01 34.4a3 3 0 0 0-2.38 2l-3.54 10.4a43 43 0 0 1-8.35 14.46l-7.23 8.26a3 3 0 0 0-.54 3.06l3.97 10.24a43 43 0 0 1 2.9 16.44l-.23 10.98a3 3 0 0 0 1.55 2.7l9.62 5.29a43 43 0 0 1 12.8 10.73l6.88 8.56a3 3 0 0 0 2.92 1.06l10.77-2.13a43 43 0 0 1 16.7 0l10.77 2.13a3 3 0 0 0 2.92-1.06l6.88-8.56a43 43 0 0 1 12.8-10.73l9.62-5.3a3 3 0 0 0 1.55-2.69l-.23-10.98c-.11-5.61.87-11.2 2.9-16.44l3.97-10.24a3 3 0 0 0-.54-3.06l-7.23-8.26a43.01 43.01 0 0 1-8.35-14.46l-3.54-10.4a3 3 0 0 0-2.38-2l-10.85-1.68a43 43 0 0 1-15.7-5.71Zm.96-22.8a23 23 0 0 0-23.82 0l-9.4 5.7a23 23 0 0 1-8.39 3.05l-10.85 1.68A23 23 0 0 0 22.7 29.95l-3.54 10.4a23 23 0 0 1-4.47 7.73l-7.23 8.27A23 23 0 0 0 3.32 79.8l3.97 10.24a23 23 0 0 1 1.55 8.8l-.23 10.98a23 23 0 0 0 11.91 20.63l9.63 5.3a22.99 22.99 0 0 1 6.84 5.73l6.88 8.56a23 23 0 0 0 22.4 8.15l10.76-2.13c2.95-.59 5.99-.59 8.94 0l10.77 2.13a23 23 0 0 0 22.39-8.15l6.88-8.56c1.88-2.34 4.2-4.29 6.84-5.74l9.63-5.29a23 23 0 0 0 11.9-20.63l-.22-10.98a23 23 0 0 1 1.55-8.8l3.97-10.24a23 23 0 0 0-4.14-23.46l-7.23-8.27a23.01 23.01 0 0 1-4.47-7.73l-3.53-10.4a23 23 0 0 0-18.26-15.31l-10.85-1.68a23 23 0 0 1-8.4-3.06l-9.39-5.69Z" clip-rule="evenodd"/><path fill="#fff" d="M82 121.8c8.8 0 16.9-2.37 24.3-7.1a40.72 40.72 0 0 0 16.1-19.3H41.6a42.08 42.08 0 0 0 16.2 19.3 43.72 43.72 0 0 0 24.2 7.1ZM47.4 73.4l9-9 9 9 7.2-7.2L56.4 50 40.2 66.2l7.2 7.2Zm51.4 0 9-9 9 9 7.2-7.2L107.8 50 91.6 66.2l7.2 7.2Z"/><path fill="#fff" fill-rule="evenodd" d="m92.45 27.01-9.4-5.69a3 3 0 0 0-3.1 0l-9.4 5.69a43 43 0 0 1-15.69 5.71L44.01 34.4a3 3 0 0 0-2.38 2l-3.54 10.4a43 43 0 0 1-8.35 14.46l-7.23 8.26a3 3 0 0 0-.54 3.06l3.97 10.24a43 43 0 0 1 2.9 16.44l-.23 10.98a3 3 0 0 0 1.55 2.7l9.62 5.29a43 43 0 0 1 12.8 10.73l6.88 8.56a3 3 0 0 0 2.92 1.06l10.77-2.13a43 43 0 0 1 16.7 0l10.77 2.13a3 3 0 0 0 2.92-1.06l6.88-8.56a43 43 0 0 1 12.8-10.73l9.62-5.3a3 3 0 0 0 1.55-2.69l-.23-10.98c-.11-5.61.87-11.2 2.9-16.44l3.97-10.24a3 3 0 0 0-.54-3.06l-7.23-8.26a43.01 43.01 0 0 1-8.35-14.46l-3.54-10.4a3 3 0 0 0-2.38-2l-10.85-1.68a43 43 0 0 1-15.7-5.71Zm13.85 87.69a44.2 44.2 0 0 1-24.3 7.1c-8.8 0-16.87-2.37-24.2-7.1a42.08 42.08 0 0 1-16.2-19.3h80.8a40.72 40.72 0 0 1-16.1 19.3ZM56.4 64.4l-9 9-7.2-7.2L56.4 50l16.2 16.2-7.2 7.2-9-9Zm51.4 0-9 9-7.2-7.2L107.8 50 124 66.2l-7.2 7.2-9-9Z" clip-rule="evenodd"/><path fill="#ED1B24" d="M81.8 121.8c8.8 0 16.9-2.37 24.3-7.1a40.72 40.72 0 0 0 16.1-19.3H41.4a42.08 42.08 0 0 0 16.2 19.3 43.72 43.72 0 0 0 24.2 7.1ZM47.2 73.4l9-9 9 9 7.2-7.2L56.2 50 40 66.2l7.2 7.2Zm51.4 0 9-9 9 9 7.2-7.2L107.6 50 91.4 66.2l7.2 7.2Z"/></svg>