<svg xmlns="http://www.w3.org/2000/svg" width="177" height="183" fill="none" viewBox="0 0 177 183"><g filter="url(#a)" opacity=".8"><path fill="#F5F5F6" d="M112.853 86.23c3.469 0 6.388-1.185 8.758-3.556 2.37-2.37 3.555-5.289 3.555-8.757s-1.185-6.388-3.555-8.758c-2.37-2.37-5.271-3.555-8.704-3.555-3.432 0-6.333 1.195-8.703 3.584-2.37 2.389-3.556 5.29-3.556 8.703 0 3.414 1.187 6.323 3.56 8.73 2.373 2.406 5.255 3.609 8.645 3.609Zm-51.76 0c3.432 0 6.333-1.195 8.703-3.584 2.37-2.39 3.555-5.29 3.555-8.704 0-3.413-1.186-6.323-3.56-8.729-2.372-2.406-5.254-3.609-8.644-3.609-3.469 0-6.388 1.185-8.758 3.555-2.37 2.37-3.555 5.29-3.555 8.758 0 3.468 1.185 6.387 3.555 8.757s5.271 3.556 8.703 3.556ZM87 134.983c8.939 0 16.992-2.575 24.161-7.725 7.169-5.149 12.271-11.911 15.308-20.286H47.531c3.037 8.375 8.14 15.137 15.308 20.286 7.169 5.15 15.222 7.725 24.161 7.725ZM86.991 173c-11.057 0-21.444-2.094-31.163-6.281-9.719-4.187-18.193-9.895-25.422-17.125-7.23-7.229-12.938-15.706-17.125-25.431C9.094 114.438 7 104.048 7 92.991c0-11.057 2.094-21.444 6.28-31.163 4.188-9.719 9.896-18.193 17.126-25.422 7.23-7.23 15.706-12.938 25.431-17.125C65.561 15.094 75.952 13 87.009 13c11.057 0 21.444 2.094 31.163 6.28 9.719 4.188 18.193 9.896 25.422 17.126 7.23 7.23 12.938 15.706 17.125 25.431C164.906 71.561 167 81.952 167 93.009c0 11.057-2.094 21.444-6.281 31.163-4.187 9.719-9.895 18.193-17.125 25.422-7.229 7.23-15.706 12.938-25.431 17.125-9.725 4.187-20.115 6.281-31.172 6.281ZM87 152.772c16.616 0 30.732-5.808 42.348-17.424S146.772 109.616 146.772 93s-5.808-30.732-17.424-42.348S103.616 33.228 87 33.228s-30.732 5.808-42.348 17.424S27.228 76.384 27.228 93s5.808 30.732 17.424 42.348S70.384 152.772 87 152.772Z"/></g><defs><filter id="a" width="185.38" height="185.38" x=".451" y=".31" color-interpolation-filters="sRGB" filterUnits="userSpaceOnUse"><feFlood flood-opacity="0" result="BackgroundImageFix"/><feColorMatrix in="SourceAlpha" result="hardAlpha" values="0 0 0 0 0 0 0 0 0 0 0 0 0 0 0 0 0 0 127 0"/><feOffset dx="6.141"/><feGaussianBlur stdDeviation="6.345"/><feComposite in2="hardAlpha" operator="out"/><feColorMatrix values="0 0 0 0 1 0 0 0 0 1 0 0 0 0 1 0 0 0 1 0"/><feBlend in2="BackgroundImageFix" result="effect1_dropShadow_7654_124138"/><feBlend in="SourceGraphic" in2="effect1_dropShadow_7654_124138" result="shape"/><feColorMatrix in="SourceAlpha" result="hardAlpha" values="0 0 0 0 0 0 0 0 0 0 0 0 0 0 0 0 0 0 127 0"/><feOffset dx="3.685"/><feGaussianBlur stdDeviation="2.36"/><feComposite in2="hardAlpha" k2="-1" k3="1" operator="arithmetic"/><feColorMatrix values="0 0 0 0 0 0 0 0 0 0 0 0 0 0 0 0 0 0 0.15 0"/><feBlend in2="shape" result="effect2_innerShadow_7654_124138"/></filter></defs></svg>