<svg xmlns="http://www.w3.org/2000/svg" fill="none" viewBox="0 0 160 160"><g filter="url(#a)" opacity=".8"><path fill="#ED131C" d="M104.08 73.7c3.23 0 5.95-1.11 8.16-3.32 2.2-2.2 3.3-4.92 3.3-8.15 0-3.24-1.1-5.95-3.3-8.16a11.03 11.03 0 0 0-8.11-3.31c-3.2 0-5.9 1.1-8.1 3.33a11.08 11.08 0 0 0-3.32 8.11c0 3.18 1.1 5.9 3.32 8.13a10.89 10.89 0 0 0 8.05 3.36Zm-48.21 0c3.2 0 5.9-1.12 8.1-3.34a11.08 11.08 0 0 0 3.32-8.11c0-3.18-1.1-5.9-3.32-8.13a10.89 10.89 0 0 0-8.05-3.36c-3.23 0-5.95 1.1-8.16 3.3a11.09 11.09 0 0 0-3.31 8.17c0 3.23 1.1 5.94 3.31 8.15 2.2 2.21 4.91 3.31 8.1 3.31ZM80 119.1c8.32 0 15.83-2.4 22.5-7.2a39.19 39.19 0 0 0 14.26-18.89H43.24a39.18 39.18 0 0 0 14.25 18.9 37.64 37.64 0 0 0 22.5 7.2Z"/></g><path fill="#fff" fill-rule="evenodd" d="M8 28A20 20 0 0 1 28 8h104a20 20 0 0 1 20 20v104a20 20 0 0 1-20 20H28a20 20 0 0 1-20-20V28Zm37.12-2.88a20 20 0 0 0-20 20v69.76a20 20 0 0 0 20 20h69.76a20 20 0 0 0 20-20V45.12a20 20 0 0 0-20-20H45.12Z" clip-rule="evenodd"/><path fill="#fff" d="M45.12 134.88a20 20 0 0 1-20-20V45.12a20 20 0 0 1 20-20h69.76a20 20 0 0 1 20 20v69.76a20 20 0 0 1-20 20H45.12Z"/><path fill="#ED1B24" d="M103.84 72.94c3.23 0 5.95-1.1 8.16-3.31 2.2-2.21 3.31-4.93 3.31-8.16 0-3.23-1.1-5.95-3.31-8.16a11.02 11.02 0 0 0-8.1-3.31c-3.2 0-5.9 1.11-8.11 3.34a11.08 11.08 0 0 0-3.32 8.1c0 3.18 1.11 5.9 3.32 8.14a10.89 10.89 0 0 0 8.05 3.36Zm-48.2 0c3.19 0 5.9-1.12 8.1-3.34a11.08 11.08 0 0 0 3.31-8.1c0-3.19-1.1-5.9-3.32-8.14A10.89 10.89 0 0 0 55.68 50c-3.23 0-5.95 1.1-8.16 3.31a11.09 11.09 0 0 0-3.3 8.16c0 3.23 1.1 5.95 3.3 8.16 2.21 2.2 4.91 3.3 8.11 3.3Zm24.12 45.4c8.33 0 15.83-2.4 22.5-7.19a39.17 39.17 0 0 0 14.27-18.9H43a39.18 39.18 0 0 0 14.26 18.9 37.64 37.64 0 0 0 22.5 7.2Z"/><defs><filter id="a" width="98.9" height="93.73" x="36.69" y="38.07" color-interpolation-filters="sRGB" filterUnits="userSpaceOnUse"><feFlood flood-opacity="0" result="BackgroundImageFix"/><feColorMatrix in="SourceAlpha" result="hardAlpha" values="0 0 0 0 0 0 0 0 0 0 0 0 0 0 0 0 0 0 127 0"/><feOffset dx="6.14"/><feGaussianBlur stdDeviation="6.34"/><feComposite in2="hardAlpha" operator="out"/><feColorMatrix values="0 0 0 0 1 0 0 0 0 1 0 0 0 0 1 0 0 0 1 0"/><feBlend in2="BackgroundImageFix" result="effect1_dropShadow_7654_124154"/><feBlend in="SourceGraphic" in2="effect1_dropShadow_7654_124154" result="shape"/><feColorMatrix in="SourceAlpha" result="hardAlpha" values="0 0 0 0 0 0 0 0 0 0 0 0 0 0 0 0 0 0 127 0"/><feOffset dx="3.68"/><feGaussianBlur stdDeviation="2.36"/><feComposite in2="hardAlpha" k2="-1" k3="1" operator="arithmetic"/><feColorMatrix values="0 0 0 0 0 0 0 0 0 0 0 0 0 0 0 0 0 0 0.15 0"/><feBlend in2="shape" result="effect2_innerShadow_7654_124154"/></filter></defs></svg>