<svg xmlns="http://www.w3.org/2000/svg" fill="none" viewBox="0 0 160 160"><path fill="#fff" d="M79.96 119.1c6.1 0 11.54-1.9 16.3-5.71a32.52 32.52 0 0 0 10.4-14.74h-53.4a32.52 32.52 0 0 0 10.4 14.73 25.41 25.41 0 0 0 16.3 5.72ZM60.89 87.01c3.17 0 5.88-1.17 8.1-3.5a11.91 11.91 0 0 0 3.34-8.53c0-3.34-1.11-6.18-3.34-8.52a10.77 10.77 0 0 0-8.1-3.51c-3.18 0-5.89 1.17-8.11 3.51a11.91 11.91 0 0 0-3.34 8.52c0 3.34 1.11 6.19 3.34 8.52a10.77 10.77 0 0 0 8.1 3.51Zm38.14 0c3.18 0 5.88-1.17 8.1-3.5a11.91 11.91 0 0 0 3.35-8.53c0-3.34-1.12-6.18-3.34-8.52a10.77 10.77 0 0 0-8.1-3.51c-3.19 0-5.89 1.17-8.11 3.51a11.91 11.91 0 0 0-3.34 8.52c0 3.34 1.11 6.19 3.34 8.52a10.77 10.77 0 0 0 8.1 3.51Zm-54.46-50.7L65.9 7.24a17.52 17.52 0 0 1 6.39-5.45 17.25 17.25 0 0 1 15.34 0c2.45 1.19 4.59 3 6.4 5.45l21.32 29.07 32.36 11.43c3.88 1.3 6.9 3.63 9.06 7A19.88 19.88 0 0 1 160 65.68c0 1.87-.26 3.75-.77 5.62a17.95 17.95 0 0 1-2.52 5.4l-20.77 31.16.77 32.77a18.09 18.09 0 0 1-5.3 13.69c-3.67 3.71-8 5.57-13 5.57-.19 0-1.62-.17-4.31-.5l-34.14-9.9-34.14 9.9c-.71.28-1.45.44-2.2.51-.77.07-1.5.1-2.21.1-4.9 0-9.2-1.87-12.87-5.6-3.68-3.74-5.42-8.33-5.22-13.77l.76-32.86L3.3 76.7a17.86 17.86 0 0 1-2.52-5.37 21.13 21.13 0 0 1-.77-5.6c0-3.9 1.07-7.53 3.2-10.9a16.96 16.96 0 0 1 9.02-7.08l32.35-11.43ZM56.9 54.46 21.5 66.96l23 34.3-.87 36.6 36.32-10.46 36.42 10.55-.87-36.69 22.9-33.9-35.5-12.9-22.84-31.73L56.9 54.46Z"/><path fill="#fff" fill-rule="evenodd" d="M56.9 54.46 21.5 66.96l23 34.3-.87 36.6 36.32-10.46 36.42 10.55-.87-36.69 22.9-33.9-35.5-12.9-22.84-31.73L56.9 54.46Zm39.37 58.93a25.41 25.41 0 0 1-16.31 5.71c-6.1 0-11.54-1.9-16.3-5.71a32.52 32.52 0 0 1-10.4-14.74h53.4a32.52 32.52 0 0 1-10.4 14.73ZM68.99 83.5a10.77 10.77 0 0 1-8.1 3.51c-3.18 0-5.89-1.17-8.11-3.5a11.91 11.91 0 0 1-3.34-8.53c0-3.34 1.11-6.18 3.34-8.52a10.77 10.77 0 0 1 8.1-3.51c3.18 0 5.89 1.17 8.11 3.51a11.91 11.91 0 0 1 3.34 8.52c0 3.34-1.11 6.19-3.34 8.52Zm38.15 0a10.77 10.77 0 0 1-8.1 3.51c-3.19 0-5.89-1.17-8.11-3.5a11.91 11.91 0 0 1-3.34-8.53c0-3.34 1.11-6.18 3.34-8.52a10.77 10.77 0 0 1 8.1-3.51c3.18 0 5.88 1.17 8.1 3.51a11.91 11.91 0 0 1 3.35 8.52c0 3.34-1.12 6.19-3.34 8.52Z" clip-rule="evenodd"/><path fill="#ED1B24" d="M80.52 119.15c6.1 0 11.54-1.9 16.3-5.72a32.51 32.51 0 0 0 10.4-14.74h-53.4a32.51 32.51 0 0 0 10.39 14.74 25.41 25.41 0 0 0 16.3 5.72ZM61.44 87.06c3.18 0 5.88-1.17 8.11-3.5a11.91 11.91 0 0 0 3.34-8.53c0-3.34-1.11-6.18-3.34-8.52a10.77 10.77 0 0 0-8.1-3.51c-3.18 0-5.89 1.17-8.11 3.5A11.91 11.91 0 0 0 50 75.04c0 3.34 1.11 6.19 3.34 8.52a10.77 10.77 0 0 0 8.1 3.51Zm38.15 0c3.18 0 5.88-1.17 8.1-3.5a11.91 11.91 0 0 0 3.34-8.53c0-3.34-1.1-6.18-3.33-8.52A10.77 10.77 0 0 0 99.6 63c-3.19 0-5.89 1.17-8.12 3.5a11.91 11.91 0 0 0-3.33 8.53c0 3.34 1.1 6.19 3.33 8.52a10.77 10.77 0 0 0 8.11 3.51Z"/></svg>