<svg xmlns="http://www.w3.org/2000/svg" width="159" height="43" fill="none"><rect width="158.759" height="42" y=".994" fill="#0D1140" rx="6.988"/><path fill="#fff" d="M28.71 20.965c-.024-2.66 2.235-3.955 2.338-4.015-1.28-1.82-3.262-2.068-3.96-2.087-1.665-.171-3.28.971-4.129.971-.865 0-2.171-.955-3.58-.927-1.812.027-3.507 1.05-4.437 2.639-1.918 3.238-.487 7.998 1.351 10.616.92 1.282 1.994 2.713 3.4 2.663 1.376-.055 1.89-.855 3.55-.855 1.646 0 2.129.855 3.563.823 1.477-.023 2.407-1.288 3.294-2.582 1.063-1.47 1.49-2.916 1.506-2.99-.034-.012-2.868-1.067-2.896-4.256ZM26 13.14c.74-.902 1.247-2.13 1.107-3.375-1.071.046-2.411.722-3.182 1.605-.683.777-1.293 2.052-1.135 3.25 1.203.088 2.439-.591 3.21-1.48ZM43.348 12.541l.099.038c.04.018.113.059.218.123.105.061.197.133.276.215.08.082.152.196.215.344.066.146.1.302.1.468 0 .405-.172.75-.516 1.037-.341.287-.798.43-1.372.43a2.734 2.734 0 0 1-1.208-.28 3.632 3.632 0 0 1-.371-.235 1.745 1.745 0 0 1-.236-.202l-.072-.085.492-.488.061.062c.03.027.089.075.178.143.09.068.186.13.286.184a1.965 1.965 0 0 0 .87.205c.35 0 .625-.079.823-.236.197-.156.296-.346.296-.57 0-.222-.099-.411-.296-.566-.198-.157-.472-.235-.823-.235h-.593v-.7h.593c.285 0 .508-.064.67-.194a.598.598 0 0 0 .241-.478.573.573 0 0 0-.242-.464c-.161-.127-.384-.191-.669-.191-.204 0-.406.044-.604.133a1.955 1.955 0 0 0-.443.256l-.14.133-.488-.488a.783.783 0 0 1 .068-.075 3.26 3.26 0 0 1 .212-.18 2.01 2.01 0 0 1 .805-.397c.193-.054.39-.082.59-.082.521 0 .93.124 1.229.372.3.246.45.553.45.922 0 .15-.025.29-.075.42a.978.978 0 0 1-.174.31 1.692 1.692 0 0 1-.201.201.893.893 0 0 1-.178.116l-.071.034ZM47.82 15.128h-.699v-.348a1.506 1.506 0 0 1-.385.273 1.558 1.558 0 0 1-.628.143c-.341 0-.624-.099-.85-.297-.225-.198-.337-.424-.337-.679a.98.98 0 0 1 .259-.693c.175-.186.414-.304.716-.354l1.225-.212a.582.582 0 0 0-.198-.447.708.708 0 0 0-.501-.18c-.177 0-.339.037-.485.112a.828.828 0 0 0-.296.222l-.093.119-.453-.454c.013-.018.031-.04.054-.068.025-.03.079-.08.16-.15a1.502 1.502 0 0 1 .635-.345c.155-.045.314-.068.478-.068.41 0 .745.122 1.007.365.261.241.392.54.392.894v2.167Zm-1.606-.56c.284 0 .506-.084.665-.252.162-.171.242-.413.242-.727v-.068l-1.085.174a.547.547 0 0 0-.303.153.414.414 0 0 0-.116.3c0 .112.053.21.16.294.11.084.255.126.437.126ZM51.14 11.774v.627H49.5v2.727h-.7v-3.354h2.34ZM53.481 15.196a1.503 1.503 0 0 1-.894-.29 1.934 1.934 0 0 1-.14-.113l-.047-.05v1.852h-.7v-4.821h.7v.385a4.55 4.55 0 0 1 .133-.126c.06-.052.183-.12.372-.205.189-.084.38-.126.576-.126.444 0 .828.17 1.154.512.327.339.491.75.491 1.235 0 .484-.164.897-.491 1.239-.325.338-.71.508-1.154.508Zm.639-2.535c-.205-.219-.44-.328-.707-.328-.266 0-.501.11-.706.328a1.116 1.116 0 0 0-.307.791c0 .307.102.57.307.789.205.218.44.327.706.327.266 0 .502-.11.707-.327.204-.219.307-.482.307-.789 0-.309-.103-.573-.307-.791ZM56.696 15.476l.14-.348-1.365-3.354h.733l.98 2.446.979-2.446h.734l-1.505 3.702c-.173.414-.345.704-.516.87a.867.867 0 0 1-.634.249c-.093 0-.181-.006-.263-.017a1.014 1.014 0 0 1-.18-.038l-.048-.013v-.632c.116.046.233.07.351.072.266-.002.464-.166.594-.491ZM61.688 12.647c0 .155-.044.29-.13.406a.64.64 0 0 1-.26.229l-.133.065a.637.637 0 0 1 .072.024c.032.01.084.038.157.081a.81.81 0 0 1 .358.39c.05.102.075.217.075.344 0 .28-.125.519-.375.716-.248.196-.588.294-1.02.294a1.822 1.822 0 0 1-.85-.208 2.404 2.404 0 0 1-.262-.17c-.075-.06-.131-.11-.168-.151l-.047-.065.453-.454c.028.032.064.072.11.12.047.048.148.11.3.188.154.075.31.112.464.112.232 0 .406-.043.522-.13a.389.389 0 0 0 .177-.324c0-.13-.059-.237-.177-.324-.116-.086-.29-.13-.522-.13h-.386v-.56h.386c.182 0 .32-.034.416-.105a.334.334 0 0 0 .144-.276.328.328 0 0 0-.144-.277c-.095-.072-.234-.109-.416-.109-.134 0-.266.026-.396.079a.961.961 0 0 0-.283.157l-.089.078-.457-.454a1.64 1.64 0 0 1 .14-.136c.061-.055.198-.128.41-.219.21-.09.436-.136.675-.136.387 0 .693.093.918.28.225.186.338.408.338.665ZM65.045 11.774h.628v3.354h-.7v-2.201l-1.747 2.2H62.6v-3.353h.7v2.2l1.746-2.2ZM66.304 12.401v-.627h3.003v.627h-1.154v2.727h-.696V12.4h-1.153ZM73.043 13.695h-2.62c.036.236.152.44.347.614.198.173.433.26.703.26.196 0 .378-.045.546-.134.171-.089.291-.175.362-.26l.106-.129.454.454a1.523 1.523 0 0 1-.065.078 2.25 2.25 0 0 1-.478.375c-.105.06-.241.115-.41.168-.165.05-.337.075-.515.075-.475 0-.886-.174-1.231-.522a1.735 1.735 0 0 1-.516-1.26c0-.47.168-.873.502-1.207.337-.337.74-.505 1.208-.505.47 0 .862.157 1.174.47.314.312.47.704.47 1.175l-.037.348Zm-1.607-1.396a.939.939 0 0 0-.638.225c-.17.148-.286.34-.345.577h1.942a.935.935 0 0 0-.959-.802ZM75.244 11.774h1.607c.32 0 .575.083.764.249a.79.79 0 0 1 .283.624.814.814 0 0 1-.095.393.67.67 0 0 1-.191.242l-.096.065a.617.617 0 0 1 .058.024c.025.01.07.04.137.088a.854.854 0 0 1 .17.154c.05.054.095.13.133.225a.78.78 0 0 1 .062.31.897.897 0 0 1-.31.707c-.205.182-.486.273-.844.273h-1.678v-3.354Zm1.678 1.852h-.979v.908h.98c.138 0 .249-.041.33-.123a.447.447 0 0 0 .123-.33.45.45 0 0 0-.126-.322.431.431 0 0 0-.328-.133Zm.185-.651a.346.346 0 0 0 .095-.256.339.339 0 0 0-.095-.256.346.346 0 0 0-.256-.096h-.908v.7h.908c.107 0 .192-.03.256-.092ZM50.724 30.343h-2.07l-1.135-3.474h-3.942l-1.08 3.474h-2.016l3.906-11.829h2.412l3.925 11.83Zm-3.546-4.932-1.026-3.089c-.108-.316-.312-1.059-.612-2.228h-.036a84.08 84.08 0 0 1-.576 2.228l-1.008 3.089h3.258ZM60.768 25.977c0 1.45-.402 2.597-1.206 3.439-.72.749-1.614 1.123-2.682 1.123-1.152 0-1.98-.403-2.484-1.21h-.037v4.493h-1.943v-9.197c0-.912-.025-1.848-.072-2.808h1.71l.108 1.352h.036c.648-1.019 1.632-1.527 2.952-1.527 1.032 0 1.894.397 2.583 1.192.69.797 1.035 1.844 1.035 3.143Zm-1.98.069c0-.83-.191-1.515-.576-2.053-.42-.562-.985-.843-1.692-.843-.48 0-.915.157-1.305.465-.39.311-.645.717-.764 1.22-.06.235-.09.427-.09.578v1.422c0 .62.194 1.144.585 1.572.39.427.897.64 1.52.64.732 0 1.302-.275 1.71-.824.408-.55.612-1.276.612-2.177ZM70.832 25.977c0 1.45-.402 2.597-1.207 3.439-.72.749-1.614 1.123-2.681 1.123-1.153 0-1.98-.403-2.484-1.21h-.036v4.493H62.48v-9.197c0-.912-.024-1.848-.072-2.808h1.71l.108 1.352h.037c.647-1.019 1.63-1.527 2.951-1.527 1.032 0 1.893.397 2.584 1.192.688.797 1.034 1.844 1.034 3.143Zm-1.98.069c0-.83-.193-1.515-.577-2.053-.42-.562-.983-.843-1.691-.843-.48 0-.916.157-1.306.465-.39.311-.644.717-.764 1.22-.06.235-.09.427-.09.578v1.422c0 .62.195 1.144.583 1.572.39.426.897.64 1.523.64.732 0 1.302-.275 1.71-.824.408-.55.612-1.276.612-2.177ZM82.08 27.026c0 1.007-.358 1.825-1.077 2.457-.79.69-1.891 1.036-3.305 1.036-1.305 0-2.352-.245-3.144-.737l.45-1.58c.853.503 1.79.756 2.81.756.732 0 1.302-.162 1.711-.484.407-.321.61-.753.61-1.292 0-.48-.167-.884-.503-1.212-.335-.328-.894-.633-1.674-.915-2.124-.773-3.186-1.904-3.186-3.392 0-.972.372-1.77 1.117-2.39.742-.622 1.732-.932 2.97-.932 1.105 0 2.022.188 2.754.562l-.486 1.545c-.684-.363-1.457-.544-2.322-.544-.684 0-1.218.164-1.601.491a1.389 1.389 0 0 0-.486 1.072c0 .467.185.854.557 1.158.324.28.912.585 1.765.913 1.044.41 1.81.889 2.304 1.438.491.547.736 1.233.736 2.05ZM88.507 23.236h-2.142v4.142c0 1.053.378 1.58 1.134 1.58.348 0 .636-.03.864-.089l.053 1.44c-.383.139-.887.21-1.511.21-.768 0-1.368-.23-1.8-.685-.432-.457-.649-1.223-.649-2.3v-4.3H83.18v-1.422h1.276v-1.561l1.909-.562v2.123h2.142v1.424ZM98.172 26.009c0 1.311-.385 2.387-1.152 3.23-.805.866-1.874 1.298-3.206 1.298-1.283 0-2.305-.415-3.067-1.245-.762-.83-1.144-1.879-1.144-3.142 0-1.322.393-2.404 1.18-3.246.784-.843 1.844-1.264 3.175-1.264 1.284 0 2.317.415 3.097 1.246.745.806 1.117 1.847 1.117 3.123Zm-2.016.061c0-.786-.173-1.461-.522-2.024-.407-.68-.99-1.02-1.745-1.02-.781 0-1.374.34-1.782 1.02-.35.564-.522 1.25-.522 2.06 0 .786.173 1.461.522 2.023.42.68 1.007 1.02 1.765 1.02.742 0 1.325-.346 1.745-1.038.358-.573.539-1.255.539-2.04ZM104.489 23.483a3.46 3.46 0 0 0-.613-.052c-.683 0-1.212.251-1.584.755-.324.445-.486 1.007-.486 1.685v4.475h-1.943l.019-5.843c0-.983-.025-1.878-.073-2.685h1.693l.071 1.632h.053c.206-.561.529-1.013.972-1.351a2.39 2.39 0 0 1 1.405-.457c.18 0 .342.012.486.034v1.807ZM113.184 25.676c0 .34-.023.626-.071.86h-5.831c.023.843.304 1.487.846 1.931.491.398 1.127.597 1.907.597.863 0 1.651-.134 2.359-.404l.305 1.316c-.828.352-1.805.527-2.933.527-1.357 0-2.421-.39-3.196-1.167-.773-.778-1.161-1.822-1.161-3.133 0-1.286.36-2.357 1.081-3.211.755-.912 1.775-1.368 3.059-1.368 1.261 0 2.215.456 2.864 1.368.513.724.771 1.62.771 2.684Zm-1.854-.491c.013-.562-.114-1.047-.377-1.457-.336-.527-.853-.79-1.549-.79-.635 0-1.152.257-1.547.772-.324.41-.516.901-.575 1.474h4.048Z"/></svg>