<svg xmlns="http://www.w3.org/2000/svg" width="159" height="43" fill="none"><rect width="158.759" height="42" x=".241" y=".994" fill="#0D1140" rx="6.988"/><path fill="#00D3FF" d="M14.221 12.144c-.238.243-.375.62-.375 1.11v17.477c0 .49.137.868.375 1.111l.059.053 10.03-9.788v-.232l-10.03-9.789-.059.058Z"/><path fill="#FFCD00" d="m27.652 25.373-3.34-3.265v-.231l3.344-3.265.075.043 3.96 2.2c1.13.624 1.13 1.651 0 2.28l-3.96 2.195-.079.043Z"/><path fill="#F93647" d="m27.732 25.33-3.418-3.337-10.09 9.851c.376.385.988.432 1.684.046l11.824-6.56Z"/><path fill="#00F076" d="m27.731 18.654-11.824-6.56c-.696-.38-1.308-.334-1.683.05l10.089 9.848 3.418-3.338Z"/><path fill="#fff" d="M40.723 14.49h.28a.704.704 0 0 0 .088-.091c.039-.046.106-.147.201-.304.096-.16.18-.333.253-.522.075-.189.143-.446.205-.771.061-.328.092-.673.092-1.037v-1.468h3.18v4.194h.594v1.747h-.772V15.19H41.49v1.048h-.767V14.49Zm1.886-2.725c0 .364-.029.707-.088 1.03a3.83 3.83 0 0 1-.208.778c-.082.198-.164.37-.246.519-.082.145-.152.249-.212.31l-.085.089h2.48v-3.494h-1.64v.768ZM48.557 14.307c.207-.216.31-.48.31-.792 0-.314-.103-.579-.31-.795a.987.987 0 0 0-.737-.324.997.997 0 0 0-.74.324c-.208.216-.311.481-.311.795 0 .312.103.575.31.792.21.216.456.324.74.324.285 0 .53-.108.738-.324Zm-1.966.433a1.682 1.682 0 0 1-.518-1.225c0-.47.173-.88.518-1.228a1.681 1.681 0 0 1 1.229-.522c.47 0 .879.174 1.225.522.348.348.522.757.522 1.228 0 .469-.174.877-.522 1.225a1.675 1.675 0 0 1-1.225.518c-.471 0-.88-.172-1.229-.518ZM50.645 14.74a1.682 1.682 0 0 1-.519-1.225c0-.47.173-.88.519-1.228a1.68 1.68 0 0 1 1.228-.522c.262 0 .505.056.73.17.226.112.387.223.485.335l.147.16-.454.454a.983.983 0 0 0-.106-.133 1.254 1.254 0 0 0-.303-.219.997.997 0 0 0-1.239.188c-.207.216-.31.481-.31.795 0 .312.103.575.31.792a.997.997 0 0 0 1.238.19c.157-.088.27-.175.338-.259l.106-.13.454.454a3.568 3.568 0 0 1-.061.079 2.283 2.283 0 0 1-.464.375c-.1.06-.23.115-.39.168a1.686 1.686 0 0 1-1.71-.444ZM53.617 12.464v-.628h3.003v.628h-1.154v2.726h-.696v-2.726h-1.153ZM58.053 15.538l.14-.348-1.365-3.354h.733l.98 2.447.979-2.447h.733l-1.504 3.702c-.173.414-.345.704-.516.87a.867.867 0 0 1-.634.25c-.093 0-.181-.006-.263-.018a1.001 1.001 0 0 1-.18-.037l-.048-.014v-.631c.116.045.233.07.35.072.267-.003.465-.166.595-.492ZM61.51 12.464v2.726h-.7v-3.354h3.04v3.354h-.7v-2.726h-1.64ZM65.528 13.791v1.4h-.699v-3.355h.7v1.328h1.64v-1.328h.7v3.354h-.7v-1.399h-1.64ZM71.124 14.307c.207-.216.31-.48.31-.792 0-.314-.103-.579-.31-.795a.986.986 0 0 0-.737-.324.997.997 0 0 0-.74.324c-.207.216-.31.481-.31.795 0 .312.103.575.31.792.21.216.456.324.74.324.285 0 .53-.108.737-.324Zm-1.965.433a1.682 1.682 0 0 1-.519-1.225c0-.47.173-.88.519-1.228a1.68 1.68 0 0 1 1.228-.522c.471 0 .88.174 1.225.522.348.348.522.757.522 1.228 0 .469-.174.877-.522 1.225a1.675 1.675 0 0 1-1.225.518c-.47 0-.88-.172-1.228-.518ZM74.301 11.836h1.607c.32 0 .576.083.764.25a.79.79 0 0 1 .284.624.815.815 0 0 1-.096.392.672.672 0 0 1-.191.242l-.096.065a.617.617 0 0 1 .058.024c.025.011.071.041.137.089a.854.854 0 0 1 .17.153c.05.055.095.13.134.225.04.096.061.2.061.311a.897.897 0 0 1-.31.706c-.205.182-.486.273-.843.273H74.3v-3.354Zm1.679 1.853H75v.908h.98c.138 0 .249-.041.33-.123a.447.447 0 0 0 .123-.331.45.45 0 0 0-.126-.321.431.431 0 0 0-.327-.133Zm.184-.652a.346.346 0 0 0 .096-.256.339.339 0 0 0-.096-.256.346.346 0 0 0-.256-.095h-.907v.7h.907c.107 0 .192-.031.256-.093ZM65.63 22.628c-2.158 0-3.922 1.605-3.922 3.818 0 2.196 1.764 3.817 3.923 3.817 2.163 0 3.927-1.621 3.927-3.817 0-2.213-1.764-3.818-3.927-3.818Zm0 6.132c-1.184 0-2.203-.955-2.203-2.314 0-1.376 1.019-2.314 2.204-2.314 1.184 0 2.208.938 2.208 2.314 0 1.359-1.024 2.314-2.208 2.314Zm-8.559-6.132c-2.164 0-3.923 1.605-3.923 3.818 0 2.196 1.76 3.817 3.923 3.817 2.163 0 3.923-1.621 3.923-3.817 0-2.213-1.76-3.818-3.923-3.818Zm0 6.132c-1.186 0-2.209-.955-2.209-2.314 0-1.376 1.023-2.314 2.209-2.314 1.185 0 2.204.938 2.204 2.314 0 1.359-1.02 2.314-2.204 2.314Zm-10.186-4.962v1.623h3.968c-.116.906-.426 1.573-.902 2.037-.579.561-1.481 1.184-3.066 1.184-2.441 0-4.354-1.924-4.354-4.308s1.913-4.308 4.354-4.308c1.32 0 2.281.503 2.99 1.156l1.171-1.143c-.992-.925-2.31-1.635-4.16-1.635-3.35 0-6.163 2.66-6.163 5.93 0 3.269 2.814 5.929 6.162 5.929 1.81 0 3.17-.579 4.238-1.665 1.095-1.07 1.437-2.572 1.437-3.786 0-.377-.033-.724-.09-1.014h-5.585Zm41.65 1.258c-.322-.854-1.318-2.428-3.348-2.428-2.01 0-3.685 1.547-3.685 3.818 0 2.139 1.657 3.817 3.878 3.817a3.898 3.898 0 0 0 3.26-1.692l-1.334-.867c-.444.635-1.05 1.056-1.926 1.056-.87 0-1.493-.39-1.893-1.157l5.23-2.113-.181-.434Zm-5.331 1.271a2.117 2.117 0 0 1 2.042-2.226c.682 0 1.262.334 1.455.81l-3.497 1.416Zm-4.25 3.704h1.718V18.81h-1.719v11.22Zm-2.816-6.552h-.057c-.386-.447-1.123-.85-2.056-.85-1.958 0-3.749 1.678-3.749 3.83 0 2.139 1.79 3.804 3.749 3.804.933 0 1.67-.407 2.056-.867h.057v.547c0 1.46-.799 2.244-2.087 2.244-1.05 0-1.701-.74-1.97-1.363l-1.495.61c.43 1.011 1.572 2.256 3.465 2.256 2.016 0 3.716-1.157 3.716-3.974V22.86h-1.629v.619Zm-1.966 5.28c-1.185 0-2.176-.968-2.176-2.3 0-1.346.991-2.327 2.176-2.327 1.167 0 2.088.981 2.088 2.326 0 1.333-.92 2.302-2.088 2.302Zm22.412-9.948h-4.111v11.22h1.714V25.78h2.397c1.904 0 3.771-1.345 3.771-3.485 0-2.138-1.871-3.484-3.77-3.484Zm.045 5.408h-2.442v-3.847h2.442a1.97 1.97 0 0 1 2.01 1.923c0 .868-.73 1.924-2.01 1.924Zm10.598-1.612c-1.239 0-2.527.534-3.057 1.718l1.522.622c.327-.622.929-.824 1.566-.824.89 0 1.792.521 1.805 1.442v.118c-.31-.175-.974-.434-1.791-.434-1.639 0-3.308.88-3.308 2.524 0 1.504 1.342 2.472 2.851 2.472 1.153 0 1.79-.508 2.19-1.1h.058v.868h1.656v-4.304c0-1.99-1.521-3.102-3.492-3.102Zm-.207 6.148c-.561 0-1.342-.271-1.342-.95 0-.869.975-1.202 1.818-1.202.755 0 1.109.163 1.567.377-.134 1.04-1.05 1.775-2.043 1.775Zm9.732-5.902-1.971 4.863h-.058l-2.038-4.863h-1.849l3.062 6.796-1.747 3.782h1.791l4.718-10.578h-1.908Zm-15.454 7.178h1.719V18.81h-1.719v11.22Z"/></svg>