<svg xmlns="http://www.w3.org/2000/svg" width="96" height="67" viewBox="0 0 96 67" fill="none">
    <g opacity="0.5">
        <g opacity="0.5" filter="url(#filter0_ii_62_2681)">
            <path d="M22.2334 2.16264C22.7071 0.86377 23.9387 0 25.317 0H44.1889C45.5689 0 46.8016 0.865887 47.2741 2.16705L69.2076 62.5769C69.9879 64.7262 68.402 67 66.1224 67H51.8217C50.4308 67 49.1908 66.1205 48.7265 64.8048L45.6473 56.0783C45.183 54.7626 43.943 53.8831 42.5521 53.8831H26.8678C25.468 53.8831 24.2221 54.7736 23.7646 56.1011L20.7727 64.782C20.3152 66.1095 19.0693 67 17.6695 67H3.28642C1.0049 67 -0.581225 64.7226 0.202878 62.5725L22.2334 2.16264ZM38.6262 41.6155C40.0828 41.6155 41.1332 40.2145 40.7295 38.8099L36.8091 25.1713C36.2046 23.068 33.2414 23.0492 32.6104 25.1447L28.5034 38.7833C28.0787 40.1937 29.1307 41.6155 30.5989 41.6155H38.6262Z" fill="#E0E1E5"/>
            <path d="M77.1996 67C75.3861 67 73.916 65.5247 73.916 63.7049V3.29508C73.916 1.47526 75.3861 0 77.1996 0H92.7165C94.5299 0 96 1.47526 96 3.29508V63.7049C96 65.5247 94.5299 67 92.7165 67H77.1996Z" fill="#E0E1E5"/>
        </g>
    </g>
    <defs>
        <filter id="filter0_ii_62_2681" x="-4.8735" y="-4.43978" width="106.569" height="76.4537" filterUnits="userSpaceOnUse" color-interpolation-filters="sRGB">
            <feFlood flood-opacity="0" result="BackgroundImageFix"/>
            <feBlend mode="normal" in="SourceGraphic" in2="BackgroundImageFix" result="shape"/>
            <feColorMatrix in="SourceAlpha" type="matrix" values="0 0 0 0 0 0 0 0 0 0 0 0 0 0 0 0 0 0 127 0" result="hardAlpha"/>
            <feOffset dx="-4.8735" dy="-4.43978"/>
            <feGaussianBlur stdDeviation="6.36254"/>
            <feComposite in2="hardAlpha" operator="arithmetic" k2="-1" k3="1"/>
            <feColorMatrix type="matrix" values="0 0 0 0 0.98903 0 0 0 0 0.98903 0 0 0 0 0.98903 0 0 0 1 0"/>
            <feBlend mode="normal" in2="shape" result="effect1_innerShadow_62_2681"/>
            <feColorMatrix in="SourceAlpha" type="matrix" values="0 0 0 0 0 0 0 0 0 0 0 0 0 0 0 0 0 0 127 0" result="hardAlpha"/>
            <feOffset dx="5.69578" dy="5.01389"/>
            <feGaussianBlur stdDeviation="3.87072"/>
            <feComposite in2="hardAlpha" operator="arithmetic" k2="-1" k3="1"/>
            <feColorMatrix type="matrix" values="0 0 0 0 0.550342 0 0 0 0 0.550342 0 0 0 0 0.550342 0 0 0 0.27 0"/>
            <feBlend mode="normal" in2="effect1_innerShadow_62_2681" result="effect2_innerShadow_62_2681"/>
        </filter>
    </defs>
</svg>
