<svg width="72" height="72" viewBox="0 0 72 72" fill="none" xmlns="http://www.w3.org/2000/svg">
<g filter="url(#filter0_ii_62_2708)">
<path d="M28.5 0H4.75C2.1375 0 0 2.1375 0 4.75V28.5C0 31.1125 2.1375 33.25 4.75 33.25H28.5C31.1125 33.25 33.25 31.1125 33.25 28.5V4.75C33.25 2.1375 31.1125 0 28.5 0ZM28.5 16.625C28.5 17.9367 27.4367 19 26.125 19H7.125C5.81332 19 4.75 17.9367 4.75 16.625C4.75 15.3133 5.81332 14.25 7.125 14.25H26.125C27.4367 14.25 28.5 15.3133 28.5 16.625ZM66.5 0H42.75C40.1375 0 38 2.1375 38 4.75V66.5C38 69.1125 40.1375 71.25 42.75 71.25H66.5C69.1125 71.25 71.25 69.1125 71.25 66.5V4.75C71.25 2.1375 69.1125 0 66.5 0ZM66.5 40.375C66.5 41.6867 65.4367 42.75 64.125 42.75H45.125C43.8133 42.75 42.75 41.6867 42.75 40.375C42.75 39.0633 43.8133 38 45.125 38H64.125C65.4367 38 66.5 39.0633 66.5 40.375ZM66.5 26.125C66.5 27.4367 65.4367 28.5 64.125 28.5H45.125C43.8133 28.5 42.75 27.4367 42.75 26.125C42.75 24.8133 43.8133 23.75 45.125 23.75H64.125C65.4367 23.75 66.5 24.8133 66.5 26.125ZM28.5 38H4.75C2.1375 38 0 40.1375 0 42.75V66.5C0 69.1125 2.1375 71.25 4.75 71.25H28.5C31.1125 71.25 33.25 69.1125 33.25 66.5V42.75C33.25 40.1375 31.1125 38 28.5 38ZM28.5 54.625C28.5 55.9367 27.4367 57 26.125 57H22.4132C20.5282 57 19 58.5282 19 60.4132V64.125C19 65.4367 17.9367 66.5 16.625 66.5C15.3133 66.5 14.25 65.4367 14.25 64.125V60.4132C14.25 58.5282 12.7218 57 10.8368 57H7.125C5.81332 57 4.75 55.9367 4.75 54.625C4.75 53.3133 5.81332 52.25 7.125 52.25H10.8368C12.7218 52.25 14.25 50.7218 14.25 48.8368V45.125C14.25 43.8133 15.3133 42.75 16.625 42.75C17.9367 42.75 19 43.8133 19 45.125V48.8368C19 50.7218 20.5282 52.25 22.4132 52.25H26.125C27.4367 52.25 28.5 53.3133 28.5 54.625Z" fill="#E0E1E5"/>
</g>
<defs>
<filter id="filter0_ii_62_2708" x="-1.98658" y="-1.80978" width="75.5583" height="75.1036" filterUnits="userSpaceOnUse" color-interpolation-filters="sRGB">
<feFlood flood-opacity="0" result="BackgroundImageFix"/>
<feBlend mode="normal" in="SourceGraphic" in2="BackgroundImageFix" result="shape"/>
<feColorMatrix in="SourceAlpha" type="matrix" values="0 0 0 0 0 0 0 0 0 0 0 0 0 0 0 0 0 0 127 0" result="hardAlpha"/>
<feOffset dx="-1.98658" dy="-1.80978"/>
<feGaussianBlur stdDeviation="2.59356"/>
<feComposite in2="hardAlpha" operator="arithmetic" k2="-1" k3="1"/>
<feColorMatrix type="matrix" values="0 0 0 0 0.98903 0 0 0 0 0.98903 0 0 0 0 0.98903 0 0 0 1 0"/>
<feBlend mode="normal" in2="shape" result="effect1_innerShadow_62_2708"/>
<feColorMatrix in="SourceAlpha" type="matrix" values="0 0 0 0 0 0 0 0 0 0 0 0 0 0 0 0 0 0 127 0" result="hardAlpha"/>
<feOffset dx="2.32177" dy="2.04381"/>
<feGaussianBlur stdDeviation="1.57782"/>
<feComposite in2="hardAlpha" operator="arithmetic" k2="-1" k3="1"/>
<feColorMatrix type="matrix" values="0 0 0 0 0.550342 0 0 0 0 0.550342 0 0 0 0 0.550342 0 0 0 0.27 0"/>
<feBlend mode="normal" in2="effect1_innerShadow_62_2708" result="effect2_innerShadow_62_2708"/>
</filter>
</defs>
</svg>
