<svg width="126" height="109" viewBox="0 0 126 109" fill="none" xmlns="http://www.w3.org/2000/svg">
<g clip-path="url(#clip0_62_2692)">
<g filter="url(#filter0_ii_62_2692)">
<path fill-rule="evenodd" clip-rule="evenodd" d="M42.2067 21.0212C44.1048 19.1893 46.3896 18.2754 49.0592 18.2797L73.2284 18.3203C75.8979 18.3247 78.1849 19.2495 80.089 21.097C81.9929 22.9447 82.9466 25.1639 82.9509 27.7541L82.9561 32.8016C82.9597 36.3391 85.826 39.2062 89.3635 39.2108L94.9346 39.218C97.6037 39.2226 99.8897 40.1485 101.793 41.9957C103.697 43.8433 104.653 46.0619 104.657 48.6518L104.723 89.9821C104.728 92.5723 103.781 94.7886 101.883 96.6299C99.9853 98.4713 97.7012 99.389 95.0317 99.3846L27.5041 99.2818C24.8351 99.2773 22.5491 98.3512 20.6453 96.5041C18.7415 94.6567 17.7861 92.4378 17.7816 89.848L17.7153 48.5177C17.711 45.9274 18.6573 43.7114 20.5553 41.8699C22.4534 40.0285 24.7375 39.1108 27.407 39.1152L32.9482 39.1224C36.4974 39.127 39.376 36.2491 39.3723 32.6999L39.3671 27.6618C39.363 25.0664 40.3091 22.8528 42.2067 21.0212ZM46.4516 62.0164C42.9062 62.0221 40.0825 64.9782 40.1451 68.6201C40.2079 72.2621 43.1333 75.2107 46.6786 75.205L76.749 75.1559C80.2939 75.1497 83.1171 72.1921 83.0544 68.5505C82.9913 64.9092 80.0666 61.9621 76.5219 61.9673L46.4516 62.0164ZM51.1932 27.7021C50.0228 27.7008 49.076 28.6544 49.0779 29.8316L49.0803 32.7458C49.0833 36.2828 51.9483 39.1503 55.4853 39.1562L66.8223 39.1752C70.3722 39.1812 73.2522 36.3033 73.2489 32.7534L73.2461 29.8705C73.2441 28.693 72.2943 27.7371 71.1234 27.7352L51.1932 27.7021Z" fill="#E0E1E5"/>
</g>
<mask id="mask0_62_2692" style="mask-type:alpha" maskUnits="userSpaceOnUse" x="17" y="17" width="88" height="83">
<path fill-rule="evenodd" clip-rule="evenodd" d="M42.2069 20.6576C44.105 18.8257 46.3898 17.9118 49.0594 17.9162L73.2286 17.9568C75.8981 17.9612 78.1851 18.8859 80.0892 20.7335C81.9932 22.5812 82.9469 24.8004 82.9512 27.3906L82.9563 32.4381C82.9599 35.9756 85.8262 38.8427 89.3638 38.8473L94.9349 38.8545C97.6039 38.8591 99.8899 39.785 101.794 41.6322C103.698 43.4798 104.653 45.6984 104.657 48.2883L104.724 89.6186C104.728 92.2087 103.782 94.425 101.884 96.2664C99.9856 98.1078 97.7015 99.0255 95.032 99.0211L27.5044 98.9183C24.8354 98.9138 22.5493 97.9877 20.6455 96.1406C18.7418 94.2932 17.7863 92.0743 17.7818 89.4845L17.7155 48.1542C17.7113 45.5639 18.6576 43.3479 20.5556 41.5064C22.4536 39.665 24.7377 38.7473 27.4073 38.7517L32.9485 38.7588C36.4977 38.7634 39.3763 35.8856 39.3726 32.3364L39.3673 27.2983C39.3633 24.7029 40.3093 22.4892 42.2069 20.6576ZM46.4518 61.6528C42.9065 61.6586 40.0827 64.6147 40.1454 68.2566C40.2081 71.8985 43.1335 74.8472 46.6789 74.8415L76.7493 74.7924C80.2941 74.7862 83.1174 71.8286 83.0547 68.1869C82.9915 64.5457 80.0668 61.5986 76.5222 61.6037L46.4518 61.6528ZM51.1935 27.3385C50.023 27.3373 49.0762 28.2908 49.0782 29.4681L49.0806 32.3823C49.0836 35.9193 51.9486 38.7867 55.4856 38.7927L66.8226 38.8117C70.3725 38.8177 73.2525 35.9398 73.2491 32.3899L73.2464 29.507C73.2443 28.3294 72.2945 27.3736 71.1236 27.3717L51.1935 27.3385Z" fill="#E0E1E5"/>
</mask>
<g mask="url(#mask0_62_2692)">
</g>
</g>
<defs>
<filter id="filter0_ii_62_2692" x="15.8422" y="16.5733" width="91.0705" height="84.7386" filterUnits="userSpaceOnUse" color-interpolation-filters="sRGB">
<feFlood flood-opacity="0" result="BackgroundImageFix"/>
<feBlend mode="normal" in="SourceGraphic" in2="BackgroundImageFix" result="shape"/>
<feColorMatrix in="SourceAlpha" type="matrix" values="0 0 0 0 0 0 0 0 0 0 0 0 0 0 0 0 0 0 127 0" result="hardAlpha"/>
<feOffset dx="-1.87318" dy="-1.70648"/>
<feGaussianBlur stdDeviation="2.44551"/>
<feComposite in2="hardAlpha" operator="arithmetic" k2="-1" k3="1"/>
<feColorMatrix type="matrix" values="0 0 0 0 0.98903 0 0 0 0 0.98903 0 0 0 0 0.98903 0 0 0 1 0"/>
<feBlend mode="normal" in2="shape" result="effect1_innerShadow_62_2692"/>
<feColorMatrix in="SourceAlpha" type="matrix" values="0 0 0 0 0 0 0 0 0 0 0 0 0 0 0 0 0 0 127 0" result="hardAlpha"/>
<feOffset dx="2.18923" dy="1.92714"/>
<feGaussianBlur stdDeviation="1.48775"/>
<feComposite in2="hardAlpha" operator="arithmetic" k2="-1" k3="1"/>
<feColorMatrix type="matrix" values="0 0 0 0 0.550342 0 0 0 0 0.550342 0 0 0 0 0.550342 0 0 0 0.27 0"/>
<feBlend mode="normal" in2="effect1_innerShadow_62_2692" result="effect2_innerShadow_62_2692"/>
</filter>
<clipPath id="clip0_62_2692">
<rect width="126.452" height="112" fill="white" transform="translate(0 -3)"/>
</clipPath>
</defs>
</svg>
