<svg width="48" height="48" viewBox="0 0 48 48" fill="none" xmlns="http://www.w3.org/2000/svg">
<rect width="48" height="48" rx="24" fill="#E0E1E5"/>
<path d="M17 13C17 14.0609 17.4217 15.078 18.1719 15.8281C18.922 16.5783 19.9391 17 21 17H27C28.0609 17 29.078 16.5783 29.8281 15.8281C30.5783 15.078 31 14.0609 31 13V12H32C32.7956 12 33.5585 12.3163 34.1211 12.8789C34.6837 13.4415 35 14.2044 35 15V35C35 35.7956 34.6837 36.5585 34.1211 37.1211C33.5585 37.6837 32.7956 38 32 38H16C15.2044 38 14.4415 37.6837 13.8789 37.1211C13.3163 36.5585 13 35.7956 13 35V15C13 14.2044 13.3163 13.4415 13.8789 12.8789C14.4415 12.3163 15.2044 12 16 12H17V13ZM18.002 31.752C17.6704 31.752 17.3526 31.8838 17.1182 32.1182C16.8837 32.3526 16.752 32.6704 16.752 33.002C16.752 33.3333 16.8838 33.6514 17.1182 33.8857C17.3525 34.1199 17.6706 34.252 18.002 34.252C18.3333 34.2519 18.6514 34.1201 18.8857 33.8857C19.1201 33.6514 19.2519 33.3333 19.252 33.002C19.252 32.6706 19.1199 32.3525 18.8857 32.1182C18.6514 31.8838 18.3333 31.7521 18.002 31.752ZM22.002 32.002C21.4488 32.002 21.002 32.4488 21.002 33.002C21.0021 33.5549 21.4489 34.002 22.002 34.002H31.002C31.5548 34.0017 32.0018 33.5548 32.002 33.002C32.002 32.449 31.5549 32.0022 31.002 32.002H22.002ZM20.1797 26.1387C19.8422 25.9014 19.3732 25.9827 19.1357 26.3232L17.8984 28.0918L17.2793 27.4736C16.9887 27.18 16.5144 27.1832 16.2207 27.4736C15.927 27.7643 15.927 28.2395 16.2207 28.5332L17.4707 29.7832C17.6269 29.9392 17.8457 30.0139 18.0674 29.9951C18.2892 29.9763 18.4891 29.8609 18.6172 29.6797L20.3672 27.1797C20.6047 26.8422 20.5232 26.3732 20.1826 26.1357L20.1797 26.1387ZM24.002 27.002C23.4488 27.002 23.002 27.4488 23.002 28.002C23.0022 28.5549 23.4489 29.002 24.002 29.002H31.002C31.5548 29.0017 32.0018 28.5548 32.002 28.002C32.002 27.449 31.5549 27.0022 31.002 27.002H24.002ZM20.1826 21.1357C19.8451 20.8984 19.3761 20.9798 19.1387 21.3203L17.9014 23.0889L17.2832 22.4707C16.9895 22.1801 16.5113 22.177 16.2207 22.4707C15.9301 22.7645 15.9301 23.2395 16.2207 23.5332L17.4707 24.7832C17.6269 24.9392 17.8457 25.0139 18.0674 24.9951C18.2892 24.9763 18.4891 24.8609 18.6172 24.6797L20.3672 22.1797C20.6047 21.8422 20.5232 21.3732 20.1826 21.1357ZM24.002 22.002C23.4488 22.002 23.002 22.4488 23.002 23.002C23.0021 23.5549 23.4489 24.002 24.002 24.002H31.002C31.5548 24.0017 32.0018 23.5548 32.002 23.002C32.002 22.449 31.5549 22.0022 31.002 22.002H24.002ZM27 10C27.5304 10 28.039 10.2109 28.4141 10.5859C28.7891 10.961 29 11.4696 29 12V13C29 13.5304 28.7891 14.039 28.4141 14.4141C28.039 14.7891 27.5304 15 27 15H21C20.4717 15 19.9646 14.7913 19.5898 14.4189C19.2151 14.0465 19.0032 13.5401 19 13.0117V12C19 11.4696 19.2109 10.961 19.5859 10.5859C19.961 10.2109 20.4696 10 21 10H27Z" fill="black"/>
</svg>
