<svg width="48" height="48" viewBox="0 0 48 48" fill="none" xmlns="http://www.w3.org/2000/svg">
<rect width="48" height="48" rx="24" fill="#E0E1E5"/>
<path d="M9.6001 18.6002C9.6001 17.168 10.169 15.7945 11.1817 14.7818C12.1944 13.7691 13.5679 13.2002 15.0001 13.2002H24.0001C25.4323 13.2002 26.8058 13.7691 27.8185 14.7818C28.8312 15.7945 29.4001 17.168 29.4001 18.6002V29.4002C29.4001 30.8324 28.8312 32.2059 27.8185 33.2186C26.8058 34.2313 25.4323 34.8002 24.0001 34.8002H15.0001C13.5679 34.8002 12.1944 34.2313 11.1817 33.2186C10.169 32.2059 9.6001 30.8324 9.6001 29.4002V18.6002ZM34.8667 32.597L31.2001 30.0644V17.9342L34.8667 15.4034C35.2043 15.1704 35.5992 15.0341 36.0086 15.0093C36.4181 14.9845 36.8265 15.0721 37.1898 15.2626C37.553 15.4532 37.8573 15.7394 38.0697 16.0903C38.282 16.4413 38.3944 16.8436 38.3947 17.2538V30.7448C38.3948 31.1551 38.2826 31.5577 38.0704 31.9089C37.8581 32.2601 37.5539 32.5466 37.1906 32.7373C36.8272 32.9281 36.4187 33.0158 36.0091 32.9911C35.5995 32.9664 35.2044 32.8301 34.8667 32.597Z" fill="#1C1C1C"/>
</svg>
