<svg width="48" height="48" viewBox="0 0 48 48" fill="none" xmlns="http://www.w3.org/2000/svg">
<rect width="48" height="48" rx="24" fill="#E0E1E5"/>
<path opacity="0.9" d="M24.7368 32.8421C24.7368 31.4322 25.1078 30.0897 25.7529 28.9276C26.5797 27.4382 26.2592 25.1182 24.5689 24.9063C23.6865 24.7957 22.7576 24.7368 21.7895 24.7368C15.3053 24.7368 10 27.3895 10 30.6316V31.5659C10 32.6777 10.9013 33.5789 12.0131 33.5789H24C24.4069 33.5789 24.7368 33.2491 24.7368 32.8421ZM32.8421 27.6842C30.0421 27.6842 27.6842 30.0421 27.6842 32.8421C27.6842 35.6421 30.0421 38 32.8421 38C35.6421 38 38 35.6421 38 32.8421C38 30.0421 35.6421 27.6842 32.8421 27.6842ZM27.6842 15.8947C27.6842 19.1368 25.0316 21.7895 21.7895 21.7895C18.5474 21.7895 15.8947 19.1368 15.8947 15.8947C15.8947 12.6526 18.5474 10 21.7895 10C25.0316 10 27.6842 12.6526 27.6842 15.8947Z" fill="#1C1C1C"/>
</svg>
