<svg width="48" height="48" viewBox="0 0 48 48" fill="none" xmlns="http://www.w3.org/2000/svg">
<rect width="48" height="48" rx="24" fill="#E0E1E5"/>
<path opacity="0.9" d="M29.1628 23.6694C31.7937 23.6694 34.0571 21.3203 34.0571 18.2611C34.0571 15.2389 31.7818 13 29.1628 13C26.5445 13 24.2686 15.2878 24.2686 18.2856C24.2686 21.3203 26.532 23.6694 29.1628 23.6694ZM21.4668 34.9999H36.847C38.7679 34.9999 39.4534 34.449 39.4534 33.3721C39.4534 30.2153 35.5009 25.8595 29.1509 25.8595C22.8129 25.8595 18.8604 30.2153 18.8604 33.3727C18.8604 34.449 19.5453 34.9999 21.4668 34.9999Z" fill="#1C1C1C"/>
<path d="M16.0077 25.8209C17.8984 25.8209 19.5457 24.1127 19.5457 21.9068C19.5457 19.7216 17.888 18.105 16.0077 18.105C14.1174 18.105 12.4499 19.7622 12.4602 21.9275C12.4602 24.1127 14.107 25.8209 16.0082 25.8209M10.3359 35H14.879C16.2262 35 17.5541 33.1927 18.0411 31.9367C18.2458 31.4087 18.5328 30.8761 18.8855 30.3725C19.5417 29.4354 19.4774 28.0257 18.3794 27.7043C17.6746 27.4979 16.8848 27.3761 15.9978 27.3761C11.4132 27.3756 8.54663 30.7603 8.54663 33.5764C8.54663 34.4918 9.05482 35 10.3359 35Z" fill="#1C1C1C"/>
</svg>
