<svg width="48" height="48" viewBox="0 0 48 48" fill="none" xmlns="http://www.w3.org/2000/svg">
<rect width="48" height="48" rx="24" fill="#E0E1E5"/>
<path opacity="0.9" fill-rule="evenodd" clip-rule="evenodd" d="M17.4206 11.0311C18.0182 10.4543 18.7375 10.1666 19.578 10.168L27.1873 10.1807C28.0277 10.1821 28.7478 10.4733 29.3472 11.0549C29.9467 11.6366 30.2469 12.3353 30.2483 13.1508L30.2499 14.7467C30.251 15.8567 31.1504 16.7563 32.2604 16.7578L34.0212 16.7601C34.8615 16.7615 35.5812 17.053 36.1806 17.6346C36.78 18.2162 37.0808 18.9147 37.0822 19.7301L37.103 32.7424C37.1043 33.5578 36.8064 34.2556 36.2089 34.8353C35.6113 35.4151 34.8922 35.704 34.0517 35.7026L12.7917 35.6702C11.9514 35.6688 11.2317 35.3772 10.6323 34.7957C10.0329 34.2141 9.73212 33.5155 9.7307 32.7001L9.70982 19.6879C9.70849 18.8724 10.0064 18.1747 10.604 17.595C11.2016 17.0152 11.9207 16.7263 12.7611 16.7277L14.5125 16.7299C15.6262 16.7314 16.5294 15.8284 16.5282 14.7148L16.5266 13.1218C16.5253 12.3046 16.8231 11.6077 17.4206 11.0311ZM18.757 23.9378C17.6408 23.9396 16.7518 24.8702 16.7715 26.0169C16.7913 27.1635 17.7123 28.0918 18.8285 28.09L28.2957 28.0746C29.4118 28.0726 30.3006 27.1414 30.2809 25.9949C30.261 24.8485 29.3402 23.9207 28.2242 23.9223L18.757 23.9378ZM20.2499 13.1344C19.8813 13.134 19.5833 13.4342 19.5839 13.8049L19.5846 14.7292C19.5856 15.839 20.4845 16.7387 21.5944 16.7406L25.1773 16.7466C26.2911 16.7485 27.1948 15.8455 27.1937 14.7316L27.1929 13.8171C27.1922 13.4464 26.8932 13.1455 26.5246 13.1449L20.2499 13.1344Z" fill="#1C1C1C"/>
</svg>
