<svg width="86" height="85" viewBox="0 0 86 85" fill="none" xmlns="http://www.w3.org/2000/svg">
<g filter="url(#filter0_ii_62_2750)">
<path fill-rule="evenodd" clip-rule="evenodd" d="M42.1612 0.677527C42.9133 -0.225903 44.3005 -0.225927 45.0526 0.677479L46.0294 1.85072C46.0294 1.85075 46.0294 1.85077 46.0295 1.85077C46.0296 1.85077 46.0296 1.85089 46.0296 1.85097L44.5267 3.75075C44.0572 4.34419 43.1569 4.34418 42.6875 3.75073L42.1316 3.04803C41.5797 2.35028 41.5921 1.36127 42.1612 0.677527ZM65.3923 11.7704C65.3923 11.7704 65.3922 11.7703 65.3922 11.7703C65.259 11.3282 69.6242 11.3173 69.6242 14.1292C69.6242 15.0628 68.9834 15.753 68.3366 16.4496C67.6778 17.1591 67.0129 17.8753 67.0129 18.8622C67.0129 19.1757 67.1256 19.4604 67.2854 19.699C67.6443 20.2349 67.9574 19.3571 68.3482 18.844C68.9621 18.0379 70.5996 17.0529 71.0788 16.16C71.3018 15.7446 71.6011 15.421 71.8804 15.119C72.3602 14.6004 72.7807 14.1458 72.6533 13.3997C72.5124 12.5715 71.364 12.4033 70.2517 12.2405C69.5467 12.1372 68.8562 12.0361 68.4461 11.7704C67.946 11.4464 67.4215 10.8727 66.8935 10.2951C66.1875 9.52277 65.4751 8.74354 64.8062 8.545C62.989 8.00561 64.111 11.363 64.2608 13.2527C64.4074 15.1018 63.0899 16.7926 60.9579 16.9765C60.7422 16.9951 60.5609 17.1825 60.564 17.3989C60.5659 17.5362 60.6665 17.5962 60.8033 17.5856C64.7603 17.2789 66.1339 14.225 65.3924 11.7704C65.3924 11.7704 65.3924 11.7704 65.3923 11.7704ZM53.7833 18.8563C58.2252 18.841 62.4135 18.8265 62.9431 21.7839C62.9431 21.7839 62.9431 21.7839 62.9431 21.7839C62.9431 21.7839 62.9431 21.7839 62.9431 21.7839C63.098 22.6466 62.7929 23.8856 62.3887 24.5375C62.29 24.6968 62.069 24.6443 61.9788 24.4801C61.7308 24.0289 61.1757 23.3882 60.0444 23.209C52.3711 21.9985 45.9644 34.3464 51.749 39.3389C51.8357 39.4147 51.7859 39.5549 51.6679 39.5549H40.123C40.1039 39.5527 40.0848 39.5528 40.0658 39.5549H34.3302C34.2107 39.5549 34.1613 39.4147 34.2494 39.3389C40.0323 34.3464 33.6258 21.9985 25.9523 23.209C24.6699 23.4123 22.997 23.5392 23.012 22.2408C23.0138 22.0811 23.0267 21.9273 23.0522 21.784C23.5827 18.8265 27.7715 18.841 32.2136 18.8563C34.0302 18.8626 35.8891 18.869 37.5575 18.6723C38.9578 18.5073 40.1055 19.4969 39.2416 20.6112C38.9621 20.9717 38.6429 21.3179 38.3027 21.6283C37.6939 22.1836 37.2808 22.9352 37.8273 23.552C38.7794 24.6266 47.2175 24.6267 48.1696 23.5521C48.7162 22.9352 48.3031 22.1836 47.6943 21.6281C47.3545 21.3181 47.0357 20.9722 46.7566 20.6121C45.8926 19.4978 47.0404 18.5076 48.4407 18.6725C50.1088 18.869 51.9672 18.8626 53.7833 18.8563ZM39.5722 53.7598C39.7239 53.39 39.8776 53.0756 40.0117 52.8409C40.2162 52.4818 40.2162 52.2172 40.0969 51.8443C40.0286 51.632 39.979 51.4275 39.9482 51.2317C39.8757 50.7714 39.6569 50.6266 39.5739 51.0851C39.5604 51.1597 39.5465 51.2368 39.5309 51.3149C39.3661 52.1419 38.6932 51.4824 38.2307 50.7773C37.6868 49.9427 37.7023 49.2043 38.2234 48.7686C38.631 48.4285 39.3921 48.5154 40.0378 48.9133C40.326 49.0909 40.744 49.0979 41.0564 48.9676C41.2424 48.8901 41.4496 48.8275 41.6478 48.7838C41.8702 48.7348 42.0095 48.4343 41.9761 48.209C41.9494 48.0288 41.8067 47.8591 41.6246 47.851C40.294 47.7919 38.3996 46.9171 38.3996 45.6332C38.3996 45.265 38.595 44.9282 38.8919 44.6347C39.8222 43.7148 40.6613 42.4679 40.2525 41.225L39.8397 39.9699C39.8397 39.9698 39.8397 39.9697 39.8398 39.9696C39.8399 39.9695 39.8399 39.9694 39.8399 39.9693C39.7683 39.734 39.9083 39.5725 40.0658 39.5549H40.123C40.2186 39.5657 40.312 39.6315 40.3612 39.7676L41.6238 43.5587C41.3774 43.5838 41.2407 43.829 41.3105 44.0667L45.636 58.7976C45.7929 59.3321 46.4186 59.5718 46.833 59.1996C47.0671 59.9026 46.7537 60.67 46.0318 60.8369C45.2173 61.0252 44.1918 61.1202 43.1725 61.0006C41.1026 60.7577 37.5476 60.0244 37.5476 57.9403C37.5476 57.7863 37.5807 57.5218 37.6482 57.2491C37.647 57.326 37.652 57.3995 37.6635 57.4694C37.6635 57.4694 37.6636 57.4695 37.6636 57.4695C37.6637 57.4695 37.6637 57.4695 37.6637 57.4694C37.8033 57.3599 37.9691 57.2619 38.1547 57.1751C38.1573 57.2592 38.1711 57.329 38.1951 57.3866C38.3438 57.7437 38.7922 57.3196 38.8132 56.9334C39.0666 56.8606 39.3368 56.8019 39.6136 56.7567C40.1505 56.669 40.5939 55.8458 40.4779 55.3142C40.3939 54.9294 40.3481 54.5097 40.3425 54.0988C40.3377 53.7507 39.7945 53.4918 39.5722 53.7598ZM38.8132 56.9334C38.8756 55.7817 39.2188 54.6208 39.5722 53.7598C38.4575 55.1035 37.6623 56.3878 37.6482 57.2491C37.7066 57.0133 37.7907 56.7714 37.9014 56.5892C38.1172 56.2329 38.2804 56.4392 38.2124 56.7284C38.1695 56.91 38.1511 57.0568 38.1547 57.1751C38.3542 57.0818 38.5764 57.0015 38.8132 56.9334ZM46.833 59.1996C47.722 58.4013 48.3098 57.3699 48.3098 56.2817C48.3098 55.5335 47.7607 55.4016 47.1767 55.6332C46.7373 55.8074 46.0603 55.6127 45.9926 55.1448L45.9925 55.1443L45.9924 55.144C45.8391 54.0846 45.6922 53.0692 45.5358 52.0561C45.4764 51.6669 45.6356 51.5273 45.8874 51.4099C45.8875 51.4099 45.8875 51.4098 45.8874 51.4097C45.8874 51.4097 45.8874 51.4096 45.8874 51.4096C46.7334 51.0207 48.0587 51.3357 48.0136 52.8509C48.0028 53.1941 48.3911 53.1941 48.4191 52.8434C48.6228 51.0179 47.8626 50.238 46.8845 50.1415C46.4754 50.1012 46.0773 49.8605 45.9959 49.4576L45.9958 49.4571L45.9956 49.4564C45.8965 48.9655 45.8036 48.5059 45.7024 48.0489C45.5832 47.5023 45.5393 46.4755 46.0494 46.4755C46.2905 46.4755 46.2352 47.2094 46.2007 47.6677L46.2007 47.6678C46.1958 47.7324 46.1914 47.7915 46.1882 47.8423C46.165 48.2034 46.2697 48.4218 46.5059 48.4322C46.6532 48.4396 46.8371 48.2065 46.9466 48.0517C47.6867 47.0132 47.8583 45.4058 46.9916 44.6303C46.5427 44.2274 45.6758 44.2595 44.9619 44.5623C44.5421 44.7404 43.601 44.5896 43.3424 44.2139C43.1746 43.9691 43.1308 43.8011 43.3632 43.5857C43.4728 43.4817 43.8039 43.0732 43.8039 42.6512C43.8039 42.4016 43.6481 41.9409 43.1527 41.9409C42.762 41.9409 42.3275 42.2768 42.3275 43.0255C42.3275 43.2566 42.1251 43.5301 41.8943 43.5395C41.8049 43.5432 41.7132 43.5495 41.6238 43.5587L46.833 59.1996ZM56.3503 24.3417C55.3133 24.6619 55.7671 26.0562 56.7749 26.4588C57.2582 26.6519 57.7247 26.9352 58.1403 27.332C58.1402 27.3319 58.1401 27.3317 58.1401 27.3316C58.14 26.0728 57.3107 24.9309 56.7892 24.4817C56.6263 24.3414 56.5558 24.2782 56.3503 24.3417ZM18.9843 18.8624C18.9843 19.9666 18.313 18.7984 17.2281 18.5933C16.4991 18.4554 15.3287 19.1815 14.8805 19.5319C14.8805 19.5319 14.8805 19.5319 14.8805 19.5319C14.8804 19.5319 14.8804 19.5319 14.8804 19.5318C15.7978 16.9362 14.8822 15.9462 14.1171 15.1189C13.6375 14.6004 13.2171 14.1458 13.344 13.3999C13.4849 12.5717 14.6333 12.4036 15.7455 12.2407C16.4506 12.1375 17.1412 12.0364 17.5512 11.7705C18.0513 11.4466 18.5758 10.8728 19.1038 10.2952C19.81 9.52271 20.5226 8.74323 21.1917 8.54499C23.0089 8.00656 21.8869 11.3632 21.7374 13.2526C21.591 15.1028 22.9097 16.7946 25.043 16.9769C25.2567 16.9952 25.4361 17.1798 25.4337 17.3942C25.4321 17.5332 25.3304 17.5963 25.1918 17.5855C21.2377 17.2774 19.8649 14.2242 20.6048 11.7705C20.7386 11.3284 16.3729 11.3172 16.3729 14.1293C16.3729 15.063 17.0137 15.7532 17.6605 16.4497C18.3193 17.1593 18.9843 17.8755 18.9843 18.8624ZM27.8594 27.3322C28.2757 26.935 28.743 26.6517 29.2269 26.4586C30.2362 26.0558 30.6895 24.6634 29.6513 24.3421C29.4452 24.2783 29.3746 24.3418 29.2112 24.4826C28.6893 24.9322 27.8596 26.0736 27.8595 27.3318C27.8595 27.332 27.8595 27.3321 27.8594 27.3322ZM58.1414 8.52373C58.1414 8.52376 58.1413 8.52377 58.1413 8.52375L58.1413 8.52373L58.1413 8.52371C58.1413 8.52369 58.1414 8.5237 58.1414 8.52373ZM58.1413 8.52373L57.4808 7.6452C56.9024 6.87579 55.7477 6.87608 55.1696 7.64576C54.7798 8.16474 54.7838 8.87989 55.1792 9.39454C55.7577 10.1473 56.8924 10.1475 57.4711 9.39505L58.1413 8.52373ZM69.0432 62.4044L69.0433 62.4044C69.0433 62.4044 69.0434 62.4044 69.0434 62.4044C69.0434 62.4043 69.0433 62.4043 69.0433 62.4043L69.0432 62.4044ZM65.3893 61.1531C66.0594 60.4491 67.1822 60.4491 67.8523 61.1531L69.0432 62.4044L67.7729 63.5752C67.122 64.1752 66.1196 64.1752 65.4687 63.5753C64.7704 62.9318 64.7346 61.841 65.3893 61.1531ZM31.4919 8.52373C31.4919 8.52373 31.4919 8.52367 31.4919 8.52363L30.4005 7.07202C30.0376 6.5894 29.3133 6.58959 28.9507 7.07239L28.5201 7.64568C28.1303 8.16466 28.1342 8.87982 28.5297 9.39448C29.1081 10.1473 30.2428 10.1475 30.8216 9.39504L31.4918 8.52376C31.4918 8.52374 31.4918 8.52373 31.4919 8.52373ZM32.8097 18.0526L29.3461 18.0526C27.8802 18.0526 26.2942 17.4757 25.7558 16.1123C25.0088 14.2191 25.6539 13.1529 26.8479 12.8284C27.3924 12.6804 27.9489 12.9227 28.3774 13.2897C29.2628 14.0482 30.5689 14.0482 31.4543 13.2897C31.8828 12.9227 32.4393 12.6804 32.9838 12.8283C34.178 13.1528 34.823 14.2191 34.0762 16.1123C33.8938 16.5753 34.204 17.0919 34.6775 16.9389C36.1257 16.4707 37.597 15.4923 38.321 13.8691C38.6186 13.202 38.4373 12.4431 38.0464 11.826C37.5804 11.0903 36.9865 10.1132 36.7684 9.58357C35.6688 6.92177 36.5788 5.52372 38.3029 5.07618C39.1722 4.85054 40.0443 5.29496 40.6451 5.96248C41.9035 7.36069 44.0961 7.36064 45.3545 5.96248C45.9553 5.29498 46.8275 4.85054 47.6968 5.07619C49.421 5.52375 50.3311 6.92187 49.2327 9.58357C49.0141 10.1125 48.4213 11.0881 47.9558 11.8235C47.5641 12.4421 47.3823 13.2028 47.6807 13.8714C48.4045 15.4932 49.8749 16.4709 51.3223 16.9388C51.7969 17.0922 52.1064 16.5763 51.9237 16.1122C51.1756 14.2192 51.8221 13.153 53.0157 12.8283C53.5602 12.6802 54.1168 12.9226 54.5453 13.2896C55.4308 14.048 56.7369 14.048 57.6224 13.2896C58.0509 12.9226 58.6075 12.6802 59.152 12.8283C60.3456 13.153 60.9922 14.2192 60.244 16.1122C59.7059 17.4751 58.1214 18.0527 56.6561 18.0527H53.1916C49.7924 18.0527 47.7003 16.6761 46.5222 15.0119C45.6782 13.8197 44.4612 12.7832 43.0006 12.7832C41.5399 12.7832 40.3228 13.8198 39.4787 15.0118C38.3002 16.676 36.2075 18.0526 32.8097 18.0526ZM85.0981 34.4783C85.0981 34.4785 85.098 34.4786 85.0979 34.4786C84.0676 35.0084 78.1727 37.8141 70.5366 36.9741C70.1646 36.9331 69.916 36.5773 69.9802 36.2086C70.0301 35.9228 70.258 35.6993 70.5458 35.663C75.6259 35.022 79.7574 34.1177 82.4201 32.6134C85.5518 30.8431 86.9212 26.6172 85.3404 23.4731C85.2995 23.3938 85.1861 23.3797 85.1294 23.446C84.292 24.4252 79.1723 30.0832 71.0778 32.1479C70.6391 32.2598 70.2165 31.9348 70.1706 31.4843C70.1405 31.1892 70.2814 30.9011 70.5377 30.7517C74.5552 28.4093 78.416 25.745 80.2881 23.3016C83.2171 19.4777 82.9476 14.6003 80.1606 12.1134C80.1317 12.0882 80.0934 12.0768 80.0557 12.0823C80.0179 12.0877 79.9843 12.1094 79.9634 12.1418C79.0818 13.6188 70.8282 27.1678 61.7665 33.0168C61.6559 33.0886 61.5444 33.159 61.432 33.2279C61.1725 33.388 61.1442 33.7306 61.3654 33.9346C62.41 34.8962 63.0594 36.2345 63.0594 37.7202C63.0594 40.3033 61.0988 42.4517 58.5073 42.9176C57.1902 43.1767 55.289 43.1016 53.4631 42.4886C53.3809 42.4616 53.2959 42.5168 53.2959 42.6004V50.7821C53.2959 50.9136 53.4931 50.9462 53.5397 50.8199C53.9412 49.7395 54.6324 48.9669 55.4199 48.4207C57.4325 47.0249 59.6275 49.0075 60.4401 51.3181C60.9032 52.6349 61.4617 53.7137 62.0966 54.4584C64.0726 56.7711 67.2994 56.7386 68.6987 55.1396C68.7218 55.1131 68.7317 55.0774 68.7256 55.0426C68.7195 55.0078 68.698 54.9777 68.6674 54.961C67.8772 54.4998 63.501 51.7723 62.3262 47.293C62.2439 46.9791 62.4302 46.6637 62.7303 46.54C63.047 46.4095 63.4165 46.5182 63.6013 46.8066C65.0991 49.1447 67.1313 51.1738 68.7893 51.9828C71.7778 53.4389 74.5138 52.7306 75.7273 50.5992C75.7713 50.5241 75.7175 50.4306 75.6281 50.4222C73.8491 50.2777 68.5279 48.7429 65.9767 45.0417C65.8017 44.7879 65.8522 44.4493 66.0698 44.2309C66.3128 43.987 66.7013 43.9489 66.9801 44.1509C69.4642 45.951 72.753 47.4886 75.1505 47.819C78.1444 48.2326 81.537 47.2624 81.6193 43.7262C81.6207 43.6552 81.5583 43.5972 81.4847 43.6017C80.4568 43.6644 73.8535 43.957 68.8798 41.3434C68.5803 41.1859 68.4747 40.8155 68.6191 40.5094C68.7508 40.2302 69.0576 40.0746 69.3589 40.1417C71.1312 40.5365 76.993 41.749 80.0215 41.2405C83.5941 40.6416 85.6866 37.9366 85.2825 34.5718C85.2712 34.488 85.175 34.4386 85.0984 34.478C85.0983 34.4781 85.0982 34.4782 85.0981 34.4783ZM16.8257 41.4954C17.2948 41.2625 17.4564 40.6883 17.2422 40.2104C17.2145 40.1485 17.1871 40.0864 17.1601 40.0241C17.1601 40.0241 17.1601 40.024 17.1601 40.024C17.1601 40.0238 17.1602 40.0236 17.1601 40.0237C17.1527 40.0254 9.57094 41.8448 5.97893 41.2416C2.40635 40.6426 0.315539 37.9404 0.717925 34.5754C0.727785 34.4905 0.824251 34.4394 0.903663 34.4804C1.94151 35.0142 7.83404 37.8137 15.4624 36.9746C15.8343 36.9337 16.083 36.5779 16.0188 36.2092C15.969 35.9234 15.741 35.6999 15.4532 35.6636C10.373 35.0226 6.24157 34.1182 3.57887 32.6139C0.449979 30.8436 -0.919334 26.6203 0.658234 23.4748C0.697806 23.3955 0.814258 23.3813 0.872351 23.4507C1.71806 24.4364 6.83347 30.085 14.9206 32.1482C15.3595 32.2601 15.7822 31.9348 15.8276 31.4842C15.8574 31.1895 15.7165 30.9019 15.4606 30.7527C11.4439 28.4101 7.58312 25.7456 5.71085 23.3021C2.78195 19.4796 3.0527 14.6035 5.83556 12.1151C5.89658 12.0614 5.99571 12.0755 6.03702 12.1449C6.92587 13.6321 15.1753 27.1715 24.2314 33.0176C24.343 33.0894 24.4555 33.1597 24.5688 33.2287C24.8269 33.3886 24.8566 33.7314 24.6341 33.934C23.5907 34.8956 22.94 36.2353 22.94 37.7212C22.94 40.3045 24.9007 42.4529 27.4935 42.9187C28.8092 43.178 30.7102 43.1027 32.5362 42.4897C32.6184 42.4628 32.7047 42.518 32.7047 42.6015V50.7833C32.7047 50.9148 32.5078 50.9476 32.4595 50.8214C32.0579 49.7409 31.3669 48.9682 30.5795 48.4221C28.5669 47.0261 26.372 49.0089 25.5598 51.3197C25.097 52.6363 24.539 53.7151 23.9039 54.4598C21.9279 56.7725 18.6998 56.7401 17.3005 55.141C17.2778 55.1145 17.2681 55.0788 17.2741 55.0442C17.2802 55.0095 17.3013 54.9794 17.3317 54.9624C18.1221 54.5012 22.4983 51.7736 23.6729 47.2942C23.7553 46.9802 23.57 46.665 23.2699 46.5413C22.9532 46.4108 22.5832 46.5194 22.3984 46.8078C20.9004 49.1459 18.8682 51.1751 17.2114 51.9842C14.2215 53.4401 11.4854 52.732 10.2718 50.6006C10.2292 50.5255 10.2817 50.432 10.3709 50.4236C12.15 50.279 17.4695 48.7442 20.0218 45.0436C20.1971 44.7895 20.1471 44.4507 19.9294 44.2319C19.6868 43.9879 19.2985 43.95 19.0198 44.1519C16.5355 45.9522 13.2452 47.4901 10.8486 47.8206C7.85469 48.234 4.46372 47.264 4.37977 43.729C4.37844 43.6596 4.4408 43.5987 4.51595 43.6032C5.52752 43.6659 11.8913 43.9459 16.8257 41.4954ZM67.5221 65.8802C67.5221 65.8801 67.522 65.88 67.522 65.88L66.2509 64.8854C65.3478 64.1787 64.0254 64.0621 63.3292 64.9733C62.645 65.8687 61.7833 66.7073 60.6648 66.5694C58.7403 66.3322 56.4357 65.6715 56.7561 65.1888C59.9112 60.7758 59.5362 57.4949 57.6734 55.7429C55.7654 53.9486 53.3514 56.3698 53.3514 58.9889C53.3514 60.4902 52.0338 61.7068 50.4107 61.7068H47.2517C45.1146 61.7068 41.906 61.7068 39.7689 61.7068H36.6096C34.9855 61.7068 33.6706 60.4902 33.6706 58.9889C33.6706 56.3699 31.2571 53.949 29.3485 55.7425C27.4842 57.4943 27.1079 60.7755 30.2643 65.1889C30.6034 65.6993 27.8734 66.4478 25.6093 66.6339C24.4695 66.7276 23.4399 66.0466 22.331 65.7669C22.068 65.7006 21.7911 65.6652 21.5048 65.6652C20.779 65.6654 20.0137 65.5605 19.485 65.0632C17.4798 63.1773 12.5972 58.5896 11.7186 57.807C11.6437 57.7403 11.6153 57.6213 11.6551 57.5293C12.0364 56.82 11.2846 54.2257 10.9888 53.4767C10.7201 52.7961 10.175 52.1299 9.20724 51.7317C8.85021 51.5847 8.51144 52.1043 8.53644 52.4896C8.56398 52.914 8.09441 53.0173 7.69072 52.8834C6.897 52.6199 5.75068 52.4172 5.03416 53.0793C4.41559 53.8076 4.67494 54.8881 4.98707 55.6447C5.15229 56.0452 5.07824 56.5354 4.64497 56.535C4.25504 56.5346 3.75658 56.912 3.93564 57.2584C4.40892 58.174 5.12784 58.6588 5.84128 58.873C6.63077 59.11 9.28855 59.6799 9.9969 59.2583C10.2263 59.1478 10.5178 59.1926 10.7022 59.3681C11.7584 60.3738 15.2562 63.6642 17.3062 65.5915C18.1911 66.4235 18.1949 67.8441 18.3984 69.0415C18.5972 70.2027 19.5701 71.1651 20.8125 71.415C22.2393 71.6999 23.9059 71.7092 24.975 72.6961L25.3943 73.0832C25.5919 73.261 25.8588 73.3719 26.1567 73.3512C26.6992 73.315 27.1053 72.8775 27.0642 72.3762C27.0471 72.1498 26.9308 71.9555 26.7702 71.8082C25.706 70.6385 25.785 68.9036 27.2878 68.4113C28.9512 67.8666 30.8822 67.5361 32.6001 67.5361C33.0985 67.5361 33.3327 67.1167 33.161 66.7054C31.8759 63.6318 34.6391 61.4057 37.4973 63.2181C37.6408 63.309 37.7845 63.4101 37.928 63.5218C40.288 65.3582 38.3848 68.7663 35.6978 70.0786C32.6377 71.5733 29.9569 73.6275 29.1954 75.7984C28.7367 77.1095 30.2518 78.8968 32.0919 79.2567C32.1245 79.2639 32.1586 79.2578 32.1866 79.2397C32.2146 79.2217 32.2342 79.1933 32.241 79.1608C33.1704 74.2601 38.3244 70.5666 41.2437 69.7464C41.411 69.6993 41.5826 69.7931 41.6436 69.9559C41.6645 70.0118 41.6797 70.0524 41.7148 70.1457C41.75 70.2389 41.7079 70.3431 41.6183 70.3869C38.5683 71.8771 35.6427 74.9162 34.7968 78.5174C34.4021 80.1952 36.2835 81.7077 37.8368 82.1218C37.9149 82.1425 37.9916 82.0883 37.9959 82.0133C38.2571 77.916 39.8963 74.365 41.5465 72.3602C41.7998 72.0525 42.2662 72.2088 42.2975 72.6061C42.3028 72.6741 42.2945 72.7391 42.272 72.8035C42.0196 73.5246 40.4183 78.239 40.4183 81.7536C40.4183 82.6269 41.0604 83.3705 41.7594 83.9212C42.7632 84.712 44.1718 84.7381 45.191 83.9672C45.9248 83.4122 46.6033 82.6515 46.6033 81.7536C46.6033 78.2395 45.0025 73.5262 44.7497 72.8039C44.7271 72.7392 44.7188 72.674 44.7242 72.6057C44.756 72.2083 45.2226 72.0523 45.476 72.3602C47.1256 74.3647 48.7657 77.9145 49.0257 82.0118C49.0299 82.0869 49.108 82.1425 49.1845 82.1216C50.7394 81.7078 52.6195 80.1954 52.2261 78.5177C51.3879 74.9557 48.5182 71.9438 45.5044 70.4365C45.3589 70.3638 45.2893 70.1938 45.3461 70.0414C45.4248 69.8295 45.647 69.7072 45.8638 69.7713C48.7983 70.6387 53.8602 74.3077 54.7804 79.1607C54.7874 79.1931 54.807 79.2214 54.835 79.2394C54.863 79.2574 54.897 79.2636 54.9296 79.2566C56.7683 78.897 58.2861 77.1094 57.8247 75.7985C57.0652 73.6282 54.3855 71.5744 51.326 70.0798C48.6383 68.7669 46.735 65.3569 49.0962 63.5206C49.2392 63.4095 49.3824 63.3088 49.5253 63.2182C52.3822 61.4058 55.1453 63.6322 53.8603 66.7057C53.6884 67.1167 53.9213 67.5361 54.4212 67.5361C57.3963 67.5361 61.0112 68.5272 62.7689 69.9036C63.0328 70.1103 63.235 70.3805 63.4493 70.6381C64.4944 71.8945 66.1892 72.6614 68.079 72.4762C70.4473 72.2458 72.3785 70.4762 72.6454 68.289C72.8341 66.7351 72.2148 65.31 71.127 64.3266C70.663 63.9072 69.9686 63.9674 69.4759 64.3527L67.5226 65.8804C67.5224 65.8805 67.5221 65.8804 67.5221 65.8802Z" fill="#E0E1E5"/>
</g>
<defs>
<filter id="filter0_ii_62_2750" x="-2.91012" y="-2.65113" width="92.3117" height="90.1751" filterUnits="userSpaceOnUse" color-interpolation-filters="sRGB">
<feFlood flood-opacity="0" result="BackgroundImageFix"/>
<feBlend mode="normal" in="SourceGraphic" in2="BackgroundImageFix" result="shape"/>
<feColorMatrix in="SourceAlpha" type="matrix" values="0 0 0 0 0 0 0 0 0 0 0 0 0 0 0 0 0 0 127 0" result="hardAlpha"/>
<feOffset dx="-2.91012" dy="-2.65113"/>
<feGaussianBlur stdDeviation="3.79928"/>
<feComposite in2="hardAlpha" operator="arithmetic" k2="-1" k3="1"/>
<feColorMatrix type="matrix" values="0 0 0 0 0.98903 0 0 0 0 0.98903 0 0 0 0 0.98903 0 0 0 1 0"/>
<feBlend mode="normal" in2="shape" result="effect1_innerShadow_62_2750"/>
<feColorMatrix in="SourceAlpha" type="matrix" values="0 0 0 0 0 0 0 0 0 0 0 0 0 0 0 0 0 0 127 0" result="hardAlpha"/>
<feOffset dx="3.40113" dy="2.99395"/>
<feGaussianBlur stdDeviation="2.31133"/>
<feComposite in2="hardAlpha" operator="arithmetic" k2="-1" k3="1"/>
<feColorMatrix type="matrix" values="0 0 0 0 0.550342 0 0 0 0 0.550342 0 0 0 0 0.550342 0 0 0 0.27 0"/>
<feBlend mode="normal" in2="effect1_innerShadow_62_2750" result="effect2_innerShadow_62_2750"/>
</filter>
</defs>
</svg>
