<svg width="48" height="48" viewBox="0 0 48 48" fill="none" xmlns="http://www.w3.org/2000/svg">
    <rect width="48" height="48" rx="24" fill="#E0E1E5"/>
    <path d="M28.167 27.5C30.2887 27.5 32.3236 26.6571 33.8238 25.1569C35.3241 23.6566 36.167 21.6217 36.167 19.5C36.167 17.3783 35.3241 15.3434 33.8238 13.8431C32.3236 12.3429 30.2887 11.5 28.167 11.5H20.667C20.2692 11.5 19.8876 11.658 19.6063 11.9393C19.325 12.2206 19.167 12.6022 19.167 13V24.5H16.667C16.2692 24.5 15.8876 24.658 15.6063 24.9393C15.325 25.2206 15.167 25.6022 15.167 26C15.167 26.3978 15.325 26.7794 15.6063 27.0607C15.8876 27.342 16.2692 27.5 16.667 27.5H19.167V29.5H16.667C16.2692 29.5 15.8876 29.658 15.6063 29.9393C15.325 30.2206 15.167 30.6022 15.167 31C15.167 31.3978 15.325 31.7794 15.6063 32.0607C15.8876 32.342 16.2692 32.5 16.667 32.5H19.167V35C19.167 35.3978 19.325 35.7794 19.6063 36.0607C19.8876 36.342 20.2692 36.5 20.667 36.5C21.0648 36.5 21.4463 36.342 21.7277 36.0607C22.009 35.7794 22.167 35.3978 22.167 35V32.5H27.667C28.0648 32.5 28.4463 32.342 28.7277 32.0607C29.009 31.7794 29.167 31.3978 29.167 31C29.167 30.6022 29.009 30.2206 28.7277 29.9393C28.4463 29.658 28.0648 29.5 27.667 29.5H22.167V27.5H28.167ZM22.167 14.5H28.167C29.4931 14.5 30.7648 15.0268 31.7025 15.9645C32.6402 16.9021 33.167 18.1739 33.167 19.5C33.167 20.8261 32.6402 22.0979 31.7025 23.0355C30.7648 23.9732 29.4931 24.5 28.167 24.5H22.167V14.5Z" fill="black"/>
</svg>
