<svg width="66" height="76" viewBox="0 0 66 76" fill="none" xmlns="http://www.w3.org/2000/svg">
<g filter="url(#filter0_ii_62_2725)">
<path fill-rule="evenodd" clip-rule="evenodd" d="M60.3711 22.3711C61.8842 23.8837 63.0843 25.6796 63.9031 27.6561C64.7218 29.6327 65.1431 31.7512 65.1429 33.8906V59.7143C65.1429 64.0335 63.4271 68.1759 60.3729 71.23C57.3187 74.2842 53.1764 76 48.8571 76H16.2857C11.9665 76 7.82414 74.2842 4.76998 71.23C1.71581 68.1759 0 64.0335 0 59.7143V16.2857C0 11.9665 1.71581 7.82414 4.76998 4.76998C7.82414 1.71581 11.9665 1.16839e-07 16.2857 1.16839e-07H31.2523C33.3917 -0.000256142 35.5102 0.421025 37.4867 1.23977C39.4633 2.05852 41.2592 3.25869 42.7717 4.77171L60.3711 22.3711ZM27.5455 20C26.4605 20 25.4199 20.432 24.6527 21.2009C23.8855 21.9698 23.4545 23.0126 23.4545 24.1V34.0333C23.4545 34.5856 23.0068 35.0333 22.4545 35.0333H22.0909C21.0059 35.0333 19.9654 35.4653 19.1982 36.2342C18.431 37.0031 18 38.0459 18 39.1333C18 40.2207 18.431 41.2636 19.1982 42.0325C19.9654 42.8014 21.0059 43.2333 22.0909 43.2333H22.4545C23.0068 43.2333 23.4545 43.681 23.4545 44.2333V46.3333C23.4545 46.8856 23.0068 47.3333 22.4545 47.3333H22.0909C21.0059 47.3333 19.9654 47.7653 19.1982 48.5342C18.431 49.3031 18 50.3459 18 51.4333C18 52.5207 18.431 53.5636 19.1982 54.3325C19.9654 55.1014 21.0059 55.5333 22.0909 55.5333H22.4545C23.0068 55.5333 23.4545 55.981 23.4545 56.5333V56.9C23.4545 57.9874 23.8855 59.0302 24.6527 59.7991C25.4199 60.568 26.4605 61 27.5455 61C28.6304 61 29.671 60.568 30.4382 59.7991C31.2054 59.0302 31.6364 57.9874 31.6364 56.9V56.5333C31.6364 55.981 32.0841 55.5333 32.6364 55.5333H35.7273C36.8122 55.5333 37.8528 55.1014 38.62 54.3325C39.3872 53.5636 39.8182 52.5207 39.8182 51.4333C39.8182 50.3459 39.3872 49.3031 38.62 48.5342C37.8528 47.7653 36.8122 47.3333 35.7273 47.3333H32.6364C32.0841 47.3333 31.6364 46.8856 31.6364 46.3333V44.2333C31.6364 43.681 32.0841 43.2333 32.6364 43.2333H36.4091C39.4832 43.2333 42.4314 42.0094 44.6051 39.8309C46.7788 37.6523 48 34.6976 48 31.6167C48 28.5357 46.7788 25.581 44.6051 23.4024C42.4314 21.2239 39.4832 20 36.4091 20H27.5455ZM36.4091 35.0333H32.6364C32.0841 35.0333 31.6364 34.5856 31.6364 34.0333V29.2C31.6364 28.6477 32.0841 28.2 32.6364 28.2H36.4091C37.3132 28.2 38.1804 28.56 38.8197 29.2007C39.459 29.8415 39.8182 30.7105 39.8182 31.6167C39.8182 32.5228 39.459 33.3919 38.8197 34.0326C38.1804 34.6734 37.3132 35.0333 36.4091 35.0333Z" fill="#E0E1E5"/>
</g>
<defs>
<filter id="filter0_ii_62_2725" x="-2.25683" y="-2.05598" width="70.0373" height="80.3778" filterUnits="userSpaceOnUse" color-interpolation-filters="sRGB">
<feFlood flood-opacity="0" result="BackgroundImageFix"/>
<feBlend mode="normal" in="SourceGraphic" in2="BackgroundImageFix" result="shape"/>
<feColorMatrix in="SourceAlpha" type="matrix" values="0 0 0 0 0 0 0 0 0 0 0 0 0 0 0 0 0 0 127 0" result="hardAlpha"/>
<feOffset dx="-2.25683" dy="-2.05598"/>
<feGaussianBlur stdDeviation="2.94638"/>
<feComposite in2="hardAlpha" operator="arithmetic" k2="-1" k3="1"/>
<feColorMatrix type="matrix" values="0 0 0 0 0.98903 0 0 0 0 0.98903 0 0 0 0 0.98903 0 0 0 1 0"/>
<feBlend mode="normal" in2="shape" result="effect1_innerShadow_62_2725"/>
<feColorMatrix in="SourceAlpha" type="matrix" values="0 0 0 0 0 0 0 0 0 0 0 0 0 0 0 0 0 0 127 0" result="hardAlpha"/>
<feOffset dx="2.63761" dy="2.32184"/>
<feGaussianBlur stdDeviation="1.79246"/>
<feComposite in2="hardAlpha" operator="arithmetic" k2="-1" k3="1"/>
<feColorMatrix type="matrix" values="0 0 0 0 0.550342 0 0 0 0 0.550342 0 0 0 0 0.550342 0 0 0 0.27 0"/>
<feBlend mode="normal" in2="effect1_innerShadow_62_2725" result="effect2_innerShadow_62_2725"/>
</filter>
</defs>
</svg>
