<svg width="102" height="90" viewBox="0 0 102 90" fill="none" xmlns="http://www.w3.org/2000/svg">
<g clip-path="url(#clip0_62_2743)">
<g filter="url(#filter0_ii_62_2743)">
<path d="M72.5453 13.9329C73.2878 14.423 73.3165 14.6993 73.4915 15.5386C73.5396 15.7955 73.5396 15.7955 73.5887 16.0577C73.6242 16.2424 73.6597 16.4271 73.6962 16.6174C73.8157 17.2608 73.9276 17.9052 74.0372 18.5504C74.0771 18.7842 74.1169 19.018 74.158 19.2588C75.6753 28.4412 75.8924 37.796 74.9584 47.0471C74.8906 47.7211 74.828 48.3953 74.7671 49.0699C74.2794 54.1641 73.1786 59.1769 71.7597 64.0876C70.3891 63.4311 69.0733 62.7282 67.7776 61.9351C65.8554 60.7795 63.8689 59.783 61.8473 58.8144C61.5064 58.6492 61.1671 58.4807 60.8296 58.3089C59.2018 57.4818 57.5246 56.7896 55.8352 56.099C55.5543 55.9828 55.2735 55.8666 54.9841 55.7469C54.0626 55.3687 53.1386 54.9977 52.2121 54.632C52.0342 54.5616 51.8563 54.4913 51.673 54.4188C48.6069 53.2156 45.5125 52.2516 42.3293 51.4102C41.9866 51.3184 41.9866 51.3184 41.6369 51.2248C37.7608 50.1908 33.8919 49.3932 29.9188 48.8383C29.2113 48.7192 28.5339 48.5471 27.8442 48.3507C26.737 43.7819 26.2698 39.118 26.8574 34.4406C26.8762 34.2778 26.895 34.115 26.9143 33.9473C27.1461 31.943 27.4719 29.9977 28.0691 28.0665C29.4785 27.723 30.8861 27.4991 32.3269 27.3463C46.3707 25.8492 60.3918 21.133 72.5453 13.9329Z" fill="#E0E1E5"/>
<path d="M41.3189 53.1555C41.5598 53.2203 41.8006 53.285 42.0488 53.3517C44.7344 54.0939 47.3711 54.9594 49.7398 56.4508C49.495 58.0657 48.9639 59.3398 48.0711 60.6886C45.225 65.001 44.0868 69.8709 44.7777 74.9696C44.8277 76.194 44.8202 77.1812 44.3723 78.3344C43.152 79.6478 41.9819 80.1008 40.227 80.263C38.5657 80.3226 36.9676 80.2678 35.6096 79.2118C33.3063 76.7944 32.5456 73.7669 32.0627 70.5702C32.0326 70.3796 32.0025 70.1889 31.9716 69.9925C31.7145 68.1609 31.7449 66.3583 31.794 64.5127C31.8006 64.211 31.8073 63.9092 31.8142 63.5984C31.8663 61.2455 31.8663 61.2455 31.9013 60.4803C31.9408 59.5112 31.8784 58.795 31.469 57.9129C31.3246 57.5979 31.3246 57.5979 31.1773 57.2765C30.1914 55.2184 30.1914 55.2184 29.0758 53.2302C28.873 52.8444 28.873 52.8444 28.997 52.3815C29.5256 51.7854 29.9047 51.7453 30.696 51.5962C31.6087 51.6124 32.5101 51.7039 33.4176 51.7982C33.6574 51.8206 33.8972 51.8429 34.1442 51.8659C36.5943 52.1037 38.9415 52.5164 41.3189 53.1555Z" fill="#E0E1E5"/>
<path d="M25.2126 28.5416C25.1744 28.7463 25.1744 28.7463 25.1355 28.9551C24.1068 34.531 23.6738 39.6704 24.5555 45.3132C24.5967 45.5907 24.6378 45.8681 24.6801 46.1539C24.7196 46.4053 24.7591 46.6567 24.7997 46.9158C24.8348 47.5444 24.8348 47.5444 24.4172 48.1769C16.8716 47.8735 16.8716 47.8735 14.4634 45.5097C12.317 43.1534 11.7516 40.9992 11.8019 37.8497C11.8048 37.6288 11.8077 37.408 11.8107 37.1804C11.9148 34.4988 12.5913 32.4886 14.5653 30.6111C16.8451 28.711 18.9076 28.2428 21.8477 28.1362C22.0963 28.1203 22.345 28.1044 22.6011 28.0881C24.289 27.9943 24.289 27.9943 25.2126 28.5416Z" fill="#E0E1E5"/>
<path d="M84.1751 18.494C86.1552 19.9099 87.4163 21.8685 88.6763 23.9179C88.8078 24.1239 88.9394 24.3299 89.075 24.5422C91.8344 29.0357 93.0589 34.4493 92.8872 39.6843C92.8793 40.1543 92.8793 40.1543 92.8712 40.6337C92.7065 44.3947 91.6687 48.2024 89.9554 51.5521C89.8869 51.6931 89.8185 51.834 89.748 51.9793C88.5859 54.371 87.2126 56.3081 85.4242 58.2773C85.0722 58.6742 84.7202 59.0712 84.3576 59.4801C82.8537 58.2175 82.8537 58.2175 81.3195 56.9293C81.8235 55.8214 82.2099 55.2023 82.9696 54.3012C84.2405 52.7472 85.1905 51.0633 86.0988 49.2782C86.1988 49.0827 86.2988 48.8872 86.4019 48.6858C88.7682 42.9021 89.2798 36.6231 87.1196 30.7113C85.7351 27.4201 84.0239 24.3694 81.5623 21.7636C81.9617 20.9393 82.5274 20.32 83.1384 19.6428C83.3321 19.4274 83.5258 19.2119 83.7253 18.9899C83.9479 18.7444 83.9479 18.7444 84.1751 18.494Z" fill="#E0E1E5"/>
<path d="M78.9659 24.0453C82.3081 26.3764 84.0586 30.9727 84.7828 34.8526C85.7841 40.8703 84.6142 46.3514 81.2949 51.4646C80.5439 52.477 79.7074 53.3897 78.8062 54.2712C77.8842 53.8757 77.2681 53.3612 76.5552 52.6602C76.3633 52.4728 76.1714 52.2855 75.9737 52.0924C75.8295 51.9492 75.6852 51.806 75.5366 51.6584C76.2915 50.5025 77.0856 49.3769 77.884 48.2509C80.452 44.3104 81.1886 39.8872 80.3755 35.2776C79.7001 32.3273 78.3563 29.5943 76.353 27.3148C76.7485 26.3929 77.263 25.7768 77.9641 25.0639C78.2451 24.776 78.2451 24.776 78.5318 24.4824C78.675 24.3381 78.8183 24.1939 78.9659 24.0453Z" fill="#E0E1E5"/>
</g>
</g>
<defs>
<filter id="filter0_ii_62_2743" x="10.0336" y="12.3247" width="84.9326" height="69.7704" filterUnits="userSpaceOnUse" color-interpolation-filters="sRGB">
<feFlood flood-opacity="0" result="BackgroundImageFix"/>
<feBlend mode="normal" in="SourceGraphic" in2="BackgroundImageFix" result="shape"/>
<feColorMatrix in="SourceAlpha" type="matrix" values="0 0 0 0 0 0 0 0 0 0 0 0 0 0 0 0 0 0 127 0" result="hardAlpha"/>
<feOffset dx="-1.76524" dy="-1.60814"/>
<feGaussianBlur stdDeviation="2.30459"/>
<feComposite in2="hardAlpha" operator="arithmetic" k2="-1" k3="1"/>
<feColorMatrix type="matrix" values="0 0 0 0 0.98903 0 0 0 0 0.98903 0 0 0 0 0.98903 0 0 0 1 0"/>
<feBlend mode="normal" in2="shape" result="effect1_innerShadow_62_2743"/>
<feColorMatrix in="SourceAlpha" type="matrix" values="0 0 0 0 0 0 0 0 0 0 0 0 0 0 0 0 0 0 127 0" result="hardAlpha"/>
<feOffset dx="2.06308" dy="1.81609"/>
<feGaussianBlur stdDeviation="1.40202"/>
<feComposite in2="hardAlpha" operator="arithmetic" k2="-1" k3="1"/>
<feColorMatrix type="matrix" values="0 0 0 0 0.550342 0 0 0 0 0.550342 0 0 0 0 0.550342 0 0 0 0.27 0"/>
<feBlend mode="normal" in2="effect1_innerShadow_62_2743" result="effect2_innerShadow_62_2743"/>
</filter>
<clipPath id="clip0_62_2743">
<rect width="101.419" height="89.8286" fill="white"/>
</clipPath>
</defs>
</svg>
