<svg width="48" height="48" viewBox="0 0 48 48" fill="none" xmlns="http://www.w3.org/2000/svg">
<path d="M23.0031 1.05536C23.5442 0.482472 24.4558 0.482472 24.9969 1.05536L27.8702 4.09698C28.2528 4.50197 28.8423 4.63528 29.3619 4.43429L33.314 2.90555C34.0538 2.61936 34.8814 3.01867 35.1178 3.77589L36.3372 7.68151C36.5057 8.22091 36.9877 8.60179 37.5514 8.64092L41.7525 8.93254C42.5555 8.98828 43.1381 9.72037 43.0121 10.5154L42.3813 14.4947C42.2913 15.0627 42.5653 15.6266 43.0675 15.9069L46.6696 17.917C47.3806 18.3139 47.5913 19.2392 47.1222 19.9048L44.7924 23.2098C44.4583 23.6837 44.4583 24.3163 44.7924 24.7902L47.1222 28.0952C47.5913 28.7608 47.3806 29.6861 46.6696 30.083L43.0675 32.0931C42.5653 32.3734 42.2913 32.9373 42.3813 33.5053L43.0121 37.4846C43.1381 38.2796 42.5555 39.0117 41.7525 39.0675L37.5514 39.3591C36.9877 39.3982 36.5057 39.7791 36.3372 40.3185L35.1178 44.2241C34.8814 44.9813 34.0538 45.3806 33.314 45.0945L29.3619 43.5657C28.8423 43.3647 28.2528 43.498 27.8702 43.903L24.9969 46.9446C24.4558 47.5175 23.5442 47.5175 23.0031 46.9446L20.1298 43.903C19.7472 43.498 19.1577 43.3647 18.6381 43.5657L14.686 45.0945C13.9462 45.3806 13.1186 44.9813 12.8822 44.2241L11.6628 40.3185C11.4943 39.7791 11.0123 39.3982 10.4486 39.3591L6.24749 39.0675C5.44449 39.0117 4.86193 38.2796 4.98795 37.4846L5.61869 33.5053C5.70873 32.9373 5.43473 32.3734 4.93248 32.0931L1.33045 30.083C0.619376 29.6861 0.408666 28.7608 0.877832 28.0952L3.20765 24.7902C3.54166 24.3163 3.54166 23.6837 3.20765 23.2098L0.877834 19.9048C0.408667 19.2392 0.619374 18.3139 1.33044 17.917L4.93248 15.9069C5.43473 15.6266 5.70873 15.0627 5.61869 14.4947L4.98795 10.5154C4.86193 9.72037 5.44449 8.98828 6.2475 8.93254L10.4486 8.64092C11.0123 8.60179 11.4943 8.22091 11.6628 7.68151L12.8822 3.77589C13.1186 3.01867 13.9462 2.61936 14.686 2.90555L18.6381 4.43429C19.1577 4.63528 19.7472 4.50197 20.1298 4.09698L23.0031 1.05536Z" fill="#ED131C"/>
<path d="M16.9308 23.8572L21.9308 28.8572L31.9308 18.8572" stroke="white" stroke-width="3" stroke-linecap="round" stroke-linejoin="round"/>
</svg>
