<svg width="64" height="96" viewBox="0 0 64 96" fill="none" xmlns="http://www.w3.org/2000/svg">
<g filter="url(#filter0_ii_62_2700)">
<path d="M31.4336 94.5412C29.8808 95.4432 27.9636 95.4432 26.4108 94.5412L2.4886 80.6455C0.94802 79.7507 0 78.1036 0 76.322V48.4721C0 46.6936 0.944688 45.049 2.48095 44.153L9.35223 40.1454C12.6855 38.2013 16.8713 40.6057 16.8713 44.4645V59.8C16.8713 62.5614 19.1099 64.8 21.8713 64.8H35.9731C38.7345 64.8 40.9731 62.5614 40.9731 59.8V44.4645C40.9731 40.6057 45.1589 38.2013 48.4922 40.1454L55.3635 44.153C56.8997 45.049 57.8444 46.6936 57.8444 48.4721V76.322C57.8444 78.1036 56.8964 79.7507 55.3558 80.6455L31.4336 94.5412ZM28.9222 57.6C26.26 57.6 24.1018 55.4418 24.1018 52.7796V5C24.1018 2.23858 26.3404 0 29.1018 0H58.1206C62.1185 0 64.4995 4.45952 62.2754 7.78163L59.7067 11.6184C58.5798 13.3016 58.5798 15.4984 59.7067 17.1816L62.2754 21.0184C64.4995 24.3405 62.1185 28.8 58.1206 28.8H38.7426C35.9812 28.8 33.7426 31.0386 33.7426 33.8V52.7796C33.7426 55.4418 31.5844 57.6 28.9222 57.6Z" fill="#E0E1E5"/>
</g>
<defs>
<filter id="filter0_ii_62_2700" x="-1.87318" y="-1.70648" width="67.1913" height="98.8514" filterUnits="userSpaceOnUse" color-interpolation-filters="sRGB">
<feFlood flood-opacity="0" result="BackgroundImageFix"/>
<feBlend mode="normal" in="SourceGraphic" in2="BackgroundImageFix" result="shape"/>
<feColorMatrix in="SourceAlpha" type="matrix" values="0 0 0 0 0 0 0 0 0 0 0 0 0 0 0 0 0 0 127 0" result="hardAlpha"/>
<feOffset dx="-1.87318" dy="-1.70648"/>
<feGaussianBlur stdDeviation="2.44551"/>
<feComposite in2="hardAlpha" operator="arithmetic" k2="-1" k3="1"/>
<feColorMatrix type="matrix" values="0 0 0 0 0.98903 0 0 0 0 0.98903 0 0 0 0 0.98903 0 0 0 1 0"/>
<feBlend mode="normal" in2="shape" result="effect1_innerShadow_62_2700"/>
<feColorMatrix in="SourceAlpha" type="matrix" values="0 0 0 0 0 0 0 0 0 0 0 0 0 0 0 0 0 0 127 0" result="hardAlpha"/>
<feOffset dx="2.18923" dy="1.92714"/>
<feGaussianBlur stdDeviation="1.48775"/>
<feComposite in2="hardAlpha" operator="arithmetic" k2="-1" k3="1"/>
<feColorMatrix type="matrix" values="0 0 0 0 0.550342 0 0 0 0 0.550342 0 0 0 0 0.550342 0 0 0 0.27 0"/>
<feBlend mode="normal" in2="effect1_innerShadow_62_2700" result="effect2_innerShadow_62_2700"/>
</filter>
</defs>
</svg>
