<svg width="70" height="70" viewBox="0 0 70 70" fill="none" xmlns="http://www.w3.org/2000/svg">
<g filter="url(#filter0_ii_62_2734)">
<path d="M31.1362 7.02197e-08C36.9828 -0.000392493 42.7114 1.64519 47.6665 4.74842C52.6215 7.85165 56.6028 12.2872 59.1546 17.5473C61.7064 22.8075 62.7257 28.6798 62.0958 34.4922C61.466 40.3046 59.2124 45.8222 55.5929 50.4137L68.9716 63.7918C69.639 64.4827 70.0082 65.4081 69.9999 66.3686C69.9915 67.3291 69.6062 68.2479 68.927 68.9271C68.2478 69.6063 67.329 69.9915 66.3684 69.9999C65.4079 70.0082 64.4825 69.639 63.7916 68.9717L50.4129 55.5935C46.513 58.6668 41.9347 60.763 37.0599 61.7071C32.1851 62.6513 27.1552 62.416 22.3899 61.021C17.6245 59.6259 13.2619 57.1115 9.6659 53.6876C6.06996 50.2637 3.34498 46.0295 1.71833 41.3383C0.091681 36.6471 -0.389478 31.6349 0.314997 26.7199C1.01947 21.8049 2.88915 17.1297 5.76805 13.0842C8.64695 9.03877 12.4516 5.7404 16.8645 3.46431C21.2775 1.18823 26.1708 0.000423075 31.1362 7.02197e-08ZM31.1362 7.3265C24.8208 7.3265 18.7641 9.83517 14.2985 14.3006C9.83289 18.7661 7.32413 24.8225 7.32413 31.1376C7.32413 37.4527 9.83289 43.5092 14.2985 47.9746C18.7641 52.4401 24.8208 54.9488 31.1362 54.9488C37.4515 54.9488 43.5082 52.4401 47.9738 47.9746C52.4394 43.5092 54.9482 37.4527 54.9482 31.1376C54.9482 24.8225 52.4394 18.7661 47.9738 14.3006C43.5082 9.83517 37.4515 7.3265 31.1362 7.3265ZM31.1362 10.9898C36.4799 10.9898 41.6048 13.1125 45.3834 16.8909C49.162 20.6694 51.2848 25.7941 51.2848 31.1376C51.2848 36.4812 49.162 41.6059 45.3834 45.3843C41.6048 49.1628 36.4799 51.2855 31.1362 51.2855C25.7924 51.2855 20.6675 49.1628 16.8889 45.3843C13.1103 41.6059 10.9875 36.4812 10.9875 31.1376C10.9875 25.7941 13.1103 20.6694 16.8889 16.8909C20.6675 13.1125 25.7924 10.9898 31.1362 10.9898Z" fill="#E0E1E5"/>
</g>
<defs>
<filter id="filter0_ii_62_2734" x="-1.76524" y="-1.60814" width="73.8283" height="73.4242" filterUnits="userSpaceOnUse" color-interpolation-filters="sRGB">
<feFlood flood-opacity="0" result="BackgroundImageFix"/>
<feBlend mode="normal" in="SourceGraphic" in2="BackgroundImageFix" result="shape"/>
<feColorMatrix in="SourceAlpha" type="matrix" values="0 0 0 0 0 0 0 0 0 0 0 0 0 0 0 0 0 0 127 0" result="hardAlpha"/>
<feOffset dx="-1.76524" dy="-1.60814"/>
<feGaussianBlur stdDeviation="2.30459"/>
<feComposite in2="hardAlpha" operator="arithmetic" k2="-1" k3="1"/>
<feColorMatrix type="matrix" values="0 0 0 0 0.98903 0 0 0 0 0.98903 0 0 0 0 0.98903 0 0 0 1 0"/>
<feBlend mode="normal" in2="shape" result="effect1_innerShadow_62_2734"/>
<feColorMatrix in="SourceAlpha" type="matrix" values="0 0 0 0 0 0 0 0 0 0 0 0 0 0 0 0 0 0 127 0" result="hardAlpha"/>
<feOffset dx="2.06308" dy="1.81609"/>
<feGaussianBlur stdDeviation="1.40202"/>
<feComposite in2="hardAlpha" operator="arithmetic" k2="-1" k3="1"/>
<feColorMatrix type="matrix" values="0 0 0 0 0.550342 0 0 0 0 0.550342 0 0 0 0 0.550342 0 0 0 0.27 0"/>
<feBlend mode="normal" in2="effect1_innerShadow_62_2734" result="effect2_innerShadow_62_2734"/>
</filter>
</defs>
</svg>
