<svg xmlns="http://www.w3.org/2000/svg" width="1920" height="367" fill="none" viewBox="0 0 1920 367"><path fill="#FFD11A" d="M1085 313h-.01c0-.186 0-.372.01-.558a24.025 24.025 0 0 0-7.03-16.408 24.007 24.007 0 0 0-16.93-7.031 24.004 24.004 0 0 0 16.93-7.032 24.022 24.022 0 0 0 7.03-16.406c-.01-.188-.01-.377-.01-.565h.01v.565a24.01 24.01 0 0 0 7.02 16.406 24.045 24.045 0 0 0 16.94 7.032 24.01 24.01 0 0 0-16.93 7.03 23.98 23.98 0 0 0-7.03 16.409V313ZM1298.63 224.062l16.08-4.31a101.52 101.52 0 0 0 47.22 61.482 101.463 101.463 0 0 0 76.85 10.193 101.452 101.452 0 0 0 61.53-47.237 101.465 101.465 0 0 0 10.19-76.898l16.08-4.311a118.18 118.18 0 0 1-11.87 89.52 118.207 118.207 0 0 1-71.61 55.013 118.198 118.198 0 0 1-89.47-11.89 118.17 118.17 0 0 1-55-71.562ZM1284.34 170.729a48.127 48.127 0 0 1-1.23-18.773 48.198 48.198 0 0 1 6.04-17.814 48.21 48.21 0 0 1 12.41-14.144 48.197 48.197 0 0 1 35.64-9.551 48.275 48.275 0 0 1 17.82 6.047 48.319 48.319 0 0 1 14.14 12.404 48.32 48.32 0 0 1 8.32 16.873l-16.3 4.367a31.349 31.349 0 0 0-26.18-22.96 31.331 31.331 0 0 0-12.2.8 31.273 31.273 0 0 0-10.97 5.408 31.161 31.161 0 0 0-8.06 9.194 31.17 31.17 0 0 0-3.93 11.579c-.54 4.08-.27 8.227.8 12.202l-16.3 4.368Z"/><path fill="#FFD11A" d="M1584.89 135.764c26.16 97.624-31.77 197.97-129.4 224.129-97.62 26.158-197.97-31.777-224.13-129.401-26.15-97.624 31.78-197.97 129.4-224.128 97.63-26.159 197.97 31.776 224.13 129.4Zm-340.42 91.216c24.22 90.387 117.12 144.027 207.51 119.808 90.39-24.219 144.03-117.126 119.81-207.512-24.22-90.387-117.13-144.026-207.51-119.807-90.39 24.219-144.03 117.125-119.81 207.511Z"/><path fill="#FFD11A" d="M1419.15 134.605a48.21 48.21 0 0 1 4.82-36.586 48.165 48.165 0 0 1 12.4-14.144 48.227 48.227 0 0 1 35.65-9.551 48.187 48.187 0 0 1 31.95 18.451 47.975 47.975 0 0 1 8.32 16.872l-16.3 4.368a31.326 31.326 0 0 0-5.4-10.967 31.348 31.348 0 0 0-9.2-8.063 31.336 31.336 0 0 0-46.74 23.05c-.54 4.081-.27 8.227.8 12.203l-16.3 4.367Z"/></svg>