<svg xmlns="http://www.w3.org/2000/svg" width="768" height="161" fill="none" viewBox="0 0 768 161"><path fill="#FFD11A" d="M211.002 142h-.007l.003-.279a12.007 12.007 0 0 0-11.979-11.719 12.008 12.008 0 0 0 8.468-3.517 11.998 11.998 0 0 0 3.511-8.203 13.257 13.257 0 0 1-.003-.282h.007c0 .094-.002.188-.004.282a12.006 12.006 0 0 0 11.982 11.72 12.007 12.007 0 0 0-11.982 11.719c.002.093.004.186.004.279ZM570.11 98.227l7.032-1.884a44.355 44.355 0 0 0 54.239 31.333 44.357 44.357 0 0 0 31.35-54.267l7.033-1.884a51.68 51.68 0 0 1-36.498 63.184 51.671 51.671 0 0 1-39.112-5.198 51.672 51.672 0 0 1-24.044-31.284ZM563.863 74.912a21.07 21.07 0 0 1 14.904-25.815 21.075 21.075 0 0 1 25.814 14.904l-7.125 1.91a13.695 13.695 0 0 0-6.384-8.32 13.701 13.701 0 0 0-20.084 15.411l-7.125 1.91Z"/><path fill="#FFD11A" d="M695.254 59.627c11.435 42.677-13.892 86.544-56.569 97.979-42.677 11.436-86.544-13.891-97.979-56.568-11.436-42.677 13.891-86.544 56.568-97.98 42.677-11.435 86.544 13.892 97.98 56.569Zm-148.82 39.876c10.588 39.513 51.203 62.962 90.716 52.374 39.513-10.587 62.962-51.202 52.375-90.715C678.937 21.649 638.322-1.8 598.809 8.787c-39.513 10.588-62.962 51.203-52.375 90.716Z"/><path fill="#FFD11A" d="M622.798 59.12a21.071 21.071 0 0 1 14.904-25.815 21.076 21.076 0 0 1 25.814 14.905l-7.125 1.909a13.696 13.696 0 0 0-6.384-8.319 13.698 13.698 0 0 0-18.715 5.015 13.695 13.695 0 0 0-1.369 10.396l-7.125 1.91Z"/></svg>