<svg xmlns="http://www.w3.org/2000/svg" width="360" height="160" fill="none" viewBox="0 0 360 160"><g fill="#FFD11A" clip-path="url(#a)"><path d="M199.002 148h-.007l.003-.279a12.007 12.007 0 0 0-11.979-11.719 12.008 12.008 0 0 0 8.468-3.517 11.998 11.998 0 0 0 3.511-8.203 13.257 13.257 0 0 1-.003-.282h.007c0 .094-.002.188-.004.282a12.006 12.006 0 0 0 11.982 11.72 12.007 12.007 0 0 0-11.982 11.719c.002.093.004.186.004.279ZM268.11 183.874l7.032-1.884a44.356 44.356 0 0 0 54.239 31.334 44.362 44.362 0 0 0 31.35-54.267l7.033-1.885a51.677 51.677 0 0 1-36.498 63.184 51.671 51.671 0 0 1-39.112-5.198 51.672 51.672 0 0 1-24.044-31.284ZM261.863 160.559a21.068 21.068 0 0 1 7.528-22.177 21.069 21.069 0 0 1 15.582-4.175 21.074 21.074 0 0 1 17.608 15.442l-7.125 1.909a13.69 13.69 0 0 0-2.365-4.794 13.682 13.682 0 0 0-9.081-5.243 13.69 13.69 0 0 0-10.128 2.714 13.684 13.684 0 0 0-5.243 9.081 13.71 13.71 0 0 0 .349 5.334l-7.125 1.909Z"/><path d="M393.254 145.274c11.435 42.677-13.892 86.544-56.569 97.98-42.677 11.435-86.544-13.892-97.979-56.569-11.436-42.677 13.891-86.544 56.568-97.98 42.677-11.435 86.544 13.892 97.98 56.569Zm-148.82 39.876c10.588 39.513 51.203 62.962 90.716 52.375 39.513-10.588 62.962-51.203 52.375-90.716-10.588-39.513-51.203-62.962-90.716-52.374-39.513 10.587-62.962 51.202-52.375 90.715Z"/><path d="M320.798 144.767a21.074 21.074 0 0 1 23.11-26.352 21.074 21.074 0 0 1 17.608 15.442l-7.125 1.909a13.711 13.711 0 0 0-11.446-10.037 13.69 13.69 0 0 0-10.128 2.714 13.697 13.697 0 0 0-4.894 14.415l-7.125 1.909Z"/></g><defs><clipPath id="a"><path fill="#fff" d="M0 0h360v160H0z"/></clipPath></defs></svg>