<svg xmlns="http://www.w3.org/2000/svg" fill="none" viewBox="0 0 128 128"><g clip-path="url(#a)"><circle cx="64" cy="64" r="64" fill="#fff"/><path fill="#ED131C" d="M75.03 85.26c0 4.44-10.24 8.04-22.88 8.04-12.64 0-22.89-3.6-22.89-8.04 0-4.44 10.25-8.04 22.89-8.04s22.88 3.6 22.88 8.04Z"/><path fill="#fff" fill-rule="evenodd" d="M70.65 97.56c-5.06 1.78-11.6 2.75-18.5 2.75s-13.44-.97-18.51-2.75a23.02 23.02 0 0 1-7.06-3.78c-2-1.65-4.33-4.5-4.33-8.52s2.34-6.87 4.33-8.52a23.02 23.02 0 0 1 7.06-3.78c5.07-1.78 11.61-2.75 18.5-2.75 6.9 0 13.45.97 18.51 2.75 2.5.88 5.03 2.09 7.06 3.78 2 1.65 4.33 4.5 4.33 8.52s-2.33 6.87-4.33 8.52a23.02 23.02 0 0 1-7.06 3.78Zm-18.5-4.26c12.64 0 22.88-3.6 22.88-8.04 0-4.44-10.24-8.04-22.88-8.04-12.64 0-22.89 3.6-22.89 8.04 0 4.44 10.25 8.04 22.89 8.04Z" clip-rule="evenodd"/><path fill="#ED131C" d="M75.03 69.6c0 4.43-10.24 8.03-22.88 8.03-12.64 0-22.89-3.6-22.89-8.04 0-4.44 10.25-8.04 22.89-8.04s22.88 3.6 22.88 8.04Z"/><path fill="#fff" fill-rule="evenodd" d="M70.65 81.9c-5.06 1.77-11.6 2.74-18.5 2.74s-13.44-.97-18.51-2.75a23.02 23.02 0 0 1-7.06-3.78c-2-1.65-4.33-4.5-4.33-8.52s2.34-6.87 4.33-8.52a23.02 23.02 0 0 1 7.06-3.78c5.07-1.78 11.61-2.75 18.5-2.75 6.9 0 13.45.97 18.51 2.75 2.5.88 5.03 2.09 7.06 3.78 2 1.65 4.33 4.5 4.33 8.52s-2.33 6.87-4.33 8.52a23.02 23.02 0 0 1-7.06 3.78Zm-18.5-4.27c12.64 0 22.88-3.6 22.88-8.04 0-4.44-10.24-8.04-22.88-8.04-12.64 0-22.89 3.6-22.89 8.04 0 4.44 10.25 8.04 22.89 8.04Z" clip-rule="evenodd"/><path fill="#ED131C" d="M75.03 53.92c0 4.44-10.24 8.04-22.88 8.04-12.64 0-22.89-3.6-22.89-8.04 0-4.44 10.25-8.04 22.89-8.04s22.88 3.6 22.88 8.04Z"/><path fill="#fff" fill-rule="evenodd" d="M70.65 66.22c-5.06 1.78-11.6 2.75-18.5 2.75S38.7 68 33.64 66.22a23.02 23.02 0 0 1-7.06-3.78c-2-1.65-4.33-4.5-4.33-8.52s2.34-6.87 4.33-8.52a23.02 23.02 0 0 1 7.06-3.78c5.07-1.78 11.61-2.75 18.5-2.75 6.9 0 13.45.97 18.51 2.75 2.5.88 5.03 2.09 7.06 3.78 2 1.65 4.33 4.5 4.33 8.52s-2.33 6.87-4.33 8.52a23.02 23.02 0 0 1-7.06 3.78Zm-18.5-4.26c12.64 0 22.88-3.6 22.88-8.04 0-4.44-10.24-8.04-22.88-8.04-12.64 0-22.89 3.6-22.89 8.04 0 4.44 10.25 8.04 22.89 8.04Z" clip-rule="evenodd"/><path fill="#ED131C" d="M75.03 38.25c0 4.44-10.24 8.04-22.88 8.04-12.64 0-22.89-3.6-22.89-8.04 0-4.44 10.25-8.04 22.89-8.04s22.88 3.6 22.88 8.04Z"/><path fill="#fff" fill-rule="evenodd" d="M70.65 50.55c-5.06 1.78-11.6 2.75-18.5 2.75s-13.44-.97-18.51-2.75a23.02 23.02 0 0 1-7.06-3.78c-2-1.65-4.33-4.5-4.33-8.52s2.34-6.87 4.33-8.52a23.02 23.02 0 0 1 7.06-3.78c5.07-1.78 11.61-2.75 18.5-2.75 6.9 0 13.45.97 18.51 2.75 2.5.88 5.03 2.09 7.06 3.78 2 1.65 4.33 4.5 4.33 8.52s-2.33 6.87-4.33 8.52a23.02 23.02 0 0 1-7.06 3.78Zm-18.5-4.26c12.64 0 22.88-3.6 22.88-8.04 0-4.44-10.24-8.04-22.88-8.04-12.64 0-22.89 3.6-22.89 8.04 0 4.44 10.25 8.04 22.89 8.04Z" clip-rule="evenodd"/><path fill="#ED131C" d="M105.14 73.3a22.89 22.89 0 1 1-45.78 0 22.89 22.89 0 0 1 45.78 0Z"/><path fill="#fff" fill-rule="evenodd" d="M112.14 73.3a29.9 29.9 0 1 1-59.79 0 29.9 29.9 0 0 1 59.8 0ZM82.25 96.2a22.89 22.89 0 1 0 0-45.77 22.89 22.89 0 0 0 0 45.77Z" clip-rule="evenodd"/><path fill="#fff" fill-rule="evenodd" d="M69.78 64.94A5.56 5.56 0 0 1 72 62.77a6.17 6.17 0 0 1 3.04-.77c1.11 0 2.13.25 3.05.77.93.5 1.67 1.23 2.19 2.17a7.13 7.13 0 0 1 .6 4.93l4.95-7.53h6.33l-6.91 10.54a6.17 6.17 0 0 1 3.71-1.19c1.1 0 2.13.25 3.04.77.94.5 1.67 1.23 2.2 2.17.54.95.8 2.03.8 3.22 0 1.19-.26 2.28-.8 3.24a5.6 5.6 0 0 1-2.2 2.17c-.91.5-1.94.74-3.04.74s-2.11-.24-3.04-.73l-.01-.01a5.8 5.8 0 0 1-2.2-2.16l-.02-.01v-.02a7.3 7.3 0 0 1-.58-4.93l-4.94 7.52h-6.33l6.9-10.5a6.25 6.25 0 0 1-3.69 1.16c-1.1-.01-2.12-.25-3.04-.75H72a5.8 5.8 0 0 1-2.21-2.16l-.01-.02a6.6 6.6 0 0 1-.78-3.24c0-1.18.25-2.26.78-3.2v-.01Zm4.5 4.38a1 1 0 0 0 .76.33c.3 0 .53-.1.73-.32v-.01l.02-.01c.18-.19.34-.52.34-1.16 0-.63-.16-.97-.34-1.15l-.01-.01h-.01a.91.91 0 0 0-.73-.33 1 1 0 0 0-.76.33c-.17.19-.32.53-.32 1.16 0 .64.15.98.32 1.17ZM89.69 79h.01c.18-.2.34-.53.34-1.16 0-.64-.16-.97-.34-1.16l-.01-.02a.91.91 0 0 0-.73-.32 1 1 0 0 0-.77.33c-.16.19-.32.53-.32 1.17 0 .63.16.97.32 1.16a1 1 0 0 0 .77.33c.3 0 .52-.1.73-.32V79Z" clip-rule="evenodd"/></g><defs><clipPath id="a"><path fill="#fff" d="M0 0h128v128H0z"/></clipPath></defs></svg>