<svg xmlns="http://www.w3.org/2000/svg" fill="none" viewBox="0 0 128 131"><path fill="#fff" d="M121.8 31.94c0 90.08-57.8 98.46-57.8 98.46S5.4 121.2 5.4 31.94C31.32 31.94 51.11 12.69 64 0c11.62 11.87 35.65 31.94 57.8 31.94Z"/><path fill="#ED131C" d="M37.35 58.83c0-2.32.47-4.32 1.43-6.02.99-1.74 2.33-3.07 4.03-3.98 1.7-.95 3.58-1.42 5.65-1.42 2.11 0 4 .47 5.65 1.42a9.67 9.67 0 0 1 3.98 3.98c1 1.7 1.49 3.7 1.49 6.02 0 2.32-.5 4.35-1.5 6.09a10.19 10.19 0 0 1-3.97 3.97 11.53 11.53 0 0 1-5.65 1.37c-2.07 0-3.95-.46-5.65-1.37a10.63 10.63 0 0 1-4.03-3.97 12.47 12.47 0 0 1-1.43-6.09Zm6.52 0c0 1.78.43 3.15 1.3 4.1.91.95 2 1.43 3.3 1.43a4.2 4.2 0 0 0 3.22-1.43c.91-.95 1.37-2.32 1.37-4.1 0-1.78-.46-3.14-1.37-4.1a4.2 4.2 0 0 0-3.23-1.42 4.4 4.4 0 0 0-3.29 1.42c-.87.96-1.3 2.32-1.3 4.1ZM45.48 91l27.95-42.85h8.7L54.17 91h-8.7Zm22.54-10.68c0-2.32.48-4.33 1.43-6.02 1-1.74 2.34-3.07 4.04-3.98 1.7-.95 3.58-1.43 5.65-1.43 2.11 0 4 .48 5.65 1.43a9.67 9.67 0 0 1 3.98 3.98c.99 1.7 1.49 3.7 1.49 6.02 0 2.32-.5 4.35-1.5 6.08a10.19 10.19 0 0 1-3.97 3.98 11.53 11.53 0 0 1-5.65 1.37c-2.07 0-3.95-.46-5.65-1.37a10.63 10.63 0 0 1-4.04-3.98 12.47 12.47 0 0 1-1.43-6.08Zm6.52 0c0 1.78.44 3.15 1.3 4.1.92.95 2.02 1.43 3.3 1.43a4.2 4.2 0 0 0 3.23-1.43c.91-.95 1.37-2.32 1.37-4.1 0-1.78-.46-3.15-1.37-4.1a4.2 4.2 0 0 0-3.23-1.43 4.4 4.4 0 0 0-3.3 1.43c-.86.95-1.3 2.32-1.3 4.1Z"/><path fill="#ED131C" stroke="#ED131C" d="M38.34 52.56c-1 1.79-1.5 3.88-1.5 6.27 0 2.39.5 4.5 1.5 6.33v.01a11.13 11.13 0 0 0 4.23 4.16c1.78.96 3.75 1.43 5.9 1.43 2.18 0 4.15-.47 5.89-1.43 1.78-1 3.17-2.39 4.16-4.17a12.55 12.55 0 0 0 1.56-6.33c0-2.39-.51-4.48-1.56-6.27-1-1.81-2.38-3.2-4.16-4.16-1.74-1-3.71-1.5-5.9-1.5-2.14 0-4.11.5-5.89 1.5-1.78.95-3.2 2.34-4.23 4.16Zm13 10.03h-.02a3.7 3.7 0 0 1-2.86 1.27 3.9 3.9 0 0 1-2.92-1.27c-.76-.83-1.17-2.06-1.17-3.76 0-1.7.41-2.93 1.17-3.76a3.9 3.9 0 0 1 2.92-1.26 3.7 3.7 0 0 1 2.86 1.26h.01c.8.84 1.23 2.06 1.23 3.76 0 1.7-.43 2.92-1.23 3.76Zm-6.28 28.14-.5.77H54.45l.15-.23 27.94-42.85.5-.77H73.16l-.15.23-27.95 42.85Zm23.96-16.68c-1 1.79-1.5 3.88-1.5 6.27 0 2.39.5 4.5 1.5 6.32v.01a11.13 11.13 0 0 0 4.23 4.16v.01c1.78.95 3.74 1.43 5.9 1.43 2.18 0 4.14-.48 5.88-1.43 1.78-1 3.17-2.4 4.17-4.17a12.55 12.55 0 0 0 1.56-6.33c0-2.39-.51-4.49-1.56-6.27-1-1.82-2.38-3.21-4.17-4.17-1.73-1-3.7-1.49-5.89-1.49-2.15 0-4.11.5-5.9 1.5-1.77.95-3.18 2.34-4.22 4.16ZM82 84.07v.01a3.7 3.7 0 0 1-2.87 1.27 3.9 3.9 0 0 1-2.92-1.27c-.76-.83-1.17-2.06-1.17-3.76 0-1.7.41-2.93 1.17-3.76a3.89 3.89 0 0 1 2.92-1.27A3.7 3.7 0 0 1 82 76.56c.8.84 1.24 2.06 1.24 3.76 0 1.7-.44 2.92-1.23 3.75Z"/></svg>