<svg xmlns="http://www.w3.org/2000/svg" fill="none" viewBox="0 0 128 128"><circle cx="64" cy="64" r="64" fill="#fff"/><mask id="a" width="76" height="76" x="32" y="26" maskUnits="userSpaceOnUse" style="mask-type:alpha"><path fill="#D9D9D9" d="M32 26h76v76H32z"/></mask><g mask="url(#a)"><path fill="#ED131C" d="m90.87 66.61-12.2-12.27 7.05-6.96 5.15 5.06 11.08-11 7.05 7.04-18.13 18.13Zm-29.85-3.96c-4.27 0-7.9-1.49-10.88-4.47a14.82 14.82 0 0 1-4.47-10.88c0-4.28 1.49-7.9 4.47-10.85a14.88 14.88 0 0 1 10.88-4.43c4.28 0 7.9 1.47 10.89 4.43a14.69 14.69 0 0 1 4.47 10.85c0 4.27-1.49 7.9-4.47 10.88a14.82 14.82 0 0 1-10.88 4.47ZM33 93.37V81.65c0-2.28.6-4.38 1.8-6.3a11.89 11.89 0 0 1 4.77-4.38 51.06 51.06 0 0 1 10.53-3.84 48.23 48.23 0 0 1 22.01-.04c3.59.84 7.04 2.1 10.37 3.8a11.86 11.86 0 0 1 6.57 10.76v11.72H33Zm9.98-9.97h36.1v-1.35c0-.53-.15-1.01-.44-1.44a2.98 2.98 0 0 0-1.15-1.01 39.8 39.8 0 0 0-7.91-2.81c-2.75-.66-5.6-1-8.55-1a37.8 37.8 0 0 0-16.47 3.8c-.48.25-.86.58-1.15 1.02-.29.43-.43.91-.43 1.44v1.35Zm18.04-30.72a5.2 5.2 0 0 0 3.8-1.58 5.18 5.18 0 0 0 1.59-3.8c0-1.48-.53-2.74-1.58-3.76a5.24 5.24 0 0 0-3.8-1.55c-1.48 0-2.75.52-3.8 1.56a5.07 5.07 0 0 0-1.59 3.75c0 1.48.53 2.74 1.58 3.8a5.18 5.18 0 0 0 3.8 1.58Z"/></g></svg>