<svg width="133" height="132" viewBox="0 0 133 132" fill="none" xmlns="http://www.w3.org/2000/svg">
<circle cx="66.9434" cy="66" r="66" fill="white"/>
<path d="M56.9064 46.8735C56.9064 42.9801 60.0619 39.8213 63.9586 39.8213H69.9431C73.8365 39.8213 76.9953 42.9768 76.9953 46.8735V55.9738H86.0956C89.9893 55.9738 93.1478 59.1324 93.1478 63.026V69.0105C93.1478 72.9039 89.9923 76.0627 86.0956 76.0627H76.9953V85.163C76.9953 89.0564 73.8398 92.2152 69.9431 92.2152H63.9586C60.0652 92.2152 56.9064 89.0597 56.9064 85.163V76.0627H47.8061C43.9127 76.0627 40.7539 72.9072 40.7539 69.0105V63.026C40.7539 59.1326 43.9094 55.9738 47.8061 55.9738H56.9064V46.8735Z" fill="#ED131C" stroke="#ED131C" stroke-width="0.868421" stroke-miterlimit="10"/>
</svg>
