<svg width="133" height="132" viewBox="0 0 133 132" fill="none" xmlns="http://www.w3.org/2000/svg">
<circle cx="66.9434" cy="66" r="66" fill="#ED131C"/>
<path d="M56.9045 46.8727C56.9045 42.9793 60.06 39.8206 63.9567 39.8206H69.9412C73.8346 39.8206 76.9933 42.976 76.9933 46.8727V55.9731H86.0937C89.9873 55.9731 93.1459 59.1316 93.1459 63.0253V69.0098C93.1459 72.9032 89.9904 76.0619 86.0937 76.0619H76.9933V85.1623C76.9933 89.0557 73.8379 92.2145 69.9412 92.2145H63.9567C60.0633 92.2145 56.9045 89.059 56.9045 85.1623V76.0619H47.8041C43.9107 76.0619 40.752 72.9065 40.752 69.0098V63.0253C40.752 59.1319 43.9074 55.9731 47.8041 55.9731H56.9045V46.8727Z" fill="white" stroke="white" stroke-width="0.868421" stroke-miterlimit="10"/>
</svg>
