<svg width="132" height="133" viewBox="0 0 132 133" fill="none" xmlns="http://www.w3.org/2000/svg">
<path d="M132 66.9434C132 103.394 102.451 132.943 66 132.943C29.5492 132.943 0 103.394 0 66.9434C0 30.4926 29.5492 0.943359 66 0.943359C102.451 0.943359 132 30.4926 132 66.9434Z" fill="#ED131C"/>
<path fill-rule="evenodd" clip-rule="evenodd" d="M13.13 27.4302L23.0287 34.1947L21.1895 36.9346C15.4316 45.5125 12.0728 55.828 12.0728 66.9432C12.0728 96.7253 36.2179 120.87 66 120.87C79.4503 120.87 91.7461 115.949 101.194 107.804L95.2673 101.878C87.3513 108.515 77.1399 112.515 66.0001 112.515C62.4584 112.515 59.0077 112.112 55.6898 111.344L52.4747 110.601L54.2804 102.794L57.4955 103.537C60.2245 104.168 63.0695 104.502 66.0001 104.502C86.7439 104.502 103.561 87.6868 103.561 66.9435C103.561 46.2 86.7459 29.3848 66.0024 29.3848C45.2588 29.3848 28.4437 46.2 28.4437 66.9435C28.4437 75.8743 31.5552 84.07 36.7606 90.5171L43.3593 83.9183C39.81 79.1906 37.7042 73.3104 37.7042 66.9433C37.7042 52.8083 48.0667 41.0995 61.61 38.9873L64.8705 38.4788L66.1054 46.3961L62.8448 46.9047C53.1425 48.4178 45.7172 56.8181 45.7172 66.9433C45.7172 78.1458 54.7973 87.2259 65.9999 87.2259C77.2024 87.2259 86.2825 78.1458 86.2825 66.9433C86.2825 61.3263 84.0044 56.2504 80.3106 52.5717L77.9724 50.243L83.6268 44.5654L85.965 46.894C91.1061 52.014 94.2955 59.1086 94.2955 66.9433C94.2955 82.5713 81.6279 95.2389 65.9999 95.2389C59.633 95.2389 53.7531 93.1333 49.0255 89.5843L36.6101 102L33.7771 99.1666C25.534 90.9235 20.4307 79.5267 20.4307 66.9435C20.4307 41.7745 40.8334 21.3718 66.0024 21.3718C77.1416 21.3718 87.3521 25.3718 95.2673 32.0085L101.194 26.0823C91.746 17.9369 79.4502 13.0159 66 13.0159C54.8848 13.0159 44.5694 16.3748 35.9915 22.1327L33.2515 23.9719L24.4796 15.6369C19.9737 19.1802 16.4652 23.0112 13.13 27.4302ZM100.934 37.6742C107.573 45.5901 111.574 55.8022 111.574 66.9435C111.574 78.0844 107.573 88.2961 100.934 96.2118L106.86 102.138C115.006 92.6902 119.927 80.3939 119.927 66.9432C119.927 53.4924 115.006 41.1961 106.86 31.7483L100.934 37.6742ZM0 66.9434C0 30.4926 29.5492 0.943359 66 0.943359C102.451 0.943359 132 30.4926 132 66.9434C132 103.394 102.451 132.943 66 132.943C29.5492 132.943 0 103.394 0 66.9434Z" fill="white"/>
<path d="M56.1 66.992C56.1 61.4975 60.5542 57.0434 66.0487 57.0434C71.5432 57.0434 75.9973 61.4975 75.9973 66.992C75.9973 72.4865 71.5432 76.9407 66.0487 76.9407C60.5542 76.9407 56.1 72.4865 56.1 66.992Z" fill="white"/>
</svg>
