<svg width="132" height="133" viewBox="0 0 132 133" fill="none" xmlns="http://www.w3.org/2000/svg">
<path d="M132 66.9436C132 103.394 102.451 132.944 66 132.944C29.5492 132.944 0 103.394 0 66.9436C0 30.4928 29.5492 0.943604 66 0.943604C102.451 0.943604 132 30.4928 132 66.9436Z" fill="white"/>
<path fill-rule="evenodd" clip-rule="evenodd" d="M13.13 27.4304L23.0287 34.1949L21.1895 36.9349C15.4316 45.5128 12.0728 55.8282 12.0728 66.9434C12.0728 96.7255 36.2179 120.871 66 120.871C79.4503 120.871 91.7461 115.95 101.194 107.804L95.2673 101.878C87.3513 108.515 77.1399 112.516 66.0001 112.516C62.4584 112.516 59.0077 112.112 55.6898 111.344L52.4747 110.601L54.2804 102.794L57.4955 103.537C60.2245 104.169 63.0695 104.503 66.0001 104.503C86.7439 104.503 103.561 87.687 103.561 66.9437C103.561 46.2002 86.7459 29.3851 66.0024 29.3851C45.2588 29.3851 28.4437 46.2002 28.4437 66.9437C28.4437 75.8745 31.5552 84.0703 36.7606 90.5173L43.3593 83.9185C39.81 79.1908 37.7042 73.3106 37.7042 66.9435C37.7042 52.8086 48.0667 41.0998 61.61 38.9876L64.8705 38.4791L66.1054 46.3964L62.8448 46.9049C53.1425 48.4181 45.7172 56.8183 45.7172 66.9435C45.7172 78.146 54.7973 87.2262 65.9999 87.2262C77.2024 87.2262 86.2825 78.1461 86.2825 66.9435C86.2825 61.3265 84.0044 56.2506 80.3106 52.5719L77.9724 50.2433L83.6268 44.5656L85.965 46.8943C91.1061 52.0142 94.2955 59.1089 94.2955 66.9435C94.2955 82.5715 81.6279 95.2392 65.9999 95.2392C59.633 95.2392 53.7531 93.1336 49.0255 89.5845L36.6101 102L33.7771 99.1669C25.534 90.9237 20.4307 79.5269 20.4307 66.9437C20.4307 41.7748 40.8334 21.372 66.0024 21.372C77.1416 21.372 87.3521 25.372 95.2673 32.0088L101.194 26.0826C91.746 17.9371 79.4502 13.0162 66 13.0162C54.8848 13.0162 44.5694 16.375 35.9915 22.1329L33.2515 23.9721L24.4796 15.6372C19.9737 19.1804 16.4652 23.0114 13.13 27.4304ZM100.934 37.6745C107.573 45.5903 111.574 55.8025 111.574 66.9437C111.574 78.0846 107.573 88.2963 100.934 96.212L106.86 102.138C115.006 92.6904 119.927 80.3942 119.927 66.9434C119.927 53.4926 115.006 41.1963 106.86 31.7485L100.934 37.6745ZM0 66.9436C0 30.4928 29.5492 0.943604 66 0.943604C102.451 0.943604 132 30.4928 132 66.9436C132 103.394 102.451 132.944 66 132.944C29.5492 132.944 0 103.394 0 66.9436Z" fill="#ED131C"/>
<path d="M56.1 66.9923C56.1 61.4978 60.5542 57.0436 66.0487 57.0436C71.5432 57.0436 75.9973 61.4978 75.9973 66.9923C75.9973 72.4868 71.5432 76.9409 66.0487 76.9409C60.5542 76.9409 56.1 72.4868 56.1 66.9923Z" fill="#ED131C"/>
</svg>
