<svg width="36" height="36" viewBox="0 0 36 36" fill="none" xmlns="http://www.w3.org/2000/svg">
<path fill-rule="evenodd" clip-rule="evenodd" d="M11.3721 22.2978L11.2198 30.4719C11.2143 30.7635 11.5106 30.9643 11.7796 30.8513L18.4119 28.065L24.9359 31.0892C25.2005 31.2119 25.5041 31.022 25.5095 30.7304L25.6618 22.5563C26.4929 21.7162 27.1498 20.7458 27.6326 19.6453C28.1154 18.5448 28.3685 17.3682 28.3919 16.1156C28.4415 13.4534 27.5354 11.1735 25.6735 9.27586C23.8117 7.37821 21.526 6.40487 18.8164 6.35586C16.1068 6.30685 13.7864 7.19686 11.8551 9.0259C9.92386 10.8549 8.93342 13.1005 8.88382 15.7627C8.86047 17.0153 9.06954 18.2003 9.51102 19.3175C9.95252 20.4347 10.5729 21.4282 11.3721 22.2978Z" fill="white"/>
<g filter="url(#filter0_dii_46_4244)">
<path d="M19.3612 10.457C19.1425 9.95203 18.4068 9.94287 18.1756 10.4422L16.9571 13.0737C16.8608 13.2815 16.6555 13.4222 16.4209 13.4408L13.451 13.6775C12.8875 13.7224 12.6517 14.3968 13.071 14.7644L15.2811 16.7013C15.4556 16.8542 15.5305 17.0869 15.4766 17.3086L14.7936 20.1159C14.6641 20.6485 15.254 21.0745 15.7444 20.8023L18.3288 19.3679C18.5329 19.2546 18.7846 19.2578 18.9858 19.3761L21.5336 20.8744C22.0171 21.1587 22.6175 20.7476 22.5012 20.2118L21.8884 17.3884C21.84 17.1654 21.9207 16.9347 22.0989 16.7861L24.3565 14.9049C24.7849 14.5479 24.566 13.8678 24.0037 13.8089L21.0406 13.4984C20.8066 13.4738 20.6048 13.3281 20.5138 13.118L19.3612 10.457Z" fill="#ED131C"/>
</g>
<defs>
<filter id="filter0_dii_46_4244" x="11.4873" y="9.08371" width="13.7033" height="12.8726" filterUnits="userSpaceOnUse" color-interpolation-filters="sRGB">
<feFlood flood-opacity="0" result="BackgroundImageFix"/>
<feColorMatrix in="SourceAlpha" type="matrix" values="0 0 0 0 0 0 0 0 0 0 0 0 0 0 0 0 0 0 127 0" result="hardAlpha"/>
<feOffset dx="-0.380591"/>
<feGaussianBlur stdDeviation="0.494768"/>
<feComposite in2="hardAlpha" operator="out"/>
<feColorMatrix type="matrix" values="0 0 0 0 0.531836 0 0 0 0 0.0249038 0 0 0 0 0.0447835 0 0 0 0.2 0"/>
<feBlend mode="normal" in2="BackgroundImageFix" result="effect1_dropShadow_46_4244"/>
<feBlend mode="normal" in="SourceGraphic" in2="effect1_dropShadow_46_4244" result="shape"/>
<feColorMatrix in="SourceAlpha" type="matrix" values="0 0 0 0 0 0 0 0 0 0 0 0 0 0 0 0 0 0 127 0" result="hardAlpha"/>
<feOffset dx="-0.236989"/>
<feGaussianBlur stdDeviation="0.236989"/>
<feComposite in2="hardAlpha" operator="arithmetic" k2="-1" k3="1"/>
<feColorMatrix type="matrix" values="0 0 0 0 1 0 0 0 0 0.3125 0 0 0 0 0.340883 0 0 0 1 0"/>
<feBlend mode="normal" in2="shape" result="effect2_innerShadow_46_4244"/>
<feColorMatrix in="SourceAlpha" type="matrix" values="0 0 0 0 0 0 0 0 0 0 0 0 0 0 0 0 0 0 127 0" result="hardAlpha"/>
<feOffset dx="0.236989"/>
<feGaussianBlur stdDeviation="0.207365"/>
<feComposite in2="hardAlpha" operator="arithmetic" k2="-1" k3="1"/>
<feColorMatrix type="matrix" values="0 0 0 0 0.8375 0 0 0 0 0.0628125 0 0 0 0 0.094795 0 0 0 1 0"/>
<feBlend mode="normal" in2="effect2_innerShadow_46_4244" result="effect3_innerShadow_46_4244"/>
</filter>
</defs>
</svg>
