<svg width="36" height="36" viewBox="0 0 36 36" fill="none" xmlns="http://www.w3.org/2000/svg">
<g filter="url(#filter0_d_46_4214)">
<path d="M12.4608 9.64589C12.4631 8.5275 13.3754 7.62353 14.4983 7.62681L25.7591 7.6597C26.882 7.66298 27.7904 8.57228 27.788 9.69067L27.7528 26.2024C27.7504 27.3208 26.8381 28.2248 25.7152 28.2215L14.4544 28.1886C13.3315 28.1853 12.4231 27.276 12.4255 26.1576L12.4608 9.64589Z" fill="white"/>
<path d="M9.80345 8.93716C9.80501 8.2059 10.4015 7.61484 11.1357 7.61698C11.8699 7.61913 12.4638 8.21367 12.4623 8.94492L12.424 26.8586C12.4224 27.5899 11.826 28.1809 11.0918 28.1788C10.3576 28.1766 9.76364 27.5821 9.7652 26.8509L9.80345 8.93716Z" fill="white"/>
<path d="M8.75619 8.92757C8.75775 8.19631 9.35421 7.60525 10.0884 7.6074L11.1357 7.61698L11.415 8.93534L11.0918 28.1788L10.0445 28.1692C9.31031 28.1671 8.71638 27.5725 8.71794 26.8413L8.75619 8.92757Z" fill="white"/>
<path d="M12.4608 9.64589C12.4631 8.5275 13.3754 7.62353 14.4983 7.62681L11.1357 7.61698C11.8699 7.61913 12.4638 8.21367 12.4623 8.94492L12.4608 9.64589Z" fill="white"/>
<path d="M14.4544 28.1886C13.3315 28.1853 12.4231 27.276 12.4255 26.1576L12.424 26.8586C12.4224 27.5899 11.826 28.1809 11.0918 28.1788L14.4544 28.1886Z" fill="white"/>
<g filter="url(#filter1_dii_46_4214)">
<path d="M16.0495 7.56348L20.6544 7.57693L20.6285 19.724C20.6274 20.2097 19.9557 20.3339 19.7808 19.8806L18.5369 16.6575C18.4648 16.4707 18.2011 16.4699 18.1282 16.6563L16.8706 19.8721C16.6937 20.3243 16.0226 20.1963 16.0236 19.7106L16.0495 7.56348Z" fill="#ED131C"/>
</g>
</g>
<defs>
<filter id="filter0_d_46_4214" x="5.78347" y="5.2159" width="24.939" height="26.5271" filterUnits="userSpaceOnUse" color-interpolation-filters="sRGB">
<feFlood flood-opacity="0" result="BackgroundImageFix"/>
<feColorMatrix in="SourceAlpha" type="matrix" values="0 0 0 0 0 0 0 0 0 0 0 0 0 0 0 0 0 0 127 0" result="hardAlpha"/>
<feOffset dy="0.586894"/>
<feGaussianBlur stdDeviation="1.46724"/>
<feComposite in2="hardAlpha" operator="out"/>
<feColorMatrix type="matrix" values="0 0 0 0 0 0 0 0 0 0 0 0 0 0 0 0 0 0 0.07 0"/>
<feBlend mode="normal" in2="BackgroundImageFix" result="effect1_dropShadow_46_4214"/>
<feBlend mode="normal" in="SourceGraphic" in2="effect1_dropShadow_46_4214" result="shape"/>
</filter>
<filter id="filter1_dii_46_4214" x="13.9092" y="6.0364" width="7.68494" height="15.6528" filterUnits="userSpaceOnUse" color-interpolation-filters="sRGB">
<feFlood flood-opacity="0" result="BackgroundImageFix"/>
<feColorMatrix in="SourceAlpha" type="matrix" values="0 0 0 0 0 0 0 0 0 0 0 0 0 0 0 0 0 0 127 0" result="hardAlpha"/>
<feOffset dx="-0.587338"/>
<feGaussianBlur stdDeviation="0.763539"/>
<feComposite in2="hardAlpha" operator="out"/>
<feColorMatrix type="matrix" values="0 0 0 0 0.531836 0 0 0 0 0.0249038 0 0 0 0 0.0447835 0 0 0 0.2 0"/>
<feBlend mode="normal" in2="BackgroundImageFix" result="effect1_dropShadow_46_4214"/>
<feBlend mode="normal" in="SourceGraphic" in2="effect1_dropShadow_46_4214" result="shape"/>
<feColorMatrix in="SourceAlpha" type="matrix" values="0 0 0 0 0 0 0 0 0 0 0 0 0 0 0 0 0 0 127 0" result="hardAlpha"/>
<feOffset dx="0.365728"/>
<feGaussianBlur stdDeviation="0.320012"/>
<feComposite in2="hardAlpha" operator="arithmetic" k2="-1" k3="1"/>
<feColorMatrix type="matrix" values="0 0 0 0 0.8375 0 0 0 0 0.0628125 0 0 0 0 0.094795 0 0 0 1 0"/>
<feBlend mode="normal" in2="shape" result="effect2_innerShadow_46_4214"/>
<feColorMatrix in="SourceAlpha" type="matrix" values="0 0 0 0 0 0 0 0 0 0 0 0 0 0 0 0 0 0 127 0" result="hardAlpha"/>
<feOffset dx="-0.365728"/>
<feGaussianBlur stdDeviation="0.365728"/>
<feComposite in2="hardAlpha" operator="arithmetic" k2="-1" k3="1"/>
<feColorMatrix type="matrix" values="0 0 0 0 1 0 0 0 0 0.3125 0 0 0 0 0.340883 0 0 0 1 0"/>
<feBlend mode="normal" in2="effect2_innerShadow_46_4214" result="effect3_innerShadow_46_4214"/>
</filter>
</defs>
</svg>
