<svg width="65" height="47" viewBox="0 0 65 47" fill="none" xmlns="http://www.w3.org/2000/svg">
  <path fill-rule="evenodd" clip-rule="evenodd" d="M16.25 37.1774V37.6004C16.25 38.8929 15.2054 39.9504 13.9286 39.9504C12.6517 39.9504 11.6071 38.8929 11.6071 37.6004V37.1774C8.91429 36.2139 6.96429 33.6054 6.96429 30.5504C6.96429 27.4954 8.91429 24.8869 11.6071 23.9234V9.40075C11.6071 8.10821 12.6517 7.05075 13.9286 7.05075C15.2054 7.05075 16.25 8.10821 16.25 9.40075V23.9234C18.9429 24.8868 20.8929 27.4954 20.8929 30.5504C20.8929 33.6054 18.9429 36.2138 16.25 37.1774Z" fill="#FCFAFA" />
  <path fill-rule="evenodd" clip-rule="evenodd" d="M34.8214 25.4274V37.6007C34.8214 38.8933 33.7768 39.9507 32.5 39.9507C31.2232 39.9507 30.1786 38.8933 30.1786 37.6007V25.4274C27.4857 24.4639 25.5357 21.8554 25.5357 18.8004C25.5357 15.7454 27.4857 13.1369 30.1786 12.1734V9.40038C30.1786 8.10784 31.2232 7.05038 32.5 7.05038C33.7768 7.05038 34.8214 8.10784 34.8214 9.40038V12.1734C37.5143 13.1368 39.4643 15.7454 39.4643 18.8004C39.4643 21.8554 37.5143 24.4638 34.8214 25.4274Z" fill="#FCFAFA" />
  <path fill-rule="evenodd" clip-rule="evenodd" d="M53.3929 32.4774V37.6004C53.3929 38.8929 52.3483 39.9504 51.0714 39.9504C49.7946 39.9504 48.75 38.8929 48.75 37.6004V32.4774C46.0571 31.5139 44.1071 28.9054 44.1071 25.8504C44.1071 22.7954 46.0571 20.1869 48.75 19.2234V9.40075C48.75 8.10821 49.7946 7.05075 51.0714 7.05075C52.3483 7.05075 53.3929 8.10821 53.3929 9.40075V19.2234C56.0857 20.1868 58.0357 22.7954 58.0357 25.8504C58.0357 28.9054 56.0857 31.5138 53.3929 32.4774Z" fill="#FCFAFA" />
  <path fill-rule="evenodd" clip-rule="evenodd" d="M7.45902 0H58.6066C62.8689 0 65 3.13333 65 7.31111V39.4999C65 43.8667 62.3361 47 58.6066 47H6.39344C2.66393 47 0 42.8222 0 39.9507V7.54038C0 2.61111 2.13115 0 7.45902 0ZM16.25 37.6004V37.1774C18.9429 36.2138 20.8929 33.6054 20.8929 30.5504C20.8929 27.4954 18.9429 24.8868 16.25 23.9234V9.40075C16.25 8.10821 15.2054 7.05075 13.9286 7.05075C12.6517 7.05075 11.6071 8.10821 11.6071 9.40075V23.9234C8.91429 24.8869 6.96429 27.4954 6.96429 30.5504C6.96429 33.6054 8.91429 36.2139 11.6071 37.1774V37.6004C11.6071 38.8929 12.6517 39.9504 13.9286 39.9504C15.2054 39.9504 16.25 38.8929 16.25 37.6004ZM34.8214 37.6007V25.4274C37.5143 24.4638 39.4643 21.8554 39.4643 18.8004C39.4643 15.7454 37.5143 13.1368 34.8214 12.1734V9.40038C34.8214 8.10784 33.7768 7.05038 32.5 7.05038C31.2232 7.05038 30.1786 8.10784 30.1786 9.40038V12.1734C27.4857 13.1369 25.5357 15.7454 25.5357 18.8004C25.5357 21.8554 27.4857 24.4639 30.1786 25.4274V37.6007C30.1786 38.8933 31.2232 39.9507 32.5 39.9507C33.7768 39.9507 34.8214 38.8933 34.8214 37.6007ZM53.3929 37.6004V32.4774C56.0857 31.5138 58.0357 28.9054 58.0357 25.8504C58.0357 22.7954 56.0857 20.1868 53.3929 19.2234V9.40075C53.3929 8.10821 52.3483 7.05075 51.0714 7.05075C49.7946 7.05075 48.75 8.10821 48.75 9.40075V19.2234C46.0571 20.1869 44.1071 22.7954 44.1071 25.8504C44.1071 28.9054 46.0571 31.5139 48.75 32.4774V37.6004C48.75 38.8929 49.7946 39.9504 51.0714 39.9504C52.3483 39.9504 53.3929 38.8929 53.3929 37.6004Z" fill="#ED131C" />
</svg>