<svg width="36" height="36" viewBox="0 0 36 36" fill="none" xmlns="http://www.w3.org/2000/svg">
<g clip-path="url(#clip0_46_4227)">
<g filter="url(#filter0_d_46_4227)">
<path d="M17.8852 29.4228C22.6061 29.4071 26.4288 25.8087 26.4235 21.3856L26.4138 13.3768L9.31785 13.4337L9.32753 21.4424C9.33287 25.8655 13.1643 29.4385 17.8852 29.4228Z" fill="white"/>
<path d="M17.6801 8.33169C17.8451 8.25145 18.0381 8.2517 18.2041 8.33236L32.002 15.0384C32.2293 15.1489 32.2312 15.4735 32.0052 15.5834L18.4153 22.1909C18.1677 22.3113 17.8782 22.3109 17.6293 22.1899L3.9627 15.5477C3.7354 15.4373 3.73352 15.1126 3.95954 15.0027L17.6801 8.33169Z" fill="white"/>
<g filter="url(#filter1_dii_46_4227)">
<path d="M12.0828 19.2855C11.7945 19.1458 11.4596 19.3568 11.4611 19.6772L11.4685 21.2515C11.4848 24.6826 14.4501 27.4647 18.0919 27.4655C21.7336 27.4662 24.6726 24.6853 24.6564 21.2542L24.6491 19.7057C24.6476 19.3869 24.3135 19.1789 24.0267 19.3184L18.4933 22.0088C18.2448 22.1296 17.9543 22.1296 17.7047 22.0086L12.0828 19.2855Z" fill="#ED131C"/>
</g>
</g>
</g>
<defs>
<filter id="filter0_d_46_4227" x="0.714597" y="5.81026" width="34.5355" height="27.3044" filterUnits="userSpaceOnUse" color-interpolation-filters="sRGB">
<feFlood flood-opacity="0" result="BackgroundImageFix"/>
<feColorMatrix in="SourceAlpha" type="matrix" values="0 0 0 0 0 0 0 0 0 0 0 0 0 0 0 0 0 0 127 0" result="hardAlpha"/>
<feOffset dy="0.615305"/>
<feGaussianBlur stdDeviation="1.53826"/>
<feComposite in2="hardAlpha" operator="out"/>
<feColorMatrix type="matrix" values="0 0 0 0 0 0 0 0 0 0 0 0 0 0 0 0 0 0 0.07 0"/>
<feBlend mode="normal" in2="BackgroundImageFix" result="effect1_dropShadow_46_4227"/>
<feBlend mode="normal" in="SourceGraphic" in2="effect1_dropShadow_46_4227" result="shape"/>
</filter>
<filter id="filter1_dii_46_4227" x="8.86818" y="17.3686" width="16.9407" height="11.9699" filterUnits="userSpaceOnUse" color-interpolation-filters="sRGB">
<feFlood flood-opacity="0" result="BackgroundImageFix"/>
<feColorMatrix in="SourceAlpha" type="matrix" values="0 0 0 0 0 0 0 0 0 0 0 0 0 0 0 0 0 0 127 0" result="hardAlpha"/>
<feOffset dx="-0.72025"/>
<feGaussianBlur stdDeviation="0.936325"/>
<feComposite in2="hardAlpha" operator="out"/>
<feColorMatrix type="matrix" values="0 0 0 0 0.531836 0 0 0 0 0.0249038 0 0 0 0 0.0447835 0 0 0 0.2 0"/>
<feBlend mode="normal" in2="BackgroundImageFix" result="effect1_dropShadow_46_4227"/>
<feBlend mode="normal" in="SourceGraphic" in2="effect1_dropShadow_46_4227" result="shape"/>
<feColorMatrix in="SourceAlpha" type="matrix" values="0 0 0 0 0 0 0 0 0 0 0 0 0 0 0 0 0 0 127 0" result="hardAlpha"/>
<feOffset dx="0.448491"/>
<feGaussianBlur stdDeviation="0.39243"/>
<feComposite in2="hardAlpha" operator="arithmetic" k2="-1" k3="1"/>
<feColorMatrix type="matrix" values="0 0 0 0 0.8375 0 0 0 0 0.0628125 0 0 0 0 0.094795 0 0 0 1 0"/>
<feBlend mode="normal" in2="shape" result="effect2_innerShadow_46_4227"/>
<feColorMatrix in="SourceAlpha" type="matrix" values="0 0 0 0 0 0 0 0 0 0 0 0 0 0 0 0 0 0 127 0" result="hardAlpha"/>
<feOffset dx="-0.448491"/>
<feGaussianBlur stdDeviation="0.448491"/>
<feComposite in2="hardAlpha" operator="arithmetic" k2="-1" k3="1"/>
<feColorMatrix type="matrix" values="0 0 0 0 1 0 0 0 0 0.3125 0 0 0 0 0.340883 0 0 0 1 0"/>
<feBlend mode="normal" in2="effect2_innerShadow_46_4227" result="effect3_innerShadow_46_4227"/>
</filter>
<clipPath id="clip0_46_4227">
<rect width="35.175" height="35.175" fill="white" transform="translate(0.602753 0.361328) rotate(0.167372)"/>
</clipPath>
</defs>
</svg>
