<svg xmlns="http://www.w3.org/2000/svg" fill="none" viewBox="0 0 136 136"><g filter="url(#a)"><path fill="#ED131C" d="M87 144a55.6 55.6 0 0 1-22.13-4.44 57.7 57.7 0 0 1-18.2-12.26A56.7 56.7 0 0 1 30 86.8c0-12.3 3.57-23.4 10.71-33.26a57.98 57.98 0 0 1 27.94-21v15.65A45.33 45.33 0 0 0 51.08 64.1a41.16 41.16 0 0 0-6.65 22.83c0 11.74 4.15 21.77 12.46 30.08 8.3 8.32 18.35 12.48 30.11 12.48 11.76 0 21.8-4.19 30.11-12.55 8.31-8.36 12.46-18.4 12.46-30.15 0-8.36-2.21-15.97-6.65-22.83a44.27 44.27 0 0 0-17.57-15.78V32.54a57.98 57.98 0 0 1 27.94 21A55.33 55.33 0 0 1 144 86.78a56.69 56.69 0 0 1-16.67 40.51 57.93 57.93 0 0 1-18.13 12.26A55.46 55.46 0 0 1 87 144Zm0-32.55L55.63 79.88l11.62-11.7 11.49 11.7V30h16.52v49.88l11.49-11.7 11.62 11.7L87 111.45Z"/></g><defs><filter id="a" width="122" height="114" x="26" y="30" color-interpolation-filters="sRGB" filterUnits="userSpaceOnUse"><feFlood flood-opacity="0" result="BackgroundImageFix"/><feBlend in="SourceGraphic" in2="BackgroundImageFix" result="shape"/><feColorMatrix in="SourceAlpha" result="hardAlpha" values="0 0 0 0 0 0 0 0 0 0 0 0 0 0 0 0 0 0 127 0"/><feOffset dx="4"/><feGaussianBlur stdDeviation="3.5"/><feComposite in2="hardAlpha" k2="-1" k3="1" operator="arithmetic"/><feColorMatrix values="0 0 0 0 0.8375 0 0 0 0 0.0628125 0 0 0 0 0.094795 0 0 0 1 0"/><feBlend in2="shape" result="effect1_innerShadow_15435_44038"/><feColorMatrix in="SourceAlpha" result="hardAlpha" values="0 0 0 0 0 0 0 0 0 0 0 0 0 0 0 0 0 0 127 0"/><feOffset dx="-4"/><feGaussianBlur stdDeviation="4"/><feComposite in2="hardAlpha" k2="-1" k3="1" operator="arithmetic"/><feColorMatrix values="0 0 0 0 1 0 0 0 0 0.3125 0 0 0 0 0.340883 0 0 0 1 0"/><feBlend in2="effect1_innerShadow_15435_44038" result="effect2_innerShadow_15435_44038"/></filter></defs></svg>