<svg xmlns="http://www.w3.org/2000/svg" fill="none" viewBox="0 0 280 225"><g filter="url(#a)"><path fill="#ED131C" d="M151.5 250c-15.34 0-29.77-2.88-43.28-8.64a112.9 112.9 0 0 1-35.62-23.88 110.38 110.38 0 0 1-23.97-35.53A109.7 109.7 0 0 1 40 138.59c0-23.97 6.99-45.55 20.96-64.76 13.97-19.21 32.19-32.84 54.65-40.9V63.4a88.53 88.53 0 0 0-34.38 31c-8.67 13.36-13.01 28.18-13.01 44.46 0 22.87 8.12 42.4 24.38 58.59 16.25 16.19 35.89 24.29 58.9 24.29 23.01 0 42.65-8.15 58.9-24.43s24.38-35.85 24.38-58.72c0-16.28-4.34-31.1-13.01-44.46a86.47 86.47 0 0 0-34.38-30.73V32.94c22.46 8.05 40.68 21.68 54.65 40.89 13.97 19.2 20.96 40.8 20.96 64.76a109.7 109.7 0 0 1-8.63 43.36 110.37 110.37 0 0 1-23.97 35.53 113.33 113.33 0 0 1-35.48 23.88c-13.42 5.76-27.9 8.64-43.42 8.64Zm0-63.39-61.37-61.47 22.74-22.77 22.47 22.77V28h32.32v97.14l22.47-22.77 22.74 22.77-61.37 61.47Z"/></g><defs><filter id="a" width="231" height="222" x="36" y="28" color-interpolation-filters="sRGB" filterUnits="userSpaceOnUse"><feFlood flood-opacity="0" result="BackgroundImageFix"/><feBlend in="SourceGraphic" in2="BackgroundImageFix" result="shape"/><feColorMatrix in="SourceAlpha" result="hardAlpha" values="0 0 0 0 0 0 0 0 0 0 0 0 0 0 0 0 0 0 127 0"/><feOffset dx="4"/><feGaussianBlur stdDeviation="3.5"/><feComposite in2="hardAlpha" k2="-1" k3="1" operator="arithmetic"/><feColorMatrix values="0 0 0 0 0.8375 0 0 0 0 0.0628125 0 0 0 0 0.094795 0 0 0 1 0"/><feBlend in2="shape" result="effect1_innerShadow_15435_43818"/><feColorMatrix in="SourceAlpha" result="hardAlpha" values="0 0 0 0 0 0 0 0 0 0 0 0 0 0 0 0 0 0 127 0"/><feOffset dx="-4"/><feGaussianBlur stdDeviation="4"/><feComposite in2="hardAlpha" k2="-1" k3="1" operator="arithmetic"/><feColorMatrix values="0 0 0 0 1 0 0 0 0 0.3125 0 0 0 0 0.340883 0 0 0 1 0"/><feBlend in2="effect1_innerShadow_15435_43818" result="effect2_innerShadow_15435_43818"/></filter></defs></svg>