<svg xmlns="http://www.w3.org/2000/svg" fill="none" viewBox="0 0 150 136"><g filter="url(#a)"><path fill="#ED131C" fill-rule="evenodd" d="M82.02 35.54c2.29 3.72 6.05 5.94 10.07 5.94h53.65c6.77 0 12.26 6.18 12.26 13.8v74.91c0 7.63-5.49 13.81-12.26 13.81H36.26C29.49 144 24 137.82 24 130.2V40.55c0-7.63 5.49-13.81 12.26-13.81h33.93c4.02 0 7.78 2.22 10.07 5.94l1.76 2.85Z" clip-rule="evenodd"/></g><g filter="url(#b)"><path fill="#ED131C" d="m93.8 55.78 6.09 9.3 9.34-6.01 1.79 10.97 10.99-1.7-2.84 10.75 10.73 2.93-6.96 8.67 8.61 7.03-9.88 5.09 5 9.92-11.1.63.54 11.1-10.4-3.93-4.02 10.36-7.9-7.83-7.9 7.83-4.02-10.36-10.4 3.94.54-11.1-11.1-.64 5-9.92-9.88-5.1 8.61-7.02-6.96-8.67 10.73-2.92-2.83-10.75 10.98 1.69 1.79-10.97 9.35 6.01 6.1-9.3Z"/></g><defs><filter id="a" width="138.47" height="117.25" x="21.77" y="26.75" color-interpolation-filters="sRGB" filterUnits="userSpaceOnUse"><feFlood flood-opacity="0" result="BackgroundImageFix"/><feBlend in="SourceGraphic" in2="BackgroundImageFix" result="shape"/><feColorMatrix in="SourceAlpha" result="hardAlpha" values="0 0 0 0 0 0 0 0 0 0 0 0 0 0 0 0 0 0 127 0"/><feOffset dx="2.23"/><feGaussianBlur stdDeviation="1.95"/><feComposite in2="hardAlpha" k2="-1" k3="1" operator="arithmetic"/><feColorMatrix values="0 0 0 0 0.8375 0 0 0 0 0.0628125 0 0 0 0 0.094795 0 0 0 1 0"/><feBlend in2="shape" result="effect1_innerShadow_15435_44005"/><feColorMatrix in="SourceAlpha" result="hardAlpha" values="0 0 0 0 0 0 0 0 0 0 0 0 0 0 0 0 0 0 127 0"/><feOffset dx="-2.23"/><feGaussianBlur stdDeviation="2.23"/><feComposite in2="hardAlpha" k2="-1" k3="1" operator="arithmetic"/><feColorMatrix values="0 0 0 0 1 0 0 0 0 0.3125 0 0 0 0 0.340883 0 0 0 1 0"/><feBlend in2="effect1_innerShadow_15435_44005" result="effect2_innerShadow_15435_44005"/></filter><filter id="b" width="79.98" height="75.1" x="53.8" y="55.78" color-interpolation-filters="sRGB" filterUnits="userSpaceOnUse"><feFlood flood-opacity="0" result="BackgroundImageFix"/><feBlend in="SourceGraphic" in2="BackgroundImageFix" result="shape"/><feColorMatrix in="SourceAlpha" result="hardAlpha" values="0 0 0 0 0 0 0 0 0 0 0 0 0 0 0 0 0 0 127 0"/><feOffset dx="2.23"/><feGaussianBlur stdDeviation="1.95"/><feComposite in2="hardAlpha" k2="-1" k3="1" operator="arithmetic"/><feColorMatrix values="0 0 0 0 0.8375 0 0 0 0 0.0628125 0 0 0 0 0.094795 0 0 0 1 0"/><feBlend in2="shape" result="effect1_innerShadow_15435_44005"/><feColorMatrix in="SourceAlpha" result="hardAlpha" values="0 0 0 0 0 0 0 0 0 0 0 0 0 0 0 0 0 0 127 0"/><feOffset dx="-2.23"/><feGaussianBlur stdDeviation="2.23"/><feComposite in2="hardAlpha" k2="-1" k3="1" operator="arithmetic"/><feColorMatrix values="0 0 0 0 1 0 0 0 0 0.3125 0 0 0 0 0.340883 0 0 0 1 0"/><feBlend in2="effect1_innerShadow_15435_44005" result="effect2_innerShadow_15435_44005"/></filter></defs></svg>