<svg xmlns="http://www.w3.org/2000/svg" fill="none" viewBox="0 0 280 225"><g filter="url(#a)"><path fill="#ED131C" fill-rule="evenodd" d="M127.91 45.74c4.1 6.67 10.84 10.64 18.04 10.64h96.1c12.12 0 21.95 11.07 21.95 24.73v134.16c0 13.66-9.83 24.73-21.95 24.73H45.95C33.83 240 24 228.93 24 215.27V54.73C24 41.07 33.83 30 45.95 30h60.78c7.2 0 13.94 3.97 18.04 10.64l3.14 5.1Z" clip-rule="evenodd"/></g><g filter="url(#b)"><path fill="#ED131C" d="m149 82 10.91 16.65 16.75-10.77 3.2 19.65 19.67-3.03-5.07 19.25 19.21 5.24-12.46 15.52 15.42 12.6-17.7 9.11 8.96 17.78-19.88 1.13.96 19.88-18.62-7.05-7.21 18.55L149 202.5l-14.14 14.01-7.21-18.55-18.62 7.05.96-19.88L90.1 184l8.96-17.78-17.7-9.11 15.42-12.6L84.33 129l19.2-5.24-5.06-19.25 19.67 3.03 3.2-19.65 16.75 10.77L149 82Z"/></g><defs><filter id="a" width="248" height="210" x="20" y="30" color-interpolation-filters="sRGB" filterUnits="userSpaceOnUse"><feFlood flood-opacity="0" result="BackgroundImageFix"/><feBlend in="SourceGraphic" in2="BackgroundImageFix" result="shape"/><feColorMatrix in="SourceAlpha" result="hardAlpha" values="0 0 0 0 0 0 0 0 0 0 0 0 0 0 0 0 0 0 127 0"/><feOffset dx="4"/><feGaussianBlur stdDeviation="3.5"/><feComposite in2="hardAlpha" k2="-1" k3="1" operator="arithmetic"/><feColorMatrix values="0 0 0 0 0.8375 0 0 0 0 0.0628125 0 0 0 0 0.094795 0 0 0 1 0"/><feBlend in2="shape" result="effect1_innerShadow_15435_43854"/><feColorMatrix in="SourceAlpha" result="hardAlpha" values="0 0 0 0 0 0 0 0 0 0 0 0 0 0 0 0 0 0 127 0"/><feOffset dx="-4"/><feGaussianBlur stdDeviation="4"/><feComposite in2="hardAlpha" k2="-1" k3="1" operator="arithmetic"/><feColorMatrix values="0 0 0 0 1 0 0 0 0 0.3125 0 0 0 0 0.340883 0 0 0 1 0"/><feBlend in2="effect1_innerShadow_15435_43854" result="effect2_innerShadow_15435_43854"/></filter><filter id="b" width="143.25" height="134.51" x="77.37" y="82" color-interpolation-filters="sRGB" filterUnits="userSpaceOnUse"><feFlood flood-opacity="0" result="BackgroundImageFix"/><feBlend in="SourceGraphic" in2="BackgroundImageFix" result="shape"/><feColorMatrix in="SourceAlpha" result="hardAlpha" values="0 0 0 0 0 0 0 0 0 0 0 0 0 0 0 0 0 0 127 0"/><feOffset dx="4"/><feGaussianBlur stdDeviation="3.5"/><feComposite in2="hardAlpha" k2="-1" k3="1" operator="arithmetic"/><feColorMatrix values="0 0 0 0 0.8375 0 0 0 0 0.0628125 0 0 0 0 0.094795 0 0 0 1 0"/><feBlend in2="shape" result="effect1_innerShadow_15435_43854"/><feColorMatrix in="SourceAlpha" result="hardAlpha" values="0 0 0 0 0 0 0 0 0 0 0 0 0 0 0 0 0 0 127 0"/><feOffset dx="-4"/><feGaussianBlur stdDeviation="4"/><feComposite in2="hardAlpha" k2="-1" k3="1" operator="arithmetic"/><feColorMatrix values="0 0 0 0 1 0 0 0 0 0.3125 0 0 0 0 0.340883 0 0 0 1 0"/><feBlend in2="effect1_innerShadow_15435_43854" result="effect2_innerShadow_15435_43854"/></filter></defs></svg>