<svg xmlns="http://www.w3.org/2000/svg" fill="none" viewBox="0 0 136 136"><g filter="url(#a)"><path fill="#ED131C" d="M81.34 75.33c18.56 0 33.65-2.85 45.25-8.53C138.2 61.12 144 54.74 144 47.66c0-7.29-5.8-13.72-17.4-19.3C114.98 22.8 99.9 20 81.33 20c-18.46 0-33.44 2.79-44.93 8.36-11.5 5.58-17.25 12.01-17.25 19.3 0 7.08 5.75 13.46 17.25 19.14s26.47 8.53 44.93 8.53Zm.16 14.63c7.88 0 15.54-.62 23-1.85a99.3 99.3 0 0 0 19.99-5.3c5.88-2.31 10.6-5.07 14.17-8.29 3.56-3.22 5.34-6.75 5.34-10.61v19.62c0 3.97-1.78 7.56-5.34 10.77-3.56 3.22-8.29 5.95-14.17 8.2-5.88 2.26-12.55 4-20 5.23a140.57 140.57 0 0 1-22.99 1.85c-7.88 0-15.54-.61-23-1.85a99.25 99.25 0 0 1-19.99-5.3c-5.88-2.31-10.6-5.07-14.17-8.29C20.78 90.93 19 87.4 19 83.53V63.9c0 3.86 1.78 7.37 5.34 10.53 3.57 3.16 8.29 5.9 14.17 8.2 5.88 2.3 12.55 4.1 20 5.4a134.84 134.84 0 0 0 22.99 1.92Zm0 34.26c7.88 0 15.54-.62 23-1.85 7.44-1.23 14.1-3 19.99-5.3 5.88-2.31 10.6-5.07 14.17-8.3 3.56-3.2 5.34-6.8 5.34-10.77v19.95c0 3.86-1.78 7.4-5.34 10.61-3.56 3.22-8.29 5.98-14.17 8.28a99.32 99.32 0 0 1-20 5.31 140.57 140.57 0 0 1-45.98-.08 102.9 102.9 0 0 1-20-5.39c-5.88-2.3-10.6-5.04-14.17-8.2-3.56-3.16-5.34-6.67-5.34-10.53V98c0 3.86 1.78 7.4 5.34 10.62 3.57 3.21 8.29 5.97 14.17 8.28a102.9 102.9 0 0 0 20 5.39 134.81 134.81 0 0 0 22.99 1.93Z"/></g><defs><filter id="a" width="133" height="124" x="15" y="20" color-interpolation-filters="sRGB" filterUnits="userSpaceOnUse"><feFlood flood-opacity="0" result="BackgroundImageFix"/><feBlend in="SourceGraphic" in2="BackgroundImageFix" result="shape"/><feColorMatrix in="SourceAlpha" result="hardAlpha" values="0 0 0 0 0 0 0 0 0 0 0 0 0 0 0 0 0 0 127 0"/><feOffset dx="4"/><feGaussianBlur stdDeviation="3.5"/><feComposite in2="hardAlpha" k2="-1" k3="1" operator="arithmetic"/><feColorMatrix values="0 0 0 0 0.8375 0 0 0 0 0.0628125 0 0 0 0 0.094795 0 0 0 1 0"/><feBlend in2="shape" result="effect1_innerShadow_15435_43901"/><feColorMatrix in="SourceAlpha" result="hardAlpha" values="0 0 0 0 0 0 0 0 0 0 0 0 0 0 0 0 0 0 127 0"/><feOffset dx="-4"/><feGaussianBlur stdDeviation="4"/><feComposite in2="hardAlpha" k2="-1" k3="1" operator="arithmetic"/><feColorMatrix values="0 0 0 0 1 0 0 0 0 0.3125 0 0 0 0 0.340883 0 0 0 1 0"/><feBlend in2="effect1_innerShadow_15435_43901" result="effect2_innerShadow_15435_43901"/></filter></defs></svg>