<svg xmlns="http://www.w3.org/2000/svg" fill="none" viewBox="0 0 280 225"><g filter="url(#a)"><path fill="#ED131C" d="M153.21 118.16c32.83 0 59.5-5.04 80.02-15.13C253.74 92.95 264 81.63 264 69.08c0-12.94-10.26-24.35-30.77-34.24C212.7 24.94 186.03 20 153.2 20c-32.63 0-59.11 4.95-79.44 14.84-20.32 9.89-30.48 21.3-30.48 34.24 0 12.55 10.16 23.87 30.48 33.95 20.33 10.09 46.8 15.13 79.44 15.13Zm.29 25.97c13.93 0 27.48-1.1 40.65-3.29 13.17-2.19 24.95-5.32 35.35-9.41 10.4-4.1 18.75-9 25.05-14.7 6.3-5.7 9.45-11.98 9.45-18.83v34.81c0 7.04-3.15 13.41-9.45 19.12-6.3 5.7-14.64 10.56-25.05 14.55-10.4 4-22.18 7.09-35.35 9.28a247.63 247.63 0 0 1-40.65 3.28c-13.93 0-27.48-1.1-40.65-3.28-13.17-2.2-24.95-5.33-35.35-9.42-10.4-4.1-18.76-8.99-25.05-14.7-6.3-5.7-9.45-11.98-9.45-18.83V97.9c0 6.85 3.15 13.08 9.45 18.69 6.3 5.61 14.64 10.46 25.05 14.55 10.4 4.1 22.18 7.28 35.35 9.56a237.56 237.56 0 0 0 40.65 3.43Zm0 60.77c13.93 0 27.48-1.1 40.65-3.28 13.17-2.19 24.95-5.33 35.35-9.41 10.4-4.1 18.75-9 25.05-14.7 6.3-5.7 9.45-12.08 9.45-19.12v35.38c0 6.85-3.15 13.13-9.45 18.84-6.3 5.7-14.64 10.6-25.05 14.7-10.4 4.08-22.18 7.22-35.35 9.4A247.74 247.74 0 0 1 153.5 240c-13.93 0-27.48-1.14-40.65-3.42-13.17-2.29-24.95-5.47-35.35-9.56-10.4-4.1-18.76-8.94-25.05-14.56-6.3-5.6-9.45-11.84-9.45-18.69V158.4c0 6.85 3.15 13.13 9.45 18.83 6.3 5.71 14.64 10.61 25.05 14.7 10.4 4.09 22.18 7.28 35.35 9.56a237.67 237.67 0 0 0 40.65 3.42Z"/></g><defs><filter id="a" width="229" height="220" x="39" y="20" color-interpolation-filters="sRGB" filterUnits="userSpaceOnUse"><feFlood flood-opacity="0" result="BackgroundImageFix"/><feBlend in="SourceGraphic" in2="BackgroundImageFix" result="shape"/><feColorMatrix in="SourceAlpha" result="hardAlpha" values="0 0 0 0 0 0 0 0 0 0 0 0 0 0 0 0 0 0 127 0"/><feOffset dx="4"/><feGaussianBlur stdDeviation="3.5"/><feComposite in2="hardAlpha" k2="-1" k3="1" operator="arithmetic"/><feColorMatrix values="0 0 0 0 0.8375 0 0 0 0 0.0628125 0 0 0 0 0.094795 0 0 0 1 0"/><feBlend in2="shape" result="effect1_innerShadow_15435_43888"/><feColorMatrix in="SourceAlpha" result="hardAlpha" values="0 0 0 0 0 0 0 0 0 0 0 0 0 0 0 0 0 0 127 0"/><feOffset dx="-4"/><feGaussianBlur stdDeviation="4"/><feComposite in2="hardAlpha" k2="-1" k3="1" operator="arithmetic"/><feColorMatrix values="0 0 0 0 1 0 0 0 0 0.3125 0 0 0 0 0.340883 0 0 0 1 0"/><feBlend in2="effect1_innerShadow_15435_43888" result="effect2_innerShadow_15435_43888"/></filter></defs></svg>