<svg xmlns="http://www.w3.org/2000/svg" fill="none" viewBox="0 0 213 246"><g clip-path="url(#a)"><rect width="197" height="244" x="10.91" y=".85" fill="#ECEDF0" rx="12"/><rect width="160" height="190" x="52.91" y="27.53" fill="#ED131C" rx="12"/><rect width="200" height="244" x=".91" y=".85" fill="#E0E1E5" rx="12"/><path fill="#1C1C1C" fill-rule="evenodd" d="m101.56 76.85 2.6 3.11-2.6 3.28-2.6-3.28 2.6-3.11Zm-27.67 23c.72-3.36-2.26-1.6-3.06-.97.98-2.78 0-3.84-.82-4.72-.51-.56-.96-1.05-.83-1.84.16-.89 1.38-1.07 2.57-1.24.76-.11 1.5-.22 1.94-.5.53-.35 1.1-.97 1.66-1.58 1.55-1.7 3.13-3.43 4.28.27-2.92 2.79-1.22 6.9 2.48 6.9 0 0 .02.6-.01.64-4.42-.22-5.95-3.56-5.15-6.24.14-.47-4.53-.48-4.53 2.53 0 1 .69 1.73 1.38 2.48.7.76 1.42 1.52 1.42 2.58 0 .98-1.02 1.69-1.33 1.69Zm50.97-9.28c-.14-.47 4.53-.48 4.53 2.53 0 1-.69 1.73-1.38 2.48-.7.76-1.42 1.53-1.42 2.58 0 .98 1.02 1.69 1.34 1.69-.72-3.36 2.25-1.6 3.05-.97-.98-2.78 0-3.84.82-4.72.51-.56.96-1.04.83-1.84-.15-.89-1.38-1.07-2.57-1.24-.75-.11-1.5-.22-1.93-.5-.54-.35-1.1-.97-1.66-1.58-1.56-1.7-3.14-3.43-4.29.27 2.92 2.8 1.22 6.9-2.48 6.9 0 0-.02.6.02.64 4.41-.22 5.95-3.56 5.14-6.24Zm-12.42 7.58c4.76-.01 9.24-.03 9.8 3.14.2 1.1-.3 2.8-.86 3.28-.1-.35-.61-1.5-2.24-1.76-8.2-1.3-15.06 11.91-8.87 17.25.1.09.04.24-.09.24H91.63a.13.13 0 0 1-.08-.23c6.18-5.35-.67-18.55-8.88-17.26-1.62.26-2.14 1.4-2.23 1.76-.56-.49-1.07-2.18-.87-3.28.57-3.17 5.05-3.15 9.8-3.14 3.11.01 6.34.03 8.66-.85.11 1.52-1.8 3.97-3.64 4.87 3.13 2.84 5.95 8.57 6.52 15.57.56-7 3.38-12.72 6.52-15.57-1.84-.9-3.76-3.35-3.64-4.87 2.32.88 5.54.86 8.65.85Zm-15.2 37.34c.17-.4.33-.73.47-.98.22-.38.22-.67.1-1.07-.2-.6-.25-1.14-.16-1.6-.26 0-.32.35-.4.8-.13.7-.3 1.6-1.34 1.6.46-.7.3-1.32-.1-1.94-.58-.89-.57-1.68 0-2.15.55-.46 1.71-.18 2.46.58.31-.38 1.28-.63 1.79-.63-.22-.28-.3-.59-.23-.93-1.4.11-3.84-.86-3.84-2.37 0-1.13 1.72-1.98 2.79-2.26l-1.25-3.8c-.08-.26.08-.43.26-.44h.03c.1 0 .21.07.27.23l1.35 4.05c-.18.02-.34.05-.47.09l5.1 17.35c.33-.21.65-.45.94-.7l.43 1.3c-1.4.75-5.57 1.35-7.7-.9-.74.37-2.66.02-2.66-1.75 0-.17.03-.45.1-.74l.02.23c.15-.12.33-.22.53-.31.01.41.28.5.7.5a6.8 6.8 0 0 1 0-.76 9.15 9.15 0 0 1 2.43-.32c-.76-.75-1-2.95-.61-4.22-.35.38-.7.76-1 1.14Zm-.8 3.4c.06-1.23.43-2.48.8-3.4-1.19 1.44-2.04 2.82-2.05 3.74.06-.25.15-.51.27-.71.23-.38.4-.16.33.15-.05.2-.07.35-.06.48.21-.1.45-.19.7-.26Zm8.57 2.42a4.3 4.3 0 0 0 1.58-3.12c0-1.3-1.53-.86-2.28.15l-.2-1.36-.49-3.3c-.06-.43.11-.58.38-.7.9-.42 2.32-.08 2.27 1.54 0 .37.4.37.44 0 .27-2.43-1.05-3.13-2.44-2.85l-.16-.78-.3-1.5c-.14-.6-.18-1.69.36-1.69.26 0 .2.79.16 1.28v.18c-.03.39.08.62.33.63.16.01.36-.24.47-.4.8-1.11.98-2.83.05-3.66-.78-.7-2.72-.18-3.25.81a4.76 4.76 0 0 0-.65-1.26c-.18-.26-.23-.44.02-.67.12-.11.47-.55.47-1 0-.27-.17-.76-.7-.76-.41 0-.88.36-.88 1.16 0 .18.04.37.13.57a3.6 3.6 0 0 0-.88 0l5.57 16.73Zm6.92-35.13a5.3 5.3 0 0 1 5.18 1.04c0-1.62-1.29-3.06-1.74-3.24a7.67 7.67 0 0 0-3.44 2.2Zm-27.22 1.04a5.3 5.3 0 0 1 5.19-1.04 7.66 7.66 0 0 0-3.45-2.2c-.45.18-1.73 1.62-1.73 3.24Zm32.4-20.12Zm0 0-1.95-2.58-1.94 2.58 1.94 2.53 1.94-2.53Zm11.65 57.64Zm-2.59-2.72 2.6 2.72-2.6 2.39-2.59-2.39 2.6-2.72ZM88.6 87.1l-1.94-2.58-1.94 2.58 1.94 2.53 1.94-2.53ZM90 97.3h-6.18a13.1 13.1 0 0 1-1.36-2.08c-.97-2.47.27-3.63 2.1-3.63l2.35 2.02 2.36-2.02c1.82 0 3.07 1.16 2.1 3.63-.13.32-.43.78-.71 1.19 2.2-.29 5-1.7 5.61-4.75 0 0-1.62-2.44-2.03-3.42-1.46-3.55.4-5 3.14-5l3.53 3.92 3.53-3.92c2.73 0 4.6 1.45 3.14 5-.41.98-2.03 3.42-2.03 3.42.61 3.04 3.41 4.46 5.61 4.75-.28-.41-.58-.87-.7-1.2-.98-2.46.27-3.62 2.09-3.62l2.36 2.02 2.35-2.02c1.82 0 3.07 1.16 2.1 3.63-.28.69-1.36 2.08-1.36 2.08h-6.19c-5.2 0-7.55-3.02-8.25-5.64h-5.3c-.7 2.62-3.05 5.63-8.25 5.63Zm55.94 17.57a28.96 28.96 0 0 1-16.3 2.57c.08-.4.16-.82.22-1.24 5.67-.7 10.28-1.67 13.22-3.33 3.35-1.9 4.81-6.41 3.12-9.78-.04-.08-.16-.1-.22-.03-.93 1.09-6.75 7.52-15.93 9.53-.03-.49-.07-.97-.13-1.45 4.45-2.56 8.8-5.52 10.88-8.23 3.13-4.1 2.84-9.3-.14-11.97a.14.14 0 0 0-.21.03c-.94 1.58-9.77 16.08-19.46 22.33l-.36.23a.47.47 0 0 0-.07.75 5.49 5.49 0 0 1 1.81 4.05c0 2.77-2.1 5.07-4.87 5.56-1.4.28-3.44.2-5.4-.45-.08-.03-.17.03-.17.12v8.75c0 .14.2.17.26.04 1.18-3.2 4.74-3.88 6.3-3.88.55 3.42 1.55 6.25 2.85 7.77 2.11 2.47 5.57 2.44 7.06.73a.12.12 0 0 0 .03-.1.12.12 0 0 0-.06-.1c-.88-.5-5.91-3.64-6.92-8.79.4-.13.79-.3 1.16-.48 1.62 2.73 3.99 5.16 5.89 6.1 3.2 1.55 6.12.8 7.42-1.49.05-.08 0-.18-.1-.19-1.98-.16-8.05-1.92-10.64-6.23.3-.27.59-.56.86-.87 2.7 2.1 6.53 3.94 9.26 4.32 3.2.44 6.84-.6 6.92-4.38a.14.14 0 0 0-.14-.13c-1.14.07-8.68.4-14.05-2.73.19-.36.36-.73.52-1.1 0 0 8.12 1.95 11.96 1.3 3.83-.64 6.06-3.53 5.63-7.13-.01-.1-.11-.15-.2-.1ZM73.8 121.9c-.19-.36-.36-.73-.52-1.1 0 0-8.12 1.95-11.96 1.3-3.83-.64-6.06-3.53-5.63-7.13 0-.1.11-.15.2-.1 1.14.59 7.8 3.74 16.3 2.57-.08-.4-.16-.82-.22-1.24-5.67-.7-10.28-1.67-13.22-3.33-3.35-1.9-4.81-6.41-3.13-9.78.05-.08.17-.1.23-.02.94 1.09 6.76 7.52 15.93 9.52.03-.49.07-.97.13-1.45-4.46-2.57-8.8-5.53-10.88-8.23-3.13-4.09-2.84-9.3.13-11.97a.14.14 0 0 1 .22.03c.95 1.6 9.77 16.08 19.46 22.33l.36.23c.28.17.31.54.07.75a5.5 5.5 0 0 0-1.81 4.05c0 2.77 2.1 5.07 4.87 5.56 1.4.28 3.44.2 5.4-.45.08-.03.17.03.17.12v8.75c0 .14-.2.17-.26.04-1.18-3.2-4.74-3.88-6.3-3.88-.55 3.42-1.55 6.25-2.85 7.77-2.11 2.47-5.57 2.44-7.06.73a.13.13 0 0 1-.03-.1c0-.04.03-.07.06-.1.88-.5 5.91-3.64 6.92-8.78-.4-.14-.79-.3-1.16-.49-1.62 2.73-3.99 5.16-5.89 6.1-3.2 1.55-6.12.8-7.42-1.49-.05-.08 0-.18.1-.19 1.98-.16 8.05-1.92 10.63-6.23-.3-.27-.58-.56-.85-.87-2.7 2.1-6.53 3.94-9.26 4.32-3.2.44-6.83-.6-6.92-4.38 0-.07.06-.14.14-.13 1.14.07 8.68.4 14.05-2.73Zm53.35 26.56-2.96-2.32a5.15 5.15 0 0 0-2.39 3.12c-1.78.24-6.64-.83-6.17-1.54 5.33-7.45 1.26-11.88-3.64-11.63v5c0 1.6-1.4 2.9-3.14 2.9h-3.38c-2.43 0-4 2.43-4 2.43s-1.58-2.42-4-2.42h-3.39c-1.73 0-3.14-1.3-3.14-2.91v-5c-4.9-.25-8.97 4.18-3.64 11.63.46.7-4.53 1.83-6.87 1.55a3.47 3.47 0 0 0-3.75-.82s-9.2-8.66-9.37-8.75l.08-.17c.52-.98-.28-2.04-.79-1.97.6-.7.62-3.78-2.65-4.49.1.62.15 1.88.15 1.88s-2.53-1.35-3.8-.19c-1.1 1.32.44 3.7.44 3.7s-1.3.02-1.93-.03c.94 3.15 4.07 2.92 4.75 2.3-.04.5 1.1 1.22 2.06.65l.42-.2c.07.1 9.04 8.51 9.04 8.51-.42.61-.61 1.36-.48 2.15a3.23 3.23 0 0 0 2.59 2.54c.93.19 1.82 0 2.52-.4l2.38 2.19c.2.19.5.3.81.28.58-.04 1.02-.5.97-1.04a.92.92 0 0 0-.31-.6l-2.42-2.25c1.96-1.37 5.62-2.33 8.65-2.33.54 0 .79-.45.6-.89-1.37-3.29 1.59-5.67 4.64-3.73 1.34.85 2.7 2.51 3.71 5.3-5.01 1.2-11.31 4.53-12.59 8.16-.49 1.4 1.13 3.31 3.1 3.7a.13.13 0 0 0 .16-.1c1.03-5.43 6.9-9.47 9.94-10.16l.12.31.07.18.07.2c-3.32 1.56-6.55 4.86-7.47 8.78-.42 1.8 1.6 3.41 3.26 3.85.08.03.16-.03.17-.11.31-4.96 2.51-9.17 4.48-11.08.06.37.1.75.13 1.13 0 0-2.02 5.59-2.02 9.67 0 1.9 2.83 3.22 3.25 3.41.53-.19 3.36-1.51 3.36-3.41 0-4.08-2.02-9.68-2.02-9.68.03-.37.07-.75.13-1.12 1.97 1.91 4.17 6.12 4.48 11.08.01.08.1.14.18.11 1.66-.44 3.67-2.06 3.25-3.85-.92-3.92-4.14-7.22-7.47-8.78.06-.15.09-.23.1-.29h.01l.15-.4c3.05.7 8.91 4.73 9.94 10.16 0 .03.03.06.06.08.03.02.07.03.1.02 1.97-.39 3.6-2.3 3.1-3.7-1.27-3.63-7.57-6.96-12.6-8.17 1.03-2.78 2.39-4.44 3.72-5.29 3.06-1.94 6.01.44 4.64 3.73-.19.44.06.9.6.9 3.43 0 7.66 1.22 9.33 2.88a5.64 5.64 0 0 0 5.28 2.4c2.53-.25 4.6-2.14 4.88-4.48a4.98 4.98 0 0 0-2.52-4.9l-2.96 2.32Z" clip-rule="evenodd"/></g><defs><clipPath id="a"><path fill="#fff" d="M0 .53h213v245H0z"/></clipPath></defs></svg>