<svg width="48" height="48" viewBox="0 0 48 48" fill="none" xmlns="http://www.w3.org/2000/svg">
<circle cx="24" cy="24" r="24" fill="#ECEDF0"/>
<mask id="mask0_2131_5001" style="mask-type:alpha" maskUnits="userSpaceOnUse" x="8" y="8" width="32" height="32">
<rect x="8" y="8" width="32" height="32" fill="#D9D9D9"/>
</mask>
<g mask="url(#mask0_2131_5001)">
<path d="M19.5164 36L17.9138 34.794V29.6111H16.1233C15.5789 29.6111 15.1103 29.4147 14.7174 29.0219C14.3246 28.6292 14.1282 28.1607 14.1282 27.6163V17.5761H13.8013C13.5794 17.5761 13.3903 17.4979 13.2341 17.3417C13.078 17.1854 13 16.9941 13 16.7677C13 16.5413 13.078 16.3524 13.2341 16.2008C13.3903 16.0492 13.5794 15.9734 13.8013 15.9734H17.9138V13.6023H16.9246C16.7025 13.6023 16.5134 13.5243 16.3574 13.3683C16.2013 13.212 16.1233 13.0207 16.1233 12.7943C16.1233 12.5677 16.2013 12.3787 16.3574 12.2274C16.5134 12.0758 16.7025 12 16.9246 12H20.5055C20.7326 12 20.9229 12.0768 21.0766 12.2305C21.2301 12.384 21.3069 12.5744 21.3069 12.8016C21.3069 13.0238 21.2301 13.2128 21.0766 13.3686C20.9229 13.5244 20.7326 13.6023 20.5055 13.6023H19.5164V15.9734H23.6289C23.8559 15.9734 24.0462 16.0503 24.1996 16.204C24.3533 16.3577 24.4302 16.548 24.4302 16.7751C24.4302 16.9972 24.3533 17.1862 24.1996 17.342C24.0462 17.498 23.8559 17.5761 23.6289 17.5761H23.3017V27.6163C23.3017 28.1607 23.1054 28.6292 22.7128 29.0219C22.3199 29.4147 21.8513 29.6111 21.3069 29.6111H19.5164V36ZM30.731 35.3508C29.469 35.3508 28.3895 34.9017 27.4926 34.0036C26.5957 33.1052 26.1473 32.0253 26.1473 30.7639V21.1981C26.1473 19.9367 26.5967 18.8569 27.4955 17.9587C28.3943 17.0603 29.4747 16.6112 30.7368 16.6112C31.9989 16.6112 33.0783 17.0603 33.9752 17.9587C34.8723 18.8569 35.3208 19.9367 35.3208 21.1981V30.7639C35.3208 32.0253 34.8714 33.1052 33.9727 34.0036C33.0737 34.9017 31.9931 35.3508 30.731 35.3508ZM16.1233 28.0088H21.3069C21.4214 28.0088 21.5155 27.9719 21.5891 27.8982C21.6626 27.8246 21.6994 27.7307 21.6994 27.6163V25.4413H19.034C18.8312 25.4413 18.6538 25.3653 18.5018 25.2133C18.3496 25.0613 18.2735 24.8839 18.2735 24.6811C18.2735 24.4783 18.3496 24.3009 18.5018 24.1489C18.6538 23.9967 18.8312 23.9206 19.034 23.9206H21.6994V21.664H19.034C18.8312 21.664 18.6538 21.588 18.5018 21.436C18.3496 21.2838 18.2735 21.1064 18.2735 20.9038C18.2735 20.701 18.3496 20.5235 18.5018 20.3713C18.6538 20.2193 18.8312 20.1433 19.034 20.1433H21.6994V17.5761H15.7308V27.6163C15.7308 27.7307 15.7676 27.8246 15.8411 27.8982C15.9147 27.9719 16.0087 28.0088 16.1233 28.0088ZM30.74 18.2138C29.9124 18.2138 29.2071 18.5032 28.6239 19.0821C28.0411 19.6609 27.7496 20.3663 27.7496 21.1981V21.6723H33.7182V21.1981C33.7182 20.3663 33.4288 19.6609 32.8499 19.0821C32.2711 18.5032 31.5677 18.2138 30.74 18.2138ZM27.7496 28.6874H33.7182V23.2746H27.7496V28.6874ZM30.7339 33.7481C31.5657 33.7481 32.2711 33.457 32.8499 32.8748C33.4288 32.2923 33.7182 31.5887 33.7182 30.7639V30.2897H27.7496V30.7639C27.7496 31.5887 28.0408 32.2923 28.6233 32.8748C29.2058 33.457 29.9093 33.7481 30.7339 33.7481Z" fill="#3A3A3A"/>
</g>
</svg>
