<svg width="48" height="48" viewBox="0 0 48 48" fill="none" xmlns="http://www.w3.org/2000/svg">
<circle cx="24" cy="24" r="24" fill="#ECEDF0"/>
<mask id="mask0_2131_4955" style="mask-type:alpha" maskUnits="userSpaceOnUse" x="8" y="8" width="32" height="32">
<rect x="8" y="8" width="32" height="32" fill="#D9D9D9"/>
</mask>
<g mask="url(#mask0_2131_4955)">
<path d="M13.8975 36C13.0992 36 12.5318 35.6356 12.1953 34.9069C11.8586 34.178 11.9573 33.5076 12.4914 32.8959L20.9383 23.0047V13.7739H19.0452C18.7939 13.7739 18.5833 13.6884 18.4134 13.5173C18.2433 13.3465 18.1582 13.1347 18.1582 12.882C18.1582 12.6295 18.2433 12.4194 18.4134 12.2516C18.5833 12.0839 18.7939 12 19.0452 12H29.4703C29.7216 12 29.9322 12.0854 30.1021 12.2562C30.2722 12.4273 30.3573 12.6391 30.3573 12.8915C30.3573 13.1442 30.2722 13.3545 30.1021 13.5222C29.9322 13.69 29.7216 13.7739 29.4703 13.7739H27.5772V23.0047L36.0241 32.8959C36.5582 33.5076 36.6569 34.178 36.3202 34.9069C35.9838 35.6356 35.4163 36 34.618 36H13.8975ZM13.6875 34.2261H34.828L25.8033 23.6435V13.7739H22.7122V23.6435L13.6875 34.2261Z" fill="#3A3A3A"/>
</g>
</svg>
