<svg width="48" height="48" viewBox="0 0 48 48" fill="none" xmlns="http://www.w3.org/2000/svg">
<circle cx="24" cy="24" r="24" fill="#ECEDF0"/>
<mask id="mask0_2131_5012" style="mask-type:alpha" maskUnits="userSpaceOnUse" x="8" y="8" width="32" height="32">
<rect x="8" y="8" width="32" height="32" fill="#D9D9D9"/>
</mask>
<g mask="url(#mask0_2131_5012)">
<path d="M24.0022 36C22.3424 36 20.7823 35.6851 19.3219 35.0552C17.8615 34.4253 16.5912 33.5704 15.5109 32.4906C14.4307 31.4108 13.5755 30.1411 12.9452 28.6813C12.3151 27.2215 12 25.6618 12 24.0022C12 22.3424 12.3149 20.7823 12.9448 19.3219C13.5747 17.8615 14.4296 16.5912 15.5094 15.5109C16.5892 14.4307 17.8589 13.5755 19.3187 12.9452C20.7785 12.3151 22.3382 12 23.9978 12C25.6576 12 27.2177 12.3149 28.6781 12.9448C30.1385 13.5747 31.4088 14.4296 32.4891 15.5094C33.5693 16.5892 34.4245 17.8589 35.0548 19.3187C35.6849 20.7785 36 22.3382 36 23.9978C36 25.6576 35.6851 27.2177 35.0552 28.6781C34.4253 30.1385 33.5704 31.4088 32.4906 32.4891C31.4108 33.5693 30.1411 34.4245 28.6813 35.0548C27.2215 35.6849 25.6618 36 24.0022 36ZM24 34.4128L23.0817 33.4948C22.9467 33.3599 22.8499 33.2165 22.7912 33.0647C22.7322 32.9132 22.7027 32.7506 22.7027 32.5772V25.2973C21.988 25.2973 21.3761 25.0432 20.8671 24.5349C20.3582 24.0269 20.1038 23.4162 20.1038 22.7027V21.3992L16.0364 17.3255C15.2651 18.2417 14.664 19.2632 14.2333 20.3899C13.8025 21.5164 13.5872 22.7187 13.5872 23.9968C13.5872 26.8998 14.5959 29.3616 16.6134 31.3822C18.6308 33.4026 21.0931 34.4128 24 34.4128ZM25.2973 34.3497C27.8823 34.0114 30.0479 32.8692 31.794 30.9231C33.5399 28.9769 34.4128 26.6697 34.4128 24.0013C34.4128 21.1156 33.3982 18.6584 31.3689 16.6298C29.3397 14.6014 26.8818 13.5872 23.9953 13.5872C23.0403 13.5872 22.1273 13.7101 21.2561 13.956C20.3852 14.2021 19.5643 14.5471 18.7936 14.9908V17.4963H23.4142C23.8047 17.4963 24.178 17.5805 24.534 17.7489C24.89 17.9174 25.1899 18.1612 25.4337 18.4803L27.2599 20.7483H29.2064C29.562 20.7483 29.8672 20.8752 30.1219 21.1288C30.3764 21.3827 30.5037 21.6869 30.5037 22.0415V23.4215C30.5037 23.6149 30.476 23.8001 30.4206 23.9769C30.3653 24.1538 30.2877 24.3237 30.1879 24.4866L25.2973 31.8107V34.3497Z" fill="#3A3A3A"/>
</g>
</svg>
