<svg width="48" height="48" viewBox="0 0 48 48" fill="none" xmlns="http://www.w3.org/2000/svg">
<circle cx="24" cy="24" r="24" fill="#ECEDF0"/>
<mask id="mask0_2131_4967" style="mask-type:alpha" maskUnits="userSpaceOnUse" x="8" y="8" width="32" height="32">
<rect x="8" y="8" width="32" height="32" fill="#D9D9D9"/>
</mask>
<g mask="url(#mask0_2131_4967)">
<path d="M17.0891 37C16.5997 37 16.1741 36.815 15.8125 36.445C15.4511 36.0751 15.2704 35.6395 15.2704 35.1384V31.7945H19.5237V27.0525C18.6003 27.1837 17.6706 27.1031 16.7349 26.811C15.7994 26.5185 14.9951 26.0304 14.322 25.3465V23.2378H12.385L8 18.7388C8.84988 17.9302 9.84198 17.2968 10.9763 16.8386C12.1108 16.3805 13.2701 16.1514 14.4541 16.1514C15.2794 16.1514 16.14 16.2761 17.0359 16.5256C17.9317 16.775 18.7609 17.1749 19.5237 17.7252V15H35V33.5613C35 34.5233 34.6751 35.337 34.0252 36.0023C33.3755 36.6674 32.584 37 31.6506 37H17.0891ZM21.342 31.7945H30.1102V33.5613C30.1102 34.018 30.2554 34.395 30.5459 34.6923C30.8363 34.9897 31.2046 35.1384 31.6506 35.1384C32.0904 35.1384 32.4555 34.9897 32.746 34.6923C33.0362 34.395 33.1813 34.018 33.1813 33.5613V16.8616H21.342V19.0885L29.6796 27.6245V28.9504H28.3845L23.9047 24.3736L23.1893 25.1516C22.8957 25.4791 22.6013 25.7429 22.306 25.9429C22.011 26.1432 21.6897 26.3226 21.342 26.4809V31.7945ZM13.1865 21.3758H16.1407V24.4651C16.5817 24.7563 17.0088 24.9643 17.422 25.089C17.8353 25.2137 18.2445 25.2761 18.6498 25.2761C19.2763 25.2761 19.8807 25.1346 20.4631 24.8515C21.0454 24.5685 21.5272 24.2219 21.9084 23.8116L22.6096 23.0477L20.1027 20.4811C19.3298 19.6839 18.4631 19.0732 17.5027 18.6491C16.5421 18.2251 15.5259 18.013 14.4541 18.013C13.7784 18.013 13.141 18.1011 12.542 18.2772C11.943 18.4533 11.3754 18.6819 10.8391 18.9629L13.1865 21.3758ZM28.2919 33.6565H17.0891V35.1384H28.7576C28.609 34.9623 28.4943 34.7451 28.4135 34.4867C28.3324 34.2284 28.2919 33.9516 28.2919 33.6565Z" fill="#3A3A3A"/>
</g>
</svg>
