<svg width="48" height="48" viewBox="0 0 48 48" fill="none" xmlns="http://www.w3.org/2000/svg">
<circle cx="24" cy="24" r="24" fill="#ECEDF0"/>
<mask id="mask0_2131_4990" style="mask-type:alpha" maskUnits="userSpaceOnUse" x="8" y="8" width="32" height="32">
<rect x="8" y="8" width="32" height="32" fill="#D9D9D9"/>
</mask>
<g mask="url(#mask0_2131_4990)">
<path d="M19.7095 36V34.2261H22.6382V31.0588H13.2084C12.6015 31.0588 12.0818 30.8425 11.6491 30.4098C11.2164 29.9771 11 29.4574 11 28.8508V14.2084C11 13.6015 11.2164 13.0818 11.6491 12.6491C12.0818 12.2164 12.6015 12 13.2084 12H35.6152C36.222 12 36.7418 12.2164 37.1745 12.6491C37.6072 13.0818 37.8235 13.6015 37.8235 14.2084V28.8508C37.8235 29.4574 37.6072 29.9771 37.1745 30.4098C36.7418 30.8425 36.222 31.0588 35.6152 31.0588H26.1853V34.2261H29.114V36H19.7095ZM13.2084 29.2853H35.6152C35.7239 29.2853 35.8235 29.24 35.9141 29.1494C36.0045 29.0588 36.0496 28.9593 36.0496 28.8508V14.2084C36.0496 14.0996 36.0045 14 35.9141 13.9094C35.8235 13.8191 35.7239 13.7739 35.6152 13.7739H13.2084C13.0996 13.7739 13 13.8191 12.9094 13.9094C12.8191 14 12.7739 14.0996 12.7739 14.2084V28.8508C12.7739 28.9593 12.8191 29.0588 12.9094 29.1494C13 29.24 13.0996 29.2853 13.2084 29.2853Z" fill="#3A3A3A"/>
</g>
</svg>
