<svg width="48" height="48" viewBox="0 0 48 48" fill="none" xmlns="http://www.w3.org/2000/svg">
<circle cx="24" cy="24" r="24" fill="#ECEDF0"/>
<mask id="mask0_2131_4929" style="mask-type:alpha" maskUnits="userSpaceOnUse" x="8" y="10" width="32" height="32">
<rect x="8" y="10" width="32" height="32" fill="#D9D9D9"/>
</mask>
<g mask="url(#mask0_2131_4929)">
<path d="M27.9554 36C26.0775 36 24.4237 35.4389 22.994 34.3166C21.5641 33.1941 20.623 31.767 20.1709 30.0351C20.7392 30.038 21.2958 29.9944 21.8406 29.9043C22.3855 29.8142 22.9078 29.6728 23.4074 29.48H29.6689C29.6991 29.2044 29.7222 28.9318 29.738 28.6623C29.754 28.3928 29.762 28.1198 29.762 27.8434C29.762 27.6173 29.7573 27.3808 29.748 27.1337C29.7387 26.8869 29.717 26.6423 29.6829 26.4H27.7523C27.9439 26.183 28.1203 25.9545 28.2814 25.7143C28.4426 25.4739 28.5956 25.2238 28.7406 24.964H33.8417C33.4373 24.1743 32.8967 23.4894 32.2197 22.9094C31.5428 22.3294 30.7729 21.9067 29.91 21.6411C29.9475 21.412 29.9788 21.1727 30.0037 20.9231C30.0287 20.6736 30.0391 20.4268 30.0351 20.1826C31.767 20.6397 33.1941 21.58 34.3166 23.0034C35.4389 24.4269 36 26.0736 36 27.9437C36 30.1814 35.2188 32.0836 33.6563 33.6503C32.094 35.2168 30.1937 36 27.9554 36ZM26.1246 34.23C25.855 33.6894 25.6271 33.146 25.4409 32.5997C25.2548 32.0536 25.1088 31.4923 25.0029 30.9157H22.0797C22.4837 31.7254 23.0356 32.4206 23.7354 33.0011C24.4354 33.5815 25.2318 33.9911 26.1246 34.23ZM27.9554 34.5091C28.3286 33.9474 28.6353 33.3655 28.8757 32.7634C29.1163 32.1611 29.3026 31.5452 29.4346 30.9157H26.4646C26.5602 31.3675 26.7435 31.939 27.0146 32.63C27.2856 33.321 27.5992 33.9474 27.9554 34.5091ZM29.786 34.23C30.6788 33.9911 31.477 33.5815 32.1806 33.0011C32.8842 32.4206 33.4379 31.7254 33.8417 30.9157H30.9054C30.793 31.4965 30.6458 32.0589 30.4637 32.6029C30.2816 33.147 30.0557 33.6894 29.786 34.23ZM31.1186 29.48H34.3869C34.4444 29.2396 34.4883 28.9921 34.5186 28.7374C34.5489 28.4828 34.564 28.2167 34.564 27.9391C34.564 27.6616 34.5489 27.3988 34.5186 27.1506C34.4883 26.9024 34.4413 26.6522 34.3777 26.4H31.1186C31.1529 26.6421 31.1766 26.8832 31.1897 27.1234C31.2029 27.3638 31.2094 27.6082 31.2094 27.8566C31.2094 28.1309 31.2029 28.4019 31.1897 28.6697C31.1766 28.9375 31.1529 29.2076 31.1186 29.48ZM20.0617 28.1011C17.8213 28.1011 15.9176 27.3166 14.3506 25.7474C12.7835 24.1783 12 22.2752 12 20.0383C12 17.8013 12.7836 15.9024 14.3509 14.3414C15.9181 12.7805 17.8211 12 20.06 12C22.2989 12 24.1988 12.78 25.7597 14.34C27.3207 15.8998 28.1011 17.8 28.1011 20.0406C28.1011 22.2752 27.3213 24.1773 25.7617 25.7469C24.2021 27.3164 22.3021 28.1011 20.0617 28.1011ZM20.058 26.6651C21.8841 26.6651 23.4418 26.018 24.7311 24.7237C26.0205 23.4294 26.6651 21.8692 26.6651 20.0431C26.6651 18.217 26.0191 16.6593 24.7271 15.37C23.435 14.0807 21.8773 13.436 20.0543 13.436C18.228 13.436 16.6684 14.082 15.3754 15.374C14.0825 16.6662 13.436 18.2238 13.436 20.0469C13.436 21.8731 14.0831 23.4328 15.3774 24.7257C16.6717 26.0187 18.2319 26.6651 20.058 26.6651ZM17.2397 19.2051C17.4721 19.2051 17.6709 19.1226 17.836 18.9574C18.001 18.7925 18.0834 18.5899 18.0834 18.3497C18.0834 18.1097 18.0001 17.909 17.8334 17.7477C17.6668 17.5862 17.465 17.5054 17.2283 17.5054C16.9961 17.5054 16.7973 17.5869 16.632 17.7497C16.4667 17.9126 16.384 18.1143 16.384 18.3549C16.384 18.591 16.4666 18.7918 16.6317 18.9571C16.7969 19.1225 16.9995 19.2051 17.2397 19.2051ZM20.062 24.1194C20.8664 24.1194 21.594 23.9106 22.2449 23.4929C22.8957 23.0751 23.3941 22.5346 23.74 21.8711L16.3729 21.86C16.7188 22.5309 17.219 23.0751 17.8734 23.4929C18.5279 23.9106 19.2574 24.1194 20.062 24.1194ZM22.888 19.2051C23.1131 19.2051 23.3094 19.1226 23.4769 18.9574C23.6445 18.7925 23.7283 18.5899 23.7283 18.3497C23.7283 18.1097 23.6437 17.909 23.4746 17.7477C23.3054 17.5862 23.1049 17.5054 22.8729 17.5054C22.6407 17.5054 22.4419 17.5869 22.2766 17.7497C22.1112 17.9126 22.0286 18.1143 22.0286 18.3549C22.0286 18.591 22.1111 18.7918 22.2763 18.9571C22.4414 19.1225 22.6453 19.2051 22.888 19.2051Z" fill="#3A3A3A"/>
</g>
</svg>
