<svg width="48" height="48" viewBox="0 0 48 48" fill="none" xmlns="http://www.w3.org/2000/svg">
<circle cx="24" cy="24" r="24" fill="#ECEDF0"/>
<mask id="mask0_2131_5023" style="mask-type:alpha" maskUnits="userSpaceOnUse" x="8" y="8" width="32" height="32">
<rect x="8" y="8" width="32" height="32" fill="#D9D9D9"/>
</mask>
<g mask="url(#mask0_2131_5023)">
<mask id="mask1_2131_5023" style="mask-type:alpha" maskUnits="userSpaceOnUse" x="8" y="8" width="32" height="32">
<rect x="8" y="8" width="32" height="32" fill="#D9D9D9"/>
</mask>
<g mask="url(#mask1_2131_5023)">
<path d="M23.9743 33.8203C22.8992 33.0271 21.7437 32.4144 20.5077 31.9819C19.2719 31.5495 17.9916 31.3333 16.6667 31.3333C15.8531 31.3333 15.054 31.4234 14.2693 31.6036C13.4847 31.784 12.7282 32.0495 12 32.3999C11.5249 32.6186 11.0728 32.586 10.6437 32.3023C10.2146 32.0187 10 31.617 10 31.0973V16.6463C10 16.3589 10.0761 16.0935 10.2283 15.8499C10.3803 15.6064 10.5914 15.429 10.8617 15.3179C11.7641 14.8786 12.7047 14.5491 13.6833 14.3296C14.662 14.1098 15.6564 13.9999 16.6667 13.9999C17.964 13.9999 19.2272 14.1837 20.4563 14.5513C21.6854 14.9188 22.8667 15.4349 24 16.0996V31.7759C25.1249 31.0528 26.3117 30.519 27.5603 30.1746C28.809 29.8301 30.0667 29.6579 31.3333 29.6579C32.0991 29.6579 32.8662 29.7178 33.6347 29.8376C34.4029 29.9571 35.1713 30.1874 35.94 30.5283C36.0342 30.5538 36.1219 30.5545 36.203 30.5303C36.2841 30.506 36.3247 30.4369 36.3247 30.3229V14.9386C36.4991 14.9937 36.669 15.0559 36.8343 15.1253C36.9994 15.1944 37.1607 15.2757 37.318 15.3693C37.5362 15.4895 37.7044 15.6549 37.8227 15.8656C37.9409 16.0763 38 16.3023 38 16.5436V31.0716C38 31.5914 37.779 31.9909 37.337 32.2703C36.8952 32.5498 36.4239 32.5845 35.923 32.3743C35.2034 32.0323 34.4578 31.7733 33.686 31.5973C32.9142 31.4213 32.13 31.3333 31.3333 31.3333C30 31.3333 28.7069 31.543 27.454 31.9626C26.2009 32.3824 25.041 33.0016 23.9743 33.8203ZM26.342 28.5366V16.9743L33.983 9.33325V21.7879L26.342 28.5366ZM22.325 30.9496V17.1146C21.4741 16.6495 20.5504 16.2933 19.554 16.0459C18.5573 15.7988 17.5949 15.6753 16.6667 15.6753C15.7362 15.6753 14.872 15.7674 14.074 15.9516C13.276 16.136 12.5576 16.368 11.9187 16.6476C11.8504 16.6734 11.7928 16.7097 11.7457 16.7566C11.6988 16.8037 11.6753 16.8614 11.6753 16.9296V30.3469C11.6753 30.4665 11.7159 30.537 11.797 30.5586C11.8781 30.5799 11.9658 30.5735 12.06 30.5393C12.718 30.2595 13.4292 30.0427 14.1937 29.8889C14.9581 29.7349 15.7861 29.6579 16.6777 29.6579C17.7661 29.6579 18.7936 29.7798 19.76 30.0236C20.7262 30.2671 21.5812 30.5758 22.325 30.9496Z" fill="#3A3A3A"/>
</g>
</g>
</svg>
