<svg width="107" height="107" viewBox="0 0 107 107" fill="none" xmlns="http://www.w3.org/2000/svg">
<g filter="url(#filter0_ii_2131_4916)">
<circle cx="53.5" cy="53.5" r="53.5" fill="#F8F8F8"/>
</g>
<g clip-path="url(#clip0_2131_4916)">
<g filter="url(#filter1_dii_2131_4916)">
<path fill-rule="evenodd" clip-rule="evenodd" d="M80.0244 45.2532C80.7261 44.5727 80.7261 43.4566 80.0243 42.7761L76.3358 39.1994C75.6341 38.5189 75.6341 37.4027 76.3358 36.7222L80.0244 33.1454C80.7261 32.465 80.7262 31.3489 80.0246 30.6684L75.7255 26.4982C75.041 25.8342 73.9437 25.8341 73.2591 26.498L69.4824 30.1602C68.7979 30.8239 67.7008 30.8239 67.0163 30.1602L63.2394 26.4978C62.5549 25.834 61.4577 25.8341 60.7732 26.4979L56.4727 30.6684C55.7709 31.3489 55.7709 32.4651 56.4727 33.1456L60.1611 36.7222C60.8629 37.4027 60.8629 38.5189 60.1611 39.1994L56.4728 42.7759C55.771 43.4565 55.771 44.5727 56.4728 45.2532L60.7731 49.423C61.4577 50.0867 62.5549 50.0867 63.2394 49.4228L67.0162 45.76C67.7007 45.0961 68.798 45.0961 69.4825 45.76L73.2592 49.4227C73.9437 50.0866 75.041 50.0866 75.7255 49.4227L80.0244 45.2532ZM61.9481 31.5367C61.9158 31.5048 61.916 31.453 61.9486 31.4213C61.9806 31.3902 62.032 31.3902 62.0641 31.4213L66.6624 35.8813C66.7061 35.9236 66.7064 35.9929 66.6631 36.0356C66.6201 36.078 66.5504 36.078 66.5074 36.0356L61.9481 31.5367ZM73.9604 32.4274C73.8067 32.2757 73.8077 32.0294 73.9627 31.879L74.2179 31.6315C74.3702 31.4837 74.6144 31.4838 74.7666 31.6317C74.9223 31.783 74.9222 32.0309 74.7664 32.1821L74.5112 32.4297C74.3581 32.5783 74.1122 32.5772 73.9604 32.4274ZM69.9563 39.4395C69.9051 39.3889 69.9051 39.3069 69.9563 39.2564C70.0072 39.2061 70.0897 39.2058 70.141 39.2555L74.9324 43.8998C74.9969 43.9624 74.9969 44.0651 74.9323 44.1277C74.869 44.189 74.7674 44.1885 74.7047 44.1266L69.9563 39.4395Z" fill="#ED131C"/>
<path fill-rule="evenodd" clip-rule="evenodd" d="M49.2556 42.5851C50.2273 42.5851 51.0151 41.8077 51.0151 40.8486V35.0721C51.0151 34.1131 50.2273 33.3357 49.2556 33.3357H28.2946C27.3229 33.3357 26.5352 34.1131 26.5352 35.0721V40.8486C26.5352 41.8077 27.3229 42.5851 28.2946 42.5851H49.2556ZM31.1958 38.2974C31.0634 38.2974 30.9561 38.1915 30.9561 38.0608V37.8591C30.9561 37.7284 31.0634 37.6225 31.1958 37.6225C31.3282 37.6225 31.4355 37.7284 31.4355 37.8591V38.0608C31.4355 38.1915 31.3282 38.2974 31.1958 38.2974Z" fill="#ED131C"/>
<path fill-rule="evenodd" clip-rule="evenodd" d="M41.785 80C42.7567 80 43.5444 79.2226 43.5444 78.2636V73.0025C43.5444 72.0435 44.3321 71.2661 45.3038 71.2661H50.7908C51.7625 71.2661 52.5503 70.4886 52.5503 69.5296V63.7531C52.5503 62.7941 51.7625 62.0166 50.7908 62.0166H45.3038C44.3321 62.0166 43.5444 61.2392 43.5444 60.2802V55.02C43.5444 54.061 42.7567 53.2835 41.785 53.2835H35.7653C34.7936 53.2835 34.0059 54.061 34.0059 55.02V60.2802C34.0059 61.2392 33.2182 62.0166 32.2465 62.0166H26.7594C25.7877 62.0166 25 62.7941 25 63.7531V69.5296C25 70.4886 25.7877 71.2661 26.7594 71.2661H32.2465C33.2182 71.2661 34.0059 72.0435 34.0059 73.0025V78.2636C34.0059 79.2226 34.7936 80 35.7653 80H41.785ZM29.7456 66.9792C29.5668 66.9792 29.4218 66.8361 29.4218 66.6596V66.624C29.4218 66.4474 29.5668 66.3043 29.7456 66.3043C29.9245 66.3043 30.0695 66.4474 30.0695 66.624V66.6596C30.0695 66.8361 29.9245 66.9792 29.7456 66.9792ZM38.5462 75.7123C38.4802 75.7123 38.4268 75.6595 38.4268 75.5945C38.4268 75.5294 38.4802 75.4766 38.5462 75.4766H39.0041C39.07 75.4766 39.1235 75.5294 39.1235 75.5945C39.1235 75.6595 39.07 75.7123 39.0041 75.7123H38.5462Z" fill="#ED131C"/>
<path fill-rule="evenodd" clip-rule="evenodd" d="M79.2406 64.478C80.2123 64.478 81 63.7006 81 62.7416V56.965C81 56.006 80.2123 55.2286 79.2406 55.2286H57.7693C56.7976 55.2286 56.0098 56.006 56.0098 56.965V62.7416C56.0098 63.7006 56.7976 64.478 57.7693 64.478H79.2406ZM76.272 60.1912C76.1024 60.1912 75.9649 60.0555 75.9649 59.888V59.8194C75.9649 59.652 76.1024 59.5163 76.272 59.5163C76.4416 59.5163 76.5791 59.652 76.5791 59.8194V59.888C76.5791 60.0555 76.4416 60.1912 76.272 60.1912Z" fill="#ED131C"/>
<path fill-rule="evenodd" clip-rule="evenodd" d="M79.2406 77.9558C80.2123 77.9558 81 77.1783 81 76.2193V70.542C81 69.583 80.2123 68.8055 79.2406 68.8055H57.7693C56.7976 68.8055 56.0098 69.583 56.0098 70.542V76.2193C56.0098 77.1783 56.7976 77.9558 57.7693 77.9558H79.2406ZM60.4526 73.6681C60.4405 73.6681 60.4307 73.6584 60.4307 73.6465C60.4307 73.6345 60.4405 73.6248 60.4526 73.6248H75.6955C75.8443 73.6248 75.9649 73.5058 75.9649 73.359C75.9649 73.2122 76.0854 73.0932 76.2342 73.0932H76.2879C76.4487 73.0932 76.5791 73.2219 76.5791 73.3807C76.5791 73.5394 76.4487 73.6681 76.2879 73.6681H60.4526Z" fill="#ED131C"/>
</g>
</g>
<defs>
<filter id="filter0_ii_2131_4916" x="-4.56847" y="0" width="116.908" height="111.7" filterUnits="userSpaceOnUse" color-interpolation-filters="sRGB">
<feFlood flood-opacity="0" result="BackgroundImageFix"/>
<feBlend mode="normal" in="SourceGraphic" in2="BackgroundImageFix" result="shape"/>
<feColorMatrix in="SourceAlpha" type="matrix" values="0 0 0 0 0 0 0 0 0 0 0 0 0 0 0 0 0 0 127 0" result="hardAlpha"/>
<feOffset dx="-4.56847"/>
<feGaussianBlur stdDeviation="5.96432"/>
<feComposite in2="hardAlpha" operator="arithmetic" k2="-1" k3="1"/>
<feColorMatrix type="matrix" values="0 0 0 0 0.98903 0 0 0 0 0.98903 0 0 0 0 0.98903 0 0 0 0.7 0"/>
<feBlend mode="normal" in2="shape" result="effect1_innerShadow_2131_4916"/>
<feColorMatrix in="SourceAlpha" type="matrix" values="0 0 0 0 0 0 0 0 0 0 0 0 0 0 0 0 0 0 127 0" result="hardAlpha"/>
<feOffset dx="5.33928" dy="4.70007"/>
<feGaussianBlur stdDeviation="3.62846"/>
<feComposite in2="hardAlpha" operator="arithmetic" k2="-1" k3="1"/>
<feColorMatrix type="matrix" values="0 0 0 0 0.550342 0 0 0 0 0.550342 0 0 0 0 0.550342 0 0 0 0.07 0"/>
<feBlend mode="normal" in2="effect1_innerShadow_2131_4916" result="effect2_innerShadow_2131_4916"/>
</filter>
<filter id="filter1_dii_2131_4916" x="17.0683" y="20.2715" width="67.4569" height="65.4569" filterUnits="userSpaceOnUse" color-interpolation-filters="sRGB">
<feFlood flood-opacity="0" result="BackgroundImageFix"/>
<feColorMatrix in="SourceAlpha" type="matrix" values="0 0 0 0 0 0 0 0 0 0 0 0 0 0 0 0 0 0 127 0" result="hardAlpha"/>
<feOffset dx="-2.20326"/>
<feGaussianBlur stdDeviation="2.86424"/>
<feComposite in2="hardAlpha" operator="out"/>
<feColorMatrix type="matrix" values="0 0 0 0 0.531836 0 0 0 0 0.0249038 0 0 0 0 0.0447835 0 0 0 0.2 0"/>
<feBlend mode="normal" in2="BackgroundImageFix" result="effect1_dropShadow_2131_4916"/>
<feBlend mode="normal" in="SourceGraphic" in2="effect1_dropShadow_2131_4916" result="shape"/>
<feColorMatrix in="SourceAlpha" type="matrix" values="0 0 0 0 0 0 0 0 0 0 0 0 0 0 0 0 0 0 127 0" result="hardAlpha"/>
<feOffset dx="1.37194"/>
<feGaussianBlur stdDeviation="1.20045"/>
<feComposite in2="hardAlpha" operator="arithmetic" k2="-1" k3="1"/>
<feColorMatrix type="matrix" values="0 0 0 0 0.8375 0 0 0 0 0.0628125 0 0 0 0 0.094795 0 0 0 1 0"/>
<feBlend mode="normal" in2="shape" result="effect2_innerShadow_2131_4916"/>
<feColorMatrix in="SourceAlpha" type="matrix" values="0 0 0 0 0 0 0 0 0 0 0 0 0 0 0 0 0 0 127 0" result="hardAlpha"/>
<feOffset dx="-1.37194"/>
<feGaussianBlur stdDeviation="1.37194"/>
<feComposite in2="hardAlpha" operator="arithmetic" k2="-1" k3="1"/>
<feColorMatrix type="matrix" values="0 0 0 0 1 0 0 0 0 0.3125 0 0 0 0 0.340883 0 0 0 1 0"/>
<feBlend mode="normal" in2="effect2_innerShadow_2131_4916" result="effect3_innerShadow_2131_4916"/>
</filter>
<clipPath id="clip0_2131_4916">
<rect width="71.3333" height="71.3333" fill="white" transform="matrix(1 0 0 -1 17.832 88.3384)"/>
</clipPath>
</defs>
</svg>
