<svg width="48" height="48" viewBox="0 0 48 48" fill="none" xmlns="http://www.w3.org/2000/svg">
<circle cx="24" cy="24" r="24" fill="#ECEDF0"/>
<mask id="mask0_2131_4942" style="mask-type:alpha" maskUnits="userSpaceOnUse" x="8" y="10" width="32" height="32">
<rect x="8" y="10" width="32" height="32" fill="#D9D9D9"/>
</mask>
<g mask="url(#mask0_2131_4942)">
<path d="M16.5205 35.3927C15.4344 35.3927 14.5106 35.0122 13.7492 34.2512C12.9879 33.4903 12.6073 32.5671 12.6073 31.4814C12.6073 30.3955 12.9878 29.4715 13.7488 28.7094C14.5097 27.9471 15.4329 27.5659 16.5186 27.5659C17.6045 27.5659 18.5285 27.9466 19.2906 28.7081C20.0529 29.4694 20.4341 30.3932 20.4341 31.4795C20.4341 31.9228 20.3601 32.3511 20.2121 32.7641C20.0643 33.1772 19.8562 33.5526 19.5878 33.8905V33.4348C20.2749 33.7582 20.9916 34.0021 21.7377 34.1665C22.4836 34.3307 23.2377 34.4128 24 34.4128C26.9069 34.4128 29.3692 33.4041 31.3866 31.3866C33.4041 29.3692 34.4128 26.9069 34.4128 24H36C36 25.6583 35.6849 27.2177 35.0548 28.6781C34.4249 30.1385 33.57 31.4088 32.49 32.4891C31.41 33.5693 30.14 34.4245 28.68 35.0548C27.22 35.6849 25.66 36 24 36C23.0583 36 22.1403 35.8943 21.246 35.6829C20.3517 35.4716 19.4829 35.1576 18.6398 34.7409C18.3244 34.9567 17.9865 35.1194 17.6261 35.2288C17.2657 35.3381 16.8972 35.3927 16.5205 35.3927ZM16.5215 33.8056C17.1718 33.8056 17.722 33.5804 18.1721 33.1301C18.622 32.6796 18.8469 32.1291 18.8469 31.4785C18.8469 30.8282 18.6217 30.278 18.1712 29.8279C17.7208 29.378 17.1704 29.1531 16.5199 29.1531C15.8696 29.1531 15.3194 29.3783 14.8693 29.8288C14.4194 30.2792 14.1944 30.8296 14.1944 31.4801C14.1944 32.1304 14.4196 32.6806 14.8699 33.1307C15.3204 33.5806 15.8709 33.8056 16.5215 33.8056ZM24.0019 27.9133C22.9162 27.9133 21.9922 27.5328 21.2299 26.772C20.4678 26.0109 20.0867 25.0876 20.0867 24.0019C20.0867 22.9162 20.4672 21.9922 21.228 21.2299C21.9891 20.4678 22.9124 20.0867 23.9981 20.0867C25.0838 20.0867 26.0078 20.4672 26.7701 21.228C27.5322 21.9891 27.9133 22.9124 27.9133 23.9981C27.9133 25.0838 27.5328 26.0078 26.772 26.7701C26.0109 27.5322 25.0876 27.9133 24.0019 27.9133ZM12 24C12 22.3417 12.3151 20.7823 12.9452 19.3219C13.5751 17.8615 14.43 16.5912 15.51 15.5109C16.59 14.4307 17.86 13.5755 19.32 12.9452C20.78 12.3151 22.34 12 24 12C24.9417 12 25.8597 12.1057 26.754 12.3171C27.6483 12.5284 28.5171 12.8424 29.3602 13.2591C29.6789 13.0529 30.0169 12.8969 30.3742 12.7911C30.7315 12.6854 31.0999 12.6325 31.4795 12.6325C32.562 12.6325 33.4806 13.0103 34.2354 13.7659C34.9901 14.5215 35.3675 15.4413 35.3675 16.5253C35.3675 17.6072 34.9897 18.5291 34.2341 19.2909C33.4785 20.0531 32.5587 20.4341 31.4747 20.4341C30.3928 20.4341 29.4709 20.0534 28.7091 19.2919C27.9469 18.5306 27.5659 17.6068 27.5659 16.5205C27.5659 16.0772 27.6399 15.6489 27.7879 15.2359C27.9357 14.8228 28.1464 14.4474 28.4201 14.1095V14.5652C27.7277 14.2418 27.0084 13.9979 26.2623 13.8335C25.5164 13.6693 24.7623 13.5872 24 13.5872C21.0931 13.5872 18.6308 14.5959 16.6134 16.6134C14.5959 18.6308 13.5872 21.0931 13.5872 24H12ZM31.4776 18.8469C32.1172 18.8469 32.6609 18.62 33.1089 18.1661C33.5567 17.712 33.7806 17.1641 33.7806 16.5224C33.7806 15.8868 33.5567 15.3441 33.1089 14.8942C32.6609 14.4443 32.1172 14.2194 31.4776 14.2194C30.8418 14.2194 30.2954 14.4437 29.8383 14.8923C29.3815 15.3412 29.1531 15.886 29.1531 16.5268C29.1531 17.1679 29.3782 17.7148 29.8285 18.1677C30.2788 18.6205 30.8285 18.8469 31.4776 18.8469Z" fill="#3A3A3A"/>
</g>
</svg>
