<svg width="107" height="107" viewBox="0 0 107 107" fill="none" xmlns="http://www.w3.org/2000/svg">
<g filter="url(#filter0_ii_2131_4904)">
<circle cx="53.5" cy="53.5" r="53.5" fill="#F8F8F8"/>
</g>
<g filter="url(#filter1_dii_2131_4904)">
<path d="M36.7717 75C35.4001 75 34.5503 73.5798 35.2509 72.4584L42.9025 60.2098C43.4424 59.3454 43.0611 58.2351 42.1697 57.6946C40.5215 56.6952 39.1719 55.3778 38.1209 53.7423C36.7199 51.5216 36.0194 48.9376 36.0194 45.9901C36.0194 43.2446 36.6775 40.8221 37.9936 38.7225C39.3097 36.623 41.114 34.9878 43.4066 33.8169C45.6991 32.6056 48.3101 32 51.2395 32H70.231C71.208 32 72 32.7532 72 33.6823V73.3177C72 74.2468 71.208 75 70.231 75H61.3509C60.3739 75 59.5819 74.2468 59.5819 73.3177V61.4944C59.5819 60.6582 58.8691 59.9803 57.9899 59.9803C57.7351 59.9803 57.4592 59.9803 57.162 59.9803C56.6903 59.9803 56.2556 60.2233 56.0262 60.6153L48.1153 74.1357C47.8032 74.6692 47.2116 75 46.5696 75H36.7717ZM53.0226 49.9873H57.813C58.7899 49.9873 59.5819 49.2341 59.5819 48.305V43.6753C59.5819 42.7462 58.7899 41.993 57.813 41.993H53.0226C52.3433 41.993 51.6641 42.1141 50.9848 42.3563C50.3055 42.5582 49.7324 42.962 49.2654 43.5676C48.8408 44.1329 48.6285 44.9404 48.6285 45.9901C48.6285 47.0399 48.8408 47.8676 49.2654 48.4732C49.6899 49.0385 50.2418 49.4423 50.9211 49.6845C51.6004 49.8864 52.3009 49.9873 53.0226 49.9873Z" fill="#ED131C"/>
</g>
<defs>
<filter id="filter0_ii_2131_4904" x="-4.56847" y="0" width="116.908" height="111.7" filterUnits="userSpaceOnUse" color-interpolation-filters="sRGB">
<feFlood flood-opacity="0" result="BackgroundImageFix"/>
<feBlend mode="normal" in="SourceGraphic" in2="BackgroundImageFix" result="shape"/>
<feColorMatrix in="SourceAlpha" type="matrix" values="0 0 0 0 0 0 0 0 0 0 0 0 0 0 0 0 0 0 127 0" result="hardAlpha"/>
<feOffset dx="-4.56847"/>
<feGaussianBlur stdDeviation="5.96432"/>
<feComposite in2="hardAlpha" operator="arithmetic" k2="-1" k3="1"/>
<feColorMatrix type="matrix" values="0 0 0 0 0.98903 0 0 0 0 0.98903 0 0 0 0 0.98903 0 0 0 0.7 0"/>
<feBlend mode="normal" in2="shape" result="effect1_innerShadow_2131_4904"/>
<feColorMatrix in="SourceAlpha" type="matrix" values="0 0 0 0 0 0 0 0 0 0 0 0 0 0 0 0 0 0 127 0" result="hardAlpha"/>
<feOffset dx="5.33928" dy="4.70007"/>
<feGaussianBlur stdDeviation="3.62846"/>
<feComposite in2="hardAlpha" operator="arithmetic" k2="-1" k3="1"/>
<feColorMatrix type="matrix" values="0 0 0 0 0.550342 0 0 0 0 0.550342 0 0 0 0 0.550342 0 0 0 0.07 0"/>
<feBlend mode="normal" in2="effect1_innerShadow_2131_4904" result="effect2_innerShadow_2131_4904"/>
</filter>
<filter id="filter1_dii_2131_4904" x="27.0683" y="26.2715" width="48.4569" height="54.4569" filterUnits="userSpaceOnUse" color-interpolation-filters="sRGB">
<feFlood flood-opacity="0" result="BackgroundImageFix"/>
<feColorMatrix in="SourceAlpha" type="matrix" values="0 0 0 0 0 0 0 0 0 0 0 0 0 0 0 0 0 0 127 0" result="hardAlpha"/>
<feOffset dx="-2.20326"/>
<feGaussianBlur stdDeviation="2.86424"/>
<feComposite in2="hardAlpha" operator="out"/>
<feColorMatrix type="matrix" values="0 0 0 0 0.531836 0 0 0 0 0.0249038 0 0 0 0 0.0447835 0 0 0 0.2 0"/>
<feBlend mode="normal" in2="BackgroundImageFix" result="effect1_dropShadow_2131_4904"/>
<feBlend mode="normal" in="SourceGraphic" in2="effect1_dropShadow_2131_4904" result="shape"/>
<feColorMatrix in="SourceAlpha" type="matrix" values="0 0 0 0 0 0 0 0 0 0 0 0 0 0 0 0 0 0 127 0" result="hardAlpha"/>
<feOffset dx="1.37194"/>
<feGaussianBlur stdDeviation="1.20045"/>
<feComposite in2="hardAlpha" operator="arithmetic" k2="-1" k3="1"/>
<feColorMatrix type="matrix" values="0 0 0 0 0.8375 0 0 0 0 0.0628125 0 0 0 0 0.094795 0 0 0 1 0"/>
<feBlend mode="normal" in2="shape" result="effect2_innerShadow_2131_4904"/>
<feColorMatrix in="SourceAlpha" type="matrix" values="0 0 0 0 0 0 0 0 0 0 0 0 0 0 0 0 0 0 127 0" result="hardAlpha"/>
<feOffset dx="-1.37194"/>
<feGaussianBlur stdDeviation="1.37194"/>
<feComposite in2="hardAlpha" operator="arithmetic" k2="-1" k3="1"/>
<feColorMatrix type="matrix" values="0 0 0 0 1 0 0 0 0 0.3125 0 0 0 0 0.340883 0 0 0 1 0"/>
<feBlend mode="normal" in2="effect2_innerShadow_2131_4904" result="effect3_innerShadow_2131_4904"/>
</filter>
</defs>
</svg>
