<svg xmlns="http://www.w3.org/2000/svg" fill="none" viewBox="0 0 210 248"><g filter="url(#a)"><path fill="#ED131C" d="M112.57 9.39a18.5 18.5 0 0 1 32.2 0l28.8 50.55a18.56 18.56 0 0 0 12.3 8.99l56.7 11.92c14.03 2.95 19.57 20.12 9.94 30.8l-38.9 43.17a18.74 18.74 0 0 0-4.7 14.55l6.25 57.92c1.55 14.34-12.97 24.95-26.05 19.04l-52.84-23.87a18.46 18.46 0 0 0-15.2 0l-52.84 23.87c-13.08 5.9-27.6-4.7-26.05-19.04l6.24-57.92c.57-5.3-1.14-10.6-4.7-14.55l-38.9-43.16C-4.8 100.97.74 83.8 14.77 80.86l56.7-11.93a18.56 18.56 0 0 0 12.3-9l28.8-50.54Z"/></g><defs><filter id="a" width="266.44" height="256.49" x="-2.55" y="0" color-interpolation-filters="sRGB" filterUnits="userSpaceOnUse"><feFlood flood-opacity="0" result="BackgroundImageFix"/><feBlend in="SourceGraphic" in2="BackgroundImageFix" result="shape"/><feColorMatrix in="SourceAlpha" result="hardAlpha" values="0 0 0 0 0 0 0 0 0 0 0 0 0 0 0 0 0 0 127 0"/><feOffset dx="-2.55" dy="8.49"/><feGaussianBlur stdDeviation="5.39"/><feComposite in2="hardAlpha" k2="-1" k3="1" operator="arithmetic"/><feColorMatrix values="0 0 0 0 0.954362 0 0 0 0 0.342337 0 0 0 0 0.342337 0 0 0 1 0"/><feBlend in2="shape" result="effect1_innerShadow_310_6972"/><feColorMatrix in="SourceAlpha" result="hardAlpha" values="0 0 0 0 0 0 0 0 0 0 0 0 0 0 0 0 0 0 127 0"/><feOffset dx="7.64" dy="4.25"/><feGaussianBlur stdDeviation="3.28"/><feComposite in2="hardAlpha" k2="-1" k3="1" operator="arithmetic"/><feColorMatrix values="0 0 0 0 0.498617 0 0 0 0 0 0 0 0 0 0 0 0 0 0.26 0"/><feBlend in2="effect1_innerShadow_310_6972" result="effect2_innerShadow_310_6972"/></filter></defs></svg>