<svg xmlns="http://www.w3.org/2000/svg" fill="none" viewBox="0 0 280 266"><g filter="url(#a)"><path fill="#E0E1E5" fill-rule="evenodd" d="m85.6 22.25 11.44 4.22-1.82 12.44-11.69-4.64 2.07-12.02Zm81.4.7c-1.08-1.01 11.07-8.07 15.6-.23 1.5 2.6.83 5.56.15 8.54-.7 3.04-1.4 6.11.19 8.86 1.47 2.54 5.2 2.87 6.01 2.4-6.93-7.67 3.47-7.57 6.51-7.14-6.74-5.76-5.78-10-4.97-13.53.5-2.22.94-4.17-.62-6.04-1.72-2.08-5.2-.7-8.56.63-2.13.85-4.22 1.68-5.8 1.6-1.9-.1-4.3-.85-6.7-1.62-6.6-2.09-13.33-4.22-10.74 7.18 11.8 2.87 13.54 16.11 3.9 21.68 0 0 .84 1.6 1 1.68 11.18-7.23 10.16-18.25 4.03-24ZM146.04 61.4c12.36-7.2 24.02-13.97 30.26-6.58 2.18 2.59 3.4 7.76 2.69 9.85-.79-.76-3.86-2.98-8.48-1.2-23.35 8.97-21.33 53.72 2.84 58.32a.4.4 0 0 1 .12.74l-32.2 18.59a.8.8 0 0 0-.15.09l-16 9.23a.4.4 0 0 1-.57-.47c8.08-23.23-29.66-47.35-49.1-31.62-3.85 3.11-3.47 6.88-3.2 7.95-2.17-.44-6.04-4.07-7.19-7.26-3.28-9.1 8.42-15.8 20.83-22.91 8.13-4.65 16.55-9.48 21.28-15.27 2.6 3.81 1.27 13.07-2.16 18.2 12.46 2.68 28.42 13.38 40.43 30.76-9.05-19.1-10.32-38.26-6.43-50.4-6.14.4-14.82-3.08-16.83-7.22 7.38-1.2 15.77-6.09 23.86-10.8Zm16.56 120.2c-.17-1.27-.24-2.39-.25-3.26 0-1.33-.43-2.07-1.36-2.91a9.99 9.99 0 0 1-2.84-3.96c-.67.39-.3 1.42.15 2.68.73 2.02 1.67 4.65-1.05 6.22.12-2.55-1.2-3.91-3.19-4.91-2.86-1.46-4-3.54-3.25-5.6.75-2.04 4.2-3.07 7.3-2.21.26-1.45 2.38-3.58 3.7-4.34-.98-.4-1.65-1.08-1.99-2.08-3.49 2.42-11.3 3.53-13.57-.4-1.7-2.94 1.5-7.75 3.87-10.08l-8.97-8.02c-.58-.54-.45-1.22-.03-1.52l.15-.1c.28-.12.65-.09 1 .21l9.63 8.54c-.43.31-.82.64-1.1.93l39.4 37.56a19.65 19.65 0 0 0 1.41-3.26l3.09 2.74c-2.51 4.07-12.5 11.93-21.44 9.26-1.35 2.08-6.9 4.05-9.57-.56-.25-.43-.58-1.22-.83-2.08.12.21.25.4.4.58.2-.53.51-1.07.89-1.61.66 1.06 1.48.89 2.6.26-.42-.64-.8-1.3-1.15-2a27.56 27.56 0 0 1 5.85-4.47c-3.11-.83-7.04-6.2-7.95-10.09a84.04 84.04 0 0 0-.9 4.48Zm3 10.08a32.74 32.74 0 0 1-3-10.08c-.94 5.56-1.1 10.43.26 12.85a7.95 7.95 0 0 1-.36-2.26c.03-1.34.82-1.03 1.1-.11.16.57.35 1.01.55 1.34.4-.58.9-1.17 1.45-1.74Zm26.01-6.59c1.2-3.66 1.17-7.48-.58-10.51-1.94-3.38-5.3.05-5.73 3.8l-2.55-3.23v-.01c-2.14-2.7-4.19-5.3-6.26-7.88-.79-.99-.57-1.63-.06-2.37 1.74-2.44 5.94-3.7 8.25.6.53.97 1.6.35 1.12-.68-2.95-6.73-7.44-6.56-10.62-3.74l-1.59-1.8a242.42 242.42 0 0 0-3.08-3.45c-1.22-1.33-3-4.13-1.57-4.95.67-.39 1.7 1.75 2.34 3.08l.12.23.13.28c.52 1.04 1.16 1.48 1.84 1.13.42-.21.56-1.16.61-1.77.4-4.08-1.72-8.84-5.38-9.61-3.07-.65-7.36 3.63-7.26 7.01-.77-.85-2.7-1.87-3.59-2.3-.86-.4-1.25-.8-.95-1.78.14-.47.4-2.14-.28-3.32-.4-.7-1.58-1.73-2.96-.93-1.09.63-1.76 2.27-.55 4.35.27.47.65.91 1.2 1.3-.51.18-1.48.73-2.3 1.32l39.7 35.23ZM156.76 83.11c2.75-3.12 8.65-6.65 15.08-5.09-2.45-4.22-7.97-6.04-9.41-5.84-1.37 1.18-5.16 6.64-5.67 10.93ZM48.09 123.85c-3.19-9.84-8.3-.78-9.44 2.07-1.63-8.72-5.77-10-9.24-11.08-2.17-.67-4.07-1.26-4.92-3.55-.94-2.53 1.99-4.85 4.83-7.1 1.8-1.42 3.56-2.81 4.28-4.21.87-1.71 1.4-4.16 1.95-6.62 1.5-6.76 3.01-13.66 11.58-5.72-3.4 11.65 7.2 19.79 16.84 14.22 0 0 .96 1.54.95 1.7-11.85 6.07-20.89-.31-22.8-8.5-.35-1.45-12.54 5.55-8.01 13.4 1.5 2.6 4.4 3.49 7.33 4.39 2.97.92 5.98 1.84 7.57 4.6 1.47 2.54-.11 5.93-.92 6.4Zm39.31 2.93c1.86-6.35 7.87-9.7 11.94-10.52-3.95-1.7-10.6-1.15-12.3-.56-.89 1.15-2.08 6.85.36 11.07Zm54.16-101.2Zm0 0-8.96-3.82-1.17 9.66 8.87 3.67 1.26-9.51Zm117.14 132.7v-.01Zm-10.85-3.2 10.85 3.2-3.16 10.12-10.35-2.33 2.66-11Zm-180.6-86.6-8.96-3.81-1.17 9.66 8.86 3.66 1.26-9.5Zm2.88 33.77Zm16.13-9.32-16.13 9.31c-.08-.03-4.93-2-6.66-3.36-6.27-4.98-4.76-9.87 0-12.61l9.18 1.71 3.1-8.8c4.76-2.75 9.74-1.62 10.92 6.3.15 1.01.08 2.67-.05 4.16 5.3-4.05 10.47-11.97 7.5-20.83 0 0-7.91-3.91-10.45-5.87-9.16-7.04-6.47-13.63.66-17.74l15.1 4.9 3.3-15.52c7.12-4.12 14.17-3.15 15.7 8.3.41 3.18-.15 11.97-.15 11.97 6.19 7.01 15.63 6.5 21.79 3.93a21.48 21.48 0 0 1-3.63-2.03c-6.27-4.98-4.75-9.87 0-12.61l9.18 1.71 3.1-8.8c4.75-2.75 9.75-1.62 10.92 6.3.33 2.2-.4 7.45-.4 7.45l-16.14 9.32c-13.57 7.83-24.22 3.48-30-2.28l-13.8 7.97c2.09 7.9.53 19.29-13.04 27.12Zm172.26-38.38c-2.08 3.23-14.66 21.5-38.65 31.27-.39-1.2-.82-2.4-1.29-3.58 13.75-10.34 24.3-19.83 29.47-28.58 5.88-9.98 2.9-23.97-6.58-30.19-.24-.15-.58-.01-.63.27-.78 4.21-6.28 29.76-27.2 48.8a52.76 52.76 0 0 0-2.51-3.57c7.75-13.4 14.65-27.67 15.98-37.84 2.01-15.38-6.6-28.55-18.37-31a.42.42 0 0 0-.5.4c-.08 5.54-1.28 56.6-17.14 87.5-.19.39-.39.76-.59 1.13-.47.87 0 1.87.95 2.08 4.46 1 8.43 3.69 10.82 7.83 4.16 7.2 2.15 16.35-4.33 21.82-3.25 2.85-8.67 5.7-14.75 6.93-.27.06-.42.35-.29.58l13.17 22.81c.21.37.82.14.74-.28-1.7-10.12 6.54-17.24 10.59-19.58 6.6 8.06 13.46 13.93 19.13 15.95 9.24 3.26 18.18-2.02 19.51-8.73a.38.38 0 0 0-.38-.45c-3.06-.02-20.9-.62-31.26-12.5a29.6 29.6 0 0 0 2.29-3.01c8.34 4.67 18.16 7.45 24.52 7 10.68-.74 17.17-7.12 17.12-15.02 0-.28-.3-.45-.56-.33-5.4 2.55-23.88 7.08-37.1-.25.36-1.16.69-2.35.93-3.55 10.2 1.38 22.94.44 30.64-2.7 9.02-3.66 16.92-11.83 11.45-21.82a.4.4 0 0 0-.57-.13c-2.87 1.9-22.02 14.1-40.73 14.03a52.54 52.54 0 0 0-.3-3.65s24.1-7.14 33.15-14.61c9-7.42 10.48-18.33 3.93-27.07a.41.41 0 0 0-.66.04ZM81.02 181.47a51.9 51.9 0 0 1-3.03-2.08s-18.22 17.3-29.22 21.4c-10.92 4.08-21.1-.09-25.4-10.12a.41.41 0 0 1 .37-.56c3.86-.2 25.95-1.97 46.4-17.83a58.66 58.66 0 0 1-2.47-2.92c-15.83 6.75-29.32 11.14-39.48 11.23-11.57.1-22.2-9.47-22.86-20.78a.42.42 0 0 1 .56-.41c4.08 1.43 28.93 9.43 55.85.84a52.9 52.9 0 0 1-1.84-3.96c-15.48.01-31.28-1.15-40.76-5.08-14.32-5.95-21.41-19.98-17.66-31.4a.43.43 0 0 1 .61-.24c4.87 2.72 49.68 27.19 84.34 28.91l1.28.05a1.4 1.4 0 0 1 1.32 1.86 16.54 16.54 0 0 0 1.37 13.28c4.16 7.2 13.09 10.04 21.07 7.17 4.08-1.4 9.26-4.67 13.37-9.32.18-.2.51-.19.65.04l13.17 22.82c.21.37-.28.77-.62.5-7.9-6.54-18.19-2.96-22.24-.62 3.67 9.74 5.33 18.62 4.24 24.54-1.79 9.63-10.84 14.74-17.32 12.53a.38.38 0 0 1-.2-.55c1.52-2.66 9.92-18.41 4.8-33.33-1.24.23-2.49.4-3.74.48-.13 9.56-2.63 19.46-6.19 24.74-6 8.87-14.76 11.3-21.58 7.31-.24-.14-.24-.48 0-.65 4.9-3.4 18.06-17.13 18.33-32.24a39.3 39.3 0 0 1-3.54-.98c-3.9 9.52-11.1 20.1-17.66 25.2-7.68 5.97-18.7 8.72-24.62-1a.41.41 0 0 1 .18-.57c3.08-1.54 23.22-12.02 32.51-28.26Zm179.04-11.06-11.21-1.58a15.48 15.48 0 0 0-1.54 11.7c-4.27 3.34-18.55 7.85-18.38 5.29 2.67-27.43-14.62-32.85-27-24.85l7.52 13.04c2.42 4.19.7 9.7-3.83 12.31l-8.8 5.09c-6.32 3.65-6.8 12.34-6.8 12.34s-7.75-3.94-14.07-.3l-8.81 5.1c-4.53 2.6-10.15 1.33-12.57-2.86l-7.53-13.03c-13.13 6.72-17.08 24.41 8.01 35.8 2.28 1.14-9.04 11.6-15.57 14.37a10.45 10.45 0 0 0-8.09 1.07 10.8 10.8 0 0 0-2.9 2.44s-37.03-8.73-37.6-8.7l-.06-.57c-.1-3.33-3.8-4.9-5-3.94.48-2.71-4.08-10.78-13.67-7.71a69.56 69.56 0 0 1 3.2 4.68s-8.62.26-10.16 5.22c-.93 5.1 6.68 8.96 6.68 8.96s-3.32 2.03-5.06 2.84c7.17 6.8 15.02 1.5 15.85-1.15.64 1.38 4.67 1.53 6.32-1.41l.8-1.17c.34.15 36.38 8.61 36.38 8.61a8.77 8.77 0 0 0 2 6.31c2.42 2.92 6.68 4.04 10.55 2.74a10.82 10.82 0 0 0 5.98-4.87l9.48 2.14a3.3 3.3 0 0 0 2.56-.48c1.45-.97 1.88-2.85.96-4.18a2.78 2.78 0 0 0-1.73-1.1c-.17-.06-9.67-2.2-9.67-2.2 3.05-6.53 11.13-14.54 19.04-19.1 1.4-.81 1.37-2.36.23-3.23-8.53-6.5-4.41-17.16 6.48-16.7 4.75.2 10.79 2.5 17.63 8.2-11.26 10.7-22.67 28.85-20.53 40.24.83 4.4 7.94 6.94 13.65 4.98a.4.4 0 0 0 .26-.5c-5.48-15.69 3.72-35.05 10.64-41.43l.73.6.02.02.95.78c-6.31 9.07-9.75 22.52-6.25 34.12 1.6 5.31 9.28 6.5 14.28 5.15.25-.06.38-.34.27-.56-6.64-13.39-7.23-27.67-4.98-35.63.7.9 1.38 1.81 2.02 2.75 0 0 3.15 17.62 9.3 28.26 2.85 4.95 12.24 4.13 13.62 3.99 1.08-1.28 6.48-9 3.62-13.95-6.14-10.64-19.82-22.18-19.82-22.18-.5-1.02-.96-2.07-1.38-3.12 8.02 2.02 20.1 9.68 28.37 22.12.14.2.44.24.62.05 3.67-3.65 6.48-10.9 2.68-14.94-8.3-8.83-21.66-12.58-32.68-11.65l-.1-.57-.05-.34-.2-1.25c8.98-2.81 30.35-1.1 41.19 11.49a.4.4 0 0 0 .57.03c4.55-3.97 5.9-11.4 2.5-14.3-8.78-7.56-30.2-6.76-45.1-2.36-1.52-8.78-.5-15.16 1.7-19.37 5.06-9.65 16.35-7.9 17.71 2.75.18 1.42 1.5 2.22 2.9 1.41 8.95-5.16 21.83-8.31 28.68-6.52a16.98 16.98 0 0 0 17.36-1.7c6.23-4.45 8.77-12.5 6-19.02-2.44-5.72-8-8.91-13.93-8.97l-4.24 10.5Z" clip-rule="evenodd"/></g><defs><filter id="a" width="293.07" height="272.04" x="-6.07" y=".13" color-interpolation-filters="sRGB" filterUnits="userSpaceOnUse"><feFlood flood-opacity="0" result="BackgroundImageFix"/><feBlend in="SourceGraphic" in2="BackgroundImageFix" result="shape"/><feColorMatrix in="SourceAlpha" result="hardAlpha" values="0 0 0 0 0 0 0 0 0 0 0 0 0 0 0 0 0 0 127 0"/><feOffset dx="-6.55"/><feGaussianBlur stdDeviation="8.56"/><feComposite in2="hardAlpha" k2="-1" k3="1" operator="arithmetic"/><feColorMatrix values="0 0 0 0 0.98903 0 0 0 0 0.98903 0 0 0 0 0.98903 0 0 0 0.7 0"/><feBlend in2="shape" result="effect1_innerShadow_422_879"/><feColorMatrix in="SourceAlpha" result="hardAlpha" values="0 0 0 0 0 0 0 0 0 0 0 0 0 0 0 0 0 0 127 0"/><feOffset dx="7.66" dy="6.74"/><feGaussianBlur stdDeviation="5.21"/><feComposite in2="hardAlpha" k2="-1" k3="1" operator="arithmetic"/><feColorMatrix values="0 0 0 0 0.550342 0 0 0 0 0.550342 0 0 0 0 0.550342 0 0 0 0.15 0"/><feBlend in2="effect1_innerShadow_422_879" result="effect2_innerShadow_422_879"/></filter></defs></svg>