<svg xmlns="http://www.w3.org/2000/svg" width="200" height="148" fill="none"><g stroke="#9EA0B3" stroke-miterlimit="10" clip-path="url(#a)"><path d="M124.768 87.526c-2.711 2.22-7.277 4.787-13.697 4.787-11.771 0-21.402-9.366-21.402-20.813s9.63-20.813 21.402-20.813c6.42 0 10.986 2.637 13.697 4.787 7.562 6.105 18.833 5.134 25.111-2.22 6.278-7.353 5.279-18.315-2.283-24.42C137.323 20.58 124.411 16 111.071 16 79.611 16 54 40.906 54 71.5S79.61 127 111.071 127c13.34 0 26.252-4.579 36.454-12.834 7.561-6.105 8.632-17.067 2.282-24.42-6.277-7.354-17.477-8.395-25.039-2.22ZM209.559 63.638h-8.618v-8.853c0-5.436-4.271-9.785-9.441-9.785-5.17 0-9.441 4.426-9.441 9.785v8.93h-8.618c-5.245 0-9.441 4.427-9.441 9.785 0 5.358 4.271 9.785 9.441 9.785h8.618v8.93c0 5.436 4.271 9.785 9.441 9.785 5.17 0 9.441-4.426 9.441-9.785v-8.93h8.618c5.245 0 9.441-4.427 9.441-9.785 0-5.358-4.196-9.862-9.441-9.862ZM209.559 129.362h-8.618V120.6c0-5.333-4.271-9.6-9.441-9.6-5.17 0-9.441 4.343-9.441 9.6v8.762h-8.618c-5.245 0-9.441 4.343-9.441 9.6s4.271 9.6 9.441 9.6h8.618v8.838c0 5.333 4.271 9.6 9.441 9.6 5.17 0 9.441-4.343 9.441-9.6v-8.762h8.618c5.245 0 9.441-4.343 9.441-9.6s-4.196-9.676-9.441-9.676Z"/></g><defs><clipPath id="a"><path fill="#fff" d="M0 0h200v148H0z"/></clipPath></defs></svg>