<svg xmlns="http://www.w3.org/2000/svg" width="200" height="148" fill="none"><g stroke="#A8B2C7" clip-path="url(#a)"><path d="M123.613 196.966a3.775 3.775 0 0 1-.698-.88c-8.849-15.73-11.151-30.308-9.271-43.319 1.881-13.017 7.955-24.502 15.915-34.025 7.96-9.524 17.796-17.071 27.172-22.207 9.391-5.144 18.262-7.837 24.292-7.724.702.013 1.217.215 1.577.51.36.294.597.707.699 1.196.205.99-.152 2.283-1.164 3.33-10.058 10.42-14.956 20.132-16.262 29.231-1.306 9.101.99 17.525 5.199 25.347 4.205 7.815 10.329 15.051 16.71 21.792 2.788 2.944 5.613 5.783 8.352 8.536 3.56 3.578 6.976 7.011 9.981 10.346 2.371 2.637 3.454 5.155 3.556 7.547.103 2.393-.773 4.733-2.46 7.019-3.391 4.592-9.974 8.845-17.955 12.625-15.935 7.548-37.128 13.071-48.424 15.707-1.392.325-2.767-.262-3.777-1.363-1.012-1.104-1.594-2.665-1.417-4.146.875-7.319-.376-18.646-12.025-29.522Z"/><path d="M34.319 139.752v-.034c0-14.112 5.944-26.58 14.846-38.034 8.906-11.46 20.743-21.868 32.478-31.861 1.185-1.009 2.368-2.014 3.548-3.015 10.487-8.9 20.647-17.524 28.201-26.292 8.405-9.755 13.667-19.782 12.507-30.674-.207-1.941.695-3.74 1.934-4.668.615-.46 1.289-.69 1.935-.649.636.04 1.303.347 1.913 1.071 6.614 7.84 13.398 19.81 14.098 36.354.7 16.545-4.683 37.725-22.515 63.987-11.267 16.592-15.736 30.9-16.343 43.724-.607 12.817 2.648 24.106 6.752 34.647 1.445 3.711 3 7.34 4.528 10.908.64 1.494 1.275 2.977 1.896 4.45 2.108 5.004 4.053 9.915 5.476 14.846 2.841 9.85 3.588 19.757-.657 30.562-.715 1.819-2.91 2.529-4.65 1.54-25.383-14.424-47.577-31.095-63.071-49.195-15.496-18.1-24.258-37.587-22.876-57.667Z"/></g><defs><clipPath id="a"><path fill="#fff" d="M0 0h200v148H0z"/></clipPath></defs></svg>