<svg xmlns="http://www.w3.org/2000/svg" width="200" height="148" fill="none"><g stroke="#9EA0B3" clip-path="url(#a)"><path d="M46.258 144.61c-4.465-5.621-2-13.642 4.242-17.524l2.694-1.675c6.031-3.75 13.462-1.203 18.586 4.027 3.217 3.284 7.226 5.377 12.961 5.377 5.201 0 9.572-1.042 12.627-4.224 3.048-3.174 4.684-8.371 4.684-16.429V18.989c0-7.456 6.044-13.5 13.5-13.5h3.406c7.456 0 13.5 6.044 13.5 13.5v95.574c0 16.521-4.727 28.487-12.83 36.326-8.107 7.842-19.662 11.621-33.453 11.621-18.789 0-31.598-7.424-39.917-17.9ZM189.01 97.862h-.002l-7.959-3.432-.004-.002c-11.518-4.874-21.022-10.35-27.648-17.792-6.61-7.425-10.387-16.841-10.387-29.667 0-11.749 4.491-22.109 12.493-29.534 8.004-7.427 19.551-11.946 33.706-11.946 13.948 0 25.121 3.321 34.11 11.343 3.556 3.175 4.606 7.505 3.751 11.715-.857 4.221-3.631 8.31-7.709 10.914-5.07 3.236-11.603 1.156-16.42-2.843-3.834-3.181-8.243-4.538-13.732-4.538-4.751 0-8.692 1.52-11.45 4.059-2.759 2.54-4.307 6.074-4.307 10.038 0 4.886 1.547 8.357 4.858 11.344 3.27 2.95 8.253 5.421 15.077 8.388h.002l7.96 3.433c13.521 5.804 24.053 11.612 31.208 19.239 7.134 7.603 10.943 17.047 10.943 30.202 0 14.177-5.574 25.086-14.885 32.462-9.324 7.387-22.438 11.261-37.549 11.261h-.005c-22.717.203-39.25-8.045-49.833-20.171-4.968-5.691-2.442-14.202 4.254-18.078l1.154-.668c6.748-3.905 15.146-1.389 21.134 3.893 5.709 5.035 12.891 8.17 22.633 8.17 6.711 0 12.23-1.669 16.085-4.538 3.866-2.876 6.039-6.948 6.039-11.671 0-5.586-2.243-9.42-6.326-12.637-4.042-3.184-9.914-5.784-17.191-8.944Z"/></g><defs><clipPath id="a"><path fill="#fff" d="M0 0h200v148H0z"/></clipPath></defs></svg>