<svg xmlns="http://www.w3.org/2000/svg" width="200" height="148" fill="none"><g clip-path="url(#a)"><g stroke="#9EA0B3" clip-path="url(#b)"><path d="M110.14 16.983h.001c5.756-1.01 12.309-1.59 19.175-1.621l.639-.003-.001-.005c6.671.003 13.599.523 20.28 1.624 10.786 1.79 19.743 9.762 19.743 20.26v43.284c0 8.008-6.492 14.5-14.5 14.5H111.87c-15.188 0-27.5 12.312-27.5 27.5v12.039a3.5 3.5 0 0 1-3.5 3.5h-9.86c-5.725 0-10.236-2.05-13.676-5.535-3.45-3.497-5.844-8.462-7.263-14.315-1.927-7.911-2.844-14.211-2.824-20.415.02-6.206.978-12.338 2.824-19.917 3.146-13.025 13.202-19.85 24.697-19.85h51.433a4.5 4.5 0 0 0 4.5-4.5v-4.287a4.5 4.5 0 0 0-4.5-4.5H93.893a3.5 3.5 0 0 1-3.5-3.5v-3.998c0-5.735.775-10.02 3.56-13.252 2.792-3.241 7.688-5.522 16.187-7.009Z"/><path d="M157.607 185.915h-.001c-5.756 1.01-12.308 1.59-19.175 1.622l-.639.003.001.004c-6.672-.003-13.599-.522-20.28-1.623-10.786-1.79-19.743-9.763-19.743-20.26v-43.284c0-8.008 6.492-14.5 14.5-14.5h43.607c15.188 0 27.5-12.312 27.5-27.5v-12.04a3.5 3.5 0 0 1 3.5-3.5h9.861c5.724 0 10.235 2.05 13.675 5.536 3.45 3.496 5.844 8.462 7.263 14.314 1.927 7.911 2.844 14.211 2.824 20.416-.021 6.205-.978 12.338-2.824 19.916v.001c-1.587 6.57-4.927 14.172-9.316 20.121-4.405 5.973-9.77 10.154-15.381 10.154h-54.502a1.43 1.43 0 1 0 0 2.861h35.377a3.5 3.5 0 0 1 3.5 3.5v3.999c0 5.734-.775 10.019-3.56 13.252-2.792 3.24-7.688 5.522-16.187 7.008Z"/></g></g><defs><clipPath id="a"><path fill="#fff" d="M0 0h200v148H0z"/></clipPath><clipPath id="b"><path fill="#fff" d="M32 6h180v177H32z"/></clipPath></defs></svg>