<svg xmlns="http://www.w3.org/2000/svg" width="200" height="148" fill="none"><g stroke="#A8B2C7" clip-path="url(#a)"><path d="M71 1.5h253c8.008 0 14.5 6.492 14.5 14.5v148c0 8.008-6.492 14.5-14.5 14.5H71c-8.008 0-14.5-6.492-14.5-14.5V16c0-8.008 6.492-14.5 14.5-14.5Z"/><path d="M71 1.5h253c8.008 0 14.5 6.492 14.5 14.5v96c0 8.008-6.492 14.5-14.5 14.5H71c-8.008 0-14.5-6.492-14.5-14.5V16c0-8.008 6.492-14.5 14.5-14.5Z"/><rect width="9" height="9" x="66.5" y="10.5" rx="4.5"/><rect width="9" height="9" x="78.5" y="10.5" rx="4.5"/><rect width="9" height="9" x="90.5" y="10.5" rx="4.5"/></g><defs><clipPath id="a"><path fill="#fff" d="M0 0h200v148H0z"/></clipPath></defs></svg>