<svg xmlns="http://www.w3.org/2000/svg" width="152" height="33" fill="none"><g fill="#6E708C" clip-path="url(#a)"><path d="m14.73.043.693-.005c.059 0 .067.02.026.062-.296.302-.258.33.115.084.025-.017.038-.01.038.02v.725c0 .057-.018.064-.055.021a.738.738 0 0 0-.178-.144c-.148-.09-.134-.026.04.19a.083.083 0 0 1-.005.11c-.022.023-.015.053.022.09a.181.181 0 0 1 .05.071.468.468 0 0 1-.055.416.306.306 0 0 0-.059.147.358.358 0 0 0 .032.163.065.065 0 0 0 .053.038.068.068 0 0 0 .061-.027c.07-.093.14-.145.206-.157.015-.003.09.011.227.042.259.058.504.148.735.271.285.152.452.371.5.658.033.189-.003.44-.105.754a5.524 5.524 0 0 1-.451 1.017.863.863 0 0 0-.117.541.57.57 0 0 0 .205.352 5.728 5.728 0 0 0 1.813 1.113c.103.04.128.011.077-.086a4.65 4.65 0 0 1-.348-.85c-.104-.344-.012-.606.277-.785.211-.132.441-.217.691-.256a.077.077 0 0 1 .072.03c.105.134.146.122.122-.037a.463.463 0 0 0-.027-.095.51.51 0 0 1 .035-.457c.024-.042.02-.06-.016-.053-.015.003-.03.015-.046.038-.056.078-.085.07-.085-.025l-.003-.437c0-.131.065-.197.197-.199l.35-.004c.168-.002.247.072.237.22l-.03.454c-.004.057-.026.062-.067.015-.078-.09-.096-.09-.053 0a.628.628 0 0 1-.01.578c-.017.033-.016.057.004.073.008.006.02.007.032.003a.07.07 0 0 0 .033-.025c.056-.073.126-.098.21-.073.083.025.127.037.132.038.217.042.41.129.579.262a.588.588 0 0 1 .224.369.929.929 0 0 1-.046.403c-.08.272-.188.54-.327.802-.067.128-.029.18.115.158.319-.05.633-.197.941-.443a.588.588 0 0 0 .23-.538 1.448 1.448 0 0 0-.17-.572 3.396 3.396 0 0 1-.349-.97.507.507 0 0 1 .096-.429c.053-.066.166-.143.339-.23.182-.092.36-.19.533-.296.192-.115.337-.176.434-.182.178-.012.333.063.466.223.213.258.429.514.646.768a.115.115 0 0 0 .075.04c.243.025.472.09.686.193.182.087.31.195.381.323a.676.676 0 0 1-.103.803c-.072.08-.147.156-.224.227a.407.407 0 0 0-.136.257c-.02.154.023.232.132.235a.974.974 0 0 0 .207-.057c.18-.059.33-.037.45.066.105.088.152.21.143.364a.764.764 0 0 1-.297.555c-.073.06-.093.046-.06-.043.11-.302.035-.42-.227-.351l-.312.08a.678.678 0 0 1-.619-.273c-.014-.017-.026-.022-.036-.015a.025.025 0 0 0-.01.017.05.05 0 0 0 .005.026c.043.1.092.196.147.29.075.13.121.226.14.292.115.422-.077.72-.578.894-.111.038-.138.007-.08-.095.16-.28.165-.53.016-.752a3.958 3.958 0 0 1-.262-.451.842.842 0 0 1-.046-.692l.22-.371c.205-.35.228-.725.069-1.124a.082.082 0 0 0-.024-.033.092.092 0 0 0-.038-.018 3.146 3.146 0 0 1-.958-.376.07.07 0 0 0-.103.038.863.863 0 0 0-.012.502c.036.134.074.268.112.402l.102.297c.16.468.032.835-.384 1.102a2.73 2.73 0 0 1-1.35.432.358.358 0 0 0-.111.022c-.095.04-.095.088-.002.142a.332.332 0 0 0 .12.029c.096.01.148.069.154.174a.079.079 0 0 0 .077.074c.403.018.711.156.925.414a.94.94 0 0 1 .225.66 1.236 1.236 0 0 1-.269.697.1.1 0 0 1-.079.04.101.101 0 0 1-.08-.038.744.744 0 0 0-.339-.225 1.506 1.506 0 0 0-1.245.065c-.027.014-.026.022.005.024.354.027.694.111 1.018.252.29.128.594.201.912.22.293.018.5-.1.623-.353.037-.076.06-.072.07.011a.738.738 0 0 1-.032.314.747.747 0 0 1-.157.265c-.317.361-.696.461-1.137.3-.097-.035-.245-.127-.444-.276a3.125 3.125 0 0 0-.449-.28.601.601 0 0 0-.292-.069c-.032.001-.032.007-.003.018.13.049.25.115.358.197.12.092.197.197.23.317.064.228-.028.409-.276.542a.024.024 0 0 1-.025 0 .027.027 0 0 1-.009-.01.029.029 0 0 1-.003-.014.8.8 0 0 0-.045-.278.628.628 0 0 0-.185-.257c-.34-.296-.733-.362-1.179-.197l-.152.072a.431.431 0 0 1-.453-.037.056.056 0 0 0-.035-.01.05.05 0 0 0-.032.014c-.373.365-.657.79-.852 1.275a1.953 1.953 0 0 0-.13.983c.049.395.237.676.567.842a.743.743 0 0 0 .356.091.648.648 0 0 0 .365-.121c.055-.04.082-.025.08.043-.008.259-.105.449-.29.57-.14.09-.126.13.04.121.24-.013.372.083.397.286.001.007.003.013.006.018a.05.05 0 0 0 .011.014.041.041 0 0 0 .032.01.357.357 0 0 0 .289-.205c.056-.112.113-.113.173-.002.287.533.193.957-.283 1.273a.121.121 0 0 0-.051.066c-.073.246.024.4.29.463.606.143 1.084-.008 1.434-.451a.743.743 0 0 0 .163-.322.502.502 0 0 0-.079-.372 3.437 3.437 0 0 0-.323-.422c-.165-.184-.263-.327-.296-.429-.085-.26-.042-.52.131-.78.22-.327.474-.625.763-.893a19.31 19.31 0 0 0 1.614-1.682.03.03 0 0 1 .012-.009.033.033 0 0 1 .03.002.035.035 0 0 1 .01.012l.137.208a.037.037 0 0 0 .012.012c.005.003.01.005.016.006a.04.04 0 0 0 .031-.01c.517-.442.897-.98 1.143-1.611a.069.069 0 0 1 .025-.032.055.055 0 0 1 .036-.01.24.24 0 0 1 .176.108.064.064 0 0 0 .053.027.065.065 0 0 0 .052-.027 29.882 29.882 0 0 0 2.485-4.059.056.056 0 0 1 .033-.028.056.056 0 0 1 .043.005c.284.16.469.4.555.72.123.453.127.893.012 1.318-.082.304-.265.69-.55 1.158-.238.39-.515.754-.83 1.092-.01.011-.013.02-.006.025.003.003.007.004.011.003.005-.001.01-.004.013-.007l1.95-1.797a.116.116 0 0 1 .103-.029.12.12 0 0 1 .085.067c.148.32.204.644.166.972a2.263 2.263 0 0 1-.974 1.657.129.129 0 0 0-.024.023c-.033.045-.022.055.034.031.389-.17.813-.274 1.271-.31a.141.141 0 0 1 .14.082.138.138 0 0 1 .012.056c-.001.187-.03.354-.086.502a2.47 2.47 0 0 1-.91 1.163c-.134.094-.121.12.037.08a2.815 2.815 0 0 1 1.194-.026.094.094 0 0 1 .076.112 1.548 1.548 0 0 1-.242.576c-.307.42-.707.72-1.198.897a.138.138 0 0 0-.042.024.06.06 0 0 0-.02.03c-.007.032.023.045.089.037.434-.047.85.01 1.25.173a.15.15 0 0 1 .091.14c0 .02-.005.04-.013.058-.294.64-.788 1.025-1.482 1.154a.137.137 0 0 0-.051.018c-.058.038-.048.06.03.07.479.052.88.25 1.202.596.008.01.014.021.014.034a.054.054 0 0 1-.01.035c-.328.43-.776.664-1.346.701-.104.007-.11.034-.017.081.346.179.604.436.774.772a.074.074 0 0 1-.025.096c-.41.272-.856.361-1.339.267-.18-.035-.358-.072-.537-.11-.03-.007-.031-.003-.005.011l.358.194c.153.083.264.159.333.226.225.222.35.52.371.893a.056.056 0 0 1-.026.051c-.312.2-.632.264-.96.194-.185-.039-.427-.164-.724-.374a14.554 14.554 0 0 1-.658-.493c-.04-.032-.057-.033-.05-.002.002.012.017.027.046.048.353.253.695.523 1.024.81a.603.603 0 0 1 .219.454c.005.204-.022.403-.082.6a.075.075 0 0 1-.058.05 5.763 5.763 0 0 1-.449.068.907.907 0 0 1-.394-.026.75.75 0 0 1-.331-.238c-.486-.592-.974-1.18-1.466-1.767a.062.062 0 0 0-.02-.015.04.04 0 0 0-.02-.004c-.023.002-.026.013-.01.035.417.562.826 1.13 1.227 1.704.074.107.122.22.144.341a.64.64 0 0 1-.053.353c-.056.14-.118.278-.184.414a.07.07 0 0 1-.026.029.073.073 0 0 1-.04.01c-.123 0-.247-.003-.371-.008a.857.857 0 0 1-.398-.09.763.763 0 0 1-.313-.343 13.92 13.92 0 0 0-.08-.17c-.29-.536-.586-1.069-.89-1.598a.065.065 0 0 0-.011-.015.048.048 0 0 0-.015-.01.023.023 0 0 0-.013-.002.013.013 0 0 0-.009.007c-.006.01-.003.028.009.054.26.56.523 1.117.788 1.673a.635.635 0 0 1 .06.39c-.017.093-.08.199-.19.32-.083.092-.17.191-.261.296a.063.063 0 0 1-.071.017 3.324 3.324 0 0 0-.368-.119c-.163-.041-.273-.085-.332-.131a.599.599 0 0 1-.206-.31 73.89 73.89 0 0 0-.495-1.603.068.068 0 0 0-.018-.03c-.025-.024-.034-.007-.025.052.048.31.096.622.142.934l.04.179a.427.427 0 0 1-.166.463c-.156.118-.32.224-.495.319a.08.08 0 0 1-.078-.001 2.4 2.4 0 0 0-.338-.164.55.55 0 0 1-.275-.218.76.76 0 0 1-.087-.32c-.042-.404-.066-.809-.072-1.215-.001-.082-.022-.088-.062-.017-.044.078-.097.098-.16.06a9.856 9.856 0 0 0-.055-.036 5.263 5.263 0 0 1-.536-.31.045.045 0 0 0-.034-.008.046.046 0 0 0-.029.02c-.18.262-.285.548-.314.856-.025.257-.02.49.014.697.038.235.134.454.287.656.048.065.031.091-.05.08l-.26-.036c-.062-.008-.072.012-.033.06.335.412.734.535 1.198.369.149-.054.177-.017.084.11-.059.081-.04.129.055.144.412.067.73.255.953.564.116.159.186.35.213.572a2.42 2.42 0 0 1-.008.624c-.037.263-.044.432-.022.507.067.225.256.304.568.238.038-.007.05.007.036.042-.127.333-.375.491-.743.475a.718.718 0 0 1-.5-.223c-.064-.067-.1-.054-.107.038-.02.256.03.494.153.714a.027.027 0 0 1 .003.014c0 .004-.001.01-.003.013a.027.027 0 0 1-.01.01.028.028 0 0 1-.014.005.588.588 0 0 1-.495-.194c-.107-.116-.16-.105-.159.034a.04.04 0 0 1-.013.03.037.037 0 0 1-.014.007.033.033 0 0 1-.016 0 .389.389 0 0 1-.19-.102c-.128-.123-.168-.1-.12.07.066.23.188.405.368.525.058.038.245.12.561.248.448.18.91.315 1.385.406.357.07.65-.028.876-.292.126-.147.113-.271-.04-.374a.416.416 0 0 1-.175-.24.213.213 0 0 0-.04-.078c-.094-.116-.099-.244-.014-.384.071-.118.125-.24.162-.367.191-.669.597-1.128 1.217-1.377a.756.756 0 0 0 .267-.164 1.19 1.19 0 0 0 .186-.259c.049-.09.031-.104-.052-.042l-.254.189c-.024.02-.038.013-.042-.019a3.364 3.364 0 0 1-.02-.555.57.57 0 0 0-.012-.134c-.032-.166.035-.173.202-.021a.503.503 0 0 0 .164.1c.068.027.018-.074-.152-.302-.042-.056-.03-.084.037-.082l.77.014c.033 0 .04.014.02.042a7.192 7.192 0 0 1-.21.275c-.02.025-.02.043.003.053.01.004.02.005.032.003a.08.08 0 0 0 .034-.017l.23-.183c.066-.054.1-.039.1.044v.71c0 .121-.04.137-.122.047a.502.502 0 0 0-.233-.157c-.032-.009-.04.002-.027.032a.859.859 0 0 0 .215.293c.052.047.156.103.313.169.524.222.879.61 1.065 1.163.074.22.159.437.255.65a.129.129 0 0 1 .008.084c-.037.14-.095.269-.174.386a5.424 5.424 0 0 0-.245.385c-.126.227-.295.42-.507.58a.11.11 0 0 0-.041.07c-.032.221-.17.357-.417.407a.766.766 0 0 0-.365.183c-.117.105-.207.167-.27.185a.989.989 0 0 1-.378.033.826.826 0 0 0-.608.176c-.152.117-.3.14-.445.07a14.189 14.189 0 0 0-.263-.13 2.74 2.74 0 0 1-.568-.277c-.2-.13-.412-.23-.634-.305-.12-.04-.35-.083-.688-.127a6.243 6.243 0 0 1-.962-.204 6.68 6.68 0 0 0-1.59-.268 2.886 2.886 0 0 1-.4-.042c-.226-.042-.275-.158-.147-.347.112-.167.175-.371.189-.613 0-.005 0-.01-.003-.016a.038.038 0 0 0-.04-.023c-.572.07-.94-.128-1.103-.596-.03-.085-.003-.107.078-.067a.748.748 0 0 0 .49.067.463.463 0 0 0 .34-.278.628.628 0 0 0-.04-.647.84.84 0 0 0-.48-.346c-.295-.086-.585-.032-.871.163-.295.202-.49.475-.586.819-.1.363.009.64.33.828.133.078.262.165.385.26.22.17.334.39.342.66.002.037-.011.043-.038.017-.232-.213-.487-.322-.763-.327-.103-.001-.111.026-.026.081.099.065.2.126.302.182.08.044.186.09.32.139a5.306 5.306 0 0 1 1.624.934c.113.095.235.172.365.231.162.073.3.084.413.032.176-.081.205-.272.089-.572-.017-.042-.003-.058.042-.049.481.1.745.364.792.793a.65.65 0 0 1-.238.607.058.058 0 0 0-.02.032.048.048 0 0 0 .007.035c.019.03.043.054.073.073.067.045.105.072.115.082.333.336.402.712.205 1.126-.015.034-.09.13-.221.288a.67.67 0 0 0-.144.542.03.03 0 0 1-.023.034.027.027 0 0 1-.014 0 .539.539 0 0 1-.361-.313 2.137 2.137 0 0 1-.15-.472.118.118 0 0 0-.016-.04.062.062 0 0 0-.026-.024c-.027-.012-.042.003-.045.046-.035.478-.271.813-.709 1.005-.402.178-.772.13-1.11-.143a.063.063 0 0 0-.083.002.063.063 0 0 0-.017.024.916.916 0 0 1-.224.332c-.482.462-1.034.538-1.657.23a.06.06 0 0 0-.044-.004.057.057 0 0 0-.033.028 1.832 1.832 0 0 1-.77.763.12.12 0 0 1-.122-.004 2.317 2.317 0 0 1-.726-.752.05.05 0 0 0-.063-.02c-.775.35-1.412.157-1.911-.58a.045.045 0 0 0-.03-.02.046.046 0 0 0-.035.009c-.335.237-.675.3-1.02.188a1.27 1.27 0 0 1-.527-.34c-.175-.183-.272-.376-.29-.58-.023-.256-.057-.257-.102-.004-.058.324-.206.547-.444.668-.066.033-.093.014-.081-.058a.585.585 0 0 0-.131-.504c-.509-.586-.461-1.105.142-1.556a.04.04 0 0 0 .014-.044.037.037 0 0 0-.009-.014.788.788 0 0 1-.21-.81c.107-.39.367-.592.78-.606.005 0 .01 0 .014.003a.026.026 0 0 1 .012.036.91.91 0 0 0-.07.194.356.356 0 0 0 .018.24c.078.17.223.22.433.15a1.58 1.58 0 0 0 .532-.298c.207-.175.311-.264.314-.265.373-.267.777-.48 1.212-.64a3.49 3.49 0 0 0 .695-.343c.057-.037.051-.056-.016-.058a.929.929 0 0 0-.757.311c-.044.05-.067.04-.068-.024a.76.76 0 0 1 .29-.626c.128-.105.264-.2.409-.284.377-.217.485-.538.325-.963a1.488 1.488 0 0 0-.5-.67 1.01 1.01 0 0 0-.782-.217c-.25.036-.441.138-.576.306-.153.19-.186.43-.1.719.06.2.2.3.417.297.157-.002.297-.027.42-.077.061-.025.083-.006.063.057-.137.44-.435.645-.893.613-.078-.006-.1.026-.062.095.073.134.155.27.248.41.072.11.106.202.101.274-.007.126-.088.207-.243.241a1.757 1.757 0 0 1-.582.03l-.31-.035a3.946 3.946 0 0 0-2.528.718c-.263.182-.533.354-.81.517a.084.084 0 0 0-.03.03.076.076 0 0 0-.01.038.73.73 0 0 0 .158.451c.018.023.029.05.03.078.008.242.018.484.032.724.009.14-.036.231-.133.276-.071.033-.157.027-.257-.019a1.214 1.214 0 0 1-.437-.332.174.174 0 0 0-.071-.051c-.16-.066-.241-.189-.244-.37a.532.532 0 0 0-.02-.142c-.011-.04-.028-.067-.047-.08a2.679 2.679 0 0 0-.25-.149l-.195-.074a.41.41 0 0 1-.26-.297.064.064 0 0 0-.02-.032.068.068 0 0 0-.035-.016c-.286-.04-.426-.205-.418-.497a.078.078 0 0 0-.036-.067c-.28-.184-.314-.426-.103-.728l.19-.27a.204.204 0 0 0 .033-.076.189.189 0 0 0 0-.08l-.088-.39a.12.12 0 0 0-.048-.068.61.61 0 0 1-.168-.18.638.638 0 0 1-.046-.18.382.382 0 0 0-.081-.177c-.1-.126-.122-.274-.067-.446.04-.123-.014-.198-.162-.226a.037.037 0 0 1-.024-.058c.037-.052.033-.1-.01-.146a.411.411 0 0 1-.11-.368.158.158 0 0 0-.01-.085l-1.673-4.04a.28.28 0 0 0-.14-.145c-.093-.045-.144-.112-.154-.203a.105.105 0 0 0-.012-.04.091.091 0 0 0-.027-.03.685.685 0 0 1-.266-.377.045.045 0 0 0-.021-.026.051.051 0 0 0-.035-.006.273.273 0 0 1-.255-.069 6.238 6.238 0 0 0-.14-.132 7.512 7.512 0 0 0-.404-.266c-.376-.233-.54-.567-.489-1.004a.04.04 0 0 1 .017-.029.035.035 0 0 1 .032-.004l.303.109a.09.09 0 0 0 .043.005.049.049 0 0 0 .031-.017c.042-.053.046-.132.013-.237a.29.29 0 0 1-.01-.126.332.332 0 0 1 .045-.124l.186-.317a.178.178 0 0 1 .06-.06l.493-.305c.047-.029.042-.044-.014-.047-.566-.024-1.021-.25-1.364-.677a.093.093 0 0 1 .009-.127 2.18 2.18 0 0 1 1.202-.578c.09-.014.091-.03.002-.05-.4-.084-.762-.259-1.088-.523a1.334 1.334 0 0 1-.46-.755.057.057 0 0 1 .032-.065c.422-.184.85-.255 1.285-.214.187.018.194-.01.021-.081a2.636 2.636 0 0 1-1.198-.974 1.29 1.29 0 0 1-.202-.526.074.074 0 0 1 .061-.085 3.02 3.02 0 0 1 1.241.027c.145.036.155.012.03-.07a2.305 2.305 0 0 1-1.016-1.45c-.069-.294.029-.415.292-.363l.203.04c.3.044.592.124.874.24.096.04.106.031.031-.025a2.36 2.36 0 0 1-.936-1.545 1.738 1.738 0 0 1 .181-1.13.081.081 0 0 1 .126-.022l1.953 1.803a.04.04 0 0 0 .017.01c.005.001.01 0 .014-.002.008-.005.006-.015-.006-.029A6.58 6.58 0 0 1 2.31 7.017a2.793 2.793 0 0 1-.237-.798 2.504 2.504 0 0 1 .05-.846c.083-.366.277-.635.58-.808a.063.063 0 0 1 .086.026 29.134 29.134 0 0 0 2.477 4.036.075.075 0 0 0 .064.032.078.078 0 0 0 .063-.035c.04-.064.094-.093.158-.088a.065.065 0 0 1 .036.016c.01.008.02.02.025.034.246.62.625 1.15 1.137 1.59.063.055.103.042.118-.04.039-.197.11-.23.215-.097.3.382.631.738.99 1.067.406.372.78.77 1.124 1.196.173.214.28.388.318.522a.832.832 0 0 1-.07.642 1.664 1.664 0 0 1-.231.298 6.018 6.018 0 0 0-.248.29c-.214.27-.21.54.015.811.418.508.944.637 1.577.388.174-.07.22-.203.136-.4a.145.145 0 0 0-.056-.065c-.453-.3-.544-.726-.272-1.279a.078.078 0 0 1 .025-.03.085.085 0 0 1 .036-.014.091.091 0 0 1 .076.025l.247.225c.01.009.021.014.034.016.013.002.027 0 .04-.005a.105.105 0 0 0 .037-.025.12.12 0 0 0 .025-.04l.076-.196a.069.069 0 0 1 .026-.032.087.087 0 0 1 .042-.015l.326-.03c.083-.008.09-.034.02-.076-.221-.134-.337-.346-.348-.635-.002-.054.019-.064.062-.032.213.158.445.176.698.051.376-.186.578-.49.605-.915.031-.466-.07-.9-.305-1.303a5.109 5.109 0 0 0-.646-.872.097.097 0 0 0-.124-.017.477.477 0 0 1-.213.08.447.447 0 0 1-.205-.06c-.435-.213-.848-.193-1.237.06a.762.762 0 0 0-.247.237.535.535 0 0 0-.072.348c.011.084-.017.1-.084.045-.357-.294-.359-.582-.007-.862a.836.836 0 0 1 .276-.146.057.057 0 0 0 .017-.008.045.045 0 0 0 .012-.014.028.028 0 0 0 .004-.015.02.02 0 0 0-.005-.013c-.01-.013-.029-.015-.057-.007a1.79 1.79 0 0 0-.672.384c-.313.281-.655.373-1.027.276a.984.984 0 0 1-.492-.284.915.915 0 0 1-.233-.547.133.133 0 0 1 .033-.104.027.027 0 0 1 .013-.008.03.03 0 0 1 .015 0c.005 0 .01.002.014.006a.035.035 0 0 1 .01.013c.112.244.309.364.59.36.268-.003.525-.061.77-.174a3.26 3.26 0 0 1 1.162-.294c.09-.007.094-.027.01-.062-.545-.224-1.048-.179-1.509.135a.346.346 0 0 1-.112.052c-.035.008-.063.006-.079-.008a.741.741 0 0 1-.256-.403c-.115-.454-.013-.814.304-1.078.11-.092.24-.16.393-.206.135-.04.282-.069.442-.086a.067.067 0 0 0 .061-.07c-.003-.108.05-.166.16-.174a.293.293 0 0 0 .126-.03c.093-.057.08-.106-.038-.146a.506.506 0 0 0-.126-.022 2.55 2.55 0 0 1-1.48-.585.693.693 0 0 1-.263-.635c.018-.197.065-.387.14-.57.12-.298.16-.598.119-.899a.088.088 0 0 0-.05-.067.09.09 0 0 0-.083.003 3.327 3.327 0 0 1-.95.36.081.081 0 0 0-.058.053c-.143.41-.119.78.072 1.11l.202.352c.095.259.069.52-.08.782-.084.151-.165.304-.242.46-.122.245-.096.486.077.724.036.05.024.071-.038.066-.363-.035-.585-.21-.666-.524a.726.726 0 0 1 .059-.479c.068-.153.148-.3.24-.442.02-.031.022-.053.007-.066-.009-.006-.02-.008-.032-.004a.074.074 0 0 0-.034.025c-.199.25-.447.327-.745.228-.381-.125-.514-.02-.398.315.01.029.002.035-.024.019a.66.66 0 0 1-.326-.529c-.027-.29.091-.447.355-.471a.836.836 0 0 1 .24.03c.08.02.16.03.243.035a.108.108 0 0 0 .113-.095.407.407 0 0 0-.14-.368 2.695 2.695 0 0 1-.242-.253.755.755 0 0 1-.163-.3c-.083-.328.03-.584.342-.767.233-.138.488-.218.765-.241a.15.15 0 0 0 .08-.032c.138-.111.255-.242.35-.391.14-.217.319-.397.536-.537.17-.11.343-.11.516-.001.24.151.486.293.737.424.153.08.256.163.31.25a.628.628 0 0 1 .09.41c-.01.089-.06.26-.152.513-.06.17-.135.334-.223.491-.149.266-.184.516-.105.752.065.197.223.363.472.499.218.119.456.204.712.257.09.019.116-.013.08-.096-.104-.234-.21-.476-.318-.726-.142-.328-.115-.605.08-.831a.998.998 0 0 1 .382-.252c.146-.06.294-.108.443-.144a.088.088 0 0 1 .085.024c.115.12.162.116.142-.01a.439.439 0 0 0-.03-.09.571.571 0 0 1-.025-.377l.063-.12c.032-.06.027-.076-.014-.048a.11.11 0 0 0-.032.036.135.135 0 0 1-.084.065 5.068 5.068 0 0 0-.023-.315c-.026-.258.053-.396.239-.413.12-.01.23-.01.333.005.155.02.223.134.205.342a7.842 7.842 0 0 0-.019.266c-.007.135-.043.15-.108.042a.112.112 0 0 0-.02-.024.048.048 0 0 0-.02-.012c-.022-.006-.018.016.015.067a.499.499 0 0 1 .017.53c-.027.051-.038.087-.033.107.01.045.07.03.18-.046a.13.13 0 0 1 .11-.017c.176.05.345.115.507.195.398.198.519.514.363.95a5.23 5.23 0 0 1-.334.743c-.054.098-.029.126.075.085a6.615 6.615 0 0 0 1.499-.837c.207-.154.326-.247.358-.28a.625.625 0 0 0 .18-.443c0-.122-.067-.317-.203-.585a6.292 6.292 0 0 1-.338-.796c-.122-.358-.165-.639-.13-.844.06-.334.279-.574.657-.72.25-.099.496-.18.737-.246a.152.152 0 0 1 .093.004c.03.01.054.03.072.057.096.144.173.138.23-.018a.198.198 0 0 0-.037-.199c-.118-.132-.125-.294-.02-.487a.125.125 0 0 0 .011-.082.244.244 0 0 1 .09-.24.182.182 0 0 0 .037-.04c.052-.082.035-.098-.05-.05-.068.04-.13.084-.186.135-.05.046-.074.036-.073-.03l.013-.685c.001-.036.016-.043.045-.021l.182.14c.012.01.025.016.038.018.013.002.025 0 .033-.007.035-.03.018-.071-.05-.124a.254.254 0 0 1-.093-.134.035.035 0 0 1 .006-.031.037.037 0 0 1 .03-.014Zm.87 8.485c-.095-.08-.08-.116.044-.111a2.049 2.049 0 0 0 1.493-.538.061.061 0 0 0 .02-.053.06.06 0 0 0-.034-.046 1.546 1.546 0 0 1-.565-.432c-.047-.059-.036-.074.034-.045.273.11.556.155.85.133.139-.01.14-.032.005-.066a1.996 1.996 0 0 1-1.061-.658c-.061-.073-.045-.1.048-.078.436.1.877.14 1.322.12.03-.002.03-.007.001-.016a6.159 6.159 0 0 1-2.098-1.1.129.129 0 0 0-.08-.026h-1.036a.12.12 0 0 0-.078.027 4.886 4.886 0 0 1-1.982 1.037c-.407.102-.403.133.014.092l1.232-.121c.03-.003.039.008.027.034a.712.712 0 0 1-.2.252 3.965 3.965 0 0 1-.262.175 1.956 1.956 0 0 1-.604.254c-.11.025-.11.044.003.057.296.036.567.005.813-.093.099-.04.113-.02.043.06-.16.181-.319.306-.477.372-.115.048-.123.11-.022.183.464.34.968.508 1.511.504.03 0 .035.01.013.03-.176.17-.357.25-.545.242-.105-.004-.129.037-.072.124.586.908.95 1.864 1.093 2.868.004.03.009.03.014 0a7.539 7.539 0 0 1 1.145-2.936c.027-.04.016-.06-.033-.06a.856.856 0 0 1-.576-.185Zm3.312 5.463a9.314 9.314 0 0 1-1.418-.225 5.093 5.093 0 0 1-1.256-.478c-.4-.218-.77-.474-1.112-.766a.096.096 0 0 0-.126 0 5.442 5.442 0 0 1-2.508 1.266c-.435.094-.86.16-1.273.202a.096.096 0 0 0-.085.073 6.785 6.785 0 0 0-.194 1.83c.014.433.09 1.021.23 1.767.166.884.399 1.75.698 2.598.218.615.46 1.158.728 1.628a10.891 10.891 0 0 0 2.41 2.902.109.109 0 0 0 .141-.002c.786-.7 1.465-1.474 2.035-2.321.4-.594.724-1.226.973-1.895.487-1.31.817-2.656.992-4.04a6.873 6.873 0 0 0-.142-2.458.103.103 0 0 0-.093-.08ZM1.77 17.631a.034.034 0 0 0 .02-.013.08.08 0 0 0 .015-.029.168.168 0 0 0 .007-.041.24.24 0 0 0-.032-.13.081.081 0 0 0-.023-.023.034.034 0 0 0-.024-.006.034.034 0 0 0-.02.012.081.081 0 0 0-.015.03.168.168 0 0 0-.007.04.242.242 0 0 0 .032.13c.008.01.015.019.023.024a.035.035 0 0 0 .024.006Zm6.096 6.558c.192.044.343.014.454-.091.09-.085.13-.215.121-.392a2.28 2.28 0 0 0-.032-.285 1.907 1.907 0 0 1-.036-.283c-.012-.806.401-1.304 1.238-1.493a.055.055 0 0 0 .038-.032.052.052 0 0 0-.004-.048c-.08-.123-.063-.169.052-.137.462.127.847.023 1.155-.312.045-.05.06-.085.044-.108-.02-.026-.081-.024-.185.008-.178.053-.208.008-.09-.135.118-.143.196-.361.234-.654.066-.509-.023-.999-.268-1.47a.09.09 0 0 0-.14-.023 1.343 1.343 0 0 1-.445.259.231.231 0 0 0-.07.048c-.051.046-.12.036-.204-.031-.044-.035-.066-.025-.066.031-.002.434-.026.865-.074 1.293a.487.487 0 0 1-.314.422 8.627 8.627 0 0 0-.409.186.071.071 0 0 1-.075-.01 2.168 2.168 0 0 0-.263-.187 1.108 1.108 0 0 1-.258-.189.537.537 0 0 1-.09-.484c.084-.35.13-.705.137-1.065 0-.03-.004-.03-.013 0a32.173 32.173 0 0 0-.486 1.6.61.61 0 0 1-.207.322c-.062.05-.174.097-.339.143a9.89 9.89 0 0 0-.383.116.065.065 0 0 1-.071-.022c-.103-.13-.206-.256-.307-.377a.554.554 0 0 1-.074-.652c.268-.536.525-1.078.771-1.624.013-.028.01-.03-.008-.005a3.562 3.562 0 0 0-.333.533c-.218.425-.45.842-.696 1.253a.803.803 0 0 1-.225.266.611.611 0 0 1-.356.094 1.937 1.937 0 0 0-.423.034.063.063 0 0 1-.066-.03 7.991 7.991 0 0 1-.193-.366.897.897 0 0 1-.109-.331.578.578 0 0 1 .099-.352c.403-.61.835-1.2 1.294-1.771.06-.078.047-.085-.04-.023a.2.2 0 0 0-.03.026 47.063 47.063 0 0 0-1.415 1.69.9.9 0 0 1-.264.227.648.648 0 0 1-.33.068 6.612 6.612 0 0 1-.542-.034c-.03-.003-.04.009-.027.035l1.664 3.404a.12.12 0 0 0 .054.054c.141.072.209.188.202.348 0 .014.002.028.008.04a.076.076 0 0 0 .024.032l.056.04a.05.05 0 0 1 .015.063c-.06.108-.023.201.108.28a.46.46 0 0 1 .227.373.11.11 0 0 0 .038.073.447.447 0 0 1 .154.44.126.126 0 0 0 .01.085l.113.19c.007.01.017.018.029.023a.07.07 0 0 0 .04 0 .58.58 0 0 1 .273-.017c.028.005.058 0 .083-.014.178-.098.33-.095.457.009.036.03.104.142.204.338a.85.85 0 0 0 .557.46c.175.048.4.035.674-.037a5.38 5.38 0 0 0 1.473-.634.106.106 0 0 0 .047-.069c.07-.35-.003-.42-.216-.208-.03.03-.058.045-.084.047-.052.004-.075-.031-.069-.106.008-.092-.018-.102-.078-.032a.696.696 0 0 1-.546.25.027.027 0 0 1-.024-.013.029.029 0 0 1 0-.028c.113-.23.156-.474.13-.734-.006-.069-.034-.078-.082-.03-.213.215-.476.28-.791.195a.615.615 0 0 1-.458-.43c-.01-.027.001-.037.031-.03Zm-3.52-6.124c.083-.062.158-.132.225-.21.02-.024.019-.026-.006-.006a5.949 5.949 0 0 1-1.222.787l-.113.044c-.116.045-.116.115 0 .21.01.01.019.02.024.033a.078.078 0 0 1 .005.039.81.81 0 0 0 .075.48.075.075 0 0 0 .031.035c.047.026.06.008.042-.052-.106-.327-.03-.593.23-.797.146-.114.29-.232.431-.353.019-.016.111-.086.277-.21Zm-2.175.15c0-.02-.008-.04-.023-.053a.078.078 0 0 0-.132.054.078.078 0 0 0 .155 0Zm13.962 12.026c.156-.198.247-.405.273-.622.016-.139-.002-.356-.053-.652a3.935 3.935 0 0 0-.265-.892 10.673 10.673 0 0 1-.728-2.456c-.013-.078-.033-.1-.059-.067a.087.087 0 0 0-.014.052c0 .554.088 1.095.263 1.623.329.996.491 1.99.486 2.98-.001.106.031.117.097.034Zm-1.36-4.61a10.814 10.814 0 0 1-.717 2.366c-.207.476-.315.97-.324 1.482-.003.181.014.325.052.431a.854.854 0 0 0 .254.37c.037.031.055.023.055-.025a10.46 10.46 0 0 1 .495-3.094c.12-.372.21-.751.27-1.136a.74.74 0 0 0-.031-.4c-.024-.059-.042-.057-.054.006Zm-2.401 2.615c.103.11.178.114.223.01.134-.306.303-.592.506-.86.292-.383.588-.765.886-1.146.064-.081.048-.081-.048-.001-.409.344-.824.682-1.244 1.013-.277.218-.411.482-.403.794.003.071.03.139.08.19Zm5.093-.953-1.25-1.03c-.086-.072-.096-.062-.03.027.24.318.495.651.766.998.23.294.434.632.613 1.014a.073.073 0 0 0 .078.04.07.07 0 0 0 .028-.011c.18-.127.232-.298.157-.515a1.146 1.146 0 0 0-.362-.523Zm-5.652 2.06c.28.17.404.09.37-.24a.062.062 0 0 0-.058-.056.617.617 0 0 1-.379-.179.07.07 0 0 0-.066-.017.07.07 0 0 0-.05.047c-.058.188.003.337.183.445Zm6.696-.222c.022-.04.01-.126-.034-.255a.035.035 0 0 0-.057-.014.731.731 0 0 1-.386.19c-.017.002-.035.02-.052.047a.377.377 0 0 0-.038.109c-.04.195.049.254.268.177a.522.522 0 0 0 .299-.254ZM151.875 4.763h-2.025a.056.056 0 0 0-.056.055v10.274c0 .03.025.055.056.055h2.025a.056.056 0 0 0 .056-.055V4.818a.056.056 0 0 0-.056-.055Z"/><path d="M13.083 14.701c.3.04.6.086.9.141.132.024.129.093-.01.205a.074.074 0 0 0-.026.058.069.069 0 0 0 .03.054l.987.681a.09.09 0 0 0 .052.016.098.098 0 0 0 .054-.016l.99-.665a.08.08 0 0 0 .035-.066.078.078 0 0 0-.035-.065c-.117-.074-.14-.134-.07-.18a.383.383 0 0 1 .133-.04c.269-.045.538-.086.808-.123.15-.02.189.036.117.167-.128.234-.263.477-.405.728a.244.244 0 0 1-.084.097c-.06.032-.104-.005-.133-.11a.092.092 0 0 0-.023-.039.098.098 0 0 0-.084-.029.103.103 0 0 0-.044.017l-.83.556a.05.05 0 0 0-.014.015.045.045 0 0 0-.007.02c0 .006 0 .012.003.018.003.006.007.011.012.015l.183.13c.01.006.022.008.036.005a.09.09 0 0 0 .04-.02c.1-.086.205-.161.316-.227.126-.075.221-.04.287.103a.072.072 0 0 1-.01.077.928.928 0 0 1-.294.241.047.047 0 0 0-.006.08l.557.378a.108.108 0 0 1 .047.09.104.104 0 0 1-.048.087l-.215.136c-.053.034-.049.056.013.067.22.038.407.014.56-.073.138-.078.243-.215.315-.41.077-.21.099-.433.066-.67-.027-.2-.04-.4-.04-.602a.085.085 0 0 1 .037-.07c.326-.217.647-.21.962.02a.102.102 0 0 1 .041.072c.057.492-.005.968-.185 1.427-.173.438-.476.687-.908.747a1.89 1.89 0 0 1-.61-.041 5.516 5.516 0 0 1-.599-.157.114.114 0 0 0-.044-.006.084.084 0 0 0-.039.012l-.453.282a.041.041 0 0 0-.014.017.044.044 0 0 0-.005.021.05.05 0 0 0 .006.023c.004.006.01.012.016.017l1.077.718c.013.01.024.021.031.035a.095.095 0 0 1-.03.124l-1.083.743a.05.05 0 0 0-.016.017.048.048 0 0 0 0 .044.045.045 0 0 0 .014.016l.903.61a.03.03 0 0 0 .046-.019.28.28 0 0 1 .116-.172.047.047 0 0 1 .035-.007.044.044 0 0 1 .03.021l.476.827c.075.131.035.183-.12.157-.266-.046-.54-.087-.82-.125-.067-.01-.112-.026-.136-.05-.048-.047-.017-.107.092-.178a.069.069 0 0 0 .024-.09.072.072 0 0 0-.022-.026l-1.008-.695a.066.066 0 0 0-.075 0l-1.021.691a.073.073 0 0 0 .002.121c.12.081.142.145.063.193a.407.407 0 0 1-.142.04l-.838.121c-.102.015-.13-.023-.084-.115.13-.255.262-.509.398-.761.034-.062.071-.103.113-.12.087-.038.137.018.15.167a.035.035 0 0 0 .02.029.036.036 0 0 0 .036-.003l.88-.596a.07.07 0 0 0 0-.117l-1.057-.714a.1.1 0 0 1-.043-.08.095.095 0 0 1 .043-.08l1.061-.714a.066.066 0 0 0 .03-.053.06.06 0 0 0-.029-.052l-.4-.263a.144.144 0 0 0-.123-.016 3.88 3.88 0 0 1-.94.204c-.29.025-.539-.037-.747-.185-.171-.122-.31-.316-.418-.581a3.035 3.035 0 0 1-.2-1.312.303.303 0 0 1 .15-.253c.209-.133.476-.123.803.028a.183.183 0 0 1 .103.187 5.976 5.976 0 0 0-.05.645c-.007.28.022.49.088.633.126.273.366.415.72.425.063.002.107-.006.135-.024.057-.037.007-.091-.151-.164-.142-.066-.154-.14-.035-.221l.512-.35a.07.07 0 0 0 .004-.112l-.268-.216a.064.064 0 0 1-.022-.033.074.074 0 0 1 .002-.042.227.227 0 0 1 .18-.163.09.09 0 0 1 .041.001c.014.004.028.01.04.02l.3.224a.122.122 0 0 0 .081.027.252.252 0 0 0 .215-.127.044.044 0 0 0 .005-.035.053.053 0 0 0-.022-.03l-.848-.58a.071.071 0 0 0-.062-.008.065.065 0 0 0-.042.044c-.06.224-.149.226-.267.007a155.32 155.32 0 0 0-.374-.696c-.064-.119-.029-.17.106-.152Zm2.136 1.856a.082.082 0 0 0-.015-.046.142.142 0 0 0-.044-.04.247.247 0 0 0-.066-.027.333.333 0 0 0-.157-.001.246.246 0 0 0-.066.026.144.144 0 0 0-.045.04.082.082 0 0 0-.016.046c0 .016.005.032.016.047a.14.14 0 0 0 .044.04c.019.011.041.02.066.027a.335.335 0 0 0 .156 0 .242.242 0 0 0 .067-.026.14.14 0 0 0 .044-.04.081.081 0 0 0 .016-.046Zm-.617.301c-.13-.059-.234-.052-.313.022a.233.233 0 0 1-.074.046c-.05.02-.07.05-.062.091.003.012.01.024.02.033a.08.08 0 0 0 .04.018c.12.017.253-.035.397-.156a.032.032 0 0 0 .011-.029.032.032 0 0 0-.019-.025Zm1.268.112-.25-.153a.093.093 0 0 0-.039-.013.101.101 0 0 0-.042.005c-.175.062-.184.123-.028.185.028.011.072.034.131.068.093.051.171.037.235-.043a.036.036 0 0 0 .006-.013.033.033 0 0 0-.014-.037Zm-.473.34-.306-.16a.176.176 0 0 0-.09-.018.21.21 0 0 0-.093.028l-.254.142a.049.049 0 0 0-.026.047c0 .01.004.019.01.027a.065.065 0 0 0 .02.022l.287.172a.154.154 0 0 0 .08.022.128.128 0 0 0 .072-.022l.302-.213a.03.03 0 0 0 .01-.011.028.028 0 0 0 .002-.014.025.025 0 0 0-.014-.023Zm.46 1.383-.8-.542a.071.071 0 0 0-.08 0l-.769.512a.065.065 0 0 0-.02.084c.004.01.011.017.02.023l.699.474c.03.02.064.031.1.032a.17.17 0 0 0 .098-.028l.752-.504a.03.03 0 0 0 .013-.025.031.031 0 0 0-.014-.026ZM38.19 1.031l1.804.154c-.004 6.068-.003 12.134.004 18.199.004 4.183.003 8.367-.004 12.55-.094.086-.19.115-.288.086a2.628 2.628 0 0 0-1.432.004c-.08.022-.161-.008-.243-.09a1655.54 1655.54 0 0 1-.022-14.322c.005-1.867.003-4.257-.006-7.171-.009-3.087 0-6.172.028-9.256.034.046.062.039.084-.021a.714.714 0 0 1 .044-.099c.013-.023.024-.035.032-.034ZM50.032.776a.15.15 0 0 1 .072.018.16.16 0 0 1 .056.051c1.514 2.246 3.018 4.481 4.512 6.706.18.27.334.534.46.792.133.275.262.552.386.831.033.074.064.073.092-.002.116-.311.245-.62.389-.925.122-.258.287-.548.495-.87 1.402-2.166 2.81-4.346 4.22-6.54a.14.14 0 0 1 .052-.047.149.149 0 0 1 .069-.018l1.572-.015c.021 0 .042.008.057.023a.076.076 0 0 1 .023.055l.006 14.198a.113.113 0 0 1-.113.114l-2.029-.006a.062.062 0 0 1-.044-.018.064.064 0 0 1-.019-.044v-9.26c0-.207.014-.436.043-.687.025-.228.046-.457.062-.685.002-.03-.008-.038-.03-.023a.063.063 0 0 0-.024.031 5.56 5.56 0 0 1-.574 1.238 508.413 508.413 0 0 1-3.88 6.123.098.098 0 0 1-.03.031.073.073 0 0 1-.038.011h-.687a.075.075 0 0 1-.038-.01.101.101 0 0 1-.032-.032 4711.599 4711.599 0 0 1-4.087-6.097 3.319 3.319 0 0 1-.265-.476 18.497 18.497 0 0 1-.215-.5c-.07-.17-.087-.142-.054.08.027.18.051.359.074.538.022.172.033.353.033.542v9.166c0 .02-.009.04-.023.055a.078.078 0 0 1-.056.022h-1.925a.088.088 0 0 1-.09-.088L48.46.824a.047.047 0 0 1 .028-.043.045.045 0 0 1 .017-.003l1.528-.002ZM118.606.754l1.889-.002c.023 0 .046.009.063.025a.085.085 0 0 1 .026.06l-.02 3.705c0 .016.003.032.01.047a.106.106 0 0 0 .028.038c.013.011.027.019.042.024a.118.118 0 0 0 .049.003 7.075 7.075 0 0 1 1.848.006c.699.092 1.27.261 1.714.507.471.26.859.615 1.164 1.064.217.32.394.711.531 1.175.123.415.203.841.242 1.278a10.88 10.88 0 0 1-.089 2.644c-.08.506-.222.99-.425 1.452a4.52 4.52 0 0 1-.812 1.259c-.774.837-1.78 1.28-3.017 1.327a6.59 6.59 0 0 1-1.209-.066.052.052 0 0 0-.021.001.052.052 0 0 0-.031.026.046.046 0 0 0-.004.02l.009 3.679a.103.103 0 0 1-.031.074.101.101 0 0 1-.073.03l-1.902.006a.052.052 0 0 1-.018-.004.048.048 0 0 1-.024-.024.05.05 0 0 1-.003-.017v-3.763a.045.045 0 0 0-.004-.016.038.038 0 0 0-.01-.014.04.04 0 0 0-.031-.01 7.888 7.888 0 0 1-1.581.076c-.578-.031-1.089-.138-1.531-.32-1.118-.463-1.851-1.32-2.199-2.572a8.898 8.898 0 0 1-.327-2.444c.003-.571.037-1.065.1-1.482a5.8 5.8 0 0 1 .413-1.439c.512-1.186 1.404-1.948 2.676-2.285a6.431 6.431 0 0 1 2.414-.17.073.073 0 0 0 .056-.017.074.074 0 0 0 .017-.024.095.095 0 0 0 .007-.029V.815c0-.008.001-.016.004-.023a.079.079 0 0 1 .015-.02.063.063 0 0 1 .021-.014.062.062 0 0 1 .024-.004Zm-.06 12.812.002-7.16a.056.056 0 0 0-.013-.034.058.058 0 0 0-.033-.019 4.387 4.387 0 0 0-1.076-.042 2.595 2.595 0 0 0-1.019.281 2.28 2.28 0 0 0-.778.68c-.168.232-.305.538-.412.918a5.862 5.862 0 0 0-.212 1.336c-.017.412-.009.801.024 1.167.036.394.117.778.244 1.15.185.544.429.957.731 1.237.372.348.843.541 1.413.582a5.36 5.36 0 0 0 1.076-.036.061.061 0 0 0 .038-.02.058.058 0 0 0 .015-.04Zm4.746-.689c.23-.28.4-.595.508-.941a6.81 6.81 0 0 0 .294-1.541 7.9 7.9 0 0 0-.023-1.558 4.387 4.387 0 0 0-.495-1.53 1.643 1.643 0 0 0-.452-.532 2.003 2.003 0 0 0-.613-.299 4.068 4.068 0 0 0-1.894-.124.059.059 0 0 0-.05.058v7.187a.079.079 0 0 0 .08.079l.955-.003c.696-.005 1.259-.27 1.69-.796ZM134.018 4.534c.498.031.985.131 1.46.3.765.272 1.35.723 1.756 1.354.262.407.467.962.614 1.665a8.56 8.56 0 0 1 .02 3.42 5.63 5.63 0 0 1-.459 1.386c-.214.444-.487.841-.82 1.191-.844.89-1.917 1.39-3.219 1.505a7.179 7.179 0 0 1-2.652-.257.037.037 0 0 0-.016-.001.032.032 0 0 0-.014.006.03.03 0 0 0-.01.01.025.025 0 0 0-.004.015l-.005 3.935c0 .019-.008.037-.022.05a.074.074 0 0 1-.052.022l-1.99.005a.074.074 0 0 1-.074-.072V4.856a.11.11 0 0 1 .007-.036.096.096 0 0 1 .089-.058h1.369c.021 0 .043.007.06.02.018.014.03.033.037.055l.264.925a.027.027 0 0 0 .007.012.027.027 0 0 0 .012.006h.014a.024.024 0 0 0 .012-.007c.62-.626 1.334-1.013 2.141-1.164a6.086 6.086 0 0 1 1.475-.075Zm-2.689 2.42a2.756 2.756 0 0 0-.543.92c-.078.224-.117.531-.117.921v4.235a.167.167 0 0 0 .092.148 4.14 4.14 0 0 0 1.983.436c.654-.022 1.22-.192 1.698-.509.635-.42 1.042-1.048 1.222-1.88.172-.8.207-1.596.104-2.39-.089-.685-.258-1.206-.506-1.564-.339-.488-.843-.795-1.512-.92a3.158 3.158 0 0 0-1.861.199 1.574 1.574 0 0 0-.56.405ZM67.702 4.763a.1.1 0 0 1 .1.102l-.022 6.778c0 .034.01.037.03.01.12-.167.23-.325.332-.472.119-.173.234-.328.345-.464 1.6-1.966 3.21-3.937 4.83-5.915a.108.108 0 0 1 .082-.04l1.204.006a.063.063 0 0 1 .063.063V15.08a.062.062 0 0 1-.06.061l-2.008.006a.07.07 0 0 1-.07-.07c0-1.944.003-3.897.007-5.858 0-.28.01-.538.028-.772.008-.103-.017-.11-.074-.025a10.76 10.76 0 0 1-.755 1.016 6306.335 6306.335 0 0 0-4.694 5.607.283.283 0 0 1-.093.073.255.255 0 0 1-.112.026l-1.107-.011a.047.047 0 0 1-.032-.014.046.046 0 0 1-.014-.033V4.824c0-.012.005-.024.014-.033a.047.047 0 0 1 .032-.014l1.974-.014ZM77.73 4.768l2.014-.001a.047.047 0 0 1 .032.013.046.046 0 0 1 .014.032l.005 4.08a.06.06 0 0 0 .061.06h4.472a.058.058 0 0 0 .057-.057V4.823a.06.06 0 0 1 .018-.043.062.062 0 0 1 .044-.018h2.03a.045.045 0 0 1 .046.045v10.262a.078.078 0 0 1-.078.078h-1.968a.087.087 0 0 1-.06-.025.084.084 0 0 1-.026-.06l.011-4.3a.045.045 0 0 0-.012-.031.044.044 0 0 0-.032-.014l-4.502-.005a.06.06 0 0 0-.06.06v4.314a.06.06 0 0 1-.06.06l-2.005-.005a.054.054 0 0 1-.035-.012.052.052 0 0 1-.017-.032 1.538 1.538 0 0 1-.016-.32l.017-.33c-.003-3.212 0-6.423.006-9.634 0-.012.004-.023.013-.032a.044.044 0 0 1 .03-.013ZM91.575 4.763a.101.101 0 0 1 .101.103v8.453a.045.045 0 0 0 .045.045h4.293a.05.05 0 0 0 .035-.014.048.048 0 0 0 .015-.035V4.83a.061.061 0 0 1 .018-.044.063.063 0 0 1 .045-.018l1.997-.006a.077.077 0 0 1 .078.078l.005 8.475c0 .012.005.023.013.03.008.01.02.014.032.014l1.48.005a.045.045 0 0 1 .044.045v4.22a.059.059 0 0 1-.058.058l-1.421-.004a.052.052 0 0 1-.05-.046l-.337-2.441a.05.05 0 0 0-.018-.031.054.054 0 0 0-.034-.013l-8.244-.005a.07.07 0 0 1-.05-.02.066.066 0 0 1-.02-.048l.012-10.254c0-.013.005-.025.013-.033a.045.045 0 0 1 .032-.015l1.974-.014ZM101.654 4.762h2.001a.06.06 0 0 1 .042.017c.011.011.017.026.017.041l-.016 6.8c0 .03.009.032.027.009.163-.216.325-.433.485-.652.183-.25.358-.477.524-.68 1.487-1.807 2.978-3.63 4.475-5.47a.18.18 0 0 1 .137-.065h1.152c.021 0 .041.009.055.023a.076.076 0 0 1 .023.055v10.247a.06.06 0 0 1-.004.023.07.07 0 0 1-.013.02.07.07 0 0 1-.02.012.059.059 0 0 1-.023.005h-1.985a.09.09 0 0 1-.065-.027.087.087 0 0 1-.027-.064c0-1.789-.003-3.549-.009-5.28-.002-.46.016-.921.054-1.381.005-.057-.009-.062-.041-.015-.224.33-.464.649-.72.957a859.756 859.756 0 0 1-4.813 5.754.108.108 0 0 1-.034.027.09.09 0 0 1-.04.01l-1.185.016a.075.075 0 0 1-.029-.005.075.075 0 0 1-.046-.07V4.838c0-.02.008-.04.023-.054a.08.08 0 0 1 .055-.023ZM140.49 4.762h1.998a.08.08 0 0 1 .057.024.087.087 0 0 1 .017.026c.003.01.005.02.005.03a60.23 60.23 0 0 0 .012 3.675c.003.005.006.01.011.014a.04.04 0 0 0 .031.01 16.79 16.79 0 0 1 2.11-.076 5.952 5.952 0 0 1 1.8.33c.69.24 1.196.65 1.519 1.226.201.358.321.79.361 1.292.035.453.003.907-.098 1.361-.159.72-.502 1.283-1.03 1.693-.382.295-.929.524-1.643.688a8.188 8.188 0 0 1-1.831.205c-1.051 0-2.148-.041-3.289-.123a.094.094 0 0 1-.086-.093l-.006-10.221c0-.016.007-.032.018-.043a.063.063 0 0 1 .044-.018Zm2.071 6.175c-.023.779-.021 1.572.007 2.378 0 .02.008.038.021.052a.08.08 0 0 0 .05.026 7.655 7.655 0 0 0 2.246-.006c.855-.135 1.299-.633 1.333-1.494.023-.58-.152-1.02-.526-1.32-.265-.214-.675-.348-1.231-.403a7.106 7.106 0 0 0-1.817.058.065.065 0 0 0-.036.018.064.064 0 0 0-.021.035 1.45 1.45 0 0 0-.037.373l.011.283ZM55.869 17.693c.363.126.713.286 1.05.479.683.392 1.188.917 1.514 1.575.238.48.375 1.053.41 1.722.088 1.643-.525 2.924-1.84 3.843a5.75 5.75 0 0 1-1.614.771 7.892 7.892 0 0 1-1.919.34c-.831.043-1.662.024-2.492-.058a.04.04 0 0 0-.041.024.04.04 0 0 0-.004.017l-.005 5.215a.06.06 0 0 1-.018.043.061.061 0 0 1-.043.017h-1.901a.087.087 0 0 1-.06-.025.084.084 0 0 1-.026-.06V17.65a.076.076 0 0 1 .062-.075c.537-.105 1.082-.18 1.636-.223a29.92 29.92 0 0 1 1.644-.088c.846-.021 1.688.034 2.525.166.438.07.812.157 1.122.264Zm-4.878 6.885c.99.118 1.98.112 2.964-.018a4.82 4.82 0 0 0 .732-.142c.242-.072.472-.171.69-.296.68-.392 1.092-.941 1.234-1.649.105-.518.1-1.005-.014-1.46-.127-.507-.425-.927-.894-1.26a3.265 3.265 0 0 0-.661-.362 3.631 3.631 0 0 0-.726-.193 10.358 10.358 0 0 0-3.333-.035.064.064 0 0 0-.055.064v5.28a.071.071 0 0 0 .063.07ZM65.283 20.74c1.462.14 2.601.748 3.418 1.825.304.402.549.859.733 1.37.177.49.29 1 .341 1.527.069.71.05 1.416-.054 2.12a5.89 5.89 0 0 1-.424 1.491c-.213.491-.485.925-.816 1.302-.79.898-1.825 1.415-3.105 1.55a6.782 6.782 0 0 1-2.72-.259 4.276 4.276 0 0 1-1.605-.896 4.691 4.691 0 0 1-1.47-2.406 7.988 7.988 0 0 1-.086-3.665c.134-.635.34-1.19.616-1.667.778-1.343 2.014-2.104 3.71-2.284a7.196 7.196 0 0 1 1.462-.008Zm-2.75 8.851c.326.32.697.537 1.114.654.358.101.777.14 1.256.12.902-.042 1.604-.4 2.103-1.073.306-.414.521-.963.646-1.647a6.93 6.93 0 0 0-.114-2.988 3.617 3.617 0 0 0-.46-1.06c-.456-.717-1.107-1.142-1.952-1.275a3.725 3.725 0 0 0-1.313.027c-.835.165-1.46.611-1.874 1.34a3.631 3.631 0 0 0-.396 1.039 7.236 7.236 0 0 0-.003 3.056c.15.703.481 1.305.994 1.807ZM79.833 21.336a.094.094 0 0 1 .053.117l-.44 1.37a.066.066 0 0 1-.065.047.068.068 0 0 1-.027-.007 5.516 5.516 0 0 0-2.777-.564c-.654.04-1.188.185-1.602.435-.506.304-.87.755-1.091 1.354-.495 1.337-.52 2.693-.075 4.066.251.779.698 1.36 1.34 1.745.484.29 1.055.447 1.713.47.924.031 1.802-.219 2.633-.749a.057.057 0 0 1 .069.006.059.059 0 0 1 .015.02l.553 1.225a.078.078 0 0 1 .004.052.073.073 0 0 1-.029.042 3.412 3.412 0 0 1-.504.294 7.113 7.113 0 0 1-3.008.694 7.947 7.947 0 0 1-1.426-.098 4.492 4.492 0 0 1-1.362-.472 4.097 4.097 0 0 1-1.35-1.155 4.307 4.307 0 0 1-.796-1.843 11.749 11.749 0 0 1-.19-2.297 7.38 7.38 0 0 1 .339-2.125c.197-.628.465-1.155.802-1.582a4.116 4.116 0 0 1 1.754-1.3c.488-.193 1.073-.314 1.755-.363a7.953 7.953 0 0 1 3.712.618ZM89.417 21.346a.068.068 0 0 1 .039.084L89 22.85a.038.038 0 0 1-.022.024.04.04 0 0 1-.032 0 5.57 5.57 0 0 0-3.142-.534c-.882.104-1.55.472-2.005 1.103-.29.403-.5.955-.63 1.655a6.23 6.23 0 0 0 .033 2.444c.142.666.372 1.21.69 1.63.596.784 1.457 1.187 2.585 1.207a4.446 4.446 0 0 0 2.579-.758.057.057 0 0 1 .048-.007.058.058 0 0 1 .036.032l.558 1.251a.059.059 0 0 1 .003.04.062.062 0 0 1-.024.034 4.895 4.895 0 0 1-1.09.542 7.59 7.59 0 0 1-2.517.44c-.698.003-1.293-.064-1.783-.2a4.279 4.279 0 0 1-1.67-.907 4.033 4.033 0 0 1-1.27-2.017 8.731 8.731 0 0 1-.285-1.598 11.025 11.025 0 0 1-.025-1.617 6.757 6.757 0 0 1 .45-2.038c.441-1.132 1.184-1.934 2.23-2.407.487-.22 1.066-.364 1.737-.43a8.005 8.005 0 0 1 3.962.607ZM91.663 21.007h1.809a.05.05 0 0 1 .035.015c.009.009.014.021.014.034v5.36c0 .48-.014.93-.043 1.349-.03.45-.065.899-.104 1.348a.062.062 0 0 0 .008.038c.007.011.017.02.03.024.105.035.187-.006.244-.123.253-.514.522-1.02.807-1.52.079-.14.168-.274.268-.402a2497.74 2497.74 0 0 1 4.711-6.067.147.147 0 0 1 .117-.056h1.332c.021 0 .041.008.055.023a.074.074 0 0 1 .023.054v10.51a.079.079 0 0 1-.007.033.083.083 0 0 1-.019.028.097.097 0 0 1-.029.02.094.094 0 0 1-.034.006h-1.74a.06.06 0 0 1-.043-.017.058.058 0 0 1-.018-.042v-5.27c0-.48.03-.95.09-1.413l.19-1.408a.063.063 0 0 0-.006-.04.052.052 0 0 0-.028-.024.202.202 0 0 0-.133-.005c-.044.012-.08.049-.11.109-.231.476-.468.95-.71 1.42a4.815 4.815 0 0 1-.52.796 614.833 614.833 0 0 1-4.731 5.83.176.176 0 0 1-.137.064h-1.292a.06.06 0 0 1-.043-.017.06.06 0 0 1-.018-.042V21.038a.031.031 0 0 1 .032-.03ZM105.633 21.069c.016 1.774.023 3.549.018 5.323-.001.497-.015.948-.042 1.35-.029.45-.065.9-.108 1.35a.082.082 0 0 0 .007.04.061.061 0 0 0 .025.03.153.153 0 0 0 .16.01c.037-.02.073-.063.108-.132.265-.52.54-1.035.826-1.544a3.69 3.69 0 0 1 .31-.467c1.555-1.99 3.106-3.983 4.653-5.98a.083.083 0 0 1 .032-.028.086.086 0 0 1 .04-.01h1.362c.019 0 .038.008.051.022a.07.07 0 0 1 .021.05l-.017 10.537a.049.049 0 0 1-.013.033.046.046 0 0 1-.033.013l-1.725.014a.097.097 0 0 1-.038-.008.09.09 0 0 1-.033-.022.103.103 0 0 1-.03-.072c-.011-1.89-.006-3.756.015-5.594.004-.408.035-.811.092-1.21.059-.402.118-.804.179-1.205a.104.104 0 0 0-.003-.043.075.075 0 0 0-.02-.034c-.048-.045-.106-.054-.174-.026a.123.123 0 0 0-.059.06l-.744 1.483a4.099 4.099 0 0 1-.461.718 857.741 857.741 0 0 1-4.774 5.885.192.192 0 0 1-.147.07h-1.295a.06.06 0 0 1-.022-.005.052.052 0 0 1-.018-.012.054.054 0 0 1-.017-.04l.017-10.556c0-.013.004-.025.013-.034a.041.041 0 0 1 .031-.014l1.767.001c.012 0 .023.005.032.014.008.009.013.02.014.033Z"/></g><defs><clipPath id="a"><path fill="#fff" d="M.348.016H152v32H.348z"/></clipPath></defs></svg>