<svg xmlns="http://www.w3.org/2000/svg" width="354" height="40" fill="none"><path fill="#6E708C" d="M.382 6.28V33.75h27.472V6.28H.382Zm23.547 23.547H4.306V10.204H23.93v19.623Z"/><path fill="#6E708C" d="m17.287 22.765-2.843-2.75 2.843-2.675v-5.425l-8.453 8.1 8.453 8.101v-5.35Z"/><path fill="#6E708C" fill-rule="evenodd" d="M39.22 21.258c-3.467.55-5.962 3.539-5.626 6.743.17 1.63.828 2.91 2.074 4.037 2.477 2.242 6.593 2.278 9.023.079.364-.33.661-.636.661-.681 0-.065-.691-.896-1.833-2.206-.02-.023-.312.21-.648.517-.8.732-1.557 1.017-2.686 1.014-.588-.002-.99-.065-1.3-.206-1.969-.894-2.554-3.53-1.141-5.135 1.335-1.517 3.557-1.526 5.27-.02l.38.333.44-.494c.241-.272.682-.775.98-1.119l.541-.624-.673-.61c-.708-.64-1.915-1.293-2.753-1.49-.724-.171-2.07-.24-2.709-.138Zm7.568 6.524v5.853H49.609l2.483-3.158 2.482-3.159.03 3.214.029 3.213h3.309V21.928l-1.463.007-1.463.006-2.43 3.106-2.43 3.106-.029-3.112-.03-3.113h-3.309v5.854Zm13.805.055v5.908h3.423v-4.418h4.303l.03 2.182.03 2.181 1.684.03 1.684.031V21.928h-3.423v4.197h-4.308v-4.197h-3.423v5.909Zm13.253 0v5.908h9.056v-2.871h-5.854v-1.657h4.418v-2.76h-4.418v-1.653l2.844-.03 2.844-.03.03-1.407.032-1.409h-8.952v5.909Zm11.044-.006v5.914h3.202v-3.534h1.32c.726 0 1.583-.055 1.905-.124 1.732-.367 3.023-1.689 3.294-3.373.29-1.797-.632-3.547-2.299-4.368l-.735-.362-3.344-.034-3.343-.034v5.915Zm11.817.006v5.908h3.202v-8.72l2.568-.03 2.568-.03.031-1.518.03-1.519h-8.4v5.909Zm9.718-.055v5.853h2.835l2.476-3.147 2.475-3.148.03 3.203.029 3.202h3.31V21.922l-1.46.03-1.459.032-2.434 3.092-2.433 3.092-.03-3.12-.029-3.12h-3.31v5.854Zm15.777-5.642c-.665.212-1.137.497-1.735 1.048-1.192 1.097-1.545 2.972-.838 4.442.243.504 1.013 1.34 1.514 1.643.16.097.093.27-.563 1.435-.41.73-.958 1.71-1.218 2.181l-.473.856 1.748-.001 1.747-.001.939-1.82.938-1.82h.853l.854-.002.03 1.795.03 1.794 1.685.03 1.684.031V21.928l-3.286.006c-2.854.005-3.367.032-3.909.206Zm-31.58 2.834c.886.355 1.022 1.48.243 2.003-.331.223-.511.253-1.519.253h-1.143V24.8h.992c.645 0 1.143.06 1.427.174Zm35.351 1.108v1.171l-1.263-.04c-1.067-.034-1.31-.075-1.573-.27-.478-.354-.629-.743-.473-1.216.217-.658.616-.816 2.067-.816h1.242v1.17ZM110.327 6.574c-1.824.571-3.552 2.178-4.114 3.826-1.647 4.833 2.867 9.418 7.982 8.108 1.183-.303 2.629-1.112 3.186-1.784.216-.26.111-.473-.681-1.39l-.936-1.085-.978.673c-1.636 1.126-3.183 1.155-4.404.083-.884-.776-1.182-1.556-1.064-2.784.248-2.58 2.942-3.672 5.355-2.172l1.032.641.945-1.06.946-1.06-.841-.746c-1.587-1.408-4.26-1.927-6.428-1.25Zm-76.603.512c0 .12.87 1.902 1.933 3.962l1.934 3.745-.452.457c-.357.362-.66.455-1.438.443l-.985-.014v2.88l.874.13c1.608.242 2.857-.232 3.936-1.493.517-.603 4.34-8.222 5.05-10.064.073-.187-.342-.248-1.692-.248h-1.788l-.585 1.537c-.32.845-.704 1.871-.85 2.28-.147.409-.32.744-.386.744-.065 0-.563-1.004-1.106-2.231l-.987-2.23-1.729-.058c-1.155-.038-1.729.015-1.729.16Zm12.198 5.747v5.948H49.28l.055-2.23.056-2.231 2.132-.056 2.132-.057v4.574h3.371V6.884h-3.371v4.164H49.292V6.884h-3.37v5.949Zm13.183-.1v5.85l1.438-.009 1.437-.009 2.38-3.053 2.379-3.054.054 3.17.055 3.17 1.631-.058 1.63-.058V6.983l-1.387-.055-1.388-.055-2.479 3.18-2.478 3.179-.055-3.174-.054-3.174H59.105v5.85Zm13.087.119v5.968l3.52-.074c3.903-.081 4.256-.176 5.364-1.438.73-.832.957-1.81.641-2.767-.23-.7-1.398-1.905-1.848-1.909-.133-.001.042-.226.389-.499 1.824-1.437 1.046-4.23-1.38-4.95-.694-.206-1.891-.299-3.847-.299h-2.84v5.968Zm11.699-.023v5.952h8.923v-2.974H87.063v-1.586h4.362v-2.776h-4.362V9.869l2.826-.055 2.826-.055V6.983l-4.412-.053-4.412-.054v5.953Zm10.906.012v5.956l1.636-.057 1.635-.058.058-1.735.057-1.735 1.529-.004c1.774-.005 2.776-.382 3.748-1.41.794-.84 1.053-1.52 1.053-2.77 0-1.812-1.313-3.481-3.086-3.928-.472-.119-2.156-.216-3.744-.216h-2.886v5.957Zm24.191-.107v5.849l1.437-.007 1.438-.006 2.379-3.056 2.38-3.055.054 3.161.055 3.161H130.092V6.884h-2.875l-2.38 3.066c-1.309 1.686-2.446 3.068-2.528 3.073-.082.004-.149-1.375-.149-3.066V6.884h-3.172v5.85Zm12.573-4.363v1.487h3.371v8.923h3.172V9.858h3.173V6.884h-9.716v1.487Zm11.104 4.458v5.952h8.923v-2.974h-5.75v-1.586h4.362v-2.776h-4.362V9.858H151.605l-.058-1.437-.058-1.438-4.412-.053-4.412-.054v5.953Zm10.311-4.458v1.487h3.172v8.94l1.636-.058 1.636-.058.054-4.412.053-4.412h3.165V6.884h-9.716v1.487ZM77.704 9.7c.377.377.29 1.307-.145 1.54-.211.112-.791.205-1.29.205h-.904V9.462h1.05c.578 0 1.158.107 1.29.238Zm22.997.467c.527.37.581 1.19.113 1.708-.247.273-.616.363-1.487.363h-1.16v-2.38h1.047c.626 0 1.224.124 1.487.31Zm-22.605 3.966c.486.34.597 1.24.203 1.634-.138.139-.802.238-1.586.238h-1.348v-2.18h1.145c.716 0 1.311.115 1.586.308Z" clip-rule="evenodd"/><path stroke="#6E708C" stroke-width="1.427" d="M172.124 3.957v32.117"/><path fill="#6E708C" d="M191.51 7.037c.836.771 1.254 1.724 1.254 2.857 0 1.13-.418 2.08-1.254 2.851-.837.772-1.94 1.176-3.311 1.213v1.359h-1.568v-1.36c-1.371-.036-2.477-.44-3.318-1.212-.836-.771-1.254-1.721-1.254-2.85 0-1.134.418-2.087 1.254-2.858.841-.772 1.947-1.176 3.318-1.213V4.751h1.568v1.073c1.371.037 2.474.441 3.311 1.213Zm-1.101 4.788c.525-.488.787-1.131.787-1.93 0-.8-.262-1.441-.787-1.924-.521-.488-1.257-.75-2.21-.788v5.423c.953-.037 1.689-.298 2.21-.78Zm-5.995-3.854c-.52.483-.78 1.124-.78 1.923 0 .8.26 1.443.78 1.931.525.483 1.264.744 2.217.78V7.184c-.953.037-1.692.3-2.217.788Zm8.776 7.06 4.14-9.995h1.568l4.14 9.995H201.4l-1.073-2.641h-4.426l-1.074 2.641h-1.637Zm4.927-8.21-1.645 4.14h3.283l-1.638-4.14Zm8.211-1.785v4.858l4.495-4.858h2.001l-3.855 4.14 4.141 5.855h-1.931l-3.283-4.711-1.568 1.714v2.997h-1.568V5.036h1.568Zm8.998 0 2.711 5.214 2.426-5.214h1.645l-3.569 7.57c-.418.896-.873 1.55-1.366 1.958-.488.405-1.127.607-1.917.607-.172 0-.341-.019-.508-.056a2.125 2.125 0 0 1-.377-.112l-.118-.041v-1.36c.19.093.476.142.857.147.465 0 .829-.093 1.094-.279.27-.186.5-.474.69-.864l.356-.718-3.569-6.852h1.645Zm15.627 0v9.995h-1.569V6.465h-3.638v1.568c0 1.436-.07 2.637-.209 3.604-.139.966-.351 1.7-.634 2.202-.279.502-.588.85-.927 1.046-.335.19-.744.286-1.227.286-.172 0-.353-.019-.544-.056a3.46 3.46 0 0 1-.446-.112l-.153-.041v-1.499c.283.093.544.14.781.14.274 0 .508-.068.703-.203.2-.14.388-.397.565-.773.177-.377.307-.948.39-1.715.084-.767.126-1.726.126-2.879V5.036h6.782Zm6.851 9.995h-3.994V5.036h1.568v3.569h2.426c.953 0 1.749.314 2.391.94.646.624.968 1.383.968 2.28 0 .892-.322 1.65-.968 2.272-.642.623-1.438.934-2.391.934Zm-2.426-1.429h2.426c.493 0 .913-.17 1.262-.508.348-.344.522-.767.522-1.269 0-.506-.174-.932-.522-1.275a1.717 1.717 0 0 0-1.262-.516h-2.426v3.568Zm5.779-8.566h7.562v1.43h-2.997v8.565h-1.568V6.465h-2.997V5.036Zm10.852 8.566h5.638v1.43h-7.207V5.035h7.068v1.43h-5.499v2.64h4.356v1.43h-4.356v3.066Zm6.642-8.566h7.562v1.43h-2.997v8.565h-1.568V6.465h-2.997V5.036Z"/><path fill="#6E708C" d="m188.199 13.958-.01-.357-.347.01v.347h.357Zm0 1.359v.357h.357v-.357h-.357Zm-1.568 0h-.357v.357h.357v-.357Zm0-1.36h.357v-.346l-.347-.01-.01.357Zm-3.318-1.212-.242.263h.001l.241-.263Zm0-5.708-.241-.263h-.001l.242.263Zm3.318-1.213.01.357.347-.01v-.347h-.357Zm0-1.073v-.357h-.357v.357h.357Zm1.568 0h.357v-.357h-.357v.357Zm0 1.073h-.357v.347l.347.01.01-.357Zm2.21 6.001.242.262-.242-.262Zm0-3.854-.245.26.003.002.242-.262Zm-2.21-.788.014-.356-.371-.015v.371h.357Zm0 5.423h-.357v.37l.371-.014-.014-.356Zm-3.785-4.635.243.261-.243-.261Zm0 3.854-.244.26.003.003.241-.263Zm2.217.78-.014.357.371.015v-.371h-.357Zm0-5.422h.357v-.37l-.371.014.014.356Zm4.637.116c.763.704 1.14 1.562 1.14 2.595h.713c0-1.233-.46-2.281-1.369-3.12l-.484.525Zm1.14 2.595c0 1.029-.376 1.884-1.14 2.589l.484.524c.909-.838 1.369-1.883 1.369-3.113h-.713Zm-1.14 2.589c-.761.701-1.776 1.083-3.079 1.118l.02.714c1.438-.04 2.63-.466 3.543-1.307l-.484-.525Zm-3.426 1.475v1.359h.714v-1.36h-.714Zm.357 1.002h-1.568v.714h1.568v-.714Zm-1.211.357v-1.36h-.714v1.36h.714Zm-.347-1.716c-1.303-.035-2.321-.417-3.087-1.119l-.482.526c.917.84 2.111 1.268 3.549 1.307l.02-.714Zm-3.086-1.118c-.764-.705-1.14-1.56-1.14-2.589h-.713c0 1.23.46 2.275 1.369 3.114l.484-.525Zm-1.14-2.589c0-1.033.377-1.89 1.14-2.595l-.484-.525c-.909.84-1.369 1.887-1.369 3.12h.713Zm1.139-2.594c.766-.702 1.784-1.084 3.087-1.12l-.02-.713c-1.438.04-2.632.466-3.549 1.307l.482.526Zm3.434-1.476V4.751h-.714v1.073h.714Zm-.357-.717h1.568v-.713h-1.568v.713Zm1.211-.356v1.073h.714V4.751h-.714Zm.347 1.43c1.303.035 2.318.417 3.079 1.118l.484-.525c-.913-.84-2.105-1.268-3.543-1.307l-.02.714Zm2.462 5.905c.607-.563.902-1.306.902-2.192h-.714c0 .713-.23 1.257-.673 1.67l.485.522Zm.902-2.192c0-.885-.295-1.627-.903-2.186l-.483.525c.442.407.672.949.672 1.661h.714Zm-.9-2.184c-.602-.564-1.431-.844-2.44-.883l-.028.713c.896.035 1.54.28 1.979.691l.489-.52Zm-2.811-.527v5.423h.714V7.183h-.714Zm.371 5.78c1.008-.04 1.837-.318 2.438-.876l-.485-.523c-.44.408-1.084.65-1.981.685l.028.713Zm-4.041-5.254c-.603.56-.895 1.3-.895 2.185h.714c0-.713.228-1.255.666-1.662l-.485-.523Zm-.895 2.185c0 .885.292 1.628.893 2.191l.488-.52c-.439-.412-.667-.957-.667-1.67h-.714Zm.896 2.194c.605.557 1.435.835 2.444.874l.028-.713c-.897-.035-1.544-.277-1.989-.687l-.483.526Zm2.815.518V7.183h-.714v5.423h.714Zm-.371-5.78c-1.009.04-1.84.32-2.445.883l.485.523c.445-.413 1.092-.657 1.988-.692l-.028-.713Zm6.573 8.205-.33-.136-.205.493h.535v-.357Zm4.14-9.995V4.68h-.239L197 4.9l.33.136Zm1.568 0 .33-.136-.092-.22h-.238v.356Zm4.14 9.995v.357h.534l-.204-.493-.33.136Zm-1.638 0-.33.135.09.222h.24v-.357Zm-1.073-2.641.33-.135-.09-.222h-.24v.357Zm-4.426 0v-.357h-.24l-.091.222.331.135Zm-1.074 2.641v.357h.241l.09-.222-.331-.135Zm3.29-8.21.332-.132-.331-.837-.332.837.331.132Zm-1.645 4.14-.331-.132-.194.489h.525v-.357Zm3.283 0v.357h.525l-.193-.489-.332.132Zm-6.236 4.207 4.14-9.995L197 4.9l-4.14 9.995.659.273Zm3.811-9.775h1.568V4.68h-1.568v.713Zm1.238-.22 4.14 9.995.66-.273-4.14-9.995-.66.273Zm4.47 9.501H201.4v.714h1.638v-.714Zm-1.307.223-1.074-2.642-.661.269 1.074 2.642.661-.27Zm-1.404-2.864h-4.426v.713h4.426v-.713Zm-4.757.222-1.073 2.642.661.269 1.073-2.642-.661-.269Zm-.743 2.42h-1.637v.713h1.637v-.714Zm2.959-7.986-1.645 4.14.663.264 1.645-4.14-.663-.264Zm-1.314 4.629h3.283v-.714h-3.283v.714Zm3.615-.489-1.638-4.14-.664.263 1.638 4.14.664-.263Zm6.241-5.793h.357V4.68h-.357v.356Zm0 4.858h-.357v.912l.619-.67-.262-.242Zm4.495-4.858V4.68h-.156l-.105.114.261.242Zm2.001 0 .261.244.559-.6h-.82v.356Zm-3.855 4.14-.261-.243-.197.213.167.237.291-.206Zm4.141 5.855v.357h.689l-.398-.563-.291.206Zm-1.931 0-.293.204.107.153h.186v-.357Zm-3.283-4.711.293-.204-.255-.366-.301.329.263.24Zm-1.568 1.714-.263-.24-.094.102v.138h.357Zm0 2.997v.357h.357v-.357h-.357Zm-1.568 0h-.357v.357h.357v-.357Zm0-9.995V4.68h-.357v.356h.357Zm1.211 0v4.858h.714V5.036h-.714Zm.619 5.1 4.495-4.857-.523-.485-4.496 4.858.524.485Zm4.233-4.743h2.001V4.68h-2.001v.713Zm1.74-.6-3.855 4.14.523.487 3.854-4.14-.522-.487Zm-3.885 4.59 4.14 5.854.583-.412-4.14-5.855-.583.413Zm4.432 5.291h-1.931v.714h1.931v-.714Zm-1.638.153-3.283-4.711-.586.408 3.283 4.711.586-.408Zm-3.839-4.748-1.568 1.714.526.482 1.568-1.715-.526-.481Zm-1.662 1.955v2.997h.714v-2.997h-.714Zm.357 2.64h-1.568v.714h1.568v-.714Zm-1.212.357V5.036h-.713v9.995h.713Zm-.356-9.638h1.568V4.68h-1.568v.713Zm10.566-.357.317-.164-.1-.192h-.217v.356Zm2.711 5.214-.316.165.334.643.306-.658-.324-.15Zm2.426-5.214V4.68h-.228l-.096.206.324.15Zm1.645 0 .323.153.24-.51h-.563v.357Zm-3.569 7.57-.323-.152.323.152Zm-1.366 1.958.228.275-.228-.275Zm-2.802.44.145-.327-.013-.005-.013-.005-.119.336Zm-.118-.042h-.357v.252l.238.084.119-.336Zm0-1.36.156-.32-.513-.25v.57h.357Zm.857.147-.004.357h.004v-.357Zm1.094-.279-.202-.294-.003.002.205.292Zm.69-.864-.32-.159v.002l.32.157Zm.356-.718.32.158.08-.162-.084-.161-.316.165Zm-3.569-6.852V4.68h-.588l.272.521.316-.165Zm1.328.165 2.712 5.214.633-.33-2.711-5.213-.634.329Zm3.352 5.2 2.425-5.214-.647-.301-2.425 5.213.647.301Zm2.102-5.008h1.645V4.68h-1.645v.713Zm1.322-.509-3.569 7.57.646.304 3.569-7.57-.646-.304Zm-3.569 7.57c-.407.873-.835 1.474-1.271 1.836l.456.549c.549-.456 1.032-1.161 1.462-2.082l-.647-.302Zm-1.271 1.835c-.409.34-.961.525-1.689.525v.713c.852 0 1.578-.219 2.145-.688l-.456-.55Zm-1.689.525a1.98 1.98 0 0 1-.431-.047l-.155.696c.193.043.388.065.586.065v-.714Zm-.431-.047a1.803 1.803 0 0 1-.309-.09l-.29.652c.117.052.27.096.444.134l.155-.696Zm-.335-.1-.119-.042-.237.673.118.042.238-.673Zm.12.295v-1.36h-.714v1.36h.714Zm-.514-1.039c.262.128.611.178 1.01.183l.008-.714c-.364-.005-.586-.052-.705-.11l-.313.641Zm1.014.183c.507 0 .953-.101 1.299-.344l-.41-.584c-.184.129-.467.214-.889.214v.714Zm1.297-.342c.334-.23.599-.574.808-1.002l-.641-.313c-.173.353-.367.586-.572.727l.405.588Zm.807-1 .356-.718-.64-.316-.356.717.64.317Zm.352-1.041-3.568-6.851-.633.33 3.568 6.85.633-.329Zm-3.885-6.33h1.645V4.68h-1.645v.713Zm17.272-.357h.356V4.68h-.356v.356Zm0 9.995v.357h.356v-.357h-.356Zm-1.569 0h-.357v.357h.357v-.357Zm0-8.566h.357v-.357h-.357v.357Zm-3.638 0v-.357h-.357v.357h.357Zm-.843 7.374-.311-.175-.001.002.312.173Zm-.927 1.046.176.31h.002l-.178-.31Zm-2.217.118.117-.337-.011-.004-.012-.003-.094.344Zm-.153-.041h-.357v.272l.263.072.094-.344Zm0-1.499.111-.34-.468-.152v.492h.357Zm1.484-.063.203.294.002-.001-.205-.293Zm1.081-8.364V4.68h-.357v.356h.357Zm6.425 0v9.995h.713V5.036h-.713Zm.357 9.638h-1.569v.714h1.569v-.714Zm-1.212.357V6.465h-.714v8.566h.714Zm-.357-8.923h-3.638v.714h3.638v-.714Zm-3.995.357v1.568h.714V6.465h-.714Zm0 1.568c0 1.426-.069 2.61-.205 3.553l.706.102c.143-.99.213-2.209.213-3.655h-.714Zm-.205 3.553c-.137.949-.34 1.632-.592 2.078l.621.35c.316-.557.535-1.342.677-2.326l-.706-.102Zm-.593 2.08c-.261.47-.531.758-.793.91l.356.618c.415-.239.764-.648 1.061-1.181l-.624-.347Zm-.792.909c-.269.153-.613.239-1.05.239v.713c.53 0 1.003-.104 1.403-.332l-.353-.62Zm-1.05.239c-.146 0-.305-.016-.475-.05l-.137.701c.21.041.414.063.612.063v-.714Zm-.475-.05a3.105 3.105 0 0 1-.398-.098l-.234.674c.13.046.298.087.495.125l.137-.7Zm-.421-.105-.153-.042-.188.689.153.042.188-.689Zm.11.303v-1.499h-.714v1.499h.714Zm-.468-1.16c.31.102.608.157.892.157v-.713a2.17 2.17 0 0 1-.67-.122l-.222.678Zm.892.157c.334 0 .643-.083.906-.265l-.405-.587a.854.854 0 0 1-.501.139v.713Zm.908-.266c.275-.192.496-.517.683-.915l-.646-.303c-.166.355-.322.546-.446.633l.409.585Zm.683-.915c.202-.43.337-1.049.422-1.827l-.709-.078c-.083.755-.208 1.28-.359 1.602l.646.303Zm.422-1.827c.086-.784.128-1.758.128-2.918h-.714c0 1.146-.042 2.091-.123 2.84l.709.078Zm.128-2.918V5.036h-.714v2.997h.714Zm-.357-2.64h6.782V4.68h-6.782v.713Zm9.639 9.638h-.357v.357h.357v-.357Zm0-9.995V4.68h-.357v.356h.357Zm1.568 0h.357V4.68h-.357v.356Zm0 3.569h-.356v.357h.356v-.357Zm4.817.94-.25.256.002.002.248-.257Zm0 4.552-.248-.257-.001.001.249.256Zm-4.817-.495h-.356v.357h.356v-.357Zm3.688-.508.248.255.002-.001-.25-.254Zm0-2.544-.253.252.002.002.251-.254Zm-3.688-.516v-.357h-.356v.357h.356Zm2.426 4.64h-3.994v.714h3.994v-.714Zm-3.637.357V5.036h-.714v9.995h.714Zm-.357-9.638h1.568V4.68h-1.568v.713Zm1.212-.357v3.569h.713V5.036h-.713Zm.356 3.926h2.426v-.714h-2.426v.714Zm2.426 0c.866 0 1.571.281 2.141.839l.499-.51c-.712-.697-1.601-1.043-2.64-1.043v.714Zm2.143.84a2.69 2.69 0 0 1 .86 2.023h.713a3.4 3.4 0 0 0-1.078-2.536l-.495.514Zm.86 2.023a2.68 2.68 0 0 1-.86 2.015l.495.514a3.39 3.39 0 0 0 1.078-2.529h-.713Zm-.861 2.016c-.57.554-1.276.833-2.142.833v.714c1.039 0 1.927-.343 2.639-1.035l-.497-.512Zm-4.568.118h2.426v-.713h-2.426v.713Zm2.426 0c.584 0 1.094-.205 1.51-.61l-.497-.511a1.388 1.388 0 0 1-1.013.408v.713Zm1.512-.611c.419-.413.629-.928.629-1.523h-.714c0 .41-.137.74-.416 1.015l.501.508Zm.629-1.523c0-.598-.21-1.116-.629-1.53l-.501.509c.278.274.416.606.416 1.021h.714Zm-.627-1.528a2.074 2.074 0 0 0-1.514-.62v.714c.405 0 .734.136 1.009.41l.505-.504Zm-1.514-.62h-2.426v.714h2.426v-.714Zm-2.782.357v3.568h.713v-3.568h-.713Zm6.135-4.998V4.68h-.357v.356h.357Zm7.562 0h.357V4.68h-.357v.356Zm0 1.43v.356h.357v-.357h-.357Zm-2.997 0v-.358h-.357v.357h.357Zm0 8.565v.357h.357v-.357h-.357Zm-1.568 0h-.357v.357h.357v-.357Zm0-8.566h.356v-.357h-.356v.357Zm-2.997 0h-.357v.357h.357v-.357Zm0-1.072h7.562V4.68h-7.562v.713Zm7.205-.357v1.43h.714v-1.43h-.714Zm.357 1.072h-2.997v.714h2.997v-.714Zm-3.354.357v8.566h.714V6.465h-.714Zm.357 8.21h-1.568v.713h1.568v-.714Zm-1.212.356V6.465h-.713v8.566h.713Zm-.356-8.923h-2.997v.714h2.997v-.714Zm-2.641.357V5.036h-.713v1.43h.713Zm10.496 7.137h-.357v.357h.357v-.357Zm5.638 0h.357v-.356h-.357v.356Zm0 1.43v.356h.357v-.357h-.357Zm-7.207 0h-.356v.356h.356v-.357Zm0-9.996V4.68h-.356v.356h.356Zm7.068 0h.357V4.68h-.357v.356Zm0 1.43v.356h.357v-.357h-.357Zm-5.499 0v-.358h-.357v.357h.357Zm0 2.64h-.357v.358h.357v-.357Zm4.356 0h.357V8.75h-.357v.357Zm0 1.43v.357h.357v-.357h-.357Zm-4.356 0v-.357h-.357v.357h.357Zm0 3.423h5.638v-.713h-5.638v.713Zm5.281-.357v1.43h.714v-1.43h-.714Zm.357 1.072h-7.207v.714h7.207v-.714Zm-6.85.357V5.036h-.713v9.995h.713Zm-.357-9.638h7.068V4.68h-7.068v.713Zm6.711-.357v1.43h.714v-1.43h-.714Zm.357 1.072h-5.499v.714h5.499v-.714Zm-5.856.357v2.642h.714V6.465h-.714Zm.357 2.999h4.356V8.75h-4.356v.714Zm3.999-.357v1.429h.714v-1.43h-.714Zm.357 1.072h-4.356v.713h4.356v-.713Zm-4.713.357v3.066h.714v-3.066h-.714Zm6.999-5.5V4.68h-.357v.356h.357Zm7.562 0h.357V4.68h-.357v.356Zm0 1.43v.356h.357v-.357h-.357Zm-2.997 0v-.358h-.357v.357h.357Zm0 8.565v.357h.357v-.357h-.357Zm-1.568 0h-.357v.357h.357v-.357Zm0-8.566h.357v-.357h-.357v.357Zm-2.997 0h-.357v.357h.357v-.357Zm0-1.072h7.562V4.68h-7.562v.713Zm7.206-.357v1.43h.713v-1.43h-.713Zm.356 1.072h-2.997v.714h2.997v-.714Zm-3.354.357v8.566h.714V6.465h-.714Zm.357 8.21h-1.568v.713h1.568v-.714Zm-1.211.356V6.465h-.714v8.566h.714Zm-.357-8.923h-2.997v.714h2.997v-.714Zm-2.64.357V5.036h-.714v1.43h.714ZM190.841 25.005V35h-1.569v-8.566h-4.927V35h-1.569v-9.995h8.065Zm2.85 0h3.994c.953 0 1.75.314 2.391.941.646.623.969 1.382.969 2.28 0 .891-.323 1.649-.969 2.271-.641.623-1.438.934-2.391.934h-2.425V35h-1.569v-9.995Zm3.994 1.429h-2.425v3.569h2.425c.493 0 .913-.17 1.262-.51.348-.343.522-.766.522-1.268 0-.506-.174-.931-.522-1.275a1.732 1.732 0 0 0-1.262-.516Zm7.709.94c-.716.716-1.073 1.592-1.073 2.629 0 1.036.357 1.914 1.073 2.634.72.72 1.598 1.08 2.635 1.08 1.04 0 1.919-.36 2.634-1.08.72-.72 1.08-1.598 1.08-2.634 0-1.037-.36-1.913-1.08-2.628-.715-.72-1.594-1.08-2.634-1.08-1.037 0-1.915.36-2.635 1.08Zm-1.122 6.274c-1.013-.995-1.52-2.21-1.52-3.645 0-1.436.507-2.651 1.52-3.646 1.013-.994 2.265-1.491 3.757-1.491 1.496 0 2.75.497 3.763 1.491 1.013.995 1.52 2.21 1.52 3.646 0 1.435-.507 2.65-1.52 3.645-1.013.994-2.267 1.491-3.763 1.491-1.492 0-2.744-.497-3.757-1.491ZM215.605 35v-9.995h6.419v1.429h-4.851V35h-1.568Zm7.987-9.995h3.994c.953 0 1.75.314 2.391.941.646.623.969 1.382.969 2.28 0 .891-.323 1.649-.969 2.271-.641.623-1.438.934-2.391.934h-2.425V35h-1.569v-9.995Zm3.994 1.429h-2.425v3.569h2.425c.493 0 .913-.17 1.262-.51.348-.343.522-.766.522-1.268 0-.506-.174-.931-.522-1.275a1.732 1.732 0 0 0-1.262-.516ZM231.217 35l4.141-9.995h1.568l4.14 9.995h-1.638l-1.073-2.642h-4.426L232.855 35h-1.638Zm4.928-8.21-1.645 4.14h3.283l-1.638-4.14Zm11.849 3.073 3.854-4.858h1.36V35h-1.569v-7.277l-3.645 4.566-3.638-4.566V35h-1.569v-9.995h1.353l3.854 4.858Zm13.271 0 3.854-4.858h1.359V35h-1.568v-7.277l-3.645 4.566-3.639-4.566V35h-1.568v-9.995h1.352l3.855 4.858ZM277.818 35h-1.568v-7.207L270.681 35h-1.352v-9.995h1.568v7.214l5.569-7.214h1.352V35Zm2.858-9.995h3.994c.952 0 1.749.314 2.39.941.646.623.969 1.382.969 2.28 0 .891-.323 1.649-.969 2.271-.641.623-1.438.934-2.39.934h-2.426V35h-1.568v-9.995Zm3.994 1.429h-2.426v3.569h2.426c.492 0 .913-.17 1.261-.51a1.71 1.71 0 0 0 .523-1.268 1.72 1.72 0 0 0-.523-1.275 1.73 1.73 0 0 0-1.261-.516Zm7.708.94c-.715.716-1.073 1.592-1.073 2.629 0 1.036.358 1.914 1.073 2.634.721.72 1.599 1.08 2.635 1.08 1.041 0 1.919-.36 2.635-1.08.72-.72 1.08-1.598 1.08-2.634 0-1.037-.36-1.913-1.08-2.628-.716-.72-1.594-1.08-2.635-1.08-1.036 0-1.914.36-2.635 1.08Zm-1.122 6.274c-1.013-.995-1.519-2.21-1.519-3.645 0-1.436.506-2.651 1.519-3.646 1.013-.994 2.266-1.491 3.757-1.491 1.496 0 2.751.497 3.764 1.491 1.013.995 1.519 2.21 1.519 3.646 0 1.435-.506 2.65-1.519 3.645-1.013.994-2.268 1.491-3.764 1.491-1.491 0-2.744-.497-3.757-1.491ZM306.869 35h-4.28v-9.995h4.064c.808 0 1.498.267 2.07.802.571.534.857 1.147.857 1.84 0 .4-.083.766-.251 1.101-.162.334-.325.567-.488.697l-.257.202a3.503 3.503 0 0 1 .522.383c.177.144.328.305.453.481.13.177.249.407.356.69.111.28.167.57.167.872 0 .799-.307 1.487-.92 2.063-.613.576-1.378.864-2.293.864Zm-2.711-1.36h2.711c.465 0 .855-.155 1.171-.466a1.59 1.59 0 0 0 .474-1.171 1.59 1.59 0 0 0-.474-1.171c-.311-.316-.702-.474-1.171-.474h-2.711v3.283Zm2.495-7.276h-2.495v2.712h2.495c.39 0 .713-.128.969-.384.26-.26.39-.583.39-.969 0-.39-.13-.713-.39-.968a1.302 1.302 0 0 0-.969-.39ZM310.925 35l4.141-9.995h1.568l4.14 9.995h-1.638l-1.073-2.642h-4.426L312.563 35h-1.638Zm4.928-8.21-1.645 4.14h3.283l-1.638-4.14Zm14.707-1.785V35h-1.569v-4.356h-4.927V35h-1.569v-9.995h1.569v4.217h4.927v-4.217h1.569ZM341.9 35h-1.569v-7.207L334.763 35h-1.353v-9.995h1.569v7.214l5.569-7.214h1.352V35Zm9.848-9.995V35h-1.568v-3.854h-2.286L345.754 35h-1.715l2.287-3.994a2.508 2.508 0 0 1-.223-.09 4.9 4.9 0 0 1-.474-.314 3.6 3.6 0 0 1-.607-.544c-.176-.2-.337-.476-.481-.83a3.05 3.05 0 0 1-.216-1.15c0-.863.305-1.59.913-2.18.614-.596 1.38-.893 2.3-.893h4.21Zm-5.381 1.903c-.311.311-.467.702-.467 1.17 0 .466.156.856.467 1.172.316.311.707.467 1.171.467h2.642v-3.283h-2.642c-.464 0-.855.158-1.171.474Z"/><path fill="#6E708C" d="M190.841 25.005h.357v-.357h-.357v.357Zm0 9.995v.357h.357V35h-.357Zm-1.569 0h-.356v.357h.356V35Zm0-8.566h.357v-.357h-.357v.357Zm-4.927 0v-.357h-.357v.357h.357Zm0 8.566v.357h.357V35h-.357Zm-1.569 0h-.356v.357h.356V35Zm0-9.995v-.357h-.356v.357h.356Zm7.708 0V35h.714v-9.995h-.714Zm.357 9.638h-1.569v.714h1.569v-.714Zm-1.212.357v-8.566h-.713V35h.713Zm-.357-8.923h-4.927v.714h4.927v-.714Zm-5.284.357V35h.714v-8.566h-.714Zm.357 8.21h-1.569v.713h1.569v-.714Zm-1.212.356v-9.995h-.713V35h.713Zm-.357-9.638h8.065v-.714h-8.065v.714Zm10.915-.357v-.357h-.356v.357h.356Zm6.385.941-.25.255.002.002.248-.257Zm0 4.551-.248-.256h-.001l.249.256Zm-4.816.934v-.357h-.357v.357h.357Zm0 3.569v.357h.356V35h-.356Zm-1.569 0h-.356v.357h.356V35Zm1.569-8.566v-.357h-.357v.357h.357Zm0 3.569h-.357v.356h.357v-.356Zm3.687-.51.249.257.001-.002-.25-.254Zm-5.256-4.131h3.994v-.714h-3.994v.714Zm3.994 0c.866 0 1.571.281 2.141.84l.499-.511c-.712-.697-1.6-1.043-2.64-1.043v.714Zm2.143.841a2.69 2.69 0 0 1 .86 2.022h.714c0-.994-.363-1.846-1.078-2.536l-.496.514Zm.86 2.022a2.68 2.68 0 0 1-.86 2.015l.496.514a3.394 3.394 0 0 0 1.078-2.529h-.714Zm-.861 2.016c-.57.554-1.275.834-2.142.834v.713c1.039 0 1.927-.343 2.639-1.035l-.497-.512Zm-2.142.834h-2.425v.713h2.425v-.713Zm-2.782.356V35h.713v-3.569h-.713Zm.357 3.212h-1.569v.714h1.569v-.714Zm-1.212.357v-9.995h-.713V35h.713Zm3.637-8.923h-2.425v.714h2.425v-.714Zm-2.782.357v3.569h.713v-3.569h-.713Zm.357 3.925h2.425v-.713h-2.425v.713Zm2.425 0a2.1 2.1 0 0 0 1.511-.61l-.498-.511a1.387 1.387 0 0 1-1.013.408v.713Zm1.512-.611c.419-.413.629-.928.629-1.523h-.713c0 .41-.138.74-.417 1.015l.501.508Zm.629-1.523c0-.598-.21-1.116-.629-1.53l-.501.509c.278.274.417.607.417 1.021h.713Zm-.629-1.53a2.085 2.085 0 0 0-1.512-.618v.714c.4 0 .73.135 1.011.413l.501-.508Zm6.197.68-.252-.252.252.252Zm0 5.262-.253.252h.001l.252-.252Zm5.269 0-.252-.252h-.001l.253.252Zm0-5.262-.253.251.002.002.251-.253Zm-5.521-.252c-.785.784-1.178 1.751-1.178 2.88h.713c0-.945.322-1.729.969-2.376l-.504-.504Zm-1.178 2.88c0 1.128.393 2.097 1.177 2.886l.506-.503c-.648-.652-.97-1.44-.97-2.383h-.713Zm1.178 2.886c.788.789 1.758 1.185 2.887 1.185v-.713c-.944 0-1.731-.324-2.383-.976l-.504.505Zm2.887 1.185c1.133 0 2.103-.396 2.887-1.185l-.506-.503c-.647.65-1.433.975-2.381.975v.713Zm2.886-1.184c.789-.789 1.185-1.758 1.185-2.887h-.713c0 .943-.324 1.73-.976 2.382l.504.505Zm1.185-2.887c0-1.13-.396-2.097-1.185-2.881l-.503.506c.651.647.975 1.431.975 2.375h.713Zm-1.184-2.88c-.784-.79-1.754-1.185-2.887-1.185v.713c.948 0 1.734.325 2.381.975l.506-.503Zm-2.887-1.185c-1.129 0-2.099.396-2.887 1.185l.504.504c.652-.652 1.439-.976 2.383-.976v-.713Zm-3.507 7.455c-.944-.926-1.413-2.05-1.413-3.39h-.714c0 1.53.545 2.837 1.627 3.9l.5-.51Zm-1.413-3.39c0-1.342.469-2.465 1.413-3.391l-.5-.51c-1.082 1.063-1.627 2.37-1.627 3.9h.714Zm1.413-3.391c.942-.925 2.103-1.39 3.507-1.39v-.713c-1.58 0-2.924.53-4.007 1.594l.5.509Zm3.507-1.39c1.408 0 2.571.465 3.513 1.39l.5-.51c-1.083-1.063-2.429-1.593-4.013-1.593v.714Zm3.513 1.39c.944.926 1.413 2.05 1.413 3.39h.714c0-1.53-.545-2.837-1.627-3.9l-.5.51Zm1.413 3.39c0 1.342-.469 2.465-1.413 3.391l.5.51c1.082-1.063 1.627-2.37 1.627-3.9h-.714Zm-1.413 3.391c-.942.925-2.105 1.39-3.513 1.39v.713c1.584 0 2.93-.53 4.013-1.593l-.5-.51Zm-3.513 1.39c-1.404 0-2.565-.465-3.507-1.39l-.5.51c1.083 1.063 2.427 1.593 4.007 1.593v-.714Zm7.576.217h-.357v.357h.357V35Zm0-9.995v-.357h-.357v.357h.357Zm6.419 0h.357v-.357h-.357v.357Zm0 1.429v.357h.357v-.357h-.357Zm-4.851 0v-.357h-.357v.357h.357Zm0 8.566v.357h.357V35h-.357Zm-1.211 0v-9.995h-.714V35h.714Zm-.357-9.638h6.419v-.714h-6.419v.714Zm6.062-.357v1.429h.714v-1.429h-.714Zm.357 1.072h-4.851v.714h4.851v-.714Zm-5.208.357V35h.714v-8.566h-.714Zm.357 8.21h-1.568v.713h1.568v-.714Zm6.419-9.639v-.357h-.357v.357h.357Zm6.385.941-.25.255.002.002.248-.257Zm0 4.551-.248-.256h-.001l.249.256Zm-4.816.934v-.357h-.357v.357h.357Zm0 3.569v.357h.356V35h-.356Zm-1.569 0h-.357v.357h.357V35Zm1.569-8.566v-.357h-.357v.357h.357Zm0 3.569h-.357v.356h.357v-.356Zm3.687-.51.249.257.001-.002-.25-.254Zm-5.256-4.131h3.994v-.714h-3.994v.714Zm3.994 0c.866 0 1.571.281 2.141.84l.499-.511c-.712-.697-1.6-1.043-2.64-1.043v.714Zm2.143.841a2.69 2.69 0 0 1 .86 2.022h.713a3.4 3.4 0 0 0-1.078-2.536l-.495.514Zm.86 2.022a2.68 2.68 0 0 1-.86 2.015l.495.514a3.39 3.39 0 0 0 1.078-2.529h-.713Zm-.861 2.016c-.57.554-1.275.834-2.142.834v.713c1.039 0 1.927-.343 2.639-1.035l-.497-.512Zm-2.142.834h-2.425v.713h2.425v-.713Zm-2.782.356V35h.713v-3.569h-.713Zm.357 3.212h-1.569v.714h1.569v-.714Zm-1.212.357v-9.995h-.714V35h.714Zm3.637-8.923h-2.425v.714h2.425v-.714Zm-2.782.357v3.569h.713v-3.569h-.713Zm.357 3.925h2.425v-.713h-2.425v.713Zm2.425 0c.584 0 1.094-.205 1.511-.61l-.498-.511a1.387 1.387 0 0 1-1.013.408v.713Zm1.512-.611c.419-.413.629-.928.629-1.523h-.713c0 .41-.138.74-.417 1.015l.501.508Zm.629-1.523c0-.598-.21-1.116-.629-1.53l-.501.509c.278.274.417.607.417 1.021h.713Zm-.629-1.53a2.085 2.085 0 0 0-1.512-.618v.714c.399 0 .73.135 1.011.413l.501-.508ZM231.217 35l-.329-.137-.205.494h.534V35Zm4.141-9.995v-.357h-.239l-.091.22.33.137Zm1.568 0 .329-.136-.091-.22h-.238v.356Zm4.14 9.995v.357h.534l-.204-.494-.33.137Zm-1.638 0-.331.134.091.223h.24V35Zm-1.073-2.642.33-.134-.09-.222h-.24v.356Zm-4.426 0v-.356h-.24l-.091.222.331.134ZM232.855 35v.357h.241l.09-.223-.331-.134Zm3.29-8.21.332-.132-.331-.837-.332.837.331.131Zm-1.645 4.14-.331-.132-.195.488h.526v-.356Zm3.283 0v.356h.525l-.193-.488-.332.132Zm-6.236 4.207 4.14-9.995-.659-.273-4.14 9.994.659.274Zm3.811-9.775h1.568v-.714h-1.568v.714Zm1.238-.22 4.14 9.995.66-.274-4.141-9.994-.659.273Zm4.47 9.501h-1.638v.714h1.638v-.714Zm-1.307.223-1.074-2.642-.661.269 1.073 2.641.662-.268Zm-1.404-2.864h-4.426v.713h4.426v-.714Zm-4.757.222-1.073 2.642.661.268 1.073-2.641-.661-.269Zm-.743 2.42h-1.638v.713h1.638v-.714Zm2.959-7.986-1.645 4.14.663.263 1.645-4.14-.663-.263Zm-1.314 4.628h3.283v-.713H234.5v.713Zm3.615-.488-1.638-4.14-.664.263 1.638 4.14.664-.263Zm9.879-.935-.28.222.28.352.28-.352-.28-.222Zm3.854-4.858v-.357h-.172l-.107.135.279.222Zm1.36 0h.356v-.357h-.356v.357Zm0 9.995v.357h.356V35h-.356Zm-1.569 0h-.357v.357h.357V35Zm0-7.277h.357v-1.018l-.636.796.279.222Zm-3.645 4.566-.279.222.279.35.279-.35-.279-.222Zm-3.638-4.566.279-.222-.636-.798v1.02h.357Zm0 7.277v.357h.357V35h-.357Zm-1.569 0h-.356v.357h.356V35Zm0-9.995v-.357h-.356v.357h.356Zm1.353 0 .279-.222-.107-.135h-.172v.357Zm4.134 5.08 3.854-4.858-.559-.444-3.855 4.858.56.444Zm3.574-4.723h1.36v-.714h-1.36v.714Zm1.003-.357V35h.713v-9.995h-.713Zm.357 9.638h-1.569v.714h1.569v-.714Zm-1.212.357v-7.277h-.714V35h.714Zm-.636-7.5-3.645 4.566.558.445 3.645-4.565-.558-.445Zm-3.087 4.566-3.638-4.565-.558.445 3.638 4.565.558-.445Zm-4.274-4.343V35h.714v-7.277h-.714Zm.357 6.92h-1.569v.714h1.569v-.714Zm-1.212.357v-9.995h-.713V35h.713Zm-.357-9.638h1.353v-.714h-1.353v.714Zm1.073-.135 3.854 4.858.56-.444-3.855-4.858-.559.444Zm17.405 4.636-.28.222.28.352.279-.352-.279-.222Zm3.854-4.858v-.357h-.172l-.107.135.279.222Zm1.359 0h.357v-.357h-.357v.357Zm0 9.995v.357h.357V35h-.357Zm-1.568 0h-.357v.357h.357V35Zm0-7.277h.357v-1.018l-.636.796.279.222Zm-3.645 4.566-.279.222.278.35.28-.35-.279-.222Zm-3.639-4.566.28-.222-.636-.798v1.02h.356Zm0 7.277v.357h.357V35h-.357Zm-1.568 0h-.357v.357h.357V35Zm0-9.995v-.357h-.357v.357h.357Zm1.352 0 .28-.222-.107-.135h-.173v.357Zm4.134 5.08 3.855-4.858-.559-.444-3.855 4.858.559.444Zm3.575-4.723h1.359v-.714h-1.359v.714Zm1.002-.357V35h.714v-9.995h-.714Zm.357 9.638h-1.568v.714h1.568v-.714Zm-1.211.357v-7.277h-.714V35h.714Zm-.636-7.5-3.645 4.566.558.445 3.645-4.565-.558-.445Zm-3.087 4.566-3.638-4.565-.559.445 3.639 4.565.558-.445Zm-4.274-4.343V35h.713v-7.277h-.713Zm.356 6.92h-1.568v.714h1.568v-.714Zm-1.211.357v-9.995h-.714V35h.714Zm-.357-9.638h1.352v-.714h-1.352v.714Zm1.073-.135 3.854 4.858.559-.444-3.854-4.858-.559.444ZM277.818 35v.357h.357V35h-.357Zm-1.568 0h-.357v.357h.357V35Zm0-7.207h.357v-1.045l-.639.827.282.218ZM270.681 35v.357h.175l.107-.139-.282-.218Zm-1.352 0h-.357v.357h.357V35Zm0-9.995v-.357h-.357v.357h.357Zm1.568 0h.357v-.357h-.357v.357Zm0 7.214h-.357v1.046l.64-.828-.283-.218Zm5.569-7.214v-.357h-.175l-.107.14.282.217Zm1.352 0h.357v-.357h-.357v.357Zm0 9.638h-1.568v.714h1.568v-.714Zm-1.211.357v-7.207h-.714V35h.714Zm-.639-7.425-5.569 7.207.564.436 5.569-7.207-.564-.436Zm-5.287 7.068h-1.352v.714h1.352v-.714Zm-.995.357v-9.995h-.714V35h.714Zm-.357-9.638h1.568v-.714h-1.568v.714Zm1.211-.357v7.214h.714v-7.214h-.714Zm.64 7.432 5.569-7.214-.565-.436-5.569 7.214.565.436Zm5.286-7.075h1.352v-.714h-1.352v.714Zm.995-.357V35h.714v-9.995h-.714Zm3.215 0v-.357h-.357v.357h.357Zm6.384.941-.249.255.002.002.247-.257Zm0 4.551-.247-.256h-.001l.248.256Zm-4.816.934v-.357h-.357v.357h.357Zm0 3.569v.357h.357V35h-.357Zm-1.568 0h-.357v.357h.357V35Zm1.568-8.566v-.357h-.357v.357h.357Zm0 3.569h-.357v.356h.357v-.356Zm3.687-.51.249.257.002-.002-.251-.254Zm-5.255-4.131h3.994v-.714h-3.994v.714Zm3.994 0c.865 0 1.571.281 2.141.84l.499-.511c-.712-.697-1.601-1.043-2.64-1.043v.714Zm2.143.841c.576.555.859 1.222.859 2.022h.714a3.4 3.4 0 0 0-1.078-2.536l-.495.514Zm.859 2.022c0 .795-.283 1.46-.859 2.015l.495.514a3.394 3.394 0 0 0 1.078-2.529h-.714Zm-.86 2.016c-.57.554-1.276.834-2.142.834v.713c1.038 0 1.927-.343 2.639-1.035l-.497-.512Zm-2.142.834h-2.426v.713h2.426v-.713Zm-2.783.356V35h.714v-3.569h-.714Zm.357 3.212h-1.568v.714h1.568v-.714Zm-1.211.357v-9.995h-.714V35h.714Zm3.637-8.923h-2.426v.714h2.426v-.714Zm-2.783.357v3.569h.714v-3.569h-.714Zm.357 3.925h2.426v-.713h-2.426v.713Zm2.426 0c.584 0 1.094-.205 1.51-.61l-.498-.511a1.385 1.385 0 0 1-1.012.408v.713Zm1.512-.611a2.07 2.07 0 0 0 .629-1.523h-.714c0 .41-.138.74-.416 1.015l.501.508Zm.629-1.523c0-.598-.21-1.116-.629-1.53l-.501.509c.278.274.416.607.416 1.021h.714Zm-.629-1.53a2.088 2.088 0 0 0-1.512-.618v.714c.399 0 .729.135 1.011.413l.501-.508Zm6.196.68-.252-.252.252.252Zm0 5.262-.253.252h.001l.252-.252Zm5.27 0-.253-.252.253.252Zm0-5.262-.253.251.001.002.252-.253Zm-5.522-.252c-.784.784-1.178 1.751-1.178 2.88h.714c0-.945.322-1.729.969-2.376l-.505-.504Zm-1.178 2.88c0 1.128.394 2.097 1.177 2.886l.507-.503c-.648-.652-.97-1.44-.97-2.383h-.714Zm1.178 2.886c.789.789 1.758 1.185 2.887 1.185v-.713c-.943 0-1.73-.324-2.382-.976l-.505.505Zm2.887 1.185c1.133 0 2.103-.396 2.888-1.185l-.506-.503c-.647.65-1.433.975-2.382.975v.713Zm2.887-1.184c.788-.789 1.185-1.758 1.185-2.887h-.714c0 .943-.324 1.73-.976 2.382l.505.505Zm1.185-2.887c0-1.13-.397-2.097-1.186-2.881l-.503.506c.651.647.975 1.431.975 2.375h.714Zm-1.184-2.88c-.785-.79-1.755-1.185-2.888-1.185v.713c.949 0 1.735.325 2.382.975l.506-.503Zm-2.888-1.185c-1.129 0-2.098.396-2.887 1.185l.505.504c.652-.652 1.439-.976 2.382-.976v-.713Zm-3.507 7.455c-.943-.926-1.412-2.05-1.412-3.39h-.714c0 1.53.544 2.837 1.626 3.9l.5-.51Zm-1.412-3.39c0-1.342.469-2.465 1.412-3.391l-.5-.51c-1.082 1.063-1.626 2.37-1.626 3.9h.714Zm1.412-3.391c.943-.925 2.104-1.39 3.507-1.39v-.713c-1.58 0-2.923.53-4.007 1.594l.5.509Zm3.507-1.39c1.408 0 2.572.465 3.514 1.39l.5-.51c-1.084-1.063-2.43-1.593-4.014-1.593v.714Zm3.514 1.39c.944.926 1.412 2.05 1.412 3.39h.714c0-1.53-.544-2.837-1.626-3.9l-.5.51Zm1.412 3.39c0 1.342-.468 2.465-1.412 3.391l.5.51c1.082-1.063 1.626-2.37 1.626-3.9h-.714Zm-1.412 3.391c-.942.925-2.106 1.39-3.514 1.39v.713c1.584 0 2.93-.53 4.014-1.593l-.5-.51Zm-3.514 1.39c-1.403 0-2.564-.465-3.507-1.39l-.5.51c1.084 1.063 2.427 1.593 4.007 1.593v-.714Zm7.576.217h-.356v.357h.356V35Zm0-9.995v-.357h-.356v.357h.356Zm6.74 3.743-.319-.16-.002.004.321.156Zm-.488.697.221.28.002-.001-.223-.279Zm-.257.202-.221-.28-.443.347.504.252.16-.319Zm.153.098-.208.29.012.008.012.008.184-.306Zm.369.285-.23.273.005.004.225-.277Zm.453.481-.291.207.004.005.287-.212Zm.356.69-.334.126.002.007.332-.133Zm-5.757 2.44h-.357v.357h.357v-.357Zm3.882-.467.25.254.002-.002-.252-.252Zm0-2.342-.254.25.002.002.252-.252Zm-3.882-.474v-.357h-.357v.357h.357Zm0-3.994v-.357h-.357v.357h.357Zm0 2.712h-.357v.356h.357v-.356Zm3.464-2.321-.255.25.005.004.25-.254Zm-.753 7.888h-4.28v.714h4.28v-.714Zm-3.923.357v-9.995h-.713V35h.713Zm-.357-9.638h4.064v-.714h-4.064v.714Zm4.064 0c.721 0 1.323.235 1.826.705l.488-.521c-.64-.598-1.418-.898-2.314-.898v.714Zm1.826.705c.51.477.744 1 .744 1.58h.714c0-.805-.337-1.509-.97-2.101l-.488.521Zm.744 1.58c0 .348-.072.66-.213.941l.638.32c.194-.388.289-.81.289-1.261h-.714Zm-.215.945c-.155.319-.289.494-.39.574l.446.558c.225-.18.416-.47.586-.82l-.642-.312Zm-.387.572-.258.202.441.562.258-.202-.441-.562Zm-.197.802a.954.954 0 0 1 .105.07l.415-.582a1.57 1.57 0 0 0-.201-.126l-.319.638Zm.129.085c.042.025.144.101.323.252l.46-.546a3.817 3.817 0 0 0-.416-.318l-.367.612Zm.328.256c.153.125.281.262.387.411l.582-.413a2.817 2.817 0 0 0-.518-.551l-.451.553Zm.391.416c.105.142.209.34.309.604l.668-.252a3.263 3.263 0 0 0-.402-.775l-.575.423Zm.311.61c.095.237.142.483.142.74h.714c0-.348-.064-.683-.193-1.004l-.663.265Zm.142.74c0 .695-.261 1.29-.807 1.803l.488.52c.681-.64 1.033-1.42 1.033-2.323h-.714Zm-.807 1.803c-.541.508-1.216.767-2.049.767v.714c.997 0 1.852-.317 2.537-.961l-.488-.52Zm-4.76.122h2.711v-.714h-2.711v.714Zm2.711 0c.553 0 1.035-.19 1.421-.57l-.501-.508a1.245 1.245 0 0 1-.92.364v.714Zm1.423-.572c.386-.386.579-.868.579-1.423h-.714c0 .374-.123.672-.369.919l.504.504Zm.579-1.423c0-.555-.193-1.038-.579-1.423l-.504.504c.246.247.369.545.369.919h.714Zm-.577-1.422c-.383-.388-.866-.58-1.425-.58v.714c.38 0 .677.124.917.367l.508-.5Zm-1.425-.58h-2.711v.714h2.711V30Zm-3.068.357v3.283h.713v-3.283h-.713Zm2.852-4.35h-2.495v.713h2.495v-.714Zm-2.852.356v2.712h.713v-2.712h-.713Zm.357 3.068h2.495v-.713h-2.495v.713Zm2.495 0c.476 0 .893-.16 1.221-.487l-.505-.505c-.183.183-.412.279-.716.279v.713Zm1.221-.487a1.67 1.67 0 0 0 .495-1.222h-.714a.959.959 0 0 1-.286.717l.505.505Zm.495-1.222a1.66 1.66 0 0 0-.497-1.223l-.5.51a.947.947 0 0 1 .283.713h.714Zm-.493-1.218a1.656 1.656 0 0 0-1.223-.498v.714c.302 0 .531.097.714.284l.509-.5ZM310.925 35l-.329-.137-.205.494h.534V35Zm4.141-9.995v-.357h-.239l-.091.22.33.137Zm1.568 0 .329-.136-.091-.22h-.238v.356Zm4.14 9.995v.357h.534l-.204-.494-.33.137Zm-1.638 0-.331.134.091.223h.24V35Zm-1.073-2.642.33-.134-.09-.222h-.24v.356Zm-4.426 0v-.356h-.24l-.091.222.331.134ZM312.563 35v.357h.241l.09-.223-.331-.134Zm3.29-8.21.332-.132-.331-.837-.333.837.332.131Zm-1.645 4.14-.331-.132-.195.488h.526v-.356Zm3.283 0v.356h.525l-.193-.488-.332.132Zm-6.236 4.207 4.14-9.995-.659-.273-4.14 9.994.659.274Zm3.811-9.775h1.568v-.714h-1.568v.714Zm1.238-.22 4.14 9.995.66-.274-4.141-9.994-.659.273Zm4.47 9.501h-1.638v.714h1.638v-.714Zm-1.307.223-1.074-2.642-.661.269 1.073 2.641.662-.268Zm-1.404-2.864h-4.426v.713h4.426v-.714Zm-4.757.222-1.073 2.642.661.268 1.073-2.641-.661-.269Zm-.743 2.42h-1.638v.713h1.638v-.714Zm2.958-7.986-1.644 4.14.663.263 1.645-4.14-.664-.263Zm-1.313 4.628h3.283v-.713h-3.283v.713Zm3.615-.488-1.638-4.14-.664.263 1.638 4.14.664-.263Zm12.737-5.793h.357v-.357h-.357v.357Zm0 9.995v.357h.357V35h-.357Zm-1.569 0h-.356v.357h.356V35Zm0-4.356h.357v-.357h-.357v.357Zm-4.927 0v-.357h-.357v.357h.357Zm0 4.356v.357h.357V35h-.357Zm-1.569 0h-.356v.357h.356V35Zm0-9.995v-.357h-.356v.357h.356Zm1.569 0h.357v-.357h-.357v.357Zm0 4.217h-.357v.357h.357v-.357Zm4.927 0v.357h.357v-.357h-.357Zm0-4.217v-.357h-.356v.357h.356Zm1.212 0V35h.714v-9.995h-.714Zm.357 9.638h-1.569v.714h1.569v-.714Zm-1.212.357v-4.356h-.713V35h.713Zm-.357-4.713h-4.927V31h4.927v-.714Zm-5.284.357V35h.714v-4.356h-.714Zm.357 4h-1.569v.713h1.569v-.714Zm-1.212.356v-9.995h-.713V35h.713Zm-.357-9.638h1.569v-.714h-1.569v.714Zm1.212-.357v4.217h.714v-4.217h-.714Zm.357 4.574h4.927v-.714h-4.927v.714Zm5.284-.357v-4.217h-.713v4.217h.713Zm-.357-3.86h1.569v-.714h-1.569v.714ZM341.9 35v.357h.357V35h-.357Zm-1.569 0h-.356v.357h.356V35Zm0-7.207h.357v-1.045l-.639.827.282.218ZM334.763 35v.357h.175l.107-.139-.282-.218Zm-1.353 0h-.356v.357h.356V35Zm0-9.995v-.357h-.356v.357h.356Zm1.569 0h.356v-.357h-.356v.357Zm0 7.214h-.357v1.046l.639-.828-.282-.218Zm5.569-7.214v-.357h-.176l-.107.14.283.217Zm1.352 0h.357v-.357h-.357v.357Zm0 9.638h-1.569v.714h1.569v-.714Zm-1.212.357v-7.207h-.713V35h.713Zm-.639-7.425-5.569 7.207.565.436 5.569-7.207-.565-.436Zm-5.286 7.068h-1.353v.714h1.353v-.714Zm-.996.357v-9.995h-.713V35h.713Zm-.357-9.638h1.569v-.714h-1.569v.714Zm1.212-.357v7.214h.713v-7.214h-.713Zm.639 7.432 5.569-7.214-.565-.436-5.569 7.214.565.436Zm5.287-7.075h1.352v-.714h-1.352v.714Zm.995-.357V35h.714v-9.995h-.714Zm10.205 0h.357v-.357h-.357v.357Zm0 9.995v.357h.357V35h-.357Zm-1.568 0h-.357v.357h.357V35Zm0-3.854h.357v-.357h-.357v.357Zm-2.286 0v-.357h-.21l-.102.183.312.174ZM345.754 35v.357h.21l.102-.184-.312-.173Zm-1.714 0-.31-.177-.306.534h.616V35Zm2.286-3.994.309.177.217-.378-.414-.137-.112.338Zm-.223-.09-.167.315.01.005.01.005.147-.325Zm-1.562-1.687-.331.133.001.002.33-.135Zm.697-3.332.249.257-.249-.257Zm1.129 1.01-.252-.251.252.252Zm0 2.343-.254.25.004.004.25-.254Zm3.813.467v.357h.357v-.357h-.357Zm0-3.283h.357v-.357h-.357v.357Zm1.211-1.429V35h.714v-9.995h-.714Zm.357 9.638h-1.568v.714h1.568v-.714Zm-1.211.357v-3.854h-.714V35h.714Zm-.357-4.211h-2.286v.713h2.286v-.713Zm-2.598.183-2.14 3.855.624.346 2.14-3.854-.624-.347Zm-1.828 3.671h-1.714v.714h1.714v-.714Zm-1.405.534 2.286-3.994-.619-.354-2.286 3.994.619.354Zm2.089-4.51a2.25 2.25 0 0 1-.189-.077l-.293.651c.097.044.184.08.257.104l.225-.677Zm-.169-.067a4.821 4.821 0 0 1-.433-.288l-.415.58c.226.161.402.28.515.34l.333-.632Zm-.433-.288a3.19 3.19 0 0 1-.546-.49l-.535.473c.195.22.418.42.666.597l.415-.58Zm-.546-.49c-.142-.16-.283-.397-.418-.728l-.661.27c.153.375.332.69.544.93l.535-.472Zm-.418-.726a2.693 2.693 0 0 1-.19-1.017h-.714c0 .452.08.88.242 1.283l.662-.266Zm-.19-1.017c0-.77.267-1.404.805-1.925l-.497-.513c-.68.659-1.022 1.48-1.022 2.438h.714Zm.805-1.925c.541-.526 1.216-.792 2.051-.792v-.714c-1.005 0-1.863.329-2.548.993l.497.513Zm2.051-.792h4.21v-.714h-4.21v.714Zm-1.423 1.294c-.383.383-.571.866-.571 1.423h.713c0-.382.123-.68.363-.919l-.505-.504Zm-.571 1.423c0 .553.189 1.035.569 1.421l.509-.5a1.248 1.248 0 0 1-.365-.921h-.713Zm.573 1.425c.386.38.868.57 1.421.57v-.714c-.375 0-.674-.122-.92-.364l-.501.508Zm1.421.57h2.642v-.714h-2.642v.714Zm2.999-.357v-3.283h-.714v3.283h.714Zm-.357-3.64h-2.642v.714h2.642v-.714Zm-2.642 0c-.555 0-1.037.193-1.423.579l.505.504c.246-.246.544-.37.918-.37v-.713Z"/></svg>