<svg width="29" height="29" fill="none" xmlns="http://www.w3.org/2000/svg"><circle cx="14.694" cy="14.289" r="14" fill="#C0C0C1"/><path d="M13.591 8.3c.114.275.432.459.795.459h1.228c.363 0 .681-.184.795-.46l.25-.642c.227-.55-.273-1.12-1-1.12H15.5v-.018c.045-.11 0-.239-.09-.312l-.137-.11a.434.434 0 0 0-.546 0l-.136.11c-.114.091-.136.202-.091.312v.018h-.159c-.727 0-1.227.57-1 1.12l.25.643z" fill="#FEFEFE"/><path d="M22.677 8.411a.329.329 0 0 0-.082-.143.234.234 0 0 0-.165-.061c-.062 0-.123 0-.165.04a.348.348 0 0 0-.123.123c-.185.327-.535.92-.864 1.39-.966 1.39-1.954 2.37-3.352 2.411-.165 0-.33-.04-.473-.102a1.11 1.11 0 0 1-.638-1.185c0-.225.082-.43.185-.613.123-.184.288-.327.494-.43.288-.142.678-.163.987-.102.164.02.33.082.473.164.144.082.226.061.247-.123.02-.429-.062-1-.453-1.267-.493-.347-1.275-.102-1.768.164-.515.266-.947.674-1.317 1.124-.247.306-.494.633-.658 1.001a6.485 6.485 0 0 0-.658-1.001c-.37-.45-.802-.858-1.316-1.124-.474-.266-1.255-.511-1.77-.164-.39.266-.472.838-.452 1.267.02.164.103.205.247.123.144-.082.309-.143.473-.164.33-.06.7-.04.987.103.206.102.37.245.494.429.123.184.185.408.185.613.062.49-.206.98-.638 1.185a1.226 1.226 0 0 1-.473.102c-1.398-.04-2.386-1.022-3.352-2.411-.33-.47-.679-1.063-.864-1.39a.185.185 0 0 0-.123-.122.39.39 0 0 0-.165-.041c-.062 0-.103.02-.165.061-.04.041-.082.082-.082.143a9.969 9.969 0 0 0-.185 4.271c.185 1.103.843 2.8 1.954 3.372 1.11.572 2.036.143 2.674-.184.37-.205.617-.307.823-.266.143.02.205.184.102.307l-.822 1.021c-.227.245-.288.573-.227.879l-1.13 1.001-.248-.225c.083-.163.124-.367.124-.551a.411.411 0 0 0-.823 0c0 .265-.226.47-.473.47a.411.411 0 0 0-.411.408c0 .225.185.41.411.41.226 0 .432-.062.617-.144l.555.49.988.88c.164.142.432.142.576-.042.144-.163.144-.429-.042-.572l-.637-.572.987-.879c.144.082.33.123.514.082.535-.061 1.07-.327 1.543-.593.267.859-.864 1.553-1.399 2.044-.205.204-.555.51-.308.817.144.184.432.245.637.307.103.02.206.04.309.082a3.43 3.43 0 0 1 1.213.551c.083.062.144.102.206.164.041.04.103.061.165.061.061 0 .123-.02.164-.061.062-.041.123-.102.206-.164a2.86 2.86 0 0 1 1.213-.551c.103-.02.206-.041.309-.082.226-.061.493-.123.637-.307.247-.306-.102-.633-.308-.817-.514-.49-1.666-1.185-1.399-2.044.473.266 1.008.511 1.543.593.185.02.35 0 .494-.082l.966.859c0 .04-.02.102-.02.143 0 .715.576 1.287 1.295 1.287a1.286 1.286 0 1 0 0-2.575c-.37 0-.699.143-.925.388l-.823-.735c.062-.307 0-.634-.226-.9l-.823-1.021c-.082-.102-.02-.286.103-.306.206-.041.453.081.823.265.637.327 1.563.777 2.674.184 1.11-.572 1.748-2.268 1.954-3.372.205-1.43.143-2.88-.206-4.29zm-3.003 10.892a.489.489 0 0 1 .452-.327c.268 0 .473.225.473.47 0 .265-.226.47-.473.47a.477.477 0 0 1-.473-.47c0-.041 0-.103.02-.143z" fill="#FEFEFE"/><path d="M19.674 19.303a.489.489 0 0 1 .452-.327c.268 0 .473.225.473.47 0 .265-.226.47-.473.47a.477.477 0 0 1-.473-.47c0-.041 0-.103.02-.143z" fill="#FEFEFE"/></svg>