<svg width="29" height="29" fill="none" xmlns="http://www.w3.org/2000/svg"><circle cx="14.694" cy="14.289" r="14" fill="#C0C0C1"/><path fill-rule="evenodd" clip-rule="evenodd" d="M8.51 20.49c.34.34.754.51 1.242.51h9.485c.49 0 .907-.17 1.25-.51.342-.34.513-.754.513-1.242V9.763c0-.49-.171-.907-.514-1.25A1.701 1.701 0 0 0 19.236 8H9.753c-.488 0-.902.171-1.242.514-.34.342-.51.758-.51 1.25v9.484c0 .488.17.902.51 1.242zm8.392-8.347-2.973 2.784-1.085-1.008a1.066 1.066 0 0 0-.797-.334c-.316 0-.584.108-.803.324-.22.216-.327.467-.322.755a.904.904 0 0 0 .34.71l1.873 1.796c.208.204.47.307.787.307.316 0 .583-.103.802-.307l3.738-3.518a.983.983 0 0 0 .348-.759.965.965 0 0 0-.345-.751 1.207 1.207 0 0 0-.792-.286c-.298 0-.555.096-.771.287z" fill="#fff"/></svg>