<svg width="29" height="29" fill="none" xmlns="http://www.w3.org/2000/svg"><circle cx="14.694" cy="14.289" r="14" fill="#C0C0C1"/><path d="M14.5 7a7.5 7.5 0 1 0 6.495 3.75A7.468 7.468 0 0 0 14.501 7zm4.871 4.688c.233.404.416.835.542 1.284.057.199-.03.409-.219.494-.309.14-.759.29-1.34.423a.496.496 0 0 1-.597-.474 18.383 18.383 0 0 0-.453-3.342c-.047-.188.15-.347.311-.24a5.626 5.626 0 0 1 1.756 1.854zm-9.74 5.624a5.625 5.625 0 0 1-.514-1.162c-.113-.362.246-.665.61-.563.371.103.747.188 1.126.255a.526.526 0 0 1 .434.477c.066.88.2 1.754.401 2.613.046.187-.15.346-.31.239a5.625 5.625 0 0 1-1.748-1.858zm2.057-7.244c-.253 1.1-.405 2.22-.453 3.346a.496.496 0 0 1-.594.474c-.626-.14-1.097-.3-1.41-.454a.338.338 0 0 1-.17-.396 5.588 5.588 0 0 1 2.627-3.408c.054-.03.115.022.098.08a6.835 6.835 0 0 0-.098.358zm2.813 10.057c-.584 0-1.082-1.428-1.296-3.459a.498.498 0 0 1 .522-.543c.377.015.653.018.774.018.12 0 .395 0 .77-.015a.5.5 0 0 1 .525.544c-.215 2.029-.712 3.455-1.295 3.455zm0-5.86c-.324 0-.634-.006-.932-.019a.484.484 0 0 1-.464-.5c.094-2.75.684-4.871 1.396-4.871.712 0 1.302 2.121 1.395 4.87a.484.484 0 0 1-.464.501c-.298.013-.608.02-.931.02zm5.432 1.69a5.587 5.587 0 0 1-2.62 3.415.069.069 0 0 1-.098-.08 6.93 6.93 0 0 0 .098-.358c.202-.86.336-1.732.401-2.612a.526.526 0 0 1 .435-.477 11.7 11.7 0 0 0 1.316-.308c.273-.08.542.146.468.42z" fill="#FEFEFE"/></svg>