<svg width="29" height="29" fill="none" xmlns="http://www.w3.org/2000/svg"><circle cx="14.694" cy="14.289" r="14" fill="#C0C0C1"/><path d="m17.907 20.684-3.32-.572-.938-.219.318-1.842a.95.95 0 0 0-.785-1.112.95.95 0 0 0-1.113.785l-.245 1.423a.48.48 0 0 1-.556.392l-3.794-.654a.48.48 0 0 1-.392-.556l.49-2.845a.48.48 0 0 1 .556-.393l.949.164c1.005.143 1.654-1.504.327-1.897l-.949-.163a.48.48 0 0 1-.392-.556l.572-3.32a.48.48 0 0 1 .556-.392l4.268.736.164-.949a1.931 1.931 0 0 1 2.223-1.57c.201.036.664.17.904.422a1.93 1.93 0 0 1 .666 1.803l-.164.949 2.372.409a.48.48 0 0 1 .392.555l-.572 3.32.949.163a1.931 1.931 0 0 1 1.57 2.224 1.931 1.931 0 0 1-2.224 1.57l-.95-.164-.326 1.897a.48.48 0 0 1-.556.392z" fill="#FDFCFC"/></svg>