<svg width="29" height="29" fill="none" xmlns="http://www.w3.org/2000/svg"><circle cx="14.694" cy="14.289" r="14" fill="#C0C0C1"/><path fill-rule="evenodd" clip-rule="evenodd" d="m16.046 21.224.381-.673c1.012-1.785 1.007-3.713-.013-5.034a.706.706 0 0 1 .646-1.139c1.656.197 3.314-.79 4.325-2.574l.381-.672a.967.967 0 0 0-.364-1.318l-5.887-3.337a.967.967 0 0 0-1.318.364l-.38.673c-1.012 1.784-1.008 3.713.012 5.033a.706.706 0 0 1-.645 1.14c-1.657-.197-3.314.789-4.326 2.574l-.381.672a.967.967 0 0 0 .364 1.318l5.887 3.337a.967.967 0 0 0 1.318-.364zm.069-12.578a.483.483 0 0 0-.292.228c-.38.669-.976 1.6-.771 2.34.205.742.603.898 1.023 1.136.48.272.759.5 1.5.295.741-.205 1.233-1.195 1.612-1.864a.483.483 0 0 0-.182-.66l-2.523-1.43a.483.483 0 0 0-.367-.045z" fill="#fff"/></svg>