<svg width="29" height="29" fill="none" xmlns="http://www.w3.org/2000/svg"><circle cx="14.694" cy="14.289" r="14" fill="#C0C0C1"/><path d="M8.001 9.786c0-.472.186-.875.558-1.21.373-.334.821-.501 1.346-.501h.796v-.358c0-.19.085-.357.254-.501A.865.865 0 0 1 11.532 7c.233 0 .423.072.57.216.148.143.222.31.222.5v.359h5.341v-.358c0-.19.08-.357.24-.501A.84.84 0 0 1 18.488 7c.226 0 .416.072.57.216.154.143.23.31.23.5v.359h.797c.528 0 .98.167 1.354.502.375.334.562.737.562 1.209v.714c0 .193-.175.35-.392.35H8.393c-.216 0-.392-.157-.392-.35v-.714z" fill="#fff"/><path fill-rule="evenodd" clip-rule="evenodd" d="M21.597 12.25c.216 0 .392.157.392.35v6.65c0 .966-.877 1.75-1.96 1.75H9.96C8.878 21 8 20.216 8 19.25V12.6c0-.193.175-.35.392-.35h13.205zm-6.42 1.734c-.115-.238-.492-.238-.608 0l-.608 1.253a.33.33 0 0 1-.273.177l-1.522.13c-.289.024-.405.345-.188.516l1.146.904c.09.072.13.181.104.287l-.332 1.332c-.063.253.242.452.492.32l1.317-.694a.366.366 0 0 1 .337 0l1.317.694c.25.132.555-.067.492-.32l-.332-1.332a.278.278 0 0 1 .104-.287l1.146-.904c.218-.171.101-.492-.188-.516l-1.522-.13a.33.33 0 0 1-.273-.177l-.608-1.253z" fill="#fff"/></svg>