<svg width="29" height="29" fill="none" xmlns="http://www.w3.org/2000/svg"><circle cx="14.694" cy="14.289" r="14" fill="#C0C0C1"/><path d="M14.19 16.275a.935.935 0 0 0 .813-.004l7.827-3.824a.299.299 0 0 0-.002-.54l-7.935-3.815a.935.935 0 0 0-.81 0l-7.912 3.812a.299.299 0 0 0 .001.541l8.019 3.83z" fill="#FEFEFE"/><path d="M9.248 17.073c0 .396.047 1.252.294 1.566 2.466 3.148 7.305 3.148 9.772 0 .246-.314.414-1.17.414-1.566v-1.31c0-.223-.24-.369-.444-.268l-4.278 2.1a.935.935 0 0 1-.811.005l-4.507-2.137a.306.306 0 0 0-.44.271v1.339z" fill="#FEFEFE"/></svg>