<svg width="29" height="29" fill="none" xmlns="http://www.w3.org/2000/svg"><circle cx="14.694" cy="14.289" r="14" fill="#ED131C"/><mask id="a" style="mask-type:alpha" maskUnits="userSpaceOnUse" x="7" y="7" width="16" height="15"><path fill="#CACACB" d="M7.84 7.246h14.5v14.5H7.84z"/></mask><g mask="url(#a)"><path fill-rule="evenodd" clip-rule="evenodd" d="M8 19.417C8 20.29 8.709 21 9.583 21h10.834C21.29 21 22 20.291 22 19.417V8.583C22 7.71 21.291 7 20.417 7H9.583C8.71 7 8 7.709 8 8.583v10.834zm5.69-.424h-3.683v-1.665h2.018v-2.787h2.143v-2.767h2.143V9.007h3.682v1.665h-2.018v2.787h-2.143v2.767H13.69v2.767z" fill="#fff"/></g></svg>