<svg width="29" height="29" fill="none" xmlns="http://www.w3.org/2000/svg"><circle cx="14.694" cy="14.289" r="14" fill="#C0C0C1"/><path d="M7 19.26c0-.637.536-1.154 1.196-1.154h12.608c.66 0 1.196.517 1.196 1.154v.586c0 .637-.535 1.154-1.196 1.154H8.196C7.536 21 7 20.483 7 19.846v-.586z" fill="#fff"/><path d="M9.696 19.745c-.66 0-1.196-.516-1.196-1.153v-7.098c0-.637.535-1.154 1.196-1.154h.608c.66 0 1.196.517 1.196 1.154v7.098c0 .637-.536 1.154-1.196 1.154h-.608zM14.197 19.553c-.661 0-1.197-.517-1.197-1.154v-7.098c0-.637.536-1.153 1.197-1.153h.607c.66 0 1.196.516 1.196 1.153V18.4c0 .637-.535 1.154-1.196 1.154h-.607zM18.696 19.553c-.66 0-1.196-.517-1.196-1.154v-7.098c0-.637.535-1.153 1.196-1.153h.608c.66 0 1.196.516 1.196 1.153V18.4c0 .637-.536 1.154-1.196 1.154h-.608z" fill="#fff"/><path d="M21.066 12.471H7.831a.786.786 0 0 1-.588-.252.825.825 0 0 1-.243-.591V10.35c0-.166.04-.317.119-.451a.802.802 0 0 1 .328-.31l6.194-3.386c.252-.136.536-.204.85-.204.314 0 .6.068.857.204l6.148 3.35a1.014 1.014 0 0 1 .504.86v1.077a.96.96 0 0 1-.273.706.898.898 0 0 1-.66.274z" fill="#fff"/></svg>