<svg width="29" height="29" fill="none" xmlns="http://www.w3.org/2000/svg"><circle cx="14.694" cy="14.289" r="14" fill="#C0C0C1"/><path d="M7.5 18.567v-6.748a1.84 1.84 0 0 1 .83-1.545l4.89-3.38a2.15 2.15 0 0 1 1.271-.394c.475 0 .9.131 1.275.394l4.89 3.38c.27.183.478.41.625.68.146.271.219.56.219.865v6.748c0 .544-.205 1.002-.615 1.374-.41.373-.91.559-1.502.559h-2.096c-.293 0-.541-.094-.746-.282a.895.895 0 0 1-.306-.684v-3.88a.896.896 0 0 0-.306-.684 1.061 1.061 0 0 0-.746-.282h-1.38c-.292 0-.54.094-.745.282a.896.896 0 0 0-.306.685v3.879a.896.896 0 0 1-.307.684 1.061 1.061 0 0 1-.745.282H9.603c-.591 0-1.09-.186-1.495-.559a1.794 1.794 0 0 1-.608-1.374z" fill="#FEFEFE"/></svg>