<svg width="29" height="29" fill="none" xmlns="http://www.w3.org/2000/svg"><circle cx="14.694" cy="14.289" r="14" fill="#ED131C"/><path d="M13.075 10.038h2.839V8.8h-2.84v1.238zM8.85 21c-.51 0-.946-.176-1.307-.528A1.71 1.71 0 0 1 7 19.2v-3.495h4.987v-.021a.87.87 0 0 0 .26.652.909.909 0 0 0 .661.253h3.199c.27 0 .492-.084.667-.253a.867.867 0 0 0 .262-.652v.021H22V19.2c0 .496-.182.92-.546 1.272a1.826 1.826 0 0 1-1.316.528H8.85zM7 15.705v-3.856c0-.5.18-.926.543-1.28a1.802 1.802 0 0 1 1.307-.531h2.374V8.8c0-.488.181-.91.543-1.266A1.798 1.798 0 0 1 13.075 7h2.839c.51 0 .946.178 1.308.534.361.356.542.778.542 1.266v1.238h2.374c.513 0 .952.177 1.316.531.364.354.546.78.546 1.28v3.856h-4.964v-.243a.85.85 0 0 0-.264-.641.927.927 0 0 0-.668-.253h-3.2a.903.903 0 0 0-.658.253.859.859 0 0 0-.26.64v.244H7z" fill="#fff"/></svg>