<svg width="29" height="29" fill="none" xmlns="http://www.w3.org/2000/svg"><circle cx="14.694" cy="14.289" r="14" fill="#C0C0C1"/><path fill-rule="evenodd" clip-rule="evenodd" d="M13.606 6.775c.665-1.033 2.207-1.033 2.866 0l1.857 2.913 3.415.83c1.211.295 1.683 1.726.878 2.66l-2.272 2.63.236 3.427c.084 1.215-1.166 2.1-2.323 1.643l-3.261-1.288-3.269 1.288c-1.159.456-2.404-.428-2.313-1.643l.256-3.427-2.257-2.631c-.8-.933-.32-2.364.893-2.659l3.42-.83 1.874-2.913z" fill="#FEFEFE"/><path fill-rule="evenodd" clip-rule="evenodd" d="M14.306 11.05c.257-.4.854-.4 1.11 0l.718 1.127 1.321.322a.631.631 0 0 1 .34 1.028l-.88 1.019.092 1.326c.033.47-.451.812-.899.635l-1.262-.498-1.265.498c-.448.177-.93-.165-.895-.636l.1-1.326-.874-1.018a.634.634 0 0 1 .346-1.028l1.323-.322.725-1.127z" fill="#C0C0C1"/></svg>