          <svg
            xmlns="http://www.w3.org/2000/svg"
            width="20"
            height="20"
            fill="none"
            viewBox="0 0 17 17"
          ><path
            fill="currentColor"
            d="m7.841 1.28.02 1.158c.852.01 1.682.162 2.488.457.807.295 1.54.756 2.201 1.384.661.627 1.148 1.323 1.46 2.088.312.764.473 1.55.484 2.36l1.22.019a7.085 7.085 0 0 0-.552-2.792c-.377-.91-.96-1.742-1.751-2.492a7.657 7.657 0 0 0-2.627-1.66 8.223 8.223 0 0 0-2.943-.523Z"
          /><path
            fill="currentColor"
            d="M11.51 7.362c.174.457.264.9.267 1.327l1.222.01a4.793 4.793 0 0 0-.373-1.783 4.663 4.663 0 0 0-1.134-1.632 4.971 4.971 0 0 0-1.72-1.08A5.514 5.514 0 0 0 7.89 3.85l.02 1.169c.447.006.91.09 1.392.253.48.163.925.438 1.333.826.408.387.7.809.874 1.265Z"
          /><path
            fill="currentColor"
            fill-rule="evenodd"
            d="m7.747 2.549-.025-1.38.12-.002a8.347 8.347 0 0 1 2.985.53l-.042.104a8.23 8.23 0 0 0-2.943-.522l.02 1.159c.852.01 1.681.162 2.488.457.807.295 1.54.756 2.201 1.384.661.627 1.148 1.323 1.46 2.088l-.11.04c-.306-.749-.783-1.432-1.433-2.05A6.22 6.22 0 0 0 10.308 3a7.32 7.32 0 0 0-2.447-.45h-.114Zm6.747 6.177a6.406 6.406 0 0 0-.483-2.36l-.11.041a6.3 6.3 0 0 1 .476 2.32v.11l1.454.022.001-.112a7.192 7.192 0 0 0-.56-2.834c-.383-.926-.976-1.77-1.777-2.53a7.776 7.776 0 0 0-2.668-1.686l-.042.104c.96.356 1.836.91 2.627 1.66.79.751 1.374 1.582 1.75 2.493a7.098 7.098 0 0 1 .553 2.792l-1.22-.02Zm-2.833.074-.001-.11a3.69 3.69 0 0 0-.26-1.29c-.168-.439-.45-.847-.847-1.224a3.497 3.497 0 0 0-1.29-.8A4.392 4.392 0 0 0 7.91 5.13l-.114-.002-.024-1.391h.12a5.636 5.636 0 0 1 1.922.363 5.09 5.09 0 0 1 1.762 1.105c.522.496.91 1.053 1.161 1.67a4.9 4.9 0 0 1 .38 1.824v.114L11.662 8.8ZM9.303 5.27c.481.164.926.439 1.334.826.408.388.699.81.874 1.266.174.457.263.899.267 1.327l1.221.01c0-.036 0-.074-.002-.111a4.836 4.836 0 0 0-.37-1.672 4.663 4.663 0 0 0-1.135-1.632 4.972 4.972 0 0 0-1.72-1.08 5.558 5.558 0 0 0-1.88-.355l.02 1.169c.446.006.91.09 1.391.253Z"
            clip-rule="evenodd"
          /><path
            fill="currentColor"
            d="M12.367 15.167c-1.374 0-2.732-.294-4.074-.881a12.251 12.251 0 0 1-3.672-2.506c-1.107-1.083-1.96-2.284-2.557-3.603-.599-1.32-.898-2.655-.898-4.006a.94.94 0 0 1 .965-.956h2.591c.289 0 .529.075.719.226.19.15.314.356.372.617l.408 2.02c.046.256.042.475-.011.656-.054.181-.16.34-.317.478L4.28 8.685c.19.323.414.642.672.957.258.315.551.629.88.941.302.296.604.563.907.8.304.236.617.447.939.63l1.572-1.517c.163-.154.352-.26.568-.32a1.51 1.51 0 0 1 .684-.02l1.97.414c.277.077.49.202.637.375.148.173.222.39.222.651v2.615a.942.942 0 0 1-.964.956Z"
          /></svg>