          <svg
            xmlns="http://www.w3.org/2000/svg"
            width="20"
            height="20"
            fill="none"
            viewBox="0 0 16 17"
          ><path
            fill="currentColor"
            fill-rule="evenodd"
            d="M.666 3.021v12.813l2.799-2.8h10.013c.517 0 .955-.18 1.315-.539.36-.36.54-.798.54-1.314V3.02c0-.516-.18-.955-.54-1.314a1.79 1.79 0 0 0-1.315-.54H2.52c-.516 0-.955.18-1.314.54-.36.36-.54.798-.54 1.314Zm5.299 5.567v.79H4.692v-.79c0-.696.25-1.291.75-1.785.5-.493 1.102-.74 1.807-.74h2.328L8.415 4.92l.895-.878 2.687 2.648-2.605 2.567-.895-.879 1.08-1.06H7.249c-.36 0-.663.123-.912.368a1.217 1.217 0 0 0-.372.9Z"
            clip-rule="evenodd"
          /></svg>