<svg xmlns="http://www.w3.org/2000/svg" width="120" height="120" fill="none"><path stroke="#0D1140" stroke-miterlimit="10" d="M15.588 70.521V5.273c0-2.59 2.01-4.704 4.471-4.704h80.348c2.462 0 4.47 2.113 4.47 4.704v65.248"/><path stroke="#0D1140" stroke-miterlimit="10" d="m113.456 92.193-8.847-22.085H15.622L6.775 92.193A10.12 10.12 0 0 0 6 96.068v2.712a4.768 4.768 0 0 0 4.779 4.779h98.544a4.768 4.768 0 0 0 4.779-4.779v-2.712c.129-1.292-.129-2.648-.646-3.875ZM16.01 94.066h88.276M22.015 74.887h76.782M20.336 80.053h80.205M18.593 85.542h83.691M29.958 74.887l-3.423 10.655M37.514 74.887 34.09 85.542M45.07 74.887l-2.855 10.655M52.625 74.887l-2.067 10.655M90.273 74.887l3.423 10.655M82.782 74.887l3.423 10.655M75.227 74.887l2.853 10.655M67.671 74.887l2.067 10.655M60.115 74.887v10.655"/><path fill="#FF0A47" d="m63.897 92.245-2.648-2.72c-.681-.7-1.779-.7-2.46 0l-2.648 2.72h-9.32c-2.118 0-3.821 1.748-3.821 3.924v16.907c0 2.175 1.703 3.924 3.822 3.924h26.356c2.12 0 3.822-1.749 3.822-3.924V96.169c0-2.176-1.703-3.924-3.822-3.924h-9.28Z"/><path stroke="#fff" stroke-linecap="round" d="M54 104.238 59.556 109 69 99"/><mask id="a" width="18" height="17" x="29" y="14" maskUnits="userSpaceOnUse" style="mask-type:alpha"><path fill="#D9D9D9" d="M29 14h18v17H29z"/></mask><g fill="#FF0A47" stroke="#F7F9FD" stroke-miterlimit="10" mask="url(#a)"><path d="M38 39.455a8.182 8.182 0 1 0 0-16.364 8.182 8.182 0 0 0 0 16.364Z"/><path d="M38 23.091a3.636 3.636 0 1 0 0-7.273 3.636 3.636 0 0 0 0 7.273Z"/></g><path stroke="#0D1140" stroke-linecap="round" d="M46.622 18H87a2 2 0 0 1 2 2v33a2 2 0 0 1-2 2H35a2 2 0 0 1-2-2V36.785"/><path stroke="#0D1140" stroke-miterlimit="10" d="M82 38H50M82 42H50M82 34H50M82 30H50"/></svg>