<svg xmlns="http://www.w3.org/2000/svg" width="120" height="120" fill="none"><g clip-path="url(#a)"><path stroke="#0D1140" d="M19.065.5h49.148c2.17 0 3.925 1.76 3.925 3.94V82.78c0 2.18-1.756 3.94-3.925 3.94H9.225A3.929 3.929 0 0 1 5.3 82.78v-68.47a3.89 3.89 0 0 1 1.156-2.781l9.84-9.871A3.863 3.863 0 0 1 19.066.5ZM20.762 71.259h35.344M20.762 66.698h35.344M20.762 62.708h35.344M20.762 58.147h35.344M20.762 54.157h35.344M20.762 49.596h35.344M20.762 45.606h35.344M20.762 41.045h35.344M20.762 41.045h35.344M20.762 36.484h35.344M20.762 32.494h35.344M20.762 27.933h35.344M38.434 14.252h17.672"/><path stroke="#0D1140" stroke-miterlimit="10" d="M21.332 0v12.399a4.145 4.145 0 0 1-4.133 4.133H4.8"/><path fill="#F7F9FD" stroke="#0D1140" stroke-miterlimit="10" d="m105.936 118.632-20.58-20.58c-1.424-1.425-1.424-3.762 0-5.245l3.25-3.249c1.425-1.425 3.763-1.425 5.245 0l20.579 20.58c1.426 1.425 1.426 3.762 0 5.244l-3.249 3.25c-1.482 1.425-3.82 1.425-5.245 0Z"/><path fill="#fff" stroke="#0D1140" stroke-miterlimit="10" d="M69.737 110.399c19.992 0 36.199-16.207 36.199-36.2 0-19.992-16.207-36.199-36.2-36.199-19.992 0-36.199 16.207-36.199 36.2 0 19.992 16.207 36.199 36.2 36.199Z"/><mask id="b" width="55" height="56" x="42" y="46" maskUnits="userSpaceOnUse" style="mask-type:alpha"><path fill="#D9D9D9" d="M69.737 101.449c15.05 0 27.25-12.2 27.25-27.25 0-15.049-12.2-27.249-27.25-27.249s-27.25 12.2-27.25 27.25c0 15.049 12.2 27.249 27.25 27.249Z"/></mask><g fill="#FF0A47" stroke="#fff" stroke-miterlimit="10" mask="url(#b)"><path d="M69.6 109.2c9.278 0 16.8-7.522 16.8-16.8s-7.522-16.8-16.8-16.8c-9.279 0-16.8 7.522-16.8 16.8s7.521 16.8 16.8 16.8ZM69.9 75.6a7.5 7.5 0 1 0 0-15 7.5 7.5 0 0 0 0 15Z"/></g><path stroke="#0D1140" stroke-miterlimit="10" d="M69.737 101.245c15.05 0 27.25-12.2 27.25-27.25s-12.2-27.25-27.25-27.25-27.25 12.2-27.25 27.25 12.2 27.25 27.25 27.25Z"/></g><defs><clipPath id="a"><path fill="#fff" d="M0 0h120v120H0z"/></clipPath></defs></svg>