<svg xmlns="http://www.w3.org/2000/svg" width="120" height="120" fill="none"><g clip-path="url(#a)"><path stroke="#0D1140" stroke-miterlimit="10" d="M83.573 72.611v-12.04c0-2.735 2.159-4.998 4.868-4.998a4.75 4.75 0 0 1 2.434.67"/><path stroke="#0D1140" stroke-miterlimit="10" d="M84.856 79.786c1.784-1.783 1.784-4.627 0-6.368-1.783-1.783-4.627-1.783-6.368 0l-5.094 5.052a25.803 25.803 0 0 0-7.557 18.425V112.4a7 7 0 0 0 7 7h8.156a3.986 3.986 0 0 0 3.99-3.991v-14.056l7.728-8.109a25.886 25.886 0 0 0 7.09-17.788V52.5c0-2.505-2.038-4.5-4.5-4.5a4.502 4.502 0 0 0-4.5 4.5v18.37c0 1.911-.765 3.694-2.081 5.053L77.597 87.046M36.627 72.611v-12.04c0-2.735-2.158-4.998-4.868-4.998a4.75 4.75 0 0 0-2.434.67"/><path stroke="#0D1140" stroke-miterlimit="10" d="M35.344 79.786c-1.783-1.783-1.783-4.627 0-6.368 1.783-1.783 4.628-1.783 6.368 0l5.095 5.052a25.804 25.804 0 0 1 7.557 18.425V112.4a7 7 0 0 1-7 7h-8.156a3.986 3.986 0 0 1-3.991-3.991v-14.056l-7.727-8.109a25.886 25.886 0 0 1-7.09-17.788V52.5c0-2.505 2.038-4.5 4.5-4.5 2.505 0 4.5 2.038 4.5 4.5v18.37c0 1.911.765 3.694 2.08 5.053l11.124 11.123"/><path fill="#fff" stroke="#0D1140" stroke-miterlimit="10" d="M60.163 56.4c15.409 0 27.9-12.491 27.9-27.9 0-15.409-12.491-27.9-27.9-27.9-15.409 0-27.9 12.491-27.9 27.9 0 15.409 12.491 27.9 27.9 27.9Z"/><mask id="b" width="43" height="43" x="39" y="7" maskUnits="userSpaceOnUse" style="mask-type:alpha"><path fill="#D9D9D9" d="M60.062 49.502c11.6 0 21.002-9.403 21.002-21.002 0-11.6-9.402-21.002-21.002-21.002-11.599 0-21.002 9.403-21.002 21.002 0 11.599 9.403 21.002 21.002 21.002Z"/></mask><g fill="#FF0A47" stroke="#fff" stroke-miterlimit="10" mask="url(#b)"><path d="M59.957 55.633c7.151 0 12.948-5.797 12.948-12.948 0-7.151-5.797-12.948-12.948-12.948-7.151 0-12.948 5.797-12.948 12.948 0 7.151 5.797 12.948 12.948 12.948ZM60.188 29.737a5.78 5.78 0 1 0 0-11.561 5.78 5.78 0 0 0 0 11.56Z"/></g><path stroke="#0D1140" stroke-miterlimit="10" d="M59.863 49.8c11.598 0 21-9.536 21-21.3 0-11.764-9.402-21.3-21-21.3s-21 9.536-21 21.3c0 11.764 9.402 21.3 21 21.3Z"/></g><defs><clipPath id="a"><path fill="#fff" d="M0 0h120v120H0z"/></clipPath></defs></svg>