<svg xmlns="http://www.w3.org/2000/svg" width="120" height="120" fill="none"><path stroke="#0D1140" d="M79.8 7.8A7.2 7.2 0 0 0 72.6.6H53.4a7.2 7.2 0 0 0-7.2 7.2"/><path stroke="#0D1140" stroke-miterlimit="10" d="M16 69.879V11.786c0-2.404 1.856-4.357 4.124-4.357h84.895c2.268 0 4.124 1.953 4.124 4.357v58.143c0 2.404-1.856 4.357-4.124 4.357H20.124C17.856 74.236 16 72.282 16 69.879Z"/><path stroke="#0D1140" d="M37.2 31.8v3a4.2 4.2 0 0 0 8.4 0v-3M81.6 31.8v3a4.2 4.2 0 1 0 8.4 0v-3"/><path stroke="#0D1140" stroke-miterlimit="10" d="M16 22.286v6.095c0 1.676 1.525 3.048 3.389 3.048h86.365c1.864 0 3.389-1.372 3.389-3.048v-5.219"/><rect width="12.714" height="25.857" x="41.9" y="91.843" fill="#fff" stroke="#0D1140" rx="5.5"/><rect width="12.714" height="71" x="85.329" y="46.7" fill="#fff" stroke="#0D1140" rx="5.5"/><rect width="12.714" height="56.143" x="63.614" y="61.557" fill="#fff" stroke="#0D1140" rx="5.5"/><path stroke="#0D1140" d="M50.857 14.857h24"/><path fill="#FF0A47" stroke="#fff" stroke-miterlimit="10" d="m34.99 79.876 3.865-3.88a2.55 2.55 0 0 0 0-3.602l-3.864-3.879V45.197a5.571 5.571 0 0 0-5.576-5.597H6.175A5.571 5.571 0 0 0 .6 45.197v38.606A5.571 5.571 0 0 0 6.175 89.4h23.24a5.571 5.571 0 0 0 5.576-5.597v-3.927Z"/><path stroke="#fff" stroke-miterlimit="10" d="m10.8 71.483 14.21-14.21"/><circle cx="13.655" cy="59.7" r="2.7" stroke="#fff"/><circle cx="22.055" cy="68.7" r="2.7" stroke="#fff"/></svg>