<svg xmlns="http://www.w3.org/2000/svg" width="120" height="120" fill="none"><path stroke="#0D1140" d="m20.06 26.145 2.347 12.171c.43 2.232-1.028 4.412-3.241 4.846l-12.07 2.366m35.287-32.12-.588 8.477-.27 3.891c-.157 2.268-2.125 3.994-4.374 3.835l-12.267-.865M66.673 7.382l-4.004 11.724c-.733 2.15-3.078 3.302-5.21 2.562l-5.813-2.018-5.813-2.019m-2.204 57.82L76.77 86.966M45.103 71.14l33.14 11.513M46.392 67.367l33.14 11.513M47.865 63.055l33.14 11.513M49.155 59.283l33.14 11.512M50.628 54.971l33.14 11.513m-31.85-15.286 33.14 11.513M53.39 46.886l33.14 11.513M54.863 42.574l33.14 11.513M56.153 38.8l33.14 11.513M57.626 34.49l33.14 11.513M78.616 27.31l16.57 5.757M47.659 13.779c.327-.316.705-.58 1.124-.787l12.415-6.13a4.294 4.294 0 0 1 3.35-.218l46.086 16.001c2.295.797 3.509 3.318 2.717 5.639l-25.295 74.074c-.793 2.321-3.289 3.553-5.583 2.756l-4.323-1.501M47.658 13.779a4.385 4.385 0 0 0-1.108 1.752l-1.984 5.811-20.124 58.93c-.792 2.32.422 4.841 2.717 5.638l50.99 17.703M47.658 13.779l-7.517-.53a4.304 4.304 0 0 0-3.181 1.085l-10.418 9.16a4.44 4.44 0 0 0-1.167 1.61m52.774 78.509-53.37 10.461c-2.381.467-4.683-1.104-5.147-3.514L6.675 43.347a4.42 4.42 0 0 1 .674-3.324l7.711-11.568a4.325 4.325 0 0 1 2.794-1.877l7.521-1.474m52.774 78.509-53.777-4.042c-2.42-.17-4.24-2.288-4.071-4.737l4.737-68.304c.035-.503.15-.983.337-1.426"/><path fill="#FF0A47" fill-rule="evenodd" d="m76.807 90.454-2.538-.008a1.16 1.16 0 0 1-.77-.297 1.178 1.178 0 0 1-.383-.737l-.323-2.677a1.178 1.178 0 0 0-.305-.661l-1.8-1.942a1.18 1.18 0 0 1-.087-1.497l1.645-2.253c.14-.193.219-.423.226-.662l.08-2.796a1.18 1.18 0 0 1 .29-.743c.18-.205.424-.341.693-.384l2.604-.413c.243-.038.468-.154.642-.33l1.892-1.913a1.16 1.16 0 0 1 1.539-.098l2.004 1.57c.204.159.454.246.712.246l2.537.008c.284.001.558.107.77.297.213.19.349.453.383.737l.323 2.679c.03.247.136.478.304.66l1.801 1.943a1.18 1.18 0 0 1 .086 1.497l-1.644 2.252c-.14.193-.219.424-.226.662l-.08 2.796a1.18 1.18 0 0 1-.29.743c-.18.206-.425.342-.693.384l-2.604.413a1.162 1.162 0 0 0-.643.33l-1.89 1.912a1.16 1.16 0 0 1-1.54.098l-2.004-1.57a1.159 1.159 0 0 0-.711-.246Z" clip-rule="evenodd"/><path fill="#FF0A47" d="M71.858 91.68c.262.34.671.556 1.125.555l3.12.01c.317.002.625.108.875.304l2.466 1.93c.357.28.811.365 1.225.26l-1.477 4.325-3.89-3.038-4.92-.022 1.476-4.324Z"/></svg>