<svg xmlns="http://www.w3.org/2000/svg" width="240" height="240" fill="none"><path fill="#FFD11A" d="m17.91 115.756 26.159 97.627c2.638 9.847 12.758 15.689 22.605 13.051l146.289-39.198c9.847-2.639 15.689-12.758 13.051-22.605l-26.159-97.627c-2.638-9.847-12.758-15.69-22.605-13.051L30.96 93.15c-9.846 2.638-15.689 12.758-13.05 22.605Z"/><path fill="#fff" stroke="#FF0A47" stroke-miterlimit="10" stroke-width=".909" d="m17.91 108.968 26.159 97.626c2.638 9.847 12.758 15.69 22.605 13.051l146.289-39.198c9.847-2.638 15.689-12.758 13.051-22.605l-26.159-97.627c-2.639-9.846-12.758-15.69-22.605-13.05L30.96 86.361c-9.846 2.639-15.689 12.759-13.05 22.606Z"/><path fill="#fff" d="m137.389 57.845-1.232-4.598c-2.209-8.245-10.68-13.135-18.924-10.926l-36.722 9.84c-8.245 2.209-13.135 10.68-10.926 18.924l1.232 4.598"/><path stroke="#FF0A47" stroke-miterlimit="10" stroke-width=".909" d="m137.389 57.845-1.232-4.598c-2.209-8.245-10.68-13.135-18.924-10.926l-36.722 9.84c-8.245 2.209-13.135 10.68-10.926 18.924l1.232 4.598"/><path fill="#fff" stroke="#FF0A47" stroke-miterlimit="10" stroke-width=".909" d="m17.91 108.968 13.431 49.263c2.639 9.846 12.759 15.689 22.606 13.051l146.289-39.198c9.846-2.639 15.689-12.759 13.051-22.606l-13.432-49.262c-2.639-9.847-12.758-15.69-22.605-13.052L30.96 86.362c-9.846 2.639-15.689 12.759-13.05 22.606Z"/><g filter="url(#a)"><path fill="#fff" d="M104.418 93.065c2.524-4.567 8.337-6.125 12.806-3.432a9.206 9.206 0 0 0 9.501 0c4.47-2.693 10.282-1.135 12.807 3.432a9.204 9.204 0 0 0 8.227 4.75c5.218-.097 9.473 4.158 9.376 9.375a9.204 9.204 0 0 0 4.75 8.228c4.567 2.525 6.124 8.337 3.431 12.807a9.206 9.206 0 0 0 0 9.5c2.693 4.47 1.136 10.282-3.431 12.807a9.203 9.203 0 0 0-4.75 8.227c.097 5.218-4.158 9.473-9.376 9.376a9.202 9.202 0 0 0-8.227 4.75c-2.525 4.567-8.337 6.124-12.807 3.431a9.208 9.208 0 0 0-9.501 0c-4.469 2.693-10.282 1.136-12.806-3.431a9.204 9.204 0 0 0-8.228-4.75c-5.217.097-9.472-4.158-9.375-9.376a9.204 9.204 0 0 0-4.75-8.227c-4.567-2.525-6.125-8.337-3.432-12.807a9.204 9.204 0 0 0 0-9.5c-2.693-4.47-1.135-10.282 3.432-12.807a9.206 9.206 0 0 0 4.75-8.228c-.097-5.217 4.158-9.472 9.375-9.375a9.206 9.206 0 0 0 8.228-4.75Z"/><path stroke="#FF0A47" stroke-linejoin="round" d="M117.483 89.205c-4.713-2.84-10.841-1.197-13.503 3.618a8.705 8.705 0 0 1-7.78 4.492c-5.501-.102-9.987 4.384-9.885 9.885a8.704 8.704 0 0 1-4.492 7.78c-4.815 2.662-6.457 8.79-3.618 13.503a8.705 8.705 0 0 1 0 8.984c-2.84 4.713-1.197 10.841 3.618 13.502a8.706 8.706 0 0 1 4.492 7.781c-.102 5.501 4.384 9.987 9.885 9.884a8.705 8.705 0 0 1 7.78 4.493c2.662 4.815 8.79 6.457 13.503 3.618a8.704 8.704 0 0 1 8.984 0c4.713 2.839 10.841 1.197 13.502-3.618a8.702 8.702 0 0 1 7.781-4.492c5.501.102 9.987-4.384 9.884-9.885a8.706 8.706 0 0 1 4.493-7.781c4.815-2.661 6.457-8.789 3.618-13.502a8.704 8.704 0 0 1 0-8.984c2.839-4.713 1.197-10.841-3.618-13.503a8.704 8.704 0 0 1-4.493-7.78c.103-5.501-4.383-9.987-9.884-9.885a8.705 8.705 0 0 1-7.781-4.492c-2.661-4.815-8.789-6.457-13.502-3.618a8.704 8.704 0 0 1-8.984 0Z"/></g><g filter="url(#b)"><path fill="#FF0A47" fill-rule="evenodd" d="m142.755 125.625-12.977-8.174.887 11.414 12.09-3.24Z" clip-rule="evenodd"/><path fill="#FF0A47" d="m142.755 125.625-12.09 3.24-3.532 23.459 15.622-26.699ZM112.344 133.774l-12.09 3.239 26.879 15.311-14.789-18.55Z"/><path fill="#FF0A47" d="m107.406 123.446-7.152 13.567 12.09-3.239-4.938-10.328Z"/><path fill="#FF0A47" d="m107.406 123.446 4.938 10.328 6.248-13.325-11.186 2.997Z"/><path fill="#FF0A47" d="m130.665 128.865-.887-11.414-11.186 2.998 12.073 8.416Z"/><path fill="#FF0A47" d="m118.592 120.449-6.248 13.325 18.321-4.909-12.073-8.416ZM112.344 133.774l14.789 18.55 3.532-23.459-18.321 4.909Z"/><path stroke="#fff" d="m107.406 123.446-7.152 13.567m7.152-13.567 4.938 10.328m-4.938-10.328 11.186-2.997m-18.338 16.564 12.09-3.239m-12.09 3.239 26.879 15.311m-14.789-18.55 6.248-13.325m-6.248 13.325 14.789 18.55m-14.789-18.55 18.321-4.909m-12.073-8.416 11.186-2.998m-11.186 2.998 12.073 8.416m-3.532 23.459 3.532-23.459m-3.532 23.459 15.622-26.699m-12.977-8.174 12.977 8.174m-12.977-8.174.887 11.414m12.09-3.24-12.09 3.24"/></g><defs><filter id="a" width="95.328" height="95.328" x="76.311" y="87.311" color-interpolation-filters="sRGB" filterUnits="userSpaceOnUse"><feFlood flood-opacity="0" result="BackgroundImageFix"/><feColorMatrix in="SourceAlpha" result="hardAlpha" values="0 0 0 0 0 0 0 0 0 0 0 0 0 0 0 0 0 0 127 0"/><feOffset dx="4" dy="4"/><feComposite in2="hardAlpha" operator="out"/><feColorMatrix values="0 0 0 0 0.827451 0 0 0 0 0.847059 0 0 0 0 0.890196 0 0 0 0.4 0"/><feBlend in2="BackgroundImageFix" result="effect1_dropShadow_12208_2787"/><feBlend in="SourceGraphic" in2="effect1_dropShadow_12208_2787" result="shape"/></filter><filter id="b" width="45.845" height="38.091" x="99.586" y="116.912" color-interpolation-filters="sRGB" filterUnits="userSpaceOnUse"><feFlood flood-opacity="0" result="BackgroundImageFix"/><feColorMatrix in="SourceAlpha" result="hardAlpha" values="0 0 0 0 0 0 0 0 0 0 0 0 0 0 0 0 0 0 127 0"/><feOffset dx="2" dy="2"/><feComposite in2="hardAlpha" operator="out"/><feColorMatrix values="0 0 0 0 0.827451 0 0 0 0 0.847059 0 0 0 0 0.890196 0 0 0 0.4 0"/><feBlend in2="BackgroundImageFix" result="effect1_dropShadow_12208_2787"/><feBlend in="SourceGraphic" in2="effect1_dropShadow_12208_2787" result="shape"/></filter></defs></svg>