<svg width="756" height="155" viewBox="0 0 756 155" fill="none" xmlns="http://www.w3.org/2000/svg">
<g opacity="0.5" clip-path="url(#clip0_1098_20276)">
<g filter="url(#filter0_ii_1098_20276)">
<path d="M273.145 50.9083L269.465 48.7752C267.011 47.3532 263.763 45.789 259.721 44.0826C255.679 42.234 251.277 40.5986 246.513 39.1766C241.75 37.7546 237.059 37.0436 232.439 37.0436C228.831 37.0436 225.872 37.6124 223.562 38.75C221.253 39.8876 220.098 41.8074 220.098 44.5092C220.098 47.0688 221.253 49.1307 223.562 50.695C225.872 52.2592 229.12 53.6812 233.306 54.961C237.636 56.2408 242.76 57.8051 248.679 59.6537C258.205 62.4977 266.433 65.7684 273.362 69.4656C280.291 73.1629 285.631 77.9266 289.384 83.7569C293.138 89.445 295.014 97.0528 295.014 106.58C295.014 115.681 293.354 123.36 290.034 129.617C286.714 135.732 282.239 140.638 276.61 144.335C270.98 148.032 264.701 150.734 257.772 152.44C250.844 154.005 243.771 154.787 236.553 154.787C229.192 154.787 221.469 154.076 213.386 152.654C205.447 151.089 197.724 149.028 190.218 146.468C182.712 143.766 175.855 140.638 169.648 137.083L187.836 100.608L192.167 103.167C195.054 104.874 198.879 106.794 203.642 108.927C208.406 111.06 213.674 112.979 219.448 114.686C225.366 116.392 231.285 117.245 237.203 117.245C241.822 117.245 244.998 116.677 246.73 115.539C248.606 114.259 249.545 112.624 249.545 110.633C249.545 107.647 247.957 105.372 244.781 103.807C241.606 102.101 237.419 100.537 232.223 99.1147C227.171 97.5505 221.541 95.7729 215.334 93.7821C206.385 90.7959 199.023 87.4541 193.249 83.7569C187.475 79.9174 183.217 75.4381 180.474 70.3188C177.732 65.0574 176.361 58.7294 176.361 51.3349C176.361 40.1009 179.031 30.7156 184.372 23.1789C189.713 15.6422 196.714 9.95414 205.374 6.11469C214.18 2.13304 223.634 0.142212 233.739 0.142212C241.245 0.142212 248.462 1.06652 255.391 2.91515C262.464 4.62157 269.032 6.7546 275.094 9.31423C281.301 11.8739 286.714 14.2913 291.333 16.5665L273.145 50.9083ZM351.566 78.4243V152.867H309.345V1.42203H342.256L403.964 78.4243V1.42203H446.186V152.867H412.625L351.566 78.4243ZM468.251 152.867V1.42203H538.837C546.343 1.42203 553.271 2.91515 559.623 5.90139C565.974 8.88763 571.459 12.9404 576.078 18.0596C580.698 23.0367 584.234 28.6537 586.688 34.9106C589.286 41.1674 590.585 47.4954 590.585 53.8945C590.585 59.7248 589.719 65.3418 587.987 70.7454C586.255 76.1491 583.729 81.1262 580.409 85.6766C577.089 90.0849 573.119 93.9243 568.5 97.195L600.978 152.867H554.643L527.578 106.367H510.473V152.867H468.251ZM510.473 70.1055H537.105C538.837 70.1055 540.497 69.4656 542.085 68.1858C543.672 66.906 544.972 65.0574 545.982 62.6399C547.137 60.2225 547.714 57.3074 547.714 53.8945C547.714 50.3395 547.065 47.4243 545.765 45.1491C544.611 42.7317 543.095 40.883 541.219 39.6032C539.486 38.3234 537.754 37.6835 536.022 37.6835H510.473V70.1055ZM674.599 153.934C664.639 153.934 655.112 152.227 646.018 148.814C637.069 145.259 629.13 140.14 622.201 133.456C615.272 126.631 609.787 118.454 605.745 108.927C601.848 99.2569 599.899 88.2363 599.899 75.8647C599.899 65.1996 601.92 55.3165 605.962 46.2156C610.004 37.1147 615.561 29.1514 622.634 22.3257C629.851 15.3578 638.223 9.95414 647.75 6.11469C657.277 2.27524 667.598 0.355515 678.713 0.355515C692.57 0.355515 705.128 3.34175 716.387 9.31423C727.644 15.1445 736.017 23.1789 741.502 33.4174L710.108 57.0941C707.077 51.1216 702.53 46.3578 696.468 42.8028C690.405 39.1055 683.982 37.2569 677.197 37.2569C672.145 37.2569 667.526 38.2523 663.34 40.2431C659.154 42.234 655.473 45.0069 652.297 48.5619C649.266 52.117 646.884 56.383 645.152 61.3601C643.564 66.195 642.77 71.5275 642.77 77.3578C642.77 83.3303 643.637 88.734 645.369 93.5688C647.101 98.4037 649.483 102.599 652.514 106.154C655.689 109.567 659.443 112.268 663.773 114.259C668.103 116.108 672.939 117.032 678.28 117.032C685.064 117.032 691.56 115.397 697.767 112.126C703.974 108.713 709.603 103.95 714.655 97.8349V138.362C703.108 148.743 689.755 153.934 674.599 153.934ZM712.49 102.101H684.126V72.2385H747.348V152.867H712.49V102.101Z" fill="#1E1E1E"/>
</g>
<g filter="url(#filter1_ii_1098_20276)">
<path fill-rule="evenodd" clip-rule="evenodd" d="M0.835938 1.422H154.566V152.867H0.835938V1.422ZM11.5609 11.9876V142.301H143.841V11.9876H11.5609ZM21.2654 21.5478H134.136V132.741H21.2654V21.5478ZM31.9904 32.1134V122.176H90.1443L42.4462 77.1445L90.1443 32.1134H31.9904ZM99.5608 32.1134V65.7079L87.1671 77.1971L99.5608 89.0055V122.176H123.411V32.1134H99.5608ZM57.9476 77.1445L88.8358 106.306V93.4863L71.6296 77.0926L88.8358 61.1418V47.9839L57.9476 77.1445Z" fill="#1E1E1E"/>
<path fill-rule="evenodd" clip-rule="evenodd" d="M11.5625 142.301V11.9875H143.842V142.301H11.5625ZM21.267 21.5478H134.138V132.741H21.267V21.5478Z" fill="#1E1E1E"/>
<path d="M88.8374 106.306L57.9492 77.1445L88.8374 47.9839V61.1418L71.6312 77.0926L88.8374 93.4863V106.306Z" fill="#1E1E1E"/>
</g>
</g>
<defs>
<filter id="filter0_ii_1098_20276" x="165.74" y="0.142212" width="585.516" height="154.644" filterUnits="userSpaceOnUse" color-interpolation-filters="sRGB">
<feFlood flood-opacity="0" result="BackgroundImageFix"/>
<feBlend mode="normal" in="SourceGraphic" in2="BackgroundImageFix" result="shape"/>
<feColorMatrix in="SourceAlpha" type="matrix" values="0 0 0 0 0 0 0 0 0 0 0 0 0 0 0 0 0 0 127 0" result="hardAlpha"/>
<feOffset dx="3.90826"/>
<feGaussianBlur stdDeviation="3.41972"/>
<feComposite in2="hardAlpha" operator="arithmetic" k2="-1" k3="1"/>
<feColorMatrix type="matrix" values="0 0 0 0 0.375 0 0 0 0 0.375 0 0 0 0 0.375 0 0 0 0.6 0"/>
<feBlend mode="normal" in2="shape" result="effect1_innerShadow_1098_20276"/>
<feColorMatrix in="SourceAlpha" type="matrix" values="0 0 0 0 0 0 0 0 0 0 0 0 0 0 0 0 0 0 127 0" result="hardAlpha"/>
<feOffset dx="-3.90826"/>
<feGaussianBlur stdDeviation="3.90826"/>
<feComposite in2="hardAlpha" operator="arithmetic" k2="-1" k3="1"/>
<feColorMatrix type="matrix" values="0 0 0 0 0 0 0 0 0 0 0 0 0 0 0 0 0 0 0.6 0"/>
<feBlend mode="normal" in2="effect1_innerShadow_1098_20276" result="effect2_innerShadow_1098_20276"/>
</filter>
<filter id="filter1_ii_1098_20276" x="-3.07232" y="1.422" width="161.547" height="151.445" filterUnits="userSpaceOnUse" color-interpolation-filters="sRGB">
<feFlood flood-opacity="0" result="BackgroundImageFix"/>
<feBlend mode="normal" in="SourceGraphic" in2="BackgroundImageFix" result="shape"/>
<feColorMatrix in="SourceAlpha" type="matrix" values="0 0 0 0 0 0 0 0 0 0 0 0 0 0 0 0 0 0 127 0" result="hardAlpha"/>
<feOffset dx="3.90826"/>
<feGaussianBlur stdDeviation="3.41972"/>
<feComposite in2="hardAlpha" operator="arithmetic" k2="-1" k3="1"/>
<feColorMatrix type="matrix" values="0 0 0 0 0.120192 0 0 0 0 0.120192 0 0 0 0 0.120192 0 0 0 0.6 0"/>
<feBlend mode="normal" in2="shape" result="effect1_innerShadow_1098_20276"/>
<feColorMatrix in="SourceAlpha" type="matrix" values="0 0 0 0 0 0 0 0 0 0 0 0 0 0 0 0 0 0 127 0" result="hardAlpha"/>
<feOffset dx="-3.90826"/>
<feGaussianBlur stdDeviation="3.90826"/>
<feComposite in2="hardAlpha" operator="arithmetic" k2="-1" k3="1"/>
<feColorMatrix type="matrix" values="0 0 0 0 0.293269 0 0 0 0 0.293269 0 0 0 0 0.293269 0 0 0 1 0"/>
<feBlend mode="normal" in2="effect1_innerShadow_1098_20276" result="effect2_innerShadow_1098_20276"/>
</filter>
<clipPath id="clip0_1098_20276">
<rect width="754.214" height="155" fill="white" transform="translate(0.835938)"/>
</clipPath>
</defs>
</svg>
