<svg xmlns="http://www.w3.org/2000/svg" fill="none" viewBox="0 0 1045 218"><g filter="url(#a)"><path fill="#1C1C1C" d="m377.3 71.6-5.1-3c-3.4-2-7.9-4.2-13.5-6.6-5.6-2.6-11.7-4.9-18.3-6.9a67 67 0 0 0-19.5-3c-5 0-9.1.8-12.3 2.4-3.2 1.6-4.8 4.3-4.8 8.1 0 3.6 1.6 6.5 4.8 8.7 3.2 2.2 7.7 4.2 13.5 6 6 1.8 13.1 4 21.3 6.6 13.2 4 24.6 8.6 34.2 13.8 9.6 5.2 17 11.9 22.2 20.1 5.2 8 7.8 18.7 7.8 32.1 0 12.8-2.3 23.6-6.9 32.4a56.35 56.35 0 0 1-18.6 20.7c-7.8 5.2-16.5 9-26.1 11.4-9.6 2.2-19.4 3.3-29.4 3.3-10.2 0-20.9-1-32.1-3-11-2.2-21.7-5.1-32.1-8.7a178.4 178.4 0 0 1-28.5-13.2l25.2-51.3 6 3.6c4 2.4 9.3 5.1 15.9 8.1s13.9 5.7 21.9 8.1a87.2 87.2 0 0 0 24.6 3.6c6.4 0 10.8-.8 13.2-2.4 2.6-1.8 3.9-4.1 3.9-6.9 0-4.2-2.2-7.4-6.6-9.6-4.4-2.4-10.2-4.6-17.4-6.6-7-2.2-14.8-4.7-23.4-7.5-12.4-4.2-22.6-8.9-30.6-14.1-8-5.4-13.9-11.7-17.7-18.9-3.8-7.4-5.7-16.3-5.7-26.7 0-15.8 3.7-29 11.1-39.6a69.65 69.65 0 0 1 29.1-24C295.6 3 308.7.2 322.7.2c10.4 0 20.4 1.3 30 3.9 9.8 2.4 18.9 5.4 27.3 9 8.6 3.6 16.1 7 22.5 10.2l-25.2 48.3Zm108.66 38.7V215h-58.5V2h45.6l85.5 108.3V2h58.5v213h-46.5l-84.6-104.7ZM647.63 215V2h97.8a66 66 0 0 1 28.8 6.3c8.8 4.2 16.4 9.9 22.8 17.1 6.4 7 11.3 14.9 14.7 23.7 3.6 8.8 5.4 17.7 5.4 26.7 0 8.2-1.2 16.1-3.6 23.7-2.4 7.6-5.9 14.6-10.5 21a74.63 74.63 0 0 1-16.5 16.2l45 78.3h-64.2l-37.5-65.4h-23.7V215h-58.5Zm58.5-116.4h36.9c2.4 0 4.7-.9 6.9-2.7 2.2-1.8 4-4.4 5.4-7.8 1.6-3.4 2.4-7.5 2.4-12.3 0-5-.9-9.1-2.7-12.3-1.6-3.4-3.7-6-6.3-7.8-2.4-1.8-4.8-2.7-7.2-2.7h-35.4v45.6Zm227.4 117.9c-13.8 0-27-2.4-39.6-7.2-12.4-5-23.4-12.2-33-21.6-9.6-9.6-17.2-21.1-22.8-34.5-5.4-13.6-8.1-29.1-8.1-46.5 0-15 2.8-28.9 8.4-41.7 5.6-12.8 13.3-24 23.1-33.6 10-9.8 21.6-17.4 34.8-22.8 13.2-5.4 27.5-8.1 42.9-8.1 19.2 0 36.6 4.2 52.2 12.6 15.6 8.2 27.2 19.5 34.8 33.9l-43.5 33.3a48.1 48.1 0 0 0-18.9-20.1c-8.4-5.2-17.3-7.8-26.7-7.8-7 0-13.4 1.4-19.2 4.2-5.8 2.8-10.9 6.7-15.3 11.7-4.2 5-7.5 11-9.9 18-2.2 6.8-3.3 14.3-3.3 22.5 0 8.4 1.2 16 3.6 22.8a56.4 56.4 0 0 0 9.9 17.7c4.4 4.8 9.6 8.6 15.6 11.4 6 2.6 12.7 3.9 20.1 3.9 9.4 0 18.4-2.3 27-6.9 8.6-4.8 16.4-11.5 23.4-20.1v57c-16 14.6-34.5 21.9-55.5 21.9Zm52.5-72.9h-39.3v-42h87.6V215h-48.3v-71.4Z"/></g><g fill="#1C1C1C" filter="url(#b)"><path fill-rule="evenodd" d="M0 2h213v213H0V2Zm14.86 14.86v183.28h183.28V16.86H14.86Zm13.45 13.45h156.38v156.38H28.31V30.31Zm14.86 14.86v126.66h80.57L57.65 108.5l66.1-63.33H43.16Zm93.62 0V92.4l-17.17 16.16 17.17 16.61v46.65h33.04V45.17H136.8ZM79.13 108.5l42.8 41.01v-18.03l-23.84-23.05 23.84-22.44V67.5l-42.8 41.01Z" clip-rule="evenodd"/><path fill-rule="evenodd" d="M14.86 200.14V16.86h183.28v183.28H14.86ZM28.31 30.31h156.38v156.38H28.31V30.31Z" clip-rule="evenodd"/><path d="m121.93 149.51-42.8-41.01 42.8-41.01v18.5l-23.84 22.44 23.84 23.05v18.03Z"/></g><defs><filter id="a" width="808.43" height="217.5" x="229.9" y=".2" color-interpolation-filters="sRGB" filterUnits="userSpaceOnUse"><feFlood flood-opacity="0" result="BackgroundImageFix"/><feBlend in="SourceGraphic" in2="BackgroundImageFix" result="shape"/><feColorMatrix in="SourceAlpha" result="hardAlpha" values="0 0 0 0 0 0 0 0 0 0 0 0 0 0 0 0 0 0 127 0"/><feOffset dx="4"/><feGaussianBlur stdDeviation="3.5"/><feComposite in2="hardAlpha" k2="-1" k3="1" operator="arithmetic"/><feColorMatrix values="0 0 0 0 0.0495605 0 0 0 0 0.0463815 0 0 0 0 0.0465128 0 0 0 1 0"/><feBlend in2="shape" result="effect1_innerShadow_38458_461"/><feColorMatrix in="SourceAlpha" result="hardAlpha" values="0 0 0 0 0 0 0 0 0 0 0 0 0 0 0 0 0 0 127 0"/><feOffset dx="-4"/><feGaussianBlur stdDeviation="4"/><feComposite in2="hardAlpha" k2="-1" k3="1" operator="arithmetic"/><feColorMatrix values="0 0 0 0 0.240544 0 0 0 0 0.238852 0 0 0 0 0.238852 0 0 0 1 0"/><feBlend in2="effect1_innerShadow_38458_461" result="effect2_innerShadow_38458_461"/></filter><filter id="b" width="221" height="213" x="-4" y="2" color-interpolation-filters="sRGB" filterUnits="userSpaceOnUse"><feFlood flood-opacity="0" result="BackgroundImageFix"/><feBlend in="SourceGraphic" in2="BackgroundImageFix" result="shape"/><feColorMatrix in="SourceAlpha" result="hardAlpha" values="0 0 0 0 0 0 0 0 0 0 0 0 0 0 0 0 0 0 127 0"/><feOffset dx="4"/><feGaussianBlur stdDeviation="3.5"/><feComposite in2="hardAlpha" k2="-1" k3="1" operator="arithmetic"/><feColorMatrix values="0 0 0 0 0.0495605 0 0 0 0 0.0463815 0 0 0 0 0.0465128 0 0 0 1 0"/><feBlend in2="shape" result="effect1_innerShadow_38458_461"/><feColorMatrix in="SourceAlpha" result="hardAlpha" values="0 0 0 0 0 0 0 0 0 0 0 0 0 0 0 0 0 0 127 0"/><feOffset dx="-4"/><feGaussianBlur stdDeviation="4"/><feComposite in2="hardAlpha" k2="-1" k3="1" operator="arithmetic"/><feColorMatrix values="0 0 0 0 0.240544 0 0 0 0 0.238852 0 0 0 0 0.238852 0 0 0 1 0"/><feBlend in2="effect1_innerShadow_38458_461" result="effect2_innerShadow_38458_461"/></filter></defs></svg>