<svg width="102" height="102" viewBox="0 0 102 102" fill="none" xmlns="http://www.w3.org/2000/svg">
<rect x="0.802734" y="0.837891" width="100.394" height="100.394" rx="50.1969" fill="#FF0040"/>
<path d="M64.6334 52.3968C64.4835 52.5507 63.9177 53.2084 63.3906 53.7495C60.3004 57.1524 52.2389 62.7222 48.0195 64.4223C47.3787 64.6955 45.7587 65.2737 44.8931 65.3108C44.0637 65.3108 43.273 65.1198 42.5186 64.7326C41.5781 64.1915 40.8236 63.3401 40.4102 62.3349C40.144 61.6374 39.7306 59.55 39.7306 59.5129C39.3172 57.2293 39.0898 53.5187 39.0898 49.4183C39.0898 45.5115 39.3172 41.9521 39.6557 39.634C39.6945 39.5969 40.1079 37.003 40.56 36.1145C41.3894 34.4913 43.0095 33.4834 44.7432 33.4834H44.8931C46.0222 33.5232 48.3967 34.5311 48.3967 34.5682C52.3887 36.2709 60.2642 41.5676 63.4293 45.0871C63.4293 45.0871 64.3208 45.9916 64.7083 46.5565C65.3129 47.3681 65.6127 48.3733 65.6127 49.3785C65.6127 50.5004 65.2742 51.5454 64.6334 52.3968Z" fill="white"/>
</svg>
