<svg width="58" height="71" viewBox="0 0 58 71" fill="none" xmlns="http://www.w3.org/2000/svg">
    <path d="M0 0H57.9078V57.1751H0V0Z" fill="#1C1C1C"/>
    <path d="M28.9539 35.1522L46.6511 52.6256L28.9539 70.0989L11.2566 52.6256L28.9539 35.1522Z" fill="#1C1C1C"/>
    <path d="M38.468 33.3485L38.45 25.1929H44.0544L44.0727 29.2784L47.1944 25.1934L52.7814 25.1929V33.366H47.2127L47.1944 29.2444L44.0437 33.3664L38.468 33.3485Z" fill="white"/>
    <path d="M25.112 28.1747V25.2281H37.1375V28.174L33.9272 28.1923L33.909 33.4016H28.3401V28.1747H25.112Z" fill="white"/>
    <path d="M5.35321 33.3656V25.1929L12.7099 25.2107L13.6697 26.9191C14.1976 27.8587 14.6387 28.6282 14.65 28.629C14.6613 28.6298 15.1309 27.8571 15.6937 26.9118L16.7169 25.1932H23.7994V33.3656H18.2655L18.2637 31.34C18.2619 29.4242 18.2586 29.3191 18.2016 29.4002C18.1685 29.4473 17.6208 30.3548 16.9846 31.417L15.8279 33.3481L13.1381 33.3664L10.7274 29.3069L10.7091 33.3656H5.35321Z" fill="white"/>
</svg>
