<svg xmlns="http://www.w3.org/2000/svg" width="395" height="441" fill="none"><g clip-path="url(#a)"><path fill="#F7F9FD" d="m109.01 9.04 284.95 87.94-102.9 340.7L6.13 349.73z"/><path stroke="#6A7291" d="M.33.63H298.4v356.05H.33z" transform="matrix(0.955967 0.295021 -0.288969 0.956873 108.878 8.34056)"/><g clip-path="url(#b)"><path fill="#F7F9FD" d="m103.9.52 285.9 88.23L286.62 430.4.72 342.17z"/><path stroke="#6A7291" d="m245.08 120.21-24.7-83.29L265.98 51l-20.9 69.21ZM291.82 134.64l-24.7-83.3 45.6 14.08-20.9 69.22ZM270.53 205.13l-24.7-83.29 45.6 14.07-20.9 69.22ZM96.6 269.56l35.6 120.18-65.77-20.3 30.16-99.88Z"/><path stroke="#6A7291" d="m45.77 288.02 24.48 82.6-45.21-13.95 20.73-68.65ZM131.28 379.26c6.5-20.62 28.62-32.1 49.64-25.57 21 6.48 33 28.44 27 49.27l-76.64-23.7Z"/><path stroke="#6A7291" d="m187.32 396.6-35.45-10.98c3.29-10.03 13.57-15.71 23.22-12.73 9.63 2.97 15.06 13.52 12.23 23.71ZM268.34 413.85l-9.6-2.97 6.96-23.05 23.74 7.32.48.15.14-.48.98-3.22 13.23 4.09-2.37 7.86-5.94-1.83-.48-.15-.15.48-5.01 16.61-.15.48.48.15 5.94 1.83-2.35 7.8-11.83-3.83-.5-.97.1.02-.57-1.06-.35-.67a19.43 19.43 0 0 0-3.73-3.94 28.54 28.54 0 0 0-9.01-4.62Zm14.58.3.3.58.57 1.07.35-1.16 3.33-11.04.15-.48-.48-.14-16.44-5.08-.48-.14-.15.47-1.95 6.49-.15.48.48.15 2.25.69h.01a23.9 23.9 0 0 1 5.11 2.07c1.53.84 2.73 1.58 3.63 2.33a31 31 0 0 1 2.25 2.16c.61.66.98 1.18 1.22 1.55ZM307.9 360.67l-2.33 7.7-23.74-7.33-.47-.15-.15.48-2.23 7.4-.15.47.48.15 2.25.7a66.07 66.07 0 0 1 9.05 3.4 35.14 35.14 0 0 1 5.99 3.5 11.37 11.37 0 0 1 3.21 3.6v.02a8.08 8.08 0 0 1 1.18 3.64v.03a9.86 9.86 0 0 1-.5 3.75c-.21.72-.5 1.46-.89 2.17l-.08.15c-.38.68-.61 1.11-.84 1.4h-.01l-.19.23-6.9-2.12c.34-.5.6-1.02.74-1.5.28-.9.34-1.75.07-2.57a6.5 6.5 0 0 0-1.65-2.48 14.71 14.71 0 0 0-4.2-2.6 55.87 55.87 0 0 0-7.25-2.67l-9.6-2.97 7.23-23.96 30.97 9.56ZM282.12 333.66l4.46-14.77 31.04 9.58-2.4 7.92-9.6-2.97-.48-.15-.14.48-1.4 4.61-.08.29.2.2 8.21 8.43-2.44 8.1-9.04-9.68-.42-.44-.35.5-.15.16-.06.06-.17.17a12.76 12.76 0 0 1-3.57 2.05l-.02.01c-.68.29-1.63.4-2.87.46-1.18.04-2.35-.14-3.6-.53a10.47 10.47 0 0 1-6.54-5.46 11.89 11.89 0 0 1-.58-9.02Zm16.06-2 .15-.49-.48-.15-6.36-1.96-.48-.15-.15.48-1.82 6.03a4.08 4.08 0 0 0 .18 3.16 3.8 3.8 0 0 0 5.24 1.62 4.04 4.04 0 0 0 1.9-2.52l1.82-6.03ZM316.47 302.86l.1.16.18.05 7.75 2.4-2.36 7.8-31.03-9.58 2.36-7.8 11.85 3.66 1.29.4-.72-1.15-9-14.25 2.7-8.91 9.15 14.7.2.32.37-.1 21.63-6.42-2.73 9.04-14.3 4.27-.61.18.33.56 2.84 4.67Z"/><path stroke="#6A7291" d="m327.4 271.2-.1.34.3.2 5.88 4.2-2.55 8.46-27.45-21.45 2.72-9.01 34.62-2.29-2.54 8.4-7.22.2-.36.02-.1.34-3.2 10.58Zm-14.15-10.66-1.56.02 1.29.9 8.43 5.9.57.39.2-.66 1.8-5.97.2-.65h-.69l-10.24.07ZM314.84 224.92l.11.04.15-.48c1.03-3.42 2.9-5.88 5.53-7.38a10.6 10.6 0 0 1 8.62-.85c3.08.95 5.33 2.83 6.68 5.56v.01c1.4 2.74 1.55 5.82.51 9.25l-1.74 5.74-.14.48.48.15 9.1 2.8-2.36 7.81-31.03-9.58 4.09-13.55Zm5.34 7.41-.15.48.48.15 6.87 2.12.48.14.14-.47 1.6-5.3a4.4 4.4 0 0 0-.25-3.29 3.79 3.79 0 0 0-2.4-2.09 3.82 3.82 0 0 0-3.13.37h-.01l-.01.01c-1 .6-1.68 1.44-2.03 2.59l-1.6 5.29ZM355.29 203.3l-4.24 14.03-30.92-9.54 2.36-7.8 9.1 2.8.47.15.15-.48 1.73-5.75c1.04-3.42 2.91-5.88 5.54-7.38a10.6 10.6 0 0 1 8.62-.85c3.08.95 5.33 2.84 6.68 5.56 1.35 2.74 1.54 5.84.5 9.26Zm-12.63-6.63-.01.01c-1 .6-1.68 1.45-2.03 2.59l-1.6 5.3-.14.47.48.15 6.87 2.12.47.15.15-.48 1.6-5.3a4.41 4.41 0 0 0-.25-3.29 3.79 3.79 0 0 0-2.4-2.09 3.82 3.82 0 0 0-3.14.37ZM356.58 176.4l4.88-16.14 6.36 1.96-7.37 24.42-31.03-9.58 7.23-23.96 6.37 1.97-4.74 15.68-.14.47.48.15 5 1.55.49.15.14-.48 3.62-11.99 5.91 1.83-3.61 11.98-.15.48.48.15 5.46 1.68.48.15.14-.48ZM342.31 133.95l.12.04.14-.48c1.03-3.43 2.9-5.88 5.53-7.39 2.7-1.49 5.54-1.8 8.62-.85 3.09.96 5.33 2.84 6.68 5.57 1.4 2.75 1.55 5.82.51 9.25l-1.73 5.75-.15.48.48.15 9.1 2.8-2.36 7.8-31.03-9.57 4.1-13.55Zm5.34 7.4-.14.48.47.15 6.87 2.12.48.15.15-.48 1.6-5.29a4.4 4.4 0 0 0-.26-3.3 3.78 3.78 0 0 0-2.4-2.08 3.82 3.82 0 0 0-3.13.37h-.02c-1 .6-1.68 1.45-2.02 2.6l-1.6 5.29ZM382.63 112.78l-4.1 13.58-30.92-9.55 2.36-7.8 9.1 2.8.47.15.15-.48 1.6-5.29c1.03-3.42 2.9-5.88 5.53-7.38a10.6 10.6 0 0 1 8.62-.85c3.08.95 5.33 2.84 6.68 5.57 1.4 2.74 1.54 5.82.5 9.25ZM370 106.15H370l-.01.01c-1 .6-1.68 1.45-2.03 2.6l-1.46 4.83-.14.48.47.14 6.88 2.12.47.15.15-.48 1.46-4.83a4.4 4.4 0 0 0-.25-3.3 3.78 3.78 0 0 0-2.4-2.09 3.82 3.82 0 0 0-3.13.37Zm19.84-16.87-2.36 7.8-31.03-9.57 2.36-7.8 31.03 9.57ZM252.39 385.1v.01a17.18 17.18 0 0 1 1.06 13.15 16.97 16.97 0 0 1-8.14 10.31c-4.04 2.27-8.12 2.75-12.37 1.44-4.26-1.31-7.37-4.01-9.47-8.17a17.18 17.18 0 0 1-1.06-13.15c1.4-4.6 4.11-8.05 8.15-10.31 4.03-2.27 8.1-2.75 12.36-1.44a15.21 15.21 0 0 1 9.47 8.17Zm-9.85 16.76a9.09 9.09 0 0 0 4.56-5.62 8.97 8.97 0 0 0-.7-7.18 9.31 9.31 0 0 0-5.75-4.6c-2.6-.8-5-.62-7.26.6a9.05 9.05 0 0 0-4.54 5.55 9.3 9.3 0 0 0 .68 7.23 9.27 9.27 0 0 0 5.7 4.6 9.2 9.2 0 0 0 7.31-.58ZM263.15 362.88l-4.12 13.63-29.23-9.02 6.41-21.23 5.97 1.84-4.06 13.46-.15.48.48.15 3.89 1.2.48.15.14-.48 1.77-5.86c.97-3.2 2.65-5.4 4.98-6.75a9.04 9.04 0 0 1 7.38-.85 9.07 9.07 0 0 1 5.66 4.87c1.2 2.43 1.36 5.21.4 8.41Zm-6.24-.96.06.01.14-.48c.3-.97.2-1.87-.22-2.78v-.02a3.33 3.33 0 0 0-4.67-1.5l-.02.02a3.8 3.8 0 0 0-1.66 2.2l-1.65 5.46-.14.48.48.14 5.57 1.72.48.15.14-.48 1.5-4.92ZM261.35 337.54l8.59 2.65-2.2 7.29-29.18-9 4-13.24c.98-3.25 2.75-5.55 5.23-6.98a9.89 9.89 0 0 1 8.1-.76c2.91.9 5 2.68 6.28 5.26 1.32 2.6 1.46 5.49.5 8.69l-1.65 5.46-.15.48.48.15Zm-7.2-2.23.47.15.14-.48 1.51-5c.34-1.1.22-2.13-.24-3.1a3.65 3.65 0 0 0-5.21-1.62 4.14 4.14 0 0 0-1.92 2.44l-1.51 5 .42.13-.15.48.06.02.48.15 5.94 1.83ZM271.28 312.49l.46.14 5.46 3.9-2.38 7.9-25.9-20.23 2.56-8.5 32.6-2.16-2.38 7.9-6.79.2-.36.01-.1.35-3.02 10.01-.15.48Zm-13.11-10.6h-1.57l1.29.9 7.98 5.58.56.4.2-.66 1.7-5.64.2-.65h-.68l-9.68.06ZM286.54 286.3v.02a14.06 14.06 0 0 1-2.28 3.02l-.01.01c-.78.8-1.52 1.42-2.24 2-.72.57-1.31.98-1.71 1.2l-.23.12-3.02-5.5.4-.27.26-.17a12 12 0 0 0 2.05-2.04 9.73 9.73 0 0 0 1.95-3.46c.45-1.48.54-2.83.1-3.97-.41-1.08-1.06-1.83-2.1-2.15a2.72 2.72 0 0 0-2.73.53c-.74.65-1.3 1.73-1.73 3.15l-1.04 3.45-5.8-1.79.9-3c.39-1.29.47-2.39.16-3.3a2.63 2.63 0 0 0-4.23-1.24c-.78.6-1.29 1.7-1.69 3.02a8.16 8.16 0 0 0-.31 3.2 7.8 7.8 0 0 0 .5 2.47l.15.41-5.61 2.85-.06-.12c-.1-.18-.32-.77-.63-1.62-.28-.9-.55-1.75-.64-2.59v-.03c-.15-.86-.16-2-.09-3.46.07-1.43.31-2.8.75-4.25 1-3.33 2.63-5.75 4.91-7.3 2.3-1.55 4.48-1.9 6.57-1.26a6.53 6.53 0 0 1 4.58 4.83l.1 1.26.99.11c.02-.08.1-.22.24-.38.18-.18.52-.56 1.09-1.04a7.55 7.55 0 0 1 1.73-1.16c.59-.27 1.4-.49 2.39-.6.93-.12 1.93.01 3 .35 2.44.75 4.2 2.39 5.28 5.04 1.07 2.63 1.03 5.78-.12 9.58a16.57 16.57 0 0 1-1.83 4.09ZM296.98 237.47a17.18 17.18 0 0 1 1.06 13.15c-1.4 4.6-4.11 8.05-8.14 10.31-4.04 2.27-8.12 2.75-12.37 1.44-4.26-1.31-7.37-4.01-9.47-8.17a17.18 17.18 0 0 1-1.05-13.15c1.39-4.6 4.1-8.05 8.14-10.31 4.04-2.27 8.11-2.75 12.36-1.44a15.21 15.21 0 0 1 9.47 8.17Zm-9.85 16.75a9.09 9.09 0 0 0 4.56-5.62 9.07 9.07 0 0 0-.7-7.18 9.31 9.31 0 0 0-5.75-4.6c-2.59-.8-5-.62-7.26.6a9.04 9.04 0 0 0-4.54 5.55 9.29 9.29 0 0 0 .68 7.23 9.27 9.27 0 0 0 5.7 4.6 9.2 9.2 0 0 0 7.31-.58ZM295.96 203.18a9.68 9.68 0 0 1 1.7-1.18c.59-.28 1.35-.5 2.27-.64.87-.12 1.8-.01 2.77.29 2.2.68 3.87 2.23 4.93 4.75 1.06 2.52 1.17 5.3.22 8.44l-4.25 14.09-29.23-9.02 4-13.23c.92-3.05 2.4-5.2 4.45-6.57 2.05-1.38 4.03-1.68 6-1.06.81.24 1.5.58 2.1 1.04.64.5 1.1.94 1.38 1.39l.06.09c.31.5.56.91.75 1.35.22.5.34.82.41 1.1l.1.47.21.92.65-.68.17-.23.03-.03a13.66 13.66 0 0 1 1.28-1.29Zm-13.7 10.6-.15.48.48.15 5.18 1.6.48.15.14-.48 1.38-4.55a3.4 3.4 0 0 0-.15-2.66 3.03 3.03 0 0 0-1.94-1.56 2.92 2.92 0 0 0-2.49.22 3.63 3.63 0 0 0-1.56 2.1l-1.38 4.56Zm20.14-.46-.08-.02c.18-.9.1-1.74-.27-2.53a3.4 3.4 0 0 0-2.17-1.83 3.37 3.37 0 0 0-2.82.3 4.06 4.06 0 0 0-1.78 2.4l-1.7 5.64-.15.48.48.14 6.02 1.86.48.15.15-.48 1.7-5.63.14-.48ZM307.83 191.47l.45.15 5.47 3.9-2.39 7.9-25.9-20.23 2.56-8.5 32.6-2.16-2.38 7.9-6.79.2-.35.01-.1.34-3.03 10.02-.14.47Zm-13.14-10.54h-1.57l1.3.9 7.98 5.58.56.4.2-.66 1.7-5.63.2-.66h-.68l-9.69.07ZM309.04 144.16l-10.79-3.33 2.2-7.3 29.3 9.04-2.2 7.24-11.17-3.45-.48-.15-.14.48-3.36 11.1-.14.47.48.15 11.18 3.45-2.22 7.35-29.29-9.04 2.2-7.3 10.79 3.34.48.14.14-.47 3.35-11.1.15-.48-.48-.15ZM308.87 105.68l1.95-6.45 29.23 9.02-2.2 7.29-16.37-5.05-1.4-.43.85 1.2 12.75 18.08-1.95 6.45-29.23-9.02 2.2-7.29 16.36 5.05 1.4.43-.85-1.2-12.74-18.08ZM338.5 91.95l4.6-15.23 5.97 1.85-6.94 23-29.29-9.05 6.8-22.54 5.98 1.85-4.46 14.76-.15.48.48.15 4.73 1.46.48.15.15-.48 3.4-11.3 5.53 1.7-3.41 11.3-.15.48.48.15 5.18 1.6.48.15.14-.48Z"/><mask id="c" width="95.9" height="225.69" x="37.29" y="51.67" fill="#000" maskUnits="userSpaceOnUse"><path fill="#fff" d="M37.29 51.67h95.9v225.69h-95.9z"/><path d="M43.3 252.65c.4-1.37.98-2.63 1.73-3.77a12.29 12.29 0 0 1 2.24-2.71 21.5 21.5 0 0 1 2.18-1.7 9.42 9.42 0 0 1 1.71-.96l.66-.25 1.9 3.53-.52.22c-.23.08-.66.3-1.3.67a9.41 9.41 0 0 0-3.39 3.3c-.58.86-1.04 1.8-1.35 2.87-.85 2.8-.6 5.48.76 8.03a10.15 10.15 0 0 0 6.23 5.12c2.8.86 5.47.63 8-.71a10.1 10.1 0 0 0 5.08-6.25 10.85 10.85 0 0 0-.6-7.94c-.26-.61-.5-1.09-.72-1.42l-.38-.44 3.54-1.88c.12.14.27.36.46.65.18.28.47.87.87 1.78a14.6 14.6 0 0 1 1.31 6.3c-.01 1.4-.22 2.78-.63 4.14a14.5 14.5 0 0 1-7.12 8.94 13.82 13.82 0 0 1-11.1 1.07 14 14 0 0 1-8.61-7.15 14.68 14.68 0 0 1-.96-11.44Zm39.35-31.12-1.28 4.24-19.49-6.01 14.94 21.09-1.1 3.66-27.04-8.34 1.28-4.25 19.51 6.02-14.95-21.1 1.1-3.66 27.03 8.35Zm-18.1-37.91 27.03 8.34-1.28 4.25-11.78-3.64-4.03 13.34 11.78 3.64-1.28 4.24-27.03-8.34 1.28-4.24 11.4 3.51 4.03-13.34-11.4-3.51 1.28-4.25Zm26.78-4.81 4.61-15.27 3.87 1.2-5.9 19.5-27.03-8.34 5.78-19.13 3.87 1.2-4.5 14.88 7.14 2.2 3.56-11.79 3.87 1.2-3.56 11.79 8.3 2.56Zm-16.8-28.23 3.27-10.8a9.22 9.22 0 0 1 4.5-5.7 8.57 8.57 0 0 1 6.95-.71 8.66 8.66 0 0 1 5.35 4.52 9.37 9.37 0 0 1 .57 7.25l-1.98 6.56 9.65 2.98-1.28 4.25-27.03-8.35Zm7.13-9.62-1.98 6.57 9.65 2.98 1.98-6.57c.4-1.33.29-2.6-.34-3.84a4.88 4.88 0 0 0-3-2.47 4.85 4.85 0 0 0-3.88.35 4.86 4.86 0 0 0-2.43 2.99Zm27.78-8.1L82.4 124.5l5.24-17.38 3.87 1.2-3.97 13.13 23.17 7.15-1.28 4.24Zm13.47-44.61-1.29 4.24-19.49-6.01 14.94 21.09-1.1 3.66-27.03-8.34 1.28-4.25 19.5 6.02-14.95-21.1 1.1-3.65 27.04 8.34Zm-18.98-35 27.03 8.34-1.28 4.25-10.43-3.22-1.87 6.19 8.68 9-1.4 4.65-8.94-9.52-.42.52a14.32 14.32 0 0 1-3.2 2.21c-.69.31-1.57.52-2.64.61a8.62 8.62 0 0 1-3.29-.37 8.31 8.31 0 0 1-5.15-4.3 9.02 9.02 0 0 1-.53-6.97l3.44-11.4Zm.74 16.15a4.53 4.53 0 0 0 2.79 2.24 4.51 4.51 0 0 0 5.77-3.06l2.16-7.15-8.88-2.74-2.16 7.15a4.52 4.52 0 0 0 .32 3.56Z"/></mask><path fill="#6A7291" d="m45.03 248.88.84.55v-.01l-.84-.54Zm2.24-2.71.65.76-.65-.76Zm3.9-2.66-.37-.93.36.93Zm.65-.25.87-.47-.42-.78-.82.31.37.94Zm1.9 3.53.34.95 1.08-.4-.55-1.02-.87.47Zm-.52.22.33.94.04-.01.03-.02-.4-.91Zm-3.02 1.95.67.74h.01l-.68-.74ZM48.5 251l.83.57v-.02l-.83-.55Zm-.59 10.89.88-.47-.88.47Zm14.23 4.41.47.89-.47-.89Zm5.56-9.4h1-1Zm-.35-2.73-.96.27v.01l.96-.28Zm-.72-2.06.92-.39-.92.4Zm-.73-1.42.84-.55-.04-.05-.04-.04-.76.64Zm-.38-.44-.47-.89-1.1.58.82.95.75-.64Zm3.54-1.88.77-.64-.52-.63-.72.38.47.89Zm.46.65-.84.54.84-.54Zm.87 1.78-.92.4.92-.4Zm.95 2.77-.97.23.97-.23Zm.36 3.53 1 .01h-1Zm-27.46-4.14c.39-1.29.93-2.46 1.62-3.52l-1.68-1.1a15.66 15.66 0 0 0-1.85 4.03l1.9.59Zm1.62-3.53c.7-1.1 1.39-1.92 2.05-2.5l-1.3-1.51c-.86.74-1.67 1.72-2.43 2.93l1.68 1.08Zm2.06-2.5c.74-.65 1.43-1.19 2.08-1.62l-1.12-1.67c-.73.5-1.49 1.09-2.28 1.78l1.32 1.51ZM50 245.3a8.56 8.56 0 0 1 1.52-.86l-.73-1.86c-.55.21-1.2.58-1.9 1.05L50 245.3Zm1.52-.86.65-.25-.73-1.87-.65.26.73 1.86Zm-.6-.71 1.9 3.53 1.76-.94-1.9-3.53-1.75.94Zm2.44 2.12-.57.24.8 1.83.46-.18-.69-1.89Zm-.5.21c-.34.12-.85.4-1.47.75l1 1.73c.65-.37 1-.54 1.13-.59l-.66-1.89Zm-1.47.75c-.7.4-1.33.88-1.9 1.42l1.36 1.46a8.5 8.5 0 0 1 1.55-1.15l-1.01-1.73Zm-1.9 1.4c-.6.56-1.21 1.3-1.82 2.22l1.66 1.11c.56-.82 1.06-1.43 1.5-1.84l-1.34-1.48Zm-1.8 2.2c-.66.94-1.15 2-1.5 3.14l1.91.59c.3-.96.7-1.82 1.23-2.58l-1.65-1.15Zm-1.5 3.14c-.92 3.05-.64 6 .84 8.8l1.76-.94a9.2 9.2 0 0 1-.69-7.27l-1.91-.59Zm.84 8.8a11.15 11.15 0 0 0 6.82 5.6l.58-1.91a9.14 9.14 0 0 1-5.64-4.63l-1.76.93Zm6.82 5.6c3.05.94 5.99.69 8.76-.77l-.94-1.78a9.13 9.13 0 0 1-7.24.64l-.58 1.91Zm8.76-.77a11.09 11.09 0 0 0 5.57-6.84l-1.92-.6a9.1 9.1 0 0 1-4.6 5.66l.95 1.78Zm5.57-6.84c.34-1.15.52-2.3.52-3.45h-2c0 .93-.14 1.89-.44 2.86l1.92.59Zm.52-3.45a10.95 10.95 0 0 0-.4-3.01l-1.91.56c.2.64.3 1.45.3 2.45h2Zm-.4-3c-.22-.8-.48-1.53-.75-2.18l-1.84.78c.24.56.47 1.2.68 1.94l1.92-.54Zm-.75-2.18c-.28-.64-.55-1.18-.81-1.58l-1.67 1.1c.17.26.39.67.64 1.27l1.84-.79Zm-.89-1.67-.38-.45-1.51 1.3.38.44 1.51-1.3Zm-.66 1.08 3.53-1.88-.94-1.77-3.54 1.88.95 1.77ZM68.3 249l.4.56 1.67-1.07c-.2-.3-.37-.56-.53-.76L68.3 249Zm.4.57c.12.2.38.7.78 1.63l1.83-.8a16 16 0 0 0-.94-1.92l-1.68 1.09Zm.79 1.63c.37.84.67 1.7.9 2.6l1.93-.47c-.25-1-.59-1.99-1.01-2.94l-1.82.81Zm.9 2.6c.2.84.32 1.93.32 3.3h2c0-1.46-.12-2.72-.39-3.77l-1.94.48Zm.32 3.29c-.01 1.3-.2 2.58-.6 3.85l1.92.6c.44-1.46.66-2.93.67-4.43l-2-.02Zm-.6 3.85a13.51 13.51 0 0 1-6.63 8.36l.96 1.76a15.5 15.5 0 0 0 7.6-9.53l-1.92-.59Zm-6.63 8.36a12.83 12.83 0 0 1-10.33 1l-.58 1.9c4.14 1.29 8.12.9 11.87-1.14l-.96-1.76Zm-10.33 1a12.99 12.99 0 0 1-8.02-6.66l-1.77.92a15 15 0 0 0 9.21 7.65l.58-1.92Zm-8.02-6.66a13.67 13.67 0 0 1-.88-10.68l-1.91-.6a15.68 15.68 0 0 0 1.02 12.2l1.77-.92Zm37.52-42.1.96.3.29-.96-.96-.3-.29.96Zm-1.28 4.24-.29.96.96.3.29-.96-.96-.3Zm-19.49-6.01.29-.96-2.8-.86 1.7 2.4.81-.58Zm14.94 21.09.95.3.15-.48-.29-.4-.81.58Zm-1.1 3.66-.3.96.96.29.29-.96-.96-.3Zm-27.04-8.34-.95-.3-.3.96.96.3.3-.96Zm1.28-4.25.3-.96-.96-.3-.3.97.96.29Zm19.51 6.02-.29.96 2.8.86-1.7-2.4-.8.58Zm-14.95-21.1-.96-.29-.14.47.28.4.82-.57Zm1.1-3.66.3-.95-.96-.3-.3.96.96.3Zm26.08 8.05-1.28 4.25 1.9.59 1.29-4.25-1.91-.59Zm-.04 3.59-19.49-6.02-.58 1.91 19.5 6.02.57-1.91Zm-20.6-4.49L76 241.43l1.63-1.16-14.94-21.09-1.62 1.15Zm14.8 20.22-1.1 3.66 1.9.6 1.11-3.67-1.9-.59Zm.14 3-27.03-8.34-.58 1.91 27.03 8.34.58-1.9Zm-26.36-7.09 1.28-4.25-1.91-.59-1.28 4.25 1.9.6Zm.04-3.58 19.5 6.02.58-1.91-19.5-6.03-.58 1.92Zm20.6 4.49-14.95-21.1-1.63 1.15 14.96 21.1 1.63-1.16Zm-14.8-20.23 1.1-3.66-1.91-.59-1.1 3.66 1.9.6Zm-.15-3 27.03 8.35.58-1.92-27.03-8.34-.58 1.91Zm9.22-30.52.3-.96-.96-.3-.3.96.96.3Zm27.03 8.34.96.3.29-.96-.96-.3-.29.96Zm-1.28 4.25-.29.95.96.3.29-.96-.96-.3Zm-11.78-3.64.29-.95-.96-.3-.29.96.96.3Zm-4.03 13.34-.96-.3-.28.96.95.3.3-.96Zm11.78 3.64.96.3.29-.97-.96-.29-.29.96ZM85 213.79l-.29.96.96.3.29-.96-.96-.3Zm-27.03-8.34-.96-.3-.29.96.96.3.29-.96Zm1.28-4.24.3-.96-.97-.3-.28.96.95.3Zm11.4 3.51-.28.96.95.3.3-.96-.96-.3Zm4.03-13.34.96.3.29-.96-.96-.3-.29.97Zm-11.4-3.51-.96-.3-.28.96.95.3.29-.97Zm1-3.3 27.02 8.35.58-1.91-27.03-8.35-.58 1.92Zm26.36 7.1-1.29 4.24 1.92.6 1.28-4.25-1.91-.6Zm-.04 3.58-11.78-3.63-.58 1.9 11.78 3.64.58-1.9Zm-13.03-2.97-4.03 13.34 1.92.59 4.03-13.34-1.92-.6Zm-3.36 14.59 11.78 3.63.58-1.91-11.78-3.64-.58 1.92Zm11.12 2.38-1.29 4.25 1.92.59 1.28-4.25-1.91-.59Zm-.04 3.59-27.03-8.35-.58 1.92 27.03 8.34.58-1.91Zm-26.36-7.1 1.28-4.24-1.91-.6-1.29 4.25 1.92.6Zm.03-3.58 11.4 3.52.58-1.91-11.4-3.52-.58 1.91Zm12.65 2.86 4.03-13.34-1.91-.59-4.03 13.34 1.91.59Zm3.36-14.6-11.4-3.51-.58 1.91 11.4 3.52.58-1.91Zm-10.73-2.26 1.28-4.25-1.91-.59-1.29 4.25 1.92.59Zm27.1-9.35-.29.95.96.3.29-.96-.96-.3Zm4.61-15.27.29-.95-.96-.3-.28.96.95.3Zm3.87 1.2.95.3.29-.97-.96-.29-.28.96Zm-5.9 19.5-.29.96.96.3.29-.96-.96-.3Zm-27.03-8.34-.95-.3-.3.97.96.29.3-.96Zm5.78-19.13.29-.96-.96-.29-.28.96.95.3Zm3.87 1.2.95.29.29-.96-.96-.3-.28.97Zm-4.5 14.88-.96-.3-.29.96.96.3.29-.96Zm7.14 2.2-.29.96.96.3.29-.96-.96-.3Zm3.56-11.79.3-.95-.96-.3-.3.96.96.3Zm3.87 1.2.95.3.3-.97-.96-.29-.3.96Zm-3.56 11.79-.96-.3-.29.96.96.3.29-.96Zm9.25 2.85 4.6-15.26-1.9-.59-4.61 15.26 1.9.6Zm3.36-14.6 3.87 1.2.57-1.92-3.86-1.2-.58 1.92Zm3.2-.06-5.9 19.51 1.92.6 5.9-19.52-1.92-.59ZM94.2 183.3l-27.03-8.34-.58 1.91 27.03 8.34.58-1.91Zm-26.36-7.1 5.78-19.12-1.91-.6-5.78 19.14 1.9.59Zm4.53-18.46 3.87 1.2.57-1.92-3.86-1.2-.58 1.92Zm3.2-.06-4.5 14.89 1.92.59 4.5-14.89-1.92-.59Zm-3.83 16.14 7.14 2.2.58-1.91-7.14-2.2-.58 1.9Zm8.39 1.54 3.56-11.8-1.91-.58-3.56 11.8 1.9.58Zm2.32-11.13 3.86 1.2.58-1.92-3.87-1.2-.57 1.92Zm3.2-.06-3.57 11.8 1.91.58 3.56-11.79-1.9-.59Zm-2.9 13.05 8.3 2.55.57-1.9-8.3-2.57-.57 1.92Zm-8.22-26.63-.96-.3-.28.97.95.3.29-.97Zm7.76-16.5.49.89-.49-.88Zm12.31 3.8-.89.46.9-.45Zm-1.4 13.82-.96-.3-.3.96.96.3.3-.96Zm9.64 2.98.96.3.29-.96-.96-.3-.29.96Zm-1.28 4.25-.29.95.96.3.29-.96-.96-.3Zm-21.88-11.4-.96-.3-.29.96.96.3.29-.96Zm9.65 2.98-.3.96.96.3.3-.97-.96-.29Zm1.64-10.4.88-.46-.88.45Zm-15.48 10.77 3.26-10.81-1.91-.6-3.27 10.82 1.92.59Zm3.26-10.81a8.23 8.23 0 0 1 4.03-5.1l-.97-1.76a10.21 10.21 0 0 0-4.97 6.27l1.91.59Zm4.03-5.1a7.58 7.58 0 0 1 6.18-.65l.58-1.91a9.56 9.56 0 0 0-7.73.8l.97 1.75Zm6.18-.65a7.65 7.65 0 0 1 4.75 4.02l1.78-.9a9.66 9.66 0 0 0-5.95-5.03l-.58 1.91Zm4.76 4.02c1.03 2 1.2 4.15.5 6.5l1.91.6c.85-2.82.65-5.5-.64-8l-1.77.9Zm.5 6.5-1.98 6.57 1.9.59 1.99-6.57-1.91-.59Zm-1.32 7.82 9.65 2.98.58-1.92-9.65-2.97-.58 1.9Zm8.99 1.73-1.29 4.24 1.92.6 1.28-4.25-1.91-.6Zm-.04 3.58-27.03-8.34-.58 1.91 27.03 8.34.58-1.91Zm-21.15-17.3-1.98 6.57 1.91.59 1.99-6.57-1.92-.59Zm-1.31 7.82 9.65 2.98.58-1.92-9.65-2.98-.58 1.92Zm10.9 2.31 1.98-6.56-1.92-.6-1.98 6.58 1.91.59Zm1.98-6.56a5.96 5.96 0 0 0-.42-4.6l-1.77.92c.51 1 .6 2 .27 3.09l1.92.59Zm-.42-4.6a5.88 5.88 0 0 0-3.6-2.97l-.58 1.92c1.11.34 1.9.99 2.41 1.98l1.77-.93Zm-3.6-2.97a5.83 5.83 0 0 0-4.64.43l.95 1.76a3.85 3.85 0 0 1 3.11-.27l.58-1.92Zm-4.64.43a5.85 5.85 0 0 0-2.9 3.57l1.9.59a3.87 3.87 0 0 1 1.95-2.4l-.95-1.76Zm25.83-4.25-.3.96.96.3.3-.96-.97-.3Zm-27.03-8.34-.96-.3-.29.96.96.3.29-.96Zm5.24-17.38.3-.95-.96-.3-.3.96.96.3Zm3.87 1.2.95.29.3-.96-.96-.3-.3.97Zm-3.97 13.13-.95-.3-.3.96.96.3.3-.96Zm23.17 7.15.95.3.3-.97-.96-.29-.3.96Zm-1 3.28-27.03-8.34-.57 1.92 27.03 8.34.57-1.91Zm-26.36-7.09 5.25-17.37-1.91-.6-5.25 17.38 1.91.6Zm4-16.71 3.87 1.2.58-1.92-3.87-1.2-.58 1.92Zm3.2-.06-3.96 13.13 1.9.6 3.97-13.14-1.9-.59Zm-3.3 14.38 23.17 7.15.58-1.91-23.17-7.15-.58 1.91Zm22.5 5.9-1.28 4.25 1.91.59 1.28-4.25-1.9-.59Zm13.15-40.06.95.3.3-.96-.97-.3-.28.96Zm-1.29 4.24-.29.96.96.3.29-.96-.96-.3Zm-19.49-6.01.3-.96-2.8-.86 1.69 2.4.81-.58Zm14.94 21.09.96.3.14-.48-.29-.4-.8.58Zm-1.1 3.66-.3.96.96.3.3-.96-.97-.3Zm-27.03-8.34-.96-.3-.29.96.96.3.29-.96Zm1.28-4.25.29-.95-.96-.3-.29.96.96.3Zm19.5 6.02-.28.96 2.8.86-1.7-2.4-.81.58Zm-14.95-21.1-.96-.29-.14.47.29.4.81-.57Zm1.1-3.65.3-.96-.96-.3-.29.96.96.3Zm26.08 8.04-1.28 4.25 1.91.59 1.28-4.25-1.91-.59Zm-.04 3.59-19.49-6.02-.58 1.92 19.5 6.01.57-1.91Zm-20.59-4.48 14.94 21.09 1.62-1.16-14.93-21.09-1.63 1.16Zm14.8 20.21-1.11 3.67 1.91.59 1.1-3.67-1.9-.59Zm.13 3-27.03-8.34-.57 1.91 27.03 8.35.57-1.92Zm-26.36-7.09 1.28-4.24-1.9-.6-1.3 4.25 1.92.6Zm.04-3.58 19.5 6.02.59-1.91-19.51-6.02-.58 1.9Zm20.6 4.49-14.95-21.1-1.62 1.15 14.95 21.1 1.63-1.15Zm-14.8-20.23 1.1-3.66-1.91-.59-1.1 3.66 1.9.6Zm-.14-3 27.03 8.35.57-1.92-27.03-8.34-.57 1.91Zm8.34-27.61.29-.96-.96-.3-.29.96.96.3Zm27.03 8.34.95.3.3-.96-.96-.3-.3.96Zm-1.28 4.25-.3.95.96.3.3-.96-.96-.3Zm-10.43-3.22.3-.96-.97-.3-.28.96.95.3Zm-1.87 6.19-.95-.3-.17.56.4.43.72-.7Zm8.68 9 .95.3.17-.56-.4-.43-.72.7Zm-1.4 4.65-.73.68 1.18 1.26.5-1.65-.95-.3Zm-8.94-9.52.73-.69-.84-.9-.7 1 .81.59Zm-.42.52.7.71.03-.02.02-.02-.75-.67Zm-3.2 2.21-.42-.91.41.91Zm-2.64.61.09 1-.1-1Zm-8.44-4.67.89-.45-.9.45Zm3.65-2.2-.88.46.88-.47Zm6.34 1.95.46.88h.02l-.48-.88Zm4.38-9.93.95.29.3-.96-.96-.3-.3.97Zm-8.88-2.74.29-.96-.96-.3-.29.96.96.3Zm-2.87-4.49 27.03 8.35.58-1.92-27.03-8.34-.58 1.91ZM130 61.3l-1.28 4.24 1.91.59 1.28-4.24-1.9-.6Zm-.04 3.58-10.42-3.22-.58 1.91 10.43 3.22.57-1.91Zm-11.66-2.56-1.87 6.2 1.9.58 1.88-6.19-1.91-.59Zm-1.63 7.18 8.67 9 1.43-1.38-8.67-9-1.43 1.38Zm8.43 8.02-1.4 4.64 1.91.6 1.4-4.65-1.9-.59Zm.28 4.25-8.93-9.52-1.45 1.37 8.93 9.52 1.45-1.37Zm-10.47-9.42-.37.45 1.5 1.33c.2-.23.38-.44.5-.61l-1.63-1.17Zm-.33.4c-.14.15-.5.45-1.13.94l1.22 1.6a15 15 0 0 0 1.34-1.12l-1.43-1.41Zm-1.13.94c-.57.44-1.16.8-1.77 1.07l.83 1.82c.76-.34 1.48-.77 2.16-1.3l-1.22-1.6Zm-1.77 1.07c-.55.25-1.31.44-2.32.52l.2 2a9.15 9.15 0 0 0 2.95-.7l-.83-1.82Zm-2.31.52a7.62 7.62 0 0 1-2.91-.33l-.58 1.91c1.22.38 2.45.52 3.67.42l-.18-2Zm-2.91-.33a7.3 7.3 0 0 1-4.55-3.79l-1.78.9a9.32 9.32 0 0 0 5.75 4.8l.58-1.91Zm-4.55-3.79a8.01 8.01 0 0 1-.47-6.22l-1.91-.6c-.82 2.73-.64 5.32.6 7.73l1.78-.91Zm-.47-6.22 3.44-11.4-1.9-.59-3.45 11.4 1.91.59Zm2.35 4.93a5.53 5.53 0 0 0 3.38 2.73l.58-1.91a3.52 3.52 0 0 1-2.2-1.76l-1.76.94Zm3.38 2.73a5.5 5.5 0 0 0 4.3-.36l-.93-1.77c-.86.45-1.77.53-2.8.22l-.57 1.91Zm4.32-.36a5.5 5.5 0 0 0 2.7-3.37l-1.92-.59a3.51 3.51 0 0 1-1.74 2.2l.96 1.76Zm2.7-3.37 2.15-7.15-1.9-.59-2.17 7.15 1.91.6Zm1.49-8.4-8.88-2.74-.58 1.91 8.88 2.74.58-1.91Zm-10.13-2.08-2.16 7.15 1.92.6 2.16-7.16-1.92-.59Zm-2.16 7.15a5.53 5.53 0 0 0 .4 4.33l1.77-.94a3.52 3.52 0 0 1-.25-2.8l-1.92-.59Z" mask="url(#c)"/><path stroke="#6A7291" d="m205.28 221.59 41.02-23.03-5.41 20.7-14.06 7.73-.45.25.27.44 8.36 14.06-5.33 20.4-24.4-40.55Z"/></g><path stroke="#6A7291" stroke-width="1.19" d="M.4.74h297.88v355.87H.4z" transform="matrix(0.955967 0.295021 -0.288969 0.956873 104.131 0.43155)"/></g><defs><clipPath id="a"><path fill="#fff" d="M0 0h395v441H0z"/></clipPath><clipPath id="b"><path fill="#fff" d="m103.9.52 285.9 88.23L286.62 430.4.72 342.17z"/></clipPath></defs></svg>
