<svg width="91" height="92" fill="none" xmlns="http://www.w3.org/2000/svg"><path d="M45 15.963a30 30 0 1 0 30 30 30.034 30.034 0 0 0-30-30zm13.358 36.649a4.009 4.009 0 0 1-5.67 0L45 44.922l-7.689 7.69a4.01 4.01 0 0 1-5.669-5.67l9.887-9.886a4.908 4.908 0 0 1 6.942 0l9.887 9.887a4.009 4.009 0 0 1 0 5.669z" fill="#EAEAEA"/><path d="M58.358 52.612a4.009 4.009 0 0 1-5.67 0L45 44.922l-7.689 7.69a4.01 4.01 0 0 1-5.669-5.67l9.887-9.886a4.908 4.908 0 0 1 6.942 0l9.887 9.887a4.009 4.009 0 0 1 0 5.669z" fill="#EAEAEA"/><g filter="url(#a)"><path d="M58.829 52.8A4.014 4.014 0 0 1 56 53.962a4.014 4.014 0 0 1-2.828-1.163L45.5 45.181 37.828 52.8A4.003 4.003 0 0 1 35 53.963a4.024 4.024 0 0 1-2.828-1.163A3.97 3.97 0 0 1 31 49.99a3.947 3.947 0 0 1 1.172-2.808l9.865-9.796a4.915 4.915 0 0 1 3.463-1.424c1.3 0 2.545.512 3.463 1.424l9.866 9.796A3.957 3.957 0 0 1 60 49.992a3.957 3.957 0 0 1-1.171 2.808z" fill="#ED131C"/></g><defs><filter id="a" x="22.184" y="29.596" width="41.734" height="30.735" filterUnits="userSpaceOnUse" color-interpolation-filters="sRGB"><feFlood flood-opacity="0" result="BackgroundImageFix"/><feColorMatrix in="SourceAlpha" values="0 0 0 0 0 0 0 0 0 0 0 0 0 0 0 0 0 0 127 0" result="hardAlpha"/><feOffset dx="-2.449"/><feGaussianBlur stdDeviation="3.184"/><feComposite in2="hardAlpha" operator="out"/><feColorMatrix values="0 0 0 0 0.531836 0 0 0 0 0.0249038 0 0 0 0 0.0447835 0 0 0 0.2 0"/><feBlend in2="BackgroundImageFix" result="effect1_dropShadow_46_5177"/><feBlend in="SourceGraphic" in2="effect1_dropShadow_46_5177" result="shape"/><feColorMatrix in="SourceAlpha" values="0 0 0 0 0 0 0 0 0 0 0 0 0 0 0 0 0 0 127 0" result="hardAlpha"/><feOffset dx="-1.525"/><feGaussianBlur stdDeviation="1.525"/><feComposite in2="hardAlpha" operator="arithmetic" k2="-1" k3="1"/><feColorMatrix values="0 0 0 0 1 0 0 0 0 0.3125 0 0 0 0 0.340883 0 0 0 1 0"/><feBlend in2="shape" result="effect2_innerShadow_46_5177"/><feColorMatrix in="SourceAlpha" values="0 0 0 0 0 0 0 0 0 0 0 0 0 0 0 0 0 0 127 0" result="hardAlpha"/><feOffset dx="1.525"/><feGaussianBlur stdDeviation="1.334"/><feComposite in2="hardAlpha" operator="arithmetic" k2="-1" k3="1"/><feColorMatrix values="0 0 0 0 0.8375 0 0 0 0 0.0628125 0 0 0 0 0.094795 0 0 0 1 0"/><feBlend in2="effect2_innerShadow_46_5177" result="effect3_innerShadow_46_5177"/></filter></defs></svg>