<svg width="91" height="92" fill="none" xmlns="http://www.w3.org/2000/svg"><circle cx="46.052" cy="46.015" r="30" fill="#EAEAEA"/><path d="M47.015 26.103c-.008-1.644 1.379-2.967 3-2.694 4.462.75 8.864 2.599 12.015 5.717 3.136 3.103 4.933 7.009 5.7 11.269.291 1.618-1.021 3.019-2.666 3.027l-15.116.075a2.847 2.847 0 0 1-2.861-2.833l-.072-14.561zM50.237 68.678c-1.615.31-3.017-1.004-3.025-2.648l-.072-14.561a2.847 2.847 0 0 1 2.833-2.861l15.117-.075c1.644-.008 2.97 1.384 2.605 2.988-.97 4.273-3.39 8.206-6.498 11.343-3.1 3.127-6.788 5.012-10.96 5.814z" fill="#ED131C"/></svg>