<svg width="93" height="92" fill="none" xmlns="http://www.w3.org/2000/svg"><g filter="url(#a)" fill="#ED131C"><path d="M59.605 42.073a8.666 8.666 0 0 1-7.007 10.062 8.63 8.63 0 0 1-3.93-.203h-.003a8.714 8.714 0 0 1-3.347-1.846 8.637 8.637 0 0 1-2.78-4.961 8.672 8.672 0 0 1 4.898-9.401 8.68 8.68 0 0 1 2.11-.661A8.646 8.646 0 0 1 56.4 36.76a8.641 8.641 0 0 1 3.205 5.313z"/><path d="M49.545 35.063A8.646 8.646 0 0 1 56.4 36.76a8.641 8.641 0 0 1 3.205 5.313 8.666 8.666 0 0 1-7.007 10.062 8.63 8.63 0 0 1-3.93-.203h-.003a8.654 8.654 0 0 1-.847-.295l11.08 6.906c4.216 2.629 9.672-.449 9.603-5.418l-.259-18.57c-.066-4.786-5.248-7.742-9.402-5.363l-11.404 6.532a8.68 8.68 0 0 1 2.11-.661z"/></g><path d="M72.801 48.281c1.775-7.452.296-15.206-4.339-21.35-4.733-6.344-11.932-9.97-19.722-9.97-13.411 0-24.258 10.877-24.751 24.372-8.382.503-14.99 7.653-14.99 16.314 0 8.157 5.917 15.207 13.806 16.314H67.28c6.903 0 12.622-5.64 12.72-12.588v-.201a15.072 15.072 0 0 0-7.198-12.89zm5.227 13.092c-.099 5.841-4.832 10.574-10.749 10.574H23.003c-6.903-1.007-12.03-7.15-12.03-14.3 0-7.956 6.212-14.3 13.903-14.3.592 0 .986-.403.986-1.008 0-12.89 10.256-23.363 22.878-23.363 7.199 0 13.806 3.323 18.145 9.164 4.338 5.84 5.719 13.293 3.747 20.343-.099.503.098.906.493 1.208 4.24 2.316 6.903 6.747 6.903 11.581v.101z" fill="#EAEAEA"/><path d="M78.028 61.373c-.099 5.841-4.832 10.574-10.749 10.574H23.003c-6.903-1.007-12.03-7.15-12.03-14.3 0-7.956 6.212-14.3 13.903-14.3.592 0 .986-.403.986-1.008 0-12.89 10.256-23.363 22.878-23.363 7.199 0 13.806 3.323 18.145 9.164 4.338 5.84 5.719 13.293 3.747 20.343-.099.503.098.906.493 1.208 4.24 2.316 6.903 6.747 6.903 11.581v.101z" fill="#EAEAEA"/><g filter="url(#b)" fill="#ED131C"><path fill-rule="evenodd" clip-rule="evenodd" d="M57.625 48.67c0-.722.385-1.39 1.01-1.752l.615-.357a2.026 2.026 0 0 0 .738-2.766l-1.348-2.33a2.025 2.025 0 0 0-2.77-.74l-.604.351a2.025 2.025 0 0 1-2.032 0l-1.35-.782a2.026 2.026 0 0 1-1.009-1.753v-.554a2.026 2.026 0 0 0-2.026-2.026h-2.698a2.026 2.026 0 0 0-2.026 2.026v.554c0 .723-.385 1.39-1.01 1.753l-1.349.782a2.025 2.025 0 0 1-2.032 0l-.6-.348a2.026 2.026 0 0 0-2.772.743l-1.357 2.36a2.026 2.026 0 0 0 .74 2.761l.62.36a2.026 2.026 0 0 1 1.01 1.752v1.548c0 .722-.385 1.39-1.01 1.752l-.616.358a2.026 2.026 0 0 0-.737 2.765l1.348 2.332c.56.97 1.801 1.3 2.77.739l.604-.35a2.025 2.025 0 0 1 2.032 0l1.35.782a2.026 2.026 0 0 1 1.009 1.752v.554c0 1.118.907 2.025 2.026 2.025h2.698a2.026 2.026 0 0 0 2.026-2.025v-.555c0-.722.385-1.39 1.01-1.752l1.349-.783a2.025 2.025 0 0 1 2.032 0l.604.35c.969.562 2.21.232 2.77-.738l1.348-2.332c.56-.967.23-2.205-.737-2.765l-.617-.358a2.026 2.026 0 0 1-1.009-1.752v-1.58zm-10.96 4.061c.451.116.835-.272.835-.738 0-.466-.4-.825-.81-1.045a1.671 1.671 0 0 1-.877-1.487 1.67 1.67 0 0 1 1.687-1.687c.65 0 1.203.35 1.486.877.22.41.58.81 1.045.81.466 0 .855-.383.739-.835a3.389 3.389 0 0 0-3.27-2.54 3.385 3.385 0 0 0-3.375 3.375 3.388 3.388 0 0 0 2.54 3.27z"/><path d="M46.69 50.948c.41.22.81.579.81 1.045 0 .466-.384.854-.835.738a3.388 3.388 0 0 1-2.54-3.27 3.385 3.385 0 0 1 3.375-3.375 3.389 3.389 0 0 1 3.27 2.54c.116.452-.273.835-.739.835-.466 0-.824-.4-1.045-.81a1.671 1.671 0 0 0-1.486-.877 1.67 1.67 0 0 0-1.688 1.687c0 .65.351 1.204.877 1.487z"/></g><defs><filter id="a" x="40.509" y="28.353" width="29.884" height="31.152" filterUnits="userSpaceOnUse" color-interpolation-filters="sRGB"><feFlood flood-opacity="0" result="BackgroundImageFix"/><feBlend in="SourceGraphic" in2="BackgroundImageFix" result="shape"/><feColorMatrix in="SourceAlpha" values="0 0 0 0 0 0 0 0 0 0 0 0 0 0 0 0 0 0 127 0" result="hardAlpha"/><feOffset dx="1.892"/><feGaussianBlur stdDeviation="1.656"/><feComposite in2="hardAlpha" operator="arithmetic" k2="-1" k3="1"/><feColorMatrix values="0 0 0 0 0.8375 0 0 0 0 0.0628125 0 0 0 0 0.094795 0 0 0 1 0"/><feBlend in2="shape" result="effect1_innerShadow_46_5109"/><feColorMatrix in="SourceAlpha" values="0 0 0 0 0 0 0 0 0 0 0 0 0 0 0 0 0 0 127 0" result="hardAlpha"/><feOffset dx="-1.892"/><feGaussianBlur stdDeviation="1.892"/><feComposite in2="hardAlpha" operator="arithmetic" k2="-1" k3="1"/><feColorMatrix values="0 0 0 0 1 0 0 0 0 0.3125 0 0 0 0 0.340883 0 0 0 1 0"/><feBlend in2="effect1_innerShadow_46_5109" result="effect2_innerShadow_46_5109"/></filter><filter id="b" x="26.644" y="30.117" width="37.212" height="38.688" filterUnits="userSpaceOnUse" color-interpolation-filters="sRGB"><feFlood flood-opacity="0" result="BackgroundImageFix"/><feColorMatrix in="SourceAlpha" values="0 0 0 0 0 0 0 0 0 0 0 0 0 0 0 0 0 0 127 0" result="hardAlpha"/><feOffset dx="-2.248"/><feGaussianBlur stdDeviation="2.922"/><feComposite in2="hardAlpha" operator="out"/><feColorMatrix values="0 0 0 0 0.531836 0 0 0 0 0.0249038 0 0 0 0 0.0447835 0 0 0 0.2 0"/><feBlend in2="BackgroundImageFix" result="effect1_dropShadow_46_5109"/><feBlend in="SourceGraphic" in2="effect1_dropShadow_46_5109" result="shape"/><feColorMatrix in="SourceAlpha" values="0 0 0 0 0 0 0 0 0 0 0 0 0 0 0 0 0 0 127 0" result="hardAlpha"/><feOffset dx="1.4"/><feGaussianBlur stdDeviation="1.225"/><feComposite in2="hardAlpha" operator="arithmetic" k2="-1" k3="1"/><feColorMatrix values="0 0 0 0 0.8375 0 0 0 0 0.0628125 0 0 0 0 0.094795 0 0 0 1 0"/><feBlend in2="shape" result="effect2_innerShadow_46_5109"/><feColorMatrix in="SourceAlpha" values="0 0 0 0 0 0 0 0 0 0 0 0 0 0 0 0 0 0 127 0" result="hardAlpha"/><feOffset dx="-1.4"/><feGaussianBlur stdDeviation="1.4"/><feComposite in2="hardAlpha" operator="arithmetic" k2="-1" k3="1"/><feColorMatrix values="0 0 0 0 1 0 0 0 0 0.3125 0 0 0 0 0.340883 0 0 0 1 0"/><feBlend in2="effect2_innerShadow_46_5109" result="effect3_innerShadow_46_5109"/></filter></defs></svg>