<svg width="91" height="92" fill="none" xmlns="http://www.w3.org/2000/svg"><path d="M44.999 42.67a3.307 3.307 0 0 1 0 6.611 3.307 3.307 0 0 1 0-6.61zm-13.224 0a3.307 3.307 0 0 1 0 6.611 3.307 3.307 0 0 1 0-6.61zm26.448 0a3.307 3.307 0 0 1 0 6.611 3.307 3.307 0 0 1 0-6.61zm7.993 24.508c-9.853 9.852-25.194 11.621-37.032 4.274a3.319 3.319 0 0 0-2.755-.345l-9.633 3.07 3.065-9.642a3.302 3.302 0 0 0-.345-2.755c-8.738-14.074-4.412-32.565 9.664-41.301 14.076-8.738 32.569-4.412 41.307 9.662 7.352 11.836 5.578 27.176-4.275 37.028l.004.009z" fill="#EAEAEA"/><g filter="url(#a)" fill="#ED131C"><path fill-rule="evenodd" clip-rule="evenodd" d="M37.26 45.293c.101-1.307.509-2.421 1.222-3.293a10.65 10.65 0 0 1 2.955-2.227c.916-.485 1.375-1.211 1.375-2.18 0-.678-.204-1.21-.611-1.646-.408-.436-1.02-.63-1.783-.63-1.121 0-2.395.581-3.821 1.695-1.427 1.114-2.65 2.615-3.668 4.552a13.753 13.753 0 0 0-1.477 6.199c0 2.421.56 4.261 1.68 5.569 1.172 1.307 2.599 1.937 4.28 1.937 1.58 0 2.904-.484 3.974-1.404 1.07-.92 1.579-2.083 1.579-3.487 0-1.453-.51-2.663-1.58-3.632a6.408 6.408 0 0 0-.475-.392c-.952-.707-2.01-1.06-3.141-1.06h-.51zm15.588 0c.153-1.356.51-2.421 1.172-3.244.662-.824 1.63-1.598 2.903-2.276.917-.485 1.376-1.163 1.376-2.18 0-.678-.204-1.259-.611-1.646-.408-.436-.968-.63-1.784-.63-.815 0-1.783.34-2.852.969-1.07.678-2.038 1.55-2.955 2.663a16.217 16.217 0 0 0-2.293 3.971 13.88 13.88 0 0 0-.866 4.843c0 2.373.56 4.213 1.682 5.569 1.12 1.356 2.547 1.985 4.279 1.985 1.58 0 2.904-.435 3.973-1.404 1.07-.968 1.58-2.13 1.58-3.535 0-1.453-.51-2.663-1.58-3.632a5.988 5.988 0 0 0-1.24-.874 4.974 4.974 0 0 0-2.326-.579h-.458z"/><path d="M38.482 42c-.713.872-1.12 1.986-1.223 3.293h.51c1.132 0 2.19.354 3.14 1.062-1.076-.953-3.65-2.466-2.427-4.355zM54.02 42.049c-.663.823-1.02 1.888-1.172 3.244h.458c.805 0 1.588.193 2.326.58-1.214-1.008-2.371-2.483-1.612-3.824z"/></g><defs><filter id="a" x="24.257" y="30.121" width="37.392" height="30.392" filterUnits="userSpaceOnUse" color-interpolation-filters="sRGB"><feFlood flood-opacity="0" result="BackgroundImageFix"/><feColorMatrix in="SourceAlpha" values="0 0 0 0 0 0 0 0 0 0 0 0 0 0 0 0 0 0 127 0" result="hardAlpha"/><feOffset dx="-1.998"/><feGaussianBlur stdDeviation="2.598"/><feComposite in2="hardAlpha" operator="out"/><feColorMatrix values="0 0 0 0 0.531836 0 0 0 0 0.0249038 0 0 0 0 0.0447835 0 0 0 0.2 0"/><feBlend in2="BackgroundImageFix" result="effect1_dropShadow_46_5174"/><feBlend in="SourceGraphic" in2="effect1_dropShadow_46_5174" result="shape"/><feColorMatrix in="SourceAlpha" values="0 0 0 0 0 0 0 0 0 0 0 0 0 0 0 0 0 0 127 0" result="hardAlpha"/><feOffset dx="1.244"/><feGaussianBlur stdDeviation="1.089"/><feComposite in2="hardAlpha" operator="arithmetic" k2="-1" k3="1"/><feColorMatrix values="0 0 0 0 0.8375 0 0 0 0 0.0628125 0 0 0 0 0.094795 0 0 0 1 0"/><feBlend in2="shape" result="effect2_innerShadow_46_5174"/><feColorMatrix in="SourceAlpha" values="0 0 0 0 0 0 0 0 0 0 0 0 0 0 0 0 0 0 127 0" result="hardAlpha"/><feOffset dx="-1.244"/><feGaussianBlur stdDeviation="1.244"/><feComposite in2="hardAlpha" operator="arithmetic" k2="-1" k3="1"/><feColorMatrix values="0 0 0 0 1 0 0 0 0 0.3125 0 0 0 0 0.340883 0 0 0 1 0"/><feBlend in2="effect2_innerShadow_46_5174" result="effect3_innerShadow_46_5174"/></filter></defs></svg>