<svg width="91" height="92" fill="none" xmlns="http://www.w3.org/2000/svg"><path d="M79.046 27.932a7 7 0 0 0-7-7h-54a7 7 0 0 0-7 7v36a7 7 0 0 0 7 7h54a7 7 0 0 0 7-7v-36z" fill="#EAEAEA"/><g filter="url(#a)"><path d="M40.303 51.566a1 1 0 0 1-.002 1.409l-4.2 4.223a1 1 0 0 1-1.419 0l-9.93-10.001a1 1 0 0 1 0-1.41l10.109-10.163a1 1 0 0 1 1.418 0l4.2 4.222a1 1 0 0 1 0 1.41l-4.506 4.531a1 1 0 0 0-.002 1.41l4.332 4.369zm15.92 5.633a1 1 0 0 1-1.418-.002l-4.183-4.22a1 1 0 0 1 .001-1.41l4.506-4.53a1 1 0 0 0 0-1.41l-4.346-4.37a1 1 0 0 1 0-1.41l4.2-4.223a1 1 0 0 1 1.418 0l9.948 10.001a1 1 0 0 1 0 1.411L56.224 57.2z" fill="#EC131C"/></g><defs><filter id="a" x="17.981" y="30.649" width="51.539" height="31.523" filterUnits="userSpaceOnUse" color-interpolation-filters="sRGB"><feFlood flood-opacity="0" result="BackgroundImageFix"/><feColorMatrix in="SourceAlpha" values="0 0 0 0 0 0 0 0 0 0 0 0 0 0 0 0 0 0 127 0" result="hardAlpha"/><feOffset dx="-1.8"/><feGaussianBlur stdDeviation="2.34"/><feComposite in2="hardAlpha" operator="out"/><feColorMatrix values="0 0 0 0 0.531836 0 0 0 0 0.0249038 0 0 0 0 0.0447835 0 0 0 0.2 0"/><feBlend in2="BackgroundImageFix" result="effect1_dropShadow_46_5119"/><feBlend in="SourceGraphic" in2="effect1_dropShadow_46_5119" result="shape"/><feColorMatrix in="SourceAlpha" values="0 0 0 0 0 0 0 0 0 0 0 0 0 0 0 0 0 0 127 0" result="hardAlpha"/><feOffset dx="1.121"/><feGaussianBlur stdDeviation=".981"/><feComposite in2="hardAlpha" operator="arithmetic" k2="-1" k3="1"/><feColorMatrix values="0 0 0 0 0.8375 0 0 0 0 0.0628125 0 0 0 0 0.094795 0 0 0 1 0"/><feBlend in2="shape" result="effect2_innerShadow_46_5119"/><feColorMatrix in="SourceAlpha" values="0 0 0 0 0 0 0 0 0 0 0 0 0 0 0 0 0 0 127 0" result="hardAlpha"/><feOffset dx="-1.121"/><feGaussianBlur stdDeviation="1.121"/><feComposite in2="hardAlpha" operator="arithmetic" k2="-1" k3="1"/><feColorMatrix values="0 0 0 0 1 0 0 0 0 0.3125 0 0 0 0 0.340883 0 0 0 1 0"/><feBlend in2="effect2_innerShadow_46_5119" result="effect3_innerShadow_46_5119"/></filter></defs></svg>