<svg width="36" height="36" fill="none" xmlns="http://www.w3.org/2000/svg"><path d="M17.761 8.362c-3.909 0-7.079 3.165-7.079 7.069 0 3.903 3.17 7.069 7.08 7.069 3.909 0 7.078-3.166 7.078-7.07-.005-3.902-3.171-7.064-7.079-7.068zm0 12.567a5.502 5.502 0 0 1-5.505-5.498 5.502 5.502 0 0 1 5.505-5.499 5.502 5.502 0 0 1 5.506 5.499 5.509 5.509 0 0 1-5.506 5.498zm0-9.426a2.947 2.947 0 0 0-2.95 2.944c0 .638.207 1.259.59 1.769v.785a2.357 2.357 0 0 0 2.36 2.357A2.357 2.357 0 0 0 20.121 17v-.785a2.942 2.942 0 0 0-.588-4.123 2.956 2.956 0 0 0-1.772-.59zm1.001 3.889a.787.787 0 0 0-.214.539V17a.786.786 0 0 1-1.573 0v-1.07c0-.2-.077-.394-.214-.54a1.374 1.374 0 0 1 .056-1.942 1.378 1.378 0 0 1 1.946.056c.5.53.5 1.357-.001 1.887zm11.422 1.677a3.238 3.238 0 0 0-1.874-2.206 2.933 2.933 0 0 0-.346-.117c-.375-5.625-5.247-9.884-10.882-9.51a10.218 10.218 0 0 0-9.523 9.512c-.118.031-.234.07-.347.116a3.234 3.234 0 0 0-1.874 2.206 5.062 5.062 0 0 0 2.25 5.525l1.704.983 1 2.083c1.979 4.12 6.927 5.857 11.052 3.881a8.276 8.276 0 0 0 3.886-3.88l1-2.084 1.704-.983a5.061 5.061 0 0 0 2.25-5.525zm-1.681 2.537a3.29 3.29 0 0 1-1.354 1.628l-1.915 1.104a.779.779 0 0 0-.315.34l-1.106 2.303a6.715 6.715 0 0 1-12.102 0l-1.106-2.302a.796.796 0 0 0-.314-.34l-1.914-1.105a3.29 3.29 0 0 1-1.358-1.629c-.563-1.38-.203-2.885.784-3.286.167-.067.344-.102.525-.102a.786.786 0 0 0 .78-.785c0-4.772 3.873-8.64 8.652-8.64 4.779 0 8.652 3.868 8.652 8.64 0 .431.348.782.78.785.18.001.358.036.525.102.988.401 1.348 1.906.786 3.287z" fill="#EAEAEA"/><path fill-rule="evenodd" clip-rule="evenodd" d="M28.503 19.605a3.29 3.29 0 0 1-1.354 1.629l-1.915 1.104a.779.779 0 0 0-.315.34l-1.106 2.303a6.715 6.715 0 0 1-12.102 0l-1.106-2.302a.796.796 0 0 0-.314-.34l-1.914-1.105a3.29 3.29 0 0 1-1.358-1.629c-.563-1.38-.203-2.885.784-3.286.167-.067.344-.102.525-.102a.786.786 0 0 0 .78-.785c0-4.772 3.873-8.64 8.652-8.64 4.779 0 8.652 3.868 8.652 8.64 0 .431.348.782.78.785.18.001.358.036.525.102.988.401 1.348 1.906.786 3.287zm-17.82-4.174c0-3.904 3.17-7.07 7.078-7.07 3.908.005 7.074 3.167 7.08 7.07 0 3.903-3.17 7.069-7.08 7.069-3.909 0-7.079-3.166-7.079-7.07z" fill="#EAEAEA"/><g filter="url(#a)"><circle cx="18.157" cy="15.812" r="6.386" fill="#ED131C"/></g><path d="M18.757 16.237c0-.237.089-.465.248-.639a1.655 1.655 0 0 0 .001-2.237 1.575 1.575 0 0 0-2.257-.067 1.654 1.654 0 0 0-.066 2.304c.16.172.249.401.249.64v1.269c0 .514.409.93.912.93a.922.922 0 0 0 .913-.93v-1.27z" fill="#EAEAEA"/><defs><filter id="a" x="8.804" y="7.283" width="17.058" height="17.058" filterUnits="userSpaceOnUse" color-interpolation-filters="sRGB"><feFlood flood-opacity="0" result="BackgroundImageFix"/><feColorMatrix in="SourceAlpha" values="0 0 0 0 0 0 0 0 0 0 0 0 0 0 0 0 0 0 127 0" result="hardAlpha"/><feOffset dx="-.824"/><feGaussianBlur stdDeviation="1.071"/><feComposite in2="hardAlpha" operator="out"/><feColorMatrix values="0 0 0 0 0.531836 0 0 0 0 0.0249038 0 0 0 0 0.0447835 0 0 0 0.2 0"/><feBlend in2="BackgroundImageFix" result="effect1_dropShadow_46_5269"/><feBlend in="SourceGraphic" in2="effect1_dropShadow_46_5269" result="shape"/><feColorMatrix in="SourceAlpha" values="0 0 0 0 0 0 0 0 0 0 0 0 0 0 0 0 0 0 127 0" result="hardAlpha"/><feOffset dx="-.513"/><feGaussianBlur stdDeviation=".513"/><feComposite in2="hardAlpha" operator="arithmetic" k2="-1" k3="1"/><feColorMatrix values="0 0 0 0 1 0 0 0 0 0.3125 0 0 0 0 0.340883 0 0 0 1 0"/><feBlend in2="shape" result="effect2_innerShadow_46_5269"/><feColorMatrix in="SourceAlpha" values="0 0 0 0 0 0 0 0 0 0 0 0 0 0 0 0 0 0 127 0" result="hardAlpha"/><feOffset dx=".513"/><feGaussianBlur stdDeviation=".449"/><feComposite in2="hardAlpha" operator="arithmetic" k2="-1" k3="1"/><feColorMatrix values="0 0 0 0 0.8375 0 0 0 0 0.0628125 0 0 0 0 0.094795 0 0 0 1 0"/><feBlend in2="effect2_innerShadow_46_5269" result="effect3_innerShadow_46_5269"/></filter></defs></svg>