<svg width="91" height="95" fill="none" xmlns="http://www.w3.org/2000/svg"><path d="M64.012 66.63c.288.09.588.136.89.136a2.89 2.89 0 0 0 2.06-.862 2.93 2.93 0 0 0 .848-2.077V31.223a2.946 2.946 0 0 0-.841-2.09 2.907 2.907 0 0 0-2.957-.734L24.689 40.997a3.478 3.478 0 0 0-1.75 1.28 3.518 3.518 0 0 0-.66 2.075v6.336a3.518 3.518 0 0 0 .67 2.073 3.478 3.478 0 0 0 1.761 1.271L64.012 66.63z" fill="#EAEAEA"/><path fill-rule="evenodd" clip-rule="evenodd" d="M64.902 66.766c-.302 0-.602-.046-.89-.136L24.71 54.032a3.478 3.478 0 0 1-1.76-1.27 3.518 3.518 0 0 1-.672-2.074v-6.336a3.518 3.518 0 0 1 .66-2.075 3.478 3.478 0 0 1 1.751-1.28l39.323-12.598c.288-.09.588-.136.89-.135a2.889 2.889 0 0 1 2.067.868 2.93 2.93 0 0 1 .84 2.09v32.605a2.948 2.948 0 0 1-.847 2.077 2.907 2.907 0 0 1-2.06.862z" fill="#EAEAEA"/><path fill-rule="evenodd" clip-rule="evenodd" d="M22.195 61.972a11.718 11.718 0 0 1-5.937-4.288A11.851 11.851 0 0 1 14 50.688v-6.336a11.86 11.86 0 0 1 2.26-6.995 11.728 11.728 0 0 1 5.935-4.29L61.519 20.48a11.124 11.124 0 0 1 9.988 1.654 11.255 11.255 0 0 1 3.37 3.993 11.339 11.339 0 0 1 1.212 5.096v32.604c0 1.773-.416 3.522-1.213 5.103a11.253 11.253 0 0 1-3.375 3.997 11.155 11.155 0 0 1-4.806 2.027 11.121 11.121 0 0 1-5.197-.384l-8.175-2.626-8.278-2.625-10.348-3.335-12.5-4.011zm42.707 4.794c-.302 0-.602-.046-.89-.136L24.71 54.032a3.478 3.478 0 0 1-1.76-1.27 3.518 3.518 0 0 1-.672-2.074v-6.336a3.518 3.518 0 0 1 .66-2.075 3.478 3.478 0 0 1 1.751-1.28l39.323-12.598c.288-.09.588-.136.89-.135a2.889 2.889 0 0 1 2.067.868 2.93 2.93 0 0 1 .84 2.09v32.605a2.948 2.948 0 0 1-.847 2.077 2.907 2.907 0 0 1-2.06.862z" fill="#EAEAEA"/><path d="M20.884 58.255 17.09 75.34c-.248 1.313.616 2.592 1.92 2.842L28.49 80a2.421 2.421 0 0 0 2.822-1.933l3.384-14.914c-1.32 0-9.758-3.266-13.812-4.9z" fill="#EAEAEA"/><g filter="url(#a)" fill="#ED131C"><path d="M59.06 46.081c.543 3.04-.535 5.984-2.604 7.903a8.199 8.199 0 0 1-4.147 2.07 8.185 8.185 0 0 1-3.813-.22h-.002a8.526 8.526 0 0 1-3.254-1.85 8.74 8.74 0 0 1-2.72-4.946c-.597-3.341.765-6.568 3.25-8.443a8.209 8.209 0 0 1 3.501-1.529c2.443-.437 4.833.259 6.657 1.718a8.729 8.729 0 0 1 3.131 5.297z"/><path d="M49.271 39.066c2.443-.437 4.833.259 6.657 1.718a8.729 8.729 0 0 1 3.131 5.297c.544 3.04-.534 5.984-2.602 7.903a8.199 8.199 0 0 1-4.148 2.07 8.185 8.185 0 0 1-3.813-.22h-.002a8.322 8.322 0 0 1-.823-.297l10.387 6.666c4.224 2.71 9.764-.382 9.673-5.4l-.326-18.044c-.087-4.798-5.305-7.73-9.449-5.31L47.23 39.714a8.207 8.207 0 0 1 2.042-.648z"/></g><defs><filter id="a" x="40.489" y="32.583" width="29.136" height="30.627" filterUnits="userSpaceOnUse" color-interpolation-filters="sRGB"><feFlood flood-opacity="0" result="BackgroundImageFix"/><feBlend in="SourceGraphic" in2="BackgroundImageFix" result="shape"/><feColorMatrix in="SourceAlpha" values="0 0 0 0 0 0 0 0 0 0 0 0 0 0 0 0 0 0 127 0" result="hardAlpha"/><feOffset dx="1.892"/><feGaussianBlur stdDeviation="1.656"/><feComposite in2="hardAlpha" operator="arithmetic" k2="-1" k3="1"/><feColorMatrix values="0 0 0 0 0.8375 0 0 0 0 0.0628125 0 0 0 0 0.094795 0 0 0 1 0"/><feBlend in2="shape" result="effect1_innerShadow_46_5102"/><feColorMatrix in="SourceAlpha" values="0 0 0 0 0 0 0 0 0 0 0 0 0 0 0 0 0 0 127 0" result="hardAlpha"/><feOffset dx="-1.892"/><feGaussianBlur stdDeviation="1.892"/><feComposite in2="hardAlpha" operator="arithmetic" k2="-1" k3="1"/><feColorMatrix values="0 0 0 0 1 0 0 0 0 0.3125 0 0 0 0 0.340883 0 0 0 1 0"/><feBlend in2="effect1_innerShadow_46_5102" result="effect2_innerShadow_46_5102"/></filter></defs></svg>