<svg width="91" height="92" fill="none" xmlns="http://www.w3.org/2000/svg"><g filter="url(#a)" fill="#EAEAEA"><path d="M39.728 28.983H52.22v-5.307H39.728v5.307zM21.14 75.963c-2.244 0-4.162-.754-5.754-2.262C13.796 72.193 13 70.376 13 68.25V53.27h21.942v-.09c0 1.14.382 2.071 1.146 2.795.764.723 1.733 1.085 2.907 1.085H53.07c1.189 0 2.168-.362 2.936-1.085.77-.724 1.154-1.655 1.154-2.795v.09H79v14.98c0 2.126-.8 3.943-2.402 5.451-1.603 1.508-3.533 2.262-5.79 2.262H21.14zM13 53.27V36.744c0-2.14.796-3.968 2.387-5.485 1.592-1.518 3.51-2.276 5.754-2.276h10.446v-5.307c0-2.092.795-3.9 2.387-5.425 1.592-1.526 3.51-2.288 5.754-2.288H52.22c2.244 0 4.162.762 5.754 2.288 1.591 1.525 2.387 3.333 2.387 5.425v5.307h10.445c2.258 0 4.188.758 5.79 2.276C78.2 32.776 79 34.605 79 36.744V53.27H57.16v-1.043c0-1.108-.387-2.024-1.16-2.747-.775-.723-1.756-1.085-2.945-1.085H38.981c-1.174 0-2.14.361-2.9 1.085-.759.723-1.139 1.639-1.139 2.747v1.043H13z"/><path d="M34.942 53.18c0 1.14.382 2.071 1.146 2.795.764.723 1.733 1.085 2.907 1.085H53.07c1.189 0 2.168-.362 2.936-1.085.77-.724 1.154-1.655 1.154-2.795v-.953c0-1.108-.387-2.024-1.16-2.747-.775-.723-1.756-1.085-2.945-1.085H38.981c-1.174 0-2.14.361-2.9 1.085-.759.723-1.139 1.639-1.139 2.747v.953z"/></g><g filter="url(#b)"><path fill-rule="evenodd" clip-rule="evenodd" d="M59.437 48.619a2.462 2.462 0 0 0-1.129 2.07v2.83c0 .838.425 1.618 1.13 2.071l.414.267a2.462 2.462 0 0 1 .854 3.203l-1.297 2.505a2.462 2.462 0 0 1-3.257 1.085l-1.173-.566a2.462 2.462 0 0 0-2.403.147l-1.139.733a2.462 2.462 0 0 0-1.129 2.07v.608a2.462 2.462 0 0 1-2.462 2.463H44.77a2.462 2.462 0 0 1-2.462-2.463v-.406c0-.945-.54-1.806-1.392-2.217l-1.937-.935a2.462 2.462 0 0 0-2.403.147l-.264.17a2.462 2.462 0 0 1-3.358-.672l-1.584-2.293a2.462 2.462 0 0 1 .956-3.616l.59-.285a2.462 2.462 0 0 0 1.392-2.217V50.89c0-.945-.54-1.806-1.392-2.217l-.59-.285a2.462 2.462 0 0 1-.956-3.616l1.584-2.293a2.462 2.462 0 0 1 3.358-.672l.264.17c.721.464 1.631.52 2.403.147l1.937-.935a2.462 2.462 0 0 0 1.392-2.217v-.407a2.462 2.462 0 0 1 2.462-2.462h3.076a2.462 2.462 0 0 1 2.462 2.462v.61c0 .836.425 1.616 1.13 2.07l1.138.732c.721.464 1.631.52 2.403.147l1.173-.566a2.462 2.462 0 0 1 3.257 1.085l1.297 2.505a2.462 2.462 0 0 1-.854 3.203l-.415.267zM46.33 57.633a5.33 5.33 0 0 0 5.325-5.333 5.33 5.33 0 0 0-5.325-5.334 5.33 5.33 0 0 0-5.325 5.334 5.33 5.33 0 0 0 5.325 5.333z" fill="#ED131C"/></g><defs><filter id="a" x="4.645" y="15.963" width="84.119" height="68.595" filterUnits="userSpaceOnUse" color-interpolation-filters="sRGB"><feFlood flood-opacity="0" result="BackgroundImageFix"/><feBlend in="SourceGraphic" in2="BackgroundImageFix" result="shape"/><feColorMatrix in="SourceAlpha" values="0 0 0 0 0 0 0 0 0 0 0 0 0 0 0 0 0 0 127 0" result="hardAlpha"/><feOffset dx="9.764" dy="8.595"/><feGaussianBlur stdDeviation="6.636"/><feComposite in2="hardAlpha" operator="arithmetic" k2="-1" k3="1"/><feColorMatrix values="0 0 0 0 0.550342 0 0 0 0 0.550342 0 0 0 0 0.550342 0 0 0 0.15 0"/><feBlend in2="shape" result="effect1_innerShadow_46_5138"/><feColorMatrix in="SourceAlpha" values="0 0 0 0 0 0 0 0 0 0 0 0 0 0 0 0 0 0 127 0" result="hardAlpha"/><feOffset dx="-8.355"/><feGaussianBlur stdDeviation="10.907"/><feComposite in2="hardAlpha" operator="arithmetic" k2="-1" k3="1"/><feColorMatrix values="0 0 0 0 0.98903 0 0 0 0 0.98903 0 0 0 0 0.98903 0 0 0 0.7 0"/><feBlend in2="effect1_innerShadow_46_5138" result="effect2_innerShadow_46_5138"/></filter><filter id="b" x="23.346" y="30.625" width="41.008" height="42.959" filterUnits="userSpaceOnUse" color-interpolation-filters="sRGB"><feFlood flood-opacity="0" result="BackgroundImageFix"/><feColorMatrix in="SourceAlpha" values="0 0 0 0 0 0 0 0 0 0 0 0 0 0 0 0 0 0 127 0" result="hardAlpha"/><feOffset dx="-2.108"/><feGaussianBlur stdDeviation="2.74"/><feComposite in2="hardAlpha" operator="out"/><feColorMatrix values="0 0 0 0 0.531836 0 0 0 0 0.0249038 0 0 0 0 0.0447835 0 0 0 0.2 0"/><feBlend in2="BackgroundImageFix" result="effect1_dropShadow_46_5138"/><feBlend in="SourceGraphic" in2="effect1_dropShadow_46_5138" result="shape"/><feColorMatrix in="SourceAlpha" values="0 0 0 0 0 0 0 0 0 0 0 0 0 0 0 0 0 0 127 0" result="hardAlpha"/><feOffset dx="1.312"/><feGaussianBlur stdDeviation="1.148"/><feComposite in2="hardAlpha" operator="arithmetic" k2="-1" k3="1"/><feColorMatrix values="0 0 0 0 0.8375 0 0 0 0 0.0628125 0 0 0 0 0.094795 0 0 0 1 0"/><feBlend in2="shape" result="effect2_innerShadow_46_5138"/><feColorMatrix in="SourceAlpha" values="0 0 0 0 0 0 0 0 0 0 0 0 0 0 0 0 0 0 127 0" result="hardAlpha"/><feOffset dx="-1.312"/><feGaussianBlur stdDeviation="1.312"/><feComposite in2="hardAlpha" operator="arithmetic" k2="-1" k3="1"/><feColorMatrix values="0 0 0 0 1 0 0 0 0 0.3125 0 0 0 0 0.340883 0 0 0 1 0"/><feBlend in2="effect2_innerShadow_46_5138" result="effect3_innerShadow_46_5138"/></filter></defs></svg>