<svg width="91" height="92" fill="none" xmlns="http://www.w3.org/2000/svg"><circle cx="45" cy="45.963" r="30" fill="#EAEAEA"/><g filter="url(#a)"><path d="M67.317 55.844a2.808 2.808 0 0 1-2.3 2.391l-9.67 1.778-4.673 8.678a2.804 2.804 0 0 1-2.937 1.47l-.028-.005a2.805 2.805 0 0 1-2.335-2.343l-3.65-22.127a2.848 2.848 0 0 1 1.116-2.76 2.82 2.82 0 0 1 2.976-.247l19.981 10.215a2.81 2.81 0 0 1 1.52 2.95z" fill="#ED131C"/></g><defs><filter id="a" x="34.25" y="36.997" width="36.403" height="38.568" filterUnits="userSpaceOnUse" color-interpolation-filters="sRGB"><feFlood flood-opacity="0" result="BackgroundImageFix"/><feColorMatrix in="SourceAlpha" values="0 0 0 0 0 0 0 0 0 0 0 0 0 0 0 0 0 0 127 0" result="hardAlpha"/><feOffset dx="-2.065"/><feGaussianBlur stdDeviation="2.685"/><feComposite in2="hardAlpha" operator="out"/><feColorMatrix values="0 0 0 0 0.531836 0 0 0 0 0.0249038 0 0 0 0 0.0447835 0 0 0 0.2 0"/><feBlend in2="BackgroundImageFix" result="effect1_dropShadow_46_5128"/><feBlend in="SourceGraphic" in2="effect1_dropShadow_46_5128" result="shape"/><feColorMatrix in="SourceAlpha" values="0 0 0 0 0 0 0 0 0 0 0 0 0 0 0 0 0 0 127 0" result="hardAlpha"/><feOffset dx="-1.286"/><feGaussianBlur stdDeviation="1.286"/><feComposite in2="hardAlpha" operator="arithmetic" k2="-1" k3="1"/><feColorMatrix values="0 0 0 0 1 0 0 0 0 0.3125 0 0 0 0 0.340883 0 0 0 1 0"/><feBlend in2="shape" result="effect2_innerShadow_46_5128"/><feColorMatrix in="SourceAlpha" values="0 0 0 0 0 0 0 0 0 0 0 0 0 0 0 0 0 0 127 0" result="hardAlpha"/><feOffset dx="1.286"/><feGaussianBlur stdDeviation="1.125"/><feComposite in2="hardAlpha" operator="arithmetic" k2="-1" k3="1"/><feColorMatrix values="0 0 0 0 0.8375 0 0 0 0 0.0628125 0 0 0 0 0.094795 0 0 0 1 0"/><feBlend in2="effect2_innerShadow_46_5128" result="effect3_innerShadow_46_5128"/></filter></defs></svg>