<svg width="91" height="92" fill="none" xmlns="http://www.w3.org/2000/svg"><path d="m63.807 24.768-37.968.143c-9.95.037-17.98 9.694-17.934 21.568C7.949 58.352 16.052 67.948 26 67.91c5.963-.022 11.234-3.5 14.492-8.84l8.918-.033c3.3 5.314 8.596 8.753 14.559 8.73 9.95-.037 17.979-9.693 17.934-21.567-.045-11.874-8.147-21.47-18.097-21.432zM33.111 49.9l-4.23.016.018 5.048c.008 1.942-1.306 3.522-2.933 3.528-1.627.006-2.953-1.564-2.96-3.506l-.02-5.047-4.229.016c-1.627.006-2.953-1.564-2.96-3.506-.007-1.942 1.306-3.522 2.934-3.528l4.23-.016-.02-5.047c-.007-1.942 1.306-3.522 2.934-3.528 1.627-.006 2.952 1.564 2.96 3.505l.019 5.048 4.23-.016c1.627-.006 2.953 1.564 2.96 3.506.008 1.941-1.306 3.521-2.933 3.527zm28.979-5.763c-1.599 1.922-4.201 1.932-5.814.022-1.613-1.91-1.625-5.016-.026-6.938 1.598-1.923 4.2-1.932 5.813-.022 1.613 1.91 1.624 5.016.027 6.938zm9.438 11.177c-1.6 1.923-4.201 1.932-5.814.022-1.613-1.91-1.625-5.016-.027-6.938 1.599-1.923 4.201-1.932 5.814-.022 1.613 1.91 1.625 5.017.026 6.938z" fill="#EAEAEA"/><path d="M62.09 44.137c-1.599 1.922-4.201 1.932-5.814.022-1.613-1.91-1.625-5.016-.026-6.938 1.598-1.923 4.2-1.932 5.813-.022 1.613 1.91 1.624 5.016.027 6.938zM71.528 55.314c-1.6 1.923-4.201 1.932-5.814.022-1.613-1.91-1.625-5.016-.027-6.938 1.599-1.923 4.201-1.932 5.814-.022 1.613 1.91 1.625 5.017.026 6.938zM33.11 49.9l-4.23.016.02 5.048c.007 1.942-1.307 3.522-2.934 3.528-1.627.006-2.953-1.564-2.96-3.506l-.02-5.047-4.229.016c-1.627.006-2.953-1.564-2.96-3.506-.007-1.942 1.306-3.522 2.934-3.528l4.23-.016-.02-5.047c-.007-1.942 1.306-3.522 2.934-3.528 1.627-.006 2.952 1.564 2.96 3.505l.019 5.048 4.23-.016c1.627-.006 2.953 1.564 2.96 3.506.008 1.941-1.306 3.521-2.933 3.527z" fill="#EAEAEA"/><g filter="url(#a)" fill="#EA1A23"><path d="m34.043 48.614-4 .016.016 3.995a2.785 2.785 0 0 1-5.573.021l-.015-3.995-3.999.015a2.786 2.786 0 0 1-2.796-2.774 2.785 2.785 0 0 1 2.775-2.794l4-.015-.016-3.996a2.785 2.785 0 0 1 5.573-.021l.015 3.996 4-.015a2.786 2.786 0 0 1 2.796 2.773 2.785 2.785 0 0 1-2.776 2.794z"/><path fill-rule="evenodd" clip-rule="evenodd" d="m34.043 48.614-4 .016.016 3.995a2.785 2.785 0 0 1-5.573.021l-.015-3.995-3.999.015a2.786 2.786 0 0 1-2.796-2.774 2.785 2.785 0 0 1 2.775-2.794l4-.015-.016-3.996a2.785 2.785 0 0 1 5.573-.021l.015 3.996 4-.015a2.786 2.786 0 0 1 2.796 2.773 2.785 2.785 0 0 1-2.776 2.794z"/></g><g filter="url(#b)"><circle cx="58.592" cy="41.71" r="4.628" transform="rotate(-.216 58.592 41.71)" fill="#ED131C"/></g><g filter="url(#c)"><circle cx="68.135" cy="51.18" r="4.628" transform="rotate(-.216 68.135 51.18)" fill="#ED131C"/></g><defs><filter id="a" x="4.076" y="26.47" width="38.788" height="38.772" filterUnits="userSpaceOnUse" color-interpolation-filters="sRGB"><feFlood flood-opacity="0" result="BackgroundImageFix"/><feColorMatrix in="SourceAlpha" values="0 0 0 0 0 0 0 0 0 0 0 0 0 0 0 0 0 0 127 0" result="hardAlpha"/><feOffset dx="-3.778"/><feGaussianBlur stdDeviation="4.911"/><feComposite in2="hardAlpha" operator="out"/><feColorMatrix values="0 0 0 0 0.531836 0 0 0 0 0.0249038 0 0 0 0 0.0447835 0 0 0 0.2 0"/><feBlend in2="BackgroundImageFix" result="effect1_dropShadow_46_5135"/><feBlend in="SourceGraphic" in2="effect1_dropShadow_46_5135" result="shape"/><feColorMatrix in="SourceAlpha" values="0 0 0 0 0 0 0 0 0 0 0 0 0 0 0 0 0 0 127 0" result="hardAlpha"/><feOffset dx="-2.352"/><feGaussianBlur stdDeviation="2.352"/><feComposite in2="hardAlpha" operator="arithmetic" k2="-1" k3="1"/><feColorMatrix values="0 0 0 0 1 0 0 0 0 0.3125 0 0 0 0 0.340883 0 0 0 1 0"/><feBlend in2="shape" result="effect2_innerShadow_46_5135"/><feColorMatrix in="SourceAlpha" values="0 0 0 0 0 0 0 0 0 0 0 0 0 0 0 0 0 0 127 0" result="hardAlpha"/><feOffset dx="2.352"/><feGaussianBlur stdDeviation="2.058"/><feComposite in2="hardAlpha" operator="arithmetic" k2="-1" k3="1"/><feColorMatrix values="0 0 0 0 0.8375 0 0 0 0 0.0628125 0 0 0 0 0.094795 0 0 0 1 0"/><feBlend in2="effect2_innerShadow_46_5135" result="effect3_innerShadow_46_5135"/></filter><filter id="b" x="40.365" y="27.26" width="28.9" height="28.9" filterUnits="userSpaceOnUse" color-interpolation-filters="sRGB"><feFlood flood-opacity="0" result="BackgroundImageFix"/><feColorMatrix in="SourceAlpha" values="0 0 0 0 0 0 0 0 0 0 0 0 0 0 0 0 0 0 127 0" result="hardAlpha"/><feOffset dx="-3.778"/><feGaussianBlur stdDeviation="4.911"/><feComposite in2="hardAlpha" operator="out"/><feColorMatrix values="0 0 0 0 0.531836 0 0 0 0 0.0249038 0 0 0 0 0.0447835 0 0 0 0.2 0"/><feBlend in2="BackgroundImageFix" result="effect1_dropShadow_46_5135"/><feBlend in="SourceGraphic" in2="effect1_dropShadow_46_5135" result="shape"/><feColorMatrix in="SourceAlpha" values="0 0 0 0 0 0 0 0 0 0 0 0 0 0 0 0 0 0 127 0" result="hardAlpha"/><feOffset dx="2.352"/><feGaussianBlur stdDeviation="2.058"/><feComposite in2="hardAlpha" operator="arithmetic" k2="-1" k3="1"/><feColorMatrix values="0 0 0 0 0.8375 0 0 0 0 0.0628125 0 0 0 0 0.094795 0 0 0 1 0"/><feBlend in2="shape" result="effect2_innerShadow_46_5135"/><feColorMatrix in="SourceAlpha" values="0 0 0 0 0 0 0 0 0 0 0 0 0 0 0 0 0 0 127 0" result="hardAlpha"/><feOffset dx="-2.352"/><feGaussianBlur stdDeviation="2.352"/><feComposite in2="hardAlpha" operator="arithmetic" k2="-1" k3="1"/><feColorMatrix values="0 0 0 0 1 0 0 0 0 0.3125 0 0 0 0 0.340883 0 0 0 1 0"/><feBlend in2="effect2_innerShadow_46_5135" result="effect3_innerShadow_46_5135"/></filter><filter id="c" x="49.907" y="36.73" width="28.9" height="28.9" filterUnits="userSpaceOnUse" color-interpolation-filters="sRGB"><feFlood flood-opacity="0" result="BackgroundImageFix"/><feColorMatrix in="SourceAlpha" values="0 0 0 0 0 0 0 0 0 0 0 0 0 0 0 0 0 0 127 0" result="hardAlpha"/><feOffset dx="-3.778"/><feGaussianBlur stdDeviation="4.911"/><feComposite in2="hardAlpha" operator="out"/><feColorMatrix values="0 0 0 0 0.531836 0 0 0 0 0.0249038 0 0 0 0 0.0447835 0 0 0 0.2 0"/><feBlend in2="BackgroundImageFix" result="effect1_dropShadow_46_5135"/><feBlend in="SourceGraphic" in2="effect1_dropShadow_46_5135" result="shape"/><feColorMatrix in="SourceAlpha" values="0 0 0 0 0 0 0 0 0 0 0 0 0 0 0 0 0 0 127 0" result="hardAlpha"/><feOffset dx="2.352"/><feGaussianBlur stdDeviation="2.058"/><feComposite in2="hardAlpha" operator="arithmetic" k2="-1" k3="1"/><feColorMatrix values="0 0 0 0 0.8375 0 0 0 0 0.0628125 0 0 0 0 0.094795 0 0 0 1 0"/><feBlend in2="shape" result="effect2_innerShadow_46_5135"/><feColorMatrix in="SourceAlpha" values="0 0 0 0 0 0 0 0 0 0 0 0 0 0 0 0 0 0 127 0" result="hardAlpha"/><feOffset dx="-2.352"/><feGaussianBlur stdDeviation="2.352"/><feComposite in2="hardAlpha" operator="arithmetic" k2="-1" k3="1"/><feColorMatrix values="0 0 0 0 1 0 0 0 0 0.3125 0 0 0 0 0.340883 0 0 0 1 0"/><feBlend in2="effect2_innerShadow_46_5135" result="effect3_innerShadow_46_5135"/></filter></defs></svg>