<svg width="111" height="21" viewBox="0 0 111 21" fill="none" xmlns="http://www.w3.org/2000/svg">
<path d="M21.6601 10.5346C21.6601 13.5284 21.6601 16.5293 21.6601 19.5231C21.6601 20.4327 21.6746 20.3038 20.8817 20.3109C19.4268 20.3181 17.972 20.3181 16.5171 20.3181C15.9497 20.3181 15.8842 20.2465 15.8697 19.6735C15.8697 19.5088 15.877 19.3369 15.8479 19.1721C15.8333 19.079 15.7678 18.9501 15.6951 18.9215C15.6224 18.9 15.4769 18.9573 15.4187 19.0217C14.8877 19.5875 14.2257 19.9385 13.5128 20.225C12.8799 20.4757 12.2471 20.6834 11.5487 20.6762C10.6322 20.6619 9.70834 20.7263 8.80632 20.49C7.56241 20.1605 6.3767 19.695 5.30737 18.9788C3.9398 18.062 2.92867 16.8373 2.15759 15.4049C1.15373 13.5427 0.848211 11.5445 1.03007 9.4818C1.1901 7.68411 1.74295 6.00102 2.82683 4.49697C3.77976 3.16482 4.94366 2.08334 6.41307 1.34564C8.04979 0.514836 9.78835 0.206865 11.6215 0.364431C12.6763 0.457539 13.6219 0.80132 14.5094 1.33132C14.8222 1.51753 15.0913 1.78969 15.3896 2.01172C15.4842 2.08334 15.6224 2.1478 15.7315 2.13347C15.7897 2.12631 15.8479 1.94726 15.8551 1.83983C15.877 1.60348 15.8697 1.35997 15.8697 1.12362C15.8697 0.808482 16.0297 0.693889 16.3498 0.693889C17.9501 0.701051 19.5505 0.693889 21.1509 0.701051C21.6091 0.701051 21.6455 0.729699 21.6455 1.19524C21.6455 4.31076 21.6455 7.42628 21.6455 10.5418C21.6528 10.5346 21.6601 10.5346 21.6601 10.5346ZM6.90772 10.5633C6.97319 10.95 7.03866 11.3296 7.09686 11.7164C7.28599 12.8337 7.87521 13.7003 8.7845 14.3664C9.92657 15.2043 11.2068 15.4622 12.5962 15.1399C13.7238 14.882 14.6622 14.3019 15.3096 13.3565C16.1752 12.0745 16.3061 10.6492 15.9715 9.17383C15.586 7.4979 13.8911 6.02966 12.3271 5.85061C10.8286 5.67872 9.50466 5.98669 8.38441 7.04668C7.35873 8.00641 6.97319 9.20248 6.90772 10.5633Z" fill="#6E708C"/>
<path d="M79.8272 20.6691C77.2448 20.7622 75.0916 20.0388 73.193 18.6637C71.5199 17.4533 70.3051 15.8561 69.6359 13.9009C69.0394 12.1605 68.9448 10.3843 69.2794 8.57227C69.6723 6.49526 70.6179 4.71189 72.1528 3.24366C73.484 1.9688 75.0698 1.11651 76.8811 0.658132C78.6415 0.206918 80.4237 0.185432 82.1695 0.58651C83.8208 0.973265 85.3412 1.69664 86.6505 2.82825C87.6107 3.65906 88.3818 4.62594 88.9929 5.71458C89.6548 6.88201 90.0331 8.14254 90.1349 9.48186C90.164 9.82564 90.2659 10.1694 90.2295 10.506C90.1349 11.4013 90.0622 12.3181 89.8367 13.1847C89.3129 15.2115 88.2145 16.8875 86.5851 18.2483C85.4648 19.1865 84.2136 19.8526 82.817 20.2537C81.784 20.5545 80.7292 20.7908 79.8272 20.6691ZM75.0189 10.5419C75.0771 11.9241 75.4917 13.1345 76.5538 14.0943C78.3724 15.7415 81.3403 15.6484 83.0206 13.8006C84.0609 12.6618 84.4464 11.301 84.1991 9.76834C84.0391 8.77281 83.6462 7.91335 82.9406 7.17566C81.2966 5.45675 78.5833 5.34216 76.772 6.76742C75.5499 7.72714 75.0844 9.05929 75.0189 10.5419Z" fill="#6E708C"/>
<path d="M26.745 10.6134C26.745 8.14243 26.745 5.6715 26.745 3.20057C26.745 2.48436 26.7523 1.76814 26.745 1.05193C26.745 0.794096 26.8396 0.693827 27.1087 0.693827C28.7818 0.700989 30.4549 0.700989 32.128 0.693827C32.3899 0.693827 32.5063 0.779772 32.499 1.05193C32.4844 1.32409 32.4917 1.60342 32.5063 1.87558C32.5208 2.19071 32.6881 2.27665 32.9209 2.08328C33.8957 1.28112 35.0523 0.865717 36.2525 0.586395C37.802 0.221127 39.366 0.242613 40.9227 0.643692C42.152 0.944501 43.265 1.46734 44.2107 2.3053C45.44 3.39394 46.1165 4.77623 46.3057 6.38771C46.4002 7.16838 46.4439 7.95621 46.4439 8.74405C46.4511 12.454 46.4366 16.1712 46.4439 19.8811C46.4439 20.2034 46.3566 20.3252 46.0147 20.3252C44.3416 20.3109 42.6685 20.318 40.9954 20.3252C40.6753 20.3252 40.5153 20.2249 40.5007 19.9169C40.4935 19.7522 40.4571 19.5875 40.4571 19.4228C40.4571 16.3072 40.4571 13.1917 40.4571 10.0762C40.4571 9.21674 40.4353 8.35729 40.0352 7.5623C39.4751 6.45933 38.544 5.92933 37.3146 5.8219C35.8816 5.70015 34.6522 6.18717 33.5392 7.02514C33.4083 7.12541 33.2628 7.21851 33.1391 7.33311C32.8191 7.61243 32.6372 7.92756 32.6445 8.38594C32.659 12.2033 32.6518 16.0279 32.659 19.8453C32.659 20.1963 32.5572 20.3323 32.1862 20.3252C30.4986 20.3109 28.8182 20.3109 27.1305 20.318C26.8177 20.318 26.7159 20.1819 26.7159 19.9169C26.7086 19.5803 26.7159 19.2509 26.7232 18.9142C26.7305 17.0521 26.7377 15.1899 26.745 13.335C26.745 12.4254 26.745 11.5229 26.745 10.6134Z" fill="#6E708C"/>
<path d="M63.8064 7.20426C63.1008 6.63845 62.4025 6.16575 61.5586 5.96521C59.1799 5.41373 57.0776 6.1944 55.9938 8.31438C55.019 10.2123 55.2518 12.1031 56.6776 13.7504C57.3541 14.5311 58.2561 14.968 59.2963 15.1685C60.933 15.4765 62.3443 15.0181 63.6245 14.0298C64.141 13.6287 64.1919 13.6931 64.5484 14.2303C65.0721 15.0324 65.6614 15.7916 66.2142 16.5651C66.4906 16.9519 66.7525 17.353 67.0289 17.7397C67.3781 18.2268 67.3126 18.3055 66.8834 18.6278C65.8214 19.43 64.6138 19.96 63.319 20.3324C61.7841 20.7765 60.2202 20.7621 58.6707 20.6261C57.6887 20.5401 56.7139 20.1963 55.7755 19.8669C54.0588 19.2581 52.6985 18.1336 51.5855 16.7299C50.8654 15.8274 50.3562 14.7889 49.9852 13.7003C49.5196 12.3252 49.4178 10.8927 49.5487 9.46749C49.6578 8.26425 50.007 7.10399 50.5599 6.02251C51.5564 4.0959 53.0186 2.59185 54.9826 1.582C56.8594 0.615111 58.8308 0.228356 60.9403 0.350112C62.7152 0.450382 64.3083 1.03768 65.8359 1.86132C66.1633 2.04037 66.4615 2.26956 66.767 2.48442C66.9707 2.63483 67.0144 2.79239 66.8398 3.02158C65.9087 4.29644 64.9994 5.58562 64.0755 6.8748C64.0101 6.98223 63.9155 7.07534 63.8064 7.20426Z" fill="#6E708C"/>
<path d="M93.6917 10.5206C93.6917 7.44087 93.6917 4.36116 93.6917 1.28145C93.6917 0.70132 93.699 0.70132 94.2737 0.694158C95.8886 0.694158 97.4962 0.694158 99.1111 0.694158C99.5694 0.694158 99.6348 0.758617 99.6348 1.21699C99.6421 2.39874 99.6421 3.58049 99.6567 4.76224C99.6567 4.89832 99.7512 5.02724 99.8022 5.16332C99.9185 5.07737 100.071 5.01291 100.151 4.89832C100.835 3.96008 101.504 3.01468 102.181 2.06928C102.457 1.68253 102.734 1.28861 103.039 0.923345C103.141 0.808751 103.33 0.708482 103.483 0.70132C105.534 0.686995 107.578 0.686995 109.63 0.694158C109.753 0.694158 109.877 0.744292 110.001 0.772941C109.957 0.901859 109.935 1.05226 109.863 1.1597C109.186 2.11942 108.502 3.07198 107.826 4.0317C107.091 5.07021 106.356 6.10155 105.636 7.14722C105.411 7.46952 105.149 7.64141 104.741 7.63425C103.265 7.61992 101.781 7.62709 100.304 7.62709C99.6785 7.62709 99.6348 7.6629 99.6348 8.27168C99.6348 11.9745 99.6348 15.6773 99.6348 19.373C99.6348 19.552 99.6203 19.7311 99.6348 19.9101C99.6567 20.1966 99.5403 20.3184 99.242 20.3184C97.5326 20.3112 95.8231 20.3112 94.1136 20.3184C93.8008 20.3184 93.6845 20.2181 93.6917 19.903C93.7063 19.0578 93.6917 18.2055 93.6917 17.3604C93.6917 15.0828 93.6917 12.8053 93.6917 10.5206Z" fill="#6E708C"/>
</svg>
