<svg width="1160" height="1160" viewBox="0 0 1160 1160" fill="none" xmlns="http://www.w3.org/2000/svg">
<g clip-path="url(#clip0_6299_13177)">
<path d="M722.54 665.192L654.999 619.304L613.051 601.186L676.81 492.827L631.08 320.463L579.793 282.285L566.075 272.073L556.545 288.576L375.924 601.377L442.763 647.268L767.644 835.196L722.54 665.192Z" fill="#AF1414"/>
<path d="M302.533 1145.81L1152.37 915.83L924.655 57.5456L857.928 11.7002L8.14783 241.57L235.898 1099.64L302.533 1145.81ZM998.433 826.072L391.408 990.341L228.756 377.28L556.545 288.576L566.075 272.073L579.793 282.285L835.781 213.011L998.433 826.072Z" fill="#AF1414"/>
<path d="M579.793 282.285L566.075 272.073L556.545 288.576M579.793 282.285L835.781 213.011L998.433 826.072L391.408 990.341L228.756 377.28L556.545 288.576M579.793 282.285L631.08 320.463L676.81 492.827L613.051 601.186L654.999 619.304L722.54 665.192L767.644 835.196L442.763 647.268L375.924 601.377L556.545 288.576M302.533 1145.81L1152.37 915.83L924.655 57.5456L857.928 11.7002L8.14783 241.57L235.898 1099.64L302.533 1145.81Z" stroke="#0D1140" stroke-width="1.5"/>
<path d="M655.867 619.197L546.37 555.186L610.123 446.836L564.38 274.475L376.078 601.255L700.984 789.197L655.867 619.197Z" fill="#FF0A47"/>
<path d="M235.876 1099.76L1085.73 869.855L857.949 11.5884L8.09692 241.498L235.876 1099.76ZM931.781 780.09L324.744 944.311L162.044 331.263L769.082 167.042L931.781 780.09Z" fill="#FF0A47"/>
<path d="M655.867 619.197L546.37 555.186L610.123 446.836L564.38 274.475L376.078 601.255L700.984 789.197L655.867 619.197Z" stroke="#0D1140" stroke-width="1.5"/>
<path d="M235.876 1099.76L1085.73 869.855L857.949 11.5884L8.09692 241.498L235.876 1099.76ZM931.781 780.09L324.744 944.311L162.044 331.263L769.082 167.042L931.781 780.09Z" stroke="#0D1140" stroke-width="1.5"/>
<path d="M673.216 491.107L606.64 446.241" stroke="#0D1140" stroke-width="1.5"/>
<path d="M228.499 376.794L162.251 331.353" stroke="#0D1140" stroke-width="1.5"/>
<path d="M758.05 828.451L698.979 787.12" stroke="#0D1140" stroke-width="1.5"/>
<path d="M1149.19 914.171L1080.45 866.199" stroke="#0D1140" stroke-width="1.5"/>
</g>
<defs>
<clipPath id="clip0_6299_13177">
<rect width="1160" height="1160" fill="white"/>
</clipPath>
</defs>
</svg>
