<svg xmlns="http://www.w3.org/2000/svg" xmlns:xlink="http://www.w3.org/1999/xlink" fill="none" viewBox="0 0 116 110"><g filter="url(#a)"><circle cx="61.41" cy="55.27" r="53.77" fill="#f5f5f6"/></g><g fill="#ed131c" filter="url(#b)"><path d="m63.23 20.77-1.55-1.86-1.56 1.86a25 25 0 0 0-3.58 6.27c-2.22 5.25-3.95 12.4-4.72 20.68l-.2 2.2h20.11l-.2-2.2c-.76-8.29-2.5-15.43-4.71-20.68a25 25 0 0 0-3.59-6.27M78.3 23.49l-4.7-2.57 1.83 5.03c2.23 6.14 3.82 13.72 4.5 22.12l.14 1.86h17.1l-.62-2.51A37.6 37.6 0 0 0 78.3 23.49M47.93 25.95l1.82-5.03-4.7 2.57a37.6 37.6 0 0 0-18.24 23.93l-.63 2.5h17.1l.15-1.85c.67-8.4 2.27-15.98 4.5-22.12M43.28 59.88h-17.1l.63 2.51a37.6 37.6 0 0 0 18.25 23.93l4.7 2.57-1.83-5.02c-2.23-6.15-3.83-13.73-4.5-22.13zM71.73 59.88h-20.1l.2 2.2c.76 8.3 2.49 15.44 4.7 20.7a25 25 0 0 0 3.6 6.27l1.55 1.86 1.55-1.86a25 25 0 0 0 3.59-6.28c2.22-5.25 3.95-12.39 4.71-20.68zM97.18 59.88h-17.1l-.16 1.86c-.67 8.4-2.26 15.98-4.5 22.13l-1.82 5.02 4.7-2.57A37.6 37.6 0 0 0 96.55 62.4z"/></g><defs><filter id="a" width="115.66" height="111.39" x="3.89" y="1.5" color-interpolation-filters="sRGB" filterUnits="userSpaceOnUse"><feFlood flood-opacity="0" result="BackgroundImageFix"/><feBlend in="SourceGraphic" in2="BackgroundImageFix" result="shape"/><feColorMatrix in="SourceAlpha" result="hardAlpha" values="0 0 0 0 0 0 0 0 0 0 0 0 0 0 0 0 0 0 127 0"/><feOffset dx="-3.75"/><feGaussianBlur stdDeviation="4.89"/><feComposite in2="hardAlpha" k2="-1" k3="1" operator="arithmetic"/><feColorMatrix values="0 0 0 0 0.98903 0 0 0 0 0.98903 0 0 0 0 0.98903 0 0 0 1 0"/><feBlend in2="shape" result="effect1_innerShadow_556_17955"/><feColorMatrix in="SourceAlpha" result="hardAlpha" values="0 0 0 0 0 0 0 0 0 0 0 0 0 0 0 0 0 0 127 0"/><feOffset dx="4.38" dy="3.86"/><feGaussianBlur stdDeviation="2.98"/><feComposite in2="hardAlpha" k2="-1" k3="1" operator="arithmetic"/><feColorMatrix values="0 0 0 0 0.550342 0 0 0 0 0.550342 0 0 0 0 0.550342 0 0 0 0.15 0"/><feBlend in2="effect1_innerShadow_556_17955" result="effect2_innerShadow_556_17955"/></filter><filter id="b" width="108.81" height="109.81" x="0" y="0" color-interpolation-filters="sRGB" filterUnits="userSpaceOnUse"><feFlood flood-opacity="0" result="BackgroundImageFix"/><feColorMatrix in="SourceAlpha" result="hardAlpha" values="0 0 0 0 0 0 0 0 0 0 0 0 0 0 0 0 0 0 127 0"/><feOffset dx="-7.27"/><feGaussianBlur stdDeviation="9.45"/><feComposite in2="hardAlpha" operator="out"/><feColorMatrix values="0 0 0 0 0.531836 0 0 0 0 0.0249038 0 0 0 0 0.0447835 0 0 0 0.2 0"/><feBlend in2="BackgroundImageFix" result="effect1_dropShadow_556_17955"/><feBlend in="SourceGraphic" in2="effect1_dropShadow_556_17955" result="shape"/><feColorMatrix in="SourceAlpha" result="hardAlpha" values="0 0 0 0 0 0 0 0 0 0 0 0 0 0 0 0 0 0 127 0"/><feOffset dx="4.53"/><feGaussianBlur stdDeviation="3.96"/><feComposite in2="hardAlpha" k2="-1" k3="1" operator="arithmetic"/><feColorMatrix values="0 0 0 0 0.8375 0 0 0 0 0.0628125 0 0 0 0 0.094795 0 0 0 1 0"/><feBlend in2="shape" result="effect2_innerShadow_556_17955"/><feColorMatrix in="SourceAlpha" result="hardAlpha" values="0 0 0 0 0 0 0 0 0 0 0 0 0 0 0 0 0 0 127 0"/><feOffset dx="-4.53"/><feGaussianBlur stdDeviation="4.53"/><feComposite in2="hardAlpha" k2="-1" k3="1" operator="arithmetic"/><feColorMatrix values="0 0 0 0 1 0 0 0 0 0.3125 0 0 0 0 0.340883 0 0 0 1 0"/><feBlend in2="effect2_innerShadow_556_17955" result="effect3_innerShadow_556_17955"/></filter></defs></svg>