<svg xmlns="http://www.w3.org/2000/svg" xmlns:xlink="http://www.w3.org/1999/xlink" fill="none" viewBox="0 0 113 108"><g filter="url(#a)"><circle cx="58.41" cy="53.77" r="53.77" fill="#ecedf0"/></g><g fill="#ed131c" filter="url(#b)"><path d="M57.93 22.34c-8 0-14.5 6.82-14.5 15.25s6.5 17.82 14.5 17.82S72.42 46 72.42 37.59s-6.5-15.25-14.5-15.25"/><path d="M90.08 71.3c-1.57-8.66-9.05-15.17-17.97-15.9-.97-.08-1.9.31-2.66.92a18.3 18.3 0 0 1-22.99.02 3.8 3.8 0 0 0-2.76-.89c-8.7 1.02-15.83 7.34-17.42 15.8v.09l-.01.08a6.24 6.24 0 0 0 3.59 6.7c4.9 2.25 14.07 5.22 28.07 5.22 14.07 0 23.4-2.97 28.49-5.22a6.3 6.3 0 0 0 3.66-6.82"/></g><defs><filter id="a" width="115.66" height="111.39" x=".89" y="0" color-interpolation-filters="sRGB" filterUnits="userSpaceOnUse"><feFlood flood-opacity="0" result="BackgroundImageFix"/><feBlend in="SourceGraphic" in2="BackgroundImageFix" result="shape"/><feColorMatrix in="SourceAlpha" result="hardAlpha" values="0 0 0 0 0 0 0 0 0 0 0 0 0 0 0 0 0 0 127 0"/><feOffset dx="-3.75"/><feGaussianBlur stdDeviation="4.89"/><feComposite in2="hardAlpha" k2="-1" k3="1" operator="arithmetic"/><feColorMatrix values="0 0 0 0 0.98903 0 0 0 0 0.98903 0 0 0 0 0.98903 0 0 0 1 0"/><feBlend in2="shape" result="effect1_innerShadow_556_17947"/><feColorMatrix in="SourceAlpha" result="hardAlpha" values="0 0 0 0 0 0 0 0 0 0 0 0 0 0 0 0 0 0 127 0"/><feOffset dx="4.38" dy="3.86"/><feGaussianBlur stdDeviation="2.98"/><feComposite in2="hardAlpha" k2="-1" k3="1" operator="arithmetic"/><feColorMatrix values="0 0 0 0 0.550342 0 0 0 0 0.550342 0 0 0 0 0.550342 0 0 0 0.15 0"/><feBlend in2="effect1_innerShadow_556_17947" result="effect2_innerShadow_556_17947"/></filter><filter id="b" width="101.81" height="98.81" x="0" y="3.43" color-interpolation-filters="sRGB" filterUnits="userSpaceOnUse"><feFlood flood-opacity="0" result="BackgroundImageFix"/><feColorMatrix in="SourceAlpha" result="hardAlpha" values="0 0 0 0 0 0 0 0 0 0 0 0 0 0 0 0 0 0 127 0"/><feOffset dx="-7.27"/><feGaussianBlur stdDeviation="9.45"/><feComposite in2="hardAlpha" operator="out"/><feColorMatrix values="0 0 0 0 0.531836 0 0 0 0 0.0249038 0 0 0 0 0.0447835 0 0 0 0.2 0"/><feBlend in2="BackgroundImageFix" result="effect1_dropShadow_556_17947"/><feBlend in="SourceGraphic" in2="effect1_dropShadow_556_17947" result="shape"/><feColorMatrix in="SourceAlpha" result="hardAlpha" values="0 0 0 0 0 0 0 0 0 0 0 0 0 0 0 0 0 0 127 0"/><feOffset dx="4.53"/><feGaussianBlur stdDeviation="3.96"/><feComposite in2="hardAlpha" k2="-1" k3="1" operator="arithmetic"/><feColorMatrix values="0 0 0 0 0.8375 0 0 0 0 0.0628125 0 0 0 0 0.094795 0 0 0 1 0"/><feBlend in2="shape" result="effect2_innerShadow_556_17947"/><feColorMatrix in="SourceAlpha" result="hardAlpha" values="0 0 0 0 0 0 0 0 0 0 0 0 0 0 0 0 0 0 127 0"/><feOffset dx="-4.53"/><feGaussianBlur stdDeviation="4.53"/><feComposite in2="hardAlpha" k2="-1" k3="1" operator="arithmetic"/><feColorMatrix values="0 0 0 0 1 0 0 0 0 0.3125 0 0 0 0 0.340883 0 0 0 1 0"/><feBlend in2="effect2_innerShadow_556_17947" result="effect3_innerShadow_556_17947"/></filter></defs></svg>