<svg xmlns="http://www.w3.org/2000/svg" fill="none" viewBox="0 0 82 20"><path fill="#fff" d="M12.54 10.29c-.02-2.1 1.76-3.13 1.84-3.18a4 4 0 0 0-3.12-1.65c-1.32-.13-2.6.77-3.27.77-.68 0-1.71-.75-2.83-.73a4.18 4.18 0 0 0-3.5 2.08c-1.52 2.56-.39 6.32 1.07 8.4.72 1 1.57 2.14 2.68 2.1 1.09-.05 1.5-.68 2.8-.68 1.3 0 1.69.68 2.82.65 1.17-.02 1.9-1.02 2.6-2.04a8.27 8.27 0 0 0 1.2-2.36c-.03-.01-2.27-.84-2.3-3.36ZM10.4 4.1c.58-.7.98-1.68.87-2.66-.85.03-1.9.57-2.51 1.26a3.49 3.49 0 0 0-.9 2.57c.95.07 1.93-.46 2.54-1.17ZM57.5 2.32h1.56c.32 0 .57.08.75.24a.8.8 0 0 1 .18 1 .65.65 0 0 1-.18.23l-.1.06.06.02.13.09a.83.83 0 0 1 .3.37.87.87 0 0 1-.24 1c-.2.17-.48.26-.83.26H57.5V2.32Zm1.63 1.8h-.95v.89h.95c.14 0 .25-.04.33-.12a.44.44 0 0 0 .12-.33.44.44 0 0 0-.13-.3.42.42 0 0 0-.32-.14Zm.18-.63c.07-.07.1-.15.1-.25s-.03-.2-.1-.25a.34.34 0 0 0-.25-.1h-.88v.69h.88c.1 0 .2-.03.25-.1ZM55.35 4.19H52.8c.03.23.15.43.34.6a1 1 0 0 0 .68.25c.2 0 .37-.04.54-.13.16-.09.28-.17.35-.25l.1-.13.44.44a1.55 1.55 0 0 1-.53.45 2.08 2.08 0 0 1-.9.23c-.46 0-.86-.17-1.2-.5a1.7 1.7 0 0 1-.5-1.23c0-.46.16-.86.49-1.18.33-.33.72-.5 1.18-.5.46 0 .84.16 1.14.47.3.3.46.68.46 1.14l-.04.34ZM53.8 2.83a.92.92 0 0 0-.63.22c-.16.14-.27.33-.33.56h1.9a.91.91 0 0 0-.93-.78ZM48.79 2.93v-.61h2.92v.6H50.6V5.6h-.68V2.93h-1.12ZM47.56 2.32h.61v3.27h-.68V3.44l-1.7 2.15h-.62V2.32h.69v2.14l1.7-2.14ZM44.29 3.17c0 .15-.05.28-.13.4a.62.62 0 0 1-.25.22l-.13.06.07.02.15.08a.8.8 0 0 1 .35.38.86.86 0 0 1-.3 1.03c-.24.2-.57.3-.99.3a1.77 1.77 0 0 1-1.25-.52l-.04-.07.44-.44.1.12a1.28 1.28 0 0 0 .75.29c.23 0 .4-.04.51-.13a.38.38 0 0 0 .17-.31.38.38 0 0 0-.17-.32.85.85 0 0 0-.5-.12h-.38V3.6h.37c.18 0 .31-.03.4-.1.1-.07.15-.16.15-.27 0-.11-.05-.2-.14-.27a.66.66 0 0 0-.4-.1c-.14 0-.27.02-.4.07a.94.94 0 0 0-.27.15l-.09.08-.44-.44.13-.14c.06-.05.2-.12.4-.21s.43-.13.66-.13c.38 0 .68.09.9.27.22.18.33.4.33.65ZM39.42 5.92l.14-.33-1.33-3.27h.71l.96 2.38.95-2.38h.71l-1.46 3.6c-.17.4-.34.7-.5.85a.84.84 0 0 1-.62.25 1.86 1.86 0 0 1-.43-.06l-.05-.01v-.62c.11.05.23.07.34.07.26 0 .45-.16.58-.48ZM36.29 5.65a1.46 1.46 0 0 1-1.01-.4l-.05-.04V7h-.68v-4.7h.68v.38l.13-.12c.06-.05.18-.12.37-.2.18-.08.37-.12.56-.12.43 0 .8.16 1.12.5.32.33.48.73.48 1.2s-.16.87-.48 1.2c-.32.34-.7.5-1.12.5Zm.62-2.47a.92.92 0 0 0-.69-.32c-.26 0-.49.1-.69.32-.2.21-.3.47-.3.77 0 .3.1.56.3.77.2.21.43.32.7.32.25 0 .48-.1.68-.32.2-.21.3-.47.3-.77 0-.3-.1-.56-.3-.77ZM34 2.32v.6h-1.6V5.6h-.68V2.32h2.29ZM30.77 5.59h-.68v-.34a1.4 1.4 0 0 1-.65.36c-.11.03-.23.04-.34.04-.33 0-.6-.1-.83-.29a.86.86 0 0 1-.33-.66c0-.27.09-.5.26-.67.17-.19.4-.3.7-.35l1.19-.2a.57.57 0 0 0-.2-.44.69.69 0 0 0-.48-.18c-.18 0-.33.04-.48.11a.8.8 0 0 0-.29.22l-.09.11-.44-.44.06-.07.15-.14.26-.2c.1-.05.21-.1.36-.14.15-.04.3-.06.47-.06.4 0 .72.11.98.35.25.24.38.53.38.87V5.6Zm-1.57-.55c.28 0 .5-.08.65-.25.16-.16.24-.4.24-.7v-.07l-1.06.17a.53.53 0 0 0-.3.15.4.4 0 0 0-.1.3c0 .1.04.2.15.28.1.08.25.12.42.12ZM26.41 3.06l.1.04a2.3 2.3 0 0 1 .48.33c.08.08.15.2.2.34.07.14.1.29.1.45 0 .4-.16.73-.5 1.01-.33.28-.78.42-1.33.42a2.66 2.66 0 0 1-1.18-.27 3.54 3.54 0 0 1-.6-.43l-.06-.08.47-.48.06.06a3.02 3.02 0 0 0 .46.32 1.92 1.92 0 0 0 .85.2c.34 0 .6-.07.8-.23.19-.15.29-.33.29-.55 0-.22-.1-.4-.3-.55-.19-.16-.45-.23-.8-.23h-.57v-.68h.58c.27 0 .49-.07.65-.2a.58.58 0 0 0 .23-.46.56.56 0 0 0-.23-.45 1.03 1.03 0 0 0-.65-.19c-.2 0-.4.04-.6.13-.19.09-.33.17-.43.25l-.13.13-.48-.48a3.12 3.12 0 0 1 .6-.47c.12-.05.27-.11.46-.16s.38-.08.58-.08c.5 0 .9.12 1.2.36.29.24.43.54.43.9a1.13 1.13 0 0 1-.44.9.86.86 0 0 1-.17.12l-.07.03ZM31.7 16.5h-1.63l-.9-2.75h-3.1l-.86 2.75h-1.6l3.1-9.35h1.9l3.1 9.35Zm-2.8-3.9-.8-2.44c-.09-.25-.25-.84-.49-1.76h-.03c-.09.4-.24.98-.45 1.76l-.8 2.44h2.58ZM39.65 13.05c0 1.14-.32 2.05-.96 2.71-.57.6-1.27.9-2.12.9-.9 0-1.56-.33-1.96-.96h-.03v3.55h-1.53v-7.27c0-.72-.02-1.46-.06-2.22h1.35l.09 1.07h.02c.52-.8 1.3-1.2 2.34-1.2.81 0 1.5.3 2.04.93.54.63.82 1.46.82 2.49Zm-1.57.05c0-.65-.15-1.2-.45-1.62a1.59 1.59 0 0 0-1.34-.67 1.7 1.7 0 0 0-1.64 1.33c-.04.2-.07.34-.07.46v1.13c0 .49.16.9.47 1.24.3.34.7.5 1.2.5.58 0 1.03-.21 1.35-.65.32-.43.48-1 .48-1.72ZM47.6 13.05c0 1.14-.32 2.05-.96 2.71-.57.6-1.27.9-2.12.9-.9 0-1.56-.33-1.96-.96h-.03v3.55H41v-7.27c0-.72-.02-1.46-.06-2.22h1.35l.09 1.07h.03c.5-.8 1.28-1.2 2.33-1.2.81 0 1.5.3 2.04.93.54.63.82 1.46.82 2.49Zm-1.57.05c0-.65-.15-1.2-.45-1.62a1.58 1.58 0 0 0-1.34-.67 1.7 1.7 0 0 0-1.64 1.33c-.04.2-.07.34-.07.46v1.13c0 .49.16.9.46 1.24.31.33.71.5 1.2.5.59 0 1.04-.21 1.36-.65.32-.43.48-1 .48-1.72ZM56.49 13.88c0 .8-.29 1.44-.86 1.94-.62.54-1.49.82-2.6.82-1.04 0-1.87-.2-2.5-.58l.36-1.25c.68.4 1.42.6 2.22.6.58 0 1.03-.13 1.36-.39.32-.25.48-.6.48-1.02 0-.38-.13-.7-.4-.96-.26-.26-.7-.5-1.32-.72-1.68-.61-2.52-1.5-2.52-2.68 0-.77.3-1.4.88-1.89.59-.49 1.37-.73 2.35-.73.87 0 1.6.14 2.18.44l-.39 1.22a3.85 3.85 0 0 0-1.83-.43c-.54 0-.97.13-1.27.39a1.1 1.1 0 0 0-.38.84c0 .37.14.68.44.92.25.22.72.46 1.4.72.82.33 1.42.7 1.81 1.14.4.43.59.97.59 1.62ZM61.56 10.88h-1.69v3.27c0 .84.3 1.25.9 1.25.27 0 .5-.02.68-.07l.04 1.14c-.3.11-.7.17-1.2.17-.6 0-1.07-.18-1.41-.54-.35-.37-.52-.97-.52-1.82v-3.4h-1V9.76h1V8.52l1.51-.44v1.68h1.7v1.12ZM69.2 13.07c0 1.04-.3 1.89-.91 2.55a3.3 3.3 0 0 1-2.53 1.03 3.13 3.13 0 0 1-2.43-.98c-.6-.66-.9-1.49-.9-2.49 0-1.04.3-1.9.93-2.56.62-.67 1.46-1 2.51-1a3.2 3.2 0 0 1 2.45.99c.59.63.88 1.45.88 2.46Zm-1.6.05c0-.62-.13-1.15-.4-1.6-.33-.54-.79-.8-1.39-.8-.61 0-1.08.26-1.4.8-.28.45-.42.99-.42 1.63 0 .62.14 1.15.42 1.6.33.54.8.8 1.4.8.58 0 1.04-.27 1.37-.82.28-.45.43-.99.43-1.6ZM74.2 11.08a2.73 2.73 0 0 0-.5-.04c-.53 0-.95.2-1.24.6-.26.34-.39.79-.39 1.32v3.54h-1.53l.01-4.62c0-.77-.02-1.48-.05-2.12h1.33l.06 1.29h.04c.16-.44.42-.8.77-1.07.34-.24.71-.36 1.1-.36.15 0 .28.01.4.03v1.43ZM81.06 12.8c0 .28-.02.5-.06.69h-4.6c.01.66.24 1.17.66 1.52.4.32.9.48 1.51.48.68 0 1.3-.11 1.87-.32l.24 1.04a5.9 5.9 0 0 1-2.32.41 3.4 3.4 0 0 1-2.53-.92 3.36 3.36 0 0 1-.91-2.47c0-1.02.28-1.87.85-2.54.6-.72 1.4-1.08 2.42-1.08 1 0 1.75.36 2.26 1.08.4.57.61 1.28.61 2.12Zm-1.46-.38a2 2 0 0 0-.3-1.15c-.27-.42-.68-.62-1.23-.62-.5 0-.9.2-1.22.6-.25.33-.4.72-.45 1.17h3.2Z"/></svg>
