<svg xmlns="http://www.w3.org/2000/svg" width="122" height="34" viewBox="0 0 122 34" xml:space="preserve"><path fill="none" d="M4 .165h114a4 4 0 0 1 4 4v26a4 4 0 0 1-4 4H4a4 4 0 0 1-4-4v-26a4 4 0 0 1 4-4z"/><path fill="#FFF" d="M24.225 17.519c-.024-2.578 2.165-3.833 2.265-3.891-1.24-1.762-3.161-2.003-3.836-2.022-1.614-.166-3.18.942-4.002.942-.838 0-2.104-.926-3.469-.898-1.756.026-3.399 1.018-4.3 2.557-1.859 3.138-.473 7.75 1.309 10.287.891 1.242 1.932 2.63 3.295 2.581 1.333-.054 1.832-.829 3.44-.829 1.594 0 2.062.829 3.452.798 1.431-.022 2.332-1.248 3.191-2.502 1.03-1.424 1.443-2.826 1.46-2.898-.033-.013-2.779-1.035-2.805-4.125zM21.599 9.936c.717-.874 1.208-2.064 1.072-3.271-1.038.045-2.336.7-3.083 1.555-.661.753-1.252 1.989-1.1 3.15 1.165.086 2.363-.573 3.111-1.434zM37.52 9.204l.082-.039c.055-.023.125-.07.203-.133s.152-.141.23-.23c.078-.086.145-.207.199-.355s.086-.309.086-.48c0-.422-.172-.773-.516-1.055s-.813-.426-1.41-.426c-.227 0-.453.031-.676.094a2.98 2.98 0 0 0-.534.198c-.133.07-.262.156-.387.254-.121.102-.199.168-.238.207s-.066.066-.082.086l.559.559.16-.152c.113-.094.281-.191.508-.293s.457-.152.691-.152c.328 0 .582.074.766.219.188.148.277.324.277.531 0 .215-.09.398-.277.547-.184.148-.438.223-.766.223h-.68v.801h.68c.402 0 .715.09.941.27s.34.395.34.648c0 .258-.113.473-.34.652s-.539.27-.941.27c-.184 0-.367-.023-.551-.07a2.082 2.082 0 0 1-.445-.164c-.113-.063-.223-.133-.324-.211s-.172-.133-.203-.164-.059-.055-.074-.07l-.563.559.082.098c.059.063.148.141.273.23.125.094.266.184.426.27s.363.164.613.227a3.1 3.1 0 0 0 .77.094c.656 0 1.18-.164 1.57-.492s.59-.723.59-1.188c0-.188-.039-.367-.113-.535s-.156-.301-.246-.395a1.562 1.562 0 0 0-.317-.249c-.121-.07-.207-.117-.254-.137s-.086-.035-.109-.047zm5.121 2.961v-2.48c0-.406-.152-.746-.449-1.023-.301-.277-.684-.418-1.152-.418-.188 0-.371.027-.547.078s-.316.109-.422.172a2.543 2.543 0 0 0-.489.395c-.028.031-.047.059-.063.078l.52.52.105-.137c.063-.086.176-.168.34-.254s.352-.129.555-.129c.234 0 .426.07.574.207a.682.682 0 0 1 .227.512l-1.402.242c-.348.059-.621.195-.82.406-.199.215-.297.48-.297.797 0 .289.129.551.387.777s.582.34.973.34a1.725 1.725 0 0 0 .719-.168c.086-.043.164-.09.238-.145s.125-.09.148-.113.043-.043.055-.051v.398l.8-.004zm-1.84-.637a.807.807 0 0 1-.5-.145c-.125-.098-.184-.211-.184-.34 0-.137.043-.25.133-.34a.585.585 0 0 1 .348-.176l1.242-.199v.078c0 .359-.094.633-.277.828s-.438.294-.762.294zm5.64-3.203h-2.68v3.84h.801V9.044h1.879v-.719zm2.68 3.918c.508 0 .945-.191 1.32-.582s.563-.863.563-1.418-.188-1.023-.563-1.414-.813-.586-1.32-.586a1.63 1.63 0 0 0-.66.145c-.219.098-.359.176-.426.234-.066.063-.117.109-.152.145v-.442h-.801v5.52h.801v-2.121l.055.059a1.912 1.912 0 0 0 .418.285c.094.051.211.094.348.125.132.035.273.05.417.05zm-.078-3.277c.305 0 .574.125.809.375s.352.555.352.906-.117.652-.352.902-.504.375-.809.375-.574-.125-.809-.375-.352-.551-.352-.902.118-.656.352-.906.504-.375.809-.375zm3.758 3.597c-.148.375-.375.563-.68.563-.137 0-.27-.027-.402-.082v.723l.055.016c.043.016.113.031.207.043.094.016.191.02.301.02a1 1 0 0 0 .727-.285c.195-.188.391-.52.59-.996l1.723-4.238h-.84l-1.121 2.801-1.121-2.801h-.84l1.563 3.84-.162.396zm5.715-3.238c0-.293-.129-.547-.387-.762-.258-.211-.609-.32-1.051-.32-.273 0-.531.055-.773.156-.242.105-.398.188-.469.25s-.125.117-.16.156l.523.52.102-.09c.07-.063.176-.121.324-.18s.297-.09.453-.09c.207 0 .367.043.477.125s.164.188.164.316-.055.234-.164.316-.27.121-.477.121h-.441v.641h.441c.266 0 .465.051.598.148.133.102.203.223.203.371s-.07.273-.203.371c-.133.102-.332.148-.598.148-.18 0-.355-.043-.531-.129s-.289-.16-.344-.215-.094-.098-.125-.137l-.52.52.055.074a2.036 2.036 0 0 0 1.461.605c.496 0 .887-.109 1.172-.336s.426-.5.426-.82c0-.145-.027-.277-.082-.395a.927.927 0 0 0-.411-.445 1.508 1.508 0 0 0-.18-.09.34.34 0 0 0-.086-.027l.152-.074c.102-.043.203-.129.301-.262s.15-.286.15-.466zm3.843-1-2 2.52v-2.52h-.801v3.84h.719l2-2.52v2.52h.801v-3.84h-.719zm1.442.719h1.32v3.121h.797V9.044h1.32v-.719H63.8v.719zm7.715 1.48.043-.398c0-.539-.18-.984-.539-1.344s-.805-.539-1.344-.539-1 .195-1.383.578-.578.844-.578 1.383c0 .563.199 1.043.594 1.441s.863.598 1.406.598c.203 0 .402-.027.594-.086s.348-.121.465-.191c.121-.07.234-.148.34-.238.109-.09.18-.152.211-.191s.055-.066.07-.09l-.52-.52-.121.148c-.078.098-.215.195-.41.297s-.402.152-.629.152c-.309 0-.574-.098-.801-.297a1.138 1.138 0 0 1-.402-.703h3.004zm-1.844-1.597c.297 0 .539.086.734.258s.316.391.363.66h-2.223c.07-.27.203-.488.398-.66s.439-.258.728-.258zm4.363-.602v3.84h1.922c.406 0 .73-.102.965-.313.234-.207.355-.477.355-.809 0-.125-.023-.246-.07-.355s-.098-.195-.152-.258-.121-.121-.195-.176a2.286 2.286 0 0 0-.156-.102c-.031-.012-.051-.02-.066-.023l.109-.074c.074-.055.148-.148.219-.281s.109-.281.109-.445a.917.917 0 0 0-.324-.719c-.219-.188-.508-.281-.875-.281l-1.841-.004zm1.922 2.125a.5.5 0 0 1 .375.152.524.524 0 0 1 .145.367c0 .156-.047.285-.141.379s-.223.141-.379.141h-1.121V10.45h1.121zm.32-1.043a.399.399 0 0 1-.109.293.412.412 0 0 1-.293.109h-1.039v-.8h1.039a.41.41 0 0 1 .293.105.4.4 0 0 1 .109.293zM43.925 26.795h-2.006l-1.099-3.367H37l-1.047 3.367H34l3.785-11.463h2.337l3.803 11.463zm-3.436-4.779-.994-2.994c-.105-.305-.302-1.025-.593-2.159h-.036a83.01 83.01 0 0 1-.558 2.159l-.976 2.994h3.157zM53.658 22.563c0 1.406-.39 2.518-1.168 3.333-.698.726-1.565 1.089-2.599 1.089-1.117 0-1.919-.391-2.407-1.174h-.036v4.354h-1.883v-8.912c0-.884-.024-1.79-.07-2.721h1.656l.105 1.31h.035c.628-.986 1.581-1.479 2.86-1.479 1 0 1.835.385 2.503 1.155.67.772 1.004 1.787 1.004 3.045zm-1.919.068c0-.805-.185-1.469-.558-1.99-.407-.545-.954-.816-1.64-.816-.465 0-.887.151-1.264.45a2.085 2.085 0 0 0-.741 1.183 2.368 2.368 0 0 0-.087.561v1.377c0 .602.189 1.109.567 1.523.378.414.869.621 1.473.621.709 0 1.262-.268 1.657-.799.395-.534.593-1.237.593-2.11zM63.41 22.563c0 1.406-.39 2.518-1.17 3.333-.697.726-1.563 1.089-2.598 1.089-1.117 0-1.919-.391-2.406-1.174H57.2v4.354h-1.883v-8.912c0-.884-.024-1.79-.07-2.721h1.656l.105 1.31h.035c.627-.986 1.581-1.479 2.86-1.479 1 0 1.834.385 2.504 1.155.668.772 1.003 1.787 1.003 3.045zm-1.919.068c0-.805-.187-1.469-.56-1.99-.407-.545-.952-.816-1.639-.816-.465 0-.887.151-1.265.45a2.085 2.085 0 0 0-.741 1.183 2.421 2.421 0 0 0-.087.561v1.377c0 .602.189 1.109.565 1.523.378.414.869.621 1.476.621.709 0 1.261-.268 1.656-.799.397-.534.595-1.237.595-2.11zM74.311 23.581c0 .976-.348 1.769-1.045 2.381-.766.669-1.832 1.003-3.202 1.003-1.265 0-2.279-.237-3.047-.713l.437-1.531a5.266 5.266 0 0 0 2.723.732c.709 0 1.262-.157 1.658-.469.395-.313.592-.73.592-1.252 0-.466-.162-.857-.488-1.176-.324-.317-.866-.613-1.622-.886-2.059-.749-3.087-1.845-3.087-3.287 0-.942.36-1.715 1.082-2.316.719-.602 1.679-.903 2.879-.903 1.069 0 1.958.182 2.668.544l-.471 1.497c-.663-.352-1.412-.527-2.251-.527-.662 0-1.181.16-1.551.477a1.347 1.347 0 0 0-.472 1.038c0 .453.18.828.541 1.123.313.271.883.566 1.709.884 1.012.397 1.755.861 2.232 1.394.476.531.715 1.195.715 1.987zM80.537 19.907h-2.075v4.013c0 1.021.365 1.531 1.099 1.531.337 0 .615-.029.837-.086l.052 1.395c-.371.136-.859.203-1.465.203-.744 0-1.324-.221-1.744-.662-.418-.443-.629-1.186-.629-2.229v-4.166h-1.236v-1.379h1.236v-1.513l1.851-.544v2.058h2.075v1.379zM89.904 22.595c0 1.271-.373 2.313-1.117 3.13-.779.84-1.815 1.258-3.105 1.258-1.244 0-2.234-.402-2.973-1.207-.739-.805-1.108-1.82-1.108-3.044 0-1.28.38-2.329 1.142-3.146s1.787-1.225 3.078-1.225c1.244 0 2.245.402 3 1.207.722.782 1.083 1.791 1.083 3.027zm-1.955.059c0-.762-.166-1.416-.505-1.961-.396-.66-.96-.989-1.69-.989-.758 0-1.332.33-1.728.989-.339.546-.505 1.21-.505 1.995 0 .763.166 1.416.505 1.96.407.66.976.989 1.71.989.72 0 1.284-.336 1.691-1.006.348-.555.522-1.215.522-1.977zM96.025 20.146a3.43 3.43 0 0 0-.594-.051c-.663 0-1.176.244-1.536.732-.313.431-.471.975-.471 1.633v4.336h-1.882l.018-5.662c0-.953-.024-1.82-.071-2.602h1.641l.069 1.581h.052c.198-.544.513-.981.941-1.31a2.32 2.32 0 0 1 1.361-.442c.175 0 .331.013.472.034v1.751zM104.45 22.271c0 .329-.022.606-.069.833h-5.65c.021.816.295 1.44.82 1.872.477.385 1.092.578 1.848.578.836 0 1.6-.131 2.287-.392l.295 1.274c-.803.342-1.75.512-2.842.512-1.315 0-2.348-.378-3.098-1.131-.75-.754-1.125-1.767-1.125-3.036 0-1.246.35-2.284 1.048-3.112.731-.883 1.72-1.325 2.964-1.325 1.221 0 2.146.442 2.774 1.325.498.703.748 1.571.748 2.602zm-1.796-.476c.012-.544-.111-1.014-.366-1.412-.326-.51-.827-.766-1.501-.766-.616 0-1.117.25-1.499.749-.313.397-.5.874-.558 1.429h3.924z"/></svg>
