<svg width="123" height="35" fill="none" xmlns="http://www.w3.org/2000/svg"><path d="M.305 4.5a4 4 0 0 1 4-4h114a4 4 0 0 1 4 4v26a4 4 0 0 1-4 4h-114a4 4 0 0 1-4-4v-26Z" fill="#A0A8B1"/><path d="M24.53 17.854c-.025-2.579 2.165-3.833 2.265-3.892-1.24-1.762-3.162-2.003-3.837-2.022-1.614-.166-3.18.942-4.002.942-.838 0-2.104-.926-3.469-.899-1.756.027-3.398 1.018-4.3 2.557-1.859 3.138-.472 7.75 1.31 10.287.89 1.243 1.932 2.63 3.294 2.581 1.334-.054 1.832-.829 3.44-.829 1.595 0 2.063.829 3.453.798 1.43-.023 2.332-1.248 3.192-2.502 1.03-1.424 1.443-2.826 1.46-2.898-.034-.011-2.78-1.033-2.807-4.123ZM21.904 10.271C22.62 9.397 23.11 8.207 22.975 7c-1.038.045-2.336.7-3.083 1.555-.662.754-1.252 1.989-1.1 3.15 1.166.085 2.363-.573 3.111-1.434ZM37.824 9.54l.114.042c.046.02.13.068.25.14.12.071.225.153.316.247s.173.225.246.394c.075.167.113.345.113.535 0 .464-.196.86-.59 1.188-.39.328-.914.492-1.57.492a3.13 3.13 0 0 1-.77-.094 2.875 2.875 0 0 1-.613-.226 4.172 4.172 0 0 1-.425-.27 2.006 2.006 0 0 1-.27-.23l-.082-.098.563-.558.07.07c.034.031.101.086.203.164.104.078.213.148.328.21a2.246 2.246 0 0 0 .996.235c.401 0 .715-.09.941-.27.227-.179.34-.396.34-.652 0-.255-.113-.471-.34-.648-.226-.18-.54-.27-.94-.27h-.68v-.8h.68c.325 0 .58-.075.765-.223a.685.685 0 0 0 .277-.547c0-.208-.092-.385-.277-.531-.185-.146-.44-.219-.766-.219-.234 0-.465.05-.691.152a2.24 2.24 0 0 0-.508.293l-.16.153-.559-.559a.882.882 0 0 1 .078-.086c.04-.039.12-.108.242-.207a2.3 2.3 0 0 1 .387-.254 2.56 2.56 0 0 1 .535-.199c.222-.062.447-.094.676-.094.596 0 1.065.142 1.406.426.344.281.516.633.516 1.055 0 .172-.029.332-.086.48a1.115 1.115 0 0 1-.2.356 1.925 1.925 0 0 1-.23.23 1.02 1.02 0 0 1-.203.133l-.082.04Zm5.281 2.96h-.8v-.398a1.561 1.561 0 0 1-.204.168c-.072.052-.152.1-.238.144a1.78 1.78 0 0 1-.719.164c-.39 0-.715-.113-.972-.34-.258-.226-.387-.485-.387-.777 0-.315.099-.58.297-.793.2-.214.474-.349.82-.406l1.402-.242a.666.666 0 0 0-.226-.512.81.81 0 0 0-.574-.207c-.203 0-.388.043-.555.129-.164.083-.277.168-.34.254l-.105.136-.52-.52.063-.077c.028-.034.09-.091.183-.172.097-.084.198-.158.305-.223.107-.065.247-.122.422-.172.177-.052.36-.078.547-.078.468 0 .853.14 1.152.418.3.276.45.617.45 1.024v2.48Zm-1.84-.64c.326 0 .58-.097.762-.29.185-.195.277-.472.277-.832v-.078l-1.242.2a.625.625 0 0 0-.347.175.473.473 0 0 0-.133.344c0 .128.061.24.184.336.125.096.291.144.5.144Zm5.801-3.2v.719h-1.879V12.5h-.8V8.66h2.68Zm2.84 3.918c-.143 0-.283-.017-.418-.05a1.623 1.623 0 0 1-.606-.282 2.205 2.205 0 0 1-.16-.129l-.055-.058v2.12h-.8V8.66h.8v.442a5.38 5.38 0 0 1 .153-.145c.068-.06.21-.138.426-.234.216-.097.436-.145.66-.145.508 0 .948.195 1.32.586.375.388.563.86.563 1.414 0 .555-.188 1.027-.563 1.418-.372.388-.812.582-1.32.582Zm.73-2.902c-.234-.25-.504-.375-.808-.375-.305 0-.575.125-.809.375-.234.25-.352.552-.352.906 0 .352.118.652.352.902.234.25.504.375.809.375.304 0 .574-.125.808-.375.235-.25.352-.55.352-.902 0-.354-.117-.656-.352-.906Zm3.11 3.222.16-.398-1.563-3.84h.84l1.121 2.8 1.121-2.8h.84l-1.723 4.238c-.198.474-.394.806-.59.997a.992.992 0 0 1-.726.285c-.107 0-.207-.007-.3-.02a1.16 1.16 0 0 1-.208-.043l-.055-.015v-.723c.133.052.267.08.403.082.304-.003.531-.19.68-.563ZM59.62 9.66c0 .177-.05.332-.148.465a.732.732 0 0 1-.297.262l-.152.074c.02.005.048.014.082.027.036.013.096.045.18.094a.93.93 0 0 1 .41.445.886.886 0 0 1 .086.395c0 .32-.144.594-.43.82-.284.224-.673.336-1.168.336a2.083 2.083 0 0 1-.973-.238 2.74 2.74 0 0 1-.3-.195 1.537 1.537 0 0 1-.192-.172l-.055-.075.52-.52c.031.037.073.083.125.138.054.054.17.126.344.214.177.086.354.13.53.13.266 0 .466-.05.599-.15a.445.445 0 0 0 .203-.37.445.445 0 0 0-.203-.371c-.133-.1-.333-.149-.598-.149h-.442v-.64h.442c.208 0 .367-.04.476-.121a.382.382 0 0 0 .164-.317.376.376 0 0 0-.164-.316c-.109-.084-.268-.125-.476-.125-.154 0-.305.03-.453.09a1.103 1.103 0 0 0-.324.18l-.102.09-.523-.52c.036-.042.09-.094.16-.157.07-.062.226-.145.468-.25.243-.104.5-.156.774-.156.443 0 .793.107 1.05.32.258.214.387.468.387.762Zm4.004-1h.719v3.84h-.801V9.98l-2 2.52h-.719V8.66h.801v2.52l2-2.52Zm1.601.719V8.66h3.438v.719h-1.32V12.5h-.797V9.379h-1.32Zm7.875 1.48h-3c.042.271.175.506.399.704.226.197.495.296.804.296.224 0 .433-.05.625-.152.196-.102.334-.2.415-.297l.12-.148.52.52-.074.09a2.572 2.572 0 0 1-.547.43 2.44 2.44 0 0 1-.469.19c-.19.057-.386.086-.59.086a1.92 1.92 0 0 1-1.41-.598 1.986 1.986 0 0 1-.59-1.44c0-.54.192-1 .575-1.384a1.887 1.887 0 0 1 1.382-.578c.54 0 .987.18 1.344.54.36.356.54.804.54 1.343l-.044.398Zm-1.84-1.597c-.289 0-.532.086-.73.258a1.25 1.25 0 0 0-.395.66h2.223a1.071 1.071 0 0 0-1.098-.918Zm4.68-.602h1.84c.367 0 .659.095.875.285a.905.905 0 0 1 .324.715.933.933 0 0 1-.11.45.767.767 0 0 1-.218.277l-.11.074a.746.746 0 0 1 .067.027c.028.013.08.047.156.102a.98.98 0 0 1 .195.176.855.855 0 0 1 .153.257c.047.11.07.228.07.356 0 .33-.118.6-.355.809-.235.208-.556.312-.965.312H75.94V8.66Zm1.922 2.121H76.74v1.04h1.12a.512.512 0 0 0 .38-.141.512.512 0 0 0 .14-.38.514.514 0 0 0-.144-.366.493.493 0 0 0-.375-.153Zm.21-.746a.396.396 0 0 0 .11-.293.388.388 0 0 0-.11-.293.396.396 0 0 0-.292-.11h-1.04v.802h1.04c.122 0 .22-.036.293-.106ZM44.23 27.13h-2.006l-1.1-3.367h-3.82l-1.046 3.367h-1.953l3.784-11.463h2.338L44.23 27.13Zm-3.437-4.78-.993-2.993c-.106-.306-.303-1.026-.593-2.16h-.035a81.99 81.99 0 0 1-.559 2.16l-.976 2.993h3.156ZM53.962 22.898c0 1.406-.39 2.517-1.168 3.332-.698.727-1.565 1.09-2.6 1.09-1.116 0-1.918-.392-2.407-1.174h-.035V30.5H45.87v-8.912c0-.884-.024-1.79-.07-2.721h1.656l.105 1.31h.036c.628-.987 1.581-1.48 2.86-1.48 1 0 1.835.385 2.503 1.156.67.772 1.003 1.787 1.003 3.045Zm-1.918.067c0-.804-.186-1.468-.559-1.99-.407-.544-.954-.816-1.64-.816-.464 0-.886.152-1.263.45a2.082 2.082 0 0 0-.742 1.183 2.349 2.349 0 0 0-.087.56v1.378c0 .601.189 1.109.567 1.523.378.414.87.62 1.474.62.709 0 1.261-.266 1.656-.798.396-.534.594-1.236.594-2.11ZM63.714 22.898c0 1.406-.39 2.517-1.17 3.332-.696.727-1.563 1.09-2.597 1.09-1.117 0-1.92-.392-2.407-1.174h-.035V30.5H55.62v-8.912c0-.884-.024-1.79-.07-2.721h1.657l.105 1.31h.035c.628-.987 1.58-1.48 2.86-1.48 1 0 1.835.385 2.505 1.156.666.772 1.001 1.787 1.001 3.045Zm-1.919.067c0-.804-.186-1.468-.559-1.99-.407-.544-.952-.816-1.638-.816-.466 0-.887.152-1.265.45a2.08 2.08 0 0 0-.74 1.183 2.396 2.396 0 0 0-.088.56v1.378c0 .601.189 1.109.565 1.523.378.413.87.62 1.475.62.71 0 1.262-.266 1.657-.798.396-.534.593-1.236.593-2.11ZM74.615 23.916c0 .975-.348 1.768-1.045 2.38-.766.67-1.832 1.004-3.202 1.004-1.265 0-2.28-.237-3.047-.714l.436-1.53a5.263 5.263 0 0 0 2.723.732c.71 0 1.262-.157 1.658-.469.395-.312.592-.73.592-1.252 0-.465-.162-.857-.488-1.175-.325-.318-.866-.613-1.622-.886-2.059-.749-3.087-1.845-3.087-3.287 0-.943.36-1.715 1.082-2.316.72-.602 1.679-.903 2.878-.903 1.07 0 1.959.182 2.668.544l-.47 1.497c-.663-.351-1.412-.527-2.25-.527-.663 0-1.18.16-1.552.477-.313.283-.47.628-.47 1.038 0 .453.179.827.54 1.122.313.272.882.567 1.71.884 1.01.397 1.754.862 2.232 1.394.476.53.714 1.195.714 1.987ZM80.842 20.242h-2.076v4.013c0 1.02.366 1.53 1.1 1.53.336 0 .615-.028.836-.084l.052 1.394c-.371.135-.86.203-1.465.203-.743 0-1.325-.221-1.744-.663-.418-.443-.629-1.185-.629-2.228V20.24H75.68v-1.379h1.236V17.35l1.85-.544v2.057h2.076v1.38ZM90.208 22.93c0 1.27-.373 2.313-1.116 3.129-.78.84-1.816 1.258-3.106 1.258-1.244 0-2.235-.402-2.973-1.206-.739-.805-1.108-1.82-1.108-3.044 0-1.281.38-2.33 1.142-3.146.76-.816 1.788-1.225 3.078-1.225 1.244 0 2.245.402 3 1.208.723.781 1.083 1.79 1.083 3.026Zm-1.954.06c0-.763-.167-1.417-.505-1.962-.395-.66-.96-.989-1.691-.989-.757 0-1.332.33-1.727.989-.338.546-.505 1.21-.505 1.996 0 .762.167 1.416.505 1.96.407.66.976.989 1.71.989.72 0 1.284-.336 1.691-1.006.347-.556.522-1.216.522-1.978ZM96.33 20.482a3.351 3.351 0 0 0-.594-.05c-.663 0-1.175.243-1.535.731-.314.43-.471.975-.471 1.633v4.336h-1.883l.018-5.662c0-.953-.024-1.82-.07-2.602h1.64l.069 1.581h.052c.198-.543.512-.98.942-1.309.42-.295.872-.443 1.36-.443.175 0 .332.012.472.034v1.751ZM104.754 22.607c0 .329-.022.606-.069.832h-5.65c.022.817.295 1.441.82 1.872.476.385 1.091.578 1.848.578.836 0 1.6-.13 2.286-.391l.295 1.275c-.802.34-1.749.51-2.842.51-1.314 0-2.346-.377-3.097-1.13-.75-.754-1.125-1.766-1.125-3.036 0-1.246.35-2.284 1.048-3.112.731-.883 1.72-1.325 2.964-1.325 1.222 0 2.147.442 2.775 1.325.497.702.747 1.57.747 2.602Zm-1.796-.477c.012-.544-.11-1.014-.366-1.412-.326-.51-.827-.765-1.501-.765-.615 0-1.116.249-1.499.748-.313.397-.5.874-.557 1.428h3.923v.001Z" fill="#fff"/></svg>