<svg xmlns="http://www.w3.org/2000/svg" fill="none" viewBox="0 0 88 20"><path fill="#E0E1E5" d="M.98 1.7c-.2.2-.31.52-.31.94v14.72c0 .41.11.73.31.94l.05.04 8.45-8.25v-.2L1.03 1.66l-.05.05Z"/><path fill="#ECEDF0" d="M12.3 12.84 9.48 10.1v-.2l2.82-2.74.06.03 3.34 1.86c.95.52.95 1.39 0 1.92l-3.34 1.85-.06.03Z"/><path fill="#fff" d="M12.36 12.8 9.48 10l-8.5 8.3c.32.32.84.36 1.42.04l9.96-5.53M12.36 7.18 2.4 1.66c-.58-.32-1.1-.28-1.42.04l8.5 8.3 2.88-2.82ZM57.7 2.28h1.57c.31 0 .56.08.74.25.19.16.28.36.28.6a.8.8 0 0 1-.1.39.65.65 0 0 1-.18.23l-.1.07c.02 0 .04 0 .06.02l.14.09a.83.83 0 0 1 .3.36c.03.1.05.2.05.3 0 .29-.1.52-.3.7-.2.17-.47.26-.82.26H57.7V2.28Zm1.64 1.8h-.96v.9h.96c.13 0 .24-.05.32-.13a.44.44 0 0 0 .12-.32.44.44 0 0 0-.12-.31.42.42 0 0 0-.32-.13Zm.18-.63c.06-.06.1-.14.1-.25 0-.1-.04-.19-.1-.25a.34.34 0 0 0-.25-.09h-.89v.68h.89c.1 0 .19-.03.25-.09ZM54.6 4.7c.2-.22.3-.48.3-.78 0-.3-.1-.57-.3-.78a.97.97 0 0 0-1.44 0c-.2.21-.3.47-.3.78 0 .3.1.56.3.77a.97.97 0 0 0 1.45 0Zm-1.91.41c-.34-.34-.5-.73-.5-1.2 0-.45.16-.85.5-1.19.34-.34.74-.5 1.2-.5.46 0 .85.16 1.2.5.33.34.5.74.5 1.2 0 .46-.17.85-.5 1.2-.35.33-.74.5-1.2.5-.46 0-.86-.17-1.2-.5ZM49.15 4.19v1.36h-.68V2.28h.68v1.3h1.6v-1.3h.68v3.27h-.68V4.2h-1.6ZM45.23 2.9v2.65h-.68V2.28h2.97v3.27h-.69V2.9h-1.6ZM41.87 5.9l.13-.35-1.33-3.27h.72l.95 2.39.96-2.39H44L42.54 5.9c-.16.4-.33.69-.5.85a.85.85 0 0 1-.62.24 1.87 1.87 0 0 1-.43-.05l-.05-.01V6.3c.12.04.23.07.35.07.26 0 .45-.16.58-.48ZM37.54 2.9v-.62h2.93v.61h-1.13v2.66h-.67V2.9h-1.13ZM34.64 5.11c-.33-.34-.5-.73-.5-1.2 0-.45.17-.85.5-1.19a1.64 1.64 0 0 1 1.91-.34c.22.1.38.22.48.33l.14.15-.44.44a.95.95 0 0 0-.4-.34.97.97 0 0 0-1.2.18c-.21.21-.31.47-.31.78 0 .3.1.56.3.77a.97.97 0 0 0 1.2.19c.16-.09.27-.17.34-.26l.1-.12.44.44a2.03 2.03 0 0 1-.9.6c-.14.05-.3.08-.46.08-.46 0-.86-.17-1.2-.5ZM32.61 4.7c.2-.22.3-.48.3-.78 0-.3-.1-.57-.3-.78a.97.97 0 0 0-1.44 0c-.2.21-.3.47-.3.78 0 .3.1.56.3.77a.97.97 0 0 0 1.44 0Zm-1.92.41c-.33-.34-.5-.73-.5-1.2 0-.45.17-.85.5-1.19.34-.34.74-.5 1.2-.5.46 0 .86.16 1.2.5.33.34.5.74.5 1.2 0 .46-.17.85-.5 1.2-.34.33-.74.5-1.2.5-.46 0-.86-.17-1.2-.5ZM24.97 4.87h.28a2.84 2.84 0 0 0 .28-.39 3.29 3.29 0 0 0 .44-1.26c.06-.32.1-.65.1-1V.77h3.1v4.09h.57v1.7H29V5.55h-3.27v1.02h-.75v-1.7Zm1.84-2.66a5.57 5.57 0 0 1-.29 1.77 5 5 0 0 1-.44.8l-.09.09h2.42v-3.4h-1.6v.74ZM44.9 10.36a3.05 3.05 0 1 0 0 6.11 3.06 3.06 0 1 0 0-6.1Zm0 4.9c-.94 0-1.76-.76-1.76-1.84 0-1.1.82-1.86 1.76-1.86.95 0 1.77.76 1.77 1.86 0 1.08-.82 1.85-1.77 1.85Zm-6.85-4.9a3.05 3.05 0 1 0 0 6.1 3.06 3.06 0 1 0 0-6.1Zm0 4.9c-.94 0-1.76-.76-1.76-1.84 0-1.1.82-1.86 1.76-1.86.95 0 1.77.76 1.77 1.86 0 1.08-.82 1.85-1.77 1.85ZM29.9 11.3v1.3h3.18c-.1.72-.34 1.25-.72 1.63a3.3 3.3 0 0 1-2.46.94 3.44 3.44 0 1 1 0-6.9c1.06 0 1.83.41 2.4.93l.93-.91a4.69 4.69 0 0 0-3.33-1.3 4.87 4.87 0 0 0-4.93 4.74 4.87 4.87 0 0 0 4.93 4.74 4.22 4.22 0 0 0 4.54-4.36c0-.3-.02-.58-.07-.81H29.9Zm33.33 1c-.26-.68-1.05-1.94-2.68-1.94a2.94 2.94 0 0 0-2.95 3.06 3.02 3.02 0 0 0 3.1 3.05c1.44 0 2.27-.85 2.61-1.35l-1.06-.7c-.36.51-.84.85-1.54.85-.7 0-1.2-.31-1.52-.93l4.19-1.69-.15-.35Zm-4.27 1.02a1.7 1.7 0 0 1 1.64-1.78c.54 0 1 .27 1.16.65l-2.8 1.13Zm-3.4 2.96h1.38V7.31h-1.38v8.97Zm-2.25-5.24h-.04a2.2 2.2 0 0 0-1.65-.68 3.06 3.06 0 0 0 0 6.1c.75.01 1.34-.32 1.65-.68h.04v.43c0 1.17-.64 1.8-1.67 1.8-.84 0-1.36-.6-1.58-1.1l-1.2.5c.35.8 1.27 1.8 2.78 1.8 1.61 0 2.97-.92 2.97-3.18v-5.48h-1.3v.5Zm-1.57 4.23c-.95 0-1.74-.78-1.74-1.84 0-1.08.79-1.87 1.74-1.87.93 0 1.67.79 1.67 1.87 0 1.06-.74 1.84-1.67 1.84ZM69.67 7.3h-3.29v8.97h1.37v-3.4h1.92c1.52 0 3.02-1.07 3.02-2.78 0-1.72-1.5-2.8-3.02-2.8Zm.04 4.32h-1.96V8.56h1.96c1.02 0 1.6.83 1.6 1.54 0 .69-.58 1.53-1.6 1.53Zm8.48-1.29c-1 0-2.03.43-2.45 1.38l1.22.5c.26-.5.74-.66 1.25-.66.71 0 1.44.41 1.45 1.15v.1a3.07 3.07 0 0 0-1.44-.35c-1.3 0-2.64.7-2.64 2.02 0 1.2 1.07 1.98 2.28 1.98.92 0 1.43-.41 1.75-.88h.05v.69h1.32v-3.44c0-1.6-1.22-2.49-2.8-2.49Zm-.17 4.92c-.45 0-1.07-.21-1.07-.76 0-.7.78-.96 1.45-.96.6 0 .89.13 1.26.3-.11.84-.84 1.42-1.64 1.42Zm7.79-4.72-1.58 3.9h-.05l-1.63-3.9h-1.48l2.45 5.44-1.4 3.03h1.44l3.77-8.47h-1.52Zm-12.37 5.74h1.38V7.31h-1.38v8.97Z"/></svg>
