<svg xmlns="http://www.w3.org/2000/svg" width="122.479" height="34" viewBox="0 0.165 122.479 34" xml:space="preserve"><path fill="#CDD9ED" d="M10.388 6.989c-.246.251-.388.642-.388 1.148v18.057c0 .506.142.896.388 1.148l.061.055 10.364-10.114v-.239L10.448 6.93l-.06.059z"/><path fill="#F5F5F5" d="m24.347 20.611-3.532-3.448-10.424 10.179c.388.397 1.021.445 1.739.048l12.217-6.779zm0-6.897L12.13 6.937c-.719-.394-1.352-.346-1.739.052l10.424 10.174 3.532-3.449z"/><path fill="#FFF" d="m24.265 20.656-3.451-3.373v-.239l3.455-3.373.078.044 4.091 2.273c1.167.645 1.167 1.706 0 2.355l-4.091 2.269-.082.044zM36 11.364v2h.879v-1.199h3.84v1.199h.883v-2h-.68V6.563h-3.641v1.68c0 .418-.035.813-.105 1.188s-.148.668-.234.887a4.045 4.045 0 0 1-.519.942.738.738 0 0 1-.102.105H36zm2.16-3.121v-.879h1.879v4h-2.84l.098-.102c.066-.07.148-.188.242-.355s.188-.367.281-.594.172-.523.238-.891.102-.761.102-1.179zm7.164 2.004c0 .359-.121.66-.355.906-.238.25-.52.371-.844.371-.328 0-.609-.121-.848-.371-.238-.246-.355-.547-.355-.906s.117-.66.355-.91c.238-.246.52-.371.848-.371.324 0 .605.125.844.371.234.25.355.551.355.91zm-3.199 0c0 .539.195 1.004.594 1.402s.867.598 1.406.598 1.004-.199 1.402-.598.598-.863.598-1.402-.199-1.008-.598-1.406-.863-.598-1.402-.598-1.008.199-1.406.598-.594.867-.594 1.406zm4.641 0c0 .539.195 1.004.594 1.402s.867.598 1.406.598c.184 0 .367-.031.551-.09.18-.059.328-.121.445-.191a2.625 2.625 0 0 0 .531-.429l.07-.086-.52-.52-.121.148c-.078.094-.207.195-.387.297s-.367.152-.57.152c-.328 0-.609-.125-.848-.371-.238-.25-.355-.551-.355-.91s.117-.66.355-.906c.238-.25.52-.371.848-.371.203 0 .391.051.57.156.18.102.293.184.348.246s.094.113.121.156l.52-.52-.168-.184c-.113-.129-.297-.258-.555-.387s-.539-.191-.836-.191c-.539 0-1.008.199-1.406.598s-.593.864-.593 1.403zm3.996-1.203h1.32v3.121h.797V9.044h1.32v-.719h-3.438v.719zm5.078 3.519c-.148.375-.375.563-.68.563-.137 0-.27-.027-.402-.082v.723l.055.016c.043.016.113.031.207.043.094.016.191.02.301.02a1 1 0 0 0 .727-.285c.195-.188.391-.52.59-.996l1.723-4.238h-.84L56.4 11.128l-1.121-2.801h-.84L56 12.165l-.16.398zm3.957-3.519h1.879v3.121h.801v-3.84h-3.48v3.84h.801V9.044zm4.601 1.519h1.879v1.602h.801v-3.84h-.801v1.52h-1.879v-1.52h-.801v3.84h.801v-1.602zm6.762-.316c0 .359-.121.66-.355.906-.238.25-.52.371-.844.371-.328 0-.609-.121-.848-.371-.238-.246-.355-.547-.355-.906s.117-.66.355-.91c.238-.246.52-.371.848-.371.324 0 .605.125.844.371.234.25.355.551.355.91zm-3.199 0c0 .539.195 1.004.594 1.402s.867.598 1.406.598 1.004-.199 1.402-.598.598-.863.598-1.402-.199-1.008-.598-1.406-.863-.598-1.402-.598-1.008.199-1.406.598-.594.867-.594 1.406zm6.48-1.922v3.84h1.922c.406 0 .73-.102.965-.313.234-.207.355-.477.355-.809 0-.125-.023-.246-.07-.355s-.098-.195-.152-.258-.121-.121-.195-.176a2.286 2.286 0 0 0-.156-.102c-.031-.012-.051-.02-.066-.023l.109-.074c.074-.055.148-.148.219-.281s.109-.281.109-.445a.917.917 0 0 0-.324-.719c-.219-.188-.508-.281-.875-.281l-1.841-.004zm1.922 2.125a.5.5 0 0 1 .375.152.524.524 0 0 1 .145.367c0 .156-.047.285-.141.379s-.223.141-.379.141h-1.121V10.45h1.121zm.321-1.043a.399.399 0 0 1-.109.293.412.412 0 0 1-.294.11h-1.039v-.801h1.039a.41.41 0 0 1 .293.105c.071.071.11.168.11.293zm-16.242 9.904c-2.119 0-3.85 1.574-3.85 3.746 0 2.154 1.731 3.745 3.85 3.745 2.123 0 3.854-1.591 3.854-3.745 0-2.172-1.732-3.746-3.854-3.746zm0 6.015c-1.163 0-2.163-.937-2.163-2.27 0-1.352 1-2.271 2.163-2.271s2.167.92 2.167 2.271c0 1.334-1.005 2.27-2.167 2.27zm-8.4-6.015c-2.124 0-3.85 1.574-3.85 3.746 0 2.154 1.726 3.745 3.85 3.745 2.122 0 3.85-1.591 3.85-3.745 0-2.172-1.727-3.746-3.85-3.746zm0 6.015c-1.164 0-2.167-.937-2.167-2.27 0-1.352 1.003-2.271 2.167-2.271 1.162 0 2.163.92 2.163 2.271 0 1.334-1 2.27-2.163 2.27zm-9.995-4.867v1.592h3.894c-.114.889-.418 1.543-.885 1.998-.568.551-1.454 1.162-3.008 1.162-2.396 0-4.272-1.889-4.272-4.228s1.876-4.228 4.272-4.228c1.295 0 2.238.494 2.934 1.135l1.149-1.122c-.973-.907-2.268-1.604-4.083-1.604-3.286 0-6.047 2.61-6.047 5.818s2.762 5.818 6.047 5.818c1.776 0 3.11-.567 4.158-1.634 1.075-1.049 1.41-2.524 1.41-3.716 0-.37-.031-.71-.088-.993h-5.481zm40.871 1.233c-.316-.838-1.295-2.382-3.285-2.382-1.975 0-3.617 1.518-3.617 3.746 0 2.098 1.627 3.745 3.807 3.745a3.825 3.825 0 0 0 3.197-1.66l-1.309-.851c-.436.623-1.03 1.035-1.889 1.035-.854 0-1.467-.382-1.859-1.135l5.133-2.073-.178-.425zm-5.232 1.247a2.078 2.078 0 0 1 2.004-2.184c.67 0 1.238.326 1.428.795l-3.432 1.389zm-4.17 3.635h1.687v-11.01h-1.687v11.01zm-2.764-6.429h-.056c-.379-.438-1.103-.834-2.018-.834-1.921 0-3.679 1.646-3.679 3.758 0 2.1 1.758 3.733 3.679 3.733.915 0 1.639-.399 2.018-.851h.056v.537c0 1.432-.783 2.201-2.047 2.201-1.031 0-1.67-.727-1.934-1.338l-1.468.599c.423.993 1.542 2.215 3.401 2.215 1.978 0 3.646-1.136 3.646-3.9v-6.727h-1.6v.607zm-1.929 5.181c-1.163 0-2.136-.949-2.136-2.258 0-1.32.973-2.283 2.136-2.283 1.146 0 2.049.963 2.049 2.283 0 1.309-.903 2.258-2.049 2.258zm21.993-9.762h-4.035v11.01h1.682v-4.172h2.354c1.867 0 3.7-1.32 3.7-3.42 0-2.097-1.837-3.418-3.701-3.418zm.043 5.307h-2.396v-3.775h2.396a1.934 1.934 0 0 1 1.974 1.886c0 .853-.718 1.889-1.974 1.889zm10.4-1.582c-1.215 0-2.479.523-2.999 1.686l1.493.611c.321-.611.912-.81 1.537-.81.873 0 1.758.512 1.771 1.416v.115c-.304-.171-.955-.426-1.758-.426-1.607 0-3.246.864-3.246 2.478 0 1.475 1.317 2.425 2.799 2.425 1.131 0 1.756-.499 2.148-1.079h.057v.852h1.625v-4.224c0-1.952-1.493-3.044-3.427-3.044zm-.202 6.033c-.551 0-1.317-.267-1.317-.933 0-.853.956-1.179 1.784-1.179.74 0 1.088.159 1.537.369-.131 1.021-1.03 1.743-2.004 1.743zm9.548-5.792-1.934 4.772h-.057l-1.999-4.772H104.8l3.004 6.669-1.714 3.711h1.759l4.629-10.38h-1.873zm-15.164 7.044h1.687v-11.01h-1.687v11.01z"/></svg>
