<svg width="124" height="35" fill="none" xmlns="http://www.w3.org/2000/svg"><path d="M.722 4.5a4 4 0 0 1 4-4H119.2a4 4 0 0 1 4 4v26a4 4 0 0 1-4 4H4.722a4 4 0 0 1-4-4v-26Z" fill="#A0A8B1"/><path d="M11.11 7.324c-.246.25-.388.642-.388 1.148v18.056c0 .506.142.897.388 1.148l.06.055 10.364-10.114v-.238L11.17 7.264l-.061.06Z" fill="#CFD3D8"/><path d="m24.987 20.991-3.45-3.373v-.239l3.454-3.373.078.044 4.09 2.273c1.169.645 1.169 1.706 0 2.355l-4.09 2.27-.082.043Z" fill="#fff"/><path d="m25.07 20.947-3.533-3.449-10.424 10.178c.388.398 1.02.446 1.74.048l12.216-6.777ZM25.07 14.05 12.851 7.272c-.719-.394-1.351-.346-1.739.052l10.424 10.174 3.532-3.449Z" fill="#F5F5F5"/><path d="M36.722 11.7h.32a.81.81 0 0 0 .102-.106 3.34 3.34 0 0 0 .23-.348c.11-.182.206-.381.29-.598.085-.216.164-.51.234-.882.07-.375.105-.771.105-1.188v-1.68h3.641V11.7h.68v2h-.883V12.5H37.6v1.2h-.879v-2Zm2.16-3.122c0 .417-.033.81-.101 1.18a4.391 4.391 0 0 1-.239.89 5.85 5.85 0 0 1-.28.594 1.835 1.835 0 0 1-.243.356l-.098.101h2.84v-4h-1.879v.88Zm6.969 2.91c.237-.247.355-.55.355-.906 0-.36-.118-.663-.355-.91a1.13 1.13 0 0 0-.844-.371c-.325 0-.608.123-.847.37-.237.248-.356.552-.356.911 0 .357.118.659.355.906.24.248.523.371.848.371.326 0 .607-.123.844-.37Zm-2.25.496c-.396-.398-.594-.866-.594-1.402 0-.539.198-1.008.594-1.406.398-.399.867-.598 1.406-.598.54 0 1.007.2 1.403.598.398.398.597.867.597 1.406 0 .536-.2 1.004-.597 1.402a1.918 1.918 0 0 1-1.403.594c-.539 0-1.008-.198-1.406-.594Zm4.8 0c-.395-.398-.593-.866-.593-1.402 0-.539.198-1.008.593-1.406.399-.399.868-.598 1.407-.598.3 0 .578.065.836.195.258.128.442.256.554.383l.168.184-.52.52a1.136 1.136 0 0 0-.12-.153c-.052-.062-.168-.146-.348-.25a1.142 1.142 0 0 0-1.418.215c-.237.247-.355.55-.355.91 0 .357.118.659.355.906.24.248.522.371.848.371.203 0 .393-.05.57-.152.18-.102.309-.2.387-.297l.12-.148.52.52-.07.09a2.634 2.634 0 0 1-.531.43 2.297 2.297 0 0 1-.445.19 1.827 1.827 0 0 1-.551.086c-.54 0-1.008-.198-1.407-.594Zm3.563-2.605V8.66H55.4v.719h-1.32V12.5h-.797V9.379h-1.32Zm5.238 3.52.16-.399L55.8 8.66h.84l1.12 2.8 1.122-2.8h.84l-1.723 4.238c-.198.474-.395.806-.59.997a.992.992 0 0 1-.727.285c-.106 0-.207-.007-.3-.02a1.156 1.156 0 0 1-.207-.043l-.055-.015v-.723c.133.052.267.08.402.082.305-.003.532-.19.68-.563Zm4.117-3.52V12.5h-.8V8.66h3.48v3.84h-.801V9.379h-1.879Zm4.762 1.52V12.5h-.801V8.66h.8v1.52h1.88V8.66h.8v3.84h-.8v-1.602h-1.88Zm6.566.59c.237-.248.355-.55.355-.907 0-.36-.118-.663-.355-.91a1.13 1.13 0 0 0-.844-.371c-.325 0-.608.123-.848.37-.236.248-.355.552-.355.911 0 .357.119.659.355.906.24.248.523.371.848.371.326 0 .607-.123.844-.37Zm-2.25.495c-.396-.398-.594-.866-.594-1.402 0-.539.198-1.008.594-1.406.398-.399.867-.598 1.406-.598.54 0 1.007.2 1.402.598.399.398.598.867.598 1.406 0 .536-.2 1.004-.598 1.402a1.918 1.918 0 0 1-1.402.594c-.539 0-1.008-.198-1.406-.594Zm6.207-3.324h1.84c.367 0 .658.095.874.285a.905.905 0 0 1 .325.715.933.933 0 0 1-.11.45.768.768 0 0 1-.219.277l-.109.074a.733.733 0 0 1 .067.027c.028.013.08.047.156.102a.98.98 0 0 1 .195.176.852.852 0 0 1 .152.257c.047.11.07.228.07.356 0 .33-.118.6-.355.809-.234.208-.556.312-.965.312h-1.921V8.66Zm1.921 2.121h-1.12v1.04h1.12a.512.512 0 0 0 .38-.141.512.512 0 0 0 .14-.38.514.514 0 0 0-.145-.366.493.493 0 0 0-.375-.153Zm.211-.746a.396.396 0 0 0 .11-.293.388.388 0 0 0-.11-.293.396.396 0 0 0-.293-.11h-1.039v.802h1.04c.122 0 .22-.036.292-.106ZM61.164 19.645c-2.119 0-3.85 1.574-3.85 3.746 0 2.155 1.731 3.746 3.85 3.746 2.123 0 3.854-1.591 3.854-3.746 0-2.172-1.73-3.746-3.854-3.746Zm0 6.017C60 25.662 59 24.724 59 23.392c0-1.351 1-2.272 2.163-2.272 1.162 0 2.167.92 2.167 2.271 0 1.334-1.005 2.27-2.167 2.27Zm-8.4-6.017c-2.123 0-3.85 1.574-3.85 3.746 0 2.155 1.727 3.746 3.85 3.746s3.85-1.591 3.85-3.746c0-2.172-1.727-3.746-3.85-3.746Zm0 6.017c-1.163 0-2.167-.937-2.167-2.27 0-1.351 1.004-2.272 2.167-2.272 1.163 0 2.163.92 2.163 2.271 0 1.334-1 2.27-2.163 2.27Zm-9.995-4.869v1.592h3.894c-.114.89-.418 1.544-.885 2-.568.55-1.454 1.16-3.008 1.16-2.397 0-4.273-1.887-4.273-4.227 0-2.34 1.876-4.227 4.273-4.227 1.295 0 2.238.494 2.933 1.135l1.15-1.122c-.974-.907-2.268-1.604-4.084-1.604-3.285 0-6.047 2.61-6.047 5.818 0 3.208 2.762 5.819 6.047 5.819 1.776 0 3.11-.568 4.159-1.634 1.075-1.05 1.41-2.524 1.41-3.716 0-.37-.032-.71-.088-.994h-5.48Zm40.871 1.234c-.317-.838-1.294-2.382-3.286-2.382-1.973 0-3.616 1.518-3.616 3.746 0 2.099 1.626 3.746 3.806 3.746 1.762 0 2.78-1.05 3.198-1.66l-1.308-.852c-.437.624-1.03 1.037-1.89 1.037-.854 0-1.466-.383-1.858-1.136l5.131-2.073-.177-.426Zm-5.232 1.248a2.078 2.078 0 0 1 2.004-2.184c.67 0 1.238.326 1.427.794l-3.43 1.39Zm-4.17 3.634h1.686v-11.01h-1.687v11.01Zm-2.763-6.43h-.057c-.379-.438-1.101-.834-2.017-.834-1.921 0-3.678 1.647-3.678 3.759 0 2.099 1.757 3.733 3.678 3.733.916 0 1.638-.4 2.017-.851h.057v.537c0 1.432-.784 2.202-2.048 2.202-1.03 0-1.67-.727-1.934-1.338l-1.467.598c.423.993 1.543 2.215 3.4 2.215 1.979 0 3.647-1.136 3.647-3.9v-6.727h-1.598v.607Zm-1.93 5.183c-1.162 0-2.135-.95-2.135-2.258 0-1.32.973-2.284 2.135-2.284 1.146 0 2.05.963 2.05 2.284 0 1.307-.904 2.258-2.05 2.258ZM91.538 15.9h-4.035v11.009h1.683v-4.172h2.352c1.868 0 3.7-1.32 3.7-3.419 0-2.098-1.836-3.418-3.7-3.418Zm.044 5.306h-2.396v-3.775h2.396a1.933 1.933 0 0 1 1.973 1.887c0 .852-.717 1.888-1.973 1.888Zm10.4-1.582c-1.216 0-2.48.524-3 1.686l1.493.61c.322-.61.912-.809 1.537-.809.873 0 1.758.512 1.772 1.416v.116c-.305-.172-.957-.426-1.758-.426-1.608 0-3.247.864-3.247 2.477 0 1.475 1.317 2.425 2.798 2.425 1.132 0 1.757-.499 2.149-1.079h.058v.851h1.624v-4.223c0-1.952-1.493-3.044-3.426-3.044Zm-.203 6.033c-.551 0-1.317-.266-1.317-.932 0-.853.956-1.18 1.784-1.18.74 0 1.088.16 1.538.37-.132 1.02-1.031 1.742-2.005 1.742Zm9.549-5.792-1.934 4.773h-.057l-1.999-4.773h-1.815l3.004 6.67-1.714 3.71h1.758l4.629-10.38h-1.872ZM96.163 26.91h1.687v-11.01h-1.687v11.01Z" fill="#fff"/></svg>