<svg xmlns="http://www.w3.org/2000/svg" width="112" height="112" fill="none"><path stroke="#0D1140" stroke-miterlimit="10" d="M55.61 14.604v72.275m32.57-73.115c-8.143-1.678-22.749-3.441-32.57 1.511-9.905-5.036-24.427-3.19-32.57-1.51-3.442.67-6.128 3.86-6.128 7.47v56.746c0 4.7 4.281 8.31 8.898 7.471 8.394-1.427 20.986-2.518 29.8 2.015 8.814-4.45 21.406-3.442 29.8-2.015 4.617.755 8.898-2.77 8.898-7.47v-56.83c0-3.526-2.602-6.632-6.128-7.388Z"/><path fill="#FF0A47" d="M50.574 80.248c-6.967-1.679-15.53-1.595-25.687.168-1.007.168-1.679-.252-2.014-.504a2.468 2.468 0 0 1-.924-1.93v-56.83c0-1.175.924-2.267 2.015-2.519 5.372-1.09 10.409-1.595 14.942-1.595 4.449 0 8.394.504 11.668 1.595v61.615ZM60.563 18.633c3.19-1.09 7.135-1.595 11.668-1.595 4.533 0 9.57.504 14.942 1.595 1.175.252 2.014 1.344 2.014 2.519v56.745c0 1.092-.587 1.68-.923 1.931-.336.252-1.007.672-2.015.504-10.157-1.763-18.72-1.763-25.686-.168v-61.53Z"/><path stroke="#0D1140" stroke-miterlimit="10" d="M16.913 22.663h-.252C10.785 22.663 6 27.363 6 33.323v50.87c0 5.876 4.7 10.745 10.745 10.745h28.708c2.015 3.61 5.792 5.96 10.241 5.96 4.45 0 8.227-2.435 10.242-5.96h28.54c5.876 0 10.745-4.701 10.745-10.745v-50.87c0-5.876-4.701-10.744-10.745-10.744h-.251"/><path stroke="#F7F9FD" stroke-miterlimit="10" d="M26.986 23.67c5.372-.84 12.34-1.511 18.887-.756M26.986 27.867c5.372-.84 12.34-1.51 18.887-.755M26.986 32.064c5.372-.84 12.34-1.511 18.887-.756M26.986 36.261c5.372-.84 12.34-1.51 18.887-.755M26.986 40.459c5.372-.84 12.34-1.511 18.887-.756M26.986 44.655c5.372-.84 12.34-1.51 18.887-.755M26.986 48.853c5.372-.84 12.34-1.51 18.887-.755M26.986 53.05c5.372-.84 12.34-1.511 18.887-.756M26.986 57.248c5.372-.84 12.34-1.511 18.887-.756M65.6 69.502c6.547-.84 13.514-.168 18.886.756M65.6 73.7c6.547-.84 13.514-.168 18.886.755"/></svg>