<svg xmlns="http://www.w3.org/2000/svg" width="120" height="120" fill="none"><path stroke="#0D1140" stroke-miterlimit="10" d="M25.343 18.792h70.163c5.689 0 10.344 4.654 10.344 10.343v70.422c0 5.688-4.655 10.343-10.344 10.343H25.343C19.654 109.9 15 105.245 15 99.557V29.135c0-5.689 4.654-10.343 10.343-10.343ZM15 41.203h90.85M47.496 10v17.67M34.566 10v17.67M60.426 10v17.67M53.96 10v17.67M41.031 10v17.67M66.889 10v17.67M79.818 10v17.67M73.353 10v17.67M86.283 10v17.67"/><path fill="#FF0A47" d="M84.371 47.322H21.12v52.235a4.268 4.268 0 0 0 4.31 4.309h35.153l23.79-56.544Z"/><path stroke="#0D1140" d="M91.599 47.822h7.63v51.735c0 2.137-1.672 3.809-3.81 3.809H68.23L91.6 47.822Z"/><rect width="10" height="10" x="27.5" y="54.5" stroke="#F7F9FD" rx="5"/><path stroke="#F7F9FD" d="M29 96h26M29 91h26M29 86h26M29 81h26"/></svg>