<svg xmlns="http://www.w3.org/2000/svg" width="120" height="120" fill="none"><path stroke="#0D1140" stroke-miterlimit="10" d="M18.844 76.519v-60.18c0-2.39 1.852-4.339 4.123-4.339h74.106c2.272 0 4.124 1.95 4.124 4.339v60.18"/><path stroke="#0D1140" stroke-miterlimit="10" d="m109.109 96.507-8.159-20.37H18.875l-8.16 20.37a9.334 9.334 0 0 0-.715 3.574v2.502a4.397 4.397 0 0 0 4.408 4.407h90.889a4.398 4.398 0 0 0 4.408-4.407v-2.502c.119-1.191-.119-2.442-.596-3.574ZM19.232 98.235h81.42M24.771 80.545H95.59M23.223 85.31h73.974M21.613 90.373h77.191M32.096 80.545l-3.156 9.828M39.067 80.545l-3.157 9.828M46.035 80.545l-2.633 9.828M53.004 80.545l-1.906 9.828M87.727 80.545l3.156 9.828M80.816 80.545l3.157 9.828M73.85 80.545l2.632 9.828M66.88 80.545l1.907 9.828M59.912 80.545v9.828"/><path fill="#FF0A47" d="M25 20a2 2 0 0 1 2-2h66a2 2 0 0 1 2 2v50H25V20Z"/><path stroke="#F7F9FD" stroke-miterlimit="10" d="M60 62.5c9.941 0 18-8.059 18-18s-8.059-18-18-18-18 8.059-18 18 8.059 18 18 18Z"/><path stroke="#F7F9FD" stroke-miterlimit="10" d="M45.113 55.154c3.211-2.043 8.708-3.405 14.935-3.405 6.13 0 11.579 1.313 14.838 3.308M45.162 33.846c3.21 2.043 8.708 3.405 14.935 3.405 6.13 0 11.579-1.313 14.838-3.308"/><path stroke="#F7F9FD" stroke-miterlimit="10" d="M60 62.5c4.246 0 7.687-8.059 7.687-18s-3.44-18-7.686-18c-4.245 0-7.686 8.059-7.686 18s3.44 18 7.686 18Z"/></svg>