<svg xmlns="http://www.w3.org/2000/svg" width="120" height="120" fill="none"><path fill="#FF0A47" d="M54.7 64.6c-12.9-12.9-14.1-33.1-3.5-47.3-19.8 4-34.7 21.4-34.7 42.3 0 23.8 19.3 43.2 43.2 43.2 20.9 0 38.4-14.9 42.3-34.7-14.2 10.6-34.4 9.5-47.3-3.5Z"/><path stroke="#F7F9FD" d="M42 59c0 7.18-5.82 13-13 13M29 50a7 7 0 0 1 7-7M46 84.58c11.366 8.944 27.83 6.98 36.775-4.385"/><path stroke="#0D1140" stroke-miterlimit="10" d="M80.4 68.3c16.237 0 29.4-13.163 29.4-29.4S96.637 9.5 80.4 9.5 51 22.663 51 38.9s13.163 29.4 29.4 29.4Z"/><path stroke="#0D1140" stroke-miterlimit="10" d="M58.9 38.9h21.5l15.2 15.2M101.8 38.9h-4.9M63.8 38.9h-4.9M80.4 17.5v4.9M80.4 55.5v4.9M95.6 23.8l-3.5 3.4M68.7 50.6l-3.5 3.5M65.2 23.8l3.5 3.4"/><path stroke="#0D1140" stroke-miterlimit="10" d="M109.2 68.4C105 92 84.5 109.8 59.7 109.8 32 109.8 9.5 87.3 9.5 59.6c0-24.7 17.9-45.3 41.4-49.5"/></svg>