<svg xmlns="http://www.w3.org/2000/svg" width="120" height="120" fill="none"><path fill="#FF0A47" d="M60.5 90C76.792 90 90 76.792 90 60.5S76.792 31 60.5 31 31 44.208 31 60.5 44.208 90 60.5 90Z"/><path stroke="#F7F9FD" d="M83.5 60.5c0 12.703-10.297 23-23 23s-23-10.297-23-23 10.297-23 23-23 23 10.297 23 23Z"/><path stroke="#F7F9FD" d="M76.5 60.5c0 8.837-7.163 16-16 16s-16-7.163-16-16 7.163-16 16-16 16 7.163 16 16Z"/><path stroke="#0D1140" stroke-miterlimit="10" d="M60.5 96C80.106 96 96 80.106 96 60.5S80.106 25 60.5 25 25 40.894 25 60.5 40.894 96 60.5 96ZM60.316 10v8M60 103v8M110.658 60.657h-8M17.658 60.343h-8M34.281 17.134l4.078 6.882M81.957 96.984l4.078 6.883M16.791 86.377l6.883-4.078M96.643 38.701l6.882-4.078M86.035 17.134l-4.078 6.882M38.36 96.984l-4.078 6.883M103.525 86.377 96.643 82.3M23.674 38.701l-6.883-4.078"/></svg>