<svg xmlns="http://www.w3.org/2000/svg" width="120" height="120" fill="none"><path stroke="#0D1140" stroke-miterlimit="10" d="M17.591 94.58a6.784 6.784 0 0 0-6.825 6.825 6.784 6.784 0 0 0 6.825 6.826h85.324a6.784 6.784 0 0 0 6.826-6.826 6.784 6.784 0 0 0-6.826-6.825H17.591Z"/><path stroke="#0D1140" stroke-miterlimit="10" d="M22.663 94.58V55.77c-3.12 2.535-7.704 2.047-10.337-1.073a7.42 7.42 0 0 1 1.17-10.336l41.15-33.544a8.97 8.97 0 0 1 11.41 0l41.247 33.544c3.121 2.535 3.608 7.118 1.073 10.336-2.536 3.12-7.119 3.608-10.337 1.073v38.81"/><path fill="#FF0A47" d="M63.662 26.581a5 5 0 0 0-6.324 0L31.838 47.4A5 5 0 0 0 30 51.273V87h61V51.273a5 5 0 0 0-1.838-3.873l-25.5-20.819Z"/><path stroke="#F7F9FD" d="M40.5 57.5h15v19h-15zM41 63h14M66 63h14M65.5 57.5h15v19h-15z"/><circle cx="60.5" cy="41.5" r="5" stroke="#F7F9FD"/></svg>