<svg width="212" height="50" viewBox="0 0 212 50" fill="none" xmlns="http://www.w3.org/2000/svg">
<rect width="212" height="50" rx="12" fill="#1C1C1C"/>
<path d="M70.6763 25.3692C70.6514 22.677 72.9371 21.3673 73.0416 21.3063C71.7471 19.4662 69.7407 19.2147 69.0357 19.1947C67.3505 19.0218 65.7159 20.1778 64.8575 20.1778C63.9819 20.1778 62.66 19.2114 61.2353 19.2398C59.4019 19.2674 57.6868 20.3023 56.7461 21.9094C54.8048 25.1862 56.2527 30.0017 58.1126 32.6504C59.043 33.9476 60.1301 35.396 61.5531 35.3451C62.9453 35.2891 63.4653 34.4797 65.1453 34.4797C66.8099 34.4797 67.2982 35.3451 68.7495 35.3125C70.2436 35.2891 71.1843 34.0095 72.0821 32.7006C73.1573 31.2137 73.5891 29.7495 73.6062 29.6743C73.5711 29.6626 70.7045 28.5959 70.6763 25.3692Z" fill="white"/>
<path d="M67.9348 17.4523C68.6835 16.5393 69.1959 15.2972 69.0536 14.0367C67.9699 14.0835 66.6146 14.7676 65.8341 15.6606C65.1436 16.4474 64.5268 17.7371 64.6861 18.9499C65.9035 19.0385 67.1535 18.351 67.9348 17.4523Z" fill="white"/>
<path d="M86.293 17.0775C86.3229 17.0884 86.3623 17.1033 86.4112 17.1224C86.4602 17.1441 86.5472 17.1931 86.6723 17.2692C86.7974 17.3426 86.9075 17.4283 87.0026 17.5261C87.0978 17.624 87.1835 17.7613 87.2596 17.9381C87.3384 18.1121 87.3779 18.2984 87.3779 18.4968C87.3779 18.9808 87.1726 19.3941 86.762 19.7367C86.3541 20.0793 85.8076 20.2506 85.1224 20.2506C84.8451 20.2506 84.5772 20.218 84.3189 20.1528C84.0606 20.0848 83.8472 20.0059 83.6786 19.9162C83.5127 19.8237 83.3645 19.7299 83.234 19.6348C83.1062 19.5396 83.0124 19.4594 82.9526 19.3941L82.867 19.2922L83.4543 18.7089C83.4706 18.7252 83.4951 18.7497 83.5277 18.7823C83.563 18.815 83.6337 18.8721 83.7398 18.9536C83.8485 19.0352 83.9627 19.1086 84.0824 19.1739C84.202 19.2364 84.357 19.2935 84.5473 19.3452C84.7377 19.3941 84.9294 19.4186 85.1224 19.4186C85.5411 19.4186 85.8688 19.3248 86.1054 19.1372C86.3419 18.9496 86.4602 18.7225 86.4602 18.4561C86.4602 18.1896 86.3419 17.9639 86.1054 17.779C85.8688 17.5914 85.5411 17.4976 85.1224 17.4976H84.4127V16.6615H85.1224C85.4623 16.6615 85.7288 16.584 85.9218 16.429C86.1149 16.2713 86.2114 16.081 86.2114 15.858C86.2114 15.6405 86.1149 15.4556 85.9218 15.3033C85.7288 15.151 85.4623 15.0749 85.1224 15.0749C84.8777 15.0749 84.6371 15.1279 84.4005 15.234C84.1639 15.34 83.9872 15.442 83.8703 15.5399L83.7031 15.6989L83.1198 15.1157C83.1361 15.0939 83.1633 15.064 83.2014 15.026C83.2422 14.9852 83.3265 14.9131 83.4543 14.8098C83.5821 14.7065 83.7167 14.6181 83.8581 14.5447C83.9994 14.4686 84.1857 14.3992 84.4168 14.3367C84.6479 14.2714 84.8831 14.2388 85.1224 14.2388C85.7451 14.2388 86.2345 14.387 86.5907 14.6834C86.9496 14.977 87.1291 15.3441 87.1291 15.7846C87.1291 15.964 87.0992 16.1313 87.0393 16.2863C86.9822 16.4412 86.9129 16.565 86.8313 16.6574C86.7525 16.7499 86.6723 16.8301 86.5907 16.898C86.5091 16.9633 86.4384 17.0095 86.3786 17.0367L86.293 17.0775ZM91.64 20.1691H90.8039V19.7531C90.793 19.7639 90.774 19.7816 90.7468 19.8061C90.7223 19.8305 90.6707 19.8713 90.5918 19.9284C90.5157 19.9828 90.4327 20.0331 90.343 20.0793C90.2533 20.1228 90.1404 20.1623 90.0045 20.1976C89.8685 20.233 89.7312 20.2506 89.5925 20.2506C89.1847 20.2506 88.8462 20.1324 88.577 19.8958C88.3078 19.6592 88.1732 19.3887 88.1732 19.0842C88.1732 18.7552 88.2765 18.4792 88.4832 18.2562C88.6925 18.0332 88.978 17.8919 89.3397 17.832L90.8039 17.5792C90.8039 17.3671 90.725 17.189 90.5673 17.0449C90.4123 16.9008 90.2125 16.8287 89.9678 16.8287C89.7557 16.8287 89.5626 16.8736 89.3886 16.9633C89.2173 17.0503 89.099 17.1387 89.0338 17.2284L88.9237 17.3712L88.3812 16.8287C88.3975 16.807 88.4193 16.7798 88.4465 16.7471C88.4764 16.7118 88.5403 16.652 88.6382 16.5677C88.7388 16.4807 88.8448 16.4032 88.9563 16.3352C89.0678 16.2672 89.2146 16.2074 89.3968 16.1557C89.5817 16.1014 89.772 16.0742 89.9678 16.0742C90.4572 16.0742 90.8583 16.2196 91.171 16.5106C91.4836 16.7988 91.64 17.155 91.64 17.5792V20.1691ZM89.719 19.5002C90.0589 19.5002 90.324 19.3996 90.5143 19.1984C90.7074 18.9944 90.8039 18.7049 90.8039 18.3296V18.2481L89.5069 18.4561C89.3573 18.4833 89.2363 18.5444 89.1439 18.6396C89.0515 18.7348 89.0052 18.8544 89.0052 18.9985C89.0052 19.1317 89.0691 19.2487 89.1969 19.3493C89.3274 19.4499 89.5015 19.5002 89.719 19.5002ZM95.6085 16.1598V16.9103H93.6467V20.1691H92.8105V16.1598H95.6085ZM98.4064 20.2506C98.2568 20.2506 98.1113 20.233 97.97 20.1976C97.8286 20.1623 97.7076 20.1188 97.607 20.0671C97.5064 20.0127 97.4166 19.9583 97.3378 19.904C97.2616 19.8469 97.2059 19.802 97.1706 19.7694L97.1135 19.7082V21.9229H96.2773V16.1598H97.1135V16.6207C97.1515 16.5826 97.2045 16.5323 97.2725 16.4698C97.3432 16.4073 97.4914 16.3257 97.7171 16.2251C97.9428 16.1245 98.1725 16.0742 98.4064 16.0742C98.9366 16.0742 99.3961 16.2781 99.7849 16.686C100.176 17.0911 100.372 17.5832 100.372 18.1624C100.372 18.7416 100.176 19.2351 99.7849 19.6429C99.3961 20.0481 98.9366 20.2506 98.4064 20.2506ZM99.1691 17.2203C98.9243 16.9592 98.6429 16.8287 98.3248 16.8287C98.0067 16.8287 97.7252 16.9592 97.4805 17.2203C97.2358 17.4813 97.1135 17.7967 97.1135 18.1665C97.1135 18.5336 97.2358 18.8476 97.4805 19.1086C97.7252 19.3697 98.0067 19.5002 98.3248 19.5002C98.6429 19.5002 98.9243 19.3697 99.1691 19.1086C99.4138 18.8476 99.5361 18.5336 99.5361 18.1665C99.5361 17.7967 99.4138 17.4813 99.1691 17.2203ZM102.248 20.5851L102.416 20.1691L100.784 16.1598H101.661L102.832 19.0842L104.002 16.1598H104.879L103.08 20.5851C102.874 21.08 102.668 21.4266 102.465 21.6251C102.263 21.8236 102.01 21.9229 101.706 21.9229C101.594 21.9229 101.49 21.9161 101.392 21.9025C101.294 21.8889 101.222 21.8739 101.176 21.8576L101.119 21.8413V21.0867C101.257 21.1411 101.397 21.1697 101.539 21.1724C101.857 21.1697 102.093 20.9739 102.248 20.5851ZM108.215 17.2039C108.215 17.3888 108.164 17.5506 108.06 17.6893C107.96 17.828 107.856 17.919 107.75 17.9626L107.591 18.04C107.613 18.0455 107.642 18.055 107.677 18.0686C107.715 18.0822 107.778 18.1148 107.865 18.1665C107.954 18.2154 108.033 18.2752 108.101 18.3459C108.172 18.4139 108.236 18.5091 108.293 18.6314C108.353 18.7538 108.383 18.8911 108.383 19.0434C108.383 19.3778 108.233 19.6633 107.934 19.8999C107.638 20.1337 107.231 20.2506 106.714 20.2506C106.519 20.2506 106.33 20.2262 106.148 20.1772C105.968 20.1283 105.819 20.0698 105.699 20.0018C105.579 19.9339 105.475 19.8659 105.385 19.7979C105.295 19.7272 105.228 19.6674 105.185 19.6185L105.128 19.541L105.67 18.9985C105.703 19.0366 105.746 19.0842 105.801 19.1413C105.858 19.1984 105.978 19.2731 106.16 19.3656C106.345 19.4553 106.53 19.5002 106.714 19.5002C106.992 19.5002 107.2 19.4485 107.338 19.3452C107.48 19.2419 107.551 19.1127 107.551 18.9577C107.551 18.8027 107.48 18.6736 107.338 18.5703C107.2 18.4669 106.992 18.4153 106.714 18.4153H106.254V17.7464H106.714C106.932 17.7464 107.098 17.7042 107.212 17.62C107.326 17.5329 107.383 17.4228 107.383 17.2896C107.383 17.1536 107.326 17.0435 107.212 16.9592C107.098 16.8722 106.932 16.8287 106.714 16.8287C106.554 16.8287 106.396 16.86 106.241 16.9225C106.089 16.9823 105.976 17.0449 105.903 17.1101L105.797 17.2039L105.25 16.6615C105.288 16.618 105.344 16.5636 105.417 16.4983C105.491 16.4331 105.654 16.3461 105.907 16.2373C106.16 16.1285 106.429 16.0742 106.714 16.0742C107.177 16.0742 107.542 16.1856 107.812 16.4086C108.081 16.6316 108.215 16.8967 108.215 17.2039ZM112.229 16.1598H112.979V20.1691H112.143V17.5384L110.055 20.1691H109.304V16.1598H110.14V18.7905L112.229 16.1598ZM113.734 16.9103V16.1598H117.323V16.9103H115.944V20.1691H115.112V16.9103H113.734ZM121.789 18.4561H118.657C118.7 18.7388 118.839 18.9836 119.073 19.1902C119.309 19.3969 119.589 19.5002 119.913 19.5002C120.147 19.5002 120.364 19.4472 120.565 19.3411C120.769 19.2351 120.913 19.1317 120.998 19.0311L121.124 18.8762L121.667 19.4186C121.65 19.4404 121.624 19.4716 121.589 19.5124C121.556 19.5505 121.484 19.6171 121.373 19.7123C121.261 19.8047 121.143 19.8876 121.018 19.9611C120.893 20.0318 120.73 20.0984 120.529 20.1609C120.33 20.2207 120.125 20.2506 119.913 20.2506C119.344 20.2506 118.854 20.0426 118.44 19.6266C118.03 19.2079 117.825 18.7062 117.825 18.1216C117.825 17.5588 118.024 17.0775 118.424 16.6778C118.826 16.2754 119.308 16.0742 119.868 16.0742C120.431 16.0742 120.898 16.2618 121.271 16.637C121.646 17.0095 121.834 17.4772 121.834 18.04L121.789 18.4561ZM119.868 16.7879C119.566 16.7879 119.312 16.8776 119.105 17.0571C118.901 17.2338 118.764 17.4636 118.693 17.7464H121.014C120.965 17.4636 120.839 17.2338 120.635 17.0571C120.431 16.8776 120.175 16.7879 119.868 16.7879ZM124.42 16.1598H126.341C126.724 16.1598 127.029 16.2591 127.254 16.4576C127.48 16.6533 127.593 16.9021 127.593 17.2039C127.593 17.3752 127.555 17.5316 127.479 17.673C127.405 17.8116 127.329 17.9082 127.25 17.9626L127.136 18.04C127.152 18.0455 127.175 18.055 127.205 18.0686C127.235 18.0822 127.29 18.1175 127.368 18.1746C127.447 18.229 127.515 18.2902 127.572 18.3582C127.632 18.4234 127.685 18.5132 127.731 18.6274C127.78 18.7416 127.805 18.8653 127.805 18.9985C127.805 19.3438 127.681 19.6253 127.434 19.8428C127.189 20.0603 126.853 20.1691 126.426 20.1691H124.42V16.1598ZM126.426 18.3745H125.256V19.4594H126.426C126.592 19.4594 126.724 19.4105 126.822 19.3126C126.92 19.2147 126.969 19.0828 126.969 18.9169C126.969 18.7674 126.918 18.6396 126.818 18.5336C126.717 18.4275 126.587 18.3745 126.426 18.3745ZM126.646 17.5955C126.723 17.5193 126.761 17.4174 126.761 17.2896C126.761 17.1591 126.723 17.0571 126.646 16.9837C126.57 16.9076 126.468 16.8695 126.341 16.8695H125.256V17.7056H126.341C126.468 17.7056 126.57 17.6689 126.646 17.5955Z" fill="white"/>
<path d="M92.9813 35.3115H90.8865L89.7391 31.796H85.7506L84.6576 35.3115H82.6182L86.5697 23.3431H89.0104L92.9813 35.3115ZM89.3932 30.3211L88.3555 27.1959C88.2457 26.8766 88.04 26.1248 87.7365 24.9413H87.6996C87.5788 25.4503 87.3842 26.2021 87.1167 27.1959L86.0974 30.3211H89.3932Z" fill="white"/>
<path d="M103.144 30.893C103.144 32.3607 102.737 33.5209 101.924 34.3725C101.195 35.1307 100.29 35.5093 99.21 35.5093C98.044 35.5093 97.2065 35.101 96.6964 34.2844H96.6595V38.8306H94.693V29.5251C94.693 28.6024 94.6681 27.6554 94.6201 26.6841H96.3496L96.4594 28.052H96.4963C97.1521 27.0214 98.1474 26.507 99.483 26.507C100.527 26.507 101.399 26.909 102.096 27.7139C102.795 28.5197 103.144 29.5791 103.144 30.893ZM101.141 30.9632C101.141 30.1232 100.947 29.4307 100.558 28.8857C100.132 28.3173 99.5614 28.0331 98.8456 28.0331C98.3604 28.0331 97.9195 28.1914 97.5257 28.5035C97.1309 28.8183 96.8726 29.2292 96.7518 29.7383C96.6909 29.9757 96.6605 30.17 96.6605 30.3228V31.7618C96.6605 32.3895 96.8578 32.9192 97.2526 33.3518C97.6474 33.7844 98.1603 34.0002 98.7912 34.0002C99.5319 34.0002 100.108 33.7214 100.521 33.1656C100.934 32.609 101.141 31.8751 101.141 30.9632Z" fill="white"/>
<path d="M113.325 30.8931C113.325 32.3609 112.918 33.521 112.103 34.3727C111.376 35.1308 110.471 35.5094 109.391 35.5094C108.225 35.5094 107.387 35.1011 106.878 34.2845H106.841V38.8307H104.875V29.5252C104.875 28.6025 104.85 27.6555 104.802 26.6842H106.531L106.641 28.0521H106.678C107.333 27.0215 108.328 26.5071 109.665 26.5071C110.708 26.5071 111.58 26.9091 112.279 27.714C112.975 28.5198 113.325 29.5792 113.325 30.8931ZM111.321 30.9633C111.321 30.1233 111.127 29.4308 110.737 28.8858C110.312 28.3174 109.743 28.0333 109.026 28.0333C108.54 28.0333 108.1 28.1915 107.705 28.5036C107.311 28.8184 107.053 29.2294 106.932 29.7384C106.873 29.9758 106.841 30.1701 106.841 30.323V31.7619C106.841 32.3896 107.039 32.9193 107.432 33.3519C107.826 33.7836 108.339 34.0003 108.972 34.0003C109.713 34.0003 110.289 33.7216 110.701 33.1658C111.115 32.6091 111.321 31.8752 111.321 30.9633Z" fill="white"/>
<path d="M124.706 31.9565C124.706 32.9745 124.344 33.8028 123.616 34.4422C122.816 35.141 121.703 35.49 120.272 35.49C118.951 35.49 117.892 35.2418 117.091 34.7444L117.546 33.1463C118.41 33.6553 119.357 33.9107 120.389 33.9107C121.13 33.9107 121.706 33.7471 122.121 33.4215C122.533 33.0959 122.739 32.6589 122.739 32.1139C122.739 31.6282 122.569 31.219 122.229 30.8872C121.89 30.5553 121.325 30.2468 120.535 29.9618C118.386 29.1802 117.312 28.0354 117.312 26.5299C117.312 25.546 117.689 24.7393 118.442 24.1116C119.193 23.4829 120.195 23.1691 121.447 23.1691C122.564 23.1691 123.492 23.3588 124.233 23.7374L123.741 25.3005C123.049 24.9336 122.267 24.7501 121.392 24.7501C120.7 24.7501 120.16 24.9165 119.772 25.2474C119.445 25.5433 119.281 25.9039 119.281 26.3311C119.281 26.8042 119.468 27.1954 119.844 27.503C120.172 27.7872 120.767 28.0947 121.63 28.4266C122.686 28.8412 123.462 29.3259 123.961 29.8817C124.458 30.4357 124.706 31.1291 124.706 31.9565Z" fill="white"/>
<path d="M131.21 28.1206H129.042V32.3106C129.042 33.3763 129.424 33.9087 130.19 33.9087C130.541 33.9087 130.833 33.8791 131.063 33.8197L131.118 35.2757C130.73 35.4169 130.22 35.488 129.588 35.488C128.812 35.488 128.205 35.2568 127.767 34.7955C127.33 34.3332 127.111 33.558 127.111 32.4689V28.1188H125.819V26.6799H127.111V25.0998L129.042 24.5314V26.6799H131.21V28.1206Z" fill="white"/>
<path d="M140.987 30.9262C140.987 32.2527 140.598 33.3418 139.821 34.1935C139.007 35.0704 137.926 35.5074 136.578 35.5074C135.279 35.5074 134.245 35.0874 133.474 34.2475C132.703 33.4075 132.317 32.3472 132.317 31.0692C132.317 29.7319 132.714 28.6365 133.51 27.7848C134.304 26.9323 135.376 26.506 136.724 26.506C138.022 26.506 139.067 26.926 139.856 27.7668C140.611 28.5825 140.987 29.6357 140.987 30.9262ZM138.947 30.9883C138.947 30.1924 138.772 29.5098 138.419 28.9405C138.007 28.2516 137.417 27.908 136.654 27.908C135.863 27.908 135.263 28.2525 134.85 28.9405C134.497 29.5107 134.323 30.204 134.323 31.0242C134.323 31.8202 134.497 32.5027 134.85 33.0711C135.276 33.76 135.87 34.1036 136.636 34.1036C137.387 34.1036 137.976 33.7528 138.402 33.0531C138.764 32.4731 138.947 31.7833 138.947 30.9883Z" fill="white"/>
<path d="M147.381 28.3704C147.186 28.3353 146.979 28.3173 146.761 28.3173C146.069 28.3173 145.534 28.5718 145.158 29.0818C144.831 29.5314 144.666 30.0998 144.666 30.786V35.3142H142.701L142.719 29.4019C142.719 28.4073 142.694 27.5016 142.646 26.685H144.358L144.43 28.3362H144.485C144.692 27.7687 145.02 27.3119 145.468 26.9692C145.906 26.6607 146.379 26.507 146.889 26.507C147.071 26.507 147.235 26.5195 147.381 26.542V28.3704Z" fill="white"/>
<path d="M156.176 30.5885C156.176 30.932 156.153 31.2216 156.104 31.4581H150.204C150.227 32.3107 150.512 32.9627 151.06 33.4124C151.557 33.8144 152.2 34.0158 152.99 34.0158C153.863 34.0158 154.66 33.88 155.377 33.6075L155.685 34.9386C154.848 35.2947 153.859 35.4719 152.718 35.4719C151.345 35.4719 150.268 35.078 149.484 34.291C148.702 33.5041 148.31 32.4474 148.31 31.1218C148.31 29.8204 148.674 28.7367 149.404 27.8725C150.167 26.9498 151.199 26.4884 152.498 26.4884C153.774 26.4884 154.74 26.9498 155.395 27.8725C155.915 28.6054 156.176 29.512 156.176 30.5885ZM154.301 30.0911C154.313 29.5228 154.185 29.0317 153.919 28.6171C153.578 28.0838 153.055 27.8176 152.352 27.8176C151.709 27.8176 151.186 28.0775 150.786 28.5991C150.459 29.0137 150.264 29.5111 150.204 30.0902H154.301V30.0911Z" fill="white"/>
</svg>
