<svg width="8" height="14" viewBox="0 0 8 14" xml:space="preserve"><path d="M6.631.045a1.726 1.726 0 0 0-.173.112C6.327.255.206 6.384.13 6.493.001 6.68 0 6.682 0 7v.281l.039.077c.021.042.074.124.118.183.11.145 6.217 6.246 6.336 6.329.187.129.189.13.507.13.276 0 .282-.001.35-.035.234-.117.495-.376.611-.607L8 13.281V13c0-.318-.001-.32-.13-.507-.039-.055-1.026-1.052-2.762-2.79L2.407 7l2.701-2.703c1.736-1.738 2.723-2.735 2.762-2.79C7.999 1.32 8 1.318 8 1c0-.276-.001-.282-.035-.35a1.538 1.538 0 0 0-.607-.611L7.281 0h-.284l-.284.001-.082.044" fill="currentColor"/></svg>
