<svg width="16" height="16" viewBox="0 0 16 16" fill="none" xmlns="http://www.w3.org/2000/svg">
<path d="M5.29279 14.3635C5.10532 14.1759 5 13.9216 5 13.6565C5 13.3913 5.10532 13.137 5.29279 12.9495L10.2428 7.99946L5.29279 3.04946C5.11063 2.86086 5.00983 2.60826 5.01211 2.34606C5.01439 2.08387 5.11956 1.83305 5.30497 1.64764C5.49038 1.46224 5.74119 1.35707 6.00339 1.35479C6.26558 1.35251 6.51818 1.45331 6.70679 1.63546L12.3638 7.29246C12.5513 7.47999 12.6566 7.7343 12.6566 7.99946C12.6566 8.26463 12.5513 8.51894 12.3638 8.70646L6.70679 14.3635C6.51926 14.5509 6.26495 14.6562 5.99979 14.6562C5.73462 14.6562 5.48031 14.5509 5.29279 14.3635Z" fill="currentColor"/>
</svg>
