<svg width="48" height="48" viewBox="0 0 48 48" fill="none" xmlns="http://www.w3.org/2000/svg">
<rect width="48" height="48" rx="11.6364" fill="#ED131C"/>
<mask id="mask0_3506_19757" style="mask-type:alpha" maskUnits="userSpaceOnUse" x="8" y="8" width="32" height="32">
<rect x="8" y="8" width="32" height="32" fill="#D9D9D9"/>
</mask>
<g mask="url(#mask0_3506_19757)">
<g filter="url(#filter0_dii_3506_19757)">
<path d="M15.7319 32.619H24.1723V31.8943C24.1723 31.4694 24.0508 31.0758 23.8079 30.7133C23.5648 30.3509 23.2447 30.087 22.8476 29.9216C22.3618 29.6994 21.8776 29.536 21.3949 29.4313C20.9123 29.3264 20.4314 29.274 19.9523 29.274C19.4729 29.274 18.9952 29.3264 18.5189 29.4313C18.0425 29.536 17.5613 29.6994 17.0753 29.9216C16.6708 30.0885 16.3458 30.3513 16.1003 30.71C15.8547 31.0684 15.7319 31.4632 15.7319 31.8943V32.619ZM27.8869 30.619H31.1246C31.4633 30.619 31.7434 30.5054 31.9649 30.2783C32.1863 30.0512 32.2969 29.7732 32.2969 29.4443C32.2969 29.1152 32.1863 28.8379 31.9649 28.6123C31.7434 28.3868 31.4633 28.274 31.1246 28.274H27.8869C27.5483 28.274 27.2682 28.3875 27.0466 28.6146C26.8251 28.8415 26.7143 29.1195 26.7143 29.4486C26.7143 29.7775 26.8251 30.0548 27.0466 30.2803C27.2682 30.5061 27.5483 30.619 27.8869 30.619ZM21.5056 27.6426C21.9183 27.222 22.1246 26.7042 22.1246 26.0893C22.1246 25.4744 21.9183 24.9606 21.5056 24.548C21.0929 24.1353 20.5792 23.929 19.9643 23.929C19.3494 23.929 18.8316 24.1353 18.4109 24.548C17.99 24.9606 17.7796 25.4744 17.7796 26.0893C17.7796 26.7042 17.99 27.222 18.4109 27.6426C18.8316 28.0635 19.3494 28.274 19.9643 28.274C20.5792 28.274 21.0929 28.0635 21.5056 27.6426ZM27.9013 26.4943H31.1099C31.4404 26.4943 31.7208 26.3775 31.9513 26.144C32.1817 25.9106 32.2969 25.6246 32.2969 25.286C32.2969 24.9475 32.1848 24.6655 31.9606 24.44C31.7364 24.2142 31.4528 24.1013 31.1099 24.1013H27.9013C27.5708 24.1013 27.2904 24.215 27.0599 24.4423C26.8295 24.6694 26.7143 24.9522 26.7143 25.2906C26.7143 25.6293 26.8264 25.9145 27.0506 26.1463C27.2748 26.3783 27.5584 26.4943 27.9013 26.4943ZM13.5593 38.6636C12.4193 38.6636 11.4512 38.2655 10.6549 37.4693C9.85894 36.6733 9.46094 35.7053 9.46094 34.5653V20.1636C9.46094 19.0236 9.85894 18.0556 10.6549 17.2596C11.4512 16.4634 12.4193 16.0653 13.5593 16.0653H18.7943V12.987C18.7943 11.9223 19.142 11.0421 19.8376 10.3463C20.5334 9.65076 21.4136 9.30298 22.4783 9.30298H25.5216C26.5863 9.30298 27.4665 9.65076 28.1623 10.3463C28.8578 11.0421 29.2056 11.9223 29.2056 12.987V16.0653H34.4406C35.5806 16.0653 36.5487 16.4634 37.3449 17.2596C38.1409 18.0556 38.5389 19.0236 38.5389 20.1636V34.5653C38.5389 35.7053 38.1409 36.6733 37.3449 37.4693C36.5487 38.2655 35.5806 38.6636 34.4406 38.6636H13.5593ZM22.7043 18.6233H25.2956V13.213H22.7043V18.6233Z" fill="#F8F8F8"/>
</g>
</g>
<defs>
<filter id="filter0_dii_3506_19757" x="5.0973" y="7.84843" width="38.2347" height="38.0879" filterUnits="userSpaceOnUse" color-interpolation-filters="sRGB">
<feFlood flood-opacity="0" result="BackgroundImageFix"/>
<feColorMatrix in="SourceAlpha" type="matrix" values="0 0 0 0 0 0 0 0 0 0 0 0 0 0 0 0 0 0 127 0" result="hardAlpha"/>
<feOffset dy="2.90909"/>
<feGaussianBlur stdDeviation="2.18182"/>
<feComposite in2="hardAlpha" operator="out"/>
<feColorMatrix type="matrix" values="0 0 0 0 0 0 0 0 0 0 0 0 0 0 0 0 0 0 0.12 0"/>
<feBlend mode="normal" in2="BackgroundImageFix" result="effect1_dropShadow_3506_19757"/>
<feBlend mode="normal" in="SourceGraphic" in2="effect1_dropShadow_3506_19757" result="shape"/>
<feColorMatrix in="SourceAlpha" type="matrix" values="0 0 0 0 0 0 0 0 0 0 0 0 0 0 0 0 0 0 127 0" result="hardAlpha"/>
<feOffset dx="-4.10112"/>
<feGaussianBlur stdDeviation="5.35418"/>
<feComposite in2="hardAlpha" operator="arithmetic" k2="-1" k3="1"/>
<feColorMatrix type="matrix" values="0 0 0 0 0.98903 0 0 0 0 0.98903 0 0 0 0 0.98903 0 0 0 0.7 0"/>
<feBlend mode="normal" in2="shape" result="effect2_innerShadow_3506_19757"/>
<feColorMatrix in="SourceAlpha" type="matrix" values="0 0 0 0 0 0 0 0 0 0 0 0 0 0 0 0 0 0 127 0" result="hardAlpha"/>
<feOffset dx="4.79308" dy="4.21926"/>
<feGaussianBlur stdDeviation="3.25727"/>
<feComposite in2="hardAlpha" operator="arithmetic" k2="-1" k3="1"/>
<feColorMatrix type="matrix" values="0 0 0 0 0.550342 0 0 0 0 0.550342 0 0 0 0 0.550342 0 0 0 0.07 0"/>
<feBlend mode="normal" in2="effect2_innerShadow_3506_19757" result="effect3_innerShadow_3506_19757"/>
</filter>
</defs>
</svg>
