<svg xmlns="http://www.w3.org/2000/svg" fill="none" viewBox="0 0 17 17"><path fill="currentColor" d="M13.4 14.93a10 10 0 0 1-4.12-.9 12.32 12.32 0 0 1-3.7-2.58 12.32 12.32 0 0 1-2.57-3.7 10 10 0 0 1-.91-4.12.68.68 0 0 1 .7-.7h2.7c.15 0 .3.05.41.16.13.1.2.23.22.37l.43 2.34c.03.18.02.33-.01.45a.7.7 0 0 1-.19.31L4.75 8.2c.22.4.48.8.79 1.19a11.73 11.73 0 0 0 2.1 2.07c.37.3.77.56 1.2.8l1.56-1.56a1.07 1.07 0 0 1 .87-.27l2.3.47c.15.04.28.12.38.24.1.12.15.25.15.4v2.7a.68.68 0 0 1-.7.7Zm-9.29-8 1.1-1.1-.28-1.57H3.45c.05.46.13.91.23 1.35.1.45.25.89.43 1.32Zm5.97 5.97a8.27 8.27 0 0 0 2.68.66V12.1l-1.56-.32-1.12 1.12Z"/></svg>