<svg width="48" height="48" viewBox="0 0 48 48" fill="none" xmlns="http://www.w3.org/2000/svg">
<ellipse cx="24" cy="23.9987" rx="24" ry="23.9987" fill="#ED131C"/>
<path d="M24.3023 37.2686C22.7953 35.8453 21.0686 34.7569 19.1221 34.0034C17.1756 33.25 15.1349 32.8732 13 32.8732V19.0593C15.114 19.0593 17.1442 19.4412 19.0907 20.2052C21.0372 20.9691 22.7744 22.0732 24.3023 23.5174C25.8302 22.0732 27.5674 20.9691 29.514 20.2052C31.4605 19.4412 33.4907 19.0593 35.6047 19.0593V32.8732C33.4488 32.8732 31.4029 33.25 29.4669 34.0034C27.5308 34.7569 25.8093 35.8453 24.3023 37.2686ZM24.3023 34.0034C25.6209 33.0197 27.0233 32.2348 28.5093 31.6488C29.9953 31.0627 31.5233 30.6755 33.093 30.4872V21.822C31.5651 22.0941 30.0634 22.6436 28.5878 23.4703C27.1122 24.297 25.6837 25.4011 24.3023 26.7825C22.9209 25.4011 21.4924 24.297 20.0169 23.4703C18.5413 22.6436 17.0395 22.0941 15.5116 21.822V30.4872C17.0814 30.6755 18.6093 31.0627 20.0953 31.6488C21.5814 32.2348 22.9837 33.0197 24.3023 34.0034ZM24.3023 20.3151C22.9209 20.3151 21.7384 19.8232 20.7547 18.8395C19.7709 17.8558 19.2791 16.6732 19.2791 15.2918C19.2791 13.9104 19.7709 12.7279 20.7547 11.7441C21.7384 10.7604 22.9209 10.2686 24.3023 10.2686C25.6837 10.2686 26.8663 10.7604 27.85 11.7441C28.8337 12.7279 29.3256 13.9104 29.3256 15.2918C29.3256 16.6732 28.8337 17.8558 27.85 18.8395C26.8663 19.8232 25.6837 20.3151 24.3023 20.3151ZM24.3023 17.8034C24.993 17.8034 25.5843 17.5575 26.0762 17.0656C26.568 16.5738 26.814 15.9825 26.814 15.2918C26.814 14.6011 26.568 14.0098 26.0762 13.518C25.5843 13.0261 24.993 12.7802 24.3023 12.7802C23.6116 12.7802 23.0203 13.0261 22.5285 13.518C22.0366 14.0098 21.7907 14.6011 21.7907 15.2918C21.7907 15.9825 22.0366 16.5738 22.5285 17.0656C23.0203 17.5575 23.6116 17.8034 24.3023 17.8034Z" fill="white"/>
</svg>
