<svg width="24" height="15" viewBox="0 0 24 15" fill="none" xmlns="http://www.w3.org/2000/svg">
<path d="M0 1.25C0 0.559644 0.559644 -9.53674e-07 1.25 -9.53674e-07H22.75C23.4404 -9.53674e-07 24 0.559644 24 1.25C24 1.94036 23.4404 2.5 22.75 2.5H1.25C0.559644 2.5 0 1.94036 0 1.25ZM0 7.5C0 6.80964 0.559644 6.25 1.25 6.25H22.75C23.4404 6.25 24 6.80964 24 7.5C24 8.19036 23.4404 8.75 22.75 8.75H1.25C0.559644 8.75 0 8.19036 0 7.5ZM1.25 15C0.559644 15 0 14.4404 0 13.75C0 13.0596 0.559644 12.5 1.25 12.5H22.75C23.4404 12.5 24 13.0596 24 13.75C24 14.4404 23.4404 15 22.75 15H1.25Z" fill="currentColor"/>
</svg>
