<svg viewBox="0 0 40 40" fill="none" xmlns="http://www.w3.org/2000/svg">
    <rect width="40" height="40" rx="20" fill="#E0E1E5"/>
    <mask id="mask0_600_4029" style="mask-type:alpha" maskUnits="userSpaceOnUse" x="6" y="6" width="30" height="30">
        <rect x="6" y="6" width="30" height="30" fill="#D9D9D9"/>
    </mask>
    <g mask="url(#mask0_600_4029)">
        <path d="M32.75 23.8125L23.8125 32.75C23.5625 33 23.2812 33.1875 22.9688 33.3125C22.6562 33.4375 22.3438 33.5 22.0312 33.5C21.7188 33.5 21.4062 33.4375 21.0938 33.3125C20.7812 33.1875 20.5 33 20.25 32.75L9.21875 21.7188C8.98958 21.4896 8.8125 21.224 8.6875 20.9219C8.5625 20.6198 8.5 20.3021 8.5 19.9688V11C8.5 10.3125 8.74479 9.72396 9.23438 9.23438C9.72396 8.74479 10.3125 8.5 11 8.5H19.9688C20.3021 8.5 20.625 8.56771 20.9375 8.70313C21.25 8.83854 21.5208 9.02083 21.75 9.25L32.75 20.2812C33 20.5312 33.1823 20.8125 33.2969 21.125C33.4115 21.4375 33.4688 21.75 33.4688 22.0625C33.4688 22.375 33.4115 22.6823 33.2969 22.9844C33.1823 23.2865 33 23.5625 32.75 23.8125ZM22.0312 31L30.9688 22.0625L19.9375 11H11V19.9375L22.0312 31ZM14.125 16C14.6458 16 15.0885 15.8177 15.4531 15.4531C15.8177 15.0885 16 14.6458 16 14.125C16 13.6042 15.8177 13.1615 15.4531 12.7969C15.0885 12.4323 14.6458 12.25 14.125 12.25C13.6042 12.25 13.1615 12.4323 12.7969 12.7969C12.4323 13.1615 12.25 13.6042 12.25 14.125C12.25 14.6458 12.4323 15.0885 12.7969 15.4531C13.1615 15.8177 13.6042 16 14.125 16Z" fill="#1C1B1F"/>
    </g>
</svg>
