<svg viewBox="0 0 40 40" fill="none" xmlns="http://www.w3.org/2000/svg">
    <rect width="40" height="40" rx="20" fill="#E0E1E5"/>
    <mask id="mask0_600_4017" style="mask-type:alpha" maskUnits="userSpaceOnUse" x="5" y="5" width="30" height="30">
        <rect x="5" y="5" width="30" height="30" fill="#D9D9D9"/>
    </mask>
    <g mask="url(#mask0_600_4017)">
        <path d="M10 31.25V19.5H7.5V12H14C13.8958 11.8125 13.8281 11.6146 13.7969 11.4062C13.7656 11.1979 13.75 10.9792 13.75 10.75C13.75 9.70833 14.1146 8.82292 14.8438 8.09375C15.5729 7.36458 16.4583 7 17.5 7C17.9792 7 18.4271 7.08854 18.8438 7.26562C19.2604 7.44271 19.6458 7.6875 20 8C20.3542 7.66667 20.7396 7.41667 21.1562 7.25C21.5729 7.08333 22.0208 7 22.5 7C23.5417 7 24.4271 7.36458 25.1562 8.09375C25.8854 8.82292 26.25 9.70833 26.25 10.75C26.25 10.9792 26.2292 11.1927 26.1875 11.3906C26.1458 11.5885 26.0833 11.7917 26 12H32.5V19.5H30V31.25H10ZM22.5 9.5C22.1458 9.5 21.849 9.61979 21.6094 9.85938C21.3698 10.099 21.25 10.3958 21.25 10.75C21.25 11.1042 21.3698 11.401 21.6094 11.6406C21.849 11.8802 22.1458 12 22.5 12C22.8542 12 23.151 11.8802 23.3906 11.6406C23.6302 11.401 23.75 11.1042 23.75 10.75C23.75 10.3958 23.6302 10.099 23.3906 9.85938C23.151 9.61979 22.8542 9.5 22.5 9.5ZM16.25 10.75C16.25 11.1042 16.3698 11.401 16.6094 11.6406C16.849 11.8802 17.1458 12 17.5 12C17.8542 12 18.151 11.8802 18.3906 11.6406C18.6302 11.401 18.75 11.1042 18.75 10.75C18.75 10.3958 18.6302 10.099 18.3906 9.85938C18.151 9.61979 17.8542 9.5 17.5 9.5C17.1458 9.5 16.849 9.61979 16.6094 9.85938C16.3698 10.099 16.25 10.3958 16.25 10.75ZM10 14.5V17H18.75V14.5H10ZM18.75 28.75V19.5H12.5V28.75H18.75ZM21.25 28.75H27.5V19.5H21.25V28.75ZM30 17V14.5H21.25V17H30Z" fill="#1C1B1F"/>
    </g>
</svg>
