<svg viewBox="0 0 40 40" fill="none" xmlns="http://www.w3.org/2000/svg">
    <rect width="40" height="40" rx="20" fill="#E0E1E5"/>
    <mask id="mask0_600_4011" style="mask-type:alpha" maskUnits="userSpaceOnUse" x="5" y="5" width="31" height="31">
        <rect x="5.25" y="5.00018" width="30" height="30" fill="#D9D9D9"/>
    </mask>
    <g mask="url(#mask0_600_4011)">
        <path d="M20.25 26.25C20.6042 26.25 20.901 26.1302 21.1406 25.8906C21.3802 25.651 21.5 25.3542 21.5 25C21.5 24.6458 21.3802 24.349 21.1406 24.1094C20.901 23.8698 20.6042 23.75 20.25 23.75C19.8958 23.75 19.599 23.8698 19.3594 24.1094C19.1198 24.349 19 24.6458 19 25C19 25.3542 19.1198 25.651 19.3594 25.8906C19.599 26.1302 19.8958 26.25 20.25 26.25ZM20.25 21.25C20.6042 21.25 20.901 21.1302 21.1406 20.8906C21.3802 20.651 21.5 20.3542 21.5 20C21.5 19.6458 21.3802 19.349 21.1406 19.1094C20.901 18.8698 20.6042 18.75 20.25 18.75C19.8958 18.75 19.599 18.8698 19.3594 19.1094C19.1198 19.349 19 19.6458 19 20C19 20.3542 19.1198 20.651 19.3594 20.8906C19.599 21.1302 19.8958 21.25 20.25 21.25ZM20.25 16.25C20.6042 16.25 20.901 16.1302 21.1406 15.8906C21.3802 15.651 21.5 15.3542 21.5 15C21.5 14.6458 21.3802 14.349 21.1406 14.1094C20.901 13.8698 20.6042 13.75 20.25 13.75C19.8958 13.75 19.599 13.8698 19.3594 14.1094C19.1198 14.349 19 14.6458 19 15C19 15.3542 19.1198 15.651 19.3594 15.8906C19.599 16.1302 19.8958 16.25 20.25 16.25ZM30.25 30H10.25C9.5625 30 8.97396 29.7552 8.48438 29.2656C7.99479 28.776 7.75 28.1875 7.75 27.5V22.5C8.4375 22.5 9.02604 22.2552 9.51562 21.7656C10.0052 21.276 10.25 20.6875 10.25 20C10.25 19.3125 10.0052 18.724 9.51562 18.2344C9.02604 17.7448 8.4375 17.5 7.75 17.5V12.5C7.75 11.8125 7.99479 11.224 8.48438 10.7344C8.97396 10.2448 9.5625 10 10.25 10H30.25C30.9375 10 31.526 10.2448 32.0156 10.7344C32.5052 11.224 32.75 11.8125 32.75 12.5V17.5C32.0625 17.5 31.474 17.7448 30.9844 18.2344C30.4948 18.724 30.25 19.3125 30.25 20C30.25 20.6875 30.4948 21.276 30.9844 21.7656C31.474 22.2552 32.0625 22.5 32.75 22.5V27.5C32.75 28.1875 32.5052 28.776 32.0156 29.2656C31.526 29.7552 30.9375 30 30.25 30ZM30.25 27.5V24.3125C29.4792 23.8542 28.8698 23.2448 28.4219 22.4844C27.974 21.724 27.75 20.8958 27.75 20C27.75 19.1042 27.974 18.276 28.4219 17.5156C28.8698 16.7552 29.4792 16.1458 30.25 15.6875V12.5H10.25V15.6875C11.0208 16.1458 11.6302 16.7552 12.0781 17.5156C12.526 18.276 12.75 19.1042 12.75 20C12.75 20.8958 12.526 21.724 12.0781 22.4844C11.6302 23.2448 11.0208 23.8542 10.25 24.3125V27.5H30.25Z" fill="#1C1B1F"/>
    </g>
</svg>

