<svg width="9" height="8" viewBox="0 0 9 8" fill="none" xmlns="http://www.w3.org/2000/svg">
<path d="M6.97065 0.969792C7.1106 0.831064 7.29952 0.752988 7.49658 0.752444C7.69363 0.751901 7.88299 0.828933 8.0237 0.966887C8.16441 1.10484 8.24518 1.29263 8.24854 1.48966C8.2519 1.68669 8.17758 1.87712 8.04165 2.01979L4.04965 7.00979C3.98104 7.08369 3.89823 7.14299 3.80618 7.18416C3.71413 7.22532 3.61472 7.2475 3.5139 7.24937C3.41308 7.25124 3.31292 7.23275 3.2194 7.19502C3.12589 7.1573 3.04094 7.1011 2.96965 7.02979L0.324646 4.38379C0.250959 4.31513 0.191857 4.23233 0.150865 4.14033C0.109873 4.04833 0.087831 3.94902 0.0860542 3.84831C0.0842774 3.74761 0.102802 3.64758 0.140523 3.55419C0.178244 3.46081 0.234389 3.37597 0.305608 3.30475C0.376826 3.23354 0.46166 3.17739 0.555048 3.13967C0.648437 3.10195 0.748466 3.08342 0.849169 3.0852C0.949872 3.08698 1.04918 3.10902 1.14118 3.15001C1.23318 3.191 1.31598 3.25011 1.38465 3.32379L3.47865 5.41679L6.95165 0.991792C6.95784 0.984044 6.96452 0.976696 6.97165 0.969792H6.97065Z" fill="#FF0A47"/>
</svg>
