<svg xmlns="http://www.w3.org/2000/svg" fill="none" viewBox="0 0 47 46"><path fill="currentColor" fill-rule="evenodd" d="M17.74 16.4c-.5-.12-1 .34-.85.84l7.9 26c.32 1.07 1.66 1.37 2.31.46l4.98-6.96 8.2 8.2a3.66 3.66 0 0 0 5.16 0 3.66 3.66 0 0 0 0-5.17l-8.2-8.2 6.96-4.97c.91-.65.61-1.99-.46-2.31l-26-7.9Z" clip-rule="evenodd"/><path fill="#fff" d="M5.97 7.39a1.35 1.35 0 0 1 1.91-1.92l5.87 5.86a1.35 1.35 0 0 1-1.92 1.92L5.97 7.39ZM1.85 20.04a1.35 1.35 0 0 1 0-2.71h8.29a1.35 1.35 0 0 1 0 2.7H1.85ZM7.88 31.9a1.35 1.35 0 1 1-1.9-1.92l5.85-5.86a1.35 1.35 0 0 1 1.92 1.91L7.88 31.9ZM30.48 5.47A1.35 1.35 0 1 1 32.4 7.4l-5.87 5.86a1.35 1.35 0 1 1-1.9-1.92l5.85-5.86ZM17.83 1.35a1.35 1.35 0 1 1 2.7 0v8.29a1.35 1.35 0 0 1-2.7 0V1.35Z"/></svg>