<svg xmlns="http://www.w3.org/2000/svg" width="24" height="24" viewBox="0 0 24 24" fill="none"><path fill="currentColor" fill-rule="evenodd" d="M12 1.9c5.556 0 10.1 4.545 10.1 10.1S17.556 22.1 12 22.1C6.445 22.1 1.9 17.555 1.9 12S6.445 1.9 12 1.9Zm0 2.2c4.345 0 7.9 3.555 7.9 7.9 0 4.345-3.555 7.9-7.9 7.9-4.344 0-7.9-3.555-7.9-7.9 0-4.345 3.556-7.9 7.9-7.9Z" clip-rule="evenodd"/><path fill="currentColor" d="M12.25 6.9c.47 0 .85.38.85.85v3.65h3.15a.85.85 0 0 1 0 1.7H11.4V7.75c0-.47.38-.85.85-.85Z"/></svg>
