<svg version="1.1" id="Layer_1" xmlns="http://www.w3.org/2000/svg" xmlns:xlink="http://www.w3.org/1999/xlink" x="0px" y="0px"
	 width="21px" height="19px" viewBox="0 0 21 19" enable-background="new 0 0 21 19" xml:space="preserve">
<path fill="#181940" d="M1,19c-0.281,0-0.554-0.119-0.746-0.334c-0.239-0.267-0.316-0.642-0.203-0.982l1.15-3.449
	c-1.068-1.793-1.433-3.858-1.025-5.871c0.437-2.16,1.731-4.097,3.645-5.454c1.875-1.329,4.25-2.024,6.644-1.922
	c2.402,0.097,4.686,0.97,6.43,2.458c1.771,1.512,2.866,3.551,3.081,5.742c0.216,2.197-0.47,4.383-1.931,6.156
	c-1.437,1.742-3.523,2.959-5.879,3.425c-2.203,0.438-4.563,0.177-6.584-0.72l-4.374,0.931C1.139,18.993,1.069,19,1,19z M5.7,16
	c0.15,0,0.3,0.034,0.437,0.101c1.703,0.826,3.746,1.082,5.641,0.706c1.903-0.378,3.581-1.349,4.725-2.735
	c1.12-1.359,1.646-3.024,1.483-4.689c-0.164-1.673-1.013-3.241-2.39-4.416c-1.403-1.198-3.255-1.901-5.212-1.981
	C8.432,2.908,6.495,3.465,4.979,4.542C3.481,5.603,2.472,7.102,2.136,8.76c-0.333,1.644,0.02,3.341,0.992,4.78
	c0.174,0.257,0.218,0.581,0.12,0.876l-0.748,2.242l2.991-0.637C5.561,16.007,5.631,16,5.7,16z M11,10.01V10
	c0-0.552-0.448-0.995-1-0.995S9,9.458,9,10.01c0,0.553,0.448,1,1,1S11,10.563,11,10.01z M7,10.01V10c0-0.552-0.448-0.995-1-0.995
	S5,9.458,5,10.01c0,0.553,0.448,1,1,1S7,10.563,7,10.01z M15,10.01V10c0-0.552-0.447-0.995-1-0.995s-1,0.453-1,1.005
	c0,0.553,0.447,1,1,1S15,10.563,15,10.01z"/>
</svg>
