<svg width="48" height="48" viewBox="0 0 48 48" fill="none" xmlns="http://www.w3.org/2000/svg">
<ellipse cx="24" cy="23.9987" rx="24" ry="23.9987" fill="#ED131C"/>
<path d="M13.3333 34.7681C12.6917 34.7681 12.1424 34.5396 11.6854 34.0826C11.2285 33.6257 11 33.0764 11 32.4347V19.6014H13.3333V32.4347H33.1667V34.7681H13.3333ZM18 30.1014C17.3583 30.1014 16.809 29.8729 16.3521 29.416C15.8951 28.959 15.6667 28.4097 15.6667 27.7681V14.9347H21.5V12.6014C21.5 11.9597 21.7285 11.4104 22.1854 10.9535C22.6424 10.4965 23.1917 10.2681 23.8333 10.2681H28.5C29.1417 10.2681 29.691 10.4965 30.1479 10.9535C30.6049 11.4104 30.8333 11.9597 30.8333 12.6014V14.9347H36.6667V27.7681C36.6667 28.4097 36.4382 28.959 35.9813 29.416C35.5243 29.8729 34.975 30.1014 34.3333 30.1014H18ZM18 27.7681H34.3333V17.2681H18V27.7681ZM23.8333 14.9347H28.5V12.6014H23.8333V14.9347Z" fill="white"/>
</svg>
