<svg width="48" height="48" viewBox="0 0 48 48" fill="none" xmlns="http://www.w3.org/2000/svg">
<rect width="48" height="48" rx="11.6364" fill="#ED131C"/>
<mask id="mask0_3506_19746" style="mask-type:alpha" maskUnits="userSpaceOnUse" x="8" y="8" width="32" height="32">
<rect x="8" y="8" width="32" height="32" fill="#D9D9D9"/>
</mask>
<g mask="url(#mask0_3506_19746)">
<g filter="url(#filter0_dii_3506_19746)">
<path d="M14.7676 37.2057C13.6123 37.2057 12.6404 36.8071 11.8519 36.01C11.0635 35.2127 10.6693 34.2451 10.6693 33.1074V14.6724C10.6693 13.5346 11.0635 12.567 11.8519 11.7697C12.6404 10.9726 13.6123 10.574 14.7676 10.574H19.2096C19.7334 9.73915 20.415 9.07804 21.2546 8.59071C22.0941 8.10315 23.0091 7.85938 23.9996 7.85938C24.99 7.85938 25.905 8.10315 26.7446 8.59071C27.5841 9.07804 28.2658 9.73915 28.7896 10.574H33.2316C34.3869 10.574 35.3588 10.9726 36.1473 11.7697C36.9357 12.567 37.3299 13.5346 37.3299 14.6724V33.1074C37.3299 34.2451 36.9357 35.2127 36.1473 36.01C35.3588 36.8071 34.3869 37.2057 33.2316 37.2057H14.7676ZM18.8299 30.8187H25.2909C25.7371 30.8187 26.118 30.6605 26.4336 30.344C26.7491 30.0274 26.9069 29.6453 26.9069 29.1977C26.9069 28.7499 26.7491 28.3696 26.4336 28.0567C26.118 27.7436 25.7371 27.587 25.2909 27.587H18.8299C18.3839 27.587 18.0031 27.744 17.6876 28.058C17.372 28.372 17.2143 28.751 17.2143 29.195C17.2143 29.639 17.372 30.0207 17.6876 30.34C18.0031 30.6592 18.3839 30.8187 18.8299 30.8187ZM18.8299 25.5057H29.1693C29.6153 25.5057 29.996 25.3493 30.3116 25.0364C30.6271 24.7233 30.7849 24.3412 30.7849 23.89C30.7849 23.4387 30.6271 23.0565 30.3116 22.7434C29.996 22.4305 29.6153 22.274 29.1693 22.274H18.8299C18.3839 22.274 18.0031 22.4305 17.6876 22.7434C17.372 23.0565 17.2143 23.4387 17.2143 23.89C17.2143 24.3412 17.372 24.7233 17.6876 25.0364C18.0031 25.3493 18.3839 25.5057 18.8299 25.5057ZM18.8299 20.2117H29.1693C29.6153 20.2117 29.996 20.0534 30.3116 19.7367C30.6271 19.4203 30.7849 19.0382 30.7849 18.5904C30.7849 18.1428 30.6271 17.7625 30.3116 17.4494C29.996 17.1363 29.6153 16.9797 29.1693 16.9797H18.8299C18.3839 16.9797 18.0031 17.1367 17.6876 17.4507C17.372 17.7649 17.2143 18.1439 17.2143 18.5877C17.2143 19.0317 17.372 19.4134 17.6876 19.7327C18.0031 20.052 18.3839 20.2117 18.8299 20.2117ZM24.8199 13.142C25.0401 12.9218 25.1503 12.6484 25.1503 12.3217C25.1503 11.9953 25.0401 11.7218 24.8199 11.5014C24.5997 11.2812 24.3263 11.171 23.9996 11.171C23.6729 11.171 23.3995 11.2812 23.1793 11.5014C22.959 11.7218 22.8489 11.9953 22.8489 12.3217C22.8489 12.6484 22.959 12.9218 23.1793 13.142C23.3995 13.3623 23.6729 13.4724 23.9996 13.4724C24.3263 13.4724 24.5997 13.3623 24.8199 13.142Z" fill="#F8F8F8"/>
</g>
</g>
<defs>
<filter id="filter0_dii_3506_19746" x="6.30561" y="6.40483" width="35.8174" height="38.0737" filterUnits="userSpaceOnUse" color-interpolation-filters="sRGB">
<feFlood flood-opacity="0" result="BackgroundImageFix"/>
<feColorMatrix in="SourceAlpha" type="matrix" values="0 0 0 0 0 0 0 0 0 0 0 0 0 0 0 0 0 0 127 0" result="hardAlpha"/>
<feOffset dy="2.90909"/>
<feGaussianBlur stdDeviation="2.18182"/>
<feComposite in2="hardAlpha" operator="out"/>
<feColorMatrix type="matrix" values="0 0 0 0 0 0 0 0 0 0 0 0 0 0 0 0 0 0 0.12 0"/>
<feBlend mode="normal" in2="BackgroundImageFix" result="effect1_dropShadow_3506_19746"/>
<feBlend mode="normal" in="SourceGraphic" in2="effect1_dropShadow_3506_19746" result="shape"/>
<feColorMatrix in="SourceAlpha" type="matrix" values="0 0 0 0 0 0 0 0 0 0 0 0 0 0 0 0 0 0 127 0" result="hardAlpha"/>
<feOffset dx="-4.10112"/>
<feGaussianBlur stdDeviation="5.35418"/>
<feComposite in2="hardAlpha" operator="arithmetic" k2="-1" k3="1"/>
<feColorMatrix type="matrix" values="0 0 0 0 0.98903 0 0 0 0 0.98903 0 0 0 0 0.98903 0 0 0 0.7 0"/>
<feBlend mode="normal" in2="shape" result="effect2_innerShadow_3506_19746"/>
<feColorMatrix in="SourceAlpha" type="matrix" values="0 0 0 0 0 0 0 0 0 0 0 0 0 0 0 0 0 0 127 0" result="hardAlpha"/>
<feOffset dx="4.79308" dy="4.21926"/>
<feGaussianBlur stdDeviation="3.25727"/>
<feComposite in2="hardAlpha" operator="arithmetic" k2="-1" k3="1"/>
<feColorMatrix type="matrix" values="0 0 0 0 0.550342 0 0 0 0 0.550342 0 0 0 0 0.550342 0 0 0 0.07 0"/>
<feBlend mode="normal" in2="effect2_innerShadow_3506_19746" result="effect3_innerShadow_3506_19746"/>
</filter>
</defs>
</svg>
