<svg width="38" height="38" viewBox="0 0 38 38" fill="none" xmlns="http://www.w3.org/2000/svg">
    <mask id="mask0_41079_9821" style="mask-type:alpha" maskUnits="userSpaceOnUse" x="0" y="0" width="38" height="38">
        <rect width="38" height="38" fill="#D9D9D9"/>
    </mask>
    <g mask="url(#mask0_41079_9821)">
        <path d="M18.9992 35.4863C15.8423 35.4863 13.2662 34.9861 11.2709 33.9857C9.27565 32.9856 8.27802 31.6942 8.27802 30.1117C8.27802 29.3836 8.50879 28.7065 8.97033 28.0803C9.43187 27.4541 10.0783 26.9084 10.9095 26.4431L13.659 29.1384C13.3708 29.2502 13.0614 29.3832 12.7307 29.5374C12.4001 29.6912 12.1334 29.8763 11.9308 30.0927C12.32 30.5703 13.2179 30.9883 14.6244 31.3467C16.0309 31.7051 17.493 31.8842 19.0106 31.8842C20.528 31.8842 21.9934 31.7051 23.4068 31.3467C24.8202 30.9883 25.7203 30.5703 26.1071 30.0927C25.8781 29.8499 25.59 29.6516 25.243 29.4978C24.896 29.3437 24.5684 29.2107 24.2602 29.0988L26.9796 26.364C27.8636 26.8493 28.5414 27.4082 29.013 28.0407C29.4845 28.6732 29.7203 29.3629 29.7203 30.1097C29.7203 31.6928 28.7227 32.9847 26.7274 33.9853C24.7319 34.986 22.1558 35.4863 18.9992 35.4863ZM19.0577 25.9167C21.6259 24.0343 23.5604 22.1361 24.8611 20.2218C26.1615 18.3076 26.8117 16.3802 26.8117 14.4399C26.8117 11.8015 25.9664 9.80968 24.2756 8.46437C22.5849 7.11933 20.8292 6.44681 19.0087 6.44681C17.1804 6.44681 15.4212 7.11933 13.731 8.46437C12.0411 9.80968 11.1961 11.8015 11.1961 14.4399C11.1961 16.1765 11.8331 17.9872 13.1072 19.8719C14.3812 21.7569 16.3648 23.7718 19.0577 25.9167ZM19.0087 30.405C15.1796 27.5957 12.3216 24.8673 10.4345 22.22C8.54718 19.5726 7.60352 16.9793 7.60352 14.4399C7.60352 12.5285 7.94974 10.8489 8.64218 9.40091C9.33463 7.95296 10.2239 6.74184 11.3101 5.76756C12.3963 4.79328 13.6182 4.06257 14.9759 3.57544C16.3334 3.0883 17.6769 2.84473 19.0067 2.84473C20.3364 2.84473 21.6797 3.0883 23.0367 3.57544C24.3936 4.06257 25.6147 4.79328 26.7001 5.76756C27.7855 6.74184 28.6743 7.95296 29.3664 9.40091C30.0583 10.8489 30.4043 12.5285 30.4043 14.4399C30.4043 16.9793 29.4614 19.5726 27.5757 22.22C25.6899 24.8673 22.8343 27.5957 19.0087 30.405ZM19.0051 17.4545C19.9036 17.4545 20.6723 17.136 21.3112 16.499C21.9504 15.8622 22.2699 15.0967 22.2699 14.2024C22.2699 13.3001 21.9506 12.531 21.312 11.8951C20.6734 11.2591 19.9056 10.9411 19.0087 10.9411C18.1091 10.9411 17.339 11.2591 16.6986 11.8951C16.0581 12.531 15.7379 13.2986 15.7379 14.1976C15.7379 15.097 16.0577 15.8646 16.6974 16.5006C17.3373 17.1366 18.1066 17.4545 19.0051 17.4545Z" fill="white"/>
    </g>
</svg>
