<svg width="38" height="38" viewBox="0 0 38 38" fill="none" xmlns="http://www.w3.org/2000/svg">
    <mask id="mask0_41079_9814" style="mask-type:alpha" maskUnits="userSpaceOnUse" x="0" y="0" width="38" height="38">
        <rect width="38" height="38" fill="#D9D9D9"/>
    </mask>
    <g mask="url(#mask0_41079_9814)">
        <path d="M23.8897 26.5762L26.621 23.8897L20.9194 18.1881V11.1957H17.0814V19.758L23.8897 26.5762ZM19.0004 35.5945C16.6908 35.5945 14.5281 35.1596 12.5123 34.2898C10.4967 33.4201 8.74341 32.2395 7.25244 30.7483C5.7612 29.2573 4.58069 27.5041 3.71092 25.4885C2.84114 23.4726 2.40625 21.3099 2.40625 19.0004C2.40625 16.6908 2.84114 14.5281 3.71092 12.5123C4.58069 10.4967 5.7612 8.74341 7.25244 7.25244C8.74341 5.7612 10.4967 4.58069 12.5123 3.71092C14.5281 2.84114 16.6908 2.40625 19.0004 2.40625C21.3099 2.40625 23.4726 2.84114 25.4885 3.71092C27.5041 4.58069 29.2573 5.7612 30.7483 7.25244C32.2396 8.74341 33.4201 10.4967 34.2898 12.5123C35.1596 14.5281 35.5945 16.6908 35.5945 19.0004C35.5945 21.3099 35.1596 23.4726 34.2898 25.4885C33.4201 27.5041 32.2396 29.2573 30.7483 30.7483C29.2573 32.2395 27.5041 33.4201 25.4885 34.2898C23.4726 35.1596 21.3099 35.5945 19.0004 35.5945ZM19 31.3987C22.4353 31.3987 25.3606 30.1948 27.776 27.7871C30.1911 25.3794 31.3987 22.4505 31.3987 19.0004C31.3987 15.5503 30.1911 12.6214 27.776 10.2137C25.3609 7.80594 22.4358 6.60208 19.0008 6.60208C15.5655 6.60208 12.6401 7.80594 10.2247 10.2137C7.80964 12.6214 6.60208 15.5503 6.60208 19.0004C6.60208 22.4505 7.80964 25.3794 10.2247 27.7871C12.6399 30.1948 15.5649 31.3987 19 31.3987Z" fill="white"/>
    </g>
</svg>
