<svg xmlns="http://www.w3.org/2000/svg" xml:space="preserve" width="20" height="20" viewBox="0 0 20 20"><path fill="currentColor" d="M18.5 12.5v3.334c0 .701-.285 1.389-.781 1.885s-1.184.781-1.885.781H4.167a2.647 2.647 0 0 1-1.885-.781 2.683 2.683 0 0 1-.782-1.885V12.5a1 1 0 1 1 2 0v3.334c0 .175.071.347.195.471s.296.195.472.195h11.667c.175 0 .347-.071.471-.195s.195-.296.195-.471V12.5a1 1 0 1 1 2 0zm-9.208.706a.99.99 0 0 0 .323.216.992.992 0 0 0 1.093-.216l4.165-4.166a.999.999 0 1 0-1.414-1.414L11 10.085V2.5a1 1 0 1 0-2 0v7.586l-2.459-2.46A.999.999 0 1 0 5.127 9.04l4.165 4.166z"/></svg>
