<svg width="21" height="17" viewBox="0 0 21 17" fill="none" xmlns="http://www.w3.org/2000/svg">
<path fill-rule="evenodd" clip-rule="evenodd" d="M17.0156 0.484375H3.01562C1.35877 0.484375 0.015625 1.82752 0.015625 3.48438V13.4844C0.015625 15.1412 1.35877 16.4844 3.01562 16.4844H17.0156C18.6725 16.4844 20.0156 15.1412 20.0156 13.4844V3.48438C20.0156 1.82752 18.6725 0.484375 17.0156 0.484375ZM16.6105 2.4885L10.7305 8.3685C10.5428 8.55781 10.2872 8.6643 10.0205 8.6643C9.75391 8.6643 9.49831 8.55781 9.31055 8.3685L3.43054 2.4885H16.6105ZM18.0198 13.4893C18.0198 14.0416 17.572 14.4893 17.0198 14.4893H3.01975C2.46746 14.4893 2.01975 14.0416 2.01975 13.4893V3.89929L7.89975 9.77929C9.07102 10.9491 10.9685 10.9491 12.1397 9.77929L18.0198 3.89929V13.4893Z" fill="currentColor"/>
</svg>
