<svg xmlns="http://www.w3.org/2000/svg" width="26" height="24" fill="none" viewBox="0 0 26 24"><g fill="currentColor" clip-path="url(#a)"><path d="M5.334.877c.084-.289.492-.289.576 0l.134.46a7 7 0 0 0 4.458 4.668l.289.098a.3.3 0 0 1 0 .568l-.289.098a7 7 0 0 0-4.458 4.669l-.134.46c-.084.287-.492.287-.576 0l-.134-.46A7 7 0 0 0 .741 6.769l-.288-.098a.3.3 0 0 1 0-.568l.288-.098A7 7 0 0 0 5.2 1.336zM6.937 23.857q-.777.285-1.415-.21-.638-.492-.575-1.289l.313-4.995a.4.4 0 0 1 .64-.295l5.858 4.414a.4.4 0 0 1-.106.697zm7.056-4.106a.4.4 0 0 1-.56.079l-6.406-4.827a.4.4 0 0 1-.078-.56l9.466-12.564a2.95 2.95 0 0 1 2.02-1.188 2.95 2.95 0 0 1 2.27.585l2.152 1.622a2.95 2.95 0 0 1 1.188 2.02 2.95 2.95 0 0 1-.585 2.27z"/></g><defs><clipPath id="a"><path fill="#fff" d="M0 0h26v24H0z"/></clipPath></defs></svg>