<svg xmlns="http://www.w3.org/2000/svg" fill="none" viewBox="0 0 24 24"><path fill="currentColor" d="M10.21 24a2 2 0 0 1-1.98-1.75l-.2-1.58a1.05 1.05 0 0 0-.52-.74.99.99 0 0 0-.91-.08l-1.38.6a2 2 0 0 1-2.54-.86L.85 16.35a2 2 0 0 1 .52-2.56l1.45-1.12c.13-.1.19-.25.19-.41v-.52a.52.52 0 0 0-.2-.41l-1.43-1.11a2 2 0 0 1-.52-2.57l1.83-3.23a2 2 0 0 1 2.52-.85l1.43.6c.29.13.62.09.89-.07a1 1 0 0 0 .5-.71l.2-1.64A2 2 0 0 1 10.2 0h3.58a2 2 0 0 1 1.98 1.75l.2 1.62a1 1 0 0 0 .52.73c.28.16.62.2.91.07l1.39-.6a2 2 0 0 1 2.52.86l1.83 3.21a2 2 0 0 1-.52 2.58l-1.45 1.1c-.13.1-.2.26-.2.42v.52c-.01.16.04.31.17.41l1.45 1.11a2 2 0 0 1 .52 2.58l-1.84 3.24a2 2 0 0 1-2.53.84l-1.38-.6a.95.95 0 0 0-.89.09c-.26.16-.46.41-.5.72l-.2 1.6A2 2 0 0 1 13.8 24H10.2Zm1.8-8c1.09 0 2.01-.38 2.78-1.17A3.9 3.9 0 0 0 15.94 12a3.9 3.9 0 0 0-1.15-2.83 3.76 3.76 0 0 0-2.78-1.18c-1.1 0-2.03.4-2.8 1.18A3.9 3.9 0 0 0 8.08 12c0 1.1.39 2.05 1.15 2.83.76.79 1.7 1.18 2.79 1.18Z"/></svg>