<svg xmlns="http://www.w3.org/2000/svg" fill="none" viewBox="0 0 24 24"><path fill="currentColor" d="M13.43 2.91c0-1.05.86-1.91 1.92-1.91h5.74C22.14 1 23 1.86 23 2.91v5.74c0 1.06-.86 1.92-1.91 1.92h-5.74a1.91 1.91 0 0 1-1.92-1.92V2.91ZM13.43 15.35c0-1.06.86-1.92 1.92-1.92h5.74c1.05 0 1.91.86 1.91 1.92v5.74c0 1.05-.86 1.91-1.91 1.91h-5.74a1.91 1.91 0 0 1-1.92-1.91v-5.74ZM1 2.91C1 1.86 1.86 1 2.91 1h5.74c1.06 0 1.92.86 1.92 1.91v5.74c0 1.06-.86 1.92-1.92 1.92H2.91A1.91 1.91 0 0 1 1 8.65V2.91ZM1 15.35c0-1.06.86-1.92 1.91-1.92h5.74c1.06 0 1.92.86 1.92 1.92v5.74c0 1.05-.86 1.91-1.92 1.91H2.91A1.91 1.91 0 0 1 1 21.09v-5.74Z"/></svg>