<svg xmlns="http://www.w3.org/2000/svg" width="24" height="24" fill="none" viewBox="0 0 24 24"><path fill="currentColor" d="M1.313 15.703a1 1 0 0 0 1.637.77l9.055-7.485a1 1 0 0 1 1.461.205l3.057 4.45a1 1 0 0 0 1.445.217l4.965-3.928a1 1 0 0 0 .38-.784V6.83a1 1 0 0 0-1.579-.816l-2.69 1.908a1 1 0 0 1-1.372-.207l-4.536-5.913a1 1 0 0 0-1.41-.178L6.518 5.71a1 1 0 0 1-.617.214h-3.59a1 1 0 0 0-1 1zm21 7.297a1 1 0 0 0 1-1v-7.537a1 1 0 0 0-1.618-.786l-4.21 3.309a1 1 0 0 1-1.438-.214l-3.052-4.376a1 1 0 0 0-1.46-.196l-9.863 8.225a1 1 0 0 0-.36.768V22a1 1 0 0 0 1 1z"/></svg>