<svg xmlns="http://www.w3.org/2000/svg" width="24" height="24" fill="none" viewBox="0 0 24 24"><path fill="currentColor" d="M18.494 2.038q1.245 0 2.436.252t2.302.781A1.35 1.35 0 0 1 24 4.314v17.003q0 .742-.596 1.125-.596.384-1.177.013-.9-.37-1.827-.595a8 8 0 0 0-1.906-.225 9.3 9.3 0 0 0-3.202.555q-1.4.507-2.646 1.366a.42.42 0 0 1-.478-.003 10.6 10.6 0 0 0-2.7-1.375 10 10 0 0 0-3.255-.543q-.98 0-1.906.238-.926.239-1.853.582a1.13 1.13 0 0 1-1.178-.079q-.569-.37-.569-1.059V4.314q0-.397.186-.727.185-.33.555-.516a10.2 10.2 0 0 1 2.317-.781 11.95 11.95 0 0 1 5.69.198q.256.073.507.16a.855.855 0 0 1 .565.817v14.971c0 .312.417.418.565.143l1.392-2.592 1.393 2.592c.148.274.564.17.564-.143V3.396c0-.37.226-.706.578-.82q.142-.045.286-.088 1.548-.45 3.19-.45"/></svg>