<svg xmlns="http://www.w3.org/2000/svg" xml:space="preserve" width="103" height="88" viewBox="0 0 103 88"><path fill="currentColor" d="M100.734 17.292c1.125-.291 1.834-1.256 1.584-2.157l-1.027-3.698c-.171.09-.357.163-.557.214L4.85 36.416c-1.125.291-2.241-.204-2.491-1.104l-1.281-4.608c-.79.417-1.234 1.202-1.028 1.943l2.309 8.306c.25.901 1.365 1.396 2.491 1.104l95.884-24.765zm5.205 18.726c1.125-.291 1.834-1.256 1.584-2.157l-1.027-3.698c-.17.09-.357.163-.557.214L10.056 55.142c-1.125.29-2.241-.204-2.491-1.104L6.284 49.43c-.791.417-1.234 1.202-1.028 1.942l2.309 8.307c.25.9 1.366 1.396 2.491 1.105l95.883-24.766zM10.481 70.172l2.309 8.306c.25.901 1.366 1.396 2.491 1.104l95.884-24.765c1.125-.29 1.834-1.257 1.584-2.157l-1.027-3.697c-.171.09-.357.162-.557.214L15.282 73.941c-1.125.291-2.241-.204-2.491-1.105l-1.281-4.607c-.791.417-1.234 1.202-1.029 1.943zm10.236 28.963 95.885-24.766c1.125-.29 1.834-1.256 1.584-2.156l-1.028-3.698c-.171.09-.357.162-.556.214L20.717 93.493c-1.125.29-2.241-.204-2.491-1.104l-1.281-4.607c-.791.416-1.234 1.201-1.028 1.942l2.309 8.306c.25.9 1.365 1.395 2.491 1.105z"/><path fill="transparent" stroke="#D3D8E3" stroke-linejoin="round" stroke-width=".59" d="M101.291 11.437c-.171.09-.357.163-.557.214L4.85 36.416c-1.125.291-2.241-.204-2.491-1.104l-1.281-4.608m100.213-19.267c.79-.417 1.234-1.202 1.027-1.943l-2.309-8.306c-.25-.901-1.365-1.396-2.491-1.104L1.635 24.848C.509 25.139-.2 26.104.05 27.005l1.028 3.698m100.213-19.266 1.027 3.698c.25.901-.459 1.867-1.584 2.157L4.85 42.057c-1.125.291-2.241-.204-2.491-1.104L.05 32.646c-.206-.741.238-1.526 1.028-1.943m105.418-.54c-.17.09-.357.163-.557.214L10.056 55.142c-1.125.29-2.241-.204-2.491-1.104L6.284 49.43m100.212-19.267c.79-.417 1.234-1.202 1.027-1.943l-2.309-8.306c-.25-.901-1.365-1.395-2.49-1.104L6.84 43.574c-1.125.291-1.834 1.256-1.584 2.157l1.028 3.698m100.212-19.266 1.027 3.698c.25.901-.459 1.866-1.584 2.157L10.056 60.783c-1.125.29-2.241-.205-2.491-1.105l-2.309-8.307c-.206-.74.237-1.525 1.028-1.942m5.226 18.8 1.281 4.607c.25.901 1.366 1.396 2.491 1.105l95.884-24.765c.199-.052.386-.124.557-.214M11.51 68.229l-1.028-3.698c-.25-.9.459-1.866 1.584-2.157L107.95 37.61c1.125-.291 2.241.204 2.491 1.104l2.309 8.306c.206.74-.238 1.525-1.027 1.943M11.51 68.229c-.791.417-1.234 1.202-1.028 1.943l2.309 8.306c.25.901 1.366 1.396 2.491 1.104l95.884-24.765c1.125-.29 1.834-1.257 1.584-2.157l-1.027-3.697m5.434 19.552c-.171.09-.357.162-.556.214L20.717 93.493c-1.125.29-2.241-.204-2.491-1.104l-1.281-4.607m100.212-19.267c.791-.417 1.233-1.202 1.028-1.943l-2.31-8.306c-.25-.9-1.364-1.396-2.491-1.105L17.501 81.926c-1.125.291-1.834 1.256-1.584 2.156l1.028 3.699m100.212-19.266 1.028 3.698c.25.9-.459 1.866-1.584 2.156L20.717 99.135c-1.125.29-2.241-.205-2.491-1.105l-2.309-8.306c-.206-.741.237-1.526 1.028-1.942"/></svg>