<svg width="170" height="171" viewBox="0 0 170 171" fill="none" xmlns="http://www.w3.org/2000/svg">
<g clip-path="url(#clip0_19546_379720)">
<path d="M160.373 149.007L160.248 149.127L160.29 149.295C164.406 165.987 164.01 187.044 156.872 211.827C132.108 204.624 114.095 193.711 102.182 181.315L102.062 181.191L101.894 181.232C85.2127 185.343 64.1558 184.947 39.362 177.814C46.5647 153.05 57.4773 135.037 69.8733 123.124L69.9981 123.004L69.9567 122.836C65.8462 106.155 66.242 85.0982 73.3745 60.3044C98.1388 67.5071 116.152 78.4197 128.064 90.8157L128.184 90.9405L128.352 90.8991C145.034 86.7885 166.091 87.1843 190.884 94.3169C183.682 119.081 172.769 137.094 160.373 149.007Z" fill="#F7F9FD" stroke="#FF0A47" stroke-width="0.6"/>
<path d="M174.768 149.007L174.643 149.127L174.685 149.295C178.801 165.987 178.406 187.044 171.267 211.827C146.503 204.624 128.49 193.711 116.577 181.315L116.457 181.191L116.289 181.232C99.6079 185.343 78.5511 184.947 53.7573 177.814C60.96 153.05 71.8726 135.037 84.2686 123.124L84.3934 123.004L84.352 122.836C80.2414 106.155 80.6373 85.0982 87.7698 60.3044C112.534 67.5071 130.547 78.4197 142.46 90.8157L142.58 90.9405L142.748 90.8991C159.429 86.7885 180.486 87.1843 205.28 94.3169C198.077 119.081 187.164 137.094 174.768 149.007Z" fill="#F7F9FD" stroke="#FF0A47" stroke-width="0.6"/>
<path d="M189.163 149.007L189.038 149.127L189.08 149.295C193.196 165.987 192.801 187.044 185.662 211.827C160.898 204.624 142.885 193.711 130.972 181.315L130.852 181.191L130.684 181.232C114.003 185.343 92.9461 184.947 68.1523 177.814C75.355 153.05 86.2676 135.037 98.6636 123.124L98.7884 123.004L98.747 122.836C94.6365 106.155 95.0323 85.0982 102.165 60.3044C126.929 67.5071 144.942 78.4197 156.855 90.8157L156.975 90.9405L157.143 90.8991C173.824 86.7885 194.881 87.1843 219.675 94.3169C212.472 119.081 201.559 137.094 189.163 149.007Z" fill="#F7F9FD" stroke="#FF0A47" stroke-width="0.6"/>
</g>
<defs>
<clipPath id="clip0_19546_379720">
<rect width="170" height="170" fill="white" transform="translate(0 0.578857)"/>
</clipPath>
</defs>
</svg>
