<svg xmlns="http://www.w3.org/2000/svg" xml:space="preserve" width="162" height="111" viewBox="0 0 162 111"><path fill="currentColor" stroke="#F22020" stroke-miterlimit="10" d="M72.294 1.053 55.906 5.111c-.894.222-1.425 1.071-1.185 1.897l1.284 4.427.145.499 8.861 30.563-2.05-.722L20.805 26.94c-.865-.304-2.041-.013-2.625.65l-9.074 10.3c-.27.307-.367.638-.308.937a.947.947 0 0 0 .308.524c.131.119.302.219.508.292l2.704.951.143.05 42.342 14.902-10.59 2.622L2.185 68.576C1.291 68.797 1 69.732 1 70.473S2.284 74.9 2.284 74.9l.366 1.264 1.282 4.422c.125.43.433.77.825.964.363.181.798.238 1.228.132l49.812-12.334-7.154 8.12-21.114 23.966-.495 1.461c.131.119.796.219 1.002.293l2.704.949 10.728 3.776c.865.304 2.101 0 2.625-.649.524-.65 29.866-33.899 29.866-33.899l10.289 35.489c.123.422.424.758.807.953.385.195.828.246 1.247.143l16.289-4.034.099-.024c.601-.147 1.035-.578 1.187-1.095v-.803L95.86 76.348l-2.049-7.07 45.188 15.902c.866.305 2.041.014 2.625-.649l5.861-6.655 3.214-3.645c.137-.156.229-.319.278-.48l-.004-.57c-.102-.301-.369-.557-.783-.701l-33.615-11.832-10.592-3.727 53.678-13.291.098-.024c.392-.093.736-.325.973-.651.25-.355.342-.804.213-1.246l-2.932-10.112c-.238-.827-1.158-1.317-2.053-1.095L106.536 42.74l-7.154 1.771 28.915-32.821 3.212-3.645c.215-.243.319-.501.324-.747v-.041c-.009-.411-.3-.781-.832-.968l-13.434-4.727c-.863-.305-2.039-.014-2.625.65l-30.53 34.653L74.347 2.148c-.24-.826-1.159-1.316-2.053-1.095z"/></svg>
