<svg width="170" height="171" viewBox="0 0 170 171" fill="none" xmlns="http://www.w3.org/2000/svg">
<g clip-path="url(#clip0_19546_379712)">
<path d="M154.077 121.628L154.049 121.926L154.348 121.954C185.131 124.872 198.888 141.684 197.449 156.876C196.01 172.068 179.34 185.998 148.555 183.082L148.256 183.054L148.228 183.353C145.311 214.136 128.499 227.893 113.308 226.455C98.1163 225.016 84.1868 208.347 87.1026 177.56L87.1309 177.262L86.8322 177.233C56.0504 174.316 42.2937 157.504 43.7325 142.312C45.1714 127.12 61.8397 113.19 92.625 116.105L92.9236 116.134L92.9519 115.835C95.8654 85.055 112.677 71.2992 127.869 72.7381C143.062 74.1769 156.993 90.8444 154.077 121.628Z" fill="#F7F9FD" stroke="#FF0A47" stroke-width="0.6"/>
<path d="M165.656 113.097L165.627 113.395L165.926 113.424C196.71 116.341 210.466 133.153 209.027 148.345C207.588 163.537 190.919 177.467 160.133 174.552L159.835 174.523L159.806 174.822C156.889 205.605 140.077 219.363 124.886 217.924C109.695 216.485 95.7651 199.816 98.6808 169.03L98.7091 168.731L98.4105 168.703C67.6287 165.786 53.8719 148.973 55.3108 133.781C56.7496 118.589 73.4179 104.659 104.203 107.575L104.502 107.603L104.53 107.304C107.444 76.5242 124.255 62.7685 139.448 64.2073C154.64 65.6462 168.571 82.3136 165.656 113.097Z" fill="#F7F9FD" stroke="#FF0A47" stroke-width="0.6"/>
<path d="M176.954 103.7L176.925 103.999L177.224 104.027C208.008 106.944 221.764 123.757 220.325 138.949C218.886 154.141 202.217 168.071 171.431 165.155L171.133 165.127L171.104 165.426C168.187 196.209 151.375 209.966 136.184 208.527C120.993 207.089 107.063 190.42 109.979 159.633L110.007 159.334L109.709 159.306C78.9268 156.389 65.17 139.577 66.6089 124.385C68.0477 109.193 84.716 95.2625 115.501 98.1781L115.8 98.2064L115.828 97.9077C118.742 67.1277 135.553 53.372 150.746 54.8108C165.938 56.2497 179.869 72.9171 176.954 103.7Z" fill="#F7F9FD" stroke="#FF0A47" stroke-width="0.6"/>
</g>
<defs>
<clipPath id="clip0_19546_379712">
<rect width="170" height="170" fill="white" transform="translate(0 0.578857)"/>
</clipPath>
</defs>
</svg>
