<svg xmlns="http://www.w3.org/2000/svg" width="85" height="73" viewBox="0 0 85 73" xml:space="preserve"><path fill="#FF0A47" d="M71.593 96.307H58.382c-.485 0-.954-.177-1.319-.497L.716 46.429a2.005 2.005 0 0 1-.68-1.505V33.333c0-1.104.9-2.003 2.007-2.003.484 0 .938.172 1.31.499l69.558 60.973c.633.555.851 1.422.554 2.209a1.985 1.985 0 0 1-1.872 1.296zM2.043 32.33c-.495 0-1.007.375-1.007 1.003v11.591c0 .288.124.563.34.754l56.345 49.38c.184.161.418.249.66.249h13.211a.985.985 0 0 0 .937-.647.982.982 0 0 0-.277-1.105L2.694 32.581a.977.977 0 0 0-.651-.251zM33.156 96.307H19.819c-.485 0-.953-.176-1.318-.495L.717 80.221a1.997 1.997 0 0 1-.682-1.505l-.001-11.69c0-1.104.901-2.002 2.008-2.002.484 0 .938.173 1.31.499l31.123 27.281c.632.554.849 1.42.553 2.207a1.984 1.984 0 0 1-1.872 1.296zM2.042 66.023c-.496 0-1.008.375-1.008 1.002v11.69c0 .288.125.563.342.753L19.16 95.06c.182.159.416.247.659.247h13.337a.984.984 0 0 0 .937-.648.98.98 0 0 0-.276-1.103L2.693 66.274a.977.977 0 0 0-.651-.251zM94.119 60.23c-.481 0-.932-.171-1.303-.494L28.102 3.55c-.637-.552-.858-1.42-.563-2.21s1.03-1.3 1.874-1.3h12.97c.483 0 .949.174 1.313.491l51.745 44.971h.001l.562.489-.12.06c.159.291.245.621.245.96v11.216a2.01 2.01 0 0 1-2.01 2.003zM29.412 1.04a.982.982 0 0 0-.937.65.98.98 0 0 0 .281 1.105l64.716 56.186c.577.505 1.654.173 1.654-.755V47.011a1 1 0 0 0-.344-.755l.327-.376-.327.376-51.744-44.97a.997.997 0 0 0-.656-.246h-12.97zM94.119 26.569c-.478 0-.925-.168-1.295-.486L66.591 3.556a1.984 1.984 0 0 1-.572-2.212A1.983 1.983 0 0 1 67.895.039h12.842c.478 0 .94.171 1.302.481l13.393 11.485c.443.38.697.934.697 1.518l-.001 11.043c0 .559-.221 1.075-.621 1.452a2.05 2.05 0 0 1-1.388.551zM67.895 1.039a.98.98 0 0 0-.938.652.98.98 0 0 0 .286 1.106l26.233 22.527a1.02 1.02 0 0 0 1.344-.035.966.966 0 0 0 .307-.724V13.524a.994.994 0 0 0-.348-.76L81.388 1.279a1 1 0 0 0-.651-.24H67.895zM94.119 93.979c-.475 0-.92-.166-1.289-.48L1.12 15.376l-.001.001-.76-.65.04-.046a1.995 1.995 0 0 1-.363-1.149V1.915c0-.445.159-.877.448-1.217.645-.757 1.884-.857 2.643-.21L95.424 79.07c.447.38.704.935.704 1.522v11.382a2.01 2.01 0 0 1-2.009 2.005zM1.347 14.256l.042.035 92.09 78.445c.581.495 1.649.162 1.649-.762V80.593a.998.998 0 0 0-.352-.761L2.478 1.249a.898.898 0 0 0-1.234.098.876.876 0 0 0-.209.567v11.617c0 .276.113.537.312.725z"/></svg>
