<svg xmlns="http://www.w3.org/2000/svg" width="176" height="157" viewBox="0 0 176 157" xml:space="preserve"><path fill="currentColor" d="m118.79 127.57 16.557 57.01c.2.677.681 1.216 1.3 1.527v-10.198a2.524 2.524 0 0 1-1.3-1.529l-16.553-57.007s-47.202 53.408-48.047 54.456c-.844 1.04-2.832 1.529-4.225 1.04l-17.258-6.063-4.345-1.529c-.335-.114-1.405-.272-1.617-.472v7.856c0 .914.221 2.325 1.615 2.816l21.607 7.593c.621.219 1.338.245 2.03.115.86-.165 1.672-.564 2.193-1.16l48.043-54.455zm46.223 52.25c1.443-.356 2.292-1.723 1.907-3.051v-8.912c-.238.834-.943 1.524-1.907 1.761l-.157.036-26.205 6.482a2.87 2.87 0 0 1-2.004-.229v10.197a2.862 2.862 0 0 0 2.005.23l26.361-6.514zm62.635-34.315 14.6-16.542c.412-.468.57-.972.506-1.436l-.056-9.535a2.176 2.176 0 0 1-.45.77l-5.164 5.855-9.436 10.691c-.945 1.07-2.832 1.532-4.226 1.042l-72.693-25.544 3.297 11.357 69.396 24.387c1.394.49 3.281.026 4.226-1.045zM211.373 12.446l-5.167 5.854-46.517 52.721 11.508-2.844 40.179-45.534c.356-.409.532-.847.521-1.26V11.247c-.009.392-.181.809-.524 1.199zM15.491 73.402 70.94 92.966l17.036-4.211-68.117-23.938-4.581 5.787c-.791.791-.776 2.451.213 2.798zm74.084 37.517L9.443 130.736a2.897 2.897 0 0 1-1.978-.216 2.518 2.518 0 0 1-1.326-1.546l-2.066-7.104-1.325.53c-.32.184-1.325.686-.875 2.089l4.265 14.682c.201.693.695 1.235 1.327 1.552a2.923 2.923 0 0 0 1.976.208l68.625-16.965 11.509-13.047zm11.528-44.283 3.294 1.155-14.255-49.092s-.379.131-1.285.501c-.909.37-1.508 2.01-1.004 3.012l13.25 44.424z"/><path fill="none" stroke="#D3D8E3" stroke-linejoin="round" d="m3.328 119.882.16-.035m163.436 46.726-12.897-44.409m12.897 44.412v1.281m0-1.284c.121.419.121.868 0 1.284m-122.825-5.396 33.969-38.495m-33.969 38.495-.795 2.342m.795-2.342c-.714.81-.795 1.461-.795 2.342m57.799-98.167 3.294 1.155-14.255-49.092m10.957 47.937L33.286 42.802c-1.392-.488-3.28-.02-4.222 1.044L14.461 60.395c-.432.489-.587 1.024-.495 1.505.069.327.243.624.495.842.213.189.488.353.82.466l4.35 1.531.229.079m81.243 1.82L87.849 22.212c-.503-1.002.095-2.642 1.005-3.012.909-.37 1.288-.501 1.288-.501M70.937 92.966 15.492 73.402c-.989-.348-1.003-2.007-.211-2.798l4.581-5.787m51.08 28.148-67.614 16.72c-1.438.356-1.904 1.859-1.904 3.051 0 1.188 2.064 7.111 2.064 7.111M70.94 92.969l17.036-4.211-68.117-23.939M3.487 119.847l.587 2.028m73.993 2.091L9.441 140.934a2.886 2.886 0 0 1-1.978-.216 2.518 2.518 0 0 1-1.325-1.547l-4.265-14.682c-.45-1.403.553-1.905.875-2.089l1.325-.53m73.994 2.096 11.508-13.047-80.132 19.817a2.897 2.897 0 0 1-1.978-.216 2.518 2.518 0 0 1-1.326-1.546l-2.066-7.104m149.953.294 69.396 24.387c1.394.489 3.28.025 4.226-1.046l14.6-16.542c.412-.468.57-.972.506-1.436l-.056-9.535m-88.672 4.172-3.296-11.357 72.692 25.544c1.394.489 3.28.026 4.226-1.042l9.436-10.691 5.164-5.856a2.1 2.1 0 0 0 .45-.771m-55.351-21.049 54.082 19.002c.666.235 1.096.647 1.263 1.127m-55.345-20.129 69.474-17.179a2.675 2.675 0 0 0 1.564-1.044 2.333 2.333 0 0 0 .347-2.004l-.347-1.189V68.52m-71.038 28.422-17.035-5.987 86.351-21.35.158-.041a2.68 2.68 0 0 0 1.564-1.044m-87.185-.346 79.512-19.658c1.435-.356 2.913.43 3.299 1.761l4.721 16.24a2.33 2.33 0 0 1-.347 2.003m-87.185-.346 40.173-45.535c.359-.408.531-.846.524-1.258V11.247M171.2 68.176l-11.511 2.846 46.517-52.72 5.167-5.856c.338-.391.515-.807.521-1.199M44.099 174.376l-.795-9.573m93.342 11.104a2.535 2.535 0 0 1-1.3-1.527l-16.553-57.01s-47.202 53.411-48.047 54.456c-.844 1.043-2.832 1.532-4.225 1.043l-17.258-6.066-4.345-1.528c-.335-.116-1.405-.275-1.617-.469m93.344 11.103a2.876 2.876 0 0 0 2.006.228l26.205-6.479.157-.039c.964-.236 1.669-.927 1.907-1.761m-30.275 8.051v10.198m0 0a2.51 2.51 0 0 1-1.298-1.527l-16.557-57.011-48.043 54.455c-.521.595-1.333.997-2.193 1.162a4.016 4.016 0 0 1-2.032-.12l-21.605-7.592c-1.393-.491-1.615-1.901-1.615-2.816v-7.853m93.343 21.302a2.888 2.888 0 0 0 2.006.231l26.362-6.519c1.436-.356 2.292-1.723 1.907-3.051v-8.912m58.713-31.305v9.95m17.056-29.427.006.92m-.006-.92c.099.299.102.62.006.92m-30.798-106.81c-.018-.659-.483-1.253-1.343-1.555L188.95 2.037c-1.392-.49-3.284-.021-4.227 1.044l-49.112 55.665-16.194-55.767c-.382-1.327-1.862-2.114-3.301-1.761L89.753 7.739c-1.44.354-2.293 1.719-1.909 3.047l2.067 7.11.23.802m121.756-7.514v.063m0-.063v.063"/></svg>
