<svg xmlns="http://www.w3.org/2000/svg" width="86" height="73" viewBox="0 0 86 73" xml:space="preserve"><path fill="#FF0A47" d="M104.633 47.344H69.967l25.066-25.112a1.872 1.872 0 0 0 0-2.644l-6.709-6.722c-.684-.686-1.862-.711-2.573-.063l-24.58 24.622V1.907c0-1.03-.837-1.867-1.866-1.867h-9.488a1.868 1.868 0 0 0-1.866 1.867v34.734L22.884 11.527c-.703-.705-1.927-.708-2.638 0l-6.711 6.723a1.872 1.872 0 0 0 0 2.643l26.401 26.451H2.6a1.87 1.87 0 0 0-1.868 1.867v9.51A1.87 1.87 0 0 0 2.6 60.589l35.448-.001-24.514 24.558a1.874 1.874 0 0 0 0 2.643l6.71 6.724c.704.704 2.006.645 2.561.063L47.95 68.615l.001-.001v35.519c0 1.029.837 1.867 1.865 1.867h9.488a1.869 1.869 0 0 0 1.866-1.867V68.616l24.514 24.557c.703.705 1.995.654 2.571.058l6.778-6.778a1.876 1.876 0 0 0-.001-2.644l-23.178-23.22h32.777a1.87 1.87 0 0 0 1.867-1.868v-9.51a1.867 1.867 0 0 0-1.865-1.867zm.867 11.377a.868.868 0 0 1-.867.868H69.441l24.884 24.926c.339.34.339.893.001 1.231l-6.736 6.746a.883.883 0 0 1-1.197-.025L60.171 66.198v37.935a.867.867 0 0 1-.866.867h-9.488a.866.866 0 0 1-.865-.867V66.146l-26.78 27.662a.884.884 0 0 1-1.22-.002l-6.71-6.724a.872.872 0 0 1 0-1.229L40.46 59.589H2.6a.87.87 0 0 1-.868-.868v-9.51c0-.479.39-.867.868-.867h39.746L14.243 20.187a.872.872 0 0 1 0-1.231l6.712-6.725a.882.882 0 0 1 1.22.001L48.95 39.058V1.907c0-.478.389-.867.866-.867h9.488c.478 0 .866.389.866.867v37.934l26.166-26.213.06-.058a.883.883 0 0 1 1.221.002l6.709 6.723a.87.87 0 0 1 0 1.23L67.555 48.344h37.078c.479 0 .867.389.867.867v9.51z"/></svg>
