<svg xmlns="http://www.w3.org/2000/svg" width="170" height="170" fill="none" viewBox="0 0 170 170"><g fill="#F7F9FD" stroke="#FF0A47" stroke-width=".6" clip-path="url(#a)"><path d="M113.462 84.227a33.425 33.425 0 0 1 39.294 0l47.669 34.633a33.426 33.426 0 0 1 12.142 37.371l-18.207 56.038a33.427 33.427 0 0 1-31.79 23.097h-58.922a33.426 33.426 0 0 1-31.79-23.097l-18.207-56.038a33.426 33.426 0 0 1 12.142-37.371l47.669-34.633Z"/><path d="M125.953 71.736a33.425 33.425 0 0 1 39.294 0l47.669 34.633a33.426 33.426 0 0 1 12.142 37.371l-18.207 56.038a33.427 33.427 0 0 1-31.79 23.097h-58.922a33.426 33.426 0 0 1-31.79-23.097L66.142 143.74a33.426 33.426 0 0 1 12.142-37.371l47.669-34.633Z"/><path d="M138.444 59.245a33.425 33.425 0 0 1 39.294 0l47.669 34.633a33.425 33.425 0 0 1 12.142 37.371l-18.208 56.038a33.424 33.424 0 0 1-31.789 23.097H128.63a33.426 33.426 0 0 1-31.79-23.097l-18.207-56.038a33.426 33.426 0 0 1 12.142-37.37l47.669-34.634Z"/></g><defs><clipPath id="a"><path fill="#fff" d="M0 0h170v170H0z"/></clipPath></defs></svg>
