<svg xmlns="http://www.w3.org/2000/svg" width="87" height="73" viewBox="0 0 87 73" xml:space="preserve"><path fill="#FF0A47" d="m113.706 73.565-18.843-13.89a2.031 2.031 0 0 0-2.374 0L76.854 71.201a2.033 2.033 0 0 1-2.373 0L58.843 59.676a2.025 2.025 0 0 0-2.374 0L40.832 71.201c-.692.51-1.681.51-2.373 0L22.822 59.675a2.03 2.03 0 0 0-2.373 0L1.608 73.564a2.003 2.003 0 0 0-.426 2.794l4.882 6.647c.617.841 1.891 1.055 2.749.463l11.636-8.578a2.031 2.031 0 0 1 2.374 0l15.636 11.527c.692.51 1.68.51 2.374 0L56.47 74.891a2.03 2.03 0 0 1 2.372 0l15.637 11.527c.347.255.757.39 1.188.39s.841-.135 1.188-.39L92.49 74.893a2.031 2.031 0 0 1 2.373 0l11.586 8.54c.823.605 2.065.452 2.72-.325l.065-.082.012-.016 4.883-6.65a2.004 2.004 0 0 0-.423-2.795zm-.383 2.202-4.81 6.551-.17.086v.126a1.025 1.025 0 0 1-1.301.099l-11.586-8.54a3.046 3.046 0 0 0-3.561 0L76.26 85.613a1.021 1.021 0 0 1-1.188 0L59.436 74.086c-.519-.383-1.134-.585-1.779-.585s-1.261.202-1.78.585L40.24 85.613a1.02 1.02 0 0 1-1.187 0L23.417 74.086a3.046 3.046 0 0 0-3.561 0L8.338 82.585l-.069.044a1.02 1.02 0 0 1-1.398-.215l-4.882-6.647a1.001 1.001 0 0 1 .213-1.397l18.841-13.89c.346-.254.84-.255 1.187 0l15.636 11.526a3.046 3.046 0 0 0 3.561 0L57.063 60.48c.345-.255.84-.257 1.187 0l15.638 11.525c1.037.766 2.521.766 3.561 0l15.636-11.526c.345-.253.84-.256 1.187.001l18.843 13.89c.44.327.534.953.208 1.397zm.382-31.589-18.842-13.89a2.028 2.028 0 0 0-2.374 0L76.854 41.816a2.033 2.033 0 0 1-2.373 0L58.843 30.288a2.028 2.028 0 0 0-2.374 0L40.832 41.815c-.692.51-1.681.51-2.373 0L22.823 30.288a2.03 2.03 0 0 0-2.374 0L1.608 44.178a2.002 2.002 0 0 0-.426 2.793l4.882 6.647c.595.81 1.801 1.047 2.654.524l11.731-8.639a2.03 2.03 0 0 1 2.374 0L38.459 57.03c.692.51 1.68.51 2.374 0L56.47 45.504a2.03 2.03 0 0 1 2.372 0L74.479 57.03c.347.255.757.39 1.188.39s.841-.135 1.188-.39L92.49 45.504a2.033 2.033 0 0 1 2.374 0l11.586 8.539c.858.633 2.165.434 2.799-.425l5.179-7.048-.052-.038a2.006 2.006 0 0 0-.671-2.354zm-.382 2.201-4.884 6.648a1.02 1.02 0 0 1-1.397.211l-11.586-8.539a3.048 3.048 0 0 0-3.562 0L76.26 56.226a1.021 1.021 0 0 1-1.188 0L59.436 44.699c-.519-.383-1.134-.585-1.779-.585s-1.261.202-1.78.585L40.24 56.226a1.02 1.02 0 0 1-1.187 0L23.417 44.699a3.046 3.046 0 0 0-3.561 0L8.401 53.145l-.132.097a1.02 1.02 0 0 1-1.398-.215L1.989 46.38a1 1 0 0 1 .213-1.396l18.841-13.89c.345-.255.84-.256 1.186 0L37.865 42.62a3.046 3.046 0 0 0 3.561 0l15.637-11.528c.345-.254.84-.256 1.187 0l15.638 11.529c1.037.766 2.521.766 3.561 0l15.636-11.529c.345-.254.84-.256 1.187 0l18.842 13.89c.441.328.536.954.209 1.397zm.382-31.587L94.863.902a2.028 2.028 0 0 0-2.374 0L76.854 12.429a2.03 2.03 0 0 1-2.373 0L58.44.605l-.037.051a2.027 2.027 0 0 0-1.935.246L40.832 12.429a2.028 2.028 0 0 1-2.373 0L22.823.902a2.028 2.028 0 0 0-2.374 0L1.608 14.792a2.002 2.002 0 0 0-.426 2.793l4.882 6.647c.614.835 1.876 1.054 2.732.475l11.653-8.588a2.028 2.028 0 0 1 2.374 0l15.636 11.527c.692.51 1.68.51 2.374 0L56.47 16.118a2.027 2.027 0 0 1 2.372 0l15.637 11.528c.347.255.757.389 1.188.389s.841-.134 1.188-.39L92.49 16.118a2.028 2.028 0 0 1 2.374 0l11.586 8.54a1.99 1.99 0 0 0 1.186.391c.59 0 1.153-.264 1.53-.712l.18-.089V24.1l4.786-6.515a2.007 2.007 0 0 0-.427-2.793zm-.382 2.201-4.884 6.648a.992.992 0 0 1-.806.407.995.995 0 0 1-.592-.195l-11.586-8.54a3.046 3.046 0 0 0-3.562 0L76.26 26.839a1.02 1.02 0 0 1-1.188 0L59.436 15.313c-.519-.382-1.134-.584-1.779-.584s-1.261.202-1.78.584L40.24 26.839a1.018 1.018 0 0 1-1.187 0L23.417 15.313a3.046 3.046 0 0 0-3.561 0l-11.508 8.49-.079.051a1.02 1.02 0 0 1-1.398-.215l-4.882-6.647a1.002 1.002 0 0 1 .213-1.397l18.841-13.89c.345-.255.84-.256 1.186 0l15.636 11.527a3.046 3.046 0 0 0 3.561 0L57.063 1.707c.345-.254.84-.255 1.187 0l15.638 11.527a3.045 3.045 0 0 0 3.561 0L93.083 1.707c.345-.254.84-.255 1.187 0l18.842 13.89c.442.326.537.953.211 1.396z"/></svg>