<svg width="88" height="76" viewBox="0 0 88 76" fill="none" xmlns="http://www.w3.org/2000/svg">
<g clip-path="url(#clip0_9133_6410)">
<g filter="url(#filter0_b_9133_6410)">
<path fill-rule="evenodd" clip-rule="evenodd" d="M98.429 15.0061C98.872 15.386 99.127 15.9405 99.127 16.5242V27.5664C99.127 29.2759 97.121 30.1974 95.824 29.0837L69.591 6.55738C68.183 5.3483 69.038 3.04004 70.8939 3.04004H83.7376C84.2152 3.04004 84.6771 3.21098 85.0396 3.52195L98.429 15.0061ZM31.1011 6.55024C29.7038 5.33702 30.5618 3.04004 32.4123 3.04004H45.3822C45.8643 3.04004 46.3302 3.21421 46.6941 3.53048L98.4389 48.502C98.876 48.8818 99.127 49.4325 99.127 50.0115V61.228C99.127 62.9427 97.1105 63.8624 95.8157 62.7382L31.1011 6.55024ZM3.0353 16.531C3.0353 17.117 3.2923 17.6735 3.73841 18.0535L95.8301 96.4981C97.1286 97.6042 99.127 96.6814 99.127 94.9756V83.5932C99.127 83.0071 98.8698 82.4504 98.4235 82.0704L6.12566 3.48737C5.78651 3.19862 5.35564 3.04004 4.91021 3.04004C3.87473 3.04004 3.0353 3.87946 3.0353 4.91495V16.531ZM3.71694 83.2204C3.28376 82.8407 3.03536 82.2926 3.03536 81.7165V70.0262C3.03536 68.307 5.06094 67.389 6.35372 68.5222L37.4748 95.8026C38.8628 97.0194 38.0022 99.3066 36.1564 99.3066H22.819C22.334 99.3066 21.8654 99.1303 21.5006 98.8105L3.71694 83.2204ZM74.5932 99.3063C76.4391 99.3063 77.2996 97.019 75.9116 95.8023L6.3539 34.8286C5.06112 33.6954 3.03554 34.6134 3.03554 36.3326V47.9244C3.03554 48.5005 3.28402 49.0487 3.71733 49.4285L60.0629 98.8104C60.4277 99.13 60.8961 99.3063 61.3811 99.3063H74.5932Z" fill="#CDD9ED"/>
</g>
</g>
<defs>
<filter id="filter0_b_9133_6410" x="-26.8314" y="-26.8266" width="155.825" height="156" filterUnits="userSpaceOnUse" color-interpolation-filters="sRGB">
<feFlood flood-opacity="0" result="BackgroundImageFix"/>
<feGaussianBlur in="BackgroundImageFix" stdDeviation="14.9333"/>
<feComposite in2="SourceAlpha" operator="in" result="effect1_backgroundBlur_9133_6410"/>
<feBlend mode="normal" in="SourceGraphic" in2="effect1_backgroundBlur_9133_6410" result="shape"/>
</filter>
<clipPath id="clip0_9133_6410">
<path d="M88 0H10C4.47715 0 0 4.47715 0 10V76H88V0Z" fill="white"/>
</clipPath>
</defs>
</svg>
