<svg xmlns="http://www.w3.org/2000/svg" xml:space="preserve" width="132" height="119" viewBox="0 0 132 119"><path fill="currentColor" stroke="#EF1414" stroke-miterlimit="10" d="M131.421 73.535 127.9 60.542c-.241-.892-1.396-1.15-2.002-.446L92.579 98.773a1.103 1.103 0 0 0-.24 1.039c.157.561.735.994 1.423.813l5.359-1.42 13.707-3.633a1.19 1.19 0 0 0 .583-.363l16.337-18.967 1.436-1.667a1.13 1.13 0 0 0 .237-1.04zM117.482 29.03l-70.486 81.823c-.162.184-.26.414-.279.657l-.002.109c.02.68.669 1.294 1.464 1.083l5.361-1.42 13.558-3.594c.227-.061.43-.187.582-.363l53.627-62.241 1.438-1.667c.104-.119.178-.255.224-.4l.015-.64-3.496-12.902c-.245-.891-1.399-1.148-2.006-.445zM18.04 103.898a1.136 1.136 0 0 0-.248 1.052l1.506 5.557 1.928 7.116c.131.484.532.783.969.84.361.048.747-.068 1.023-.381l90.239-101.968 1.436-1.621c.107-.122.187-.262.233-.412l.015-.64-3.142-11.591a1.16 1.16 0 0 0-1.42-.811l-1.582.419a1.152 1.152 0 0 0-.572.352L18.04 103.898zM79.583 9.253l-18.645 4.941c-.226.06-.427.185-.579.36L9.646 72.949c-.25.287-.442.678-.343 1.043l1.578 5.451.024.082 1.899 7.011c.133.491.544.792.988.843.359.041.739-.08 1.011-.393l57.749-66.434 1.415-1.628 6.795-7.817c.088-.099.158-.212.207-.335.328-.815-.421-1.774-1.386-1.519zM1.285 42.065c-.253.287-.345.68-.245 1.049l1.503 5.55.043.159 1.805 6.662c.134.495.55.795.998.843.376.042.749-.103.997-.388l20.57-23.42 1.302-1.482 6.884-7.837c.021-.024.041-.049.06-.074.323-.604-.162-2.07-1.235-1.785l-18.51 4.905a1.173 1.173 0 0 0-.575.354L1.285 42.065z"/></svg>
