<svg xmlns="http://www.w3.org/2000/svg" width="176" height="157" viewBox="0 0 176 157" xml:space="preserve"><path fill="currentColor" d="m183.009 42.211 6.268-14.418V17.244l-3.075 7.072-3.192 7.344a2.097 2.097 0 0 1-2.62 1.15l-24.908-8.697a2.102 2.102 0 0 0-2.29.612l-22.469 26.106a2.11 2.11 0 0 1-2.288.612L95.95 40.102a2.095 2.095 0 0 0-2.285.615L71.188 66.823a2.102 2.102 0 0 1-2.286.613L36.42 56.093a2.1 2.1 0 0 0-2.286.614L16.9 76.726a2.1 2.1 0 0 1-2.845.319l-8.897-6.591-.417-.309-3.645 5.028c-.276.319-.45.713-.499 1.133l-.007.42c.048.583.338 1.144.848 1.522l12.617 9.347a2.1 2.1 0 0 0 2.845-.321l17.234-20.018a2.1 2.1 0 0 1 2.287-.615l32.481 11.343a2.094 2.094 0 0 0 2.287-.613l22.474-26.105a2.101 2.101 0 0 1 2.287-.614l32.483 11.342a2.094 2.094 0 0 0 2.286-.612l22.471-26.105a2.103 2.103 0 0 1 2.29-.613l24.906 8.698a2.104 2.104 0 0 0 2.623-1.151zm-15.533 37.342 24.911 8.697a2.099 2.099 0 0 0 2.62-1.151l6.088-14.009.04-2.36.142-8.597-3.078 7.072-3.193 7.343a2.096 2.096 0 0 1-2.619 1.151l-24.906-8.697a2.09 2.09 0 0 0-2.287.614l-22.477 26.107a2.102 2.102 0 0 1-2.287.613l-32.483-11.342a2.096 2.096 0 0 0-2.285.612l-22.473 26.106a2.106 2.106 0 0 1-2.287.616L48.42 100.983a2.104 2.104 0 0 0-2.286.614L28.9 121.616a2.102 2.102 0 0 1-2.845.319l-8.897-6.591-.65-.481-3.413 5.2a2.106 2.106 0 0 0-.501 1.161l-.003.392c.049.584.338 1.147.848 1.523l12.617 9.345c.885.659 2.128.52 2.845-.319l17.234-20.017a2.1 2.1 0 0 1 2.288-.614l32.48 11.343a2.102 2.102 0 0 0 2.288-.614l22.473-26.105a2.103 2.103 0 0 1 2.287-.614l32.482 11.343a2.098 2.098 0 0 0 2.286-.614l22.475-26.104a2.105 2.105 0 0 1 2.287-.616h-.005zm-142.04 88.476 12.619 9.348a2.103 2.103 0 0 0 2.844-.322l17.233-20.022a2.106 2.106 0 0 1 2.287-.609l32.48 11.346a2.104 2.104 0 0 0 2.286-.617l22.476-26.104a2.1 2.1 0 0 1 2.284-.615l32.486 11.346c.813.287 1.724.04 2.283-.613l22.473-26.105a2.095 2.095 0 0 1 2.284-.614l24.91 8.695a2.103 2.103 0 0 0 2.621-1.15l6.266-14.417v-10.547l-3.074 7.071-3.191 7.343a2.105 2.105 0 0 1-2.621 1.151l-24.91-8.696a2.094 2.094 0 0 0-2.284.613l-22.473 26.105a2.103 2.103 0 0 1-2.283.614l-32.486-11.342a2.095 2.095 0 0 0-2.284.613l-22.476 26.105c-.562.656-1.467.9-2.282.614L60.42 145.875a2.097 2.097 0 0 0-2.286.612L40.9 166.505a2.097 2.097 0 0 1-2.844.321l-8.899-6.592-.257-.184-3.806 4.905a2.113 2.113 0 0 0-.486 1.064v.629c.077.532.36 1.034.828 1.381z"/><path fill="none" stroke="#D3D8E3" stroke-linejoin="round" d="m189.276 27.792-6.268 14.42a2.102 2.102 0 0 1-2.62 1.149l-24.908-8.698a2.104 2.104 0 0 0-2.29.613l-22.469 26.106a2.1 2.1 0 0 1-2.288.612L95.95 50.652a2.095 2.095 0 0 0-2.285.614L71.188 77.372a2.102 2.102 0 0 1-2.286.613L36.42 66.642a2.098 2.098 0 0 0-2.286.615L16.9 87.274a2.1 2.1 0 0 1-2.845.32L1.44 78.25a2.112 2.112 0 0 1-.849-1.522m188.685-48.936a2.102 2.102 0 0 0 0-1.685m0 1.685v-1.685m23.998 91.467-6.269 14.419a2.1 2.1 0 0 1-2.622 1.147l-24.909-8.696a2.093 2.093 0 0 0-2.284.616l-22.475 26.104c-.562.655-1.469.9-2.285.613l-32.484-11.344a2.099 2.099 0 0 0-2.286.617l-22.476 26.104a2.105 2.105 0 0 1-2.282.613L60.42 156.423a2.1 2.1 0 0 0-2.286.613L40.9 177.055a2.098 2.098 0 0 1-2.844.322l-12.619-9.348a2.103 2.103 0 0 1-.829-1.381m188.663-49.074v-1.684m0 1.684a2.116 2.116 0 0 0 0-1.684m-23.995-98.647a2.109 2.109 0 0 0-1.089-2.775l-.002-.001c-.049-.022-.098-.039-.148-.058L149.266.87a2.103 2.103 0 0 0-2.285.613l-22.474 26.106a2.104 2.104 0 0 1-2.289.613L89.736 16.859a2.1 2.1 0 0 0-2.287.614L64.976 43.58a2.104 2.104 0 0 1-2.286.612L30.209 32.85a2.103 2.103 0 0 0-2.288.613L1.095 64.624a2.113 2.113 0 0 0 .345 3.072l3.303 2.448m184.533-52.901v8.865m0-8.864-3.075 7.072-3.192 7.344a2.097 2.097 0 0 1-2.62 1.15l-24.908-8.697a2.102 2.102 0 0 0-2.29.612l-22.469 26.106a2.11 2.11 0 0 1-2.288.612L95.95 40.102a2.095 2.095 0 0 0-2.285.615L71.188 66.823a2.102 2.102 0 0 1-2.286.613L36.42 56.093a2.1 2.1 0 0 0-2.286.614L16.9 76.726a2.095 2.095 0 0 1-1.716.727m186.092-15.319a2.115 2.115 0 0 0-1.238-2.836l-38.774-13.54a2.102 2.102 0 0 0-2.283.615l-22.475 26.104a2.104 2.104 0 0 1-2.285.615L101.735 61.75a2.098 2.098 0 0 0-2.284.612L76.976 88.468a2.098 2.098 0 0 1-2.286.613L42.209 77.738a2.103 2.103 0 0 0-2.287.615l-26.828 31.159a2.112 2.112 0 0 0 .343 3.075l3.069 2.276m184.77-52.731-.142 8.598m.142-8.596-3.076 7.072-3.193 7.344a2.1 2.1 0 0 1-2.62 1.151l-24.907-8.698a2.092 2.092 0 0 0-2.286.614l-22.478 26.105a2.102 2.102 0 0 1-2.287.613l-32.483-11.342a2.096 2.096 0 0 0-2.285.612l-22.473 26.106a2.106 2.106 0 0 1-2.287.616l-32.482-11.345a2.104 2.104 0 0 0-2.286.614l-17.234 20.019a2.102 2.102 0 0 1-2.845.319l-8.897-6.591-.65-.481m196.767-7.837a2.112 2.112 0 0 0-1.239-2.833l-38.773-13.541a2.11 2.11 0 0 0-2.287.616l-22.472 26.106a2.106 2.106 0 0 1-2.285.612l-32.481-11.348a2.106 2.106 0 0 0-2.288.614l-22.476 26.104a2.096 2.096 0 0 1-2.286.614l-32.482-11.344a2.103 2.103 0 0 0-2.287.616l-26.822 31.16a2.106 2.106 0 0 0 .218 2.972c.04.034.081.069.124.101l3.463 2.569m184.373-53.018v8.861m0-8.861-3.07 7.071-3.195 7.343a2.107 2.107 0 0 1-2.623 1.151l-24.908-8.696a2.094 2.094 0 0 0-2.285.613l-22.475 26.105a2.104 2.104 0 0 1-2.284.614l-32.486-11.342a2.093 2.093 0 0 0-2.283.613l-22.479 26.105c-.562.656-1.467.9-2.282.614L60.42 145.875a2.097 2.097 0 0 0-2.286.612L40.9 166.505a2.097 2.097 0 0 1-2.844.321l-8.899-6.592-.257-.184M.591 76.724a2.163 2.163 0 0 1 .007-.418m-.007.42.007-.42m14.587.738v.41m185.91-4.36-6.088 14.009a2.099 2.099 0 0 1-2.62 1.147l-24.907-8.697a2.1 2.1 0 0 0-2.286.616l-22.478 26.104a2.104 2.104 0 0 1-2.287.614L107.95 95.542a2.105 2.105 0 0 0-2.285.613L83.19 122.261a2.1 2.1 0 0 1-2.286.612L48.422 111.53a2.1 2.1 0 0 0-2.287.615L28.9 132.164a2.094 2.094 0 0 1-2.844.317l-12.615-9.343c-.49-.362-.8-.917-.849-1.525m188.505-48.521.18-.41a2.095 2.095 0 0 0-.142-1.953m-.038 2.365.038-2.363M12.59 121.613l.003-.392m-.003.392a2.334 2.334 0 0 1 .003-.392m0 .001a2.11 2.11 0 0 1 .501-1.161l3.413-5.197m8.099 51.778v-.629m0 .629a2.073 2.073 0 0 1 0-.629m0 0c.055-.377.216-.746.488-1.062l3.806-4.908M.597 76.306c.046-.404.211-.801.496-1.133l3.646-5.028m10.444 7.308a2.11 2.11 0 0 1-1.129-.408l-8.896-6.591-.418-.309"/></svg>
