<svg xmlns="http://www.w3.org/2000/svg" xml:space="preserve" width="87" height="73" viewBox="0 0 87 73"><path fill="currentColor" d="m113.706 73.564-18.843-13.89a2.031 2.031 0 0 0-2.375 0L76.854 71.201c-.709.51-1.664.51-2.373 0L58.843 59.676a2.027 2.027 0 0 0-2.374 0L40.832 71.201c-.692.51-1.681.51-2.373 0L22.822 59.675a2.028 2.028 0 0 0-2.373 0L1.608 73.564a2.002 2.002 0 0 0-.426 2.793l4.882 6.647c.617.841 1.891 1.056 2.749.463l11.636-8.577a2.027 2.027 0 0 1 2.374 0l15.636 11.526c.692.51 1.68.51 2.374 0L56.471 74.89a2.028 2.028 0 0 1 2.371 0l15.637 11.527a1.997 1.997 0 0 0 2.376 0L92.49 74.893a2.031 2.031 0 0 1 2.373 0l11.586 8.541c.822.604 2.064.451 2.72-.326l.065-.082.012-.016 4.883-6.65a2.005 2.005 0 0 0-.423-2.796zm-.001-29.386-18.842-13.89a2.027 2.027 0 0 0-2.374 0L76.854 41.816c-.709.51-1.664.51-2.373 0L58.843 30.288a2.027 2.027 0 0 0-2.374 0L40.832 41.814a2.028 2.028 0 0 1-2.373 0L22.823 30.288a2.03 2.03 0 0 0-2.374 0L1.608 44.178a2.002 2.002 0 0 0-.426 2.793l4.882 6.647c.595.81 1.801 1.047 2.654.524l11.731-8.64a2.03 2.03 0 0 1 2.374 0l15.636 11.526a2.03 2.03 0 0 0 2.374 0l15.638-11.525a2.028 2.028 0 0 1 2.371 0l15.637 11.525c.348.256.758.391 1.188.391s.841-.135 1.188-.391L92.49 45.504a2.031 2.031 0 0 1 2.373 0l11.587 8.539c.858.633 2.165.434 2.799-.425l5.179-7.048-.052-.038a2.004 2.004 0 0 0-.671-2.354zm0-29.386L94.863.902a2.031 2.031 0 0 0-2.375 0L76.854 12.429c-.708.51-1.664.51-2.373 0L58.439.605l-.037.051a2.026 2.026 0 0 0-1.935.246L40.832 12.429a2.028 2.028 0 0 1-2.373 0L22.823.902a2.03 2.03 0 0 0-2.374 0L1.608 14.792a2.002 2.002 0 0 0-.426 2.793l4.882 6.647c.614.835 1.876 1.054 2.732.475l11.653-8.588a2.027 2.027 0 0 1 2.374 0l15.636 11.527c.692.51 1.68.51 2.374 0l15.638-11.528a2.025 2.025 0 0 1 2.371 0l15.637 11.528c.348.255.758.389 1.188.389s.841-.134 1.188-.39L92.49 16.118a2.025 2.025 0 0 1 2.373 0l11.587 8.54c.343.254.759.391 1.186.391.591 0 1.153-.264 1.53-.712l.18-.089V24.1l4.786-6.515a2.007 2.007 0 0 0-.427-2.793z"/></svg>
