<svg xmlns="http://www.w3.org/2000/svg" xml:space="preserve" width="84" height="73" viewBox="0 0 84 73"><path fill="currentColor" d="M96.002 65.688H1.998C.896 65.688 0 66.529 0 67.564v9.56C0 78.158.896 79 1.998 79h94.004C97.104 79 98 78.158 98 77.123v-9.559c0-1.035-.896-1.876-1.998-1.876zm0-22.502H1.998C.896 43.186 0 44.027 0 45.063v9.561C0 55.658.896 56.5 1.998 56.5h94.004c1.102 0 1.998-.842 1.998-1.877v-9.561c0-1.035-.896-1.876-1.998-1.876zm0-21.636H1.998C.896 21.55 0 22.392 0 23.427v9.56c0 1.034.896 1.876 1.998 1.876h94.004c1.102 0 1.998-.842 1.998-1.877v-9.559c0-1.035-.896-1.877-1.998-1.877zm0-21.55H1.998C.896 0 0 .842 0 1.877v9.559c0 1.035.896 1.877 1.998 1.877h94.004c1.102 0 1.998-.842 1.998-1.877v-9.56C98 .842 97.104 0 96.002 0z"/></svg>
