<svg xmlns="http://www.w3.org/2000/svg" xml:space="preserve" width="87" height="76" viewBox="0 0 87 76"><path fill="currentColor" d="M151.768 73.393h-.002c-.438-8.021-1.604-14.402-3.873-21.257-4.567-13.803-12.981-25.99-24.35-35.273l.001-.001-.246-.198-.144-.116-.18-.144-.211-.169v.001C111.536 7.315 97.009 1.442 82.823.1c-.867-.082-2.447-.1-3.62-.1-1.561 0-3.402.029-5.323.083-3.116.088-7.272.275-8.729.514-9.417 1.546-16.695 3.923-24.343 7.947C16.62 21.271 1.048 45.911.168 72.848l-.1 3.075c-.02.542.183 1.068.561 1.457.38.394.891.609 1.437.609h9.705a2 2 0 0 0 1.997-1.888l.099-1.765c.501-8.912 1.985-15.539 5.123-22.875 6.914-16.165 20.955-29.072 37.562-34.527 6.712-2.205 11.944-3.024 19.304-3.024 2.627 0 5.892.14 7.273.312 21.105 2.622 39.232 15.596 48.484 34.707 3.943 8.146 5.816 15.61 6.266 24.961l.105 2.191a1.994 1.994 0 0 0 1.996 1.904h9.916a1.986 1.986 0 0 0 1.449-.621c.379-.396.577-.932.549-1.479l-.126-2.492zm-25.985 1.861c.029-2.41-.395-6.348-1.033-9.471-1.365-6.656-4.668-14.047-8.664-19.419l.004-.003-.607-.795-.004.004C107 34.691 94.949 27.804 81.491 26.159c-1.114-.136-2.638-.208-4.399-.208-3.688 0-7.688.299-10.191.762-22.887 4.225-40.43 24.75-40.811 47.743l-.022 1.351a1.993 1.993 0 0 0 .574 1.438c.379.386.885.598 1.426.598h9.715a2 2 0 0 0 1.997-1.891l.093-1.688c.228-4.144.724-6.679 2.042-10.431 1.195-3.403 1.887-4.769 4.114-8.114 4.726-7.099 12.604-12.668 21.076-14.896 1.662-.438 4.166-.767 6.869-.902 2.639-.131 5.295-.062 7.082.204l.014-.091-.014.091c13.336 1.96 24.448 11.242 29.006 24.227 1.09 3.104 1.722 6.469 1.985 10.592l.076 1.166a2.003 2.003 0 0 0 1.997 1.871l9.663-.114a2.001 2.001 0 0 0 1.938-1.61l.022.001.045-.998-.005-.006zm-46.89-23.17a23.047 23.047 0 0 0-2.742-.163c-4.693 0-9.433 1.397-13.338 3.938-6.479 4.207-10.83 12.137-10.83 19.832 0 1.104.897 2 2 2h9.996a2.01 2.01 0 0 0 1.996-1.859l.017-.229c.271-3.834 2.399-7.012 5.841-8.713.583-.291 1.05-.447 1.609-.541.561-.095 1.261-.133 2.414-.133 1.101 0 1.86.023 2.494.145.58.111 1.065.305 1.67.597l.244.12c1.937.979 3.864 2.982 4.711 4.898.355.81.674 2.305.754 3.558l.021.286a2.004 2.004 0 0 0 1.995 1.873h9.98a1.993 1.993 0 0 0 2-1.986V75.234c-.01-11.384-9.356-21.768-20.832-23.15z"/></svg>
