<svg xmlns="http://www.w3.org/2000/svg" width="87" height="76" viewBox="0 0 87 76" xml:space="preserve"><path fill="#FF0A47" d="M151.768 73.393h-.002c-.439-8.021-1.605-14.403-3.873-21.257-4.568-13.803-12.982-25.99-24.35-35.273l.001-.001-.246-.198-.144-.116-.18-.144-.211-.169v.001C111.536 7.315 97.009 1.442 82.823.1c-.867-.082-2.447-.1-3.62-.1-1.561 0-3.402.029-5.323.083-3.116.088-7.272.275-8.729.514-9.417 1.546-16.695 3.923-24.343 7.947C16.62 21.271 1.048 45.911.168 72.848l-.1 3.075c-.02.542.183 1.068.561 1.457.38.394.891.609 1.437.609h9.705a2 2 0 0 0 1.997-1.888l.099-1.764c.501-8.912 1.985-15.539 5.123-22.875 6.914-16.165 20.955-29.072 37.562-34.527 6.712-2.205 11.944-3.024 19.304-3.024 2.627 0 5.891.14 7.273.312 21.105 2.622 39.232 15.596 48.484 34.706 3.943 8.146 5.816 15.611 6.266 24.961l.105 2.192a1.995 1.995 0 0 0 1.996 1.905h9.916a1.985 1.985 0 0 0 1.449-.622c.379-.396.578-.932.549-1.479l-.126-2.493zm-1.148 3.287a.991.991 0 0 1-.724.311h-9.916a1 1 0 0 1-1-.953l-.129-2.691h-.002c-.496-9.26-2.401-16.72-6.338-24.85-9.4-19.417-27.816-32.599-49.262-35.263-1.417-.176-4.734-.32-7.396-.32-7.381 0-12.879.862-19.615 3.074C39.363 21.53 25.095 34.645 18.069 51.07c-3.187 7.451-4.693 14.176-5.201 23.212l-.099 1.763a1 1 0 0 1-.999.944H2.066a.986.986 0 0 1-.718-.306.99.99 0 0 1-.281-.729l.1-3.075c.869-26.576 16.236-50.889 40.106-63.45 7.547-3.971 14.737-6.318 24.04-7.846 1.158-.19 4.533-.387 8.596-.5C75.82 1.028 77.65 1 79.203 1c1.65 0 2.871.033 3.525.095 14.16 1.341 28.666 7.257 39.799 16.231 11.412 9.201 19.854 21.347 24.414 35.125 2.285 6.902 3.438 13.331 3.852 21.49l.104 1.998c.013.274-.086.541-.277.741zm-24.837-1.426c.029-2.41-.395-6.348-1.033-9.471-1.365-6.656-4.668-14.047-8.664-19.419l.004-.003-.607-.795-.004.004C107 34.691 94.949 27.804 81.491 26.159c-1.114-.136-2.637-.208-4.399-.208-3.687 0-7.687.299-10.192.762-22.886 4.225-40.43 24.75-40.81 47.743l-.022 1.351c-.009.541.195 1.051.574 1.437s.885.598 1.426.598h9.715a2 2 0 0 0 1.997-1.891l.093-1.687c.228-4.144.724-6.679 2.042-10.431 1.195-3.403 1.887-4.769 4.114-8.114 4.726-7.099 12.604-12.668 21.076-14.896 1.662-.438 4.166-.766 6.869-.902 2.639-.131 5.295-.061 7.082.204l.014-.091-.014.091c13.336 1.96 24.449 11.242 29.006 24.226 1.09 3.104 1.722 6.469 1.986 10.592l.076 1.166a2.003 2.003 0 0 0 1.997 1.871l9.663-.114a2 2 0 0 0 1.938-1.61l.023.001.045-.998-.007-.005zm-1.012.453-.011.2a.997.997 0 0 1-.987.954l-9.641.115-.011.5v-.5c-.526 0-.966-.41-.999-.936l-.076-1.167c-.271-4.217-.921-7.667-2.042-10.858-4.623-13.174-15.823-22.639-29.308-24.807l-.495-.077-.022-.003-.472-.068-.001.006c-1.813-.219-4.309-.271-6.783-.146-2.77.14-5.347.479-7.072.935-8.703 2.289-16.799 8.014-21.654 15.31-2.285 3.435-2.996 4.836-4.225 8.337-1.354 3.854-1.864 6.456-2.097 10.708l-.093 1.687a1 1 0 0 1-.999.944h-9.715c-.27 0-.523-.106-.713-.299s-.291-.447-.287-.718l.022-1.352c.372-22.525 17.563-42.636 39.989-46.775 2.414-.446 6.437-.745 10.011-.745 1.725 0 3.203.069 4.278.201 13.351 1.632 25.291 8.529 33.621 19.421l.204.266c3.953 5.271 7.229 12.573 8.576 19.146.672 3.28 1.102 7.459 1.002 9.721zM78.893 52.084a23.06 23.06 0 0 0-2.742-.163c-4.694 0-9.433 1.397-13.338 3.938-6.479 4.207-10.83 12.137-10.83 19.832 0 1.104.897 2 2 2h9.996a2.01 2.01 0 0 0 1.996-1.859l.016-.229c.271-3.834 2.4-7.011 5.841-8.713.583-.291 1.05-.447 1.61-.541s1.26-.132 2.414-.132c1.1 0 1.86.023 2.494.144.58.111 1.065.305 1.67.597l.244.12c1.936.979 3.864 2.982 4.711 4.898.355.81.674 2.305.754 3.558l.02.287a2.004 2.004 0 0 0 1.995 1.872h9.981a1.993 1.993 0 0 0 2-2.002v-.457c-.01-11.384-9.356-21.768-20.832-23.15zm19.832 23.605a.997.997 0 0 1-.992 1.002H87.744c-.525 0-.964-.411-.997-.938l-.02-.287c-.088-1.375-.434-2.976-.838-3.896-.957-2.168-3.066-4.348-5.248-5.426-.748-.367-1.359-.625-2.104-.768-.712-.135-1.522-.161-2.683-.161-1.213 0-1.959.042-2.578.146-.666.111-1.213.295-1.891.632-3.765 1.864-6.096 5.341-6.395 9.54l-.016.229c-.037.521-.477.93-.998.93H53.98c-.551 0-1-.447-1-1.1 0-7.271 4.17-14.865 10.375-18.896 3.746-2.435 8.289-3.774 12.793-3.774.883 0 1.765.052 2.623.155C89.766 54.4 98.715 64.34 98.725 75.232v.457z"/></svg>
