<svg xmlns="http://www.w3.org/2000/svg" xml:space="preserve" width="152" height="118" viewBox="0 0 152 118"><path fill="currentColor" stroke="#FF0A47" stroke-linejoin="round" d="M11.288 54.157v.285m0 0a1.49 1.49 0 0 0 1.209-.507l12.145-13.948a1.492 1.492 0 0 1 1.611-.428l22.89 7.903a1.492 1.492 0 0 0 1.611-.428L66.59 28.846a1.485 1.485 0 0 1 1.611-.428l22.891 7.903a1.49 1.49 0 0 0 1.61-.428l15.836-18.189a1.49 1.49 0 0 1 1.611-.428l17.554 6.061a1.49 1.49 0 0 0 1.848-.801l2.249-5.117 2.166-4.928a1.466 1.466 0 0 0-.871-1.976l-27.322-9.433a1.49 1.49 0 0 0-1.611.428L88.324 19.698a1.492 1.492 0 0 1-1.611.428l-22.89-7.903a1.494 1.494 0 0 0-1.611.428L46.375 30.839a1.492 1.492 0 0 1-1.611.428l-22.89-7.903a1.49 1.49 0 0 0-1.61.428L1.36 45.502a1.46 1.46 0 0 0 .241 2.143L3.93 49.35l.293.215 6.27 4.592c.24.175.516.269.795.285zm19.042.199a1.492 1.492 0 0 0-1.611.428L9.815 76.779a1.46 1.46 0 0 0 .242 2.142l2.163 1.584.458.336 6.27 4.592a1.49 1.49 0 0 0 2.004-.222l12.145-13.948c.174-.199.395-.344.635-.428.309-.106.652-.111.976 0l22.89 7.904a1.498 1.498 0 0 0 1.611-.428l15.837-18.188a1.497 1.497 0 0 1 1.611-.428l22.891 7.902a1.484 1.484 0 0 0 1.61-.427l15.837-18.188a1.485 1.485 0 0 1 1.61-.428l17.555 6.06a1.488 1.488 0 0 0 1.847-.801l2.249-5.118 2.167-4.928a1.466 1.466 0 0 0-.872-1.975l-27.322-9.433a1.49 1.49 0 0 0-1.611.428L96.779 50.976a1.492 1.492 0 0 1-1.611.428L72.278 43.5a1.49 1.49 0 0 0-1.61.428L54.83 62.117a1.495 1.495 0 0 1-1.611.428L30.33 54.641zm6.845 31.707a1.489 1.489 0 0 1 1.61-.428l22.89 7.902a1.49 1.49 0 0 0 1.611-.428l15.837-18.188a1.488 1.488 0 0 1 1.61-.428l22.891 7.902a1.49 1.49 0 0 0 1.61-.428l15.836-18.188a1.494 1.494 0 0 1 1.611-.428l27.322 9.433a1.468 1.468 0 0 1 .872 1.977l-2.166 4.928-2.249 5.117a1.49 1.49 0 0 1-1.848.801l-17.553-6.061a1.497 1.497 0 0 0-1.612.428l-15.836 18.189a1.494 1.494 0 0 1-1.612.428l-22.891-7.903a1.497 1.497 0 0 0-1.612.428L67.664 109.59a1.482 1.482 0 0 1-1.611.428l-22.89-7.902a1.49 1.49 0 0 0-1.611.428L29.408 116.49a1.488 1.488 0 0 1-2.003.222l-6.27-4.592-.182-.132-2.439-1.787a1.464 1.464 0 0 1-.241-2.143l18.902-21.71z"/></svg>
