<svg xmlns="http://www.w3.org/2000/svg" xml:space="preserve" width="125.375" height="118.475" viewBox="0.5 6.5 125.375 118.475"><path fill="currentColor" stroke="#FF0A47" stroke-linejoin="round" d="M63.188 7C28.843 7 1 33.297 1 65.736c0 32.438 27.843 58.738 62.188 58.738 34.346 0 62.188-26.3 62.188-58.738C125.377 33.297 97.534 7 63.188 7zm43.35 62.526c-2.022 20.932-20.66 37.327-43.35 37.327-22.689 0-41.325-16.396-43.35-37.327a39.313 39.313 0 0 1-.183-3.79c0-22.707 19.49-41.114 43.532-41.114s43.532 18.407 43.532 41.114a38.993 38.993 0 0 1-.181 3.79zM63.188 37.69c-16.163 0-29.265 12.375-29.265 27.643 0 15.267 13.103 27.642 29.265 27.642S92.454 80.6 92.454 65.333 79.353 37.69 63.188 37.69zm11 31.431c-1.639 4.239-5.943 7.269-11 7.269-5.055 0-9.362-3.027-11-7.269a10.488 10.488 0 0 1-.706-3.789c0-6.105 5.241-11.058 11.706-11.058s11.707 4.95 11.707 11.058a10.425 10.425 0 0 1-.707 3.789z"/></svg>
