<svg xmlns="http://www.w3.org/2000/svg" xml:space="preserve" width="103" height="77" viewBox="0 0 103 77"><path fill="currentColor" d="M40.541 69.897c1.62-11.499 10.532-21.683 23.309-26.634 3.611-1.398 10.301-2.829 13.96-2.984 8.905-.378 17.903 2.041 24.175 6.502 2.949 2.096 3.938 3.007 5.879 5.41 2.139 2.648 3.197 4.545 4.344 7.78l.607 1.714c.217.608.888.952 1.537.785l11.092-2.844c.688-.178 1.092-.861.894-1.518l-.448-1.482c-.303-1-.652-1.982-1.051-2.942l-10.486 2.69c-.649.166-1.32-.178-1.537-.786l-.607-1.714c-1.146-3.235-2.205-5.131-4.344-7.78-1.94-2.403-2.93-3.314-5.879-5.411-6.271-4.459-15.27-6.879-24.175-6.501-3.659.155-10.349 1.586-13.96 2.984C51.074 42.116 42.162 52.3 40.542 63.8c-.282 2.006-.294 4.042-.027 6.295.007-.066.016-.131.026-.198zm12.652 6.037.217.777c.182.652.881 1.038 1.561.863l11.344-2.909c.644-.165 1.045-.776.923-1.402l-.126-.644c-.2-1.021-.219-2.283-.045-3.02.416-1.771 1.896-3.864 3.628-5.138 1.277-.938 1.821-1.171 4.113-1.759 2.147-.551 2.92-.643 4.134-.487 3.789.483 6.592 2.462 7.719 5.45l.215.57c.225.596.889.928 1.528.764l11.353-2.912c.68-.174 1.083-.844.901-1.494l-.138-.491a14.865 14.865 0 0 0-1.729-3.864l-10.388 2.664c-.64.164-1.304-.168-1.528-.764l-.215-.57c-1.127-2.987-3.93-4.967-7.719-5.449-1.214-.154-1.986-.063-4.134.487-2.292.588-2.836.82-4.113 1.759-1.732 1.273-3.212 3.367-3.628 5.138-.174.735-.155 1.998.045 3.019l.126.645c.122.627-.279 1.237-.923 1.402l-11.344 2.91c-.68.174-1.379-.213-1.561-.863l-.217-.777a15.137 15.137 0 0 1-.215-.877c-.461 2.333-.417 4.698.216 6.972zm-37.411-12.83c4.907-17.573 19.923-32.465 40.25-39.917 1.33-.487 4.537-1.43 7.129-2.095 7.242-1.857 12.682-2.543 19.776-2.494 17.667.125 34.406 6.816 44.859 17.935 4.763 5.067 7.669 9.898 10.162 16.897l.632 1.773c.217.607.887.951 1.535.784l11.09-2.845c.698-.179 1.102-.877.887-1.539l-.918-2.836a50.318 50.318 0 0 0-.541-1.574l-10.518 2.697c-.648.166-1.318-.177-1.535-.784l-.632-1.772c-2.493-7-5.399-11.831-10.162-16.898-10.453-11.118-27.192-17.81-44.859-17.935-7.095-.05-12.534.636-19.776 2.494-2.592.665-5.799 1.607-7.129 2.095-20.327 7.452-35.343 22.344-40.25 39.917-1.471 5.267-2.003 9.968-1.623 14.921.223-2.858.763-5.744 1.623-8.824z"/><path fill="transparent" stroke="#D3D8E3" stroke-linejoin="round" stroke-width=".59" d="M.089 73.076C-.2 77.955.21 82.643 1.37 88.083l.436 2.044c.147.688.869 1.115 1.578.934l11.313-2.901c.652-.167 1.055-.793.917-1.426l-.474-2.183-.533-2.466m25.907-11.989c.1.846.24 1.721.419 2.637l.267 1.364c.112.573-.216 1.134-.765 1.351m.079-5.352c-.267-2.253-.255-4.289.027-6.295 1.62-11.5 10.532-21.684 23.309-26.634 3.611-1.398 10.301-2.829 13.96-2.984 8.905-.378 17.903 2.042 24.175 6.501 2.949 2.097 3.938 3.008 5.879 5.411 2.139 2.649 3.197 4.545 4.344 7.78l.607 1.714c.217.608.888.952 1.537.786l10.486-2.69M40.514 70.096l.027-.198c1.62-11.499 10.532-21.683 23.309-26.634 3.611-1.398 10.301-2.829 13.96-2.984 8.905-.378 17.903 2.041 24.175 6.502 2.949 2.096 3.938 3.007 5.879 5.41 2.139 2.648 3.197 4.545 4.344 7.78l.607 1.714c.217.608.888.952 1.537.785l11.092-2.844c.688-.178 1.092-.861.894-1.518l-.448-1.482c-.303-1-.652-1.982-1.051-2.942m-71.86 15.276c-1.875-8.889 4.935-18.926 15.676-22.828 5.294-1.922 11.416-2.316 16.754-1.078 7.381 1.711 13.412 6.88 15.111 12.951l.138.492c.182.65-.222 1.318-.901 1.493l-.965.247m-45.813 8.723c.063.293.134.586.215.877l.217.777c.182.65.881 1.037 1.561.863l11.344-2.91c.644-.165 1.045-.775.923-1.402l-.126-.645c-.2-1.021-.219-2.283-.045-3.019.416-1.771 1.896-3.864 3.628-5.138 1.277-.938 1.821-1.171 4.113-1.759 2.147-.551 2.92-.642 4.134-.487 3.789.482 6.592 2.462 7.719 5.449l.215.57c.225.596.889.928 1.528.764l10.388-2.664m-45.814 8.724c-.463 2.334-.419 4.699.215 6.973l.217.777c.182.652.881 1.038 1.561.863l11.344-2.909c.644-.165 1.045-.776.923-1.402l-.126-.644c-.2-1.021-.219-2.283-.045-3.02.416-1.771 1.896-3.864 3.628-5.138 1.277-.938 1.821-1.171 4.113-1.759 2.147-.551 2.92-.643 4.134-.487 3.789.483 6.592 2.462 7.719 5.45l.215.57c.225.596.889.928 1.528.764l11.353-2.912c.68-.174 1.083-.844.901-1.494l-.138-.491a14.865 14.865 0 0 0-1.729-3.864m26.046-6.553.605-.155c.688-.176 1.092-.86.894-1.516l-.448-1.482c-5.527-18.301-27.293-30.087-51.014-27.626-3.992.414-11.15 2.018-14.563 3.263-13.16 4.801-23.57 13.425-29.528 24.462-2.887 5.347-4.594 12.254-4.458 18.041.018.768.068 1.583.145 2.399m124.172-23.878-10.518 2.697c-.648.166-1.318-.177-1.535-.784l-.632-1.772c-2.493-7-5.399-11.831-10.162-16.898-10.453-11.118-27.192-17.81-44.859-17.935-7.095-.05-12.534.636-19.776 2.494-2.592.665-5.799 1.607-7.129 2.095-20.327 7.452-35.343 22.344-40.25 39.917-1.471 5.267-2.003 9.968-1.623 14.921m136.484-24.735.572-.146c.698-.18 1.102-.879.887-1.539l-.918-2.837C144.36 21.605 123.24 5.789 96.647 1.829 88.167.566 80.465.523 70.79 1.684c-2.696.324-14.781 3.132-17.602 4.091-13.872 4.714-27.127 13.243-36.248 23.322C7.556 39.466 1.852 51.386.385 63.688c-.73 6.125-.433 11.649.985 18.298l.436 2.043c.147.689.869 1.116 1.578.935l11.223-2.879m136.036-34.892c.189.521.369 1.046.541 1.574l.918 2.836c.215.662-.188 1.36-.887 1.539l-11.09 2.845c-.648.167-1.318-.177-1.535-.784l-.632-1.773c-2.493-6.999-5.399-11.83-10.162-16.897-10.453-11.118-27.192-17.81-44.859-17.935-7.095-.05-12.534.636-19.776 2.494-2.592.665-5.799 1.607-7.129 2.095-20.327 7.452-35.343 22.344-40.25 39.917-.86 3.08-1.399 5.967-1.623 8.824m12.312-.857c.208 2.216.608 4.446 1.066 5.792l.187.547c.208.612.877.964 1.528.804l11.013-2.712a1.35 1.35 0 0 0 .17-.055m-13.964-4.376a30.846 30.846 0 0 0-.145 3.697c.066 2.851.584 6.351 1.211 8.19l.187.549c.208.611.877.963 1.528.803l11.013-2.712c.649-.16 1.058-.774.935-1.405l-.267-1.363a34.185 34.185 0 0 1-.498-3.383m-26.276-3.519c.162 2.109.489 4.264.98 6.526l.474 2.183c.137.633-.265 1.258-.917 1.426l-.089.022"/></svg>