<svg xmlns="http://www.w3.org/2000/svg" width="176" height="157" viewBox="0 0 176 157" xml:space="preserve"><path fill="currentColor" d="M185 88.18v11.212c0 47.99-41.189 86.895-92 86.895-50.81 0-92-38.904-92-86.895V88.18c0 47.99 41.19 86.895 92 86.895 50.811-.001 92-38.905 92-86.895zm-91.999 40.291c-23.911 0-43.294-18.307-43.294-40.891v11.212c0 22.584 19.383 40.892 43.294 40.892 23.911 0 43.294-18.308 43.294-40.892V87.58c0 22.584-19.383 40.891-43.294 40.891zM93 27.354c-35.567 0-64.4 27.232-64.4 60.826 0 1.89.091 3.76.27 5.605C31.866 62.82 59.434 38.566 93 38.566c33.566 0 61.134 24.254 64.13 55.219.179-1.846.271-3.716.271-5.605C157.4 54.586 128.566 27.354 93 27.354zm.001 43.87c-9.564 0-17.317 7.323-17.317 16.356 0 1.969.368 3.857 1.044 5.605 2.422-6.271 8.794-10.75 16.273-10.75 7.479 0 13.851 4.479 16.274 10.75a15.523 15.523 0 0 0 1.043-5.605c0-9.033-7.754-16.356-17.317-16.356z"/><path fill="none" stroke="#D3D8E3" stroke-miterlimit="10" d="M93.001 46.689c-23.911 0-43.294 18.308-43.294 40.891 0 22.584 19.383 40.891 43.294 40.891 23.911 0 43.294-18.307 43.294-40.891 0-22.583-19.383-40.891-43.294-40.891zm16.274 46.497c-2.424 6.273-8.795 10.752-16.274 10.752-7.479 0-13.851-4.479-16.273-10.752a15.502 15.502 0 0 1-1.044-5.605c0-9.033 7.753-16.356 17.317-16.356 9.563 0 17.317 7.323 17.317 16.356 0 1.968-.368 3.857-1.043 5.605zM93 38.566c-33.566 0-61.134 24.254-64.13 55.219 2.996 30.966 30.564 55.22 64.13 55.22 33.566 0 61.134-24.254 64.13-55.22C154.134 62.82 126.566 38.566 93 38.566zm43.295 60.226c0 22.584-19.383 40.892-43.294 40.892-23.911 0-43.294-18.308-43.294-40.892V87.58c0-22.583 19.383-40.891 43.294-40.891 23.911 0 43.294 18.308 43.294 40.891v11.212zm-27.02-5.606c-2.424 6.273-8.795 10.752-16.274 10.752-7.479 0-13.851-4.479-16.273-10.752 2.422-6.271 8.794-10.75 16.273-10.75 7.479 0 13.851 4.478 16.274 10.75zM93 175.074c50.811 0 92-38.904 92-86.895S143.811 1.286 93 1.286C42.19 1.286 1 40.19 1 88.18s41.19 86.894 92 86.894zm0-147.72c35.566 0 64.4 27.232 64.4 60.826 0 1.89-.092 3.76-.271 5.605-2.996 30.966-30.563 55.22-64.13 55.22-33.566 0-61.134-24.254-64.13-55.22a58.068 58.068 0 0 1-.27-5.605C28.6 54.586 57.433 27.354 93 27.354zm43.295 60.226v11.212c0 22.584-19.383 40.892-43.294 40.892-23.911 0-43.294-18.308-43.294-40.892V87.58c0 22.584 19.383 40.891 43.294 40.891 23.911 0 43.294-18.307 43.294-40.891zM28.87 93.785a58.068 58.068 0 0 1-.27-5.605c0-33.593 28.833-60.826 64.4-60.826 35.566 0 64.4 27.232 64.4 60.826 0 1.89-.092 3.76-.271 5.605C154.134 62.82 126.566 38.566 93 38.566S31.866 62.82 28.87 93.785zM185 88.18v11.212c0 47.99-41.189 86.895-92 86.895-50.81 0-92-38.904-92-86.895V88.18c0 47.99 41.19 86.895 92 86.895 50.811-.001 92-38.905 92-86.895zm-74.682-.6c0 1.969-.368 3.857-1.043 5.605-2.424-6.271-8.795-10.75-16.274-10.75-7.479 0-13.851 4.479-16.273 10.75a15.502 15.502 0 0 1-1.044-5.605c0-9.033 7.753-16.356 17.317-16.356 9.563 0 17.317 7.323 17.317 16.356z"/></svg>
