<svg xmlns="http://www.w3.org/2000/svg" width="86" height="74" viewBox="0 0 86 74" xml:space="preserve"><path fill="#FF0A47" d="M47.5 95C21.309 95 0 73.691 0 47.5S21.309 0 47.5 0 95 21.309 95 47.5 73.691 95 47.5 95zm0-94C21.86 1 1 21.86 1 47.5 1 73.141 21.86 94 47.5 94 73.141 94 94 73.141 94 47.5 94 21.86 73.141 1 47.5 1z"/><path fill="#FF0A47" d="M47.5 81.75c-18.886 0-34.25-15.364-34.25-34.25S28.614 13.25 47.5 13.25 81.75 28.614 81.75 47.5 66.386 81.75 47.5 81.75zm0-67.5c-18.334 0-33.25 14.916-33.25 33.25S29.166 80.75 47.5 80.75 80.75 65.834 80.75 47.5 65.834 14.25 47.5 14.25z"/><path fill="#FF0A47" d="M47.5 69.525c-12.326 0-22.353-10.027-22.353-22.353 0-12.326 10.027-22.353 22.353-22.353 12.326 0 22.354 10.027 22.354 22.353 0 12.326-10.028 22.353-22.354 22.353zm0-43.705c-11.774 0-21.353 9.579-21.353 21.353 0 11.773 9.579 21.353 21.353 21.353 11.774 0 21.354-9.579 21.354-21.353 0-11.774-9.58-21.353-21.354-21.353z"/><path fill="#FF0A47" d="M47.402 57.113c-5.425 0-9.884-4.413-9.94-9.839a9.879 9.879 0 0 1 2.839-7.059 9.869 9.869 0 0 1 6.999-2.983h.207c5.368 0 9.762 4.29 9.927 9.627l.005.003.002.311c-.001 5.481-4.461 9.94-9.941 9.94h-.098zm-.096-19.381.005.5a8.88 8.88 0 0 0-6.295 2.683 8.882 8.882 0 0 0-2.553 6.35c.05 4.879 4.061 8.849 8.94 8.849v.5l.093-.5c4.889 0 8.87-3.936 8.945-8.803l-.001-.139c0-4.93-4.01-8.939-8.939-8.939l-.195-.501z"/></svg>
