<svg xmlns="http://www.w3.org/2000/svg" width="84" height="73" viewBox="0 0 84 73" xml:space="preserve"><path fill="#FF0A47" d="M96.002 65.688H1.998C.896 65.688 0 66.529 0 67.564v9.56C0 78.158.896 79 1.998 79h94.004C97.104 79 98 78.158 98 77.123v-9.559c0-1.035-.896-1.876-1.998-1.876zM97 77.123c0 .483-.447.877-.998.877H1.998C1.381 78 1 77.545 1 77.124v-9.56c0-.483.448-.877.998-.877h94.004c.551 0 .998.394.998.877v9.559zm-.998-33.937H1.998C.896 43.186 0 44.027 0 45.063v9.56C0 55.658.896 56.5 1.998 56.5h94.004c1.102 0 1.998-.842 1.998-1.877v-9.56c0-1.036-.896-1.877-1.998-1.877zM97 54.622c0 .483-.447.877-.998.877H1.998c-.55 0-.998-.394-.998-.877v-9.56c0-.483.448-.877.998-.877h94.004c.551 0 .998.394.998.877v9.56zm-.998-33.072H1.998C.896 21.55 0 22.392 0 23.427v9.56c0 1.034.896 1.876 1.998 1.876h94.004c1.102 0 1.998-.842 1.998-1.877v-9.559c0-1.035-.896-1.877-1.998-1.877zM97 32.986c0 .483-.447.877-.998.877H1.998c-.55 0-.998-.393-.998-.876v-9.56c0-.422.381-.877.998-.877h94.004c.551 0 .998.394.998.877v9.559zM96.002 0H1.998C.896 0 0 .842 0 1.877v9.559c0 1.035.896 1.877 1.998 1.877h94.004c1.102 0 1.998-.842 1.998-1.877v-9.56C98 .842 97.104 0 96.002 0zM97 11.436c0 .483-.447.877-.998.877H1.998c-.55 0-.998-.394-.998-.877V1.877C1 1.394 1.448 1 1.998 1h94.004c.551 0 .998.393.998.876v9.56z"/></svg>
