<svg xmlns="http://www.w3.org/2000/svg" width="137" height="113" viewBox="0 0 137 113" xml:space="preserve"><path fill="none" stroke="#FF0A47" d="m61.628-23.863.448.221-.448-.221a.899.899 0 0 1-.196.255l-9.949 9.314-86.618 81.096c-.273.256-.679.372-1.091.333-.524-.049-.906-.325-1.019-.663l-5.126-14.946-.001-.004c-.021-.064-.02-.155.041-.287.063-.138.179-.289.33-.43l74.245-69.576c.149-.14.36-.251.611-.306l27.297-5.887c.551-.119 1.009.049 1.276.301.267.253.322.552.2.8zm49.989 3.982.465.182-.465-.182a.825.825 0 0 1-.215.304L-22.811 103.848c-.279.258-.691.37-1.106.326-.514-.055-.887-.329-.997-.662l-5.027-15.101c-.077-.232-.019-.502.227-.728L102.611-33.952c.148-.137.357-.246.604-.299l2.316-.5c.731-.158 1.358.216 1.497.635l4.599 13.812a.61.61 0 0 1-.01.423zm23.848 71.569a.801.801 0 0 1-.217.327l-2.102 1.986L109.229 76.6c-.15.141-.362.254-.614.308L80.7 82.929c-.799.172-1.369-.25-1.504-.642-.072-.207-.047-.458.221-.711l48.782-46.086c.305-.289.778-.4 1.231-.318.459.083.779.338.881.645l5.154 15.481a.612.612 0 0 1 0 .39zm-121.5 45.63c-.945.205-1.523-.402-1.538-.818a.788.788 0 0 1 .001-.069c.012-.134.075-.296.254-.464L115.877-1.525c.305-.288.777-.4 1.232-.318.459.083.779.338.881.645l5.117 15.373a.604.604 0 0 1-.012.423.791.791 0 0 1-.205.295L42.277 91.037a1.088 1.088 0 0 1-.178.137 1.41 1.41 0 0 1-.437.172l-27.697 5.972z"/></svg>
