<svg xmlns="http://www.w3.org/2000/svg" width="137" height="113" viewBox="0 0 137 113" xml:space="preserve"><path fill="none" stroke="#FF0A47" stroke-miterlimit="10" d="M-43.044-8.893c.546-.556 1.423-.762 2.212-.521L-9.397.214c.789.242 1.666.035 2.212-.521l21.749-22.158c.546-.556 1.423-.763 2.212-.521l31.437 9.627c.789.242 1.666.036 2.212-.521l21.749-22.158c.546-.556 1.423-.763 2.212-.521l37.522 11.492c1.12.343 1.671 1.451 1.197 2.406l-6.064 12.238c-.233.475-.677.817-1.197.976-.42.129-.889.138-1.339 0L80.399-16.83a2.303 2.303 0 0 0-1.341 0c-.33.101-.633.278-.872.521L56.438 5.851a2.142 2.142 0 0 1-1.309.609 2.284 2.284 0 0 1-.904-.088L22.79-3.256a2.3 2.3 0 0 0-1.34 0 2.066 2.066 0 0 0-.872.521l-21.75 22.159a2.125 2.125 0 0 1-1.239.601c-.32.042-.653.018-.973-.08l-31.435-9.628c-.789-.242-1.666-.035-2.212.521L-53.71 27.829c-.429.437-1.048.649-1.661.618a2.197 2.197 0 0 1-1.091-.348l-12.211-7.932a1.842 1.842 0 0 1-.667-.744c-.29-.605-.191-1.332.335-1.867l25.961-26.449zm11.612 38.104c.545-.557 1.423-.763 2.212-.521l31.435 9.628c.789.242 1.666.035 2.212-.521l21.75-22.158c.546-.557 1.423-.763 2.212-.521l31.436 9.628c.789.242 1.667.035 2.212-.521L83.785 2.066c.546-.557 1.423-.763 2.212-.521l37.522 11.492c1.12.343 1.671 1.451 1.197 2.407l-6.063 12.238c-.234.475-.678.817-1.196.976-.421.129-.89.138-1.341 0L92.01 21.274a2.3 2.3 0 0 0-1.34 0 2.056 2.056 0 0 0-.872.521L68.049 43.954a2.123 2.123 0 0 1-1.208.596 2.288 2.288 0 0 1-1.004-.075l-31.436-9.628a2.3 2.3 0 0 0-1.34 0c-.33.101-.632.277-.872.521l-21.75 22.158a2.104 2.104 0 0 1-1.139.586c-.351.063-.72.043-1.073-.064l-31.435-9.628a2.3 2.3 0 0 0-1.34 0 2.066 2.066 0 0 0-.872.521l-16.679 16.992c-.405.413-.981.626-1.561.622a2.22 2.22 0 0 1-1.192-.352l-12.21-7.933a1.8 1.8 0 0 1-.73-.896c-.207-.572-.083-1.223.399-1.714l25.961-26.449zm13.824 37.583c-.789-.242-1.666-.035-2.212.521l-25.961 26.448c-.406.414-.557.939-.472 1.437.077.451.35.879.804 1.174l12.211 7.933c.387.251.843.366 1.292.35.545-.02 1.079-.23 1.46-.62l16.678-16.991c.319-.325.75-.53 1.211-.598a2.313 2.313 0 0 1 1 .076l31.435 9.629c.387.118.794.128 1.173.044a2.104 2.104 0 0 0 1.04-.564l21.75-22.159c.239-.243.541-.42.872-.521a2.3 2.3 0 0 1 1.34 0l31.436 9.628c.363.111.745.128 1.104.059a2.1 2.1 0 0 0 1.107-.579l21.749-22.158c.239-.243.542-.42.872-.521a2.28 2.28 0 0 1 1.339 0l24.107 7.382c.45.138.921.129 1.341 0 .519-.159.962-.501 1.197-.976l6.063-12.237c.473-.957-.078-2.064-1.197-2.406L97.608 39.649c-.789-.242-1.665-.035-2.212.521L73.648 62.327c-.546.557-1.423.764-2.212.522L40 53.221c-.789-.241-1.666-.035-2.212.521L16.039 75.9c-.546.556-1.423.763-2.212.521l-31.435-9.627z"/></svg>
