<svg xmlns="http://www.w3.org/2000/svg" xmlns:xlink="http://www.w3.org/1999/xlink" xml:space="preserve" width="170" height="171" viewBox="0 0 170 171"><defs><path id="a" d="M0 .579h170v170H0z"/></defs><clipPath id="b"><use xlink:href="#a" overflow="visible"/></clipPath><g fill="#F7F9FD" stroke="#FF0A47" stroke-miterlimit="10" stroke-width=".6" clip-path="url(#b)"><path d="M171.02 199.721c1.959-1.422 4.828-1.83 7.965-1.832 2.76 0 5.841.318 8.883.633l1.318.136c3.484.353 6.848.639 9.654.403 2.825-.236 4.922-.988 6.061-2.552l.002-.002c1.136-1.547 1.207-3.749.562-6.483-.642-2.719-1.948-5.801-3.36-8.983l-.521-1.17c-1.241-2.786-2.501-5.612-3.353-8.233-.965-2.972-1.457-5.816-.703-8.121.727-2.24 2.799-4.203 5.326-6.004 2.154-1.535 4.736-3.018 7.301-4.49.466-.268.93-.533 1.392-.801 3.026-1.75 5.919-3.498 8.054-5.356 2.146-1.87 3.407-3.749 3.407-5.743 0-1.995-1.262-3.874-3.407-5.743-2.135-1.86-5.026-3.608-8.054-5.356l-1.392-.801c-2.564-1.473-5.146-2.955-7.301-4.49-2.528-1.803-4.601-3.766-5.328-6.006-.752-2.316-.265-5.17.697-8.148.854-2.646 2.12-5.498 3.367-8.305l.493-1.11c1.407-3.183 2.714-6.263 3.358-8.974.647-2.73.582-4.92-.541-6.455-1.139-1.564-3.235-2.32-6.061-2.56-2.808-.24-6.171.041-9.656.391l-1.367.14c-3.025.31-6.088.624-8.832.626-3.137.001-6.004-.401-7.963-1.807-1.935-1.396-3.189-3.97-4.146-6.924-.828-2.556-1.462-5.508-2.09-8.43l-.31-1.428c-.74-3.401-1.513-6.668-2.617-9.252-1.11-2.597-2.494-4.357-4.365-4.96h-.002c-1.797-.587-3.898.03-6.299 1.49-2.385 1.45-4.92 3.64-7.528 5.958l-.82.731c-2.329 2.075-4.7 4.189-7.01 5.836-2.567 1.831-5.166 3.17-7.642 3.17-2.477 0-5.075-1.335-7.643-3.162-2.316-1.648-4.693-3.764-7.029-5.841l-.801-.713c-2.609-2.314-5.144-4.504-7.529-5.957-2.4-1.462-4.502-2.086-6.299-1.512-1.873.603-3.257 2.363-4.367 4.96-1.104 2.584-1.877 5.85-2.617 9.252l-.307 1.426c-.627 2.922-1.263 5.874-2.09 8.43-.956 2.954-2.211 5.528-4.145 6.923-1.959 1.42-4.826 1.83-7.964 1.83-2.76.001-5.84-.317-8.883-.632l-1.317-.135c-3.486-.354-6.848-.64-9.656-.404-2.825.236-4.922.989-6.06 2.551l-.001.002c-1.136 1.548-1.207 3.75-.562 6.485.64 2.717 1.949 5.801 3.36 8.983l.52 1.169c1.242 2.787 2.501 5.613 3.353 8.234.966 2.971 1.458 5.816.704 8.121-.727 2.238-2.8 4.201-5.326 6.004-2.155 1.535-4.737 3.018-7.302 4.49-.465.266-.93.533-1.39.801-3.029 1.748-5.92 3.496-8.055 5.356-2.146 1.869-3.407 3.748-3.407 5.743 0 2.009 1.263 3.895 3.407 5.766 2.135 1.862 5.026 3.608 8.054 5.354.469.271.942.542 1.415.813 2.557 1.463 5.13 2.938 7.277 4.465 2.528 1.797 4.6 3.756 5.327 5.998.753 2.315.266 5.17-.695 8.147-.855 2.647-2.122 5.498-3.369 8.306l-.492 1.109c-1.408 3.184-2.715 6.264-3.358 8.975-.648 2.729-.583 4.92.54 6.453v.002c1.139 1.563 3.236 2.318 6.061 2.559 2.807.24 6.17-.041 9.655-.391l1.368-.14c3.025-.31 6.088-.625 8.831-.626 3.138-.002 6.005.4 7.963 1.807h.002c1.934 1.396 3.19 3.969 4.145 6.924.827 2.557 1.463 5.508 2.09 8.431l.309 1.428c.74 3.401 1.513 6.668 2.617 9.251 1.11 2.598 2.494 4.357 4.365 4.96l.002.001c1.797.586 3.899-.029 6.299-1.49 2.386-1.449 4.92-3.641 7.528-5.959l.821-.73c2.328-2.075 4.699-4.188 7.01-5.836 2.567-1.831 5.166-3.17 7.643-3.17 2.476 0 5.074 1.334 7.641 3.162 2.316 1.648 4.695 3.765 7.029 5.842l.802.712c2.608 2.315 5.144 4.505 7.528 5.957 2.4 1.462 4.504 2.086 6.301 1.512 1.872-.603 3.255-2.362 4.365-4.96 1.104-2.583 1.877-5.85 2.617-9.251l.31-1.428c.628-2.923 1.262-5.874 2.09-8.431.954-2.954 2.21-5.527 4.143-6.921z"/><path d="M185.02 199.721c1.959-1.422 4.828-1.83 7.965-1.832 2.76 0 5.841.318 8.883.633l1.318.136c3.484.353 6.848.639 9.654.403 2.825-.236 4.922-.988 6.061-2.552l.002-.002c1.136-1.547 1.207-3.749.562-6.483-.642-2.719-1.948-5.801-3.36-8.983l-.521-1.17c-1.241-2.786-2.501-5.612-3.353-8.233-.965-2.972-1.457-5.816-.703-8.121.727-2.24 2.799-4.203 5.326-6.004 2.154-1.535 4.736-3.018 7.301-4.49.466-.268.93-.533 1.392-.801 3.026-1.75 5.919-3.498 8.054-5.356 2.146-1.87 3.407-3.749 3.407-5.743 0-1.995-1.262-3.874-3.407-5.743-2.135-1.86-5.026-3.608-8.054-5.356l-1.392-.801c-2.564-1.473-5.146-2.955-7.301-4.49-2.528-1.803-4.601-3.766-5.328-6.006-.752-2.316-.265-5.17.697-8.148.854-2.646 2.12-5.498 3.367-8.305l.493-1.11c1.407-3.183 2.714-6.263 3.358-8.974.647-2.73.582-4.92-.541-6.455-1.139-1.564-3.235-2.32-6.061-2.56-2.808-.24-6.171.041-9.656.391l-1.367.14c-3.025.31-6.088.624-8.832.626-3.137.001-6.004-.401-7.963-1.807-1.935-1.396-3.189-3.97-4.146-6.924-.828-2.556-1.462-5.508-2.09-8.43l-.31-1.428c-.74-3.401-1.513-6.668-2.617-9.252-1.11-2.597-2.494-4.357-4.365-4.96h-.002c-1.797-.587-3.898.03-6.299 1.49-2.385 1.45-4.92 3.64-7.528 5.958l-.82.731c-2.329 2.075-4.7 4.189-7.01 5.836-2.567 1.831-5.166 3.17-7.642 3.17-2.477 0-5.075-1.335-7.643-3.162-2.316-1.648-4.693-3.764-7.029-5.841l-.801-.713c-2.609-2.314-5.144-4.504-7.529-5.957-2.4-1.462-4.502-2.086-6.301-1.512-1.871.603-3.255 2.363-4.365 4.96-1.104 2.584-1.877 5.85-2.617 9.252l-.309 1.428c-.627 2.922-1.263 5.874-2.09 8.43-.956 2.954-2.211 5.528-4.145 6.923-1.959 1.42-4.826 1.83-7.965 1.83-2.76.001-5.84-.317-8.882-.632l-1.317-.135c-3.486-.354-6.848-.64-9.656-.404-2.825.236-4.922.989-6.06 2.551l-.001.002c-1.136 1.548-1.207 3.75-.562 6.485.64 2.717 1.949 5.801 3.36 8.983l.52 1.169c1.242 2.787 2.501 5.613 3.353 8.234.966 2.971 1.458 5.816.704 8.121-.727 2.238-2.8 4.201-5.326 6.004-2.155 1.535-4.737 3.018-7.302 4.49-.465.266-.93.533-1.39.801-3.029 1.748-5.92 3.496-8.055 5.356-2.146 1.869-3.407 3.748-3.407 5.743 0 2.009 1.263 3.895 3.407 5.766 2.135 1.862 5.026 3.608 8.054 5.354.469.271.942.542 1.415.813 2.557 1.463 5.13 2.938 7.277 4.465 2.528 1.797 4.6 3.756 5.327 5.998.753 2.315.266 5.17-.695 8.147-.855 2.647-2.122 5.498-3.369 8.306l-.492 1.109c-1.408 3.184-2.715 6.264-3.358 8.975-.648 2.729-.583 4.92.54 6.453v.002c1.139 1.563 3.236 2.318 6.061 2.559 2.807.24 6.17-.041 9.655-.391l1.368-.14c3.025-.31 6.087-.625 8.832-.626 3.138-.002 6.004.4 7.963 1.807h.002c1.933 1.396 3.189 3.969 4.145 6.924.827 2.557 1.463 5.508 2.09 8.431l.309 1.428c.74 3.401 1.513 6.668 2.617 9.251 1.11 2.598 2.494 4.357 4.365 4.96l.002.001c1.797.586 3.899-.029 6.299-1.49 2.386-1.449 4.92-3.641 7.528-5.959l.821-.73c2.328-2.075 4.699-4.188 7.01-5.836 2.567-1.831 5.166-3.17 7.643-3.17 2.476 0 5.074 1.334 7.641 3.162 2.316 1.648 4.695 3.765 7.029 5.842l.802.712c2.608 2.315 5.144 4.505 7.528 5.957 2.4 1.462 4.504 2.086 6.301 1.512 1.872-.603 3.255-2.362 4.365-4.96 1.104-2.583 1.877-5.85 2.617-9.251l.31-1.428c.628-2.923 1.262-5.874 2.09-8.431.955-2.956 2.211-5.529 4.144-6.923z"/><path d="M200.02 199.721c1.959-1.422 4.828-1.83 7.965-1.832 2.76 0 5.841.318 8.883.633l1.318.136c3.484.353 6.848.639 9.654.403 2.825-.236 4.922-.988 6.061-2.552l.002-.002c1.136-1.547 1.207-3.749.562-6.483-.642-2.719-1.948-5.801-3.36-8.983l-.521-1.17c-1.241-2.786-2.501-5.612-3.353-8.233-.965-2.972-1.457-5.816-.703-8.121.727-2.24 2.799-4.203 5.326-6.004 2.154-1.535 4.736-3.018 7.301-4.49.466-.268.93-.533 1.392-.801 3.026-1.75 5.919-3.498 8.054-5.356 2.146-1.87 3.407-3.749 3.407-5.743 0-1.995-1.262-3.874-3.407-5.743-2.135-1.86-5.026-3.608-8.054-5.356l-1.392-.801c-2.564-1.473-5.146-2.955-7.301-4.49-2.528-1.803-4.601-3.766-5.328-6.006-.752-2.316-.265-5.17.697-8.148.854-2.646 2.12-5.498 3.367-8.305l.493-1.11c1.407-3.183 2.714-6.263 3.358-8.974.647-2.73.582-4.92-.541-6.455-1.139-1.564-3.235-2.32-6.061-2.56-2.808-.24-6.171.041-9.656.391l-1.367.14c-3.025.31-6.088.624-8.832.626-3.137.001-6.004-.401-7.963-1.807-1.935-1.396-3.189-3.97-4.146-6.924-.828-2.556-1.462-5.508-2.09-8.43l-.31-1.428c-.74-3.401-1.513-6.668-2.617-9.252-1.11-2.597-2.494-4.357-4.365-4.96h-.002c-1.797-.587-3.898.03-6.299 1.49-2.385 1.45-4.92 3.64-7.528 5.958l-.82.731c-2.329 2.075-4.7 4.189-7.01 5.836-2.567 1.831-5.166 3.17-7.642 3.17-2.477 0-5.075-1.335-7.643-3.162-2.316-1.648-4.693-3.764-7.029-5.841l-.801-.713c-2.609-2.314-5.144-4.504-7.529-5.957-2.4-1.462-4.502-2.086-6.301-1.512-1.871.603-3.255 2.363-4.365 4.96-1.104 2.584-1.877 5.85-2.617 9.252l-.309 1.428c-.627 2.922-1.263 5.874-2.09 8.43-.956 2.954-2.211 5.528-4.145 6.923-1.959 1.42-4.826 1.83-7.965 1.83-2.758.001-5.84-.317-8.883-.632l-1.316-.135c-3.486-.354-6.848-.64-9.656-.404-2.825.236-4.922.989-6.06 2.551l-.001.002c-1.136 1.548-1.207 3.75-.562 6.485.64 2.717 1.949 5.801 3.36 8.983l.52 1.169c1.242 2.787 2.501 5.613 3.353 8.234.967 2.971 1.459 5.816.705 8.121-.728 2.238-2.8 4.201-5.326 6.004-2.155 1.535-4.737 3.018-7.302 4.49-.465.266-.93.533-1.39.801-3.029 1.748-5.92 3.496-8.055 5.356-2.146 1.869-3.407 3.748-3.407 5.743 0 2.009 1.263 3.895 3.407 5.766 2.135 1.862 5.026 3.608 8.054 5.354.469.271.942.542 1.415.813 2.557 1.463 5.13 2.938 7.278 4.465 2.527 1.797 4.6 3.756 5.326 5.998.752 2.315.266 5.17-.695 8.147-.855 2.647-2.122 5.498-3.369 8.306l-.492 1.109c-1.408 3.184-2.715 6.264-3.358 8.975-.648 2.729-.583 4.92.54 6.453v.002c1.139 1.563 3.236 2.318 6.061 2.559 2.808.24 6.17-.041 9.655-.391l1.367-.14c3.025-.31 6.088-.625 8.832-.626 3.138-.002 6.004.4 7.963 1.807h.002c1.933 1.396 3.189 3.969 4.145 6.924.827 2.557 1.463 5.508 2.09 8.431l.309 1.428c.74 3.401 1.513 6.668 2.617 9.251 1.11 2.598 2.494 4.357 4.365 4.96l.002.001c1.797.586 3.899-.029 6.299-1.49 2.386-1.449 4.92-3.641 7.528-5.959l.821-.73c2.328-2.075 4.699-4.188 7.01-5.836 2.567-1.831 5.166-3.17 7.643-3.17 2.476 0 5.074 1.334 7.641 3.162 2.316 1.648 4.695 3.765 7.029 5.842l.802.712c2.608 2.315 5.144 4.505 7.528 5.957 2.4 1.462 4.504 2.086 6.301 1.512 1.872-.603 3.255-2.362 4.365-4.96 1.104-2.583 1.877-5.85 2.617-9.251l.31-1.428c.628-2.923 1.262-5.874 2.09-8.431.955-2.956 2.211-5.529 4.144-6.923z"/></g></svg>
