<svg xmlns="http://www.w3.org/2000/svg" width="176" height="157" viewBox="0 0 176 157" xml:space="preserve"><path fill="currentColor" d="M121.237 208.767a2.128 2.128 0 0 0 1.062-.66V193.46c-.219.16-.468.285-.735.355l-24.655 6.527-9.748 2.581c-1.443.381-2.624-.733-2.662-1.971l-.303 14.632c-.183 1.353 1.078 2.708 2.645 2.29l34.396-9.107zM222.423 92.024a2.054 2.054 0 0 0 .429-1.888l.299-13.79a2.018 2.018 0 0 1-.413.727l-2.607 3.028-97.513 113.055a2.413 2.413 0 0 1-.327.305v14.648L222.423 92.024zm-14.278-52.539a2.058 2.058 0 0 0 .449-1.913l.297-13.786c-.086.274-.23.53-.426.747l-2.608 2.945L41.772 212.69a2.089 2.089 0 0 1-1.861.694 2.092 2.092 0 0 1-1.762-1.519l-3.507-12.935-2.736-10.09-.296 13.779-.026 1.165 6.245 23.023c.437 1.61 2.513 2.086 3.621.835L208.145 39.485zM1.123 91.467l6.095 22.476c.273 1.014 1.206 1.579 2.133 1.536a2.094 2.094 0 0 0 1.492-.712l51.239-58.418c.95-1.172-.107-2.483-1.15-2.226L48.57 57.277 11.166 99.815a2.089 2.089 0 0 1-1.815.707 2.098 2.098 0 0 1-1.815-1.53l-3.281-12.1-3.107 3.418c-.12.378-.129.777-.025 1.157zm15.21 56.089 6.182 22.788c.273 1.01 1.193 1.572 2.115 1.54a2.087 2.087 0 0 0 1.518-.723L144.974 34.694c1.046-1.053 1.434-3.679-.714-3.151l-12.784 3.999L26.469 156.215a2.089 2.089 0 0 1-1.839.708 2.09 2.09 0 0 1-1.796-1.528l-3.453-12.729-.043-.151-3.005 3.504c0-.003-.141 1.015 0 1.537z"/><path fill="none" stroke="#D3D8E3" stroke-linejoin="round" d="m31.583 203.786 6.246 23.023c.436 1.61 2.513 2.086 3.621.835l166.695-188.16a2.058 2.058 0 0 0 .449-1.913l.297-13.786M31.583 203.786l.027-1.165m-.027 1.165a2.081 2.081 0 0 1 .027-1.165m.426-.742a2.178 2.178 0 0 0-.426.742m53.077 11.893a2.026 2.026 0 0 0-.494 1.071m38.102-7.479L222.423 92.024a2.053 2.053 0 0 0 .429-1.888l.299-13.79m-100.856 131.76a2.095 2.095 0 0 1-1.058.66l-34.404 9.108c-1.568.418-2.827-.938-2.645-2.29m38.107-7.478V193.46m86.623-170.838-5.715-21.054a2.11 2.11 0 0 0-2.579-1.475l-2.878.765a2.102 2.102 0 0 0-1.039.64L32.358 186.927a2.07 2.07 0 0 0-.451 1.915m177.011-166.22-.027 1.164m.027-1.164c.102.39.093.792-.027 1.164M31.907 188.842l2.736 10.09 3.507 12.93c.239.877.967 1.418 1.762 1.523m-8.005-24.543-.296 13.779M223.175 75.186l-6.357-23.438c-.44-1.62-2.539-2.089-3.641-.812L85.009 199.561a2.054 2.054 0 0 0-.509 1.197M223.175 75.186l-.024 1.161m.024-1.161a2.1 2.1 0 0 1-.024 1.161m-14.26-52.561c-.086.274-.23.53-.426.747l-2.608 2.945L41.772 212.69a2.089 2.089 0 0 1-1.861.694M223.15 76.347a2.018 2.018 0 0 1-.413.727l-2.607 3.028-97.513 113.055a2.413 2.413 0 0 1-.327.305m-38.097 22.123.302-14.632m.005-.195-.003.195m.003-.195a2.56 2.56 0 0 0-.003.195m-.002 0c.038 1.237 1.22 2.352 2.662 1.971l9.751-2.581 24.648-6.527c.27-.07.521-.195.738-.355m-82.382 19.924v14.69M4.255 86.89l3.281 12.103a2.09 2.09 0 0 0 1.815 1.529 2.093 2.093 0 0 0 1.815-.708l37.403-42.537M4.255 86.89l-.078-.289-2.734-10.08a2.055 2.055 0 0 1 .446-1.904l24.723-28.089a2.127 2.127 0 0 1 1.045-.646l33.66-8.908c1.952-.519 2.833 2.146 2.248 3.241-.036.045-.074.093-.111.137L50.935 54.585l-2.367 2.693M4.255 86.89l-3.107 3.418c-.12.376-.129.777-.025 1.159l6.095 22.476c.273 1.014 1.206 1.579 2.133 1.536a2.094 2.094 0 0 0 1.492-.712l51.239-58.418c.95-1.172-.107-2.483-1.15-2.226L48.57 57.277m-29.233 85.234.043.149 3.453 12.732a2.085 2.085 0 0 0 1.796 1.53 2.103 2.103 0 0 0 1.839-.709L131.476 35.539M19.337 142.511l-2.868-9.904c-.182-.663.167-1.378.622-1.895l92.215-106.067a2.128 2.128 0 0 1 1.054-.654l33.899-8.975c1.753-.463 3.122 1.278 2.52 2.76a2.2 2.2 0 0 1-.372.61l-12.36 14.198-2.571 2.955M19.337 142.511l-3.005 3.507s-.143 1.017 0 1.538l6.182 22.788c.272 1.01 1.193 1.572 2.114 1.54a2.086 2.086 0 0 0 1.519-.723L144.972 34.694c1.048-1.053 1.436-3.679-.712-3.151l-12.784 3.999"/></svg>
