<svg width="88" height="76" viewBox="0 0 88 76" fill="none" xmlns="http://www.w3.org/2000/svg">
<g clip-path="url(#clip0_9133_6361)">
<g filter="url(#filter0_b_9133_6361)">
<path fill-rule="evenodd" clip-rule="evenodd" d="M61.3041 3.04004L51.8176 3.04004C50.7864 3.04004 49.9504 3.87603 49.9504 4.90728V39.6402L24.8829 14.5272C24.1544 13.7974 22.9732 13.7974 22.2446 14.5272L15.5343 21.2498C14.8057 21.9796 14.8057 23.163 15.5343 23.8928L41.937 50.3436H4.59991C3.56866 50.3436 2.73267 51.1796 2.73267 52.2108V61.7213C2.73267 62.7526 3.56866 63.5886 4.59991 63.5886H40.0488L15.5346 88.1473C14.8061 88.8772 14.8061 90.0605 15.5346 90.7904L22.2449 97.513C22.9735 98.2428 24.1547 98.2428 24.8832 97.513L49.9504 71.6165L49.9504 107.133C49.9504 108.164 50.7864 109 51.8176 109H61.3041C62.3353 109 63.1713 108.164 63.1713 107.133V71.6165L87.685 96.1748C88.4136 96.9046 89.5948 96.9046 90.3233 96.1748L97.0336 89.4522C97.7622 88.7224 97.7622 87.539 97.0336 86.8091L73.8552 63.5886H106.633C107.664 63.5886 108.5 62.7526 108.5 61.7213V52.2108C108.5 51.1796 107.664 50.3436 106.633 50.3436H71.967L97.034 25.231C97.7625 24.5012 97.7625 23.3178 97.034 22.588L90.3236 15.8654C89.5951 15.1355 88.4139 15.1355 87.6853 15.8654L63.1713 40.424V4.90728C63.1713 3.87603 62.3353 3.04004 61.3041 3.04004Z" fill="#CDD9ED"/>
</g>
</g>
<defs>
<filter id="filter0_b_9133_6361" x="-27.134" y="-26.8266" width="165.501" height="165.693" filterUnits="userSpaceOnUse" color-interpolation-filters="sRGB">
<feFlood flood-opacity="0" result="BackgroundImageFix"/>
<feGaussianBlur in="BackgroundImageFix" stdDeviation="14.9333"/>
<feComposite in2="SourceAlpha" operator="in" result="effect1_backgroundBlur_9133_6361"/>
<feBlend mode="normal" in="SourceGraphic" in2="effect1_backgroundBlur_9133_6361" result="shape"/>
</filter>
<clipPath id="clip0_9133_6361">
<rect width="88" height="76" fill="white" transform="matrix(-1 0 0 1 88 0)"/>
</clipPath>
</defs>
</svg>
