<svg xmlns="http://www.w3.org/2000/svg" width="137" height="113" viewBox="0 0 137 113" xml:space="preserve"><path fill="none" stroke="#FF0A47" d="M81.501 34.158c0 8.951-5.248 17.107-13.843 23.047-8.593 5.939-20.491 9.629-33.657 9.629-13.166 0-25.064-3.689-33.657-9.629-8.595-5.94-13.843-14.097-13.843-23.047S-8.25 17.05.344 11.11c8.593-5.94 20.491-9.629 33.657-9.629 13.167 0 25.064 3.689 33.657 9.628 8.595 5.941 13.843 14.098 13.843 23.049zm-65.984 4.781c2.801 5.308 10.078 8.989 18.484 8.989 8.407 0 15.684-3.681 18.485-8.989.784-1.485 1.215-3.097 1.215-4.782 0-3.875-2.273-7.331-5.839-9.795-3.568-2.466-8.47-3.976-13.861-3.976s-10.292 1.509-13.86 3.976c-3.566 2.464-5.839 5.919-5.839 9.795-.001 1.686.43 3.298 1.215 4.782zM135.5 34.644c0 19.257-11.293 36.745-29.659 49.44C87.476 96.777 62.078 104.645 34 104.645c-28.078 0-53.476-7.867-71.841-20.561C-56.208 71.389-67.5 53.901-67.5 34.644s11.292-36.745 29.659-49.44C-19.476-27.489 5.922-35.356 34-35.356c28.078 0 53.476 7.867 71.841 20.56C124.207-2.101 135.5 15.387 135.5 34.644zm-173.097 4.614c1.686 12.75 10.275 24.064 23.068 32.179C-1.731 79.553 15.309 84.494 34 84.494s35.731-4.941 48.527-13.058c12.794-8.114 21.384-19.429 23.068-32.179.201-1.519.305-3.058.305-4.614 0-13.838-8.116-26.313-21.129-35.307C71.758-9.658 53.805-15.206 34-15.206S-3.757-9.658-16.771-.663C-29.784 8.331-37.9 20.806-37.9 34.644c0 1.556.103 3.095.303 4.614z"/></svg>
