<svg xmlns="http://www.w3.org/2000/svg" width="137" height="113" viewBox="0 0 137 113" xml:space="preserve"><path fill="none" stroke="#FF0A47" d="m-23.449 94.996-.07-.019.421-1.327L2.079 63.118l8.552-10.371.989-1.199-1.502.397-59.543 15.753a1.515 1.515 0 0 1-1.105-.127 1.476 1.476 0 0 1-.738-.919l-1.97-7.26-1.504-5.544a5.37 5.37 0 0 1 .261-.905c.101-.262.225-.508.369-.697.145-.191.282-.286.402-.317l50.237-13.291L9.184 35.29l1.513-.4-1.465-.551-50.784-19.095-3.231-1.215a1.258 1.258 0 0 1-.436-.264.748.748 0 0 1-.224-.401c-.039-.21.016-.489.262-.787L-34.334-.577c.271-.328.698-.584 1.185-.713s.988-.118 1.391.033l50.39 18.947 2.451.921.914.344-.256-.942-10.765-39.672-1.535-5.655a1.477 1.477 0 0 1 1.062-1.809l19.589-5.183a1.507 1.507 0 0 1 1.844 1.046l12.032 44.337.253.933.615-.746L81.33-32.99c.271-.328.699-.584 1.186-.713s.988-.118 1.391.033l16.056 6.037c.481.181.663.494.67.774v.037c-.004.183-.077.406-.272.642l-3.839 4.655-34.565 41.916-.989 1.199 1.502-.397 8.552-2.263L130.101 3.3a1.505 1.505 0 0 1 1.842 1.046l3.506 12.914c.113.42.031.846-.192 1.186a1.493 1.493 0 0 1-.871.623l-.116.031-64.163 16.974-1.513.4 1.466.551 12.658 4.76L122.9 56.894c.344.129.531.326.615.518l.002.561a1.234 1.234 0 0 1-.22.373l-3.838 4.656-7.009 8.498c-.271.328-.698.585-1.186.714-.486.129-.988.118-1.391-.033L55.86 51.871l-.915-.344.256.942 2.451 9.031 9.564 35.242v.887a1.49 1.49 0 0 1-1.045.986l-.118.031-19.472 5.15a1.519 1.519 0 0 1-1.122-.135 1.482 1.482 0 0 1-.722-.911l-12.3-45.323-.253-.933-.614.746.385.318-.385-.318-.001.002-.005.006-.019.022-.075.091-.293.355-1.114 1.35-3.982 4.821c-3.298 3.994-7.702 9.327-12.125 14.688-8.839 10.71-17.777 21.549-18.1 21.975-.228.302-.643.558-1.145.69-.5.132-1.019.124-1.418-.026l-12.824-4.822-3.231-1.215-.176.468.176-.468c-.094-.036-.219-.067-.326-.094l-.152-.036-.209-.051z"/></svg>
