<svg width="32" height="32" viewBox="0 0 32 32" fill="none" xmlns="http://www.w3.org/2000/svg">
<path d="M26.7995 15.5858C25.2908 13.9767 23.2791 12.8757 21.1837 12.4522C20.2617 12.1981 19.3397 12.0287 18.4177 11.944C20.7646 9.14915 20.3455 4.91449 17.5796 2.54308C14.8136 0.17167 10.6227 0.595136 8.27581 3.39001C5.92892 6.18489 6.34801 10.4195 9.11399 12.791C9.61689 13.2144 10.1198 13.5532 10.6227 13.7226V15.5858L9.28162 14.3154C8.10818 13.1297 6.18038 13.1297 4.92311 14.3154C3.74967 15.5011 3.66585 17.3644 4.8393 18.5501L8.6949 23.1235C8.86254 24.3092 9.28162 25.4102 9.86835 26.4266C10.2874 27.1888 10.8742 27.951 11.4609 28.5439V30.1531C11.4609 30.6612 11.7961 31 12.2991 31H23.6982C24.1173 31 24.5364 30.5765 24.5364 30.1531V27.951C26.1289 26.0031 26.9671 23.547 26.9671 21.0909V16.1787C27.0509 15.8399 26.9671 15.6705 26.7995 15.5858ZM8.35963 7.62467C8.35963 4.8298 10.6227 2.62777 13.3887 2.71247C16.1547 2.71247 18.3339 4.99918 18.2501 7.79406C18.2501 9.31854 17.5796 10.6736 16.4061 11.6053V7.37059C16.3633 6.63662 16.0443 5.94699 15.5144 5.44307C14.9845 4.93916 14.284 4.65914 13.5563 4.66041C12.0476 4.57572 10.7065 5.84612 10.7065 7.37059V11.7746C9.28162 10.9277 8.44345 9.31854 8.35963 7.62467ZM25.3746 21.0062C25.4584 23.2082 24.704 25.3256 23.2791 27.0194C23.1115 27.1888 22.9439 27.3582 22.9439 27.6123V29.3908H13.221V28.2051C13.221 27.951 13.0534 27.697 12.8858 27.5276C12.2991 27.0194 11.7961 26.4266 11.3771 25.6643C10.8742 24.8174 10.5389 23.8011 10.3713 22.7848C10.3713 22.6154 10.2874 22.446 10.2036 22.2766L6.18038 17.4491C5.92892 17.195 5.76129 16.8562 5.76129 16.4328C5.76129 16.094 5.92892 15.6705 6.18038 15.4164C6.7671 14.9083 7.60527 14.9083 8.192 15.4164L10.6227 17.8726V20.4134L12.2152 19.5664V7.37059C12.2991 6.77774 12.802 6.26958 13.4725 6.35428C14.0592 6.35428 14.6459 6.77774 14.6459 7.37059V17.1103L16.3223 17.4491V13.5532C16.4061 13.4685 16.4899 13.4685 16.5737 13.3838C17.1605 13.3838 17.7472 13.4685 18.3339 13.5532V17.8726L19.675 18.1266V13.7226L20.6808 13.9767C21.0999 14.0614 21.519 14.2307 21.9381 14.4001V18.6348L23.2791 18.8889V14.993C24.0335 15.3318 24.704 15.8399 25.2908 16.4328L25.3746 21.0062Z" fill="currentColor"/>
</svg>
