<svg xmlns="http://www.w3.org/2000/svg" fill="none" viewBox="0 0 17 16"><path fill="currentColor" d="M8.29 3.09c-.37 0-.68-.18-.8-.43l-.25-.6c-.23-.52.27-1.06 1-1.06h.16V1c-.04-.1-.02-.21.1-.3l.13-.1a.46.46 0 0 1 .54 0l.14.1c.1.07.14.2.1.3V1h.15c.73 0 1.23.54 1 1.05l-.25.6c-.11.26-.43.44-.8.44H8.3Z"/><path fill="currentColor" fill-rule="evenodd" d="M16.5 2.63a.3.3 0 0 1 .08.13c.35 1.32.4 2.68.2 4.02-.2 1.04-.84 2.63-1.95 3.16-1.11.56-2.04.14-2.67-.17-.37-.17-.62-.29-.83-.25-.12.02-.18.2-.1.29l.82.96c.23.25.29.55.23.84l.82.7c.23-.24.56-.37.93-.37.72 0 1.3.53 1.3 1.2 0 .67-.58 1.21-1.3 1.21-.72 0-1.3-.54-1.3-1.2l.01-.07.01-.07-.96-.8c-.15.07-.31.1-.5.07a4.93 4.93 0 0 1-1.54-.55c-.22.64.49 1.2 1.04 1.62.13.1.26.2.36.3.2.16.55.47.3.76-.13.16-.37.22-.59.27l-.04.02-.31.07c-.45.08-.86.27-1.21.52l-.1.08-.1.07a.24.24 0 0 1-.17.06.24.24 0 0 1-.17-.06l-.15-.12c-.02 0-.04-.02-.05-.03a3.54 3.54 0 0 0-1.22-.52 6.43 6.43 0 0 0-.39-.1c-.2-.05-.43-.11-.55-.26-.24-.27.06-.54.26-.73l.04-.04.34-.26c.56-.44 1.28-1 1.06-1.65-.47.25-1 .5-1.54.55a.77.77 0 0 1-.51-.08l-1 .83.65.54c.18.13.18.38.04.53-.15.17-.41.17-.58.04l-.98-.82-.56-.46c-.19.07-.4.13-.62.13-.22 0-.4-.17-.4-.38 0-.16.09-.29.23-.35a.47.47 0 0 1-.2-.38c0-.27.22-.48.5-.48.17 0 .31.07.4.18.08-.1.21-.18.36-.18.22 0 .4.17.4.38 0 .18-.03.37-.11.52l.24.21 1.13-.94c-.06-.28 0-.6.23-.82l.82-.96c.1-.11.04-.27-.1-.29-.2-.03-.45.06-.82.25-.64.3-1.57.71-2.68.18-1.1-.54-1.77-2.13-1.95-3.17a8.78 8.78 0 0 1 .18-4c0-.06.04-.1.09-.13.06-.04.1-.06.16-.06s.12.02.17.04c.06.02.1.05.12.11.18.3.53.86.86 1.3.97 1.3 1.96 2.23 3.35 2.27.17 0 .33-.04.48-.1.43-.2.7-.65.64-1.11a1 1 0 0 0-.19-.58c-.12-.17-.29-.3-.5-.4a1.72 1.72 0 0 0-.98-.1c-.16.02-.33.08-.47.16-.15.08-.23.04-.25-.12-.02-.4.06-.93.45-1.18.52-.33 1.3-.1 1.77.15.52.25.95.63 1.32 1.05.24.3.47.62.66.94.16-.34.4-.65.65-.94.37-.42.8-.8 1.32-1.05.5-.25 1.28-.48 1.77-.15.39.25.47.78.45 1.18-.02.18-.1.2-.25.12-.14-.08-.3-.14-.47-.15-.3-.06-.7-.04-.99.1-.2.09-.37.22-.49.4-.1.17-.18.36-.18.57-.09.46.18.92.63 1.11.15.06.31.1.48.1 1.4-.04 2.38-.96 3.35-2.27.33-.44.68-1 .86-1.3.04-.06.08-.1.13-.11.04-.04.1-.04.16-.04s.12.02.17.06Z" clip-rule="evenodd"/></svg>