<svg xmlns="http://www.w3.org/2000/svg" width="117" height="121" fill="none" viewBox="0 0 117 121"><mask id="a" width="118" height="121" x="-.998" y="0" fill="#000" maskUnits="userSpaceOnUse"><path fill="#fff" d="M-.998 0h118v121h-118z"/><path d="M11.176 73.718c1.23.282 2.37.95 3.052 2.011.46.717.822 2.096.561 2.897-.422 1.302.345.767.83 1.748.223.453-.04 1.258-.249 1.715 3.955 3.66 7.886 7.475 11.85 11.098 1.818-.591 3.36-.227 4.747 1.054q.105.006.21.01c1.897.074 6.546-.335 8.26-1.615.28-.21.016-.575-.165-.856-1.428-2.264-2.791-4.745-2.805-7.496-.023-4.672 3.45-6.755 7.719-6.771.04 1.44 0 2.881.008 4.32.005.815-.054 1.976.104 2.75.12.6.39 1.161.79 1.627 1.808 2.095 5.249 1.082 7.754 1.375 2.177.255 3.33 1.418 4.67 3.004 1.625-2.126 3.502-3.306 6.22-3.051 8.512.798 7.06-3.774 7.073-10.04 2.74-.03 5.593.94 6.947 3.436 1.857 3.426.136 7.516-1.808 10.484-.211.321-.419.65-.526 1.02.55 1.36 6.33 1.825 7.7 1.8 1.012-2.762 2.786-4.51 5.81-4.892l-.003 4.84 2.096-.003q-.007-2.426.019-4.85c2.052.382 3.864 1.405 4.952 3.226a6.16 6.16 0 0 1 .693 4.672c-1.191 4.634-7.095 6.284-10.869 3.672-1.093-.758-1.71-1.92-2.827-2.645a14 14 0 0 0-2.618-1.315 22.1 22.1 0 0 0-5.816-1.377c-.629-.064-2.263-.14-2.788-.282-.756-.737.722-2.864-.145-4.533-1.923-3.7-6.114-1.812-8.075.733-1.182 1.531-1.926 2.939-2.61 4.785 3.222.914 6.117 1.944 9.074 3.662 2.561 1.489 5.916 3.873 6.837 6.87.195.781.024 1.363-.386 2.017-.91 1.448-2.06 2.126-3.695 2.513-.97-5.917-7.024-11.34-12.584-13.024l-.326.878c.784.416 1.368.734 2.115 1.226 3.365 2.295 5.971 5.375 7.143 9.324.852 2.872-1.65 4.816-4.13 5.473-.423-5.448-2.038-10.084-5.698-14.248-.04.268-.178 1.087-.12 1.303 1.036 3.847 2.253 7.531 2.484 11.554.166 2.88-1.848 4.1-4.194 5.183-1.398-.661-3.947-2.201-4.062-3.896-.212-3.157.782-6.79 1.589-9.833.24-.902.633-1.764.791-2.626l.025-.143c.098-.54.005-.952-.076-1.495-3.742 3.859-5.19 9.013-5.717 14.204a12 12 0 0 1-.411-.115c-2.808-.856-4.62-3.056-3.512-6.028 1.664-4.463 4.851-7.784 9.08-9.891-.131-.29-.219-.56-.322-.859-4.163 1.084-8.296 4.56-10.623 8.121-1.026 1.571-1.578 3.101-2.008 4.906a6.4 6.4 0 0 1-2.06-.864c-2.156-1.4-2.657-3.378-1.161-5.477 2.927-4.104 10.202-7.777 15.076-8.71a16.8 16.8 0 0 0-2.005-4.026c-1.643-2.38-4.757-4.848-7.604-2.886-2.07 1.428-1.124 3.622-1.016 5.531.025.44-.645.518-1.01.527-3.714.088-7.413.967-10.596 2.925.548.566 3.525 3.053 3.427 3.616-.593 3.385-4.154-.823-5.191-1.817-3.918 1.872-7.984-1.22-5.906-5.437-3.792-3.59-7.646-7.16-11.397-10.786-1.407.77-1.995.88-3.055-.33-.398-.126-.407.073-.789.146-2.665.51-4.475-.88-5.248-3.237.79.019 1.618.004 2.41.005-2.51-4.33-.244-6.599 4.233-4.415-.015-.796-.084-1.597-.143-2.392"/><path d="M91.856 83.33c-.018.52-.065 1.035-.106 1.555.424-.07.917-.118 1.35-.17l-.011 1.756-1.342-.176c.058.514.083 1.1.115 1.622h-1.778c.024-.53.072-1.09.11-1.622l-1.334.17-.014-1.753q.683.072 1.364.167l-.148-1.558z"/><path fill-rule="evenodd" d="M52.924 59.777c.335.09.432.154.562.48.369.93.701 1.874 1.046 2.813l8.215 22.413c-2.901 1.125-7.202 1.23-9.642-.969-2.474.26-3.853-.592-3.218-3.201.167-.353.191-.43.44-.72l.09.02c.123.479.088.996.291 1.355.254.093.287.134.55.08.232-.332.191-1.892.379-2.582.423-1.547.92-2.459 1.63-3.868-.146-.53-.405-2.08-.52-2.319l-.105.008c-.395.679-.366 2.518-1.583 2.563-.214-.38.06-1.374-.08-1.58-.682-1.011-1.759-2.893.181-3.348.72-.169 1.809.355 2.48.853 1.229-.656 1.151-.401 2.202-.738-.034-.198-.189-.645-.252-.894-.273-.164-1.262-.244-1.696-.343a6.7 6.7 0 0 1-1.624-.606c-.936-.499-1.873-1.487-1.211-2.64.536-.933 2.255-1.597 3.284-1.863-.39-1.049-1.344-3.45-1.55-4.615zm2.523 16.888c-.144.024-.3.092-.463.195-1.141.719-2.618 3.15-2.558 4.17l.098.107c.22-.05.214-.047.408-.16 1.08-.378 2.034-.53 3.186-.545-.98-1.594-.609-2.166-.671-3.767" clip-rule="evenodd"/><path d="M58.718 62.307c2.168-.07 1.187 1.503.35 2.43.457.637.862 1.196 1.266 1.87l.076-.07c1.79-1.664 5.813-1.962 5.577 1.293a3.58 3.58 0 0 1-1.243 2.448c-.245.204-.327.25-.603.227-.47-.453-.05-1.655-.367-2.392-.758-.483-.876.999-.783 1.473.205 1.044.454 2.105.789 3.117 1.756-.113 3.346.201 3.577 2.274.048.43.159 1.41-.425 1.438l-.115-.115c-.066-.787-.107-1.04-.704-1.646-.655-.666-2.685-.935-3.188-.028-.241.438.272 2.656.386 3.284.177.87.332 1.821.49 2.7 3.962-3.307 5.084 1.397-.323 4.352-.934-2.32-1.875-5.094-2.742-7.466l-4.763-13.07c.74-.09 1.162-.099 1.917-.1-.269-1.03-.11-1.519.828-2.019M107.996 22.513c3.064 2.275 3.65 7.06 2.613 10.5a13.6 13.6 0 0 1-2.326 4.439c-2.893 3.681-9.606 7.978-13.734 10.179q.094.923.159 1.85c7.99-2.01 14.768-5.82 20.303-11.999.455.831.757 1.738.895 2.675a9.56 9.56 0 0 1-1.832 7.104c-3.63 4.867-13.9 5.835-19.588 6.678a62 62 0 0 1-.318 1.544c7.129 1.036 14.37-.295 20.87-3.292.089 1.072.103 1.984-.118 3.043-.621 3.308-3.941 5.756-7.228 6.05-4.761.424-10.217-.62-14.86-1.65l-.674 1.395c5.725 3.103 11.583 3.5 17.947 3.404-.046.617-.099 1.246-.293 1.836-1.307 3.963-6.388 4.297-9.826 3.451a27 27 0 0 1-2.027-.603c-2.875-.983-5.92-2.7-8.349-4.497-.338.427-.664.732-1.054 1.111 2.576 4.469 8.805 7.019 13.671 7.803-1.7 2.707-4.221 3.448-7.28 2.763-4.173-.934-7.465-4.874-9.637-8.33-.48.224-.994.406-1.49.593q.031.17.07.337c1.08 4.744 4.86 8.233 8.843 10.709-2.105 2.112-5.33 2.061-7.686.409-3.17-2.22-4.285-7.232-4.95-10.843-2.907.09-5.832 1.144-7.437 3.72-.302.486-.56 1-.819 1.51-.088-1.086-.037-2.903-.038-4.048a709 709 0 0 1 .013-7.476c4.296 1.455 10.034 1.286 12.434-3.21a6.52 6.52 0 0 0-.368-6.744c-.387-.568-1.138-1.344-1.325-1.968.227-.408 2.787-2 3.448-2.516a65 65 0 0 0 6.816-6.154c4.079-4.303 7.82-8.916 11.186-13.795 1.319-1.889 2.71-4.241 3.989-5.978M8.958 22.515c.287.23 2.14 3.217 2.511 3.767a152 152 0 0 0 3.235 4.615 113 113 0 0 0 8.7 10.588c2.781 2.984 5.848 5.754 9.174 8.121.586.418 1.477.758 1.854 1.359.018 1.129-3.614 3.08-2.12 7.66a7.15 7.15 0 0 0 3.586 4.121c2.817 1.43 6.357 1.05 9.266.118.026.555.045 1.126.036 1.682-.053 3.269.09 6.605-.03 9.869-.605-.999-.78-1.708-1.685-2.645-1.764-1.827-4.085-2.505-6.552-2.598-.942 4.777-2.55 12.028-8.81 12.034-1.636 0-2.672-.442-3.842-1.603q.233-.146.465-.296c3.958-2.576 7.415-5.97 8.423-10.747-.468-.157-1.014-.4-1.479-.593-1.729 2.748-4.061 5.648-6.91 7.28-3.335 1.907-7.917 1.971-9.994-1.73q.556-.081 1.107-.186c4.928-.917 9.677-3.412 12.562-7.594a68 68 0 0 1-1.087-1.092c-2.956 2.106-4.76 3.068-8.13 4.417-3.307 1.106-7.616 1.866-10.623-.615-1.25-1.032-1.613-2.455-1.71-4.022 6.418.149 12.157-.367 17.94-3.4q-.345-.691-.668-1.393c-4.27 1.127-10.524 2.059-14.956 1.632-4.58-.44-7.948-4.358-7.213-9.056 6.252 3.257 13.873 4.03 20.804 3.292l-.279-1.567c-5.48-.836-11.07-1.37-16.137-3.827C1.764 47.86-.397 42.16 1.97 37.518c1.084.96 2.105 2.192 3.323 3.232 5.26 4.491 10.34 7.13 17.013 8.73.035-.665.081-1.162.17-1.822-4.574-2.674-9.348-5.45-13.014-9.34-4.021-4.265-5.235-11.561-.504-15.803M54.973 31.158c-.447 2.661-2.304 4.565-4.61 5.838 5.105 4.979 7.576 11.753 8.182 18.743.22-1.726.436-3.265.82-4.964 1.058-4.703 3.683-10.657 7.439-13.746-2.093-1.291-4.423-3.227-4.594-5.868 1.833.58 3.696.827 5.61.93 3.969.213 13.31-.598 16.273 1.657a3.6 3.6 0 0 1 1.428 2.53c.094.968-.227 2.596-.899 3.341-.121.135-.06.11-.205.121-1.035-1.75-2.39-2.099-4.364-2.077-8.153.093-15.349 10.974-11.72 18.402.498 1.023 1.381 1.936 2.212 2.73-3.585.156-8.097.049-11.748.036-3.844-.014-8.425.143-12.192-.03.439-.508.948-.955 1.378-1.482 2.024-2.482 2.15-5.959 1.312-8.925-.766-2.709-2.145-4.931-4.073-6.947-2.66-2.598-6.163-4.375-9.965-3.633-1.27.248-1.964 1.01-2.594 2.05-.893-1.297-1.538-3.616-.633-5 2.01-3.033 7.499-2.665 10.778-2.694 4.416-.039 7.805.172 12.165-1.012"/><path d="M77.53 39.131c1.265-.053 2.058 2.308 2.299 3.309-1.004-.701-1.373-.896-2.545-1.226-1.367-.204-2.028-.165-3.38.107 1.08-1.092 2.223-1.636 3.626-2.19M39.174 39.104c1.163.075 3.132 1.345 3.958 2.206-1.04-.241-1.665-.262-2.712-.187-1.346.198-1.988.504-3.09 1.262.158-1.455.745-2.368 1.843-3.281M86.482 17.033c2.223.07 3.825 3.105 5.528 4.28 1.465 1.016 3.685.578 5.201 1.356 2.603 1.337-.839 3.598-1.454 5.048-.608 1.432-.257 2.748.183 4.143-.822-.555-2.885-1.906-3.782-.81-.465.57-.274 1.488-.17 2.166-3.594-1.973-.673-4.57 1.054-6.454q.06-.073.115-.148c2.686-3.599-1.8-5.95-5.163-5.33.18.816.31 1.482.257 2.326a5.63 5.63 0 0 1-1.985 3.956c-1.205 1.029-3.112 1.688-4.742 1.696-.145 0-.229-.16-.304-.266.098-.596.827-.562 1.296-.631a4.77 4.77 0 0 0 2.542-1.238 4.55 4.55 0 0 0 1.41-3.273c.011-1.657-.798-2.904-1.903-4.047l.038-.115c.394-1.177.719-2.084 1.879-2.659M29.943 17.042c1.59-.022 2.059 1.508 2.495 2.757-1.364 1.523-2.295 3.058-1.759 5.218.436 1.697 1.854 2.85 3.487 3.326.498.145 1.518.006 1.627.617-.091.189-.083.177-.254.3-.525.029-1.16-.084-1.671-.207-4.03-.97-5.742-3.883-4.851-7.775-3.012-.546-7.328 1.189-5.484 4.897.913 1.509 2.824 2.567 3.183 4.434.123.646-.73 2.43-1.403 2.497-.732-.374 1.107-4.57-4.224-1.268.618-2.138.887-3.812-.849-5.545-2.123-2.155-1.918-3.712 1.299-4.101 1.919-.233 3.17-.366 4.544-1.858 1.155-1.256 2.258-2.62 3.86-3.292M62.15 11.428c.985.043 2.16.2 3.016.71 4.035 2.405.478 7.477-1.143 10.07 1.026 3.754 3.137 5.144 6.785 6.03-1.574-2.65-2.38-5.875 1.863-6.167.567 1.719 1.02 2.388 2.619 3.322 1.511-.887 2.098-1.694 2.616-3.333.767.075 1.695.163 2.284.7 1.983 1.806.19 5.004-1.164 6.527-2.573-.033-5.193.05-7.763-.011-3.183-.076-5.418-.976-7.598-3.252-1.082-1.38-1.473-2.22-1.992-3.88a608 608 0 0 0-6.363-.002c-1.085 4.108-4.252 6.687-8.483 7.07-1.254.114-2.522.077-3.78.075l-5.087-.014c-1.32-1.376-2.883-4.394-1.457-6.267.586-.769 1.648-.87 2.561-.927.598 1.695 1.075 2.368 2.605 3.323 1.467-.824 2.206-1.724 2.613-3.34 4.22.311 3.539 3.464 1.898 6.127 3.494-.573 5.936-2.57 6.76-6.033-.76-1.146-1.551-2.463-2.147-3.704-1.634-3.404-.96-6.398 3.205-6.975l.822-.035c.674 2.253 1.62 3.304 3.648 4.43 2-1.003 3.086-2.306 3.682-4.444"/><path d="M75.136 19.259c2.618.174 1.35 2.777.228 3.983-1.19-.52-2.402-3.254-.228-3.983M41.43 19.264c2.667-.036 1.503 2.695.384 3.937l-.118.014c-.862-.431-1.65-2.168-1.265-3.106.205-.5.537-.638 1-.845M76.084 13.757l-.09 1.474c.377-.062.8-.098 1.183-.14v1.5l-1.192-.161.107 1.49-1.575.002.11-1.484c-.393.064-.803.103-1.2.145-.026-.464-.016-1.032-.02-1.506l1.22.137-.096-1.47zM42.447 13.757l-.06 1.466c.374-.058.802-.1 1.183-.146l-.003 1.504c-.395-.038-.801-.087-1.197-.132.038.474.096.996.088 1.468l-1.542.002c.02-.481.065-1 .098-1.484-.403.07-.781.097-1.189.132-.021-.484-.02-1.008-.027-1.495l1.238.156a20 20 0 0 1-.115-1.482zM57.992 8.015c1.323-.1 1.9.266 2.49 1.446-.073 1.797-.522 2.7-1.75 3.997-.097.065-.139.064-.255.1-1.244-.55-1.861-2.72-2.016-3.963.343-.905.658-1.191 1.53-1.58M59.559 1.01c-.066.573-.102 1.189-.146 1.767l1.543-.2.005 2.005-1.575-.14c.065.604.11 1.245.162 1.853l-2.085-.006.12-1.844c-.523.057-1.04.093-1.566.13l-.008-1.993c.518.073 1.067.13 1.588.192l-.145-1.77c.684-.012 1.417.004 2.107.006"/></mask><path fill="#fff" d="M11.176 73.718c1.23.282 2.37.95 3.052 2.011.46.717.822 2.096.561 2.897-.422 1.302.345.767.83 1.748.223.453-.04 1.258-.249 1.715 3.955 3.66 7.886 7.475 11.85 11.098 1.818-.591 3.36-.227 4.747 1.054q.105.006.21.01c1.897.074 6.546-.335 8.26-1.615.28-.21.016-.575-.165-.856-1.428-2.264-2.791-4.745-2.805-7.496-.023-4.672 3.45-6.755 7.719-6.771.04 1.44 0 2.881.008 4.32.005.815-.054 1.976.104 2.75.12.6.39 1.161.79 1.627 1.808 2.095 5.249 1.082 7.754 1.375 2.177.255 3.33 1.418 4.67 3.004 1.625-2.126 3.502-3.306 6.22-3.051 8.512.798 7.06-3.774 7.073-10.04 2.74-.03 5.593.94 6.947 3.436 1.857 3.426.136 7.516-1.808 10.484-.211.321-.419.65-.526 1.02.55 1.36 6.33 1.825 7.7 1.8 1.012-2.762 2.786-4.51 5.81-4.892l-.003 4.84 2.096-.003q-.007-2.426.019-4.85c2.052.382 3.864 1.405 4.952 3.226a6.16 6.16 0 0 1 .693 4.672c-1.191 4.634-7.095 6.284-10.869 3.672-1.093-.758-1.71-1.92-2.827-2.645a14 14 0 0 0-2.618-1.315 22.1 22.1 0 0 0-5.816-1.377c-.629-.064-2.263-.14-2.788-.282-.756-.737.722-2.864-.145-4.533-1.923-3.7-6.114-1.812-8.075.733-1.182 1.531-1.926 2.939-2.61 4.785 3.222.914 6.117 1.944 9.074 3.662 2.561 1.489 5.916 3.873 6.837 6.87.195.781.024 1.363-.386 2.017-.91 1.448-2.06 2.126-3.695 2.513-.97-5.917-7.024-11.34-12.584-13.024l-.326.878c.784.416 1.368.734 2.115 1.226 3.365 2.295 5.971 5.375 7.143 9.324.852 2.872-1.65 4.816-4.13 5.473-.423-5.448-2.038-10.084-5.698-14.248-.04.268-.178 1.087-.12 1.303 1.036 3.847 2.253 7.531 2.484 11.554.166 2.88-1.848 4.1-4.194 5.183-1.398-.661-3.947-2.201-4.062-3.896-.212-3.157.782-6.79 1.589-9.833.24-.902.633-1.764.791-2.626l.025-.143c.098-.54.005-.952-.076-1.495-3.742 3.859-5.19 9.013-5.717 14.204a12 12 0 0 1-.411-.115c-2.808-.856-4.62-3.056-3.512-6.028 1.664-4.463 4.851-7.784 9.08-9.891-.131-.29-.219-.56-.322-.859-4.163 1.084-8.296 4.56-10.623 8.121-1.026 1.571-1.578 3.101-2.008 4.906a6.4 6.4 0 0 1-2.06-.864c-2.156-1.4-2.657-3.378-1.161-5.477 2.927-4.104 10.202-7.777 15.076-8.71a16.8 16.8 0 0 0-2.005-4.026c-1.643-2.38-4.757-4.848-7.604-2.886-2.07 1.428-1.124 3.622-1.016 5.531.025.44-.645.518-1.01.527-3.714.088-7.413.967-10.596 2.925.548.566 3.525 3.053 3.427 3.616-.593 3.385-4.154-.823-5.191-1.817-3.918 1.872-7.984-1.22-5.906-5.437-3.792-3.59-7.646-7.16-11.397-10.786-1.407.77-1.995.88-3.055-.33-.398-.126-.407.073-.789.146-2.665.51-4.475-.88-5.248-3.237.79.019 1.618.004 2.41.005-2.51-4.33-.244-6.599 4.233-4.415-.015-.796-.084-1.597-.143-2.392"/><path fill="#fff" d="M91.856 83.33c-.018.52-.065 1.035-.106 1.555.424-.07.917-.118 1.35-.17l-.011 1.756-1.342-.176c.058.514.083 1.1.115 1.622h-1.778c.024-.53.072-1.09.11-1.622l-1.334.17-.014-1.753q.683.072 1.364.167l-.148-1.558z"/><path fill="#fff" fill-rule="evenodd" d="M52.924 59.777c.335.09.432.154.562.48.369.93.701 1.874 1.046 2.813l8.215 22.413c-2.901 1.125-7.202 1.23-9.642-.969-2.474.26-3.853-.592-3.218-3.201.167-.353.191-.43.44-.72l.09.02c.123.479.088.996.291 1.355.254.093.287.134.55.08.232-.332.191-1.892.379-2.582.423-1.547.92-2.459 1.63-3.868-.146-.53-.405-2.08-.52-2.319l-.105.008c-.395.679-.366 2.518-1.583 2.563-.214-.38.06-1.374-.08-1.58-.682-1.011-1.759-2.893.181-3.348.72-.169 1.809.355 2.48.853 1.229-.656 1.151-.401 2.202-.738-.034-.198-.189-.645-.252-.894-.273-.164-1.262-.244-1.696-.343a6.7 6.7 0 0 1-1.624-.606c-.936-.499-1.873-1.487-1.211-2.64.536-.933 2.255-1.597 3.284-1.863-.39-1.049-1.344-3.45-1.55-4.615zm2.523 16.888c-.144.024-.3.092-.463.195-1.141.719-2.618 3.15-2.558 4.17l.098.107c.22-.05.214-.047.408-.16 1.08-.378 2.034-.53 3.186-.545-.98-1.594-.609-2.166-.671-3.767" clip-rule="evenodd"/><path fill="#fff" d="M58.718 62.307c2.168-.07 1.187 1.503.35 2.43.457.637.862 1.196 1.266 1.87l.076-.07c1.79-1.664 5.813-1.962 5.577 1.293a3.58 3.58 0 0 1-1.243 2.448c-.245.204-.327.25-.603.227-.47-.453-.05-1.655-.367-2.392-.758-.483-.876.999-.783 1.473.205 1.044.454 2.105.789 3.117 1.756-.113 3.346.201 3.577 2.274.048.43.159 1.41-.425 1.438l-.115-.115c-.066-.787-.107-1.04-.704-1.646-.655-.666-2.685-.935-3.188-.028-.241.438.272 2.656.386 3.284.177.87.332 1.821.49 2.7 3.962-3.307 5.084 1.397-.323 4.352-.934-2.32-1.875-5.094-2.742-7.466l-4.763-13.07c.74-.09 1.162-.099 1.917-.1-.269-1.03-.11-1.519.828-2.019M107.996 22.513c3.064 2.275 3.65 7.06 2.613 10.5a13.6 13.6 0 0 1-2.326 4.439c-2.893 3.681-9.606 7.978-13.734 10.179q.094.923.159 1.85c7.99-2.01 14.768-5.82 20.303-11.999.455.831.757 1.738.895 2.675a9.56 9.56 0 0 1-1.832 7.104c-3.63 4.867-13.9 5.835-19.588 6.678a62 62 0 0 1-.318 1.544c7.129 1.036 14.37-.295 20.87-3.292.089 1.072.103 1.984-.118 3.043-.621 3.308-3.941 5.756-7.228 6.05-4.761.424-10.217-.62-14.86-1.65l-.674 1.395c5.725 3.103 11.583 3.5 17.947 3.404-.046.617-.099 1.246-.293 1.836-1.307 3.963-6.388 4.297-9.826 3.451a27 27 0 0 1-2.027-.603c-2.875-.983-5.92-2.7-8.349-4.497-.338.427-.664.732-1.054 1.111 2.576 4.469 8.805 7.019 13.671 7.803-1.7 2.707-4.221 3.448-7.28 2.763-4.173-.934-7.465-4.874-9.637-8.33-.48.224-.994.406-1.49.593q.031.17.07.337c1.08 4.744 4.86 8.233 8.843 10.709-2.105 2.112-5.33 2.061-7.686.409-3.17-2.22-4.285-7.232-4.95-10.843-2.907.09-5.832 1.144-7.437 3.72-.302.486-.56 1-.819 1.51-.088-1.086-.037-2.903-.038-4.048a709 709 0 0 1 .013-7.476c4.296 1.455 10.034 1.286 12.434-3.21a6.52 6.52 0 0 0-.368-6.744c-.387-.568-1.138-1.344-1.325-1.968.227-.408 2.787-2 3.448-2.516a65 65 0 0 0 6.816-6.154c4.079-4.303 7.82-8.916 11.186-13.795 1.319-1.889 2.71-4.241 3.989-5.978M8.958 22.515c.287.23 2.14 3.217 2.511 3.767a152 152 0 0 0 3.235 4.615 113 113 0 0 0 8.7 10.588c2.781 2.984 5.848 5.754 9.174 8.121.586.418 1.477.758 1.854 1.359.018 1.129-3.614 3.08-2.12 7.66a7.15 7.15 0 0 0 3.586 4.121c2.817 1.43 6.357 1.05 9.266.118.026.555.045 1.126.036 1.682-.053 3.269.09 6.605-.03 9.869-.605-.999-.78-1.708-1.685-2.645-1.764-1.827-4.085-2.505-6.552-2.598-.942 4.777-2.55 12.028-8.81 12.034-1.636 0-2.672-.442-3.842-1.603q.233-.146.465-.296c3.958-2.576 7.415-5.97 8.423-10.747-.468-.157-1.014-.4-1.479-.593-1.729 2.748-4.061 5.648-6.91 7.28-3.335 1.907-7.917 1.971-9.994-1.73q.556-.081 1.107-.186c4.928-.917 9.677-3.412 12.562-7.594a68 68 0 0 1-1.087-1.092c-2.956 2.106-4.76 3.068-8.13 4.417-3.307 1.106-7.616 1.866-10.623-.615-1.25-1.032-1.613-2.455-1.71-4.022 6.418.149 12.157-.367 17.94-3.4q-.345-.691-.668-1.393c-4.27 1.127-10.524 2.059-14.956 1.632-4.58-.44-7.948-4.358-7.213-9.056 6.252 3.257 13.873 4.03 20.804 3.292l-.279-1.567c-5.48-.836-11.07-1.37-16.137-3.827C1.764 47.86-.397 42.16 1.97 37.518c1.084.96 2.105 2.192 3.323 3.232 5.26 4.491 10.34 7.13 17.013 8.73.035-.665.081-1.162.17-1.822-4.574-2.674-9.348-5.45-13.014-9.34-4.021-4.265-5.235-11.561-.504-15.803M54.973 31.158c-.447 2.661-2.304 4.565-4.61 5.838 5.105 4.979 7.576 11.753 8.182 18.743.22-1.726.436-3.265.82-4.964 1.058-4.703 3.683-10.657 7.439-13.746-2.093-1.291-4.423-3.227-4.594-5.868 1.833.58 3.696.827 5.61.93 3.969.213 13.31-.598 16.273 1.657a3.6 3.6 0 0 1 1.428 2.53c.094.968-.227 2.596-.899 3.341-.121.135-.06.11-.205.121-1.035-1.75-2.39-2.099-4.364-2.077-8.153.093-15.349 10.974-11.72 18.402.498 1.023 1.381 1.936 2.212 2.73-3.585.156-8.097.049-11.748.036-3.844-.014-8.425.143-12.192-.03.439-.508.948-.955 1.378-1.482 2.024-2.482 2.15-5.959 1.312-8.925-.766-2.709-2.145-4.931-4.073-6.947-2.66-2.598-6.163-4.375-9.965-3.633-1.27.248-1.964 1.01-2.594 2.05-.893-1.297-1.538-3.616-.633-5 2.01-3.033 7.499-2.665 10.778-2.694 4.416-.039 7.805.172 12.165-1.012"/><path fill="#fff" d="M77.53 39.131c1.265-.053 2.058 2.308 2.299 3.309-1.004-.701-1.373-.896-2.545-1.226-1.367-.204-2.028-.165-3.38.107 1.08-1.092 2.223-1.636 3.626-2.19M39.174 39.104c1.163.075 3.132 1.345 3.958 2.206-1.04-.241-1.665-.262-2.712-.187-1.346.198-1.988.504-3.09 1.262.158-1.455.745-2.368 1.843-3.281M86.482 17.033c2.223.07 3.825 3.105 5.528 4.28 1.465 1.016 3.685.578 5.201 1.356 2.603 1.337-.839 3.598-1.454 5.048-.608 1.432-.257 2.748.183 4.143-.822-.555-2.885-1.906-3.782-.81-.465.57-.274 1.488-.17 2.166-3.594-1.973-.673-4.57 1.054-6.454q.06-.073.115-.148c2.686-3.599-1.8-5.95-5.163-5.33.18.816.31 1.482.257 2.326a5.63 5.63 0 0 1-1.985 3.956c-1.205 1.029-3.112 1.688-4.742 1.696-.145 0-.229-.16-.304-.266.098-.596.827-.562 1.296-.631a4.77 4.77 0 0 0 2.542-1.238 4.55 4.55 0 0 0 1.41-3.273c.011-1.657-.798-2.904-1.903-4.047l.038-.115c.394-1.177.719-2.084 1.879-2.659M29.943 17.042c1.59-.022 2.059 1.508 2.495 2.757-1.364 1.523-2.295 3.058-1.759 5.218.436 1.697 1.854 2.85 3.487 3.326.498.145 1.518.006 1.627.617-.091.189-.083.177-.254.3-.525.029-1.16-.084-1.671-.207-4.03-.97-5.742-3.883-4.851-7.775-3.012-.546-7.328 1.189-5.484 4.897.913 1.509 2.824 2.567 3.183 4.434.123.646-.73 2.43-1.403 2.497-.732-.374 1.107-4.57-4.224-1.268.618-2.138.887-3.812-.849-5.545-2.123-2.155-1.918-3.712 1.299-4.101 1.919-.233 3.17-.366 4.544-1.858 1.155-1.256 2.258-2.62 3.86-3.292M62.15 11.428c.985.043 2.16.2 3.016.71 4.035 2.405.478 7.477-1.143 10.07 1.026 3.754 3.137 5.144 6.785 6.03-1.574-2.65-2.38-5.875 1.863-6.167.567 1.719 1.02 2.388 2.619 3.322 1.511-.887 2.098-1.694 2.616-3.333.767.075 1.695.163 2.284.7 1.983 1.806.19 5.004-1.164 6.527-2.573-.033-5.193.05-7.763-.011-3.183-.076-5.418-.976-7.598-3.252-1.082-1.38-1.473-2.22-1.992-3.88a608 608 0 0 0-6.363-.002c-1.085 4.108-4.252 6.687-8.483 7.07-1.254.114-2.522.077-3.78.075l-5.087-.014c-1.32-1.376-2.883-4.394-1.457-6.267.586-.769 1.648-.87 2.561-.927.598 1.695 1.075 2.368 2.605 3.323 1.467-.824 2.206-1.724 2.613-3.34 4.22.311 3.539 3.464 1.898 6.127 3.494-.573 5.936-2.57 6.76-6.033-.76-1.146-1.551-2.463-2.147-3.704-1.634-3.404-.96-6.398 3.205-6.975l.822-.035c.674 2.253 1.62 3.304 3.648 4.43 2-1.003 3.086-2.306 3.682-4.444"/><path fill="#fff" d="M75.136 19.259c2.618.174 1.35 2.777.228 3.983-1.19-.52-2.402-3.254-.228-3.983M41.43 19.264c2.667-.036 1.503 2.695.384 3.937l-.118.014c-.862-.431-1.65-2.168-1.265-3.106.205-.5.537-.638 1-.845M76.084 13.757l-.09 1.474c.377-.062.8-.098 1.183-.14v1.5l-1.192-.161.107 1.49-1.575.002.11-1.484c-.393.064-.803.103-1.2.145-.026-.464-.016-1.032-.02-1.506l1.22.137-.096-1.47zM42.447 13.757l-.06 1.466c.374-.058.802-.1 1.183-.146l-.003 1.504c-.395-.038-.801-.087-1.197-.132.038.474.096.996.088 1.468l-1.542.002c.02-.481.065-1 .098-1.484-.403.07-.781.097-1.189.132-.021-.484-.02-1.008-.027-1.495l1.238.156a20 20 0 0 1-.115-1.482zM57.992 8.015c1.323-.1 1.9.266 2.49 1.446-.073 1.797-.522 2.7-1.75 3.997-.097.065-.139.064-.255.1-1.244-.55-1.861-2.72-2.016-3.963.343-.905.658-1.191 1.53-1.58M59.559 1.01c-.066.573-.102 1.189-.146 1.767l1.543-.2.005 2.005-1.575-.14c.065.604.11 1.245.162 1.853l-2.085-.006.12-1.844c-.523.057-1.04.093-1.566.13l-.008-1.993c.518.073 1.067.13 1.588.192l-.145-1.77c.684-.012 1.417.004 2.107.006"/><path stroke="#fff" stroke-miterlimit="10" stroke-opacity=".2" stroke-width="2" d="M11.176 73.718c1.23.282 2.37.95 3.052 2.011.46.717.822 2.096.561 2.897-.422 1.302.345.767.83 1.748.223.453-.04 1.258-.249 1.715 3.955 3.66 7.886 7.475 11.85 11.098 1.818-.591 3.36-.227 4.747 1.054q.105.006.21.01c1.897.074 6.546-.335 8.26-1.615.28-.21.016-.575-.165-.856-1.428-2.264-2.791-4.745-2.805-7.496-.023-4.672 3.45-6.755 7.719-6.771.04 1.44 0 2.881.008 4.32.005.815-.054 1.976.104 2.75.12.6.39 1.161.79 1.627 1.808 2.095 5.249 1.082 7.754 1.375 2.177.255 3.33 1.418 4.67 3.004 1.625-2.126 3.502-3.306 6.22-3.051 8.512.798 7.06-3.774 7.073-10.04 2.74-.03 5.593.94 6.947 3.436 1.857 3.426.136 7.516-1.808 10.484-.211.321-.419.65-.526 1.02.55 1.36 6.33 1.825 7.7 1.8 1.012-2.762 2.786-4.51 5.81-4.892l-.003 4.84 2.096-.003q-.007-2.426.019-4.85c2.052.382 3.864 1.405 4.952 3.226a6.16 6.16 0 0 1 .693 4.672c-1.191 4.634-7.095 6.284-10.869 3.672-1.093-.758-1.71-1.92-2.827-2.645a14 14 0 0 0-2.618-1.315 22.1 22.1 0 0 0-5.816-1.377c-.629-.064-2.263-.14-2.788-.282-.756-.737.722-2.864-.145-4.533-1.923-3.7-6.114-1.812-8.075.733-1.182 1.531-1.926 2.939-2.61 4.785 3.222.914 6.117 1.944 9.074 3.662 2.561 1.489 5.916 3.873 6.837 6.87.195.781.024 1.363-.386 2.017-.91 1.448-2.06 2.126-3.695 2.513-.97-5.917-7.024-11.34-12.584-13.024l-.326.878c.784.416 1.368.734 2.115 1.226 3.365 2.295 5.971 5.375 7.143 9.324.852 2.872-1.65 4.816-4.13 5.473-.423-5.448-2.038-10.084-5.698-14.248-.04.268-.178 1.087-.12 1.303 1.036 3.847 2.253 7.531 2.484 11.554.166 2.88-1.848 4.1-4.194 5.183-1.398-.661-3.947-2.201-4.062-3.896-.212-3.157.782-6.79 1.589-9.833.24-.902.633-1.764.791-2.626l.025-.143c.098-.54.005-.952-.076-1.495-3.742 3.859-5.19 9.013-5.717 14.204a12 12 0 0 1-.411-.115c-2.808-.856-4.62-3.056-3.512-6.028 1.664-4.463 4.851-7.784 9.08-9.891-.131-.29-.219-.56-.322-.859-4.163 1.084-8.296 4.56-10.623 8.121-1.026 1.571-1.578 3.101-2.008 4.906a6.4 6.4 0 0 1-2.06-.864c-2.156-1.4-2.657-3.378-1.161-5.477 2.927-4.104 10.202-7.777 15.076-8.71a16.8 16.8 0 0 0-2.005-4.026c-1.643-2.38-4.757-4.848-7.604-2.886-2.07 1.428-1.124 3.622-1.016 5.531.025.44-.645.518-1.01.527-3.714.088-7.413.967-10.596 2.925.548.566 3.525 3.053 3.427 3.616-.593 3.385-4.154-.823-5.191-1.817-3.918 1.872-7.984-1.22-5.906-5.437-3.792-3.59-7.646-7.16-11.397-10.786-1.407.77-1.995.88-3.055-.33-.398-.126-.407.073-.789.146-2.665.51-4.475-.88-5.248-3.237.79.019 1.618.004 2.41.005-2.51-4.33-.244-6.599 4.233-4.415-.015-.796-.084-1.597-.143-2.392Z" mask="url(#a)"/><path stroke="#fff" stroke-miterlimit="10" stroke-opacity=".2" stroke-width="2" d="M91.856 83.33c-.018.52-.065 1.035-.106 1.555.424-.07.917-.118 1.35-.17l-.011 1.756-1.342-.176c.058.514.083 1.1.115 1.622h-1.778c.024-.53.072-1.09.11-1.622l-1.334.17-.014-1.753q.683.072 1.364.167l-.148-1.558z" mask="url(#a)"/><path stroke="#fff" stroke-miterlimit="10" stroke-opacity=".2" stroke-width="2" d="M52.924 59.777c.335.09.432.154.562.48.369.93.701 1.874 1.046 2.813l8.215 22.413c-2.901 1.125-7.202 1.23-9.642-.969-2.474.26-3.853-.592-3.218-3.201.167-.353.191-.43.44-.72l.09.02c.123.479.088.996.291 1.355.254.093.287.134.55.08.232-.332.191-1.892.379-2.582.423-1.547.92-2.459 1.63-3.868-.146-.53-.405-2.08-.52-2.319l-.105.008c-.395.679-.366 2.518-1.583 2.563-.214-.38.06-1.374-.08-1.58-.682-1.011-1.759-2.893.181-3.348.72-.169 1.809.355 2.48.853 1.229-.656 1.151-.401 2.202-.738-.034-.198-.189-.645-.252-.894-.273-.164-1.262-.244-1.696-.343a6.7 6.7 0 0 1-1.624-.606c-.936-.499-1.873-1.487-1.211-2.64.536-.933 2.255-1.597 3.284-1.863-.39-1.049-1.344-3.45-1.55-4.615zm2.523 16.888c-.144.024-.3.092-.463.195-1.141.719-2.618 3.15-2.558 4.17l.098.107c.22-.05.214-.047.408-.16 1.08-.378 2.034-.53 3.186-.545-.98-1.594-.609-2.166-.671-3.767Z" clip-rule="evenodd" mask="url(#a)"/><path stroke="#fff" stroke-miterlimit="10" stroke-opacity=".2" stroke-width="2" d="M58.718 62.307c2.168-.07 1.187 1.503.35 2.43.457.637.862 1.196 1.266 1.87l.076-.07c1.79-1.664 5.813-1.962 5.577 1.293a3.58 3.58 0 0 1-1.243 2.448c-.245.204-.327.25-.603.227-.47-.453-.05-1.655-.367-2.392-.758-.483-.876.999-.783 1.473.205 1.044.454 2.105.789 3.117 1.756-.113 3.346.201 3.577 2.274.048.43.159 1.41-.425 1.438l-.115-.115c-.066-.787-.107-1.04-.704-1.646-.655-.666-2.685-.935-3.188-.028-.241.438.272 2.656.386 3.284.177.87.332 1.821.49 2.7 3.962-3.307 5.084 1.397-.323 4.352-.934-2.32-1.875-5.094-2.742-7.466l-4.763-13.07c.74-.09 1.162-.099 1.917-.1-.269-1.03-.11-1.519.828-2.019Z" mask="url(#a)"/><path stroke="#fff" stroke-miterlimit="10" stroke-opacity=".2" stroke-width="2" d="M107.996 22.513c3.064 2.275 3.65 7.06 2.613 10.5a13.6 13.6 0 0 1-2.326 4.439c-2.893 3.681-9.606 7.978-13.734 10.179q.094.923.159 1.85c7.99-2.01 14.768-5.82 20.303-11.999.455.831.757 1.738.895 2.675a9.56 9.56 0 0 1-1.832 7.104c-3.63 4.867-13.9 5.835-19.588 6.678a62 62 0 0 1-.318 1.544c7.129 1.036 14.37-.295 20.87-3.292.089 1.072.103 1.984-.118 3.043-.621 3.308-3.941 5.756-7.228 6.05-4.761.424-10.217-.62-14.86-1.65l-.674 1.395c5.725 3.103 11.583 3.5 17.947 3.404-.046.617-.099 1.246-.293 1.836-1.307 3.963-6.388 4.297-9.826 3.451a27 27 0 0 1-2.027-.603c-2.875-.983-5.92-2.7-8.349-4.497-.338.427-.664.732-1.054 1.111 2.576 4.469 8.805 7.019 13.671 7.803-1.7 2.707-4.221 3.448-7.28 2.763-4.173-.934-7.465-4.874-9.637-8.33-.48.224-.994.406-1.49.593q.031.17.07.337c1.08 4.744 4.86 8.233 8.843 10.709-2.105 2.112-5.33 2.061-7.686.409-3.17-2.22-4.285-7.232-4.95-10.843-2.907.09-5.832 1.144-7.437 3.72-.302.486-.56 1-.819 1.51-.088-1.086-.037-2.903-.038-4.048a709 709 0 0 1 .013-7.476c4.296 1.455 10.034 1.286 12.434-3.21a6.52 6.52 0 0 0-.368-6.744c-.387-.568-1.138-1.344-1.325-1.968.227-.408 2.787-2 3.448-2.516a65 65 0 0 0 6.816-6.154c4.079-4.303 7.82-8.916 11.186-13.795 1.319-1.889 2.71-4.241 3.989-5.978Z" mask="url(#a)"/><path stroke="#fff" stroke-miterlimit="10" stroke-opacity=".2" stroke-width="2" d="M8.958 22.515c.287.23 2.14 3.217 2.511 3.767a152 152 0 0 0 3.235 4.615 113 113 0 0 0 8.7 10.588c2.781 2.984 5.848 5.754 9.174 8.121.586.418 1.477.758 1.854 1.359.018 1.129-3.614 3.08-2.12 7.66a7.15 7.15 0 0 0 3.586 4.121c2.817 1.43 6.357 1.05 9.266.118.026.555.045 1.126.036 1.682-.053 3.269.09 6.605-.03 9.869-.605-.999-.78-1.708-1.685-2.645-1.764-1.827-4.085-2.505-6.552-2.598-.942 4.777-2.55 12.028-8.81 12.034-1.636 0-2.672-.442-3.842-1.603q.233-.146.465-.296c3.958-2.576 7.415-5.97 8.423-10.747-.468-.157-1.014-.4-1.479-.593-1.729 2.748-4.061 5.648-6.91 7.28-3.335 1.907-7.917 1.971-9.994-1.73q.556-.081 1.107-.186c4.928-.917 9.677-3.412 12.562-7.594a68 68 0 0 1-1.087-1.092c-2.956 2.106-4.76 3.068-8.13 4.417-3.307 1.106-7.616 1.866-10.623-.615-1.25-1.032-1.613-2.455-1.71-4.022 6.418.149 12.157-.367 17.94-3.4q-.345-.691-.668-1.393c-4.27 1.127-10.524 2.059-14.956 1.632-4.58-.44-7.948-4.358-7.213-9.056 6.252 3.257 13.873 4.03 20.804 3.292l-.279-1.567c-5.48-.836-11.07-1.37-16.137-3.827C1.764 47.86-.397 42.16 1.97 37.518c1.084.96 2.105 2.192 3.323 3.232 5.26 4.491 10.34 7.13 17.013 8.73.035-.665.081-1.162.17-1.822-4.574-2.674-9.348-5.45-13.014-9.34-4.021-4.265-5.235-11.561-.504-15.803Z" mask="url(#a)"/><path stroke="#fff" stroke-miterlimit="10" stroke-opacity=".2" stroke-width="2" d="M54.973 31.158c-.447 2.661-2.304 4.565-4.61 5.838 5.105 4.979 7.576 11.753 8.182 18.743.22-1.726.436-3.265.82-4.964 1.058-4.703 3.683-10.657 7.439-13.746-2.093-1.291-4.423-3.227-4.594-5.868 1.833.58 3.696.827 5.61.93 3.969.213 13.31-.598 16.273 1.657a3.6 3.6 0 0 1 1.428 2.53c.094.968-.227 2.596-.899 3.341-.121.135-.06.11-.205.121-1.035-1.75-2.39-2.099-4.364-2.077-8.153.093-15.349 10.974-11.72 18.402.498 1.023 1.381 1.936 2.212 2.73-3.585.156-8.097.049-11.748.036-3.844-.014-8.425.143-12.192-.03.439-.508.948-.955 1.378-1.482 2.024-2.482 2.15-5.959 1.312-8.925-.766-2.709-2.145-4.931-4.073-6.947-2.66-2.598-6.163-4.375-9.965-3.633-1.27.248-1.964 1.01-2.594 2.05-.893-1.297-1.538-3.616-.633-5 2.01-3.033 7.499-2.665 10.778-2.694 4.416-.039 7.805.172 12.165-1.012Z" mask="url(#a)"/><path stroke="#fff" stroke-miterlimit="10" stroke-opacity=".2" stroke-width="2" d="M77.53 39.131c1.265-.053 2.058 2.308 2.299 3.309-1.004-.701-1.373-.896-2.545-1.226-1.367-.204-2.028-.165-3.38.107 1.08-1.092 2.223-1.636 3.626-2.19Z" mask="url(#a)"/><path stroke="#fff" stroke-miterlimit="10" stroke-opacity=".2" stroke-width="2" d="M39.174 39.104c1.163.075 3.132 1.345 3.958 2.206-1.04-.241-1.665-.262-2.712-.187-1.346.198-1.988.504-3.09 1.262.158-1.455.745-2.368 1.843-3.281Z" mask="url(#a)"/><path stroke="#fff" stroke-miterlimit="10" stroke-opacity=".2" stroke-width="2" d="M86.482 17.033c2.223.07 3.825 3.105 5.528 4.28 1.465 1.016 3.685.578 5.201 1.356 2.603 1.337-.839 3.598-1.454 5.048-.608 1.432-.257 2.748.183 4.143-.822-.555-2.885-1.906-3.782-.81-.465.57-.274 1.488-.17 2.166-3.594-1.973-.673-4.57 1.054-6.454q.06-.073.115-.148c2.686-3.599-1.8-5.95-5.163-5.33.18.816.31 1.482.257 2.326a5.63 5.63 0 0 1-1.985 3.956c-1.205 1.029-3.112 1.688-4.742 1.696-.145 0-.229-.16-.304-.266.098-.596.827-.562 1.296-.631a4.77 4.77 0 0 0 2.542-1.238 4.55 4.55 0 0 0 1.41-3.273c.011-1.657-.798-2.904-1.903-4.047l.038-.115c.394-1.177.719-2.084 1.879-2.659Z" mask="url(#a)"/><path stroke="#fff" stroke-miterlimit="10" stroke-opacity=".2" stroke-width="2" d="M29.943 17.042c1.59-.022 2.059 1.508 2.495 2.757-1.364 1.523-2.295 3.058-1.759 5.218.436 1.697 1.854 2.85 3.487 3.326.498.145 1.518.006 1.627.617-.091.189-.083.177-.254.3-.525.029-1.16-.084-1.671-.207-4.03-.97-5.742-3.883-4.851-7.775-3.012-.546-7.328 1.189-5.484 4.897.913 1.509 2.824 2.567 3.183 4.434.123.646-.73 2.43-1.403 2.497-.732-.374 1.107-4.57-4.224-1.268.618-2.138.887-3.812-.849-5.545-2.123-2.155-1.918-3.712 1.299-4.101 1.919-.233 3.17-.366 4.544-1.858 1.155-1.256 2.258-2.62 3.86-3.292Z" mask="url(#a)"/><path stroke="#fff" stroke-miterlimit="10" stroke-opacity=".2" stroke-width="2" d="M62.15 11.428c.985.043 2.16.2 3.016.71 4.035 2.405.478 7.477-1.143 10.07 1.026 3.754 3.137 5.144 6.785 6.03-1.574-2.65-2.38-5.875 1.863-6.167.567 1.719 1.02 2.388 2.619 3.322 1.511-.887 2.098-1.694 2.616-3.333.767.075 1.695.163 2.284.7 1.983 1.806.19 5.004-1.164 6.527-2.573-.033-5.193.05-7.763-.011-3.183-.076-5.418-.976-7.598-3.252-1.082-1.38-1.473-2.22-1.992-3.88a608 608 0 0 0-6.363-.002c-1.085 4.108-4.252 6.687-8.483 7.07-1.254.114-2.522.077-3.78.075l-5.087-.014c-1.32-1.376-2.883-4.394-1.457-6.267.586-.769 1.648-.87 2.561-.927.598 1.695 1.075 2.368 2.605 3.323 1.467-.824 2.206-1.724 2.613-3.34 4.22.311 3.539 3.464 1.898 6.127 3.494-.573 5.936-2.57 6.76-6.033-.76-1.146-1.551-2.463-2.147-3.704-1.634-3.404-.96-6.398 3.205-6.975l.822-.035c.674 2.253 1.62 3.304 3.648 4.43 2-1.003 3.086-2.306 3.682-4.444Z" mask="url(#a)"/><path stroke="#fff" stroke-miterlimit="10" stroke-opacity=".2" stroke-width="2" d="M75.136 19.259c2.618.174 1.35 2.777.228 3.983-1.19-.52-2.402-3.254-.228-3.983Z" mask="url(#a)"/><path stroke="#fff" stroke-miterlimit="10" stroke-opacity=".2" stroke-width="2" d="M41.43 19.264c2.667-.036 1.503 2.695.384 3.937l-.118.014c-.862-.431-1.65-2.168-1.265-3.106.205-.5.537-.638 1-.845Z" mask="url(#a)"/><path stroke="#fff" stroke-miterlimit="10" stroke-opacity=".2" stroke-width="2" d="m76.084 13.757-.09 1.474c.377-.062.8-.098 1.183-.14v1.5l-1.192-.161.107 1.49-1.575.002.11-1.484c-.393.064-.803.103-1.2.145-.026-.464-.016-1.032-.02-1.506l1.22.137-.096-1.47z" mask="url(#a)"/><path stroke="#fff" stroke-miterlimit="10" stroke-opacity=".2" stroke-width="2" d="m42.447 13.757-.06 1.466c.374-.058.802-.1 1.183-.146l-.003 1.504c-.395-.038-.801-.087-1.197-.132.038.474.096.996.088 1.468l-1.542.002c.02-.481.065-1 .098-1.484-.403.07-.781.097-1.189.132-.021-.484-.02-1.008-.027-1.495l1.238.156a20 20 0 0 1-.115-1.482z" mask="url(#a)"/><path stroke="#fff" stroke-miterlimit="10" stroke-opacity=".2" stroke-width="2" d="M57.992 8.015c1.323-.1 1.9.266 2.49 1.446-.073 1.797-.522 2.7-1.75 3.997-.097.065-.139.064-.255.1-1.244-.55-1.861-2.72-2.016-3.963.343-.905.658-1.191 1.53-1.58Z" mask="url(#a)"/><path stroke="#fff" stroke-miterlimit="10" stroke-opacity=".2" stroke-width="2" d="M59.559 1.01c-.066.573-.102 1.189-.146 1.767l1.543-.2.005 2.005-1.575-.14c.065.604.11 1.245.162 1.853l-2.085-.006.12-1.844c-.523.057-1.04.093-1.566.13l-.008-1.993c.518.073 1.067.13 1.588.192l-.145-1.77c.684-.012 1.417.004 2.107.006Z" mask="url(#a)"/></svg>