<svg xmlns="http://www.w3.org/2000/svg" fill="none" viewBox="0 0 60 60"><rect width="60" height="60" x="60" fill="#fff" rx="30" transform="rotate(90 60 0)"/><path fill="#1C1C1C" fill-rule="evenodd" d="m30.3 10 1.18 1.42-1.18 1.5-1.19-1.5L30.3 10ZM17.67 20.5c.32-1.53-1.04-.73-1.4-.44.45-1.27 0-1.76-.38-2.16-.23-.25-.43-.47-.37-.84.07-.4.63-.49 1.17-.56.34-.06.68-.1.88-.23.25-.16.5-.44.76-.73.71-.77 1.43-1.56 1.96.13-1.33 1.27-.56 3.15 1.13 3.15v.3c-2.02-.1-2.72-1.63-2.36-2.85.07-.22-2.06-.23-2.06 1.15 0 .45.31.79.63 1.13.32.35.64.7.64 1.18 0 .44-.46.77-.6.77Zm23.27-4.23c-.07-.22 2.06-.23 2.06 1.15 0 .45-.31.79-.63 1.13-.32.35-.64.7-.64 1.18 0 .44.46.77.6.77-.32-1.53 1.04-.73 1.4-.44-.45-1.27 0-1.76.38-2.16.23-.25.43-.47.37-.84-.07-.4-.63-.49-1.17-.56-.34-.06-.68-.1-.88-.23-.25-.16-.5-.44-.76-.73-.71-.77-1.43-1.56-1.96.13 1.34 1.27.56 3.15-1.13 3.15v.3c2.02-.1 2.73-1.63 2.36-2.85Zm-5.67 3.46c2.17-.01 4.21-.02 4.47 1.43.1.5-.14 1.27-.4 1.5-.04-.17-.27-.7-1.02-.8-3.74-.6-6.87 5.43-4.05 7.87.05.04.02.1-.04.1H25.77a.06.06 0 0 1-.04-.1c2.82-2.44-.3-8.47-4.06-7.88-.74.12-.97.64-1.02.8-.25-.22-.48-.99-.4-1.5.27-1.44 2.31-1.43 4.48-1.42 1.42 0 2.9 0 3.96-.4.05.7-.83 1.82-1.67 2.23 1.43 1.3 2.72 3.91 2.98 7.1.26-3.19 1.54-5.8 2.98-7.1-.84-.41-1.72-1.53-1.67-2.23 1.06.4 2.54.4 3.96.4Zm-6.94 17.04c.07-.18.15-.33.21-.45.1-.17.1-.3.04-.48a1.52 1.52 0 0 1-.07-.74c-.12 0-.15.17-.18.37-.06.32-.14.73-.61.73.2-.32.14-.6-.05-.88-.26-.41-.26-.77 0-.99.25-.2.78-.08 1.12.27.15-.17.59-.3.82-.3a.5.5 0 0 1-.1-.42c-.65.06-1.76-.39-1.76-1.08 0-.51.79-.9 1.28-1.03l-.57-1.73c-.04-.12.03-.2.11-.2h.02c.05 0 .1.03.12.1l.62 1.85c-.08 0-.16.02-.22.04l2.33 7.92c.15-.1.3-.2.43-.32l.2.6c-.64.34-2.55.61-3.52-.42-.33.17-1.21.01-1.21-.8 0-.07.01-.2.05-.33a.6.6 0 0 0 0 .1c.07-.05.15-.1.24-.14.01.19.13.23.33.23v-.35c.34-.1.74-.14 1.1-.14-.34-.35-.45-1.35-.27-1.93-.17.17-.32.35-.46.52Zm-.37 1.55c.03-.56.2-1.13.37-1.55-.55.66-.94 1.29-.94 1.7.03-.1.07-.23.12-.32.1-.17.19-.07.15.07a.86.86 0 0 0-.03.22c.1-.05.21-.09.33-.12Zm3.91 1.1c.44-.38.72-.89.72-1.42 0-.59-.7-.4-1.04.07a376.13 376.13 0 0 1-.31-2.13c-.03-.19.05-.26.17-.32.41-.19 1.06-.03 1.04.7 0 .18.18.18.2 0 .12-1.1-.48-1.42-1.11-1.3l-.08-.35-.14-.69c-.06-.26-.08-.77.17-.77.12 0 .09.36.07.59v.08c-.01.18.04.29.15.29.07 0 .16-.11.22-.19.36-.5.44-1.29.02-1.67-.35-.31-1.24-.08-1.49.37a2.18 2.18 0 0 0-.3-.57c-.07-.12-.1-.2.02-.3.05-.06.21-.26.21-.46 0-.12-.07-.35-.32-.35-.19 0-.4.16-.4.53 0 .08.02.17.06.26a1.64 1.64 0 0 0-.4 0l2.54 7.64Zm3.16-16.03c.6-.2 1.64-.22 2.36.48 0-.74-.58-1.4-.79-1.49a3.5 3.5 0 0 0-1.57 1.01Zm-12.42.48c.72-.7 1.77-.68 2.36-.48a3.5 3.5 0 0 0-1.57-1c-.2.08-.8.74-.8 1.48Zm14.78-9.19-.88-1.18-.89 1.18.89 1.15.88-1.15Zm4.15 25.07L42.72 41l-1.18 1.1-1.19-1.1 1.19-1.24ZM24.38 14.68l-.89-1.18-.88 1.18.88 1.15.9-1.15Zm.64 4.65H22.2c-.01 0-.5-.63-.62-.94-.45-1.13.12-1.66.96-1.66l1.07.92 1.08-.92c.83 0 1.4.53.95 1.66-.05.14-.19.35-.32.54 1-.13 2.28-.78 2.56-2.17 0 0-.74-1.11-.92-1.56-.67-1.62.18-2.28 1.43-2.28L30 14.7l1.61-1.8c1.25 0 2.1.67 1.44 2.29-.2.45-.93 1.56-.93 1.56.28 1.39 1.56 2.04 2.56 2.17-.13-.19-.26-.4-.32-.54-.45-1.13.12-1.66.96-1.66l1.07.92 1.08-.92c.83 0 1.4.53.95 1.66-.12.31-.62.94-.62.94h-2.82c-2.38 0-3.45-1.37-3.77-2.57h-2.42c-.32 1.2-1.39 2.57-3.77 2.57Zm25.54 8.03c-.52.26-3.56 1.7-7.45 1.17.04-.19.08-.38.1-.57 2.6-.31 4.7-.76 6.04-1.52a3.5 3.5 0 0 0 1.43-4.46c-.02-.04-.08-.04-.1-.01-.43.5-3.09 3.43-7.28 4.34a8 8 0 0 0-.06-.65c2.04-1.18 4.02-2.53 4.97-3.76 1.43-1.87 1.3-4.25-.06-5.47a.06.06 0 0 0-.1.02c-.43.72-4.46 7.34-8.89 10.2l-.16.1a.21.21 0 0 0-.03.34c.5.47.83 1.12.83 1.85 0 1.26-.96 2.31-2.23 2.54-.64.12-1.57.09-2.46-.21-.04-.02-.08.01-.08.05v4c0 .06.1.08.12.02.54-1.46 2.16-1.77 2.87-1.77.26 1.56.71 2.85 1.3 3.54.97 1.13 2.55 1.12 3.23.34a.06.06 0 0 0-.02-.1c-.4-.23-2.7-1.66-3.15-4 .18-.07.35-.14.52-.23a7.58 7.58 0 0 0 2.7 2.78c1.45.72 2.79.37 3.38-.67.02-.04 0-.08-.05-.09-.9-.07-3.67-.88-4.85-2.84l.4-.4c1.23.95 2.97 1.8 4.22 1.97 1.46.2 3.12-.27 3.16-2a.06.06 0 0 0-.07-.06c-.52.03-3.96.19-6.41-1.24l.24-.5s3.7.88 5.46.59c1.74-.3 2.77-1.62 2.57-3.26 0-.04-.05-.06-.1-.04Zm-32.94 3.2a7.98 7.98 0 0 1-.24-.5s-3.7.9-5.46.6c-1.74-.3-2.77-1.61-2.57-3.26 0-.04.05-.06.1-.04.51.26 3.55 1.7 7.44 1.17a8.93 8.93 0 0 1-.1-.57c-2.6-.31-4.7-.76-6.04-1.52a3.5 3.5 0 0 1-1.43-4.46.06.06 0 0 1 .1-.01c.43.5 3.1 3.43 7.28 4.34 0-.22.03-.44.06-.65-2.04-1.18-4.02-2.53-4.97-3.76-1.43-1.87-1.3-4.25.06-5.47a.07.07 0 0 1 .1.02c.43.72 4.46 7.34 8.88 10.2l.17.1c.12.07.14.24.03.34a2.5 2.5 0 0 0-.83 1.85c0 1.26.96 2.31 2.23 2.54.64.12 1.57.09 2.46-.21.04-.02.08.01.08.05v4c0 .06-.1.08-.12.02-.54-1.46-2.16-1.77-2.87-1.77-.26 1.56-.71 2.85-1.3 3.54-.97 1.13-2.55 1.12-3.23.34a.06.06 0 0 1 .01-.1c.4-.23 2.7-1.66 3.16-4a4.6 4.6 0 0 1-.53-.23 7.58 7.58 0 0 1-2.68 2.78c-1.46.72-2.8.37-3.4-.67-.01-.04.01-.08.05-.09.9-.07 3.68-.88 4.86-2.84a5.93 5.93 0 0 1-.4-.4c-1.23.95-2.97 1.8-4.22 1.97-1.46.2-3.12-.27-3.16-2 0-.03.03-.06.07-.06.52.03 3.96.18 6.4-1.24ZM41.98 42.7l-1.36-1.06c-.53.32-.93.83-1.09 1.42-.8.12-3.03-.37-2.81-.7 2.43-3.4.57-5.42-1.66-5.3v2.28c0 .73-.65 1.32-1.44 1.32h-1.54c-1.1 0-1.83 1.1-1.83 1.1s-.72-1.1-1.83-1.1h-1.54c-.8 0-1.44-.6-1.44-1.32v-2.29c-2.23-.11-4.09 1.91-1.66 5.31.21.33-2.06.84-3.13.71a1.59 1.59 0 0 0-1.71-.37s-4.2-3.96-4.28-4l.03-.08c.24-.44-.12-.93-.36-.9.27-.31.29-1.72-1.2-2.04.04.28.06.85.06.85s-1.15-.61-1.73-.08c-.5.6.2 1.68.2 1.68s-.6.02-.88 0c.42 1.43 1.86 1.33 2.17 1.04-.02.23.5.56.93.3l.2-.1c.03.05 4.12 3.9 4.12 3.9-.19.27-.28.61-.21.98.1.56.57 1.03 1.18 1.15.42.09.83 0 1.15-.18l1.08 1c.1.09.23.14.38.13.26-.02.46-.23.44-.48-.01-.1-.07-.2-.15-.27l-1.1-1.03a7.75 7.75 0 0 1 3.95-1.06c.25 0 .36-.2.28-.4-.63-1.5.72-2.6 2.11-1.7.61.38 1.23 1.14 1.7 2.4-2.3.56-5.17 2.08-5.75 3.73-.22.65.52 1.52 1.41 1.7l.05-.01.03-.04c.47-2.48 3.14-4.32 4.54-4.64l.11.31a6.3 6.3 0 0 0-3.4 4.01c-.2.82.72 1.56 1.48 1.76.04.01.07-.01.08-.05a8.21 8.21 0 0 1 2.05-5.06l.05.52s-.92 2.55-.92 4.41c0 .87 1.3 1.48 1.49 1.56.24-.08 1.53-.69 1.53-1.56 0-1.86-.92-4.41-.92-4.41.01-.18.03-.35.06-.52.9.88 1.9 2.8 2.04 5.06 0 .04.04.06.08.05.76-.2 1.68-.94 1.49-1.76a6.31 6.31 0 0 0-3.41-4l.08-.22.03-.1c1.4.32 4.07 2.16 4.54 4.64a.06.06 0 0 0 .08.04c.9-.17 1.64-1.04 1.41-1.69-.58-1.65-3.46-3.17-5.75-3.72a4.65 4.65 0 0 1 1.7-2.42c1.4-.88 2.74.2 2.11 1.7-.08.2.03.41.28.41 1.57 0 3.5.56 4.26 1.32.49.73 1.4 1.2 2.4 1.1a2.44 2.44 0 0 0 2.24-2.05 2.27 2.27 0 0 0-1.15-2.24l-1.35 1.06Z" clip-rule="evenodd"/></svg>