<svg width="18" height="18" viewBox="0 0 18 18" fill="none" xmlns="http://www.w3.org/2000/svg">
<path d="M.591.063C.44.143.138.447.061.598c-.08.156-.088.641-.013.791.026.053 3.31 3.36 7.297 7.348l7.25 7.253h-6.75c-4.021 0-6.849.012-6.995.029-.419.048-.668.225-.781.555-.061.177-.07.625-.016.811a.816.816 0 0 0 .523.551c.118.045.809.05 8.416.057l8.288.008.187-.086a.768.768 0 0 0 .448-.448l.086-.187-.008-8.288c-.007-7.607-.012-8.298-.057-8.416a.816.816 0 0 0-.551-.523c-.186-.054-.634-.045-.811.016-.33.113-.507.362-.555.781-.017.146-.029 2.974-.029 6.995v6.75l-7.253-7.25C4.749 3.358 1.442.074 1.389.048 1.241-.026.741-.017.591.063" fill-rule="evenodd" fill="currentColor"/></svg>
