<svg width="212" height="50" viewBox="0 0 212 50" fill="none" xmlns="http://www.w3.org/2000/svg">
<rect width="212" height="50" rx="12" fill="#1C1C1C"/>
<path d="M52.0377 14.3751C51.7812 14.6373 51.6328 15.0454 51.6328 15.5739V34.4269C51.6328 34.9554 51.7812 35.3635 52.0377 35.6257L52.101 35.6832L62.9216 25.1229V24.8736L52.101 14.3133L52.0377 14.3751Z" fill="#E0E1E5"/>
<path d="M66.5267 28.6449L62.9238 25.123V24.8737L66.531 21.3518L66.6118 21.3976L70.8837 23.7708C72.1028 24.4442 72.1028 25.5525 70.8837 26.2302L66.6118 28.5991L66.5267 28.6449Z" fill="#ECEDF0"/>
<path d="M66.6109 28.5997L62.9229 24.999L52.0391 35.6264C52.444 36.042 53.1043 36.092 53.8552 35.6765L66.6109 28.5997Z" fill="white"/>
<path d="M66.6109 21.3977L53.8552 14.3209C53.1043 13.9096 52.444 13.9597 52.0391 14.3753L62.9229 24.9984L66.6109 21.3977Z" fill="white"/>
<path d="M80.5151 19.333H80.8496C80.8768 19.3112 80.9121 19.2745 80.9556 19.2228C81.0018 19.1685 81.0821 19.0475 81.1963 18.8598C81.3105 18.6695 81.4111 18.4615 81.4981 18.2358C81.5878 18.0101 81.6694 17.7029 81.7428 17.3141C81.8162 16.9225 81.8529 16.5092 81.8529 16.0742V14.3204H85.6542V19.333H86.3638V21.4212H85.4421V20.1691H81.4328V21.4212H80.5151V19.333ZM82.7706 16.0742C82.7706 16.5092 82.7352 16.9198 82.6646 17.3059C82.5966 17.6893 82.5136 17.9993 82.4158 18.2358C82.3179 18.4724 82.22 18.679 82.1221 18.8558C82.0242 19.0298 81.9399 19.1535 81.8692 19.2269L81.7673 19.333H84.7324V15.1565H82.7706V16.0742ZM89.8796 19.1127C90.127 18.8544 90.2507 18.539 90.2507 18.1665C90.2507 17.7913 90.127 17.4745 89.8796 17.2162C89.6321 16.9579 89.3385 16.8287 88.9986 16.8287C88.6587 16.8287 88.3637 16.9579 88.1135 17.2162C87.8661 17.4745 87.7424 17.7913 87.7424 18.1665C87.7424 18.539 87.8661 18.8544 88.1135 19.1127C88.3637 19.371 88.6587 19.5002 88.9986 19.5002C89.3385 19.5002 89.6321 19.371 89.8796 19.1127ZM87.5303 19.6307C87.117 19.2147 86.9104 18.7266 86.9104 18.1665C86.9104 17.6036 87.117 17.1142 87.5303 16.6982C87.9463 16.2822 88.4357 16.0742 88.9986 16.0742C89.5614 16.0742 90.0495 16.2822 90.4628 16.6982C90.8788 17.1142 91.0868 17.6036 91.0868 18.1665C91.0868 18.7266 90.8788 19.2147 90.4628 19.6307C90.0495 20.044 89.5614 20.2506 88.9986 20.2506C88.4357 20.2506 87.9463 20.044 87.5303 19.6307ZM92.3757 19.6307C91.9624 19.2147 91.7557 18.7266 91.7557 18.1665C91.7557 17.6036 91.9624 17.1142 92.3757 16.6982C92.7917 16.2822 93.2811 16.0742 93.844 16.0742C94.1566 16.0742 94.4476 16.1421 94.7168 16.2781C94.986 16.4113 95.179 16.5446 95.2959 16.6778L95.4713 16.8695L94.9289 17.4119C94.9017 17.3684 94.8595 17.3154 94.8024 17.2529C94.748 17.1876 94.627 17.1006 94.4394 16.9918C94.2545 16.8831 94.056 16.8287 93.844 16.8287C93.5041 16.8287 93.2091 16.9579 92.9589 17.2162C92.7115 17.4745 92.5877 17.7913 92.5877 18.1665C92.5877 18.539 92.7115 18.8544 92.9589 19.1127C93.2091 19.371 93.5041 19.5002 93.844 19.5002C94.056 19.5002 94.2545 19.4472 94.4394 19.3411C94.627 19.2351 94.7616 19.1317 94.8432 19.0311L94.9696 18.8762L95.5121 19.4186C95.4958 19.4404 95.4713 19.4716 95.4387 19.5124C95.4061 19.5505 95.3354 19.6171 95.2266 19.7123C95.1178 19.8047 95.0036 19.8876 94.884 19.9611C94.7644 20.0318 94.6094 20.0984 94.419 20.1609C94.2287 20.2207 94.037 20.2506 93.844 20.2506C93.2811 20.2506 92.7917 20.044 92.3757 19.6307ZM95.9281 16.9103V16.1598H99.5173V16.9103H98.1387V20.1691H97.3067V16.9103H95.9281ZM101.23 20.5851L101.397 20.1691L99.7661 16.1598H100.643L101.814 19.0842L102.984 16.1598H103.861L102.062 20.5851C101.856 21.08 101.65 21.4266 101.446 21.6251C101.245 21.8236 100.992 21.9229 100.688 21.9229C100.576 21.9229 100.472 21.9161 100.374 21.9025C100.276 21.8889 100.204 21.8739 100.158 21.8576L100.101 21.8413V21.0867C100.239 21.1411 100.379 21.1697 100.521 21.1724C100.839 21.1697 101.075 20.9739 101.23 20.5851ZM105.362 16.9103V20.1691H104.526V16.1598H108.16V20.1691H107.324V16.9103H105.362ZM110.166 18.4968V20.1691H109.33V16.1598H110.166V17.7464H112.128V16.1598H112.964V20.1691H112.128V18.4968H110.166ZM116.855 19.1127C117.103 18.8544 117.226 18.539 117.226 18.1665C117.226 17.7913 117.103 17.4745 116.855 17.2162C116.608 16.9579 116.314 16.8287 115.974 16.8287C115.634 16.8287 115.339 16.9579 115.089 17.2162C114.842 17.4745 114.718 17.7913 114.718 18.1665C114.718 18.539 114.842 18.8544 115.089 19.1127C115.339 19.371 115.634 19.5002 115.974 19.5002C116.314 19.5002 116.608 19.371 116.855 19.1127ZM114.506 19.6307C114.093 19.2147 113.886 18.7266 113.886 18.1665C113.886 17.6036 114.093 17.1142 114.506 16.6982C114.922 16.2822 115.412 16.0742 115.974 16.0742C116.537 16.0742 117.025 16.2822 117.439 16.6982C117.855 17.1142 118.063 17.6036 118.063 18.1665C118.063 18.7266 117.855 19.2147 117.439 19.6307C117.025 20.044 116.537 20.2506 115.974 20.2506C115.412 20.2506 114.922 20.044 114.506 19.6307ZM120.652 16.1598H122.574C122.957 16.1598 123.261 16.2591 123.487 16.4576C123.713 16.6533 123.826 16.9021 123.826 17.2039C123.826 17.3752 123.788 17.5316 123.711 17.673C123.638 17.8116 123.562 17.9082 123.483 17.9626L123.369 18.04C123.385 18.0455 123.408 18.055 123.438 18.0686C123.468 18.0822 123.522 18.1175 123.601 18.1746C123.68 18.229 123.748 18.2902 123.805 18.3582C123.865 18.4234 123.918 18.5132 123.964 18.6274C124.013 18.7416 124.038 18.8653 124.038 18.9985C124.038 19.3438 123.914 19.6253 123.667 19.8428C123.422 20.0603 123.086 20.1691 122.659 20.1691H120.652V16.1598ZM122.659 18.3745H121.489V19.4594H122.659C122.825 19.4594 122.957 19.4105 123.055 19.3126C123.153 19.2147 123.202 19.0828 123.202 18.9169C123.202 18.7674 123.151 18.6396 123.051 18.5336C122.95 18.4275 122.82 18.3745 122.659 18.3745ZM122.879 17.5955C122.956 17.5193 122.994 17.4174 122.994 17.2896C122.994 17.1591 122.956 17.0571 122.879 16.9837C122.803 16.9076 122.701 16.8695 122.574 16.8695H121.489V17.7056H122.574C122.701 17.7056 122.803 17.6689 122.879 17.5955Z" fill="white"/>
<path d="M106.035 27.4969C103.823 27.4969 102.016 29.1406 102.016 31.4086C102.016 33.6581 103.823 35.3191 106.035 35.3191C108.252 35.3191 110.059 33.6581 110.059 31.4086C110.059 29.1406 108.252 27.4969 106.035 27.4969ZM106.035 33.7788C104.821 33.7788 103.777 32.8006 103.777 31.4086C103.777 29.9982 104.821 29.0372 106.035 29.0372C107.249 29.0372 108.298 29.9982 108.298 31.4086C108.298 32.8006 107.249 33.7788 106.035 33.7788ZM97.2652 27.4969C95.0482 27.4969 93.2457 29.1406 93.2457 31.4086C93.2457 33.6581 95.0482 35.3191 97.2652 35.3191C99.4809 35.3191 101.285 33.6581 101.285 31.4086C101.285 29.1406 99.4809 27.4969 97.2652 27.4969ZM97.2652 33.7788C96.0501 33.7788 95.0023 32.8006 95.0023 31.4086C95.0023 29.9982 96.0501 29.0372 97.2652 29.0372C98.479 29.0372 99.5233 29.9982 99.5233 31.4086C99.5233 32.8006 98.479 33.7788 97.2652 33.7788ZM86.8292 28.6958V30.3579H90.8946C90.7757 31.2867 90.4578 31.9695 89.9704 32.4454C89.377 33.0202 88.4528 33.6581 86.8292 33.6581C84.3274 33.6581 82.3683 31.6868 82.3683 29.2441C82.3683 26.8014 84.3274 24.8301 86.8292 24.8301C88.182 24.8301 89.1662 25.3462 89.8927 26.0152L91.0924 24.8439C90.0763 23.8967 88.7247 23.1691 86.8292 23.1691C83.3984 23.1691 80.5151 25.8945 80.5151 29.2441C80.5151 32.5937 83.3984 35.3191 86.8292 35.3191C88.6835 35.3191 90.0763 34.726 91.1712 33.6133C92.2932 32.5178 92.6429 30.9775 92.6429 29.7338C92.6429 29.3475 92.61 28.9924 92.5511 28.6958H86.8292ZM129.503 29.9844C129.172 29.1096 128.152 27.4969 126.072 27.4969C124.012 27.4969 122.297 29.082 122.297 31.4086C122.297 33.5995 123.994 35.3191 126.27 35.3191C128.11 35.3191 129.172 34.2237 129.609 33.5857L128.243 32.6971C127.788 33.3478 127.167 33.7788 126.27 33.7788C125.379 33.7788 124.74 33.3799 124.33 32.5937L129.688 30.4292L129.503 29.9844ZM124.04 31.2867C123.994 29.7786 125.24 29.0061 126.132 29.0061C126.832 29.0061 127.425 29.3475 127.623 29.8361L124.04 31.2867ZM119.685 35.0812H121.447V23.5863H119.685V35.0812ZM116.801 28.3682H116.742C116.346 27.9107 115.592 27.4969 114.636 27.4969C112.629 27.4969 110.795 29.2165 110.795 31.4212C110.795 33.6133 112.629 35.3191 114.636 35.3191C115.592 35.3191 116.346 34.9019 116.742 34.4306H116.801V34.9915C116.801 36.487 115.983 37.2905 114.663 37.2905C113.587 37.2905 112.919 36.5318 112.644 35.8939L111.112 36.518C111.553 37.5549 112.722 38.8308 114.663 38.8308C116.728 38.8308 118.47 37.6445 118.47 34.7582V27.7348H116.801V28.3682ZM114.786 33.7788C113.573 33.7788 112.556 32.7868 112.556 31.4212C112.556 30.043 113.573 29.0372 114.786 29.0372C115.983 29.0372 116.926 30.043 116.926 31.4212C116.926 32.7868 115.983 33.7788 114.786 33.7788ZM137.749 23.5863H133.537V35.0812H135.293V30.7258H137.749C139.7 30.7258 141.613 29.3475 141.613 27.1555C141.613 24.9645 139.695 23.5863 137.749 23.5863ZM137.795 29.1268H135.293V25.1853H137.795C139.107 25.1853 139.855 26.2485 139.855 27.1555C139.855 28.0452 139.107 29.1268 137.795 29.1268ZM148.654 27.475C147.385 27.475 146.065 28.0222 145.522 29.2349L147.081 29.8729C147.416 29.2349 148.033 29.028 148.686 29.028C149.597 29.028 150.521 29.5625 150.535 30.5062V30.6269C150.217 30.4476 149.537 30.1821 148.7 30.1821C147.021 30.1821 145.31 31.0844 145.31 32.7684C145.31 34.3087 146.685 35.3007 148.231 35.3007C149.413 35.3007 150.065 34.78 150.475 34.1742H150.535V35.0628H152.232V30.6534C152.232 28.6153 150.673 27.475 148.654 27.475ZM148.442 33.7742C147.867 33.7742 147.067 33.496 147.067 32.8006C147.067 31.9109 148.065 31.5695 148.929 31.5695C149.703 31.5695 150.065 31.7362 150.535 31.9557C150.397 33.0202 149.459 33.7742 148.442 33.7742ZM158.413 27.7268L156.394 32.7098H156.334L154.246 27.7268H152.352L155.488 34.6904L153.699 38.5653H155.534L160.367 27.7268H158.413ZM142.579 35.0812H144.34V23.5863H142.579V35.0812Z" fill="white"/>
</svg>
