<svg xmlns="http://www.w3.org/2000/svg" width="36" height="35" fill="none" viewBox="0 0 36 35"><path d="M17.694.322a1.04 1.04 0 0 1 1.505 0l2.139 2.268a1.04 1.04 0 0 0 1.13.251l2.934-1.136a1.029 1.029 0 0 1 1.356.637l.92 2.95c.123.395.483.675.905.705l3.15.218c.596.042 1.03.572.938 1.15l-.482 3.046a.991.991 0 0 0 .502 1.019l2.74 1.531c.52.29.674.951.336 1.433l-1.789 2.54c-.24.341-.24.79 0 1.132l1.788 2.54a.986.986 0 0 1-.334 1.433l-2.74 1.531a.991.991 0 0 0-.503 1.02l.482 3.046a1.005 1.005 0 0 1-.938 1.149l-3.15.218c-.422.03-.782.31-.906.706l-.919 2.949c-.174.559-.8.853-1.356.637l-2.935-1.137a1.04 1.04 0 0 0-1.13.252L19.2 34.678c-.405.43-1.1.43-1.505 0l-2.139-2.268a1.04 1.04 0 0 0-1.13-.252l-2.934 1.137a1.029 1.029 0 0 1-1.356-.637l-.92-2.95a1.018 1.018 0 0 0-.905-.704l-3.15-.22a1.005 1.005 0 0 1-.938-1.148l.482-3.047a.991.991 0 0 0-.502-1.019l-2.74-1.531a.985.985 0 0 1-.335-1.433l1.788-2.54a.98.98 0 0 0 0-1.132l-1.788-2.54a.985.985 0 0 1 .334-1.433l2.74-1.531a.991.991 0 0 0 .503-1.02l-.482-3.046c-.091-.577.342-1.107.938-1.149l3.15-.218c.422-.03.782-.31.906-.706l.92-2.949c.173-.559.799-.853 1.355-.637l2.935 1.136a1.04 1.04 0 0 0 1.13-.251L17.693.322Z"/></svg>