<svg width="21" height="21" viewBox="0 0 21 21" fill="none" xmlns="http://www.w3.org/2000/svg">
<path fill-rule="evenodd" clip-rule="evenodd" d="M18.091 11.4916C17.871 11.4916 17.641 11.4216 17.421 11.3716C16.9755 11.2734 16.5377 11.1431 16.111 10.9816C15.1503 10.6321 14.0806 11.0634 13.631 11.9816L13.411 12.4316C12.437 11.8897 11.542 11.2168 10.751 10.4316C9.96577 9.64059 9.29282 8.74557 8.751 7.77157L9.171 7.49157C10.0892 7.042 10.5205 5.97232 10.171 5.01157C10.0122 4.58399 9.88194 4.14637 9.781 3.70157C9.731 3.48157 9.691 3.25157 9.661 3.02157C9.41012 1.56634 8.13754 0.510104 6.661 0.531571H3.661C2.78894 0.523383 1.95648 0.89508 1.38043 1.54985C0.804382 2.20463 0.541774 3.07766 0.660999 3.94157C1.75693 12.5598 8.55881 19.337 17.181 20.4016H17.561C18.2984 20.4027 19.0104 20.1321 19.561 19.6416C20.2009 19.0692 20.565 18.2501 20.561 17.3916V14.3916C20.5357 12.9591 19.5012 11.7445 18.091 11.4916ZM18.599 17.4822C18.5987 17.7694 18.4748 18.0426 18.259 18.2322C18.0331 18.4273 17.7354 18.5181 17.439 18.4822C9.73505 17.4944 3.68023 11.4108 2.72902 3.70222C2.69686 3.40621 2.78719 3.10993 2.97902 2.88222C3.16859 2.66643 3.44179 2.54258 3.72902 2.54222H6.72902C7.20871 2.53154 7.62838 2.86308 7.72902 3.33222C7.76902 3.60555 7.81902 3.87555 7.87902 4.14222C7.99454 4.66936 8.14828 5.1874 8.33902 5.69222L6.93902 6.34222C6.69726 6.45314 6.50965 6.65581 6.41769 6.90541C6.32573 7.15501 6.33701 7.43095 6.44902 7.67222C7.88822 10.755 10.3663 13.233 13.449 14.6722C13.6925 14.7722 13.9656 14.7722 14.209 14.6722C14.4609 14.5821 14.6662 14.3948 14.779 14.1522L15.399 12.7522C15.916 12.9371 16.4436 13.0907 16.979 13.2122C17.2457 13.2722 17.5157 13.3222 17.789 13.3622C18.2582 13.4629 18.5897 13.8825 18.579 14.3622L18.599 17.4822Z" fill="#7C94DE"/>
</svg>
