<svg width="21" height="21" viewBox="0 0 21 21" fill="none" xmlns="http://www.w3.org/2000/svg">
<path fill-rule="evenodd" clip-rule="evenodd" d="M10.668 0.515625C5.14512 0.515625 0.667969 4.99278 0.667969 10.5156C0.667969 16.0385 5.14512 20.5156 10.668 20.5156C16.1908 20.5156 20.668 16.0385 20.668 10.5156C20.668 7.86346 19.6144 5.31992 17.739 3.44456C15.8637 1.56919 13.3201 0.515625 10.668 0.515625ZM11.668 18.4457V17.5157C11.668 16.9634 11.2203 16.5157 10.668 16.5157C10.1157 16.5157 9.66802 16.9634 9.66802 17.5157V18.4457C6.04783 17.9866 3.1971 15.1359 2.73802 11.5157H3.66802C4.2203 11.5157 4.66802 11.068 4.66802 10.5157C4.66802 9.96339 4.2203 9.51567 3.66802 9.51567H2.73802C3.1971 5.89548 6.04783 3.04476 9.66802 2.58567V3.51567C9.66802 4.06796 10.1157 4.51567 10.668 4.51567C11.2203 4.51567 11.668 4.06796 11.668 3.51567V2.58567C15.2882 3.04476 18.1389 5.89548 18.598 9.51567H17.668C17.1157 9.51567 16.668 9.96339 16.668 10.5157C16.668 11.068 17.1157 11.5157 17.668 11.5157H18.598C18.1389 15.1359 15.2882 17.9866 11.668 18.4457ZM13.8016 6.06602L8.80161 8.18602C8.56852 8.28702 8.3826 8.47294 8.2816 8.70602L6.1616 13.706C6.00048 14.0812 6.08361 14.5166 6.3716 14.806C6.55624 14.9944 6.80784 15.1023 7.07161 15.106C7.20997 15.1062 7.34663 15.0754 7.4716 15.016L12.4716 12.896C12.7047 12.795 12.8906 12.6091 12.9916 12.376L15.1116 7.37602C15.2697 7.0012 15.1849 6.56797 14.8973 6.28033C14.6097 5.99268 14.1764 5.90795 13.8016 6.06602ZM11.3139 11.1615L9.03386 12.1615L10.0339 9.88152L12.3139 8.88152L11.3139 11.1615Z" fill="#7C94DE"/>
</svg>
