<svg width="18" height="23" viewBox="0 0 18 23" fill="none" xmlns="http://www.w3.org/2000/svg">
<path fill-rule="evenodd" clip-rule="evenodd" d="M8.99479 0.773438C4.20832 0.773437 0.328125 4.65364 0.328125 9.4401C0.328125 15.2901 7.96563 21.8984 8.29063 22.1801C8.69604 22.5269 9.29355 22.5269 9.69896 22.1801C10.0781 21.8984 17.6615 15.2901 17.6615 9.4401C17.6615 4.65364 13.7813 0.773438 8.99479 0.773438ZM8.99706 19.8965C6.68956 17.7299 2.49706 13.0607 2.49706 9.44237C2.49706 5.85252 5.40721 2.94237 8.99706 2.94237C12.5869 2.94237 15.4971 5.85252 15.4971 9.44237C15.4971 13.0607 11.3046 17.7407 8.99706 19.8965ZM8.99933 5.11131C6.60609 5.11131 4.66599 7.05141 4.66599 9.44464C4.66599 11.8379 6.60609 13.778 8.99933 13.778C11.3926 13.778 13.3327 11.8379 13.3327 9.44464C13.3327 7.05141 11.3926 5.11131 8.99933 5.11131ZM8.995 11.607C7.79839 11.607 6.82834 10.6369 6.82834 9.44032C6.82834 8.2437 7.79839 7.27365 8.995 7.27365C10.1916 7.27365 11.1617 8.2437 11.1617 9.44032C11.1617 10.6369 10.1916 11.607 8.995 11.607Z" fill="#7C94DE"/>
</svg>
