<svg width="15" height="16" viewBox="0 0 15 16" fill="none" xmlns="http://www.w3.org/2000/svg">
<path d="M14.1261 12.2042L11.8945 9.9673C11.45 9.52359 10.7139 9.53707 10.254 9.99825L9.12968 11.1248C9.05865 11.0856 8.98513 11.0446 8.90783 11.0011C8.19786 10.6069 7.22614 10.0665 6.20361 9.04085C5.17805 8.01309 4.63837 7.03768 4.24378 6.32564C4.20214 6.2502 4.16225 6.17747 4.12285 6.1084L4.87741 5.35326L5.24838 4.98099C5.70906 4.51914 5.72176 3.7816 5.27831 3.3366L3.04672 1.09946C2.60327 0.655088 1.86686 0.668569 1.40618 1.13042L0.777239 1.7644L0.794426 1.7815C0.583535 2.0512 0.407308 2.36227 0.276165 2.69771C0.155277 3.01701 0.0800118 3.32171 0.0455968 3.62703C-0.249069 6.07541 0.867241 8.31305 3.89676 11.3495C8.08449 15.5464 11.4592 15.2293 11.6048 15.2139C11.9219 15.1759 12.2258 15.0999 12.5346 14.9797C12.8664 14.8498 13.1765 14.6735 13.4455 14.4625L13.4592 14.4748L14.0964 13.8495C14.5561 13.3877 14.5693 12.6499 14.1261 12.2042Z" fill="#F7F9FD"/>
</svg>
