<svg width="24" height="24" viewBox="0 0 24 24" fill="none" xmlns="http://www.w3.org/2000/svg">
<path fill-rule="evenodd" clip-rule="evenodd" d="M13.008 2.90498C13.011 2.3527 12.5658 1.9025 12.0135 1.89943C11.4613 1.89636 11.0111 2.34158 11.008 2.89385L10.9626 11.0486L3.01006 11.0928C2.45779 11.0959 2.01257 11.5461 2.01564 12.0984C2.01871 12.6506 2.46891 13.0959 3.02119 13.0928L10.9515 13.0487L10.9074 20.979C10.9043 21.5313 11.3495 21.9815 11.9018 21.9845C12.4541 21.9876 12.9043 21.5424 12.9074 20.9901L12.9516 13.0375L21.1063 12.9922C21.6586 12.9891 22.1038 12.5389 22.1008 11.9866C22.0977 11.4344 21.6475 10.9891 21.0952 10.9922L12.9627 11.0375L13.008 2.90498Z" fill="#181940"/>
</svg>
