<svg width="48" height="48" viewBox="0 0 48 48" fill="none" xmlns="http://www.w3.org/2000/svg">
<ellipse cx="24" cy="23.9987" rx="24" ry="23.9987" fill="#ED131C"/>
<path d="M24 37.7686C22.515 37.7686 21.0806 37.5379 19.6969 37.0767C18.3131 36.6154 17.0475 35.9461 15.9 35.0686L17.8575 33.1111C18.8025 33.7636 19.7925 34.2529 20.8275 34.5792C21.8625 34.9054 22.92 35.0686 24 35.0686C26.9925 35.0686 29.5406 34.0167 31.6444 31.9129C33.7481 29.8092 34.8 27.2611 34.8 24.2686C34.8 21.2761 33.7481 18.7279 31.6444 16.6242C29.5406 14.5204 26.9925 13.4686 24 13.4686C21.0075 13.4686 18.4594 14.5204 16.3556 16.6242C14.2519 18.7279 13.2 21.2761 13.2 24.2686H10.5C10.5 22.4011 10.8544 20.6461 11.5631 19.0036C12.2719 17.3611 13.2338 15.9323 14.4488 14.7173C15.6638 13.5023 17.0925 12.5404 18.735 11.8317C20.3775 11.1229 22.1325 10.7686 24 10.7686C25.8675 10.7686 27.6169 11.1229 29.2481 11.8317C30.8794 12.5404 32.3081 13.5079 33.5344 14.7342C34.7606 15.9604 35.7281 17.3892 36.4369 19.0204C37.1456 20.6517 37.5 22.4011 37.5 24.2686C37.5 26.1136 37.1456 27.8573 36.4369 29.4998C35.7281 31.1423 34.7606 32.5767 33.5344 33.8029C32.3081 35.0292 30.8794 35.9967 29.2481 36.7054C27.6169 37.4142 25.8675 37.7686 24 37.7686ZM13.1662 32.2673L18.6675 26.7661L22.7175 30.1411L29.4 23.4586V26.9686H32.1V18.8686H24V21.5686H27.51L22.5825 26.4961L18.5325 23.1211L11.7488 29.9048C11.9963 30.4223 12.2156 30.8442 12.4069 31.1704C12.5981 31.4967 12.8513 31.8623 13.1662 32.2673Z" fill="white"/>
</svg>
