<svg width="48" height="48" viewBox="0 0 48 48" fill="none" xmlns="http://www.w3.org/2000/svg">
<circle cx="24" cy="24" r="24" fill="white"/>
<path d="M13.8075 37.3332C12.9437 37.3332 12.2043 37.0117 11.5892 36.3688C10.9741 35.7258 10.6665 34.9529 10.6665 34.0501V19.6447C10.6665 18.7419 10.9741 17.969 11.5892 17.326C12.2043 16.6831 12.9437 16.3616 13.8075 16.3616H16.9486V13.9425C16.9486 13.0377 17.2561 12.2655 17.8712 11.6259C18.4863 10.9863 19.2258 10.6665 20.0896 10.6665H27.9101C28.7739 10.6665 29.5133 10.988 30.1285 11.6309C30.7436 12.2738 31.0511 13.0467 31.0511 13.9496V16.3616H34.1921C35.0559 16.3616 35.7954 16.6831 36.4105 17.326C37.0256 17.969 37.3332 18.7419 37.3332 19.6447V34.0501C37.3332 34.9529 37.0256 35.7258 36.4105 36.3688C35.7954 37.0117 35.0559 37.3332 34.1921 37.3332H13.8075ZM20.0896 16.3616H27.9101V13.9496H20.0896V16.3616ZM34.1921 29.494H28.7114V32.7771H19.2883V29.494H13.8075V34.0501H34.1921V29.494ZM22.4293 29.494H25.5704V26.2109H22.4293V29.494ZM13.8075 26.2109H19.2883V22.9278H28.7114V26.2109H34.1921V19.6447H13.8075V26.2109Z" fill="#1C1C1C"/>
</svg>
