<svg width="48" height="48" viewBox="0 0 48 48" fill="none" xmlns="http://www.w3.org/2000/svg">
<circle cx="24" cy="24" r="24" fill="white"/>
<path d="M23.9837 36C20.6125 36 17.7724 35.4434 15.4634 34.3301C13.1545 33.2168 12 31.8547 12 30.2439V17.7561C12 16.1518 13.1653 14.7913 15.4959 13.6748C17.8266 12.5583 20.6558 12 23.9837 12C27.2683 12 30.0921 12.5637 32.4553 13.6911C34.8184 14.8184 36 16.1734 36 17.7561V30.2439C36 31.8547 34.8293 33.2168 32.4878 34.3301C30.1463 35.4434 27.3117 36 23.9837 36ZM23.9989 19.7724C25.7557 19.7724 27.4743 19.5556 29.1545 19.122C30.8347 18.6883 32.0108 18.1463 32.6829 17.4959C32.0325 16.8672 30.8455 16.3252 29.122 15.8699C27.3984 15.4146 25.6908 15.187 23.9991 15.187C22.2436 15.187 20.5041 15.4146 18.7805 15.8699C17.0569 16.3252 15.9024 16.8672 15.3171 17.4959C15.9241 18.1463 17.0623 18.6883 18.7317 19.122C20.4011 19.5556 22.1568 19.7724 23.9989 19.7724ZM24 26.3089C24.8238 26.3089 25.6423 26.2493 26.4553 26.1301C27.2683 26.0108 28.0542 25.8374 28.813 25.6098C29.5718 25.3821 30.2873 25.1003 30.9593 24.7642C31.6314 24.4282 32.2493 24.0434 32.813 23.6098V20.9106C32.2006 21.2406 31.5434 21.5345 30.8415 21.7922C30.1396 22.05 29.411 22.2694 28.6559 22.4503C27.9007 22.6313 27.1256 22.7668 26.3307 22.8568C25.5357 22.9469 24.7534 22.9919 23.9838 22.9919C23.1708 22.9919 22.3674 22.9469 21.5736 22.8568C20.7797 22.7668 20.01 22.6313 19.2646 22.4503C18.5191 22.2694 17.7995 22.0488 17.1057 21.7886C16.4119 21.5285 15.7724 21.2358 15.187 20.9106V23.6098C15.8464 24.0638 16.5207 24.4592 17.21 24.7958C17.8993 25.1325 18.6125 25.4092 19.3496 25.626C20.0867 25.8428 20.8401 26.0108 21.6098 26.1301C22.3794 26.2493 23.1762 26.3089 24 26.3089ZM24.0104 32.813C24.9495 32.813 25.9094 32.7383 26.8901 32.5888C27.8707 32.4393 28.7748 32.2452 29.6023 32.0066C30.4298 31.768 31.1354 31.4943 31.7192 31.1854C32.3029 30.8765 32.6676 30.5627 32.813 30.2439V27.3496C32.1572 27.6796 31.4676 27.9789 30.7439 28.2475C30.0203 28.5161 29.2755 28.7409 28.5095 28.9219C27.7435 29.1029 26.9793 29.2438 26.2168 29.3447C25.4544 29.4455 24.71 29.4959 23.9838 29.4959C23.2576 29.4959 22.5409 29.4509 21.8337 29.3609C21.1266 29.2709 20.4057 29.1408 19.6711 28.9707C18.9364 28.8005 18.1951 28.5799 17.4472 28.3089C16.6992 28.0379 15.9458 27.7182 15.187 27.3496V30.3089C15.3171 30.6125 15.6694 30.916 16.2439 31.2195C16.8184 31.523 17.5176 31.7886 18.3415 32.0163C19.1653 32.2439 20.0759 32.4336 21.0732 32.5854C22.0705 32.7371 23.0495 32.813 24.0104 32.813Z" fill="#1C1C1C"/>
</svg>
