<svg xmlns="http://www.w3.org/2000/svg" xml:space="preserve" width="14" height="14" viewBox="0 0 14 14"><path fill="currentColor" d="M7.871 10.487a.67.67 0 0 1-.001.947l-1.386 1.387c-.709.706-1.651 1.095-2.651 1.095s-1.942-.389-2.651-1.094a3.758 3.758 0 0 1 0-5.306l1.98-1.979a3.726 3.726 0 0 1 2.652-1.098c1.002 0 1.944.39 2.652 1.098a.673.673 0 0 1 0 .949.686.686 0 0 1-.948 0c-.91-.908-2.496-.908-3.406 0L2.129 8.467a2.42 2.42 0 0 0 .008 3.268 2.417 2.417 0 0 0 1.769.772c.609 0 1.19-.229 1.637-.643l1.379-1.379a.684.684 0 0 1 .949.002zm4.939-9.314A3.722 3.722 0 0 0 10.167.082a3.714 3.714 0 0 0-2.65 1.101L6.131 2.57a.667.667 0 0 0-.001.948.685.685 0 0 0 .949 0l1.393-1.395a2.447 2.447 0 0 1 2.669-.598c.33.133.621.334.864.596a2.417 2.417 0 0 1-.136 3.415L9.89 7.519c-.911.908-2.496.907-3.406.001a.683.683 0 0 0-.948-.003.66.66 0 0 0-.198.474c0 .18.069.348.196.475.709.707 1.651 1.096 2.652 1.096s1.942-.389 2.651-1.096l1.981-1.98a3.759 3.759 0 0 0-.008-5.313z"/></svg>
