<svg width="41" height="41" viewBox="0 0 41 41" fill="none" xmlns="http://www.w3.org/2000/svg">
    <ellipse cx="20.0117" cy="20.0107" rx="20.0117" ry="20.0107" fill="#ED131C"/>
    <path d="M20.0104 20.1659C20.6741 20.1659 21.2367 19.9352 21.6982 19.4736C22.1598 19.0121 22.3905 18.4495 22.3905 17.7858C22.3905 17.1221 22.1598 16.5595 21.6982 16.0979C21.2367 15.6364 20.6741 15.4056 20.0104 15.4056C19.3467 15.4056 18.7841 15.6364 18.3225 16.0979C17.861 16.5595 17.6302 17.1221 17.6302 17.7858C17.6302 18.4495 17.861 19.0121 18.3225 19.4736C18.7841 19.9352 19.3467 20.1659 20.0104 20.1659ZM20.0104 27.7546C22.1972 25.7635 23.8241 23.9858 24.8909 22.4216C25.9577 20.8574 26.4912 19.3653 26.4912 17.9453C26.4912 15.9996 25.8655 14.4065 24.6143 13.1659C23.363 11.9253 21.8282 11.305 20.0098 11.305C18.1915 11.305 16.6568 11.9253 15.406 13.1659C14.1551 14.4065 13.5296 15.9996 13.5296 17.9453C13.5296 19.3653 14.063 20.8548 15.1299 22.4138C16.1967 23.9728 17.8236 25.753 20.0104 27.7546ZM20.0104 31.6584C16.8602 29.0156 14.5016 26.5928 12.9345 24.3898C11.3675 22.1869 10.584 20.0387 10.584 17.9453C10.584 15.0227 11.5315 12.6944 13.4266 10.9604C15.3217 9.22639 17.5163 8.35938 20.0104 8.35938C22.5045 8.35938 24.699 9.22639 26.5942 10.9604C28.4892 12.6944 29.4368 15.0227 29.4368 17.9453C29.4368 20.0387 28.6533 22.1869 27.0862 24.3898C25.5192 26.5928 23.1606 29.0156 20.0104 31.6584Z" fill="white"/>
</svg>
