<svg xmlns="http://www.w3.org/2000/svg" width="240" height="264" viewBox="0 0 240 264" xml:space="preserve"><path fill="currentColor" d="m247.569-13.326-.076-.252-12.959-6.281-.008-.025-.029.007-.028-.014L-.001 35.863l62.678 207.509.163.541.071-.017.005.019 12.873 6.33 234.554-55.752-62.774-207.819zM1.516 36.736l232.188-55.19 62.146 205.747-232.093 55.168L1.516 36.736zm63.205 206.73 232.647-55.301-62.363-206.462 11.492 5.57 62.327 206.347-232.893 55.358-11.21-5.512zM213.82 26.306l-.348-1.151-2.315-7.665-.338-1.115L41.788 56.553l-.483.115-.339.081.113.374.148.491L86.21 206.538l.336 1.116 10.321-2.453 1.17-.278 157.161-37.356 1.203-.288L213.82 26.306zm-3.855-8.494.034-.008 2.305 7.629L54.586 62.922l-11.12-5.534 166.499-39.576zM87.401 206.216l-.033.009L42.701 58.348l11.506 5.726.02-.039L96.52 204.049l-9.119 2.167zm10.288-2.445L55.456 63.949l157.196-37.365 42.232 139.823-157.195 37.364zm94.027-70.056-30.197-15.506-.018-.009 17.595-26.266-12.62-41.781-12.906-6.108-.054-.176-.076.115-.038-.018-51.855 79.123 89.659 45.554-.082-.272 13.055 6.6-12.463-41.256zm-31.456-15.819-11.714-6.015-.018-.009 17.17-25.633 11.826 5.885-17.264 25.772zm5.221-66.886 12.009 39.756-11.545-5.745-11.908-39.427 11.444 5.416zM103.75 122.5l49.409-75.658 11.556 38.255.095.313-.194.29-17.835 26.624 30.961 15.897 11.404 37.753L103.75 122.5zm86.877 44.229-11.521-38.141 11.608 5.961 11.503 38.08-11.59-5.9z"/></svg>
