<svg width="24" height="24" viewBox="0 0 24 24" fill="none" xmlns="http://www.w3.org/2000/svg">
<path d="M10.0004 4.00002C6.68668 4.00002 4.00039 6.68632 4.00039 10C4.00039 13.3137 6.68668 16 10.0004 16C13.3141 16 16.0004 13.3137 16.0004 10C16.0004 6.68632 13.3141 4.00002 10.0004 4.00002ZM2.00039 10C2.00039 5.58175 5.58211 2.00002 10.0004 2.00002C14.4187 2.00002 18.0004 5.58175 18.0004 10C18.0004 11.8487 17.3733 13.551 16.3202 14.9057L21.7075 20.2929C22.098 20.6834 22.098 21.3166 21.7075 21.7071C21.317 22.0977 20.6838 22.0977 20.2933 21.7071L14.906 16.3199C13.5514 17.3729 11.8491 18 10.0004 18C5.58211 18 2.00039 14.4183 2.00039 10Z" fill="currentColor"/>
<path fill-rule="evenodd" clip-rule="evenodd" d="M1.90039 10C1.90039 5.52652 5.52689 1.90002 10.0004 1.90002C14.4739 1.90002 18.1004 5.52652 18.1004 10C18.1004 11.84 17.4868 13.537 16.453 14.897L21.7782 20.2222C22.2078 20.6518 22.2078 21.3483 21.7782 21.7778C21.3486 22.2074 20.6522 22.2074 20.2226 21.7778L14.8974 16.4527C13.5373 17.4864 11.8404 18.1 10.0004 18.1C5.52689 18.1 1.90039 14.4735 1.90039 10ZM10.0004 2.10002C5.63734 2.10002 2.10039 5.63698 2.10039 10C2.10039 14.3631 5.63734 17.9 10.0004 17.9C11.8261 17.9 13.5069 17.2808 14.8447 16.2409C14.8845 16.21 14.9411 16.2135 14.9767 16.2492L20.364 21.6364C20.7155 21.9879 21.2853 21.9879 21.6368 21.6364C21.9883 21.2849 21.9883 20.7151 21.6368 20.3636L16.2495 14.9764C16.2139 14.9407 16.2104 14.8841 16.2413 14.8443C17.2812 13.5065 17.9004 11.8257 17.9004 10C17.9004 5.63698 14.3634 2.10002 10.0004 2.10002ZM10.0004 4.10002C6.74191 4.10002 4.10039 6.74154 4.10039 10C4.10039 13.2585 6.74191 15.9 10.0004 15.9C13.2589 15.9 15.9004 13.2585 15.9004 10C15.9004 6.74154 13.2589 4.10002 10.0004 4.10002ZM3.90039 10C3.90039 6.63109 6.63145 3.90002 10.0004 3.90002C13.3693 3.90002 16.1004 6.63109 16.1004 10C16.1004 13.369 13.3693 16.1 10.0004 16.1C6.63145 16.1 3.90039 13.369 3.90039 10Z" fill="currentColor"/>
</svg>
