<svg xmlns="http://www.w3.org/2000/svg" xml:space="preserve" width="32" height="32" viewBox="0 0 32 32"><path fill="#FF0A47" d="M13.2 15.2H7.6c-1.103 0-2-.897-2-2V7.6c0-1.103.897-2 2-2h5.6c1.103 0 2 .897 2 2v5.6c0 1.102-.897 2-2 2zM7.6 7c-.33 0-.6.269-.6.6v5.6a.6.6 0 0 0 .6.6h5.6a.6.6 0 0 0 .6-.6V7.6a.6.6 0 0 0-.6-.6H7.6zm5.6 19.399H7.6c-1.103 0-2-.896-2-1.999v-5.6c0-1.103.897-2 2-2h5.6c1.103 0 2 .897 2 2v5.6a2.001 2.001 0 0 1-2 1.999zM7.6 18.2c-.33 0-.6.269-.6.6v5.6a.6.6 0 0 0 .6.599h5.6a.6.6 0 0 0 .6-.599v-5.6a.6.6 0 0 0-.6-.6H7.6zm16.8-3h-5.6c-1.103 0-2-.897-2-2V7.6c0-1.103.897-2 2-2h5.6c1.103 0 1.999.897 1.999 2v5.6c0 1.102-.896 2-1.999 2zM18.8 7a.6.6 0 0 0-.6.6v5.6a.6.6 0 0 0 .6.6h5.6a.6.6 0 0 0 .599-.6V7.6A.6.6 0 0 0 24.4 7h-5.6zm5.6 19.399h-5.6c-1.103 0-2-.896-2-1.999v-5.6c0-1.103.897-2 2-2h5.6c1.103 0 1.999.897 1.999 2v5.6a2 2 0 0 1-1.999 1.999zM18.8 18.2a.6.6 0 0 0-.6.6v5.6a.6.6 0 0 0 .6.599h5.6a.6.6 0 0 0 .599-.599v-5.6a.6.6 0 0 0-.599-.6h-5.6z"/></svg>
