<svg xmlns="http://www.w3.org/2000/svg" fill="none" viewBox="0 0 35 36"><mask id="a" width="35" height="36" x="0" y="0" maskUnits="userSpaceOnUse" style="mask-type:alpha"><path fill="currentColor" d="M0 .5h35v35H0z"/></mask><g mask="url(#a)"><path fill="currentColor" fill-rule="evenodd" d="M4.6 30.89A3.65 3.65 0 0 0 7.29 32H27.8c1.06 0 1.97-.37 2.7-1.11a3.69 3.69 0 0 0 1.12-2.7V7.5c0-1.07-.37-1.98-1.11-2.72a3.67 3.67 0 0 0-2.7-1.12H7.28c-1.06 0-1.96.37-2.7 1.12A3.73 3.73 0 0 0 3.5 7.5v20.67a3.7 3.7 0 0 0 1.1 2.7Zm18.16-18.2-6.43 6.07-2.35-2.2a2.3 2.3 0 0 0-1.73-.72c-.68 0-1.26.23-1.74.7-.47.48-.7 1.02-.7 1.65.02.63.26 1.14.74 1.55l4.06 3.91c.45.45 1.01.67 1.7.67.68 0 1.26-.22 1.74-.67l8.09-7.67c.5-.45.75-1 .75-1.65 0-.65-.25-1.2-.75-1.64a2.6 2.6 0 0 0-3.38 0Z" clip-rule="evenodd"/></g></svg>