<svg xmlns="http://www.w3.org/2000/svg" fill="none" viewBox="0 0 35 36"><mask id="a" width="35" height="36" x="0" y="0" maskUnits="userSpaceOnUse" style="mask-type:alpha"><path fill="currentColor" d="M0 .5h35v35H0z"/></mask><g fill="currentColor" mask="url(#a)"><path d="M3.33 8.45c0-1.07.38-1.99 1.13-2.74a3.7 3.7 0 0 1 2.72-1.14H8.8v-.81c0-.44.17-.81.51-1.14.34-.33.73-.49 1.17-.49.47 0 .85.16 1.15.49.3.33.45.7.45 1.14v.8H22.9v-.8c0-.44.16-.81.48-1.14a1.6 1.6 0 0 1 1.18-.49c.46 0 .84.16 1.15.49.31.33.47.7.47 1.14v.8h1.61c1.07 0 1.99.39 2.74 1.15a3.74 3.74 0 0 1 1.14 2.74v1.62a.8.8 0 0 1-.8.79H4.13a.8.8 0 0 1-.79-.8V8.46Z"/><path fill-rule="evenodd" d="M30.86 14.03c.43 0 .79.36.79.8V29.9c0 2.2-1.78 3.97-3.97 3.97H7.3a3.97 3.97 0 0 1-3.96-3.97V14.83c0-.44.35-.8.8-.8h26.73Zm-13 3.93a.67.67 0 0 0-1.23 0L15.4 20.8c-.1.23-.31.38-.56.4l-3.08.3a.67.67 0 0 0-.38 1.17l2.32 2.05c.19.16.27.41.21.65l-.67 3.02a.67.67 0 0 0 1 .73l2.66-1.58a.67.67 0 0 1 .69 0l2.66 1.58a.67.67 0 0 0 1-.73l-.68-3.02a.67.67 0 0 1 .22-.65l2.32-2.05a.67.67 0 0 0-.38-1.17l-3.09-.3a.67.67 0 0 1-.55-.4l-1.23-2.84Z" clip-rule="evenodd"/></g></svg>