<svg xmlns="http://www.w3.org/2000/svg" xml:space="preserve" width="35px" height="35px" viewBox="0 0 35 35"><path fill="currentColor" d="m21.932 4.373-7.686 4.22h-5.44a6.692 6.692 0 0 0-4.564 1.806 7.074 7.074 0 0 0-2.208 4.492 7.158 7.158 0 0 0 1.291 4.857 6.787 6.787 0 0 0 4.122 2.71v5.04c0 .93.358 1.82.996 2.477A3.35 3.35 0 0 0 10.847 31c.901 0 1.766-.369 2.404-1.025a3.55 3.55 0 0 0 .995-2.476v-4.901l7.686 4.219C23.744 27.884 26 26.535 26 24.385V6.805c0-2.152-2.258-3.499-4.068-2.432zM28 10.464v12.072c0 1.387 1.463 2.024 2.152.85.271-.463.521-.95.748-1.462.732-1.652 1.1-3.46 1.1-5.424s-.367-3.772-1.1-5.424a15.01 15.01 0 0 0-.748-1.462c-.69-1.175-2.152-.537-2.152.85z"/></svg>
