<svg xmlns="http://www.w3.org/2000/svg" fill="none" viewBox="0 0 35 36"><mask id="a" width="35" height="36" x="0" y="0" maskUnits="userSpaceOnUse" style="mask-type:alpha"><path fill="currentColor" d="M0 .5h35v35H0z"/></mask><g mask="url(#a)"><path fill="currentColor" d="M17.5 20.02a4.15 4.15 0 0 1-1.8-.47L3.64 13.08a1.5 1.5 0 0 1-.78-.72 2.07 2.07 0 0 1 0-1.95c.16-.31.42-.55.78-.72l12.04-6.45c.28-.12.57-.22.9-.3.32-.1.63-.14.92-.14.3 0 .6.04.92.13l.9.3L31.38 9.7c.34.17.6.41.78.72a1.92 1.92 0 0 1 0 1.95c-.18.33-.44.57-.78.72l-12.05 6.45a4.83 4.83 0 0 1-1.84.48Zm0 3 11.91-6.34c.1-.09.36-.16.8-.22.51 0 .94.17 1.3.53.35.35.52.77.52 1.25 0 .34-.07.64-.23.93-.16.28-.4.5-.7.65l-11.77 6.3c-.29.17-.6.29-.92.36a4.17 4.17 0 0 1-1.84 0c-.31-.08-.6-.21-.88-.4L3.96 19.82c-.29-.15-.51-.37-.67-.65a1.9 1.9 0 0 1-.23-.93c0-.48.18-.9.52-1.25.35-.36.77-.53 1.28-.53a1.69 1.69 0 0 1 .83.24l11.81 6.32Zm0 6.57 11.91-6.34c.13-.1.4-.17.8-.18.51 0 .94.17 1.3.53.35.35.52.76.52 1.23 0 .33-.07.64-.23.92-.16.29-.4.5-.7.66l-11.77 6.28c-.29.17-.6.3-.92.37a4.17 4.17 0 0 1-1.84 0c-.31-.08-.6-.2-.88-.37L3.96 26.41c-.29-.15-.51-.37-.67-.66a1.9 1.9 0 0 1-.23-.92c0-.47.18-.88.52-1.23.35-.36.77-.53 1.28-.53a2.58 2.58 0 0 1 .83.22l11.81 6.3Z"/></g></svg>