<svg xmlns="http://www.w3.org/2000/svg" fill="none" viewBox="0 0 35 36"><mask id="a" width="35" height="36" x="0" y="0" maskUnits="userSpaceOnUse" style="mask-type:alpha"><path fill="#CACACB" d="M0 .5h35v35H0z"/></mask><g mask="url(#a)"><path fill="currentColor" d="M14.98 20.52v2.52c0 .7.25 1.3.74 1.79.49.48 1.08.73 1.78.73s1.3-.25 1.78-.73c.5-.5.73-1.09.73-1.79v-2.52h2.53c.7 0 1.3-.25 1.78-.74.5-.49.74-1.08.74-1.78s-.25-1.3-.74-1.78a2.43 2.43 0 0 0-1.78-.74h-2.52v-2.52c0-.7-.25-1.3-.74-1.79a2.43 2.43 0 0 0-1.79-.73c-.7 0-1.29.25-1.78.74a2.43 2.43 0 0 0-.73 1.78v2.52h-2.52c-.7 0-1.3.25-1.79.74A2.43 2.43 0 0 0 9.94 18c0 .7.25 1.3.73 1.79.5.48 1.09.73 1.79.73h2.52ZM7.17 32.15a3.68 3.68 0 0 1-2.7-1.12 3.68 3.68 0 0 1-1.12-2.7V7.67c0-1.07.37-1.98 1.11-2.72a3.67 3.67 0 0 1 2.71-1.12h20.66a3.7 3.7 0 0 1 2.72 1.12 3.7 3.7 0 0 1 1.12 2.72v20.66c0 1.06-.37 1.96-1.12 2.7a3.72 3.72 0 0 1-2.72 1.12H7.17Z"/></g></svg>