<svg xmlns="http://www.w3.org/2000/svg" fill="none" viewBox="0 0 35 35"><path xmlns="http://www.w3.org/2000/svg" fill="currentColor" d="M30.517 4.287c-.741-.746-1.643-1.119-2.704-1.119H7.286c-1.055 0-1.951.373-2.688 1.119-.736.746-1.104 1.653-1.104 2.723v20.671c0 1.063.368 1.965 1.104 2.707.736.741 1.632 1.112 2.688 1.112h20.527c1.062 0 1.963-.371 2.704-1.111.741-.742 1.111-1.645 1.111-2.707V7.01c0-1.07-.37-1.977-1.111-2.723zm-4.381 11.198l-8.091 7.667c-.472.445-1.051.669-1.736.669s-1.252-.224-1.702-.669l-4.053-3.914a1.975 1.975 0 01-.737-1.546c-.011-.627.222-1.176.697-1.646a2.377 2.377 0 011.737-.706 2.3 2.3 0 011.726.728l2.349 2.196 6.433-6.066c.468-.417 1.024-.625 1.669-.625s1.215.208 1.713.623c.498.444.748.99.748 1.638s-.252 1.197-.753 1.651z"/></svg>