<svg xmlns="http://www.w3.org/2000/svg" fill="none" viewBox="0 0 35 36"><mask id="a" width="35" height="36" x="0" y="0" maskUnits="userSpaceOnUse" style="mask-type:alpha"><path fill="currentColor" d="M0 .5h35v35H0z"/></mask><g mask="url(#a)"><path fill="currentColor" d="M10.55 2.46H8.02a3.7 3.7 0 0 0-3.7 3.7v23.68a3.7 3.7 0 0 0 3.7 3.7h18.96a3.7 3.7 0 0 0 3.7-3.7V6.16a3.7 3.7 0 0 0-3.7-3.7H17.3V22.5c0 .81-.77 1.03-1.08.3l-1.6-3.77a.74.74 0 0 0-1.36 0l-1.6 3.76c-.32.74-1.11.52-1.11-.29V2.46Z"/></g></svg>