<svg xmlns="http://www.w3.org/2000/svg" fill="none" viewBox="0 0 35 36"><mask id="a" width="35" height="36" x="0" y="0" maskUnits="userSpaceOnUse" style="mask-type:alpha"><path fill="currentColor" d="M0 .5h35v35H0z"/></mask><g fill="currentColor" mask="url(#a)"><path d="M16.9 21.12c.5.24 1.08.24 1.58 0l15.23-7.57a.6.6 0 0 0 0-1.07L18.26 4.93a1.8 1.8 0 0 0-1.57 0l-15.4 7.54a.6.6 0 0 0 0 1.07l15.6 7.58Z"/><path d="M7.28 22.7c0 .78.1 2.48.57 3.1a12.01 12.01 0 0 0 19.02 0c.48-.62.8-2.32.8-3.1v-2.6a.6.6 0 0 0-.86-.53l-8.33 4.16a1.8 1.8 0 0 1-1.57.01l-8.77-4.23a.6.6 0 0 0-.86.54v2.65Z"/></g></svg>
