<svg width="35" height="35" viewBox="0 0 35 35" fill="none" xmlns="http://www.w3.org/2000/svg">
<path d="M6 5.42383C5.44772 5.42383 5 5.87154 5 6.42383V29.4238C5 29.9761 5.44772 30.4238 6 30.4238H29C29.5523 30.4238 30 29.9761 30 29.4238V6.42383C30 5.87154 29.5523 5.42383 29 5.42383H6ZM26.4286 25.8524C26.4286 26.4047 25.9809 26.8524 25.4286 26.8524H9.57143C9.01914 26.8524 8.57143 26.4047 8.57143 25.8524V9.99526C8.57143 9.44297 9.01914 8.99526 9.57143 8.99526H25.4286C25.9809 8.99526 26.4286 9.44297 26.4286 9.99526V25.8524Z" fill="currentColor"/>
<path d="M20.3841 20.8502C20.3841 20.5792 20.2741 20.3198 20.0793 20.1314L18.5502 18.6526C18.1399 18.2558 18.1444 17.5966 18.5601 17.2055L20.0694 15.7853C20.2702 15.5963 20.3841 15.3328 20.3841 15.057V12.8955C20.3841 12.0148 19.328 11.5641 18.6922 12.1735L13.4452 17.2019C13.0344 17.5955 13.0344 18.2522 13.4452 18.6458L18.6922 23.6742C19.328 24.2836 20.3841 23.8329 20.3841 22.9523V20.8502Z" fill="currentColor"/>
<path d="M6 5.42383C5.44772 5.42383 5 5.87154 5 6.42383V29.4238C5 29.9761 5.44772 30.4238 6 30.4238H29C29.5523 30.4238 30 29.9761 30 29.4238V6.42383C30 5.87154 29.5523 5.42383 29 5.42383H6ZM26.4286 25.8524C26.4286 26.4047 25.9809 26.8524 25.4286 26.8524H9.57143C9.01914 26.8524 8.57143 26.4047 8.57143 25.8524V9.99526C8.57143 9.44297 9.01914 8.99526 9.57143 8.99526H25.4286C25.9809 8.99526 26.4286 9.44297 26.4286 9.99526V25.8524Z" stroke="currentColor"/>
<path d="M20.3841 20.8502C20.3841 20.5792 20.2741 20.3198 20.0793 20.1314L18.5502 18.6526C18.1399 18.2558 18.1444 17.5966 18.5601 17.2055L20.0694 15.7853C20.2702 15.5963 20.3841 15.3328 20.3841 15.057V12.8955C20.3841 12.0148 19.328 11.5641 18.6922 12.1735L13.4452 17.2019C13.0344 17.5955 13.0344 18.2522 13.4452 18.6458L18.6922 23.6742C19.328 24.2836 20.3841 23.8329 20.3841 22.9523V20.8502Z" stroke="currentColor"/>
</svg>
