<svg xmlns="http://www.w3.org/2000/svg" fill="none" viewBox="0 0 35 36"><mask id="a" width="35" height="36" x="0" y="0" maskUnits="userSpaceOnUse" style="mask-type:alpha"><path fill="currentColor" d="M0 .5h35v35H0z"/></mask><g mask="url(#a)"><path fill="currentColor" d="M10.2 20.94c.46 0 .86-.16 1.18-.5.32-.32.48-.72.48-1.2 0-.47-.16-.86-.48-1.18a1.62 1.62 0 0 0-1.18-.47 1.61 1.61 0 0 0-1.65 1.66c0 .45.15.85.47 1.19.3.33.7.5 1.17.5Zm0-5.88c.46 0 .86-.16 1.18-.48.32-.32.48-.71.48-1.18 0-.45-.16-.84-.48-1.17-.32-.32-.71-.49-1.18-.49s-.87.16-1.18.49c-.32.32-.48.72-.48 1.18 0 .45.16.84.48 1.16.3.33.7.49 1.17.49Zm4.82 5.67h9.8c.4 0 .75-.14 1.03-.43.3-.29.44-.64.44-1.04 0-.45-.14-.81-.43-1.09-.28-.27-.63-.4-1.05-.4H15c-.42 0-.77.13-1.06.4-.3.27-.44.63-.44 1.07 0 .43.14.79.4 1.07.27.28.63.42 1.1.42Zm0-5.82h9.8c.4 0 .75-.14 1.03-.44.3-.29.44-.64.44-1.05 0-.46-.14-.82-.43-1.08-.28-.26-.63-.4-1.05-.4H15c-.42 0-.77.14-1.06.4-.3.27-.44.62-.44 1.06 0 .44.14.8.4 1.08.27.29.63.43 1.1.43Zm-9.3 14.36a3.72 3.72 0 0 1-2.74-1.14 3.72 3.72 0 0 1-1.13-2.73V7.67c0-1.07.38-1.99 1.13-2.75a3.71 3.71 0 0 1 2.73-1.14H29.3c1.07 0 1.99.38 2.75 1.14a3.75 3.75 0 0 1 1.14 2.75V25.4c0 1.07-.38 1.98-1.14 2.73a3.76 3.76 0 0 1-2.75 1.14H23.7v.98a1.93 1.93 0 0 1-1.94 1.94h-8.51c-.54 0-1-.18-1.38-.54a1.85 1.85 0 0 1-.57-1.4v-.98h-5.6Z"/></g></svg>