<svg xmlns="http://www.w3.org/2000/svg" fill="none" viewBox="0 0 35 36"><mask id="a" width="35" height="36" x="0" y="0" maskUnits="userSpaceOnUse" style="mask-type:alpha"><path fill="currentColor" d="M0 .5h35v35H0z"/></mask><g mask="url(#a)"><path fill="currentColor" d="m16.45 28.5-1.18-.04a13.76 13.76 0 0 1-9.05-4.34 12.73 12.73 0 0 1-3.67-9.06c0-3.69 1.37-6.83 4.11-9.44 2.74-2.6 6.05-3.9 9.92-3.9a13.9 13.9 0 0 1 9.72 3.86 13.2 13.2 0 0 1 3.98 9.5c0 3.49-1.05 6.65-3.14 9.48a28.31 28.31 0 0 1-7.79 7.18 1.91 1.91 0 0 1-1.9.01c-.27-.14-.5-.34-.68-.6a1.46 1.46 0 0 1-.26-.94l-.06-1.72Zm.16-5.09c.5 0 .92-.17 1.28-.52a1.66 1.66 0 0 0 0-2.45c-.36-.36-.8-.53-1.3-.53s-.92.17-1.3.52a1.64 1.64 0 0 0 0 2.46c.37.35.81.52 1.32.52Zm-3.6-11.46c.33.13.67.12 1 0 .33-.13.64-.34.93-.63.19-.22.43-.4.72-.53.3-.13.64-.2 1.05-.2.43 0 .83.13 1.19.37.36.25.54.59.54 1.03 0 .36-.12.75-.36 1.17-.24.42-.6.86-1.08 1.31A8.53 8.53 0 0 0 15.66 16c-.3.48-.46.86-.46 1.16 0 .33.12.64.37.9.26.28.56.41.93.41.32 0 .6-.1.86-.3.25-.2.44-.44.59-.7l.49-.82c.16-.27.39-.57.68-.89.78-.83 1.32-1.52 1.63-2.07.3-.56.46-1.16.46-1.8 0-1.16-.42-2.1-1.24-2.81A4.53 4.53 0 0 0 16.89 8c-.8 0-1.61.17-2.45.5-.84.33-1.43.8-1.78 1.42a1.6 1.6 0 0 0-.3 1.2c.06.42.28.7.65.83Z"/></g></svg>