<svg xmlns="http://www.w3.org/2000/svg" fill="none" viewBox="0 0 35 36"><mask id="a" width="35" height="36" x="0" y="0" maskUnits="userSpaceOnUse" style="mask-type:alpha"><path fill="currentColor" d="M0 .5h35v35H0z"/></mask><g mask="url(#a)"><path fill="currentColor" d="M17.5 24.66c1.17 0 2.2-.35 3.12-1.06.9-.7 1.57-1.59 1.98-2.66H12.4a6.07 6.07 0 0 0 1.98 2.66c.91.7 1.95 1.06 3.12 1.06Zm-3.65-5.83c.61 0 1.13-.22 1.55-.64.43-.43.64-.94.64-1.55 0-.6-.21-1.1-.64-1.54a2.09 2.09 0 0 0-1.55-.65c-.6 0-1.12.22-1.54.65-.43.44-.64.95-.64 1.54 0 .6.21 1.12.63 1.55.43.42.95.64 1.55.64Zm7.3 0c.6 0 1.12-.22 1.55-.64.42-.43.63-.94.63-1.55 0-.6-.2-1.1-.63-1.54a2.09 2.09 0 0 0-1.55-.65c-.61 0-1.13.22-1.55.65-.43.44-.64.95-.64 1.54 0 .6.21 1.12.64 1.55.42.42.94.64 1.55.64ZM10.58 9.1l4.22-5.47c.33-.45.73-.79 1.2-1a3.55 3.55 0 0 1 3 0c.48.21.9.55 1.23 1l4.22 5.47 6.4 2.15c.74.24 1.31.68 1.7 1.3a3.67 3.67 0 0 1 .46 3.04c-.09.36-.24.69-.46.99l-4.08 5.84.15 6.2c0 1-.36 1.84-1.08 2.5a3.62 3.62 0 0 1-3.3.94L17.5 30.2l-6.72 1.87a5.54 5.54 0 0 1-.83.11c-.95 0-1.78-.34-2.5-1.04a3.29 3.29 0 0 1-1.03-2.54l.14-6.18-4.09-5.84a2.84 2.84 0 0 1-.5-1.02 4.28 4.28 0 0 1-.12-1.01c0-.75.2-1.43.6-2.05.4-.62.99-1.03 1.77-1.24l6.36-2.15Z"/></g></svg>