<svg xmlns="http://www.w3.org/2000/svg" fill="none" viewBox="0 0 35 36"><mask id="a" width="35" height="36" x="0" y="0" maskUnits="userSpaceOnUse" style="mask-type:alpha"><path fill="currentColor" d="M0 .5h35v35H0z"/></mask><g mask="url(#a)"><path fill="currentColor" d="M14.64 8.17h5.7v-2.7h-5.7v2.7ZM6.15 32a3.5 3.5 0 0 1-2.63-1.15 3.87 3.87 0 0 1-1.09-2.76v-7.6h10.02v-.05c0 .58.18 1.05.53 1.42.34.37.79.55 1.32.55h6.43c.54 0 .99-.18 1.34-.55.35-.37.53-.84.53-1.42v.05h9.97v7.6c0 1.08-.37 2-1.1 2.76A3.53 3.53 0 0 1 28.83 32H6.15ZM2.43 20.49V12.1a3.9 3.9 0 0 1 1.1-2.78 3.48 3.48 0 0 1 2.62-1.15h4.77v-2.7c0-1.06.36-1.97 1.09-2.75a3.48 3.48 0 0 1 2.63-1.16h5.7c1.03 0 1.9.39 2.63 1.16.72.78 1.09 1.7 1.09 2.76v2.69h4.77c1.03 0 1.9.38 2.64 1.15a3.9 3.9 0 0 1 1.1 2.78v8.39H22.6v-.53c0-.56-.18-1.03-.53-1.4-.36-.36-.8-.54-1.35-.54H14.3c-.54 0-.98.18-1.33.55-.34.36-.52.83-.52 1.39v.53H2.43Z"/></g></svg>