<svg xmlns="http://www.w3.org/2000/svg" fill="none" viewBox="0 0 35 36"><mask id="a" width="35" height="36" x="0" y="0" maskUnits="userSpaceOnUse" style="mask-type:alpha"><path fill="currentColor" d="M0 .5h35v35H0z"/></mask><g mask="url(#a)"><path fill="currentColor" d="m9.47 14.62 6.41-10.45c.18-.3.42-.51.73-.67a1.98 1.98 0 0 1 2.59.67l6.45 10.45c.18.32.27.65.26 1 0 .35-.09.68-.23 1-.16.28-.4.52-.7.7-.3.17-.64.25-1 .25h-12.9c-.37 0-.7-.08-1.01-.26a1.5 1.5 0 0 1-.65-.7 2.15 2.15 0 0 1-.27-1c0-.34.1-.67.32-.99Zm17.06 19.9c-2.1 0-3.87-.71-5.3-2.15a7.21 7.21 0 0 1-2.16-5.3c0-2.1.72-3.89 2.16-5.35a7.17 7.17 0 0 1 5.3-2.19c2.1 0 3.88.73 5.32 2.19A7.31 7.31 0 0 1 34 27.05c0 2.09-.72 3.85-2.17 5.3a7.21 7.21 0 0 1-5.3 2.18ZM2 31.69v-9.5a1.92 1.92 0 0 1 1.97-1.94h9.5c.56 0 1.02.19 1.38.57.37.38.55.84.55 1.37v9.5a1.86 1.86 0 0 1-1.92 1.97h-9.5c-.6 0-1.07-.18-1.43-.54A1.93 1.93 0 0 1 2 31.68Z"/></g></svg>