<svg xmlns="http://www.w3.org/2000/svg" width="35" height="35" fill="none" viewBox="0 0 35 35"><path fill="currentColor" fill-rule="evenodd" d="M4.747 5.348a1.473 1.473 0 0 1 1.118-2.431h18.197a6.563 6.563 0 1 1 0 13.125H5.866a1.473 1.473 0 0 1-1.118-2.431l1.1-1.284a4.375 4.375 0 0 0 0-5.695l-1.1-1.284Zm-.372 18.715a6.562 6.562 0 0 1 6.563-6.563h18.197a1.473 1.473 0 0 1 1.118 2.431l-1.1 1.283a4.375 4.375 0 0 0 0 5.695l1.1 1.284a1.472 1.472 0 0 1-1.118 2.432H10.937a6.562 6.562 0 0 1-6.562-6.563Z" clip-rule="evenodd"/></svg>
