<svg xmlns="http://www.w3.org/2000/svg" fill="none" viewBox="0 0 35 36"><mask id="a" width="35" height="36" x="0" y="0" maskUnits="userSpaceOnUse" style="mask-type:alpha"><path fill="#CACACB" d="M0 .5h35v35H0z"/></mask><g mask="url(#a)"><path fill="currentColor" d="M4.81 28.33V15.01c0-.6.13-1.17.39-1.7.26-.54.63-.99 1.12-1.35l8.87-6.67a3.68 3.68 0 0 1 2.3-.78c.87 0 1.64.26 2.32.78l8.87 6.67a3.68 3.68 0 0 1 1.53 3.05v13.32c0 1.07-.37 1.98-1.11 2.71a3.73 3.73 0 0 1-2.73 1.1h-3.8c-.53 0-.98-.18-1.35-.55a1.84 1.84 0 0 1-.56-1.35v-7.66c0-.53-.19-.98-.56-1.35a1.84 1.84 0 0 0-1.35-.56h-2.5c-.53 0-.98.19-1.35.56-.37.37-.56.82-.56 1.35v7.66c0 .53-.19.98-.56 1.35-.37.37-.82.56-1.35.56h-3.8a3.69 3.69 0 0 1-2.71-1.1 3.69 3.69 0 0 1-1.1-2.72Z"/></g></svg>