<svg xmlns="http://www.w3.org/2000/svg" fill="none" viewBox="0 0 35 36"><path fill="currentColor" d="M7.8 30.6c-.8 0-1.4-.3-2-.8-.5-.6-.8-1.2-.8-2V8.4c0-.8.3-1.5.8-2 .6-.6 1.2-.8 2-.8h13.6c1 0 2 .4 2.8 1.1l4.6 4.6a4 4 0 0 1 1.2 2.9v13.6c0 .8-.3 1.4-.8 2-.6.5-1.2.8-2 .8H7.8Zm2.8-7c0 .8.6 1.4 1.3 1.4h11.2a1.4 1.4 0 0 0 0-2.8H11.9c-.7 0-1.3.7-1.3 1.4Zm0-11c0 .7.6 1.3 1.3 1.3h4.2a1.4 1.4 0 1 0 0-2.8H12c-.7 0-1.3.7-1.3 1.4Zm0 5.5c0 .7.6 1.4 1.3 1.4h11.2a1.4 1.4 0 0 0 0-2.8H11.9c-.7 0-1.3.6-1.3 1.4Z"/></svg>