<svg xmlns="http://www.w3.org/2000/svg" fill="none" viewBox="0 0 35 36"><mask id="a" width="35" height="36" x="0" y="0" maskUnits="userSpaceOnUse" style="mask-type:alpha"><path fill="currentColor" d="M0 .5h35v35H0z"/></mask><g fill="currentColor" mask="url(#a)"><rect width="29.26" height="5.85" x="2.87" y="26.15" rx="1"/><rect width="19.02" height="5.85" x="5.79" y="29.07" rx="1" transform="rotate(-90 5.8 29.07)"/><rect width="19.02" height="5.85" x="14.57" y="29.07" rx="1" transform="rotate(-90 14.57 29.07)"/><rect width="19.02" height="5.85" x="23.35" y="29.07" rx="1" transform="rotate(-90 23.35 29.07)"/><path d="M30.3 14.36H4.5a1.5 1.5 0 0 1-1.15-.5 1.7 1.7 0 0 1-.47-1.2v-2.58c0-.34.08-.65.23-.92.15-.27.37-.48.64-.63L15.82 1.7c.5-.28 1.05-.41 1.66-.41.61 0 1.17.13 1.67.4l12 6.78c.3.18.53.43.71.74.18.32.27.65.27 1v2.18c0 .58-.18 1.06-.53 1.43-.36.37-.79.55-1.3.55Z"/></g></svg>