<svg width="18" height="10" viewBox="0 0 18 10" fill="none" xmlns="http://www.w3.org/2000/svg"><path fill-rule="evenodd" clip-rule="evenodd" d="M5.218 1.224c-.63 1.368-1.89 4.088-2.735 5.907l-.665 1.433-.576.008-.575.009v1.248h5.876V8.58h-.427c-.235 0-.428-.01-.427-.023 0-.012.145-.38.324-.816l.421-1.036.097-.244.09.122c.117.16 1.746 2.453 2.097 2.95.2.284.283.378.31.35.019-.02.536-.744 1.149-1.608a573.15 573.15 0 0 1 1.203-1.69l.088-.121.211.517c.467 1.14.633 1.554.633 1.576 0 .013-.192.023-.427.023h-.427v1.25h5.876V8.581l-.576-.009-.575-.008-.15-.32a3329.841 3329.841 0 0 1-2.33-5.046C12.243.032 12.3.154 12.26.202c-.02.024-.758 1.123-1.638 2.442C9.74 3.963 9.01 5.042 9 5.042c-.018 0-1.391-2.052-2.74-4.093a15.607 15.607 0 0 0-.536-.784c-.01 0-.237.476-.506 1.059Z" fill="currentColor"/></svg>
