<svg width="32" height="32" viewBox="0 0 32 32" fill="none" xmlns="http://www.w3.org/2000/svg">
<circle cx="16" cy="16" r="16" fill="white"/>
<mask id="mask0_1563_12232" style="mask-type:alpha" maskUnits="userSpaceOnUse" x="4" y="4" width="24" height="23">
<rect x="4.66528" y="4" width="22.6667" height="22.6667" fill="#ED131C"/>
</mask>
<g mask="url(#mask0_1563_12232)">
<mask id="mask1_1563_12232" style="mask-type:alpha" maskUnits="userSpaceOnUse" x="4" y="4" width="24" height="23">
<rect x="4.66528" y="4" width="22.6667" height="22.6667" fill="#CACACB"/>
</mask>
<g mask="url(#mask1_1563_12232)">
<path d="M15.3953 17.2734C15.7209 17.4255 16.5242 17.4238 16.8484 17.269L26.7834 12.5217C27.0721 12.3838 27.0708 11.9877 26.7812 11.8515L16.7088 7.11422C16.3847 6.96179 15.5827 6.96193 15.2587 7.11462L5.21682 11.8472C4.92603 11.9843 4.92674 12.3827 5.21803 12.5187L15.3953 17.2734Z" fill="#ED131C"/>
<path d="M9.51731 16.5911L14.5748 18.9538C15.4245 19.3508 16.8378 19.3466 17.684 18.9423L22.9114 16.4445C22.9774 16.8099 23.0118 17.186 23.0118 17.5699C23.0118 21.1212 20.0686 24 16.4381 24C12.8075 24 9.44162 21.1212 9.44162 17.5699C9.44162 17.2371 9.46747 16.9102 9.51731 16.5911Z" fill="#ED131C"/>
</g>
</g>
</svg>
