<svg width="32" height="32" viewBox="0 0 32 32" fill="none" xmlns="http://www.w3.org/2000/svg">
<circle cx="16" cy="16" r="16" fill="white"/>
<path d="M15.8977 26.3945C15.638 26.3945 15.4088 26.3005 15.2101 26.1126C15.0115 25.9249 14.9121 25.6978 14.9121 25.4313C14.9121 25.2632 14.9427 25.1065 15.0038 24.9612C15.0649 24.816 15.1566 24.6746 15.2789 24.537L19.1715 20.6647C19.237 20.5996 19.2371 20.4938 19.1719 20.4285L18.9268 20.1833C18.8616 20.1181 18.7559 20.1182 18.6908 20.1834L14.8037 24.0783C14.6812 24.2006 14.5471 24.2847 14.4015 24.3306C14.2558 24.3764 14.0987 24.3994 13.9302 24.3994C13.6846 24.3994 13.466 24.3077 13.2744 24.1242C13.0826 23.9407 12.9868 23.7191 12.9868 23.4592C12.9868 23.2757 13.0097 23.1152 13.0555 22.9776C13.1014 22.84 13.193 22.7101 13.3306 22.5877L17.1788 18.7155C17.2435 18.6503 17.2434 18.545 17.1784 18.48L16.9326 18.234C16.8674 18.1688 16.7618 18.1688 16.6966 18.234L12.9638 21.9686C12.8569 22.0756 12.727 22.1597 12.5742 22.2208C12.4214 22.282 12.2533 22.3126 12.0699 22.3126C11.8254 22.3126 11.6077 22.217 11.4167 22.0259C11.2256 21.8348 11.1301 21.6093 11.1301 21.3494C11.1301 21.1812 11.1607 21.0284 11.2218 20.8908C11.2829 20.7532 11.367 20.6232 11.474 20.5009L15.2527 16.7204C15.3178 16.6553 15.3178 16.5497 15.2527 16.4846L15.0075 16.2393C14.9423 16.174 14.8363 16.1741 14.7712 16.2396L11.0155 20.0194C10.9086 20.1417 10.7825 20.2257 10.6373 20.2716C10.4922 20.3175 10.3279 20.3404 10.1445 20.3404C9.88475 20.3404 9.65936 20.2471 9.46835 20.0604C9.27734 19.8737 9.18184 19.6613 9.18184 19.4231C9.18184 19.255 9.22004 19.0868 9.29644 18.9186C9.37285 18.7504 9.47217 18.6052 9.59442 18.4829L14.4274 13.6476C14.4926 13.5824 14.5982 13.5824 14.6634 13.6476L16.7688 15.754C17.0285 16.0139 17.2807 16.2164 17.5252 16.3617C17.7696 16.5069 18.0982 16.5795 18.5108 16.5795C19.1067 16.5795 19.5881 16.3999 19.9548 16.0406C20.3215 15.6814 20.5049 15.2036 20.5049 14.6074C20.5049 14.2558 20.4361 13.9653 20.2986 13.736C20.1611 13.5066 19.9624 13.262 19.7027 13.0021L16.4474 9.7453C16.3837 9.68164 16.3821 9.579 16.4436 9.51332L16.6771 9.26421C16.9674 8.97373 17.2959 8.74824 17.6627 8.58771C18.0294 8.42719 18.4573 8.34692 18.9463 8.34692C19.3741 8.34692 19.7791 8.43101 20.1611 8.59918C20.5431 8.76735 20.8869 8.99667 21.1925 9.28714L24.6078 12.704C24.9745 13.0862 25.2572 13.5066 25.4559 13.9653C25.6545 14.4239 25.7539 14.9437 25.7539 15.5247C25.7539 16.0597 25.6469 16.5566 25.433 17.0153C25.219 17.4739 24.944 17.879 24.6078 18.2307L16.7917 26.0505C16.6541 26.1881 16.5128 26.2798 16.3676 26.3257C16.2225 26.3715 16.0658 26.3945 15.8977 26.3945ZM8.67997 18.3892C8.61517 18.4538 8.51044 18.4541 8.44522 18.39L7.16477 17.1299C6.88972 16.87 6.66815 16.5566 6.50006 16.1897C6.33197 15.8228 6.24792 15.4024 6.24792 14.9284C6.24792 14.4392 6.32815 13.9997 6.4886 13.6098C6.64905 13.22 6.87444 12.8798 7.16477 12.5894L10.4425 9.28714C10.7176 9.01195 11.0308 8.78646 11.3823 8.61064C11.7337 8.43483 12.1387 8.34692 12.5971 8.34692C13.1166 8.34692 13.5598 8.42336 13.9265 8.57624C14.2933 8.72913 14.6447 8.96609 14.9809 9.28714L19.1984 13.4837C19.4123 13.6977 19.5651 13.8965 19.6568 14.0799C19.7485 14.2634 19.7944 14.4392 19.7944 14.6074C19.7944 14.9743 19.6721 15.2839 19.4276 15.5361C19.1831 15.7884 18.8699 15.9145 18.4878 15.9145C18.3045 15.9145 18.1058 15.861 17.8919 15.754C17.678 15.647 17.4717 15.4864 17.273 15.2724L14.6631 12.6613C14.5981 12.5962 14.4926 12.5961 14.4274 12.6611L8.67997 18.3892Z" fill="#ED131C"/>
</svg>
