<svg xmlns="http://www.w3.org/2000/svg" width="32" height="32" fill="none" viewBox="0 0 32 32"><circle cx="16" cy="16" r="16" fill="#fff"/><path fill="#ed131c" d="M6.523 19.406c.257.06.495.202.637.427.096.151.172.444.117.613-.088.276.072.163.174.37.046.097-.009.267-.052.364.825.776 1.645 1.584 2.472 2.351.38-.125.702-.048.991.223l.044.003c.396.015 1.366-.071 1.724-.343.058-.044.003-.122-.035-.181-.298-.48-.582-1.005-.585-1.588-.005-.99.72-1.431 1.611-1.435.008.306 0 .61.002.916 0 .172-.012.418.021.582a.76.76 0 0 0 .165.345c.378.444 1.096.23 1.618.291.455.054.695.3.975.637.34-.45.731-.7 1.298-.647 1.777.17 1.474-.8 1.476-2.127.572-.006 1.167.2 1.45.728.388.726.028 1.593-.377 2.221a.8.8 0 0 0-.11.216c.115.288 1.321.387 1.607.382.211-.585.581-.956 1.212-1.037v1.026h.437q-.001-.515.004-1.028c.428.08.806.297 1.034.683.176.298.227.654.144.99-.248.982-1.48 1.331-2.268.778-.228-.16-.357-.407-.59-.56a3 3 0 0 0-.546-.279 4.6 4.6 0 0 0-1.214-.292c-.131-.013-.472-.03-.582-.06-.158-.156.15-.606-.03-.96-.402-.784-1.276-.384-1.686.155a3.6 3.6 0 0 0-.544 1.014c.672.194 1.276.412 1.894.776.534.315 1.234.82 1.426 1.456a.51.51 0 0 1-.08.427c-.19.307-.43.45-.771.532-.203-1.253-1.466-2.402-2.626-2.76l-.069.187c.164.088.286.155.442.26.702.486 1.246 1.139 1.49 1.975.178.608-.344 1.02-.861 1.16-.089-1.155-.426-2.137-1.19-3.019-.008.057-.037.23-.025.276.217.815.47 1.596.519 2.448.035.61-.386.869-.875 1.098-.292-.14-.824-.466-.848-.825-.044-.67.163-1.439.331-2.084.05-.19.133-.373.166-.556l.005-.03c.02-.115 0-.202-.016-.317-.781.818-1.083 1.91-1.193 3.01l-.086-.025c-.586-.181-.964-.647-.733-1.277.347-.946 1.013-1.65 1.895-2.096-.027-.061-.046-.118-.067-.182-.869.23-1.732.966-2.217 1.72-.214.334-.33.658-.42 1.04a1.3 1.3 0 0 1-.43-.183c-.45-.296-.554-.716-.242-1.16.612-.87 2.13-1.648 3.147-1.846a3.6 3.6 0 0 0-.418-.852c-.343-.505-.993-1.028-1.587-.612-.433.302-.235.767-.213 1.172.006.093-.134.11-.21.112-.775.018-1.547.204-2.212.62.115.119.736.646.716.765-.124.718-.867-.174-1.084-.385-.817.397-1.666-.258-1.232-1.152-.792-.76-1.596-1.516-2.379-2.285-.294.163-.416.187-.637-.07-.083-.026-.085.016-.165.031-.556.108-.934-.186-1.095-.686.164.004.337.001.503.002-.524-.918-.051-1.398.883-.936-.003-.169-.017-.338-.03-.507"/><path fill="#ed131c" d="M23.36 21.443c-.003.11-.013.22-.021.33.088-.015.191-.026.281-.037l-.002.372-.28-.037c.012.109.017.233.024.344h-.371c.005-.113.015-.231.023-.344l-.279.036-.002-.371q.143.015.284.035l-.03-.33z"/><path fill="#ed131c" fill-rule="evenodd" d="M15.236 16.453c.07.019.09.032.117.102.077.196.146.396.219.595l1.714 4.749c-.606.238-1.503.26-2.012-.205-.517.055-.804-.126-.672-.679.035-.074.04-.09.092-.152l.019.004c.025.102.018.211.06.287.053.02.06.029.115.017.049-.07.04-.4.08-.547.088-.328.191-.52.34-.82-.031-.112-.085-.44-.11-.49l-.021.001c-.082.144-.076.534-.33.543-.045-.08.012-.291-.017-.335-.142-.214-.367-.613.038-.709.15-.036.377.075.517.18.257-.138.24-.084.46-.155-.007-.042-.04-.137-.053-.19-.057-.035-.263-.052-.354-.073a1.4 1.4 0 0 1-.339-.128c-.195-.106-.39-.315-.252-.56.112-.197.47-.338.685-.394-.082-.222-.28-.731-.323-.978zm.526 3.578a.3.3 0 0 0-.096.041c-.238.152-.547.667-.534.884l.02.022c.046-.01.045-.01.086-.034.225-.08.424-.112.665-.115-.205-.338-.128-.46-.14-.798" clip-rule="evenodd"/><path fill="#ed131c" d="M16.445 16.989c.452-.015.248.318.073.515.095.134.18.253.264.396l.016-.015c.374-.353 1.213-.416 1.164.274a.76.76 0 0 1-.26.518c-.05.044-.068.054-.125.049-.098-.096-.01-.35-.077-.507-.158-.103-.183.211-.163.312.043.221.095.446.164.66.367-.023.699.043.747.482.01.091.033.299-.089.305l-.024-.025c-.013-.166-.022-.22-.147-.348-.136-.142-.56-.198-.665-.006-.05.093.057.562.08.696.038.184.07.385.103.572.827-.701 1.06.296-.067.921-.195-.491-.392-1.079-.573-1.581l-.994-2.77c.155-.018.243-.02.4-.02-.056-.219-.023-.322.173-.428M26.73 8.558c.639.482.76 1.495.544 2.224-.102.341-.267.66-.485.94-.604.78-2.005 1.691-2.866 2.158q.02.195.033.391c1.668-.425 3.082-1.233 4.237-2.542.095.176.158.369.187.567a2.05 2.05 0 0 1-.382 1.505c-.758 1.031-2.901 1.236-4.088 1.415q-.031.164-.067.327c1.488.22 3-.062 4.356-.697.018.227.021.42-.025.644-.13.701-.822 1.22-1.508 1.282-.994.09-2.133-.131-3.102-.35l-.14.296c1.195.657 2.417.742 3.745.721-.01.13-.02.264-.06.39-.274.839-1.334.91-2.052.73a6 6 0 0 1-.422-.128c-.6-.208-1.236-.572-1.743-.952-.07.09-.139.155-.22.235.538.947 1.838 1.487 2.853 1.653-.355.574-.88.73-1.52.586-.87-.198-1.557-1.033-2.01-1.765-.1.047-.208.086-.311.126l.014.071c.226 1.005 1.015 1.744 1.846 2.269-.44.447-1.112.437-1.604.086-.662-.47-.895-1.532-1.033-2.297-.607.02-1.218.243-1.552.788-.063.103-.117.212-.171.32-.019-.23-.008-.615-.008-.857a149 149 0 0 1 .003-1.584c.896.308 2.094.272 2.594-.68a1.4 1.4 0 0 0-.076-1.43c-.081-.12-.238-.284-.277-.416.047-.087.582-.424.72-.533q.757-.601 1.422-1.304a24 24 0 0 0 2.335-2.923c.275-.4.565-.898.832-1.266M6.06 8.558c.06.05.447.682.524.798q.33.495.676.978a24 24 0 0 0 1.815 2.243c.58.633 1.22 1.22 1.915 1.721.122.088.308.16.387.288.003.239-.755.652-.443 1.623.126.38.395.694.749.873.588.303 1.326.222 1.933.025q.01.177.008.356c-.011.693.019 1.4-.007 2.091-.126-.212-.162-.362-.351-.56-.368-.387-.853-.531-1.367-.55-.197 1.011-.532 2.547-1.839 2.549-.342 0-.558-.094-.802-.34l.097-.062c.826-.546 1.548-1.265 1.758-2.277-.098-.034-.211-.085-.309-.126-.36.582-.847 1.197-1.442 1.542-.696.404-1.652.418-2.085-.366q.116-.018.23-.04c1.03-.194 2.02-.723 2.622-1.609l-.227-.231c-.616.446-.993.65-1.696.936-.69.234-1.59.395-2.217-.13-.261-.219-.337-.52-.357-.852 1.34.031 2.537-.078 3.744-.72a12 12 0 0 1-.14-.296c-.89.239-2.196.436-3.12.346-.957-.094-1.66-.923-1.506-1.919 1.305.69 2.895.854 4.342.698l-.059-.332c-1.143-.178-2.31-.29-3.367-.811-.967-.476-1.418-1.684-.924-2.667.226.203.44.464.693.685 1.098.951 2.158 1.51 3.55 1.85.008-.142.018-.247.036-.387-.954-.566-1.95-1.154-2.716-1.978-.839-.904-1.092-2.45-.105-3.349M15.664 10.39c-.094.563-.481.966-.963 1.236 1.066 1.055 1.581 2.49 1.708 3.971.046-.365.091-.691.17-1.051.222-.997.77-2.258 1.553-2.913-.436-.273-.923-.683-.958-1.243.382.123.771.175 1.17.197.829.045 2.778-.127 3.397.351.17.131.277.32.298.536.02.205-.048.55-.188.708-.025.029-.013.023-.043.026-.216-.371-.498-.445-.91-.44-1.702.02-3.204 2.325-2.447 3.898.105.217.289.41.462.579-.748.033-1.69.01-2.451.007-.803-.003-1.759.03-2.545-.006.092-.108.198-.202.288-.314.422-.526.448-1.262.274-1.89a3.45 3.45 0 0 0-.85-1.473c-.556-.55-1.287-.927-2.08-.77-.265.053-.41.215-.542.435-.186-.275-.32-.766-.132-1.06.42-.642 1.565-.564 2.25-.57.921-.008 1.629.036 2.539-.215"/><path fill="#ed131c" d="M20.371 12.079c.264-.012.43.489.48.7a1.4 1.4 0 0 0-.531-.26 1.7 1.7 0 0 0-.706.024c.226-.232.464-.347.757-.464M12.366 12.073c.243.016.654.285.826.467a1.6 1.6 0 0 0-.566-.04c-.28.043-.415.107-.644.268.032-.308.155-.502.384-.695M22.24 7.397c.463.015.798.658 1.153.907.306.215.769.122 1.085.287.544.283-.175.762-.303 1.07-.127.303-.054.582.038.877-.172-.117-.602-.404-.79-.171-.096.12-.056.315-.035.458-.75-.418-.14-.968.22-1.367q.013-.015.024-.031c.56-.763-.375-1.261-1.077-1.13.037.173.064.314.054.493a1.2 1.2 0 0 1-.415.838c-.251.218-.65.358-.99.36-.03 0-.047-.034-.063-.057.02-.126.173-.119.27-.133a.972.972 0 0 0 .825-.956c.003-.351-.166-.615-.397-.857l.008-.025c.082-.25.15-.441.392-.563M10.44 7.399c.332-.005.43.32.52.584-.284.322-.478.648-.367 1.105.091.36.387.604.728.705.104.03.317.001.34.13-.02.04-.018.038-.053.064a1.3 1.3 0 0 1-.35-.043c-.84-.206-1.197-.823-1.011-1.648-.63-.115-1.53.252-1.145 1.038.19.32.59.544.664.94.026.136-.152.514-.292.528-.153-.08.23-.968-.882-.268.129-.453.185-.808-.177-1.175-.443-.457-.4-.787.27-.87.401-.049.663-.077.95-.393.24-.266.47-.555.805-.697M17.161 6.21c.206.009.451.042.63.15.842.51.1 1.584-.239 2.133.214.796.655 1.09 1.416 1.278-.328-.562-.496-1.245.389-1.307.118.364.213.506.547.704.315-.188.438-.359.545-.706.16.016.354.034.477.148.414.383.04 1.06-.243 1.383-.537-.007-1.084.01-1.62-.002-.664-.016-1.13-.207-1.586-.69-.225-.291-.307-.47-.415-.821q-.665-.004-1.328 0c-.227.87-.888 1.416-1.77 1.497-.262.024-.527.016-.79.016l-1.061-.003c-.275-.292-.602-.931-.304-1.328.122-.163.344-.184.534-.196.125.359.225.502.544.704.306-.175.46-.365.545-.708.881.066.739.734.396 1.298.73-.12 1.24-.544 1.411-1.278a7 7 0 0 1-.448-.785c-.341-.72-.2-1.355.669-1.477l.172-.008c.14.478.338.7.76.939.418-.213.645-.489.77-.942"/><path fill="#ed131c" d="M19.872 7.868c.546.037.281.589.047.844-.248-.11-.501-.69-.047-.844M12.837 7.87c.557-.008.314.57.08.834l-.024.003c-.18-.092-.345-.46-.264-.658.042-.106.112-.136.208-.18M20.07 6.703l-.02.312c.08-.013.168-.02.247-.03v.318l-.248-.034.022.316h-.329l.023-.314q-.124.019-.25.03c-.006-.098-.004-.218-.004-.319l.254.03-.02-.312zM13.05 6.703l-.013.31c.078-.012.167-.02.247-.03V7.3q-.126-.012-.25-.028c.007.1.02.211.018.311h-.322c.004-.101.013-.211.02-.314-.084.015-.163.02-.248.028-.004-.102-.004-.213-.006-.317l.259.033a4 4 0 0 1-.024-.313zM16.294 5.486c.276-.02.396.057.52.307-.016.38-.11.572-.366.846-.02.014-.029.014-.053.021-.26-.116-.389-.576-.421-.839.072-.192.137-.252.32-.335M16.62 4.002c-.013.122-.02.252-.03.375l.322-.043.001.425-.329-.03c.014.128.023.264.034.393l-.435-.001.025-.391q-.163.017-.327.027l-.001-.422c.108.016.222.028.331.04l-.03-.374c.143-.003.296 0 .44.001"/></svg>