<svg width="32" height="32" viewBox="0 0 32 32" fill="none" xmlns="http://www.w3.org/2000/svg">
<circle cx="16" cy="16" r="16" fill="white"/>
<path d="M9.54253 25.3332C9.0539 25.3332 8.62843 25.1521 8.26612 24.7898C7.90381 24.4275 7.72266 24.002 7.72266 23.5134V10.6089C7.72266 10.1167 7.90381 9.68834 8.26612 9.3237C8.62843 8.95905 9.0539 8.77673 9.54253 8.77673H13.4845C13.582 8.77673 13.6626 8.70224 13.6793 8.60617C13.7616 8.13405 14.001 7.70432 14.3976 7.31698C14.8415 6.88349 15.3739 6.66675 15.9948 6.66675C16.6157 6.66675 17.1481 6.88349 17.5919 7.31698C17.9885 7.70432 18.228 8.13405 18.3102 8.60617C18.327 8.70224 18.4075 8.77673 18.5051 8.77673H22.447C22.9392 8.77673 23.3675 8.95905 23.7322 9.3237C24.0968 9.68834 24.2792 10.1167 24.2792 10.6089V23.5134C24.2792 24.002 24.0968 24.4275 23.7322 24.7898C23.3675 25.1521 22.9392 25.3332 22.447 25.3332H9.54253ZM15.9937 9.61469C16.1977 9.61469 16.3728 9.54693 16.5188 9.41143C16.6648 9.27578 16.7378 9.10768 16.7378 8.90713C16.7378 8.69841 16.6651 8.52221 16.5199 8.37854C16.3747 8.23487 16.2001 8.16303 15.9959 8.16303C15.7918 8.16303 15.6204 8.2345 15.4817 8.37744C15.343 8.52024 15.2737 8.69607 15.2737 8.90494C15.2737 9.1055 15.3426 9.27389 15.4806 9.41012C15.6185 9.5465 15.7895 9.61469 15.9937 9.61469ZM16.037 19.0805C16.9205 19.0805 17.6657 18.7744 18.2728 18.1623C18.8799 17.5499 19.1834 16.8042 19.1834 15.9249C19.1834 15.0415 18.8804 14.2983 18.2743 13.6953C17.6683 13.0925 16.9235 12.791 16.0401 12.791C15.1712 12.791 14.4296 13.092 13.8152 13.694C13.2009 14.2958 12.8937 15.0405 12.8937 15.928C12.8937 16.801 13.2004 17.5446 13.8137 18.159C14.427 18.7733 15.1681 19.0805 16.037 19.0805ZM9.54253 23.3245C9.54253 23.4288 9.62707 23.5134 9.73136 23.5134H22.2582C22.3625 23.5134 22.447 23.4288 22.447 23.3245V22.5414C22.447 22.4886 22.425 22.4382 22.3859 22.4027C21.5346 21.6306 20.5846 21.0169 19.5356 20.5617C18.4617 20.0955 17.2814 19.8625 15.9948 19.8625C14.7082 19.8625 13.5279 20.0996 12.4539 20.574C11.405 21.0373 10.4549 21.6551 9.60365 22.4274C9.56457 22.4629 9.54253 22.5133 9.54253 22.5661V23.3245Z" fill="#ED131C"/>
</svg>
