<svg width="32" height="32" viewBox="0 0 32 32" fill="none" xmlns="http://www.w3.org/2000/svg">
<circle cx="16" cy="16" r="16" fill="white"/>
<path d="M18.001 23.5C18.001 21.5 19.101 19.7 20.701 18.8C19.401 18.3 17.801 18 16.001 18C11.601 18 8.00098 19.8 8.00098 22V24H18.001V23.5ZM23.501 20C21.601 20 20.001 21.6 20.001 23.5C20.001 25.4 21.601 27 23.501 27C25.401 27 27.001 25.4 27.001 23.5C27.001 21.6 25.401 20 23.501 20ZM20.001 12C20.001 14.2 18.201 16 16.001 16C13.801 16 12.001 14.2 12.001 12C12.001 9.8 13.801 8 16.001 8C18.201 8 20.001 9.8 20.001 12Z" fill="#ED131C"/>
</svg>
