<svg width="32" height="32" viewBox="0 0 32 32" fill="none" xmlns="http://www.w3.org/2000/svg">
<circle cx="16" cy="16" r="16" fill="white"/>
<mask id="mask0_1563_12219" style="mask-type:alpha" maskUnits="userSpaceOnUse" x="5" y="5" width="22" height="22">
<rect x="5.33307" y="5.33344" width="21.3333" height="21.3333" fill="#ED131C"/>
</mask>
<g mask="url(#mask0_1563_12219)">
<path d="M24.2788 20.7702C24.2788 22.6538 20.8115 24.1807 16.5342 24.1807C12.257 24.1807 8.78964 22.6538 8.78964 20.7702C8.78964 18.8866 12.257 17.3596 16.5342 17.3596C20.8115 17.3596 24.2788 18.8866 24.2788 20.7702Z" fill="#ED131C"/>
<path fill-rule="evenodd" clip-rule="evenodd" d="M9.89474 19.9195C9.58777 20.2391 9.47804 20.5254 9.47804 20.7702C9.47804 21.0149 9.58777 21.3012 9.89474 21.6208C10.205 21.9439 10.6869 22.2662 11.3354 22.5518C12.6306 23.1222 14.4681 23.4923 16.5342 23.4923C18.6003 23.4923 20.4378 23.1222 21.7331 22.5518C22.3816 22.2662 22.8635 21.9439 23.1737 21.6208C23.4807 21.3012 23.5904 21.0149 23.5904 20.7702C23.5904 20.5254 23.4807 20.2391 23.1737 19.9195C22.8635 19.5964 22.3816 19.2742 21.7331 18.9885C20.4378 18.4182 18.6003 18.048 16.5342 18.048C14.4681 18.048 12.6306 18.4182 11.3354 18.9885C10.6869 19.2742 10.205 19.5964 9.89474 19.9195ZM10.7805 17.7285C12.2883 17.0645 14.3231 16.6712 16.5342 16.6712C18.7454 16.6712 20.7802 17.0645 22.2879 17.7285C23.0409 18.0601 23.6932 18.4727 24.1667 18.9658C24.6435 19.4622 24.9672 20.0731 24.9672 20.7702C24.9672 21.4672 24.6435 22.0781 24.1667 22.5746C23.6932 23.0676 23.0409 23.4802 22.2879 23.8118C20.7802 24.4758 18.7454 24.8691 16.5342 24.8691C14.3231 24.8691 12.2883 24.4758 10.7805 23.8118C10.0276 23.4802 9.37531 23.0676 8.90176 22.5746C8.42493 22.0781 8.10124 21.4672 8.10124 20.7702C8.10124 20.0731 8.42493 19.4622 8.90176 18.9658C9.37531 18.4727 10.0276 18.0601 10.7805 17.7285Z" fill="white"/>
<path d="M24.2788 15.7375C24.2788 17.6211 20.8114 19.148 16.5342 19.148C12.2569 19.148 8.78957 17.6211 8.78957 15.7375C8.78957 13.8539 12.2569 12.3269 16.5342 12.3269C20.8114 12.3269 24.2788 13.8539 24.2788 15.7375Z" fill="#ED131C"/>
<path fill-rule="evenodd" clip-rule="evenodd" d="M9.89467 14.8868C9.5877 15.2064 9.47797 15.4928 9.47797 15.7375C9.47797 15.9822 9.5877 16.2685 9.89467 16.5882C10.2049 16.9112 10.6868 17.2335 11.3354 17.5191C12.6306 18.0895 14.4681 18.4596 16.5342 18.4596C18.6003 18.4596 20.4378 18.0895 21.733 17.5191C22.3815 17.2335 22.8634 16.9112 23.1737 16.5882C23.4806 16.2685 23.5904 15.9822 23.5904 15.7375C23.5904 15.4928 23.4806 15.2064 23.1737 14.8868C22.8634 14.5638 22.3815 14.2415 21.733 13.9558C20.4378 13.3855 18.6003 13.0153 16.5342 13.0153C14.4681 13.0153 12.6306 13.3855 11.3354 13.9558C10.6868 14.2415 10.2049 14.5638 9.89467 14.8868ZM10.7805 12.6958C12.2882 12.0318 14.323 11.6385 16.5342 11.6385C18.7453 11.6385 20.7801 12.0318 22.2879 12.6958C23.0408 13.0274 23.6931 13.44 24.1666 13.9331C24.6435 14.4295 24.9672 15.0404 24.9672 15.7375C24.9672 16.4346 24.6435 17.0454 24.1666 17.5419C23.6931 18.0349 23.0408 18.4475 22.2879 18.7791C20.7801 19.4431 18.7453 19.8364 16.5342 19.8364C14.323 19.8364 12.2882 19.4431 10.7805 18.7791C10.0275 18.4475 9.37524 18.0349 8.90169 17.5419C8.42486 17.0454 8.10117 16.4346 8.10117 15.7375C8.10117 15.0404 8.42486 14.4295 8.90169 13.9331C9.37524 13.44 10.0275 13.0274 10.7805 12.6958Z" fill="white"/>
<path d="M24.2788 10.7048C24.2788 12.5884 20.8115 14.1154 16.5342 14.1154C12.257 14.1154 8.78963 12.5884 8.78963 10.7048C8.78963 8.82124 12.257 7.29428 16.5342 7.29428C20.8115 7.29428 24.2788 8.82124 24.2788 10.7048Z" fill="#ED131C"/>
<path fill-rule="evenodd" clip-rule="evenodd" d="M9.89473 9.85415C9.58776 10.1738 9.47803 10.4601 9.47803 10.7048C9.47803 10.9495 9.58776 11.2359 9.89473 11.5555C10.205 11.8785 10.6869 12.2008 11.3354 12.4865C12.6306 13.0568 14.4681 13.427 16.5342 13.427C18.6003 13.427 20.4378 13.0568 21.733 12.4865C22.3816 12.2008 22.8635 11.8785 23.1737 11.5555C23.4807 11.2359 23.5904 10.9495 23.5904 10.7048C23.5904 10.4601 23.4807 10.1738 23.1737 9.85415C22.8635 9.53113 22.3816 9.20883 21.733 8.92322C20.4378 8.35284 18.6003 7.98267 16.5342 7.98267C14.4681 7.98267 12.6306 8.35284 11.3354 8.92322C10.6869 9.20883 10.205 9.53113 9.89473 9.85415ZM10.7805 7.66319C12.2883 6.9992 14.3231 6.60588 16.5342 6.60588C18.7454 6.60588 20.7801 6.9992 22.2879 7.66319C23.0409 7.99477 23.6932 8.40739 24.1667 8.90044C24.6435 9.3969 24.9672 10.0077 24.9672 10.7048C24.9672 11.4019 24.6435 12.0128 24.1667 12.5092C23.6932 13.0023 23.0409 13.4149 22.2879 13.7465C20.7801 14.4105 18.7454 14.8038 16.5342 14.8038C14.3231 14.8038 12.2883 14.4105 10.7805 13.7465C10.0276 13.4149 9.3753 13.0023 8.90175 12.5092C8.42492 12.0128 8.10123 11.4019 8.10123 10.7048C8.10123 10.0077 8.42492 9.3969 8.90175 8.90044C9.3753 8.40739 10.0276 7.99477 10.7805 7.66319Z" fill="white"/>
</g>
</svg>
