<svg width="32" height="32" viewBox="0 0 32 32" fill="none" xmlns="http://www.w3.org/2000/svg">
<circle cx="16" cy="16" r="16" fill="white"/>
<path d="M3.71348 20V12.8628H8.21698V14.3103H5.36208V20H3.71348ZM12.2776 20.0603C11.7415 20.0603 11.2556 19.9598 10.82 19.7587C10.3911 19.551 10.0192 19.2762 9.70419 18.9344C9.39591 18.586 9.15801 18.1973 8.99046 17.7684C8.82292 17.3328 8.73915 16.8837 8.73915 16.4213C8.73915 15.9455 8.82627 15.4932 9.00052 15.0642C9.18146 14.6353 9.42942 14.2534 9.7444 13.9183C10.0661 13.5765 10.4447 13.3084 10.8803 13.1141C11.3159 12.9197 11.7917 12.8226 12.3078 12.8226C12.8372 12.8226 13.3164 12.9264 13.7453 13.1342C14.1809 13.3352 14.5528 13.61 14.8611 13.9585C15.1761 14.307 15.4173 14.699 15.5849 15.1346C15.7524 15.5635 15.8362 16.0025 15.8362 16.4515C15.8362 16.9273 15.7491 17.3797 15.5748 17.8086C15.4006 18.2375 15.1526 18.6228 14.8309 18.9646C14.5093 19.2997 14.1306 19.5677 13.695 19.7688C13.2661 19.9631 12.7936 20.0603 12.2776 20.0603ZM10.4179 16.4414C10.4179 16.7162 10.4581 16.9843 10.5385 17.2456C10.619 17.5003 10.7362 17.7281 10.8904 17.9292C11.0512 18.1302 11.2489 18.2911 11.4835 18.4117C11.718 18.5323 11.9861 18.5927 12.2877 18.5927C12.6026 18.5927 12.8774 18.5323 13.112 18.4117C13.3465 18.2844 13.5409 18.1168 13.695 17.9091C13.8491 17.7013 13.9631 17.4701 14.0368 17.2155C14.1172 16.9541 14.1574 16.6894 14.1574 16.4213C14.1574 16.1466 14.1172 15.8818 14.0368 15.6272C13.9564 15.3725 13.8357 15.1447 13.6749 14.9436C13.5141 14.7359 13.3164 14.575 13.0818 14.4611C12.8473 14.3472 12.5825 14.2902 12.2877 14.2902C11.9727 14.2902 11.6979 14.3505 11.4634 14.4712C11.2355 14.5918 11.0412 14.756 10.8803 14.9637C10.7262 15.1648 10.6089 15.396 10.5285 15.6573C10.4548 15.912 10.4179 16.1734 10.4179 16.4414ZM16.3767 16.3711C16.3767 15.9355 16.4571 15.5099 16.6179 15.0944C16.7788 14.6722 17.0133 14.2902 17.3216 13.9484C17.6299 13.6066 18.0052 13.3352 18.4475 13.1342C18.8898 12.9264 19.3924 12.8226 19.9553 12.8226C20.6255 12.8226 21.2052 12.9666 21.6944 13.2548C22.1903 13.543 22.5589 13.9183 22.8002 14.3807L21.5336 15.2653C21.4263 15.0106 21.2823 14.8129 21.1013 14.6722C20.9271 14.5315 20.7327 14.4343 20.5183 14.3807C20.3105 14.3204 20.1095 14.2902 19.9151 14.2902C19.6001 14.2902 19.3254 14.3539 19.0908 14.4812C18.8563 14.6018 18.6619 14.766 18.5078 14.9738C18.3536 15.1815 18.2397 15.4127 18.166 15.6674C18.0923 15.9221 18.0554 16.1767 18.0554 16.4314C18.0554 16.7128 18.099 16.9843 18.1861 17.2456C18.2732 17.507 18.3972 17.7382 18.558 17.9392C18.7256 18.1403 18.9266 18.3011 19.1612 18.4218C19.3957 18.5357 19.6538 18.5927 19.9352 18.5927C20.1363 18.5927 20.3407 18.5591 20.5484 18.4921C20.7562 18.4251 20.9472 18.3212 21.1214 18.1805C21.3024 18.0331 21.4397 17.8421 21.5336 17.6075L22.8806 18.4017C22.7399 18.7501 22.5087 19.0484 22.187 19.2963C21.8653 19.5443 21.5001 19.7353 21.0913 19.8693C20.6892 19.9966 20.2904 20.0603 19.895 20.0603C19.379 20.0603 18.9032 19.9564 18.4676 19.7487C18.0387 19.5342 17.6667 19.2528 17.3517 18.9043C17.0435 18.5491 16.8022 18.1537 16.628 17.7181C16.4604 17.2758 16.3767 16.8268 16.3767 16.3711ZM29.1481 14.3103H26.9767V20H25.3281V14.3103H23.1467V12.8628H29.1481V14.3103Z" fill="#ED131C"/>
</svg>
