<svg width="32" height="32" viewBox="0 0 32 32" fill="none" xmlns="http://www.w3.org/2000/svg">
<circle cx="16" cy="16" r="16" fill="white"/>
<path fill-rule="evenodd" clip-rule="evenodd" d="M14.9032 5.30826C15.2136 5.15664 15.5388 5.0804 15.8775 5.08057C16.216 5.08082 16.5413 5.15746 16.8537 5.30933C17.1661 5.46119 17.4378 5.69212 17.6684 6.00296L20.381 9.7084L24.4973 11.1663C24.9907 11.3317 25.3744 11.6291 25.6491 12.0578C25.9238 12.4865 26.0617 12.9512 26.062 13.4515C26.0621 13.6903 26.0298 13.9294 25.9648 14.1681C25.8998 14.4068 25.793 14.6358 25.6443 14.8545L23.0056 18.8241L23.1049 22.9982C23.1214 23.6875 22.8968 24.2683 22.4314 24.7407C21.966 25.2131 21.4152 25.4495 20.7792 25.4493C20.756 25.4493 20.5732 25.4284 20.2317 25.3868L15.8891 24.1219L11.5488 25.3819C11.4589 25.4159 11.3656 25.4374 11.2687 25.4459C11.1717 25.4543 11.0779 25.4584 10.988 25.4584C10.3646 25.4581 9.81939 25.2196 9.35162 24.7433C8.88383 24.267 8.66184 23.6827 8.68681 22.9904L8.78151 18.8047L6.13616 14.8447C5.98728 14.6265 5.88053 14.3982 5.81528 14.1603C5.75005 13.9222 5.71691 13.6836 5.71679 13.4456C5.71658 12.9498 5.85197 12.4874 6.1227 12.0589C6.3935 11.6304 6.77608 11.3304 7.26947 11.1582L11.3829 9.70413L14.0922 6.00177C14.3225 5.69101 14.5929 5.45989 14.9032 5.30826ZM13.6735 17.4454C12.7503 17.4454 12.1501 18.3977 12.8262 19.0261C13.0037 19.191 13.1973 19.3439 13.406 19.4845C14.1721 20.0001 15.0244 20.2582 15.963 20.2582C16.9015 20.2582 17.7536 19.9999 18.5197 19.4842C18.7284 19.3437 18.9222 19.1914 19.0997 19.0265C19.7759 18.3981 19.1754 17.445 18.2523 17.4449L13.6735 17.4454ZM19.3942 13.3001C18.9146 12.8346 18.1501 12.8385 17.676 13.3095L17.2315 13.7522C16.9898 13.9923 16.9916 14.384 17.2359 14.6215C17.4723 14.8509 17.8487 14.8508 18.0851 14.6214L18.1003 14.6062C18.3412 14.3724 18.7239 14.3684 18.9702 14.5966L19.0159 14.6389C19.2548 14.8599 19.6248 14.8552 19.8583 14.6285C20.1059 14.3879 20.1061 13.9904 19.8585 13.7499L19.3942 13.3001ZM14.2488 13.3099C13.7747 12.8389 13.0109 12.8345 12.5314 13.2999L12.0676 13.7497C11.8197 13.9903 11.8198 14.3887 12.0677 14.6293C12.3014 14.8558 12.6717 14.8602 12.9104 14.639L12.9557 14.5966C13.2019 14.3685 13.5838 14.3728 13.8247 14.6064L13.8409 14.6213C14.0773 14.8507 14.4528 14.8509 14.6892 14.6214C14.9336 14.3842 14.9363 13.9927 14.6949 13.7524L14.2488 13.3099Z" fill="#ED131C"/>
</svg>
