<svg xmlns="http://www.w3.org/2000/svg" xml:space="preserve" viewBox="0 0 32 32"><path fill="currentColor" d="M23.76 18.685a1.302 1.302 0 0 0-.652-.401l-2.86-.592a1.647 1.647 0 0 0-.749.043 1.468 1.468 0 0 0-.62.355l-2.08 2.064c-.502-.291-.982-.617-1.44-.977s-.903-.755-1.335-1.188c-.464-.449-.885-.91-1.263-1.383a10.365 10.365 0 0 1-.98-1.455l2.14-2.088c.158-.147.264-.319.32-.517.056-.197.062-.438.019-.722l-.56-2.933a1.076 1.076 0 0 0-.376-.643A1.12 1.12 0 0 0 12.596 8H9.079c-.308 0-.565.104-.77.31A1.05 1.05 0 0 0 8 9.084c0 1.833.399 3.645 1.198 5.434.798 1.789 1.933 3.417 3.403 4.886 1.47 1.467 3.099 2.6 4.888 3.398 1.788.8 3.599 1.198 5.431 1.198.307 0 .563-.104.77-.31s.31-.464.31-.774v-3.557c0-.261-.08-.486-.24-.674zm-13.469-7.02a16.114 16.114 0 0 1-.286-1.688h1.898l.359 1.944-1.43 1.388a9.191 9.191 0 0 1-.541-1.644zm11.73 10.304c-.576-.051-1.148-.146-1.717-.288s-1.124-.33-1.668-.565l1.445-1.436 1.939.402v1.887z"/></svg>
