<svg xmlns="http://www.w3.org/2000/svg" width="48" height="64" viewBox="0 0 48 64" xml:space="preserve"><path fill="#FF0A47" d="M25.99 41.072a63.161 63.161 0 0 0 5.373-3.962l.004-.003a17.783 17.783 0 0 0 3.779-4.389l.221-.15a17.852 17.852 0 0 0 4.324-5.343l.002-.003c1.1-2.093 1.664-4.429 1.664-7 0-4.55-1.7-8.406-5.011-11.54l-.002-.002C33.029 5.576 28.801 4 23.699 4c-2.622 0-5.042.455-7.222 1.298-2.152.833-3.847 1.781-5.066 2.82l-.006.005c-1.194 1.054-2.428 2.649-3.341 4.02l-.659.52a18.455 18.455 0 0 0-3.162 3.618c-.884 1.327-1.461 2.292-1.689 2.86l-.003.01-.121.317c-.148.387-.282.737-.344 1.016L2 20.872l9.603 4.576.733-1.97c.367-.849 1.118-1.774 2.372-2.765 1.206-.919 2.635-1.399 4.308-1.399 2.134 0 3.709.557 4.823 1.578 1.109 1.017 1.684 2.412 1.684 4.246 0 .965-.246 1.894-.681 2.792-1.936 1.179-5.764 3.543-7.252 4.678-2.065 1.549-3.963 3.17-5.689 4.896-1.1 1.079-2.069 2.387-2.931 3.902-.221.213-.447.422-.662.637-1.804 1.77-3.273 4.123-4.453 7.074l-.001.002c-1.188 3.005-1.778 6.315-1.778 9.959v.5h35.283L41 55l.357-.5V44.23H21.61a71.147 71.147 0 0 1 4.38-3.158zM12.063 8.877c1.105-.942 2.69-1.839 4.775-2.646C18.896 5.434 21.193 5 23.699 5c4.877 0 8.852 1.5 11.961 4.41 3.115 2.95 4.697 6.544 4.697 10.813 0 2.419-.53 4.594-1.549 6.534a17.03 17.03 0 0 1-2.409 3.436c.634-1.673.958-3.485.958-5.431 0-4.55-1.7-8.406-5.011-11.54l-.002-.002c-3.315-3.104-7.544-4.681-12.646-4.681-2.622 0-5.042.455-7.222 1.298l-.427.164c-.661.252-1.214.464-1.804.769a15.434 15.434 0 0 1 1.818-1.893zm24.294 49.701H3.078c.052-3.335.622-6.354 1.704-9.091 1.144-2.858 2.545-5.083 4.226-6.731l.004-.004c1.69-1.689 3.551-3.281 5.586-4.807l.003-.003a83.188 83.188 0 0 1 5.572-3.907c1.747-1.117 3.259-2.416 4.46-3.9 1.223-1.51 1.889-3.19 1.889-4.997 0-2.063-.656-3.744-2.008-4.983-1.347-1.235-3.189-1.84-5.499-1.84-1.88 0-3.526.545-4.917 1.606l-.006.005c-1.336 1.055-2.224 2.108-2.679 3.169l-.004.012-.361.969-7.869-3.75c.045-.128.102-.274.167-.446l.141-.371c.185-.458.701-1.338 1.59-2.672a17.417 17.417 0 0 1 2.988-3.42c1.105-.942 2.69-1.839 4.774-2.646 2.059-.797 4.355-1.231 6.861-1.231 4.877 0 8.852 1.5 11.961 4.41 3.115 2.95 4.697 6.544 4.697 10.813 0 2.419-.53 4.594-1.549 6.534a16.862 16.862 0 0 1-4.082 5.044 62.122 62.122 0 0 1-5.288 3.898c-1.826 1.206-3.684 2.582-5.572 4.093-1.947 1.528-3.425 3.106-4.418 4.668l-.489.769h21.398v8.809zm4-4.408-3 3.558v-7.959l3-3.597v7.998zm-.955-8.941-3.045 3.539H16.822c.868-1.167 2.038-2.358 3.52-3.539h19.06z"/><path fill="currentColor" d="M12.05 10.001c-.661.252-1.214.464-1.804.769a15.352 15.352 0 0 1 1.817-1.893c1.105-.942 2.69-1.839 4.775-2.646C18.896 5.434 21.193 5 23.699 5c4.877 0 8.852 1.5 11.961 4.41 3.115 2.95 4.697 6.544 4.697 10.813 0 2.419-.53 4.594-1.549 6.534a17.03 17.03 0 0 1-2.409 3.436c.634-1.673.958-3.485.958-5.431 0-4.55-1.7-8.406-5.011-11.54l-.002-.002c-3.315-3.104-7.544-4.681-12.646-4.681-2.622 0-5.042.455-7.222 1.298-.147.058-.289.112-.426.164zm4.772 38.768h19.535l3.045-3.539h-19.06c-1.482 1.18-2.652 2.372-3.52 3.539zm20.535 8.959 3-3.558v-7.998l-3 3.597v7.959z"/></svg>
