<svg xmlns="http://www.w3.org/2000/svg" width="49" height="64" viewBox="0 0 49 64" xml:space="preserve"><path fill="currentColor" d="m30.023 11.193 4-4v47.6l-4 4v-47.6zm-16.882 5.431c.109-.032.22-.062.327-.096.375-.119.741-.249 1.093-.396.303-.132.586-.265.852-.4l.044-.024c.224-.114.431-.229.628-.346.065-.038.126-.077.189-.115.148-.091.288-.183.42-.275.054-.038.109-.075.16-.113.172-.126.333-.254.476-.382.202-.176.375-.346.558-.518.129-.122.274-.247.394-.366.289-.288.548-.57.778-.843l.001-.001.021-.026c.131-.156.258-.314.382-.476a16.343 16.343 0 0 1-3.607.88l-3.765 3.765.188-.042c.291-.068.578-.143.861-.226zM33.316 6.486H25.98a5035.654 5035.654 0 0 0-4.005 4h7.341l4-4z"/><path fill="none" d="m35.016 5.469-9.449.018-.147.145c-.193.195-4.779 4.769-5.008 5.008 0 0-.586.376-.847.49-1.206.504-2.553.849-4.003 1.024l-.171.021-5.269 5.033.439-.053a16.46 16.46 0 0 0 1.527-.264h.001l3.765-3.765a16.232 16.232 0 0 0 3.607-.88c.27-.352.468-.655.591-.902l.268-.57.453-.287h.001l-.453.287-.268.57c-.123.247-.321.55-.591.902-.123.162-.251.32-.382.476l-.021.026-.001.001c-.23.274-.489.555-.778.843-.12.119-.265.244-.394.366-.154.145-.305.289-.469.436-.029.026-.053.051-.084.078l-.006.005.002-.001h-.001a6.299 6.299 0 0 1-.476.382c-.051.038-.106.075-.16.113a8.748 8.748 0 0 1-.42.275c-.062.038-.124.077-.189.115-.197.117-.404.232-.628.346l-.044.024c-.266.135-.549.268-.852.4-.352.147-.718.277-1.092.396-.107.034-.218.064-.327.096-.282.083-.57.159-.864.226l-.187.042c-.504.112-1.014.2-1.527.264l-.44.053h-.001v7.608h8.408V60.5h11.493v-1.706l.002-47.602-.002.002.002-.002 3.998-3.998v47.6l-4 4V60.5l5-5.293-.006-49.738zM29.021 59.5h-9.494V23.817H11.12v-5.736h.001v-.001l.17-.026-.016.003.015-.002a16.633 16.633 0 0 0 1.759-.362c.062-.017.121-.037.182-.054a14.934 14.934 0 0 0 1.717-.585l.007-.003.017-.008c.476-.208.904-.425 1.307-.647.254-.139.492-.282.716-.428.083-.054.167-.107.245-.161.269-.187.521-.377.741-.574l.009-.007.005-.005c.455-.396.85-.784 1.217-1.166.212-.222.426-.443.608-.66.254-.3.474-.583.662-.848l.007-.01c.165-.231.314-.475.444-.727l.012-.019.005-.011.126-.268 7.945-.026V59.5zm.293-49.013h-7.338c1.05-1.051 2.84-2.838 4.002-4h7.336l-4 4z"/></svg>
