<svg xmlns="http://www.w3.org/2000/svg" width="48" height="64" viewBox="0 0 48 64" xml:space="preserve"><path fill="currentColor" d="m10.317 46.313 4.393-4.607c.091.137.239.331.444.581.049.055.114.121.194.198.251.244.654.6 1.207 1.065a19.566 19.566 0 0 0 2.29 1.606c.82.455 1.857.865 3.11 1.229 1.278.365 2.602.55 3.932.548.689 0 1.338-.039 1.944-.115a4.4 4.4 0 0 1-1.081 1.998c-.188.202-.389.39-.604.563l-.006.004-.006.006c-1.186.988-3.004 1.545-5.58 1.545-1.281 0-2.483-.16-3.645-.506l-.012-.003-.012-.003c-1.205-.326-2.143-.707-2.867-1.129-.78-.455-1.48-.936-2.143-1.502l-.009-.008-.009-.008c-.753-.615-1.134-.978-1.275-1.142a7.658 7.658 0 0 1-.245-.295l-.02-.025zm33.89-9.838c-.639-1.504-1.344-2.678-2.119-3.521a12.53 12.53 0 0 0-2.632-2.222c-.813-.536-1.431-.906-1.854-1.113l-.06-.029-.033-.015a8.955 8.955 0 0 1-1.2 1.728c-.707.813-1.396 1.506-2.14 2.098-.299.238-.589.455-.873.646.39.227.845.51 1.365.839l.006.005.006.004a14.924 14.924 0 0 1 2.822 2.383l.006.008.007.007c.838.953 1.605 2.211 2.286 3.785l.004.009.004.009a13.694 13.694 0 0 1 1.031 5.267c0 2.086-.418 4.024-1.244 5.813.187-.147.369-.301.55-.457 2.932-2.532 4.579-5.491 4.946-8.879.052-.483.078-.978.078-1.478.001-1.777-.317-3.407-.956-4.887zM16.078 7.524a19.001 19.001 0 0 0-3.35 2.222c-.769.649-1.327 1.151-1.672 1.506 1.142-.511 2.52-.987 4.141-1.434 2.041-.573 4.182-.857 6.42-.857 5.105 0 9.355 1.387 12.583 4.174 3.221 2.782 4.856 6.303 4.856 10.464 0 .391-.019.777-.055 1.157a11.991 11.991 0 0 1-.766 3.238l-.055.141c.236-.163.468-.333.692-.513a15.111 15.111 0 0 0 2.017-1.982c.685-.775 1.266-1.777 1.743-3.008.502-1.253.752-2.598.752-4.033 0-3.874-1.504-7.109-4.512-9.707-3.008-2.621-6.983-3.931-11.929-3.931a22.757 22.757 0 0 0-6.152.82c-1.956.524-3.528 1.105-4.713 1.743zm4.479 22.081c1.867 0 3.21-.493 4.179-1.379a4.406 4.406 0 0 0 1.425-2.698l-.166.02c-.199.021-.087.037-.019.046.053.007.08.011-.09.011H21l-4.516 4h4.073z"/><path fill="#FF0A47" d="M45.127 36.082c-.664-1.564-1.422-2.846-2.297-3.799a13.463 13.463 0 0 0-2.83-2.39 27.967 27.967 0 0 0-1.369-.855c.283-.188.571-.399.866-.632l.003-.003c.781-.633 1.5-1.339 2.146-2.108.776-.882 1.41-1.99 1.918-3.296.551-1.377.822-2.847.822-4.4 0-4.172-1.637-7.681-4.855-10.462-3.23-2.813-7.459-4.175-12.584-4.175-2.227 0-4.366.284-6.417.855-1.995.534-3.644 1.138-4.92 1.824a19.954 19.954 0 0 0-3.519 2.334l-.008.007c-1 .845-1.723 1.505-2.072 1.937-.273.319-.492.585-.646.791l-.494.72c-.742.471-1.443.99-2.113 1.548l-.008.006-.007.006c-.99.857-1.729 1.511-2.074 1.943-.115.144-.231.286-.349.427l-.049.059-.218.266-.559.699 7.651 7.651.151.168.179-.168 1.767-1.88c.564-.603 1.557-1.29 3.064-2.044a10.205 10.205 0 0 1 4.412-1.057c1.784.028 3.118.516 4.063 1.32.938.859 1.426 1.904 1.439 3.226-.112.003-.225.005-.336.005h-5.301l-5.57 5H15v10.729l-.15-.227-5.21 4.875-7.951 8.338 1.319 1.445c.538.688 1.377 1.396 2.396 2.145 1.076.789 2.315 1.531 3.698 2.291 1.467.807 3.332 1.482 5.534 2.041 2.247.57 4.587.816 6.979.816h.33c5.649 0 10.299-1.498 13.848-4.584 1.295-1.119 2.365-2.328 3.201-3.634a17.409 17.409 0 0 0 1.799-1.366c3.543-3.063 5.369-6.779 5.369-11.113.002-1.897-.339-3.662-1.035-5.279zM12.728 9.746a19.001 19.001 0 0 1 3.35-2.222c1.185-.638 2.757-1.219 4.717-1.743a22.757 22.757 0 0 1 6.152-.82h.001c4.944 0 8.92 1.31 11.928 3.931 3.008 2.598 4.513 5.833 4.513 9.707 0 1.436-.25 2.78-.752 4.033-.479 1.23-1.06 2.233-1.742 3.008a14.89 14.89 0 0 1-2.019 1.982c-.239.19-.472.362-.692.513l.055-.141c.545-1.401.824-2.892.82-4.395 0-4.161-1.637-7.682-4.856-10.464-3.229-2.787-7.478-4.174-12.583-4.174-2.237 0-4.379.284-6.419.857-1.622.447-3 .924-4.142 1.435h-.001c.343-.355.9-.857 1.67-1.507zm8.271 15.859h4.888c.168 0 .143-.004.088-.011-.067-.009-.18-.025.021-.046l.166-.02c-.162 1.103-.646 1.987-1.425 2.698-.968.886-2.312 1.379-4.178 1.379h-4.073l4.513-4zm-.066 14.75c2.328 0 4.032.57 5.245 1.55 1.213 1.013 1.787 2.237 1.787 3.739 0 .049 0 .098-.002.146-.629.094-1.32.144-2.076.144-1.252 0-2.469-.17-3.654-.509-1.198-.349-2.154-.729-2.887-1.136a18.577 18.577 0 0 1-2.152-1.512c-.713-.602-1.121-.973-1.282-1.146a7.239 7.239 0 0 1-.37-.482l-.529-.793h5.92zm-6.223 1.349c.092.137.24.331.445.581.049.055.114.121.194.199.251.242.654.599 1.208 1.064.724.59 1.489 1.126 2.29 1.606.82.454 1.857.864 3.11 1.229 1.278.365 2.602.549 3.93.547.689 0 1.338-.039 1.945-.115h.001a4.431 4.431 0 0 1-1.082 2c-.188.201-.39.389-.603.562l-.006.004-.006.007c-1.187.987-3.004 1.545-5.581 1.545-1.282 0-2.483-.16-3.646-.507l-.012-.003-.012-.003c-1.205-.326-2.143-.707-2.867-1.129-.78-.455-1.48-.935-2.143-1.502l-.009-.008-.009-.009c-.753-.614-1.134-.977-1.275-1.141a6.963 6.963 0 0 1-.245-.295l-.022-.027 4.395-4.605zm20.101 15.015c-3.35 2.905-7.725 4.342-13.193 4.342-2.324 0-4.58-.24-6.733-.787-2.153-.547-3.931-1.195-5.298-1.947s-2.563-1.471-3.589-2.223-1.777-1.4-2.222-1.981l-.718-.786 6.323-6.631c.029.059.075.126.135.205.083.109.19.236.31.376.049.058.112.125.19.203.247.245.64.594 1.211 1.062.718.615 1.47 1.129 2.29 1.606.82.478 1.846.889 3.11 1.229 1.265.377 2.563.547 3.931.547 2.7 0 4.785-.58 6.22-1.776 1.17-.946 1.848-2.078 2.238-3.281.125-.313.28-.969.278-1.229-.015-1.822-.717-3.326-2.151-4.513-1.414-1.186-3.374-1.776-5.879-1.776H16v-8.75h4.558c2.051 0 3.657-.547 4.853-1.641 1.196-1.094 1.813-2.529 1.813-4.307 0-.997-.229-1.88-.668-2.658a2.333 2.333 0 0 0-.779-1.375c-1.187-1.048-2.814-1.572-4.888-1.572l-.167.001-.163-.001c-1.777 0-3.452.41-5.024 1.162-1.572.786-2.666 1.538-3.35 2.256l-.9.958-6.12-6.12c.137-.182.342-.433.615-.752.273-.342.923-.946 1.948-1.812a19.166 19.166 0 0 1 2.445-1.72c.148-.088.466-.464.54-.501 1.196-.615 2.769-1.196 4.751-1.743 1.948-.547 3.999-.82 6.152-.82 4.922 0 8.92 1.333 11.928 3.931s4.513 5.845 4.513 9.707a11.148 11.148 0 0 1-.752 4.033c-.174.447-.369.884-.59 1.31 0 0-.188.197-.121.225a7.802 7.802 0 0 1-1.031 1.474c-.685.786-1.334 1.436-2.019 1.982a9.392 9.392 0 0 1-1.295.897 4.319 4.319 0 0 1-.481.229l-.685.342c.205.103.515.239.924.41l.074.032.103.048.086.042c.418.212 1.024.581 1.856 1.107a13.89 13.89 0 0 1 2.631 2.223c.752.854 1.472 2.018 2.119 3.521.615 1.504.957 3.109.957 4.888.001 4.031-1.673 7.483-5.022 10.354zm5.33-5c-.181.156-.363.311-.551.457.826-1.789 1.244-3.729 1.244-5.813 0-1.911-.369-3.646-1.031-5.268l-.004-.009-.004-.009c-.68-1.574-1.447-2.832-2.286-3.785l-.007-.007-.007-.009a15.013 15.013 0 0 0-2.821-2.381l-.006-.006-.007-.004c-.45-.287-.905-.566-1.364-.839a12.9 12.9 0 0 0 .873-.646c.741-.594 1.432-1.286 2.139-2.098a8.872 8.872 0 0 0 1.201-1.728l.033.015.061.029c.422.207 1.041.577 1.854 1.113a12.44 12.44 0 0 1 2.631 2.222c.775.843 1.48 2.018 2.119 3.521.639 1.479.957 3.109.957 4.888 0 .501-.025.993-.078 1.478-.366 3.389-2.017 6.346-4.946 8.879z"/></svg>
