<svg xmlns="http://www.w3.org/2000/svg" xml:space="preserve" width="48" height="64" viewBox="0 0 48 64"><path fill="#FF0A47" d="M40.179 27.318c-3.188-3.124-5.694-4.141-10.05-4.797-1.494-.226-3.082-.352-4.414-.291-.695.032-.089 0-.997 0l-1.653.175v-2.364h13.789l6.729-5.2V6H15l-6.958 5.2-1.43 28.069h7.053l1.172-1.524c.412-.491 1.26-1.096 2.709-1.766h.001c1.364-.621 2.922-.943 4.696-.943 2.337 0 4.221.762 5.737 2.27 1.518 1.51 2.285 3.384 2.285 5.707 0 .566-.046 1.105-.137 1.619l-.157.159c-1.906 1.62-3.472 2.21-6.945 1.501l-.004-.001c-1.285-.366-2.279-.749-3.008-1.138l-.004-.003c-.77-.433-1.5-.924-2.192-1.473l-.003-.003c-.725-.597-1.132-.962-1.293-1.132l-.009-.01a6.198 6.198 0 0 1-.351-.447l-.394-.587-5.122 3.614-6.375 6.295 1.357 1.607c.466.564 1.185 1.209 2.097 1.921.948.741 2.052 1.471 3.305 2.192l.009.006.003.002.009.004c1.343.736 2.994 1.361 4.93 1.887l.013.003c1.981.515 4.066.77 6.249.77 4.734 0 8.72-1.294 11.866-3.945l7.564-6.448c2.9-4.096 3.854-5.712 3.854-10.594-.561-4.969-2.162-8.372-5.348-11.494zm2.438-13.11-5.764 4.425v-6.476l5.764-4.377v6.428zm-26.928-7.25h26.075L35.889 11.2H10.156l5.533-4.242zm-2.103 37.737 2.152-1.589.052.063c.091.099.238.239.445.425.245.219.568.493.971.824a17.48 17.48 0 0 0 2.339 1.572c.814.436 1.887.845 3.222 1.224C27 48 29 47 29.736 46.059c-.086 1.014-1.206 2.196-1.756 2.66-1.517 1.51-3.4 2.271-5.737 2.271-1.371 0-2.685-.168-3.945-.499l-.004-.001c-1.285-.366-2.279-.749-3.008-1.138-.477-.231-1.665-1.081-2.199-1.478-.725-.598-1.132-.963-1.293-1.133l-.009-.009a6.124 6.124 0 0 1-.351-.448l2.152-1.589zm8.657 14.147c-2.107 0-4.108-.246-6.004-.738l-.002-.001c-1.888-.512-3.462-1.111-4.717-1.8l-.004-.002c-1.223-.704-2.287-1.41-3.192-2.117-.899-.702-1.553-1.297-1.951-1.78l-.001-.001-.79-.936 4.914-4.852.135.201c.079.117.221.301.432.553.091.099.238.24.445.424.245.219.568.494.971.825.738.587 1.518 1.11 2.339 1.571.814.437 1.887.846 3.222 1.225 1.348.355 2.75.534 4.205.534 2.576 0 4.712-.853 6.422-2.552 1.71-1.701 2.565-3.824 2.565-6.385 0-2.56-.855-4.684-2.565-6.383-1.71-1.701-3.846-2.553-6.422-2.553-1.896 0-3.595.346-5.102 1.033-1.505.695-2.517 1.379-3.064 2.043l-.891 1.158H7.627L8.96 12.158h26.929v6.925H15.901l-.635 10.159a8.18 8.18 0 0 1 1.112-.606c1.683-.761 3.866-1.136 6.537-1.136 4.634 0 8.454 1.459 11.44 4.386 2.986 2.927 4.479 6.64 4.479 11.125 0 4.654-1.523 8.464-4.575 11.413-3.053 2.95-7.065 4.418-12.016 4.418zm-.248-38.8V23l-5.473 3.543.287-6.501h5.186zM41 48.719 38 51c1.5-2.5 1.799-4.253 1.799-7.988 0-4.717-1.578-8.684-4.764-11.806-3.188-3.125-7.262-4.663-12.12-4.663-2.014 0-3.816.206-5.37.651l5.561-3.758c.772-.031 1.476-.083 2.141-.13 1.555-.113 3.379-.032 4.881.173 4.146.564 6.385 1.594 9.371 4.521s4.5 6.076 5.063 10.813c.001 4.653-.869 6.011-3.562 9.906z"/><path fill="currentColor" d="M11.785 46.733a6.124 6.124 0 0 1-.351-.448l2.152-1.59 2.152-1.589.052.063c.091.099.238.239.445.425.245.219.568.493.971.824a17.48 17.48 0 0 0 2.339 1.572c.814.436 1.887.845 3.222 1.224C27 48 29 47 29.736 46.059c-.086 1.014-1.206 2.196-1.756 2.66-1.517 1.51-3.4 2.271-5.737 2.271-1.371 0-2.685-.168-3.945-.499l-.004-.001c-1.285-.366-2.279-.749-3.008-1.138-.477-.231-1.665-1.081-2.199-1.478-.725-.598-1.132-.963-1.293-1.133l-.009-.008zm25.069-28.099 5.764-4.425V7.781l-5.764 4.377v6.476zM16.422 11.2h19.467l5.875-4.242H15.689L10.155 11.2h6.267zM39.5 28c-2.986-2.927-5.226-3.957-9.371-4.521-1.502-.205-3.326-.286-4.881-.173-.665.048-1.369.099-2.141.13l-5.561 3.758c1.554-.445 3.355-.651 5.37-.651 4.858 0 8.931 1.539 12.12 4.663 3.186 3.122 4.764 7.089 4.764 11.806-.001 3.735-.3 5.488-1.8 7.988l3-2.281c2.693-3.895 3.563-5.253 3.563-9.906C44 34.076 42.486 30.927 39.5 28zm-17.505-5v-2.958h-5.186l-.287 6.501L21.995 23z"/></svg>
