<svg xmlns="http://www.w3.org/2000/svg" width="48" height="64" viewBox="0 0 48 64" xml:space="preserve"><path fill="#FF0A47" d="M40.479 37.5V5.486H26.074l-3.588 5L.881 40.596V51.75h23.105v8.75h11.493l5-5v-3.92l5.605-4.83V37.5h-5.605zM26.588 6.486H38.5l-4.021 4H23.717l2.871-4zM39.479 55l-4 4v-7.25h4V55zm0-4.25h-5v8.75h-9.493v-8.75H1.881v-9.832L23 11.486h11.479v31.172h5v8.092zm.24-9.092H35.48V11.486l4-3.986v31H44l-4.281 3.158zm5.366 4.092-4.605 3.914V42.5l4.605-3.5v6.75zm-20.099-3.092V21.677L10.228 42.658h14.758zm-1-17.821V37.5h-8.908l8.908-12.663zm0 13.663v3.158H12.153l2.222-3.158h9.611z"/><path fill="currentColor" d="M35.479 51.75h4V55l-.479.5-3.521 3.5v-7.25zm5-6v3.914l.605-.514 2.823-2.4 1.177-1V39l-4.605 3.5v3.25zM38.5 6.486H26.588l-2.871 4h10.762l4.021-4zm.979 32.014v-31l-4 3.986v30.172h4.239L44 38.5h-4.521zm-15.493 3.158V38.5h-9.611l-2.222 3.158h11.833z"/></svg>
