<svg width="48" height="48" viewBox="0 0 48 48" fill="none" xmlns="http://www.w3.org/2000/svg">
<rect width="48" height="48" rx="24" fill="#E0E1E5"/>
<path fill-rule="evenodd" clip-rule="evenodd" d="M15.4205 36.494C14.5615 36.494 13.8261 36.1882 13.2144 35.5765C12.6027 34.9648 12.2969 34.2294 12.2969 33.3704V31.8912C12.2969 31.3464 12.7385 30.9048 13.2833 30.9048H15.9959C16.5406 30.9048 16.9822 30.4632 16.9822 29.9184V25.171V22.0377C17.0853 22.0442 17.1894 22.0475 17.2946 22.0475C17.8933 22.0475 18.4334 21.9564 18.915 21.7741C19.3965 21.5919 19.8716 21.2666 20.3401 20.798C20.5126 20.6255 20.5126 20.3458 20.3401 20.1733L18.466 18.2992C18.0053 17.8385 17.5107 17.4482 16.9822 17.1281V13.6528V12.4918C16.9822 11.947 17.4239 11.5054 17.9686 11.5054H34.7374C35.2821 11.5054 35.7237 11.947 35.7237 12.4918V31.8087C35.7237 33.1102 35.2682 34.2164 34.3572 35.1275C33.4461 36.0385 32.3399 36.494 31.0384 36.494H15.4205ZM29.4766 29.6715C29.4766 29.1267 29.035 28.6851 28.4902 28.6851H21.0922C20.5475 28.6851 20.1058 28.2435 20.1058 27.6987V25.3223C20.1058 24.9041 20.3743 24.5394 20.7453 24.3464C20.9602 24.2346 21.17 24.106 21.3748 23.9607C21.7783 23.6743 22.1622 23.349 22.5266 22.9845C22.6991 22.812 22.9788 22.812 23.1513 22.9845L27.0012 26.8344C27.1862 27.0194 27.437 27.1233 27.6987 27.1233H28.4902C29.035 27.1233 29.4766 26.6817 29.4766 26.1369V25.3454C29.4766 25.0837 29.3727 24.8329 29.1877 24.6479L20.2999 15.7601C20.1756 15.6358 20.1058 15.4673 20.1058 15.2916C20.1058 14.9256 20.4025 14.629 20.7684 14.629H31.6138C32.1585 14.629 32.6002 15.0706 32.6002 15.6153V31.8087C32.6002 32.2512 32.4505 32.6221 32.1511 32.9214C31.8518 33.2208 31.4809 33.3704 31.0384 33.3704C30.5959 33.3704 30.2249 33.2208 29.9256 32.9214C29.6263 32.6221 29.4766 32.2512 29.4766 31.8087V29.6715ZM15.4205 32.5896C15.4205 32.1583 15.7701 31.8087 16.2014 31.8087H25.5302C25.9846 31.8087 26.3442 32.1792 26.4116 32.6286C26.4673 33 26.1995 33.3704 25.8239 33.3704H16.2014C15.7701 33.3704 15.4205 33.0208 15.4205 32.5896Z" fill="white"/>
<path d="M26.4116 32.6286C26.3442 32.1792 25.9846 31.8087 25.5302 31.8087H16.2014C15.7701 31.8087 15.4205 32.1583 15.4205 32.5896C15.4205 33.0208 15.7701 33.3704 16.2014 33.3704H25.8239C26.1995 33.3704 26.4673 33 26.4116 32.6286Z" fill="white"/>
<path d="M20.1058 27.6987C20.1058 28.2435 20.5475 28.6851 21.0922 28.6851H28.4902C29.035 28.6851 29.4766 29.1267 29.4766 29.6715V31.8087C29.4766 32.2512 29.6263 32.6221 29.9256 32.9214C30.2249 33.2208 30.5959 33.3704 31.0384 33.3704C31.4809 33.3704 31.8518 33.2208 32.1511 32.9214C32.4505 32.6221 32.6002 32.2512 32.6002 31.8087V15.6153C32.6002 15.0706 32.1585 14.629 31.6138 14.629H20.7684C20.4025 14.629 20.1058 14.9256 20.1058 15.2916C20.1058 15.4673 20.1756 15.6358 20.2999 15.7601L29.1877 24.6479C29.3727 24.8329 29.4766 25.0837 29.4766 25.3454V26.1369C29.4766 26.6817 29.035 27.1233 28.4902 27.1233H27.6987C27.437 27.1233 27.1862 27.0194 27.0012 26.8344L23.1513 22.9845C22.9788 22.812 22.6991 22.812 22.5266 22.9845C22.1622 23.349 21.7783 23.6743 21.3748 23.9607C21.17 24.106 20.9602 24.2346 20.7453 24.3464C20.3743 24.5394 20.1058 24.9041 20.1058 25.3223V27.6987Z" fill="white"/>
<path d="M17.2946 22.0475C17.8933 22.0475 18.4334 21.9564 18.915 21.7741C19.3965 21.5919 19.8716 21.2666 20.3401 20.798C20.5126 20.6255 20.5126 20.3458 20.3401 20.1733L18.466 18.2992C18.0053 17.8385 17.5107 17.4482 16.9822 17.1281V22.0377C17.0853 22.0442 17.1894 22.0475 17.2946 22.0475Z" fill="white"/>
<path d="M28.6947 30.6579H12.9056C12.5472 30.6579 12.2319 30.9009 12.1652 31.253C11.762 33.3818 11.8642 36.4941 15.4194 36.4941H31.0377C32.8499 36.4941 33.7724 35.8467 34.2862 35.0686C34.6652 34.4947 33.9328 33.921 33.2801 34.1377C30.6329 35.0167 29.6944 33.3735 29.5109 31.4379C29.4702 31.0086 29.1259 30.6579 28.6947 30.6579Z" fill="#ED131C"/>
<g clip-path="url(#clip0_4335_897)">
<path d="M27.9112 18.6403C27.8035 19.1072 28.3099 19.4742 28.7202 19.2267C28.8933 19.1223 29.1102 19.1229 29.2826 19.2283C29.6919 19.4784 30.1998 19.1098 30.0926 18.6423C30.0478 18.4466 30.1146 18.2415 30.2664 18.1102C30.6286 17.7969 30.4369 17.2022 29.96 17.1597C29.7609 17.142 29.5867 17.0138 29.5083 16.8299C29.3191 16.3864 28.6863 16.3774 28.496 16.8204C28.4168 17.0048 28.2427 17.131 28.0429 17.1488C27.5643 17.1915 27.3763 17.7923 27.7381 18.1085C27.8888 18.2401 27.9562 18.4453 27.9112 18.6403ZM27.4967 20.9934C27.0489 21.2635 26.4965 20.8627 26.6144 20.3532L26.9301 18.9881C26.9795 18.7745 26.9069 18.5511 26.7412 18.4075L25.6814 17.4887C25.2863 17.1462 25.497 16.4971 26.0179 16.4519L27.4212 16.3301C27.6397 16.3111 27.8298 16.1729 27.9152 15.9709L28.4568 14.6894C28.6605 14.2075 29.3434 14.2075 29.5471 14.6894L30.0887 15.9709C30.1741 16.1729 30.3642 16.3111 30.5827 16.3301L31.986 16.4519C32.5069 16.4971 32.7176 17.1462 32.3225 17.4887L31.2627 18.4075C31.0971 18.5511 31.0244 18.7745 31.0738 18.9881L31.3896 20.3532C31.5074 20.8627 30.955 21.2635 30.5073 20.9934L29.3077 20.2698C29.1196 20.1563 28.8843 20.1563 28.6963 20.2698L27.4967 20.9934Z" fill="#ED131C"/>
<path d="M27.9112 18.6403C27.8035 19.1072 28.3099 19.4742 28.7202 19.2267C28.8933 19.1223 29.1102 19.1229 29.2826 19.2283C29.6919 19.4784 30.1998 19.1098 30.0926 18.6423C30.0478 18.4466 30.1146 18.2415 30.2664 18.1102C30.6286 17.7969 30.4369 17.2022 29.96 17.1597C29.7609 17.142 29.5867 17.0138 29.5083 16.8299C29.3191 16.3864 28.6863 16.3774 28.496 16.8204C28.4168 17.0048 28.2427 17.131 28.0429 17.1488C27.5643 17.1915 27.3763 17.7923 27.7381 18.1085C27.8888 18.2401 27.9562 18.4453 27.9112 18.6403Z" fill="#ED131C"/>
</g>
<defs>
<clipPath id="clip0_4335_897">
<rect x="24.79" y="13.0677" width="9.37075" height="9.37075" rx="0.195224" fill="white"/>
</clipPath>
</defs>
</svg>
