<svg width="48" height="48" viewBox="0 0 48 48" fill="none" xmlns="http://www.w3.org/2000/svg">
<rect width="48" height="48" rx="24" fill="#E0E1E5"/>
<path d="M12.56 35.5685C12.1655 35.5685 11.8457 35.2487 11.8457 34.8542V31.6998C11.8457 30.642 12.1019 29.6568 12.6143 28.7443C13.1267 27.8321 13.8573 27.1106 14.8062 26.5796C16.2485 25.84 17.7383 25.3043 19.2754 24.9724C20.8126 24.6405 22.3783 24.4746 23.9724 24.4746C25.6045 24.4746 27.1891 24.6453 28.7263 24.9866C30.2635 25.328 31.7342 25.8589 33.1386 26.5796C34.0875 27.0726 34.8276 27.7813 35.359 28.7056C35.8903 29.6299 36.156 30.628 36.156 31.6998V34.8542C36.156 35.2487 35.8362 35.5685 35.4417 35.5685H12.56ZM23.9724 21.6869C22.2082 21.6869 20.7139 21.0751 19.4895 19.8516C18.2651 18.628 17.6529 17.1348 17.6529 15.3719C17.6529 13.5711 18.2651 12.0589 19.4895 10.8354C20.7139 9.61184 22.2082 9.00006 23.9724 9.00006C25.7745 9.00006 27.2878 9.61184 28.5122 10.8354C29.7367 12.0589 30.3489 13.5711 30.3489 15.3719C30.3489 17.1348 29.7367 18.628 28.5122 19.8516C27.2878 21.0751 25.7745 21.6869 23.9724 21.6869Z" fill="white"/>
<path d="M25.8468 39L20.7247 33.9999C20.4077 33.6904 20.182 33.3571 20.0479 32.9999C19.9138 32.6428 19.8467 32.2856 19.8467 31.9285C19.8467 31.1666 20.1272 30.488 20.6882 29.8927C21.2491 29.2975 21.9687 28.9999 22.8467 28.9999C23.5297 28.9999 24.0662 29.1546 24.4565 29.4642C24.8467 29.7737 25.3102 30.1904 25.8468 30.7142C26.3346 30.238 26.7797 29.8332 27.1821 29.4999C27.5846 29.1665 28.1395 28.9999 28.8468 28.9999C29.7493 28.9999 30.4749 29.3035 31.0237 29.9106C31.5724 30.5178 31.8468 31.2023 31.8468 31.9642C31.8468 32.3214 31.7737 32.6785 31.6273 33.0356C31.481 33.3928 31.2615 33.7142 30.9688 33.9999L25.8468 39Z" fill="#ED131C"/>
</svg>
