<svg width="13" height="13" viewBox="0 0 13 13" fill="none" xmlns="http://www.w3.org/2000/svg">
<path fill-rule="evenodd" clip-rule="evenodd" d="M1.65521 1.01456C2.46647 0.229711 3.80236 0.369168 4.48163 1.25261L5.32289 2.34491C5.87618 3.0636 5.82685 4.06769 5.17024 4.70271L5.01159 4.85708C4.99359 4.92189 4.99177 4.98994 5.00625 5.05557C5.04825 5.32021 5.27556 5.88063 6.22748 6.8017C7.1794 7.72276 7.75935 7.9433 8.03532 7.98481C8.10486 7.99842 8.17668 7.99642 8.24531 7.97897L8.51728 7.71563C9.10123 7.15131 9.99715 7.04558 10.7198 7.42763L11.993 8.10221C13.0842 8.6782 13.3595 10.1208 12.4663 10.9854L11.519 11.9013C11.2204 12.1899 10.8191 12.4306 10.3298 12.4753C9.12323 12.5849 6.31214 12.4448 3.35706 9.5863C0.5993 6.9178 0.070012 4.5905 0.00268444 3.44371C-0.030646 2.86382 0.250663 2.37346 0.609299 2.02708L1.65521 1.01456ZM3.6817 1.83574C3.34373 1.39661 2.71445 1.36158 2.35981 1.70471L1.31324 2.71658C1.09326 2.92934 0.987933 3.16414 1.00126 3.38857C1.05459 4.29991 1.48122 6.39954 4.06233 8.89679C6.7701 11.516 9.27055 11.5945 10.2371 11.5063C10.4345 11.4887 10.6304 11.3889 10.8138 11.2118L11.7603 10.2953C12.1456 9.92294 12.061 9.24446 11.5157 8.95647L10.2425 8.28254C9.8905 8.09702 9.47853 8.158 9.22255 8.40578L8.91925 8.69961L8.56594 8.35453C8.91925 8.69961 8.91858 8.70026 8.91791 8.70026L8.91725 8.70155L8.91525 8.7035L8.91058 8.70739L8.90058 8.71647C8.87245 8.74189 8.84212 8.76489 8.80992 8.78523C8.75659 8.81961 8.68593 8.85788 8.59727 8.88966C8.41729 8.95517 8.17865 8.9902 7.884 8.94609C7.30605 8.85982 6.54012 8.47648 5.52221 7.49185C4.50496 6.50722 4.10766 5.76647 4.01834 5.20475C3.97234 4.91806 4.00901 4.68584 4.077 4.51071C4.11442 4.41216 4.168 4.32016 4.23565 4.23829L4.25698 4.21558L4.26632 4.20585L4.27032 4.20196L4.27232 4.20002L4.27365 4.19872L4.46563 4.01321C4.75094 3.73624 4.79094 3.27765 4.52229 2.92804L3.6817 1.83574Z" fill="black"/>
</svg>
