<svg version="1.1" id="Layer_1" xmlns="http://www.w3.org/2000/svg" xmlns:xlink="http://www.w3.org/1999/xlink" x="0px" y="0px"
	 width="24px" height="24px" viewBox="0 0 24 24" enable-background="new 0 0 24 24" xml:space="preserve">
<path fill="currentColor" d="M12,24c-0.193,0-0.387-0.056-0.555-0.168C11.06,23.575,2,17.449,2,10c0-2.671,1.041-5.183,2.929-7.071
	C6.817,1.041,9.329,0,12,0c2.671,0,5.182,1.041,7.07,2.929C20.96,4.817,22,7.329,22,10c0,7.449-9.06,13.575-9.445,13.832
	C12.387,23.944,12.193,24,12,24z M12,2C9.863,2,7.854,2.832,6.343,4.343C4.832,5.854,4,7.863,4,10c0,5.413,6.103,10.363,8,11.771
	c1.897-1.407,8-6.357,8-11.771c0-2.137-0.832-4.146-2.344-5.656C16.146,2.832,14.137,2,12,2z M12,14c-2.206,0-4-1.794-4-4
	s1.794-4,4-4c2.206,0,4,1.794,4,4S14.206,14,12,14z M12,8c-1.103,0-2,0.897-2,2s0.897,2,2,2c1.103,0,2-0.897,2-2S13.103,8,12,8z"/>
</svg>
