<svg width="13" height="18" viewBox="0 0 13 18" fill="none" xmlns="http://www.w3.org/2000/svg">
<path d="M11.0132 10.018C10.4455 11.1685 9.67633 12.3147 8.88983 13.3438C8.14293 14.3134 7.3452 15.2428 6.5 16.128C5.6548 15.2428 4.85707 14.3134 4.11017 13.3438C3.32367 12.3147 2.5545 11.1685 1.98683 10.018C1.41267 8.85559 1.08333 7.76684 1.08333 6.83301C1.08333 5.39642 1.65402 4.01867 2.66984 3.00285C3.68566 1.98702 5.06341 1.41634 6.5 1.41634C7.93659 1.41634 9.31434 1.98702 10.3302 3.00285C11.346 4.01867 11.9167 5.39642 11.9167 6.83301C11.9167 7.76684 11.5863 8.85559 11.0132 10.018ZM6.5 17.6663C6.5 17.6663 13 11.5065 13 6.83301C13 5.1091 12.3152 3.4558 11.0962 2.23681C9.87721 1.01783 8.22391 0.333008 6.5 0.333008C4.77609 0.333008 3.12279 1.01783 1.90381 2.23681C0.684819 3.4558 2.56882e-08 5.1091 0 6.83301C0 11.5065 6.5 17.6663 6.5 17.6663Z" fill="#1C1C1C"/>
<path d="M6.5 8.99967C5.92536 8.99967 5.37426 8.7714 4.96794 8.36507C4.56161 7.95874 4.33333 7.40764 4.33333 6.83301C4.33333 6.25837 4.56161 5.70727 4.96794 5.30094C5.37426 4.89461 5.92536 4.66634 6.5 4.66634C7.07464 4.66634 7.62574 4.89461 8.03206 5.30094C8.43839 5.70727 8.66667 6.25837 8.66667 6.83301C8.66667 7.40764 8.43839 7.95874 8.03206 8.36507C7.62574 8.7714 7.07464 8.99967 6.5 8.99967ZM6.5 10.083C7.36195 10.083 8.1886 9.7406 8.7981 9.13111C9.40759 8.52161 9.75 7.69496 9.75 6.83301C9.75 5.97105 9.40759 5.1444 8.7981 4.53491C8.1886 3.92542 7.36195 3.58301 6.5 3.58301C5.63805 3.58301 4.8114 3.92542 4.2019 4.53491C3.59241 5.1444 3.25 5.97105 3.25 6.83301C3.25 7.69496 3.59241 8.52161 4.2019 9.13111C4.8114 9.7406 5.63805 10.083 6.5 10.083Z" fill="#1C1C1C"/>
</svg>
