<svg width="32" height="32" viewBox="0 0 32 32" fill="none" xmlns="http://www.w3.org/2000/svg">
<path d="M15.9987 16.1887C16.7948 16.1887 17.4697 15.9119 18.0233 15.3583C18.5769 14.8046 18.8537 14.1298 18.8537 13.3336C18.8537 12.5375 18.5769 11.8626 18.0233 11.309C17.4697 10.7554 16.7948 10.4786 15.9987 10.4786C15.2025 10.4786 14.5277 10.7554 13.974 11.309C13.4204 11.8626 13.1436 12.5375 13.1436 13.3336C13.1436 14.1298 13.4204 14.8046 13.974 15.3583C14.5277 15.9119 15.2025 16.1887 15.9987 16.1887ZM15.9987 25.2916C18.6219 22.9032 20.5733 20.7708 21.853 18.8945C23.1327 17.0182 23.7726 15.2283 23.7726 13.5249C23.7726 11.191 23.0221 9.28003 21.5212 7.7919C20.0203 6.30379 18.1792 5.55974 15.998 5.55974C13.8168 5.55974 11.976 6.30379 10.4755 7.7919C8.97502 9.28003 8.22477 11.191 8.22477 13.5249C8.22477 15.2283 8.86463 17.015 10.1443 18.8851C11.4241 20.7551 13.3755 22.8906 15.9987 25.2916ZM15.9987 29.9742C12.2199 26.8042 9.39068 23.8979 7.51097 21.2554C5.63126 18.6129 4.69141 16.0361 4.69141 13.5249C4.69141 10.0193 5.82802 7.22642 8.10124 5.1464C10.3745 3.06638 13.007 2.02637 15.9987 2.02637C18.9904 2.02637 21.6229 3.06638 23.8961 5.1464C26.1693 7.22642 27.3059 10.0193 27.3059 13.5249C27.3059 16.0361 26.3661 18.6129 24.4864 21.2554C22.6067 23.8979 19.7774 26.8042 15.9987 29.9742Z" fill="#1C1C1C"/>
</svg>
