<svg xmlns="http://www.w3.org/2000/svg" width="15" height="18" viewBox="0 0 15 18" fill="none">
    <path d="M7.06704 8.85146C7.56463 8.85146 7.98642 8.67845 8.33244 8.33244C8.67845 7.98642 8.85146 7.56463 8.85146 7.06704C8.85146 6.56946 8.67845 6.14766 8.33244 5.80165C7.98642 5.45563 7.56463 5.28263 7.06704 5.28263C6.56946 5.28263 6.14766 5.45563 5.80165 5.80165C5.45563 6.14766 5.28263 6.56946 5.28263 7.06704C5.28263 7.56463 5.45563 7.98642 5.80165 8.33244C6.14766 8.67845 6.56946 8.85146 7.06704 8.85146ZM7.06704 14.5408C8.70653 13.048 9.92618 11.7153 10.726 10.5426C11.5258 9.36988 11.9257 8.25122 11.9257 7.18661C11.9257 5.72792 11.4567 4.53354 10.5186 3.60346C9.58054 2.67339 8.42988 2.20836 7.06663 2.20836C5.70338 2.20836 4.55285 2.67339 3.61506 3.60346C2.67726 4.53354 2.20835 5.72792 2.20835 7.18661C2.20835 8.25122 2.60826 9.36791 3.40808 10.5367C4.2079 11.7055 5.42756 13.0402 7.06704 14.5408ZM7.06704 17.4674C4.70532 15.4861 2.93705 13.6697 1.76223 12.0181C0.58741 10.3666 0 8.75606 0 7.18661C0 4.99556 0.710382 3.25004 2.13115 1.95002C3.55192 0.650007 5.19722 0 7.06704 0C8.93686 0 10.5822 0.650007 12.0029 1.95002C13.4237 3.25004 14.1341 4.99556 14.1341 7.18661C14.1341 8.75606 13.5467 10.3666 12.3719 12.0181C11.197 13.6697 9.42876 15.4861 7.06704 17.4674Z" fill="#7E7F81"/>
</svg>
