<svg xmlns="http://www.w3.org/2000/svg" width="13.6" height="16.267" viewBox="1.2 -0.133 13.6 16.267" xml:space="preserve"><path d="M8 16.134A.803.803 0 0 1 7.556 16C7.297 15.826 1.2 11.704 1.2 6.667c0-1.816.707-3.523 1.991-4.808A6.758 6.758 0 0 1 8-.133c1.816 0 3.523.707 4.808 1.991A6.76 6.76 0 0 1 14.8 6.667c0 5.037-6.097 9.159-6.356 9.333a.803.803 0 0 1-.444.134zM8 1.467A5.168 5.168 0 0 0 4.323 2.99 5.168 5.168 0 0 0 2.8 6.667c0 3.478 3.868 6.681 5.2 7.682 1.332-1.001 5.2-4.204 5.2-7.682a5.17 5.17 0 0 0-1.523-3.677A5.168 5.168 0 0 0 8 1.467z"/><path d="M8 9.467c-1.544 0-2.8-1.256-2.8-2.8s1.256-2.8 2.8-2.8 2.8 1.256 2.8 2.8-1.256 2.8-2.8 2.8zm0-4c-.662 0-1.2.539-1.2 1.2s.539 1.2 1.2 1.2c.662 0 1.2-.539 1.2-1.2s-.538-1.2-1.2-1.2z"/></svg>
