<svg xmlns="http://www.w3.org/2000/svg" fill="none" viewBox="0 0 39 41"><path fill="currentColor" d="M3 26.31c0-.83.67-1.51 1.5-1.51h12c.83 0 1.5.68 1.5 1.51v12.67a1.5 1.5 0 0 1-1.5 1.52h-12A1.5 1.5 0 0 1 3 38.98V26.31ZM21 26.31c0-.83.67-1.51 1.5-1.51h12c.83 0 1.5.68 1.5 1.51v12.67a1.5 1.5 0 0 1-1.5 1.52h-12a1.5 1.5 0 0 1-1.5-1.52V26.31ZM21 14.17c0-.84.67-1.52 1.5-1.52h15c.83 0 1.5.68 1.5 1.52v6.07a1.5 1.5 0 0 1-1.5 1.52h-15a1.5 1.5 0 0 1-1.5-1.52v-6.07ZM0 14.17c0-.84.67-1.52 1.5-1.52h15c.83 0 1.5.68 1.5 1.52v6.07a1.5 1.5 0 0 1-1.5 1.52h-15A1.5 1.5 0 0 1 0 20.24v-6.07ZM19.55 5.56c0 2.8-2.24 5.06-5 5.06s-5-2.26-5-5.06S11.8.5 14.55.5s5 2.27 5 5.06ZM29.55 5.56c0 2.8-2.24 5.06-5 5.06s-5-2.26-5-5.06S21.8.5 24.55.5s5 2.27 5 5.06Z"/></svg>