<svg width="28" height="28" viewBox="0 0 28 28" fill="none" xmlns="http://www.w3.org/2000/svg">
<path d="M12.1446 14.5034C11.4779 14.1224 10.6484 14.6038 10.6484 15.3716V19.9253C10.6484 20.6931 11.4779 21.1744 12.1446 20.7935L16.129 18.5167C16.8008 18.1328 16.8008 17.1641 16.129 16.7802L12.1446 14.5034Z" />
<path d="M23.6484 26.6484H3.64844C3.11817 26.6479 2.60977 26.437 2.23481 26.0621C1.85985 25.6871 1.64897 25.1787 1.64844 24.6484V10.6484C1.64897 10.1182 1.85985 9.60977 2.23481 9.23481C2.60977 8.85985 3.11817 8.64897 3.64844 8.64844H23.6484C24.1787 8.64897 24.6871 8.85985 25.0621 9.23481C25.437 9.60977 25.6479 10.1182 25.6484 10.6484V24.6484C25.6479 25.1787 25.437 25.6871 25.0621 26.0621C24.6871 26.437 24.1787 26.6479 23.6484 26.6484ZM3.64844 10.6484V24.6484H23.6484V10.6484H3.64844Z" />
<path d="M3.65039 5.64844C3.65039 5.09615 4.09811 4.64844 4.65039 4.64844H22.6504C23.2027 4.64844 23.6504 5.09615 23.6504 5.64844C23.6504 6.20072 23.2027 6.64844 22.6504 6.64844H4.65039C4.09811 6.64844 3.65039 6.20072 3.65039 5.64844Z" />
<path d="M5.64844 1.64844C5.64844 1.09615 6.09615 0.648438 6.64844 0.648438H20.6484C21.2007 0.648438 21.6484 1.09615 21.6484 1.64844C21.6484 2.20072 21.2007 2.64844 20.6484 2.64844H6.64844C6.09615 2.64844 5.64844 2.20072 5.64844 1.64844Z" />
</svg>
