<svg width="26" height="20" viewBox="0 0 26 20" fill="none" xmlns="http://www.w3.org/2000/svg">
<path d="M18.7036 4.29653L18.7024 4.2953L18.7024 4.29529C18.604 4.19341 18.4863 4.11215 18.3562 4.05625C18.226 4.00034 18.0861 3.97092 17.9444 3.96969C17.8028 3.96846 17.6624 3.99544 17.5313 4.04908C17.4002 4.10271 17.2811 4.18191 17.1809 4.28207C17.0808 4.38222 17.0016 4.50131 16.9479 4.6324C16.8943 4.76349 16.8673 4.90395 16.8686 5.04558C16.8698 5.18721 16.8992 5.32718 16.9551 5.45732C17.011 5.58746 17.0923 5.70516 17.1942 5.80355L17.1954 5.80475C17.7465 6.35574 18.1837 7.0099 18.482 7.72987C18.7802 8.44983 18.9338 9.22151 18.9338 10.0008C18.9338 10.7801 18.7802 11.5518 18.482 12.2718C18.1838 12.9915 17.7468 13.6454 17.196 14.1963M18.7036 4.29653L17.1247 14.1262M18.7036 4.29653C19.4528 5.0456 20.047 5.9349 20.4525 6.91365C20.8579 7.89239 21.0666 8.94142 21.0666 10.0008C21.0666 11.0602 20.8579 12.1092 20.4525 13.088C20.0472 14.0665 19.4531 14.9555 18.7043 15.7045M18.7036 4.29653L18.7743 15.7758M17.196 14.1963C17.1958 14.1965 17.1956 14.1967 17.1954 14.1969L17.1247 14.1262M17.196 14.1963C17.1962 14.196 17.1964 14.1958 17.1966 14.1956L17.1247 14.1262M17.196 14.1963C17.0021 14.3974 16.8948 14.6665 16.8972 14.9459C16.8997 15.2256 17.0118 15.4931 17.2096 15.6909C17.4074 15.8887 17.6749 16.0008 17.9546 16.0033C18.234 16.0057 18.5032 15.8984 18.7043 15.7045M17.1247 14.1262C16.9122 14.3462 16.7946 14.6409 16.7972 14.9468C16.7999 15.2527 16.9226 15.5453 17.1389 15.7616C17.3552 15.9779 17.6478 16.1006 17.9537 16.1033C18.2596 16.1059 18.5543 15.9883 18.7743 15.7758M18.7043 15.7045C18.7041 15.7047 18.7039 15.7049 18.7036 15.7051L18.7743 15.7758M18.7043 15.7045C18.7045 15.7043 18.7047 15.7041 18.7049 15.7039L18.7743 15.7758M22.0018 0.995953L22.0017 0.995964L22.003 0.997193C26.9759 5.97014 26.9759 14.0315 22.003 19.0044L22.0018 19.0057C21.9034 19.1076 21.7857 19.1888 21.6555 19.2447C21.5254 19.3006 21.3854 19.33 21.2438 19.3313C21.1021 19.3325 20.9617 19.3055 20.8306 19.2519C20.6995 19.1983 20.5804 19.1191 20.4803 19.0189C20.3801 18.9187 20.3009 18.7997 20.2473 18.6686C20.1936 18.5375 20.1667 18.397 20.1679 18.2554C20.1691 18.1138 20.1985 17.9738 20.2544 17.8436C20.3103 17.7135 20.3916 17.5958 20.4935 17.4974L20.4935 17.4974L20.4947 17.4962C21.479 16.5119 22.2598 15.3434 22.7926 14.0573C23.3253 12.7712 23.5994 11.3928 23.5994 10.0008C23.5994 8.60879 23.3253 7.2304 22.7926 5.94434C22.2598 4.65828 21.479 3.48974 20.4947 2.50543L20.4935 2.50422C20.3916 2.40582 20.3103 2.28812 20.2544 2.15799C20.1985 2.02785 20.1691 1.88788 20.1679 1.74625C20.1667 1.60462 20.1936 1.46416 20.2473 1.33307L20.1547 1.2952L20.2473 1.33307C20.3009 1.20198 20.3801 1.08288 20.4803 0.982732C20.5804 0.88258 20.6995 0.803377 20.8306 0.749744C20.9617 0.696111 21.1021 0.669122 21.2438 0.670353C21.3854 0.671584 21.5254 0.701009 21.6555 0.756912C21.7857 0.812815 21.9034 0.894076 22.0018 0.995953ZM5.80214 1.75638C5.80457 2.03578 5.69727 2.30496 5.50334 2.50607C4.51932 3.49024 3.73874 4.65856 3.20615 5.94434C2.67344 7.2304 2.39926 8.60879 2.39926 10.0008C2.39926 11.3928 2.67344 12.7712 3.20615 14.0573C3.73874 15.3431 4.51932 16.5114 5.50333 17.4956C5.69727 17.6967 5.80457 17.9659 5.80214 18.2452C5.79971 18.5249 5.68753 18.7925 5.48976 18.9902C5.29199 19.188 5.02446 19.3002 4.74478 19.3026C4.4654 19.305 4.19624 19.1978 3.99513 19.0038C-0.977013 14.0311 -0.977022 5.97062 3.9951 0.997818C4.19621 0.80389 4.46539 0.696597 4.74478 0.699025C5.02446 0.701456 5.29199 0.813636 5.48976 1.0114C5.68753 1.20917 5.79971 1.47671 5.80214 1.75638ZM9.10147 5.05572C9.1039 5.33511 8.99661 5.60429 8.80268 5.80539C8.25185 6.35624 7.81489 7.01017 7.51673 7.72987C7.21845 8.44983 7.06493 9.22151 7.06493 10.0008C7.06493 10.7801 7.21845 11.5518 7.51673 12.2718C7.81488 12.9915 8.25185 13.6454 8.80267 14.1962C8.9966 14.3973 9.1039 14.6665 9.10147 14.9459C9.09904 15.2256 8.98686 15.4931 8.78909 15.6909C8.59132 15.8887 8.32379 16.0008 8.04411 16.0033C7.76471 16.0057 7.49552 15.8984 7.29441 15.7045C6.54557 14.9555 5.95153 14.0665 5.54621 13.088C5.14077 12.1092 4.93209 11.0602 4.93209 10.0008C4.93209 8.94142 5.14077 7.89239 5.54621 6.91365C5.95153 5.93517 6.54557 5.0461 7.29442 4.29716C7.49553 4.10323 7.76472 3.99593 8.04411 3.99836C8.32379 4.00079 8.59132 4.11297 8.78909 4.31074C8.98686 4.50851 9.09904 4.77604 9.10147 5.05572ZM12.1037 9.10515C11.8661 9.34269 11.7327 9.66488 11.7327 10.0008C11.7327 10.3368 11.8661 10.6589 12.1037 10.8965C12.3412 11.134 12.6634 11.2675 12.9993 11.2675C13.3353 11.2675 13.6575 11.134 13.895 10.8965C14.1326 10.6589 14.266 10.3368 14.266 10.0008C14.266 9.66488 14.1326 9.34269 13.895 9.10515C13.6575 8.8676 13.3353 8.73415 12.9993 8.73415C12.6634 8.73415 12.3412 8.8676 12.1037 9.10515ZM10.5952 7.59665C11.2328 6.95903 12.0976 6.60082 12.9993 6.60082C13.9011 6.60082 14.7659 6.95903 15.4035 7.59665C16.0411 8.23428 16.3993 9.09908 16.3993 10.0008C16.3993 10.9026 16.0411 11.7674 15.4035 12.405C14.7659 13.0426 13.9011 13.4008 12.9993 13.4008C12.0976 13.4008 11.2328 13.0426 10.5952 12.405C9.95756 11.7674 9.59935 10.9026 9.59935 10.0008C9.59935 9.09908 9.95756 8.23428 10.5952 7.59665Z" stroke="white" stroke-width="0.2"/>
</svg>
