<svg width="30" height="29" viewBox="0 0 30 29" fill="none" xmlns="http://www.w3.org/2000/svg">
<path d="M10.1164 23.7994L10.1164 23.7994C6.14406 21.7184 2.55 18.3514 2.55 12.8587C2.55 8.07921 6.40088 4.20675 11.15 4.20675H18.85C23.5991 4.20675 27.45 8.07921 27.45 12.8587C27.45 17.6382 23.5991 21.5106 18.85 21.5106H17.4C16.7649 21.5106 16.25 22.0255 16.25 22.6606V25.3889C16.25 25.7456 15.9181 26.0028 15.5806 25.9106L15.5411 26.0553L15.5805 25.9106C14.076 25.5005 12.0885 24.8329 10.1164 23.7994ZM16.3666 27.8683L16.3667 27.8683C16.459 27.8893 16.5475 27.909 16.6321 27.9274C17.327 28.0788 17.95 27.541 17.95 26.841V24.069C17.95 23.5995 18.3306 23.219 18.8 23.219H18.85C24.5393 23.219 29.15 18.5796 29.15 12.8587C29.15 7.13781 24.5393 2.49844 18.85 2.49844H11.15C5.46072 2.49844 0.85 7.13781 0.85 12.8587C0.85 18.136 3.73017 21.6624 7.10204 23.978C10.4705 26.2912 14.3418 27.406 16.3666 27.8683Z" stroke-width="0.3"/>
<path d="M15.3909 13.6023C15.2877 13.7061 15.1479 13.7643 15.0023 13.7643C14.8568 13.7643 14.717 13.7061 14.6137 13.6023C14.5105 13.4984 14.4523 13.3574 14.4523 13.2101C14.4523 13.0629 14.5105 12.9218 14.6137 12.818C14.717 12.7141 14.8568 12.656 15.0023 12.656C15.1479 12.656 15.2877 12.7141 15.3909 12.818C15.4942 12.9218 15.5523 13.0629 15.5523 13.2101C15.5523 13.3574 15.4942 13.4984 15.3909 13.6023ZM15.0023 15.4726C15.5994 15.4726 16.1718 15.234 16.5936 14.8096C17.0155 14.3853 17.2523 13.8099 17.2523 13.2101C17.2523 12.6104 17.0155 12.035 16.5936 11.6106C16.1718 11.1862 15.5994 10.9477 15.0023 10.9477C14.4053 10.9477 13.8329 11.1862 13.411 11.6106C12.9892 12.035 12.7523 12.6104 12.7523 13.2101C12.7523 13.8099 12.9892 14.3853 13.411 14.8096C13.8329 15.234 14.4053 15.4726 15.0023 15.4726Z" stroke-width="0.3"/>
<path d="M20.9886 13.6023C20.8854 13.7061 20.7456 13.7643 20.6 13.7643C20.4544 13.7643 20.3146 13.7061 20.2114 13.6023C20.1082 13.4984 20.05 13.3574 20.05 13.2101C20.05 13.0629 20.1082 12.9218 20.2114 12.818C20.3146 12.7141 20.4544 12.656 20.6 12.656C20.7456 12.656 20.8854 12.7141 20.9886 12.818C21.0918 12.9218 21.15 13.0629 21.15 13.2101C21.15 13.3574 21.0918 13.4984 20.9886 13.6023ZM20.6 15.4726C21.197 15.4726 21.7694 15.234 22.1913 14.8096C22.6132 14.3853 22.85 13.8099 22.85 13.2101C22.85 12.6104 22.6132 12.035 22.1913 11.6106C21.7694 11.1862 21.197 10.9477 20.6 10.9477C20.003 10.9477 19.4306 11.1862 19.0087 11.6106C18.5868 12.035 18.35 12.6104 18.35 13.2101C18.35 13.8099 18.5868 14.3853 19.0087 14.8096C19.4306 15.234 20.003 15.4726 20.6 15.4726Z" stroke-width="0.3"/>
<path d="M9.78547 13.6023C9.68226 13.7061 9.54246 13.7643 9.39688 13.7643C9.25129 13.7643 9.11149 13.7061 9.00828 13.6023C8.90504 13.4984 8.84688 13.3574 8.84688 13.2101C8.84688 13.0629 8.90504 12.9218 9.00828 12.818C9.11149 12.7141 9.25129 12.656 9.39688 12.656C9.54246 12.656 9.68226 12.7141 9.78547 12.818C9.88872 12.9218 9.94688 13.0629 9.94688 13.2101C9.94688 13.3574 9.88872 13.4984 9.78547 13.6023ZM9.39688 15.4726C9.9939 15.4726 10.5663 15.234 10.9882 14.8096C11.41 14.3853 11.6469 13.8099 11.6469 13.2101C11.6469 12.6104 11.41 12.035 10.9882 11.6106C10.5663 11.1862 9.9939 10.9477 9.39688 10.9477C8.79985 10.9477 8.22746 11.1862 7.80557 11.6106C7.38371 12.035 7.14687 12.6104 7.14687 13.2101C7.14687 13.8099 7.38371 14.3853 7.80557 14.8096C8.22746 15.234 8.79985 15.4726 9.39688 15.4726Z" stroke-width="0.3"/>
</svg>
