<svg width="24" height="24" viewBox="0 0 24 24" fill="none" xmlns="http://www.w3.org/2000/svg">
<path d="M7.00732 17.1979L9.06182 16.6053L21.432 4.08692C21.5296 3.98693 21.5839 3.85257 21.5832 3.71287C21.5826 3.57316 21.527 3.43932 21.4285 3.34025L20.6876 2.59125C20.6398 2.54206 20.5826 2.5029 20.5194 2.47605C20.4562 2.4492 20.3884 2.43521 20.3197 2.43488C20.2511 2.43456 20.1831 2.44791 20.1196 2.47415C20.0562 2.5004 19.9987 2.53902 19.9503 2.58775L7.61282 15.0734L7.00615 17.1968L7.00732 17.1979ZM22.1542 1.10725L22.895 1.85742C23.917 2.89225 23.9263 4.56175 22.9137 5.58608L10.1667 18.4871L5.77532 19.7518C5.50721 19.8268 5.22029 19.7924 4.97751 19.6561C4.73472 19.5199 4.55592 19.2929 4.48032 19.0249C4.42406 18.8323 4.42325 18.6277 4.47798 18.4346L5.75548 13.9546L18.4687 1.08742C18.7104 0.844002 18.9982 0.651157 19.3152 0.520129C19.6323 0.389101 19.9723 0.322514 20.3153 0.324252C20.6584 0.325989 20.9976 0.396017 21.3134 0.530249C21.6291 0.664482 21.9149 0.860233 22.1542 1.10608V1.10725ZM8.71532 2.45242C9.29398 2.45242 9.76298 2.92725 9.76298 3.51292C9.76391 3.65136 9.73753 3.78863 9.68536 3.91688C9.6332 4.04513 9.55627 4.16183 9.45897 4.26032C9.36166 4.35882 9.2459 4.43716 9.1183 4.49089C8.9907 4.54461 8.85376 4.57265 8.71532 4.57342H4.52465C3.36732 4.57342 2.42932 5.52309 2.42932 6.69325V19.4169C2.42932 20.5883 3.36732 21.5379 4.52465 21.5379H17.0967C18.254 21.5379 19.1932 20.5883 19.1932 19.4169V15.1761C19.1932 14.5904 19.6621 14.1156 20.2408 14.1156C20.8195 14.1156 21.2885 14.5904 21.2885 15.1773V19.4169C21.2885 21.7596 19.4113 23.6589 17.0967 23.6589H4.52465C2.20998 23.6589 0.333984 21.7596 0.333984 19.4169V6.69325C0.333984 4.35175 2.20998 2.45242 4.52465 2.45242H8.71532Z"/>
</svg>
