<svg version="1.1" id="Layer_1" xmlns="http://www.w3.org/2000/svg" xmlns:xlink="http://www.w3.org/1999/xlink" x="0px" y="0px"
	 width="24.5px" height="20.737px" viewBox="0.75 2.25 24.5 20.737" enable-background="new 0.75 2.25 24.5 20.737"
	 xml:space="preserve">
<path d="M24.375,2.25H14.75l-0.612,0.263L13,3.632l-1.138-1.12L11.25,2.25H1.625L0.75,3.125v17.5L1.625,21.5h9.257
	l1.505,1.487h1.225l1.505-1.487h9.258l0.875-0.875v-17.5L24.375,2.25z M12.125,20.311l-0.315-0.298l-0.56-0.263H2.5V4h8.382
	l1.295,1.295L12.125,20.311z M23.5,19.75h-8.75l-0.612,0.263l-0.245,0.228V5.225L15.117,4H23.5V19.75z M9.5,7.5H4.25v1.75H9.5V7.5z
	 M9.5,14.5H4.25v1.75H9.5V14.5z M4.25,11H9.5v1.75H4.25V11z M21.75,7.5H16.5v1.75h5.25V7.5z M16.5,11h5.25v1.75H16.5V11z M16.5,14.5
	h5.25v1.75H16.5V14.5z"/>
</svg>
