<svg width="48" height="48" viewBox="0 0 48 48" fill="none" xmlns="http://www.w3.org/2000/svg">
<ellipse cx="24" cy="23.9987" rx="24" ry="23.9987" fill="#ED131C"/>
<path d="M22.5837 29.0611L30.2112 21.4336L28.2874 19.5098L22.5837 25.2136L19.7487 22.3786L17.8249 24.3023L22.5837 29.0611ZM24.0012 37.7686C20.8737 36.9811 18.2918 35.1867 16.2555 32.3854C14.2193 29.5842 13.2012 26.4736 13.2012 23.0536V14.8186L24.0012 10.7686L34.8012 14.8186V23.0536C34.8012 26.4736 33.783 29.5842 31.7468 32.3854C29.7105 35.1867 27.1287 36.9811 24.0012 37.7686ZM24.0012 34.9336C26.3412 34.1911 28.2762 32.7061 29.8062 30.4786C31.3362 28.2511 32.1012 25.7761 32.1012 23.0536V16.6748L24.0012 13.6373L15.9012 16.6748V23.0536C15.9012 25.7761 16.6662 28.2511 18.1962 30.4786C19.7262 32.7061 21.6612 34.1911 24.0012 34.9336Z" fill="white"/>
</svg>
