<svg xmlns="http://www.w3.org/2000/svg" fill="none" viewBox="0 0 13 13"><path fill="#1c8d00" fill-rule="evenodd" d="M9.38 0a2.83 2.83 0 0 1 2.83 2.83v6.55a2.83 2.83 0 0 1-2.83 2.83H2.83A2.83 2.83 0 0 1 0 9.38V2.83A2.83 2.83 0 0 1 2.83 0zm-3.5 8.64q-.55 0-.92.35-.36.35-.36.86t.36.86.92.35.92-.35.36-.86T6.8 9a1.3 1.3 0 0 0-.92-.35m.2-7.4a4 4 0 0 0-2.48.8q-.36.3-.64.7-.28.38-.35.54l-.1.25 2.16 1 .04-.07.12-.2.22-.24q.14-.13.38-.2.24-.1.52-.1.39 0 .63.22t.24.53q0 .27-.21.5-.22.24-.52.45l-.61.43a1.83 1.83 0 0 0-.74 1.51q0 .27.13.6h2.36q0-.31.24-.63.24-.3.58-.59t.7-.62a3 3 0 0 0 .83-2.05q0-1.11-1-1.97a3.7 3.7 0 0 0-2.5-.86" clip-rule="evenodd"/></svg>