<svg xmlns="http://www.w3.org/2000/svg" fill="none" viewBox="0 0 18 20"><path fill="currentColor" d="M2 13.04v-2.782h8.266v2.788H2v-.006Zm0 3.697v-1.919h9.77v1.913H2v.006ZM4.284 20V0h7.335c.985 0 1.867.188 2.64.563a6.599 6.599 0 0 1 3.276 3.58c.306.753.464 1.556.465 2.365 0 1.11-.248 2.172-.755 3.181a6.036 6.036 0 0 1-2.115 2.424 5.836 5.836 0 0 1-3.366.927H7.56V20H4.284Zm3.275-9.742h4.03a3.026 3.026 0 0 0 1.8-.481c.466-.34.81-.811.986-1.35.211-.569.32-1.209.32-1.919 0-.733-.121-1.379-.375-1.942a2.66 2.66 0 0 0-1.106-1.297c-.483-.323-1.087-.481-1.824-.481H7.559v7.47Z"/></svg>