<svg width="43" height="43" viewBox="0 0 43 43" fill="none" xmlns="http://www.w3.org/2000/svg">
<path d="M21.5 43C18.4946 43 15.6874 42.4386 13.0783 41.3157C10.4693 40.1928 8.19873 38.6653 6.26671 36.7333C4.33468 34.8013 2.80722 32.5307 1.68433 29.9217C0.561444 27.3126 0 24.5054 0 21.5C0 18.4946 0.561444 15.6874 1.68433 13.0783C2.80722 10.4693 4.33468 8.19873 6.26671 6.26671C8.19873 4.33468 10.4693 2.80722 13.0783 1.68433C15.6874 0.561444 18.4946 0 21.5 0C24.5054 0 27.3126 0.561444 29.9217 1.68433C32.5307 2.80722 34.8013 4.33468 36.7333 6.26671C38.6653 8.19873 40.1928 10.4693 41.3157 13.0783C42.4386 15.6874 43 18.4946 43 21.5C43 22.3257 42.9587 23.1348 42.8762 23.9274C42.7936 24.72 42.6697 25.4962 42.5046 26.2558C41.745 25.4301 40.8533 24.8026 39.8295 24.3733C38.8057 23.9439 37.7323 23.7623 36.6094 23.8283C36.6755 23.4651 36.7168 23.0853 36.7333 22.6889C36.7498 22.2926 36.7581 21.8963 36.7581 21.5C36.7581 17.2066 35.2884 13.5902 32.3491 10.6509C29.4098 7.7116 25.7934 6.24194 21.5 6.24194C17.2066 6.24194 13.5902 7.7116 10.6509 10.6509C7.7116 13.5902 6.24194 17.2066 6.24194 21.5C6.24194 25.7934 7.7116 29.4098 10.6509 32.3491C13.5902 35.2884 17.2066 36.7581 21.5 36.7581C23.0853 36.7581 24.5797 36.5434 25.9833 36.1141C27.3869 35.6847 28.6997 35.0737 29.9217 34.2811C30.351 35.3049 30.9785 36.1884 31.8041 36.9315C32.6298 37.6745 33.571 38.2277 34.6279 38.591C32.8114 39.9781 30.7886 41.0597 28.5593 41.8358C26.3301 42.6119 23.977 43 21.5 43ZM36.9562 35.0242C35.9654 35.0242 35.115 34.6692 34.405 33.9591C33.6949 33.249 33.3399 32.3986 33.3399 31.4078C33.3399 30.4171 33.6949 29.5666 34.405 28.8566C35.115 28.1465 35.9654 27.7915 36.9562 27.7915C37.947 27.7915 38.7974 28.1465 39.5075 28.8566C40.2175 29.5666 40.5726 30.4171 40.5726 31.4078C40.5726 32.3986 40.2175 33.249 39.5075 33.9591C38.7974 34.6692 37.947 35.0242 36.9562 35.0242ZM27.2961 31.1106L18.7753 22.5899V11.8399H24.2247V20.3111L31.2097 27.2961L27.2961 31.1106Z" fill="#D5D5D5"/>
</svg>
