<svg width="24" height="24" viewBox="0 0 24 24" fill="none" xmlns="http://www.w3.org/2000/svg">
<path fill-rule="evenodd" clip-rule="evenodd" d="M24 12C24 18.6274 18.6274 24 12 24C5.37258 24 0 18.6274 0 12C0 5.37258 5.37258 0 12 0C18.6274 0 24 5.37258 24 12ZM17.684 8.46101C18.2654 8.39163 18.8185 8.23813 19.3333 8.01095L19.3321 8.0128C18.9467 8.58681 18.4617 9.08788 17.8998 9.49251C17.9053 9.61531 17.9084 9.73933 17.9084 9.86213C17.9084 13.6418 15.0198 17.9999 9.73569 17.9999C8.17472 18.0017 6.64631 17.5555 5.33333 16.7149C5.56089 16.7415 5.78983 16.7548 6.01896 16.7548C7.31247 16.7567 8.56902 16.3252 9.58647 15.5299C8.98711 15.5189 8.40619 15.3216 7.92503 14.9656C7.44387 14.6095 7.08656 14.1125 6.90313 13.5442C7.33371 13.6259 7.7773 13.6091 8.20041 13.4951C7.55027 13.3643 6.96561 13.0135 6.54563 12.5023C6.12565 11.9911 5.89621 11.3509 5.89626 10.6904V10.6536C6.29511 10.8743 6.74114 10.9971 7.19724 11.0115C6.80396 10.75 6.48159 10.3958 6.25873 9.98047C6.03587 9.56511 5.91941 9.1014 5.91969 8.63047C5.91969 8.10735 6.0615 7.61616 6.30813 7.19251C7.02943 8.07614 7.92925 8.79886 8.9492 9.31378C9.96914 9.8287 11.0864 10.1243 12.2285 10.1814C12.0839 9.56788 12.1468 8.92398 12.4074 8.3497C12.668 7.77541 13.1117 7.30285 13.6696 7.0054C14.2275 6.70794 14.8684 6.60223 15.4929 6.70468C16.1173 6.80712 16.6903 7.11199 17.1229 7.57195C17.7662 7.44621 18.3831 7.21154 18.9467 6.87815C18.7327 7.54093 18.2839 8.10354 17.684 8.46101Z" fill="white"/>
</svg>
