<svg xmlns="http://www.w3.org/2000/svg" fill="none" viewBox="0 0 25 26"><path fill="currentColor" d="M12.58 3.9a4.8 4.8 0 0 0-4.9 4.72 4.8 4.8 0 0 0 4.9 4.71 4.8 4.8 0 0 0 4.9-4.71 4.8 4.8 0 0 0-4.9-4.71Zm0 6.67a1.99 1.99 0 0 1-2.02-1.95c0-1.08.9-1.95 2.02-1.95s2.02.87 2.02 1.95-.9 1.95-2.02 1.95ZM14.3 17.08a8.1 8.1 0 0 0 3.2-1.32c.58-.45.67-1.25.2-1.8a1.37 1.37 0 0 0-1.86-.2c-.01 0-1.27.93-3.33.93a6.07 6.07 0 0 1-3.35-.93 1.37 1.37 0 0 0-1.87.2c-.46.55-.37 1.35.2 1.8.07.04 1.3.96 3.3 1.34L8 19.92c-.5.51-.5 1.32.03 1.81.26.24.6.36.93.36.35 0 .7-.13.96-.39l2.6-2.68 2.87 2.7c.52.5 1.37.5 1.89 0 .51-.5.51-1.32 0-1.82l-2.96-2.82Z"/></svg>