<svg xmlns="http://www.w3.org/2000/svg" fill="none" viewBox="0 0 25 26"><path fill="currentColor" d="M19.63 16.53c-.04-.07-.3-.64-1.59-1.81-1.34-1.23-1.16-1.03.46-3.15.98-1.3 1.37-2.08 1.25-2.42-.12-.32-.84-.24-.84-.24l-2.4.02s-.18-.03-.32.05c-.13.08-.2.26-.2.26s-.39 1-.9 1.85c-1.07 1.79-1.5 1.88-1.67 1.77-.41-.26-.3-1.04-.3-1.6 0-1.74.26-2.46-.53-2.65-.26-.06-.45-.1-1.12-.1-.86-.02-1.59 0-2 .2-.27.13-.48.42-.35.44.16.02.52.1.7.35.25.33.24 1.07.24 1.07s.15 2.05-.33 2.3c-.32.18-.77-.18-1.72-1.8-.5-.84-.86-1.76-.86-1.76s-.07-.17-.2-.26c-.15-.12-.37-.15-.37-.15L4.3 8.9s-.34.01-.46.16c-.12.13-.01.4-.01.4s1.79 4.13 3.81 6.21c1.86 1.9 3.97 1.78 3.97 1.78h.96s.29-.03.43-.19c.14-.14.14-.41.14-.41s-.02-1.27.57-1.45c.59-.19 1.34 1.22 2.14 1.76.6.41 1.07.32 1.07.32l2.13-.03s1.12-.07.6-.93Z"/></svg>