<svg xmlns="http://www.w3.org/2000/svg" fill="none" viewBox="0 0 25 26"><path fill="currentColor" d="M11.24 19.5h-2.8c-1.38 0-2.54-.5-3.5-1.47a4.94 4.94 0 0 1-1.44-3.59c0-1.4.48-2.6 1.44-3.58a4.72 4.72 0 0 1 3.5-1.46h2.8v2.74h-2.8c-.64 0-1.18.22-1.6.67-.44.45-.66 1-.66 1.64a2.27 2.27 0 0 0 2.27 2.31h2.8v2.74Zm-2.38-4v-2.1h7.28v2.1H8.86Zm4.9 4v-2.74h2.8a2.27 2.27 0 0 0 2.27-2.31 2.27 2.27 0 0 0-2.28-2.31h-2.8V9.4h2.81c1.38 0 2.54.49 3.5 1.47a4.94 4.94 0 0 1 1.44 3.59c0 1.4-.48 2.6-1.44 3.57a4.72 4.72 0 0 1-3.5 1.47h-2.8Z"/></svg>