<svg width="24" height="24" viewBox="0 0 24 24" fill="none" xmlns="http://www.w3.org/2000/svg">
<path fill-rule="evenodd" clip-rule="evenodd" d="M24 12C24 18.6274 18.6274 24 12 24C5.37258 24 0 18.6274 0 12C0 5.37258 5.37258 0 12 0C18.6274 0 24 5.37258 24 12ZM12.487 17.2633H11.5452C11.5452 17.2633 9.46704 17.3884 7.63703 15.4831C5.64123 13.405 3.87861 9.2812 3.87861 9.2812C3.87861 9.2812 3.777 9.01081 3.88738 8.88011C4.01145 8.73316 4.34942 8.72375 4.34942 8.72375L6.60084 8.70899C6.60084 8.70899 6.81304 8.74449 6.96492 8.85594C7.09006 8.94792 7.16022 9.11991 7.16022 9.11991C7.16022 9.11991 7.52408 10.0402 8.00602 10.8727C8.94659 12.498 9.38468 12.8535 9.70405 12.6794C10.1693 12.4255 10.0298 10.3818 10.0298 10.3818C10.0298 10.3818 10.0384 9.63993 9.79561 9.30965C9.60758 9.0536 9.25291 8.97894 9.09633 8.95798C8.9697 8.94108 9.17762 8.64695 9.44715 8.51497C9.85229 8.31646 10.5678 8.30512 11.4132 8.31389C12.0718 8.32052 12.2614 8.36159 12.5189 8.42384C13.1164 8.56812 13.0978 9.03043 13.0576 10.0279C13.0456 10.326 13.0317 10.6718 13.0317 11.0712C13.0317 11.1611 13.029 11.2569 13.0263 11.3554C13.0124 11.8663 12.9964 12.4511 13.3326 12.6685C13.505 12.7797 13.9269 12.6852 14.9819 10.8937C15.482 10.0446 15.857 9.04632 15.857 9.04632C15.857 9.04632 15.9389 8.86835 16.0662 8.79198C16.1965 8.71412 16.3721 8.73808 16.3721 8.73808L18.7414 8.72332C18.7414 8.72332 19.4533 8.63839 19.5686 8.95969C19.6894 9.29703 19.3025 10.0846 18.3345 11.3747C17.4153 12.5999 16.9686 13.0503 17.0106 13.4491C17.0412 13.7399 17.3316 14.0033 17.8879 14.5197C19.0541 15.6022 19.3649 16.1706 19.4388 16.3057C19.4448 16.3166 19.4492 16.3247 19.4524 16.33C19.9744 17.1955 18.8736 17.2633 18.8736 17.2633L16.7693 17.2926C16.7693 17.2926 16.3171 17.3822 15.722 16.9734C15.4108 16.7599 15.1065 16.411 14.8166 16.0787C14.3735 15.5706 13.9639 15.1011 13.6144 15.2119C13.0278 15.398 13.0462 16.6618 13.0462 16.6618C13.0462 16.6618 13.0505 16.9317 12.9168 17.0755C12.7715 17.2321 12.487 17.2633 12.487 17.2633Z" fill="white"/>
</svg>
