<svg xmlns="http://www.w3.org/2000/svg" fill="none" viewBox="0 0 25 26"><mask id="a" width="25" height="26" x="0" y="0" maskUnits="userSpaceOnUse" style="mask-type:alpha"><path fill="#D9D9D9" d="M0 .5h25v25H0z"/></mask><g mask="url(#a)"><path fill="currentColor" fill-rule="evenodd" d="M.98 24.52c.66.65 1.45.98 2.39.98H21.6c.94 0 1.74-.33 2.4-.98.66-.66.99-1.45.99-2.39V3.9c0-.94-.33-1.74-.99-2.4a3.27 3.27 0 0 0-2.4-.99H3.37c-.94 0-1.73.33-2.39.99A3.28 3.28 0 0 0 0 3.89v18.24c0 .94.33 1.73.98 2.39Zm13.4-4.54c.53.54 1.2.83 1.96.83a2.79 2.79 0 0 0 2.78-2.84c0-.78-.27-1.46-.8-2a2.68 2.68 0 0 0-1.98-.84 2.67 2.67 0 0 0-1.5.45l-4.28-2.54a2.55 2.55 0 0 0 0-.36l4.28-2.54a2.67 2.67 0 0 0 1.5.45 2.79 2.79 0 0 0 2.78-2.84c0-.77-.27-1.45-.8-2a2.68 2.68 0 0 0-1.98-.84c-.76 0-1.43.29-1.97.84a2.79 2.79 0 0 0-.8 2.18l-4.28 2.55a2.67 2.67 0 0 0-1.5-.45A2.79 2.79 0 0 0 5 12.86c-.01.77.26 1.45.8 2s1.2.83 1.97.83a2.67 2.67 0 0 0 1.5-.46l4.29 2.55v.18c0 .77.26 1.46.8 2Z" clip-rule="evenodd"/></g></svg>