<svg xmlns="http://www.w3.org/2000/svg" fill="none" viewBox="0 0 25 26"><path fill="currentColor" fill-rule="evenodd" d="M7.98 7.03a7.7 7.7 0 0 1 4.29-1.52c-.06 1.4-.04 2.81-.42 4.16a3.78 3.78 0 0 1-2.03 2.45c-1.52.65-3.2.6-4.82.67a7.32 7.32 0 0 1 2.98-5.76Zm4.75-1.53c1.36.11 2.72.47 3.86 1.24A7.47 7.47 0 0 1 20 12.8c-1.5-.06-3.03-.04-4.46-.53a3.7 3.7 0 0 1-2.26-2.2c-.53-1.46-.52-3.04-.54-4.56Zm3.07 8.15c1.37-.37 2.8-.38 4.2-.41a7.4 7.4 0 0 1-2.23 5.08 7.6 7.6 0 0 1-5.05 2.18c.04-1.55.01-3.16.58-4.63.4-1.09 1.39-1.9 2.5-2.22ZM5 13.24c1.7.06 3.51-.02 5.06.8a3.91 3.91 0 0 1 1.9 2.78c.26 1.21.27 2.45.3 3.68a7.67 7.67 0 0 1-5.32-2.45A7.3 7.3 0 0 1 5 13.24Z" clip-rule="evenodd"/></svg>