<svg xmlns="http://www.w3.org/2000/svg" fill="none" viewBox="0 0 37 36"><path fill="currentColor" d="M16.53 17.906c-.743 0-1.362-.26-1.856-.778-.495-.518-.691-1.123-.588-1.816l.327-2.305c.145-.995.63-1.818 1.454-2.469.824-.65 1.785-.976 2.883-.976s2.06.325 2.884.976c.824.651 1.309 1.474 1.454 2.469l.326 2.305c.104.693-.092 1.298-.587 1.816s-1.113.778-1.856.778H16.53Zm-.079-2.244h4.598l-.34-2.321a1.733 1.733 0 0 0-.665-1.104 2.034 2.034 0 0 0-1.293-.432c-.495 0-.926.144-1.293.431-.368.288-.59.656-.667 1.105l-.34 2.321ZM9.845 26.437v-3.053c0-.612.17-1.174.508-1.686.34-.513.79-.904 1.352-1.174a17.22 17.22 0 0 1 3.466-1.189 16.366 16.366 0 0 1 7.175-.003c1.175.264 2.325.66 3.452 1.186a3.3 3.3 0 0 1 1.351 1.171 3 3 0 0 1 .51 1.694v3.054H9.843Zm2.47-2.304h12.873v-.719a.872.872 0 0 0-.15-.496 1.02 1.02 0 0 0-.393-.347 14.67 14.67 0 0 0-2.9-.995 13.541 13.541 0 0 0-5.987 0c-.991.224-1.958.556-2.9.995a1.02 1.02 0 0 0-.394.347.871.871 0 0 0-.15.496v.72Z"/></svg>
