<svg xmlns="http://www.w3.org/2000/svg" xmlns:xlink="http://www.w3.org/1999/xlink" fill="none" viewBox="0 0 34 34"><g clip-path="url(#a)"><path fill="currentColor" d="M11 9.53h1.48V7.31a.74.74 0 1 0-1.48 0zM21.35 9.53h1.48V7.31a.74.74 0 1 0-1.48 0z"/><path fill="currentColor" fill-rule="evenodd" d="M9.9 26.2h14.03c1.23 0 2.22-.99 2.22-2.22V13.76H7.68v10.22c0 1.23 1 2.23 2.22 2.23m1.84-7.25a1.33 1.33 0 1 0 0-2.67 1.33 1.33 0 0 0 0 2.67m0 4.59a1.33 1.33 0 1 0 0-2.66 1.33 1.33 0 0 0 0 2.66m10.35-4.6a1.33 1.33 0 1 0 0-2.66 1.33 1.33 0 0 0 0 2.67m0 4.6a1.33 1.33 0 1 0 0-2.66 1.33 1.33 0 0 0 0 2.66m-5.18-4.6a1.33 1.33 0 1 0 0-2.66 1.33 1.33 0 0 0 0 2.67m0 4.6a1.33 1.33 0 1 0 0-2.66 1.33 1.33 0 0 0 0 2.66" clip-rule="evenodd"/><path fill="currentColor" d="M11 8.48H9.9c-1.23 0-2.22 1-2.22 2.22v2h18.47v-2c0-1.23-1-2.22-2.22-2.22H11"/></g><defs><clipPath id="a"><path fill="currentColor" d="M33.75 0H0v33.75h33.75z"/></clipPath></defs></svg>