<svg xmlns="http://www.w3.org/2000/svg" fill="none" viewBox="0 0 48 48"><path fill="currentColor" d="M22.75 36.94a12.86 12.86 0 0 1-9.03-3.7A13 13 0 0 1 11 29.2q-1-2.32-1-4.97t1-4.96a12.8 12.8 0 0 1 6.76-6.73 12.5 12.5 0 0 1 7.3-.79q1.13.21 2.16.62v3.51q-1-.52-2.12-.83t-2.35-.3q-3.96 0-6.74 2.76a9.1 9.1 0 0 0-2.79 6.72q0 3.96 2.79 6.72a9.2 9.2 0 0 0 6.74 2.77q3.96 0 6.74-2.77a9.1 9.1 0 0 0 2.78-6.72 9 9 0 0 0-.59-3.24h3.4a13 13 0 0 1 .42 3.24q0 2.65-1 4.97a12.8 12.8 0 0 1-6.77 6.73q-2.31 1-4.98 1m9.34-18.1v-2.68h-2.7v-3.21h2.7v-2.68h3.22v2.68H38v3.2h-2.7v2.69zm-5.22 4.33a2 2 0 0 0 1.4-.57q.56-.56.56-1.39t-.57-1.38a2 2 0 0 0-1.38-.57q-.82 0-1.39.57t-.57 1.38q0 .8.57 1.39.57.57 1.38.57m-8.25 0q.82 0 1.39-.57t.56-1.38q0-.8-.56-1.39a1.9 1.9 0 0 0-1.38-.57 2 2 0 0 0-1.4.57q-.56.56-.56 1.38 0 .83.56 1.4t1.39.56m4.13 7.73q2.13 0 3.85-1.22a6.7 6.7 0 0 0 2.44-3.22H16.46a6.7 6.7 0 0 0 6.29 4.44"/></svg>