<svg xmlns="http://www.w3.org/2000/svg" width="49" height="48" fill="none" viewBox="0 0 49 48"><g clip-path="url(#a)"><path fill="currentColor" d="m31.962 28.478 5.067-4.333 5.168.446-6.093 5.289 1.828 7.906-4.456-2.764-1.514-6.544Zm-3.567-11.015-1.268-2.965 1.966-4.628 3.369 7.95-4.067-.357ZM18.74 30.731l3.842-2.308 3.842 2.341-1.025-4.367 3.4-2.936-4.453-.396-1.764-4.138-1.764 4.124-4.452.376 3.398 2.951-1.024 4.353Zm-5.334 7.375 2.43-10.44-8.114-7.036 10.693-.909 4.167-9.85 4.167 9.85 10.693.91-8.115 7.034 2.43 10.441-9.175-5.55-9.176 5.55Z"/></g><defs><clipPath id="a"><path fill="#fff" d="M8.582 8.805h32.002v32.002H8.582z"/></clipPath></defs></svg>
