<svg xmlns="http://www.w3.org/2000/svg" xmlns:xlink="http://www.w3.org/1999/xlink" fill="none" viewBox="0 0 34 34"><g clip-path="url(#a)"><path fill="url(#b)" d="M0 0h16v16H0z" transform="translate(9 9)"/><path fill="#ed131c" d="M9 9h16v16H9z"/><g clip-path="url(#c)"><path fill="#fff" d="M10.6 25v-8.38H9v-4.57h4.16a1 1 0 0 1-.13-.36l-.03-.4q0-.96.7-1.62A2.4 2.4 0 0 1 15.4 9q.46 0 .86.16t.74.45A2.4 2.4 0 0 1 18.6 9q1 0 1.7.67a2.15 2.15 0 0 1 .54 2.38H25v4.57h-1.6V25zm8-14.48a.8.8 0 0 0-.57.22.7.7 0 0 0-.23.55q0 .32.23.54a.8.8 0 0 0 .57.22.8.8 0 0 0 .57-.22.7.7 0 0 0 .23-.54q0-.33-.23-.55a.8.8 0 0 0-.57-.22m-4 .77q0 .32.23.54a.8.8 0 0 0 .57.22.8.8 0 0 0 .57-.22.7.7 0 0 0 .23-.54q0-.33-.23-.55a.8.8 0 0 0-.57-.22.8.8 0 0 0-.57.22.7.7 0 0 0-.23.55m-4 2.28v1.53h5.6v-1.53zm5.6 9.9v-6.85h-4v6.86zm1.6 0h4v-6.85h-4zm5.6-8.37v-1.53h-5.6v1.53z"/></g></g><defs><clipPath id="a"><use xlink:href="#reuse-0"/></clipPath><clipPath id="c"><use xlink:href="#reuse-0"/></clipPath><pattern id="b" width="1" height="1" patternContentUnits="objectBoundingBox"><use xlink:href="#d" transform="scale(0)"/></pattern><path id="reuse-0" fill="#fff" d="M9 9h16v16H9z"/></defs></svg>