<svg xmlns="http://www.w3.org/2000/svg" fill="none" viewBox="0 0 48 49"><path fill="currentColor" d="M24 30.82c1.29 0 2.44-.38 3.46-1.14a6.52 6.52 0 0 0 2.2-2.95H18.33a6.52 6.52 0 0 0 2.2 2.95A5.61 5.61 0 0 0 24 30.82Zm-4.06-6.42c.67 0 1.25-.23 1.72-.7s.71-1.04.71-1.7a2.3 2.3 0 0 0-.7-1.7 2.36 2.36 0 0 0-1.73-.71c-.68 0-1.25.23-1.72.7a2.3 2.3 0 0 0-.71 1.7c0 .67.23 1.24.7 1.71.48.47 1.05.7 1.73.7Zm8.1 0c.68 0 1.25-.23 1.73-.7.47-.47.7-1.04.7-1.7a2.3 2.3 0 0 0-.7-1.7 2.36 2.36 0 0 0-1.73-.71c-.67 0-1.25.23-1.72.7a2.3 2.3 0 0 0-.7 1.7c0 .67.23 1.24.7 1.71s1.05.7 1.72.7ZM16.47 14.26 21 8.45A3.67 3.67 0 0 1 24 7c.56 0 1.1.12 1.63.36.52.24.97.6 1.36 1.09l4.53 5.81 6.88 2.29c.82.26 1.46.72 1.92 1.4a3.8 3.8 0 0 1-.01 4.39l-4.41 6.23.16 6.56a3.5 3.5 0 0 1-1.13 2.73 3.87 3.87 0 0 1-2.76 1.12l-.91-.1-7.26-1.98-7.25 1.98c-.15.05-.31.09-.47.1a3.83 3.83 0 0 1-3.2-1.1 3.46 3.46 0 0 1-1.11-2.75l.16-6.58-4.42-6.21c-.25-.34-.43-.7-.54-1.08a3.83 3.83 0 0 1 .52-3.3 3.58 3.58 0 0 1 1.92-1.41l6.87-2.29Zm2.62 3.63-7.52 2.5 4.89 6.86-.19 7.32L24 32.48l7.74 2.11-.18-7.34 4.86-6.78-7.54-2.58L24 11.55l-4.92 6.34Z"/></svg>