<svg xmlns="http://www.w3.org/2000/svg" fill="none" viewBox="0 0 48 48"><path fill="currentColor" d="M14.2 10.72a3.4 3.4 0 0 0-2.5 1.03 3.4 3.4 0 0 0-1.03 2.5v18.22c0 .98.34 1.82 1.02 2.5A3.4 3.4 0 0 0 14.2 36h18.22a3.4 3.4 0 0 0 2.5-1.03 3.4 3.4 0 0 0 1.04-2.5v-3.11H32.4v3.1H14.2v-18.2H32.4v3.1h3.54v-3.1a3.4 3.4 0 0 0-1.03-2.51 3.4 3.4 0 0 0-2.5-1.03H14.2Zm10.48 5.97c-.75 0-1.38.26-1.91.78-.53.51-.8 1.14-.8 1.89v7.96c0 .75.27 1.38.8 1.91s1.16.8 1.9.8h9.93c.74 0 1.38-.27 1.9-.8s.78-1.16.78-1.9v-7.98c0-.73-.26-1.36-.78-1.88a2.6 2.6 0 0 0-1.9-.78h-9.92Zm9.95 2.67v8h-9.99v-8h10Zm-5.99 2c.56 0 1.03.2 1.42.58.39.4.58.86.58 1.42 0 .55-.2 1.03-.58 1.42-.4.38-.86.58-1.42.58-.56 0-1.03-.2-1.42-.58a1.93 1.93 0 0 1-.58-1.42c0-.56.2-1.03.58-1.42.4-.39.86-.58 1.42-.58Z"/></svg>