<svg viewBox="0 0 32 32" fill="none" xmlns="http://www.w3.org/2000/svg">
<path d="M23.1118 12.4473V15.1133H23.1109V23.7119C23.1107 24.0363 22.9371 24.3139 22.5894 24.5449C22.2412 24.7761 21.8224 24.8916 21.3335 24.8916H10.6675C10.1786 24.8916 9.7598 24.7173 9.41165 24.3691C9.06362 24.021 8.89017 23.6021 8.89017 23.1133V8.8916C8.89017 8.40275 9.06356 7.98387 9.41165 7.63574C9.7598 7.28759 10.1786 7.11328 10.6675 7.11328H17.7788L23.1118 12.4473ZM10.6675 23.1133H21.3335V14.2666H21.3345V13.3359H16.8902V8.8916H10.6675V23.1133ZM19.6372 20.1992C20.0386 20.1994 20.3636 20.5244 20.3638 20.9258C20.3638 21.3273 20.0387 21.6531 19.6372 21.6533H12.3638C11.9623 21.6531 11.6372 21.3273 11.6372 20.9258C11.6374 20.5244 11.9624 20.1994 12.3638 20.1992H19.6372ZM19.6372 18.2529C20.0387 18.2531 20.3638 18.5789 20.3638 18.9805C20.3636 19.3818 20.0386 19.7068 19.6372 19.707H12.3638C11.9624 19.7068 11.6374 19.3818 11.6372 18.9805C11.6372 18.5789 11.9623 18.2531 12.3638 18.2529H19.6372ZM18.3589 16.3066C18.7604 16.3069 19.0855 16.6327 19.0855 17.0342C19.0854 17.4357 18.7603 17.7615 18.3589 17.7617H12.3638C11.9623 17.7615 11.6373 17.4357 11.6372 17.0342C11.6372 16.6326 11.9623 16.3068 12.3638 16.3066H18.3589Z" fill="currentColor"/>
</svg>
