<svg xmlns="http://www.w3.org/2000/svg" xmlns:xlink="http://www.w3.org/1999/xlink" fill="none" viewBox="0 0 26 26"><path fill="currentColor" fill-rule="evenodd" d="M3.14 16.32h2.74q.13 0 .24.08l5.65 3.18c1.06.62 2.39.62 3.44 0l5.36-3.03-5.71-4.43-1.45 1.4c-.98.93-2.57.93-3.56 0a2.35 2.35 0 0 1 0-3.42l2.89-2.77c-2.55-1.91-3.67-1.22-4.79-.54-.7.44-1.4.87-2.39.86H3.14zm13.1-6.67-3.42 3.3c-.66.62-1.72.62-2.37 0a1.56 1.56 0 0 1 0-2.28l4.22-4.06c1.72-1.6 2.95-.85 4.22-.08.73.44 1.47.9 2.36 1.04h2.43v8.63h-2.23l-6-4.65 1.4-1.33a.4.4 0 0 0-.01-.57.43.43 0 0 0-.6 0" clip-rule="evenodd"/></svg>