<svg xmlns="http://www.w3.org/2000/svg" fill="none" viewBox="0 0 48 49"><path fill="#1C1C1C" d="M9.066 34.641c0-1.13.075-2.122.223-2.975.148-.872.38-1.641.695-2.308a6.645 6.645 0 0 1 1.28-1.808c.518-.52 1.158-1.01 1.918-1.474a50.8 50.8 0 0 1 2.002-1.085 19.199 19.199 0 0 0 1.947-1.112c.612-.39 1.103-.834 1.474-1.335.39-.5.584-1.112.584-1.835 0-.556-.12-1.03-.362-1.418a2.252 2.252 0 0 0-1-.946c-.427-.222-.946-.334-1.558-.334-.704 0-1.363.13-1.974.39a6.87 6.87 0 0 0-1.613.917 9.872 9.872 0 0 0-1.196 1.057L9.15 17.928c.26-.297.612-.63 1.057-1.001.463-.371 1.01-.732 1.64-1.085.65-.352 1.382-.64 2.197-.862.816-.222 1.715-.334 2.698-.334 1.446 0 2.66.26 3.643.78.982.5 1.724 1.195 2.224 2.085.52.871.78 1.882.78 3.031 0 .834-.14 1.576-.418 2.225a5.29 5.29 0 0 1-1.085 1.668 9.695 9.695 0 0 1-1.557 1.307c-.575.371-1.168.733-1.78 1.085-.964.519-1.742.973-2.336 1.362-.593.39-1.066.751-1.418 1.085a4.59 4.59 0 0 0-.779 1.001 8.2 8.2 0 0 0-.444 1.001h9.844v3.365H9.066ZM30.657 34.92c-1.427 0-2.716-.307-3.865-.918-1.131-.63-2.002-1.474-2.614-2.531l2.141-2.225a6.17 6.17 0 0 0 1.947 1.724c.778.427 1.585.64 2.42.64.667 0 1.26-.139 1.779-.417.52-.278.918-.668 1.196-1.168.296-.5.445-1.075.445-1.724 0-.63-.14-1.187-.417-1.669-.279-.5-.659-.88-1.14-1.14a3.224 3.224 0 0 0-1.641-.417c-.594 0-1.16.139-1.697.417-.537.26-.964.64-1.279 1.14h-3.254l2.28-11.735h9.734v3.393h-7.036l-.778 4.421c.222-.24.546-.435.973-.584.426-.167.955-.25 1.585-.25 1.242 0 2.355.278 3.337.834a5.922 5.922 0 0 1 2.308 2.225c.575.945.862 2.04.862 3.281 0 1.317-.324 2.485-.973 3.504-.63 1.001-1.492 1.79-2.586 2.364-1.075.556-2.318.834-3.727.834Z"/></svg>
