<svg xmlns="http://www.w3.org/2000/svg" width="48" height="48" fill="none" viewBox="0 0 48 48"><g filter="url(#a)"><path fill="#000" fill-opacity=".15" fill-rule="evenodd" d="M16.02 39.97q-1.36.16-2.44-.66a3 3 0 0 1-1.24-2.14l-1.7-14q-.15-1.33.7-2.38t2.2-1.2l3.3-.4-.29-2.35q-.15-1.32.7-2.37t2.2-1.2l8.2-.97q1.35-.16 2.44.66a3 3 0 0 1 1.24 2.14l.29 2.35 3.29-.39q1.36-.15 2.44.67a3 3 0 0 1 1.24 2.14l1.7 14q.15 1.32-.7 2.37t-2.21 1.21zm4.1-21.17 8.2-.96-.2-1.62a.73.73 0 0 0-.8-.64l-6.76.8c-.4.04-.68.4-.63.8z" clip-rule="evenodd"/></g><g filter="url(#b)"><path fill="currentColor" fill-rule="evenodd" d="M15.52 38.86q-1.32.35-2.5-.3a3 3 0 0 1-1.54-1.95L7.8 22.99a3 3 0 0 1 .34-2.45 3.2 3.2 0 0 1 2.02-1.51l3.95-1.05-1.02-3.78a3 3 0 0 1 .35-2.45 3.2 3.2 0 0 1 2.02-1.5l7.97-2.13a3.3 3.3 0 0 1 2.51.31q1.2.67 1.53 1.94l1.02 3.78 3.95-1.05a3.3 3.3 0 0 1 2.5.3q1.19.68 1.54 1.95l3.67 13.62q.35 1.29-.35 2.45a3.2 3.2 0 0 1-2.01 1.5zm1.8-21.74L25.3 15l-.83-3.07a.73.73 0 0 0-.89-.52l-6.57 1.75c-.39.1-.62.5-.51.9z" clip-rule="evenodd"/></g><g filter="url(#c)"><path fill="#ed131c" fill-rule="evenodd" d="M29.62 26.56a2.2 2.2 0 0 0 1.5-2.74 2.26 2.26 0 0 0-2.74-1.6l-9.91 2.68a2.2 2.2 0 0 0-1.5 2.74 2.26 2.26 0 0 0 2.74 1.59z" clip-rule="evenodd"/></g><defs><filter id="a" width="31.8" height="29.83" x="9.56" y="11.22" color-interpolation-filters="sRGB" filterUnits="userSpaceOnUse"><feFlood flood-opacity="0" result="BackgroundImageFix"/><feBlend in="SourceGraphic" in2="BackgroundImageFix" result="shape"/><feGaussianBlur result="effect1_foregroundBlur_3167_13401" stdDeviation=".53"/></filter><filter id="b" width="36.91" height="35.1" x="5.63" y="7.31" color-interpolation-filters="sRGB" filterUnits="userSpaceOnUse"><feFlood flood-opacity="0" result="BackgroundImageFix"/><feColorMatrix in="SourceAlpha" result="hardAlpha" values="0 0 0 0 0 0 0 0 0 0 0 0 0 0 0 0 0 0 127 0"/><feOffset dy="1.37"/><feGaussianBlur stdDeviation="1.03"/><feComposite in2="hardAlpha" operator="out"/><feColorMatrix values="0 0 0 0 0 0 0 0 0 0 0 0 0 0 0 0 0 0 0.12 0"/><feBlend in2="BackgroundImageFix" result="effect1_dropShadow_3167_13401"/><feBlend in="SourceGraphic" in2="effect1_dropShadow_3167_13401" result="shape"/><feColorMatrix in="SourceAlpha" result="hardAlpha" values="0 0 0 0 0 0 0 0 0 0 0 0 0 0 0 0 0 0 127 0"/><feOffset dx="-1.93"/><feGaussianBlur stdDeviation="2.53"/><feComposite in2="hardAlpha" k2="-1" k3="1" operator="arithmetic"/><feColorMatrix values="0 0 0 0 0.98903 0 0 0 0 0.98903 0 0 0 0 0.98903 0 0 0 0.7 0"/><feBlend in2="shape" result="effect2_innerShadow_3167_13401"/><feColorMatrix in="SourceAlpha" result="hardAlpha" values="0 0 0 0 0 0 0 0 0 0 0 0 0 0 0 0 0 0 127 0"/><feOffset dx="2.26" dy="1.99"/><feGaussianBlur stdDeviation="1.54"/><feComposite in2="hardAlpha" k2="-1" k3="1" operator="arithmetic"/><feColorMatrix values="0 0 0 0 0.550342 0 0 0 0 0.550342 0 0 0 0 0.550342 0 0 0 0.07 0"/><feBlend in2="effect2_innerShadow_3167_13401" result="effect3_innerShadow_3167_13401"/></filter><filter id="c" width="17.07" height="10.14" x="15.51" y="21.12" color-interpolation-filters="sRGB" filterUnits="userSpaceOnUse"><feFlood flood-opacity="0" result="BackgroundImageFix"/><feColorMatrix in="SourceAlpha" result="hardAlpha" values="0 0 0 0 0 0 0 0 0 0 0 0 0 0 0 0 0 0 127 0"/><feOffset dy=".58"/><feGaussianBlur stdDeviation=".69"/><feComposite in2="hardAlpha" operator="out"/><feColorMatrix values="0 0 0 0 0.41854 0 0 0 0 0 0 0 0 0 0.0164594 0 0 0 0.41 0"/><feBlend in2="BackgroundImageFix" result="effect1_dropShadow_3167_13401"/><feBlend in="SourceGraphic" in2="effect1_dropShadow_3167_13401" result="shape"/><feColorMatrix in="SourceAlpha" result="hardAlpha" values="0 0 0 0 0 0 0 0 0 0 0 0 0 0 0 0 0 0 127 0"/><feOffset dx=".33"/><feGaussianBlur stdDeviation=".29"/><feComposite in2="hardAlpha" k2="-1" k3="1" operator="arithmetic"/><feColorMatrix values="0 0 0 0 0.8375 0 0 0 0 0.0628125 0 0 0 0 0.094795 0 0 0 1 0"/><feBlend in2="shape" result="effect2_innerShadow_3167_13401"/><feColorMatrix in="SourceAlpha" result="hardAlpha" values="0 0 0 0 0 0 0 0 0 0 0 0 0 0 0 0 0 0 127 0"/><feOffset dx="-.33"/><feGaussianBlur stdDeviation=".33"/><feComposite in2="hardAlpha" k2="-1" k3="1" operator="arithmetic"/><feColorMatrix values="0 0 0 0 1 0 0 0 0 0.3125 0 0 0 0 0.340883 0 0 0 1 0"/><feBlend in2="effect2_innerShadow_3167_13401" result="effect3_innerShadow_3167_13401"/><feColorMatrix in="SourceAlpha" result="hardAlpha" values="0 0 0 0 0 0 0 0 0 0 0 0 0 0 0 0 0 0 127 0"/><feOffset dy="-1.03"/><feGaussianBlur stdDeviation=".69"/><feComposite in2="hardAlpha" k2="-1" k3="1" operator="arithmetic"/><feColorMatrix values="0 0 0 0 0 0 0 0 0 0 0 0 0 0 0 0 0 0 0.13 0"/><feBlend in2="effect3_innerShadow_3167_13401" result="effect4_innerShadow_3167_13401"/></filter></defs></svg>