<svg xmlns="http://www.w3.org/2000/svg" fill="none" viewBox="0 0 49 49"><mask id="a" width="31" height="31" x="9" y="9" maskUnits="userSpaceOnUse" style="mask-type:alpha"><path fill="currentColor" d="M40 9H9v31h31V9Z"/></mask><g mask="url(#a)"><path fill="currentColor" d="M24.5 24.5c-1.1 0-2.02-.37-2.76-1.11a3.75 3.75 0 0 1-1.11-2.76c0-1.08.37-2 1.11-2.75a3.72 3.72 0 0 1 2.76-1.13c1.08 0 2 .38 2.75 1.13a3.74 3.74 0 0 1 1.13 2.75c0 1.1-.38 2.01-1.13 2.76a3.76 3.76 0 0 1-2.75 1.11Zm0-2.58c.37 0 .67-.13.92-.37.25-.25.37-.56.37-.92 0-.37-.12-.68-.37-.93a1.25 1.25 0 0 0-.92-.37c-.37 0-.67.13-.92.37-.25.25-.37.56-.37.93 0 .36.12.67.37.92.25.24.55.37.92.37Zm-7.75 10.33V29.8a2.6 2.6 0 0 1 1.26-2.23 12.99 12.99 0 0 1 6.5-1.78 12.57 12.57 0 0 1 6.48 1.78 2.6 2.6 0 0 1 1.26 2.23v2.45h-15.5Zm7.75-3.87a9.6 9.6 0 0 0-4.97 1.3h9.94a9.6 9.6 0 0 0-2.39-.98c-.84-.22-1.7-.32-2.58-.32Zm-10.33 9.04c-.71 0-1.32-.26-1.83-.76-.5-.5-.76-1.12-.76-1.83v-5.16h2.59v5.16h5.16v2.59h-5.16Zm-2.59-18.09v-5.16c0-.71.26-1.32.76-1.83.5-.5 1.12-.76 1.83-.76h5.16v2.59h-5.16v5.16h-2.59Zm18.09 18.09v-2.59h5.16v-5.16h2.59v5.16c0 .71-.26 1.32-.76 1.83-.5.5-1.12.76-1.83.76h-5.16Zm5.16-18.09v-5.16h-5.16v-2.59h5.16c.71 0 1.32.26 1.83.76.5.5.76 1.12.76 1.83v5.16h-2.59Z"/></g></svg>