<svg xmlns="http://www.w3.org/2000/svg" fill="none" viewBox="0 0 48 48"><path fill="currentColor" d="M24 24.67c.7 0 1.3-.25 1.8-.74.48-.5.72-1.1.72-1.82 0-.7-.24-1.31-.73-1.8a2.42 2.42 0 0 0-1.79-.75c-.7 0-1.3.25-1.8.74-.48.5-.72 1.1-.72 1.81 0 .72.24 1.32.73 1.82s1.09.74 1.79.74Zm0 8.14a34.3 34.3 0 0 0 5.18-5.72 8.66 8.66 0 0 0 1.7-4.8c0-2.1-.67-3.8-2-5.13a6.63 6.63 0 0 0-4.88-2c-1.93 0-3.56.67-4.88 2a6.95 6.95 0 0 0-2 5.13c0 1.52.57 3.12 1.7 4.8A34.97 34.97 0 0 0 24 32.8ZM24 37c-3.34-2.84-5.84-5.44-7.5-7.8-1.67-2.36-2.5-4.67-2.5-6.91 0-3.14 1-5.64 3.02-7.5A9.97 9.97 0 0 1 24 12c2.65 0 4.97.93 6.98 2.8C33 16.64 34 19.14 34 22.28c0 2.24-.83 4.55-2.5 6.91-1.66 2.36-4.16 4.96-7.5 7.8Z"/></svg>