<svg xmlns="http://www.w3.org/2000/svg" fill="none" viewBox="0 0 32 33"><path fill="currentColor" fill-rule="evenodd" d="M16 8.36a.89.89 0 0 0-.69.3c-.2.2-.28.42-.28.7v4.15l-6.74 4.81v1.13l6.74-2.75v4.55l-2.53 1.78v.8l3.5-1.08 3.48 1.07v-.8l-2.5-1.78V16.7l6.72 2.75v-1.13l-6.73-4.8V9.36c0-.3-.08-.5-.28-.71-.2-.2-.41-.3-.7-.3ZM13.69 7a3.14 3.14 0 0 1 2.3-1c.9 0 1.69.35 2.32 1 .63.64.96 1.46.96 2.38v2.9L26 17.1v5.84l-6.15-2.51 1.93 1.37v5.2L16 25.23 10.2 27v-5.21l1.93-1.37L6 22.93v-5.84l6.73-4.81V9.37c0-.92.33-1.74.96-2.38Z" clip-rule="evenodd"/></svg>