<svg xmlns="http://www.w3.org/2000/svg" fill="none" viewBox="0 0 48 49"><path fill="currentColor" d="M31.63 34.95A7.63 7.63 0 0 1 27.9 34a9.19 9.19 0 0 1-2.67-2.4 11.06 11.06 0 0 1-2.18-6.68c0-1.2.2-2.38.59-3.57.4-1.2.98-2.28 1.73-3.23a8.83 8.83 0 0 1 2.7-2.34c1.06-.6 2.25-.89 3.56-.89 1.42 0 2.66.32 3.74.97a8.9 8.9 0 0 1 2.7 2.43 10.5 10.5 0 0 1 1.61 3.26c.38 1.17.56 2.3.56 3.37 0 1.2-.2 2.4-.61 3.6a10.76 10.76 0 0 1-1.7 3.22 9 9 0 0 1-2.7 2.31c-1.06.6-2.26.9-3.6.9Zm-4.7-10.03c.02.78.12 1.56.3 2.34.2.78.5 1.5.87 2.14a5.3 5.3 0 0 0 1.44 1.56c.6.4 1.3.59 2.1.59.83 0 1.54-.22 2.14-.64.6-.43 1.08-.97 1.45-1.62a8 8 0 0 0 .86-2.14 9.2 9.2 0 0 0-.03-4.57c-.2-.78-.5-1.49-.89-2.12a4.76 4.76 0 0 0-1.47-1.56c-.6-.4-1.29-.61-2.07-.61-.81 0-1.52.21-2.11.64-.6.43-1.09.97-1.48 1.64a9.52 9.52 0 0 0-1.11 4.35ZM15.15 34.92a7.98 7.98 0 0 1-4.13-1 5.3 5.3 0 0 1-2.08-2.26c-.18-.37-.1-.81.16-1.13l.95-1.17c.24-.31.8-.2 1 .13.2.31.49.63.84.94.37.3.81.55 1.33.76.54.2 1.17.3 1.87.3a4.23 4.23 0 0 0 2.53-.7c.34-.22.6-.49.79-.8.2-.34.3-.72.3-1.14 0-.95-.5-1.66-1.5-2.12-1-.47-2.4-.7-4.2-.7a.92.92 0 0 1-.93-.92v-1.28c0-.5.41-.92.92-.92.74 0 1.43-.04 2.06-.14a7.2 7.2 0 0 0 1.65-.47c.46-.22.82-.5 1.08-.84.26-.33.4-.73.4-1.2 0-.4-.1-.76-.29-1.05-.16-.3-.39-.54-.66-.73a3.73 3.73 0 0 0-1.95-.56 5 5 0 0 0-1.54.23 4.6 4.6 0 0 0-2.14 1.25c-.33.35-.92.41-1.23.05l-.88-.99c-.51-.57-.57-1.44.02-1.94l.3-.24a7.52 7.52 0 0 1 1.62-.89 10.33 10.33 0 0 1 3.82-.75c1 0 1.92.14 2.76.42.85.28 1.58.67 2.2 1.17a5.07 5.07 0 0 1 1.95 3.84 3.9 3.9 0 0 1-1 2.76 5.24 5.24 0 0 1-2.74 1.45c.64.1 1.2.32 1.7.64.52.3.96.68 1.31 1.14.37.45.65.96.84 1.53.2.56.3 1.14.3 1.76a4.7 4.7 0 0 1-.64 2.48c-.42.68-.99 1.26-1.7 1.72a8.3 8.3 0 0 1-2.36 1.03c-.9.23-1.8.34-2.73.34Z"/></svg>