<svg xmlns="http://www.w3.org/2000/svg" fill="none" viewBox="0 0 37 36"><path fill="currentColor" fill-rule="evenodd" d="M26.676 15.85c-3.042-.72-5.873-2.534-7.822-4.051-1.926 1.571-4.625 3.433-7.985 4.107.446 4.772 2.297 7.419 4.005 8.92 1.604 1.41 3.255 1.96 3.976 2.144.705-.176 2.313-.704 3.877-2.09 1.68-1.49 3.52-4.153 3.949-9.03Zm2.575-1.178c.019-.552-.432-1.002-.98-1.07-3.309-.413-6.703-2.746-8.76-4.49a1.037 1.037 0 0 0-1.346-.001c-2.133 1.84-5.126 4.15-8.898 4.507-.55.052-1 .502-.981 1.054.448 12.536 9.243 14.606 10.423 14.828a.71.71 0 0 0 .26.001c1.172-.209 9.844-2.182 10.282-14.829Z" clip-rule="evenodd"/><path fill="currentColor" fill-rule="evenodd" d="m24.768 17.29-6.351 6.486-4.649-3.754 1.567-1.696 2.886 2.33L23 15.776l1.768 1.513Z" clip-rule="evenodd"/></svg>
