<svg xmlns="http://www.w3.org/2000/svg" width="48" height="48" fill="none" viewBox="0 0 48 48"><g filter="url(#a)"><path fill="currentColor" fill-rule="evenodd" d="m13.04 22.16-5.48 9.48c-.2.34.02.76.41.8l9.58 1.04 5.69 7.77c.23.32.7.3.9-.05l5.48-9.48a13 13 0 0 0 4.2-2.13q1.9-1.47 3.17-3.65a12.3 12.3 0 0 0 1.25-9.77A12.7 12.7 0 0 0 32.1 8.3a12.7 12.7 0 0 0-9.9-1.38q-5.16 1.33-7.84 5.97a12 12 0 0 0-1.57 4.57q-.3 2.4.25 4.7" clip-rule="evenodd"/></g><g filter="url(#b)"><path fill="#ed131c" d="M28.47 13.12c.82-.79 2.16-.02 1.9 1.09-.2.8.5 1.54 1.32 1.37 1.11-.22 1.83 1.14 1.01 1.92l-.05.05c-.6.58-.4 1.58.38 1.89 1.06.42.88 1.96-.24 2.19a1.17 1.17 0 0 0-.73 1.8c.66.94-.3 2.17-1.37 1.75-.78-.31-1.61.28-1.58 1.11v.07c.04 1.13-1.42 1.62-2.07.7a1.15 1.15 0 0 0-1.93.1c-.57.97-2.08.63-2.13-.5a1.13 1.13 0 0 0-1.66-.96c-1 .53-2.06-.6-1.5-1.58a1.14 1.14 0 0 0-.88-1.71c-1.13-.1-1.43-1.6-.43-2.14l.06-.03c.74-.39.84-1.4.18-1.92-.9-.71-.3-2.15.84-2.05.83.07 1.47-.75 1.2-1.54-.36-1.08.9-2 1.8-1.3.65.52 1.62.2 1.82-.61l.02-.07c.27-1.1 1.81-1.16 2.17-.09a1.14 1.14 0 0 0 1.87.46"/></g><defs><filter id="a" width="32.05" height="35.38" x="7.12" y="6.48" color-interpolation-filters="sRGB" filterUnits="userSpaceOnUse"><feFlood flood-opacity="0" result="BackgroundImageFix"/><feBlend in="SourceGraphic" in2="BackgroundImageFix" result="shape"/><feColorMatrix in="SourceAlpha" result="hardAlpha" values="0 0 0 0 0 0 0 0 0 0 0 0 0 0 0 0 0 0 127 0"/><feOffset dx="-.37"/><feGaussianBlur stdDeviation=".48"/><feComposite in2="hardAlpha" k2="-1" k3="1" operator="arithmetic"/><feColorMatrix values="0 0 0 0 0.98903 0 0 0 0 0.98903 0 0 0 0 0.98903 0 0 0 0.7 0"/><feBlend in2="shape" result="effect1_innerShadow_3167_13411"/><feColorMatrix in="SourceAlpha" result="hardAlpha" values="0 0 0 0 0 0 0 0 0 0 0 0 0 0 0 0 0 0 127 0"/><feOffset dx=".43" dy=".38"/><feGaussianBlur stdDeviation=".29"/><feComposite in2="hardAlpha" k2="-1" k3="1" operator="arithmetic"/><feColorMatrix values="0 0 0 0 0.550342 0 0 0 0 0.550342 0 0 0 0 0.550342 0 0 0 0.07 0"/><feBlend in2="effect1_innerShadow_3167_13411" result="effect2_innerShadow_3167_13411"/></filter><filter id="b" width="25.38" height="25.38" x="11.29" y="7.12" color-interpolation-filters="sRGB" filterUnits="userSpaceOnUse"><feFlood flood-opacity="0" result="BackgroundImageFix"/><feColorMatrix in="SourceAlpha" result="hardAlpha" values="0 0 0 0 0 0 0 0 0 0 0 0 0 0 0 0 0 0 127 0"/><feOffset dx="-1.84"/><feGaussianBlur stdDeviation="2.39"/><feComposite in2="hardAlpha" operator="out"/><feColorMatrix values="0 0 0 0 0.531836 0 0 0 0 0.0249038 0 0 0 0 0.0447835 0 0 0 0.2 0"/><feBlend in2="BackgroundImageFix" result="effect1_dropShadow_3167_13411"/><feBlend in="SourceGraphic" in2="effect1_dropShadow_3167_13411" result="shape"/><feColorMatrix in="SourceAlpha" result="hardAlpha" values="0 0 0 0 0 0 0 0 0 0 0 0 0 0 0 0 0 0 127 0"/><feOffset dx="1.14"/><feGaussianBlur stdDeviation="1"/><feComposite in2="hardAlpha" k2="-1" k3="1" operator="arithmetic"/><feColorMatrix values="0 0 0 0 0.8375 0 0 0 0 0.0628125 0 0 0 0 0.094795 0 0 0 1 0"/><feBlend in2="shape" result="effect2_innerShadow_3167_13411"/><feColorMatrix in="SourceAlpha" result="hardAlpha" values="0 0 0 0 0 0 0 0 0 0 0 0 0 0 0 0 0 0 127 0"/><feOffset dx="-1.14"/><feGaussianBlur stdDeviation="1.14"/><feComposite in2="hardAlpha" k2="-1" k3="1" operator="arithmetic"/><feColorMatrix values="0 0 0 0 1 0 0 0 0 0.3125 0 0 0 0 0.340883 0 0 0 1 0"/><feBlend in2="effect2_innerShadow_3167_13411" result="effect3_innerShadow_3167_13411"/></filter></defs></svg>