<svg xmlns="http://www.w3.org/2000/svg" fill="none" viewBox="0 0 49 49"><path fill="currentColor" fill-rule="evenodd" d="m27.41 26.63-7.99 3.2 3.2-8 7.98-3.18-3.19 7.98Zm-1.46-1.9a1.04 1.04 0 0 1-.94.56 1.02 1.02 0 0 1-1.05-1.05c0-.18.03-.34.1-.49.05-.1.12-.18.2-.27.2-.2.45-.3.75-.3a1.02 1.02 0 0 1 1.05 1.05c0 .17-.03.34-.11.5Z" clip-rule="evenodd"/><path fill="currentColor" d="M34.87 24.41c0-1.43-.27-2.72-.78-3.92a10.12 10.12 0 0 0-5.33-5.34l-.45-.17-.4-.14c-.96-.3-1.98-.46-3.07-.46-1.44 0-2.73.26-3.92.78a10.12 10.12 0 0 0-5.34 5.32c-.5 1.21-.77 2.51-.77 3.93v.01a9.76 9.76 0 0 0 .77 3.92l.2.44a10.12 10.12 0 0 0 12.98 4.88l.46-.21a10.12 10.12 0 0 0 4.87-5.12l.18-.48c.4-1.05.6-2.2.6-3.44Zm2.4 0c0 1.53-.25 2.96-.76 4.3v.01l-.2.52v.02l-.02.01a12.52 12.52 0 0 1-6.02 6.34h-.02l-.02.01-.5.23h-.02v.01a12.52 12.52 0 0 1-16.07-6.02l-.01-.01v-.02l-.24-.5v-.01l-.01-.02c-.66-1.54-.99-3.2-.97-4.88 0-1.74.33-3.35.96-4.85v-.01a12.52 12.52 0 0 1 6.59-6.58c1.51-.66 3.14-.98 4.88-.98 1.33 0 2.59.2 3.78.57l.51.17h.02v.01l.52.2.02.01h.01a12.52 12.52 0 0 1 7.57 11.47Z"/></svg>