<svg xmlns="http://www.w3.org/2000/svg" fill="none" viewBox="0 0 16 17"><path fill="currentColor" d="M7.27 10.54c0-.7.07-1.22.2-1.54.13-.33.38-.64.74-.93.3-.23.51-.45.65-.64s.2-.4.2-.66c0-.27-.08-.5-.26-.68a1 1 0 0 0-.74-.28c-.34 0-.62.11-.83.33-.2.22-.35.47-.44.77l-1.46-.63c.19-.59.52-1.07.98-1.46a2.64 2.64 0 0 1 1.75-.58c.84 0 1.48.24 1.93.73.45.49.68 1.07.68 1.76 0 .45-.08.83-.25 1.14-.16.31-.41.63-.77.96-.35.32-.56.57-.64.76-.09.2-.13.5-.13.95h-1.6Zm.79 3.03c-.3 0-.56-.1-.77-.32a1.09 1.09 0 0 1-.32-.79c0-.3.1-.57.32-.79.21-.22.47-.33.77-.33.3 0 .56.11.77.33.22.22.32.48.32.8 0 .3-.1.56-.32.78-.21.22-.47.32-.77.32Z"/></svg>