<svg xmlns="http://www.w3.org/2000/svg" xml:space="preserve" viewBox="0 0 66 66"><path fill="currentColor" d="M34.688 18.586c1 0 1.875-.505 2.188-1.262l.688-1.767c.625-1.515-.75-3.08-2.75-3.08h-.438v-.05c.125-.304.063-.607-.25-.859l-.375-.303a1.192 1.192 0 0 0-1.5 0l-.375.303c-.25.202-.375.555-.25.858v.05h-.437c-2 0-3.375 1.566-2.75 3.08l.687 1.768c.313.757 1.188 1.262 2.188 1.262h3.374z"/><path fill="currentColor" d="M12.115 17.238a.894.894 0 0 0-.226.393c-.962 3.877-1.131 7.867-.566 11.8.566 3.035 2.32 7.7 5.373 9.273 3.055 1.63 5.6.394 7.353-.506 1.019-.507 1.697-.843 2.263-.73.34.056.509.562.283.843l-2.263 2.81c-.622.729-.791 1.63-.622 2.473l-2.262 2.023c-.622-.675-1.527-1.068-2.546-1.068a3.538 3.538 0 0 0-3.563 3.511v.029a3.538 3.538 0 0 0 3.534 3.54h.029a3.537 3.537 0 0 0 3.564-3.51v-.03c0-.056-.014-.126-.029-.197-.014-.07-.028-.14-.028-.195l2.659-2.36c.396.224.848.28 1.357.224 1.47-.224 2.941-.898 4.242-1.629.592 1.899-1.345 3.51-2.86 4.768-.368.305-.71.59-.986.852-.566.506-1.527 1.405-.848 2.248.37.473 1.035.65 1.628.811l.125.033c.283.111.566.168.848.225 1.245.224 2.376.785 3.338 1.517.103.077.195.154.28.226.102.086.193.164.285.224a.653.653 0 0 0 .453.169c.17 0 .34-.057.452-.169.134-.133.269-.231.431-.351a9.422 9.422 0 0 1 3.472-1.616c.284-.112.565-.169.85-.224l.22-.064c.537-.152 1.187-.337 1.533-.78.637-.79-.169-1.58-.738-2.138l-.109-.109c-.264-.24-.579-.5-.915-.775-1.546-1.271-3.536-2.905-2.933-4.844 1.302.73 2.772 1.461 4.242 1.631.51.111 1.019 0 1.414-.226l2.715 2.416-1.752 1.573c-.511.394-.511 1.124-.113 1.574.396.506 1.131.506 1.582.111l2.716-2.416 1.528-1.349c.509.226 1.074.394 1.695.394a1.13 1.13 0 0 0 1.133-1.123c0-.451-.27-.841-.654-1.02a1.402 1.402 0 1 0-1.947-1.986 1.131 1.131 0 0 0-2.094.588 3.5 3.5 0 0 0 .338 1.519l-.679.618-3.11-2.754c.17-.844 0-1.742-.622-2.416l-2.264-2.811c-.282-.337-.112-.787.283-.843.566-.112 1.244.169 2.263.729 1.754.9 4.3 2.08 7.353.508 3.055-1.574 4.865-6.238 5.374-9.273a27.404 27.404 0 0 0-.51-11.744c0-.169-.112-.281-.226-.393-.17-.113-.282-.169-.453-.169-.17 0-.34.056-.452.112a.507.507 0 0 0-.339.337c-.51.9-1.471 2.53-2.377 3.822-2.657 3.82-5.372 6.518-9.219 6.63-.453 0-.904-.112-1.3-.28-1.188-.562-1.924-1.91-1.754-3.26 0-.561.17-1.18.509-1.685.34-.506.793-.9 1.357-1.18.792-.394 1.811-.45 2.715-.282.453.057.905.225 1.301.45.396.225.622.113.68-.337.056-1.18-.17-2.754-1.246-3.484-1.413-.955-3.563-.281-4.863.45-1.414.73-2.602 1.854-3.62 3.09a17.92 17.92 0 0 0-1.81 2.754c-.452-1.012-1.131-1.911-1.81-2.754-1.018-1.236-2.206-2.36-3.62-3.09-1.357-.731-3.507-1.405-4.864-.45-1.075.73-1.3 2.304-1.244 3.484.056.506.282.562.678.337a3.6 3.6 0 0 1 1.301-.45c.849-.168 1.923-.112 2.715.281a3.442 3.442 0 0 1 1.358 1.18c.283.506.509 1.068.509 1.686.226 1.35-.51 2.698-1.754 3.26-.395.168-.848.28-1.3.28-3.847-.112-6.562-2.81-9.22-6.63-.905-1.293-1.867-2.922-2.376-3.822-.113-.168-.226-.28-.339-.337-.113-.112-.283-.112-.452-.112a.623.623 0 0 0-.454.165zM42.93 16.51c.377 0 .706-.19.823-.475l.258-.664c.235-.57-.282-1.158-1.032-1.158h-.166v-.02c.047-.113.024-.227-.094-.322l-.14-.114a.45.45 0 0 0-.565 0l-.14.114c-.095.076-.142.209-.095.323v.019h-.164c-.752 0-1.27.588-1.034 1.158l.258.664c.118.285.447.475.823.475h1.27-.002zm-18.212 0c.376 0 .705-.19.823-.475l.258-.664c.235-.57-.282-1.158-1.034-1.158h-.164v-.02c.047-.113.023-.227-.094-.322l-.141-.114a.448.448 0 0 0-.564 0l-.141.114c-.094.076-.141.209-.094.323v.019h-.164c-.752 0-1.27.588-1.034 1.158l.258.664c.118.285.447.475.823.475h1.268z"/></svg>