<svg xmlns="http://www.w3.org/2000/svg" width="48" height="48" fill="none" viewBox="0 0 48 48"><g filter="url(#a)"><path fill="currentColor" d="M8.73 36.36V32.2q0-1.37.76-2.57.75-1.2 2.08-1.78a29 29 0 0 1 4.48-1.55 19 19 0 0 1 7.6-.35q1.48.23 2.93.56v2.05a6.5 6.5 0 0 0-2.96 2.08A5.2 5.2 0 0 0 22.39 34v2.36zm15.74 0v-2.33q0-.95.47-1.77t1.33-1.3q1.32-.68 2.72-.98a14 14 0 0 1 5.76.01q1.4.3 2.69.96.85.45 1.35 1.28.48.84.48 1.8v2.33zm7.38-8.35a3.7 3.7 0 0 1-2.73-1.1A3.7 3.7 0 0 1 28 24.2q0-1.63 1.12-2.74a3.7 3.7 0 0 1 2.73-1.1 3.8 3.8 0 0 1 3.89 3.84q0 1.59-1.12 2.7a3.8 3.8 0 0 1-2.77 1.1M20.7 23.62a6 6 0 0 1-4.3-1.74 5.8 5.8 0 0 1-1.77-4.25q0-2.53 1.77-4.26a6 6 0 0 1 4.3-1.73q2.54 0 4.32 1.73a5.7 5.7 0 0 1 1.78 4.26q0 2.5-1.78 4.25a6 6 0 0 1-4.32 1.74"/></g><defs><filter id="a" width="39.7" height="33.45" x="4.36" y="10.18" color-interpolation-filters="sRGB" filterUnits="userSpaceOnUse"><feFlood flood-opacity="0" result="BackgroundImageFix"/><feColorMatrix in="SourceAlpha" result="hardAlpha" values="0 0 0 0 0 0 0 0 0 0 0 0 0 0 0 0 0 0 127 0"/><feOffset dy="2.91"/><feGaussianBlur stdDeviation="2.18"/><feComposite in2="hardAlpha" operator="out"/><feColorMatrix values="0 0 0 0 0 0 0 0 0 0 0 0 0 0 0 0 0 0 0.12 0"/><feBlend in2="BackgroundImageFix" result="effect1_dropShadow_3167_13394"/><feBlend in="SourceGraphic" in2="effect1_dropShadow_3167_13394" result="shape"/><feColorMatrix in="SourceAlpha" result="hardAlpha" values="0 0 0 0 0 0 0 0 0 0 0 0 0 0 0 0 0 0 127 0"/><feOffset dx="-4.1"/><feGaussianBlur stdDeviation="5.35"/><feComposite in2="hardAlpha" k2="-1" k3="1" operator="arithmetic"/><feColorMatrix values="0 0 0 0 0.98903 0 0 0 0 0.98903 0 0 0 0 0.98903 0 0 0 0.7 0"/><feBlend in2="shape" result="effect2_innerShadow_3167_13394"/><feColorMatrix in="SourceAlpha" result="hardAlpha" values="0 0 0 0 0 0 0 0 0 0 0 0 0 0 0 0 0 0 127 0"/><feOffset dx="4.79" dy="4.22"/><feGaussianBlur stdDeviation="3.26"/><feComposite in2="hardAlpha" k2="-1" k3="1" operator="arithmetic"/><feColorMatrix values="0 0 0 0 0.550342 0 0 0 0 0.550342 0 0 0 0 0.550342 0 0 0 0.07 0"/><feBlend in2="effect2_innerShadow_3167_13394" result="effect3_innerShadow_3167_13394"/></filter></defs></svg>