<svg xmlns="http://www.w3.org/2000/svg" fill="none" viewBox="0 0 48 48"><path fill="currentColor" d="M22.78 31.14h8.6v-2.73h-8.6v2.73Zm0-5.55h8.6v-2.84h-8.6v2.84Zm0-5.56h8.6v-2.96h-8.6v2.96Zm-8.99 17.3c-.86 0-1.6-.3-2.2-.91a3.01 3.01 0 0 1-.92-2.21V13.8c0-.87.3-1.6.91-2.22a3 3 0 0 1 2.21-.92h20.4c.87 0 1.6.3 2.22.92.62.61.92 1.35.92 2.22v20.4a3 3 0 0 1-.92 2.2c-.61.62-1.35.92-2.22.92H13.8Zm0-3.12h20.4V13.8H13.8v20.4Z"/><path fill="#fff" d="M20.32 31.14h-3.5v-2.73h3.5v2.73ZM20.32 25.59h-3.5v-2.84h3.5v2.84ZM20.32 20.03h-3.5v-2.96h3.5v2.96Z"/></svg>