<svg xmlns="http://www.w3.org/2000/svg" fill="none" viewBox="0 0 48 48"><path fill="currentColor" d="M24 39c-2.05 0-3.99-.4-5.81-1.18a15.25 15.25 0 0 1-8-8A14.47 14.47 0 0 1 9 24c0-2.07.4-4.01 1.18-5.82a15.3 15.3 0 0 1 8-8A14.47 14.47 0 0 1 24 9c2.07 0 4.01.4 5.82 1.18a15.3 15.3 0 0 1 8 8A14.44 14.44 0 0 1 39 24c0 2.05-.4 3.99-1.18 5.81a15.25 15.25 0 0 1-8 8A14.44 14.44 0 0 1 24 39Zm-.02-3.4a19.9 19.9 0 0 0 1.62-2.74c.47-.96.85-1.97 1.14-3.03h-5.49a18.14 18.14 0 0 0 2.73 5.76ZM20.2 35c-.45-.8-.83-1.63-1.15-2.5-.32-.87-.6-1.76-.81-2.67h-4.29c.7 1.21 1.57 2.27 2.63 3.17 1.06.9 2.26 1.57 3.62 2Zm7.57 0c1.36-.43 2.57-1.1 3.63-2 1.07-.9 1.95-1.96 2.64-3.17h-4.29c-.22.91-.49 1.8-.81 2.67-.33.87-.72 1.7-1.17 2.5Zm-15.06-8.09h4.94a20.33 20.33 0 0 1-.17-4.39c.04-.46.1-.94.17-1.43H12.7a12.31 12.31 0 0 0-.37 2.91 11.54 11.54 0 0 0 .37 2.91Zm7.88 0h6.81a17.39 17.39 0 0 0 .2-2.91 22.47 22.47 0 0 0-.2-2.91H20.6a20.47 20.47 0 0 0-.17 4.38c.04.47.1.95.17 1.44Zm9.75 0h4.93a12.26 12.26 0 0 0 .37-2.91 11.49 11.49 0 0 0-.37-2.91h-4.93a22.3 22.3 0 0 1 .15 4.38c-.03.47-.08.95-.15 1.44Zm-.59-8.75h4.29A11.72 11.72 0 0 0 31.4 15a10.56 10.56 0 0 0-3.63-2c.45.8.84 1.63 1.17 2.5.32.86.6 1.75.81 2.66Zm-8.5 0h5.5a16.82 16.82 0 0 0-1.14-3.02c-.47-.95-1-1.86-1.63-2.73a19.09 19.09 0 0 0-2.73 5.75Zm-7.3 0h4.29c.22-.91.49-1.8.8-2.67.33-.86.71-1.7 1.16-2.5-1.36.44-2.56 1.1-3.62 2a11.8 11.8 0 0 0-2.63 3.17Z"/></svg>
