<svg xmlns="http://www.w3.org/2000/svg" xml:space="preserve" viewBox="0 0 48 48"><path fill="currentColor" d="M23.982 36.945c-3.652 0-6.729-.603-9.23-1.809C12.251 33.932 11 32.456 11 30.711V17.183c0-1.738 1.262-3.211 3.787-4.421 2.525-1.21 5.59-1.814 9.195-1.814 3.559 0 6.618.61 9.178 1.832C35.721 14 37 15.469 37 17.183v13.528c0 1.745-1.268 3.221-3.805 4.426-2.537 1.206-5.607 1.811-9.213 1.811v-.003zM24 19.367c1.902 0 3.766-.235 5.585-.704 1.819-.47 3.095-1.057 3.823-1.762-.705-.68-1.991-1.268-3.858-1.761A21.67 21.67 0 0 0 24 14.4c-1.908.001-3.809.25-5.653.74-1.868.493-3.118 1.08-3.752 1.761.657.705 1.89 1.292 3.699 1.762 1.808.47 3.71.704 5.706.704zm0 7.081c1.766 0 3.521-.255 5.214-.757.8-.238 1.578-.545 2.325-.916a12.292 12.292 0 0 0 2.008-1.25V20.6c-.663.358-1.375.676-2.135.955a21.228 21.228 0 0 1-4.887 1.154 22.547 22.547 0 0 1-5.154 0 20.298 20.298 0 0 1-4.84-1.157 15.28 15.28 0 0 1-2.078-.952v2.924c.714.492 1.444.92 2.191 1.285.747.365 1.52.666 2.318.9.799.234 1.615.416 2.449.546a16.91 16.91 0 0 0 2.589.193zm.011 7.046c1.019 0 2.058-.081 3.12-.243a22.994 22.994 0 0 0 2.938-.63c.897-.26 1.662-.557 2.293-.891.634-.334 1.029-.674 1.186-1.02v-3.135c-.71.357-1.457.681-2.24.972a20.15 20.15 0 0 1-2.421.729c-.829.197-1.657.351-2.483.459a18.157 18.157 0 0 1-4.749.018 23.855 23.855 0 0 1-2.343-.422c-.817-.19-1.621-.43-2.409-.717a25.917 25.917 0 0 1-2.448-1.04v3.206c.14.33.522.658 1.145.986.622.33 1.38.616 2.272.863.974.264 1.962.469 2.96.616 1.078.167 2.138.249 3.179.249z"/></svg>
