<svg xmlns="http://www.w3.org/2000/svg" fill="none" viewBox="0 0 48 48"><path fill="currentColor" d="M6 33v-2.65c0-1.17.57-2.11 1.72-2.83a8.38 8.38 0 0 1 4.5-1.08 19.34 19.34 0 0 1 1.12.05 6.49 6.49 0 0 0-1.13 3.78V33H6Zm8.83 0v-2.73c0-.82.22-1.59.66-2.29.43-.7 1.07-1.3 1.9-1.83.82-.51 1.8-.9 2.92-1.16 1.13-.26 2.36-.4 3.69-.4 1.36 0 2.6.14 3.71.4 1.12.26 2.1.65 2.92 1.16a5.74 5.74 0 0 1 1.89 1.83c.43.7.65 1.47.65 2.3V33H14.83Zm20.96 0v-2.73a7.3 7.3 0 0 0-.27-2.01 6.41 6.41 0 0 0-.81-1.77 6.58 6.58 0 0 1 1.07-.05c1.86 0 3.37.36 4.5 1.07 1.15.7 1.72 1.66 1.72 2.84V33h-6.2Zm-16.9-3.5h10.25c-.4-.4-1.08-.73-2.05-1a11.49 11.49 0 0 0-6.16 0c-.98.27-1.66.6-2.03 1Zm-6.67-4.45c-.86 0-1.6-.3-2.22-.93a3.03 3.03 0 0 1-.93-2.22c0-.9.3-1.65.92-2.25.62-.61 1.36-.91 2.23-.91.89 0 1.64.3 2.25.9.6.6.9 1.36.9 2.25 0 .87-.3 1.61-.9 2.23-.6.62-1.35.93-2.25.93Zm23.56 0c-.87 0-1.6-.3-2.23-.93a3.03 3.03 0 0 1-.92-2.22c0-.9.3-1.65.92-2.25.62-.61 1.36-.91 2.22-.91.9 0 1.65.3 2.25.9.6.6.91 1.36.91 2.25 0 .87-.3 1.61-.9 2.23-.6.62-1.36.93-2.25.93ZM24 23.5a4.58 4.58 0 0 1-3.36-1.38 4.59 4.59 0 0 1-1.39-3.37c0-1.34.46-2.47 1.39-3.38A4.6 4.6 0 0 1 24 14c1.33 0 2.46.46 3.38 1.38a4.6 4.6 0 0 1 1.37 3.38 4.6 4.6 0 0 1-1.37 3.37A4.57 4.57 0 0 1 24 23.5Zm.01-3.49a1.25 1.25 0 0 0 1.25-1.28A1.23 1.23 0 0 0 24 17.49c-.35.01-.65.13-.9.38-.24.24-.36.54-.36.9 0 .35.12.64.37.9.24.24.55.36.9.36Z"/></svg>