<svg xmlns="http://www.w3.org/2000/svg" fill="none" viewBox="0 0 23 22"><path fill="currentColor" d="M7.605 15.22c-.409 0-.788-.042-1.136-.126a3.092 3.092 0 0 1-.91-.397 3.27 3.27 0 0 1-.693-.637l.944-1.284c.113.144.25.276.409.398.167.113.356.204.568.272.22.069.466.103.739.103.28 0 .519-.034.716-.103.197-.075.348-.181.454-.318a.838.838 0 0 0 .16-.511.804.804 0 0 0-.194-.557c-.129-.152-.326-.261-.59-.33a3.609 3.609 0 0 0-.978-.113H6.73V10.31h.387c.462 0 .833-.084 1.113-.25.28-.175.42-.41.42-.705a.7.7 0 0 0-.136-.432.73.73 0 0 0-.352-.284 1.262 1.262 0 0 0-.523-.102c-.325 0-.62.08-.886.239a1.8 1.8 0 0 0-.636.647l-1.171-1.34c.174-.22.41-.41.705-.569.303-.167.64-.295 1.011-.386.371-.091.754-.137 1.148-.137.553 0 1.038.087 1.455.262.416.174.742.416.977.727.235.31.352.67.352 1.08a1.854 1.854 0 0 1-.716 1.477 2.114 2.114 0 0 1-.784.352c.326.053.61.175.852.364.25.19.444.432.58.727.144.288.216.606.216.955 0 .477-.133.886-.398 1.227-.265.334-.632.595-1.102.784-.47.182-1.015.273-1.637.273ZM12.878 10.48c-.364 0-.693-.075-.989-.227a1.934 1.934 0 0 1-.693-.636 1.635 1.635 0 0 1-.262-.898c0-.326.088-.622.262-.887a1.84 1.84 0 0 1 .693-.625c.296-.159.625-.238.989-.238s.693.08.989.238c.295.152.526.36.693.625.174.265.261.56.261.887 0 .325-.087.625-.261.898a1.817 1.817 0 0 1-.694.636 2.134 2.134 0 0 1-.988.227Zm0-.886a.544.544 0 0 0 .34-.114.868.868 0 0 0 .25-.318c.061-.136.092-.28.092-.432 0-.167-.03-.314-.091-.443a.773.773 0 0 0-.25-.307.542.542 0 0 0-.341-.125.542.542 0 0 0-.341.125.773.773 0 0 0-.25.307c-.06.129-.091.273-.091.432 0 .159.03.307.09.443.062.129.145.235.25.318.107.076.22.114.342.114Zm4.614 5.67c-.364 0-.693-.075-.989-.227a1.933 1.933 0 0 1-.693-.636 1.615 1.615 0 0 1-.261-.886c0-.334.087-.633.26-.898a1.84 1.84 0 0 1 .694-.625c.296-.16.625-.239.989-.239.363 0 .693.08.989.239.295.151.526.36.693.625.174.265.261.56.261.886 0 .326-.087.625-.261.898a1.817 1.817 0 0 1-.693.636 2.134 2.134 0 0 1-.99.228Zm0-.886a.593.593 0 0 0 .352-.113.869.869 0 0 0 .25-.319 1.051 1.051 0 0 0-.011-.875.773.773 0 0 0-.25-.306.528.528 0 0 0-.682 0 .772.772 0 0 0-.25.306c-.06.13-.091.273-.091.432 0 .16.03.307.09.443.062.13.145.235.25.319.107.075.22.113.342.113Zm-5.773.137 3.216-3.683 2.91-3.852.806.727-3.102 3.592-3.024 3.954-.806-.738Z"/></svg>