<svg xmlns="http://www.w3.org/2000/svg" fill="none" viewBox="0 0 48 49"><path fill="currentColor" d="M15.354 38.333c-.934 0-1.727-.327-2.378-.98-.65-.655-.976-1.452-.976-2.391v-17.38c0-.939.325-1.736.976-2.39.65-.654 1.444-.98 2.378-.98h1.051v-2.545h2.943v2.544h9.304v-2.544h2.943v2.544h1.05c.935 0 1.728.327 2.379.981.65.654.976 1.451.976 2.39v17.38c0 .94-.325 1.736-.976 2.39-.65.654-1.444.981-2.378.981H15.354Zm0-3.371h17.292V22.456H15.354v12.506Zm0-15.05h17.292v-2.33H15.354v2.33ZM24 27.687c-.4 0-.734-.135-1.004-.407a1.374 1.374 0 0 1-.405-1.009c0-.4.135-.737.405-1.009A1.36 1.36 0 0 1 24 24.856c.4 0 .734.136 1.004.407.27.272.405.608.405 1.01 0 .4-.135.737-.405 1.008a1.36 1.36 0 0 1-1.004.407Zm-5.063 0c-.4 0-.734-.135-1.004-.407a1.374 1.374 0 0 1-.405-1.009c0-.4.135-.737.405-1.009a1.36 1.36 0 0 1 1.004-.407c.4 0 .734.136 1.004.407.27.272.405.608.405 1.01 0 .4-.135.737-.405 1.008a1.36 1.36 0 0 1-1.004.407Zm10.126 0c-.382 0-.713-.135-.991-.407a1.352 1.352 0 0 1-.418-1.009c0-.4.14-.737.418-1.009a1.382 1.382 0 0 1 1-.407c.388 0 .719.136.991.407.273.272.409.608.409 1.01 0 .4-.135.737-.405 1.008a1.36 1.36 0 0 1-1.004.407ZM24 32.778c-.4 0-.734-.14-1.004-.42a1.397 1.397 0 0 1-.405-1.006c0-.39.135-.722.405-.996s.605-.41 1.004-.41c.4 0 .734.135 1.004.406.27.272.405.608.405 1.01 0 .384-.135.716-.405.996s-.605.42-1.004.42Zm-5.063 0c-.4 0-.734-.14-1.004-.42a1.397 1.397 0 0 1-.405-1.006c0-.39.135-.722.405-.996s.605-.41 1.004-.41c.4 0 .734.135 1.004.406.27.272.405.608.405 1.01 0 .384-.135.716-.405.996s-.605.42-1.004.42Zm10.126 0a1.35 1.35 0 0 1-.991-.42 1.375 1.375 0 0 1-.418-1.006c0-.39.14-.722.418-.996.278-.274.612-.41 1-.41s.719.135.991.406c.273.272.409.608.409 1.01 0 .384-.135.716-.405.996s-.605.42-1.004.42Z"/></svg>
