<svg xmlns="http://www.w3.org/2000/svg" fill="none" viewBox="0 0 23 22"><path fill="currentColor" d="M5.123 15.889v-1.711c0-.336.086-.652.26-.948.173-.295.412-.519.717-.672a9.566 9.566 0 0 1 1.757-.672 7.938 7.938 0 0 1 2.155-.275c.305 0 .603.015.893.046.29.03.573.076.848.137l-1.07 1.07a1.84 1.84 0 0 0-.328-.03h-.343c-.724 0-1.373.086-1.948.259-.576.173-1.047.362-1.414.565a.594.594 0 0 0-.305.52v.489h3.82l1.222 1.222H5.123Zm8.28.244-2.108-2.108.855-.856 1.253 1.253 3.086-3.086.856.856-3.942 3.941ZM10.012 11c-.673 0-1.248-.24-1.727-.718a2.354 2.354 0 0 1-.718-1.726c0-.673.24-1.248.718-1.727a2.354 2.354 0 0 1 1.727-.718c.672 0 1.247.24 1.726.718.479.479.718 1.054.718 1.727 0 .672-.24 1.247-.718 1.726a2.354 2.354 0 0 1-1.726.718Zm0-1.222c.336 0 .623-.12.863-.36.24-.239.359-.526.359-.862 0-.337-.12-.624-.36-.864a1.177 1.177 0 0 0-.862-.359c-.337 0-.624.12-.864.36-.239.239-.359.526-.359.863 0 .336.12.623.36.863.239.239.526.359.863.359Z"/></svg>