<svg xmlns="http://www.w3.org/2000/svg" fill="none" viewBox="0 0 48 48"><path fill="currentColor" d="M24 37c-1.8 0-3.49-.34-5.07-1.02a13.13 13.13 0 0 1-6.9-6.91A12.66 12.66 0 0 1 11 24c0-1.8.34-3.49 1.02-5.07a13.13 13.13 0 0 1 6.91-6.9A12.66 12.66 0 0 1 24 11c1.8 0 3.49.34 5.07 1.02a13.13 13.13 0 0 1 6.9 6.91A12.66 12.66 0 0 1 37 24c0 1.8-.34 3.49-1.02 5.07a13.13 13.13 0 0 1-6.91 6.9A12.66 12.66 0 0 1 24 37Zm0-2.6c2.9 0 5.36-1 7.38-3.02A10.04 10.04 0 0 0 34.4 24c0-2.9-1-5.36-3.02-7.38A10.04 10.04 0 0 0 24 13.6c-2.9 0-5.36 1-7.38 3.02A10.04 10.04 0 0 0 13.6 24c0 2.9 1 5.36 3.02 7.38A10.04 10.04 0 0 0 24 34.4Zm0-2.6c-2.17 0-4-.76-5.52-2.28A7.52 7.52 0 0 1 16.2 24c0-2.17.76-4 2.28-5.52A7.52 7.52 0 0 1 24 16.2c2.17 0 4 .76 5.52 2.28A7.52 7.52 0 0 1 31.8 24c0 2.17-.76 4-2.28 5.52A7.52 7.52 0 0 1 24 31.8Zm0-2.6a5 5 0 0 0 3.67-1.53A5 5 0 0 0 29.2 24a5 5 0 0 0-1.53-3.67A5 5 0 0 0 24 18.8a5 5 0 0 0-3.67 1.53A5 5 0 0 0 18.8 24a5 5 0 0 0 1.53 3.67A5 5 0 0 0 24 29.2Zm0-2.6a2.5 2.5 0 0 1-1.84-.76A2.5 2.5 0 0 1 21.4 24c0-.71.25-1.33.76-1.84A2.5 2.5 0 0 1 24 21.4c.71 0 1.33.25 1.84.76.5.51.76 1.13.76 1.84a2.5 2.5 0 0 1-.76 1.84c-.51.5-1.13.76-1.84.76Z"/></svg>