<svg xmlns="http://www.w3.org/2000/svg" fill="none" viewBox="0 0 34 34"><path fill="currentColor" d="m13.9 26-1.72-2.74-3.27-.69.32-3.17L7 17l2.23-2.4-.32-3.17 3.27-.69L13.91 8 17 9.24 20.1 8l1.72 2.74 3.27.69-.32 3.17L27 17l-2.23 2.4.32 3.17-3.27.69L20.09 26 17 24.76zm.78-2.19 2.32-.94 2.36.94 1.28-2.05 2.5-.56-.23-2.4 1.68-1.8-1.68-1.84.23-2.4-2.5-.52-1.32-2.05-2.32.94-2.36-.94-1.28 2.05-2.5.52.23 2.4L9.41 17l1.68 1.8-.23 2.44 2.5.52zm1.37-3.77 5.13-4.84-1.27-1.24-3.86 3.64-1.96-1.8-1.27 1.2z"/></svg>