<svg width="48" height="48" viewBox="0 0 48 48" fill="none" xmlns="http://www.w3.org/2000/svg">
<ellipse cx="24" cy="24.0012" rx="24" ry="23.9987" fill="none"/>
<mask id="mask0_1222_2036" style="mask-type:alpha" maskUnits="userSpaceOnUse" x="8" y="8" width="32" height="33">
<rect x="8" y="8.00146" width="32" height="32" fill="#D9D9D9"/>
</mask>
<g mask="url(#mask0_1222_2036)">
<path d="M9.33331 34.6683V30.935C9.33331 30.1794 9.52776 29.485 9.91665 28.8516C10.3055 28.2183 10.8222 27.735 11.4666 27.4016C12.8444 26.7127 14.2444 26.1961 15.6666 25.8516C17.0889 25.5072 18.5333 25.335 20 25.335C21.4666 25.335 22.9111 25.5072 24.3333 25.8516C25.7555 26.1961 27.1555 26.7127 28.5333 27.4016C29.1778 27.735 29.6944 28.2183 30.0833 28.8516C30.4722 29.485 30.6666 30.1794 30.6666 30.935V34.6683H9.33331ZM33.3333 34.6683V30.6683C33.3333 29.6905 33.0611 28.7516 32.5166 27.8516C31.9722 26.9516 31.2 26.1794 30.2 25.535C31.3333 25.6683 32.4 25.8961 33.4 26.2183C34.4 26.5405 35.3333 26.935 36.2 27.4016C37 27.8461 37.6111 28.3405 38.0333 28.885C38.4555 29.4294 38.6666 30.0238 38.6666 30.6683V34.6683H33.3333ZM20 24.0016C18.5333 24.0016 17.2778 23.4794 16.2333 22.435C15.1889 21.3905 14.6666 20.135 14.6666 18.6683C14.6666 17.2016 15.1889 15.9461 16.2333 14.9016C17.2778 13.8572 18.5333 13.335 20 13.335C21.4666 13.335 22.7222 13.8572 23.7666 14.9016C24.8111 15.9461 25.3333 17.2016 25.3333 18.6683C25.3333 20.135 24.8111 21.3905 23.7666 22.435C22.7222 23.4794 21.4666 24.0016 20 24.0016ZM33.3333 18.6683C33.3333 20.135 32.8111 21.3905 31.7666 22.435C30.7222 23.4794 29.4666 24.0016 28 24.0016C27.7555 24.0016 27.4444 23.9739 27.0666 23.9183C26.6889 23.8627 26.3778 23.8016 26.1333 23.735C26.7333 23.0239 27.1944 22.235 27.5166 21.3683C27.8389 20.5016 28 19.6016 28 18.6683C28 17.735 27.8389 16.835 27.5166 15.9683C27.1944 15.1016 26.7333 14.3127 26.1333 13.6016C26.4444 13.4905 26.7555 13.4183 27.0666 13.385C27.3778 13.3516 27.6889 13.335 28 13.335C29.4666 13.335 30.7222 13.8572 31.7666 14.9016C32.8111 15.9461 33.3333 17.2016 33.3333 18.6683ZM12 32.0016H28V30.935C28 30.6905 27.9389 30.4683 27.8166 30.2683C27.6944 30.0683 27.5333 29.9127 27.3333 29.8016C26.1333 29.2016 24.9222 28.7516 23.7 28.4516C22.4778 28.1516 21.2444 28.0016 20 28.0016C18.7555 28.0016 17.5222 28.1516 16.3 28.4516C15.0778 28.7516 13.8666 29.2016 12.6666 29.8016C12.4666 29.9127 12.3055 30.0683 12.1833 30.2683C12.0611 30.4683 12 30.6905 12 30.935V32.0016ZM20 21.335C20.7333 21.335 21.3611 21.0739 21.8833 20.5516C22.4055 20.0294 22.6666 19.4016 22.6666 18.6683C22.6666 17.935 22.4055 17.3072 21.8833 16.785C21.3611 16.2627 20.7333 16.0016 20 16.0016C19.2666 16.0016 18.6389 16.2627 18.1166 16.785C17.5944 17.3072 17.3333 17.935 17.3333 18.6683C17.3333 19.4016 17.5944 20.0294 18.1166 20.5516C18.6389 21.0739 19.2666 21.335 20 21.335Z" fill="#1C1B1F"/>
</g>
</svg>
