<svg xmlns="http://www.w3.org/2000/svg" fill="none" viewBox="0 0 48 49"><path fill="currentColor" d="M29.17 22.65c.7 0 1.28-.24 1.75-.72.48-.47.71-1.05.71-1.75 0-.69-.23-1.27-.7-1.75a2.37 2.37 0 0 0-1.75-.7c-.68 0-1.27.23-1.74.7a2.38 2.38 0 0 0-.71 1.75c0 .68.24 1.26.71 1.74.48.49 1.05.73 1.73.73Zm-10.35 0c.68 0 1.27-.24 1.74-.72s.71-1.06.71-1.74a2.4 2.4 0 0 0-.71-1.75 2.34 2.34 0 0 0-1.73-.72c-.7 0-1.28.24-1.75.71a2.38 2.38 0 0 0-.71 1.75c0 .7.23 1.28.7 1.75.48.48 1.06.72 1.75.72ZM24 32.4a8.41 8.41 0 0 0 7.9-5.6H16.1a8.41 8.41 0 0 0 7.9 5.6Zm0 7.6c-2.21 0-4.3-.42-6.23-1.26a16.15 16.15 0 0 1-8.51-8.5A15.6 15.6 0 0 1 8 24c0-2.21.42-4.3 1.26-6.23a16.15 16.15 0 0 1 8.5-8.51A15.6 15.6 0 0 1 24 8c2.21 0 4.3.42 6.23 1.26a16.15 16.15 0 0 1 8.51 8.5A15.6 15.6 0 0 1 40 24c0 2.21-.42 4.3-1.26 6.23a16.15 16.15 0 0 1-8.5 8.51A15.6 15.6 0 0 1 24 40Zm0-4.05c3.32 0 6.15-1.16 8.47-3.48A11.53 11.53 0 0 0 35.95 24c0-3.32-1.16-6.15-3.48-8.47A11.53 11.53 0 0 0 24 12.05c-3.32 0-6.15 1.16-8.47 3.48A11.53 11.53 0 0 0 12.05 24c0 3.32 1.16 6.15 3.48 8.47A11.53 11.53 0 0 0 24 35.95Z"/></svg>