<svg xmlns="http://www.w3.org/2000/svg" fill="none" viewBox="0 0 28 28"><path class="my-path" fill="currentColor" d="M13.997 13.836a1.54 1.54 0 0 0 1.154-.493 1.67 1.67 0 0 0 .474-1.202c0-.473-.158-.875-.474-1.204a1.541 1.541 0 0 0-1.156-.494c-.456 0-.84.165-1.153.494-.313.33-.47.732-.47 1.207 0 .474.158.875.473 1.202.315.326.699.49 1.152.49Zm-.002 6.553c1.752-1.655 3.05-3.136 3.894-4.444.844-1.307 1.266-2.53 1.266-3.669 0-1.616-.498-2.94-1.494-3.97-.996-1.03-2.218-1.546-3.665-1.546s-2.67.515-3.666 1.546c-.997 1.03-1.495 2.354-1.495 3.97 0 1.139.429 2.36 1.287 3.663.858 1.303 2.149 2.787 3.873 4.45Zm0 2.531c-2.341-2.05-4.092-3.936-5.254-5.656-1.162-1.72-1.743-3.383-1.743-4.988 0-2.264.704-4.07 2.11-5.418 1.407-1.348 3.036-2.022 4.887-2.022 1.849 0 3.478.674 4.889 2.022 1.41 1.348 2.115 3.154 2.115 5.418 0 1.605-.582 3.267-1.746 4.988-1.165 1.72-2.917 3.606-5.258 5.656Z"/></svg>
