<svg xmlns="http://www.w3.org/2000/svg" fill="none" viewBox="0 0 19 19"><path fill="currentColor" d="M8.1.91a1.5 1.5 0 0 1 2.76 0l.82 1.93a1.5 1.5 0 0 0 1.78.85l2.02-.55a1.5 1.5 0 0 1 1.72 2.15l-1 1.85a1.5 1.5 0 0 0 .45 1.92l1.7 1.23a1.5 1.5 0 0 1-.62 2.7l-2.06.37a1.5 1.5 0 0 0-1.23 1.54l.09 2.1a1.5 1.5 0 0 1-2.49 1.19l-1.57-1.38a1.5 1.5 0 0 0-1.98 0L6.92 18.2a1.5 1.5 0 0 1-2.49-1.2l.1-2.1a1.5 1.5 0 0 0-1.24-1.53l-2.06-.38a1.5 1.5 0 0 1-.61-2.69l1.7-1.23c.6-.44.79-1.26.43-1.92l-.99-1.85a1.5 1.5 0 0 1 1.72-2.15l2.02.55a1.5 1.5 0 0 0 1.78-.85z"/></svg>