<svg xmlns="http://www.w3.org/2000/svg" fill="none" viewBox="0 0 40 40"><path fill="#ed131c" d="M19.17.88a1.14 1.14 0 0 1 1.66 0l2.4 2.53c.31.34.8.45 1.24.29l3.3-1.28c.6-.24 1.3.1 1.5.73l1.01 3.25c.14.45.54.77 1.01.8l3.5.24c.67.05 1.16.66 1.05 1.32l-.52 3.32c-.08.47.15.94.57 1.18l3 1.67c.6.33.77 1.1.38 1.66l-1.94 2.75c-.28.4-.28.92 0 1.32l1.94 2.75c.39.56.21 1.33-.38 1.66l-3 1.67c-.42.24-.65.7-.57 1.18l.52 3.32c.1.66-.38 1.27-1.05 1.32l-3.5.24c-.47.03-.87.35-1 .8l-1.03 3.25c-.2.63-.88.97-1.5.73l-3.3-1.28a1.1 1.1 0 0 0-1.23.29l-2.4 2.53c-.45.48-1.21.48-1.66 0l-2.4-2.53a1.1 1.1 0 0 0-1.24-.29l-3.3 1.28c-.6.24-1.3-.1-1.5-.73L9.73 33.6a1.1 1.1 0 0 0-1.01-.8l-3.5-.24a1.14 1.14 0 0 1-1.05-1.32l.52-3.32c.08-.47-.15-.94-.57-1.18l-3-1.67c-.6-.33-.77-1.1-.38-1.66l1.94-2.75c.28-.4.28-.92 0-1.32L.73 16.6c-.39-.56-.21-1.33.38-1.66l3-1.67c.42-.24.65-.7.57-1.18l-.52-3.32c-.1-.66.38-1.27 1.05-1.32l3.5-.24c.47-.03.87-.35 1-.8l1.03-3.25c.2-.63.88-.97 1.5-.73l3.3 1.28c.42.16.92.05 1.23-.29z"/><mask id="a" width="25" height="24" x="7" y="8" maskUnits="userSpaceOnUse" style="mask-type:alpha"><path fill="#d9d9d9" d="M7.67 8h24v24h-24z"/></mask><g mask="url(#a)"><path fill="#f5f5f6" d="m17.22 26-5.7-5.7 1.42-1.42 4.28 4.27 9.17-9.17 1.43 1.42z"/></g></svg>