<svg xmlns="http://www.w3.org/2000/svg" fill="none" viewBox="0 0 48 48"><path fill="currentColor" d="M23.84 34q.13 0 .25-.06l.19-.13 10.25-10.25q.37-.37.55-.84a2.7 2.7 0 0 0 0-1.9q-.18-.45-.55-.79l-5.31-5.31q-.35-.37-.8-.55a2.7 2.7 0 0 0-1.9 0q-.46.18-.84.55l-.34.34 2.31 2.35q.47.43.7 1a3.3 3.3 0 0 1-.68 3.39 3 3 0 0 1-2.2.89q-.63 0-1.2-.22a3 3 0 0 1-1.02-.66L20.9 19.5l-5.47 5.47a.59.59 0 0 0-.19.44q0 .24.2.45.18.2.43.2.13 0 .25-.06l.19-.12 4.25-4.25 1.75 1.75-4.22 4.25a.59.59 0 0 0-.19.44q0 .24.2.43a.6.6 0 0 0 .43.19q.12 0 .25-.07l.19-.12 4.25-4.22 1.75 1.75-4.22 4.25q-.1.06-.14.19a1 1 0 0 0-.05.25q0 .25.19.44a.6.6 0 0 0 .87 0l4.25-4.22 1.75 1.75-4.25 4.25a.59.59 0 0 0 .02.88q.2.18.45.18m-.03 2.5q-1.15 0-2.05-.77a3 3 0 0 1-1.04-1.92 3.1 3.1 0 0 1-2.66-2.65q-1.06-.15-1.77-.9a3 3 0 0 1-.86-1.76q-1.18-.16-1.93-1.03a3.17 3.17 0 0 1 .16-4.28l7.24-7.22 4.1 4.1q.06.08.18.13a1 1 0 0 0 .25.05q.3 0 .47-.17a.6.6 0 0 0 .2-.45 1 1 0 0 0-.06-.25.4.4 0 0 0-.14-.2l-4.47-4.46q-.33-.37-.8-.55a2.7 2.7 0 0 0-1.88 0q-.48.18-.85.55l-4.4 4.44q-.3.27-.47.65-.2.38-.25.75a2.4 2.4 0 0 0 .25 1.5l-1.81 1.82a5 5 0 0 1 .5-6.5l4.4-4.41a5.3 5.3 0 0 1 3.56-1.47 5 5 0 0 1 3.54 1.47l.34.34.34-.34a5.3 5.3 0 0 1 3.57-1.47A5 5 0 0 1 31 12.97l5.28 5.28q.71.72 1.1 1.66a5 5 0 0 1 0 3.8 5 5 0 0 1-1.1 1.63L26.03 35.56a3.2 3.2 0 0 1-2.22.94"/></svg>