<svg xmlns="http://www.w3.org/2000/svg" xml:space="preserve" viewBox="0 0 66 66"><path fill="currentColor" d="M29.609 17.323c-.859-1.313-2.055-2.353-3.587-3.119-1.495-.766-3.176-1.149-5.044-1.149s-3.568.383-5.101 1.149c-1.495.766-2.69 1.806-3.587 3.119C11.43 18.636 11 20.095 11 21.7s.43 3.064 1.289 4.378c.897 1.313 2.093 2.353 3.587 3.119 1.532.766 3.232 1.149 5.101 1.149s3.55-.383 5.044-1.149c1.532-.766 2.728-1.806 3.587-3.119a7.588 7.588 0 0 0 1.345-4.378 7.578 7.578 0 0 0-1.344-4.377zm-6.334 6.238a3.657 3.657 0 0 1-.953 1.368c-.411.329-.859.493-1.345.493s-.934-.164-1.345-.493a4.25 4.25 0 0 1-1.009-1.368 5.15 5.15 0 0 1-.336-1.861c0-.693.112-1.313.336-1.86.261-.547.598-.985 1.009-1.313.411-.365.859-.547 1.345-.547s.934.183 1.345.547c.411.328.729.766.953 1.313.261.547.392 1.167.392 1.86 0 .657-.13 1.277-.392 1.861zM53.654 39.977c-.859-1.313-2.055-2.353-3.587-3.119-1.495-.766-3.177-1.148-5.044-1.148-1.869 0-3.568.383-5.102 1.148-1.494.767-2.689 1.807-3.587 3.119-.859 1.313-1.289 2.772-1.289 4.378 0 1.604.43 3.063 1.289 4.378.897 1.313 2.093 2.353 3.587 3.119 1.534.765 3.233 1.148 5.102 1.148 1.867 0 3.549-.383 5.044-1.148 1.532-.767 2.728-1.807 3.587-3.119A7.591 7.591 0 0 0 55 44.354a7.58 7.58 0 0 0-1.346-4.377zm-6.334 6.238a3.643 3.643 0 0 1-.952 1.368c-.411.328-.859.492-1.345.492s-.935-.164-1.346-.492a4.25 4.25 0 0 1-1.009-1.368 5.15 5.15 0 0 1-.337-1.86c0-.693.113-1.313.337-1.86.261-.547.598-.985 1.009-1.313.411-.364.859-.548 1.346-.548.485 0 .934.184 1.345.548.411.328.729.767.952 1.313.262.547.393 1.167.393 1.86 0 .656-.131 1.276-.393 1.86zM15.708 48.896 31.571 31.44 45.64 13l4.651 4.104-15.189 16.908L20.36 53z"/></svg>