<svg xmlns="http://www.w3.org/2000/svg" xmlns:xlink="http://www.w3.org/1999/xlink" fill="none" viewBox="0 0 34 34"><g clip-path="url(#a)"><path fill="url(#b)" d="M0 0h16v17.77H0z" transform="translate(9 8.12)"/><path fill="#ed131c" d="M9 8.12h16v17.77H9z"/><path fill="#fff" d="m12.75 14.63 1.5-1.5-1.5-1.5-1.5 1.5zm-2.25 4.12q-.62 0-1.06-.44Q9 17.86 9 17.25V10.5q0-.61.44-1.06Q9.9 9 10.5 9h12q.62 0 1.06.44.45.45.44 1.06v6.75q0 .62-.44 1.06-.45.45-1.06.44h-2.42a4 4 0 0 0 .15-1.5h2.27V10.5h-12v6.75h2.27a4 4 0 0 0 .15 1.5zm9.38-5.25q.45 0 .8-.33.32-.32.32-.8 0-.46-.33-.79a1 1 0 0 0-.8-.33q-.45 0-.8.33-.32.33-.32.8 0 .46.33.8.32.32.8.32m-8.63 12v-1.57q0-.66.37-1.22.36-.57.96-.85A9 9 0 0 1 16.5 21a9.4 9.4 0 0 1 3.92.86 2.3 2.3 0 0 1 1.33 2.07v1.57zm1.5-1.5h7.5v-.07a.7.7 0 0 0-.13-.42 1 1 0 0 0-.34-.28 8 8 0 0 0-3.28-.73 7.5 7.5 0 0 0-3.28.73 1 1 0 0 0-.34.28.7.7 0 0 0-.13.42zm3.75-3.75q-1.08 0-1.86-.77a2.5 2.5 0 0 1-.77-1.85q0-1.1.77-1.86A2.5 2.5 0 0 1 16.5 15q1.09 0 1.86.77.76.76.77 1.86 0 1.08-.77 1.85t-1.86.77m0-1.5q.47 0 .8-.33.32-.32.32-.8 0-.46-.32-.79a1 1 0 0 0-.8-.33q-.47 0-.8.33-.33.32-.32.8 0 .46.32.8.33.32.8.32"/></g><defs><clipPath id="a"><path fill="#fff" d="M9 8.12h16v17.77H9z"/></clipPath><pattern id="b" width="1" height="1" patternContentUnits="objectBoundingBox"><use xlink:href="#c" transform="scale(0)"/></pattern></defs></svg>