<svg xmlns="http://www.w3.org/2000/svg" viewBox="0 0 49 48"><path fill="currentColor" d="M16.102 38.398c-1.29 0-2.385-.45-3.287-1.349-.903-.898-1.354-1.99-1.354-3.273V15.164c0-1.31.458-2.423 1.375-3.34.918-.917 2.031-1.376 3.341-1.376h14.555v21.938h-14.63c-.367 0-.675.127-.923.383a1.31 1.31 0 0 0-.373.95c0 .378.124.694.373.95.248.256.556.384.923.384h17.296V13.115h3.345v25.283H16.102Zm4.716-9.263h6.568V13.793h-6.568v15.342Zm-3.345 0V13.793h-1.296c-.378 0-.7.134-.969.403a1.32 1.32 0 0 0-.402.969V29.33a8.65 8.65 0 0 1 .625-.14c.203-.037.429-.055.679-.055h1.363Z"/></svg>
