<svg xmlns="http://www.w3.org/2000/svg" fill="none" viewBox="0 0 34 34"><path fill="currentColor" d="M9 24v-1.75h8V24zm2.4-2.62q-.66 0-1.13-.52a1.8 1.8 0 0 1-.47-1.23v-7.88q0-.72.47-1.24.47-.51 1.13-.51h11.2q.66 0 1.13.51.47.52.47 1.24H11.4v7.88H17v1.75zm12 .87v-7h-3.2v7zM19.8 24a1.1 1.1 0 0 1-.85-.38 1.3 1.3 0 0 1-.35-.93V14.8q0-.54.35-.93.35-.38.85-.38h4q.5 0 .85.38.35.39.35.93v7.88q0 .54-.35.93a1.1 1.1 0 0 1-.85.38zm2-6.56q.26 0 .43-.2a.7.7 0 0 0 .17-.46.7.7 0 0 0-.17-.47.6.6 0 0 0-.43-.18q-.24 0-.42.18a.7.7 0 0 0-.18.47q0 .27.18.46.18.2.42.2"/></svg>