<svg xmlns="http://www.w3.org/2000/svg" xml:space="preserve" viewBox="0 0 66 66"><path fill="currentColor" d="M50.251 17.956a3.692 3.692 0 0 0-3.708-3.672l-11.025.027.068 22.137c.003.883-1.216 1.114-1.539.292l-2.292-5.846a.399.399 0 0 0-.743.001l-2.255 5.859c-.317.823-1.538.598-1.541-.286l-.067-22.136-1.075.002h-.004a3.685 3.685 0 0 0-3.68 3.69l.048 14.875-.052-16.149a2.413 2.413 0 0 0-2.424-2.4l-1.904-.007h-.002a2.41 2.41 0 0 0-2.407 2.413l.105 32.563a2.413 2.413 0 0 0 2.424 2.4l1.904.008h.002a2.41 2.41 0 0 0 2.407-2.414l-.004-1.271a3.693 3.693 0 0 0 3.708 3.669l20.47-.05h.004a3.685 3.685 0 0 0 3.68-3.69l-.098-30.015z"/></svg>