<svg xmlns="http://www.w3.org/2000/svg" xml:space="preserve" viewBox="0 0 48 48"><path fill="currentColor" d="M14.063 36.998c-.843 0-1.564-.313-2.163-.939-.6-.627-.9-1.381-.9-2.261V19.752c0-.88.3-1.634.9-2.26.6-.628 1.32-.941 2.162-.941h3.063v-2.359c0-.882.3-1.635.9-2.258.6-.624 1.32-.936 2.163-.936h7.625c.842 0 1.563.314 2.162.94.601.628.9 1.381.9 2.261v2.352h3.063c.842 0 1.563.313 2.162.94.601.627.9 1.38.9 2.26v14.045c0 .88-.3 1.634-.9 2.261-.6.627-1.32.94-2.162.94l-19.875.001zm6.124-20.446h7.625V14.2h-7.625v2.352zm13.751 12.803h-5.344v3.201h-9.188v-3.201h-5.343v4.441h19.875v-4.441zm-11.469 0h3.063v-3.201H22.47v3.201h-.001zm-8.407-3.201h5.344v-3.2h9.188v3.2h5.344v-6.401H14.064v6.401h-.002z"/></svg>
