<svg xmlns="http://www.w3.org/2000/svg" fill="none" viewBox="0 0 48 48"><path fill="currentColor" d="M22.75 37.333c-1.775 0-3.437-.332-4.985-.998a12.856 12.856 0 0 1-4.042-2.709 12.793 12.793 0 0 1-2.72-4.023C10.333 28.06 10 26.407 10 24.64s.334-3.421 1.002-4.963a12.793 12.793 0 0 1 2.721-4.024 12.858 12.858 0 0 1 4.042-2.709c1.548-.665 3.21-.998 4.984-.998a12.347 12.347 0 0 1 4.47.828v3.513a10.546 10.546 0 0 0-2.115-.826 8.914 8.914 0 0 0-2.355-.305c-2.64 0-4.887.92-6.742 2.763-1.856 1.841-2.783 4.082-2.783 6.72 0 2.64.927 4.88 2.783 6.722 1.855 1.842 4.103 2.763 6.742 2.763 2.64 0 4.887-.921 6.742-2.763 1.856-1.842 2.784-4.082 2.784-6.721 0-.575-.052-1.131-.155-1.67a9.8 9.8 0 0 0-.438-1.57h3.39c.136.517.241 1.042.315 1.574.074.533.111 1.088.111 1.666 0 1.767-.334 3.42-1.002 4.963a12.793 12.793 0 0 1-2.72 4.023 12.856 12.856 0 0 1-4.042 2.71c-1.549.665-3.21.997-4.985.997Zm9.336-18.098v-2.68h-2.691v-3.21h2.69v-2.678h3.224v2.679H38v3.21h-2.69v2.678h-3.224Zm-5.217 4.33a1.9 1.9 0 0 0 1.396-.564c.378-.376.566-.839.566-1.389s-.188-1.013-.566-1.39a1.89 1.89 0 0 0-1.387-.564c-.547 0-1.01.19-1.387.569-.378.379-.567.84-.567 1.38 0 .543.19 1.004.567 1.386.379.382.838.573 1.378.573Zm-8.249 0c.547 0 1.01-.189 1.387-.568.378-.38.567-.84.567-1.381 0-.542-.189-1.003-.567-1.385a1.867 1.867 0 0 0-1.378-.573 1.9 1.9 0 0 0-1.396.564c-.377.377-.566.84-.566 1.39 0 .55.189 1.013.566 1.39.378.376.84.564 1.387.564Zm4.13 7.736a6.46 6.46 0 0 0 3.85-1.225 6.677 6.677 0 0 0 2.44-3.22H16.46a6.677 6.677 0 0 0 2.439 3.22 6.46 6.46 0 0 0 3.85 1.225Z"/></svg>
