<svg xmlns="http://www.w3.org/2000/svg" fill="none" viewBox="0 0 37 36"><path fill="currentColor" d="M12.266 28a2.421 2.421 0 0 1-1.784-.736 2.446 2.446 0 0 1-.732-1.793V12.437c0-.705.244-1.302.732-1.793a2.42 2.42 0 0 1 1.784-.736h.788V8h2.207v1.908h6.978V8h2.207v1.908h.788a2.42 2.42 0 0 1 1.784.736c.488.49.732 1.088.732 1.793V25.47c0 .705-.244 1.303-.732 1.793a2.421 2.421 0 0 1-1.784.736H12.266Zm0-2.529h12.968v-11.38H12.266v11.38Zm0-13.288h12.968v.254H12.266v-.254Z"/><path fill="currentColor" d="M18.561 15.827a.24.24 0 0 1 .427 0l1.182 2.28a.24.24 0 0 0 .184.128l2.687.326a.24.24 0 0 1 .129.419l-1.938 1.692a.24.24 0 0 0-.077.229l.49 2.436a.24.24 0 0 1-.343.262l-2.42-1.209a.24.24 0 0 0-.215 0l-2.42 1.209a.24.24 0 0 1-.343-.262l.49-2.436a.24.24 0 0 0-.077-.229L14.38 18.98a.24.24 0 0 1 .13-.42l2.686-.325a.24.24 0 0 0 .184-.128l1.182-2.28Z"/></svg>
