<svg xmlns="http://www.w3.org/2000/svg" fill="none" viewBox="0 0 40 40"><path fill="currentColor" d="M20 20.34c.82 0 1.53-.28 2.12-.84.59-.56.88-1.23.88-2 0-.78-.3-1.45-.88-2a2.98 2.98 0 0 0-2.12-.83c-.82 0-1.53.27-2.12.83a2.64 2.64 0 0 0-.88 2c0 .77.3 1.44.88 2 .59.56 1.3.84 2.12.84ZM14.29 26H25.7v-1a2.9 2.9 0 0 0-1.83-2.62 10.08 10.08 0 0 0-5.9-.57c-.64.13-1.26.32-1.86.56A2.9 2.9 0 0 0 14.29 25V26Z"/><path fill="currentColor" fill-rule="evenodd" d="M8.5 8.5h23v23h-23v-23Zm3 3v17h17v-17h-17Z" clip-rule="evenodd"/></svg>