<svg xmlns="http://www.w3.org/2000/svg" width="48" height="48" fill="none" viewBox="0 0 48 48"><g filter="url(#a)"><path fill="currentColor" fill-rule="evenodd" d="M24.23 7.82a3.4 3.4 0 0 1 5.74 1.15l2.49 6.92 6.49 3.13c2.3 1.1 2.64 4.33.63 6l-5.67 4.67-.98 7.36c-.35 2.61-3.23 3.99-5.35 2.56l-5.99-4.04-7.1 1.42c-2.51.5-4.63-1.87-3.93-4.4l1.96-7.18-3.4-6.48a3.6 3.6 0 0 1 2.91-5.29l7.2-.39z" clip-rule="evenodd"/></g><g filter="url(#b)"><path fill="#ed131c" fill-rule="evenodd" d="M24.33 15.38c.9-.99 2.46-.67 2.9.58l1.25 3.52 3.28 1.59c1.17.56 1.34 2.2.32 3.05l-2.87 2.39-.5 3.75c-.18 1.33-1.64 2.03-2.71 1.3l-3.03-2.05-3.6.73c-1.26.26-2.34-.95-1.98-2.24l1-3.66-1.72-3.3c-.6-1.17.19-2.62 1.48-2.69l3.65-.2z" clip-rule="evenodd"/></g><defs><filter id="a" width="33" height="33.88" x="8.33" y="6.68" color-interpolation-filters="sRGB" filterUnits="userSpaceOnUse"><feFlood flood-opacity="0" result="BackgroundImageFix"/><feBlend in="SourceGraphic" in2="BackgroundImageFix" result="shape"/><feColorMatrix in="SourceAlpha" result="hardAlpha" values="0 0 0 0 0 0 0 0 0 0 0 0 0 0 0 0 0 0 127 0"/><feOffset dx="-.37"/><feGaussianBlur stdDeviation=".48"/><feComposite in2="hardAlpha" k2="-1" k3="1" operator="arithmetic"/><feColorMatrix values="0 0 0 0 0.98903 0 0 0 0 0.98903 0 0 0 0 0.98903 0 0 0 0.7 0"/><feBlend in2="shape" result="effect1_innerShadow_3167_13421"/><feColorMatrix in="SourceAlpha" result="hardAlpha" values="0 0 0 0 0 0 0 0 0 0 0 0 0 0 0 0 0 0 127 0"/><feOffset dx=".43" dy=".38"/><feGaussianBlur stdDeviation=".29"/><feComposite in2="hardAlpha" k2="-1" k3="1" operator="arithmetic"/><feColorMatrix values="0 0 0 0 0.550342 0 0 0 0 0.550342 0 0 0 0 0.550342 0 0 0 0.07 0"/><feBlend in2="effect1_innerShadow_3167_13421" result="effect2_innerShadow_3167_13421"/></filter><filter id="b" width="20.62" height="21.39" x="13.47" y="12.63" color-interpolation-filters="sRGB" filterUnits="userSpaceOnUse"><feFlood flood-opacity="0" result="BackgroundImageFix"/><feColorMatrix in="SourceAlpha" result="hardAlpha" values="0 0 0 0 0 0 0 0 0 0 0 0 0 0 0 0 0 0 127 0"/><feOffset dx="-.83"/><feGaussianBlur stdDeviation="1.08"/><feComposite in2="hardAlpha" operator="out"/><feColorMatrix values="0 0 0 0 0.531836 0 0 0 0 0.0249038 0 0 0 0 0.0447835 0 0 0 0.2 0"/><feBlend in2="BackgroundImageFix" result="effect1_dropShadow_3167_13421"/><feBlend in="SourceGraphic" in2="effect1_dropShadow_3167_13421" result="shape"/><feColorMatrix in="SourceAlpha" result="hardAlpha" values="0 0 0 0 0 0 0 0 0 0 0 0 0 0 0 0 0 0 127 0"/><feOffset dx=".52"/><feGaussianBlur stdDeviation=".45"/><feComposite in2="hardAlpha" k2="-1" k3="1" operator="arithmetic"/><feColorMatrix values="0 0 0 0 0.8375 0 0 0 0 0.0628125 0 0 0 0 0.094795 0 0 0 1 0"/><feBlend in2="shape" result="effect2_innerShadow_3167_13421"/><feColorMatrix in="SourceAlpha" result="hardAlpha" values="0 0 0 0 0 0 0 0 0 0 0 0 0 0 0 0 0 0 127 0"/><feOffset dx="-.52"/><feGaussianBlur stdDeviation=".52"/><feComposite in2="hardAlpha" k2="-1" k3="1" operator="arithmetic"/><feColorMatrix values="0 0 0 0 1 0 0 0 0 0.3125 0 0 0 0 0.340883 0 0 0 1 0"/><feBlend in2="effect2_innerShadow_3167_13421" result="effect3_innerShadow_3167_13421"/></filter></defs></svg>