<svg xmlns="http://www.w3.org/2000/svg" xml:space="preserve" viewBox="0 0 66 66"><path fill="currentColor" d="M32.953 31.062c5.347 0 9.691-.825 13.033-2.475C49.329 26.938 51 25.086 51 23.031c0-2.117-1.671-3.984-5.014-5.603C42.645 15.809 38.3 15 32.953 15c-5.316 0-9.63.81-12.94 2.428-3.31 1.619-4.966 3.486-4.966 5.603 0 2.055 1.655 3.907 4.966 5.556 3.31 1.65 7.624 2.475 12.94 2.475zM33 35.313c2.27 0 4.477-.181 6.622-.539 2.146-.357 4.065-.871 5.759-1.54 1.694-.67 3.055-1.471 4.08-2.405S51 28.868 51 27.747v5.697c0 1.152-.514 2.195-1.539 3.128s-2.386 1.728-4.08 2.381c-1.693.654-3.613 1.16-5.76 1.518a40.222 40.222 0 0 1-6.621.537c-2.27 0-4.477-.18-6.622-.537s-4.064-.871-5.759-1.541c-1.694-.67-3.054-1.47-4.08-2.404S15 34.564 15 33.444v-5.697c0 1.12.513 2.14 1.539 3.058 1.026.919 2.386 1.712 4.08 2.382 1.695.668 3.614 1.19 5.76 1.564 2.144.373 4.352.56 6.621.56v.002zm0 9.944c2.27 0 4.477-.18 6.622-.536 2.146-.359 4.065-.873 5.759-1.541 1.694-.671 3.055-1.471 4.08-2.406C50.486 39.84 51 38.798 51 37.646v5.789c0 1.121-.514 2.148-1.539 3.082s-2.386 1.735-4.08 2.404c-1.693.67-3.613 1.184-5.76 1.541A40.114 40.114 0 0 1 33 51c-2.27 0-4.477-.188-6.622-.561s-4.064-.895-5.759-1.563c-1.694-.67-3.054-1.463-4.08-2.382C15.513 45.576 15 44.557 15 43.436v-5.789c0 1.119.513 2.147 1.539 3.082 1.026.933 2.386 1.734 4.08 2.403 1.695.67 3.614 1.191 5.76 1.565 2.144.373 4.352.56 6.621.56z"/></svg>