<svg xmlns="http://www.w3.org/2000/svg" fill="none" viewBox="0 0 48 48"><path fill="currentColor" d="m20.13 26.93 1.44-4.8-3.87-2.95h4.79L24 14.3l1.51 4.88h4.8l-3.9 2.95 1.42 4.8-3.83-3-3.87 3Zm-5.45 14.23V29.49a12.71 12.71 0 0 1-2.5-3.91c-.6-1.48-.9-3.04-.9-4.7 0-3.54 1.24-6.54 3.71-9.02A12.27 12.27 0 0 1 24 8.16c3.54 0 6.54 1.23 9.01 3.7a12.27 12.27 0 0 1 3.71 9.01c0 1.67-.3 3.23-.9 4.7a12.71 12.71 0 0 1-2.5 3.91v11.68L24 38.09l-9.32 3.07ZM24 29.62c2.43 0 4.5-.85 6.2-2.55a8.43 8.43 0 0 0 2.55-6.2c0-2.43-.85-4.5-2.55-6.2a8.43 8.43 0 0 0-6.2-2.54c-2.43 0-4.5.85-6.2 2.55a8.43 8.43 0 0 0-2.54 6.2c0 2.42.85 4.49 2.55 6.19a8.43 8.43 0 0 0 6.2 2.55Zm-6 6.76 6-1.69 6 1.69v-4.34c-.89.5-1.84.87-2.84 1.14a12 12 0 0 1-6.31 0c-1.01-.27-1.96-.65-2.85-1.14v4.34Z"/></svg>