<svg xmlns="http://www.w3.org/2000/svg" fill="none" viewBox="0 0 23 22"><path fill="currentColor" d="M17.845 17.112 15.4 14.667H9.288c-.336 0-.623-.12-.863-.359a1.177 1.177 0 0 1-.359-.863v-.611h6.722c.337 0 .624-.12.864-.36.239-.239.359-.526.359-.862V7.334h.61c.337 0 .625.12.864.359.24.24.359.527.359.863v8.556Zm-11-6.005.718-.718h6.004V6.112H6.845v4.995Zm-1.222 2.949V6.112c0-.337.12-.624.359-.864.24-.239.527-.359.863-.359h6.722c.336 0 .624.12.863.36.24.239.36.526.36.863v4.277c0 .337-.12.624-.36.864-.239.239-.527.359-.863.359h-5.5l-2.444 2.444Z"/></svg>