<svg xmlns="http://www.w3.org/2000/svg" fill="none" viewBox="0 0 49 48"><path fill="currentColor" fill-rule="evenodd" d="M11.01 36.27c.72.71 1.6 1.06 2.63 1.06h21.92c1.03 0 1.9-.35 2.63-1.06a3.48 3.48 0 0 0 1.08-2.58V19.36c0-1.01-.36-1.87-1.08-2.58a3.61 3.61 0 0 0-2.63-1.06H30.8v-2.75c0-1.01-.36-1.87-1.08-2.58a3.61 3.61 0 0 0-2.63-1.06h-5c-1.04 0-1.91.36-2.63 1.06a3.48 3.48 0 0 0-1.08 2.58v2.75h-4.75c-1.03 0-1.9.35-2.63 1.06a3.48 3.48 0 0 0-1.08 2.58V33.7c0 1.02.36 1.88 1.08 2.58Zm2.63-2.58h21.92V19.36H13.64V33.7Zm15.01-5.4h-8.1v-3.41h8.1v3.41ZM27.1 15.72h-5v-2.75h5v2.75Z" clip-rule="evenodd"/></svg>