<svg xmlns="http://www.w3.org/2000/svg" fill="none" viewBox="0 0 23 22"><path fill="currentColor" d="M12.788 17.111v-1.879l3.376-3.36a.833.833 0 0 1 .306-.2.98.98 0 0 1 .336-.06.92.92 0 0 1 .657.274l.565.566c.082.091.145.193.191.305a.88.88 0 0 1 .069.337c0 .112-.02.226-.061.343a.82.82 0 0 1-.199.313l-3.36 3.361h-1.88Zm.917-.916h.58l1.849-1.864-.275-.29-.29-.275-1.864 1.848v.58Zm-5.806.916c-.336 0-.624-.12-.863-.358a1.177 1.177 0 0 1-.36-.864V6.112c0-.337.12-.624.36-.864.24-.239.527-.359.863-.359h4.889l3.667 3.667v1.833h-1.223V9.167h-3.055V6.112H7.899v9.777h3.667v1.223H7.899Zm7.96-3.07-.29-.275.565.565-.275-.29Z"/></svg>