<svg xmlns="http://www.w3.org/2000/svg" fill="none" viewBox="0 0 24 24"><path fill="currentColor" d="M9.63 11.9c-.8 0-1.45-.28-1.98-.83a2.2 2.2 0 0 1-.62-1.94l.34-2.46a4 4 0 0 1 1.55-2.63C9.8 3.34 10.82 3 12 3c1.17 0 2.2.35 3.08 1.04a4 4 0 0 1 1.55 2.63l.34 2.46a2.2 2.2 0 0 1-.62 1.94c-.53.55-1.19.83-1.98.83H9.63ZM3.5 21a1 1 0 0 1-1-1v-2.26c0-.65.18-1.25.54-1.8.36-.54.84-.96 1.44-1.25a17.27 17.27 0 0 1 11.35-1.27c1.26.28 2.48.7 3.69 1.27.6.28 1.08.7 1.44 1.25.36.54.54 1.14.54 1.8V20a1 1 0 0 1-1 1h-17Z"/></svg>