<svg xmlns="http://www.w3.org/2000/svg" width="64" height="64" fill="none" viewBox="0 0 64 64"><g filter="url(#a)"><path fill="currentColor" fill-rule="evenodd" d="m31.86 39.69 13.24-5.84v8.04a.8.8 0 0 1-.46.73l-12.51 6.01a.8.8 0 0 1-.7 0L18.9 42.62a.8.8 0 0 1-.46-.73v-8.05zm-.43-23.92a.8.8 0 0 1 .7 0L52.9 25.8a.8.8 0 0 1 .08 1.4l.01-.01-21.2 9.4-18.65-8.14-2.46-1.2a.8.8 0 0 1 0-1.45z" clip-rule="evenodd"/></g><defs><filter id="a" width="49.29" height="39.19" x="5.97" y="12.61" color-interpolation-filters="sRGB" filterUnits="userSpaceOnUse"><feFlood flood-opacity="0" result="BackgroundImageFix"/><feColorMatrix in="SourceAlpha" result="hardAlpha" values="0 0 0 0 0 0 0 0 0 0 0 0 0 0 0 0 0 0 127 0"/><feOffset dx="-1.19"/><feGaussianBlur stdDeviation="1.54"/><feComposite in2="hardAlpha" operator="out"/><feColorMatrix values="0 0 0 0 0.241667 0 0 0 0 0 0 0 0 0 0.00947724 0 0 0 0.2 0"/><feBlend in2="BackgroundImageFix" result="effect1_dropShadow_3167_13792"/><feBlend in="SourceGraphic" in2="effect1_dropShadow_3167_13792" result="shape"/><feColorMatrix in="SourceAlpha" result="hardAlpha" values="0 0 0 0 0 0 0 0 0 0 0 0 0 0 0 0 0 0 127 0"/><feOffset dx=".74"/><feGaussianBlur stdDeviation=".65"/><feComposite in2="hardAlpha" k2="-1" k3="1" operator="arithmetic"/><feColorMatrix values="0 0 0 0 0.8375 0 0 0 0 0.0628125 0 0 0 0 0.094795 0 0 0 1 0"/><feBlend in2="shape" result="effect2_innerShadow_3167_13792"/><feColorMatrix in="SourceAlpha" result="hardAlpha" values="0 0 0 0 0 0 0 0 0 0 0 0 0 0 0 0 0 0 127 0"/><feOffset dx="-.74"/><feGaussianBlur stdDeviation=".74"/><feComposite in2="hardAlpha" k2="-1" k3="1" operator="arithmetic"/><feColorMatrix values="0 0 0 0 1 0 0 0 0 0.3125 0 0 0 0 0.340883 0 0 0 1 0"/><feBlend in2="effect2_innerShadow_3167_13792" result="effect3_innerShadow_3167_13792"/></filter></defs></svg>