<svg xmlns="http://www.w3.org/2000/svg" fill="none" viewBox="0 0 24 24"><path fill="currentColor" fill-rule="evenodd" d="M16.6 19.34c1.08.47 1.48-.52 1.48-.52l2.84-14.27c-.02-.96-1.32-.38-1.32-.38L3.7 10.41s-.76.27-.7.74c.07.47.68.7.68.7l4 1.34s1.2 3.96 1.45 4.72c.23.74.43.76.43.76.22.09.42-.07.42-.07l2.6-2.35 4.02 3.09Zm.7-12.26s.56-.33.53 0c0 0 .1.05-.2.36-.27.27-6.6 5.95-7.45 6.71a.23.23 0 0 0-.1.2l-.25 2.1c-.05.23-.34.25-.4.05l-1.06-3.45c-.04-.13 0-.29.14-.38l8.79-5.59Z" clip-rule="evenodd"/></svg>
