<svg width="20" height="21" viewBox="0 0 20 21" fill="none" xmlns="http://www.w3.org/2000/svg"><path fill-rule="evenodd" clip-rule="evenodd" d="M17 3.375C15.125 1.5 12.625.5 10 .5 4.5.5 0 5 0 10.5c0 1.75.5 3.5 1.375 5L0 20.5l5.25-1.375c1.5.75 3.125 1.25 4.75 1.25 5.5 0 10-4.5 10-10 0-2.625-1.125-5.125-3-7ZM10 18.75c-1.5 0-3-.375-4.25-1.125L5.5 17.5l-3.125.875.875-3L3 15c-.875-1.375-1.25-2.875-1.25-4.375 0-4.5 3.75-8.25 8.25-8.25 2.25 0 4.25.875 5.875 2.375 1.625 1.625 2.375 3.625 2.375 5.875 0 4.375-3.625 8.125-8.25 8.125Zm4.5-6.25c-.25-.125-1.5-.75-1.75-.75-.25-.125-.375-.125-.5.125s-.625.75-.75 1c-.125.125-.25.125-.5.125-.25-.125-1-.375-2-1.25-.75-.625-1.25-1.5-1.375-1.75s0-.375.125-.5l.375-.375c.125-.125.125-.25.25-.375s0-.25 0-.375S7.875 7 7.625 6.5c-.125-.375-.375-.375-.5-.375h-.5c-.125 0-.375 0-.625.25s-.875.875-.875 2.125.875 2.375 1 2.625c.125.125 1.75 2.75 4.25 3.75 2.125.875 2.5.625 3 .625s1.5-.625 1.625-1.125c.25-.625.25-1.125.125-1.125-.125-.625-.375-.625-.625-.75Z" fill="currentColor"/></svg>
