<svg width="20" height="21" viewBox="0 0 20 21" fill="none" xmlns="http://www.w3.org/2000/svg"><g clip-path="url(#a)"><path d="M19.822 14.845c-.054-.09-.386-.813-1.987-2.298-1.675-1.555-1.45-1.302.568-3.991 1.229-1.638 1.72-2.638 1.566-3.066-.146-.407-1.05-.3-1.05-.3l-3.005.018s-.223-.03-.389.069c-.161.097-.265.322-.265.322s-.476 1.268-1.111 2.345c-1.339 2.274-1.875 2.394-2.094 2.253-.509-.329-.381-1.323-.381-2.028 0-2.204.333-3.122-.652-3.36-.327-.079-.567-.131-1.404-.14-1.072-.011-1.98.004-2.495.255-.342.168-.606.541-.445.563.199.026.65.12.888.446.309.419.297 1.361.297 1.361s.178 2.594-.413 2.917c-.407.221-.963-.23-2.157-2.294C4.682 6.86 4.22 5.692 4.22 5.692s-.088-.218-.247-.334c-.193-.141-.463-.186-.463-.186l-2.857.017s-.43.013-.587.199c-.14.166-.011.509-.011.509s2.238 5.234 4.77 7.873c2.324 2.419 4.962 2.26 4.962 2.26h1.195s.361-.04.545-.239c.17-.182.164-.525.164-.525s-.024-1.604.721-1.84c.734-.232 1.677 1.55 2.675 2.236.755.52 1.33.405 1.33.405l2.67-.037s1.398-.086.736-1.185Z" fill="currentColor"/></g><defs><clipPath id="a"><path fill="currentColor" transform="translate(0 .5)" d="M0 0h20v20H0z"/></clipPath></defs></svg>
