<svg width="24" height="24" viewBox="0 0 24 24" fill="none" xmlns="http://www.w3.org/2000/svg">
<ellipse cx="12" cy="12" rx="12" ry="12" fill="none"/>
<mask id="mask0_1190_29555" style="mask-type:alpha" maskUnits="userSpaceOnUse" x="4" y="4" width="16" height="16">
<rect x="4" y="4" width="16" height="16" fill="#D9D9D9"/>
</mask>
<g mask="url(#mask0_1190_29555)">
<path d="M12.0002 17.3335C12.8335 17.3335 13.5418 17.0418 14.1252 16.4585C14.7085 15.8752 15.0002 15.1668 15.0002 14.3335C15.0002 13.5002 14.7085 12.7918 14.1252 12.2085C13.5418 11.6252 12.8335 11.3335 12.0002 11.3335C11.1668 11.3335 10.4585 11.6252 9.87516 12.2085C9.29183 12.7918 9.00016 13.5002 9.00016 14.3335C9.00016 15.1668 9.29183 15.8752 9.87516 16.4585C10.4585 17.0418 11.1668 17.3335 12.0002 17.3335ZM10.0502 10.4668C10.2724 10.3446 10.5085 10.2474 10.7585 10.1752C11.0085 10.1029 11.2613 10.0557 11.5168 10.0335L9.8335 6.66683H8.16683L10.0502 10.4668ZM13.9502 10.4668L15.8502 6.66683H14.1668L12.7502 9.50016L13.0668 10.1335C13.2224 10.1779 13.3724 10.2252 13.5168 10.2752C13.6613 10.3252 13.8057 10.3891 13.9502 10.4668ZM8.26683 16.5335C8.07794 16.2113 7.93072 15.8641 7.82516 15.4918C7.71961 15.1196 7.66683 14.7335 7.66683 14.3335C7.66683 13.9335 7.71961 13.5474 7.82516 13.1752C7.93072 12.8029 8.07794 12.4557 8.26683 12.1335C7.80016 12.2891 7.41683 12.5641 7.11683 12.9585C6.81683 13.3529 6.66683 13.8113 6.66683 14.3335C6.66683 14.8557 6.81683 15.3141 7.11683 15.7085C7.41683 16.1029 7.80016 16.3779 8.26683 16.5335ZM15.7335 16.5335C16.2002 16.3779 16.5835 16.1029 16.8835 15.7085C17.1835 15.3141 17.3335 14.8557 17.3335 14.3335C17.3335 13.8113 17.1835 13.3529 16.8835 12.9585C16.5835 12.5641 16.2002 12.2891 15.7335 12.1335C15.9224 12.4557 16.0696 12.8029 16.1752 13.1752C16.2807 13.5474 16.3335 13.9335 16.3335 14.3335C16.3335 14.7335 16.2807 15.1196 16.1752 15.4918C16.0696 15.8641 15.9224 16.2113 15.7335 16.5335ZM12.0002 18.6668C11.5557 18.6668 11.1307 18.6029 10.7252 18.4752C10.3196 18.3474 9.94461 18.1724 9.60016 17.9502C9.50016 17.9724 9.40016 17.9863 9.30016 17.9918C9.20016 17.9974 9.09461 18.0002 8.9835 18.0002C7.97238 18.0002 7.11127 17.6446 6.40016 16.9335C5.68905 16.2224 5.3335 15.3613 5.3335 14.3502C5.3335 13.3835 5.65572 12.5557 6.30016 11.8668C6.94461 11.1779 7.73905 10.7946 8.6835 10.7168L6.00016 5.3335H10.6668L12.0002 8.00016L13.3335 5.3335H18.0002L15.3335 10.6835C16.2779 10.7724 17.0696 11.1613 17.7085 11.8502C18.3474 12.5391 18.6668 13.3668 18.6668 14.3335C18.6668 15.3557 18.3113 16.2224 17.6002 16.9335C16.8891 17.6446 16.0224 18.0002 15.0002 18.0002C14.9002 18.0002 14.7974 17.9974 14.6918 17.9918C14.5863 17.9863 14.4835 17.9724 14.3835 17.9502C14.0391 18.1724 13.6668 18.3474 13.2668 18.4752C12.8668 18.6029 12.4446 18.6668 12.0002 18.6668ZM10.7668 16.1668L11.2335 14.6502L10.0002 13.7668H11.5168L12.0002 12.1668L12.4835 13.7668H14.0002L12.7668 14.6502L13.2335 16.1668L12.0002 15.2335L10.7668 16.1668Z" fill="white"/>
</g>
</svg>
