<svg xmlns="http://www.w3.org/2000/svg" xml:space="preserve" width="21px" height="18px" viewBox="0 0 21 18"><path fill="currentColor" d="M14.759 11.101c1.084-.162 1.57-.498 1.971-1.053.402-.555.604-1.44.604-2.622v-.924c0-.701-.074-1.255-.201-1.68a2.828 2.828 0 0 0-.658-1.126 2.962 2.962 0 0 0-1.131-.683c-.439-.129-.986-.204-1.661-.204v.001H2.953v12.315h3.048V11.12h5.617l2.666 4.006h3.413l-2.938-4.025zm-.475-3.618c0 .369-.091.609-.237.738-.146.13-.438.186-.858.186v-.002H6.001V5.526h7.188c.42 0 .712.074.858.203s.237.37.237.72v1.034z"/><path fill="currentColor" d="M20.039 2.809a2.341 2.341 0 1 0 .001-4.683 2.341 2.341 0 0 0-.001 4.683z"/></svg>
