<svg xmlns="http://www.w3.org/2000/svg" fill="none" viewBox="0 0 24 24"><path fill="currentColor" fill-rule="evenodd" d="M1 15.86h2.94q.14 0 .26.08l6.05 3.55c1.13.68 2.55.68 3.69 0l5.73-3.38-6.11-4.93L12 12.73a2.69 2.69 0 1 1-3.81-3.8l3.1-3.09C8.54 3.72 7.34 4.5 6.15 5.25c-.75.48-1.5.96-2.56.96H1zm14.04-7.43-3.67 3.66c-.7.7-1.84.7-2.54 0s-.7-1.83 0-2.53l4.52-4.5c1.85-1.78 3.16-.96 4.52-.1.78.5 1.58 1 2.53 1.15H23v9.6h-2.38l-6.43-5.17 1.49-1.48a.45.45 0 0 0 0-.63.45.45 0 0 0-.64 0" clip-rule="evenodd"/></svg>