<svg width="15" height="15" viewBox="0 0 15 15" fill="none" xmlns="http://www.w3.org/2000/svg">
    <path d="M6.68896 0.813232C6.85715 0.39543 7.44882 0.396094 7.6167 0.814209L8.84131 3.86206C9.05111 4.38459 9.53548 4.74629 10.0962 4.79761L13.3501 5.09448C13.7826 5.13432 13.9619 5.66881 13.6411 5.96167L11.1099 8.27222C10.714 8.6335 10.5408 9.17846 10.6558 9.7019L11.3979 13.0769C11.493 13.511 11.0164 13.8444 10.6411 13.6062L7.95654 11.9011C7.466 11.5899 6.83966 11.5899 6.34912 11.9011L3.66455 13.6062C3.2893 13.8444 2.81265 13.511 2.90771 13.0769L3.6499 9.7019C3.7649 9.17846 3.59164 8.63351 3.1958 8.27222L0.664551 5.96167C0.343716 5.66881 0.523108 5.13432 0.955566 5.09448L4.20947 4.79761C4.77019 4.74629 5.25456 4.38459 5.46436 3.86206L6.68896 0.813232Z" fill="#FAC800" stroke="#C1C1C1"/>
</svg>
