<svg version="1.1" xmlns="http://www.w3.org/2000/svg" id="ico-mono-star" viewBox="0 0 16 15">
	<path
		d="M7.634.107a1.094 1.094 0 00-.482.343c-.054.07-.504.948-1 1.952l-.901 1.825-1.819.263c-2.249.325-2.268.328-2.437.407a1.099 1.099 0 00-.616.902c-.007.112.001.254.019.325.082.326.083.327 1.661 1.868.818.799 1.488 1.465 1.488 1.48 0 .016-.151.906-.336 1.978-.224 1.302-.335 2.013-.334 2.139.003.441.273.829.696.999.199.08.544.087.734.014a77.42 77.42 0 001.9-.98A81.86 81.86 0 018 12.693c.015 0 .822.418 1.793.929.972.51 1.818.948 1.88.973.565.222 1.218-.115 1.418-.733.066-.205.036-.445-.302-2.41a191.866 191.866 0 01-.336-1.978c0-.016.666-.68 1.48-1.475 1.426-1.392 1.484-1.452 1.58-1.647.096-.194.1-.214.1-.472s-.004-.278-.1-.473a1.08 1.08 0 00-.508-.51c-.169-.079-.188-.082-2.437-.407l-1.819-.263-.901-1.825C9.352 1.398 8.902.52 8.848.45a1.07 1.07 0 00-.493-.345 1.29 1.29 0 00-.721.002m1.234 3.005c.469.948.887 1.778.93 1.843.096.145.344.333.515.389.07.023.996.168 2.059.323 1.062.154 1.934.284 1.938.288.004.004-.349.354-.785.778-1.944 1.891-2.073 2.024-2.167 2.214-.155.315-.155.325.213 2.464.177 1.032.322 1.898.322 1.923 0 .035-.406-.168-1.673-.835a73.532 73.532 0 00-1.833-.947 1.22 1.22 0 00-.694-.034c-.058.02-.884.443-1.834.942-.95.499-1.735.9-1.744.891-.009-.009.131-.876.311-1.926.371-2.165.371-2.163.216-2.478-.092-.187-.26-.359-2.167-2.214a29.588 29.588 0 01-.785-.778c.004-.004.876-.134 1.938-.288 1.063-.155 1.989-.3 2.059-.323.171-.056.419-.244.515-.389.043-.065.461-.895.93-1.843.468-.949.859-1.725.868-1.725.009 0 .4.776.868 1.725"
		fill-rule="evenodd" fill="currentColor" />
</svg>