<svg width="48" height="48" viewBox="0 0 48 48" fill="none" xmlns="http://www.w3.org/2000/svg">
<rect width="48" height="48" rx="11.6364" fill="#ED131C"/>
<mask id="mask0_3506_19768" style="mask-type:alpha" maskUnits="userSpaceOnUse" x="8" y="8" width="32" height="32">
<rect x="8" y="8" width="32" height="32" fill="#D9D9D9"/>
</mask>
<g mask="url(#mask0_3506_19768)">
<g filter="url(#filter0_dii_3506_19768)">
<path d="M26.8496 29.3042C27.6829 28.6646 28.2885 27.8511 28.6663 26.8635H19.3329C19.7107 27.8511 20.3163 28.6646 21.1496 29.3042C21.9829 29.9437 22.9329 30.2635 23.9996 30.2635C25.0663 30.2635 26.0163 29.9437 26.8496 29.3042ZM22.0829 24.3468C22.4718 23.958 22.6663 23.4857 22.6663 22.9302C22.6663 22.3746 22.4718 21.9024 22.0829 21.5135C21.694 21.1246 21.2218 20.9302 20.6663 20.9302C20.1107 20.9302 19.6385 21.1246 19.2496 21.5135C18.8607 21.9024 18.6663 22.3746 18.6663 22.9302C18.6663 23.4857 18.8607 23.958 19.2496 24.3468C19.6385 24.7357 20.1107 24.9302 20.6663 24.9302C21.2218 24.9302 21.694 24.7357 22.0829 24.3468ZM28.7496 24.3468C29.1385 23.958 29.3329 23.4857 29.3329 22.9302C29.3329 22.3746 29.1385 21.9024 28.7496 21.5135C28.3607 21.1246 27.8885 20.9302 27.3329 20.9302C26.7774 20.9302 26.3052 21.1246 25.9163 21.5135C25.5274 21.9024 25.3329 22.3746 25.3329 22.9302C25.3329 23.4857 25.5274 23.958 25.9163 24.3468C26.3052 24.7357 26.7774 24.9302 27.3329 24.9302C27.8885 24.9302 28.3607 24.7357 28.7496 24.3468ZM17.4666 15.6292L21.3069 10.6635C21.6569 10.2148 22.0682 9.8814 22.5406 9.66318C23.013 9.44518 23.5073 9.33618 24.0233 9.33618C24.539 9.33618 25.0318 9.44518 25.5016 9.66318C25.9714 9.8814 26.3794 10.2148 26.7256 10.6635L30.5449 15.6208L36.3416 17.5695C37.0934 17.8264 37.6707 18.2633 38.0736 18.8802C38.4765 19.4971 38.6779 20.1573 38.6779 20.8608C38.6779 21.1955 38.6284 21.537 38.5293 21.8852C38.4299 22.2336 38.2669 22.5665 38.0403 22.8838L34.3489 28.1678L34.4823 33.7808C34.4823 34.754 34.131 35.5825 33.4286 36.2665C32.7262 36.9505 31.885 37.2925 30.9053 37.2925C30.8319 37.2925 30.5764 37.2655 30.1386 37.2115L23.9996 35.5012L17.9116 37.2092C17.7858 37.2552 17.6563 37.2813 17.5229 37.2875C17.3896 37.2937 17.261 37.2968 17.1373 37.2968C16.1719 37.2968 15.3272 36.9575 14.6029 36.2788C13.8789 35.6002 13.528 34.7564 13.5503 33.7475L13.6836 28.1752L9.9696 22.8632C9.74538 22.5381 9.58372 22.2067 9.4846 21.8692C9.38549 21.5316 9.33594 21.1941 9.33594 20.8565C9.33594 20.1434 9.54149 19.4794 9.9526 18.8645C10.3637 18.2494 10.9432 17.8177 11.6909 17.5695L17.4666 15.6292Z" fill="#F8F8F8"/>
</g>
</g>
<defs>
<filter id="filter0_dii_3506_19768" x="4.9723" y="7.88164" width="38.4988" height="36.688" filterUnits="userSpaceOnUse" color-interpolation-filters="sRGB">
<feFlood flood-opacity="0" result="BackgroundImageFix"/>
<feColorMatrix in="SourceAlpha" type="matrix" values="0 0 0 0 0 0 0 0 0 0 0 0 0 0 0 0 0 0 127 0" result="hardAlpha"/>
<feOffset dy="2.90909"/>
<feGaussianBlur stdDeviation="2.18182"/>
<feComposite in2="hardAlpha" operator="out"/>
<feColorMatrix type="matrix" values="0 0 0 0 0 0 0 0 0 0 0 0 0 0 0 0 0 0 0.12 0"/>
<feBlend mode="normal" in2="BackgroundImageFix" result="effect1_dropShadow_3506_19768"/>
<feBlend mode="normal" in="SourceGraphic" in2="effect1_dropShadow_3506_19768" result="shape"/>
<feColorMatrix in="SourceAlpha" type="matrix" values="0 0 0 0 0 0 0 0 0 0 0 0 0 0 0 0 0 0 127 0" result="hardAlpha"/>
<feOffset dx="-4.10112"/>
<feGaussianBlur stdDeviation="5.35418"/>
<feComposite in2="hardAlpha" operator="arithmetic" k2="-1" k3="1"/>
<feColorMatrix type="matrix" values="0 0 0 0 0.98903 0 0 0 0 0.98903 0 0 0 0 0.98903 0 0 0 0.7 0"/>
<feBlend mode="normal" in2="shape" result="effect2_innerShadow_3506_19768"/>
<feColorMatrix in="SourceAlpha" type="matrix" values="0 0 0 0 0 0 0 0 0 0 0 0 0 0 0 0 0 0 127 0" result="hardAlpha"/>
<feOffset dx="4.79308" dy="4.21926"/>
<feGaussianBlur stdDeviation="3.25727"/>
<feComposite in2="hardAlpha" operator="arithmetic" k2="-1" k3="1"/>
<feColorMatrix type="matrix" values="0 0 0 0 0.550342 0 0 0 0 0.550342 0 0 0 0 0.550342 0 0 0 0.07 0"/>
<feBlend mode="normal" in2="effect2_innerShadow_3506_19768" result="effect3_innerShadow_3506_19768"/>
</filter>
</defs>
</svg>
