<svg xmlns="http://www.w3.org/2000/svg" width="24" height="24" fill="none" viewBox="0 0 24 24"><path fill="currentColor" d="M9.799 1a3.3 3.3 0 0 1 3.294 3.106l.005.194v1.1h3.3a2.2 2.2 0 0 1 2.194 2.035l.006.165v3.3h1.1a3.3 3.3 0 0 1 .193 6.594l-.194.006h-1.1v3.3a2.2 2.2 0 0 1-2.034 2.194l-.165.006h-3.3a2.2 2.2 0 0 1-2.194-2.035L10.9 20.8v-1.1a1.1 1.1 0 0 0-2.192-.129l-.008.129v1.1a2.2 2.2 0 0 1-2.035 2.194L6.5 23H3.2a2.2 2.2 0 0 1-2.193-2.035L1 20.8v-3.3a2.2 2.2 0 0 1 2.035-2.194L3.2 15.3h1.1a1.1 1.1 0 0 0 .128-2.192L4.3 13.1H3.2a2.2 2.2 0 0 1-2.195-2.035L1 10.9V7.6a2.2 2.2 0 0 1 2.035-2.194L3.2 5.4h3.3V4.3A3.3 3.3 0 0 1 9.798 1Z"/></svg>
