<svg xmlns="http://www.w3.org/2000/svg" width="24" height="24" fill="none" viewBox="0 0 24 24"><path fill="currentColor" d="M21.253 6.149c-.122-.495-.72-.899-1.332-.899H12.42c-.61 0-1.464-.358-1.895-.795l-.656-.662C9.436 3.355 8.583 3 7.973 3H4.389c-.61 0-1.166.503-1.233 1.118L2.835 7.5h18.64l-.222-1.351Zm1.109 2.476H1.638a.627.627 0 0 0-.472.214.656.656 0 0 0-.163.5l1.016 10.878c.02.214.118.413.274.558a.838.838 0 0 0 .57.225h18.275c.21 0 .413-.08.57-.225a.874.874 0 0 0 .273-.558l1.016-10.878a.664.664 0 0 0-.163-.5.639.639 0 0 0-.472-.214Z"/></svg>
