<svg xmlns="http://www.w3.org/2000/svg" width="24" height="24" fill="none" viewBox="0 0 24 24"><path fill="currentColor" d="M5.266 19.441c-1.75-.108-3.065-.519-3.946-1.233C.44 17.492 0 16.47 0 15.14c0-1.211.447-2.2 1.34-2.964.893-.765 2.153-1.253 3.782-1.463.787-.105 1.345-.247 1.674-.423.329-.177.493-.428.493-.752 0-.462-.261-.825-.784-1.088-.522-.263-1.362-.456-2.52-.58l.183-2.374c1.733.18 3.05.612 3.95 1.295.899.684 1.348 1.6 1.348 2.747 0 .942-.344 1.72-1.034 2.335-.689.615-1.666 1.012-2.93 1.193-1.104.134-1.934.376-2.49.724-.557.349-.835.804-.835 1.366 0 .566.264 1.006.792 1.32.528.314 1.327.506 2.399.575l-.102 2.39ZM8.477 14.92l10.37-11.364c.343-.377.74-.562 1.194-.556.453.007.851.192 1.194.556l2.25 2.462c.343.376.515.817.515 1.323 0 .505-.172.946-.515 1.323l-10.37 11.348-4.207.96c-.38.087-.712-.026-.997-.338a1.194 1.194 0 0 1-.308-1.084l.874-4.63Z"/></svg>
