<svg xmlns="http://www.w3.org/2000/svg" width="24" height="24" fill="none" viewBox="0 0 24 24"><path fill="currentColor" fill-rule="evenodd" d="M5 1a4 4 0 0 0-4 4v14a4 4 0 0 0 4 4h14a4 4 0 0 0 4-4V5a4 4 0 0 0-4-4H5Zm1.906 11c.15-.178.275-.378.371-.596.336-.75.336-1.632.336-2.484 0-1.816.119-2.24 1.29-2.24a.745.745 0 0 0 .548-.246.878.878 0 0 0 .226-.594.878.878 0 0 0-.226-.594A.745.745 0 0 0 8.903 5C7.668 5 6.826 5.483 6.4 6.436c-.335.75-.335 1.632-.335 2.484 0 1.816-.12 2.24-1.29 2.24a.745.745 0 0 0-.548.246A.878.878 0 0 0 4 12c0 .223.082.436.227.594a.745.745 0 0 0 .547.246c1.172 0 1.29.424 1.29 2.24 0 .852 0 1.733.336 2.484C6.826 18.517 7.668 19 8.903 19a.745.745 0 0 0 .548-.246.878.878 0 0 0 .226-.594.878.878 0 0 0-.226-.594.745.745 0 0 0-.548-.246c-1.171 0-1.29-.424-1.29-2.24 0-.852 0-1.733-.336-2.484a2.471 2.471 0 0 0-.37-.596Zm11.03-3.08c0 1.816.118 2.24 1.29 2.24.205 0 .402.088.547.246A.878.878 0 0 1 20 12a.878.878 0 0 1-.227.594.745.745 0 0 1-.547.246c-1.172 0-1.29.424-1.29 2.24 0 .852 0 1.733-.336 2.484-.426.953-1.268 1.436-2.503 1.436a.745.745 0 0 1-.548-.246.878.878 0 0 1-.226-.594c0-.223.081-.436.226-.594a.745.745 0 0 1 .548-.246c1.171 0 1.29-.424 1.29-2.24 0-.852 0-1.733.339-2.484.096-.218.22-.418.37-.596a2.471 2.471 0 0 1-.373-.596c-.336-.75-.336-1.632-.336-2.484 0-1.816-.119-2.24-1.29-2.24a.745.745 0 0 1-.548-.246.877.877 0 0 1-.226-.594c0-.223.081-.436.226-.594A.745.745 0 0 1 15.097 5c1.235 0 2.077.483 2.503 1.436.335.75.335 1.632.335 2.484Z" clip-rule="evenodd"/></svg>
