<svg xmlns="http://www.w3.org/2000/svg" width="24" height="24" fill="none" viewBox="0 0 24 24"><path fill="currentColor" d="M22.688 15.703a1 1 0 0 1-1.638.77l-9.055-7.485a1 1 0 0 0-1.461.205l-3.057 4.45a1 1 0 0 1-1.445.217L1.067 9.932a1 1 0 0 1-.38-.784V6.83a1 1 0 0 1 1.579-.816l2.69 1.908a1 1 0 0 0 1.372-.207l4.536-5.913a1 1 0 0 1 1.41-.178l5.207 4.086a1 1 0 0 0 .617.214h3.59a1 1 0 0 1 1 1v8.78ZM1.688 23a1 1 0 0 1-1-1v-7.537a1 1 0 0 1 1.618-.786l4.208 3.309a1 1 0 0 0 1.439-.214l3.051-4.376a1 1 0 0 1 1.461-.196l9.863 8.225a1 1 0 0 1 .36.768V22a1 1 0 0 1-1 1h-20Z"/></svg>
