<svg xmlns="http://www.w3.org/2000/svg" width="24" height="24" fill="none" viewBox="0 0 24 24"><path fill="currentColor" fill-rule="evenodd" d="M1.81 21.206c.539.53 1.196.794 1.971.794H20.22c.775 0 1.432-.265 1.972-.794.54-.53.809-1.175.809-1.936V8.52c0-.76-.27-1.406-.81-1.935-.54-.53-1.196-.795-1.971-.795h-3.56V3.73c0-.76-.27-1.406-.81-1.936S14.652 1 13.877 1h-3.754c-.775 0-1.432.265-1.972.794a2.61 2.61 0 0 0-.81 1.936v2.06h-3.56c-.775 0-1.432.265-1.972.795A2.61 2.61 0 0 0 1 8.52v10.75c0 .76.27 1.406.81 1.936ZM13.876 5.79h-3.754V3.73h3.754v2.06ZM8.96 15.218h6.08V12.66H8.96v2.558Z" clip-rule="evenodd"/></svg>
