<svg width="15" height="15" viewBox="0 0 15 15" fill="none" xmlns="http://www.w3.org/2000/svg">
<path d="M8 3.16667C8 2.89052 7.77614 2.66667 7.5 2.66667C7.22386 2.66667 7 2.89052 7 3.16667H8ZM7.5 8.04167H7C7 8.31781 7.22386 8.54167 7.5 8.54167V8.04167ZM10.75 8.54167C11.0261 8.54167 11.25 8.31781 11.25 8.04167C11.25 7.76552 11.0261 7.54167 10.75 7.54167V8.54167ZM7.5 1V0.5C3.63532 0.5 0.5 3.63532 0.5 7.5H1H1.5C1.5 4.1876 4.1876 1.5 7.5 1.5V1ZM1 7.5H0.5C0.5 11.3647 3.63532 14.5 7.5 14.5V14V13.5C4.1876 13.5 1.5 10.8124 1.5 7.5H1ZM7.5 14V14.5C11.3647 14.5 14.5 11.3647 14.5 7.5H14H13.5C13.5 10.8124 10.8124 13.5 7.5 13.5V14ZM14 7.5H14.5C14.5 3.63532 11.3647 0.5 7.5 0.5V1V1.5C10.8124 1.5 13.5 4.1876 13.5 7.5H14ZM7.5 3.16667H7V8.04167H7.5H8V3.16667H7.5ZM7.5 8.04167V8.54167H10.75V8.04167V7.54167H7.5V8.04167Z" fill="black"/>
</svg>
