<svg xmlns="http://www.w3.org/2000/svg" fill="none" viewBox="0 0 48 48"><path fill="#fff" d="M24.99 36c-3.34 0-6.17-1.16-8.5-3.5A11.56 11.56 0 0 1 13 24.02a11.6 11.6 0 0 1 3.5-8.5 11.55 11.55 0 0 1 9.08-3.5l.73.06a8.1 8.1 0 0 0-2.25 5.57c0 2.03.71 3.76 2.14 5.18a7.1 7.1 0 0 0 5.2 2.14 8.32 8.32 0 0 0 5.55-2.11 34.44 34.44 0 0 1 .05 1.14c0 3.33-1.17 6.17-3.5 8.5A11.58 11.58 0 0 1 24.99 36Zm0-2.88c1.95 0 3.69-.56 5.2-1.7a8.36 8.36 0 0 0 3.1-4.08 6.32 6.32 0 0 1-2.66.42 9.87 9.87 0 0 1-6.44-2.89 9.86 9.86 0 0 1-2.95-6.51 7.39 7.39 0 0 1 .44-2.7 8.98 8.98 0 0 0-4.16 3.28 8.58 8.58 0 0 0-1.64 5.07c0 2.53.89 4.68 2.66 6.45a8.79 8.79 0 0 0 6.45 2.66Z"/></svg>