<svg xmlns="http://www.w3.org/2000/svg" fill="none" viewBox="0 0 48 48"><path fill="#fff" d="M22.4 15.81v-5.6h3.2v5.6h-3.2Zm8.5 3.53-2.22-2.23 3.94-3.99 2.25 2.25-3.97 3.97Zm1.29 6.26v-3.2h5.6v3.2h-5.6Zm-9.78 12.2v-5.61h3.2v5.6h-3.2Zm-5.3-18.5-3.99-3.9 2.28-2.23 3.96 3.95-2.25 2.19Zm15.48 15.62-3.9-4.05 2.18-2.2 3.98 3.85-2.26 2.4ZM10.21 25.6v-3.2h5.6v3.2h-5.6Zm5.2 9.28-2.26-2.28 3.94-3.94 1.15 1.1 1.16 1.12-4 4ZM24 31.1c-1.97 0-3.65-.7-5.03-2.07A6.86 6.86 0 0 1 16.91 24c0-1.98.69-3.65 2.07-5.03A6.86 6.86 0 0 1 24 16.9c1.97 0 3.65.7 5.03 2.07A6.86 6.86 0 0 1 31.1 24c0 1.98-.69 3.65-2.07 5.03A6.86 6.86 0 0 1 24 31.1Zm0-3.2c1.1 0 2.01-.37 2.77-1.13A3.77 3.77 0 0 0 27.91 24c0-1.09-.38-2.01-1.14-2.77A3.77 3.77 0 0 0 24 20.1c-1.08 0-2 .38-2.76 1.13A3.77 3.77 0 0 0 20.1 24c0 1.09.38 2.01 1.14 2.77A3.77 3.77 0 0 0 24 27.9Z"/></svg>