<svg width="24" height="25" viewBox="0 0 24 25" fill="none" xmlns="http://www.w3.org/2000/svg">
<rect y="0.5" width="24" height="24" rx="12" fill="white"/>
<path d="M11.2005 8.40498V5.60498H12.8005V8.40498H11.2005ZM15.4505 10.17L14.3405 9.05498L16.3105 7.05998L17.4355 8.18498L15.4505 10.17ZM16.0955 13.3V11.7H18.8955V13.3H16.0955ZM11.2055 19.4V16.595H12.8055V19.395H11.2055V19.4ZM8.55547 10.15L6.56047 8.19998L7.70047 7.08498L9.68047 9.05998L8.55547 10.155V10.15ZM16.2955 17.96L14.3455 15.935L15.4355 14.835L17.4255 16.76L16.2955 17.96ZM5.10547 13.3V11.7H7.90547V13.3H5.10547ZM7.70547 17.94L6.57547 16.8L8.54547 14.83L9.12047 15.38L9.70047 15.94L7.70047 17.94H7.70547ZM12.0005 16.05C11.0155 16.05 10.1755 15.7 9.48547 15.015C9.1515 14.6881 8.88787 14.2963 8.71075 13.8638C8.53363 13.4314 8.44676 12.9672 8.45547 12.5C8.45547 11.51 8.80047 10.675 9.49047 9.98498C9.81639 9.65073 10.2071 9.38653 10.6387 9.20856C11.0703 9.03059 11.5337 8.9426 12.0005 8.94998C12.9855 8.94998 13.8255 9.29998 14.5155 9.98498C14.8503 10.3115 15.1149 10.703 15.2929 11.1355C15.4709 11.568 15.5585 12.0324 15.5505 12.5C15.5505 13.49 15.2055 14.325 14.5155 15.015C14.189 15.3498 13.7974 15.6144 13.3649 15.7924C12.9324 15.9704 12.4681 16.058 12.0005 16.05ZM12.0005 14.45C12.5505 14.45 13.0055 14.265 13.3855 13.885C13.5701 13.7053 13.7159 13.4897 13.8139 13.2515C13.912 13.0133 13.9601 12.7575 13.9555 12.5C13.9555 11.955 13.7655 11.495 13.3855 11.115C13.2054 10.9313 12.9896 10.7864 12.7514 10.6892C12.5132 10.5921 12.2577 10.5447 12.0005 10.55C11.4605 10.55 11.0005 10.74 10.6205 11.115C10.4359 11.2946 10.29 11.5102 10.192 11.7484C10.094 11.9867 10.0458 12.2424 10.0505 12.5C10.0505 13.045 10.2405 13.505 10.6205 13.885C10.8 14.0681 11.0149 14.2126 11.2522 14.3097C11.4895 14.4069 11.7441 14.4546 12.0005 14.45Z" fill="#1E1E1E"/>
</svg>
