<svg xmlns="http://www.w3.org/2000/svg" fill="none" viewBox="0 0 48 48"><path fill="#fff" d="M28.7 23.16c.5 0 .93-.18 1.28-.53.35-.35.52-.77.52-1.27s-.17-.92-.52-1.27a1.73 1.73 0 0 0-1.27-.53c-.5 0-.92.18-1.26.53-.35.35-.52.77-.52 1.27s.17.92.52 1.27c.34.35.76.53 1.26.53Zm-8.42 0c.5 0 .91-.18 1.26-.53.35-.34.52-.77.52-1.26 0-.5-.17-.93-.52-1.28a1.7 1.7 0 0 0-1.26-.53c-.5 0-.92.18-1.27.53-.35.35-.53.77-.53 1.27s.18.92.53 1.27c.35.35.77.53 1.27.53Zm4.21 7.94a6.55 6.55 0 0 0 6.17-4.22H18.33a6.5 6.5 0 0 0 6.16 4.22Zm0 5.9a12.57 12.57 0 0 1-11.52-7.63 12.21 12.21 0 0 1-.97-4.86 12.59 12.59 0 0 1 7.62-11.52c1.52-.66 3.15-.99 4.87-.99 1.73 0 3.35.33 4.87.98a12.64 12.64 0 0 1 6.66 6.65c.65 1.52.98 3.15.98 4.88 0 1.72-.33 3.35-.98 4.87a12.62 12.62 0 0 1-6.66 6.64c-1.52.65-3.14.98-4.87.98Zm0-2.65a9.5 9.5 0 0 0 6.98-2.86 9.5 9.5 0 0 0 2.87-6.98 9.5 9.5 0 0 0-2.87-6.98 9.5 9.5 0 0 0-6.98-2.87 9.5 9.5 0 0 0-6.98 2.87 9.5 9.5 0 0 0-2.86 6.98 9.5 9.5 0 0 0 2.86 6.98 9.5 9.5 0 0 0 6.98 2.86Z"/></svg>