<svg xmlns="http://www.w3.org/2000/svg" fill="none" viewBox="0 0 48 48"><path fill="#fff" d="M21.63 21.88c-.92 0-1.7-.32-2.3-.96a2.57 2.57 0 0 1-.74-2.26l.4-2.87a4.66 4.66 0 0 1 1.82-3.07 5.62 5.62 0 0 1 3.59-1.22c1.36 0 2.56.4 3.58 1.22a4.66 4.66 0 0 1 1.81 3.07l.41 2.87c.13.86-.12 1.61-.73 2.26-.62.64-1.39.96-2.31.96h-5.53Zm-.1-2.79h5.73l-.43-2.89a2.16 2.16 0 0 0-.82-1.37c-.46-.36-1-.54-1.61-.54-.62 0-1.16.18-1.61.54-.46.36-.74.81-.83 1.37l-.43 2.9ZM13.31 32.5v-3.8c0-.76.21-1.46.64-2.1.42-.64.98-1.12 1.68-1.46a20.15 20.15 0 0 1 13.24-1.48c1.46.33 2.9.82 4.3 1.47.7.34 1.25.83 1.68 1.46.42.64.63 1.34.63 2.11v3.8H13.3Zm3.08-2.87H32.4v-.9c0-.22-.07-.42-.19-.6a1.27 1.27 0 0 0-.49-.44 18.26 18.26 0 0 0-3.6-1.24 16.72 16.72 0 0 0-7.46 0c-1.23.28-2.44.7-3.6 1.24-.21.1-.37.25-.5.43-.12.19-.18.4-.18.62v.9Z"/></svg>