<svg width="48" height="48" viewBox="0 0 48 48" fill="none" xmlns="http://www.w3.org/2000/svg">
<g clip-path="url(#clip0_1098_20194)">
<rect width="48" height="48" rx="24" fill="white"/>
<path d="M21.6308 21.8798C20.7108 21.8798 19.9308 21.5598 19.3308 20.9198C19.0345 20.6306 18.8125 20.274 18.6837 19.8805C18.5548 19.487 18.523 19.0682 18.5908 18.6598L18.9908 15.7898C19.0775 15.1836 19.2829 14.6004 19.5952 14.0737C19.9075 13.5469 20.3206 13.0868 20.8108 12.7198C21.83 11.9095 23.0989 11.4783 24.4008 11.4998C25.7608 11.4998 26.9608 11.8998 27.9808 12.7198C28.967 13.4629 29.618 14.5671 29.7908 15.7898L30.2008 18.6598C30.3308 19.5198 30.0808 20.2698 29.4708 20.9198C28.8508 21.5598 28.0808 21.8798 27.1608 21.8798H21.6308ZM21.5308 19.0898H27.2608L26.8308 16.1998C26.7425 15.6552 26.4491 15.165 26.0108 14.8298C25.5508 14.4698 25.0108 14.2898 24.4008 14.2898C23.7808 14.2898 23.2408 14.4698 22.7908 14.8298C22.3308 15.1898 22.0508 15.6398 21.9608 16.1998L21.5308 19.0998V19.0898ZM13.3108 32.4998V28.6998C13.3108 27.9398 13.5208 27.2398 13.9508 26.5998C14.3708 25.9598 14.9308 25.4798 15.6308 25.1398C19.7487 23.1596 24.4173 22.6377 28.8708 23.6598C30.3308 23.9898 31.7708 24.4798 33.1708 25.1298C33.8708 25.4698 34.4208 25.9598 34.8508 26.5898C35.2708 27.2298 35.4808 27.9298 35.4808 28.6998V32.4998H13.3008H13.3108ZM16.3908 29.6298H32.4008V28.7298C32.4008 28.5098 32.3308 28.3098 32.2108 28.1298C32.089 27.9426 31.92 27.7908 31.7208 27.6898C30.5673 27.1521 29.3607 26.7365 28.1208 26.4498C25.6658 25.888 23.1157 25.888 20.6608 26.4498C19.4308 26.7298 18.2208 27.1498 17.0608 27.6898C16.8508 27.7898 16.6908 27.9398 16.5608 28.1198C16.4408 28.3098 16.3808 28.5198 16.3808 28.7398V29.6398L16.3908 29.6298Z" fill="black"/>
</g>
<defs>
<clipPath id="clip0_1098_20194">
<rect width="48" height="48" rx="24" fill="white"/>
</clipPath>
</defs>
</svg>
