<svg width="24" height="24" viewBox="0 0 24 24" fill="none" xmlns="http://www.w3.org/2000/svg">
<ellipse cx="12" cy="12" rx="12" ry="12" fill="none"/>
<mask id="mask0_1190_29564" style="mask-type:alpha" maskUnits="userSpaceOnUse" x="4" y="4" width="16" height="16">
<rect x="4" y="4" width="16" height="16" fill="#D9D9D9"/>
</mask>
<g mask="url(#mask0_1190_29564)">
<path d="M14.6665 12.6668L11.8998 9.96683C11.5554 9.6335 11.2637 9.26405 11.0248 8.8585C10.7859 8.45294 10.6665 8.01127 10.6665 7.5335C10.6665 6.92238 10.8804 6.40294 11.3082 5.97516C11.7359 5.54739 12.2554 5.3335 12.8665 5.3335C13.2221 5.3335 13.5554 5.4085 13.8665 5.5585C14.1776 5.7085 14.4443 5.91127 14.6665 6.16683C14.8887 5.91127 15.1554 5.7085 15.4665 5.5585C15.7776 5.4085 16.1109 5.3335 16.4665 5.3335C17.0776 5.3335 17.5971 5.54739 18.0248 5.97516C18.4526 6.40294 18.6665 6.92238 18.6665 7.5335C18.6665 8.01127 18.5498 8.45294 18.3165 8.8585C18.0832 9.26405 17.7943 9.6335 17.4498 9.96683L14.6665 12.6668ZM14.6665 10.8002L16.4832 9.01683C16.6943 8.80572 16.8887 8.58072 17.0665 8.34183C17.2443 8.10294 17.3332 7.8335 17.3332 7.5335C17.3332 7.28905 17.2498 7.0835 17.0832 6.91683C16.9165 6.75016 16.7109 6.66683 16.4665 6.66683C16.3109 6.66683 16.1637 6.69739 16.0248 6.7585C15.8859 6.81961 15.7665 6.91127 15.6665 7.0335L14.6665 8.2335L13.6665 7.0335C13.5665 6.91127 13.4471 6.81961 13.3082 6.7585C13.1693 6.69739 13.0221 6.66683 12.8665 6.66683C12.6221 6.66683 12.4165 6.75016 12.2498 6.91683C12.0832 7.0835 11.9998 7.28905 11.9998 7.5335C11.9998 7.8335 12.0887 8.10294 12.2665 8.34183C12.4443 8.58072 12.6387 8.80572 12.8498 9.01683L14.6665 10.8002ZM8.6665 16.3335L13.2998 17.6002L17.2665 16.3668C17.2109 16.2668 17.1304 16.1807 17.0248 16.1085C16.9193 16.0363 16.7998 16.0002 16.6665 16.0002H13.2998C12.9998 16.0002 12.7609 15.9891 12.5832 15.9668C12.4054 15.9446 12.2221 15.9002 12.0332 15.8335L10.4832 15.3168L10.8498 14.0168L12.1998 14.4668C12.3887 14.5224 12.6109 14.5668 12.8665 14.6002C13.1221 14.6335 13.4998 14.6557 13.9998 14.6668C13.9998 14.5446 13.9637 14.4279 13.8915 14.3168C13.8193 14.2057 13.7332 14.1335 13.6332 14.1002L9.73317 12.6668H8.6665V16.3335ZM4.6665 18.6668V11.3335H9.73317C9.81095 11.3335 9.88873 11.3418 9.9665 11.3585C10.0443 11.3752 10.1165 11.3946 10.1832 11.4168L14.0998 12.8668C14.4665 13.0002 14.7637 13.2335 14.9915 13.5668C15.2193 13.9002 15.3332 14.2668 15.3332 14.6668H16.6665C17.2221 14.6668 17.6943 14.8502 18.0832 15.2168C18.4721 15.5835 18.6665 16.0668 18.6665 16.6668V17.3335L13.3332 19.0002L8.6665 17.7002V18.6668H4.6665ZM5.99984 17.3335H7.33317V12.6668H5.99984V17.3335Z" fill="white"/>
</g>
</svg>
