<svg xmlns="http://www.w3.org/2000/svg" width="23" height="24" xml:space="preserve" viewBox="0 0 23 24"><path fill="#FFF" d="M21.5 23.5c-.384 0-.768-.146-1.061-.439L15.478 18.1a9.661 9.661 0 0 1-5.742 1.871C4.367 19.971 0 15.604 0 10.235S4.367.5 9.735.5s9.735 4.367 9.735 9.735a9.661 9.661 0 0 1-1.871 5.742l4.961 4.962A1.5 1.5 0 0 1 21.5 23.5zM9.735 3.5C6.021 3.5 3 6.521 3 10.235s3.021 6.735 6.735 6.735c1.799 0 3.49-.7 4.763-1.973s1.973-2.964 1.973-4.763c0-3.713-3.022-6.734-6.736-6.734zm0 11.666a1.5 1.5 0 0 1-1.5-1.5v-1.931H6.5a1.5 1.5 0 1 1 0-3h1.735V7a1.5 1.5 0 1 1 3 0v1.735h1.931a1.5 1.5 0 1 1 0 3h-1.931v1.931a1.5 1.5 0 0 1-1.5 1.5z"/></svg>
