<svg version="1.1" id="Layer_1" xmlns="http://www.w3.org/2000/svg" xmlns:xlink="http://www.w3.org/1999/xlink" x="0px" y="0px"
	 width="26px" height="27px" viewBox="0 0 26 27" enable-background="new 0 0 26 27" xml:space="preserve">
<path d="M25.707,24.793l-6.457-6.457c1.626-1.951,2.515-4.383,2.515-6.954c0-6-4.882-10.882-10.882-10.882
	S0,5.382,0,11.382s4.882,10.882,10.882,10.882c2.571,0,5.002-0.889,6.954-2.515l6.457,6.457C24.488,26.402,24.744,26.5,25,26.5
	s0.512-0.098,0.707-0.293C26.098,25.816,26.098,25.184,25.707,24.793z M2,11.382C2,6.484,5.984,2.5,10.882,2.5
	s8.882,3.984,8.882,8.882c0,2.373-0.924,4.603-2.602,6.281s-3.908,2.602-6.281,2.602C5.984,20.265,2,16.28,2,11.382z M16,11.382
	c0,0.552-0.447,1-1,1h-3.118V15.5c0,0.553-0.448,1-1,1s-1-0.447-1-1v-3.118H7c-0.552,0-1-0.448-1-1s0.448-1,1-1h2.882V7.5
	c0-0.552,0.448-1,1-1s1,0.448,1,1v2.882H15C15.553,10.382,16,10.83,16,11.382z"/>
</svg>
