<svg xmlns="http://www.w3.org/2000/svg" width="277" height="333" fill="none"><circle cx="130.5" cy="130.5" r="130.5" fill="#FFD119"/><path fill="#fff" fill-rule="evenodd" d="M11.188 131.022C14.748 66.347 68.32 15 133.884 15c10.262 0 20.231 1.258 29.76 3.628C151.577 14.338 138.565 12 125 12 62.04 12 11 62.368 11 124.5c0 2.189.063 4.364.188 6.522ZM245.261 100.049c13.3 63.392-25.157 126.855-88.487 143.824a123.16 123.16 0 0 1-29.684 4.198c12.766 1.021 25.939-.088 39.042-3.599 60.815-16.296 97.079-78.157 80.998-138.172a112.359 112.359 0 0 0-1.869-6.251Z" clip-rule="evenodd"/><path fill="#FF0A47" d="M80.649 46.155 44.155 182.351l136.196 36.493 36.493-136.195L80.649 46.155Zm85.459 148.019-97.283-26.066 26.067-97.283 97.283 26.067-26.067 97.282Z"/><path fill="#FF0A47" d="m142.559 150.342-10.443-17.409 17.65-9.487 7.207-26.896-52.667 28.931 31.145 51.389 7.108-26.528Z"/><rect width="261" height="18" y="267" fill="#FFD119" rx="4"/><rect width="261" height="18" y="291" fill="#FFD119" rx="4"/><rect width="261" height="18" y="315" fill="#FFD119" rx="4"/></svg>