<svg width="200" height="200" viewBox="0 0 200 200" fill="none" xmlns="http://www.w3.org/2000/svg">
<rect width="200" height="200" rx="100" fill="#FF0A47"/>
<g clip-path="url(#clip0_16379_322573)">
<path d="M124.857 119.786C126.64 118.003 126.64 115.159 124.857 113.418C124.471 113.033 124.036 112.73 123.573 112.512C121.895 111.718 119.853 112.02 118.488 113.418L113.394 118.47C108.511 123.352 105.794 129.975 105.837 136.896V159.4H120.993C123.201 159.4 124.984 157.617 124.984 155.409V141.353L132.711 133.244C137.253 128.447 139.801 122.079 139.801 115.456V92.5002C139.801 89.9954 137.763 88 135.3 88C132.796 88 130.8 90.0378 130.8 92.5002V96.1994V110.871C130.8 112.781 130.036 114.564 128.72 115.923L117.597 127.046" fill="white"/>
<path d="M75.3441 119.786C73.561 118.003 73.561 115.159 75.3441 113.418C75.7295 113.033 76.1645 112.73 76.6273 112.512C78.3053 111.718 80.348 112.02 81.7124 113.418L86.807 118.47C91.6893 123.352 94.4064 129.975 94.3639 136.896V159.4H79.2075C76.9999 159.4 75.2168 157.617 75.2168 155.409V141.353L67.49 133.244C62.9473 128.447 60.4 122.079 60.4 115.456V92.5002C60.4 89.9954 62.4378 88 64.9002 88C67.4051 88 69.4004 90.0378 69.4004 92.5002V96.1994V110.871C69.4004 112.781 70.1646 114.564 71.4807 115.923L82.6039 127.046" fill="white"/>
<path d="M76.6273 100.571C76.6273 97.8362 74.4687 95.5727 71.7591 95.5727C70.9068 95.5727 70.1015 95.7996 69.4004 96.1994V110.871C69.4004 112.781 70.1646 114.564 71.4807 115.923L75.3441 119.786C73.561 118.003 73.561 115.159 75.3441 113.418C75.7295 113.033 76.1645 112.73 76.6273 112.512V100.571Z" fill="white"/>
<path d="M128.442 95.5727C125.732 95.5727 123.573 97.8362 123.573 100.571V112.512C124.036 112.73 124.471 113.033 124.857 113.418C126.64 115.159 126.64 118.003 124.857 119.786L128.72 115.923C130.036 114.564 130.8 112.781 130.8 110.871V96.1994C130.099 95.7996 129.294 95.5727 128.442 95.5727Z" fill="white"/>
<path d="M123.573 112.611V112.512M130.876 96.2433C130.851 96.2284 130.826 96.2138 130.8 96.1994M128.72 115.923C130.036 114.564 130.8 112.781 130.8 110.871V96.1994M128.72 115.923L117.597 127.046M128.72 115.923L124.857 119.786C126.64 118.003 126.64 115.159 124.857 113.418C124.471 113.033 124.036 112.73 123.573 112.512M76.6273 112.611V112.512M69.325 96.2433C69.35 96.2284 69.3752 96.2138 69.4004 96.1994M71.4807 115.923C70.1646 114.564 69.4004 112.781 69.4004 110.871V96.1994M71.4807 115.923L82.6039 127.046M71.4807 115.923L75.3441 119.786C73.561 118.003 73.561 115.159 75.3441 113.418C75.7295 113.033 76.1645 112.73 76.6273 112.512M69.4004 96.1994C70.1015 95.7996 70.9068 95.5727 71.7591 95.5727C74.4687 95.5727 76.6273 97.8362 76.6273 100.571V112.512M69.4004 96.1994V92.5002C69.4004 90.0378 67.4051 88 64.9002 88C62.4378 88 60.4 89.9954 60.4 92.5002V115.456C60.4 122.079 62.9473 128.447 67.49 133.244L75.2168 141.353V155.409C75.2168 157.617 76.9999 159.4 79.2075 159.4H94.3639V136.896C94.4064 129.975 91.6893 123.352 86.807 118.47L81.7124 113.418C80.348 112.02 78.3053 111.718 76.6273 112.512M123.573 112.512V100.571C123.573 97.8362 125.732 95.5727 128.442 95.5727C129.294 95.5727 130.099 95.7996 130.8 96.1994M123.573 112.512C121.895 111.718 119.853 112.02 118.488 113.418L113.394 118.47C108.511 123.352 105.794 129.975 105.837 136.896V159.4H120.993C123.201 159.4 124.984 157.617 124.984 155.409V141.353L132.711 133.244C137.253 128.447 139.801 122.079 139.801 115.456V92.5002C139.801 89.9954 137.763 88 135.3 88C132.796 88 130.8 90.0378 130.8 92.5002V96.1994" stroke="#0D1140"/>
<path d="M100.163 96.4C115.572 96.4 128.063 83.9087 128.063 68.5C128.063 53.0912 115.572 40.6 100.163 40.6C84.7541 40.6 72.2629 53.0912 72.2629 68.5C72.2629 83.9087 84.7541 96.4 100.163 96.4Z" fill="white" stroke="#0D1140" stroke-miterlimit="10"/>
<mask id="mask0_16379_322573" style="mask-type:alpha" maskUnits="userSpaceOnUse" x="79" y="47" width="43" height="43">
<path d="M100.063 89.5018C111.662 89.5018 121.064 80.099 121.064 68.4999C121.064 56.9009 111.662 47.498 100.063 47.498C88.4635 47.498 79.0606 56.9009 79.0606 68.4999C79.0606 80.099 88.4635 89.5018 100.063 89.5018Z" fill="#D9D9D9"/>
</mask>
<g mask="url(#mask0_16379_322573)">
<path d="M99.9571 95.6333C107.108 95.6333 112.905 89.8362 112.905 82.685C112.905 75.5339 107.108 69.7368 99.9571 69.7368C92.806 69.7368 87.0089 75.5339 87.0089 82.685C87.0089 89.8362 92.806 95.6333 99.9571 95.6333Z" fill="#FF0A47" stroke="white" stroke-miterlimit="10"/>
<path d="M100.188 69.7367C103.381 69.7367 105.969 67.1487 105.969 63.9562C105.969 60.7638 103.381 58.1758 100.188 58.1758C96.9958 58.1758 94.4078 60.7638 94.4078 63.9562C94.4078 67.1487 96.9958 69.7367 100.188 69.7367Z" fill="#FF0A47" stroke="white" stroke-miterlimit="10"/>
</g>
<path d="M99.8629 89.7999C111.461 89.7999 120.863 80.2636 120.863 68.5C120.863 56.7363 111.461 47.2 99.8629 47.2C88.2649 47.2 78.8629 56.7363 78.8629 68.5C78.8629 80.2636 88.2649 89.7999 99.8629 89.7999Z" stroke="#0D1140" stroke-miterlimit="10"/>
</g>
<defs>
<clipPath id="clip0_16379_322573">
<rect width="120" height="120" fill="white" transform="translate(40 40)"/>
</clipPath>
</defs>
</svg>
