<svg width="200" height="200" viewBox="0 0 200 200" fill="none" xmlns="http://www.w3.org/2000/svg">
<rect width="200" height="200" rx="100" fill="#FF0A47"/>
<g clip-path="url(#clip0_16379_322588)">
<path d="M59.0654 40.5H108.213C110.382 40.5 112.139 42.2593 112.139 44.4394V122.782C112.139 124.962 110.382 126.721 108.213 126.721H49.2254C47.0561 126.721 45.3 124.962 45.3 122.782V54.3105C45.3 53.2447 45.7139 52.274 46.4557 51.5298L56.2957 41.6587C57.0375 40.9146 58.0044 40.5 59.0654 40.5Z" fill="white" stroke="#0D1140"/>
<path d="M60.762 111.259H96.1064" stroke="#0D1140"/>
<path d="M60.762 106.698H96.1064" stroke="#0D1140"/>
<path d="M60.762 102.708H96.1064" stroke="#0D1140"/>
<path d="M60.762 98.1472H96.1064" stroke="#0D1140"/>
<path d="M60.762 94.1567H96.1064" stroke="#0D1140"/>
<path d="M60.762 89.5961H96.1064" stroke="#0D1140"/>
<path d="M60.762 85.6056H96.1064" stroke="#0D1140"/>
<path d="M60.762 81.045H96.1064" stroke="#0D1140"/>
<path d="M60.762 81.045H96.1064" stroke="#0D1140"/>
<path d="M60.762 76.4845H96.1064" stroke="#0D1140"/>
<path d="M60.762 72.494H96.1064" stroke="#0D1140"/>
<path d="M60.762 67.9335H96.1064" stroke="#0D1140"/>
<path d="M78.4342 54.2517L96.1064 54.2517" stroke="#0D1140"/>
<path d="M61.3321 40V52.399C61.3321 54.6722 59.4723 56.5321 57.1991 56.5321H44.8" stroke="#0D1140" stroke-miterlimit="10"/>
<path d="M145.936 158.632L125.357 138.052C123.932 136.627 123.932 134.29 125.357 132.808L128.606 129.558C130.031 128.133 132.369 128.133 133.851 129.558L154.43 150.138C155.856 151.563 155.856 153.9 154.43 155.382L151.181 158.632C149.699 160.057 147.361 160.057 145.936 158.632Z" fill="#F7F9FD" stroke="#0D1140" stroke-miterlimit="10"/>
<path d="M109.737 150.399C129.729 150.399 145.936 134.192 145.936 114.2C145.936 94.2071 129.729 78 109.737 78C89.7444 78 73.5374 94.2071 73.5374 114.2C73.5374 134.192 89.7444 150.399 109.737 150.399Z" fill="white" stroke="#0D1140" stroke-miterlimit="10"/>
<mask id="mask0_16379_322588" style="mask-type:alpha" maskUnits="userSpaceOnUse" x="82" y="86" width="55" height="56">
<path d="M109.737 141.449C124.786 141.449 136.986 129.249 136.986 114.2C136.986 99.1502 124.786 86.9502 109.737 86.9502C94.6873 86.9502 82.4873 99.1502 82.4873 114.2C82.4873 129.249 94.6873 141.449 109.737 141.449Z" fill="#D9D9D9"/>
</mask>
<g mask="url(#mask0_16379_322588)">
<path d="M109.6 149.2C118.878 149.2 126.4 141.678 126.4 132.4C126.4 123.122 118.878 115.6 109.6 115.6C100.321 115.6 92.7998 123.122 92.7998 132.4C92.7998 141.678 100.321 149.2 109.6 149.2Z" fill="#FF0A47" stroke="white" stroke-miterlimit="10"/>
<path d="M109.9 115.6C114.042 115.6 117.4 112.242 117.4 108.1C117.4 103.958 114.042 100.6 109.9 100.6C105.758 100.6 102.4 103.958 102.4 108.1C102.4 112.242 105.758 115.6 109.9 115.6Z" fill="#FF0A47" stroke="white" stroke-miterlimit="10"/>
</g>
<path d="M109.737 141.245C124.786 141.245 136.986 129.045 136.986 113.995C136.986 98.9458 124.786 86.7458 109.737 86.7458C94.6873 86.7458 82.4873 98.9458 82.4873 113.995C82.4873 129.045 94.6873 141.245 109.737 141.245Z" stroke="#0D1140" stroke-miterlimit="10"/>
</g>
<defs>
<clipPath id="clip0_16379_322588">
<rect width="120" height="120" fill="white" transform="translate(40 40)"/>
</clipPath>
</defs>
</svg>
