<svg width="200" height="200" viewBox="0 0 200 200" fill="none" xmlns="http://www.w3.org/2000/svg">
<rect width="200" height="200" rx="100" fill="#FF0A47"/>
<path d="M150.634 62.6453L106.673 47.3823L102.67 59.1059C101.936 61.2552 99.5912 62.4082 97.4597 61.6681L91.6464 59.6498L85.833 57.6314L84.5658 61.3424L64.4426 120.271C63.65 122.592 64.8644 125.113 67.1589 125.91L118.149 143.613L122.472 145.114C124.766 145.911 127.262 144.679 128.055 142.358L153.35 68.2836C154.143 65.9626 152.928 63.442 150.634 62.6453Z" fill="white"/>
<path d="M64.8843 68.746L60.3012 134.834C60.1314 137.283 61.9513 139.401 64.3722 139.571L118.149 143.613L67.1589 125.91C64.8644 125.113 63.65 122.592 64.4426 120.271L84.5658 61.3424L85.833 57.6314L86.5503 55.5309C86.7836 54.8479 87.1635 54.2557 87.6579 53.7793L82.3835 53.4074L81.7956 61.8853L81.5257 65.7763C81.3685 68.0439 79.3998 69.7695 77.1509 69.6109L64.8843 68.746Z" fill="white"/>
<path d="M47.0954 85.5281L59.6319 150.56C60.0964 152.97 62.398 154.541 64.7801 154.074L118.149 143.613L64.3722 139.571C61.9513 139.401 60.1314 137.283 60.3012 134.834L64.8843 68.746L65.038 66.5298C65.0729 66.0266 65.1883 65.5475 65.3757 65.1036L60.0612 66.1453L62.4075 78.3165C62.8376 80.5479 61.379 82.7285 59.166 83.1622L47.0954 85.5281Z" fill="white"/>
<path d="M57.8545 66.5778C56.6887 66.8063 55.7133 67.4763 55.0605 68.4556L47.3491 80.0229C46.6963 81.0021 46.4476 82.1681 46.675 83.3473L47.0954 85.5281L59.166 83.1622C61.379 82.7285 62.8376 80.5479 62.4075 78.3165L60.0612 66.1453L57.8545 66.5778Z" fill="white"/>
<path d="M80.141 53.2493C78.9563 53.1658 77.8421 53.5584 76.9602 54.3339L66.5425 63.4946C66.0309 63.9444 65.6346 64.4905 65.3757 65.1036C65.1883 65.5475 65.0729 66.0266 65.038 66.5298L64.8843 68.746L77.1509 69.6109C79.3998 69.7695 81.3685 68.0439 81.5257 65.7763L81.7956 61.8853L82.3835 53.4074L80.141 53.2493Z" fill="white"/>
<path d="M106.673 47.3823L104.548 46.6444C103.425 46.2545 102.248 46.343 101.197 46.8619L88.7826 52.9917C88.3637 53.1985 87.9856 53.4635 87.6579 53.7793C87.1635 54.2557 86.7836 54.8479 86.5503 55.5309L85.833 57.6314L91.6464 59.6498L97.4597 61.6681C99.5912 62.4082 101.936 61.2552 102.67 59.1059L106.673 47.3823Z" fill="white"/>
<path d="M57.8545 66.5778C56.6887 66.8063 55.7133 67.4763 55.0605 68.4556L47.3491 80.0229C46.6963 81.0021 46.4476 82.1681 46.675 83.3473M57.8545 66.5778L65.3757 65.1036M57.8545 66.5778L60.0612 66.1453M46.675 83.3473L59.6319 150.56M46.675 83.3473L47.0954 85.5281M59.6319 150.56C60.0964 152.97 62.398 154.541 64.7801 154.074L118.149 143.613M59.6319 150.56L47.0954 85.5281M60.0612 66.1453L62.4075 78.3165C62.8376 80.5479 61.379 82.7285 59.166 83.1622L47.0954 85.5281M60.0612 66.1453L65.3757 65.1036M80.141 53.2493C78.9563 53.1658 77.8421 53.5584 76.9602 54.3339L66.5425 63.4946C66.0309 63.9444 65.6346 64.4905 65.3757 65.1036M80.141 53.2493L87.6579 53.7793M80.141 53.2493L82.3835 53.4074M65.038 66.5298L60.3012 134.834M65.038 66.5298C65.0729 66.0266 65.1883 65.5475 65.3757 65.1036M65.038 66.5298L64.8843 68.746M60.3012 134.834C60.1314 137.283 61.9513 139.401 64.3722 139.571L118.149 143.613M60.3012 134.834L64.8843 68.746M82.3835 53.4074L81.7956 61.8853L81.5257 65.7763C81.3685 68.0439 79.3998 69.7695 77.1509 69.6109L64.8843 68.746M82.3835 53.4074L87.6579 53.7793M150.634 62.6453L104.548 46.6444M150.634 62.6453C152.928 63.442 154.143 65.9626 153.35 68.2836L128.055 142.358C127.262 144.679 124.766 145.911 122.472 145.114L118.149 143.613M150.634 62.6453L106.673 47.3823M104.548 46.6444C103.425 46.2545 102.248 46.343 101.197 46.8619L88.7826 52.9917C88.3637 53.1985 87.9856 53.4635 87.6579 53.7793M104.548 46.6444L106.673 47.3823M86.5503 55.5309C86.7836 54.8479 87.1635 54.2557 87.6579 53.7793M86.5503 55.5309L84.5658 61.3424M86.5503 55.5309L85.833 57.6314M106.673 47.3823L102.67 59.1059C101.936 61.2552 99.5912 62.4082 97.4597 61.6681L91.6464 59.6498L85.833 57.6314M85.833 57.6314L84.5658 61.3424M83.6296 115.452L116.77 126.965M85.1028 111.14L118.243 122.653M86.3919 107.367L119.533 118.88M87.8652 103.055L121.006 114.568M89.1543 99.2825L122.295 110.795M90.6275 94.9706L123.768 106.483M91.9166 91.1978L125.057 102.711M93.3899 86.8859L126.531 98.3988M94.8631 82.5741L128.004 94.0869M96.1522 78.8012L129.293 90.3141M97.6255 74.4894L130.766 86.0022M118.616 67.3103L135.186 73.0667M118.149 143.613L67.1589 125.91C64.8644 125.113 63.65 122.592 64.4426 120.271L84.5658 61.3424" stroke="#0D1140"/>
<path fill-rule="evenodd" clip-rule="evenodd" d="M115.271 135.455L112.734 135.447C112.45 135.446 112.176 135.34 111.964 135.15C111.751 134.96 111.615 134.698 111.581 134.413L111.257 131.736C111.228 131.488 111.122 131.257 110.953 131.075L109.153 129.133C108.967 128.932 108.857 128.673 108.842 128.4C108.826 128.127 108.905 127.856 109.066 127.636L110.71 125.383C110.851 125.19 110.929 124.96 110.936 124.721L111.016 121.925C111.024 121.651 111.127 121.388 111.306 121.183C111.486 120.977 111.731 120.841 112 120.798L114.604 120.385C114.847 120.346 115.072 120.231 115.246 120.055L117.138 118.142C117.338 117.939 117.605 117.818 117.889 117.8C118.172 117.782 118.452 117.869 118.676 118.044L120.681 119.613C120.884 119.773 121.135 119.86 121.392 119.86L123.93 119.868C124.214 119.869 124.488 119.975 124.7 120.165C124.913 120.356 125.049 120.618 125.083 120.902L125.406 123.581C125.435 123.828 125.542 124.059 125.71 124.242L127.511 126.184C127.696 126.384 127.806 126.643 127.822 126.916C127.838 127.19 127.758 127.46 127.597 127.681L125.953 129.933C125.813 130.126 125.734 130.357 125.727 130.595L125.647 133.391C125.639 133.665 125.537 133.928 125.357 134.134C125.178 134.34 124.932 134.476 124.664 134.518L122.06 134.931C121.816 134.97 121.591 135.086 121.417 135.262L119.526 137.173C119.326 137.376 119.059 137.497 118.775 137.516C118.492 137.534 118.212 137.447 117.987 137.271L115.983 135.702C115.779 135.542 115.529 135.455 115.271 135.455Z" fill="#FF0A47"/>
</svg>
