<svg width="200" height="200" viewBox="0 0 200 200" fill="none" xmlns="http://www.w3.org/2000/svg">
<rect width="200" height="200" rx="100" fill="#FF0A47"/>
<path d="M55.5884 110.521V45.273C55.5884 42.6822 57.5971 40.5686 60.0593 40.5686H140.407C142.869 40.5686 144.877 42.6822 144.877 45.273V110.521" fill="white"/>
<path d="M55.5884 110.521V45.273C55.5884 42.6822 57.5971 40.5686 60.0593 40.5686H140.407C142.869 40.5686 144.877 42.6822 144.877 45.273V110.521" stroke="#0D1140" stroke-miterlimit="10"/>
<path d="M153.456 132.193L144.609 110.108H55.622L46.7749 132.193C46.2583 133.42 46 134.776 46 136.068V138.78C46 141.428 48.131 143.559 50.7787 143.559H149.323C151.971 143.559 154.102 141.428 154.102 138.78V136.068C154.231 134.776 153.973 133.42 153.456 132.193Z" fill="white" stroke="#0D1140" stroke-miterlimit="10"/>
<path d="M56.0094 134.066H144.286" stroke="#0D1140" stroke-miterlimit="10"/>
<path d="M62.0151 114.887H138.797" stroke="#0D1140" stroke-miterlimit="10"/>
<path d="M60.3361 120.053H140.541" stroke="#0D1140" stroke-miterlimit="10"/>
<path d="M58.5925 125.542H142.284" stroke="#0D1140" stroke-miterlimit="10"/>
<path d="M69.9581 114.887L66.5355 125.542" stroke="#0D1140" stroke-miterlimit="10"/>
<path d="M77.5136 114.887L74.0911 125.542" stroke="#0D1140" stroke-miterlimit="10"/>
<path d="M85.0692 114.887L82.2153 125.542" stroke="#0D1140" stroke-miterlimit="10"/>
<path d="M92.6247 114.887L90.5582 125.542" stroke="#0D1140" stroke-miterlimit="10"/>
<path d="M130.273 114.887L133.696 125.542" stroke="#0D1140" stroke-miterlimit="10"/>
<path d="M122.782 114.887L126.205 125.542" stroke="#0D1140" stroke-miterlimit="10"/>
<path d="M115.227 114.887L118.081 125.542" stroke="#0D1140" stroke-miterlimit="10"/>
<path d="M107.671 114.887L109.738 125.542" stroke="#0D1140" stroke-miterlimit="10"/>
<path d="M100.116 114.887V125.542" stroke="#0D1140" stroke-miterlimit="10"/>
<path d="M103.897 132.244L101.249 129.525C100.568 128.825 99.4703 128.825 98.7892 129.525L96.1407 132.244H86.8215C84.7026 132.244 83 133.993 83 136.169V153.076C83 155.251 84.7026 157 86.8215 157H113.179C115.297 157 117 155.251 117 153.076V136.169C117 133.993 115.297 132.244 113.179 132.244H103.897Z" fill="white" stroke="#0D1140" stroke-miterlimit="10"/>
<path d="M94 144.238L99.5556 149L109 139" stroke="#FF0A47" stroke-width="2" stroke-linecap="round"/>
<mask id="mask0_16379_322540" style="mask-type:alpha" maskUnits="userSpaceOnUse" x="69" y="54" width="18" height="17">
<rect x="69" y="54" width="18" height="17" fill="#D9D9D9"/>
</mask>
<g mask="url(#mask0_16379_322540)">
<path d="M78.0001 79.4546C82.5188 79.4546 86.1819 75.7915 86.1819 71.2728C86.1819 66.7541 82.5188 63.0909 78.0001 63.0909C73.4814 63.0909 69.8182 66.7541 69.8182 71.2728C69.8182 75.7915 73.4814 79.4546 78.0001 79.4546Z" fill="#FF0A47" stroke="#F7F9FD" stroke-miterlimit="10"/>
<path d="M78 63.091C80.0083 63.091 81.6364 61.4629 81.6364 59.4546C81.6364 57.4463 80.0083 55.8182 78 55.8182C75.9917 55.8182 74.3636 57.4463 74.3636 59.4546C74.3636 61.4629 75.9917 63.091 78 63.091Z" fill="#FF0A47" stroke="#F7F9FD" stroke-miterlimit="10"/>
</g>
<path d="M86.6216 58H127C128.105 58 129 58.8954 129 60V93C129 94.1046 128.105 95 127 95H75C73.8954 95 73 94.1046 73 93V76.7846" stroke="#0D1140" stroke-linecap="round"/>
<path d="M122 78H90" stroke="#0D1140" stroke-miterlimit="10"/>
<path d="M122 82H90" stroke="#0D1140" stroke-miterlimit="10"/>
<path d="M122 74H90" stroke="#0D1140" stroke-miterlimit="10"/>
<path d="M122 70H90" stroke="#0D1140" stroke-miterlimit="10"/>
</svg>
