<svg width="200" height="200" viewBox="0 0 200 200" fill="none" xmlns="http://www.w3.org/2000/svg">
<rect width="200" height="200" rx="100" fill="#FF0A47"/>
<path d="M56.0976 104.45V90.4124C56.0976 89.0899 55.7376 85.7868 57.5651 83.9596C59.3968 82.1282 62.7061 82.4991 64.035 82.4991H64.878L69.4373 66.3384C69.8813 64.7645 71.5288 63.8598 73.0952 64.3297L78.3447 65.9046L84.6067 53.921C85.4038 52.3783 87.361 51.8648 88.8128 52.8176L92.7078 55.3955L97.2419 49.8539C98.3306 48.5232 100.326 48.4131 101.555 49.616L133.659 82.4991H140.355C141.684 82.4991 144.993 82.1282 146.825 83.9596C148.653 85.7868 148.293 89.0899 148.293 90.4124V141.903C148.293 143.225 148.653 146.528 146.825 148.356C144.993 150.187 141.684 149.816 140.355 149.816H64.035C62.7061 149.816 59.3968 150.187 57.5651 148.356C55.7376 146.528 56.0976 143.225 56.0976 141.903L56.0976 126.402H52.767C52.0979 126.402 51.4561 126.137 50.9829 125.667C50.5097 125.196 50.2439 124.558 50.2439 123.893V106.959C50.2439 106.294 50.5097 105.656 50.9829 105.185C51.4561 104.715 52.0979 104.45 52.767 104.45H56.0976Z" fill="white"/>
<path d="M56.0976 104.45V90.4124C56.0976 89.0899 55.7376 85.7868 57.5651 83.9596C59.3968 82.1282 62.7061 82.4991 64.035 82.4991H140.355C141.684 82.4991 144.993 82.1282 146.825 83.9596C148.653 85.7868 148.293 89.0899 148.293 90.4124V141.903C148.293 143.225 148.653 146.528 146.825 148.356C144.993 150.187 141.684 149.816 140.355 149.816H64.035C62.7061 149.816 59.3968 150.187 57.5651 148.356C55.7376 146.528 56.0976 143.225 56.0976 141.903L56.0976 126.402M133.659 82.4991L88.8128 52.8176C87.361 51.8648 85.4038 52.3783 84.6067 53.921L78.3447 65.9046M133.659 82.4991L73.0952 64.3297C71.5288 63.8598 69.8813 64.7645 69.4373 66.3384L64.878 82.4991M133.659 82.4991L101.555 49.616C100.326 48.4131 98.3306 48.5232 97.2419 49.8539L92.6829 55.4259M52.767 104.45H81.783C83.1214 104.45 84.4049 104.979 85.3513 105.92C86.2976 106.861 86.8293 108.137 86.8293 109.468V121.384C86.8293 122.715 86.2976 123.991 85.3513 124.932C84.4049 125.873 83.1214 126.402 81.783 126.402H52.767C52.0979 126.402 51.4561 126.137 50.9829 125.667C50.5097 125.196 50.2439 124.558 50.2439 123.893V106.959C50.2439 106.294 50.5097 105.656 50.9829 105.185C51.4561 104.715 52.0979 104.45 52.767 104.45ZM80.9756 115.426C80.9756 118.255 78.6824 120.548 75.8537 120.548C73.0249 120.548 70.7317 118.255 70.7317 115.426C70.7317 112.597 73.0249 110.304 75.8537 110.304C78.6824 110.304 80.9756 112.597 80.9756 115.426Z" stroke="#0D1140"/>
<path d="M123.415 119.65L119.477 115.427L123.415 111.319V102.988L111.708 115.427L123.415 127.866V119.65Z" fill="#FF0A47"/>
<path fill-rule="evenodd" clip-rule="evenodd" d="M105.854 97.1348H132.196C134.62 97.1348 136.586 99.1003 136.586 101.525V127.866C136.586 130.291 134.62 132.257 132.196 132.257H105.854C103.429 132.257 101.464 130.291 101.464 127.866V101.525C101.464 99.1003 103.429 97.1348 105.854 97.1348ZM119.477 115.427L123.415 119.65V127.866L111.708 115.427L123.415 102.988V111.319L119.477 115.427Z" fill="#FF0A47"/>
<path d="M123.415 119.65L119.477 115.427L123.415 111.319V102.988L111.708 115.427L123.415 127.866V119.65Z" stroke="white" stroke-miterlimit="10"/>
<path fill-rule="evenodd" clip-rule="evenodd" d="M105.854 97.1348H132.196C134.62 97.1348 136.586 99.1003 136.586 101.525V127.866C136.586 130.291 134.62 132.257 132.196 132.257H105.854C103.429 132.257 101.464 130.291 101.464 127.866V101.525C101.464 99.1003 103.429 97.1348 105.854 97.1348ZM119.477 115.427L123.415 119.65V127.866L111.708 115.427L123.415 102.988V111.319L119.477 115.427Z" stroke="white" stroke-miterlimit="10"/>
</svg>
