<svg xmlns="http://www.w3.org/2000/svg" xml:space="preserve" width="393.857" height="437.779" enable-background="new 121.724 101.517 393.857 437.779" viewBox="121.724 101.517 393.857 437.779"><filter id="a" width="90.779" height="221.08" x="162.502" y="152.916" filterUnits="userSpaceOnUse"><feColorMatrix values="1 0 0 0 0 0 1 0 0 0 0 0 1 0 0 0 0 0 1 0"/></filter><path fill="#FFF" d="m434.348 166.09-46.744-14.425-46.967-14.494 25.438 85.787.137-.453 25.315 85.369 21.29-70.502.003.01 21.528-71.292zm-1.474.785-20.044 66.372-23.684-79.866 43.728 13.494zm-90.472-27.919 43.727 13.494-20.044 66.372-23.683-79.866zm49.135 164.783-23.684-79.867 43.728 13.494-20.044 66.373zm-25.221-81.58 21.185-70.156 25.034 84.417-46.219-14.261zm-64.248 232.054a40.918 40.918 0 0 0-12.152-1.855c-17.514 0-32.819 11.117-38.088 27.666l-.181.568 39.933 12.35 17.084 5.295.003-.014 20.588 6.367.167-.582c5.989-20.955-6.282-43.291-27.354-49.795zm-28.322 31.959c2.729-7.438 9.536-12.393 17.118-12.393 1.7 0 3.392.258 5.029.762 8.975 2.77 14.23 12.631 11.943 22.186l-16.947-5.24-17.143-5.315zm54.697 16.926-19.49-6.025c2.473-10.176-3.122-20.705-12.71-23.662a18.194 18.194 0 0 0-5.378-.814c-8.104 0-15.359 5.303-18.243 13.242l-19.478-6.021c5.275-15.74 19.978-26.273 36.771-26.273 3.979 0 7.95.607 11.802 1.805 20.266 6.25 32.149 27.582 26.726 47.748zm-138.904-39 61.947 19.117L217.6 368.819l-28.414 94.088-22.41-75.625-19.28 63.84 41.393 12.775.354.107.296.094zm28.049-91.142L249.72 481.43l-59.358-18.318 27.226-90.156zm-68.617 77.38 17.794-58.92 21.008 70.895-38.802-11.975z"/><mask id="b" width="90.779" height="221.078" x="162.502" y="152.917" maskUnits="userSpaceOnUse"><g filter="url(#a)"><path fill="#FFF" d="M161.564 152.247h92v222h-92z"/></g><path d="M164.292 353.653a14.63 14.63 0 0 1 1.738-3.775c.731-1.148 1.478-2.053 2.241-2.711a21.054 21.054 0 0 1 2.182-1.699c.688-.461 1.259-.779 1.711-.957l.653-.252 1.898 3.535c-.174.066-.347.137-.517.211-.229.082-.662.305-1.295.674a9.451 9.451 0 0 0-1.727 1.281c-.53.484-1.086 1.158-1.662 2.025a10.1 10.1 0 0 0-1.359 2.859c-.847 2.805-.591 5.482.768 8.033 1.347 2.547 3.422 4.252 6.224 5.117s5.47.629 8.003-.707c2.536-1.348 4.229-3.43 5.081-6.248.318-1.057.478-2.107.478-3.152-.009-1.063-.126-1.971-.351-2.729a17.796 17.796 0 0 0-.718-2.059c-.267-.617-.509-1.092-.726-1.42l-.38-.445 3.535-1.879c.12.145.274.365.461.656.178.275.466.865.866 1.773.402.893.721 1.816.956 2.77.237.939.355 2.117.354 3.533-.01 1.4-.221 2.779-.631 4.137-1.223 4.051-3.593 7.031-7.111 8.943-3.517 1.912-7.217 2.27-11.1 1.07s-6.755-3.584-8.616-7.156c-1.86-3.571-2.179-7.379-.956-11.428zm39.362-31.125-1.282 4.244-19.49-6.016 14.938 21.09-1.105 3.66-27.029-8.342 1.281-4.246 19.51 6.021-14.956-21.098 1.104-3.66 27.029 8.347zm-18.101-37.908 27.029 8.342-1.282 4.246-11.78-3.637-4.028 13.34 11.781 3.637-1.283 4.244-27.03-8.342 1.283-4.246 11.403 3.52 4.028-13.338-11.403-3.52 1.282-4.246zm26.779-4.812 4.61-15.265 3.864 1.193-5.893 19.51-27.03-8.344 5.778-19.131 3.864 1.191-4.496 14.888 7.144 2.204 3.563-11.792 3.864 1.192-3.563 11.793 8.295 2.561zm-16.801-28.225 3.265-10.811c.779-2.578 2.279-4.475 4.499-5.686 2.212-1.229 4.531-1.469 6.956-.721 2.413.745 4.197 2.252 5.354 4.52 1.16 2.256 1.35 4.673.57 7.25l-1.982 6.566 9.65 2.979-1.281 4.245-27.031-8.342zm7.129-9.618-1.983 6.565 9.651 2.978 1.983-6.564c.402-1.334.288-2.613-.345-3.84-.645-1.23-1.646-2.055-3.004-2.475-1.368-.422-2.662-.305-3.877.351-1.213.657-2.022 1.651-2.425 2.985zm27.776-8.114-27.03-8.343 5.248-17.376 3.864 1.193-3.967 13.13 23.166 7.15-1.281 4.246zm13.471-44.602-1.282 4.245-19.491-6.015 14.938 21.09-1.106 3.66-27.029-8.342 1.281-4.245 19.51 6.021-14.956-21.096 1.105-3.661 27.03 8.343zm-18.979-35.002 27.029 8.343-1.282 4.245-10.423-3.217-1.869 6.188 8.675 9.009-1.402 4.642-8.932-9.522a6.759 6.759 0 0 1-.428.528c-.197.2-.609.54-1.235 1.021s-1.281.877-1.966 1.188-1.563.514-2.637.609a8.59 8.59 0 0 1-3.287-.375c-2.337-.721-4.055-2.152-5.152-4.292-1.107-2.157-1.285-4.481-.532-6.971l3.441-11.396zm.747 16.154c.589 1.102 1.517 1.85 2.785 2.241 1.257.388 2.44.293 3.549-.286 1.101-.596 1.841-1.523 2.221-2.78l2.159-7.151-8.879-2.74-2.158 7.151c-.381 1.257-.273 2.446.323 3.565z"/></mask><path fill="none" stroke="#FFF" stroke-width="2.125" d="M164.292 353.653a14.63 14.63 0 0 1 1.738-3.775c.731-1.148 1.478-2.053 2.241-2.711a21.054 21.054 0 0 1 2.182-1.699c.688-.461 1.259-.779 1.711-.957l.653-.252 1.898 3.535c-.174.066-.347.137-.517.211-.229.082-.662.305-1.295.674a9.451 9.451 0 0 0-1.727 1.281c-.53.484-1.086 1.158-1.662 2.025a10.1 10.1 0 0 0-1.359 2.859c-.847 2.805-.591 5.482.768 8.033 1.347 2.547 3.422 4.252 6.224 5.117s5.47.629 8.003-.707c2.536-1.348 4.229-3.43 5.081-6.248.318-1.057.478-2.107.478-3.152-.009-1.063-.126-1.971-.351-2.729a17.796 17.796 0 0 0-.718-2.059c-.267-.617-.509-1.092-.726-1.42l-.38-.445 3.535-1.879c.12.145.274.365.461.656.178.275.466.865.866 1.773.402.893.721 1.816.956 2.77.237.939.355 2.117.354 3.533-.01 1.4-.221 2.779-.631 4.137-1.223 4.051-3.593 7.031-7.111 8.943-3.517 1.912-7.217 2.27-11.1 1.07s-6.755-3.584-8.616-7.156c-1.86-3.571-2.179-7.379-.956-11.428zm39.362-31.125-1.282 4.244-19.49-6.016 14.938 21.09-1.105 3.66-27.029-8.342 1.281-4.246 19.51 6.021-14.956-21.098 1.104-3.66 27.029 8.347zm-18.101-37.908 27.029 8.342-1.282 4.246-11.78-3.637-4.028 13.34 11.781 3.637-1.283 4.244-27.03-8.342 1.283-4.246 11.403 3.52 4.028-13.338-11.403-3.52 1.282-4.246zm26.779-4.812 4.61-15.265 3.864 1.193-5.893 19.51-27.03-8.344 5.778-19.131 3.864 1.191-4.496 14.888 7.144 2.204 3.563-11.792 3.864 1.192-3.563 11.793 8.295 2.561zm-16.801-28.225 3.265-10.811c.779-2.578 2.279-4.475 4.499-5.686 2.212-1.229 4.531-1.469 6.956-.721 2.413.745 4.197 2.252 5.354 4.52 1.16 2.256 1.35 4.673.57 7.25l-1.982 6.566 9.65 2.979-1.281 4.245-27.031-8.342zm7.129-9.618-1.983 6.565 9.651 2.978 1.983-6.564c.402-1.334.288-2.613-.345-3.84-.645-1.23-1.646-2.055-3.004-2.475-1.368-.422-2.662-.305-3.877.351-1.213.657-2.022 1.651-2.425 2.985zm27.776-8.114-27.03-8.343 5.248-17.376 3.864 1.193-3.967 13.13 23.166 7.15-1.281 4.246zm13.471-44.602-1.282 4.245-19.491-6.015 14.938 21.09-1.106 3.66-27.029-8.342 1.281-4.245 19.51 6.021-14.956-21.096 1.105-3.661 27.03 8.343zm-18.979-35.002 27.029 8.343-1.282 4.245-10.423-3.217-1.869 6.188 8.675 9.009-1.402 4.642-8.932-9.522a6.759 6.759 0 0 1-.428.528c-.197.2-.609.54-1.235 1.021s-1.281.877-1.966 1.188-1.563.514-2.637.609a8.59 8.59 0 0 1-3.287-.375c-2.337-.721-4.055-2.152-5.152-4.292-1.107-2.157-1.285-4.481-.532-6.971l3.441-11.396zm.747 16.154c.589 1.102 1.517 1.85 2.785 2.241 1.257.388 2.44.293 3.549-.286 1.101-.596 1.841-1.523 2.221-2.78l2.159-7.151-8.879-2.74-2.158 7.151c-.381 1.257-.273 2.446.323 3.565z" mask="url(#b)"/><path fill="none" stroke="#FFF" stroke-width="1.445" d="m326.592 322.672 40.361-22.658-5.258 20.105-13.971 7.676-.651.359.383.643 8.317 13.973-5.181 19.809-24-39.907z"/><path fill="none" stroke="#FFF" stroke-width="1.185" d="m398.096 417.571-5.396-3.855-.531-.164.171-.566 3.024-10.014.123-.404.422-.016 6.724-.207 2.326-7.703-32.408 2.15-2.529 8.379 25.75 20.102 2.324-7.702zm-8.673-14.071-1.699 5.633-.234.779-.668-.467-7.983-5.574-1.529-1.068 1.859-.012 9.684-.059.808-.006-.238.774zm-16.116 82.651c-2.031-4.113-5.179-6.814-9.41-8.119-4.229-1.307-8.276-.828-12.295 1.424-4.013 2.25-6.713 5.676-8.099 10.258-1.383 4.584-1.035 8.951 1.052 13.082 2.088 4.137 5.182 6.818 9.409 8.125 4.229 1.305 8.278.826 12.296-1.426 4.012-2.25 6.715-5.676 8.098-10.258 1.385-4.582 1.037-8.951-1.049-13.082l-.002-.004zm-5.119 11.119c-.785 2.598-2.332 4.451-4.603 5.672-2.286 1.229-4.774 1.385-7.386.578-2.556-.787-4.535-2.322-5.751-4.633-1.209-2.295-1.449-4.766-.684-7.303.768-2.541 2.316-4.395 4.584-5.615 2.281-1.227 4.715-1.4 7.33-.596 2.608.805 4.588 2.338 5.805 4.646 1.231 2.241 1.488 4.657.705 7.251zm22.635-56.021-8.5-2.623-.567-.176.172-.566 1.649-5.463c.961-3.182.821-6.045-.488-8.613l-.004-.008c-1.259-2.559-3.333-4.314-6.224-5.209-2.896-.893-5.514-.645-8.028.752-2.456 1.412-4.208 3.697-5.185 6.93l-3.969 13.145 28.993 8.949 2.151-7.118zm-13.459-10.247-1.513 5.006-.17.566-.566-.174-5.854-1.809-.564-.174-.057-.018.172-.566-.513-.158 1.513-5.006c.338-1.119 1.017-1.926 1.959-2.488.965-.572 2.028-.695 3.037-.385 1.01.313 1.823 1.014 2.308 2.035.47 1 .586 2.052.248 3.171zm6.695 32.854c.961-3.184.789-5.938-.392-8.346-1.188-2.42-3.059-4.043-5.602-4.828-2.535-.781-4.931-.479-7.315.848-2.306 1.33-3.97 3.516-4.931 6.695l-1.771 5.859-.172.568-.565-.176-3.886-1.197-.565-.176.171-.566 4.038-13.373-5.795-1.787-6.357 21.053 29.054 8.969 4.088-13.543zm-5.857-1.373-.171.566-.057-.018-1.461 4.838-.173.566-.565-.176-5.575-1.721-.566-.174.172-.568 1.648-5.461c.298-.984.889-1.76 1.698-2.252l.015-.008.014-.008a3.445 3.445 0 0 1 2.738-.271c.981.303 1.606.975 2.047 1.813l.008.012.006.014c.432.924.524 1.846.222 2.848zm-.164-80.996c-.144-.854-.158-1.984-.084-3.445.071-1.42.308-2.791.739-4.225 1.004-3.318 2.623-5.719 4.884-7.246 2.278-1.541 4.431-1.887 6.483-1.252 1.418.438 2.484 1.172 3.25 2.137.793 1.004 1.172 1.906 1.271 2.615l.105 1.26 1.155.129a1.05 1.05 0 0 1 .224-.34c.177-.189.522-.559 1.084-1.041.554-.479 1.131-.875 1.713-1.146.572-.264 1.377-.48 2.357-.596.918-.109 1.897.016 2.969.346 2.403.742 4.145 2.365 5.215 4.988 1.063 2.607 1.023 5.732-.12 9.523-.435 1.438-1.03 2.813-1.82 4.063l-.006.008-.006.012c-.747 1.281-1.526 2.293-2.261 3l-.004.006-.006.006a24.828 24.828 0 0 1-2.226 1.986c-.721.572-1.311.979-1.705 1.191l-.146.078-2.938-5.35.332-.215.26-.168c.545-.35 1.236-1.098 2.07-2.061l.007-.008c.905-1.082 1.576-2.203 1.968-3.492.446-1.484.543-2.857.098-4.02-.424-1.107-1.094-1.885-2.16-2.213-1.051-.322-2.018-.154-2.823.549-.762.666-1.327 1.766-1.76 3.197l-1.015 3.357-5.625-1.734.877-2.902c.396-1.309.479-2.43.16-3.361-.322-.943-.941-1.543-1.859-1.826-.9-.277-1.76-.033-2.512.539-.803.609-1.322 1.748-1.722 3.066a8.23 8.23 0 0 0-.317 3.234c.063 1.043.258 1.91.508 2.494l.117.33-5.453 2.77-.021-.037c-.093-.176-.313-.754-.618-1.607-.287-.904-.549-1.74-.639-2.566l-.002-.018v-.015h.002zm55.914-188.025 5.633-18.652 5.799 1.79-3.313 10.969-.171.567.564.175 4.731 1.46.564.175.172-.568 3.313-10.968 5.343 1.648-3.312 10.969-.172.567.565.175 5.182 1.599.396.123 3.484-11.536 5.963 1.84-5.632 18.651-2.467-.761-3.498-1.079-17.354-5.355v.001l-5.79-1.79zm18.715 43.216-29.052-8.967 2.147-7.114 16.271 5.021 1.654.512-1-1.418-12.72-18.045 1.91-6.323 29.051 8.965-2.147 7.116-16.271-5.022-1.652-.51 1 1.418 12.718 18.044-1.909 6.323zm-23.902 79.139c.945-3.133.829-5.883-.22-8.383-1.051-2.502-2.7-4.027-4.876-4.699-.952-.293-1.871-.402-2.729-.279-.905.129-1.657.355-2.241.627a9.592 9.592 0 0 0-1.673 1.168c-.562.486-.906.854-1.082 1.041h-.002c-.064.07-.125.148-.188.232-.009.012-.019.023-.027.037l-.065.09c-.03.039-.07.092-.116.141l-.764.811-.245-1.092-.104-.461c-.07-.283-.19-.596-.406-1.094-.188-.43-.434-.832-.746-1.338l-.053-.088c-.271-.439-.729-.859-1.371-1.369-.574-.453-1.258-.781-2.054-1.025-1.948-.602-3.899-.311-5.932 1.051-2.022 1.355-3.499 3.486-4.415 6.52l-3.97 13.143 29.052 8.969 4.227-14.002zm-17.91-3.662-1.375 4.551-.17.568-.566-.178-5.182-1.598-.566-.174.171-.568 1.375-4.551c.298-.988.874-1.703 1.604-2.154.787-.482 1.66-.506 2.564-.227.928.285 1.557.785 1.987 1.604.448.848.448 1.77.158 2.727zm12.49 2.674-1.7 5.631-.172.568-.565-.178-6.025-1.857-.566-.174.172-.568 1.701-5.633c.328-1.084.931-1.924 1.826-2.463.914-.549 1.907-.611 2.893-.309.983.305 1.773.916 2.229 1.889.366.781.456 1.623.294 2.5l.087.023-.174.571zm11.292-18.273-5.396-3.856-.531-.162.171-.567 3.024-10.015.122-.404.423-.014 6.724-.207 2.326-7.703-32.408 2.15-2.529 8.379 25.751 20.1 2.323-7.701zm-8.688-14.013-1.701 5.633-.235.777-.668-.466-7.98-5.573-1.53-1.068 1.86-.012 9.683-.06.807-.005-.236.774zm16.686-12.451-29.107-8.983 2.148-7.116 10.696 3.301.567.176.171-.567 3.351-11.094.171-.567-.565-.175-10.696-3.301 2.147-7.116 29.108 8.982-2.132 7.06-11.091-3.423-.566-.176-.171.568-3.351 11.094-.173.567.566.175 11.091 3.422-2.164 7.173zm-44.078 93.188c4.229 1.305 8.276.828 12.295-1.424 4.012-2.25 6.713-5.678 8.098-10.26 1.384-4.584 1.035-8.951-1.049-13.082l-.004-.004c-2.029-4.111-5.176-6.813-9.408-8.121-4.229-1.305-8.278-.824-12.295 1.428-4.012 2.25-6.715 5.676-8.098 10.258-1.386 4.584-1.037 8.951 1.049 13.082 2.087 4.136 5.182 6.818 9.412 8.123zm-4.2-19.334c.767-2.541 2.315-4.396 4.582-5.615 2.283-1.229 4.717-1.402 7.332-.596 2.606.805 4.586 2.338 5.805 4.645 1.23 2.244 1.467 4.717.701 7.25-.783 2.596-2.332 4.453-4.602 5.672-2.285 1.23-4.775 1.385-7.386.578-2.557-.789-4.535-2.324-5.752-4.633-1.206-2.293-1.447-4.764-.68-7.301zm57.698 17.221 6.412-.18-4.698 15.557-5.229-3.719-.35-.248.124-.41 3.194-10.582.122-.406.425-.012zm17.224-61.811c.516 1.078.607 2.189.257 3.355l-1.598 5.291-.174.568-.564-.176-6.87-2.119-.567-.178.171-.564 1.6-5.291c.352-1.168 1.043-2.035 2.066-2.642l.012-.007.011-.006c1.072-.576 2.07-.726 3.201-.377 1.117.347 1.933 1.045 2.456 2.143v.003zm-18.847 27.768c.518 1.082.608 2.191.258 3.359l-1.6 5.291-.171.564-.567-.174-6.868-2.121-.567-.174.172-.568 1.598-5.291c.354-1.166 1.043-2.035 2.068-2.641l.01-.006.012-.006c1.07-.576 2.068-.727 3.199-.377 1.117.347 1.933 1.046 2.456 2.144zm27.474-90.974a4.506 4.506 0 0 1 .257 3.358l-1.598 5.291-.173.568-.565-.176-6.87-2.121-.567-.174.171-.566 1.6-5.293c.353-1.166 1.043-2.035 2.066-2.641l.012-.006.011-.006c1.072-.576 2.07-.727 3.201-.377 1.116.346 1.932 1.044 2.455 2.143zm18.715-27.313a4.501 4.501 0 0 1 .256 3.358l-1.46 4.836-.172.567-.566-.174-6.871-2.121-.564-.174.171-.568 1.461-4.836c.352-1.166 1.042-2.035 2.068-2.641l.01-.006.01-.005c1.073-.577 2.07-.727 3.201-.378 1.116.345 1.931 1.044 2.456 2.142zm-101.582 142.41c-1.208-2.293-1.449-4.764-.682-7.301.767-2.541 2.315-4.396 4.582-5.615 2.283-1.229 4.717-1.402 7.332-.596 2.606.805 4.586 2.338 5.805 4.645 1.23 2.244 1.467 4.717.701 7.25-.783 2.596-2.332 4.453-4.602 5.672-2.285 1.23-4.775 1.385-7.386.578-2.555-.79-4.533-2.325-5.75-4.633zm-17.06 108.388c.434.924.524 1.848.224 2.85l-.171.564-.057-.016-1.461 4.836-.173.568-.565-.176-5.575-1.721-.566-.176.172-.566 1.648-5.463c.298-.982.889-1.758 1.698-2.25l.015-.01.014-.006a3.433 3.433 0 0 1 2.738-.271c.981.301 1.606.973 2.047 1.811l.008.014.004.012zm32.72-150.205c.445.846.445 1.77.156 2.727l-1.375 4.551-.17.566-.566-.176-5.182-1.6-.566-.174.171-.566 1.375-4.553c.298-.986.874-1.703 1.604-2.152.787-.484 1.66-.508 2.564-.229.929.288 1.558.786 1.989 1.606zm-21.849 93.303.808-.006-.234.773-1.699 5.633-.234.777-.668-.467-7.983-5.572-1.529-1.068 1.859-.012 9.68-.058zm-11.736 25.1c.472.998.588 2.051.25 3.17l-1.513 5.006-.17.566-.566-.174-5.854-1.809-.564-.174-.057-.018.172-.566-.513-.158 1.513-5.006c.338-1.119 1.017-1.926 1.959-2.488.965-.572 2.028-.695 3.037-.385 1.008.313 1.823 1.016 2.306 2.036zm46.315-113.598.087.023-.171.568-1.7 5.633-.172.566-.565-.176-6.025-1.857-.566-.176.172-.566 1.701-5.633c.328-1.086.931-1.926 1.826-2.463.914-.549 1.907-.611 2.893-.311.983.307 1.773.918 2.229 1.891.364.784.454 1.624.291 2.501zm1.947-32.46.807-.005-.232.773-1.701 5.633-.235.777-.668-.465-7.98-5.574-1.53-1.068 1.86-.012 9.679-.059zM367.484 490.02c1.229 2.24 1.486 4.656.703 7.25-.785 2.598-2.332 4.451-4.603 5.672-2.286 1.229-4.774 1.385-7.386.578-2.556-.787-4.535-2.322-5.751-4.633-1.209-2.295-1.449-4.766-.684-7.303.768-2.541 2.316-4.395 4.584-5.615 2.281-1.227 4.715-1.4 7.33-.596 2.612.805 4.591 2.338 5.807 4.647zm83.763-311.611-3.313 10.968-.172.568-.564-.175-4.731-1.46-.564-.175.171-.567 3.313-10.969m17.347 5.355-3.484 11.536-.396-.123-5.183-1.599-.565-.175.172-.567 3.312-10.969M129.018 444.799l-6.557-2.021 102.834-340.519 284.861 87.851m-41.459-6.316-5.632 18.651-2.467-.761-3.498-1.079-17.354-5.355v.001l-5.794-1.788 5.633-18.652M129.018 444.799l278.211 85.859 8.272-27.396-7.361 24.377-6.025-1.859.225-.742.85.262-.664-1.262-.354-.668c-.197-.375-.656-.934-1.334-1.689a19.462 19.462 0 0 0-2.42-2.287c-.924-.732-2.128-1.551-3.742-2.428-1.622-.883-3.354-1.605-5.304-2.209l-9.514-2.936 6.908-22.875 23.647 7.297.566.176.172-.568.945-3.131 6.025 1.859.583-1.932-5.975-1.844c.305-.479.547-.965.681-1.408.28-.932.34-1.795.069-2.635-.26-.809-.83-1.664-1.674-2.514l-.011-.01c-.927-.891-2.338-1.773-4.214-2.605-1.921-.91-4.337-1.779-7.271-2.684l-9.516-2.939 7.184-23.785 30.126 9.297 1.785-5.912-8.376-8.969-.498-.531-.416.594a1.046 1.046 0 0 1-.136.146 8.253 8.253 0 0 0-.228.23c-.245.18-.694.51-1.335.941-.733.439-1.428.813-2.203 1.096l-.012.004-.014.004c-.67.279-1.599.396-2.84.449-1.167.047-2.333-.135-3.578-.52-2.943-.908-5.078-2.682-6.474-5.414-1.338-2.713-1.563-5.672-.572-8.953l4.435-14.68 30.185 9.314 4.638-15.357-30.243-9.334 2.303-7.627 11.768 3.631 1.525.471-.855-1.354-8.974-14.213 2.62-8.678 9.055 14.523.24.385.432-.129 20.729-6.143.218-.721-26.697-20.859 2.686-8.891 33.67-2.229 1.219-4.037-30.297-9.35 4.039-13.373.11.033.172-.566c1.028-3.404 2.89-5.842 5.49-7.332 2.668-1.479 5.491-1.783 8.547-.84 3.063.945 5.288 2.813 6.625 5.52l.003.008c1.388 2.715 1.533 5.766.502 9.178l-1.733 5.746-.171.566.564.176 8.451 2.607 6.976-23.094-30.189-9.318 2.303-7.627 9.007 2.779.567.176.171-.566 1.735-5.747c1.026-3.403 2.888-5.841 5.491-7.331 2.667-1.479 5.488-1.783 8.547-.84 3.063.945 5.287 2.813 6.624 5.52.773 1.565 1.151 3.26 1.146 5.066l3.876-12.836L450.532 278l7.183-23.785 6.188 1.908-4.709 15.592-.171.566.565.176 5.012 1.547.566.174.171-.567 3.592-11.892 5.737 1.77-3.591 11.893-.172.567.565.175 5.462 1.687.567.175.171-.566 4.846-16.047 5.52 1.703 1.597-5.287-30.297-9.35 4.038-13.374.113.035.171-.567c1.026-3.404 2.888-5.842 5.491-7.332 2.667-1.478 5.488-1.783 8.547-.84 3.063.945 5.287 2.813 6.624 5.52l.004.006c1.386 2.716 1.532 5.767.502 9.179l-1.736 5.746-.171.567.567.174 8.449 2.609 6.975-23.096-30.185-9.315 2.305-7.628 9.007 2.78.566.175.172-.567 1.598-5.291c1.028-3.404 2.888-5.842 5.491-7.332 2.667-1.478 5.489-1.783 8.547-.84 3.062.945 5.287 2.812 6.624 5.519l.003.007c.791 1.549 1.164 3.211 1.16 4.984l3.561-11.793-30.184-9.315.529-1.755m-52.339 33.902 16.271 5.021 1.653.512-1-1.418-12.719-18.045 1.91-6.323 29.051 8.965-2.147 7.116-16.271-5.022-1.652-.51 1 1.418 12.718 18.044-1.909 6.324-29.052-8.967 2.147-7.115zm-10.086 33.396 10.696 3.301.567.176.171-.567 3.351-11.094.171-.567-.565-.175-10.696-3.301 2.147-7.116 29.108 8.982-2.132 7.06-11.091-3.423-.566-.176-.171.568-3.351 11.094-.173.567.566.175 11.091 3.422-2.166 7.174-29.107-8.983 2.15-7.117zm-6.584 21.785 32.408-2.15-2.326 7.703-6.724.207-.423.014-.122.404-3.024 10.014-.171.568.531.162 5.396 3.856-2.324 7.7-25.75-20.1 2.529-8.378zm-9.637 31.926c.916-3.031 2.393-5.162 4.415-6.52 2.031-1.359 3.982-1.65 5.932-1.051.796.246 1.479.574 2.054 1.027.644.508 1.101.928 1.371 1.367l.053.088c.313.508.56.91.746 1.34.216.496.336.811.406 1.092l.104.461.245 1.094.764-.813c.046-.047.086-.102.116-.139l.065-.09.027-.039c.063-.084.122-.16.188-.23l.002-.002a13.3 13.3 0 0 1 1.082-1.039 9.603 9.603 0 0 1 1.673-1.17c.584-.27 1.336-.496 2.241-.627.858-.121 1.777-.014 2.729.281 2.176.67 3.825 2.197 4.876 4.699 1.049 2.498 1.165 5.25.22 8.381l-4.228 13.998-29.052-8.967 3.971-13.141zm-11.36 34.371c1.383-4.582 4.086-8.008 8.098-10.258 4.017-2.252 8.064-2.73 12.295-1.428 4.232 1.309 7.379 4.01 9.408 8.121l.004.004c2.084 4.131 2.433 8.498 1.049 13.082-1.385 4.582-4.086 8.01-8.098 10.258-4.019 2.254-8.066 2.73-12.295 1.426-4.229-1.307-7.324-3.986-9.412-8.123-2.086-4.131-2.434-8.498-1.049-13.082zm-10.142 35.967c.071-1.42.307-2.791.739-4.225 1.004-3.318 2.623-5.719 4.884-7.246 2.278-1.541 4.431-1.887 6.483-1.252 1.418.438 2.484 1.172 3.25 2.137.793 1.004 1.172 1.906 1.271 2.615l.105 1.26 1.155.129a1.05 1.05 0 0 1 .224-.34c.177-.189.522-.559 1.084-1.041.554-.479 1.131-.875 1.713-1.146.572-.264 1.377-.48 2.357-.596.918-.109 1.897.016 2.969.346 2.403.742 4.145 2.365 5.215 4.988 1.063 2.607 1.022 5.732-.12 9.523-.435 1.438-1.03 2.813-1.82 4.063l-.006.008-.006.012c-.747 1.281-1.526 2.293-2.261 3l-.004.006-.006.006a24.828 24.828 0 0 1-2.226 1.986c-.721.572-1.311.979-1.705 1.191l-.146.078-2.938-5.35.332-.215.26-.168c.545-.35 1.236-1.098 2.07-2.061l.007-.008c.905-1.082 1.576-2.203 1.968-3.492.446-1.484.543-2.857.098-4.02-.424-1.107-1.094-1.885-2.16-2.213-1.051-.322-2.018-.154-2.823.549-.762.666-1.327 1.766-1.76 3.197l-1.015 3.357-5.625-1.734.877-2.902c.396-1.309.479-2.43.16-3.361-.322-.943-.941-1.543-1.859-1.826-.9-.277-1.76-.033-2.512.539-.803.609-1.322 1.748-1.722 3.066a8.211 8.211 0 0 0-.317 3.234c.063 1.043.258 1.91.508 2.494l.117.33-5.453 2.77-.021-.037c-.093-.176-.313-.754-.618-1.607-.287-.904-.549-1.74-.639-2.566l-.002-.018-.002-.018c-.139-.849-.154-1.982-.08-3.442zm-5.404 18.75 32.408-2.15-2.326 7.703-6.724.207-.422.016-.123.404-3.024 10.014-.171.566.531.164 5.396 3.855-2.326 7.701-25.75-20.102 2.531-8.378zm-8.902 29.478c.977-3.23 2.729-5.518 5.185-6.93 2.516-1.395 5.134-1.643 8.028-.75 2.891.895 4.965 2.648 6.224 5.207l.004.008c1.311 2.568 1.449 5.434.488 8.615l-1.65 5.461-.171.568.567.174 8.5 2.623-2.149 7.117-28.993-8.949 3.967-13.144zm-6.373 21.107 5.795 1.789-4.038 13.371-.171.566.564.176 3.887 1.197.565.178.172-.568 1.771-5.861c.961-3.18 2.625-5.363 4.931-6.695 2.386-1.326 4.78-1.627 7.315-.846 2.543.785 4.414 2.408 5.602 4.828 1.181 2.406 1.353 5.16.392 8.344l-4.088 13.543-29.054-8.967 6.357-21.055zm17.082 51.86c-1.383 4.582-4.086 8.008-8.098 10.258-4.018 2.252-8.066 2.729-12.296 1.426-4.229-1.307-7.321-3.988-9.409-8.125-2.087-4.131-2.435-8.498-1.052-13.082 1.386-4.582 4.086-8.008 8.099-10.258 4.019-2.252 8.065-2.73 12.295-1.424 4.231 1.305 7.379 4.006 9.41 8.119l.002.004c2.087 4.131 2.434 8.5 1.049 13.082zm33.81 4.652.567.176-.172.566-3.334 11.037-.416 1.379-.672-1.279-.303-.568a10.63 10.63 0 0 0-1.21-1.537 31.462 31.462 0 0 0-2.243-2.154c-.884-.744-2.086-1.477-3.607-2.316a23.694 23.694 0 0 0-5.086-2.057l-.008-.002-.01-.002-2.253-.697-.565-.174.172-.564 1.959-6.486.171-.568.567.176 16.443 5.07zm-5.306-41.941 22.977 7.09-4.326 14.322c-.206-.59-.466-1.16-.774-1.705l-.004-.006-.004-.01c-.653-1.24-1.738-2.467-3.188-3.574-1.456-1.113-3.458-2.283-5.965-3.488-2.49-1.197-5.505-2.314-9.038-3.404l-2.252-.695-.566-.176.171-.564 2.233-7.396.171-.566.565.172zm16.016-30.01.566.176-.172.564-1.82 6.031c-.342 1.129-.96 2.047-1.942 2.574a3.894 3.894 0 0 1-3.054.299c-1.065-.33-1.813-1.012-2.313-1.955-.522-.992-.529-2.102-.188-3.23l1.821-6.029.172-.568.566.174 6.364 1.964zm25.617-70.559.808-.006-.232.773-1.806 5.975-.233.777-.668-.469-8.438-5.898-1.523-1.066 1.854-.014 10.238-.072zm-17.846 72.955 8.845 2.73-3.221 10.662-7.609-7.803-.246-.254.102-.336 1.393-4.607.172-.566.564.174zm8.239-35.976 13.514-4.033-3.628 12.014-7.048-2.174-.216-.068-.117-.191-2.838-4.67-.397-.656.73-.222z"/><path fill="none" stroke="#FFF" stroke-width="1.185" d="M252.695 489.387 146.459 456.6m1.774-5.871-19.215-5.93-1.773 5.871 19.215 5.93m104.143 25.723 156.625 48.336 103.114-341.097L408.14 527.639l-6.025-1.857.225-.744.85.262-.664-1.262-.354-.668c-.197-.375-.656-.932-1.334-1.688a19.315 19.315 0 0 0-2.42-2.287c-.924-.734-2.128-1.551-3.742-2.43-1.622-.883-3.354-1.605-5.304-2.209l-9.514-2.936 6.908-22.875 23.647 7.299.566.174.172-.566.945-3.131 6.025 1.859.583-1.932-5.975-1.846c.305-.477.547-.963.681-1.406.28-.932.34-1.797.069-2.635-.26-.809-.83-1.666-1.674-2.514l-.011-.01c-.927-.893-2.338-1.773-4.214-2.605-1.921-.91-4.337-1.781-7.271-2.686l-9.516-2.938 7.184-23.785 30.126 9.297 1.785-5.912-8.376-8.971-.498-.531-.416.594a1.046 1.046 0 0 1-.136.146c-.077.076-.153.152-.228.23-.245.182-.694.51-1.335.943-.733.439-1.428.811-2.203 1.094l-.012.006-.014.004c-.67.277-1.599.396-2.84.447-1.167.047-2.333-.133-3.578-.52-2.943-.906-5.078-2.682-6.474-5.412-1.338-2.713-1.563-5.672-.572-8.953l4.435-14.682 30.185 9.316 4.638-15.359-30.243-9.334 2.303-7.627 11.768 3.631 1.525.473-.855-1.354-8.974-14.215 2.62-8.678 9.055 14.523.24.387.432-.131 20.729-6.141.218-.723-26.697-20.857 2.686-8.891 33.67-2.229 1.219-4.039-30.297-9.35 4.039-13.373.11.035.172-.568c1.028-3.404 2.89-5.84 5.49-7.332 2.668-1.477 5.491-1.781 8.547-.838 3.063.945 5.288 2.813 6.625 5.52l.003.006c1.388 2.715 1.533 5.766.502 9.18l-1.733 5.746-.171.564.564.178 8.451 2.605 6.976-23.094-30.189-9.316 2.303-7.629 9.007 2.781.567.174.171-.564 1.735-5.748c1.026-3.402 2.888-5.841 5.491-7.33 2.667-1.479 5.488-1.783 8.547-.841 3.063.945 5.287 2.812 6.624 5.519.773 1.566 1.151 3.26 1.146 5.066l3.876-12.835L450.532 278l7.183-23.785 6.188 1.91-4.709 15.59-.171.568.565.174 5.012 1.547.566.176.171-.568 3.592-11.892 5.737 1.771-3.591 11.893-.172.566.565.176 5.462 1.686.567.175.171-.567 4.846-16.045 5.52 1.703 1.597-5.289-30.297-9.349 4.038-13.374.113.035.171-.566c1.026-3.404 2.888-5.843 5.491-7.332 2.667-1.479 5.488-1.783 8.547-.841 3.063.945 5.287 2.812 6.624 5.519l.004.008c1.386 2.715 1.531 5.766.502 9.178l-1.736 5.746-.171.566.567.176 8.449 2.607 6.975-23.095-30.185-9.315 2.305-7.628 9.007 2.78.566.175.172-.567 1.598-5.291c1.028-3.404 2.888-5.842 5.491-7.332 2.667-1.478 5.489-1.783 8.547-.84 3.062.945 5.287 2.812 6.624 5.519l.003.007c.791 1.549 1.164 3.211 1.16 4.984l3.561-11.793-30.184-9.315.529-1.755 36.74 11.338-102.832 340.52-159.315-49.166m243.926-280.551c-.524-1.098-1.34-1.797-2.458-2.142-1.131-.349-2.128-.199-3.201.378l-.01.005-.01.006c-1.026.606-1.718 1.475-2.068 2.641l-1.461 4.836-.171.568.564.174 6.871 2.121.566.174.172-.567 1.46-4.836a4.496 4.496 0 0 0-.254-3.358zm-18.715 27.313c-.523-1.099-1.339-1.797-2.457-2.142-1.131-.35-2.129-.199-3.201.377l-.011.006-.012.006c-1.023.605-1.715 1.475-2.066 2.641l-1.6 5.293-.171.566.567.174 6.87 2.121.565.176.173-.568 1.598-5.291a4.496 4.496 0 0 0-.255-3.359zm-8.627 63.206c-.523-1.1-1.339-1.798-2.457-2.145-1.132-.349-2.129-.198-3.201.377l-.011.007-.012.006c-1.023.606-1.716 1.474-2.066 2.642l-1.6 5.291-.171.564.567.178 6.87 2.121.564.174.173-.568 1.599-5.291c.353-1.167.261-2.276-.255-3.356zm-18.847 27.768c-.522-1.098-1.34-1.797-2.458-2.141-1.131-.352-2.129-.199-3.2.377l-.011.006-.01.006c-1.026.604-1.716 1.473-2.068 2.641l-1.598 5.291-.172.566.567.176 6.868 2.119.567.176.171-.566 1.599-5.291a4.487 4.487 0 0 0-.255-3.36zm-5.13 34.25-.808.006-10.242.072-1.854.014 1.524 1.066 8.438 5.898.668.469.233-.777 1.805-5.975.236-.773zm8.467 15.169 4.698-15.557-6.412.18-.424.012-.122.406-3.195 10.582-.124.41.351.248 5.228 3.719zm-8.998 29.795 3.628-12.014-13.513 4.033-.73.219.397.658 2.838 4.67.117.191.216.066 7.047 2.177zm-25.328 25.774-.566-.174-6.363-1.967-.565-.174-.172.568-1.821 6.029c-.341 1.129-.334 2.238.188 3.23.497.943 1.245 1.625 2.313 1.955a3.894 3.894 0 0 0 3.054-.299c.982-.527 1.602-1.445 1.942-2.574l1.82-6.031.17-.563zm12.828 15.617 3.222-10.662-8.846-2.73-.565-.174-.172.564-1.393 4.609-.102.336.246.252 7.61 7.805zm-11.542 33.912.004.008.004.008a10.3 10.3 0 0 1 .774 1.705l4.326-14.322-22.977-7.092-.567-.174-.171.564-2.234 7.396-.171.566.567.174 2.252.697c3.533 1.09 6.548 2.205 9.038 3.404 2.507 1.205 4.509 2.375 5.965 3.488 1.451 1.109 2.536 2.336 3.19 3.578zm-11.995 22.424-.567-.178-16.441-5.072-.567-.178-.171.568-1.959 6.486-.172.566.565.174 2.253.695.01.002.008.004a23.739 23.739 0 0 1 5.086 2.055c1.521.842 2.725 1.574 3.607 2.318.783.68 1.531 1.398 2.243 2.152.609.654.974 1.172 1.21 1.537l.303.57.672 1.277.416-1.379 3.334-11.037.17-.56z"/></svg>