<svg xmlns="http://www.w3.org/2000/svg" xml:space="preserve" width="393.859" height="437.778" enable-background="new 121.724 101.517 393.859 437.778" viewBox="121.724 101.517 393.859 437.778"><path fill="#0D1140" d="m230.079 110.153 284.767 87.883-102.834 340.517-284.767-87.882z"/><path fill="#0D1140" d="m225.579 102.653 284.767 87.883-102.834 340.517-284.767-87.882z"/><path fill="#FF0A47" d="m434.349 166.09-46.745-14.425-46.967-14.494 25.438 85.786.137-.452 25.315 85.368 21.29-70.502.003.01 21.529-71.291zm-1.475.785-20.044 66.371-23.684-79.865 43.728 13.494zm-90.472-27.919 43.727 13.494-20.044 66.372-23.683-79.866zm49.135 164.782-23.684-79.866 43.728 13.494-20.044 66.372zm-25.221-81.58 21.185-70.155 25.034 84.418-46.219-14.263zM302.068 454.214a40.944 40.944 0 0 0-12.152-1.856c-17.514 0-32.82 11.118-38.088 27.666l-.181.569 39.933 12.348 17.084 5.295.003-.012 20.588 6.366.167-.582c5.989-20.954-6.282-43.291-27.354-49.794zm-28.322 31.959c2.729-7.438 9.536-12.393 17.118-12.393 1.7 0 3.392.257 5.029.762 8.975 2.769 14.231 12.631 11.944 22.185l-16.948-5.24-17.143-5.314zm54.697 16.926-19.49-6.026c2.473-10.176-3.122-20.705-12.71-23.663-1.75-.54-3.56-.813-5.378-.813-8.104 0-15.359 5.302-18.243 13.242l-19.478-6.023c5.276-15.739 19.978-26.272 36.772-26.272 3.979 0 7.95.607 11.802 1.805 20.265 6.252 32.148 27.583 26.725 47.75zM189.539 464.098l61.947 19.117L217.6 368.819l-28.414 94.087-22.41-75.625-19.28 63.841 41.392 12.774.355.109.296.093zm28.049-91.142L249.72 481.43l-59.358-18.318 27.226-90.156zm-68.617 77.381 17.794-58.921 21.008 70.896-38.802-11.975z"/><defs><filter id="a" width="90.779" height="221.08" x="162.502" y="152.916" filterUnits="userSpaceOnUse"><feColorMatrix values="1 0 0 0 0 0 1 0 0 0 0 0 1 0 0 0 0 0 1 0"/></filter></defs><mask id="b" width="90.779" height="221.08" x="162.502" y="152.916" maskUnits="userSpaceOnUse"><path fill="#FFF" d="M161.564 152.247h92v222h-92z" filter="url(#a)"/><path d="M164.292 353.652a14.656 14.656 0 0 1 1.738-3.775c.731-1.149 1.478-2.053 2.241-2.711a21.388 21.388 0 0 1 2.182-1.699c.688-.461 1.259-.779 1.711-.957l.653-.252 1.899 3.536a9.149 9.149 0 0 0-.517.211c-.23.081-.662.305-1.295.673a9.439 9.439 0 0 0-1.727 1.282c-.53.483-1.085 1.158-1.662 2.024a10.185 10.185 0 0 0-1.359 2.86c-.847 2.805-.591 5.482.768 8.033 1.346 2.547 3.421 4.253 6.223 5.118 2.802.865 5.47.629 8.003-.707 2.536-1.348 4.23-3.431 5.081-6.249.319-1.056.478-2.107.478-3.152-.009-1.062-.126-1.971-.351-2.728a17.515 17.515 0 0 0-.718-2.058c-.266-.618-.508-1.092-.725-1.42l-.38-.447 3.535-1.879c.12.146.274.366.461.657.178.275.466.866.866 1.773.403.894.721 1.818.956 2.77.238.94.356 2.118.354 3.533-.01 1.4-.221 2.779-.631 4.137-1.223 4.051-3.593 7.031-7.111 8.943-3.517 1.912-7.217 2.27-11.1 1.071s-6.755-3.584-8.616-7.156-2.18-7.381-.957-11.431zm39.362-31.125-1.282 4.245-19.49-6.016 14.937 21.09-1.105 3.661-27.03-8.343 1.282-4.245 19.509 6.021-14.956-21.097 1.105-3.66 27.03 8.344zm-18.101-37.907 27.03 8.342-1.282 4.245-11.781-3.636-4.028 13.34 11.781 3.636-1.283 4.245-27.03-8.343 1.283-4.245 11.403 3.52 4.029-13.339-11.404-3.52 1.282-4.245zm26.779-4.812 4.61-15.264 3.864 1.193-5.892 19.509-27.03-8.343 5.778-19.131 3.864 1.192-4.496 14.887 7.144 2.204 3.562-11.792 3.864 1.193-3.562 11.792 8.294 2.56zm-16.801-28.225 3.265-10.811c.779-2.578 2.279-4.474 4.499-5.686 2.212-1.228 4.531-1.469 6.956-.72 2.413.745 4.197 2.251 5.353 4.519 1.16 2.256 1.35 4.673.571 7.251l-1.983 6.566 9.651 2.979-1.282 4.245-27.03-8.343zm7.129-9.618-1.983 6.566 9.651 2.978 1.983-6.565c.403-1.334.288-2.614-.344-3.84-.645-1.231-1.647-2.055-3.004-2.474-1.369-.423-2.662-.306-3.877.35-1.214.657-2.023 1.652-2.426 2.985zm27.776-8.114-27.03-8.342 5.248-17.377 3.864 1.193-3.966 13.131 23.166 7.15-1.282 4.245zm13.471-44.602-1.282 4.245-19.491-6.015 14.938 21.09-1.106 3.66-27.03-8.342 1.282-4.245 19.509 6.021-14.956-21.096 1.106-3.661 27.03 8.343zm-18.979-35.002 27.03 8.343-1.282 4.245-10.423-3.217-1.869 6.188 8.674 9.009-1.402 4.642-8.932-9.522a7.013 7.013 0 0 1-.427.528c-.198.2-.61.54-1.236 1.021s-1.281.877-1.966 1.188c-.684.311-1.563.514-2.636.609a8.586 8.586 0 0 1-3.287-.375c-2.337-.721-4.055-2.152-5.153-4.292-1.107-2.157-1.285-4.481-.532-6.971l3.441-11.396zm.747 16.154c.588 1.102 1.516 1.85 2.785 2.241 1.257.388 2.44.293 3.549-.286 1.1-.596 1.84-1.523 2.22-2.78l2.159-7.151-8.878-2.74-2.159 7.151c-.38 1.257-.272 2.446.324 3.565z"/></mask><path fill="none" stroke="#FFF" stroke-width="2.125" d="M164.292 353.652a14.656 14.656 0 0 1 1.738-3.775c.731-1.149 1.478-2.053 2.241-2.711a21.388 21.388 0 0 1 2.182-1.699c.688-.461 1.259-.779 1.711-.957l.653-.252 1.899 3.536a9.149 9.149 0 0 0-.517.211c-.23.081-.662.305-1.295.673a9.439 9.439 0 0 0-1.727 1.282c-.53.483-1.085 1.158-1.662 2.024a10.185 10.185 0 0 0-1.359 2.86c-.847 2.805-.591 5.482.768 8.033 1.346 2.547 3.421 4.253 6.223 5.118 2.802.865 5.47.629 8.003-.707 2.536-1.348 4.23-3.431 5.081-6.249.319-1.056.478-2.107.478-3.152-.009-1.062-.126-1.971-.351-2.728a17.515 17.515 0 0 0-.718-2.058c-.266-.618-.508-1.092-.725-1.42l-.38-.447 3.535-1.879c.12.146.274.366.461.657.178.275.466.866.866 1.773.403.894.721 1.818.956 2.77.238.94.356 2.118.354 3.533-.01 1.4-.221 2.779-.631 4.137-1.223 4.051-3.593 7.031-7.111 8.943-3.517 1.912-7.217 2.27-11.1 1.071s-6.755-3.584-8.616-7.156-2.18-7.381-.957-11.431zm39.362-31.125-1.282 4.245-19.49-6.016 14.937 21.09-1.105 3.661-27.03-8.343 1.282-4.245 19.509 6.021-14.956-21.097 1.105-3.66 27.03 8.344zm-18.101-37.907 27.03 8.342-1.282 4.245-11.781-3.636-4.028 13.34 11.781 3.636-1.283 4.245-27.03-8.343 1.283-4.245 11.403 3.52 4.029-13.339-11.404-3.52 1.282-4.245zm26.779-4.812 4.61-15.264 3.864 1.193-5.892 19.509-27.03-8.343 5.778-19.131 3.864 1.192-4.496 14.887 7.144 2.204 3.562-11.792 3.864 1.193-3.562 11.792 8.294 2.56zm-16.801-28.225 3.265-10.811c.779-2.578 2.279-4.474 4.499-5.686 2.212-1.228 4.531-1.469 6.956-.72 2.413.745 4.197 2.251 5.353 4.519 1.16 2.256 1.35 4.673.571 7.251l-1.983 6.566 9.651 2.979-1.282 4.245-27.03-8.343zm7.129-9.618-1.983 6.566 9.651 2.978 1.983-6.565c.403-1.334.288-2.614-.344-3.84-.645-1.231-1.647-2.055-3.004-2.474-1.369-.423-2.662-.306-3.877.35-1.214.657-2.023 1.652-2.426 2.985zm27.776-8.114-27.03-8.342 5.248-17.377 3.864 1.193-3.966 13.131 23.166 7.15-1.282 4.245zm13.471-44.602-1.282 4.245-19.491-6.015 14.938 21.09-1.106 3.66-27.03-8.342 1.282-4.245 19.509 6.021-14.956-21.096 1.106-3.661 27.03 8.343zm-18.979-35.002 27.03 8.343-1.282 4.245-10.423-3.217-1.869 6.188 8.674 9.009-1.402 4.642-8.932-9.522a7.013 7.013 0 0 1-.427.528c-.198.2-.61.54-1.236 1.021s-1.281.877-1.966 1.188c-.684.311-1.563.514-2.636.609a8.586 8.586 0 0 1-3.287-.375c-2.337-.721-4.055-2.152-5.153-4.292-1.107-2.157-1.285-4.481-.532-6.971l3.441-11.396zm.747 16.154c.588 1.102 1.516 1.85 2.785 2.241 1.257.388 2.44.293 3.549-.286 1.1-.596 1.84-1.523 2.22-2.78l2.159-7.151-8.878-2.74-2.159 7.151c-.38 1.257-.272 2.446.324 3.565z" mask="url(#b)"/><path fill="none" stroke="#FFF" stroke-width="1.445" d="m326.592 322.673 40.361-22.658-5.258 20.105-13.971 7.675-.651.359.383.643 8.317 13.972-5.18 19.81-24.001-39.906z"/><path fill="none" stroke="#FFF" stroke-width="1.185" d="m398.096 417.571-5.396-3.856-.531-.164.171-.566 3.024-10.014.123-.404.422-.015 6.724-.207 2.326-7.703-32.408 2.15-2.53 8.379 25.75 20.101 2.325-7.701zm-8.673-14.07-1.7 5.633-.234.778-.668-.467-7.983-5.573-1.53-1.068 1.86-.012 9.683-.059.808-.006-.236.774zm-16.116 82.65c-2.031-4.113-5.178-6.814-9.41-8.12-4.229-1.306-8.276-.827-12.295 1.425-4.012 2.249-6.713 5.676-8.098 10.258-1.383 4.583-1.035 8.951 1.051 13.081 2.088 4.137 5.182 6.819 9.41 8.125 4.229 1.305 8.278.827 12.296-1.426 4.011-2.249 6.714-5.675 8.097-10.258 1.385-4.582 1.037-8.95-1.049-13.081l-.002-.004zm-5.119 11.119c-.785 2.597-2.332 4.452-4.602 5.672-2.286 1.229-4.775 1.384-7.386.578-2.556-.788-4.535-2.323-5.751-4.633-1.209-2.295-1.449-4.765-.684-7.302.768-2.542 2.317-4.396 4.584-5.615 2.282-1.227 4.715-1.402 7.33-.596 2.609.805 4.588 2.338 5.805 4.646 1.23 2.241 1.487 4.657.704 7.25zm22.635-56.022-8.5-2.623-.567-.175.171-.567 1.65-5.462c.961-3.183.821-6.046-.488-8.614l-.004-.008c-1.259-2.559-3.333-4.314-6.224-5.208-2.895-.893-5.514-.645-8.028.751-2.456 1.412-4.208 3.697-5.185 6.93l-3.969 13.145 28.994 8.948 2.15-7.117zm-13.459-10.246-1.513 5.006-.17.567-.566-.174-5.854-1.808-.565-.175-.057-.017.172-.567-.512-.158 1.512-5.006c.338-1.118 1.017-1.926 1.959-2.487.965-.574 2.029-.696 3.037-.385 1.01.312 1.824 1.014 2.308 2.034.471.999.587 2.052.249 3.17zm6.695 32.853c.961-3.183.789-5.937-.391-8.344-1.188-2.42-3.059-4.043-5.602-4.828-2.535-.782-4.931-.48-7.315.846-2.306 1.331-3.97 3.517-4.931 6.696l-1.77 5.86-.172.568-.566-.176-3.886-1.198-.565-.175.171-.567 4.038-13.372-5.795-1.788-6.357 21.054 29.053 8.967 4.088-13.543zm-5.857-1.372-.171.566-.057-.017-1.461 4.837-.172.567-.566-.175-5.575-1.721-.566-.175.171-.567 1.649-5.462c.298-.984.889-1.759 1.698-2.251l.015-.009.013-.007c.872-.469 1.797-.563 2.739-.271.981.302 1.606.973 2.047 1.811l.007.013.006.013c.433.925.525 1.846.223 2.848zm-.164-80.996c-.144-.853-.158-1.984-.084-3.445.071-1.421.307-2.791.739-4.225 1.004-3.318 2.623-5.718 4.884-7.246 2.278-1.541 4.431-1.886 6.483-1.252 1.418.437 2.485 1.171 3.25 2.137.793 1.003 1.172 1.905 1.271 2.614l.105 1.261 1.156.129c.02-.063.088-.196.223-.341.177-.188.523-.557 1.084-1.04.554-.479 1.131-.875 1.713-1.146.572-.265 1.377-.481 2.357-.597.918-.108 1.898.017 2.969.347 2.404.742 4.145 2.364 5.215 4.988 1.063 2.606 1.023 5.732-.12 9.523-.435 1.437-1.03 2.813-1.82 4.062l-.006.009-.006.011c-.747 1.282-1.526 2.292-2.261 3l-.004.005-.006.006a24.741 24.741 0 0 1-2.225 1.987c-.721.573-1.311.979-1.705 1.191l-.146.078-2.937-5.35c.104-.067.216-.14.332-.213l.26-.169c.544-.349 1.236-1.098 2.07-2.06l.007-.008c.905-1.083 1.576-2.203 1.967-3.492.447-1.484.543-2.858.098-4.02-.424-1.107-1.094-1.884-2.16-2.212-1.051-.324-2.018-.156-2.823.548-.762.666-1.327 1.766-1.76 3.197l-1.015 3.358-5.625-1.735.877-2.903c.396-1.307.479-2.428.16-3.361-.322-.942-.941-1.543-1.859-1.826-.9-.277-1.76-.033-2.512.539-.802.61-1.322 1.748-1.721 3.066a8.23 8.23 0 0 0-.318 3.236c.064 1.043.258 1.91.508 2.493l.117.33-5.453 2.77-.02-.037c-.093-.175-.314-.754-.619-1.608-.287-.903-.548-1.739-.638-2.566l-.002-.018v-.015zm55.914-188.025 5.633-18.652 5.799 1.79-3.313 10.969-.171.567.565.175 4.731 1.46.565.175.172-.568 3.313-10.968 5.343 1.648-3.312 10.969-.172.567.566.175 5.182 1.599.396.123 3.484-11.536 5.963 1.84-5.632 18.651-2.466-.761-3.498-1.079-17.355-5.355v.001l-5.793-1.79zm18.715 43.216-29.052-8.966 2.148-7.115 16.271 5.021 1.654.511-1-1.418-12.719-18.045 1.91-6.323 29.051 8.965-2.148 7.116-16.271-5.022-1.653-.51 1 1.418 12.718 18.044-1.909 6.324zm-23.901 79.138c.945-3.131.829-5.882-.22-8.381-1.051-2.502-2.7-4.029-4.876-4.7-.952-.294-1.871-.402-2.73-.28-.905.13-1.657.357-2.241.627a9.609 9.609 0 0 0-1.673 1.169c-.561.485-.906.853-1.082 1.04l-.002.001c-.064.07-.125.147-.187.231-.009.012-.019.024-.028.039a5.014 5.014 0 0 0-.065.089c-.03.039-.07.092-.116.14l-.764.812-.245-1.093-.104-.461c-.07-.282-.19-.596-.406-1.093-.187-.43-.433-.832-.746-1.339l-.053-.088c-.271-.439-.728-.859-1.371-1.368-.574-.453-1.258-.781-2.053-1.026-1.949-.602-3.9-.31-5.932 1.051-2.023 1.355-3.499 3.487-4.415 6.519l-3.97 13.144 29.052 8.967 4.227-14zm-17.911-3.661-1.375 4.551-.17.567-.566-.176-5.182-1.599-.566-.174.171-.567 1.375-4.552c.298-.987.874-1.703 1.604-2.153.787-.484 1.66-.507 2.565-.228.927.286 1.556.785 1.987 1.605.447.846.447 1.769.157 2.726zm12.491 2.673-1.701 5.632-.171.567-.566-.176-6.025-1.858-.567-.175.172-.567 1.701-5.633c.328-1.085.931-1.925 1.826-2.463.914-.549 1.908-.611 2.893-.309.984.305 1.774.917 2.229 1.889.366.782.456 1.622.294 2.499l.087.025-.172.569zm11.292-18.272-5.396-3.856-.531-.163.171-.567 3.024-10.014.122-.405.423-.013 6.724-.207 2.326-7.704-32.408 2.151-2.53 8.379 25.751 20.099 2.324-7.7zm-8.689-14.013-1.701 5.633-.235.778-.668-.466-7.981-5.574-1.53-1.068 1.86-.012 9.683-.059.807-.005-.235.773zm16.687-12.451-29.108-8.983 2.149-7.116 10.696 3.301.567.175.171-.567 3.351-11.094.171-.567-.566-.175-10.696-3.301 2.148-7.116 29.108 8.983-2.132 7.059-11.091-3.423-.566-.175-.171.568-3.351 11.094-.172.567.566.175 11.091 3.422-2.165 7.173zm-44.079 93.188c4.229 1.305 8.277.827 12.295-1.425 4.012-2.249 6.713-5.677 8.098-10.259 1.384-4.583 1.035-8.95-1.049-13.081l-.004-.005c-2.029-4.112-5.176-6.813-9.408-8.12-4.229-1.305-8.278-.826-12.295 1.427-4.012 2.249-6.715 5.675-8.098 10.258-1.385 4.583-1.037 8.95 1.049 13.081 2.087 4.137 5.182 6.819 9.412 8.124zm-4.2-19.335c.767-2.541 2.316-4.396 4.582-5.615 2.283-1.228 4.717-1.402 7.332-.596 2.607.806 4.586 2.338 5.805 4.646 1.23 2.243 1.467 4.716.701 7.25-.783 2.596-2.332 4.452-4.601 5.672-2.286 1.229-4.776 1.384-7.386.578-2.557-.789-4.535-2.324-5.752-4.633-1.207-2.294-1.448-4.765-.681-7.302zm57.699 17.221 6.412-.18-4.698 15.558-5.229-3.719-.35-.248.124-.41 3.195-10.582.122-.407.424-.012zm17.223-61.811c.516 1.08.608 2.19.257 3.357l-1.598 5.291-.173.567-.565-.174-6.87-2.121-.567-.176.171-.566 1.599-5.291c.352-1.167 1.043-2.035 2.067-2.641l.011-.006.011-.006c1.072-.576 2.07-.726 3.201-.377 1.117.346 1.933 1.045 2.456 2.143zm-18.846 27.768c.517 1.082.608 2.192.257 3.359l-1.599 5.291-.171.566-.567-.175-6.869-2.12-.567-.175.172-.567 1.598-5.291c.353-1.167 1.042-2.036 2.068-2.641l.01-.006.011-.006c1.071-.576 2.069-.727 3.2-.377 1.117.346 1.933 1.045 2.457 2.142zm27.473-90.973a4.504 4.504 0 0 1 .257 3.358l-1.598 5.291-.172.568-.566-.175-6.87-2.121-.567-.174.171-.567 1.599-5.292c.353-1.166 1.043-2.035 2.067-2.641l.011-.006.011-.005c1.072-.577 2.07-.727 3.201-.378 1.117.345 1.933 1.044 2.456 2.142zm18.715-27.313a4.5 4.5 0 0 1 .256 3.358l-1.46 4.836-.172.567-.566-.174-6.871-2.121-.565-.174.171-.568 1.461-4.836c.352-1.166 1.042-2.035 2.068-2.641l.01-.006.01-.005c1.073-.577 2.07-.727 3.201-.378 1.117.345 1.933 1.044 2.457 2.142zm-101.582 142.41c-1.208-2.294-1.449-4.765-.682-7.302.767-2.541 2.316-4.396 4.582-5.615 2.283-1.228 4.717-1.402 7.332-.596 2.607.806 4.586 2.338 5.805 4.646 1.23 2.243 1.467 4.716.701 7.25-.783 2.596-2.332 4.452-4.601 5.672-2.286 1.229-4.776 1.384-7.386.578-2.556-.789-4.534-2.324-5.751-4.633zm-17.06 108.389c.434.924.525 1.846.224 2.848l-.171.566-.057-.017-1.461 4.837-.172.567-.566-.175-5.575-1.721-.566-.175.171-.567 1.649-5.462c.298-.984.889-1.759 1.698-2.251l.015-.009.013-.007c.872-.469 1.797-.563 2.739-.271.981.302 1.606.973 2.047 1.811l.007.013.005.013zm32.72-150.205c.445.845.445 1.768.156 2.725l-1.375 4.551-.17.567-.566-.176-5.182-1.599-.566-.174.171-.567 1.375-4.552c.298-.987.874-1.703 1.604-2.153.787-.484 1.66-.507 2.565-.228.928.286 1.557.785 1.988 1.606zm-21.849 93.302.808-.006-.234.773-1.7 5.633-.234.778-.668-.467-7.983-5.573-1.53-1.068 1.86-.012 9.681-.058zm-11.736 25.1c.472.998.588 2.051.25 3.169l-1.513 5.006-.17.567-.566-.174-5.854-1.808-.565-.175-.057-.017.172-.567-.512-.158 1.512-5.006c.338-1.118 1.017-1.926 1.959-2.487.965-.574 2.029-.696 3.037-.385 1.009.312 1.824 1.015 2.307 2.035zm46.316-113.599.087.025-.171.568-1.701 5.632-.171.567-.566-.176-6.025-1.858-.567-.175.172-.567 1.701-5.633c.328-1.085.931-1.925 1.826-2.463.914-.549 1.908-.611 2.893-.309.984.305 1.774.917 2.229 1.889.365.784.455 1.623.293 2.5zm1.946-32.459.807-.005-.233.773-1.701 5.633-.235.778-.668-.466-7.981-5.574-1.53-1.068 1.86-.012 9.681-.059zM367.484 490.02c1.229 2.241 1.486 4.657.703 7.25-.785 2.597-2.332 4.452-4.602 5.672-2.286 1.229-4.775 1.384-7.386.578-2.556-.788-4.535-2.323-5.751-4.633-1.209-2.295-1.449-4.765-.684-7.302.768-2.542 2.317-4.396 4.584-5.615 2.282-1.227 4.715-1.402 7.33-.596 2.611.805 4.59 2.338 5.806 4.646zm83.763-311.611-3.313 10.968-.172.568-.565-.175-4.731-1.46-.565-.175.171-.567 3.313-10.969m17.349 5.355-3.484 11.536-.396-.123-5.182-1.599-.566-.175.172-.567 3.312-10.969M129.018 444.8l-6.556-2.023 102.834-340.518 284.861 87.851M468.697 183.794l-5.632 18.651-2.466-.761-3.498-1.079-17.355-5.355v.001l-5.794-1.788 5.633-18.652M129.018 444.8l278.211 85.858 8.273-27.396-7.362 24.377-6.025-1.859.225-.743.849.262-.664-1.262-.353-.668c-.198-.375-.657-.932-1.334-1.688a19.468 19.468 0 0 0-2.42-2.287c-.924-.734-2.128-1.551-3.742-2.429-1.623-.883-3.354-1.606-5.304-2.209l-9.514-2.936 6.908-22.875 23.648 7.298.566.175.172-.567.945-3.131 6.026 1.859.583-1.932-5.975-1.844c.305-.478.547-.964.681-1.408.28-.931.34-1.795.069-2.634-.26-.809-.83-1.665-1.674-2.514l-.01-.01c-.927-.891-2.338-1.773-4.214-2.605-1.921-.91-4.337-1.78-7.272-2.685l-9.515-2.938 7.183-23.785 30.126 9.297 1.786-5.913-8.376-8.969-.498-.532-.417.594a1.114 1.114 0 0 1-.135.147 6.956 6.956 0 0 0-.228.23c-.245.181-.694.51-1.335.943-.733.439-1.428.811-2.203 1.094l-.012.005-.013.004c-.67.278-1.599.397-2.84.448-1.167.047-2.333-.134-3.578-.519-2.944-.908-5.079-2.682-6.474-5.413-1.338-2.713-1.563-5.672-.572-8.953l4.434-14.681 30.185 9.315 4.638-15.358-30.244-9.334 2.303-7.627 11.768 3.631 1.525.472-.855-1.354-8.974-14.214 2.62-8.678 9.055 14.524.24.386.432-.13 20.728-6.142.218-.722-26.697-20.858 2.685-8.891 33.67-2.228 1.219-4.038-30.297-9.35 4.039-13.373.111.034.172-.567c1.028-3.404 2.889-5.841 5.49-7.332 2.668-1.478 5.491-1.782 8.547-.839 3.063.945 5.288 2.813 6.625 5.519l.003.007c1.387 2.715 1.533 5.766.502 9.179l-1.734 5.746-.171.566.565.176 8.451 2.607 6.975-23.094-30.189-9.317 2.303-7.628 9.007 2.78.567.175.171-.566 1.735-5.747c1.027-3.403 2.888-5.841 5.491-7.331 2.667-1.478 5.489-1.783 8.547-.84 3.063.945 5.287 2.812 6.624 5.519.774 1.566 1.152 3.26 1.146 5.066l3.876-12.835L450.532 278l7.183-23.785 6.188 1.909-4.709 15.591-.171.567.566.175 5.012 1.547.566.175.171-.568 3.592-11.892 5.737 1.77-3.591 11.893-.172.567.566.175 5.462 1.686.567.175.171-.567 4.846-16.046 5.519 1.703 1.597-5.288-30.297-9.349 4.038-13.374.113.035.171-.567c1.027-3.404 2.888-5.842 5.491-7.332 2.667-1.478 5.489-1.783 8.547-.84 3.063.945 5.287 2.812 6.624 5.519l.004.007c1.386 2.715 1.532 5.766.502 9.178l-1.736 5.746-.171.567.567.175 8.45 2.608 6.974-23.095-30.184-9.315 2.304-7.628 9.007 2.78.567.175.171-.567 1.598-5.291c1.028-3.404 2.888-5.842 5.491-7.332 2.667-1.478 5.49-1.783 8.547-.84 3.062.945 5.287 2.812 6.624 5.519l.003.007c.791 1.549 1.164 3.211 1.16 4.984l3.561-11.793-30.184-9.315.53-1.755m-52.34 33.903 16.271 5.021 1.654.511-1-1.418-12.719-18.045 1.91-6.323 29.051 8.965-2.148 7.116-16.271-5.022-1.653-.51 1 1.418 12.718 18.044-1.909 6.324-29.052-8.966 2.148-7.115zm-10.087 33.396 10.696 3.301.567.175.171-.567 3.351-11.094.171-.567-.566-.175-10.696-3.301 2.148-7.116 29.108 8.983-2.132 7.059-11.091-3.423-.566-.175-.171.568-3.351 11.094-.172.567.566.175 11.091 3.422-2.166 7.173-29.108-8.983 2.15-7.116zm-6.584 21.785 32.408-2.151-2.326 7.704-6.724.207-.423.013-.122.405-3.024 10.014-.171.567.531.163 5.396 3.856-2.324 7.7-25.751-20.099 2.53-8.379zm-9.637 31.926c.916-3.031 2.392-5.163 4.415-6.519 2.031-1.36 3.982-1.652 5.932-1.051.795.245 1.479.573 2.053 1.026.644.509 1.101.929 1.371 1.368l.053.088c.313.507.56.909.746 1.339.216.497.336.811.406 1.093l.104.461.245 1.093.764-.812c.046-.048.086-.101.116-.14l.065-.089.028-.039c.062-.084.122-.161.187-.231l.002-.001c.176-.188.521-.555 1.082-1.04a9.609 9.609 0 0 1 1.673-1.169c.584-.27 1.336-.497 2.241-.627.859-.122 1.778-.014 2.73.28 2.176.671 3.825 2.198 4.876 4.7 1.049 2.499 1.165 5.25.22 8.381l-4.228 13.998-29.052-8.967 3.971-13.142zm-11.36 34.371c1.383-4.583 4.086-8.009 8.098-10.258 4.017-2.253 8.065-2.731 12.295-1.427 4.232 1.308 7.379 4.008 9.408 8.12l.004.005c2.084 4.131 2.433 8.498 1.049 13.081-1.385 4.582-4.086 8.01-8.098 10.259-4.018 2.252-8.066 2.729-12.295 1.425-4.229-1.306-7.324-3.987-9.412-8.124-2.086-4.131-2.434-8.498-1.049-13.081zm-10.142 35.967c.071-1.421.307-2.791.739-4.225 1.004-3.318 2.623-5.718 4.884-7.246 2.278-1.541 4.431-1.886 6.483-1.252 1.418.437 2.485 1.171 3.25 2.137.793 1.003 1.172 1.905 1.271 2.614l.105 1.261 1.156.129c.02-.063.088-.196.223-.341.177-.188.523-.557 1.084-1.04.554-.479 1.131-.875 1.713-1.146.572-.265 1.377-.481 2.357-.597.918-.108 1.898.017 2.969.347 2.404.742 4.145 2.364 5.215 4.988 1.063 2.606 1.023 5.732-.12 9.523-.435 1.437-1.03 2.813-1.82 4.062l-.006.009-.006.011c-.747 1.282-1.526 2.292-2.261 3l-.004.005-.006.006a24.741 24.741 0 0 1-2.225 1.987c-.721.573-1.311.979-1.705 1.191l-.146.078-2.937-5.35c.104-.067.216-.14.332-.213l.26-.169c.544-.349 1.236-1.098 2.07-2.06l.007-.008c.905-1.083 1.576-2.203 1.967-3.492.447-1.484.543-2.858.098-4.02-.424-1.107-1.094-1.884-2.16-2.212-1.051-.324-2.018-.156-2.823.548-.762.666-1.327 1.766-1.76 3.197l-1.015 3.358-5.625-1.735.877-2.903c.396-1.307.479-2.428.16-3.361-.322-.942-.941-1.543-1.859-1.826-.9-.277-1.76-.033-2.512.539-.802.61-1.322 1.748-1.721 3.066a8.23 8.23 0 0 0-.318 3.236c.064 1.043.258 1.91.508 2.493l.117.33-5.453 2.77-.02-.037c-.093-.175-.314-.754-.619-1.608-.287-.903-.548-1.739-.638-2.566l-.002-.018-.002-.017c-.141-.85-.156-1.982-.082-3.443zm-5.404 18.75 32.408-2.15-2.326 7.703-6.724.207-.422.015-.123.404-3.024 10.014-.171.566.531.164 5.396 3.856-2.326 7.7-25.75-20.101 2.531-8.378zm-8.902 29.479c.977-3.232 2.729-5.518 5.185-6.93 2.515-1.396 5.134-1.644 8.028-.751 2.891.894 4.965 2.649 6.224 5.208l.004.008c1.31 2.568 1.449 5.432.488 8.614l-1.65 5.462-.171.567.567.175 8.5 2.623-2.149 7.116-28.994-8.948 3.968-13.144zm-6.373 21.107 5.795 1.788-4.038 13.372-.171.567.565.175 3.886 1.198.566.176.172-.568 1.77-5.86c.961-3.18 2.625-5.365 4.931-6.696 2.385-1.326 4.78-1.628 7.315-.846 2.543.785 4.414 2.408 5.602 4.828 1.18 2.407 1.352 5.161.391 8.344l-4.088 13.543-29.053-8.967 6.357-21.054zm17.082 51.858c-1.383 4.583-4.086 8.009-8.097 10.258-4.018 2.253-8.067 2.73-12.296 1.426-4.229-1.306-7.322-3.988-9.41-8.125-2.086-4.13-2.434-8.498-1.051-13.081 1.385-4.582 4.086-8.009 8.098-10.258 4.019-2.252 8.066-2.73 12.295-1.425 4.232 1.306 7.379 4.007 9.41 8.119v.001l.002.004c2.087 4.131 2.434 8.499 1.049 13.081zm33.81 4.653.567.176-.172.566-3.334 11.037-.416 1.379-.672-1.278-.302-.57a10.855 10.855 0 0 0-1.21-1.537 31.418 31.418 0 0 0-2.243-2.153c-.884-.744-2.086-1.477-3.608-2.318a23.726 23.726 0 0 0-5.086-2.055l-.008-.003-.009-.002-2.253-.696-.566-.174.172-.566 1.959-6.486.171-.568.567.176 16.443 5.072zm-5.306-41.942 22.977 7.091-4.326 14.322a10.43 10.43 0 0 0-.775-1.705l-.004-.007-.004-.008c-.653-1.242-1.738-2.468-3.188-3.575-1.456-1.113-3.458-2.283-5.965-3.488-2.49-1.198-5.505-2.314-9.038-3.404l-2.252-.696-.567-.175.171-.566 2.234-7.396.171-.566.566.173zm16.016-30.009.566.175-.172.566-1.82 6.031c-.342 1.129-.96 2.046-1.942 2.574a3.894 3.894 0 0 1-3.054.298c-1.066-.329-1.814-1.011-2.313-1.954-.522-.993-.529-2.103-.188-3.231l1.821-6.03.172-.568.566.175 6.364 1.964zm25.617-70.559.808-.006-.233.774-1.805 5.974-.234.778-.668-.468-8.438-5.899-1.524-1.067 1.854-.013 10.24-.073zm-17.846 72.956 8.845 2.73-3.221 10.663-7.609-7.804-.246-.253.102-.336 1.392-4.608.172-.566.565.174zm8.24-35.977 13.513-4.033-3.628 12.014-7.047-2.175-.216-.067-.117-.192-2.838-4.67-.398-.657.731-.22z"/><path fill="none" stroke="#FFF" stroke-width="1.185" d="m252.695 489.387-106.236-32.786m1.774-5.872-19.215-5.93-1.773 5.871 19.215 5.93m104.143 25.722 156.625 48.336 103.115-341.096L408.14 527.64l-6.025-1.859.225-.743.849.262-.664-1.262-.353-.668c-.198-.375-.657-.932-1.334-1.688a19.468 19.468 0 0 0-2.42-2.287c-.924-.734-2.128-1.551-3.742-2.429-1.623-.883-3.354-1.606-5.304-2.209l-9.514-2.936 6.908-22.875 23.648 7.298.566.175.172-.567.945-3.131 6.026 1.859.583-1.932-5.975-1.844c.305-.478.547-.964.681-1.408.28-.931.34-1.795.069-2.634-.26-.809-.83-1.665-1.674-2.514l-.01-.01c-.927-.891-2.338-1.773-4.214-2.605-1.921-.91-4.337-1.78-7.272-2.685l-9.515-2.938 7.183-23.785 30.126 9.297 1.786-5.913-8.376-8.969-.498-.532-.417.594a1.114 1.114 0 0 1-.135.147 6.956 6.956 0 0 0-.228.23c-.245.181-.694.51-1.335.943-.733.439-1.428.811-2.203 1.094l-.012.005-.013.004c-.67.278-1.599.397-2.84.448-1.167.047-2.333-.134-3.578-.519-2.944-.908-5.079-2.682-6.474-5.413-1.338-2.713-1.563-5.672-.572-8.953l4.434-14.681 30.185 9.315 4.638-15.358-30.244-9.334 2.303-7.627 11.768 3.631 1.525.472-.855-1.354-8.974-14.214 2.62-8.678 9.055 14.524.24.386.432-.13 20.728-6.142.218-.722-26.697-20.858 2.685-8.891 33.67-2.228 1.219-4.038-30.297-9.35 4.039-13.373.111.034.172-.567c1.028-3.404 2.889-5.841 5.49-7.332 2.668-1.478 5.491-1.782 8.547-.839 3.063.945 5.288 2.813 6.625 5.519l.003.007c1.387 2.715 1.533 5.766.502 9.179l-1.734 5.746-.171.566.565.176 8.451 2.607 6.975-23.094-30.189-9.317 2.303-7.628 9.007 2.78.567.175.171-.566 1.735-5.747c1.027-3.403 2.888-5.841 5.491-7.331 2.667-1.478 5.489-1.783 8.547-.84 3.063.945 5.287 2.812 6.624 5.519.774 1.566 1.152 3.26 1.146 5.066l3.876-12.835-30.184-9.315 7.183-23.785 6.188 1.909-4.709 15.591-.171.567.566.175 5.012 1.547.566.175.171-.568 3.592-11.892 5.737 1.77-3.591 11.893-.172.567.566.175 5.462 1.686.567.175.171-.567 4.846-16.046 5.519 1.703 1.597-5.288-30.297-9.349 4.038-13.374.113.035.171-.567c1.027-3.404 2.888-5.842 5.491-7.332 2.667-1.478 5.489-1.783 8.547-.84 3.063.945 5.287 2.812 6.624 5.519l.004.007c1.386 2.715 1.532 5.766.502 9.178l-1.736 5.746-.171.567.567.175 8.45 2.608 6.974-23.095-30.184-9.315 2.304-7.628 9.007 2.78.567.175.171-.567 1.598-5.291c1.028-3.404 2.888-5.842 5.491-7.332 2.667-1.478 5.49-1.783 8.547-.84 3.062.945 5.287 2.812 6.624 5.519l.003.007c.791 1.549 1.164 3.211 1.16 4.984l3.561-11.793-30.184-9.315.53-1.755 36.74 11.338-102.832 340.52-159.316-49.166m243.925-280.55c-.524-1.098-1.34-1.797-2.458-2.142-1.131-.349-2.128-.199-3.201.378l-.01.005-.01.006c-1.026.606-1.717 1.475-2.068 2.641l-1.461 4.836-.171.568.565.174 6.871 2.121.566.174.172-.567 1.46-4.836a4.494 4.494 0 0 0-.255-3.358zm-18.715 27.313c-.523-1.098-1.339-1.797-2.457-2.142-1.131-.349-2.129-.199-3.201.378l-.011.005-.011.006c-1.024.606-1.715 1.475-2.067 2.641l-1.599 5.292-.171.567.567.174 6.87 2.121.566.175.172-.568 1.598-5.291c.353-1.166.26-2.277-.256-3.358zm-8.627 63.205c-.523-1.099-1.339-1.797-2.457-2.143-1.131-.349-2.129-.199-3.201.377l-.011.006-.011.006c-1.024.606-1.716 1.474-2.067 2.641l-1.599 5.291-.171.566.567.176 6.87 2.121.565.174.173-.567 1.598-5.291c.353-1.166.26-2.276-.256-3.357zm-18.846 27.768c-.523-1.097-1.34-1.796-2.458-2.141-1.131-.35-2.129-.199-3.2.377l-.011.006-.01.006c-1.026.604-1.716 1.474-2.068 2.641l-1.598 5.291-.172.567.567.175 6.869 2.12.567.175.171-.566 1.599-5.291a4.504 4.504 0 0 0-.256-3.36zm-5.131 34.25-.808.006-10.242.073-1.854.013 1.524 1.067 8.438 5.899.668.468.234-.778 1.805-5.974.235-.774zm8.468 15.171 4.698-15.558-6.412.18-.424.012-.122.407-3.195 10.582-.124.41.35.248 5.229 3.719zm-8.998 29.795 3.628-12.014-13.513 4.033-.731.219.398.657 2.838 4.67.117.192.216.067 7.047 2.176zm-25.329 25.773-.566-.175-6.363-1.965-.566-.175-.172.568-1.821 6.03c-.341 1.129-.334 2.238.188 3.231.498.943 1.246 1.625 2.313 1.954a3.894 3.894 0 0 0 3.054-.298c.982-.528 1.601-1.445 1.942-2.574l1.82-6.031.171-.565zm12.829 15.617 3.221-10.663-8.845-2.73-.566-.174-.172.566-1.392 4.608-.102.336.246.253 7.61 7.804zm-11.543 33.912.004.008.004.007c.334.595.586 1.158.775 1.705l4.326-14.322-22.977-7.091-.567-.175-.171.566-2.234 7.396-.171.566.567.175 2.252.696c3.533 1.09 6.548 2.206 9.038 3.404 2.507 1.205 4.509 2.375 5.965 3.488 1.45 1.109 2.535 2.334 3.189 3.577zm-11.995 22.423-.567-.176-16.442-5.074-.567-.176-.171.568-1.959 6.486-.172.566.566.174 2.253.696.009.002.008.003a23.675 23.675 0 0 1 5.086 2.055c1.522.842 2.725 1.574 3.608 2.318a31.64 31.64 0 0 1 2.243 2.153c.609.654.973 1.171 1.21 1.537l.302.57.672 1.278.416-1.379 3.334-11.037.171-.564z"/></svg>