<svg xmlns="http://www.w3.org/2000/svg" xml:space="preserve" width="514.405" height="514.363" viewBox="58.18 57.292 514.405 514.363"><path fill="#FF0A47" d="M555.162 253.433c-15.538-57.988-50.629-106.775-96.984-140.024-.68-.488-1.359-.977-2.044-1.458-41.456-29.119-91.7-45.908-144.945-45.908-22.029 0-44.091 2.918-65.572 8.674-33.342 8.934-63.875 24.247-90.276 44.882-25.234 19.723-46.696 44.306-63.192 72.878a257.636 257.636 0 0 0-10.279 19.761c-.354.759-.719 1.515-1.066 2.276-24.215 53.177-29.223 112.578-13.904 169.75 15.629 58.327 51.041 107.351 97.804 140.611.692.493 1.39.979 2.087 1.464 41.291 28.749 91.206 45.314 144.083 45.317h.015c19.985 0 40-2.413 59.589-7.161 2.003-.377 3.99-.82 5.953-1.347a81.766 81.766 0 0 0 5.614-1.741c51.085-14.923 95.287-44.939 127.646-86.236a256.456 256.456 0 0 0 20.224-29.949 257.837 257.837 0 0 0 9.799-18.737c.358-.757.716-1.515 1.066-2.275 24.619-53.44 29.801-113.236 14.382-170.777zm-98.645-138.141c45.717 32.721 80.389 80.699 95.938 137.736l-104.866 28.099c-11.581-42.747-29.149-82.711-50.778-116.087 17.86-11.302 33.928-23.775 47.722-37.184a229.507 229.507 0 0 0 11.984-12.564zm-147.032 202.84-133.272 35.711c-11.624-43.864-15.995-86.75-13.973-125.239 3.899.128 7.826.215 11.805.215h.01c34.958 0 71.152-4.906 107.595-14.567l27.835 103.88zm-25.42-104.526c40.799-11.05 78.544-27.26 110.627-47.238 21.496 33.161 38.962 72.892 50.481 115.406l-133.274 35.71-27.834-103.878zm26.067 106.941 28.085 104.812c-40.693 11.021-78.348 27.174-110.376 47.079-21.726-33.315-39.374-73.336-50.982-116.181l133.273-35.71zm2.414-.648 133.273-35.71c11.718 44.214 16.063 87.434 13.921 126.161a357.732 357.732 0 0 0-11.502-.205c-34.966 0-71.163 4.906-107.607 14.567l-28.085-104.813zm-1.357-251.357c52.619 0 102.277 16.563 143.278 45.294a226.256 226.256 0 0 1-11.678 12.227c-13.68 13.297-29.617 25.668-47.338 36.881-7.451-11.313-15.37-21.847-23.683-31.448-32.472-37.503-68.854-58.494-102.709-59.353a249.712 249.712 0 0 1 42.13-3.601zm-44.289 6.06c33.727 0 70.298 20.787 102.978 58.531 8.23 9.506 16.073 19.938 23.454 31.14-31.862 19.835-69.363 35.935-109.914 46.918L247.46 76.995a79.954 79.954 0 0 1 19.44-2.393zm14.103 137.235c-36.233 9.605-72.206 14.482-106.947 14.482h-.011c-3.932 0-7.812-.085-11.665-.212 4.574-76.212 34.389-134.693 82.667-148.457l35.956 134.187zm-186.69-18.11a252.522 252.522 0 0 1 30.083-41.677c26.994-30.323 60.915-53.523 99.392-67.757-25.832 15.793-45.328 46.288-55.962 88.353-4.226 16.715-6.891 34.633-8.017 53.374-26.225-1.054-50.487-5.039-71.811-11.75-1.26-.396-2.513-.799-3.751-1.214a255.131 255.131 0 0 1 10.066-19.329zm-11.132 21.605c1.282.432 2.578.851 3.882 1.262 21.573 6.81 46.107 10.854 72.613 11.922-2.082 39.585 2.663 82.743 14.122 125.973l-94.07 25.207-10.683 2.862C54.2 326.199 59.271 267.709 83.181 215.332zm83.184 307.66c-46.042-32.676-80.989-80.778-96.672-138.021l10.761-2.884 93.99-25.184c11.671 43.076 29.421 83.33 51.28 116.861-17.961 11.344-34.114 23.87-47.974 37.342-.887.862-1.757 1.727-2.62 2.593a229.255 229.255 0 0 0-8.765 9.293zm144.524 46.163h-.015c-52.25-.003-101.577-16.339-142.41-44.698a221.488 221.488 0 0 1 8.79-9.282c13.947-13.927 30.736-27.176 49.88-39.261 7.29 10.997 15.021 21.256 23.129 30.621 23.271 26.876 48.549 45.263 73.468 53.849 9.298 3.203 18.546 5.052 27.62 5.453a249.437 249.437 0 0 1-40.462 3.318zm59.07-7.106a80.434 80.434 0 0 1-14.826 1.381h-.001c-7.759 0-15.67-1.114-23.647-3.268-26.702-7.208-54.169-26.203-79.331-55.264-8.029-9.272-15.685-19.431-22.907-30.32 31.176-19.366 68.421-35.646 109.616-46.806l34.071 127.154 1.599 5.968c-1.521.4-3.047.784-4.574 1.155zm11.315-3.025c-1.436.419-2.88.823-4.328 1.219l-1.569-5.856-34.1-127.261c36.234-9.604 72.214-14.481 106.961-14.481 3.829 0 7.607.082 11.361.201-3.746 59.659-23.004 108.341-54.499 133.036-7.298 5.722-15.253 10.158-23.826 13.142zm94.177-51.592a248.2 248.2 0 0 1-75.86 45.474c4.38-2.788 8.568-6.016 12.562-9.646 18.953-17.225 33.423-43.736 42.054-77.875 4.156-16.44 6.804-34.045 7.962-52.452 27.545 1.082 52.944 5.383 75.044 12.69-14.684 31.042-35.669 58.981-61.762 81.809zm62.832-84.083c-22.381-7.435-48.097-11.813-75.977-12.912 2.205-39.837-2.524-83.328-14.072-126.895l104.86-28.098c15.243 58.174 8.615 117.075-14.811 167.905z"/><path fill="#FFD11A" d="M311.189 66.042c53.245 0 103.489 16.79 144.945 45.908.685.481 1.364.971 2.044 1.458 46.355 33.249 81.446 82.036 96.984 140.024 15.419 57.541 10.237 117.336-14.383 170.775-.351.761-.708 1.519-1.066 2.275a257.63 257.63 0 0 1-9.799 18.737 256.456 256.456 0 0 1-20.224 29.949c53.724-61.053 76.892-146.969 54.265-231.413C528.006 109.594 390.104 29.975 255.94 65.924c-38.513 10.319-72.519 29.052-100.599 53.674 26.401-20.635 56.934-35.948 90.276-44.882 21.481-5.755 43.543-8.674 65.572-8.674z"/><path fill="#FFD119" d="M314.915 177.325c7.861-2.106 13.258-7.455 12.054-11.947s-8.552-6.426-16.413-4.32c-7.86 2.106-13.258 7.456-12.055 11.948 1.204 4.492 8.552 6.426 16.414 4.319z"/><path fill="#FF0A47" d="M299.334 120.192c-5.12 1.379-9.473 4.775-12.103 9.445-2.63 4.669-3.324 10.231-1.928 15.464a20.506 20.506 0 0 0 7.064 10.797s.717.567.83.646l19.596 13.876 10.036-21.825c.052-.116.392-.965.392-.965v-.005a20.512 20.512 0 0 0 .72-12.877c-1.408-5.23-4.789-9.699-9.402-12.428s-10.081-3.494-15.205-2.128zm7.21 26.908a7.167 7.167 0 0 1-4.227-.164 7.39 7.39 0 0 1-3.45-2.527 7.575 7.575 0 0 1-1.511-4.038 7.481 7.481 0 0 1 .939-4.189 7.224 7.224 0 0 1 3.07-2.928 7.13 7.13 0 0 1 4.168-.679 7.303 7.303 0 0 1 3.86 1.798 7.542 7.542 0 0 1 1.552 9.292 7.203 7.203 0 0 1-4.401 3.435z"/></svg>