<svg width="120" height="165" viewBox="0 0 120 165" fill="none" xmlns="http://www.w3.org/2000/svg">
<path d="M59.9808 139.512L70.4831 150.014L59.9808 160.516L49.4785 150.014L59.9808 139.512Z" fill="white"/>
<rect width="119.299" height="150.66" rx="12" fill="white"/>
<path d="M14.7557 122.937V121.11C14.8303 121.135 14.8925 121.159 14.9422 121.159C15.0914 121.197 15.2406 121.209 15.4022 121.209C15.9492 121.209 16.3222 120.998 16.5336 120.563L16.5833 120.451L14.0098 115.453H16.26L17.64 118.561H17.6773L18.8336 115.453H21.0838L18.4481 121.035C18.1249 121.707 17.7519 122.204 17.3168 122.552C16.8817 122.9 16.3471 123.074 15.7006 123.074C15.4271 123.074 15.1908 123.049 14.9919 123L14.7557 122.937Z" fill="black"/>
<path d="M22.6387 122.987V115.465H24.6776V118.2H27.4127V115.465H29.4517V122.987H27.4127V120.14H24.6776V122.987H22.6387Z" fill="black"/>
<path d="M31.9873 122.987V115.465H34.0262V119.605L37.2462 115.465H39.0241V122.987H36.9851V118.847L33.7651 122.987H31.9873Z" fill="black"/>
<path d="M41.5479 122.987V115.465H44.8797C45.7003 115.465 46.3468 115.651 46.8068 116.037C47.2668 116.422 47.503 116.895 47.503 117.454C47.503 117.964 47.3165 118.374 46.9311 118.697C46.7819 118.822 46.5954 118.921 46.3716 119.008C46.6451 119.108 46.9062 119.245 47.1176 119.406C47.6149 119.792 47.8635 120.289 47.8635 120.886C47.8635 121.483 47.6149 121.98 47.13 122.378C46.6451 122.776 45.9738 122.974 45.116 122.974H41.5479V122.987ZM43.5868 118.374H44.7181C44.9295 118.374 45.1035 118.312 45.2279 118.2C45.3522 118.076 45.4143 117.927 45.4143 117.728C45.4143 117.529 45.3522 117.38 45.2279 117.255C45.1035 117.143 44.9295 117.081 44.7181 117.081H43.5868V118.374ZM43.5868 121.383H44.9792C45.2154 121.383 45.4143 121.308 45.5635 121.172C45.7127 121.035 45.7873 120.848 45.7873 120.637C45.7873 120.426 45.7127 120.239 45.5635 120.102C45.4143 119.953 45.2154 119.891 44.9792 119.891H43.5868V121.383Z" fill="black"/>
<path d="M49.9277 122.987V115.465H55.6715V117.292H51.9667V118.362H54.8137V120.078H51.9667V121.147H55.7834V122.974H49.9277V122.987Z" fill="black"/>
<path d="M57.8711 122.987V115.465H61.2527C62.0733 115.465 62.7446 115.713 63.2668 116.211C63.7889 116.708 64.05 117.342 64.05 118.101C64.05 118.859 63.7889 119.493 63.2668 119.99C62.7446 120.488 62.0733 120.737 61.2527 120.737H59.91V122.987H57.8711ZM59.91 118.909H61.1408C61.377 118.909 61.576 118.834 61.75 118.673C61.9241 118.511 61.9987 118.324 61.9987 118.113C61.9987 117.902 61.9116 117.715 61.75 117.554C61.576 117.392 61.377 117.317 61.1408 117.317H59.91V118.909Z" fill="black"/>
<path d="M71.9455 120.364L73.1763 121.756C72.9276 122.03 72.6541 122.278 72.3433 122.49C71.6471 122.974 70.8265 123.211 69.9065 123.211C68.713 123.211 67.7184 122.825 66.9103 122.054C66.1146 121.284 65.7168 120.339 65.7168 119.232C65.7168 118.126 66.1146 117.181 66.9103 116.41C67.706 115.639 68.7006 115.253 69.9065 115.253C70.8141 115.253 71.6098 115.502 72.3184 115.987C72.6293 116.211 72.9028 116.447 73.1265 116.708L71.8957 118.101C71.7341 117.927 71.5476 117.765 71.3487 117.616C70.8887 117.292 70.4038 117.131 69.9065 117.131C69.3222 117.131 68.8249 117.33 68.4146 117.74C68.0044 118.15 67.8055 118.635 67.8055 119.232C67.8055 119.816 68.0044 120.314 68.4146 120.724C68.8249 121.134 69.3098 121.333 69.9065 121.333C70.3914 121.333 70.8763 121.172 71.3611 120.848C71.5725 120.699 71.7714 120.538 71.9455 120.364Z" fill="black"/>
<path d="M75.0537 122.987V115.465H77.0926V119.605L80.3126 115.465H82.0905V122.987H80.0516V118.847L76.8316 122.987H75.0537Z" fill="black"/>
<path d="M86.0681 122.987V117.292H83.9795V115.465H90.2082V117.292H88.1195V122.987H86.0681Z" fill="black"/>
<path d="M92.0732 122.987V115.465H97.817V117.292H94.1122V118.362H96.9592V120.078H94.1122V121.147H97.9289V122.974H92.0732V122.987Z" fill="black"/>
<path d="M101.471 122.987V117.292H99.3828V115.465H105.611V117.292H103.523V122.987H101.471Z" fill="black"/>
<path d="M23.1727 132.66L25.0624 134.798C24.6894 135.221 24.2667 135.594 23.7819 135.917C22.7127 136.651 21.4694 137.011 20.0521 137.011C18.2246 137.011 16.7078 136.427 15.477 135.246C14.2586 134.065 13.6494 132.635 13.6494 130.944C13.6494 129.253 14.2586 127.811 15.477 126.642C16.6954 125.461 18.2246 124.876 20.0521 124.876C21.4321 124.876 22.6629 125.249 23.7446 125.995C24.2294 126.331 24.6397 126.704 24.9754 127.09L23.0856 129.228C22.837 128.955 22.551 128.706 22.2527 128.494C21.544 127.997 20.8105 127.761 20.0521 127.761C19.157 127.761 18.3986 128.072 17.777 128.693C17.1554 129.315 16.8446 130.073 16.8446 130.969C16.8446 131.864 17.1554 132.622 17.777 133.244C18.3986 133.866 19.157 134.176 20.0521 134.176C20.7981 134.176 21.544 133.928 22.2775 133.443C22.6132 133.169 22.9116 132.933 23.1727 132.66Z" fill="black"/>
<path d="M26.418 136.676V125.188H29.5385V131.504L34.4618 125.188H37.172V136.676H34.0515V130.36L29.1282 136.676H26.418Z" fill="black"/>
<path d="M39.5088 136.676V125.188H42.6293V129.378H46.8191V125.188H49.9396V136.676H46.8191V132.324H42.6293V136.676H39.5088Z" fill="black"/>
<path d="M52.2773 136.676V125.188H61.0546V127.973H55.3979V129.614H59.7492V132.237H55.3979V133.878H61.2163V136.663H52.2773V136.676Z" fill="black"/>
<path d="M62.9062 136.676V125.188H68.0781C69.3338 125.188 70.3657 125.573 71.149 126.331C71.9446 127.09 72.3425 128.047 72.3425 129.216C72.3425 130.385 71.9446 131.329 71.149 132.1C70.3533 132.859 69.3338 133.244 68.0781 133.244H66.0268V136.688H62.9062V136.676ZM66.0268 130.434H67.9165C68.2771 130.434 68.5879 130.31 68.849 130.061C69.11 129.813 69.2344 129.527 69.2344 129.203C69.2344 128.88 69.11 128.582 68.849 128.345C68.5879 128.097 68.2771 127.973 67.9165 127.973H66.0268V130.434Z" fill="black"/>
<path d="M74.0342 136.676V125.188H82.078V128.147H77.1547V136.676H74.0342Z" fill="black"/>
<path d="M83.4326 136.676V125.188H86.5532V131.504L91.4764 125.188H94.1867V136.676H91.0661V130.36L86.1429 136.676H83.4326Z" fill="black"/>
<path d="M95.6289 136.676L98.0035 132.411C97.6305 132.237 97.3073 132.001 97.0213 131.69C96.3624 131.031 96.0392 130.186 96.0392 129.129C96.0392 128.01 96.437 127.077 97.2203 126.319C98.0035 125.56 99.0105 125.188 100.229 125.188H105.649V136.676H102.529V133.07H100.801L98.9111 136.676H95.6289ZM100.391 130.273H102.529V127.973H100.391C100.03 127.973 99.7316 128.084 99.5078 128.296C99.2716 128.52 99.1597 128.793 99.1597 129.116C99.1597 129.44 99.2716 129.713 99.5078 129.937C99.7316 130.161 100.03 130.273 100.391 130.273Z" fill="black"/>
<path d="M69.0975 68.4181L59.9721 59.2921L69.0975 50.1661V31.939L41.7461 59.2921L69.0975 86.6453V68.4181Z" fill="#ED131C"/>
<path d="M14.333 13.6494V104.922H105.6V13.6494H14.333ZM92.5704 91.8917H27.3746V26.6919H92.5704V91.8917Z" fill="#ED131C"/>
</svg>
