<svg width="104" height="160" viewBox="0 0 104 160" fill="none" xmlns="http://www.w3.org/2000/svg">
<rect x="-2.5" y="18" width="106" height="123.214" rx="12" fill="#FF0040"/>
<rect x="-34" y="0.998535" width="128.327" height="158.003" rx="10" fill="#27388B"/>
<path fill-rule="evenodd" clip-rule="evenodd" d="M31.4226 45.6987L33.1127 47.7289H33.1129L31.4227 49.8655L29.7326 47.7289L31.4226 45.6987ZM46.6228 54.6492C46.5296 54.3407 49.5753 54.333 49.5753 56.2949C49.5753 56.9462 49.1282 57.4278 48.677 57.9137C48.2174 58.4088 47.7535 58.9085 47.7535 59.597C47.7535 60.2325 48.4178 60.6987 48.6217 60.6987C48.1524 58.508 50.0927 59.6544 50.6166 60.0641C49.9766 58.2533 50.6156 57.5626 51.1495 56.9855C51.4842 56.6236 51.7776 56.3064 51.6886 55.7859C51.5904 55.2081 50.7891 55.0908 50.0131 54.9772C49.5212 54.9051 49.0395 54.8346 48.7534 54.6492C48.4045 54.4232 48.0386 54.0229 47.6702 53.6199C46.657 52.5116 45.6251 51.3828 44.877 53.8016C46.7787 55.6186 45.6721 58.2929 43.258 58.2929C43.258 58.2929 43.2445 58.685 43.2666 58.7162C46.1461 58.5711 47.1498 56.3933 46.6229 54.6492H46.6228ZM38.5252 59.5925C41.6242 59.5818 44.5463 59.5718 44.9157 61.6351V61.635C45.0456 62.3577 44.7126 63.4587 44.353 63.7751C44.2884 63.5462 43.9537 62.7972 42.8934 62.6293C37.5399 61.7848 33.0702 70.3996 37.1059 73.8827C37.1664 73.9356 37.1317 74.0334 37.0493 74.0334H28.9829C28.9797 74.0333 28.9765 74.0332 28.9733 74.0332C28.9705 74.0332 28.9678 74.0333 28.9651 74.0334H24.9533C24.8699 74.0334 24.8355 73.9356 24.8969 73.8827C28.9315 70.3996 24.4618 61.7848 19.1082 62.6293C18.049 62.7972 17.713 63.5462 17.6488 63.7752C17.289 63.4587 16.9561 62.3576 17.0849 61.6351C17.455 59.5718 20.3774 59.5818 23.4766 59.5925C25.5049 59.5995 27.609 59.6068 29.1228 59.0332C29.1971 60.0284 27.9446 61.623 26.7477 62.2132C28.7938 64.0672 30.6308 67.8027 31.0004 72.3665C31.371 67.8027 33.208 64.0672 35.2542 62.2132C34.0571 61.623 32.8057 60.0284 32.8791 59.0332C34.3929 59.6068 36.4969 59.5995 38.5252 59.5925ZM28.6098 83.9442C28.7156 83.6864 28.8227 83.4673 28.9162 83.3037C29.0589 83.0531 29.0589 82.8685 28.9757 82.6084C28.8497 82.2169 28.8151 81.8639 28.8715 81.5589C28.7049 81.5589 28.6627 81.792 28.6108 82.0787C28.5279 82.5368 28.4202 83.132 27.74 83.132C28.0373 82.6649 27.9381 82.2671 27.6736 81.8639C27.2942 81.2816 27.305 80.7665 27.6686 80.4625C28.0303 80.1606 28.7914 80.3409 29.2779 80.8368C29.484 80.5936 30.1122 80.4241 30.4451 80.4241C30.3024 80.2418 30.2498 80.0423 30.2955 79.8183C29.3779 79.8952 27.7915 79.2564 27.7915 78.275C27.7915 77.5381 28.9132 76.9815 29.6107 76.8001L28.7962 74.3238L28.7964 74.3236C28.7447 74.1538 28.8508 74.0391 28.9651 74.0334H28.9829C29.0533 74.037 29.1239 74.0826 29.16 74.1827L30.0408 76.8272C29.9253 76.8389 29.8154 76.8573 29.7326 76.8826L33.0554 88.1989C33.2776 88.0628 33.4859 87.9082 33.6748 87.7384L33.9578 88.5882C33.0452 89.0809 30.3203 89.4728 28.933 88.0038C28.4534 88.2479 27.1971 88.0155 27.1971 86.8614C27.1971 86.7539 27.2202 86.5694 27.2673 86.3791C27.2665 86.4326 27.2699 86.4839 27.278 86.5326H27.2781C27.3754 86.4561 27.4912 86.3878 27.6207 86.3272C27.6289 86.5977 27.8021 86.6551 28.08 86.6568C28.0704 86.4923 28.071 86.3256 28.0801 86.1586C28.568 86.0184 29.1447 85.9533 29.6626 85.9533C29.1699 85.4604 29.0137 84.0295 29.265 83.1992C29.0351 83.4473 28.8147 83.6972 28.6098 83.9442ZM28.0801 86.1586C28.1237 85.355 28.3632 84.5449 28.6098 83.9442C27.8319 84.8819 27.2769 85.7781 27.2673 86.3791C27.308 86.2146 27.3667 86.0458 27.4439 85.9187C27.5945 85.6702 27.7084 85.8141 27.6609 86.0158C27.631 86.1424 27.6182 86.2447 27.6207 86.3272C27.7598 86.2622 27.9149 86.2061 28.0801 86.1586ZM33.6748 87.7384C34.2942 87.1816 34.7037 86.4626 34.7037 85.7039C34.7037 84.8601 33.7024 85.14 33.2158 85.7982C33.1718 85.4965 33.129 85.2013 33.087 84.9109L33.0868 84.9098C32.9799 84.1708 32.8774 83.4625 32.7683 82.7558C32.7268 82.4842 32.838 82.3869 33.0138 82.3049L33.0135 82.3048C33.6037 82.0335 34.5285 82.2531 34.497 83.3104C34.4895 83.5498 34.7604 83.5498 34.7799 83.3051C34.9565 81.7224 34.0946 81.2661 33.1928 81.4518C33.1565 81.2755 33.1223 81.1064 33.0892 80.9423C33.02 80.5998 32.9552 80.279 32.8845 79.9601C32.8014 79.5788 32.7707 78.8624 33.1266 78.8624C33.2948 78.8624 33.2563 79.3744 33.2322 79.6941V79.6942C33.2288 79.7393 33.2257 79.7805 33.2235 79.816C33.2073 80.0679 33.2803 80.2203 33.4451 80.2275C33.5479 80.2327 33.6762 80.0701 33.7526 79.9621C34.2689 79.2376 34.3887 78.1161 33.784 77.5751C33.278 77.1209 32.0109 77.4589 31.6626 78.1057C31.6101 77.862 31.3587 77.4599 31.238 77.2846C31.121 77.1137 31.0904 76.9965 31.2526 76.8463C31.329 76.7737 31.56 76.4887 31.56 76.1943C31.56 76.0201 31.4513 75.6987 31.1057 75.6987C30.8331 75.6987 30.53 75.9331 30.53 76.4554C30.53 76.5716 30.5529 76.6961 30.6131 76.8298C30.5002 76.8067 30.2603 76.8049 30.0408 76.8272L33.6748 87.7384ZM38.1836 64.8274C39.0384 64.5401 40.5281 64.5174 41.5639 65.5066L41.5638 65.5065C41.5638 64.4488 40.7247 63.5094 40.432 63.3899C40.0476 63.4644 38.7436 64.0785 38.1836 64.8274ZM13.3789 60.6987C13.8469 58.508 11.9069 59.6544 11.3828 60.0641H11.3827C12.0228 58.2532 11.384 57.5625 10.8502 56.9853C10.5157 56.6235 10.2223 56.3063 10.3109 55.7859C10.4092 55.2082 11.2104 55.0908 11.9863 54.9772C12.4783 54.9052 12.9601 54.8346 13.2461 54.6492C13.595 54.4232 13.961 54.0229 14.3294 53.6199C15.3425 52.5116 16.3744 51.3828 17.1226 53.8016C15.2218 55.6184 16.3284 58.2929 18.7415 58.2929C18.7415 58.2929 18.755 58.685 18.7339 58.7162C15.8545 58.5712 14.8507 56.3932 15.3765 54.6492C15.4699 54.3407 12.424 54.3329 12.424 56.2949C12.424 56.9462 12.8711 57.4278 13.3224 57.9137C13.782 58.4088 14.246 58.9085 14.246 59.597C14.246 60.2325 13.5816 60.6987 13.3789 60.6987ZM20.4375 65.5066C21.4743 64.5174 22.9641 64.5401 23.8178 64.8274C23.2601 64.0785 21.9538 63.4644 21.5705 63.3899C21.2779 63.5094 20.4376 64.4488 20.4376 65.5065L20.4375 65.5066ZM41.5636 52.385L41.5636 52.3849L41.5636 52.3849V52.385ZM41.5636 52.3849L40.2963 50.6992L39.0302 52.385L40.2963 54.0326L41.5636 52.3849ZM49.1693 89.9754L49.1694 89.9755V89.9752L49.1693 89.9754ZM47.4792 88.1997L49.1693 89.9754L47.4792 91.5331L45.7891 89.9755L47.4792 88.1997ZM22.9719 52.3849L21.7044 50.6992L20.4384 52.3849L21.7044 54.0326L22.9718 52.3849H22.9719ZM23.8902 59.0323H19.8532C19.8417 59.0176 19.1444 58.1233 18.9689 57.6787C18.3322 56.0651 19.1449 55.3126 20.3346 55.3126L21.8712 56.6288L23.4078 55.3126C24.5977 55.3126 25.4102 56.0651 24.7738 57.6787C24.6925 57.8849 24.4987 58.188 24.3133 58.4543C25.7458 58.2683 27.5742 57.3416 27.9763 55.3561C27.9763 55.3561 26.9169 53.7669 26.6521 53.1237C25.6967 50.811 26.9157 49.8657 28.6983 49.8657L30.9995 52.4226L33.3009 49.8657C35.0835 49.8657 36.3025 50.8111 35.3481 53.1237C35.0823 53.7668 34.0238 55.356 34.0238 55.356C34.425 57.3415 36.2534 58.2682 37.6859 58.4542C37.5017 58.1879 37.3068 57.8849 37.2255 57.6786C36.5879 56.065 37.4026 55.3125 38.5913 55.3125L40.128 56.6287L41.6647 55.3125C42.8534 55.3125 43.6681 56.065 43.0304 57.6786C42.8534 58.1269 42.1472 59.0324 42.1472 59.0324H38.1101C34.7146 59.0324 33.1885 57.0635 32.7269 55.356H29.2732C28.8117 57.0634 27.2843 59.0323 23.8902 59.0323ZM60.3712 70.4925C59.6312 70.8729 55.2913 72.9379 49.7318 72.1741C49.7893 71.9048 49.8382 71.6336 49.8782 71.361C53.5783 70.9114 56.586 70.2741 58.5028 69.1912C60.6877 67.9561 61.6431 65.0078 60.5403 62.8142C60.5117 62.7589 60.4326 62.7491 60.393 62.7954C59.7888 63.5019 55.9887 67.7002 50.0019 69.0054C49.9866 68.6905 49.9582 68.3763 49.9168 68.0638C52.8246 66.389 55.6633 64.4592 57.0154 62.6946C59.0589 60.0267 58.8708 56.6239 56.9264 54.8888C56.9062 54.8713 56.8796 54.8633 56.8532 54.8671C56.8269 54.8709 56.8034 54.8861 56.7889 54.9087C56.1737 55.9392 50.4155 65.392 44.0933 69.4726C44.0162 69.5228 43.9384 69.5719 43.86 69.6199C43.6789 69.7316 43.6592 69.9707 43.8135 70.1129C44.5423 70.7838 44.9954 71.7176 44.9954 72.7541C44.9954 74.5562 43.6275 76.0551 41.8195 76.3802C40.9006 76.561 39.5742 76.5086 38.3003 76.0809C38.2429 76.062 38.1836 76.1005 38.1836 76.1589V81.867C38.1836 81.9588 38.3212 81.9815 38.3537 81.8934C39.128 79.8098 41.4464 79.367 42.4603 79.367C42.8253 81.5942 43.477 83.439 44.3237 84.4319C45.7022 86.0454 47.9535 86.0227 48.9297 84.9072C48.9458 84.8887 48.9527 84.8638 48.9485 84.8395C48.9442 84.8152 48.9293 84.7942 48.9079 84.7825C48.3343 84.4478 45.0525 82.4015 44.3957 79.048C44.655 78.957 44.9081 78.8542 45.1505 78.7326C46.2098 80.5132 47.7517 82.0991 48.9929 82.7047C51.078 83.7206 52.9868 83.2264 53.8334 81.7395C53.8641 81.6871 53.8266 81.6218 53.7642 81.616C52.4745 81.5112 48.5162 80.3591 46.8308 77.552C47.0238 77.3721 47.2127 77.1844 47.3888 76.9848C49.1522 78.3483 51.6458 79.5537 53.431 79.7998C55.5198 80.0883 57.8867 79.4114 57.9441 76.9443C57.9451 76.8948 57.9016 76.8543 57.8502 76.8574C57.1073 76.9027 52.1907 77.1202 48.6874 75.0778C48.8091 74.8428 48.9226 74.6035 49.0276 74.3604C49.0276 74.3604 54.3212 75.6312 56.8294 75.2101C59.3219 74.7923 60.7818 72.9051 60.4998 70.5575C60.4919 70.499 60.4247 70.4645 60.3713 70.4922L60.3712 70.4925ZM13.3133 75.0779C13.1913 74.843 13.0775 74.6037 12.9721 74.3606V74.3603C12.9721 74.3603 7.67862 75.6311 5.17135 75.21C2.67885 74.7921 1.22014 72.9069 1.50088 70.5592C1.50776 70.4999 1.57506 70.4643 1.63046 70.4929C2.37618 70.8764 6.71427 72.9365 12.2679 72.1737C12.2103 71.9043 12.1616 71.6331 12.1216 71.3605C8.42146 70.9109 5.41369 70.2736 3.49688 69.1907C1.31394 67.9556 0.358604 65.0091 1.45923 62.8146C1.48684 62.7592 1.56809 62.7493 1.60862 62.7978C2.21889 63.5091 6.01597 67.7006 11.9978 69.0049C12.0128 68.69 12.0409 68.3759 12.0819 68.0634C9.17488 66.3885 6.3364 64.4587 4.98431 62.6941C2.9409 60.0272 3.12979 56.6253 5.07132 54.8892C5.1139 54.8517 5.18306 54.8615 5.21188 54.91C5.832 55.9476 11.5874 65.3936 17.9056 69.4723C17.9835 69.5224 18.062 69.5715 18.141 69.6196C18.3211 69.7312 18.3418 69.9703 18.1866 70.1117C17.4586 70.7826 17.0047 71.7173 17.0047 72.7539C17.0047 74.5562 18.3726 76.0551 20.1815 76.3801C21.0994 76.561 22.4258 76.5085 23.6997 76.0808C23.757 76.062 23.8172 76.1005 23.8172 76.1588V81.867C23.8172 81.9588 23.6799 81.9816 23.6462 81.8936C22.8718 79.8099 20.5544 79.3671 19.5397 79.3671C19.1747 81.5942 18.524 83.439 17.6772 84.432C16.2986 86.0455 14.0464 86.0229 13.0701 84.9073C13.0543 84.8887 13.0475 84.8639 13.0517 84.8397C13.0559 84.8155 13.0707 84.7945 13.0919 84.7827C13.6656 84.4479 16.9473 82.4016 17.6041 79.048C17.3459 78.9571 17.0927 78.8543 16.8495 78.7328C15.7902 80.5133 14.2483 82.0992 13.0079 82.7048C10.9219 83.7206 9.01304 83.2266 8.16638 81.7395C8.13663 81.6871 8.17326 81.6219 8.23554 81.616C9.52534 81.5112 13.4826 80.359 15.1689 77.5521C14.9761 77.3723 14.7882 77.1846 14.6111 76.985C12.8477 78.3485 10.3532 79.554 8.5688 79.8C6.48002 80.0884 4.11422 79.4117 4.05566 76.9454C4.05473 76.897 4.09823 76.8545 4.15066 76.8576C4.89638 76.9039 9.81109 77.1193 13.3133 75.0779ZM48.1071 92.4006L46.1753 90.889C45.4046 91.3454 44.838 92.0704 44.618 92.9201C43.4561 93.0819 40.2879 92.3823 40.5959 91.9183C44.0682 87.0617 41.4123 84.1703 38.2206 84.3311V87.5928C38.2206 88.6402 37.3012 89.489 36.1689 89.489H33.9649C32.3838 89.489 31.3545 91.0694 31.3545 91.0694C31.3545 91.0694 30.3255 89.489 28.7444 89.489H26.5402C25.4071 89.489 24.4898 88.6402 24.4898 87.5928V84.3312C21.2979 84.1705 18.64 87.0619 22.1133 91.9184C22.4184 92.3776 19.1621 93.1131 17.6346 92.927C17.2324 92.5122 16.6518 92.2507 16.002 92.2507C15.7257 92.2507 15.4517 92.2996 15.1926 92.3951C15.1926 92.3951 9.19052 86.744 9.08056 86.6888L9.13009 86.5744C9.47179 85.9388 8.94882 85.246 8.61802 85.2945C9.00226 84.8362 9.02023 82.8294 6.88832 82.3652C6.9507 82.7684 6.98236 83.5911 6.98236 83.5911C6.98236 83.5911 5.33701 82.7063 4.5108 83.4698C3.78477 84.3246 4.79226 85.8748 4.79226 85.8748C4.79226 85.8748 3.95022 85.8952 3.53516 85.8603C4.14546 87.9126 6.19208 87.7672 6.63489 87.3622C6.60603 87.6888 7.34621 88.1539 7.97318 87.7807L8.24858 87.6481C8.29718 87.7129 14.1428 93.2051 14.1428 93.2051C13.8743 93.6014 13.7466 94.0879 13.8347 94.6063C13.9734 95.4164 14.6521 96.0878 15.5189 96.2622C16.131 96.3844 16.7066 96.2661 17.1682 95.9977L18.7156 97.426C18.8534 97.5501 19.0396 97.6275 19.2475 97.613C19.626 97.5877 19.9093 97.2825 19.8806 96.9328C19.8687 96.7748 19.7875 96.6393 19.6755 96.5365C19.6507 96.5093 18.0994 95.0771 18.0994 95.0771C19.3791 94.1846 21.7637 93.5559 23.7429 93.5559C24.0906 93.5559 24.254 93.2634 24.1342 92.9764C23.2376 90.832 25.1654 89.2789 27.1595 90.5434C28.0294 91.0947 28.9131 92.1809 29.5788 93.9929C26.3067 94.7808 22.1986 96.951 21.3675 99.3203C21.0475 100.235 22.1045 101.482 23.3883 101.733C23.4111 101.738 23.4349 101.734 23.4544 101.721C23.4739 101.709 23.4876 101.689 23.4923 101.666C24.1631 98.1294 27.9878 95.4937 29.978 95.046L30.0524 95.2444L30.0857 95.3332L30.1454 95.4918C27.9779 96.5111 25.8758 98.6613 25.2755 101.217C25.0001 102.388 26.3127 103.443 27.3964 103.732C27.4509 103.746 27.5044 103.709 27.5074 103.656C27.7134 100.424 29.1488 97.6788 30.4346 96.4298C30.4698 96.6739 30.4963 96.9192 30.5139 97.1652C30.5139 97.1652 29.1974 100.813 29.1974 103.475C29.1974 104.713 31.0479 105.578 31.3213 105.699C31.663 105.578 33.5125 104.713 33.5125 103.475C33.5125 100.813 32.196 97.1652 32.196 97.1652C32.214 96.9192 32.2407 96.6739 32.2763 96.4298C33.5611 97.6788 34.9975 100.423 35.2026 103.655C35.2055 103.708 35.26 103.746 35.3134 103.732C36.3982 103.443 37.7099 102.388 37.4354 101.218C36.8339 98.6614 34.7329 96.5113 32.5654 95.4919L32.6354 95.3039L32.6355 95.3037C32.6587 95.2412 32.6695 95.212 32.7318 95.0461C34.7231 95.4938 38.5469 98.1293 39.2175 101.666C39.2224 101.689 39.2361 101.708 39.2556 101.721C39.2751 101.734 39.2989 101.738 39.3216 101.733C40.6044 101.482 41.6634 100.235 41.3414 99.3204C40.5123 96.9511 36.4031 94.7809 33.1312 93.993C33.7978 92.181 34.6814 91.0948 35.5511 90.5434C37.5443 89.279 39.4721 90.8323 38.5756 92.9766C38.4556 93.2634 38.6181 93.5559 38.9669 93.5559C41.2056 93.5559 43.9634 94.3602 45.055 95.4387C45.7525 96.4794 47.0413 97.1451 48.4956 97.0025C50.1479 96.8418 51.4952 95.6072 51.6814 94.0812C51.8439 92.744 51.1485 91.5434 50.04 90.8893L48.1071 92.401L48.1071 92.4006Z" fill="white"/>
<rect x="17.0293" y="141.356" width="26.0665" height="1.60409" fill="white"/>
</svg>
