<svg xmlns="http://www.w3.org/2000/svg" fill="none" viewBox="0 0 238 272"><g clip-path="url(#a)"><rect width="220" height="272" x="12" fill="#ECEDF0" rx="12"/><rect width="180" height="212" x="58" y="30" fill="#ED131C" rx="12"/><rect width="222" height="272" fill="#1C1C1C" rx="12"/><path fill="#fff" fill-rule="evenodd" d="m112.63 76.95 2.9 3.5-2.9 3.67-2.91-3.67 2.9-3.5Zm-31.07 25.82c.8-3.77-2.53-1.8-3.44-1.09 1.1-3.12 0-4.3-.91-5.3-.58-.62-1.08-1.17-.93-2.06.17-1 1.55-1.2 2.88-1.4.85-.12 1.68-.24 2.17-.56.6-.39 1.23-1.08 1.87-1.77 1.74-1.91 3.52-3.85 4.8.31-3.27 3.13-1.36 7.73 2.8 7.73 0 0 .02.68-.02.73-4.96-.25-6.69-4-5.78-7 .16-.53-5.08-.55-5.08 2.83 0 1.12.77 1.95 1.54 2.79.8.85 1.6 1.71 1.6 2.9 0 1.1-1.15 1.9-1.5 1.9Zm57.23-10.41c-.16-.53 5.08-.55 5.08 2.83 0 1.12-.77 1.95-1.54 2.79-.8.85-1.6 1.71-1.6 2.9 0 1.1 1.15 1.9 1.5 1.9-.8-3.78 2.53-1.8 3.44-1.1-1.1-3.12 0-4.3.91-5.3.58-.62 1.08-1.17.93-2.06-.17-1-1.55-1.2-2.88-1.4a6.02 6.02 0 0 1-2.17-.56c-.6-.39-1.23-1.08-1.87-1.77-1.74-1.91-3.52-3.85-4.8.31 3.27 3.13 1.37 7.73-2.8 7.73 0 0-.01.68.02.73 4.96-.25 6.69-4 5.78-7Zm-13.94 8.5c5.34-.01 10.37-.03 11 3.53.22 1.24-.35 3.13-.97 3.68-.1-.4-.69-1.68-2.51-1.97-9.22-1.46-16.91 13.37-9.96 19.37.1.09.04.26-.1.26h-20.82a.15.15 0 0 1-.1-.26c6.94-6-.75-20.83-9.97-19.37-1.82.29-2.4 1.58-2.5 1.97-.63-.55-1.2-2.44-.98-3.68.64-3.56 5.67-3.54 11-3.52 3.5.01 7.12.02 9.72-.96.13 1.7-2.02 4.45-4.08 5.47 3.52 3.2 6.68 9.62 7.32 17.48.63-7.86 3.8-14.29 7.32-17.48-2.06-1.02-4.22-3.76-4.09-5.47 2.6.98 6.23.97 9.72.96Zm-17.07 41.93c.18-.44.37-.82.53-1.1.24-.44.24-.75.1-1.2a3.73 3.73 0 0 1-.18-1.8c-.29 0-.36.4-.45.89-.14.79-.33 1.81-1.5 1.81.52-.8.34-1.49-.11-2.18-.65-1-.64-1.9 0-2.41.61-.52 1.92-.21 2.76.64.36-.42 1.44-.71 2.01-.71a1.22 1.22 0 0 1-.26-1.04c-1.58.13-4.3-.97-4.3-2.66 0-1.27 1.92-2.23 3.12-2.54l-1.4-4.26c-.09-.3.1-.49.29-.5h.04c.12 0 .24.08.3.25l1.52 4.56c-.2.02-.4.05-.53.1l5.72 19.47c.38-.23.74-.5 1.06-.79l.49 1.46c-1.57.85-6.26 1.53-8.65-1-.83.42-3 .02-3-1.97 0-.18.05-.5.13-.83 0 .1 0 .18.02.27.17-.14.37-.25.59-.36.01.47.31.57.79.57a7.9 7.9 0 0 1 0-.86c.84-.24 1.83-.35 2.72-.35-.84-.85-1.11-3.31-.68-4.74-.4.42-.78.85-1.13 1.28Zm-.91 3.81c.07-1.38.49-2.78.91-3.81-1.34 1.61-2.3 3.16-2.31 4.2.07-.3.17-.58.3-.8.26-.43.46-.18.38.17-.05.21-.08.39-.07.53.24-.11.5-.2.79-.29Zm9.63 2.72a4.83 4.83 0 0 0 1.77-3.5c0-1.45-1.72-.97-2.56.16l-.22-1.52-.55-3.72c-.07-.46.12-.63.42-.77 1.02-.47 2.61-.1 2.56 1.73-.02.41.45.41.48-.01.31-2.72-1.17-3.51-2.73-3.2a289.46 289.46 0 0 1-.53-2.56c-.14-.66-.2-1.89.42-1.89.29 0 .22.88.18 1.43l-.01.21c-.03.44.1.7.38.71.17.01.4-.27.53-.45.89-1.25 1.1-3.18.05-4.11-.87-.79-3.05-.2-3.65.9a5.35 5.35 0 0 0-.73-1.4c-.2-.3-.26-.5.02-.76.14-.12.53-.61.53-1.12 0-.3-.19-.85-.78-.85-.47 0-1 .4-1 1.3 0 .2.05.41.15.64-.2-.04-.6-.04-.98 0l6.25 18.78Zm7.76-39.44c1.47-.5 4.04-.53 5.82 1.17 0-1.82-1.44-3.44-1.95-3.64a8.6 8.6 0 0 0-3.87 2.47Zm-30.55 1.17c1.79-1.7 4.35-1.66 5.82-1.17a8.59 8.59 0 0 0-3.87-2.47c-.5.2-1.95 1.82-1.95 3.64Zm36.37-22.59Zm0 0-2.18-2.9-2.18 2.9 2.18 2.84 2.18-2.84Zm13.1 64.71Zm-2.91-3.05 2.9 3.05-2.9 2.68-2.91-2.68 2.9-3.05Zm-42.2-61.66-2.18-2.9-2.18 2.9 2.18 2.84 2.18-2.84Zm1.59 11.44H92.7c-.02-.02-1.22-1.56-1.52-2.33-1.1-2.77.3-4.07 2.35-4.07l2.64 2.27 2.65-2.27c2.05 0 3.45 1.3 2.35 4.07-.14.36-.47.88-.8 1.34 2.47-.32 5.62-1.92 6.31-5.33 0 0-1.82-2.74-2.28-3.85-1.64-3.98.46-5.6 3.53-5.6l3.96 4.4 3.96-4.4c3.07 0 5.17 1.62 3.52 5.6-.45 1.11-2.28 3.85-2.28 3.85.7 3.41 3.84 5 6.3 5.33a7.96 7.96 0 0 1-.79-1.34c-1.1-2.77.3-4.07 2.36-4.07l2.64 2.27 2.65-2.27c2.04 0 3.45 1.3 2.35 4.07-.3.78-1.52 2.33-1.52 2.33h-6.95c-5.85 0-8.47-3.38-9.27-6.32h-5.95c-.79 2.94-3.42 6.32-9.26 6.32Zm62.8 19.73c-1.28.66-8.75 4.21-18.32 2.9.1-.47.19-.93.26-1.4 6.36-.78 11.54-1.87 14.84-3.74 3.76-2.12 5.4-7.2 3.51-10.97-.05-.1-.19-.12-.25-.04-1.04 1.22-7.59 8.45-17.9 10.7-.02-.55-.07-1.09-.14-1.63 5-2.88 9.9-6.2 12.22-9.24 3.52-4.6 3.2-10.45-.15-13.44a.16.16 0 0 0-.24.04c-1.06 1.77-10.97 18.04-21.85 25.07l-.4.25c-.32.2-.35.6-.08.85a6.16 6.16 0 0 1 2.03 4.55c0 3.1-2.36 5.68-5.47 6.24-1.58.3-3.86.22-6.06-.52-.1-.03-.2.04-.2.14v9.82c0 .16.24.2.3.05 1.33-3.59 5.32-4.35 7.07-4.35.62 3.83 1.75 7.01 3.2 8.72 2.38 2.78 6.25 2.74 7.93.82a.14.14 0 0 0 .03-.12.14.14 0 0 0-.06-.1c-1-.57-6.64-4.1-7.77-9.87.44-.16.88-.33 1.3-.54 1.82 3.06 4.48 5.8 6.61 6.84 3.6 1.75 6.88.9 8.33-1.67.06-.09 0-.2-.11-.2-2.22-.19-9.04-2.17-11.94-7 .33-.31.66-.64.96-.98 3.04 2.35 7.33 4.42 10.4 4.84 3.6.5 7.67-.66 7.77-4.91a.15.15 0 0 0-.16-.15c-1.28.08-9.74.45-15.77-3.06.2-.4.4-.82.58-1.24 0 0 9.11 2.19 13.43 1.46 4.3-.72 6.8-3.96 6.32-8a.15.15 0 0 0-.22-.12Zm-81.01 7.9c-.21-.4-.4-.82-.59-1.24 0 0-9.11 2.19-13.43 1.46-4.29-.72-6.8-3.96-6.32-8 .02-.1.13-.17.23-.12 1.28.66 8.75 4.21 18.3 2.9-.09-.47-.17-.93-.24-1.4-6.37-.78-11.55-1.87-14.85-3.74-3.76-2.12-5.4-7.2-3.5-10.97.04-.1.18-.12.25-.03 1.05 1.22 7.59 8.44 17.88 10.68.03-.54.08-1.08.15-1.62-5-2.88-9.9-6.2-12.22-9.24-3.52-4.6-3.2-10.45.15-13.44.07-.06.2-.05.24.04 1.07 1.78 10.98 18.05 21.85 25.07l.41.25c.31.2.35.6.08.85a6.17 6.17 0 0 0-2.04 4.55c0 3.1 2.36 5.68 5.47 6.24 1.58.31 3.87.22 6.06-.52.1-.03.2.04.2.14v9.82c0 .16-.24.2-.3.05-1.33-3.59-5.32-4.35-7.06-4.35-.63 3.83-1.75 7.01-3.2 8.72-2.38 2.78-6.26 2.74-7.94.82a.14.14 0 0 1 .04-.22c.99-.57 6.63-4.1 7.77-9.87-.45-.16-.88-.33-1.3-.54-1.83 3.06-4.48 5.8-6.62 6.84-3.59 1.75-6.87.9-8.33-1.66-.05-.1.01-.2.12-.22 2.22-.18 9.03-2.16 11.93-7a14.8 14.8 0 0 1-.96-.97c-3.03 2.35-7.33 4.42-10.4 4.85-3.6.5-7.67-.67-7.77-4.92 0-.08.08-.16.17-.15 1.28.08 9.74.45 15.77-3.06Zm59.9 29.82-3.33-2.6a5.78 5.78 0 0 0-2.68 3.5c-2 .27-7.45-.93-6.92-1.73 5.97-8.36 1.4-13.34-4.1-13.06v5.61c0 1.8-1.57 3.27-3.52 3.27H117c-2.72 0-4.5 2.72-4.5 2.72s-1.76-2.72-4.49-2.72h-3.79c-1.95 0-3.53-1.47-3.53-3.27v-5.61c-5.5-.28-10.07 4.7-4.1 13.06.53.79-5.07 2.05-7.7 1.73a3.9 3.9 0 0 0-4.2-.91s-10.34-9.73-10.53-9.83l.09-.2c.59-1.09-.31-2.28-.88-2.2.66-.79.69-4.24-2.98-5.04.1.7.16 2.11.16 2.11s-2.83-1.52-4.25-.2c-1.25 1.46.48 4.13.48 4.13s-1.45.04-2.16-.02c1.05 3.53 4.57 3.28 5.33 2.58-.05.57 1.23 1.37 2.3.72l.48-.22c.08.1 10.15 9.56 10.15 9.56a3.27 3.27 0 0 0-.53 2.41 3.63 3.63 0 0 0 2.9 2.86c1.05.2 2.04 0 2.84-.46l2.66 2.46c.24.21.56.34.92.32.65-.04 1.13-.57 1.09-1.17-.03-.27-.16-.5-.36-.68l-2.71-2.51c2.2-1.54 6.3-2.62 9.71-2.62.6 0 .88-.5.68-1-1.55-3.7 1.77-6.37 5.2-4.19 1.5.95 3.03 2.82 4.17 5.94-5.63 1.35-12.7 5.09-14.13 9.17-.56 1.57 1.26 3.72 3.47 4.15a.15.15 0 0 0 .18-.11c1.16-6.1 7.74-10.63 11.17-11.4l.13.34.16.43c-3.74 1.75-7.35 5.46-8.39 9.86-.47 2.01 1.79 3.83 3.65 4.32.1.03.19-.04.2-.13.35-5.56 2.82-10.29 5.03-12.44.06.42.11.85.14 1.27 0 0-2.27 6.28-2.27 10.86 0 2.13 3.19 3.62 3.66 3.83.59-.2 3.77-1.7 3.77-3.83 0-4.58-2.26-10.86-2.26-10.86.03-.42.07-.85.13-1.27 2.22 2.15 4.69 6.88 5.04 12.44 0 .1.1.16.2.13 1.86-.5 4.12-2.31 3.65-4.32-1.04-4.4-4.66-8.1-8.39-9.86l.12-.32.17-.45c3.43.77 10 5.3 11.16 11.4.01.04.04.07.07.1.03.01.07.02.11.01 2.21-.43 4.03-2.58 3.48-4.15-1.43-4.08-8.5-7.81-14.13-9.17 1.14-3.12 2.67-5 4.16-5.94 3.43-2.18 6.75.5 5.2 4.19-.2.5.08 1 .68 1 3.86 0 8.6 1.38 10.48 3.24a6.33 6.33 0 0 0 5.93 2.69c2.84-.28 5.16-2.4 5.48-5.03a5.59 5.59 0 0 0-2.83-5.5l-3.32 2.6Z" clip-rule="evenodd"/><path fill="url(#b)" d="M0 192h238v80H0z"/></g><defs><linearGradient id="b" x1="119" x2="119" y1="192" y2="272" gradientUnits="userSpaceOnUse"><stop stop-color="#3A3A3A" stop-opacity="0"/><stop offset=".66" stop-color="#3A3A3A" stop-opacity=".75"/><stop offset="1" stop-color="#3A3A3A"/></linearGradient><clipPath id="a"><path fill="#fff" d="M0 0h238v272H0z"/></clipPath></defs></svg>