<svg xmlns="http://www.w3.org/2000/svg" width="40" height="40" fill="none" viewBox="0 0 40 40"><path fill="#FF0A47" d="M30.903 23.782c-.229-.638-.673-.982-1.383-1.08l-1.257-.173c-1.193-.172-2.31-.331-3.325-.467-.291-.037-.647-.135-.888-.614-.47-.946-.952-1.905-1.421-2.838l-.026-.037-.266-.516c-.089-.172-.165-.332-.254-.504-.012-.037-.038-.062-.05-.098-.039-.074-.077-.136-.115-.21l-.24-.466.443-.184.076-.037c.064-.025.115-.05.178-.074l2.005-.811c.559-.221 1.13-.455 1.7-.688 1.333-.54 2.716-1.106 4.074-1.634.495-.197.71-.504.71-1.008v-7.41c0-.601-.33-.933-.938-.933H11.08c-.61 0-.94.32-.952.934v7.434c0 .479.203.774.673.97.913.369 1.865.75 2.906 1.168 1.23.491 2.487 1.007 3.693 1.499l1.916.774-1.282 2.519c-.05.098-.102.209-.165.307-.05.098-.101.197-.152.307-.305.59-.559 1.106-.787 1.573-.203.442-.546.54-.863.59-1.396.184-3.046.405-4.657.65-.736.1-1.244.603-1.383 1.328-.102.553.076 1.032.545 1.474.292.27.584.553.85.811.407.381.813.762 1.219 1.155.406.381.812.762 1.205 1.143.305.283.406.578.343.958-.114.615-.229 1.241-.343 1.843-.038.234-.088.48-.127.713-.038.16-.063.32-.088.48-.026.16-.064.331-.09.49-.012.087-.037.185-.063.32a6.363 6.363 0 0 0-.101.59c-.102.713.114 1.266.66 1.647.558.393 1.167.43 1.802.098l.774-.393c1.078-.54 2.233-1.118 3.35-1.72.343-.185.66-.185 1.04.012.711.38 1.46.75 2.17 1.118l.102.05c.292.147.584.294.888.454l.876.442c.71.356 1.32.344 1.89-.074.56-.405.75-.97.61-1.744-.127-.725-.254-1.426-.38-2.126-.052-.307-.115-.627-.166-.934l-.228-1.29c-.064-.344.025-.627.304-.897a334.7 334.7 0 0 0 3.376-3.182c.533-.504.672-1.07.457-1.709ZM12.299 12.11c-.203-.074-.419-.332-.419-.578-.012-1.56-.012-3.145-.012-4.681v-.713c0-.061.012-.11.025-.147 0-.013.013-.025.013-.037v-.025l.063-.246h17.106l.026.283c0 .037 0 .05.012.074l.013.024v.123c0 .037.013.074.013.11v5.137c0 .356-.152.577-.482.7-.673.27-1.358.54-2.043.811-.686.27-1.371.553-2.044.823-.951.394-1.928.774-2.867 1.155l-.838.332a.965.965 0 0 1-.355.062.944.944 0 0 1-.343-.062c-2.906-1.13-5.47-2.15-7.868-3.145Zm16.23 12.73a67.24 67.24 0 0 0-1.61 1.572c-.42.418-.902.897-1.245 1.216-.596.578-.786 1.155-.634 1.893.216 1.081.596 3.354.685 3.944.013.147-.038.282-.152.356a.362.362 0 0 1-.229.074c-.063 0-.126-.025-.164-.037l-.013-.012-2.373-1.204c-.305-.148-.61-.308-.927-.467l-.495-.258a1.91 1.91 0 0 0-1.713 0c-.545.282-1.383.712-2.157 1.093l-1.637.836a.424.424 0 0 1-.178.049.46.46 0 0 1-.24-.074.362.362 0 0 1-.153-.393l.063-.369c.064-.38.127-.737.19-1.093l.191-1.032c.114-.615.216-1.143.292-1.622.101-.602-.063-1.094-.52-1.524l-1.345-1.253c-.508-.48-1.028-.97-1.536-1.438-.038-.037-.089-.086-.152-.16l-.076-.073c-.013-.012-.026-.025-.051-.037a.314.314 0 0 1-.076-.344.381.381 0 0 1 .279-.233 94.322 94.322 0 0 0 1.903-.27l.584-.087c.318-.049.622-.086.927-.135.317-.05.621-.098.939-.135.622-.086 1.053-.393 1.345-.983.533-1.02 1.586-3.097 1.865-3.65a.425.425 0 0 1 .368-.22.44.44 0 0 1 .368.208c.317.59 1.333 2.544 1.815 3.551.343.688.876 1.057 1.7 1.143 1.168.135 3.44.467 3.972.553.14.024.254.11.292.246.038.135 0 .27-.101.368Z"/></svg>
