<svg xmlns="http://www.w3.org/2000/svg" width="40" height="40" fill="none" viewBox="0 0 40 40"><path fill="#FF0A47" d="M9.839 25.377h5.083c.543 0 .915-.328.915-.825 0-.485-.372-.813-.915-.824H9.84c-.554 0-.916.327-.916.824 0 .497.373.825.916.825ZM20.255 20.09c.124.011.26.011.395 0 .068 0 .125-.011.192 0H21.43a.824.824 0 0 0 .768-.814c0-.429-.339-.79-.757-.813a10.19 10.19 0 0 0-1.175 0 .807.807 0 0 0-.757.813c-.011.43.317.78.746.814ZM14.922 13.165H9.827c-.554 0-.915.327-.915.824 0 .486.373.825.915.825h5.084c.542 0 .915-.328.915-.825.011-.497-.35-.824-.904-.824ZM19.497 13.99c0 .429.328.79.757.813.124.011.237.011.373 0h.802a.824.824 0 0 0 .768-.814c0-.429-.327-.79-.757-.813a10.19 10.19 0 0 0-1.175 0 .801.801 0 0 0-.768.813ZM14.922 18.452H9.84c-.554 0-.916.327-.916.824 0 .486.373.825.916.825h5.083c.554 0 .915-.328.915-.825 0-.497-.361-.824-.915-.824Z"/><path fill="#FF0A47" d="M29.552 36.957c3.423-.554 6.124-3.457 6.417-6.903.362-4.18-2.53-7.219-5.57-8.055a13.95 13.95 0 0 0-.801-.192c-.136-.034-.272-.056-.407-.09l-.136-.034v-8.936c.012-1.458-.485-2.667-1.491-3.683a220.787 220.787 0 0 1-2.79-2.881c-.34-.35-.678-.712-1.029-1.062-.994-1.028-2.18-1.525-3.626-1.525H7.669c-.192 0-.384 0-.565.034-1.513.248-2.417 1.367-2.417 3.005v25.227c0 .271.011.553.068.813.293 1.345 1.412 2.226 2.846 2.226h4.53c3.401 0 6.915 0 10.372.011a.99.99 0 0 1 .621.237c.848.712 1.604 1.164 2.361 1.413.463.146.96.26 1.435.372.215.046.418.102.633.147h1.355c.068-.011.125-.022.192-.034.159-.034.305-.067.452-.09Zm-11.58-3.706H7.693c-.915 0-1.367-.44-1.367-1.344V6.578c0-.892.452-1.344 1.344-1.344h12.427c1.006 0 1.82.35 2.509 1.062 1.14 1.186 2.485 2.576 3.807 3.943.678.689 1.005 1.468.994 2.395v8.721c0 .045 0 .09-.011.147 0 .023 0 .057-.012.09l-.011.136-.136.023c-2.688.451-4.654 1.83-5.84 4.112-1.198 2.293-1.187 4.643.01 7.163l.114.237h-3.547v-.012Zm10.259 2.18a5.98 5.98 0 0 1-4.282-1.795 5.976 5.976 0 0 1-1.751-4.282c.022-3.333 2.734-6.033 6.055-6.033h.012c3.366.011 6.089 2.723 6.089 6.055a5.993 5.993 0 0 1-1.774 4.26 6.137 6.137 0 0 1-4.35 1.796Z"/><path fill="#FF0A47" d="M27.022 31.433c.147.282.384.463.644.497.271.034.543-.09.757-.328.17-.18.328-.384.486-.565.068-.079.124-.158.192-.237.18-.215.361-.43.542-.655.463-.554.938-1.119 1.39-1.684.248-.316.26-.723.011-1.04a.78.78 0 0 0-.971-.225c-.136.068-.272.192-.418.361-.373.43-.735.87-1.108 1.322-.146.17-.282.34-.429.52l-.17.192-.237-.475c-.079-.158-.158-.305-.237-.451-.17-.328-.452-.509-.745-.509a.815.815 0 0 0-.385.102c-.418.215-.553.69-.338 1.13.384.802.7 1.446 1.016 2.044Z"/></svg>
