<svg xmlns="http://www.w3.org/2000/svg" width="40" height="40" fill="none" viewBox="0 0 40 40"><path fill="none" d="M35 34.066c-.01-6.992-.01-14.112-.01-20.986V8.34c0-.688-.197-.885-.885-.885H28.588c-.629 0-.845.227-.845.846v1.475h-4.691V6.708c0-.462-.256-.708-.718-.708h-8.447c-.492 0-.738.256-.738.747V10.887h-2.134c-1.347 0-2.743.01-4.11-.01-.472-.01-.738.128-.905.473v23.188c.108.197.256.354.462.462h28.066c.344-.167.472-.433.472-.934Zm-21.89-.364H7.288V16.286h5.822v17.416Zm.01-18.733H7.288v-2.784h5.841v2.784h-.01Zm1.317-7.67h7.317v4.552h-7.317V7.298Zm0 5.88h7.317V27.84h-7.317V13.179Zm7.317 20.523h-7.317v-4.543h7.317v4.543Zm5.96 0h-4.642V15.804h4.641v17.898Zm.009-19.206h-4.651v-3.402h4.651v3.402Zm5.979 19.206H29.04V31.39h4.66v2.31Zm-4.661-3.639V12.412h4.651v17.651h-4.651Zm4.66-18.96h-4.67v-2.35h4.67v2.35Z"/></svg>
