<svg width="40" height="40" viewBox="0 0 40 40" fill="none" xmlns="http://www.w3.org/2000/svg">
<path d="M35.9999 32.6002C35.861 32.9139 35.6153 33.0004 35.2947 33.0004C25.1017 33.0004 14.8981 33.0004 4.70507 33.0004C4.17085 33.0004 3.9999 32.8165 3.9999 32.2649C3.9999 24.8446 3.9999 17.4136 3.9999 9.99335C3.9999 9.42007 4.17085 9.247 4.74782 9.247C5.36751 9.247 5.9979 9.247 6.67102 9.247C6.67102 9.00903 6.67102 8.7927 6.67102 8.57636C6.67102 7.949 6.67102 7.33245 6.67102 6.70508C6.67102 6.16425 6.86335 5.98036 7.39757 6.01281C11.1371 6.23996 14.7485 6.99713 18.2209 8.44656C18.7338 8.6629 19.236 8.89005 19.7488 9.07393C19.8984 9.12802 20.0907 9.12802 20.2403 9.07393C21.8109 8.50065 23.3602 7.85165 24.9522 7.33245C27.1745 6.60773 29.4824 6.25078 31.8116 6.0669C32.0894 6.04526 32.3672 6.01282 32.6557 6.002C33.1044 5.98037 33.3181 6.17507 33.3181 6.62937C33.3288 7.41898 33.3181 8.2086 33.3181 8.99822C33.3181 9.06312 33.3288 9.1172 33.3395 9.22536C33.9057 9.22536 34.4613 9.22536 35.0276 9.22536C35.1665 9.22536 35.2947 9.22536 35.4336 9.22536C35.7114 9.21455 35.861 9.39843 35.9999 9.60395C35.9999 17.2946 35.9999 24.9528 35.9999 32.6002ZM7.75015 28.7386C9.1508 28.824 10.5275 28.9947 11.883 29.2508C14.4772 29.7409 16.9934 30.5437 19.4496 31.6591C19.4603 31.5293 19.471 31.4644 19.471 31.4103C19.471 24.412 19.471 17.4136 19.471 10.4152C19.471 10.2313 19.4176 10.134 19.2467 10.0582C15.7635 8.50065 12.1415 7.4947 8.3378 7.19183C8.14548 7.18102 7.95316 7.19183 7.75015 7.19183C7.75015 10.6793 7.75015 14.1642 7.75015 17.6541C7.75015 21.3405 7.75015 25.0324 7.75015 28.7386ZM32.239 28.7386C32.239 21.5239 32.239 14.3525 32.239 7.1702C32.1214 7.1702 32.0146 7.15938 31.9184 7.1702C30.5936 7.34327 29.2473 7.48389 27.9331 7.72185C25.4757 8.16534 23.1358 9.01985 20.8493 10.015C20.6143 10.1231 20.5288 10.2313 20.5288 10.5017C20.5395 17.4219 20.5395 24.3529 20.5395 31.2731C20.5395 31.2756 20.5395 31.2781 20.5395 31.2805C20.5395 31.3887 20.5395 31.5077 20.5395 31.6808C24.2897 29.9717 28.1575 28.9874 32.239 28.7386ZM33.3288 10.3395C33.3288 10.5017 33.3288 10.6315 33.3288 10.7721C33.3288 16.7538 33.3288 22.7354 33.3288 28.7062C33.3288 29.6797 33.2647 29.7446 32.2924 29.8095C29.8563 29.9717 27.4523 30.3828 25.1124 31.0858C24.3645 31.313 23.6273 31.5834 22.8794 31.8322C22.8901 31.8538 22.8901 31.8755 22.9007 31.8971C26.8967 31.8971 30.9034 31.8971 34.9208 31.8971C34.9208 24.704 34.9208 17.5326 34.9208 10.3395C34.3865 10.3395 33.8844 10.3395 33.3288 10.3395ZM17.0991 31.9079C17.0991 31.8971 17.1098 31.8755 17.1098 31.8646C17.0457 31.843 16.9922 31.8106 16.9281 31.7889C15.4109 31.3454 13.9151 30.8046 12.3765 30.4801C10.8273 30.1556 9.2353 30.0042 7.654 29.8203C6.7565 29.7121 6.67102 29.6689 6.67102 28.7819C6.67102 22.7678 6.67102 16.7646 6.67102 10.7505C6.67102 10.6207 6.67102 10.4801 6.67102 10.3395C6.11543 10.3395 5.60257 10.3395 5.07903 10.3395C5.07903 17.5326 5.07903 24.704 5.07903 31.8971C9.09569 31.9079 13.1017 31.9079 17.097 31.9079H17.0991Z" fill="#FF0A47"/>
<path fill-rule="evenodd" clip-rule="evenodd" d="M17.0991 31.9079C17.0991 31.8971 17.1098 31.8755 17.1098 31.8646C17.0457 31.843 16.9922 31.8106 16.9281 31.7889C15.4109 31.3454 13.9151 30.8046 12.3765 30.4801C10.8273 30.1556 9.2353 30.0042 7.654 29.8203C6.7565 29.7121 6.67102 29.6689 6.67102 28.7819V10.7505V10.3395H5.07903V31.8971C9.09569 31.9079 13.1017 31.9079 17.097 31.9079H17.0991ZM5.17903 31.7974C9.00896 31.8075 12.8292 31.8079 16.6399 31.8079C16.2507 31.6914 15.864 31.5701 15.478 31.449C14.441 31.1237 13.4101 30.8003 12.3559 30.578C9 30.0004 7.65015 29.9386 7.65015 29.9386C7.65015 29.9386 6.96863 29.9323 6.72821 29.64C6.51174 29.3769 6.57056 28.7819 6.57056 28.7819V10.4395H5.17903V31.7974Z" fill="#FF0A47"/>
<path fill-rule="evenodd" clip-rule="evenodd" d="M33.3288 10.3395V10.7721V28.7062C33.3288 29.6797 33.2647 29.7446 32.2924 29.8095C29.8563 29.9717 27.4523 30.3828 25.1124 31.0858C24.3645 31.313 23.6273 31.5834 22.8794 31.8322C22.8901 31.8538 22.8901 31.8755 22.9007 31.8971H34.9208V10.3395H33.3288ZM33.4288 28.7062C33.4288 28.9487 33.4249 29.1424 33.4025 29.2947C33.38 29.4477 33.337 29.5727 33.248 29.6671C33.1591 29.7615 33.0368 29.8121 32.8854 29.8444C32.7345 29.8765 32.5412 29.8931 32.299 29.9092C29.8699 30.071 27.4734 30.4809 25.1413 31.1816C24.6571 31.3287 24.179 31.4933 23.6976 31.6592C23.5641 31.7052 23.4303 31.7513 23.2961 31.7971H34.8208V10.4395L33.4288 10.44V28.7062Z" fill="#FF0A47"/>
<path fill-rule="evenodd" clip-rule="evenodd" d="M32.239 28.7386V7.1702C32.1214 7.1702 32.0146 7.15938 31.9184 7.1702C30.5936 7.34327 29.2473 7.48389 27.9331 7.72185C25.4757 8.16534 23.1358 9.01985 20.8493 10.015C20.6143 10.1231 20.5288 10.2313 20.5288 10.5017C20.5395 17.4219 20.5395 24.3529 20.5395 31.2731V31.2805V31.6808C24.2897 29.9717 28.1575 28.9874 32.239 28.7386ZM30.9026 7.39907C29.9138 7.5215 28.924 7.64405 27.9509 7.82025C25.5047 8.26171 23.1731 9.11272 20.8902 10.1063C20.7787 10.1577 20.7188 10.2022 20.6835 10.2539C20.6489 10.3045 20.6288 10.3758 20.6288 10.5016C20.6395 17.4219 20.6395 24.3529 20.6395 31.2731V31.5247C24.3275 29.8631 28.1307 28.9002 32.139 28.6447V7.2683L32.1162 7.26757L32.0682 7.26611C32.016 7.26479 31.9712 7.26496 31.9305 7.26948C31.5884 7.31415 31.2456 7.35661 30.9026 7.39907Z" fill="#FF0A47"/>
<path d="M35.9999 32.6002C35.861 32.9139 35.6153 33.0004 35.2947 33.0004H4.70507C4.17085 33.0004 3.9999 32.8165 3.9999 32.2649V9.99335C3.9999 9.42007 4.17085 9.247 4.74782 9.247H6.67102V8.57636V6.70508C6.67102 6.16425 6.86335 5.98036 7.39757 6.01281C11.1371 6.23996 14.7485 6.99713 18.2209 8.44656C18.7338 8.6629 19.236 8.89005 19.7488 9.07393C19.8984 9.12802 20.0907 9.12802 20.2403 9.07393C21.8109 8.50065 23.3602 7.85165 24.9522 7.33245L24.9212 7.23738C23.9077 7.56789 22.9087 7.95199 21.9133 8.33468C21.3437 8.55366 20.7754 8.77218 20.2062 8.97994C20.0786 9.02603 19.9104 9.02602 19.7828 8.97989C19.398 8.84192 19.0198 8.67965 18.6355 8.51474C18.5111 8.46135 18.386 8.40767 18.2598 8.35442C14.7758 6.90015 11.1529 6.14074 7.40363 5.913C7.12993 5.89637 6.91136 5.932 6.76495 6.0716C6.61894 6.21082 6.57102 6.42853 6.57102 6.70508V9.14647L4.74782 9.147C4.45621 9.147 4.23216 9.18903 4.08677 9.3345C3.94138 9.47998 3.8999 9.70365 3.8999 9.99335V32.2649C3.8999 32.5449 3.94183 32.7637 4.07976 32.9085C4.21903 33.0546 4.43195 33.1004 4.70508 33.1004H35.2947C35.4627 33.1004 35.6222 33.078 35.761 33.0069C35.9025 32.9345 36.0137 32.816 36.0913 32.6407L36.0999 32.6213V9.57332L36.0828 9.54795C35.9445 9.34336 35.7674 9.11324 35.4318 9.12536H33.4291L33.4271 9.10912C33.4216 9.06376 33.4181 9.03464 33.4181 8.99822C33.4181 8.73599 33.4193 8.47328 33.4205 8.2103C33.4228 7.68356 33.4252 7.15576 33.4181 6.62871C33.418 6.38853 33.3616 6.19378 33.2236 6.06428C33.0859 5.93509 32.8881 5.89076 32.6514 5.90209C32.4539 5.90952 32.2592 5.92712 32.0693 5.94429C31.9797 5.95239 31.8911 5.9604 31.8038 5.9672C29.4699 6.15145 27.1536 6.50939 24.9212 7.23738L24.9522 7.33245C27.1745 6.60773 29.4824 6.25078 31.8116 6.0669C32.0894 6.04526 32.3672 6.01282 32.6557 6.002C33.1044 5.98037 33.3181 6.17507 33.3181 6.62937C33.3288 7.41898 33.3181 8.2086 33.3181 8.99822C33.3181 9.06312 33.3288 9.1172 33.3395 9.22536H35.0276H35.4336C35.7114 9.21455 35.861 9.39843 35.9999 9.60395V32.6002Z" fill="#FF0A47"/>
<path d="M19.4496 31.6591C19.4603 31.5293 19.471 31.4644 19.471 31.4103V10.4152C19.471 10.2313 19.4176 10.134 19.2467 10.0582C15.7635 8.50065 12.1415 7.4947 8.3378 7.19183C8.14548 7.18102 7.95316 7.19183 7.75015 7.19183V17.6541V28.7386C9.1508 28.824 10.5275 28.9947 11.883 29.2508L11.8441 29.1417C10.5334 28.8966 9.20289 28.7309 7.85015 28.6447V17.9347V7.29113C7.88723 7.29064 7.92353 7.28997 7.95929 7.28931C8.08692 7.28695 8.20751 7.28472 8.33103 7.29161C12.1215 7.59358 15.7324 8.5963 19.2062 10.1497C19.281 10.1828 19.3173 10.2151 19.3376 10.2483C19.3586 10.2826 19.371 10.3316 19.371 10.4152V31.4103C19.371 31.4316 19.3689 31.4565 19.3649 31.4962L19.3634 31.5104C16.9223 30.4135 14.4216 29.6239 11.8441 29.1417L11.883 29.2508C14.4772 29.7409 16.9934 30.5437 19.4496 31.6591Z" fill="#FF0A47"/>
<path d="M17.0706 23.7096L10.5023 21.657C10.2035 21.5636 10 21.2868 10 20.9737C10 20.4908 10.4684 20.1464 10.9294 20.2904L17.4977 22.343C17.7965 22.4364 18 22.7132 18 23.0263C18 23.5092 17.5316 23.8536 17.0706 23.7096Z" fill="#FF0A47"/>
<path d="M30.0706 12.2904L23.5023 14.343C23.2035 14.4364 23 14.7132 23 15.0263C23 15.5092 23.4684 15.8536 23.9294 15.7096L30.4977 13.657C30.7965 13.5636 31 13.2868 31 12.9737C31 12.4908 30.5316 12.1464 30.0706 12.2904Z" fill="#FF0A47"/>
<path d="M17.0706 19.7096L10.5023 17.657C10.2035 17.5636 10 17.2868 10 16.9737C10 16.4908 10.4684 16.1464 10.9294 16.2904L17.4977 18.343C17.7965 18.4364 18 18.7132 18 19.0263C18 19.5092 17.5316 19.8536 17.0706 19.7096Z" fill="#FF0A47"/>
<path d="M30.0706 16.2904L23.5023 18.343C23.2035 18.4364 23 18.7132 23 19.0263C23 19.5092 23.4684 19.8536 23.9294 19.7096L30.4977 17.657C30.7965 17.5636 31 17.2868 31 16.9737C31 16.4908 30.5316 16.1464 30.0706 16.2904Z" fill="#FF0A47"/>
<path d="M17.0706 15.7096L10.5023 13.657C10.2035 13.5636 10 13.2868 10 12.9737C10 12.4908 10.4684 12.1464 10.9294 12.2904L17.4977 14.343C17.7965 14.4364 18 14.7132 18 15.0263C18 15.5092 17.5316 15.8536 17.0706 15.7096Z" fill="#FF0A47"/>
<path d="M30.0706 20.2904L23.5023 22.343C23.2035 22.4364 23 22.7132 23 23.0263C23 23.5092 23.4684 23.8536 23.9294 23.7096L30.4977 21.657C30.7965 21.5636 31 21.2868 31 20.9737C31 20.4908 30.5316 20.1464 30.0706 20.2904Z" fill="#FF0A47"/>
</svg>
