<svg xmlns="http://www.w3.org/2000/svg" width="40" height="40" fill="none" viewBox="0 0 40 40"><path fill="#FF0A47" fill-rule="evenodd" d="M16.62 6.65A1.35 1.35 0 0 0 15.27 8v2.614h10.46V8a1.35 1.35 0 0 0-1.35-1.35h-7.76Zm10.41 3.964V8a2.65 2.65 0 0 0-2.65-2.65h-7.76A2.65 2.65 0 0 0 13.97 8v2.614H9a4.65 4.65 0 0 0-4.65 4.65V30A4.65 4.65 0 0 0 9 34.65h23A4.65 4.65 0 0 0 36.65 30V15.264a4.65 4.65 0 0 0-4.65-4.65h-4.97ZM9 11.914a3.35 3.35 0 0 0-3.35 3.35V30c0 1.85 1.5 3.35 3.35 3.35h23c1.85 0 3.35-1.5 3.35-3.35V15.264c0-1.85-1.5-3.35-3.35-3.35H9Z" clip-rule="evenodd"/><path fill="#FF0A47" d="M19.047 22.281h2.633c.52 0 .958-.174 1.312-.523.354-.354.531-.792.531-1.313 0-.526-.177-.963-.53-1.312-.35-.354-.787-.531-1.313-.531h-2.633v3.68Zm2.633 1.602h-2.633V25h3.594v1.602h-3.594v1.601H17.28v-1.601H16V25h1.281v-1.117H16V22.28h1.281V17h4.399c1.036 0 1.896.33 2.578.992.682.662 1.023 1.48 1.023 2.453 0 .97-.34 1.784-1.023 2.446-.682.661-1.542.992-2.578.992Z"/></svg>