<svg xmlns="http://www.w3.org/2000/svg" xml:space="preserve" width="40" height="40" viewBox="0 0 40 40"><path fill="none" d="M29 35.7H11c-2.04 0-3.7-1.66-3.7-3.7V8c0-2.04 1.66-3.7 3.7-3.7h18c2.04 0 3.7 1.66 3.7 3.7v24c0 2.04-1.66 3.7-3.7 3.7zm-18-30A2.303 2.303 0 0 0 8.7 8v24c0 1.269 1.032 2.3 2.3 2.3h18c1.269 0 2.3-1.031 2.3-2.3V8c0-1.268-1.031-2.3-2.3-2.3H11zm15 10H14a.7.7 0 0 1-.7-.7v-2a.7.7 0 0 1 .7-.7h12a.7.7 0 0 1 .7.7v2a.7.7 0 0 1-.7.7zm-11.3-1.4h10.6v-.6H14.7v.6zm10.8 14.4c-.938 0-1.7-.763-1.7-1.7v-5c0-.938.763-1.7 1.7-1.7s1.7.763 1.7 1.7v5c0 .938-.762 1.7-1.7 1.7zm0-7a.3.3 0 0 0-.3.3v5c0 .165.135.3.3.3s.3-.135.3-.3v-5a.3.3 0 0 0-.3-.3zm-5 7c-.938 0-1.7-.763-1.7-1.7s.763-1.7 1.7-1.7 1.7.763 1.7 1.7-.762 1.7-1.7 1.7zm0-2a.3.3 0 1 0 0 .6.3.3 0 0 0 0-.6zm-5.5 2c-.938 0-1.7-.763-1.7-1.7s.763-1.7 1.7-1.7 1.7.763 1.7 1.7-.762 1.7-1.7 1.7zm0-2a.3.3 0 1 0 0 .6.3.3 0 0 0 0-.6zm5.5-3c-.938 0-1.7-.763-1.7-1.7s.763-1.7 1.7-1.7 1.7.763 1.7 1.7-.762 1.7-1.7 1.7zm0-2a.3.3 0 1 0 0 .6.3.3 0 0 0 0-.6zm-5.5 2c-.938 0-1.7-.763-1.7-1.7s.763-1.7 1.7-1.7 1.7.763 1.7 1.7-.762 1.7-1.7 1.7zm0-2a.3.3 0 1 0 0 .6.3.3 0 0 0 0-.6z"/></svg>
