<svg xmlns="http://www.w3.org/2000/svg" width="40" height="40" fill="none" viewBox="0 0 40 40"><path fill="#FF0A47" d="M25.7 12.485v-.723c-.018-.414-.31-.734-.685-.734-.687 0-1.392 0-2.068.085-.997.122-1.955.536-2.848 1.222l-.038.028-.037-.019c-.188-.103-.376-.206-.555-.3-.338-.188-.667-.376-1.006-.527-1.109-.507-2.321-.535-3.468-.489-.413.02-.695.339-.695.809v8.13c0 .489.31.808.808.808h.677c.131 0 .263 0 .404.01a4.798 4.798 0 0 1 3.13 1.278c.545.489.846.489 1.39-.01a4.869 4.869 0 0 1 1.617-.977c.828-.31 1.692-.3 2.463-.291.329 0 .554-.066.705-.207.15-.15.226-.385.226-.724v-7.369h-.02Zm-6.456 7.651-.104-.056c-.912-.526-1.945-.79-3.243-.818h-.065v-6.73h.065c.78-.009 1.533.15 2.228.47.019 0 .028.02.047.02.01.009.019.009.028.009h.01c1.024.526 1.043.554 1.043 1.7v5.405h-.01Zm4.934-.883h-.066c-1.297.028-2.33.291-3.242.817l-.113.066v-1.579c0-1.475 0-3.007-.01-4.502 0-.226.076-.367.254-.508.855-.667 1.87-.996 3.102-1.024h.075v6.73Z"/><path fill="#FF0A47" d="M33.756 27.627c.16-.347.244-.742.244-1.109V8.481c0-1.269-.79-2.199-2.068-2.443h-.01A.281.281 0 0 1 31.849 6H8.143c-.451.113-.884.235-1.25.545-.47.404-.752.884-.846 1.466-.01.047-.028.085-.038.113L6 8.143v18.714c.047.113.085.235.132.357.094.272.197.564.357.799.45.667 1.128.996 2.077.996h8.75l-.028.094c-.131.385-.253.761-.376 1.137-.122.367-.235.734-.357 1.1-.028.066-.047.141-.075.207-.075.225-.16.46-.226.695-.056.217-.188.264-.357.264-.395 0-.79-.01-1.184-.01-.395 0-.79 0-1.175.01-.517 0-.874.3-.874.742a.72.72 0 0 0 .188.508c.16.16.404.244.686.244h12.943c.385 0 .639-.132.78-.414.14-.263.122-.526-.057-.78-.15-.216-.366-.32-.676-.32h-.592c-.583 0-1.185 0-1.767.01-.207 0-.348-.047-.414-.3-.197-.621-.404-1.25-.611-1.88-.132-.405-.263-.818-.404-1.232l-.028-.094h8.76c1.09 0 1.851-.46 2.284-1.363ZM7.513 8.613c0-.752.339-1.08 1.09-1.08h22.803c.761 0 1.08.328 1.08 1.08v15.584H7.514V8.613Zm14.691 23.78v.103H17.75l.17-.507c.178-.555.347-1.072.525-1.598.047-.16.104-.32.16-.47.075-.216.15-.442.216-.668.047-.169.141-.235.32-.235h1.729a.39.39 0 0 1 .301.198c.348 1.034.696 2.077 1.025 3.102v.018a.12.12 0 0 1 .01.057ZM8.651 27.505c-.828 0-1.128-.31-1.128-1.146v-.62h24.982V26.151c0 .188 0 .376-.018.573-.029.404-.376.743-.809.79-.103.009-.206.009-.31.009H8.651v-.019Z"/></svg>
