<svg xmlns="http://www.w3.org/2000/svg" width="40" height="40" fill="none" viewBox="0 0 40 40"><path fill="#FF0A47" fill-rule="evenodd" d="M29.6 32.894V10.288a.6.6 0 0 0-.352-.546l-9-4.091a.6.6 0 0 0-.496 0l-9 4.09a.6.6 0 0 0-.352.547v22.606a.6.6 0 0 0 .848.546l7.345-3.338a3.4 3.4 0 0 1 2.814 0l7.345 3.338a.6.6 0 0 0 .848-.546ZM10.172 8.467A2 2 0 0 0 9 10.287v22.607a2 2 0 0 0 2.828 1.82l7.344-3.338a2 2 0 0 1 1.656 0l7.344 3.339A2 2 0 0 0 31 32.894V10.288a2 2 0 0 0-1.172-1.82l-9-4.092a2 2 0 0 0-1.656 0l-9 4.091Z" clip-rule="evenodd"/><path fill="#FF0A47" d="M15.908 15.886c-.212.22-.318.495-.318.827 0 .326.106.6.318.819.212.22.476.329.791.329.321 0 .587-.11.8-.33.211-.219.317-.491.317-.818 0-.332-.106-.607-.318-.827a1.065 1.065 0 0 0-.799-.329c-.315 0-.579.11-.79.33Zm1.113 9.865a.849.849 0 0 1-.726-1.289l5.959-9.813a.849.849 0 1 1 1.45.881l-5.958 9.813a.849.849 0 0 1-.725.408Zm1.587-10.932c.532.546.799 1.177.799 1.894 0 .712-.267 1.343-.8 1.894-.527.546-1.163.82-1.908.82-.74 0-1.375-.274-1.908-.82-.527-.55-.791-1.182-.791-1.894 0-.717.264-1.348.791-1.894.533-.546 1.169-.819 1.908-.819.745 0 1.381.273 1.909.819Zm5.484 9.287c.212-.22.318-.493.318-.819 0-.332-.106-.607-.318-.827a1.065 1.065 0 0 0-.8-.329c-.315 0-.578.11-.79.33-.212.219-.318.494-.318.826 0 .326.106.6.318.819.212.22.475.329.79.329.321 0 .588-.11.8-.33Zm-2.707 1.075c-.528-.55-.792-1.182-.792-1.894s.264-1.34.792-1.886c.532-.552 1.168-.827 1.908-.827.745 0 1.38.275 1.908.827.533.546.799 1.174.799 1.886s-.266 1.343-.799 1.894c-.527.546-1.163.819-1.908.819-.74 0-1.376-.273-1.908-.819Z"/></svg>