<svg width="40" height="40" viewBox="0 0 40 40" fill="none" xmlns="http://www.w3.org/2000/svg">
<path d="M10.1912 25.7992C12.4118 25.7992 14.6323 25.7992 16.8088 25.7992C17.5147 25.7992 18 25.4814 18 24.9992C18 24.528 17.5147 24.2102 16.8088 24.1992C16.0441 24.1992 15.2647 24.1992 14.5 24.1992H13.5H12.5147C11.7353 24.1992 10.9706 24.1992 10.1912 24.1992C9.47058 24.1992 9 24.517 9 24.9992C9 25.4814 9.48529 25.7992 10.1912 25.7992Z" fill="none"/>
<path d="M16.8232 13C16.0586 13 15.2939 13 14.5292 13H13.544H12.544C11.7646 13 10.9705 13 10.1911 13C9.47058 13 9 13.3178 9 13.8C9 14.2712 9.48528 14.6 10.1911 14.6C12.3822 14.6 14.6174 14.6 16.8085 14.6C17.5144 14.6 17.9997 14.2822 17.9997 13.8C18.0144 13.3178 17.5438 13 16.8232 13Z" fill="none"/>
<path d="M16.8088 18.5996C14.6029 18.5996 12.3971 18.5996 10.1912 18.5996C9.47058 18.5996 9 18.9174 9 19.3996C9 19.8708 9.48529 20.1996 10.1912 20.1996C10.9559 20.1996 11.7353 20.1996 12.5 20.1996H13.5H14.5C15.2647 20.1996 16.0441 20.1996 16.8088 20.1996C17.5294 20.1996 18 19.8818 18 19.3996C18 18.9174 17.5294 18.5996 16.8088 18.5996Z" fill="none"/>
<path d="M27.564 9.06366C28.5695 10.0804 29.0666 11.2892 29.0553 12.7466V16.6829C29.0553 17.8287 27.4059 17.8287 27.4059 16.6829V12.6336C27.4172 11.7073 27.0896 10.9277 26.4117 10.2386C25.0899 8.8716 23.7455 7.48202 22.6045 6.29579C21.9153 5.58405 21.1019 5.23383 20.0964 5.23383H20.0851H11.3071H7.66928C6.77679 5.23383 6.32489 5.68573 6.32489 6.57822V31.907C6.32489 32.8108 6.77679 33.2514 7.69188 33.2514L19.5199 33.2627C20.6284 33.2627 20.6486 34.9122 19.5199 34.9122C14.8805 34.897 12.241 34.9009 7.6015 34.9009C6.16673 34.9009 5.04828 34.0197 4.75455 32.6753C4.69806 32.4154 4.68677 32.133 4.68677 31.8619V6.63471C4.68677 4.99658 5.59056 3.87814 7.10441 3.6296C7.28517 3.5957 7.47723 3.5957 7.66928 3.5957H13.0807H20.119C21.5651 3.5957 22.7513 4.09279 23.7455 5.12086C24.0957 5.47108 24.4347 5.83259 24.7736 6.18281C25.6774 7.1318 26.6264 8.11467 27.564 9.06366Z" fill="none"/>
<path d="M22.3597 20.4836C22.5698 20.2031 22.8812 20 23.2316 20C23.7495 20 24.1694 20.4199 24.1694 20.9378V31.0248C24.1694 31.5634 23.7328 32 23.1942 32C22.6557 32 22.2191 31.5634 22.2191 31.0248V22.9205H20.678C20.3036 22.9205 20 22.6169 20 22.2425C20 21.8954 20.2637 21.6103 20.6037 21.5406C21.059 21.4472 21.4241 21.3075 21.699 21.1213C21.9483 20.9514 22.1686 20.7388 22.3597 20.4836Z" fill="none"/>
<path d="M29.1903 20.4836C29.4004 20.2031 29.7117 20 30.0622 20C30.5801 20 31 20.4199 31 20.9378V31.0248C31 31.5634 30.5634 32 30.0248 32C29.4862 32 29.0496 31.5634 29.0496 31.0248V22.9205H27.5086C27.1341 22.9205 26.8306 22.6169 26.8306 22.2425C26.8306 21.8954 27.0942 21.6103 27.4343 21.5406C27.8896 21.4472 28.2547 21.3075 28.5296 21.1213C28.7789 20.9514 28.9991 20.7388 29.1903 20.4836Z" fill="none"/>
</svg>
