<svg xmlns="http://www.w3.org/2000/svg" width="40" height="40" fill="none" viewBox="0 0 40 40"><path fill="#FF0A47" fill-rule="evenodd" d="M15.756 7.086A3.044 3.044 0 0 1 18.789 4.3h2.421a3.044 3.044 0 0 1 3.033 2.786c.652.214 1.282.477 1.885.783a3.044 3.044 0 0 1 4.116.173l1.713 1.713a3.044 3.044 0 0 1 .172 4.118 13.5 13.5 0 0 1 .78 1.883 3.045 3.045 0 0 1 2.791 3.033v2.422a3.044 3.044 0 0 1-2.796 3.034 13.468 13.468 0 0 1-.78 1.876 3.044 3.044 0 0 1-.166 4.124l-1.713 1.713a3.044 3.044 0 0 1-4.127.164c-.6.303-1.225.564-1.873.777a3.044 3.044 0 0 1-3.034 2.801h-2.422c-1.599 0-2.91-1.234-3.034-2.801a13.5 13.5 0 0 1-1.873-.777 3.044 3.044 0 0 1-4.127-.164l-1.713-1.713a3.044 3.044 0 0 1-.166-4.124c-.304-.6-.566-1.228-.78-1.876A3.044 3.044 0 0 1 4.3 21.21v-2.422a3.044 3.044 0 0 1 2.791-3.033c.214-.65.475-1.28.78-1.883a3.044 3.044 0 0 1 .171-4.118l1.712-1.713a3.044 3.044 0 0 1 4.117-.173 13.485 13.485 0 0 1 1.885-.783ZM18.789 5.7c-.908 0-1.644.736-1.644 1.644 0 .47-.311.872-.745 1.006-.727.225-1.425.516-2.088.867-.403.213-.909.149-1.243-.185a1.644 1.644 0 0 0-2.325 0l-1.712 1.712a1.644 1.644 0 0 0 0 2.325c.335.335.4.843.186 1.247-.348.66-.638 1.355-.861 2.08-.135.436-.54.75-1.013.75-.908 0-1.644.735-1.644 1.643v2.422c0 .908.736 1.644 1.644 1.644.476 0 .883.315 1.019.753.223.719.511 1.41.857 2.065.215.407.15.92-.188 1.258a1.644 1.644 0 0 0 0 2.325l.646.645c.28-4.327 3.3-7.911 7.36-9.105a4.986 4.986 0 1 1 5.926 0c4.058 1.194 7.079 4.778 7.358 9.105l.646-.645a1.644 1.644 0 0 0 0-2.325 1.071 1.071 0 0 1-.188-1.259c.347-.655.635-1.345.857-2.064a1.068 1.068 0 0 1 1.02-.753c.907 0 1.643-.736 1.643-1.644v-2.422c0-.908-.737-1.644-1.644-1.644-.474 0-.878-.313-1.013-.75a12.102 12.102 0 0 0-.862-2.08 1.062 1.062 0 0 1 .186-1.246 1.644 1.644 0 0 0 0-2.325l-1.712-1.712a1.644 1.644 0 0 0-2.325 0c-.334.334-.84.398-1.243.185-.663-.351-1.36-.642-2.088-.867a1.055 1.055 0 0 1-.745-1.006c0-.908-.736-1.644-1.644-1.644H18.79Zm10.877 24.858h-.723c0-4.842-3.993-8.787-8.943-8.787-4.95 0-8.943 3.945-8.943 8.787h-.723l.41.41a1.644 1.644 0 0 0 2.325 0c.34-.34.854-.404 1.264-.189.652.344 1.34.63 2.054.852.441.137.758.545.758 1.025 0 .908.736 1.644 1.644 1.644h2.422c.908 0 1.644-.736 1.644-1.644 0-.48.317-.888.758-1.025a12.096 12.096 0 0 0 2.055-.852c.409-.215.923-.15 1.263.19a1.644 1.644 0 0 0 2.324 0l.41-.411ZM20 20.37a3.586 3.586 0 1 0 0-7.171 3.586 3.586 0 0 0 0 7.171Z" clip-rule="evenodd"/></svg>