<svg xmlns="http://www.w3.org/2000/svg" width="40" height="40" fill="none" viewBox="0 0 40 40"><path fill="#FF0A47" d="m33.69 15.831.97-.366c.325-.13.638-.237.94-.377.26-.13.4-.355.4-.668a.699.699 0 0 0-.4-.678c-.097-.065-.194-.097-.324-.14a3945.22 3945.22 0 0 1-14.758-5.505 1.405 1.405 0 0 0-1.026 0c-5.322 1.993-9.76 3.641-13.678 5.095l-1.047.388c-.41.15-.637.345-.756.668 0 6.937 0 14.112-.011 21.167.022.022.032.054.054.097.01.022.032.054.054.076l.022.021a.81.81 0 0 0 .604.388.73.73 0 0 0 .637-.27.76.76 0 0 0 .108-.15l.032-.054c.033-.054.065-.108.108-.162l.13-.193.162.247c.021.033.032.054.054.087l.01.021.033.065.032.064c.184.259.432.377.735.334.323-.043.55-.226.626-.495a1.349 1.349 0 0 0-.043-.679c-.216-.679-.443-1.357-.67-2.025-.119-.345-.227-.7-.345-1.045l-.68-2.036a2.065 2.065 0 0 1-.098-.603v-13.53l.227.064c.033.011.076.022.108.033l.043.01c.022.011.043.011.065.022.032.01.065.022.086.033.162.053.324.118.497.183.162.064.324.118.497.183.69.258 1.5.56 2.288.85.324.108.378.335.378.55v3.07c0 1.002 0 2.047-.01 3.07 0 .851.313 1.573.96 2.198.778.743 1.77 1.282 3.153 1.702 3.627 1.088 7.438 1.174 11.325.28 1.544-.366 2.71-.873 3.67-1.584.972-.732 1.436-1.626 1.415-2.736-.011-.905-.011-1.831-.011-2.714V17.49c0-.28.097-.43.356-.527 1.123-.4 2.235-.82 3.077-1.132Zm-5.496 8.93c-.799.733-1.803 1.089-2.591 1.326-1.674.506-3.477.754-5.517.754-.443 0-.885-.011-1.339-.033-1.932-.097-3.54-.398-5.041-.97-.81-.312-1.393-.646-1.879-1.076a1.47 1.47 0 0 1-.518-1.164c.01-1.336.01-2.682.01-3.985v-1.929l.81.302c.27.097.53.194.8.29.69.248 1.338.496 1.986.744.248.097.507.194.766.28.26.097.519.194.767.29.874.324 1.867.701 3.034 1.143.356.14.68.14 1.036 0 .95-.356 1.91-.711 2.86-1.067.746-.28 1.48-.55 2.203-.83.421-.15.853-.311 1.274-.473.432-.162.853-.323 1.285-.474h.01l.325-.108.205-.064v.56c0 1.756 0 3.565.01 5.354.011.441-.15.818-.496 1.13ZM26.26 16.91l-1.651.614c-1.415.527-2.883 1.077-4.319 1.605a.74.74 0 0 1-.291.054.655.655 0 0 1-.26-.043c-1.63-.604-3.281-1.218-4.89-1.81-1.101-.41-2.192-.819-3.271-1.218l-1.263-.474a.492.492 0 0 1-.26-.193l-.194-.259h9.868c.119 0 .226 0 .334-.01a.795.795 0 0 0 .713-.798.771.771 0 0 0-.713-.754c-.108-.01-.215-.01-.334-.01H9.484l.637-.345c.076-.043.12-.065.162-.087l.011-.01 2.062-.765a1843.1 1843.1 0 0 1 4.912-1.831c.832-.302 1.652-.614 2.473-.916a.74.74 0 0 1 .507-.01c3.66 1.357 7.352 2.725 10.915 4.06l1.133.42c.065.022.13.054.249.108l.324.162-.378.15c-.033.011-.076.033-.108.044a1.797 1.797 0 0 0-.14.064l-.022.011c-1.9.732-3.844 1.465-5.96 2.24Z"/></svg>
