<svg xmlns="http://www.w3.org/2000/svg" xml:space="preserve" width="40" height="40" viewBox="0 0 40 40"><path fill="#FF0A47" d="M20 36c-8.822 0-16-7.178-16-16S11.178 4 20 4s16 7.178 16 16-7.178 16-16 16zm0-30.6C11.95 5.4 5.4 11.95 5.4 20c0 8.051 6.549 14.6 14.6 14.6 8.051 0 14.6-6.549 14.6-14.6 0-8.05-6.549-14.6-14.6-14.6zm-.75 17c0-.547.124-1.041.371-1.484.248-.449.547-.817.898-1.104s.703-.57 1.055-.85c.357-.28.658-.599.898-.957a2.09 2.09 0 0 0 .371-1.201c0-.56-.215-1.032-.645-1.416-.424-.391-.973-.586-1.65-.586-.43 0-.82.072-1.172.215-.352.137-.625.303-.82.498-.195.189-.355.381-.479.576s-.208.365-.254.508l-.078.205-1.797-.703.107-.361c.045-.15.186-.414.42-.791s.504-.709.811-.996.749-.55 1.328-.791 1.224-.361 1.934-.361c1.309 0 2.387.375 3.232 1.123.846.742 1.27 1.634 1.27 2.676 0 .736-.133 1.367-.4 1.895-.268.521-.592.938-.977 1.25-.377.306-.762.596-1.152.869a3.719 3.719 0 0 0-.977 1.035c-.268.41-.4.895-.4 1.455v.195h-1.797a4.795 4.795 0 0 1-.097-.899zm.088 4.414a1.247 1.247 0 0 1-.391-.908c0-.352.13-.658.391-.918a1.248 1.248 0 0 1 1.816 0c.26.26.391.566.391.918 0 .346-.131.648-.391.908a1.26 1.26 0 0 1-.908.381 1.26 1.26 0 0 1-.908-.381z"/></svg>
