<svg xmlns="http://www.w3.org/2000/svg" width="40" height="40" fill="none" viewBox="0 0 40 40"><path fill="#FF0A47" d="M11.663 29.214h-.01a.666.666 0 0 0-.665.648.654.654 0 0 0 .182.465c.128.137.301.21.484.21a.666.666 0 0 0 .657-.657.673.673 0 0 0-.648-.666Z"/><path fill="#FF0A47" d="M34.803 11.896c-.092-.374-.238-.557-.511-.639-.274-.073-.493.01-.767.283-.429.438-.858.867-1.295 1.296-.43.428-.858.857-1.287 1.295-.146.128-.283.21-.502.155-.392-.082-.784-.164-1.168-.237-.42-.082-.857-.173-1.286-.265-.137-.027-.274-.173-.31-.3a53.869 53.869 0 0 1-.238-1.178c-.082-.42-.173-.857-.264-1.277a.5.5 0 0 1 .155-.493l.876-.876c.575-.575 1.177-1.168 1.76-1.76.22-.22.302-.475.238-.703-.064-.238-.274-.41-.575-.493a7.342 7.342 0 0 0-2.856-.119 7.015 7.015 0 0 0-4.881 3.267 7.06 7.06 0 0 0-.703 5.849c.082.273.037.447-.173.638l-1.232 1.132-.091-.073c-.548-.42-1.095-.849-1.643-1.269L16.4 14.861c-.018-.009-.028-.027-.046-.036-.091-.073-.21-.165-.2-.393 0-.091.009-.173.009-.264.018-.447.036-.867-.037-1.278-.401-2.226-1.642-3.759-3.714-4.562-.848-.32-1.76-.365-2.655-.41h-.082C8.616 7.862 7.256 7.67 6.161 6.64a.608.608 0 0 0-.556-.164c-.21.045-.384.21-.475.429-.21.538-.365.994-.465 1.45-.082.338-.137.703-.192 1.05l-.082.529v1.469c0 .018.01.037.018.055.019.064.037.127.037.2.164 1.597.566 2.902 1.25 4.006 1.423 2.309 3.504 3.349 6.177 3.093.246-.027.374.091.475.21l.52.648c.593.748 1.213 1.515 1.825 2.263l.082.1-5.63 5.1a3.653 3.653 0 0 0-1.104 1.798c-.018.082-.046.164-.064.256a2.286 2.286 0 0 1-.064.237c0 .301 0 .611.037.903.018.064.027.119.045.183.028.11.055.228.091.328.484 1.515 1.47 2.4 3.02 2.692.055.009.11.027.147.045h.83c.027-.018.055-.036.1-.036.895-.128 1.67-.557 2.364-1.332a1452.33 1452.33 0 0 0 4.553-5.037l.1-.11.1.11a49.61 49.61 0 0 0 2.947 2.82c1.67 1.46 3.568 3.12 6.086 3.604.247 0 .511 0 .758-.019.009 0 .018-.009.036-.009.028-.009.064-.027.11-.036 1.131-.228 1.852-.904 2.117-2.026.219-.894-.055-1.743-.32-2.381-.547-1.314-1.396-2.418-2.162-3.322a42.111 42.111 0 0 0-4.352-4.425l-.1-.091.09-.1c.11-.12.22-.238.32-.356l.328-.356c.155-.164.31-.256.584-.164a6.831 6.831 0 0 0 3.248.264 7.086 7.086 0 0 0 4.8-3.047 6.98 6.98 0 0 0 1.013-5.575Zm-23.696 5.62c-.21 0-.411-.018-.62-.054-1.908-.32-3.267-1.406-4.025-3.23a9.003 9.003 0 0 1-.51-5.512.672.672 0 0 1 .036-.127c.009-.046.027-.092.036-.155l.046-.192.164.1c1.086.694 2.272.822 3.604.913.63.045 1.296.11 1.926.273a4.213 4.213 0 0 1 2.5 1.935c.575.958.766 2.071.547 3.12-.383 1.716-1.962 2.93-3.704 2.93Zm7.09 8.605c-.53.593-1.068 1.177-1.598 1.77a855.665 855.665 0 0 1-3.047 3.367c-.575.638-1.195.948-1.88.948-.219 0-.456-.036-.693-.1a2.333 2.333 0 0 1-1.66-1.706c-.21-.84.045-1.697.674-2.29.876-.83 1.798-1.652 2.692-2.455.301-.264.593-.529.885-.794l2.044-1.843.091.11a82 82 0 0 0 2.482 2.82l.082.09-.073.083Zm8.941-.347c1.04 1.14 1.852 2.144 2.445 3.321.229.438.393.913.493 1.405.1.52-.009.977-.32 1.305-.255.274-.629.41-1.049.41-.09 0-.191-.009-.291-.027-.904-.146-1.661-.538-2.528-1.095-1.651-1.076-3.084-2.4-4.27-3.558a68.093 68.093 0 0 1-1.423-1.433l-1.114-1.177c-.21-.228-5.164-5.575-5.547-6.56l-.046-.11.1-.054c.904-.53 1.57-1.205 2.035-2.063l.064-.118.119.064c1.314.693 6.542 5.137 6.597 5.182l1.213 1.059a43.797 43.797 0 0 1 3.522 3.449Zm6.56-12.044c-.036.173-.063.346-.09.51-.055.32-.11.64-.201.959a5.716 5.716 0 0 1-3.03 3.53 5.774 5.774 0 0 1-4.699.092c-.538-.228-.693-.192-1.085.237-.238.256-.484.52-.712.785-.128.137-.247.274-.374.41l-.092.101-.73-.602c-.574-.466-1.131-.913-1.715-1.369l-.128-.1.119-.11c.246-.219.493-.438.73-.657.246-.219.493-.447.739-.666.392-.356.438-.556.219-1.05-.74-1.742-.602-3.649.374-5.255.976-1.596 2.619-2.591 4.508-2.728.054-.009.109-.009.173 0h.474l-.237.237c-.182.183-.356.365-.53.539-.428.438-.83.848-1.258 1.231-.356.32-.447.648-.338 1.132.164.748.32 1.505.465 2.245.073.374.146.748.229 1.122.082.401.237.556.638.638 1.114.22 2.281.448 3.55.712.319.064.565-.009.794-.237.374-.374.748-.757 1.122-1.122l.556-.557c.046-.036.073-.064.11-.1.036-.037.073-.064.11-.1l.054-.046.073.018c.037.01.073.018.1.027l.12.037-.037.137Z"/><path fill="#FF0A47" fill-rule="evenodd" d="M5.583 6.378a.707.707 0 0 1 .647.19c1.067 1.004 2.394 1.195 3.447 1.25h.101c.886.046 1.808.093 2.669.416 2.104.816 3.369 2.379 3.776 4.639.074.416.057.84.04 1.277l-.002.02c0 .047-.002.092-.004.134-.003.044-.005.086-.005.128v.004a.314.314 0 0 0 .047.196.49.49 0 0 0 .11.11c.018.01.031.024.036.029l.002.001.002.002.003.002.007.006.826.634.826.634c.274.21.548.422.821.634.274.212.548.425.821.634l.002.002.024.019 1.169-1.073a.514.514 0 0 0 .167-.241.532.532 0 0 0-.021-.295 7.159 7.159 0 0 1 .712-5.93 7.115 7.115 0 0 1 4.951-3.313 7.444 7.444 0 0 1 2.896.12h.002c.322.088.569.28.645.563.076.272-.026.563-.262.8-.391.397-.79.794-1.184 1.185l-.578.576-.876.876c-.088.089-.172.21-.128.4.092.42.183.86.265 1.28.073.39.155.78.236 1.172a.364.364 0 0 0 .092.142.299.299 0 0 0 .141.085h.001c.429.092.866.183 1.285.265.384.073.777.155 1.17.237l.003.001c.092.023.16.017.22-.006a.636.636 0 0 0 .19-.125c.427-.437.856-.865 1.283-1.293l.002-.001c.437-.428.865-.857 1.294-1.294.142-.143.277-.243.42-.295a.709.709 0 0 1 .443-.015l.003.001a.724.724 0 0 1 .374.243c.094.119.158.274.206.468a7.08 7.08 0 0 1-1.027 5.655 7.185 7.185 0 0 1-4.867 3.09 6.93 6.93 0 0 1-3.296-.269.41.41 0 0 0-.272-.014.538.538 0 0 0-.207.152l-.327.354c-.1.12-.211.24-.32.357l-.074-.067.074.067-.024.026.026.023-.067.075.068-.074a42.2 42.2 0 0 1 4.36 4.435L14.98 14.142a4.263 4.263 0 0 1-.071.466v.001c-.307 1.373-1.358 2.431-2.652 2.832l-.102-.177c1.248-.37 2.264-1.384 2.558-2.698a4.079 4.079 0 0 0 .077-1.114 4.324 4.324 0 0 0-.612-1.934 4.114 4.114 0 0 0-2.44-1.889c-.62-.162-1.278-.225-1.907-.27a37.662 37.662 0 0 1-.709-.057l-.279-.23c-.926-.107-1.768-.307-2.555-.81l-.283-.173-.078.325-.002.01a.576.576 0 0 1-.015.072l-.004.013-.014.055a.776.776 0 0 0-.039.136 9.103 9.103 0 0 0 .517 5.57c.77 1.856 2.158 2.965 4.1 3.29.214.038.42.056.636.056.396 0 .783-.06 1.151-.175l2.513 4.373.142.174-.276.25.063-.198-.002.001-.06-.073-.022-.027a199.652 199.652 0 0 1-1.826-2.264l-.519-.646a.553.553 0 0 0-.153-.136.38.38 0 0 0-.233-.038h-.002c-1.352.129-2.56-.07-3.611-.595a5.77 5.77 0 0 1-.75-.45c-.731-.518-1.369-1.217-1.91-2.095-.694-1.12-1.1-2.44-1.265-4.048v-.01a.585.585 0 0 0-.03-.165.21.21 0 0 1-.025-.091V9.926l.001-.008a67.79 67.79 0 0 0 .082-.529l.014-.087c.05-.32.103-.656.18-.97.101-.462.258-.924.469-1.464v-.002c.102-.242.298-.434.546-.488Zm9.053 15.86-.673 2.134 1.661-1.498.158.19a81.737 81.737 0 0 0 2.479 2.815v.001l.142.158-.132.149c-.265.297-.532.592-.8.886-.266.294-.533.588-.797.884-.553.614-1.117 1.24-1.685 1.866l1.653.166-2.021 2.23c-.707.79-1.504 1.233-2.424 1.364h-.014a.04.04 0 0 0-.017.004.176.176 0 0 0-.028.017l-.025.016h-.884l-.021-.01a.451.451 0 0 0-.118-.036h-.002c-.79-.15-1.442-.45-1.958-.912-.517-.46-.892-1.076-1.138-1.847a2.977 2.977 0 0 1-.082-.29l-.011-.044a1.877 1.877 0 0 1-.024-.094 1.724 1.724 0 0 0-.022-.087l-.002-.008v-.007c-.038-.299-.038-.614-.038-.913v-.02l.005-.015c.026-.077.043-.146.061-.226v-.001l.009.002.191.019.026-.105.004-.014.029-.111a3.554 3.554 0 0 1 1.074-1.748l5.424-4.915Zm8.24 8.376c1.506 1.288 3.236 2.6 5.438 3.023l.01.002h.011c.245 0 .512 0 .761-.019a.123.123 0 0 0 .035-.007l.005-.002h.007l.016-.005.01-.004.017-.006.006-.002.018-.007a.303.303 0 0 1 .046-.014c.581-.117 1.062-.35 1.433-.703.37-.353.626-.82.762-1.397l-1.31-.131a1.75 1.75 0 0 0 .033-.86v-.002a5.458 5.458 0 0 0-.502-1.43c-.599-1.19-1.418-2.201-2.46-3.344a43.913 43.913 0 0 0-3.53-3.456l-1.214-1.059-.002-.001-.03-.026a200.214 200.214 0 0 0-2.797-2.324 91.015 91.015 0 0 0-2.195-1.74c-.675-.514-1.255-.927-1.592-1.105l-.206-.11-.11.206c-.457.84-1.109 1.502-1.997 2.023l-.178.097.08.191c.053.137.18.337.351.576.174.244.402.536.663.859a72.376 72.376 0 0 0 1.842 2.158 185.682 185.682 0 0 0 2.672 2.956l.039.042v.001l1.114 1.178c.42.438.878.896 1.426 1.434 1.075 1.05 2.355 2.239 3.82 3.257l-2.491-.25Zm-3.602-3.54-.074.08-.074-.08.074-.068.074.067ZM15.71 16.185l.017-.03.03.016c.32.169.887.572 1.564 1.087a90.713 90.713 0 0 1 2.191 1.737 198.684 198.684 0 0 1 2.794 2.32l.03.026.002.001L23.55 22.4a43.7 43.7 0 0 1 3.514 3.441c1.039 1.139 1.843 2.134 2.43 3.3.224.43.385.895.484 1.379.057.297.042.567-.04.801-.056.156-.14.296-.254.416-.233.249-.578.379-.977.379a1.56 1.56 0 0 1-.274-.026h-.002c-.882-.143-1.626-.527-2.489-1.08l-.158-.105c-1.576-1.052-2.95-2.321-4.096-3.442a67.873 67.873 0 0 1-1.421-1.43l-1.113-1.176-.038-.042c-.248-.268-1.449-1.57-2.669-2.952a72.018 72.018 0 0 1-1.837-2.152c-.26-.321-.484-.61-.655-.849-.173-.241-.285-.423-.328-.533l-.012-.029.021-.012.003-.001c.918-.538 1.598-1.226 2.072-2.101Zm11.979-8.27a.452.452 0 0 0-.143 0l-.01.001c-1.856.135-3.47 1.112-4.429 2.68-.959 1.578-1.094 3.451-.367 5.164.11.249.166.448.125.637-.04.189-.17.346-.369.526v.001l-.37.332c-.122.112-.246.224-.37.333-.237.22-.483.439-.729.657l-.032.03.036.027c.584.457 1.141.905 1.716 1.37l.657.542.028-.03c.064-.068.125-.136.186-.205l.187-.205c.221-.256.46-.512.688-.759l.025-.026c.195-.213.35-.354.54-.395.19-.042.39.02.658.133a5.674 5.674 0 0 0 4.617-.09 5.617 5.617 0 0 0 2.976-3.468 8.84 8.84 0 0 0 .199-.947l.011-.07c.024-.143.049-.294.08-.445l.002-.005.012-.044-.03-.009a1.397 1.397 0 0 0-.092-.025l-.024-.006-.012.01c-.02.02-.039.036-.056.051-.02.017-.035.03-.05.046l-.001.001a1.27 1.27 0 0 1-.113.104l-.553.552v.001c-.25.243-.498.493-.747.744l-.375.378a.96.96 0 0 1-.405.253.98.98 0 0 1-.48.011c-1.154-.24-2.226-.452-3.25-.653l-.298-.058c-.209-.043-.371-.108-.49-.227-.12-.12-.185-.281-.227-.49-.083-.375-.156-.75-.229-1.123l.003-.009.117-.413a103.8 103.8 0 0 0-.39-1.864 1.765 1.765 0 0 1-.031-.181l-.164.225c-.057-.252-.064-.473-.004-.678a1.19 1.19 0 0 1 .373-.55c.422-.377.817-.781 1.242-1.215l.012-.012.001-.001.248-.252.1-.354ZM16.525 27.824a1001.373 1001.373 0 0 1-3.047 3.367c-.561.623-1.156.915-1.806.915a2.79 2.79 0 0 1-.667-.097 2.233 2.233 0 0 1-1.59-1.633 2.248 2.248 0 0 1 .001-1.111c.105-.405.325-.78.646-1.083.777-.736 1.59-1.465 2.389-2.182l.3-.27.886-.794.208-.188 1.759-1.586.025.03c.886 1.05 1.699 1.973 2.485 2.823l.021.024-.013.015c-.265.296-.531.59-.798.885-.267.294-.534.588-.799.885Z" clip-rule="evenodd"/><path fill="#FF0A47" d="M10.47 17.56c.214.038.42.056.636.056.396 0 .783-.06 1.151-.175l-.102-.177c-.336.1-.689.152-1.048.152-.204 0-.4-.018-.604-.053-.798.008-2.705-.616-3.949-3.17a8.899 8.899 0 0 1-.505-5.451V8.74a.573.573 0 0 1 .032-.11l.003-.009.002-.009.011-.045.005-.019a.784.784 0 0 0 .02-.092l.013-.053.046.028c.91.58 1.886.771 2.941.871l-.279-.23c-.926-.107-1.768-.307-2.555-.81l-.283-.173-.078.325-.002.01a.576.576 0 0 1-.015.072l-.004.013-.014.055a.776.776 0 0 0-.039.136 9.103 9.103 0 0 0 .517 5.57c.77 1.856 2.158 2.965 4.1 3.29ZM25.88 10.752l-.163.226.468 2.233.117-.413a103.8 103.8 0 0 0-.39-1.864 1.765 1.765 0 0 1-.031-.181Z"/></svg>
