<svg xmlns="http://www.w3.org/2000/svg" width="40" height="40" fill="none" viewBox="0 0 40 40"><path fill="#FF0A47" fill-rule="evenodd" d="M20.405 2.3a.7.7 0 0 1 .7.7v3.243a.7.7 0 1 1-1.4 0V3a.7.7 0 0 1 .7-.7ZM9.034 7.034a.7.7 0 0 1 .99 0l2.293 2.293a.7.7 0 0 1-.99.99L9.034 8.024a.7.7 0 0 1 0-.99Zm21.932 0a.7.7 0 0 1 0 .99l-2.293 2.293a.7.7 0 1 1-.99-.99l2.293-2.293a.7.7 0 0 1 .99 0Zm-10.56 3.153a7.408 7.408 0 0 0-4.878 12.983c.053.047.123.111.193.19.323.368 1.504 1.852 1.96 4.353a2.312 2.312 0 0 1 1.103-.278h3.243c.396 0 .769.1 1.095.274.463-2.643 1.714-4.088 2.008-4.396.05-.052.097-.094.13-.122a7.408 7.408 0 0 0-4.854-13.004Zm2.543 19.57a.922.922 0 0 0-.922-.922h-3.243a.922.922 0 0 0-.922.922v1.621c0 .51.413.922.922.922h3.243a.922.922 0 0 0 .922-.922v-1.621Zm-6.487 0c0-3.287-1.524-5.166-1.793-5.473a.74.74 0 0 0-.064-.06 8.808 8.808 0 1 1 11.573.024l-.46-.529.46.529a.564.564 0 0 0-.034.03c-.199.209-1.795 1.99-1.795 5.479v1.621a2.322 2.322 0 0 1-2.322 2.322h-3.243a2.322 2.322 0 0 1-2.322-2.322v-1.621ZM19.3 12.73a.7.7 0 0 1 .7-.7A5.97 5.97 0 0 1 25.97 18a.7.7 0 1 1-1.4 0A4.57 4.57 0 0 0 20 13.43a.7.7 0 0 1-.7-.7Zm11.757 4.865a.7.7 0 0 1 .7-.7H35a.7.7 0 1 1 0 1.4h-3.243a.7.7 0 0 1-.7-.7Zm-26.757 0a.7.7 0 0 1 .7-.7h3.243a.7.7 0 1 1 0 1.4H5a.7.7 0 0 1-.7-.7Zm23.383 8.088a.7.7 0 0 1 .99 0l2.293 2.293a.7.7 0 1 1-.99.99l-2.293-2.293a.7.7 0 0 1 0-.99Zm-15.366 0a.7.7 0 0 1 0 .99l-2.293 2.293a.7.7 0 0 1-.99-.99l2.293-2.293a.7.7 0 0 1 .99 0Z" clip-rule="evenodd"/></svg>