<svg xmlns="http://www.w3.org/2000/svg" width="40" height="40" fill="none" viewBox="0 0 40 40"><path fill="#FF0A47" fill-rule="evenodd" d="M13.148 7.65A1.7 1.7 0 0 1 14.81 6.3h9.99a1.7 1.7 0 0 1 1.486 2.526l-5.85 10.528a.3.3 0 0 0 .262.446h4.992c1.337 0 2.15 1.472 1.44 2.604l-9.953 15.85c-.982 1.566-3.404.66-3.119-1.166l1.569-10.042a.3.3 0 0 0-.296-.346h-4.1a1.7 1.7 0 0 1-1.663-2.05l3.579-17Zm1.663.05a.3.3 0 0 0-.293.238l-3.58 17a.3.3 0 0 0 .294.362h4.1a1.7 1.7 0 0 1 1.68 1.962l-1.57 10.042a.28.28 0 0 0 .033.206.32.32 0 0 0 .159.122.32.32 0 0 0 .199.011.282.282 0 0 0 .16-.133l9.952-15.85a.3.3 0 0 0-.254-.46H20.7a1.7 1.7 0 0 1-1.487-2.526l5.85-10.528A.3.3 0 0 0 24.8 7.7h-9.99Zm16.155 2.805a.7.7 0 0 1 0 .99l-2.293 2.293a.7.7 0 0 1-.99-.99l2.293-2.293a.7.7 0 0 1 .99 0ZM31.056 22a.7.7 0 0 1 .7-.7H35a.7.7 0 1 1 0 1.4h-3.243a.7.7 0 0 1-.7-.7Zm-3.373 7.505a.7.7 0 0 1 .99 0l2.293 2.293a.7.7 0 0 1-.99.99l-2.293-2.293a.7.7 0 0 1 0-.99Z" clip-rule="evenodd"/></svg>