<svg xmlns="http://www.w3.org/2000/svg" xml:space="preserve" width="40" height="40" viewBox="0 0 40 40"><path fill="#FF0A47" d="M21.172 16h-1.344c-.743 0-1.345.602-1.345 1.345v3.138h-3.138c-.743 0-1.345.602-1.345 1.345v1.344c0 .743.602 1.346 1.345 1.346h3.138v3.138c0 .743.602 1.345 1.345 1.345h1.344c.743 0 1.346-.602 1.346-1.345v-3.138h3.138c.743 0 1.345-.603 1.345-1.346v-1.344c0-.743-.602-1.345-1.345-1.345h-3.138v-3.138c0-.743-.603-1.345-1.346-1.345zM32 34.65H9A4.655 4.655 0 0 1 4.35 30V15.264A4.655 4.655 0 0 1 9 10.614h4.971V8a2.653 2.653 0 0 1 2.65-2.65h7.758A2.653 2.653 0 0 1 27.029 8v2.614H32a4.655 4.655 0 0 1 4.65 4.65V30A4.655 4.655 0 0 1 32 34.65zM9 11.914a3.354 3.354 0 0 0-3.35 3.35V30A3.353 3.353 0 0 0 9 33.35h23A3.353 3.353 0 0 0 35.35 30V15.264a3.353 3.353 0 0 0-3.35-3.35h-5.621v-.65.65H9zm6.271-1.3h10.458V8a1.35 1.35 0 0 0-1.35-1.35h-7.758A1.35 1.35 0 0 0 15.271 8v2.614z"/></svg>
