<svg xmlns="http://www.w3.org/2000/svg" width="40" height="40" fill="none" viewBox="0 0 40 40"><path fill="#FF0A47" fill-rule="evenodd" d="M28.7 7.087v21.826l-20.018-5.39C7.289 23.147 6.3 21.91 6.3 20.475v-4.95c0-1.437.989-2.674 2.382-3.049L28.7 7.086Zm-1.4 1.826L9.046 13.828c-.81.218-1.346.922-1.346 1.696v4.951c0 .774.536 1.478 1.346 1.696L27.3 27.087V8.913Z" clip-rule="evenodd"/><path fill="#FF0A47" fill-rule="evenodd" d="M30 5.7c-.826 0-1.3.55-1.3 1.007v22.586c0 .456.474 1.007 1.3 1.007.826 0 1.3-.55 1.3-1.007V6.707c0-.456-.474-1.007-1.3-1.007Zm-2.7 1.007C27.3 5.278 28.617 4.3 30 4.3c1.383 0 2.7.978 2.7 2.407v22.586c0 1.429-1.317 2.407-2.7 2.407-1.383 0-2.7-.978-2.7-2.407V6.707ZM12.7 24v8.281c0 .467.479 1.019 1.3 1.019.822 0 1.3-.552 1.3-1.019v-7.324h1.4v7.324c0 1.432-1.312 2.419-2.7 2.419-1.388 0-2.7-.987-2.7-2.419V24h1.4Z" clip-rule="evenodd"/></svg>