<svg xmlns="http://www.w3.org/2000/svg" xml:space="preserve" width="40" height="40" viewBox="0 0 40 40"><path fill="none" d="M17 19H9c-1.103 0-2-.897-2-2V9c0-1.103.897-2 2-2h8c1.103 0 2 .897 2 2v8c0 1.103-.897 2-2 2zM9 8.4a.6.6 0 0 0-.6.6v8a.6.6 0 0 0 .6.6h8a.6.6 0 0 0 .6-.6V9a.6.6 0 0 0-.6-.6H9zM17 33H9c-1.103 0-2-.897-2-2v-8c0-1.103.897-2 2-2h8c1.103 0 2 .897 2 2v8c0 1.103-.897 2-2 2zM9 22.4a.6.6 0 0 0-.6.6v8a.6.6 0 0 0 .6.6h8a.6.6 0 0 0 .6-.6v-8a.6.6 0 0 0-.6-.6H9zM31 19h-8c-1.103 0-2-.897-2-2V9c0-1.103.897-2 2-2h8c1.103 0 2 .897 2 2v8c0 1.103-.897 2-2 2zM23 8.4a.6.6 0 0 0-.6.6v8a.6.6 0 0 0 .6.6h8a.6.6 0 0 0 .6-.6V9a.6.6 0 0 0-.6-.6h-8zM31 33h-8c-1.103 0-2-.897-2-2v-8c0-1.103.897-2 2-2h8c1.103 0 2 .897 2 2v8c0 1.103-.897 2-2 2zm-8-10.6a.6.6 0 0 0-.6.6v8a.6.6 0 0 0 .6.6h8a.6.6 0 0 0 .6-.6v-8a.6.6 0 0 0-.6-.6h-8z"/></svg>
