<svg xmlns="http://www.w3.org/2000/svg" width="40" height="40" fill="none" viewBox="0 0 40 40"><path fill="#FF0A47" fill-rule="evenodd" d="M5.3 12A2.7 2.7 0 0 1 8 9.3h24a2.7 2.7 0 0 1 2.7 2.7v14.842a2.7 2.7 0 0 1-2.7 2.7h-7.53a1.3 1.3 0 0 0-1.149.69l-1.82 3.43c-.638 1.205-2.364 1.205-3.003 0l-1.82-3.43a1.3 1.3 0 0 0-1.148-.69H8a2.7 2.7 0 0 1-2.7-2.7V12ZM8 10.7A1.3 1.3 0 0 0 6.7 12v14.842a1.3 1.3 0 0 0 1.3 1.3h7.53c1 0 1.917.552 2.386 1.435l1.819 3.43a.3.3 0 0 0 .53 0l1.82-3.43a2.7 2.7 0 0 1 2.385-1.435H32a1.3 1.3 0 0 0 1.3-1.3V12a1.3 1.3 0 0 0-1.3-1.3H8Zm4 8a.3.3 0 1 0 0 .6.3.3 0 0 0 0-.6Zm-1.7.3a1.7 1.7 0 1 1 3.4 0 1.7 1.7 0 0 1-3.4 0Zm9.7-.3a.3.3 0 1 0 0 .6.3.3 0 0 0 0-.6Zm-1.7.3a1.7 1.7 0 1 1 3.4 0 1.7 1.7 0 0 1-3.4 0Zm9.7-.3a.3.3 0 1 0 0 .6.3.3 0 0 0 0-.6Zm-1.7.3a1.7 1.7 0 1 1 3.4 0 1.7 1.7 0 0 1-3.4 0Z" clip-rule="evenodd"/></svg>