<svg width="40" height="40" viewBox="0 0 40 40" fill="none" xmlns="http://www.w3.org/2000/svg">
<path d="M25.7007 12.4845C25.7007 12.3999 25.7007 12.3153 25.7007 12.2308C25.7007 12.071 25.7007 11.9206 25.7007 11.7608C25.6819 11.3472 25.3905 11.0277 25.0146 11.0277C24.3284 11.0277 23.6235 11.0277 22.9468 11.1123C21.9504 11.2344 20.9917 11.648 20.0988 12.3341L20.0612 12.3623L20.0236 12.3435C19.8356 12.2401 19.6477 12.1368 19.4691 12.0428C19.1307 11.8548 18.8017 11.6668 18.4634 11.5164C17.3543 11.0089 16.1418 10.9807 14.9951 11.0277C14.5815 11.0465 14.2996 11.366 14.2996 11.836V19.9662C14.2996 20.455 14.6097 20.7746 15.1079 20.7746C15.2583 20.7746 15.4181 20.7746 15.5684 20.7746C15.6436 20.7746 15.7094 20.7746 15.7846 20.7746C15.9162 20.7746 16.0478 20.7746 16.1888 20.784C17.3919 20.831 18.4446 21.2633 19.3187 22.0622C19.8638 22.551 20.1646 22.551 20.7098 22.0528C21.1703 21.6299 21.7155 21.3009 22.3264 21.0753C23.1535 20.7652 24.0183 20.7746 24.789 20.784C25.118 20.784 25.3435 20.7182 25.4939 20.5772C25.6443 20.4268 25.7195 20.1918 25.7195 19.8534V12.4845H25.7007ZM19.2435 20.1354L19.1401 20.079C18.2284 19.5527 17.1945 19.2895 15.8974 19.2613H15.8316V12.5315H15.8974C16.6775 12.5221 17.4295 12.6819 18.125 13.0015C18.1438 13.0015 18.1532 13.0203 18.172 13.0203C18.1814 13.0297 18.1908 13.0297 18.2002 13.0297H18.2096C19.2341 13.556 19.2529 13.5842 19.2529 14.7309V20.1354H19.2435ZM24.178 19.2519H24.1123C22.8152 19.2801 21.7813 19.5433 20.8696 20.0696L20.7568 20.1354V18.5564C20.7568 17.0807 20.7568 15.5486 20.7474 14.0542C20.7474 13.8286 20.8226 13.6876 21.0011 13.5466C21.8565 12.8793 22.8716 12.5503 24.1029 12.5221H24.178V19.2519Z" fill="none"/>
<path d="M33.7556 27.6274C33.9154 27.2796 34 26.8849 34 26.5183V8.48137C34 7.21249 33.2105 6.28198 31.9322 6.0376H31.9228C31.8946 6.0282 31.8758 6.0188 31.8476 6H8.143C7.69184 6.11279 7.25948 6.23498 6.89292 6.54515C6.42296 6.94932 6.14099 7.42867 6.047 8.01142C6.0376 8.05841 6.0188 8.09601 6.0094 8.12421L6 8.14301V26.8567C6.047 26.9695 6.08459 27.0916 6.13159 27.2138C6.22558 27.4864 6.32897 27.7778 6.48875 28.0128C6.93991 28.6801 7.61665 29.0091 8.56596 29.0091H17.3166L17.2884 29.1031C17.1568 29.4884 17.0346 29.8644 16.9124 30.2404C16.7902 30.6069 16.6774 30.9735 16.5552 31.3401C16.527 31.4058 16.5082 31.481 16.48 31.5468C16.4048 31.7724 16.3202 32.0074 16.2544 32.2424C16.1981 32.4585 16.0665 32.5055 15.8973 32.5055C15.5025 32.5055 15.1078 32.4961 14.713 32.4961C14.3182 32.4961 13.9235 32.4961 13.5381 32.5055C13.0211 32.5055 12.664 32.8063 12.664 33.2481C12.664 33.4549 12.7298 33.624 12.852 33.7556C13.0117 33.9154 13.2561 34 13.5381 34H26.4807C26.8661 34 27.1198 33.8684 27.2608 33.5864C27.4018 33.3233 27.383 33.0601 27.2044 32.8063C27.054 32.5901 26.8379 32.4867 26.5277 32.4867C26.3303 32.4867 26.1329 32.4867 25.9356 32.4867C25.3528 32.4867 24.7513 32.4867 24.1685 32.4961C23.9617 32.4961 23.8207 32.4492 23.755 32.1954C23.5576 31.575 23.3508 30.9453 23.144 30.3155C23.0124 29.9114 22.8808 29.4978 22.7398 29.0843L22.7116 28.9903H31.4716C32.5619 28.9903 33.3233 28.5297 33.7556 27.6274ZM7.51326 8.61296C7.51326 7.86103 7.85163 7.53206 8.60356 7.53206H31.4058C32.1672 7.53206 32.4867 7.86103 32.4867 8.61296V24.1967H7.51326V8.61296ZM22.2041 32.3928C22.2041 32.4022 22.2041 32.4116 22.2041 32.421V32.4961H17.7489L17.9181 31.9886C18.0967 31.434 18.2659 30.9171 18.4444 30.3907C18.4914 30.231 18.5478 30.0712 18.6042 29.9208C18.6794 29.7046 18.7546 29.479 18.8204 29.2534C18.8674 29.0843 18.9614 29.0185 19.14 29.0185C19.4314 29.0185 19.7227 29.0185 20.0047 29.0185C20.2867 29.0185 20.5874 29.0185 20.8694 29.0185C20.9728 29.0185 21.1232 29.1125 21.1702 29.2158C21.518 30.2498 21.8657 31.2931 22.1947 32.3176V32.3364C22.2041 32.3552 22.2041 32.374 22.2041 32.3928ZM8.65055 27.5052C7.82343 27.5052 7.52266 27.195 7.52266 26.3585V25.7382H32.5055V25.8134C32.5055 25.9262 32.5055 26.0389 32.5055 26.1517C32.5055 26.3397 32.5055 26.5277 32.4867 26.7251C32.4585 27.1292 32.1108 27.4676 31.6784 27.5146C31.575 27.524 31.4716 27.524 31.3682 27.524H8.65055V27.5052Z" fill="none"/>
</svg>
