<svg width="40" height="40" viewBox="0 0 40 40" fill="none" xmlns="http://www.w3.org/2000/svg">
<path d="M10.4559 27C13.1699 27 15.884 27 18.5441 27C19.4069 27 20 26.6027 20 26C20 25.411 19.4069 25.0137 18.5441 25C17.6095 25 16.6569 25 15.7222 25H14.5H13.2957C12.3431 25 11.4085 25 10.4559 25C9.57516 25 9 25.3973 9 26C9 26.6027 9.59313 27 10.4559 27Z" fill="none"/>
<path d="M18.5617 13C17.6271 13 16.6925 13 15.7579 13H14.5537H13.3315C12.379 13 11.4084 13 10.4558 13C9.57515 13 9 13.3973 9 14C9 14.589 9.59312 15 10.4558 15C13.1338 15 15.8658 15 18.5438 15C19.4065 15 19.9996 14.6027 19.9996 14C20.0176 13.3973 19.4424 13 18.5617 13Z" fill="none"/>
<path d="M18.5441 19C15.848 19 13.152 19 10.4559 19C9.57516 19 9 19.3973 9 20C9 20.589 9.59313 21 10.4559 21C11.3905 21 12.3431 21 13.2778 21H14.5H15.7222C16.6569 21 17.6095 21 18.5441 21C19.4248 21 20 20.6027 20 20C20 19.3973 19.4248 19 18.5441 19Z" fill="none"/>
<path d="M27.564 9.06366C28.5695 10.0804 29.0666 11.2892 29.0553 12.7466V16.6829C29.0553 17.8287 27.4059 17.8287 27.4059 16.6829V12.6336C27.4172 11.7073 27.0896 10.9277 26.4117 10.2386C25.0899 8.8716 23.7455 7.48202 22.6045 6.29579C21.9153 5.58405 21.1019 5.23383 20.0964 5.23383H20.0851H11.3071H7.66928C6.77679 5.23383 6.32489 5.68573 6.32489 6.57822V31.907C6.32489 32.8108 6.77679 33.2514 7.69188 33.2514H17.9725V33.2627H21.5199C22.6284 33.2627 22.6486 34.9122 21.5199 34.9122C18.0635 34.9009 15.5331 34.9009 12.1335 34.9009H12.1318H7.6015C6.16673 34.9009 5.04828 34.0197 4.75455 32.6753C4.69806 32.4154 4.68677 32.133 4.68677 31.8619V6.63471C4.68677 4.99658 5.59056 3.87814 7.10441 3.6296C7.28517 3.5957 7.47723 3.5957 7.66928 3.5957H13.0807H20.119C21.5651 3.5957 22.7513 4.09279 23.7455 5.12086C24.0957 5.47108 24.4347 5.83259 24.7736 6.18281C25.6774 7.1318 26.6264 8.11467 27.564 9.06366Z" fill="none"/>
<path d="M26.6797 29.4367C25.7109 29.4367 24.8542 29.0685 24.1094 28.3322C23.3698 27.5908 23 26.7182 23 25.7146C23 24.7008 23.388 23.8283 24.1641 23.097C24.9453 22.3657 25.8906 22 27 22C28.1094 22 29.0521 22.3682 29.8281 23.1045C30.6094 23.8359 31 24.7059 31 25.7146C31 26.1282 30.9245 26.5417 30.7734 26.9553C30.6276 27.3689 30.4792 27.679 30.3281 27.8858L30.1172 28.196L27.1397 32.6725C27.0036 32.8771 26.7742 33 26.5286 33C25.9422 33 25.5926 32.3463 25.9181 31.8586L27.0967 30.0928C27.2627 29.844 26.9787 29.4367 26.6797 29.4367ZM25.2969 24.1334C24.8333 24.5722 24.6016 25.1018 24.6016 25.7221C24.6016 26.3375 24.8333 26.8645 25.2969 27.3033C25.7604 27.7421 26.3281 27.9615 27 27.9615C27.6719 27.9615 28.2396 27.7421 28.7031 27.3033C29.1667 26.8645 29.3984 26.3375 29.3984 25.7221C29.3984 25.1018 29.1667 24.5722 28.7031 24.1334C28.2396 23.6896 27.6719 23.4677 27 23.4677C26.3281 23.4677 25.7604 23.6896 25.2969 24.1334Z" fill="none"/>
</svg>
