<svg xmlns="http://www.w3.org/2000/svg" xml:space="preserve" width="40" height="40" viewBox="0 0 40 40"><path fill="#FF0A47" d="M15 35H6c-1.103 0-2-.897-2-2v-9c0-1.103.897-2 2-2h9c1.103 0 2 .897 2 2v9c0 1.103-.897 2-2 2zM6 23.5a.5.5 0 0 0-.5.5v9a.5.5 0 0 0 .5.5h9a.5.5 0 0 0 .5-.5v-9a.5.5 0 0 0-.5-.5H6zM27 34c-3.859 0-7-3.141-7-7s3.141-7 7-7 7 3.141 7 7-3.141 7-7 7zm0-12.5c-3.032 0-5.5 2.468-5.5 5.5s2.468 5.5 5.5 5.5 5.5-2.468 5.5-5.5-2.468-5.5-5.5-5.5zM23.505 18H13.37a1.983 1.983 0 0 1-1.72-.979 1.984 1.984 0 0 1-.036-1.979l4.88-8.943a1.998 1.998 0 0 1 1.756-1.042c.716 0 1.361.369 1.724.987l5.255 8.943c.368.625.373 1.376.012 2.006A1.978 1.978 0 0 1 23.505 18zM18.25 6.557a.489.489 0 0 0-.439.261l-4.88 8.943a.492.492 0 0 0 .009.495.492.492 0 0 0 .43.245h10.135a.49.49 0 0 0 .434-.252.49.49 0 0 0-.003-.501l-5.255-8.943a.49.49 0 0 0-.431-.248z"/></svg>
