<svg xmlns="http://www.w3.org/2000/svg" width="40" height="40" fill="none" viewBox="0 0 40 40"><path fill="#FF0A47" fill-rule="evenodd" d="M19.771 2.917a21.278 21.278 0 0 0-7.071 15.84V29.3h14.6V19.131a21.224 21.224 0 0 0-7.529-16.214ZM28.7 19.341v-.21a22.624 22.624 0 0 0-8.478-17.656.741.741 0 0 0-.944.014A22.678 22.678 0 0 0 11.3 18.757v.584c-2.389.29-3.823 2.053-4.658 3.928-.913 2.047-1.202 4.395-1.295 5.685C5.275 29.939 6.07 30.7 7 30.7h26c.929 0 1.725-.76 1.653-1.746-.093-1.29-.382-3.638-1.294-5.685-.836-1.875-2.27-3.638-4.659-3.928Zm0 1.416V29.3H33c.176 0 .266-.129.257-.245-.09-1.24-.365-3.393-1.177-5.216-.712-1.598-1.768-2.811-3.38-3.082Zm-17.4 0c-1.612.27-2.668 1.484-3.38 3.082-.812 1.823-1.087 3.977-1.177 5.216-.009.116.081.245.257.245h4.3v-8.543ZM20 14.7a3.3 3.3 0 1 0 0 6.6 3.3 3.3 0 0 0 0-6.6ZM15.3 18a4.7 4.7 0 1 1 9.4 0 4.7 4.7 0 0 1-9.4 0ZM15 32.3a.7.7 0 0 1 .7.7v4h-1.4v-4a.7.7 0 0 1 .7-.7Zm10 0a.7.7 0 0 1 .7.7v4h-1.4v-4a.7.7 0 0 1 .7-.7Zm-5 2a.7.7 0 0 1 .7.7v4h-1.4v-4a.7.7 0 0 1 .7-.7Z" clip-rule="evenodd"/></svg>