<svg xmlns="http://www.w3.org/2000/svg" width="40" height="40" fill="none" viewBox="0 0 40 40"><path fill="#FF0A47" fill-rule="evenodd" d="M9 21.4a.6.6 0 0 0-.6.6v8a.6.6 0 0 0 .6.6h3.333a.6.6 0 0 0 .6-.6v-8a.6.6 0 0 0-.6-.6H9Zm9.333-6a.6.6 0 0 0-.6.6v14a.6.6 0 0 0 .6.6h3.334a.6.6 0 0 0 .6-.6V16a.6.6 0 0 0-.6-.6h-3.334Zm9.334-6a.6.6 0 0 0-.6.6v20a.6.6 0 0 0 .6.6H31a.6.6 0 0 0 .6-.6V10a.6.6 0 0 0-.6-.6h-3.333Zm0-1.4a2 2 0 0 0-2 2v20a2 2 0 0 0 2 2H31a2 2 0 0 0 2-2V10a2 2 0 0 0-2-2h-3.333Zm-11.334 8a2 2 0 0 1 2-2h3.334a2 2 0 0 1 2 2v14a2 2 0 0 1-2 2h-3.334a2 2 0 0 1-2-2V16ZM7 22a2 2 0 0 1 2-2h3.333a2 2 0 0 1 2 2v8a2 2 0 0 1-2 2H9a2 2 0 0 1-2-2v-8Z" clip-rule="evenodd"/></svg>