<svg xmlns="http://www.w3.org/2000/svg" width="40" height="40" fill="none" viewBox="0 0 40 40"><path fill="#FF0A47" d="M24.773 20.581c.247.215.762.301 1.095-.075.967-1.106 1.44-2.351 1.46-3.79-.01-1.482-.536-2.781-1.546-3.866-.182-.193-.397-.3-.6-.31h-.022a.636.636 0 0 0-.451.192c-.301.29-.28.698.043 1.063 1.556 1.708 1.589 4.027.075 5.788-.3.333-.322.773-.054.998Z"/><path fill="#FF0A47" d="M22.916 18.724c.311.247.72.193.988-.118.45-.537.676-1.16.698-1.89 0-.73-.312-1.493-.816-2.008a.744.744 0 0 0-.537-.236.671.671 0 0 0-.451.182c-.28.258-.3.677-.043.988.59.72.612 1.332.054 2.105-.247.332-.204.74.107.977Z"/><path fill="#FF0A47" d="M10.814 35.453h21.69c.107 0 .204 0 .29-.011a.692.692 0 0 0 .558-.73.693.693 0 0 0-.644-.645c-.075-.01-.15 0-.236 0h-.387v-4.434h.569c.408-.021.666-.28.687-.687V5.668c0-.774-.268-1.29-.848-1.633a3.225 3.225 0 0 0-.386-.172l-.161-.064H9.826c-.139.054-.279.097-.418.14-.322.107-.634.203-.891.365-.967.58-1.471 1.47-1.504 2.64-.021.602-.01 1.225-.01 1.816v22.913c0 2.212 1.567 3.78 3.811 3.78Zm19.832-1.396H10.782c-1.16 0-2.04-.634-2.298-1.665a2.226 2.226 0 0 1 .355-1.857 2.27 2.27 0 0 1 1.729-.902H30.657v4.424h-.01ZM8.41 7.18c0-1.288.709-2.008 1.997-2.008h21.54v23.053H11.448c-.934 0-1.825 0-2.674.516l-.365.225V7.181Z"/><path fill="#FF0A47" d="M26.834 22.525c.323.097.57.032.806-.215 1.481-1.6 2.18-3.457 2.212-5.83a7.282 7.282 0 0 1-.033-.28c-.032-.29-.064-.697-.14-1.073a8.01 8.01 0 0 0-2.19-4.134.769.769 0 0 0-.537-.236.933.933 0 0 0-.171.021.682.682 0 0 0-.483.494c-.076.268 0 .494.257.762 1.095 1.139 1.718 2.491 1.858 4.027.182 2.03-.43 3.822-1.826 5.336-.182.194-.247.387-.225.602.054.268.193.44.472.526ZM20.79 21.988c-.011-1.256-.011-2.545 0-3.78V11.53c0-.408-.119-.634-.387-.773-.28-.14-.526-.086-.849.15-1.03.784-2.244 1.707-3.457 2.61-.193.15-.472.235-.73.246-.72.01-1.45.01-2.148.01h-.987c-.602 0-.86.27-.86.86v4.327c0 .623.258.87.881.87h1.579c.45 0 .901 0 1.352.01.237 0 .484.086.677.215 1.353.945 2.544 1.793 3.629 2.588.376.28.676.333.977.182.268-.128.322-.397.322-.837Zm-5.52-3.565h-2.512v-3.232h2.512v3.232Zm4.102 2.362-.354-.204c-.022-.01-.054-.021-.076-.043-.053-.032-.107-.053-.16-.096l-.366-.258a59.391 59.391 0 0 1-1.428-1.03.78.78 0 0 1-.29-.57c-.01-1.192-.01-2.394 0-3.425 0-.107.022-.354.194-.494.526-.408 1.052-.805 1.61-1.224l.88-.666-.01 8.01Z"/></svg>
