<svg xmlns="http://www.w3.org/2000/svg" width="40" height="40" fill="none" viewBox="0 0 40 40"><path fill="#FF0A47" fill-rule="evenodd" d="m17.864 5.938-3.82 6.364a.7.7 0 0 1-.424.317l-6.996 1.814c-1.794.466-2.553 2.772-1.322 4.3l4.636 5.746a.7.7 0 0 1 .153.487l-.504 7.485c-.065.97.348 1.79.983 2.297l-.27-1.956v-.048c0-4.275 2.88-7.874 6.826-9.072a4.655 4.655 0 0 1-1.826-3.698c0-2.586 2.109-4.674 4.7-4.674s4.7 2.088 4.7 4.674a4.656 4.656 0 0 1-1.826 3.698c3.947 1.198 6.826 4.797 6.826 9.072v.048l-.27 1.956c.635-.506 1.049-1.326.983-2.297l-.504-7.485a.7.7 0 0 1 .153-.486l4.636-5.747c1.232-1.528.472-3.834-1.322-4.3L26.38 12.62a.7.7 0 0 1-.424-.317l-3.82-6.364c-.992-1.652-3.28-1.652-4.272 0Zm10.077 29.358.359-2.599c-.026-4.435-3.717-8.049-8.3-8.049s-8.274 3.614-8.3 8.05l.36 2.597c.325.007.659-.053.984-.19l6.684-2.811a.7.7 0 0 1 .543 0l6.685 2.812c.326.137.66.197.985.19ZM20 23.248c1.827 0 3.3-1.47 3.3-3.274S21.827 16.7 20 16.7c-1.827 0-3.3 1.47-3.3 3.274s1.473 3.274 3.3 3.274Zm-3.336-18.03a3.86 3.86 0 0 1 6.672 0l3.673 6.119 6.719 1.742c2.833.734 3.894 4.258 2.06 6.533l-4.464 5.534.486 7.211c.198 2.946-2.662 5.19-5.397 4.04L20 33.698l-6.413 2.698c-2.736 1.15-5.595-1.093-5.397-4.04l.486-7.211-4.463-5.534c-1.835-2.274-.774-5.798 2.06-6.533l6.718-1.742 3.673-6.118Z" clip-rule="evenodd"/></svg>