<svg xmlns="http://www.w3.org/2000/svg" width="40" height="40" fill="none" viewBox="0 0 40 40"><path fill="#FF0A47" d="M19.55 19.211c-.241-.011-.472 0-.702 0H17.49a.861.861 0 0 0-.46.127 5.532 5.532 0 0 0-1.232-2.866.92.92 0 0 0 .437-.265 72.9 72.9 0 0 0 1.393-1.462c.092-.104.15-.219.207-.334.023-.057.058-.115.092-.173l.092-.16-.126-.139c-.035-.034-.07-.092-.115-.138-.115-.15-.242-.31-.438-.357a.967.967 0 0 0-.829.207 28.16 28.16 0 0 0-1.289 1.336l-.138.15a.855.855 0 0 0-.23.437 5.386 5.386 0 0 0-2.648-1.048.861.861 0 0 0 .127-.46c.011-.242 0-.484 0-.714v-1.381c-.012-.46-.323-.795-.76-.806a.819.819 0 0 0-.576.219.787.787 0 0 0-.241.552c-.023.69-.023 1.416 0 2.164 0 .162.046.311.126.438a5.449 5.449 0 0 0-2.636 1.059.958.958 0 0 0-.242-.45c-.53-.575-.99-1.047-1.415-1.484a1.19 1.19 0 0 0-.334-.219c-.046-.023-.104-.057-.161-.08l-.162-.093-.138.116-.138.103a1.358 1.358 0 0 0-.345.334c-.184.288-.138.645.138.933l.345.356c.346.369.714.749 1.07 1.128a.815.815 0 0 0 .438.254 5.521 5.521 0 0 0-1.231 2.854.851.851 0 0 0-.45-.126 62.904 62.904 0 0 0-2.083 0c-.483.011-.817.334-.817.806 0 .46.334.771.817.794.242.011.483 0 .714 0h1.381c.161 0 .31-.058.438-.127a5.48 5.48 0 0 0 1.22 2.855.91.91 0 0 0-.334.196 26.423 26.423 0 0 0-1.554 1.646c-.173.196-.184.576-.092.817.069.173.218.277.357.369.046.034.092.057.126.092l.127.103.15-.069c.046-.023.103-.046.138-.057.115-.046.23-.092.334-.184a42.626 42.626 0 0 0 1.53-1.612.76.76 0 0 0 .185-.357c.771.576 1.68.933 2.636 1.048a.98.98 0 0 0-.138.449 63.61 63.61 0 0 0 0 2.095c.011.472.345.817.794.817h.011c.45 0 .772-.345.783-.829.012-.241 0-.483 0-.713v-1.347a.877.877 0 0 0-.138-.472 5.435 5.435 0 0 0 2.636-1.048c.035.15.115.288.23.426.473.507.944 1.002 1.416 1.485.185.184.392.288.622.288a.76.76 0 0 0 .553-.242c.322-.322.31-.783-.012-1.14-.518-.552-.978-1.047-1.416-1.485a1.19 1.19 0 0 0-.334-.218l-.069-.035a5.48 5.48 0 0 0 1.232-2.855.85.85 0 0 0 .449.127c.69.012 1.393.012 2.083 0 .23 0 .438-.08.588-.23a.81.81 0 0 0 .23-.576c-.035-.483-.38-.817-.864-.829Zm-8.011 4.732h-.024a3.929 3.929 0 0 1-3.914-3.994c.012-2.142 1.785-3.88 3.949-3.88h.011c1.048 0 2.038.426 2.786 1.174a3.88 3.88 0 0 1 1.128 2.774c-.023 2.176-1.784 3.926-3.936 3.926ZM22.497 3.81c-.518.01-.771.379-.771 1.081v30.206c0 .426.092.714.276.898.127.127.3.196.507.196h.023c.357-.012.782-.207.782-1.082V4.903c0-.415-.092-.702-.276-.887-.092-.103-.265-.207-.54-.207ZM36 19.971c-.023-.172-.035-.334-.058-.506a19.62 19.62 0 0 0-.138-1.117c-.38-2.13-1.657-4.086-3.51-5.376-1.843-1.277-4.122-1.795-6.251-1.416-.046.012-.081.012-.127.023-.3.046-.76.115-.875.657-.115.53.242.782.483.955.035.023.07.046.093.07 2.555 1.921 3.752 5.294 2.981 8.39-.541 2.154-1.761 3.846-3.626 5.031-.138.093-.553.357-.46.887.046.253.207.575.725.668l.38.069c.391.08.794.16 1.208.184.207.011.426.023.633.023a8.41 8.41 0 0 0 5.768-2.28A8.669 8.669 0 0 0 36 19.96v-.012.023Zm-5.595.138c.092-2.67-.794-5.03-2.636-7.033 1.865.023 4.26 1.047 5.64 3.407a6.934 6.934 0 0 1-.552 7.851c-1.496 1.888-3.81 2.694-5.571 2.613 1.98-1.888 3.027-4.19 3.12-6.838Z"/></svg>
