<svg xmlns="http://www.w3.org/2000/svg" xml:space="preserve" width="40" height="40" viewBox="0 0 40 40"><path fill="#FF0A47" d="M25.631 21.131c-.057.059-.27.307-.469.51-1.165 1.283-4.205 3.383-5.795 4.024-.242.103-.852.321-1.179.335-.313 0-.611-.072-.896-.218a1.87 1.87 0 0 1-.794-.904c-.101-.263-.256-1.05-.256-1.063-.156-.862-.242-2.26-.242-3.807 0-1.473.086-2.815.213-3.689.015-.014.17-.992.341-1.327A1.786 1.786 0 0 1 18.131 14h.057c.426.015 1.321.395 1.321.409 1.505.642 4.475 2.639 5.668 3.966 0 0 .336.341.482.554.228.306.341.685.341 1.064 0 .423-.127.818-.369 1.138zM20 36c-8.822 0-16-7.178-16-16S11.178 4 20 4s16 7.178 16 16-7.178 16-16 16zm0-30.6C11.95 5.4 5.4 11.95 5.4 20c0 8.051 6.549 14.6 14.6 14.6 8.051 0 14.6-6.549 14.6-14.6 0-8.05-6.549-14.6-14.6-14.6z"/></svg>
