<svg width="82" height="82" viewBox="0 0 82 82" fill="none" xmlns="http://www.w3.org/2000/svg">
<path d="M5.21518 19.3329H5M71.0213 19.3329H70.8069M70.8069 19.3329V64.2066C70.8069 67.9335 67.3098 70.7524 63.4876 70.1154C56.578 68.9655 45.2318 68.157 38.0114 71.6956C30.7909 68.1555 19.4432 68.9655 12.5352 70.1154C8.71294 70.7508 5.21588 67.9335 5.21588 64.2066V19.2791C5.21588 16.4342 7.29594 13.9751 10.1969 13.4055C16.9023 12.0887 29.9207 10.5947 38.0114 14.5615M70.8069 19.3329V19.2791C70.8069 16.4342 68.7268 13.9751 65.8259 13.4055C59.1219 12.0887 46.1021 10.5943 38.0114 14.5615M38.0114 14.5615L38.0107 14.0535M38.0114 14.5615L38.0107 71.189" stroke="#FF0A47" stroke-miterlimit="10"/>
<rect x="10.2698" y="27" width="22" height="4" rx="2" fill="#FF0A47" stroke="#FF0A47" stroke-miterlimit="10"/>
<rect x="43.4153" y="27.3007" width="22" height="4" rx="2" stroke="#FF0A47" stroke-miterlimit="10"/>
<rect x="10.2698" y="36" width="22" height="4" rx="2" stroke="#FF0A47" stroke-miterlimit="10"/>
<rect x="43.4153" y="35.9523" width="22" height="4" rx="2" stroke="#FF0A47" stroke-miterlimit="10"/>
<rect x="10.2698" y="45" width="22" height="4" rx="2" stroke="#FF0A47" stroke-miterlimit="10"/>
<rect x="43.4153" y="44.6038" width="22" height="4" rx="2" stroke="#FF0A47" stroke-miterlimit="10"/>
<path d="M79.1245 23.9179L79.1245 23.7072C79.1245 23.5486 79.0932 23.3916 79.0325 23.2451C78.9718 23.0987 78.8828 22.9656 78.7706 22.8535C78.6585 22.7414 78.5254 22.6525 78.3788 22.5919C78.2323 22.5313 77.9999 22.5 77.9999 22.5C77.9999 22.5 76.6927 22.3947 76.5 22.5C76.3073 22.6053 76.1752 22.7419 76.0631 22.854C75.951 22.9662 75.8622 23.0993 75.8015 23.2458C75.7409 23.3923 75.7097 23.5493 75.7097 23.7079L75.7105 23.9179C75.3281 23.9398 74.9686 24.1071 74.7056 24.3856C74.4427 24.664 74.2962 25.0325 74.2962 25.4155L74.2954 62.0529C74.2957 62.1436 74.3206 62.2326 74.3675 62.3103L77.1429 67C77.1874 67.0739 77.2502 67.1351 77.3253 67.1776C77.4004 67.22 77.4852 67.2423 77.5714 67.2423C77.6577 67.2423 77.7425 67.22 77.8176 67.1776C77.8927 67.1351 77.9555 67.0739 77.9999 67L80.4672 62.3103C80.5138 62.2327 80.5385 62.144 80.5386 62.0536L80.5387 26.3362C80.6549 26.3564 80.7602 26.417 80.836 26.5073C80.9119 26.5976 80.9533 26.7118 80.9531 26.8298L80.9524 37.4861C80.9524 37.5518 80.9653 37.6169 80.9905 37.6776C81.0157 37.7384 81.0525 37.7936 81.099 37.8401C81.1455 37.8865 81.2007 37.9234 81.2614 37.9486C81.3222 37.9737 81.3873 37.9867 81.453 37.9867C81.5188 37.9867 81.5839 37.9737 81.6446 37.9486C81.7053 37.9234 81.7605 37.8865 81.807 37.8401C81.8535 37.7936 81.8904 37.7384 81.9155 37.6776C81.9407 37.6169 81.9537 37.5518 81.9537 37.4861L81.9522 26.829C81.9522 26.4458 81.8056 26.0771 81.5423 25.7986C81.2791 25.5201 80.9192 25.3529 80.5366 25.3314C80.516 24.9635 80.3606 24.616 80.1002 24.3553C79.8397 24.0946 79.4924 23.9389 79.1245 23.9179ZM79.0383 24.9149C79.1708 24.9149 79.298 24.9676 79.3917 25.0614C79.4855 25.1551 79.5382 25.2822 79.5382 25.4148L79.5395 61.9157L77.5721 65.7717L75.2967 61.9157L75.2954 25.4148C75.2953 25.3491 75.3082 25.2839 75.3333 25.2231C75.3585 25.1624 75.3953 25.1071 75.4418 25.0606C75.4883 25.0141 75.5436 24.9773 75.6043 24.9521C75.6651 24.927 75.7302 24.9141 75.796 24.9142L79.0383 24.9149Z" fill="#FF0A47"/>
<path d="M79.0383 24.9149C79.1708 24.9149 79.298 24.9676 79.3917 25.0614C79.4855 25.1551 79.5382 25.2822 79.5382 25.4148L79.5395 61.9157L77.5721 65.7717L75.2967 61.9157L75.2954 25.4148C75.2953 25.3491 75.3082 25.2839 75.3333 25.2231C75.3585 25.1624 75.3953 25.1071 75.4418 25.0606C75.4883 25.0141 75.5436 24.9773 75.6043 24.9521C75.6651 24.927 75.7302 24.9141 75.796 24.9142L79.0383 24.9149Z" fill="#F7F9FD"/>
</svg>
