<svg width="86" height="82" viewBox="0 0 86 82" fill="none" xmlns="http://www.w3.org/2000/svg">
<path d="M16 26.5C16 25.1193 17.1193 24 18.5 24H58.5C59.8807 24 61 25.1193 61 26.5C61 27.8807 59.8807 29 58.5 29H18.5C17.1193 29 16 27.8807 16 26.5Z" fill="#F7F9FD"/>
<path fill-rule="evenodd" clip-rule="evenodd" d="M21 34H70H72.9111C76.2593 34 78.9597 36.7404 78.9105 40.0882L78.5 68L84 74H21C17.6863 74 15 71.3137 15 68V57V40C15 36.6863 17.6863 34 21 34Z" fill="#F7F9FD"/>
<path d="M24 43.5C24 42.1193 25.1193 41 26.5 41H66.5C67.8807 41 69 42.1193 69 43.5C69 44.8807 67.8807 46 66.5 46H26.5C25.1193 46 24 44.8807 24 43.5Z" fill="#FF0A47"/>
<path d="M24 52.5C24 51.1193 25.1193 50 26.5 50H66.5C67.8807 50 69 51.1193 69 52.5C69 53.8807 67.8807 55 66.5 55H26.5C25.1193 55 24 53.8807 24 52.5Z" fill="#F7F9FD"/>
<path d="M24 61.5C24 60.1193 25.1193 59 26.5 59H58.5C59.8807 59 61 60.1193 61 61.5C61 62.8807 59.8807 64 58.5 64H26.5C25.1193 64 24 62.8807 24 61.5Z" fill="#F7F9FD"/>
<path fill-rule="evenodd" clip-rule="evenodd" d="M64 15H13.0889C9.74067 15 7.0403 17.7404 7.08953 21.0882L7.5 51L2 57H15V40C15 36.6863 17.6863 34 21 34H70V21C70 17.6863 67.3137 15 64 15ZM58.5 24H18.5C17.1193 24 16 25.1193 16 26.5C16 27.8807 17.1193 29 18.5 29H58.5C59.8807 29 61 27.8807 61 26.5C61 25.1193 59.8807 24 58.5 24Z" fill="#F7F9FD"/>
<path d="M2 57L1.63142 56.6621L0.863382 57.5H2V57ZM7.5 51L7.86858 51.3379L8.00268 51.1916L7.99995 50.9931L7.5 51ZM7.08953 21.0882L7.58948 21.0814L7.58948 21.0809L7.08953 21.0882ZM84 74V74.5H85.1366L84.3686 73.6621L84 74ZM78.5 68L78.0001 67.9926L77.9971 68.1914L78.1314 68.3379L78.5 68ZM78.9105 40.0882L79.4104 40.0956L78.9105 40.0882ZM64 14.5H13.0889V15.5H64V14.5ZM6.58958 21.0951L7.00005 51.0069L7.99995 50.9931L7.58948 21.0814L6.58958 21.0951ZM7.13142 50.6621L1.63142 56.6621L2.36858 57.3379L7.86858 51.3379L7.13142 50.6621ZM13.0889 14.5C9.46165 14.5 6.53625 17.4687 6.58958 21.0956L7.58948 21.0809C7.54435 18.012 10.0197 15.5 13.0889 15.5V14.5ZM64 15.5C67.0376 15.5 69.5 17.9624 69.5 21H70.5C70.5 17.4101 67.5899 14.5 64 14.5V15.5ZM18.5 24.5H58.5V23.5H18.5V24.5ZM58.5 28.5H18.5V29.5H58.5V28.5ZM18.5 28.5C17.3954 28.5 16.5 27.6046 16.5 26.5H15.5C15.5 28.1569 16.8431 29.5 18.5 29.5V28.5ZM60.5 26.5C60.5 27.6046 59.6046 28.5 58.5 28.5V29.5C60.1569 29.5 61.5 28.1569 61.5 26.5H60.5ZM58.5 24.5C59.6046 24.5 60.5 25.3954 60.5 26.5H61.5C61.5 24.8431 60.1569 23.5 58.5 23.5V24.5ZM18.5 23.5C16.8431 23.5 15.5 24.8431 15.5 26.5H16.5C16.5 25.3954 17.3954 24.5 18.5 24.5V23.5ZM84 73.5H21V74.5H84V73.5ZM78.4105 40.0809L78.0001 67.9926L78.9999 68.0074L79.4104 40.0956L78.4105 40.0809ZM78.1314 68.3379L83.6314 74.3379L84.3686 73.6621L78.8686 67.6621L78.1314 68.3379ZM21 73.5C17.9624 73.5 15.5 71.0376 15.5 68H14.5C14.5 71.5899 17.4101 74.5 21 74.5V73.5ZM72.9111 34.5C75.9803 34.5 78.4557 37.012 78.4105 40.0809L79.4104 40.0956C79.4638 36.4687 76.5384 33.5 72.9111 33.5V34.5ZM21 33.5C17.4101 33.5 14.5 36.4101 14.5 40H15.5C15.5 36.9624 17.9624 34.5 21 34.5V33.5ZM26.5 41.5H66.5V40.5H26.5V41.5ZM66.5 45.5H26.5V46.5H66.5V45.5ZM26.5 45.5C25.3954 45.5 24.5 44.6046 24.5 43.5H23.5C23.5 45.1569 24.8431 46.5 26.5 46.5V45.5ZM68.5 43.5C68.5 44.6046 67.6046 45.5 66.5 45.5V46.5C68.1569 46.5 69.5 45.1569 69.5 43.5H68.5ZM66.5 41.5C67.6046 41.5 68.5 42.3954 68.5 43.5H69.5C69.5 41.8431 68.1569 40.5 66.5 40.5V41.5ZM26.5 40.5C24.8431 40.5 23.5 41.8431 23.5 43.5H24.5C24.5 42.3954 25.3954 41.5 26.5 41.5V40.5ZM26.5 50.5H66.5V49.5H26.5V50.5ZM66.5 54.5H26.5V55.5H66.5V54.5ZM26.5 54.5C25.3954 54.5 24.5 53.6046 24.5 52.5H23.5C23.5 54.1569 24.8431 55.5 26.5 55.5V54.5ZM68.5 52.5C68.5 53.6046 67.6046 54.5 66.5 54.5V55.5C68.1569 55.5 69.5 54.1569 69.5 52.5H68.5ZM66.5 50.5C67.6046 50.5 68.5 51.3954 68.5 52.5H69.5C69.5 50.8431 68.1569 49.5 66.5 49.5V50.5ZM26.5 49.5C24.8431 49.5 23.5 50.8431 23.5 52.5H24.5C24.5 51.3954 25.3954 50.5 26.5 50.5V49.5ZM26.5 59.5H58.5V58.5H26.5V59.5ZM58.5 63.5H26.5V64.5H58.5V63.5ZM26.5 63.5C25.3954 63.5 24.5 62.6046 24.5 61.5H23.5C23.5 63.1569 24.8431 64.5 26.5 64.5V63.5ZM60.5 61.5C60.5 62.6046 59.6046 63.5 58.5 63.5V64.5C60.1569 64.5 61.5 63.1569 61.5 61.5H60.5ZM58.5 59.5C59.6046 59.5 60.5 60.3954 60.5 61.5H61.5C61.5 59.8431 60.1569 58.5 58.5 58.5V59.5ZM26.5 58.5C24.8431 58.5 23.5 59.8431 23.5 61.5H24.5C24.5 60.3954 25.3954 59.5 26.5 59.5V58.5ZM21 34.5H70V33.5H21V34.5ZM70 34.5H72.9111V33.5H70V34.5ZM70.5 34V21H69.5V34H70.5ZM15.5 68V57H14.5V68H15.5ZM15.5 57V40H14.5V57H15.5ZM2 57.5H15V56.5H2V57.5Z" fill="#FF0A47"/>
</svg>
