<svg width="82" height="82" viewBox="0 0 82 82" fill="none" xmlns="http://www.w3.org/2000/svg">
<path d="M57 54.4264L54.3091 51.5411L57 48.7338V43.0411L49 51.5411L57 60.0411V54.4264Z" fill="#FF0A47"/>
<path d="M10.5 44.0411C10.5 44.3173 10.7239 44.5411 11 44.5411C11.2761 44.5411 11.5 44.3173 11.5 44.0411H10.5ZM11 34.4485H11.5H11ZM12.0028 30.0391L11.6493 29.6855L12.0028 30.0391ZM16.4239 29.0411V29.5411V29.0411ZM72.9972 30.0391L72.6436 30.3927L72.9972 30.0391ZM72.9972 74.0431L72.6436 73.6895L72.9972 74.0431ZM12.0028 74.0431L12.3564 73.6895L12.0028 74.0431ZM11 69.6337H10.5H11ZM11.5 59.4863C11.5 59.2102 11.2761 58.9863 11 58.9863C10.7239 58.9863 10.5 59.2102 10.5 59.4863H11.5ZM63.2257 28.9591C63.4565 29.1106 63.7665 29.0463 63.918 28.8154C64.0695 28.5846 64.0052 28.2746 63.7743 28.1231L63.2257 28.9591ZM25.8888 17.3116C25.762 17.5569 25.8582 17.8586 26.1035 17.9853C26.3488 18.1121 26.6505 18.016 26.7772 17.7706L25.8888 17.3116ZM33.3554 8.75872L33.0811 9.17675L33.3554 8.75872ZM30.4813 9.51273L30.9255 9.74225L30.4813 9.51273ZM63.8563 29.52C64.1208 29.5994 64.3996 29.4493 64.4789 29.1848C64.5583 28.9203 64.4082 28.6416 64.1437 28.5622L63.8563 29.52ZM16.5188 28.9054C16.4438 29.1711 16.5985 29.4474 16.8642 29.5223C17.13 29.5973 17.4062 29.4426 17.4812 29.1769L16.5188 28.9054ZM22.615 16.6254L22.7587 16.1465L22.615 16.6254ZM20.1155 17.998L19.6342 17.8622L20.1155 17.998ZM64.1502 28.8984C64.3475 29.0916 64.6641 29.0882 64.8573 28.8909C65.0504 28.6936 65.0471 28.3771 64.8498 28.1839L64.1502 28.8984ZM35.613 10.2245C35.4382 10.4382 35.4697 10.7532 35.6834 10.9281C35.8971 11.103 36.2121 11.0715 36.387 10.8577L35.613 10.2245ZM42.0624 6.571L41.7126 6.92826L42.0624 6.571ZM39.1153 6.73355L39.5023 7.05017L39.1153 6.73355ZM57 54.4264H57.5V54.2295L57.3657 54.0854L57 54.4264ZM54.3091 51.5411L53.9481 51.1951L53.621 51.5364L53.9434 51.8821L54.3091 51.5411ZM57 48.7338L57.361 49.0798L57.5 48.9347V48.7338H57ZM57 43.0411H57.5V41.7803L56.6359 42.6984L57 43.0411ZM49 51.5411L48.6359 51.1984L48.3134 51.5411L48.6359 51.8838L49 51.5411ZM57 60.0411L56.6359 60.3838L57.5 61.3019V60.0411H57ZM11.5 44.0411V34.4485H10.5V44.0411H11.5ZM11.5 34.4485C11.5 33.9452 11.4395 33.226 11.5299 32.4296C11.6194 31.641 11.8496 30.8994 12.3564 30.3927L11.6493 29.6855C10.9073 30.4274 10.636 31.4387 10.5363 32.3168C10.4375 33.187 10.5 34.0482 10.5 34.4485H11.5ZM12.3564 30.3927C12.8642 29.885 13.6071 29.6558 14.3976 29.5677C15.1969 29.4787 15.9164 29.5411 16.4239 29.5411V28.5411C16.0233 28.5411 15.1581 28.4768 14.2869 28.5739C13.4068 28.672 12.3932 28.9418 11.6493 29.6855L12.3564 30.3927ZM16.4239 29.5411H68.5761V28.5411H16.4239V29.5411ZM68.5761 29.5411C69.0836 29.5411 69.8031 29.4787 70.6024 29.5677C71.3929 29.6558 72.1358 29.885 72.6436 30.3927L73.3507 29.6855C72.6068 28.9418 71.5932 28.672 70.7131 28.5739C69.8419 28.4768 68.9767 28.5411 68.5761 28.5411V29.5411ZM72.6436 30.3927C73.1504 30.8994 73.3805 31.641 73.4701 32.4296C73.5605 33.226 73.5 33.9452 73.5 34.4485H74.5C74.5 34.0482 74.5625 33.187 74.4637 32.3168C74.364 31.4387 74.0927 30.4274 73.3507 29.6855L72.6436 30.3927ZM73.5 34.4485V69.6337H74.5V34.4485H73.5ZM73.5 69.6337C73.5 70.1371 73.5605 70.8563 73.4701 71.6527C73.3805 72.4412 73.1504 73.1828 72.6436 73.6895L73.3507 74.3967C74.0927 73.6548 74.364 72.6435 74.4637 71.7655C74.5625 70.8953 74.5 70.034 74.5 69.6337H73.5ZM72.6436 73.6895C72.1358 74.1973 71.3929 74.4264 70.6024 74.5145C69.8031 74.6035 69.0836 74.5411 68.5761 74.5411V75.5411C68.9767 75.5411 69.8419 75.6054 70.7131 75.5083C71.5932 75.4103 72.6068 75.1404 73.3507 74.3967L72.6436 73.6895ZM68.5761 74.5411H16.4239V75.5411H68.5761V74.5411ZM16.4239 74.5411C15.9164 74.5411 15.1969 74.6035 14.3976 74.5145C13.6071 74.4264 12.8642 74.1973 12.3564 73.6895L11.6493 74.3967C12.3932 75.1404 13.4068 75.4103 14.2869 75.5083C15.1581 75.6054 16.0233 75.5411 16.4239 75.5411V74.5411ZM12.3564 73.6895C11.8496 73.1828 11.6194 72.4412 11.5299 71.6527C11.4395 70.8563 11.5 70.1371 11.5 69.6337H10.5C10.5 70.0341 10.4375 70.8953 10.5363 71.7655C10.636 72.6435 10.9073 73.6548 11.6493 74.3967L12.3564 73.6895ZM11.5 69.6337V59.4863H10.5V69.6337H11.5ZM8.72414 44.5411H28.5517V43.5411H8.72414V44.5411ZM28.5517 44.5411C29.3346 44.5411 30.0848 44.8503 30.6375 45.3999L31.3426 44.6908C30.6019 43.9543 29.5979 43.5411 28.5517 43.5411V44.5411ZM30.6375 45.3999C31.1901 45.9493 31.5 46.6939 31.5 47.4697H32.5C32.5 46.4268 32.0833 45.4273 31.3426 44.6908L30.6375 45.3999ZM31.5 47.4697V55.6125H32.5V47.4697H31.5ZM31.5 55.6125C31.5 56.3883 31.1901 57.1329 30.6375 57.6823L31.3426 58.3915C32.0833 57.6549 32.5 56.6554 32.5 55.6125H31.5ZM30.6375 57.6823C30.0848 58.2319 29.3346 58.5411 28.5517 58.5411V59.5411C29.5979 59.5411 30.6019 59.1279 31.3426 58.3915L30.6375 57.6823ZM28.5517 58.5411H8.72414V59.5411H28.5517V58.5411ZM8.72414 58.5411C8.39855 58.5411 8.08688 58.4125 7.85753 58.1844L7.15245 58.8936C7.56978 59.3085 8.13518 59.5411 8.72414 59.5411V58.5411ZM7.85753 58.1844C7.62827 57.9565 7.5 57.6479 7.5 57.3268H6.5C6.5 57.915 6.73503 58.4785 7.15245 58.8936L7.85753 58.1844ZM7.5 57.3268V45.7554H6.5V57.3268H7.5ZM7.5 45.7554C7.5 45.4343 7.62827 45.1257 7.85753 44.8978L7.15245 44.1886C6.73503 44.6037 6.5 45.1672 6.5 45.7554H7.5ZM7.85753 44.8978C8.08688 44.6697 8.39855 44.5411 8.72414 44.5411V43.5411C8.13518 43.5411 7.56977 43.7737 7.15245 44.1886L7.85753 44.8978ZM27.5 51.5411C27.5 53.198 26.1569 54.5411 24.5 54.5411V55.5411C26.7091 55.5411 28.5 53.7503 28.5 51.5411H27.5ZM24.5 54.5411C22.8431 54.5411 21.5 53.198 21.5 51.5411H20.5C20.5 53.7503 22.2909 55.5411 24.5 55.5411V54.5411ZM21.5 51.5411C21.5 49.8843 22.8431 48.5411 24.5 48.5411V47.5411C22.2909 47.5411 20.5 49.332 20.5 51.5411H21.5ZM24.5 48.5411C26.1569 48.5411 27.5 49.8843 27.5 51.5411H28.5C28.5 49.332 26.7091 47.5411 24.5 47.5411V48.5411ZM63.7743 28.1231L33.6297 8.3407L33.0811 9.17675L63.2257 28.9591L63.7743 28.1231ZM30.0371 9.28321L25.8888 17.3116L26.7772 17.7706L30.9255 9.74225L30.0371 9.28321ZM33.6297 8.3407C32.3897 7.52692 30.7179 7.9655 30.0371 9.28321L30.9255 9.74225C31.334 8.95163 32.3371 8.68848 33.0811 9.17675L33.6297 8.3407ZM64.1437 28.5622L22.7587 16.1465L22.4714 17.1043L63.8563 29.52L64.1437 28.5622ZM19.6342 17.8622L16.5188 28.9054L17.4812 29.1769L20.5967 18.1337L19.6342 17.8622ZM22.7587 16.1465C21.4208 15.7451 20.0135 16.5179 19.6342 17.8622L20.5967 18.1337C20.8242 17.3271 21.6686 16.8635 22.4714 17.1043L22.7587 16.1465ZM64.8498 28.1839L42.4123 6.21375L41.7126 6.92826L64.1502 28.8984L64.8498 28.1839ZM38.7283 6.41693L35.613 10.2245L36.387 10.8577L39.5023 7.05017L38.7283 6.41693ZM42.4123 6.21375C41.3629 5.1863 39.6583 5.28032 38.7283 6.41693L39.5023 7.05017C40.0602 6.3682 41.083 6.31179 41.7126 6.92826L42.4123 6.21375ZM57.3657 54.0854L54.6748 51.2001L53.9434 51.8821L56.6343 54.7675L57.3657 54.0854ZM54.6701 51.8871L57.361 49.0798L56.639 48.3878L53.9481 51.1951L54.6701 51.8871ZM57.5 48.7338V43.0411H56.5V48.7338H57.5ZM56.6359 42.6984L48.6359 51.1984L49.3641 51.8838L57.3641 43.3838L56.6359 42.6984ZM48.6359 51.8838L56.6359 60.3838L57.3641 59.6984L49.3641 51.1984L48.6359 51.8838ZM57.5 60.0411V54.4264H56.5V60.0411H57.5ZM45 39.5411H63V38.5411H45V39.5411ZM65.5 42.0411V60.0411H66.5V42.0411H65.5ZM63 62.5411H45V63.5411H63V62.5411ZM42.5 60.0411V42.0411H41.5V60.0411H42.5ZM45 62.5411C43.6193 62.5411 42.5 61.4218 42.5 60.0411H41.5C41.5 61.9741 43.067 63.5411 45 63.5411V62.5411ZM65.5 60.0411C65.5 61.4218 64.3807 62.5411 63 62.5411V63.5411C64.933 63.5411 66.5 61.9741 66.5 60.0411H65.5ZM63 39.5411C64.3807 39.5411 65.5 40.6604 65.5 42.0411H66.5C66.5 40.1081 64.933 38.5411 63 38.5411V39.5411ZM45 38.5411C43.067 38.5411 41.5 40.1081 41.5 42.0411H42.5C42.5 40.6604 43.6193 39.5411 45 39.5411V38.5411Z" fill="#FF0A47"/>
</svg>
