<svg width="134" height="108" viewBox="0 0 134 108" fill="none" xmlns="http://www.w3.org/2000/svg">
<path d="M92.3988 56.6407C91.7375 56.5446 91.1189 56.2567 90.6195 55.8126C90.1201 55.3685 89.7619 54.7878 89.5891 54.1422C89.4613 53.6821 89.4294 53.2006 89.4955 52.7277C89.5616 52.2547 89.7242 51.8004 89.9732 51.3929C90.125 51.144 90.2689 50.9001 90.3739 50.7068C91.1163 49.3408 91.7076 47.898 92.1374 46.4038C93.2635 42.4586 93.2239 38.2717 92.0234 34.3485C90.8229 30.4252 88.5127 26.9332 85.3716 24.2937C82.2305 21.6543 78.3927 19.9801 74.3213 19.4734C70.2499 18.9667 66.1188 19.6489 62.4265 21.4379C58.6463 23.1952 55.4823 26.0492 53.3459 29.6289C51.2096 33.2085 50.1997 37.3482 50.4476 41.5095C50.6099 45.1063 51.6832 48.6029 53.5668 51.6714C55.4504 54.7398 58.0826 57.2795 61.2165 59.0522C61.6385 59.2811 62.0107 59.5921 62.311 59.9668C62.6113 60.3415 62.8337 60.7723 62.9653 61.2342L62.9699 61.2513C63.1503 61.9005 63.135 62.5886 62.9259 63.2291C62.7167 63.8697 62.3232 64.4343 61.7945 64.852C54.5212 70.4331 49.7294 78.6462 48.4498 87.7243C47.5106 93.9582 47.9064 100.32 49.6109 106.39L50.7865 110.777C51.0386 111.718 51.4736 112.6 52.0667 113.373C52.6597 114.146 53.3992 114.794 54.2429 115.281C55.0866 115.768 56.0179 116.084 56.9837 116.211C57.9495 116.338 58.9308 116.273 59.8716 116.021L119.668 99.9984C121.568 99.4892 123.187 98.2464 124.171 96.5432C125.154 94.84 125.42 92.816 124.911 90.9164L123.724 86.4847C122.166 80.3786 119.326 74.674 115.393 69.7501C109.742 62.5369 101.485 57.8297 92.3988 56.6407Z" fill="#FF0A47" stroke="white"/>
<path d="M96.1342 51.5378C95.4729 51.4417 94.8542 51.1538 94.3548 50.7097C93.8554 50.2656 93.4972 49.6849 93.3245 49.0393C93.1967 48.5792 93.1648 48.0977 93.2309 47.6248C93.2969 47.1518 93.4595 46.6975 93.7086 46.29C93.8604 46.041 94.0043 45.7972 94.1092 45.6039C94.8516 44.2379 95.443 42.7951 95.8727 41.3009C96.9989 37.3557 96.9593 33.1688 95.7588 29.2456C94.5582 25.3223 92.2481 21.8303 89.107 19.1908C85.9659 16.5513 82.1281 14.8772 78.0566 14.3705C73.9852 13.8638 69.8541 14.546 66.1619 16.335C62.3817 18.0923 59.2177 20.9463 57.0813 24.526C54.9449 28.1056 53.935 32.2452 54.1829 36.4066C54.3452 40.0034 55.4185 43.5 57.3021 46.5685C59.1858 49.6369 61.818 52.1766 64.9518 53.9493C65.3739 54.1782 65.746 54.4892 66.0463 54.8639C66.3466 55.2385 66.5691 55.6694 66.7006 56.1313L66.7052 56.1484C66.8856 56.7976 66.8703 57.4857 66.6612 58.1262C66.4521 58.7668 66.0585 59.3314 65.5298 59.7491C58.2566 65.3302 53.4647 73.5433 52.1852 82.6214C51.246 88.8553 51.6417 95.2176 53.3462 101.287L54.5219 105.675C54.774 106.615 55.209 107.497 55.802 108.27C56.3951 109.043 57.1346 109.691 57.9782 110.178C58.8219 110.665 59.7532 110.981 60.719 111.108C61.6848 111.235 62.6662 111.17 63.607 110.918L123.404 94.8955C125.303 94.3863 126.923 93.1435 127.906 91.4403C128.889 89.7371 129.156 87.7131 128.647 85.8135L127.459 81.3818C125.901 75.2757 123.061 69.5711 119.129 64.6472C113.477 57.434 105.22 52.7268 96.1342 51.5378Z" fill="#FF0A47" stroke="white"/>
<path fill-rule="evenodd" clip-rule="evenodd" d="M97.7703 76.2012C97.7237 75.9361 97.6674 75.6695 97.5945 75.3974C97.5216 75.1254 97.4371 74.8663 97.3449 74.6135C97.2202 74.2718 97.2695 73.8882 97.4939 73.5957L99.4967 70.9852C99.709 70.7057 99.6794 70.313 99.4285 70.0538L95.3236 66.0195C95.0727 65.7603 94.6622 65.7515 94.3815 65.9455L91.7257 67.9115C91.4248 68.1343 91.0291 68.1815 90.6766 68.0598C90.1589 67.8811 89.6303 67.741 89.0888 67.6431C88.7212 67.5767 88.4031 67.3461 88.2578 67.0088L86.9732 64.0279C86.8419 63.707 86.4789 63.5372 86.1262 63.6317L80.4836 65.1436C80.1309 65.2381 79.9014 65.5667 79.9481 65.9103L80.3261 69.1341C80.3689 69.4989 80.2087 69.8575 79.9245 70.1C79.5036 70.4591 79.1157 70.8501 78.755 71.263C78.5126 71.5404 78.1501 71.6927 77.7826 71.6508L74.4912 71.2751C74.1333 71.2374 73.7999 71.4603 73.7123 71.8102L72.1745 77.3565C72.0727 77.7102 72.2575 78.0613 72.5812 78.1972L75.6209 79.4566C75.9614 79.5977 76.1961 79.9052 76.2592 80.2634C76.3066 80.5324 76.3634 80.8017 76.4346 81.0672C76.5057 81.3327 76.5912 81.5944 76.6846 81.851C76.8091 82.1928 76.7596 82.5765 76.5352 82.869L74.5325 85.4795C74.3201 85.759 74.3497 86.1517 74.6006 86.4109L78.7055 90.4452C78.9564 90.7044 79.3669 90.7131 79.6476 90.5192L82.3034 88.5532C82.6043 88.3304 83 88.2831 83.3526 88.4049C83.8702 88.5836 84.3988 88.7236 84.9403 88.8215C85.308 88.888 85.626 89.1186 85.7713 89.4558L87.0559 92.4367C87.1872 92.7577 87.5502 92.9275 87.9029 92.833L93.5456 91.3211C93.8982 91.2266 94.1277 90.898 94.081 90.5544L93.703 87.3305C93.6602 86.9658 93.8204 86.6072 94.1046 86.3647C94.5255 86.0056 94.9135 85.6146 95.2741 85.2017C95.5165 84.9242 95.8791 84.7719 96.2465 84.8139L99.538 85.1896C99.8958 85.2273 100.229 85.0044 100.317 84.6544L101.855 79.1082C101.942 78.7583 101.772 78.4033 101.448 78.2675L98.4083 77.0081C98.0677 76.867 97.8332 76.5595 97.7703 76.2012ZM88.7587 85.0949C92.6185 84.0607 94.927 80.1604 93.9149 76.3834C92.9029 72.6063 88.9535 70.3828 85.0937 71.4171C81.234 72.4513 78.9255 76.3516 79.9375 80.1286C80.9496 83.9057 84.899 86.1292 88.7587 85.0949Z" fill="#FF0A47" stroke="white"/>
</svg>
