<svg width="135" height="108" viewBox="0 0 135 108" fill="none" xmlns="http://www.w3.org/2000/svg">
<path d="M94.336 111.788C120.729 104.716 136.551 78.1856 129.677 52.5307C122.803 26.8758 95.8349 11.8112 69.4423 18.8831C43.0497 25.955 27.2269 52.4853 34.1012 78.1402C40.9754 103.795 67.9434 118.86 94.336 111.788Z" fill="#FF0A47" stroke="white" stroke-miterlimit="10"/>
<path d="M96.3648 105.827C122.757 98.7555 138.58 72.2253 131.706 46.5703C124.832 20.9154 97.8637 5.85091 71.4711 12.9228C45.0785 19.9947 29.2558 46.525 36.13 72.1799C43.0042 97.8348 69.9722 112.899 96.3648 105.827Z" fill="#FF0A47" stroke="white" stroke-miterlimit="10"/>
<path d="M35.6127 70.0549C42.9516 53.2552 57.8413 39.7184 77.257 34.516C96.6728 29.3136 116.336 33.5919 131.092 44.4714" stroke="white" stroke-miterlimit="10"/>
<path d="M48.4419 26.3398C48.4419 26.3398 59.7073 23.5294 64.0345 39.6788C68.3618 55.8282 48.8425 71.3368 56.4715 99.8088" stroke="white" stroke-miterlimit="10"/>
<path d="M98.1177 13.0294C98.1177 13.0294 86.9563 16.2282 91.2836 32.3777C95.6108 48.5271 120.269 52.1983 127.898 80.6703" stroke="white" stroke-miterlimit="10"/>
<path d="M71.4707 12.9229L96.3644 105.827" stroke="white" stroke-miterlimit="10"/>
<path d="M97.4001 72.3578L78.7329 77.3596C76.6702 77.9123 74.5644 76.736 74.0271 74.7309C73.4898 72.7258 74.7254 70.6541 76.7881 70.1014L95.4553 65.0996C97.518 64.5469 99.6239 65.7232 100.161 67.7283C100.698 69.7334 99.4629 71.805 97.4001 72.3578Z" fill="#FF0A47" stroke="white" stroke-miterlimit="10"/>
</svg>
