<svg width="134" height="108" viewBox="0 0 134 108" fill="none" xmlns="http://www.w3.org/2000/svg">
<path d="M13.4445 62.631C12.8727 60.4972 14.139 58.3038 16.2729 57.7321L46.0453 49.7546C48.1791 49.1828 50.3725 50.4491 50.9442 52.583L68.0263 116.334L34.3902 125.347C32.2564 125.919 30.063 124.652 29.4912 122.518L13.4445 62.631Z" fill="#FF0A47" stroke="white"/>
<path d="M46.1764 36.5206C45.6046 34.3867 46.871 32.1934 49.0048 31.6216L78.7772 23.6441C80.9111 23.0723 83.1044 24.3387 83.6762 26.4725L105.78 108.965L68.2802 119.013L46.1764 36.5206Z" fill="#FF0A47" stroke="white"/>
<path d="M105.713 108.859L143.213 98.8106L128.46 43.7528C127.888 41.619 125.695 40.3526 123.561 40.9244L93.7886 48.9019C91.6548 49.4737 90.3884 51.667 90.9602 53.8009L105.713 108.859Z" fill="#FF0A47" stroke="white"/>
<path d="M16.9552 57.0143C16.3834 54.8805 17.6498 52.6871 19.7836 52.1154L49.556 44.1379C51.6899 43.5661 53.8832 44.8324 54.455 46.9663L71.537 110.717L37.901 119.73C35.7671 120.302 33.5737 119.036 33.002 116.902L16.9552 57.0143Z" fill="#FF0A47" stroke="white"/>
<path d="M49.4943 30.1362C48.9225 28.0023 50.1888 25.809 52.3227 25.2372L82.0951 17.2597C84.2289 16.6879 86.4223 17.9543 86.994 20.0881L109.252 103.158L71.7527 113.206L49.4943 30.1362Z" fill="#FF0A47" stroke="white"/>
<path d="M109.223 103.242L146.723 93.1939L131.97 38.1361C131.398 36.0023 129.205 34.7359 127.071 35.3077L97.2989 43.2852C95.165 43.857 93.8987 46.0503 94.4705 48.1842L109.223 103.242Z" fill="#FF0A47" stroke="white"/>
<path fill-rule="evenodd" clip-rule="evenodd" d="M67.7208 34.7114C67.7577 34.5313 67.8931 34.3875 68.0707 34.3399L69.8037 33.8756C70.3372 33.7326 70.8855 34.0492 71.0284 34.5827L75.6869 51.9683C75.8298 52.5018 75.5133 53.0501 74.9798 53.1931L73.0903 53.6994C72.5568 53.8423 72.0085 53.5257 71.8655 52.9923L68.6568 41.0174C68.5139 40.4839 67.9656 40.1673 67.4321 40.3102L66.0827 40.6718C65.5493 40.8148 65.0009 40.4982 64.858 39.9647L64.4623 38.488C64.3982 38.2487 64.5246 37.9995 64.7556 37.91C65.7894 37.5091 66.4711 37.0619 66.8613 36.5963C67.2735 36.101 67.5639 35.4782 67.7208 34.7114ZM69.1506 35.0554C68.813 35.1458 68.5572 35.4141 68.439 35.743C68.2406 36.295 67.9644 36.7883 67.6067 37.2179L67.6058 37.219C67.219 37.6807 66.6711 38.08 65.9845 38.4271C65.7159 38.5628 65.5679 38.8643 65.6458 39.155C65.7327 39.4792 66.0659 39.6715 66.39 39.5847L68.1184 39.1216C68.6519 38.9786 69.2002 39.2952 69.3431 39.8287L72.5518 51.8036C72.6948 52.3371 73.2504 52.6517 73.7838 52.5087C74.3173 52.3658 74.6412 51.8155 74.4982 51.282L70.3332 35.7381C70.1952 35.223 69.6657 34.9173 69.1506 35.0554Z" fill="white"/>
<path d="M67.6067 37.2179C67.9644 36.7883 68.2406 36.295 68.439 35.743C68.5572 35.4141 68.813 35.1458 69.1506 35.0554C69.6657 34.9173 70.1952 35.223 70.3332 35.7381L74.4982 51.282C74.6412 51.8155 74.3173 52.3658 73.7838 52.5087C73.2504 52.6517 72.6948 52.3371 72.5518 51.8036L69.3431 39.8287C69.2002 39.2952 68.6519 38.9786 68.1184 39.1216L66.39 39.5847C66.0659 39.6715 65.7327 39.4792 65.6458 39.155C65.5679 38.8643 65.7159 38.5628 65.9845 38.4271C66.6711 38.08 67.219 37.6807 67.6058 37.219L67.6067 37.2179Z" fill="#FF0A47"/>
<path fill-rule="evenodd" clip-rule="evenodd" d="M70.2316 32.0947C70.2684 31.9146 70.4038 31.7708 70.5814 31.7232L72.3144 31.2589C72.8479 31.1159 73.3962 31.4325 73.5392 31.966L78.1976 49.3516C78.3406 49.8851 78.024 50.4334 77.4905 50.5764L75.601 51.0827C75.0675 51.2256 74.5192 50.909 74.3763 50.3756L71.1676 38.4007C71.0246 37.8672 70.4763 37.5506 69.9428 37.6935L68.5935 38.0551C68.06 38.1981 67.5117 37.8815 67.3687 37.348L66.973 35.8713C66.9089 35.632 67.0354 35.3828 67.2663 35.2933C68.3002 34.8924 68.9818 34.4452 69.372 33.9796C69.7843 33.4843 70.0746 32.8615 70.2316 32.0947ZM71.6614 32.4387C71.3238 32.5291 71.0679 32.7974 70.9497 33.1263C70.7514 33.6783 70.4751 34.1716 70.1174 34.6012L70.1165 34.6023C69.7298 35.064 69.1819 35.4633 68.4953 35.8104C68.2267 35.9461 68.0787 36.2476 68.1566 36.5383C68.2434 36.8625 68.5766 37.0548 68.9008 36.968L70.6291 36.5049C71.1626 36.3619 71.7109 36.6785 71.8539 37.212L75.0626 49.1869C75.2055 49.7204 75.7611 50.035 76.2946 49.892C76.828 49.7491 77.1519 49.1988 77.009 48.6653L72.844 33.1214C72.7059 32.6063 72.1765 32.3006 71.6614 32.4387Z" fill="white"/>
<path d="M70.1174 34.6012C70.4751 34.1716 70.7514 33.6783 70.9497 33.1263C71.0679 32.7974 71.3238 32.5291 71.6614 32.4387C72.1765 32.3006 72.7059 32.6063 72.844 33.1214L77.009 48.6653C77.1519 49.1988 76.828 49.7491 76.2946 49.892C75.7611 50.035 75.2055 49.7204 75.0626 49.1869L71.8539 37.212C71.7109 36.6785 71.1626 36.3619 70.6291 36.5049L68.9008 36.968C68.5766 37.0548 68.2434 36.8625 68.1566 36.5383C68.0787 36.2476 68.2267 35.9461 68.4953 35.8104C69.1819 35.4633 69.7298 35.064 70.1165 34.6023L70.1174 34.6012Z" fill="#FF0A47"/>
<path fill-rule="evenodd" clip-rule="evenodd" d="M115.109 50.4382C114.418 50.6232 113.78 50.8973 113.193 51.26L113.188 51.263C112.576 51.6312 112.119 51.9739 111.801 52.2885L111.796 52.2938C111.465 52.6114 111.169 52.9668 110.908 53.361C110.898 53.3762 110.888 53.3911 110.879 53.4058C110.625 53.7899 110.76 54.2914 111.159 54.5201L111.785 54.8784C111.869 54.927 111.978 54.8938 112.021 54.8058C112.263 54.3411 112.715 53.8434 113.324 53.3144C113.974 52.7491 114.722 52.3531 115.562 52.1282C116.547 51.8642 117.448 51.8979 118.217 52.3058C118.996 52.712 119.498 53.4078 119.744 54.3262C119.988 55.2377 119.899 56.0866 119.428 56.8265C118.967 57.5641 118.203 58.0439 117.217 58.308L116.698 58.4471C116.232 58.5721 115.955 59.0518 116.08 59.5185C116.205 59.9852 116.685 60.2622 117.151 60.1371L117.67 59.998C118.881 59.6737 119.976 59.6979 120.915 60.1386C121.845 60.5674 122.459 61.2795 122.719 62.2522C122.978 63.2183 122.801 64.1406 122.215 64.983L122.213 64.9861C121.617 65.8283 120.68 66.392 119.47 66.7161C118.834 66.8867 118.2 66.9736 117.57 66.975L117.561 66.975C116.961 66.9651 116.443 66.9134 116.016 66.8124L116.009 66.8107L116.001 66.8087C115.602 66.7013 115.21 66.5631 114.826 66.3945L114.818 66.3911C114.477 66.2347 114.067 66.3578 113.879 66.6827L113.78 66.855C113.537 67.2746 113.672 67.8006 114.115 67.995C114.147 68.009 114.18 68.0232 114.214 68.0376C114.622 68.2122 115.097 68.3734 115.64 68.5198C116.159 68.6476 116.804 68.7172 117.582 68.7208C118.341 68.7159 119.12 68.6076 119.92 68.3934C121.81 67.8869 123.145 67.0004 123.984 65.7645C124.835 64.508 125.064 63.2177 124.7 61.8589C124.537 61.2496 124.281 60.7318 123.938 60.2973L123.933 60.2903C123.572 59.8163 123.234 59.493 122.923 59.2955C122.585 59.0807 122.216 58.9098 121.815 58.7835L121.807 58.7812C121.36 58.6325 121.1 58.5667 120.989 58.5545L120.973 58.5527L120.956 58.5497C120.796 58.521 120.678 58.5025 120.597 58.4929C120.199 58.4454 120.027 57.9622 120.306 57.6737L120.537 57.4345L120.555 57.4193C120.663 57.3272 120.8 57.1685 120.963 56.9213C121.131 56.6652 121.296 56.3678 121.458 56.0273C121.598 55.7343 121.696 55.3607 121.739 54.8947L121.739 54.8899C121.787 54.4308 121.751 53.9792 121.631 53.532C121.27 52.1854 120.521 51.2434 119.38 50.6621L119.378 50.6611C118.239 50.0747 116.831 49.9766 115.109 50.4382ZM114.554 65.1852C114.658 65.2432 114.874 65.3488 115.219 65.5072C115.557 65.6549 115.899 65.7756 116.246 65.8695C116.58 65.9476 117.019 65.9951 117.572 66.0044C118.112 66.0028 118.661 65.9282 119.219 65.7786C120.282 65.494 120.992 65.0305 121.419 64.4271C121.851 63.8066 121.963 63.1774 121.782 62.5034C121.599 61.819 121.186 61.3319 120.508 61.0195L120.504 61.0179C119.831 60.7012 118.983 60.6511 117.922 60.9355L116.586 61.2934C116.052 61.4364 115.504 61.1198 115.361 60.5863L114.923 58.9531C114.781 58.4197 115.097 57.8713 115.631 57.7284L116.966 57.3705C117.792 57.1493 118.312 56.7819 118.606 56.3104L118.609 56.3069C118.911 55.8325 118.992 55.2715 118.806 54.5774C118.618 53.8729 118.264 53.4248 117.767 53.1656L117.763 53.1637C117.272 52.9027 116.638 52.8445 115.813 53.0657C115.114 53.2529 114.499 53.5795 113.961 54.047C113.384 54.548 113.043 54.9482 112.884 55.2492L112.827 55.3667C112.573 55.8857 111.933 56.082 111.432 55.7948L109.572 54.7295C109.361 54.6091 109.272 54.3523 109.362 54.1276C109.401 54.0308 109.458 53.905 109.53 53.7549L109.531 53.7525C109.625 53.5609 109.821 53.2442 110.099 52.8249C110.398 52.3738 110.739 51.9641 111.121 51.5965C111.512 51.2096 112.038 50.8226 112.685 50.4328C113.355 50.0197 114.079 49.7092 114.858 49.5007C116.741 48.9961 118.41 49.0714 119.821 49.7978C121.225 50.5128 122.142 51.6884 122.569 53.2808C122.719 53.8412 122.764 54.4109 122.705 54.9871C122.654 55.5346 122.535 56.0243 122.334 56.4446C122.157 56.8177 121.97 57.1547 121.774 57.4539L121.774 57.4548C121.694 57.5757 121.751 57.7436 121.889 57.7872C121.96 57.8096 122.034 57.8336 122.11 57.8589C122.587 58.0095 123.032 58.2151 123.443 58.4762C123.882 58.7548 124.3 59.1707 124.703 59.6993C125.134 60.2467 125.444 60.8855 125.638 61.6077C126.079 63.2566 125.786 64.8353 124.787 66.3094C123.787 67.7824 122.229 68.7796 120.171 69.3309C119.297 69.5651 118.435 69.6862 117.585 69.6914L117.58 69.6914C116.748 69.6877 116.02 69.6135 115.402 69.4609L115.393 69.4585C114.813 69.3024 114.292 69.1266 113.832 68.93C113.389 68.7403 113.031 68.5607 112.78 68.3898L112.772 68.3847C112.374 68.0918 112.26 67.5463 112.507 67.1182L113.632 65.17C113.785 64.9048 114.142 64.846 114.372 65.0481C114.398 65.0706 114.455 65.1147 114.554 65.1852Z" fill="white"/>
<path d="M113.193 51.26C113.78 50.8973 114.418 50.6232 115.109 50.4382C116.831 49.9766 118.239 50.0747 119.378 50.6611L119.38 50.6621C120.521 51.2434 121.27 52.1854 121.631 53.532C121.751 53.9792 121.787 54.4308 121.739 54.8899L121.739 54.8947C121.696 55.3607 121.598 55.7343 121.458 56.0273C121.296 56.3678 121.131 56.6652 120.963 56.9213C120.8 57.1685 120.663 57.3272 120.555 57.4193L120.537 57.4345L120.306 57.6737C120.027 57.9622 120.199 58.4454 120.597 58.4929C120.678 58.5025 120.796 58.521 120.956 58.5497L120.973 58.5527L120.989 58.5545C121.1 58.5667 121.36 58.6325 121.807 58.7812L121.815 58.7835C122.216 58.9098 122.585 59.0807 122.923 59.2955C123.234 59.493 123.572 59.8163 123.933 60.2903L123.938 60.2973C124.281 60.7318 124.537 61.2496 124.7 61.8589C125.064 63.2177 124.835 64.508 123.984 65.7645C123.145 67.0004 121.81 67.8869 119.92 68.3934C119.12 68.6076 118.341 68.7159 117.582 68.7208C116.804 68.7172 116.159 68.6476 115.64 68.5198C115.097 68.3734 114.622 68.2122 114.214 68.0376C114.18 68.0232 114.147 68.009 114.115 67.995C113.672 67.8006 113.537 67.2746 113.78 66.855L113.879 66.6827C114.067 66.3578 114.477 66.2347 114.818 66.3911L114.826 66.3945C115.21 66.5631 115.602 66.7013 116.001 66.8087L116.009 66.8107L116.016 66.8124C116.443 66.9134 116.961 66.9651 117.561 66.975L117.57 66.975C118.2 66.9736 118.834 66.8867 119.47 66.7161C120.68 66.392 121.617 65.8283 122.213 64.9861L122.215 64.983C122.801 64.1406 122.978 63.2183 122.719 62.2522C122.459 61.2795 121.845 60.5674 120.915 60.1386C119.976 59.6979 118.881 59.6737 117.67 59.998L117.151 60.1371C116.685 60.2622 116.205 59.9852 116.08 59.5185C115.955 59.0518 116.232 58.5721 116.698 58.4471L117.217 58.308C118.203 58.0439 118.967 57.5641 119.428 56.8265C119.899 56.0866 119.988 55.2377 119.744 54.3262C119.498 53.4078 118.996 52.712 118.217 52.3058C117.448 51.8979 116.547 51.8642 115.562 52.1282C114.722 52.3531 113.974 52.7491 113.324 53.3144C112.715 53.8434 112.263 54.3411 112.021 54.8058C111.978 54.8938 111.869 54.927 111.785 54.8784L111.159 54.5201C110.76 54.2914 110.625 53.7899 110.879 53.4058C110.888 53.3911 110.898 53.3762 110.908 53.361C111.169 52.9668 111.465 52.6114 111.796 52.2938L111.801 52.2885C112.119 51.9739 112.576 51.6312 113.188 51.263L113.193 51.26Z" fill="#FF0A47"/>
<path fill-rule="evenodd" clip-rule="evenodd" d="M117.62 47.8213C116.929 48.0064 116.291 48.2805 115.704 48.6432L115.699 48.6461C115.087 49.0143 114.629 49.3571 114.312 49.6717L114.307 49.677C113.976 49.9946 113.68 50.35 113.419 50.7442C113.409 50.7593 113.399 50.7743 113.389 50.789C113.136 51.1731 113.27 51.6746 113.67 51.9032L114.295 52.2615C114.38 52.3102 114.489 52.2769 114.532 52.189C114.774 51.7243 115.226 51.2266 115.835 50.6975C116.485 50.1322 117.233 49.7363 118.072 49.5114C119.058 49.2474 119.959 49.2811 120.728 49.6889C121.506 50.0951 122.009 50.7909 122.255 51.7093C122.499 52.6209 122.409 53.4698 121.939 54.2096C121.477 54.9473 120.714 55.4271 119.728 55.6912L119.209 55.8302C118.742 55.9553 118.465 56.435 118.591 56.9017C118.716 57.3684 119.195 57.6454 119.662 57.5203L120.181 57.3812C121.392 57.0568 122.487 57.081 123.426 57.5218C124.356 57.9506 124.97 58.6627 125.23 59.6354C125.489 60.6014 125.312 61.5238 124.726 62.3662L124.724 62.3692C124.128 63.2115 123.191 63.7752 121.981 64.0993C121.345 64.2698 120.711 64.3568 120.081 64.3582L120.072 64.3582C119.472 64.3483 118.954 64.2966 118.527 64.1956L118.519 64.1939L118.512 64.1919C118.113 64.0845 117.721 63.9463 117.336 63.7776L117.329 63.7743C116.988 63.6179 116.577 63.741 116.39 64.0659L116.29 64.2382C116.048 64.6577 116.182 65.1838 116.626 65.3782C116.658 65.3922 116.691 65.4064 116.725 65.4208C117.133 65.5953 117.607 65.7565 118.151 65.903C118.67 66.0308 119.315 66.1004 120.093 66.104C120.852 66.0991 121.631 65.9908 122.431 65.7765C124.321 65.2701 125.656 64.3836 126.494 63.1477C127.346 61.8912 127.575 60.6008 127.211 59.242C127.048 58.6328 126.792 58.115 126.449 57.6805L126.443 57.6735C126.083 57.1995 125.745 56.8762 125.434 56.6787C125.096 56.4639 124.727 56.293 124.325 56.1667L124.318 56.1644C123.871 56.0157 123.611 55.9499 123.5 55.9377L123.483 55.9359L123.467 55.9329C123.307 55.9041 123.189 55.8857 123.108 55.8761C122.71 55.8286 122.538 55.3454 122.817 55.0569L123.048 54.8176L123.066 54.8025C123.174 54.7103 123.311 54.5516 123.474 54.3045C123.641 54.0484 123.807 53.7509 123.969 53.4105C124.108 53.1175 124.206 52.7439 124.25 52.2779L124.25 52.273C124.298 51.814 124.262 51.3623 124.142 50.9152C123.781 49.5686 123.032 48.6265 121.891 48.0453L121.889 48.0443C120.75 47.4579 119.342 47.3598 117.62 47.8213ZM117.065 62.5683C117.169 62.6264 117.384 62.732 117.73 62.8903C118.067 63.0381 118.41 63.1588 118.757 63.2527C119.091 63.3308 119.53 63.3782 120.083 63.3876C120.623 63.386 121.172 63.3114 121.73 63.1618C122.792 62.8772 123.503 62.4137 123.93 61.8103C124.361 61.1897 124.473 60.5606 124.293 59.8866C124.109 59.2022 123.697 58.7151 123.019 58.4026L123.015 58.4011C122.341 58.0844 121.494 58.0342 120.432 58.3187L119.097 58.6766C118.563 58.8195 118.015 58.503 117.872 57.9695L117.434 56.3363C117.291 55.8028 117.608 55.2545 118.141 55.1116L119.477 54.7537C120.302 54.5325 120.822 54.1651 121.117 53.6936L121.119 53.6901C121.421 53.2157 121.503 52.6547 121.317 51.9605C121.128 51.2561 120.775 50.8079 120.278 50.5488L120.274 50.5469C119.783 50.2859 119.149 50.2277 118.324 50.4489C117.625 50.6361 117.009 50.9626 116.471 51.4302C115.895 51.9312 115.553 52.3314 115.395 52.6324L115.338 52.7499C115.084 53.2689 114.444 53.4652 113.943 53.178L112.082 52.1127C111.872 51.9923 111.783 51.7355 111.873 51.5108C111.912 51.414 111.969 51.2882 112.041 51.1381L112.042 51.1357C112.135 50.9441 112.332 50.6274 112.61 50.208C112.909 49.757 113.249 49.3472 113.631 48.9797C114.022 48.5928 114.549 48.2058 115.196 47.816C115.865 47.4029 116.59 47.0924 117.368 46.8838C119.251 46.3793 120.921 46.4545 122.332 47.181C123.735 47.896 124.653 49.0716 125.079 50.664C125.229 51.2244 125.275 51.7941 125.216 52.3703C125.165 52.9177 125.045 53.4075 124.845 53.8277C124.668 54.2009 124.481 54.5379 124.285 54.8371L124.284 54.838C124.205 54.9588 124.262 55.1268 124.4 55.1704C124.471 55.1928 124.544 55.2167 124.621 55.2421C125.098 55.3927 125.543 55.5983 125.954 55.8594C126.393 56.1379 126.811 56.5538 127.213 57.0825C127.645 57.6299 127.955 58.2687 128.148 58.9908C128.59 60.6397 128.297 62.2185 127.298 63.6925C126.298 65.1656 124.739 66.1627 122.682 66.714C121.807 66.9483 120.945 67.0693 120.096 67.0746L120.091 67.0746C119.259 67.0709 118.53 66.9967 117.913 66.844L117.903 66.8416C117.324 66.6855 116.803 66.5098 116.343 66.3132C115.9 66.1235 115.542 65.9439 115.291 65.773L115.283 65.7679C114.885 65.4749 114.771 64.9294 115.018 64.5013L116.142 62.5532C116.296 62.288 116.653 62.2291 116.883 62.4313C116.909 62.4537 116.965 62.4979 117.065 62.5683Z" fill="white"/>
<path d="M115.704 48.6432C116.291 48.2805 116.929 48.0064 117.62 47.8213C119.342 47.3598 120.75 47.4579 121.889 48.0443L121.891 48.0453C123.032 48.6265 123.781 49.5686 124.142 50.9152C124.262 51.3623 124.298 51.814 124.25 52.273L124.25 52.2779C124.206 52.7439 124.108 53.1175 123.969 53.4105C123.807 53.7509 123.641 54.0484 123.474 54.3045C123.311 54.5516 123.174 54.7103 123.066 54.8025L123.048 54.8176L122.817 55.0569C122.538 55.3454 122.71 55.8286 123.108 55.8761C123.189 55.8857 123.307 55.9041 123.467 55.9329L123.483 55.9359L123.5 55.9377C123.611 55.9499 123.871 56.0157 124.318 56.1644L124.325 56.1667C124.727 56.293 125.096 56.4639 125.434 56.6787C125.745 56.8762 126.083 57.1995 126.443 57.6735L126.449 57.6805C126.792 58.115 127.048 58.6328 127.211 59.242C127.575 60.6008 127.346 61.8912 126.494 63.1477C125.656 64.3836 124.321 65.2701 122.431 65.7765C121.631 65.9908 120.852 66.0991 120.093 66.104C119.315 66.1004 118.67 66.0308 118.151 65.903C117.607 65.7565 117.133 65.5953 116.725 65.4208C116.691 65.4064 116.658 65.3922 116.626 65.3782C116.182 65.1838 116.048 64.6577 116.29 64.2382L116.39 64.0659C116.577 63.741 116.988 63.6179 117.329 63.7743L117.336 63.7776C117.721 63.9463 118.113 64.0845 118.512 64.1919L118.519 64.1939L118.527 64.1956C118.954 64.2966 119.472 64.3483 120.072 64.3582L120.081 64.3582C120.711 64.3568 121.345 64.2698 121.981 64.0993C123.191 63.7752 124.128 63.2115 124.724 62.3692L124.726 62.3662C125.312 61.5238 125.489 60.6014 125.23 59.6354C124.97 58.6627 124.356 57.9506 123.426 57.5218C122.487 57.081 121.392 57.0568 120.181 57.3812L119.662 57.5203C119.195 57.6454 118.716 57.3684 118.591 56.9017C118.465 56.435 118.742 55.9553 119.209 55.8302L119.728 55.6912C120.714 55.4271 121.477 54.9473 121.939 54.2096C122.409 53.4698 122.499 52.6209 122.255 51.7093C122.009 50.7909 121.506 50.0951 120.728 49.6889C119.959 49.2811 119.058 49.2474 118.072 49.5114C117.233 49.7363 116.485 50.1322 115.835 50.6975C115.226 51.2266 114.774 51.7243 114.532 52.189C114.489 52.2769 114.38 52.3102 114.295 52.2615L113.67 51.9032C113.27 51.6746 113.136 51.1731 113.389 50.789C113.399 50.7743 113.409 50.7593 113.419 50.7442C113.68 50.35 113.976 49.9946 114.307 49.677L114.312 49.6717C114.629 49.3571 115.087 49.0143 115.699 48.6461L115.704 48.6432Z" fill="#FF0A47"/>
<path d="M37.8564 61.2241C37.2095 60.8772 36.475 60.7687 35.674 60.8652L36.4448 61.8105C36.8044 61.8379 37.1206 61.9306 37.3988 62.08L37.4019 62.0817C37.9866 62.3901 38.4006 62.9232 38.6219 63.7491C38.6992 64.0375 38.7347 64.3245 38.7284 64.6113L39.5518 65.6212C39.7463 64.9166 39.7491 64.2058 39.5594 63.4979C39.2817 62.4617 38.7214 61.6811 37.8564 61.2241Z" fill="white"/>
<path d="M32.2307 60.3759C32.8347 59.9128 33.5627 59.5626 34.4239 59.3319C36.1253 58.876 37.6193 59.0207 38.9395 59.7301C40.2655 60.4426 41.1144 61.5158 41.5058 62.9764C41.7125 63.7479 41.7454 64.4982 41.6097 65.2328C41.4704 65.9873 41.2166 66.6472 40.8541 67.2184C40.4713 67.8204 40.0116 68.464 39.4736 69.1494C38.9394 69.8271 38.4117 70.4569 37.8905 71.039C37.3404 71.6533 36.8262 72.3506 36.347 73.129C35.8632 73.9145 35.5303 74.7077 35.3577 75.5081C35.2812 75.8629 35.6071 76.173 35.9577 76.0791L43.5648 74.0408C44.0315 73.9157 44.5112 74.1927 44.6362 74.6594C44.7613 75.1261 44.4843 75.6058 44.0176 75.7308L34.6189 78.2492C34.0684 78.3967 33.4991 78.055 33.4387 77.4883C33.3814 76.9516 33.3767 76.4342 33.4231 75.9358L33.4233 75.9343C33.5111 74.9606 33.735 74.13 34.0842 73.4329C34.4614 72.6952 34.9014 71.9936 35.4042 71.3279C35.925 70.6476 36.453 70.016 36.988 69.4327L36.991 69.4294C37.5403 68.8194 38.0373 68.2313 38.4817 67.6654C38.9619 67.0625 39.3121 66.4104 39.5263 65.7101L39.5272 65.7069C39.5358 65.6783 39.544 65.6498 39.5518 65.6212L38.7284 64.6113C38.7224 64.8832 38.6789 65.155 38.5976 65.4279C38.4214 66.0033 38.1313 66.5477 37.7215 67.0618L37.7193 67.0647C37.2904 67.6111 36.8079 68.1823 36.2713 68.7782C35.7156 69.3842 35.1694 70.0379 34.6327 70.7391L34.6308 70.7415C34.0933 71.4529 33.6227 72.2034 33.2192 72.9927L33.2175 72.9961C32.8033 73.822 32.5533 74.7754 32.4567 75.8466C32.3562 76.9262 32.4691 78.0594 32.7862 79.2427C32.8556 79.5016 33.1217 79.6552 33.3805 79.5858L45.0854 76.4495C45.6189 76.3066 45.9355 75.7582 45.7925 75.2248L45.3549 73.5916C45.212 73.0581 44.6637 72.7415 44.1302 72.8845L37.9222 74.5479C37.3427 74.7032 36.8589 74.1486 37.1736 73.6378C37.626 72.9028 38.1063 72.2529 38.6135 71.6864C39.1496 71.0877 39.6904 70.4422 40.2361 69.7499L40.2367 69.7492C40.7908 69.0432 41.2703 68.3727 41.6735 67.7385C42.1094 67.0518 42.4046 66.2731 42.5641 65.4091C42.7274 64.5249 42.6853 63.6285 42.4433 62.7252C41.9829 61.0071 40.9617 59.7149 39.3989 58.8751C37.8305 58.0324 36.0772 57.8841 34.1727 58.3944C33.2052 58.6536 32.358 59.0552 31.6401 59.6057C30.9535 60.1321 30.4269 60.6632 30.0901 61.2035C29.7721 61.7138 29.5223 62.2683 29.3397 62.8653L29.3379 62.8713C29.1772 63.4223 29.0727 63.8479 29.0499 64.1091L29.049 64.1189L29.0486 64.1288C29.039 64.3352 29.033 64.5069 29.0308 64.6424C29.0268 64.8841 29.2012 65.0918 29.4399 65.1297L31.7969 65.5039C32.2317 65.5729 32.6312 65.252 32.6576 64.8126C32.6711 64.6665 32.7201 64.4591 32.8209 64.1812C32.9313 63.898 33.0672 63.6102 33.2294 63.3175C33.3675 63.0689 33.5991 62.8075 33.9498 62.5395L33.9535 62.5366C34.2939 62.2713 34.6837 62.0785 35.1279 61.9594C35.6217 61.8271 36.0584 61.7811 36.4448 61.8105L35.674 60.8652C35.415 60.8963 35.149 60.949 34.8767 61.0219C34.3135 61.1728 33.8058 61.4216 33.3588 61.7696C32.935 62.0936 32.6004 62.4509 32.3805 62.8471C32.1979 63.1765 32.0422 63.5056 31.9143 63.8343L31.9107 63.8443C31.779 64.2062 31.4181 64.4611 31.0378 64.4007L30.0152 64.2383L30.0176 64.1847C30.0328 64.0296 30.1085 63.6957 30.2688 63.1462C30.4278 62.6271 30.6431 62.1512 30.9138 61.7168C31.1663 61.3117 31.5953 60.8631 32.2307 60.3759Z" fill="white"/>
<path d="M34.4239 59.3319C33.5627 59.5626 32.8347 59.9128 32.2307 60.3759C31.5953 60.8631 31.1663 61.3117 30.9138 61.7168C30.6431 62.1512 30.4278 62.6271 30.2688 63.1462C30.1085 63.6957 30.0328 64.0296 30.0176 64.1847L30.0152 64.2383L31.0378 64.4007C31.4181 64.4611 31.779 64.2062 31.9107 63.8443L31.9143 63.8343C32.0422 63.5056 32.1979 63.1765 32.3805 62.8471C32.6004 62.4509 32.935 62.0936 33.3588 61.7696C33.8058 61.4216 34.3135 61.1728 34.8767 61.0219C35.149 60.949 35.415 60.8963 35.674 60.8652C36.475 60.7687 37.2095 60.8772 37.8564 61.2241C38.7214 61.6811 39.2817 62.4617 39.5594 63.4979C39.7491 64.2058 39.7463 64.9166 39.5518 65.6212C39.544 65.6498 39.5358 65.6783 39.5272 65.7069L39.5263 65.7101C39.3121 66.4104 38.9619 67.0625 38.4817 67.6654C38.0373 68.2313 37.5403 68.8194 36.991 69.4294L36.988 69.4327C36.453 70.016 35.925 70.6476 35.4042 71.3279C34.9014 71.9936 34.4614 72.6952 34.0842 73.4329C33.735 74.13 33.5111 74.9606 33.4233 75.9343L33.4231 75.9358C33.3767 76.4342 33.3814 76.9516 33.4387 77.4883C33.4991 78.055 34.0684 78.3967 34.6189 78.2492L44.0176 75.7308C44.4843 75.6058 44.7613 75.1261 44.6362 74.6594C44.5112 74.1927 44.0315 73.9157 43.5648 74.0408L35.9577 76.0791C35.6071 76.173 35.2812 75.8629 35.3577 75.5081C35.5303 74.7077 35.8632 73.9145 36.347 73.129C36.8262 72.3506 37.3404 71.6533 37.8905 71.039C38.4117 70.4569 38.9394 69.8271 39.4736 69.1494C40.0116 68.464 40.4713 67.8204 40.8541 67.2184L41.6097 65.2328L41.5058 62.9764C41.1144 61.5158 40.2655 60.4426 38.9395 59.7301C37.6193 59.0207 36.1253 58.876 34.4239 59.3319Z" fill="#FF0A47"/>
<path d="M40.3666 58.6073C39.7198 58.2604 38.9852 58.1519 38.1843 58.2483L38.9551 59.1937C39.3147 59.2211 39.6308 59.3138 39.909 59.4632L39.9122 59.4649C40.4968 59.7733 40.9109 60.3064 41.1322 61.1323C41.2094 61.4207 41.245 61.7076 41.2387 61.9945L42.0621 63.0044C42.2566 62.2997 42.2593 61.589 42.0697 60.8811C41.792 59.8449 41.2317 59.0643 40.3666 58.6073Z" fill="white"/>
<path d="M34.7409 57.7591C35.3449 57.296 36.073 56.9458 36.9341 56.715C38.6355 56.2592 40.1295 56.4038 41.4498 57.1133C42.7758 57.8258 43.6247 58.899 44.0161 60.3596C44.2228 61.1311 44.2556 61.8814 44.12 62.616C43.9806 63.3705 43.7269 64.0303 43.3643 64.6016C42.9816 65.2036 42.5219 65.8472 41.9839 66.5326C41.4496 67.2103 40.9219 67.8401 40.4007 68.4221C39.8506 69.0365 39.3364 69.7338 38.8573 70.5122C38.3734 71.2976 38.0405 72.0909 37.868 72.8912C37.7915 73.2461 38.1174 73.5562 38.468 73.4623L46.075 71.4239C46.5417 71.2989 47.0214 71.5759 47.1465 72.0426C47.2715 72.5092 46.9946 72.989 46.5279 73.114L37.1292 75.6324C36.5786 75.7799 36.0094 75.4382 35.9489 74.8714C35.8917 74.3347 35.8869 73.8174 35.9334 73.3189L35.9335 73.3175C36.0213 72.3438 36.2452 71.5132 36.5945 70.8161C36.9717 70.0784 37.4116 69.3768 37.9145 68.7111C38.4353 68.0308 38.9632 67.3992 39.4983 66.8159L39.5012 66.8126C40.0505 66.2026 40.5476 65.6145 40.9919 65.0485C41.4722 64.4456 41.8224 63.7935 42.0365 63.0933L42.0375 63.09C42.046 63.0615 42.0542 63.0329 42.0621 63.0044L41.2387 61.9945C41.2327 62.2664 41.1891 62.5382 41.1079 62.811C40.9317 63.3865 40.6416 63.9308 40.2318 64.445L40.2296 64.4478C39.8007 64.9943 39.3181 65.5654 38.7815 66.1614C38.2258 66.7673 37.6797 67.4211 37.1429 68.1223L37.1411 68.1247C36.6036 68.8361 36.133 69.5866 35.7295 70.3759L35.7278 70.3793C35.3136 71.2052 35.0636 72.1586 34.9669 73.2298C34.8665 74.3094 34.9794 75.4426 35.2964 76.6259C35.3658 76.8847 35.6319 77.0384 35.8908 76.969L47.5957 73.8327C48.1292 73.6897 48.4457 73.1414 48.3028 72.6079L47.8652 70.9748C47.7222 70.4413 47.1739 70.1247 46.6404 70.2676L40.4324 71.9311C39.853 72.0863 39.3691 71.5317 39.6838 71.021C40.1362 70.2859 40.6165 69.6361 41.1238 69.0696C41.6599 68.4709 42.2007 67.8253 42.7463 67.1331L42.7469 67.1323C43.3011 66.4264 43.7806 65.7559 44.1838 65.1217C44.6197 64.435 44.9148 63.6563 45.0744 62.7922C45.2377 61.9081 45.1956 61.0117 44.9535 60.1084C44.4932 58.3903 43.4719 57.098 41.9092 56.2583C40.3408 55.4156 38.5875 55.2672 36.6829 55.7776C35.7155 56.0368 34.8683 56.4384 34.1503 56.9889C33.4638 57.5153 32.9371 58.0463 32.6004 58.5867C32.2824 59.0969 32.0325 59.6515 31.8499 60.2485L31.8482 60.2545C31.6875 60.8054 31.5829 61.2311 31.5601 61.4923L31.5593 61.5021L31.5588 61.512C31.5493 61.7184 31.5433 61.8901 31.541 62.0256C31.537 62.2673 31.7115 62.475 31.9502 62.5129L34.3071 62.8871C34.7419 62.9561 35.1415 62.6352 35.1678 62.1958C35.1814 62.0497 35.2304 61.8423 35.3312 61.5644C35.4416 61.2812 35.5775 60.9934 35.7397 60.7007C35.8777 60.4521 36.1093 60.1906 36.4601 59.9227L36.4637 59.9198C36.8042 59.6545 37.1939 59.4616 37.6382 59.3426C38.132 59.2103 38.5686 59.1643 38.9551 59.1937L38.1843 58.2483C37.9252 58.2795 37.6592 58.3322 37.387 58.4051C36.8238 58.556 36.316 58.8048 35.869 59.1528C35.4453 59.4768 35.1106 59.8341 34.8907 60.2302C34.7082 60.5597 34.5524 60.8888 34.4246 61.2175L34.4209 61.2275C34.2893 61.5894 33.9284 61.8442 33.5481 61.7839L32.5254 61.6215L32.5279 61.5679C32.5431 61.4127 32.6188 61.0789 32.779 60.5294C32.938 60.0103 33.1534 59.5344 33.4241 59.1C33.6766 58.6948 34.1055 58.2463 34.7409 57.7591Z" fill="white"/>
<path d="M36.9341 56.715C36.073 56.9458 35.3449 57.296 34.7409 57.7591C34.1055 58.2463 33.6766 58.6948 33.4241 59.1C33.1534 59.5344 32.938 60.0103 32.779 60.5294C32.6188 61.0789 32.5431 61.4127 32.5279 61.5679L32.5254 61.6215L33.5481 61.7839C33.9284 61.8442 34.2893 61.5894 34.4209 61.2275L34.4246 61.2175C34.5524 60.8888 34.7082 60.5597 34.8907 60.2302C35.1106 59.8341 35.4453 59.4768 35.869 59.1528C36.316 58.8048 36.8238 58.556 37.387 58.4051C37.6592 58.3322 37.9252 58.2795 38.1843 58.2483C38.9852 58.1519 39.7198 58.2604 40.3666 58.6073C41.2317 59.0643 41.792 59.8449 42.0697 60.8811C42.2593 61.589 42.2566 62.2997 42.0621 63.0044C42.0542 63.0329 42.046 63.0615 42.0375 63.09L42.0365 63.0933C41.8224 63.7935 41.4722 64.4456 40.9919 65.0485C40.5476 65.6145 40.0505 66.2026 39.5012 66.8126L39.4983 66.8159C38.9632 67.3992 38.4353 68.0308 37.9145 68.7111C37.4116 69.3768 36.9717 70.0784 36.5945 70.8161C36.2452 71.5132 36.0213 72.3438 35.9335 73.3175L35.9334 73.3189C35.8869 73.8174 35.8917 74.3347 35.9489 74.8714C36.0094 75.4382 36.5786 75.7799 37.1292 75.6324L46.5279 73.114C46.9946 72.989 47.2715 72.5092 47.1465 72.0426C47.0214 71.5759 46.5417 71.2989 46.075 71.4239L38.468 73.4623C38.1174 73.5562 37.7915 73.2461 37.868 72.8912C38.0405 72.0909 38.3734 71.2976 38.8573 70.5122C39.3364 69.7338 39.8506 69.0365 40.4007 68.4221C40.9219 67.8401 41.4496 67.2103 41.9839 66.5326C42.5219 65.8472 42.9816 65.2036 43.3643 64.6016L44.12 62.616L44.0161 60.3596C43.6247 58.899 42.7758 57.8258 41.4498 57.1133C40.1295 56.4038 38.6355 56.2592 36.9341 56.715Z" fill="#FF0A47"/>
</svg>
