<svg xmlns="http://www.w3.org/2000/svg" width="147" height="147" fill="none"><path fill="#FF0A47" stroke="#fff" d="M65.11 60.512c.393-2.585 3.676-3.465 5.31-1.422l4.843 6.058a3 3 0 0 0 2.853 1.083l7.663-1.321c2.608-.45 4.478 2.451 2.992 4.64l-4.284 6.312a3 3 0 0 0-.169 3.09l3.564 6.73c1.23 2.322-.907 4.99-3.442 4.297l-7.578-2.071a3 3 0 0 0-2.923.783l-5.526 5.583c-1.849 1.867-5.034.625-5.13-2.001l-.279-7.61a3 3 0 0 0-1.69-2.591l-6.866-3.324c-2.382-1.154-2.213-4.601.27-5.516l7.297-2.686a3 3 0 0 0 1.93-2.365l1.165-7.669Z"/><path fill="#FF0A47" fill-rule="evenodd" stroke="#fff" d="M115.887 67.113a37.894 37.894 0 0 0-.718-3.283 37.967 37.967 0 0 0-1.02-3.201c-.509-1.396-.307-2.962.609-4.157l8.179-10.661c.868-1.142.747-2.745-.278-3.804L105.895 25.53c-1.025-1.059-2.702-1.095-3.848-.303l-10.846 8.03c-1.23.91-2.845 1.102-4.285.605a43.615 43.615 0 0 0-6.484-1.701c-1.502-.272-2.8-1.213-3.394-2.59l-5.246-12.175c-.537-1.31-2.02-2.004-3.46-1.618l-23.044 6.175c-1.44.386-2.378 1.727-2.187 3.13l1.544 13.167c.174 1.49-.48 2.954-1.64 3.945a46.007 46.007 0 0 0-4.777 4.75c-.99 1.132-2.47 1.754-3.971 1.583l-13.442-1.534c-1.462-.154-2.823.756-3.181 2.185l-6.28 22.651c-.416 1.445.338 2.879 1.66 3.434l12.414 5.143c1.391.576 2.35 1.832 2.607 3.295.194 1.099.426 2.199.716 3.283.291 1.084.64 2.153 1.022 3.201.508 1.396.306 2.963-.61 4.157l-8.18 10.662c-.867 1.141-.746 2.745.279 3.804l16.764 16.476c1.025 1.058 2.701 1.094 3.848.302l10.846-8.029c1.229-.91 2.845-1.103 4.285-.606a43.628 43.628 0 0 0 6.484 1.702c1.502.271 2.8 1.213 3.394 2.59l5.246 12.174c.536 1.311 2.02 2.005 3.46 1.619l23.044-6.175c1.44-.386 2.378-1.728 2.187-3.131l-1.544-13.167c-.175-1.489.48-2.954 1.64-3.944a46.076 46.076 0 0 0 4.777-4.75c.989-1.133 2.47-1.755 3.971-1.584l13.442 1.535c1.462.154 2.823-.757 3.181-2.186l6.28-22.65c.359-1.43-.339-2.88-1.66-3.434l-12.415-5.144c-1.391-.576-2.348-1.832-2.605-3.295Zm-36.803 36.322c15.763-4.224 25.191-20.152 21.057-35.578-4.133-15.425-20.262-24.506-36.025-20.282-15.764 4.223-25.192 20.152-21.058 35.578 4.133 15.425 20.262 24.506 36.026 20.282Z" clip-rule="evenodd"/><path fill="#FF0A47" stroke="#fff" d="M68.184 56.659c.394-2.586 3.676-3.466 5.31-1.423l4.843 6.059a3 3 0 0 0 2.854 1.083l7.662-1.322c2.608-.45 4.478 2.451 2.992 4.641l-4.284 6.311a3 3 0 0 0-.169 3.09l3.565 6.73c1.23 2.322-.908 4.99-3.443 4.297l-7.577-2.071a3 3 0 0 0-2.923.783l-5.527 5.583c-1.848 1.867-5.034.625-5.13-2l-.279-7.612a3 3 0 0 0-1.69-2.59l-6.866-3.324c-2.382-1.153-2.213-4.601.27-5.516l7.297-2.686a3 3 0 0 0 1.93-2.365l1.165-7.668Z"/><path fill="#FF0A47" fill-rule="evenodd" stroke="#fff" d="M118.961 63.26a37.894 37.894 0 0 0-.718-3.283 37.966 37.966 0 0 0-1.019-3.202c-.509-1.396-.308-2.962.608-4.157l8.18-10.661c.867-1.142.746-2.745-.279-3.804l-16.764-16.476c-1.025-1.059-2.701-1.094-3.848-.302l-10.846 8.029c-1.229.91-2.845 1.103-4.285.605a43.627 43.627 0 0 0-6.484-1.701c-1.502-.272-2.8-1.213-3.394-2.59l-5.246-12.175c-.537-1.31-2.02-2.004-3.46-1.618L48.362 18.1c-1.44.386-2.378 1.728-2.187 3.13l1.544 13.167c.175 1.49-.48 2.954-1.64 3.945a45.987 45.987 0 0 0-4.777 4.75c-.99 1.133-2.47 1.755-3.97 1.583l-13.443-1.534c-1.462-.154-2.823.756-3.181 2.185l-6.28 22.651c-.416 1.445.338 2.879 1.66 3.434l12.415 5.143c1.39.576 2.349 1.832 2.607 3.295.193 1.099.425 2.199.716 3.283.29 1.084.64 2.153 1.02 3.201.51 1.396.307 2.963-.61 4.157l-8.178 10.662c-.868 1.141-.747 2.745.278 3.804L41.1 121.432c1.025 1.059 2.701 1.094 3.848.302l10.846-8.029c1.23-.91 2.845-1.103 4.285-.606a43.628 43.628 0 0 0 6.484 1.702c1.502.271 2.8 1.213 3.394 2.59l5.246 12.174c.537 1.311 2.02 2.005 3.46 1.619l23.044-6.175c1.441-.386 2.378-1.728 2.187-3.131l-1.544-13.166c-.174-1.49.48-2.955 1.64-3.945a45.88 45.88 0 0 0 4.777-4.75c.99-1.133 2.47-1.755 3.971-1.583l13.442 1.534c1.462.154 2.823-.757 3.181-2.186l6.281-22.65c.358-1.43-.339-2.88-1.661-3.434l-12.414-5.143c-1.391-.577-2.349-1.833-2.606-3.296ZM82.158 99.58c15.763-4.223 25.191-20.152 21.058-35.578-4.133-15.425-20.263-24.506-36.026-20.282-15.763 4.223-25.191 20.152-21.058 35.578 4.133 15.425 20.262 24.506 36.026 20.282Z" clip-rule="evenodd"/></svg>