<svg width="89" height="92" viewBox="0 0 89 92" fill="none" xmlns="http://www.w3.org/2000/svg">
<path d="M62.2657 44.7605C61.8248 44.6964 61.4124 44.5045 61.0795 44.2084C60.7466 43.9124 60.5077 43.5252 60.3926 43.0948C60.3074 42.7881 60.2861 42.4671 60.3302 42.1518C60.3742 41.8365 60.4826 41.5336 60.6486 41.262C60.7499 41.096 60.8458 40.9334 60.9157 40.8046C61.4107 39.8939 61.8049 38.932 62.0914 37.9359C62.8422 35.3057 62.8158 32.5145 62.0154 29.899C61.2151 27.2835 59.675 24.9555 57.5809 23.1958C55.4868 21.4362 52.9283 20.3201 50.214 19.9823C47.4997 19.6445 44.7457 20.0993 42.2842 21.2919C39.764 22.4635 37.6547 24.3662 36.2305 26.7526C34.8062 29.139 34.1329 31.8988 34.2982 34.673C34.4064 37.0709 35.1219 39.402 36.3777 41.4476C37.6334 43.4932 39.3882 45.1864 41.4775 46.3681C41.7589 46.5208 42.0069 46.7281 42.2072 46.9779C42.4074 47.2277 42.5557 47.5149 42.6434 47.8228L42.6464 47.8342C42.7667 48.267 42.7565 48.7257 42.6171 49.1528C42.4777 49.5798 42.2153 49.9562 41.8628 50.2347C37.014 53.9554 33.8194 59.4308 32.9664 65.4829C32.3402 69.6388 32.6041 73.8804 33.7404 77.9267L34.5242 80.8517C34.6923 81.4789 34.9823 82.0669 35.3776 82.5821C35.773 83.0973 36.266 83.5295 36.8284 83.8541C37.3909 84.1787 38.0118 84.3894 38.6556 84.474C39.2995 84.5586 39.9537 84.5155 40.5809 84.3473L80.4454 73.6656C81.7118 73.3262 82.7915 72.4976 83.447 71.3622C84.1025 70.2267 84.2801 68.8773 83.9408 67.6109L83.1491 64.6565C82.1103 60.5858 80.2171 56.7827 77.5953 53.5001C73.8276 48.6913 68.3231 45.5531 62.2657 44.7605Z" fill="#FF0A47" stroke="white"/>
<path d="M64.756 41.3585C64.3151 41.2944 63.9027 41.1025 63.5697 40.8065C63.2368 40.5104 62.998 40.1232 62.8828 39.6929C62.7976 39.3861 62.7764 39.0651 62.8204 38.7498C62.8645 38.4345 62.9729 38.1316 63.1389 37.86C63.2401 37.694 63.336 37.5315 63.406 37.4026C63.9009 36.4919 64.2952 35.53 64.5816 34.5339C65.3324 31.9038 65.306 29.1125 64.5057 26.497C63.7053 23.8815 62.1652 21.5535 60.0711 19.7939C57.9771 18.0342 55.4185 16.9181 52.7043 16.5803C49.99 16.2425 47.2359 16.6973 44.7744 17.89C42.2543 19.0615 40.1449 20.9642 38.7207 23.3506C37.2964 25.7371 36.6232 28.4968 36.7884 31.271C36.8966 33.6689 37.6122 36 38.8679 38.0456C40.1237 40.0913 41.8785 41.7844 43.9677 42.9662C44.2491 43.1188 44.4972 43.3261 44.6974 43.5759C44.8976 43.8257 45.0459 44.1129 45.1336 44.4208L45.1367 44.4323C45.2569 44.8651 45.2467 45.3238 45.1073 45.7508C44.9679 46.1778 44.7055 46.5542 44.353 46.8327C39.5042 50.5535 36.3096 56.0288 35.4566 62.0809C34.8305 66.2368 35.0943 70.4784 36.2307 74.5247L37.0144 77.4497C37.1825 78.077 37.4725 78.665 37.8679 79.1801C38.2632 79.6953 38.7562 80.1276 39.3187 80.4522C39.8811 80.7768 40.502 80.9874 41.1459 81.072C41.7897 81.1566 42.444 81.1136 43.0712 80.9453L82.9356 70.2636C84.202 69.9242 85.2817 69.0956 85.9372 67.9602C86.5927 66.8247 86.7703 65.4754 86.431 64.209L85.6393 61.2545C84.6006 57.1838 82.7074 53.3807 80.0855 50.0981C76.3178 45.2893 70.8134 42.1511 64.756 41.3585Z" fill="#FF0A47" stroke="white"/>
<path fill-rule="evenodd" clip-rule="evenodd" d="M65.8467 57.8008C65.8157 57.6241 65.7781 57.4463 65.7295 57.2649C65.6809 57.0835 65.6246 56.9109 65.5631 56.7423C65.48 56.5145 65.5128 56.2588 65.6624 56.0638L66.9976 54.3234C67.1392 54.1371 67.1194 53.8753 66.9522 53.7025L64.2156 51.013C64.0483 50.8401 63.7746 50.8343 63.5875 50.9636L61.817 52.2743C61.6164 52.4228 61.3526 52.4543 61.1176 52.3732C60.7724 52.254 60.42 52.1607 60.059 52.0954C59.8139 52.0511 59.6019 51.8974 59.505 51.6725L58.6487 49.6853C58.5611 49.4713 58.3191 49.3581 58.084 49.4211L54.3222 50.4291C54.0871 50.492 53.9341 50.7111 53.9653 50.9402L54.2173 53.0894C54.2458 53.3325 54.139 53.5716 53.9495 53.7333C53.6689 53.9727 53.4103 54.2334 53.1698 54.5086C53.0083 54.6936 52.7666 54.7951 52.5216 54.7672L50.3273 54.5167C50.0887 54.4916 49.8665 54.6402 49.808 54.8735L48.7828 58.571C48.715 58.8068 48.8382 59.0409 49.054 59.1314L51.0804 59.971C51.3075 60.0651 51.4639 60.2701 51.506 60.5089C51.5376 60.6882 51.5755 60.8678 51.6229 61.0448C51.6703 61.2218 51.7273 61.3963 51.7896 61.5673C51.8726 61.7952 51.8396 62.051 51.69 62.246L50.3548 63.9863C50.2132 64.1726 50.233 64.4344 50.4003 64.6072L53.1368 67.2968C53.3041 67.4696 53.5778 67.4754 53.7649 67.3461L55.5354 66.0354C55.7361 65.8869 55.9998 65.8554 56.2349 65.9366C56.58 66.0557 56.9324 66.1491 57.2934 66.2143C57.5385 66.2586 57.7505 66.4124 57.8474 66.6372L58.7038 68.6245C58.7913 68.8384 59.0333 68.9516 59.2684 68.8886L63.0302 67.8807C63.2653 67.8177 63.4183 67.5986 63.3872 67.3696L63.1352 65.2203C63.1067 64.9772 63.2135 64.7381 63.4029 64.5764C63.6835 64.337 63.9421 64.0764 64.1826 63.8011C64.3442 63.6161 64.5859 63.5146 64.8309 63.5426L67.0251 63.793C67.2637 63.8182 67.486 63.6696 67.5444 63.4363L68.5696 59.7388C68.628 59.5055 68.5142 59.2689 68.2985 59.1783L66.272 58.3387C66.045 58.2446 65.8886 58.0396 65.8467 57.8008ZM59.839 63.7299C62.4121 63.0405 63.9511 60.4403 63.2764 57.9222C62.6017 55.4042 59.9688 53.9219 57.3957 54.6113C54.8225 55.3008 53.2835 57.901 53.9582 60.4191C54.6329 62.9371 57.2658 64.4194 59.839 63.7299Z" fill="#FF0A47" stroke="white"/>
</svg>
