<svg xmlns="http://www.w3.org/2000/svg" fill="none" viewBox="0 0 123 123"><rect width="122.7" height="122.7" fill="#FF0A47" rx="61.3"/><g clip-path="url(#a)"><path fill="#F7F9FD" stroke="#0D1140" stroke-width=".6" d="M36.2 24.8h30.2c1.3 0 2.4 1.1 2.4 2.5v48c0 1.3-1.1 2.4-2.4 2.4H30.2c-1.3 0-2.4-1-2.4-2.4v-42c0-.6.2-1.2.7-1.7l6-6c.5-.5 1-.8 1.7-.8Z"/><path stroke="#0D1140" stroke-width=".6" d="M37.3 68.2h21.6M37.3 65.4h21.6M37.3 63h21.6M37.3 60.2h21.6M37.3 57.7h21.6M37.3 55h21.6M37.3 52.5h21.6M37.3 49.7h21.6M37.3 49.7h21.6M37.3 47h21.6M37.3 44.5h21.6M37.3 41.7h21.6M48.1 33.3h10.8"/><path stroke="#0D1140" stroke-miterlimit="10" stroke-width=".6" d="M37.6 24.5v7.6c0 1.4-1.1 2.6-2.5 2.6h-7.6"/><path fill="#F7F9FD" stroke="#0D1140" stroke-miterlimit="10" stroke-width=".6" d="M89.5 97.3 76.9 84.7c-.9-1-.9-2.3 0-3.3l2-2c.8-.8 2.3-.8 3.2 0l12.6 12.7c.9.8.9 2.3 0 3.2l-2 2c-.9.9-2.3.9-3.2 0Z"/><path fill="#F7F9FD" stroke="#0D1140" stroke-miterlimit="10" stroke-width=".6" d="M67.3 92.1a22.2 22.2 0 1 0 0-44.4 22.2 22.2 0 0 0 0 44.4Z"/><mask id="b" width="35" height="34" x="50" y="53" maskUnits="userSpaceOnUse" style="mask-type:alpha"><path fill="#D9D9D9" d="M67.3 86.6a16.7 16.7 0 1 0 0-33.4 16.7 16.7 0 0 0 0 33.4Z"/></mask><g fill="#FF0A47" stroke="#fff" stroke-miterlimit="10" stroke-width=".6" mask="url(#b)"><path d="M67.2 91.5a10.3 10.3 0 1 0 0-20.6 10.3 10.3 0 0 0 0 20.6ZM67.4 70.9a4.6 4.6 0 1 0 0-9.2 4.6 4.6 0 0 0 0 9.2Z"/></g><path stroke="#0D1140" stroke-miterlimit="10" stroke-width=".6" d="M67.3 86.6a16.7 16.7 0 1 0 0-33.4 16.7 16.7 0 0 0 0 33.4Z"/></g><defs><clipPath id="a"><path fill="#fff" d="M24.5 24.5h73.6v73.6H24.5z"/></clipPath></defs></svg>