<svg width="149" height="149" viewBox="0 0 149 149" fill="none" xmlns="http://www.w3.org/2000/svg">
<mask id="mask0_37388_38494" style="mask-type:alpha" maskUnits="userSpaceOnUse" x="0" y="0" width="149" height="149">
<rect width="149" height="149" rx="4.22695" fill="#D9D9D9"/>
</mask>
<g mask="url(#mask0_37388_38494)">
<g filter="url(#filter0_ii_37388_38494)">
<path d="M119.809 103.286V56.516L66.8524 85.131C61.4835 88.032 55.0105 88.0153 49.6567 85.0865L-9.59159 52.6748C-12.3636 51.1584 -12.3657 47.1778 -9.59532 45.6584L56.3237 9.50648C57.5193 8.8508 58.9665 8.84932 60.1634 9.50254L132.846 49.17V103.286H119.809ZM78.8387 119.261C66.0012 126.266 50.4837 126.266 37.6464 119.261L33.5709 117.037C19.4387 109.326 10.6463 94.512 10.6463 78.4128V70.8479L49.6208 92.1145C54.9946 95.0468 61.4903 95.0468 66.8641 92.1147L105.84 70.8479V78.4124C105.84 94.5118 97.0475 109.326 82.9151 117.037L78.8387 119.261Z" fill="#2A2A2A"/>
</g>
</g>
<defs>
<filter id="filter0_ii_37388_38494" x="-15.6719" y="9.01367" width="152.518" height="115.501" filterUnits="userSpaceOnUse" color-interpolation-filters="sRGB">
<feFlood flood-opacity="0" result="BackgroundImageFix"/>
<feBlend mode="normal" in="SourceGraphic" in2="BackgroundImageFix" result="shape"/>
<feColorMatrix in="SourceAlpha" type="matrix" values="0 0 0 0 0 0 0 0 0 0 0 0 0 0 0 0 0 0 127 0" result="hardAlpha"/>
<feOffset dx="4"/>
<feGaussianBlur stdDeviation="3.5"/>
<feComposite in2="hardAlpha" operator="arithmetic" k2="-1" k3="1"/>
<feColorMatrix type="matrix" values="0 0 0 0 0.0495605 0 0 0 0 0.0463815 0 0 0 0 0.0465128 0 0 0 1 0"/>
<feBlend mode="normal" in2="shape" result="effect1_innerShadow_37388_38494"/>
<feColorMatrix in="SourceAlpha" type="matrix" values="0 0 0 0 0 0 0 0 0 0 0 0 0 0 0 0 0 0 127 0" result="hardAlpha"/>
<feOffset dx="-4"/>
<feGaussianBlur stdDeviation="4"/>
<feComposite in2="hardAlpha" operator="arithmetic" k2="-1" k3="1"/>
<feColorMatrix type="matrix" values="0 0 0 0 0.240544 0 0 0 0 0.238852 0 0 0 0 0.238852 0 0 0 1 0"/>
<feBlend mode="normal" in2="effect1_innerShadow_37388_38494" result="effect2_innerShadow_37388_38494"/>
</filter>
</defs>
</svg>
