<svg width="141" height="141" viewBox="0 0 141 141" fill="none" xmlns="http://www.w3.org/2000/svg">
<mask id="mask0_37388_38528" style="mask-type:alpha" maskUnits="userSpaceOnUse" x="0" y="0" width="142" height="141">
<rect x="0.000732422" width="141" height="141" rx="3" fill="#D9D9D9"/>
</mask>
<g mask="url(#mask0_37388_38528)">
<g filter="url(#filter0_ii_37388_38528)">
<path d="M113.698 123.003L105.082 114.387L114.335 104.987L105.082 95.7343L113.698 86.9703L123.098 96.3703L132.351 86.9703L141.115 95.7343L131.715 104.987L141.115 114.387L132.351 123.003L123.098 113.75L113.698 123.003ZM46.9019 110.812C48.5263 110.812 49.8653 110.292 50.9189 109.25C51.9734 108.207 52.5007 106.873 52.5007 105.249C52.5007 103.624 51.972 102.285 50.9145 101.232C49.858 100.177 48.5483 99.65 46.9856 99.65C45.3278 99.65 43.9722 100.179 42.9186 101.236C41.865 102.293 41.3382 103.602 41.3382 105.165C41.3382 106.823 41.8591 108.179 42.901 109.232C43.9438 110.286 45.2774 110.812 46.9019 110.812ZM47.0047 123.15C41.9786 123.15 37.7212 121.406 34.2324 117.917C30.7446 114.427 29.0007 110.19 29.0007 105.206C29.0007 100.221 30.7466 95.9928 34.2383 92.5207C37.729 89.0486 41.9683 87.3125 46.9562 87.3125C50.7436 87.3125 54.1565 88.4141 57.1949 90.6172C60.2342 92.8203 62.3903 95.6844 63.6632 99.2094C67.9383 98.9489 71.5445 97.2334 74.482 94.0629C77.4195 90.8933 78.8883 87.1744 78.8883 82.9062V55.3922C78.8883 47.1446 81.7617 40.1299 87.5084 34.3479C93.2541 28.5659 100.254 25.6749 108.509 25.6749H117.37L108.362 16.764L117.126 8L141.016 31.8922L117.126 55.7843L108.362 47.1672L117.419 38.0124H108.509C103.708 38.0124 99.6271 39.702 96.2665 43.0811C92.9061 46.4602 91.2258 50.5639 91.2258 55.3922V82.9327C91.2258 90.6838 88.5576 97.3499 83.2211 102.931C77.8846 108.512 71.3815 111.401 63.7117 111.597C62.3409 115.154 60.1343 117.969 57.092 120.042C54.0498 122.114 50.6873 123.15 47.0047 123.15ZM37.6164 47.1672L29.0007 38.55L38.2539 29.15L29.0007 19.8969L37.6164 11.1343L47.0164 20.5343L56.2695 11.1343L65.0336 19.8969L55.6336 29.15L65.0336 38.55L56.2695 47.1672L47.0164 37.914L37.6164 47.1672Z" fill="#2A2A2A"/>
</g>
</g>
<defs>
<filter id="filter0_ii_37388_38528" x="25.0007" y="8" width="120.114" height="115.15" filterUnits="userSpaceOnUse" color-interpolation-filters="sRGB">
<feFlood flood-opacity="0" result="BackgroundImageFix"/>
<feBlend mode="normal" in="SourceGraphic" in2="BackgroundImageFix" result="shape"/>
<feColorMatrix in="SourceAlpha" type="matrix" values="0 0 0 0 0 0 0 0 0 0 0 0 0 0 0 0 0 0 127 0" result="hardAlpha"/>
<feOffset dx="4"/>
<feGaussianBlur stdDeviation="3.5"/>
<feComposite in2="hardAlpha" operator="arithmetic" k2="-1" k3="1"/>
<feColorMatrix type="matrix" values="0 0 0 0 0.0495605 0 0 0 0 0.0463815 0 0 0 0 0.0465128 0 0 0 1 0"/>
<feBlend mode="normal" in2="shape" result="effect1_innerShadow_37388_38528"/>
<feColorMatrix in="SourceAlpha" type="matrix" values="0 0 0 0 0 0 0 0 0 0 0 0 0 0 0 0 0 0 127 0" result="hardAlpha"/>
<feOffset dx="-4"/>
<feGaussianBlur stdDeviation="4"/>
<feComposite in2="hardAlpha" operator="arithmetic" k2="-1" k3="1"/>
<feColorMatrix type="matrix" values="0 0 0 0 0.240544 0 0 0 0 0.238852 0 0 0 0 0.238852 0 0 0 1 0"/>
<feBlend mode="normal" in2="effect1_innerShadow_37388_38528" result="effect2_innerShadow_37388_38528"/>
</filter>
</defs>
</svg>
