<svg width="126" height="126" viewBox="0 0 126 126" fill="none" xmlns="http://www.w3.org/2000/svg">
<mask id="mask0_37388_38512" style="mask-type:alpha" maskUnits="userSpaceOnUse" x="-1" y="0" width="127" height="126">
<rect x="-0.00158691" width="126" height="126" rx="3.57447" fill="#D9D9D9"/>
</mask>
<g mask="url(#mask0_37388_38512)">
<g filter="url(#filter0_ii_37388_38512)">
<path d="M32.6509 118.861C23.312 118.861 15.3688 115.533 8.82116 108.877C2.27266 102.22 -1.00159 94.3341 -1.00159 85.2175V46.9804H66.1118V85.1755C66.1118 94.3105 62.8476 102.209 56.3192 108.87C49.7909 115.531 41.9014 118.861 32.6509 118.861ZM21.5931 77.2545C23.1865 77.2545 24.5222 76.726 25.6002 75.669C26.6782 74.612 27.2172 73.2742 27.2172 71.6554C27.2172 70.0787 26.6808 68.722 25.608 67.5854C24.5344 66.4487 23.2044 65.8804 21.618 65.8804C19.9818 65.8804 18.6102 66.4487 17.5034 67.5854C16.3965 68.722 15.843 70.0787 15.843 71.6554C15.843 73.2742 16.403 74.612 17.523 75.669C18.643 76.726 19.9997 77.2545 21.5931 77.2545ZM32.8609 96.417C36.6497 96.417 40.0031 95.4764 42.9212 93.5952C45.8394 91.7139 47.2984 89.1545 47.2984 85.917H18.4234C18.4234 89.1545 19.8829 91.7139 22.8019 93.5952C25.72 95.4764 29.073 96.417 32.8609 96.417ZM43.9817 77.2545C45.5401 77.2545 46.8618 76.726 47.9468 75.669C49.0318 74.612 49.5743 73.2742 49.5743 71.6554C49.5743 70.0787 49.0375 68.722 47.9639 67.5854C46.8902 66.4487 45.5602 65.8804 43.9739 65.8804C42.3376 65.8804 40.966 66.4487 39.8592 67.5854C38.7523 68.722 38.1988 70.0787 38.1988 71.6554C38.1988 73.2742 38.7729 74.612 39.9209 75.669C41.0689 76.726 42.4225 77.2545 43.9817 77.2545ZM88.9493 79.9242C86.4547 79.9242 84.0235 79.6542 81.6557 79.1143C79.2888 78.5745 77.0825 77.7944 75.0368 76.7742V43.1742C73.7532 43.1742 72.6738 42.7074 71.7988 41.7737C70.9238 40.8401 70.4864 39.7319 70.4864 38.4492H55.0868V8.04248H122.505V47.113C122.505 56.1902 119.242 63.9279 112.717 70.3259C106.192 76.7247 98.2698 79.9242 88.9493 79.9242ZM77.8363 39.2367C79.4726 39.2367 80.8442 38.66 81.951 37.5068C83.0579 36.3535 83.6113 35.0056 83.6113 33.463C83.6113 31.9011 83.0579 30.5772 81.951 29.4914C80.845 28.4046 79.4739 27.8612 77.8377 27.8612C76.2767 27.8612 74.9528 28.4002 73.866 29.4782C72.7793 30.5562 72.2359 31.8919 72.2359 33.4853C72.2359 34.9859 72.7727 36.3194 73.8463 37.4858C74.92 38.653 76.25 39.2367 77.8363 39.2367ZM76.7863 57.4804H103.387C103.387 54.3007 101.913 51.7557 98.965 49.8456C96.0171 47.9355 92.6785 46.9804 88.9493 46.9804C86.8195 46.9804 84.4352 47.4564 81.7962 48.4084C79.1563 49.3613 77.4864 50.854 76.7863 52.8867V57.4804ZM100.192 39.2367C101.769 39.2367 103.126 38.66 104.262 37.5068C105.399 36.3535 105.967 35.0056 105.967 33.463C105.967 31.9011 105.399 30.5772 104.262 29.4914C103.126 28.4046 101.769 27.8612 100.192 27.8612C98.5734 27.8612 97.2355 28.4002 96.1785 29.4782C95.1215 30.5562 94.593 31.8919 94.593 33.4853C94.593 34.9859 95.1215 36.3194 96.1785 37.4858C97.2355 38.653 98.5734 39.2367 100.192 39.2367Z" fill="#2A2A2A"/>
</g>
</g>
<defs>
<filter id="filter0_ii_37388_38512" x="-5.00159" y="8.04248" width="131.506" height="110.818" filterUnits="userSpaceOnUse" color-interpolation-filters="sRGB">
<feFlood flood-opacity="0" result="BackgroundImageFix"/>
<feBlend mode="normal" in="SourceGraphic" in2="BackgroundImageFix" result="shape"/>
<feColorMatrix in="SourceAlpha" type="matrix" values="0 0 0 0 0 0 0 0 0 0 0 0 0 0 0 0 0 0 127 0" result="hardAlpha"/>
<feOffset dx="4"/>
<feGaussianBlur stdDeviation="3.5"/>
<feComposite in2="hardAlpha" operator="arithmetic" k2="-1" k3="1"/>
<feColorMatrix type="matrix" values="0 0 0 0 0.0495605 0 0 0 0 0.0463815 0 0 0 0 0.0465128 0 0 0 1 0"/>
<feBlend mode="normal" in2="shape" result="effect1_innerShadow_37388_38512"/>
<feColorMatrix in="SourceAlpha" type="matrix" values="0 0 0 0 0 0 0 0 0 0 0 0 0 0 0 0 0 0 127 0" result="hardAlpha"/>
<feOffset dx="-4"/>
<feGaussianBlur stdDeviation="4"/>
<feComposite in2="hardAlpha" operator="arithmetic" k2="-1" k3="1"/>
<feColorMatrix type="matrix" values="0 0 0 0 0.240544 0 0 0 0 0.238852 0 0 0 0 0.238852 0 0 0 1 0"/>
<feBlend mode="normal" in2="effect1_innerShadow_37388_38512" result="effect2_innerShadow_37388_38512"/>
</filter>
</defs>
</svg>
