<svg width="37" height="36" viewBox="0 0 37 36" fill="none" xmlns="http://www.w3.org/2000/svg">
<g clip-path="url(#clip0_2015_1589)">
<circle cx="18.3343" cy="17.8679" r="17.8679" fill="#27B5B5"/>
<path fill-rule="evenodd" clip-rule="evenodd" d="M11.8838 21.0028L11.8368 28.6033C11.8351 28.8744 12.1129 29.0576 12.3617 28.9494L18.4948 26.2826L24.5946 29.0184C24.842 29.1293 25.122 28.9493 25.1237 28.6781L25.1707 21.0777C25.9335 20.2871 26.533 19.3774 26.969 18.3488C27.4051 17.3202 27.6268 16.2235 27.634 15.0588C27.6493 12.5834 26.7806 10.4745 25.0278 8.73195C23.2751 6.98943 21.139 6.11106 18.6196 6.09686C16.1002 6.08266 13.9534 6.93687 12.1793 8.65952C10.4051 10.3822 9.51037 12.4812 9.49507 14.9565C9.48787 16.1212 9.69593 17.2203 10.1193 18.2538C10.5426 19.2873 11.1308 20.2036 11.8838 21.0028Z" fill="#ECEDF0"/>
<path d="M18.9317 10.3318C18.7406 9.87108 18.1157 9.87108 17.9246 10.3318L16.9175 12.7599C16.838 12.9516 16.665 13.083 16.466 13.1028L13.9461 13.3539C13.468 13.4015 13.2749 14.0229 13.6349 14.3553L15.5324 16.107C15.6823 16.2453 15.7483 16.4579 15.7049 16.6619L15.1545 19.2451C15.0501 19.7353 15.5557 20.1193 15.9693 19.864L18.1491 18.5185C18.3213 18.4123 18.535 18.4123 18.7072 18.5185L20.887 19.864C21.3006 20.1193 21.8062 19.7353 21.7017 19.2451L21.1514 16.6619C21.108 16.4579 21.174 16.2453 21.3239 16.107L23.2214 14.3553C23.5814 14.0229 23.3883 13.4015 22.9102 13.3539L20.3903 13.1028C20.1913 13.083 20.0183 12.9516 19.9388 12.7599L18.9317 10.3318Z" fill="#27B5B5"/>
</g>
<defs>
<clipPath id="clip0_2015_1589">
<rect x="0.466431" width="36" height="36" rx="18" fill="white"/>
</clipPath>
</defs>
</svg>
