<svg width="37" height="36" viewBox="0 0 37 36" fill="none" xmlns="http://www.w3.org/2000/svg">
<g clip-path="url(#clip0_2015_1849)">
<circle cx="18.7345" cy="17.8679" r="17.8679" fill="#ED4A13"/>
<path d="M10.8757 9.46958C10.8757 8.70487 11.4956 8.08496 12.2603 8.08496L25.3773 8.08496C26.142 8.08496 26.7619 8.70487 26.7619 9.46958V26.5281C26.7619 27.2928 26.142 27.9127 25.3773 27.9127H12.2603C11.4956 27.9127 10.8757 27.2928 10.8757 26.5281L10.8757 9.46958Z" fill="#ECEDF0"/>
<path d="M14.0033 8.08496L18.425 8.11207L18.3626 19.776C18.3601 20.2424 17.7148 20.3595 17.5482 19.9238L16.3637 16.8249C16.2951 16.6453 16.0418 16.6438 15.9712 16.8225L14.7537 19.9066C14.5825 20.3403 13.9385 20.2153 13.941 19.7489L14.0033 8.08496Z" fill="#ED4A13"/>
</g>
<defs>
<clipPath id="clip0_2015_1849">
<rect x="0.866577" width="36" height="36" rx="18" fill="white"/>
</clipPath>
</defs>
</svg>
