<svg width="180" height="33" viewBox="0 0 318 59" fill="none" xmlns="http://www.w3.org/2000/svg">
<path d="M36.4 49.1001V38.7001L27.3 29.6001L36.4 20.5001V10.1001L17 29.6001L36.4 49.1001Z" fill="#ED1C24"/>
<path d="M0 58.9H58.7V0.300049H0V58.9ZM7.3 7.60005H51.3V51.6H7.3V7.60005Z" fill="#ED1C24"/>
<path d="M90.8 6.7C93.5 6.7 96.5 7.7 99.6 9.6C99.8 9.2 100 8.2 99.9 6.3C99.9 4.5 99.8 3.3 99.6 2.8C97.1 1.3 94 0.5 90.4 0.5C85.2 0.5 81.1 2 78 5.1C74.9 8.1 73.4 11.9 73.4 16.4C73.4 20.9 74.9 24.6 78 27.7C81.1 30.7 85.3 32.3 90.4 32.3C94 32.3 97.1 31.5 99.6 30C99.8 29.5 99.9 28.3 99.9 26.5C99.9 24.7 99.8 23.6 99.6 23.2C96.5 25.1 93.6 26.1 90.8 26.1C88 26.1 85.6 25.2 83.7 23.5C81.8 21.7 80.9 19.4 80.9 16.5C80.9 13.6 81.8 11.2 83.7 9.5C85.6 7.6 88 6.7 90.8 6.7Z" fill="#8D91A3"/>
<path d="M133.8 31.4001V1.20015C131.8 0.900147 129.9 0.900147 128 1.20015L113.9 18.9001V1.20015C111.4 0.800147 108.9 0.800147 106.5 1.20015V31.4001C108.5 31.7001 110.4 31.7001 112.3 31.4001L126.4 13.7001V31.4001C128.9 31.9001 131.4 31.9001 133.8 31.4001Z" fill="#8D91A3"/>
<path d="M168.4 31.4001V1.20015C165.9 0.800147 163.4 0.800147 161 1.20015V13.1001H148.5V1.20015C146 0.800147 143.5 0.800147 141.1 1.20015V31.4001C143.6 31.8001 146.1 31.8001 148.5 31.4001V19.3001H161V31.5001C163.4 31.9001 165.9 31.9001 168.4 31.4001Z" fill="#8D91A3"/>
<path d="M196.7 7.40007C197.1 5.40007 197.1 3.30007 196.7 1.20007H175.6V31.4001H196.7C197.1 29.3001 197.1 27.3001 196.7 25.2001H183V19.2001H195C195.4 17.2001 195.4 15.1001 195 13.0001H183V7.30007H196.7V7.40007Z" fill="#8D91A3"/>
<path d="M223 4.00007C220.9 2.10007 218.2 1.20007 214.8 1.20007H202.9V31.4001C205.4 31.8001 207.9 31.8001 210.3 31.4001V21.5001H214.7C218.1 21.5001 220.8 20.6001 222.9 18.7001C225 16.8001 226.1 14.4001 226.1 11.4001C226.2 8.30007 225.1 5.90007 223 4.00007ZM214.8 15.3001H210.4V7.40007H214.8C217 7.40007 218.6 8.70007 218.6 11.4001C218.6 14.0001 217 15.3001 214.8 15.3001Z" fill="#8D91A3"/>
<path d="M231.7 31.4001C234.2 31.8001 236.7 31.8001 239.1 31.4001V7.40007H251.6C252 5.40007 252 3.30007 251.6 1.20007H231.7V31.4001Z" fill="#8D91A3"/>
<path d="M257 1.20015V31.4001C259 31.7001 260.9 31.7001 262.8 31.4001L276.9 13.7001V31.4001C279.4 31.8001 281.9 31.8001 284.3 31.4001V1.20015C282.3 0.900147 280.4 0.900147 278.5 1.20015L264.4 18.9001V1.20015C262 0.800147 259.5 0.800147 257 1.20015Z" fill="#8D91A3"/>
<path d="M291.1 11.2001C291.1 15.2001 293.3 18.5001 296.9 20.1001L289.6 31.4001C290.7 31.6001 292 31.7001 293.6 31.7001C295.2 31.7001 296.6 31.6001 297.7 31.4001L303.7 22.2001L304.4 21.2001H307.3V31.4001C309.8 31.8001 312.3 31.8001 314.7 31.4001V10.3001V1.20007H302.5C299.1 1.20007 296.4 2.10007 294.3 4.00007C292.1 5.80007 291.1 8.20007 291.1 11.2001ZM302.5 7.40007H307.1V8.60007V15.0001H303.5H302.4C300.2 15.0001 298.6 13.7001 298.6 11.2001C298.6 8.80007 300.3 7.40007 302.5 7.40007Z" fill="#8D91A3"/>
<path d="M94 40.4V54.7H89V40.4C87.5 40.2 86 40.2 84.6 40.4V54.7H79.6V40.4C78.1 40.2 76.6 40.2 75.2 40.4V58.4H98.5V40.4C97 40.2 95.5 40.2 94 40.4Z" fill="#8D91A3"/>
<path d="M118.5 40.4C117.9 40.3 117 40.2 115.9 40.2C114.8 40.2 113.9 40.3 113.3 40.4L107.3 48.6V40.4C105.8 40.2 104.3 40.2 102.9 40.4V58.4C104.4 58.6 105.9 58.6 107.3 58.4V49.7L113.5 58.4C114.1 58.5 115 58.6 116.1 58.6C117.2 58.6 118.1 58.5 118.7 58.4L112 49.1L118.5 40.4Z" fill="#8D91A3"/>
<path d="M129.5 40C126.7 40 124.4 40.9 122.6 42.7C120.8 44.5 119.9 46.7 119.9 49.4C119.9 52 120.8 54.3 122.6 56.1C124.4 57.9 126.7 58.8 129.5 58.8C132.3 58.8 134.6 57.9 136.4 56.1C138.2 54.3 139.1 52 139.1 49.4C139.1 46.8 138.2 44.5 136.4 42.7C134.6 40.9 132.3 40 129.5 40ZM133.1 53.6C132.1 54.6 130.9 55.2 129.5 55.2C128.1 55.2 126.9 54.7 125.9 53.6C124.9 52.5 124.4 51.2 124.4 49.4C124.4 47.7 124.9 46.3 125.9 45.2C126.9 44.1 128.1 43.6 129.5 43.6C130.9 43.6 132.1 44.1 133.1 45.2C134.1 46.2 134.6 47.6 134.6 49.4C134.6 51.2 134.1 52.6 133.1 53.6Z" fill="#8D91A3"/>
<path d="M144 52.9001C143.9 54.2001 143.2 54.9001 142.2 54.9001C141.9 54.9001 141.7 54.9001 141.4 54.8001C141.2 56.0001 141.2 57.3001 141.4 58.5001C142 58.7001 142.7 58.8001 143.5 58.8001C146.4 58.8001 148.1 57.0001 148.5 53.3001L149.4 44.1001H154V58.4001C155.5 58.6001 157 58.6001 158.4 58.4001V40.4001H145.3L144 52.9001Z" fill="#8D91A3"/>
<path d="M168.9 40.4L161.6 58.4C163.1 58.6 164.7 58.6 166.2 58.4L167.5 55H174.1L175.4 58.4C176.9 58.6 178.4 58.6 180 58.4L172.7 40.4C171.4 40.2 170.2 40.2 168.9 40.4ZM168.9 51.3L170.8 46.1L172.7 51.3H168.9Z" fill="#8D91A3"/>
<path d="M202.8 48.5001C201.6 47.4001 199.9 46.9001 197.9 46.9001H195.3V44.1001H203C203.2 42.9001 203.2 41.7001 203 40.4001H190.9V58.4001H198C200 58.4001 201.6 57.8001 202.9 56.8001C204.2 55.7001 204.8 54.3001 204.8 52.6001C204.7 50.9001 204 49.5001 202.8 48.5001ZM197.9 54.8001H195.3V50.5001H197.9C199.2 50.5001 200.2 51.3001 200.2 52.6001C200.1 54.0001 199.2 54.8001 197.9 54.8001Z" fill="#8D91A3"/>
<path d="M220.8 40.4L212.4 51V40.4C210.9 40.2 209.4 40.2 208 40.4V58.4C209.2 58.6 210.3 58.6 211.5 58.4L219.9 47.8V58.4C221.4 58.6 222.9 58.6 224.3 58.4V40.4C223.1 40.2 222 40.2 220.8 40.4Z" fill="#8D91A3"/>
<path d="M238.2 49.2001C239.7 48.4001 240.7 46.8001 240.7 45.0001C240.7 42.0001 238.2 40.1001 234.2 40.1001C232 40.1001 230.2 40.6001 228.7 41.5001C228.6 41.8001 228.5 42.5001 228.5 43.6001C228.5 44.7001 228.6 45.3001 228.7 45.5001C230.6 44.4001 232.3 43.8001 233.9 43.8001C235.3 43.8001 236.2 44.5001 236.2 45.8001C236.2 47.0001 235.5 47.8001 234.3 47.8001H231.7C231.5 49.0001 231.5 50.1001 231.7 51.3001H234.4C235.8 51.3001 236.5 51.9001 236.5 53.2001C236.5 54.6001 235.2 55.3001 233.8 55.3001C232.1 55.3001 230.3 54.7001 228.5 53.6001C228.4 53.8001 228.3 54.5001 228.3 55.5001C228.3 56.6001 228.4 57.3001 228.5 57.6001C230 58.5001 231.9 59.0001 234.1 59.0001C236.2 59.0001 237.8 58.5001 239.1 57.6001C240.4 56.7001 241.1 55.4001 241.1 53.7001C241 51.6001 239.9 50.0001 238.2 49.2001Z" fill="#8D91A3"/>
<path d="M260.9 58.4V40.4C259.4 40.2 257.9 40.2 256.5 40.4V47.5H249V40.4C247.5 40.2 246 40.2 244.6 40.4V58.4C246.1 58.6 247.6 58.6 249 58.4V51.1H256.5V58.4C257.9 58.7 259.4 58.7 260.9 58.4Z" fill="#8D91A3"/>
<path d="M277.8 44.1001C278 42.9001 278 41.7001 277.8 40.4001H265.2V58.4001H277.8C278 57.2001 278 55.9001 277.8 54.7001H269.7V51.1001H276.9C277.1 49.9001 277.1 48.7001 276.9 47.4001H269.7V44.1001H277.8Z" fill="#8D91A3"/>
<path d="M290.9 43.7C292.5 43.7 294.3 44.3 296.1 45.4C296.2 45.2 296.3 44.5 296.3 43.5C296.3 42.4 296.2 41.7 296.1 41.4C294.6 40.5 292.8 40 290.6 40C287.5 40 285.1 40.9 283.2 42.7C281.3 44.5 280.4 46.7 280.4 49.4C280.4 52.1 281.3 54.3 283.2 56.1C285.1 57.9 287.5 58.8 290.6 58.8C292.8 58.8 294.6 58.3 296.1 57.4C296.2 57.1 296.3 56.4 296.3 55.3C296.3 54.2 296.2 53.6 296.1 53.4C294.2 54.5 292.5 55.1 290.9 55.1C289.2 55.1 287.8 54.6 286.7 53.5C285.6 52.4 285 51.1 285 49.3C285 47.6 285.6 46.2 286.7 45.1C287.8 44.2 289.2 43.7 290.9 43.7Z" fill="#8D91A3"/>
<path d="M306.6 40.4L299.3 58.4C300.8 58.6 302.4 58.6 303.9 58.4L305.2 55H311.8L313.1 58.4C314.6 58.6 316.1 58.6 317.7 58.4L310.4 40.4C309.1 40.2 307.8 40.2 306.6 40.4ZM310.4 51.3H306.6L308.5 46.1L310.4 51.3Z" fill="#8D91A3"/>
</svg>
