<svg xmlns="http://www.w3.org/2000/svg" width="36" height="36" viewBox="0 0 36 36" fill="none">
<g clip-path="url(#clip0_2015_2155)">
<circle cx="17.8679" cy="17.8679" r="17.8679" fill="#4561C8"/>
<path fill-rule="evenodd" clip-rule="evenodd" d="M26.5765 14.7738H27.3873C27.7565 14.7738 28.0706 14.6387 28.3296 14.3685C28.5886 14.0981 28.7181 13.7504 28.7181 13.3253V11.7362C28.7181 11.4789 28.6528 11.2357 28.5221 11.0065C28.3915 10.7772 28.2174 10.5968 27.9997 10.4651L19.2385 5.51475C18.8719 5.31416 18.4648 5.21387 18.017 5.21387C17.5693 5.21387 17.1654 5.31416 16.8053 5.51475L7.97864 10.5167C7.77942 10.6239 7.62348 10.7767 7.5108 10.9751C7.39813 11.1736 7.3418 11.396 7.3418 11.6424V13.5277C7.3418 13.861 7.45724 14.152 7.68814 14.4007C7.91904 14.6495 8.19827 14.7738 8.52583 14.7738H9.51492L9.51492 23.384H8.07233C7.66887 23.384 7.3418 23.7111 7.3418 24.1145V26.9288C7.3418 27.3322 7.66887 27.6593 8.07233 27.6593H27.9878C28.3912 27.6593 28.7183 27.3322 28.7183 26.9288V24.1145C28.7183 23.7111 28.3912 23.384 27.9878 23.384H26.5765V14.7738ZM19.8027 20.1452C19.9819 20.3261 20.0825 20.5704 20.0825 20.825V22.5617C20.0825 23.4222 19.0422 23.8531 18.4337 23.2446L14.0046 18.8155C13.6274 18.4384 13.6274 17.8268 14.0046 17.4496L18.4337 13.0205C19.0422 12.4121 20.0825 12.843 20.0825 13.7035V15.4944C20.0825 15.7536 19.9783 16.002 19.7933 16.1836L18.5007 17.4528C18.1189 17.8277 18.1147 18.4417 18.4913 18.8218L19.8027 20.1452Z" fill="#ECEDF0"/>
<path d="M20.0825 20.8283C20.0825 20.5736 19.9819 20.3293 19.8027 20.1485L18.4913 18.825C18.1147 18.4449 18.1189 17.831 18.5007 17.4561L19.7933 16.1868C19.9783 16.0052 20.0825 15.7569 20.0825 15.4977V13.7067C20.0825 12.8463 19.0421 12.4153 18.4337 13.0238L14.0046 17.4529C13.6274 17.8301 13.6274 18.4416 14.0046 18.8188L18.4337 23.2479C19.0421 23.8563 20.0825 23.4254 20.0825 22.5649V20.8283Z" fill="#4561C8"/>
</g>
<defs>
<clipPath id="clip0_2015_2155">
<rect width="36" height="36" rx="18" fill="white"/>
</clipPath>
</defs>
</svg>