<svg width="37" height="36" viewBox="0 0 37 36" fill="none" xmlns="http://www.w3.org/2000/svg">
<g clip-path="url(#clip0_2015_2187)">
<circle cx="18.0675" cy="17.8679" r="17.8679" fill="#FA8E00"/>
<g clip-path="url(#clip1_2015_2187)">
<path fill-rule="evenodd" clip-rule="evenodd" d="M17.3555 9.14336C17.727 9.74725 18.3407 10.1073 18.998 10.1071L27.7748 10.1038C28.882 10.1034 29.7745 11.1068 29.7682 12.3451L29.7064 24.5066C29.7001 25.7449 28.7975 26.7491 27.6902 26.7495L9.78067 26.7563C8.67345 26.7567 7.78097 25.7532 7.78726 24.5149L7.8612 9.96182C7.86749 8.72352 8.77017 7.71935 9.87739 7.71893L15.4283 7.71683C16.0856 7.71658 16.6993 8.07667 17.0708 8.68056L17.3555 9.14336Z" fill="#ECEDF0"/>
<path fill-rule="evenodd" clip-rule="evenodd" d="M18.3027 12.7649C18.7632 12.0153 19.8179 12.0238 20.2623 12.7808L21.5151 14.9154L23.8453 15.5397C24.6716 15.761 24.9861 16.8071 24.4297 17.4832L22.8604 19.3895L23.0016 21.8896C23.0517 22.7762 22.1912 23.4142 21.4032 23.075L19.1805 22.1182L16.9376 23.039C16.1423 23.3656 15.2959 22.7139 15.3653 21.8282L15.561 19.3308L14.0335 17.3998C13.4919 16.7151 13.8292 15.6742 14.6601 15.466L17.0036 14.8791L18.3027 12.7649Z" fill="#FA8E00"/>
</g>
</g>
<defs>
<clipPath id="clip0_2015_2187">
<rect x="0.199585" width="35.9743" height="35.9743" rx="17.9872" fill="white"/>
</clipPath>
<clipPath id="clip1_2015_2187">
<rect width="26.3077" height="27.6923" fill="white" transform="translate(2.46317 8.58301) rotate(-18.0434)"/>
</clipPath>
</defs>
</svg>
