<svg xmlns="http://www.w3.org/2000/svg" width="108.812" height="32" viewBox="0 0 108.812 32"><path fill="#8D90A3" d="M77.918 7.484h1.506v15.212H77.48V11.493l-4.195 6.76h-1.33l-4.197-6.6v11.044h-1.9V7.484h1.53l5.265 8.45 5.265-8.45zm15.09 10.858c0 2.686-2.04 4.354-5.32 4.354h-5.674V7.484h5.783c2.19 0 4.398 1.25 4.398 4.046 0 1.32-.696 2.45-1.89 3.106 1.705.532 2.703 1.883 2.703 3.706zm-5.607-2.7h-3.423v5.31h3.534c2.412 0 3.535-.85 3.535-2.676 0-1.673-1.328-2.633-3.644-2.633zm2.832-4.023c0-1.5-.993-2.393-2.655-2.393h-3.6v4.717h3.578c1.676 0 2.677-.87 2.677-2.325zm17.588 11.077h-2.148l-1.778-4.488H97.77l-1.755 4.487h-2.128l6.192-15.234h1.593l6.147 15.234zm-6.998-12.25L98.45 16.48h4.764l-2.392-6.036zm-55.198 12.25h-3.008L51.84 0h2.286l9.16 22.697h-3.043l-2.592-6.542h-9.466l-2.56 6.542zm3.51-8.96h7.564L52.9 4.152l-3.766 9.585zm12.66-4.77c0-.828-.49-1.578-1.447-1.578-.958 0-1.447.75-1.447 1.576 0 .827.488 1.586 1.447 1.586.958 0 1.446-.76 1.446-1.586zm-.33.004c0 .684-.38 1.303-1.117 1.303s-1.117-.63-1.117-1.302c0-.682.38-1.3 1.117-1.3.736 0 1.116.627 1.116 1.3zm2.796.222v-.29h-1.446V7.738h1.582v-.29h-1.902v3.046h.32v-1.3h1.446zm44.14-.963l.367-.346c-.463-.544-.97-.757-1.654-.757-1.132 0-1.596.647-1.596 1.33 0 1.73 2.75 1.074 2.75 2.523 0 .5-.42.838-1.184.838-.632 0-1.074-.265-1.412-.7l-.39.36c.486.567 1.067.795 1.788.795.993 0 1.743-.485 1.743-1.39 0-1.75-2.75-1.198-2.75-2.507 0-.463.332-.794 1.067-.794.544 0 .956.228 1.272.647zM62.514 1.282l.414-.39C62.406.28 61.835.04 61.064.04c-1.275 0-1.797.73-1.797 1.5 0 1.946 3.098 1.21 3.098 2.84 0 .564-.472.945-1.333.945-.712 0-1.21-.298-1.59-.787l-.44.406c.547.638 1.202.895 2.014.895 1.12 0 1.963-.547 1.963-1.566 0-1.972-3.098-1.35-3.098-2.825 0-.523.373-.896 1.2-.896.613 0 1.077.256 1.433.73zm5.442 0l.414-.39C67.85.28 67.278.04 66.508.04c-1.276 0-1.798.73-1.798 1.5 0 1.946 3.097 1.21 3.097 2.84 0 .564-.472.945-1.333.945-.712 0-1.21-.298-1.59-.787l-.44.406c.547.638 1.2.895 2.013.895 1.12 0 1.964-.547 1.964-1.566 0-1.972-3.098-1.35-3.098-2.825 0-.523.373-.896 1.2-.896.614 0 1.08.256 1.435.73zm6.965 1.648c0-1.515-.895-2.89-2.65-2.89-1.757 0-2.65 1.375-2.65 2.89 0 1.517.894 2.91 2.65 2.91 1.756-.002 2.65-1.393 2.65-2.91zm-.605.01c0 1.25-.696 2.385-2.046 2.385s-2.045-1.15-2.045-2.386c0-1.252.696-2.386 2.046-2.386s2.047 1.15 2.047 2.385zm1.6.007c0 1.475.794 2.89 2.517 2.89.903 0 1.54-.355 2.013-.918l-.43-.382c-.44.556-.954.787-1.566.787-1.333 0-1.93-1.2-1.93-2.386 0-1.185.597-2.386 1.93-2.386.614 0 1.127.232 1.566.787l.43-.38c-.47-.563-1.11-.92-2.012-.92-1.724 0-2.518 1.417-2.518 2.907zM82.69 5.73V.148h-.588V5.73h.588zm6.336 0L86.74.065h-.505L83.932 5.73h.646l.67-1.714h2.444l.68 1.714h.654zm-1.532-2.22h-2.046L86.468.92l1.026 2.593zM93.706.68v-.53h-4.722v.53h2.07V5.73h.59V.678h2.062zm1.996 5.052V.148h-.588V5.73h.588zm6.915-2.8c0-1.515-.895-2.89-2.65-2.89-1.756 0-2.65 1.375-2.65 2.89 0 1.517.894 2.91 2.65 2.91 1.756-.002 2.65-1.393 2.65-2.91zm-.604.01c0 1.25-.696 2.385-2.046 2.385-1.35 0-2.046-1.15-2.046-2.386 0-1.252.697-2.386 2.047-2.386s2.046 1.15 2.046 2.385zm6.526 2.865V.148h-.572v4.53l-3.47-4.605h-.43V5.73h.57V1.225l3.462 4.58h.44zM48.765 31.87l-2.76-6.84h-.61l-2.78 6.84h.78l.81-2.07h2.95l.82 2.07h.79zm-1.85-2.68h-2.47l1.23-3.13 1.24 3.13zm2.9-.68c0 1.78.96 3.49 3.04 3.49 1.09 0 1.86-.43 2.43-1.11l-.52-.46c-.53.67-1.15.95-1.89.95-1.61 0-2.33-1.45-2.33-2.88s.72-2.88 2.33-2.88c.74 0 1.36.28 1.89.95l.52-.46c-.57-.68-1.34-1.11-2.43-1.11-2.08 0-3.04 1.71-3.04 3.51zm6.82 0c0 1.78.96 3.49 3.04 3.49 1.09 0 1.86-.43 2.432-1.11l-.52-.46c-.53.67-1.15.95-1.89.95-1.61 0-2.332-1.45-2.332-2.88s.72-2.88 2.33-2.88c.74 0 1.36.28 1.89.95l.522-.46c-.57-.68-1.34-1.11-2.43-1.11-2.08 0-3.042 1.71-3.042 3.51zm12.852 3.36l-2.05-2.93c.86-.14 1.58-.77 1.58-1.89 0-1.22-.94-1.92-2.09-1.92h-2.42v6.74h.71v-2.83h1.45l1.93 2.83h.89zm-1.18-4.81c0 .94-.63 1.37-1.48 1.37h-1.61v-2.69h1.68c.79 0 1.41.5 1.41 1.32zm7.69 4.81v-.64h-3.5v-2.54h3v-.62h-3v-2.3h3.3v-.64h-4.01v6.74h4.21zm8.12-3.38c0-1.82-1.02-3.36-3.23-3.36h-2.44v6.74h2.44c2.14 0 3.23-1.52 3.23-3.38zm-.73.01c0 1.6-.86 2.75-2.55 2.75h-1.68v-5.5h1.68c1.56 0 2.55 1.08 2.55 2.75zm3.59 3.37v-6.74h-.71v6.74h.71zm7.602-6.1v-.64h-5.7v.64h2.5v6.1h.71v-6.1h2.49zm6.11 6.1v-.64h-3.5v-2.54h3v-.62h-3v-2.3h3.3v-.64h-4.01v6.74h4.21zm8.12-3.38c0-1.82-1.02-3.36-3.23-3.36h-2.44v6.74h2.44c2.14 0 3.23-1.52 3.23-3.38zm-.73.01c0 1.6-.86 2.75-2.55 2.75h-1.68v-5.5h1.68c1.56 0 2.55 1.08 2.55 2.75zM42.396 10.93c-.02.046-.05.083-.083.117l.003.002-10.42 10.42L21.47 31.893l-.002-.002c-.033.034-.07.063-.117.082-.044.02-.092.028-.14.028-.096 0-.19-.038-.26-.108l-10.42-10.42L.106 11.048l.002-.003c-.035-.034-.064-.07-.083-.117-.057-.137-.026-.295.08-.4L10.53.108V.11c.034-.034.072-.063.118-.082.138-.057.295-.025.4.08L16 5.058l4.95-4.95c.07-.07.165-.105.26-.105V0l7.59.007c1.025 0 1.93.523 2.465 1.316V.368c0-.15.09-.283.227-.34.138-.056.295-.024.4.08L42.316 10.53c.105.104.137.262.08.4zm-31.974.227H1.256l9.166 9.166v-9.166zm0-5.212H5.73L1.255 10.42h9.166V5.946zm0-4.69L6.468 5.21h3.954V1.255zm.737 19.068l9.166-9.166h-9.166v9.166zm9.686-8.646L11.31 21.21l9.533 9.535V11.677zm0-10.422L16.26 5.837c-.143.144-.375.144-.52 0l-4.583-4.582v9.166h9.686V1.256zm11.158 0v1.69c0 1.498 1.22 2.248 2.24 2.248h1.7L32 1.255zM21.58 10.42h7.22c1.234 0 2.238-1.002 2.238-2.236 0-1.183-.936-2.233-2.094-2.233-.056.003-2.316-.005-2.316-.005-.203 0-.368-.165-.368-.368s.165-.368.368-.368h2.348c1.152 0 2.063-1.063 2.063-2.23C31.037 1.744 30.033.74 28.8.74L21.58.735v9.686zm9.168 11.158h-9.168v9.167l9.168-9.167zm.52-10.42h-9.688v9.685h9.688v-9.686zm0-1.317c-.146.217-.32.41-.516.582h.516v-.58zm9.9 1.317h-9.165v9.166l9.167-9.166zm0-.736L36.675 5.93h-2.528C33.008 5.928 32 7.052 32 8.183v2.238h9.167z"/></svg>