<svg xmlns="http://www.w3.org/2000/svg" width="322" height="37"><path fill="#ED1C24" d="M0.1,0.3v35.9H36V0.3H0.1z M31.5,31.7H4.6V4.8h26.9V31.7z M22.4,30.1L10.5,18.2L22.4,6.3v6.3l-5.6,5.6 l5.6,5.6V30.1z M206.5,35.9V0.4h1.3v35.5H206.5z"/><path fill="#1B3281" d="M53.7,5.5l2.7-5.1c0.4-0.1,1-0.1,1.6-0.1c0.6,0,1.1,0,1.6,0.1l-6.7,12.1c-0.4,0.1-0.9,0.1-1.6,0.1 c-0.6,0-1.2,0-1.6-0.1l2.4-4.3l-4.3-7.7c0.4-0.1,1-0.1,1.6-0.1c0.6,0,1.2,0,1.6,0.1L53.7,5.5z M71.1,5.2V0.4c1-0.2,2-0.2,3,0v12.1 c-1,0.2-2,0.2-3,0V7.6h-5v4.9c-1,0.2-2,0.2-3,0V0.4c1-0.2,2-0.2,3,0v4.7H71.1z M89.3,12.5c-1,0.2-2,0.2-3,0V5.4l-5.6,7.1 c-0.8,0.1-1.5,0.1-2.3,0V0.4c1-0.2,2-0.2,3,0v7.1L87,0.4c0.8-0.1,1.5-0.1,2.3,0V12.5z M93.7,0.4h5.2c1.2,0,2.1,0.3,2.8,0.9 c0.7,0.6,1.1,1.3,1.1,2.3c0,1.2-0.6,2.1-1.7,2.7c1.2,0.5,1.9,1.5,1.9,2.8c0,2.1-1.6,3.4-4.1,3.4h-5.2V0.4z M96.6,2.9v2.5h1.9 c0.8,0,1.3-0.4,1.3-1.2c0-0.8-0.4-1.2-1.3-1.2H96.6z M96.6,7.5V10h2.1c0.9,0,1.3-0.4,1.3-1.3c0-0.8-0.5-1.3-1.4-1.3H96.6z M109.8,10 h5.4c0.1,0.8,0.1,1.6,0,2.5h-8.4V0.4h8.4c0.1,0.8,0.1,1.7,0,2.5h-5.4v2.3h4.8c0.1,0.8,0.1,1.7,0,2.5h-4.8V10z M119.2,0.4h4.7 c1.4,0,2.4,0.4,3.3,1.1c0.8,0.7,1.3,1.7,1.3,2.9s-0.4,2.2-1.3,2.9c-0.8,0.7-1.9,1.1-3.3,1.1h-1.8v4c-1,0.2-2,0.2-3,0V0.4z M122.2,6 h1.8c0.9,0,1.5-0.5,1.5-1.6s-0.7-1.6-1.5-1.6h-1.8V6z M142.4,9.1c0.1,0.1,0.1,0.6,0.1,1.3c0,0.7-0.1,1.2-0.1,1.4 c-1,0.6-2.2,0.9-3.7,0.9c-2.1,0-3.7-0.6-5-1.8c-1.2-1.2-1.9-2.7-1.9-4.5c0-1.8,0.6-3.3,1.9-4.5c1.2-1.2,2.9-1.8,5-1.8 c1.4,0,2.7,0.3,3.7,0.9c0.1,0.2,0.1,0.7,0.1,1.4c0,0.7,0,1.1-0.1,1.3c-1.2-0.8-2.4-1.2-3.5-1.2c-1.1,0-2.1,0.4-2.8,1.1 c-0.8,0.7-1.1,1.6-1.1,2.8c0,1.2,0.4,2.1,1.1,2.8c0.8,0.7,1.7,1,2.8,1C140,10.3,141.2,9.9,142.4,9.1z M157.6,12.5c-1,0.2-2,0.2-3,0 V5.4l-5.6,7.1c-0.8,0.1-1.5,0.1-2.3,0V0.4c1-0.2,2-0.2,3,0v7.1l5.6-7.1c0.8-0.1,1.5-0.1,2.3,0V12.5z M170.7,0.4 c0.1,0.8,0.1,1.7,0,2.5h-3.3v9.6c-1,0.2-2,0.2-3,0V2.9h-3.3c-0.1-0.8-0.1-1.7,0-2.5H170.7z M177.4,10h5.4c0.1,0.8,0.1,1.6,0,2.5 h-8.4V0.4h8.4c0.1,0.8,0.1,1.7,0,2.5h-5.4v2.3h4.8c0.1,0.8,0.1,1.7,0,2.5h-4.8V10z M195.8,0.4c0.1,0.8,0.1,1.7,0,2.5h-3.3v9.6 c-1,0.2-2,0.2-3,0V2.9h-3.3c-0.1-0.8-0.1-1.7,0-2.5H195.8z M63.6,30.6c0.1,0.2,0.2,0.9,0.2,2c0,1.1-0.1,1.9-0.2,2.2 c-1.6,1-3.5,1.5-5.8,1.5c-3.2,0-5.8-1-7.8-2.8c-1.9-1.9-2.9-4.2-2.9-7s1-5.1,2.9-7c1.9-1.9,4.5-2.8,7.8-2.8c2.3,0,4.2,0.5,5.8,1.5 c0.1,0.3,0.2,1,0.2,2.2c0,1.1-0.1,1.8-0.2,2c-1.9-1.2-3.8-1.8-5.5-1.8c-1.8,0-3.2,0.6-4.4,1.7c-1.2,1.1-1.8,2.5-1.8,4.4 c0,1.8,0.6,3.3,1.8,4.4c1.2,1.1,2.6,1.6,4.4,1.6C59.8,32.4,61.7,31.7,63.6,30.6z M84.8,35.8c-1.5,0.3-3.1,0.3-4.7,0V24.7l-8.8,11.1 c-1.2,0.2-2.4,0.2-3.6,0V16.9c1.5-0.3,3.1-0.3,4.7,0V28l8.8-11.1c1.2-0.2,2.4-0.2,3.6,0V35.8z M101.3,24.3v-7.4 c1.5-0.3,3.1-0.3,4.7,0v18.9c-1.5,0.3-3.1,0.3-4.7,0v-7.6h-7.8v7.6c-1.5,0.3-3.1,0.3-4.7,0V16.9c1.5-0.3,3.1-0.3,4.7,0v7.4H101.3z M114.6,31.9h8.5c0.2,1.3,0.2,2.6,0,3.9H110V16.9h13.2c0.2,1.3,0.2,2.6,0,3.9h-8.5v3.5h7.5c0.2,1.3,0.2,2.6,0,3.9h-7.5V31.9z M126.4,16.9h7.4c2.1,0,3.8,0.6,5.1,1.7c1.3,1.2,2,2.7,2,4.6c0,1.9-0.7,3.4-2,4.6c-1.3,1.2-3,1.7-5.1,1.7H131v6.2 c-1.5,0.3-3.1,0.3-4.7,0V16.9z M131,25.7h2.8c1.4,0,2.4-0.8,2.4-2.5c0-1.6-1-2.5-2.4-2.5H131V25.7z M144.3,16.9h12.4 c0.2,1.3,0.2,2.6,0,3.9h-7.8v15c-1.5,0.3-3.1,0.3-4.7,0V16.9z M176.9,35.8c-1.5,0.3-3.1,0.3-4.7,0V24.7l-8.8,11.1 c-1.2,0.2-2.4,0.2-3.6,0V16.9c1.5-0.3,3.1-0.3,4.7,0V28l8.8-11.1c1.2-0.2,2.4-0.2,3.6,0V35.8z M195.4,16.9v18.9 c-1.5,0.3-3.1,0.3-4.7,0v-6.4h-1.8l-4.2,6.4c-0.7,0.1-1.5,0.2-2.6,0.2c-1,0-1.8-0.1-2.5-0.2l4.6-7.1c-2.2-1-3.6-3-3.6-5.6 c0-1.9,0.6-3.4,1.9-4.5c1.3-1.2,3-1.7,5.1-1.7H195.4z M190.7,20.8h-2.9c-1.4,0-2.4,0.8-2.4,2.4c0,1.5,1,2.4,2.4,2.4h2.9V20.8z M235.8,13.4v-13c0.8-0.2,1.6-0.2,2.4,0v15h-19v-15c0.8-0.2,1.6-0.2,2.4,0v13h5.9v-13c0.8-0.2,1.6-0.2,2.4,0v13H235.8z M246.7,7.7 l7.2,7.7c-0.3,0.1-0.8,0.1-1.4,0.1c-0.6,0-1.1,0-1.4-0.1L244.2,8v7.4c-0.8,0.2-1.6,0.2-2.4,0v-15c0.8-0.2,1.6-0.2,2.4,0v6.9l6.5-6.9 c0.3-0.1,0.8-0.1,1.4-0.1c0.6,0,1.1,0,1.4,0.1L246.7,7.7z M262.3,0c2.3,0,4.2,0.8,5.7,2.3c1.5,1.5,2.2,3.4,2.2,5.6 c0,2.2-0.7,4.1-2.2,5.6c-1.5,1.5-3.4,2.3-5.7,2.3c-2.3,0-4.2-0.8-5.7-2.3c-1.5-1.5-2.2-3.4-2.2-5.6c0-2.2,0.7-4.1,2.2-5.6 C258.1,0.8,260,0,262.3,0z M262.3,2c-1.6,0-2.9,0.6-3.9,1.7c-1,1.1-1.6,2.5-1.6,4.2c0,1.7,0.5,3.1,1.6,4.2c1,1.1,2.4,1.6,3.9,1.6 c1.6,0,2.9-0.6,3.9-1.6c1-1.1,1.6-2.5,1.6-4.2c0-1.7-0.5-3.1-1.6-4.2C265.2,2.5,263.9,2,262.3,2z M285.5,0.3v15 c-0.8,0.2-1.6,0.2-2.4,0v-13h-5.6l-0.9,8.8c-0.3,3.1-1.6,4.6-4,4.6c-0.5,0-0.9,0-1.2-0.2c-0.1-0.7-0.1-1.3,0-2 c0.2,0,0.4,0.1,0.6,0.1c1.3,0,2-0.7,2.2-2.7l1.1-10.6H285.5z M302.6,15.4c-0.8,0.2-1.6,0.2-2.5,0l-1.5-3.8H292l-1.5,3.8 c-0.8,0.2-1.6,0.2-2.5,0l6.2-15c0.6-0.1,1.3-0.1,2,0L302.6,15.4z M292.8,9.6h5l-2.5-6.2L292.8,9.6z M221.6,26.5h3.2 c1.7,0,3.1,0.4,4,1.3c1,0.9,1.5,2,1.5,3.4c0,1.3-0.5,2.5-1.5,3.4c-1,0.9-2.3,1.3-4,1.3h-5.6v-15h9.7c0.1,0.7,0.1,1.3,0,2h-7.3V26.5z M221.6,33.9h3.2c2,0,3.1-1.2,3.1-2.7c0-1.6-1.2-2.7-3.1-2.7h-3.2V33.9z M246,35.9c-0.8,0.2-1.6,0.2-2.4,0V24.8l-8.7,11.1 c-0.6,0.1-1.3,0.1-1.9,0v-15c0.8-0.2,1.6-0.2,2.4,0V32l8.7-11.1c0.6-0.1,1.3-0.1,1.9,0V35.9z M259.7,31.9c0,1.3-0.5,2.4-1.6,3.2 c-1,0.8-2.4,1.2-4,1.2c-1.9,0-3.6-0.4-4.9-1.3c-0.1-0.2-0.1-0.6-0.1-1.1c0-0.6,0-0.9,0.1-1.1c1.5,1,3.1,1.5,4.8,1.5 c1.9,0,3.3-1,3.3-2.7c0-1.4-0.9-2.4-2.8-2.4H252c-0.2-0.6-0.2-1.3,0-1.9h2.5c1.5,0,2.5-1,2.5-2.4c0-1.4-1.1-2.4-2.8-2.4 c-1.6,0-3.1,0.5-4.6,1.5c-0.1-0.1-0.1-0.5-0.1-1.1c0-0.6,0.1-1,0.1-1.1c1.3-0.9,2.9-1.3,4.7-1.3c1.6,0,2.8,0.4,3.7,1.2 c0.9,0.8,1.4,1.7,1.4,2.9c0,1.6-0.9,2.9-2.3,3.6C258.7,28.7,259.7,30.1,259.7,31.9z M273.1,27.3v-6.4c0.8-0.2,1.6-0.2,2.4,0v15 c-0.8,0.2-1.6,0.2-2.4,0v-6.7h-8.3v6.7c-0.8,0.2-1.5,0.2-2.4,0v-15c0.8-0.2,1.6-0.2,2.4,0v6.4H273.1z M281.5,33.9h7.9 c0.2,0.7,0.2,1.3,0,2h-10.2v-15h10.2c0.2,0.7,0.2,1.3,0,2h-7.9v4.4h7.1c0.1,0.7,0.1,1.3,0,2h-7.1V33.9z M304.6,32.7 c0.1,0.1,0.1,0.5,0.1,1.1c0,0.6,0,1-0.1,1.1c-1.3,0.9-2.9,1.3-4.9,1.3c-2.4,0-4.4-0.8-5.9-2.3c-1.5-1.5-2.3-3.4-2.3-5.6 c0-2.2,0.8-4.1,2.3-5.6c1.5-1.5,3.5-2.3,5.9-2.3c1.9,0,3.5,0.4,4.9,1.3c0.1,0.2,0.1,0.6,0.1,1.1c0,0.6,0,0.9-0.1,1.1 c-1.5-1-3.1-1.5-4.7-1.5c-1.7,0-3.1,0.6-4.2,1.7c-1.1,1.1-1.7,2.5-1.7,4.2c0,1.7,0.6,3.1,1.7,4.2c1.1,1.1,2.5,1.6,4.2,1.6 C301.5,34.3,303.1,33.8,304.6,32.7z M321.5,35.9c-0.8,0.2-1.6,0.2-2.5,0l-1.5-3.8H311l-1.5,3.8c-0.8,0.2-1.6,0.2-2.5,0l6.2-15 c0.6-0.1,1.3-0.1,2,0L321.5,35.9z M311.8,30.1h5l-2.5-6.2L311.8,30.1z"/></svg>