<svg width="180" height="33" viewBox="0 0 180 33" fill="none" xmlns="http://www.w3.org/2000/svg">
<path fill-rule="evenodd" clip-rule="evenodd" d="M130.746 2.5687C130.762 3.21988 130.712 3.6049 130.626 3.73736C129.49 3.05275 128.42 2.7024 127.42 2.7024C126.382 2.7024 125.534 3.01933 124.838 3.65565C124.141 4.27341 123.801 5.10906 123.801 6.16135C123.801 7.2124 124.141 8.04805 124.838 8.68314C125.534 9.30089 126.382 9.61782 127.42 9.61782C128.42 9.61782 129.489 9.26871 130.626 8.58286C130.712 8.71656 130.762 9.0991 130.746 9.75152C130.73 10.4027 130.696 10.8199 130.626 11.0031C129.71 11.554 128.59 11.8375 127.265 11.8375C125.379 11.8375 123.87 11.2866 122.731 10.2009C121.594 9.11396 121.034 7.76207 121.034 6.16011C121.034 4.55567 121.594 3.20255 122.731 2.11683C123.87 1.03235 125.379 0.481445 127.265 0.481445C128.59 0.481445 129.71 0.763707 130.626 1.31585C130.694 1.50031 130.728 1.91628 130.746 2.5687ZM71.9907 11.5862C72.6934 11.7038 73.4112 11.7038 74.1139 11.5862L79.2577 5.22295V11.5862C80.1575 11.736 81.0765 11.736 81.9762 11.5862V0.730282C81.273 0.613904 80.555 0.613904 79.8518 0.730282L74.708 7.09356V0.730282C73.8087 0.579256 72.89 0.579256 71.9907 0.730282V11.5862ZM65.2536 7.20993H60.6849V11.5862C59.7861 11.7373 58.8678 11.7373 57.9689 11.5862V0.73152C58.8678 0.580491 59.7861 0.580491 60.6849 0.73152V4.98897H65.2536V0.73152C66.1528 0.580494 67.0716 0.580494 67.9708 0.73152V11.5862C67.0715 11.736 66.1529 11.736 65.2536 11.5862V7.20993ZM47.7154 7.67913L45.4915 11.5862C45.8829 11.6531 46.375 11.6865 46.9527 11.6865C47.5278 11.6865 48.0048 11.6543 48.3962 11.5875L54.5419 0.73152C54.1517 0.664668 53.676 0.631242 53.0995 0.631242C52.6105 0.625167 52.1218 0.658706 51.6383 0.73152L49.1589 5.3418L46.6795 0.73152C46.2894 0.664668 45.8136 0.631242 45.2372 0.631242C44.7482 0.625267 44.2595 0.658806 43.776 0.73152L47.7154 7.67913ZM94.348 3.56899C94.348 2.73459 94.0095 2.04874 93.3474 1.53126C92.6867 0.997688 91.8208 0.730282 90.7498 0.729044H85.9961V11.585H90.7837C93.0932 11.585 94.5695 10.4324 94.5695 8.51229C94.5695 7.32506 93.9088 6.44113 92.839 5.97317C93.8396 5.47303 94.348 4.67081 94.348 3.56899ZM91.8032 8.19784C91.8032 7.44638 91.3778 7.06137 90.5131 7.06137H88.7121V9.36651H90.6151C91.4118 9.36651 91.8032 8.98149 91.8032 8.19784ZM88.7134 2.95248H90.4452C91.2419 2.95248 91.6333 3.32016 91.6333 4.07162C91.6333 4.78965 91.1739 5.18953 90.4452 5.19076H88.7134V2.95248ZM98.0495 11.5862H105.741C105.877 10.8524 105.877 10.1004 105.741 9.36651H100.765V7.21116H105.162C105.299 6.477 105.299 5.72438 105.162 4.99021H100.765V2.95248H105.741C105.877 2.21819 105.877 1.4658 105.741 0.731519H98.0495V11.5862ZM113.652 8.01214C114.89 8.01214 115.892 7.67913 116.656 7.01185C117.42 6.34333 117.81 5.45693 117.81 4.37121C117.81 3.2855 117.42 2.40281 116.656 1.73182C115.892 1.06578 114.89 0.730282 113.652 0.730282H109.321V11.5862C110.221 11.736 111.14 11.736 112.04 11.5862V8.01214H113.652ZM115.043 4.37121C115.043 3.43653 114.447 2.95248 113.652 2.95248H112.04V5.79119H113.652C114.449 5.78995 115.043 5.30713 115.043 4.37121ZM142.578 0.730282L137.433 7.09356V0.730282C136.534 0.579253 135.616 0.579253 134.717 0.730282V11.5862C135.419 11.7038 136.137 11.7038 136.84 11.5862L141.984 5.22295V11.5862C142.883 11.736 143.802 11.736 144.701 11.5862V0.730282C143.997 0.613903 143.28 0.613903 142.578 0.730282ZM151.168 2.95124H148.18C148.043 2.21707 148.043 1.46445 148.18 0.730282H156.873C157.006 1.46478 157.006 2.21673 156.873 2.95124H153.885V11.5862C152.985 11.736 152.067 11.736 151.168 11.5862V2.95124ZM168.093 11.5862C168.229 10.8524 168.229 10.1004 168.093 9.36651H163.118V7.21116H167.515C167.651 6.47688 167.651 5.72449 167.515 4.99021H163.118V2.95248H168.093C168.229 2.21819 168.229 1.4658 168.093 0.731519H160.404V11.5862H168.093ZM174.12 11.5862V2.95248H171.131C170.996 2.21808 170.996 1.46591 171.131 0.731519H179.823C179.96 1.46569 179.96 2.21831 179.823 2.95248H176.836V11.5862C175.937 11.7373 175.019 11.7373 174.12 11.5862ZM52.9825 32.9589C55.0579 32.9589 56.8136 32.5145 58.2496 31.6503C58.3566 31.3631 58.4094 30.707 58.4359 29.6869C58.4623 28.6668 58.383 28.0639 58.2496 27.8559C56.4687 28.928 54.7911 29.4801 53.2204 29.4801C51.5981 29.4801 50.2677 28.9825 49.1766 28.0131C48.0866 27.019 47.5543 25.7117 47.5543 24.0627C47.5543 22.4137 48.0866 21.1051 49.1766 20.1358C50.2677 19.1417 51.5993 18.6453 53.2204 18.6453C54.7911 18.6453 56.4687 19.1937 58.2496 20.2695C58.383 20.0578 58.4623 19.4586 58.4359 18.4373C58.4094 17.4172 58.3566 16.7623 58.2496 16.4751C56.8136 15.6097 55.0579 15.1665 52.9825 15.1665C50.0286 15.1665 47.66 16.0281 45.8791 17.7291C44.0957 19.4314 43.2197 21.5521 43.2197 24.0627C43.2197 26.5746 44.0957 28.6953 45.8791 30.3938C47.6612 32.0948 50.0286 32.9589 52.9825 32.9589ZM65.3266 32.5677C64.226 32.7509 63.102 32.7509 62.0014 32.5677V15.5577C63.4101 15.3212 64.8493 15.3212 66.2567 15.5577V25.5272L74.3178 15.5577C75.4188 15.3745 76.5432 15.3745 77.6442 15.5577V32.5677C76.2359 32.8017 74.7961 32.8017 73.3877 32.5677V22.5957L65.3266 32.5677ZM81.2878 32.5677C82.6987 32.8017 84.1359 32.8017 85.5456 32.5677V25.7117H92.7018V32.5677C94.1101 32.8017 95.5499 32.8017 96.9583 32.5677V15.5577C95.5496 15.3212 94.1104 15.3212 92.7018 15.5577V22.2305H85.5456V15.5577C84.1365 15.3212 82.6969 15.3212 81.2878 15.5577V32.5677ZM100.682 15.5565H112.736C112.947 16.7076 112.947 17.8866 112.736 19.0352H104.939V22.2268H111.831C112.042 23.3783 112.042 24.5577 111.831 25.7092H104.939V29.084H112.736C112.947 30.2355 112.947 31.415 112.736 32.5665H100.682V15.5565ZM127.18 25.396C125.982 26.4446 124.412 26.967 122.47 26.967H119.944V32.5677C118.534 32.8017 117.095 32.8017 115.686 32.5677V15.5577H122.47C124.412 15.5577 125.982 16.0814 127.18 17.1287C128.377 18.1736 128.99 19.5614 128.99 21.2611C128.99 22.9621 128.377 24.3499 127.18 25.396ZM122.471 19.0389C123.722 19.0389 124.653 19.7941 124.653 21.2611C124.653 22.7269 123.722 23.4858 122.471 23.4858H119.945V19.0389H122.471ZM136.306 32.5677V19.0389H143.436C143.649 17.8875 143.649 16.7079 143.436 15.5565H132.049V32.5677C133.459 32.8017 134.895 32.8017 136.306 32.5677ZM150.485 15.5577V25.5272L158.547 15.5577C159.647 15.3745 160.771 15.3745 161.872 15.5577V32.5677C160.461 32.8017 159.025 32.8017 157.615 32.5677V22.5957L149.554 32.5677C148.454 32.7509 147.329 32.7509 146.229 32.5677V15.5577C147.638 15.3212 149.077 15.3212 150.485 15.5577ZM174.587 32.5677V26.811H172.937L169.132 32.5677C168.522 32.6717 167.723 32.7249 166.793 32.7249C165.861 32.7249 165.118 32.6717 164.505 32.5677L168.708 26.1834C166.661 25.266 165.41 23.461 165.41 21.1831C165.41 19.5081 165.995 18.1476 167.165 17.1287C168.363 16.0814 169.906 15.5577 171.848 15.5577H178.846V32.5677C177.436 32.8017 175.997 32.8017 174.587 32.5677ZM174.587 19.0389V23.3286H171.928C170.678 23.3286 169.747 22.5684 169.747 21.1819C169.747 19.7953 170.678 19.0389 171.928 19.0389H174.587Z" fill="#0C143B"/>
<path fill-rule="evenodd" clip-rule="evenodd" d="M0.128906 32.6779V0.654785H32.6819V32.6779H0.128906ZM28.6117 4.65721H4.19662V28.6742H28.6117V4.65721ZM15.2909 16.6657L20.3479 21.64V27.2988L9.53674 16.6645L20.3479 6.03138V11.6915L15.2909 16.6657Z" fill="#FE334A"/>
</svg>
