<svg width="37" height="36" viewBox="0 0 37 36" fill="none" xmlns="http://www.w3.org/2000/svg">
<g clip-path="url(#clip0_2015_2160)">
<circle cx="18.6011" cy="17.8679" r="17.8679" fill="#9E64D9"/>
<mask id="mask0_2015_2160" style="mask-type:alpha" maskUnits="userSpaceOnUse" x="6" y="4" width="28" height="28">
<rect x="6.18091" y="4.10156" width="27.0703" height="27.0703" fill="#ECEDF0"/>
</mask>
<g mask="url(#mask0_2015_2160)">
<path d="M18.2879 19.6147C18.643 19.7843 19.0582 19.7825 19.4118 19.6097L30.2499 14.3154C30.5648 14.1615 30.5634 13.7198 30.2475 13.5679L19.2596 8.28461C18.906 8.11461 18.4923 8.11477 18.1389 8.28506L7.18424 13.5631C6.86702 13.716 6.8678 14.1603 7.18555 14.312L18.2879 19.6147Z" fill="#ECEDF0"/>
<path d="M11.8756 18.8537L17.3928 21.4888C18.3197 21.9315 19.4003 21.9269 20.3235 21.4759L26.026 18.6902C26.0979 19.0978 26.1354 19.5172 26.1354 19.9454C26.1354 23.9059 22.9248 27.1166 18.9642 27.1166C15.0037 27.1166 11.793 23.9059 11.793 19.9454C11.793 19.5742 11.8212 19.2097 11.8756 18.8537Z" fill="#ECEDF0"/>
</g>
</g>
<defs>
<clipPath id="clip0_2015_2160">
<rect x="0.733154" width="35.9743" height="35.9743" rx="17.9872" fill="white"/>
</clipPath>
</defs>
</svg>
