<svg width="37" height="36" viewBox="0 0 37 36" fill="none" xmlns="http://www.w3.org/2000/svg">
<g clip-path="url(#clip0_2015_2171)">
<circle cx="17.833" cy="18.5" r="17.5" fill="#666666"/>
<path fill-rule="evenodd" clip-rule="evenodd" d="M17.5349 29.0928C17.6324 29.2042 17.8069 29.2042 17.9053 29.0928L28.3892 17.2164C28.523 17.0649 28.5495 16.8478 28.4559 16.6697L25.4275 10.9066C25.3642 10.7863 25.2388 10.7109 25.1018 10.7109H10.4672C10.3301 10.7109 10.2042 10.7863 10.1401 10.9066L7.07127 16.6697C6.97647 16.8478 7.00144 17.0649 7.13414 17.2164L17.5349 29.0928ZM18.2838 13.4436C18.1082 12.9644 17.4303 12.9644 17.2513 13.4436C16.5777 15.2469 15.151 16.6686 13.3454 17.3359C12.8655 17.5132 12.8632 18.191 13.3418 18.3684C15.1427 19.0356 16.5595 20.4574 17.2204 22.2606C17.3961 22.7399 18.0739 22.7399 18.2529 22.2606C18.9265 20.4574 20.3532 19.0356 22.1588 18.3684C22.6387 18.191 22.6411 17.5132 22.1624 17.3359C20.3615 16.6686 18.9448 15.2469 18.2838 13.4436Z" fill="#ECEDF0"/>
</g>
<defs>
<clipPath id="clip0_2015_2171">
<rect x="0.333008" width="36" height="36" rx="18" fill="white"/>
</clipPath>
</defs>
</svg>
