<svg xmlns="http://www.w3.org/2000/svg" width="240" height="40" viewBox="0 0 240 40" fill="none">
  <path d="M0 0V40H40.3335V0H0ZM34.5716 34.2857H5.76193V5.71428H34.5716V34.2857Z" fill="#ED131C"/>
  <path d="M24.8198 24.0038L20.6454 20.0001L24.8198 16.1045V8.20518L12.4095 20.0001L24.8198 31.7949V24.0038Z" fill="#ED131C"/>
  <path fill-rule="evenodd" clip-rule="evenodd" d="M58.6387 21.8097C53.5477 22.6094 49.8852 26.9622 50.3779 31.6271C50.6286 34.0006 51.5942 35.8646 53.423 37.5059C57.0604 40.7704 63.1022 40.8223 66.6705 37.6199C67.2044 37.1408 67.6414 36.6947 67.6414 36.6288C67.6414 36.535 66.6262 35.3238 64.9502 33.4177C64.9205 33.3839 64.4921 33.7225 63.9982 34.1701C62.8235 35.2349 61.712 35.6511 60.055 35.6464C59.1916 35.644 58.6006 35.551 58.1454 35.346C55.2559 34.0445 54.3963 30.2067 56.4708 27.8695C58.4311 25.661 61.6932 25.6481 64.2093 27.8392L64.7674 28.325L65.4119 27.6056C65.7666 27.2098 66.4142 26.4771 66.8513 25.9771L67.6461 25.0681L66.657 24.1805C65.6182 23.2481 63.8466 22.2965 62.615 22.0093C61.5523 21.7613 59.577 21.6623 58.6387 21.8097ZM69.7493 31.3082V39.8308H71.8205H73.8918L77.5361 35.2322L81.1805 30.6333L81.2235 35.3126L81.2664 39.9916H83.6962H86.1259V31.3886V22.7856L83.9775 22.7948L81.8291 22.804L78.2619 27.3264L74.6947 31.849L74.6516 27.3173L74.6086 22.7856H72.1789H69.7493V31.3082ZM90.0174 31.3886V39.9916H92.5306H95.0438V36.7756V33.5595H98.2023H101.361L101.405 36.7354L101.449 39.9112L103.921 39.9556L106.394 40V31.3928V22.7856H103.881H101.367V25.8409V28.8962H98.2057H95.0438V25.8409V22.7856H92.5306H90.0174V31.3886ZM109.475 31.3886V39.9916H116.123H122.771V37.9012V35.8107H118.474H114.177V34.6047V33.3987H117.42H120.663V31.3886V29.3786H117.42H114.177V28.1753V26.972L118.352 26.9291L122.527 26.8861L122.573 24.8359L122.618 22.7856H116.046H109.475V31.3886ZM125.689 31.38V39.9916H128.04H130.391V37.4188V34.8459H132.329C133.395 34.8459 134.653 34.7646 135.126 34.6652C137.669 34.13 139.564 32.2058 139.962 29.7537C140.387 27.1376 139.034 24.5892 136.587 23.3936L135.507 22.866L130.598 22.8172L125.689 22.7683V31.38ZM143.039 31.3886V39.9916H145.39H147.741V33.6428V27.2941L151.511 27.2508L155.281 27.2077L155.326 24.9967L155.371 22.7856H149.205H143.039V31.3886ZM157.307 31.3082V39.8308H159.388H161.47L165.104 35.2484L168.739 30.6658L168.781 35.3288L168.824 39.9916H171.254H173.684V31.384V22.7763L171.541 22.8212L169.399 22.866L165.826 27.3681L162.253 31.8702L162.21 27.3279L162.167 22.7856H159.737H157.307V31.3082ZM180.47 23.0936C179.494 23.4031 178.802 23.8178 177.923 24.6203C176.173 26.2167 175.654 28.9472 176.693 31.0871C177.049 31.821 178.18 33.0383 178.915 33.4791C179.151 33.6206 179.052 33.8719 178.089 35.5695C177.487 36.6308 176.682 38.0599 176.3 38.7454L175.607 39.9916L178.172 39.9895L180.737 39.9875L182.115 37.3384L183.494 34.6893L184.746 34.6872L185.999 34.6851L186.043 37.2982L186.088 39.9112L188.561 39.9556L191.033 40V31.3928V22.7856L186.21 22.7943C182.019 22.8017 181.265 22.8411 180.47 23.0936ZM134.105 27.2203C135.406 27.7365 135.606 29.3741 134.461 30.1369C133.976 30.4606 133.711 30.5042 132.232 30.5042H130.553V28.7354V26.9665H132.01C132.957 26.9665 133.689 27.0551 134.105 27.2203ZM186.007 28.8332V30.539L184.153 30.4806C182.586 30.4312 182.229 30.3704 181.843 30.0869C181.141 29.572 180.919 29.0055 181.148 28.3163C181.467 27.3581 182.053 27.1286 184.183 27.128L186.007 27.1273V28.8332Z" fill="#1C1C1C"/>
  <path fill-rule="evenodd" clip-rule="evenodd" d="M163.036 0.429829C160.358 1.26075 157.82 3.60048 156.996 6.00055C154.578 13.0376 161.205 19.7136 168.714 17.8055C170.452 17.364 172.574 16.1858 173.392 15.2073C173.709 14.8294 173.555 14.5187 172.392 13.1826L171.018 11.6045L169.582 12.5847C167.18 14.2231 164.909 14.2655 163.117 12.7048C161.819 11.5744 161.381 10.4392 161.554 8.65093C161.918 4.89564 165.874 3.30426 169.417 5.48808L170.932 6.42207L172.32 4.87832L173.708 3.33457L172.473 2.24901C170.142 0.199147 166.219 -0.556992 163.036 0.429829ZM50.5694 1.17413C50.5694 1.34823 51.8465 3.94404 53.4078 6.94291L56.2462 12.3955L55.5828 13.0619C55.0585 13.5882 54.6154 13.7239 53.4721 13.7072L52.025 13.6861V15.7827V17.8791L53.3082 18.0699C55.6704 18.4213 57.5033 17.7318 59.0881 15.8956C59.8465 15.0168 65.4596 3.92355 66.503 1.2414C66.6089 0.969145 65.999 0.88051 64.0177 0.88051H61.3918L60.5341 3.11804C60.0625 4.34853 59.5007 5.84291 59.2858 6.43824C59.0707 7.03356 58.8159 7.52091 58.7196 7.52091C58.6232 7.52091 57.8925 6.05944 57.0954 4.27289L55.6462 1.02487L53.1077 0.941428C51.4113 0.885706 50.5694 0.962793 50.5694 1.17413ZM68.4772 9.5419V18.2033H70.9421H73.4071L73.4894 14.9553L73.5718 11.7073L76.7014 11.6253L79.8309 11.5433V14.8733V18.2033H82.3054H84.78V9.5419V0.88051H82.3054H79.8309V3.912V6.94349H76.6286H73.4263V3.912V0.88051H70.9517H68.4772V9.5419ZM87.8328 9.39755V17.9146L89.9434 17.9016L92.054 17.8889L95.5475 13.4427L99.0409 8.99681L99.121 13.6116L99.201 18.2264L101.595 18.1427L103.99 18.0589V9.5419V1.02487L101.952 0.944317L99.9143 0.863764L96.2753 5.49328L92.6363 10.1231L92.5562 5.50165L92.4762 0.88051H90.1545H87.8328V9.39755ZM107.047 9.56991V18.2593L112.214 18.1522C117.946 18.0335 118.463 17.8958 120.09 16.0587C121.162 14.8473 121.495 13.4225 121.032 12.0292C120.693 11.0106 118.979 9.25607 118.317 9.25001C118.123 9.24828 118.38 8.92146 118.889 8.52361C121.566 6.43044 120.425 2.36507 116.864 1.31676C115.845 1.0162 114.086 0.88051 111.215 0.88051H107.047V9.56991ZM124.223 9.53642V18.2033H130.773H137.323V16.0379V13.8726H133.102H128.881V12.7177V11.5629H132.083H135.285V9.5419V7.52091H132.083H128.881V6.37385V5.22709L133.029 5.14682L137.178 5.06685V3.04586V1.02487L130.7 0.947203L124.223 0.869539V9.53642ZM140.234 9.55345V18.2267L142.636 18.1427L145.038 18.0589L145.122 15.5327L145.206 13.0065L147.451 13.0001C150.056 12.9929 151.527 12.4443 152.953 10.9485C154.12 9.72495 154.499 8.73408 154.499 6.91317C154.499 4.27664 152.573 1.8451 149.968 1.19463C149.276 1.02198 146.803 0.88051 144.472 0.88051H140.234V9.55345ZM175.751 9.39755V17.9146L177.862 17.9051L179.972 17.8952L183.466 13.4462L186.959 8.9971L187.039 13.6003L187.119 18.2033H189.587H192.054V9.5419V0.88051L189.943 0.880798H187.833L184.339 5.34401C182.418 7.79894 180.748 9.81243 180.627 9.81907C180.507 9.82542 180.409 7.81684 180.409 5.35556V0.88051H178.08H175.751V9.39755ZM194.211 3.04586V5.21121H196.685H199.16V11.7073V18.2033H201.489H203.818V11.7073V5.21121H206.147H208.476V3.04586V0.88051H201.343H194.211V3.04586ZM210.513 9.53642V18.2033H217.064H223.614V16.0379V13.8726H219.393H215.171V12.7177V11.5629H218.374H221.576V9.5419V7.52091H218.374H215.171V6.36606V5.21121H219.405H223.64L223.554 3.11804L223.468 1.02487L216.991 0.947203L210.513 0.869539V9.53642ZM225.652 3.04586V5.21121H227.981H230.31V11.7188V18.2267L232.711 18.1427L235.113 18.0589L235.191 11.6351L235.27 5.21121H237.593H239.917V3.04586V0.88051H232.784H225.652V3.04586ZM115.14 4.98024C115.693 5.52908 115.564 6.88343 114.926 7.22209C114.616 7.38637 113.765 7.52091 113.034 7.52091H111.705V6.07735V4.63378H113.248C114.096 4.63378 114.948 4.78969 115.14 4.98024ZM148.903 5.66073C149.677 6.19803 149.756 7.39417 149.069 8.14771C148.706 8.54469 148.164 8.67576 146.885 8.67576H145.184V6.94349V5.21121H146.72C147.639 5.21121 148.516 5.39165 148.903 5.66073ZM115.715 11.435C116.428 11.9301 116.592 13.2406 116.013 13.8149C115.81 14.0164 114.836 14.1613 113.684 14.1613H111.705V12.5734V10.9855H113.386C114.438 10.9855 115.311 11.1541 115.715 11.435Z" fill="#1C1C1C"/>
</svg>