<svg xmlns="http://www.w3.org/2000/svg" width="166" height="29" viewBox="0 0 166 29" fill="none">
  <path d="M0 0.5V28.5H28V0.5H0ZM24 24.5H4V4.5H24V24.5Z" fill="#ED131C"/>
  <path d="M17.2302 17.3027L14.3323 14.5L17.2302 11.7731V6.24363L8.61481 14.5L17.2302 22.7564V17.3027Z" fill="#ED131C"/>
  <path fill-rule="evenodd" clip-rule="evenodd" d="M39.7569 15.7668C36.228 16.3266 33.6892 19.3735 34.0308 22.639C34.2045 24.3004 34.8738 25.6052 36.1415 26.7542C38.6628 29.0393 42.8508 29.0756 45.3243 26.834C45.6944 26.4985 45.9973 26.1863 45.9973 26.1401C45.9973 26.0745 45.2936 25.2267 44.1318 23.8924C44.1112 23.8687 43.8143 24.1058 43.4719 24.419C42.6576 25.1644 41.8872 25.4557 40.7386 25.4525C40.1401 25.4508 39.7305 25.3857 39.415 25.2422C37.412 24.3311 36.8162 21.6447 38.2542 20.0086C39.613 18.4627 41.8742 18.4537 43.6183 19.9875L44.0051 20.3275L44.4519 19.8239C44.6977 19.5469 45.1466 19.0339 45.4496 18.684L46.0006 18.0477L45.315 17.4263C44.5949 16.7737 43.3668 16.1075 42.5131 15.9065C41.7765 15.7329 40.4073 15.6636 39.7569 15.7668ZM47.4584 28.3816H50.3298L55.3821 21.9433L55.4417 28.4941H58.8101V16.45L55.8317 16.4628L50.8864 22.7943L50.8267 16.45H47.4584V28.3816ZM61.5076 28.4941H64.9918V23.9916H69.3704L69.4313 28.4379L72.8593 28.5V16.45H69.3751V20.7273H64.9918V16.45H61.5076V28.4941ZM74.9948 28.4941H84.211V25.5675H78.2542V23.8791H82.7499V21.065H78.2542V19.3804L84.0424 19.3203L84.1054 16.45H74.9948V28.4941ZM86.2341 28.4941H89.4935V24.8921H90.8367C91.5755 24.8921 92.4479 24.8352 92.7755 24.7656C94.5382 24.391 95.8514 23.0441 96.1274 21.3276C96.4219 19.4963 95.4845 17.7125 93.7881 16.8755L93.0395 16.5062L86.2341 16.4378V28.4941ZM98.2602 28.4941H101.52V19.6059L106.746 19.5454L106.808 16.45H98.2602V28.4941ZM108.151 28.3816H111.036L116.075 21.9661L116.134 28.4941H119.503V16.4434L116.532 16.5062L111.579 22.8092L111.519 16.45H108.151V28.3816ZM124.206 16.6655C123.53 16.8822 123.05 17.1725 122.441 17.7342C121.228 18.8517 120.868 20.763 121.588 22.261C121.835 22.7747 122.619 23.6268 123.129 23.9354C123.292 24.0344 123.223 24.2104 122.556 25.3987C122.138 26.1416 121.581 27.1419 121.316 27.6218L120.836 28.4941L124.392 28.4912L126.302 24.7825L128.039 24.7796L128.101 28.4379L131.529 28.5V16.45L128.185 16.456C125.28 16.4612 124.758 16.4888 124.206 16.6655ZM92.0676 19.5542C92.9694 19.9155 93.1082 21.0619 92.3148 21.5959C91.9783 21.8225 91.7946 21.853 90.7694 21.853H89.6059V19.3766H90.6152C91.2722 19.3766 91.7791 19.4386 92.0676 19.5542ZM128.044 21.8773L126.759 21.8364C125.673 21.8019 125.425 21.7593 125.158 21.5609C124.671 21.2004 124.518 20.8039 124.677 20.3214C124.898 19.6507 125.304 19.49 126.78 19.4896L128.044 19.4891V21.8773Z" fill="#1C1C1C"/>
  <path fill-rule="evenodd" clip-rule="evenodd" d="M112.122 0.80088C110.265 1.38252 108.506 3.02033 107.935 4.70038C106.259 9.62635 110.853 14.2995 116.058 12.9638C117.262 12.6548 118.733 11.83 119.301 11.1451C119.52 10.8806 119.413 10.6631 118.607 9.7278L117.655 8.62313L116.659 9.30926C114.994 10.4562 113.42 10.4859 112.178 9.39333C111.278 8.60211 110.975 7.80746 111.095 6.55565C111.347 3.92695 114.089 2.81298 116.545 4.34166L117.595 4.99545L119.519 2.8342L118.663 2.07431C117.048 0.639403 114.328 0.110105 112.122 0.80088ZM34.1635 1.32189C34.1635 1.44376 35.0488 3.26083 36.131 5.36003L38.0985 9.17688L37.6386 9.64332C37.2752 10.0118 36.9681 10.1067 36.1756 10.095L35.1725 10.0803V13.0154L36.062 13.1489C37.6994 13.3949 38.9699 12.9123 40.0684 11.6269C40.5941 11.0117 44.4849 3.24648 45.2082 1.36898C45.2816 1.1784 44.8589 1.11636 43.4854 1.11636H41.6652L41.0708 2.68263C40.7438 3.54397 40.3544 4.59004 40.2055 5.00677C40.0563 5.42349 39.8798 5.76464 39.813 5.76464C39.7462 5.76464 39.2397 4.74161 38.6871 3.49102L37.6826 1.21741L35.923 1.159C34.7471 1.11999 34.1635 1.17396 34.1635 1.32189ZM46.5766 13.2423H49.9938L50.1081 8.69508L54.4467 8.58028V13.2423H57.8772V1.11636H54.4467V5.36044H50.0072V1.11636H46.5766V13.2423ZM59.9933 13.0402L62.9193 13.0222L67.7624 6.79777L67.8734 13.2585L71.1929 13.1413V1.21741L68.3678 1.10463L63.3229 7.58616L63.2119 1.11636H59.9933V13.0402ZM73.3118 13.2815L76.8936 13.2065C80.8666 13.1235 81.2254 13.0271 82.3526 11.7411C83.096 10.8931 83.3271 9.89575 83.0056 8.92042C82.7707 8.20741 81.583 6.97925 81.1243 6.97501C80.9895 6.9738 81.1677 6.74502 81.5204 6.46653C83.3763 5.00131 82.5849 2.15555 80.1171 1.42173C79.4102 1.21134 78.1912 1.11636 76.2011 1.11636H73.3118V13.2815ZM85.2177 13.2423H94.2985V10.2108H88.4464V8.59402H92.8859V5.76464H88.4464V4.15896L94.1976 4.04679V1.21741L85.2177 1.10868V13.2423ZM96.3164 13.2587L99.6461 13.1413L99.7627 9.60452L101.319 9.60008C103.124 9.59502 104.144 9.21103 105.133 8.16396C105.941 7.30746 106.204 6.61386 106.204 5.33922C106.204 3.49365 104.869 1.79157 103.064 1.33624C102.584 1.21539 100.87 1.11636 99.254 1.11636H96.3164V13.2587ZM120.935 13.0402L123.861 13.0267L128.705 6.79797L128.816 13.2423H132.236V1.11636L129.31 1.11656L126.888 4.24081C125.557 5.95926 124.399 7.3687 124.316 7.37335C124.232 7.37779 124.164 5.97179 124.164 4.24889V1.11636H120.935V13.0402ZM133.731 4.14784H137.162V13.2423H140.39V4.14784H143.619V1.11636H133.731V4.14784ZM145.032 13.2423H154.112V10.2108H148.26V8.59402H152.7V5.76464H148.26V4.14784H154.13L154.011 1.21741L145.032 1.10868V13.2423ZM155.525 4.14784H158.754V13.2587L162.083 13.1413L162.192 4.14784H165.413V1.11636H155.525V4.14784ZM78.9217 3.98617C79.3053 4.37036 79.2159 5.3184 78.7736 5.55546C78.5589 5.67046 77.9686 5.76464 77.4619 5.76464H76.5405V3.74365H77.61C78.1983 3.74365 78.7885 3.85278 78.9217 3.98617ZM102.325 4.46251C102.861 4.83862 102.917 5.67592 102.44 6.20339C102.189 6.48128 101.813 6.57303 100.926 6.57303H99.747V4.14784H100.812C101.449 4.14784 102.057 4.27416 102.325 4.46251ZM79.3206 8.5045C79.8148 8.8511 79.9284 9.76842 79.5271 10.1704C79.3862 10.3115 78.711 10.4129 77.9127 10.4129H76.5405V8.18983H77.7063C78.435 8.18983 79.0406 8.30785 79.3206 8.5045Z" fill="#1C1C1C"/>
</svg>