<svg xmlns="http://www.w3.org/2000/svg" width="70" height="37" viewBox="0 0 70 37" fill="none">
  <path d="M62.7157 -3.58234L52.5348 -0.524463L57.1769 -7.27827L56.5309 -7.72158L51.3354 -0.163695L46.0515 1.42336L50.7429 -11.0917L37.5988 -5.8268L37.2541 -6.24705L38.217 -11.7783L46.0929 -17.5857L45.6317 -18.2148L38.4136 -12.8948L40.2623 -23.4998L39.49 -23.6362L37.6656 -13.1652L33.7055 -20.3393L33.0214 -19.954L37.4525 -11.9251L36.6004 -7.03807L28.6048 -16.7534L26.6618 -3.2174L22.5379 -7.24999L22.207 -17.0306L21.4226 -17.0027L21.7264 -8.04439L14.0284 -15.5682L13.4792 -15.0082L21.0811 -7.58109L12.9192 -8.37428L12.8418 -7.59209L21.9705 -6.70407L26.1136 -2.65341L12.6245 -0.407605L23.5369 8.15764L18.2487 9.76883L9.5198 5.34563L9.16594 6.04604L17.1623 10.0964L6.86522 13.2155L7.09161 13.9657L17.265 10.8867L12.6377 17.6493L13.2856 18.0921L18.4594 10.523L23.5306 8.98854L18.8014 21.5929L31.0835 16.6649L29.6256 21.5821L21.1313 26.4428L21.5161 27.125L29.2965 22.6719L26.2382 32.9953L26.9914 33.2204L30.0081 23.0208L33.113 30.5991L33.839 30.3035L30.3621 21.8157L31.9778 16.3637L40.9326 27.2438L42.8556 13.7926L46.6305 17.584L46.8321 27.3748L47.6156 27.3597L47.4353 18.4011L55.0308 26.0308L55.5858 25.4693L48.0845 17.9368L56.2295 18.8432L56.3157 18.0629L47.2025 17.0558L43.335 13.173L56.9086 10.9138L45.9166 2.28316L51.5388 0.594463L60.2624 5.03787L60.6188 4.3389L52.6301 0.269837L62.9338 -2.82378L62.7157 -3.58234ZM44.9198 -5.13569L42.0058 2.63756L35.3591 4.63372L36.493 -1.87761L36.5694 -1.78415L44.9198 -5.13569ZM30.8518 -8.73246L35.8352 -2.68435L34.5846 4.52086L29.6481 -0.301699L30.8518 -8.73246ZM20.702 1.65334L29.098 0.254426L33.9561 5.00078L27.4691 6.96633L20.702 1.65334ZM24.6221 15.6354L27.5757 7.75565L34.3269 5.7096L32.299 12.5555L24.6221 15.6354ZM38.6902 19.2322L33.1392 12.4923L35.0691 5.98156L39.8944 10.8285L38.6902 19.2322ZM48.84 8.84638L40.4277 10.2474L35.5855 5.38384L41.9896 3.45427L48.84 8.84638Z" fill="white"/>
</svg>