<svg xmlns="http://www.w3.org/2000/svg" width="43" height="23" viewBox="0 0 43 23" fill="none">
  <path d="M42.4035 8.93668L38.9273 7.32592L40.8157 6.74407L40.7067 6.38305L38.5483 7.04947L38.5824 7.16143L35.7816 5.86033L38.7348 5.03483L38.6359 4.67522L35.412 5.57828L35.4458 5.70404L32.8629 4.50456L36.2254 3.42406L36.113 3.06255L32.3657 4.26152L29.4776 2.92044L34.0418 1.40652L33.921 1.04383L28.9763 2.68202L27.5121 2.00173L33.7832 -1.5005L26.8067 -3.84407L28.2306 -4.66952L33.4499 -3.62311L33.5223 -3.98962L28.7196 -4.95302L31.5767 -6.6078L35.3839 -5.88004L35.4549 -6.24849L32.0702 -6.89929L34.4534 -8.28054L37.7006 -7.78914L37.7527 -8.15851L34.9672 -8.58126L37.6593 -10.1401L37.6485 -10.0638L39.8732 -9.665L39.9388 -10.0325L38.058 -10.3689L41.2844 -12.2152L41.0979 -12.5388L37.7759 -10.6127L38.3865 -12.5001L38.033 -12.6156L37.3275 -10.4583L37.4376 -10.422L34.7602 -8.86972L35.7958 -11.7685L35.4454 -11.894L34.3101 -8.72763L34.4311 -8.6829L31.9673 -7.25427L33.0298 -10.6366L32.6758 -10.7488L31.4915 -6.97929L28.7318 -5.37989L30.1357 -9.99806L29.7812 -10.1069L28.2596 -5.10611L26.5602 -4.12083L26.6863 -11.5428L21.02 -6.51217L20.8214 -8.06619L23.7991 -12.5001L23.4857 -12.7172L20.7452 -8.63515L20.328 -11.9171L22.4677 -15.1681L22.1529 -15.375L20.2517 -12.4861L19.9205 -15.2202L21.6247 -18.0418L21.3079 -18.2352L19.8446 -15.815L19.4506 -18.9088L19.5152 -18.8668L20.7401 -20.7677L20.4245 -20.9695L19.3897 -19.3546L18.9166 -23.0696L18.5469 -23.0216L19.0396 -19.2019L17.5452 -20.4965L17.3021 -20.2128L19.0126 -18.7304L19.0869 -18.8184L19.4799 -15.7421L17.2146 -17.8144L16.9641 -17.5387L19.4396 -15.2743L19.5272 -15.3708L19.8875 -12.5375L17.1907 -14.8194L16.9511 -14.5352L19.9581 -11.9901L20.3622 -8.8223L16.6679 -11.8965L16.4311 -11.6085L20.4333 -8.27825L20.6345 -6.69448L14.4749 -10.4003L15.9238 -3.2052L14.4355 -3.90964L12.3225 -8.81364L11.9815 -8.66478L13.9244 -4.15118L10.9447 -5.56223L9.37054 -9.11818L9.03103 -8.96738L10.4284 -5.80449L7.94207 -6.98168L6.4967 -9.95088L6.16368 -9.78535L7.40487 -7.24592L4.59607 -8.5758L4.66757 -8.60718L3.72583 -10.6723L3.38894 -10.5159L4.17476 -8.77182L0.803436 -10.3695L0.645463 -10.0306L4.112 -8.38839L2.21877 -7.82105L2.32442 -7.4605L4.49096 -8.11194L4.45861 -8.22365L7.24955 -6.90149L4.29077 -6.09751L4.38629 -5.73838L7.62181 -6.61388L7.58819 -6.74132L10.1581 -5.52295L6.79779 -4.4698L6.90677 -4.10877L10.6648 -5.2855L13.5427 -3.92166L8.96621 -2.4423L9.08702 -2.07961L14.0438 -3.68153L15.8416 -2.82971L9.33527 0.803483L16.1424 3.09203L15.1256 3.70192L9.89166 2.73466L9.82434 3.1019L14.6286 3.98083L11.808 5.68224L7.989 5.0133L7.92333 5.38077L11.3176 5.97589L8.95685 7.39315L5.70249 6.95257L5.65033 7.32195L8.44209 7.70066L5.77482 9.30275L5.78583 9.2248L3.55444 8.86128L3.50228 9.23066L5.38722 9.53834L2.19126 11.4615L2.38331 11.7824L5.67631 9.80556L5.07442 11.7045L5.42865 11.815L6.10137 9.6461L5.99074 9.6132L8.64306 8.01937L7.6533 10.935L8.00444 11.0554L9.08738 7.86956L8.96424 7.82797L11.4076 6.36188L10.398 9.75863L10.7545 9.86598L11.8812 6.07795L14.6161 4.4353L13.2815 9.06153L13.6401 9.16574L15.0841 4.14193L16.5391 3.26729L16.4104 10.8531L21.9767 5.91027L22.2059 7.25952L19.4155 11.8288L19.732 12.0238L22.2989 7.83086L22.8549 11.0927L20.8531 14.4391L21.1701 14.6308L22.948 11.664L23.4117 14.3857L21.8257 17.2725L22.1446 17.4505L23.5062 14.9711L24.0286 18.045L23.9618 18.0062L22.8249 19.9661L23.1424 20.1543L24.1092 18.497L24.7386 22.1892L25.1038 22.125L24.4731 18.3203L26.0197 19.5497L26.2502 19.2574L24.4796 17.8477L24.4065 17.9393L23.8805 14.8788L26.2303 16.8524L26.4685 16.5663L23.9005 14.4081L23.8175 14.5087L23.3448 11.6924L26.1351 13.8596L26.3628 13.5634L23.2479 11.1603L22.7111 8.00657L26.5378 10.9232L26.7647 10.62L22.6209 7.46329L22.3624 5.94401L28.6392 9.72167L27.138 2.25133L28.5829 2.92197L30.7345 7.80896L31.0741 7.65818L29.0878 3.17129L32.0773 4.56125L33.677 8.10699L34.0153 7.95257L32.5941 4.80014L35.0884 5.9577L36.5639 8.9087L36.8971 8.74146L35.6374 6.21151L38.4543 7.52008L38.3843 7.55339L39.3412 9.60853L39.6783 9.45049L38.8694 7.71177L42.2597 9.28448L42.4035 8.93668ZM15.9749 -2.94567L15.98 -2.92076L15.9576 -2.90837L15.9749 -2.94567ZM22.0287 4.87207L17.1824 9.17519L17.2925 2.68243L11.1653 0.622964L16.8185 -2.53621L15.5375 -8.8988L21.0787 -5.56375L25.9247 -9.86516L25.8148 -3.37411L31.9421 -1.31463L26.2838 1.84382L27.5648 8.20641L22.0287 4.87207Z" fill="white"/>
</svg>