<svg width="435" height="41" viewBox="0 0 435 41" fill="none" xmlns="http://www.w3.org/2000/svg">
<path d="M233.42 0.398438H231.929V39.9997H233.42V0.398438Z" fill="#FE334A"/>
<path d="M62.7409 0.462411C63.6962 0.294431 65.3236 0.294431 66.2789 0.462411L58.7933 13.9113C57.838 14.0793 56.2107 14.0793 55.2553 13.9113L57.9639 9.07138L53.166 0.462411C54.1214 0.294431 55.7487 0.294431 56.7041 0.462411L59.7277 6.17372L62.7409 0.462411Z" fill="#0C143B"/>
<path d="M79.3285 0.461434C80.2838 0.293454 81.6907 0.293454 82.6356 0.461434V13.8998C81.6802 14.0678 80.2733 14.0678 79.3285 13.8998V8.49297H73.7641V13.9103C72.8088 14.0783 71.4019 14.0783 70.457 13.9103V0.461434C71.4124 0.293454 72.8192 0.293454 73.7641 0.461434V5.7318H79.3285V0.461434Z" fill="#0C143B"/>
<path d="M99.6966 13.9103C98.7412 14.0783 97.3344 14.0783 96.3895 13.9103V6.02576L90.1218 13.9103C89.1664 14.0783 88.4839 14.0783 87.5391 13.9103V0.461434C88.4944 0.293454 89.9013 0.293454 90.8462 0.461434V8.34599L97.1139 0.461434C98.0693 0.293454 98.7517 0.293454 99.6966 0.461434V13.9103Z" fill="#0C143B"/>
<path d="M110.384 0.461426C112.988 0.461426 114.773 1.93125 114.773 3.9785C114.773 5.40633 113.985 6.41421 112.936 6.96014C114.195 7.51658 115.046 8.61895 115.046 10.0993C115.046 12.5035 113.209 13.9103 110.437 13.9103H104.6V0.461426H110.384ZM107.907 5.98376H110.017C110.867 5.98376 111.466 5.51132 111.466 4.59793C111.466 3.68454 110.93 3.21209 110.017 3.21209H107.907V5.98376ZM107.907 11.1596H110.227C111.14 11.1596 111.676 10.6872 111.676 9.71081C111.676 8.77643 111.098 8.30398 110.101 8.30398H107.907V11.1596Z" fill="#0C143B"/>
<path d="M128.652 11.1596C128.82 12.115 128.82 12.9549 128.652 13.9103H119.287V0.461426H128.652C128.82 1.41681 128.82 2.25671 128.652 3.21209H122.594V5.73179H127.949C128.117 6.68718 128.117 7.52708 127.949 8.48246H122.594V11.1491H128.652V11.1596Z" fill="#0C143B"/>
<path d="M138.289 0.461426C141.292 0.461426 143.36 2.25671 143.36 4.96538C143.36 7.67406 141.292 9.46934 138.289 9.46934H136.326V13.8998C135.37 14.0678 133.963 14.0678 133.019 13.8998V0.461426H138.289ZM138.289 6.72917C139.202 6.72917 139.99 6.19374 139.99 4.97588C139.99 3.75803 139.202 3.22259 138.289 3.22259H136.326V6.73967H138.289V6.72917Z" fill="#0C143B"/>
<path d="M158.961 10.1833C159.192 10.4982 159.129 12.745 158.961 13.1859C158.153 13.6794 156.788 14.2148 154.867 14.2148C150.174 14.2148 147.276 11.0547 147.276 7.18064C147.276 3.3066 150.174 0.146484 154.867 0.146484C156.788 0.146484 158.153 0.68192 158.961 1.17536C159.129 1.60581 159.192 3.86304 158.961 4.178C157.513 3.28561 156.253 2.89715 155.056 2.89715C152.641 2.89715 150.646 4.51396 150.646 7.18064C150.646 9.84732 152.631 11.4641 155.056 11.4641C156.253 11.4641 157.513 11.0757 158.961 10.1833Z" fill="#0C143B"/>
<path d="M176.106 13.9103C175.15 14.0783 173.744 14.0783 172.799 13.9103V6.02576L166.531 13.9103C165.576 14.0783 164.893 14.0783 163.948 13.9103V0.461434C164.904 0.293454 166.31 0.293454 167.255 0.461434V8.34599L173.523 0.461434C174.478 0.293454 175.161 0.293454 176.106 0.461434V13.9103Z" fill="#0C143B"/>
<path d="M190.93 0.461426C191.098 1.41681 191.098 2.25671 190.93 3.21209H187.287V13.8998C186.332 14.0678 184.925 14.0678 183.98 13.8998V3.21209H180.337C180.169 2.25671 180.169 1.41681 180.337 0.461426H190.93Z" fill="#0C143B"/>
<path d="M204.599 11.1596C204.767 12.115 204.767 12.9549 204.599 13.9103H195.234V0.461426H204.599C204.767 1.41681 204.767 2.25671 204.599 3.21209H198.541V5.73179H203.896C204.064 6.68718 204.064 7.52708 203.896 8.48246H198.541V11.1491H204.599V11.1596Z" fill="#0C143B"/>
<path d="M218.888 0.461426C219.056 1.41681 219.056 2.25671 218.888 3.21209H215.245V13.8998C214.29 14.0678 212.883 14.0678 211.938 13.8998V3.21209H208.295C208.127 2.25671 208.127 1.41681 208.295 0.461426H218.888Z" fill="#0C143B"/>
<path d="M70.8039 34.0574C71.1609 34.5404 71.0664 38.0784 70.8039 38.7609C69.5441 39.5378 67.4024 40.3777 64.3892 40.3777C57.0296 40.3777 52.4941 35.4223 52.4941 29.354C52.4941 23.2962 57.0296 18.3408 64.3892 18.3408C67.4024 18.3408 69.5441 19.1807 70.8039 19.9576C71.0664 20.64 71.1609 24.1676 70.8039 24.6611C68.5362 23.2647 66.5625 22.6558 64.6832 22.6558C60.8931 22.6558 57.775 25.186 57.775 29.3645C57.775 33.543 60.8826 36.0732 64.6832 36.0732C66.552 36.0627 68.5362 35.4538 70.8039 34.0574Z" fill="#0C143B"/>
<path d="M94.4263 39.8953C92.9355 40.1577 90.7307 40.1577 89.2399 39.8953V27.5487L79.4236 39.8953C77.9328 40.1577 76.8619 40.1577 75.3711 39.8953V18.8243C76.8619 18.5618 79.0667 18.5618 80.5575 18.8243V31.1708L90.3738 18.8243C91.8646 18.5618 92.9355 18.5618 94.4263 18.8243V39.8953Z" fill="#0C143B"/>
<path d="M112.768 18.8243C114.258 18.5618 116.463 18.5618 117.954 18.8243V39.8953C116.463 40.1577 114.258 40.1577 112.768 39.8953V31.4018H104.054V39.8953C102.563 40.1577 100.358 40.1577 98.8672 39.8953V18.8243C100.358 18.5618 102.563 18.5618 104.054 18.8243V27.0868H112.768V18.8243Z" fill="#0C143B"/>
<path d="M137.166 35.5802C137.429 37.071 137.429 38.4044 137.166 39.8952H122.489V18.8242H137.166C137.429 20.315 137.429 21.6484 137.166 23.1392H127.676V27.0972H136.075C136.337 28.588 136.337 29.9214 136.075 31.4122H127.676V35.5907H137.166V35.5802Z" fill="#0C143B"/>
<path d="M149.03 18.8242C153.734 18.8242 156.967 21.6484 156.967 25.8899C156.967 30.1314 153.723 32.9555 149.03 32.9555H145.954V39.8952C144.463 40.1577 142.258 40.1577 140.768 39.8952V18.8242H149.03ZM149.03 28.651C150.458 28.651 151.686 27.8111 151.686 25.9004C151.686 23.9896 150.458 23.1497 149.03 23.1497H145.954V28.6615H149.03V28.651Z" fill="#0C143B"/>
<path d="M174.563 18.8242C174.826 20.315 174.826 21.6484 174.563 23.1392H165.881V39.8952C164.39 40.1577 162.185 40.1577 160.694 39.8952V18.8242H174.563Z" fill="#0C143B"/>
<path d="M197.019 39.8953C195.528 40.1577 193.324 40.1577 191.833 39.8953V27.5487L182.016 39.8953C180.526 40.1577 179.455 40.1577 177.964 39.8953V18.8243C179.455 18.5618 181.659 18.5618 183.15 18.8243V31.1708L192.967 18.8243C194.457 18.5618 195.528 18.5618 197.019 18.8243V39.8953Z" fill="#0C143B"/>
<path d="M217.702 39.8952C216.212 40.1577 214.007 40.1577 212.516 39.8952V32.7665H210.511L205.87 39.8952C204.379 40.1577 201.723 40.1577 200.232 39.8952L205.356 31.9896C202.857 30.8873 201.335 28.651 201.335 25.7954C201.335 21.6484 204.474 18.8242 209.177 18.8242H217.702V39.8952ZM209.272 23.1392C207.844 23.1392 206.616 23.9791 206.616 25.7954C206.616 27.6117 207.844 28.4516 209.272 28.4516H212.516V23.1392H209.272Z" fill="#0C143B"/>
<path d="M253.776 6.6779C257.744 6.6779 259.939 9.05062 259.939 11.9168C259.939 14.7514 257.744 17.1556 253.776 17.1556H247.561V0.38916H258.343C258.5 1.13457 258.5 1.85898 258.343 2.60439H250.196V6.6779H253.776ZM253.807 14.9299C256.107 14.9299 257.293 13.5651 257.293 11.9168C257.293 10.237 256.107 8.87214 253.807 8.87214H250.217V14.9299H253.807Z" fill="#0C143B"/>
<path d="M280.411 8.76645C280.411 13.5854 276.821 17.5329 271.592 17.5329C266.354 17.5329 262.773 13.5854 262.773 8.76645C262.773 3.94753 266.364 0 271.592 0C276.831 0 280.411 3.94753 280.411 8.76645ZM265.451 8.76645C265.451 12.6405 268.107 15.3177 271.592 15.3177C275.078 15.3177 277.734 12.6405 277.734 8.76645C277.734 4.90291 275.078 2.21523 271.592 2.21523C268.107 2.21523 265.451 4.90291 265.451 8.76645Z" fill="#0C143B"/>
<path d="M297.765 17.1552C297.02 17.3126 295.855 17.3126 295.13 17.1552V2.60391H288.936L287.928 12.4517C287.592 15.8008 286.227 17.5331 283.519 17.5331C283.025 17.5331 282.595 17.4806 282.175 17.3546C282.017 16.6092 282.017 15.8533 282.175 15.1079C282.406 15.1604 282.616 15.1814 282.815 15.1814C284.18 15.1814 285.062 14.436 285.293 12.2103L286.532 0.367676H297.755V17.1552H297.765Z" fill="#0C143B"/>
<path d="M308.107 6.24691C312.076 6.24691 314.322 8.64063 314.322 11.7168C314.322 14.7614 312.076 17.1551 308.107 17.1551H301.944V0.388619C302.69 0.231138 303.855 0.231138 304.579 0.388619V6.24691H308.107ZM308.128 14.9294C310.427 14.9294 311.666 13.5645 311.666 11.7063C311.666 9.82698 310.427 8.45165 308.128 8.45165H304.59V14.9294H308.128Z" fill="#0C143B"/>
<path d="M336.422 0.388619C337.167 0.231138 338.333 0.231138 339.078 0.388619V17.1551H317.934V0.388619C318.679 0.231138 319.844 0.231138 320.569 0.388619V14.9399H327.193V0.388619C327.918 0.231138 329.073 0.231138 329.829 0.388619V14.9399H336.432V0.388619H336.422Z" fill="#0C143B"/>
<path d="M354.699 14.9294C354.878 15.6748 354.878 16.3992 354.699 17.1447H343.298V0.388672H354.699C354.878 1.13408 354.878 1.8585 354.699 2.60391H345.933V7.50682H353.902C354.059 8.25223 354.059 8.97664 353.902 9.72205H345.933V14.9294H354.699Z" fill="#0C143B"/>
<path d="M373.735 0.388619C374.48 0.231138 375.645 0.231138 376.391 0.388619V17.1551C375.645 17.3126 374.48 17.3126 373.735 17.1551V9.56452C372.937 10.3939 371.026 11.4753 368.758 11.4753C365.273 11.4753 363.425 9.17606 363.425 5.98445V0.388619C364.17 0.231138 365.336 0.231138 366.06 0.388619V5.62749C366.06 7.71674 367.015 9.26005 369.619 9.26005C371.635 9.26005 373.178 8.12619 373.745 7.47527V0.388619H373.735Z" fill="#0C143B"/>
<path d="M392.012 14.9294C392.19 15.6748 392.19 16.3992 392.012 17.1447H380.61V0.388672H392.012C392.19 1.13408 392.19 1.8585 392.012 2.60391H383.246V7.50682H391.214C391.372 8.25223 391.372 8.97664 391.214 9.72205H383.246V14.9294H392.012Z" fill="#0C143B"/>
<path d="M415.53 17.1551C414.784 17.3126 413.703 17.3126 412.947 17.1551L410.238 5.06056L405.902 17.1551C405.157 17.3126 404.485 17.3126 403.74 17.1551L399.404 5.06056L396.695 17.1551C395.95 17.3126 394.868 17.3126 394.112 17.1551L398.028 0.388619C398.774 0.231138 399.519 0.231138 400.275 0.388619L404.81 13.0291L409.346 0.388619C410.091 0.231138 410.868 0.231138 411.593 0.388619L415.53 17.1551Z" fill="#0C143B"/>
<path d="M264.558 31.6434C264.558 36.4623 260.967 40.4098 255.739 40.4098C250.5 40.4098 246.92 36.4623 246.92 31.6434C246.92 26.8245 250.51 22.877 255.739 22.877C260.967 22.877 264.558 26.8245 264.558 31.6434ZM249.597 31.6434C249.597 35.5174 252.253 38.1946 255.739 38.1946C259.224 38.1946 261.881 35.5174 261.881 31.6434C261.881 27.7799 259.224 25.0922 255.739 25.0922C252.253 25.0922 249.597 27.7799 249.597 31.6434Z" fill="#0C143B"/>
<path d="M274.373 29.5534C278.342 29.5534 280.536 31.9261 280.536 34.7923C280.536 37.6269 278.342 40.0311 274.373 40.0311H268.158V23.2646H278.94C279.098 24.0101 279.098 24.7345 278.94 25.4799H270.793V29.5534H274.373ZM274.405 37.8054C276.704 37.8054 277.891 36.4406 277.891 34.7923C277.891 33.1125 276.704 31.7476 274.405 31.7476H270.814V37.8054H274.405Z" fill="#0C143B"/>
<path d="M290.186 23.2646C294.154 23.2646 296.401 25.6689 296.401 28.7555C296.401 31.8211 294.154 34.2253 290.186 34.2253H286.648V40.0311C285.923 40.1886 284.769 40.1886 284.013 40.0311V23.2646H290.186ZM290.207 32.0311C292.506 32.0311 293.745 30.6348 293.745 28.7555C293.745 26.8447 292.506 25.4799 290.207 25.4799H286.669V32.0311H290.207Z" fill="#0C143B"/>
<path d="M313.346 40.0208C312.6 40.1783 311.361 40.1783 310.616 40.0208L308.915 35.8213H301.618L299.939 40.0208C299.193 40.1783 297.954 40.1783 297.209 40.0208L304.17 23.2543C304.894 23.0969 305.639 23.0969 306.385 23.2543L313.346 40.0208ZM308.075 33.6061L305.262 26.6454L302.448 33.6061H308.075Z" fill="#0C143B"/>
<path d="M327.834 35.5592C327.834 38.5828 325.282 40.4306 321.639 40.4306C319.34 40.4306 317.408 39.7587 316.201 38.9608C316.044 38.6038 315.991 36.7665 316.201 36.4831C317.849 37.6484 319.655 38.2154 321.513 38.2154C323.477 38.2154 325.146 37.1865 325.146 35.2442C325.146 33.7534 324.191 32.5355 322.028 32.5355H319.246C319.067 31.8111 319.067 31.1707 319.246 30.4463H321.975C323.624 30.4463 324.705 29.3334 324.705 27.7901C324.705 26.2468 323.571 25.0814 321.555 25.0814C319.907 25.0814 318.101 25.6484 316.453 26.7822C316.243 26.5198 316.296 24.693 316.453 24.336C317.66 23.5066 319.55 22.8662 321.692 22.8662C325.282 22.8662 327.34 24.8505 327.34 27.3807C327.34 29.1865 326.364 30.6773 324.81 31.3492C326.805 32.0316 327.834 33.6589 327.834 35.5592Z" fill="#0C143B"/>
<path d="M348.001 31.6434C348.001 36.4623 344.411 40.4098 339.182 40.4098C333.943 40.4098 330.363 36.4623 330.363 31.6434C330.363 26.8245 333.954 22.877 339.182 22.877C344.411 22.877 348.001 26.8245 348.001 31.6434ZM333.04 31.6434C333.04 35.5174 335.697 38.1946 339.182 38.1946C342.668 38.1946 345.324 35.5174 345.324 31.6434C345.324 27.7799 342.668 25.0922 339.182 25.0922C335.697 25.0922 333.04 27.7799 333.04 31.6434Z" fill="#0C143B"/>
<path d="M358.385 23.2646C361.482 23.2646 363.676 25.0179 363.676 27.5691C363.676 29.3749 362.7 30.6873 361.199 31.3382C363.109 31.9891 364.17 33.4484 364.17 35.3592C364.17 38.1729 362.007 40.0311 358.448 40.0311H351.613V23.2646H358.385ZM354.259 30.5298H358.311C359.991 30.5298 361.073 29.5744 361.073 27.9996C361.073 26.4038 359.865 25.4694 358.154 25.4694H354.259V30.5298ZM354.259 37.8054H358.311C360.38 37.8054 361.514 36.745 361.514 35.0757C361.514 33.5009 360.506 32.4195 358.364 32.4195H354.259V37.8054Z" fill="#0C143B"/>
<path d="M382.269 40.0208C381.524 40.1783 380.285 40.1783 379.54 40.0208L377.839 35.8213H370.542L368.862 40.0208C368.117 40.1783 366.878 40.1783 366.133 40.0208L373.093 23.2543C373.818 23.0969 374.563 23.0969 375.309 23.2543L382.269 40.0208ZM376.999 33.6061L374.185 26.6454L371.372 33.6061H376.999Z" fill="#0C143B"/>
<path d="M397.114 23.2651C397.838 23.1076 398.993 23.1076 399.739 23.2651V40.0316C398.993 40.1891 397.828 40.1891 397.114 40.0316V32.5985H387.907V40.0316C387.182 40.1891 386.027 40.1891 385.271 40.0316V23.2651C386.017 23.1076 387.182 23.1076 387.907 23.2651V30.3832H397.114V23.2651Z" fill="#0C143B"/>
<path d="M418.364 40.0211C417.64 40.1785 416.485 40.1785 415.729 40.0211V27.6746L406.028 40.0316C405.283 40.1891 404.663 40.1891 403.918 40.0316V23.2651C404.663 23.1076 405.829 23.1076 406.553 23.2651V35.6221L416.275 23.2651C416.999 23.1076 417.64 23.1076 418.364 23.2651V40.0211Z" fill="#0C143B"/>
<path d="M433.892 37.8054C434.07 38.5508 434.07 39.2752 433.892 40.0206H422.49V23.2646H433.892C434.07 24.0101 434.07 24.7345 433.892 25.4799H425.125V30.3828H433.094C433.251 31.1282 433.251 31.8526 433.094 32.598H425.125V37.8054H433.892Z" fill="#0C143B"/>
<path d="M0 0.37793V40.0317H39.6537V0.37793H0ZM34.6983 35.0763H4.9554V5.33333H34.6983V35.0763ZM24.63 33.3755L11.4646 20.1995L24.63 7.03413V14.0473L18.4673 20.21L24.63 26.3728V33.3755Z" fill="#FE334A"/>
</svg>
