<svg width="37" height="36" viewBox="0 0 37 36" fill="none" xmlns="http://www.w3.org/2000/svg">
<g clip-path="url(#clip0_2015_1794)">
<circle cx="18.4678" cy="17.8679" r="17.8679" fill="#AEC200"/>
<g clip-path="url(#clip1_2015_1794)">
<path d="M17.885 6.40422C18.3555 5.60172 19.5156 5.60172 19.9861 6.40422L23.2101 11.9034C23.3818 12.1962 23.668 12.4041 23.9995 12.4769L30.2258 13.8438C31.1345 14.0433 31.493 15.1467 30.8751 15.8421L26.6414 20.6077C26.4159 20.8615 26.3066 21.1978 26.3398 21.5357L26.9639 27.8796C27.055 28.8054 26.1164 29.4873 25.2641 29.1146L19.4234 26.5607C19.1124 26.4247 18.7587 26.4247 18.4477 26.5607L12.607 29.1146C11.7547 29.4873 10.8161 28.8054 10.9072 27.8796L11.5313 21.5357C11.5645 21.1978 11.4552 20.8615 11.2297 20.6077L6.99598 15.8421C6.37814 15.1467 6.73664 14.0433 7.64525 13.8438L13.8715 12.4769C14.2031 12.4041 14.4893 12.1962 14.661 11.9034L17.885 6.40422Z" fill="#ECEDF0"/>
<path d="M18.4814 13.1819C18.6913 12.8464 19.1799 12.8464 19.3899 13.1819L20.8928 15.5834C20.9663 15.7009 21.0825 15.7853 21.217 15.819L23.9654 16.5062C24.3493 16.6022 24.5003 17.0669 24.2461 17.3702L22.4266 19.5416C22.3375 19.6479 22.2931 19.7845 22.3027 19.9228L22.4984 22.7491C22.5258 23.1438 22.1305 23.431 21.7635 23.283L19.136 22.2235C19.0075 22.1717 18.8638 22.1717 18.7352 22.2235L16.1078 23.283C15.7408 23.431 15.3455 23.1438 15.3728 22.7491L15.5685 19.9228C15.5781 19.7845 15.5337 19.6479 15.4447 19.5416L13.6251 17.3702C13.371 17.0669 13.522 16.6022 13.9058 16.5062L16.6543 15.819C16.7888 15.7853 16.905 15.7009 16.9785 15.5834L18.4814 13.1819Z" fill="#AEC200"/>
</g>
</g>
<defs>
<clipPath id="clip0_2015_1794">
<rect x="0.599854" width="35.9743" height="35.9743" rx="17.9872" fill="white"/>
</clipPath>
<clipPath id="clip1_2015_1794">
<rect width="26.5898" height="26.5898" fill="white" transform="translate(6.15717 4.64062)"/>
</clipPath>
</defs>
</svg>
