<svg width="37" height="36" viewBox="0 0 37 36" fill="none" xmlns="http://www.w3.org/2000/svg">
<path d="M17.2439 0.263303L4.62442 6.34173C3.89527 6.6928 3.36348 7.35757 3.18277 8.14484L0.0667652 21.8014C-0.11396 22.5887 0.0771517 23.4175 0.581943 24.0511L9.3151 35.0008C9.81989 35.6344 10.5864 36 11.3945 36H25.402C26.2101 36 26.9766 35.6323 27.4815 35.0008L36.2146 24.0511C36.7194 23.4175 36.9064 22.5887 36.7298 21.8014L33.6138 8.14484C33.4331 7.35752 32.9075 6.69277 32.1721 6.34173L19.5526 0.263303C18.8235 -0.0877676 17.973 -0.0877676 17.2439 0.263303Z" fill="#ED131C"/>
<path d="M26.7039 25.4229C26.7039 26.001 26.5014 26.4921 26.0955 26.8955C25.6897 27.2986 25.1957 27.5 24.614 27.5H13.3689C12.7908 27.5 12.2996 27.2987 11.8963 26.8955C11.493 26.4921 11.2918 26.001 11.2918 25.4229V16.3037H26.7039V25.4229ZM17.9959 19.9756L15.6707 20.2822L17.3719 21.8965L16.9451 24.2021L19.0056 23.084L21.0662 24.2021L20.6394 21.8965L22.3406 20.2822L20.0154 19.9756L19.0056 17.8594L17.9959 19.9756ZM15.6521 10.5C15.878 10.5002 16.0613 10.6833 16.0613 10.9092V11.4141C16.0614 11.6399 16.2446 11.8232 16.4705 11.8232H21.5125C21.7384 11.8232 21.9215 11.6399 21.9217 11.4141V10.9092C21.9217 10.6832 22.1049 10.5001 22.3308 10.5H23.2791C23.5049 10.5002 23.6883 10.6833 23.6883 10.9092V11.4141C23.6884 11.6399 23.8715 11.8232 24.0974 11.8232H24.614C25.1958 11.8233 25.6897 12.0259 26.0955 12.4316C26.5013 12.8375 26.7039 13.3314 26.7039 13.9131V14.4746H11.2918V13.9131C11.2918 13.3315 11.4931 12.8375 11.8963 12.4316C12.2996 12.0258 12.7908 11.8232 13.3689 11.8232H13.8855C14.1114 11.8232 14.2946 11.6399 14.2947 11.4141V10.9092C14.2947 10.6832 14.478 10.5001 14.7039 10.5H15.6521Z" fill="white"/>
</svg>
