<svg width="37" height="36" viewBox="0 0 37 36" fill="none" xmlns="http://www.w3.org/2000/svg">
<path d="M17.2439 0.263303L4.62439 6.34173C3.89524 6.6928 3.36345 7.35757 3.18274 8.14484L0.0667385 21.8014C-0.113987 22.5887 0.077125 23.4175 0.581916 24.0511L9.31507 35.0008C9.81986 35.6344 10.5864 36 11.3945 36H25.402C26.2101 36 26.9766 35.6323 27.4814 35.0008L36.2146 24.0511C36.7194 23.4175 36.9063 22.5887 36.7298 21.8014L33.6138 8.14484C33.433 7.35752 32.9075 6.69277 32.1721 6.34173L19.5526 0.263303C18.8235 -0.0877676 17.973 -0.0877676 17.2439 0.263303Z" fill="#ED131C"/>
<path d="M28.0517 20.1626C28.0746 19.9873 28.2928 19.9271 28.4029 20.0657L31.4428 23.9031C31.571 24.0654 31.4065 24.2933 31.2166 24.2165L30.1948 23.8013C30.074 23.7523 29.9415 23.8311 29.9257 23.9616L29.7932 25.0713C29.7719 25.2489 29.5501 25.3101 29.4402 25.1688L28.7541 24.2858C28.6733 24.1817 28.5181 24.1817 28.4397 24.2859L27.7786 25.166C27.6554 25.3299 27.3958 25.2189 27.4223 25.0137L28.0517 20.1626Z" fill="white"/>
<path d="M18.2376 23.2501C18.7156 23.5831 19.3193 23.6804 19.8778 23.5143L20.8298 23.2313L26.0954 21.6015L25.9663 22.4387C25.4309 25.9041 21.9974 28.2567 18.2975 27.6932C14.5975 27.1295 12.0319 23.8631 12.5673 20.3977L12.7196 19.4067L18.2376 23.2501Z" fill="white"/>
<path d="M20.8037 10.5434C20.9427 10.5007 21.094 10.5243 21.2142 10.6077L31.2047 17.5444C31.3689 17.6587 31.3307 17.9129 31.1406 17.9715L26.4355 19.4168L26.4348 19.4209L20.2418 21.3301C19.6786 21.5038 19.0668 21.4084 18.5832 21.0715L13.0588 17.2237L13.0601 17.2184L9.1777 14.5226C9.01339 14.4083 9.05149 14.1537 9.24169 14.0951L20.8037 10.5434Z" fill="white"/>
</svg>
