<svg width="37" height="36" viewBox="0 0 37 36" fill="none" xmlns="http://www.w3.org/2000/svg">
<path d="M17.2439 0.263303L4.62439 6.34173C3.89524 6.6928 3.36345 7.35757 3.18274 8.14484L0.0667385 21.8014C-0.113987 22.5887 0.077125 23.4175 0.581916 24.0511L9.31507 35.0008C9.81986 35.6344 10.5864 36 11.3945 36H25.402C26.2101 36 26.9766 35.6323 27.4814 35.0008L36.2146 24.0511C36.7194 23.4175 36.9063 22.5887 36.7298 21.8014L33.6138 8.14484C33.433 7.35752 32.9075 6.69277 32.1721 6.34173L19.5526 0.263303C18.8235 -0.0877676 17.973 -0.0877676 17.2439 0.263303Z" fill="#ED131C"/>
<path d="M14.374 9.5V21.7539C14.3741 22.2466 14.9027 22.3841 15.1123 21.9307L16.1748 19.6309C16.3446 19.2635 16.9112 19.2635 17.0811 19.6309L18.1445 21.9307C18.3542 22.384 18.8642 22.2465 18.8643 21.7539V9.5H25.3057C26.6649 9.5 27.7675 10.5126 27.7676 11.7617V26.2383C27.7675 27.4874 26.6649 28.5 25.3057 28.5H12.6904C11.3312 28.5 10.2286 27.4874 10.2285 26.2383V11.7617C10.2286 10.5126 11.3312 9.5 12.6904 9.5H14.374Z" fill="white"/>
</svg>
