<svg width="37" height="36" viewBox="0 0 37 36" fill="none" xmlns="http://www.w3.org/2000/svg">
<path d="M17.2439 0.263303L4.62439 6.34173C3.89524 6.6928 3.36345 7.35757 3.18274 8.14484L0.0667385 21.8014C-0.113987 22.5887 0.077125 23.4175 0.581916 24.0511L9.31507 35.0008C9.81986 35.6344 10.5864 36 11.3945 36H25.402C26.2101 36 26.9766 35.6323 27.4814 35.0008L36.2146 24.0511C36.7194 23.4175 36.9063 22.5887 36.7298 21.8014L33.6138 8.14484C33.433 7.35752 32.9075 6.69277 32.1721 6.34173L19.5526 0.263303C18.8235 -0.0877676 17.973 -0.0877676 17.2439 0.263303Z" fill="#ED131C"/>
<path d="M19.2404 20.1322C19.0901 20.2116 18.9098 20.2116 18.7596 20.1322L10.2758 15.6503C10.0349 15.523 10.035 15.1805 10.2761 15.0534L18.84 10.5395C18.94 10.4868 19.0599 10.4868 19.16 10.5395L27.7238 15.0534C27.9649 15.1805 27.9651 15.523 27.7241 15.6503L19.2404 20.1322Z" fill="white"/>
<path d="M27.7237 18.6032C27.9648 18.7303 27.965 19.0726 27.724 19.1999L19.2404 23.6819C19.0902 23.7613 18.9099 23.7612 18.7596 23.6819L10.2758 19.1999C10.0349 19.0726 10.0351 18.7303 10.2761 18.6032L11.9489 17.7214L18.7596 21.3193C18.9099 21.3987 19.0902 21.3987 19.2404 21.3193L26.0505 17.7214L27.7237 18.6032Z" fill="white"/>
<path d="M27.7237 22.3618C27.9648 22.4888 27.965 22.8312 27.724 22.9585L19.2404 27.4405C19.0902 27.5199 18.9099 27.5198 18.7596 27.4405L10.2758 22.9585C10.0349 22.8312 10.0351 22.4889 10.2761 22.3618L11.9492 21.4797L18.7596 25.0776C18.9099 25.1569 19.0902 25.157 19.2404 25.0776L26.0502 21.4797L27.7237 22.3618Z" fill="white"/>
</svg>
