<svg width="29" height="28" viewBox="0 0 29 28" fill="none" xmlns="http://www.w3.org/2000/svg">
<path fill-rule="evenodd" clip-rule="evenodd" d="M20.9899 4.65601H5.64309C3.82685 4.65601 2.35449 6.22301 2.35449 8.15601V19.8227C2.35449 21.7557 3.82685 23.3227 5.64309 23.3227H20.9899C22.8061 23.3227 24.2784 21.7557 24.2784 19.8227V8.15601C24.2784 6.22301 22.8061 4.65601 20.9899 4.65601ZM20.546 6.99346L14.1003 13.8535C13.8945 14.0743 13.6143 14.1986 13.322 14.1986C13.0297 14.1986 12.7496 14.0743 12.5437 13.8535L6.09808 6.99346H20.546ZM22.0903 19.8277C22.0903 20.472 21.5996 20.9944 20.9941 20.9944H5.64737C5.04195 20.9944 4.55117 20.472 4.55117 19.8277V8.63937L10.9968 15.4994C12.2808 16.8642 14.3607 16.8642 15.6447 15.4994L22.0903 8.63937V19.8277Z" fill="#FF0A47"/>
<path d="M5.64309 4.65601V5.15601V4.65601ZM2.35449 8.15601H1.85449H2.35449ZM2.35449 19.8227H1.85449H2.35449ZM20.546 6.99346L20.9104 7.33583L21.7019 6.49346H20.546V6.99346ZM14.1003 13.8535L13.7359 13.5111L13.7345 13.5126L14.1003 13.8535ZM12.5437 13.8535L12.9095 13.5126L12.9081 13.5111L12.5437 13.8535ZM6.09808 6.99346V6.49346H4.9422L5.7337 7.33583L6.09808 6.99346ZM4.55117 8.63937L4.91556 8.297L4.05117 7.37704V8.63937H4.55117ZM10.9968 15.4994L10.6324 15.8418L10.6326 15.842L10.9968 15.4994ZM15.6447 15.4994L16.0089 15.842L16.0091 15.8418L15.6447 15.4994ZM22.0903 8.63937H22.5903V7.37704L21.726 8.297L22.0903 8.63937ZM20.9899 4.15601H5.64309V5.15601H20.9899V4.15601ZM5.64309 4.15601C3.52181 4.15601 1.85449 5.97667 1.85449 8.15601H2.85449C2.85449 6.46935 4.13188 5.15601 5.64309 5.15601V4.15601ZM1.85449 8.15601V19.8227H2.85449V8.15601H1.85449ZM1.85449 19.8227C1.85449 22.002 3.52181 23.8227 5.64309 23.8227V22.8227C4.13188 22.8227 2.85449 21.5093 2.85449 19.8227H1.85449ZM5.64309 23.8227H20.9899V22.8227H5.64309V23.8227ZM20.9899 23.8227C23.1111 23.8227 24.7784 22.002 24.7784 19.8227H23.7784C23.7784 21.5093 22.5011 22.8227 20.9899 22.8227V23.8227ZM24.7784 19.8227V8.15601H23.7784V19.8227H24.7784ZM24.7784 8.15601C24.7784 5.97667 23.1111 4.15601 20.9899 4.15601V5.15601C22.5011 5.15601 23.7784 6.46935 23.7784 8.15601H24.7784ZM20.1816 6.65108L13.7359 13.5111L14.4647 14.1958L20.9104 7.33583L20.1816 6.65108ZM13.7345 13.5126C13.6198 13.6357 13.4705 13.6986 13.322 13.6986V14.6986C13.7581 14.6986 14.1692 14.5129 14.4661 14.1943L13.7345 13.5126ZM13.322 13.6986C13.1735 13.6986 13.0243 13.6357 12.9095 13.5126L12.1779 14.1943C12.4748 14.5129 12.8859 14.6986 13.322 14.6986V13.6986ZM12.9081 13.5111L6.46247 6.65108L5.7337 7.33583L12.1793 14.1958L12.9081 13.5111ZM6.09808 7.49346H20.546V6.49346H6.09808V7.49346ZM21.5903 19.8277C21.5903 20.2257 21.2945 20.4944 20.9941 20.4944V21.4944C21.9046 21.4944 22.5903 20.7184 22.5903 19.8277H21.5903ZM20.9941 20.4944H5.64737V21.4944H20.9941V20.4944ZM5.64737 20.4944C5.34699 20.4944 5.05117 20.2257 5.05117 19.8277H4.05117C4.05117 20.7184 4.73692 21.4944 5.64737 21.4944V20.4944ZM5.05117 19.8277V8.63937H4.05117V19.8277H5.05117ZM4.18678 8.98175L10.6324 15.8418L11.3612 15.157L4.91556 8.297L4.18678 8.98175ZM10.6326 15.842C12.114 17.4166 14.5275 17.4166 16.0089 15.842L15.2805 15.1568C14.194 16.3117 12.4475 16.3117 11.361 15.1568L10.6326 15.842ZM16.0091 15.8418L22.4547 8.98175L21.726 8.297L15.2803 15.157L16.0091 15.8418ZM21.5903 8.63937V19.8277H22.5903V8.63937H21.5903Z" fill="white"/>
</svg>
