<svg width="28" height="29" viewBox="0 0 28 29" fill="none" xmlns="http://www.w3.org/2000/svg">
<path fill-rule="evenodd" clip-rule="evenodd" d="M12.9939 2.48755C7.40971 2.48755 2.88281 7.01445 2.88281 12.5987C2.88281 19.4237 11.7932 27.1334 12.1724 27.462C12.6454 27.8666 13.3425 27.8666 13.8155 27.462C14.2578 27.1334 23.105 19.4237 23.105 12.5987C23.105 7.01445 18.5781 2.48755 12.9939 2.48755ZM12.9966 24.7967C10.3045 22.2689 5.41325 16.8216 5.41325 12.6002C5.41325 8.41202 8.80842 5.01685 12.9966 5.01685C17.1847 5.01685 20.5799 8.41202 20.5799 12.6002C20.5799 16.8216 15.6887 22.2816 12.9966 24.7967ZM12.9992 7.54842C10.2071 7.54842 7.94368 9.81187 7.94368 12.604C7.94368 15.3961 10.2071 17.6595 12.9992 17.6595C15.7913 17.6595 18.0548 15.3961 18.0548 12.604C18.0548 9.81187 15.7913 7.54842 12.9992 7.54842ZM12.9939 15.1264C11.5979 15.1264 10.4661 13.9947 10.4661 12.5987C10.4661 11.2026 11.5979 10.0709 12.9939 10.0709C14.39 10.0709 15.5217 11.2026 15.5217 12.5987C15.5217 13.9947 14.39 15.1264 12.9939 15.1264Z" fill="#FF0A47"/>
<path d="M2.88281 12.5987H2.38281H2.88281ZM12.1724 27.462L11.8449 27.8398L11.8474 27.842L12.1724 27.462ZM13.8155 27.462L13.5173 27.0606L13.5035 27.0709L13.4905 27.082L13.8155 27.462ZM12.9966 24.7967L12.6543 25.1612L12.9957 25.4818L13.3379 25.1621L12.9966 24.7967ZM12.9939 1.98755C7.13357 1.98755 2.38281 6.73831 2.38281 12.5987H3.38281C3.38281 7.29059 7.68585 2.98755 12.9939 2.98755V1.98755ZM2.38281 12.5987C2.38281 16.197 4.71354 19.9492 6.99618 22.7803C9.2989 25.6363 11.6474 27.6687 11.8449 27.8398L12.4999 27.0842C12.3182 26.9267 10.0219 24.9399 7.77466 22.1526C5.5073 19.3405 3.38281 15.8253 3.38281 12.5987H2.38281ZM11.8474 27.842C12.5075 28.4066 13.4804 28.4066 14.1405 27.842L13.4905 27.082C13.2046 27.3265 12.7833 27.3265 12.4974 27.082L11.8474 27.842ZM14.1136 27.8634C14.3741 27.6699 16.7265 25.6291 19.0159 22.7796C21.2913 19.9477 23.605 16.196 23.605 12.5987H22.605C22.605 15.8263 20.4951 19.342 18.2364 22.1533C17.118 23.5452 15.9846 24.7384 15.1032 25.604C14.6628 26.0365 14.2863 26.3863 14.0073 26.6371C13.8678 26.7626 13.7532 26.8628 13.6677 26.9359C13.625 26.9725 13.5901 27.0017 13.5635 27.0236C13.5501 27.0346 13.5394 27.0433 13.5311 27.0499C13.527 27.0531 13.5237 27.0557 13.5212 27.0576C13.52 27.0586 13.519 27.0593 13.5184 27.0598C13.5179 27.0602 13.518 27.0601 13.5176 27.0604C13.5172 27.0607 13.5175 27.0604 13.5173 27.0606L14.1136 27.8634ZM23.605 12.5987C23.605 6.73831 18.8543 1.98755 12.9939 1.98755V2.98755C18.302 2.98755 22.605 7.29059 22.605 12.5987H23.605ZM13.3388 24.4322C12.0091 23.1836 10.138 21.2151 8.60365 19.0449C7.05477 16.8542 5.91325 14.5464 5.91325 12.6002H4.91325C4.91325 14.8754 6.21735 17.4019 7.78712 19.6222C9.37142 21.863 11.292 23.882 12.6543 25.1612L13.3388 24.4322ZM5.91325 12.6002C5.91325 8.68816 9.08457 5.51685 12.9966 5.51685V4.51685C8.53228 4.51685 4.91325 8.13588 4.91325 12.6002H5.91325ZM12.9966 5.51685C16.9086 5.51685 20.0799 8.68816 20.0799 12.6002H21.0799C21.0799 8.13588 17.4609 4.51685 12.9966 4.51685V5.51685ZM20.0799 12.6002C20.0799 14.5465 18.9383 16.8575 17.3894 19.0498C15.8551 21.2215 13.9842 23.1898 12.6552 24.4314L13.3379 25.1621C14.7011 23.8885 16.6218 21.8692 18.2061 19.6268C19.776 17.4049 21.0799 14.8752 21.0799 12.6002H20.0799ZM12.9992 7.04842C9.93099 7.04842 7.44368 9.53573 7.44368 12.604H8.44368C8.44368 10.088 10.4833 8.04842 12.9992 8.04842V7.04842ZM7.44368 12.604C7.44368 15.6722 9.93099 18.1595 12.9992 18.1595V17.1595C10.4833 17.1595 8.44368 15.1199 8.44368 12.604H7.44368ZM12.9992 18.1595C16.0675 18.1595 18.5548 15.6722 18.5548 12.604H17.5548C17.5548 15.1199 15.5152 17.1595 12.9992 17.1595V18.1595ZM18.5548 12.604C18.5548 9.53573 16.0675 7.04842 12.9992 7.04842V8.04842C15.5152 8.04842 17.5548 10.088 17.5548 12.604H18.5548ZM12.9939 14.6264C11.874 14.6264 10.9661 13.7186 10.9661 12.5987H9.96615C9.96615 14.2709 11.3217 15.6264 12.9939 15.6264V14.6264ZM10.9661 12.5987C10.9661 11.4787 11.874 10.5709 12.9939 10.5709V9.57088C11.3217 9.57088 9.96615 10.9265 9.96615 12.5987H10.9661ZM12.9939 10.5709C14.1138 10.5709 15.0217 11.4787 15.0217 12.5987H16.0217C16.0217 10.9265 14.6661 9.57088 12.9939 9.57088V10.5709ZM15.0217 12.5987C15.0217 13.7186 14.1138 14.6264 12.9939 14.6264V15.6264C14.6661 15.6264 16.0217 14.2709 16.0217 12.5987H15.0217Z" fill="white"/>
</svg>
