<svg width="29" height="28" viewBox="0 0 29 28" fill="none" xmlns="http://www.w3.org/2000/svg">
<path fill-rule="evenodd" clip-rule="evenodd" d="M22.6794 15.1576C22.4227 15.1576 22.1544 15.076 21.8977 15.0176C21.378 14.9031 20.8672 14.751 20.3694 14.5626C19.2485 14.1549 18.0006 14.6581 17.4761 15.7293L17.2194 16.2543C16.0831 15.6222 15.0389 14.8371 14.1161 13.921C13.2 12.9982 12.4149 11.954 11.7827 10.8176L12.2727 10.491C13.344 9.96648 13.8472 8.71852 13.4394 7.59765C13.2542 7.09881 13.1022 6.58824 12.9844 6.06931C12.9261 5.81265 12.8794 5.54431 12.8444 5.27598C12.5517 3.57821 11.067 2.34593 9.34441 2.37098H5.84441C4.827 2.36143 3.8558 2.79507 3.18374 3.55898C2.51169 4.32288 2.20531 5.34142 2.34441 6.34931C3.623 16.404 11.5585 24.3106 21.6177 25.5526H22.0611C22.9214 25.5539 23.752 25.2383 24.3944 24.666C25.141 23.9982 25.5657 23.0426 25.5611 22.041V18.541C25.5316 16.8698 24.3246 15.4527 22.6794 15.1576ZM23.2721 22.1456C23.2717 22.4807 23.1272 22.7995 22.8755 23.0206C22.6119 23.2482 22.2645 23.3541 21.9188 23.3123C12.9308 22.1599 5.86687 15.0623 4.75712 6.06896C4.7196 5.72362 4.82498 5.37796 5.04879 5.11229C5.26995 4.86054 5.58869 4.71605 5.92379 4.71562H9.42379C9.98343 4.70317 10.473 5.08996 10.5905 5.63729C10.6371 5.95618 10.6955 6.27118 10.7655 6.58229C10.9002 7.19729 11.0796 7.80167 11.3021 8.39062L9.66879 9.14896C9.38673 9.27837 9.16785 9.51482 9.06057 9.80602C8.95329 10.0972 8.96644 10.4192 9.09712 10.7006C10.7762 14.2972 13.6672 17.1882 17.2638 18.8673C17.5478 18.984 17.8664 18.984 18.1505 18.8673C18.4443 18.7622 18.6839 18.5437 18.8155 18.2606L19.5388 16.6273C20.1419 16.843 20.7575 17.0222 21.3821 17.164C21.6932 17.234 22.0082 17.2923 22.3271 17.339C22.8744 17.4564 23.2612 17.946 23.2488 18.5056L23.2721 22.1456Z" fill="#FF0A47"/>
<path d="M21.8977 15.0176L22.0086 14.5301L22.0053 14.5294L21.8977 15.0176ZM20.3694 14.5626L20.5464 14.095L20.5403 14.0928L20.3694 14.5626ZM17.4761 15.7293L17.027 15.5094L17.0269 15.5097L17.4761 15.7293ZM17.2194 16.2543L16.9763 16.6913L17.4371 16.9475L17.6686 16.4739L17.2194 16.2543ZM14.1161 13.921L13.7612 14.2732L13.7638 14.2758L14.1161 13.921ZM11.7827 10.8176L11.5054 10.4016L11.1215 10.6575L11.3458 11.0607L11.7827 10.8176ZM12.2727 10.491L12.0529 10.0419L12.023 10.0565L11.9954 10.075L12.2727 10.491ZM13.4394 7.59765L13.9093 7.4267L13.9081 7.42359L13.4394 7.59765ZM12.9844 6.06931L13.472 5.95866L13.472 5.9585L12.9844 6.06931ZM12.8444 5.27598L13.3402 5.21131L13.3389 5.20114L13.3371 5.19103L12.8444 5.27598ZM9.34441 2.37098V2.87103L9.35168 2.87093L9.34441 2.37098ZM5.84441 2.37098L5.83971 2.87098H5.84441V2.37098ZM2.34441 6.34931L2.84044 6.28624L2.83971 6.28096L2.34441 6.34931ZM21.6177 25.5526L21.5565 26.0489L21.587 26.0526H21.6177V25.5526ZM22.0611 25.5526L22.0618 25.0526H22.0611V25.5526ZM24.3944 24.666L24.727 25.0393L24.7277 25.0387L24.3944 24.666ZM25.5611 22.041H25.0611L25.0611 22.0433L25.5611 22.041ZM25.5611 18.541H26.0612L26.061 18.5322L25.5611 18.541ZM23.2721 22.1456L23.7721 22.1463L23.7721 22.1424L23.2721 22.1456ZM22.8755 23.0206L23.2022 23.3991L23.2055 23.3963L22.8755 23.0206ZM21.9188 23.3123L21.8552 23.8082L21.8587 23.8087L21.9188 23.3123ZM4.75712 6.06896L4.25999 6.12297L4.26088 6.13019L4.75712 6.06896ZM5.04879 5.11229L4.67307 4.78222L4.66639 4.79015L5.04879 5.11229ZM5.92379 4.71562V4.21562L5.92315 4.21563L5.92379 4.71562ZM9.42379 4.71562V5.21575L9.43491 5.2155L9.42379 4.71562ZM10.5905 5.63729L11.0852 5.56489L11.0828 5.54856L11.0793 5.53242L10.5905 5.63729ZM10.7655 6.58229L11.2539 6.47526L11.2533 6.47254L10.7655 6.58229ZM11.3021 8.39062L11.5127 8.84413L11.9341 8.64849L11.7698 8.2139L11.3021 8.39062ZM9.66879 9.14896L9.8773 9.60341L9.87934 9.60246L9.66879 9.14896ZM9.09712 10.7006L8.64361 10.9112L8.64406 10.9121L9.09712 10.7006ZM17.2638 18.8673L17.0523 19.3204L17.0629 19.3253L17.0738 19.3298L17.2638 18.8673ZM18.1505 18.8673L17.9821 18.3965L17.9712 18.4004L17.9605 18.4048L18.1505 18.8673ZM18.8155 18.2606L19.2689 18.4715L19.2726 18.4631L18.8155 18.2606ZM19.5388 16.6273L19.7072 16.1565L19.2697 16.0001L19.0816 16.4248L19.5388 16.6273ZM21.3821 17.164L21.2715 17.6516L21.2724 17.6518L21.3821 17.164ZM22.3271 17.339L22.432 16.8501L22.4159 16.8466L22.3995 16.8442L22.3271 17.339ZM23.2488 18.5056L22.7489 18.4945L22.7487 18.5017L22.7488 18.5088L23.2488 18.5056ZM22.6794 14.6576C22.4968 14.6576 22.3188 14.6006 22.0086 14.5301L21.7869 15.5052C21.99 15.5514 22.3487 15.6576 22.6794 15.6576V14.6576ZM22.0053 14.5294C21.5092 14.42 21.0216 14.2749 20.5464 14.095L20.1924 15.0303C20.7128 15.2272 21.2468 15.3862 21.7901 15.5059L22.0053 14.5294ZM20.5403 14.0928C19.1793 13.5976 17.6639 14.2087 17.027 15.5094L17.9251 15.9492C18.3372 15.1075 19.3178 14.7121 20.1985 15.0325L20.5403 14.0928ZM17.0269 15.5097L16.7702 16.0347L17.6686 16.4739L17.9253 15.9489L17.0269 15.5097ZM17.4625 15.8174C16.3661 15.2075 15.3587 14.45 14.4683 13.5661L13.7638 14.2758C14.7191 15.2242 15.8 16.0369 16.9763 16.6913L17.4625 15.8174ZM14.4709 13.5687C13.587 12.6784 12.8296 11.6709 12.2197 10.5746L11.3458 11.0607C12.0002 12.237 12.8129 13.318 13.7612 14.2732L14.4709 13.5687ZM12.0601 11.2337L12.5501 10.907L11.9954 10.075L11.5054 10.4016L12.0601 11.2337ZM12.4926 10.94C13.7934 10.3031 14.4044 8.78777 13.9093 7.42671L12.9695 7.76859C13.2899 8.64927 12.8946 9.62981 12.0529 10.0419L12.4926 10.94ZM13.9081 7.42359C13.7306 6.94544 13.5849 6.45606 13.472 5.95866L12.4968 6.17996C12.6195 6.72042 12.7778 7.25217 12.9707 7.7717L13.9081 7.42359ZM13.472 5.9585C13.4175 5.71869 13.3734 5.46587 13.3402 5.21131L12.3486 5.34065C12.3854 5.62275 12.4347 5.9066 12.4968 6.18012L13.472 5.9585ZM13.3371 5.19103C13.0026 3.25073 11.3059 1.84241 9.33714 1.87103L9.35168 2.87093C10.8282 2.84946 12.1008 3.9057 12.3517 5.36093L13.3371 5.19103ZM9.34441 1.87098H5.84441V2.87098H9.34441V1.87098ZM5.8491 1.871C4.68635 1.86008 3.57641 2.35568 2.80834 3.22871L3.55914 3.88924C4.13519 3.23447 4.96765 2.86277 5.83971 2.87096L5.8491 1.871ZM2.80834 3.22871C2.04028 4.10174 1.69013 5.26579 1.8491 6.41767L2.83971 6.28096C2.72049 5.41705 2.9831 4.54401 3.55914 3.88924L2.80834 3.22871ZM1.8484 6.41239C3.15583 16.6938 11.2704 24.7789 21.5565 26.0489L21.679 25.0564C11.8467 23.8424 4.09016 16.1141 2.84041 6.28624L1.8484 6.41239ZM21.6177 26.0526H22.0611V25.0526H21.6177V26.0526ZM22.0603 26.0526C23.0436 26.0541 23.9929 25.6933 24.727 25.0393L24.0618 24.2926C23.5112 24.7832 22.7992 25.0537 22.0618 25.0526L22.0603 26.0526ZM24.7277 25.0387C25.581 24.2755 26.0664 23.1834 26.0611 22.0387L25.0611 22.0433C25.0651 22.9018 24.701 23.7209 24.0611 24.2933L24.7277 25.0387ZM26.0611 22.041V18.541H25.0611V22.041H26.0611ZM26.061 18.5322C26.0273 16.6222 24.6479 15.0027 22.7677 14.6655L22.5912 15.6498C24.0013 15.9027 25.0359 17.1174 25.0612 18.5498L26.061 18.5322ZM22.7721 22.145C22.7719 22.3365 22.6893 22.5186 22.5455 22.645L23.2055 23.3963C23.5651 23.0803 23.7715 22.625 23.7721 22.1463L22.7721 22.145ZM22.5487 22.6422C22.3917 22.7777 22.1848 22.8408 21.9788 22.8159L21.8587 23.8087C22.3443 23.8674 22.832 23.7187 23.2022 23.3991L22.5487 22.6422ZM21.9824 22.8164C13.221 21.693 6.33513 14.7743 5.25336 6.00772L4.26088 6.13019C5.39861 15.3503 12.6406 22.6267 21.8552 23.8082L21.9824 22.8164ZM5.25419 6.01495C5.23143 5.80539 5.29537 5.59564 5.43118 5.43443L4.66639 4.79015C4.35459 5.16028 4.20777 5.64184 4.26005 6.12297L5.25419 6.01495ZM5.42442 5.44229C5.5508 5.29843 5.73293 5.21587 5.92442 5.21562L5.92315 4.21563C5.44444 4.21623 4.9891 4.42265 4.67315 4.78229L5.42442 5.44229ZM5.92379 5.21562H9.42379V4.21562H5.92379V5.21562ZM9.43491 5.2155C9.7547 5.20839 10.0345 5.42941 10.1016 5.74217L11.0793 5.53242C10.9116 4.75052 10.2122 4.19796 9.41266 4.21575L9.43491 5.2155ZM10.0957 5.70969C10.1442 6.04098 10.2048 6.36845 10.2776 6.69205L11.2533 6.47254C11.1861 6.17391 11.13 5.87138 11.0852 5.56489L10.0957 5.70969ZM10.277 6.68932C10.417 7.32803 10.6033 7.95569 10.8344 8.56735L11.7698 8.2139C11.5559 7.64764 11.3834 7.06656 11.2539 6.47526L10.277 6.68932ZM11.0916 7.93712L9.45823 8.69545L9.87934 9.60246L11.5127 8.84413L11.0916 7.93712ZM9.46028 8.69451C9.05734 8.87938 8.74466 9.21717 8.5914 9.63317L9.52974 9.97887C9.59104 9.81247 9.71612 9.67736 9.87729 9.60341L9.46028 8.69451ZM8.5914 9.63317C8.43814 10.0492 8.45693 10.5091 8.64361 10.9112L9.55063 10.4901C9.47595 10.3292 9.46844 10.1453 9.52974 9.97887L8.5914 9.63317ZM8.64406 10.9121C10.3728 14.6151 13.3493 17.5916 17.0523 19.3204L17.4753 18.4142C13.9851 16.7848 11.1796 13.9793 9.55018 10.4891L8.64406 10.9121ZM17.0738 19.3298C17.4796 19.4965 17.9347 19.4965 18.3405 19.3298L17.9605 18.4048C17.7981 18.4715 17.6161 18.4715 17.4538 18.4048L17.0738 19.3298ZM18.3188 19.3381C18.7387 19.1879 19.0809 18.8758 19.2688 18.4714L18.3621 18.0498C18.2869 18.2116 18.15 18.3364 17.9821 18.3965L18.3188 19.3381ZM19.2726 18.4631L19.996 16.8298L19.0816 16.4248L18.3583 18.0582L19.2726 18.4631ZM19.3704 17.0981C19.9924 17.3205 20.6273 17.5054 21.2715 17.6516L21.4928 16.6764C20.8877 16.539 20.2914 16.3654 19.7072 16.1565L19.3704 17.0981ZM21.2724 17.6518C21.596 17.7246 21.9234 17.7852 22.2547 17.8337L22.3995 16.8442C22.093 16.7994 21.7905 16.7433 21.4919 16.6762L21.2724 17.6518ZM22.2222 17.8278C22.535 17.8949 22.756 18.1747 22.7489 18.4945L23.7487 18.5167C23.7665 17.7173 23.2139 17.0178 22.432 16.8501L22.2222 17.8278ZM22.7488 18.5088L22.7721 22.1488L23.7721 22.1424L23.7488 18.5024L22.7488 18.5088Z" fill="white"/>
</svg>
