<svg width="28" height="28" viewBox="0 0 28 28" fill="none" xmlns="http://www.w3.org/2000/svg">
<path fill-rule="evenodd" clip-rule="evenodd" d="M20.1348 3.30508C16.0904 2.85306 11.9099 2.85306 7.86553 3.30508C5.51813 3.56743 3.62307 5.41661 3.3471 7.77623C2.86347 11.9112 2.86347 16.0885 3.3471 20.2236C3.62307 22.5832 5.51813 24.4323 7.86553 24.6947C11.9099 25.1467 16.0904 25.1467 20.1348 24.6947C22.4822 24.4323 24.3772 22.5832 24.6532 20.2236C25.1368 16.0885 25.1368 11.9112 24.6532 7.77623C24.3772 5.41661 22.4822 3.56743 20.1348 3.30508ZM8.05991 5.04425C11.9751 4.60667 16.0252 4.60667 19.9404 5.04425C21.4922 5.21768 22.7352 6.44223 22.915 7.97952C23.3829 11.9795 23.3829 16.0203 22.915 20.0203C22.7352 21.5575 21.4922 22.7821 19.9404 22.9555C16.0252 23.3931 11.9751 23.3931 8.05991 22.9555C6.50812 22.7821 5.26505 21.5575 5.08525 20.0203C4.61742 16.0203 4.61742 11.9795 5.08525 7.97952C5.26505 6.44223 6.50812 5.21768 8.05991 5.04425Z" fill="#FF0A47" stroke="white" stroke-width="0.3"/>
<path fill-rule="evenodd" clip-rule="evenodd" d="M8.28809 10.7539C8.26405 10.8156 8.35708 12.0458 8.40056 12.2409C8.40697 12.2697 8.42024 12.3502 8.43003 12.4198C8.43984 12.4894 8.45548 12.5877 8.46481 12.6383C8.47415 12.6889 8.491 12.7821 8.50228 12.8454C8.51356 12.9086 8.52707 12.9621 8.53229 12.9642C8.53751 12.9663 8.54198 12.9819 8.5422 12.9987C8.54242 13.0156 8.55056 13.0631 8.56028 13.1042C8.56999 13.1453 8.58549 13.2152 8.59472 13.2595C8.60395 13.3038 8.61655 13.3503 8.62272 13.363C8.62888 13.3756 8.63911 13.4093 8.64543 13.4378C8.65981 13.5025 8.6924 13.6219 8.70193 13.6448C8.70888 13.6615 8.72835 13.7262 8.76949 13.8691C8.78042 13.9071 8.79337 13.9433 8.79827 13.9496C8.80315 13.956 8.81282 13.9818 8.81972 14.0072C8.83386 14.059 8.86418 14.1451 8.88048 14.1797C8.88644 14.1924 8.89765 14.2247 8.90539 14.2516C8.91313 14.2785 8.92389 14.3005 8.9293 14.3005C8.93471 14.3005 8.93914 14.3081 8.93914 14.3174C8.93914 14.3357 9.03032 14.5603 9.06069 14.6168C9.07089 14.6358 9.07926 14.6549 9.07931 14.6593C9.07942 14.6725 9.21972 14.9677 9.2313 14.9791C9.23452 14.9823 9.25281 15.016 9.27195 15.0539C9.31825 15.1457 9.52463 15.4987 9.54272 15.517C9.55057 15.5249 9.56033 15.5417 9.5644 15.5544C9.56846 15.567 9.57606 15.5773 9.58127 15.5773C9.58648 15.5773 9.59729 15.5928 9.60528 15.6118C9.61326 15.6308 9.62407 15.6463 9.62928 15.6463C9.63449 15.6463 9.6425 15.658 9.64707 15.6722C9.65164 15.6864 9.68223 15.7328 9.71505 15.7753C9.74788 15.8178 9.80892 15.8979 9.8507 15.9534C9.93576 16.0662 9.9308 16.0602 10.097 16.2502C10.2384 16.4119 10.4927 16.6622 10.6333 16.7782C10.6877 16.8231 10.7406 16.8676 10.751 16.8771C10.7725 16.8969 10.8288 16.9413 10.8967 16.9919C10.9224 17.0111 10.9586 17.0384 10.9773 17.0526C11.1045 17.1495 11.5152 17.4063 11.543 17.4063C11.5496 17.4063 11.5567 17.4109 11.5589 17.4165C11.5634 17.4282 11.8593 17.5783 11.9894 17.6347C12.1201 17.6914 12.118 17.6905 12.1997 17.7226C12.2415 17.739 12.2862 17.7572 12.2991 17.763C12.3314 17.7778 12.4054 17.803 12.5562 17.8506C12.6269 17.8729 12.6928 17.8953 12.7026 17.9003C12.7125 17.9053 12.7388 17.913 12.7611 17.9173C12.7833 17.9217 12.8121 17.9298 12.825 17.9355C12.871 17.9557 13.1475 18.0208 13.2917 18.0454C13.3492 18.0552 13.4009 18.0661 13.4068 18.0697C13.4126 18.0732 13.4629 18.0831 13.5185 18.0916C13.5741 18.1002 13.6512 18.112 13.6898 18.118C14.0421 18.1729 14.3995 18.1974 14.8234 18.1955L15.1389 18.1942L15.1419 16.8685C15.1435 16.1393 15.1468 15.5428 15.1491 15.5428C15.1515 15.5428 15.1974 15.5501 15.2513 15.5589C15.3052 15.5678 15.3756 15.5786 15.4077 15.5829C15.4921 15.5941 15.7939 15.6682 15.8518 15.692C15.8646 15.6973 15.9094 15.7132 15.9511 15.7273C16.0502 15.7608 16.1565 15.8034 16.2106 15.8312C16.2343 15.8434 16.2615 15.8534 16.2709 15.8534C16.2804 15.8534 16.2898 15.8575 16.292 15.8626C16.2941 15.8676 16.3343 15.8912 16.3813 15.915C16.8406 16.1474 17.2701 16.5133 17.612 16.9634C17.7114 17.0943 17.8093 17.2392 17.8093 17.2554C17.8093 17.2614 17.8134 17.268 17.8185 17.2701C17.8236 17.2722 17.8529 17.318 17.8837 17.3717C17.9145 17.4255 17.9442 17.4773 17.9497 17.4868C17.9687 17.5196 18.0525 17.6883 18.077 17.7427C18.0904 17.7728 18.112 17.8204 18.1248 17.8485C18.1377 17.8766 18.1484 17.9038 18.1486 17.9089C18.1488 17.914 18.1592 17.9388 18.1716 17.9641C18.184 17.9894 18.1943 18.0171 18.1946 18.0257C18.1948 18.0342 18.2026 18.0575 18.2119 18.0774C18.2212 18.0974 18.2334 18.1318 18.2389 18.1539L18.249 18.1942L19.3333 18.1971L20.4175 18.2001L20.4092 18.1511C20.4047 18.1242 20.3941 18.0841 20.3858 18.0619C20.3774 18.0398 20.356 17.9751 20.3382 17.9181C20.3203 17.8612 20.2989 17.8017 20.2905 17.7858C20.2822 17.77 20.2753 17.7501 20.2753 17.7416C20.2752 17.733 20.2681 17.7097 20.2594 17.6898C20.2507 17.6699 20.2316 17.6225 20.2168 17.5845C20.2021 17.5466 20.1772 17.4871 20.1615 17.4523C20.1459 17.4175 20.1287 17.3786 20.1234 17.366C20.0632 17.2233 19.9071 16.9163 19.8358 16.8007C19.8236 16.7809 19.7955 16.7343 19.7734 16.6972C19.7512 16.6601 19.7289 16.6281 19.7237 16.626C19.7185 16.6239 19.7142 16.6166 19.7142 16.6099C19.7142 16.5961 19.495 16.2711 19.4632 16.2377C19.4566 16.2309 19.4408 16.2107 19.4279 16.1929C19.3936 16.1455 19.2258 15.9365 19.2025 15.9121C19.1915 15.9006 19.1459 15.8504 19.1012 15.8004C18.9951 15.6817 18.7164 15.4074 18.5992 15.3063C18.5484 15.2624 18.4984 15.2187 18.4882 15.2092C18.478 15.1997 18.4354 15.1661 18.3936 15.1344C18.3519 15.1028 18.3093 15.0692 18.2992 15.0597C18.289 15.0502 18.2688 15.0346 18.2544 15.0252C18.2399 15.0157 18.1884 14.9781 18.14 14.9418C18.0915 14.9054 18.0476 14.8756 18.0425 14.8756C18.0373 14.8756 18.0261 14.869 18.0176 14.861C18.0091 14.853 17.9732 14.8285 17.9379 14.8067C17.9025 14.7849 17.871 14.7639 17.8677 14.76C17.8645 14.7561 17.8356 14.738 17.8035 14.7198C17.7713 14.7016 17.7433 14.6826 17.7411 14.6776C17.739 14.6726 17.7316 14.6686 17.7248 14.6686C17.7179 14.6686 17.6697 14.6441 17.6176 14.6143C17.5656 14.5844 17.4791 14.5385 17.4255 14.5122C17.3132 14.457 17.3088 14.4697 17.4762 14.3638C17.6407 14.2598 17.8734 14.0939 17.9385 14.0345C17.9549 14.0194 18.0154 13.9686 18.0729 13.9214C18.2093 13.8095 18.5637 13.4603 18.6746 13.3285C18.7226 13.2715 18.7674 13.2198 18.7744 13.2135C18.7813 13.2071 18.8049 13.1787 18.8269 13.1502C18.8488 13.1217 18.8708 13.0967 18.8756 13.0946C18.8805 13.0925 18.8845 13.0863 18.8845 13.0809C18.8845 13.0755 18.9005 13.0539 18.92 13.033C18.9395 13.012 18.9802 12.9587 19.0104 12.9144C19.0405 12.8701 19.0684 12.8313 19.0724 12.8281C19.0864 12.8168 19.2818 12.5179 19.2818 12.5077C19.2818 12.502 19.2892 12.4913 19.2982 12.4839C19.3072 12.4766 19.3286 12.4436 19.3457 12.4106C19.3627 12.3777 19.39 12.3274 19.4062 12.299C19.467 12.1924 19.6207 11.8849 19.6207 11.8698C19.6207 11.8666 19.6388 11.8259 19.6608 11.7795C19.6828 11.7331 19.7046 11.6795 19.7091 11.6606C19.7137 11.6416 19.7213 11.6209 19.726 11.6146C19.7307 11.6082 19.7409 11.5824 19.7486 11.557C19.7563 11.5317 19.7674 11.5007 19.7732 11.488C19.7929 11.4454 19.8428 11.284 19.8428 11.2629C19.8428 11.2515 19.8474 11.2392 19.8531 11.2358C19.8588 11.2323 19.87 11.1945 19.878 11.1517C19.8861 11.1089 19.8965 11.0687 19.9012 11.0624C19.906 11.0561 19.9167 11.0069 19.925 10.9531C19.9334 10.8994 19.9441 10.8502 19.9488 10.8439C19.9535 10.8375 19.9592 10.8117 19.9614 10.7864L19.9655 10.7403H18.9851C18.1255 10.7403 18.0036 10.7425 17.9955 10.7576C17.9904 10.7671 17.972 10.8214 17.9546 10.8784C17.928 10.9657 17.8558 11.1633 17.8204 11.2465C17.7511 11.4087 17.5805 11.7454 17.5217 11.8359C17.4999 11.8694 17.4821 11.8995 17.4821 11.9028C17.4821 11.912 17.4306 11.9821 17.4207 11.9865C17.4159 11.9886 17.412 11.9958 17.412 12.0024C17.412 12.0133 17.3186 12.1594 17.2926 12.1894C17.2869 12.1959 17.2611 12.2297 17.2352 12.2645C17.1521 12.3761 17.1377 12.3945 17.1189 12.4131C17.1088 12.4231 17.0851 12.452 17.0663 12.4773C17.0269 12.5303 17.0392 12.5163 16.9036 12.6623C16.7786 12.7968 16.7559 12.8191 16.6293 12.9316C16.5759 12.9791 16.5264 13.0231 16.5192 13.0295C16.4935 13.0524 16.434 13.0989 16.4015 13.1214C16.3832 13.1341 16.3598 13.1522 16.3495 13.1617C16.3323 13.1776 16.2905 13.2063 16.1498 13.2991C16.1209 13.3182 16.0917 13.3378 16.085 13.3427C16.0438 13.3723 15.7734 13.5068 15.7549 13.5068C15.7471 13.5068 15.7408 13.512 15.7408 13.5183C15.7408 13.5246 15.7316 13.5298 15.7203 13.5299C15.7091 13.5299 15.6861 13.537 15.6692 13.5457C15.6382 13.5616 15.5089 13.6044 15.3902 13.638C15.3315 13.6546 15.1949 13.679 15.1594 13.6792C15.1478 13.6793 15.1448 13.38 15.1448 12.2208C15.1448 11.1017 15.1415 10.759 15.1307 10.7484C15.1104 10.7284 13.1924 10.7284 13.172 10.7484C13.1612 10.759 13.158 11.3488 13.158 13.3331C13.158 15.3327 13.1549 15.9009 13.144 15.8902C13.1363 15.8826 13.1205 15.8764 13.1089 15.8764C13.0744 15.8764 12.8703 15.8031 12.7541 15.749C12.7279 15.7368 12.7035 15.7268 12.6997 15.7268C12.696 15.7268 12.6368 15.6945 12.5682 15.6549C12.4996 15.6154 12.4294 15.5758 12.4122 15.567C12.3949 15.5581 12.3565 15.5322 12.3267 15.5095C12.2969 15.4867 12.2609 15.4603 12.2467 15.4508C12.0397 15.3126 11.7278 15.0043 11.5277 14.7399C11.5213 14.7314 11.5068 14.7145 11.4956 14.7023C11.4843 14.6901 11.4751 14.6783 11.4751 14.6761C11.4751 14.6739 11.4362 14.615 11.3887 14.5453C11.3412 14.4756 11.277 14.3752 11.2462 14.3221C11.2153 14.2691 11.1872 14.2231 11.1836 14.22C11.1709 14.2087 11.0192 13.9034 11.0193 13.8893C11.0193 13.8813 11.0141 13.8749 11.0077 13.8749C11.0012 13.8749 10.996 13.8682 10.996 13.86C10.996 13.8519 10.9855 13.8249 10.9726 13.8001C10.9598 13.7753 10.9492 13.7495 10.9492 13.7429C10.9492 13.7362 10.9387 13.7114 10.9259 13.6878C10.913 13.6642 10.9025 13.6394 10.9025 13.6327C10.9025 13.626 10.8918 13.5975 10.8788 13.5694C10.8658 13.5413 10.852 13.5028 10.8482 13.4838C10.8443 13.4648 10.8371 13.4493 10.8322 13.4493C10.8273 13.4493 10.8197 13.4306 10.8154 13.4078C10.8111 13.3851 10.8002 13.3501 10.7914 13.3302C10.7825 13.3103 10.7613 13.2474 10.7443 13.1905C10.7272 13.1335 10.7065 13.0688 10.6982 13.0467C10.69 13.0245 10.6794 12.9831 10.6747 12.9546C10.6699 12.9262 10.6627 12.8977 10.6587 12.8914C10.6517 12.8806 10.6344 12.8133 10.5923 12.6326C10.4806 12.1541 10.3941 11.4401 10.3736 10.8266L10.3708 10.7403L9.33322 10.7374C8.36729 10.7347 8.29517 10.7358 8.28809 10.7539Z" fill="#FF0A47"/>
</svg>
