<svg xmlns="http://www.w3.org/2000/svg" fill="none" viewBox="0 0 160 160"><g filter="url(#a)"><circle cx="80" cy="80" r="80" fill="#ECEDF0"/></g><g filter="url(#b)"><path fill="#ED131C" d="M117.83 111.42c0 2.85-1 5.26-3 7.25a9.96 9.96 0 0 1-7.28 2.97H52.22c-2.84 0-5.26-1-7.24-2.97a9.86 9.86 0 0 1-2.98-7.25V68.57c0-1.11.9-2.02 2.01-2.02h71.8c1.12 0 2.02.9 2.02 2.02v42.85ZM75.45 83.63c-.29.62-.87 1.04-1.55 1.13l-6.17.82a2.01 2.01 0 0 0-1.12 3.45l4.51 4.29c.5.47.72 1.16.6 1.83l-1.14 6.12a2.01 2.01 0 0 0 2.94 2.13l5.47-2.97c.6-.32 1.32-.32 1.92 0l5.47 2.97c1.5.81 3.25-.47 2.94-2.13l-1.13-6.12c-.12-.67.1-1.36.6-1.83l4.5-4.29a2.01 2.01 0 0 0-1.11-3.45L86 84.76a2.01 2.01 0 0 1-1.55-1.13l-2.68-5.61a2.01 2.01 0 0 0-3.63 0l-2.69 5.61ZM63.45 38c1.11 0 2.01.9 2.01 2.01v2.49c0 1.1.9 2.01 2.02 2.01h24.8c1.12 0 2.02-.9 2.02-2.01V40c0-1.1.9-2.01 2.01-2.01h4.67c1.1 0 2 .9 2 2.01v2.49c0 1.1.91 2.01 2.02 2.01h2.55c2.86 0 5.29 1 7.28 3 2 2 3 4.42 3 7.28v.75c0 1.11-.9 2.01-2.01 2.01h-71.8c-1.12 0-2.02-.9-2.02-2v-.76c0-2.86 1-5.29 2.98-7.29s4.4-2.99 7.24-2.99h2.54c1.11 0 2.02-.9 2.02-2.01V40c0-1.1.9-2.01 2-2.01h4.67Z"/></g><defs><filter id="a" width="172.1" height="165.74" x="-5.58" y="0" color-interpolation-filters="sRGB" filterUnits="userSpaceOnUse"><feFlood flood-opacity="0" result="BackgroundImageFix"/><feBlend in="SourceGraphic" in2="BackgroundImageFix" result="shape"/><feColorMatrix in="SourceAlpha" result="hardAlpha" values="0 0 0 0 0 0 0 0 0 0 0 0 0 0 0 0 0 0 127 0"/><feOffset dx="-5.58"/><feGaussianBlur stdDeviation="7.28"/><feComposite in2="hardAlpha" k2="-1" k3="1" operator="arithmetic"/><feColorMatrix values="0 0 0 0 0.98903 0 0 0 0 0.98903 0 0 0 0 0.98903 0 0 0 1 0"/><feBlend in2="shape" result="effect1_innerShadow_392_5824"/><feColorMatrix in="SourceAlpha" result="hardAlpha" values="0 0 0 0 0 0 0 0 0 0 0 0 0 0 0 0 0 0 127 0"/><feOffset dx="6.52" dy="5.74"/><feGaussianBlur stdDeviation="4.43"/><feComposite in2="hardAlpha" k2="-1" k3="1" operator="arithmetic"/><feColorMatrix values="0 0 0 0 0.550342 0 0 0 0 0.550342 0 0 0 0 0.550342 0 0 0 0.15 0"/><feBlend in2="effect1_innerShadow_392_5824" result="effect2_innerShadow_392_5824"/></filter><filter id="b" width="91.24" height="99.06" x="31.33" y="30.29" color-interpolation-filters="sRGB" filterUnits="userSpaceOnUse"><feFlood flood-opacity="0" result="BackgroundImageFix"/><feColorMatrix in="SourceAlpha" result="hardAlpha" values="0 0 0 0 0 0 0 0 0 0 0 0 0 0 0 0 0 0 127 0"/><feOffset dx="-2.96"/><feGaussianBlur stdDeviation="3.85"/><feComposite in2="hardAlpha" operator="out"/><feColorMatrix values="0 0 0 0 0.241667 0 0 0 0 0 0 0 0 0 0.00947724 0 0 0 0.2 0"/><feBlend in2="BackgroundImageFix" result="effect1_dropShadow_392_5824"/><feBlend in="SourceGraphic" in2="effect1_dropShadow_392_5824" result="shape"/><feColorMatrix in="SourceAlpha" result="hardAlpha" values="0 0 0 0 0 0 0 0 0 0 0 0 0 0 0 0 0 0 127 0"/><feOffset dx="1.85"/><feGaussianBlur stdDeviation="1.62"/><feComposite in2="hardAlpha" k2="-1" k3="1" operator="arithmetic"/><feColorMatrix values="0 0 0 0 0.8375 0 0 0 0 0.0628125 0 0 0 0 0.094795 0 0 0 1 0"/><feBlend in2="shape" result="effect2_innerShadow_392_5824"/><feColorMatrix in="SourceAlpha" result="hardAlpha" values="0 0 0 0 0 0 0 0 0 0 0 0 0 0 0 0 0 0 127 0"/><feOffset dx="-1.85"/><feGaussianBlur stdDeviation="1.85"/><feComposite in2="hardAlpha" k2="-1" k3="1" operator="arithmetic"/><feColorMatrix values="0 0 0 0 1 0 0 0 0 0.3125 0 0 0 0 0.340883 0 0 0 1 0"/><feBlend in2="effect2_innerShadow_392_5824" result="effect3_innerShadow_392_5824"/></filter></defs></svg>