<svg xmlns="http://www.w3.org/2000/svg" fill="none" viewBox="0 0 160 160"><g filter="url(#a)"><circle cx="80" cy="80" r="80" fill="#ECEDF0"/></g><g filter="url(#b)"><path fill="#ED131C" d="M80.44 131.41c-.63.37-1.4.37-2.02 0L50 114.91c-.62-.36-1-1.03-1-1.74V80.13c0-.71.38-1.38 1-1.74l13.72-8a2.01 2.01 0 0 1 3.03 1.74v25.03c0 1.11.9 2.02 2.01 2.02H90.1c1.12 0 2.02-.9 2.02-2.02V72.13a2.01 2.01 0 0 1 3.02-1.74l13.73 8c.62.36 1 1.03 1 1.74v33.04c0 .71-.39 1.38-1 1.74l-28.42 16.5ZM76.37 91.6c-1.11 0-2.01-.9-2.01-2.01V33c0-1.1.9-2.01 2.01-2.01h39.86c1.6 0 2.57 1.8 1.67 3.13l-7.3 10.9a2.01 2.01 0 0 0 0 2.24l7.3 10.9a2.01 2.01 0 0 1-1.67 3.13H86.51c-1.1 0-2.01.9-2.01 2.01V89.6c0 1.1-.9 2.01-2.01 2.01h-6.12Z"/></g><defs><filter id="a" width="172.1" height="165.74" x="-5.58" y="0" color-interpolation-filters="sRGB" filterUnits="userSpaceOnUse"><feFlood flood-opacity="0" result="BackgroundImageFix"/><feBlend in="SourceGraphic" in2="BackgroundImageFix" result="shape"/><feColorMatrix in="SourceAlpha" result="hardAlpha" values="0 0 0 0 0 0 0 0 0 0 0 0 0 0 0 0 0 0 127 0"/><feOffset dx="-5.58"/><feGaussianBlur stdDeviation="7.28"/><feComposite in2="hardAlpha" k2="-1" k3="1" operator="arithmetic"/><feColorMatrix values="0 0 0 0 0.98903 0 0 0 0 0.98903 0 0 0 0 0.98903 0 0 0 1 0"/><feBlend in2="shape" result="effect1_innerShadow_63_7099"/><feColorMatrix in="SourceAlpha" result="hardAlpha" values="0 0 0 0 0 0 0 0 0 0 0 0 0 0 0 0 0 0 127 0"/><feOffset dx="6.52" dy="5.74"/><feGaussianBlur stdDeviation="4.43"/><feComposite in2="hardAlpha" k2="-1" k3="1" operator="arithmetic"/><feColorMatrix values="0 0 0 0 0.550342 0 0 0 0 0.550342 0 0 0 0 0.550342 0 0 0 0.15 0"/><feBlend in2="effect1_innerShadow_63_7099" result="effect2_innerShadow_63_7099"/></filter><filter id="b" width="84.66" height="116.1" x="38.33" y="23.29" color-interpolation-filters="sRGB" filterUnits="userSpaceOnUse"><feFlood flood-opacity="0" result="BackgroundImageFix"/><feColorMatrix in="SourceAlpha" result="hardAlpha" values="0 0 0 0 0 0 0 0 0 0 0 0 0 0 0 0 0 0 127 0"/><feOffset dx="-2.96"/><feGaussianBlur stdDeviation="3.85"/><feComposite in2="hardAlpha" operator="out"/><feColorMatrix values="0 0 0 0 0.241667 0 0 0 0 0 0 0 0 0 0.00947724 0 0 0 0.2 0"/><feBlend in2="BackgroundImageFix" result="effect1_dropShadow_63_7099"/><feBlend in="SourceGraphic" in2="effect1_dropShadow_63_7099" result="shape"/><feColorMatrix in="SourceAlpha" result="hardAlpha" values="0 0 0 0 0 0 0 0 0 0 0 0 0 0 0 0 0 0 127 0"/><feOffset dx="1.85"/><feGaussianBlur stdDeviation="1.62"/><feComposite in2="hardAlpha" k2="-1" k3="1" operator="arithmetic"/><feColorMatrix values="0 0 0 0 0.8375 0 0 0 0 0.0628125 0 0 0 0 0.094795 0 0 0 1 0"/><feBlend in2="shape" result="effect2_innerShadow_63_7099"/><feColorMatrix in="SourceAlpha" result="hardAlpha" values="0 0 0 0 0 0 0 0 0 0 0 0 0 0 0 0 0 0 127 0"/><feOffset dx="-1.85"/><feGaussianBlur stdDeviation="1.85"/><feComposite in2="hardAlpha" k2="-1" k3="1" operator="arithmetic"/><feColorMatrix values="0 0 0 0 1 0 0 0 0 0.3125 0 0 0 0 0.340883 0 0 0 1 0"/><feBlend in2="effect2_innerShadow_63_7099" result="effect3_innerShadow_63_7099"/></filter></defs></svg>