<svg xmlns="http://www.w3.org/2000/svg" fill="none" viewBox="0 0 160 160"><g filter="url(#a)"><circle cx="80" cy="80" r="80" fill="#ECEDF0"/></g><mask id="b" width="90" height="90" x="35" y="38" maskUnits="userSpaceOnUse" style="mask-type:alpha"><path fill="#D9D9D9" d="M35.91 38.91H124V127H35.91z"/></mask><g filter="url(#c)" mask="url(#b)"><path fill="#ED131C" d="M61.6 104.98a3.55 3.55 0 0 1-2.61-1.06 3.55 3.55 0 0 1-1.05-2.61v-5.33c0-1.11.9-2.01 2-2.01h43.7c1.1 0 2.01-.9 2.01-2.02v-29c0-1.11.9-2.02 2.01-2.02H113c1.04 0 1.91.36 2.62 1.06.7.7 1.05 1.57 1.05 2.61v50.2c0 1.8-2.17 2.7-3.44 1.42l-10.65-10.65a2.01 2.01 0 0 0-1.42-.6H61.6Zm-14.91-7.1a2.01 2.01 0 0 1-3.44-1.43V49.92c0-1.04.36-1.9 1.06-2.61.7-.7 1.57-1.06 2.61-1.06h47.72c1.04 0 1.91.35 2.61 1.06.7.7 1.06 1.57 1.06 2.61v33.04c0 1.04-.35 1.9-1.06 2.61-.7.7-1.57 1.06-2.61 1.06H58.77c-.53 0-1.05.2-1.42.59L46.69 97.87Z"/></g><defs><filter id="a" width="172.1" height="165.74" x="-5.58" y="0" color-interpolation-filters="sRGB" filterUnits="userSpaceOnUse"><feFlood flood-opacity="0" result="BackgroundImageFix"/><feBlend in="SourceGraphic" in2="BackgroundImageFix" result="shape"/><feColorMatrix in="SourceAlpha" result="hardAlpha" values="0 0 0 0 0 0 0 0 0 0 0 0 0 0 0 0 0 0 127 0"/><feOffset dx="-5.58"/><feGaussianBlur stdDeviation="7.28"/><feComposite in2="hardAlpha" k2="-1" k3="1" operator="arithmetic"/><feColorMatrix values="0 0 0 0 0.98903 0 0 0 0 0.98903 0 0 0 0 0.98903 0 0 0 1 0"/><feBlend in2="shape" result="effect1_innerShadow_63_7108"/><feColorMatrix in="SourceAlpha" result="hardAlpha" values="0 0 0 0 0 0 0 0 0 0 0 0 0 0 0 0 0 0 127 0"/><feOffset dx="6.52" dy="5.74"/><feGaussianBlur stdDeviation="4.43"/><feComposite in2="hardAlpha" k2="-1" k3="1" operator="arithmetic"/><feColorMatrix values="0 0 0 0 0.550342 0 0 0 0 0.550342 0 0 0 0 0.550342 0 0 0 0.15 0"/><feBlend in2="effect1_innerShadow_63_7108" result="effect2_innerShadow_63_7108"/></filter><filter id="c" width="88.82" height="85.98" x="32.58" y="38.55" color-interpolation-filters="sRGB" filterUnits="userSpaceOnUse"><feFlood flood-opacity="0" result="BackgroundImageFix"/><feColorMatrix in="SourceAlpha" result="hardAlpha" values="0 0 0 0 0 0 0 0 0 0 0 0 0 0 0 0 0 0 127 0"/><feOffset dx="-2.96"/><feGaussianBlur stdDeviation="3.85"/><feComposite in2="hardAlpha" operator="out"/><feColorMatrix values="0 0 0 0 0.241667 0 0 0 0 0 0 0 0 0 0.00947724 0 0 0 0.2 0"/><feBlend in2="BackgroundImageFix" result="effect1_dropShadow_63_7108"/><feBlend in="SourceGraphic" in2="effect1_dropShadow_63_7108" result="shape"/><feColorMatrix in="SourceAlpha" result="hardAlpha" values="0 0 0 0 0 0 0 0 0 0 0 0 0 0 0 0 0 0 127 0"/><feOffset dx="1.85"/><feGaussianBlur stdDeviation="1.62"/><feComposite in2="hardAlpha" k2="-1" k3="1" operator="arithmetic"/><feColorMatrix values="0 0 0 0 0.8375 0 0 0 0 0.0628125 0 0 0 0 0.094795 0 0 0 1 0"/><feBlend in2="shape" result="effect2_innerShadow_63_7108"/><feColorMatrix in="SourceAlpha" result="hardAlpha" values="0 0 0 0 0 0 0 0 0 0 0 0 0 0 0 0 0 0 127 0"/><feOffset dx="-1.85"/><feGaussianBlur stdDeviation="1.85"/><feComposite in2="hardAlpha" k2="-1" k3="1" operator="arithmetic"/><feColorMatrix values="0 0 0 0 1 0 0 0 0 0.3125 0 0 0 0 0.340883 0 0 0 1 0"/><feBlend in2="effect2_innerShadow_63_7108" result="effect3_innerShadow_63_7108"/></filter></defs></svg>