<svg xmlns="http://www.w3.org/2000/svg" fill="none" viewBox="0 0 161 160"><g fill="#ECEDF0" filter="url(#a)"><path d="M160.26 80.24a79.76 79.76 0 1 1-159.53 0 79.76 79.76 0 0 1 159.53 0Z"/><path d="m74.87 120.5-43.7-40.89 16.4-15.21 27.3 25.5 45.98-41.3 16.3 15.22-62.28 56.69Z"/></g><g filter="url(#b)"><path fill="#ED131C" d="M77.31 114.73c-.77.72-1.97.7-2.74-.02L39.56 81.64a2.01 2.01 0 0 1 0-2.93l11.3-10.58a2.01 2.01 0 0 1 2.75 0L74.58 87.9c.76.72 1.95.73 2.73.03l37.17-33.68c.77-.7 1.96-.7 2.73.03l11.22 10.57c.85.8.84 2.15-.02 2.94l-51.1 46.94Z"/></g><defs><filter id="a" width="171.63" height="165.27" x="-4.85" y=".47" color-interpolation-filters="sRGB" filterUnits="userSpaceOnUse"><feFlood flood-opacity="0" result="BackgroundImageFix"/><feBlend in="SourceGraphic" in2="BackgroundImageFix" result="shape"/><feColorMatrix in="SourceAlpha" result="hardAlpha" values="0 0 0 0 0 0 0 0 0 0 0 0 0 0 0 0 0 0 127 0"/><feOffset dx="-5.58"/><feGaussianBlur stdDeviation="7.28"/><feComposite in2="hardAlpha" k2="-1" k3="1" operator="arithmetic"/><feColorMatrix values="0 0 0 0 0.98903 0 0 0 0 0.98903 0 0 0 0 0.98903 0 0 0 1 0"/><feBlend in2="shape" result="effect1_innerShadow_63_7134"/><feColorMatrix in="SourceAlpha" result="hardAlpha" values="0 0 0 0 0 0 0 0 0 0 0 0 0 0 0 0 0 0 127 0"/><feOffset dx="6.52" dy="5.74"/><feGaussianBlur stdDeviation="4.43"/><feComposite in2="hardAlpha" k2="-1" k3="1" operator="arithmetic"/><feColorMatrix values="0 0 0 0 0.550342 0 0 0 0 0.550342 0 0 0 0 0.550342 0 0 0 0.15 0"/><feBlend in2="effect1_innerShadow_63_7134" result="effect2_innerShadow_63_7134"/></filter><filter id="b" width="105.55" height="76.95" x="28.25" y="46.02" color-interpolation-filters="sRGB" filterUnits="userSpaceOnUse"><feFlood flood-opacity="0" result="BackgroundImageFix"/><feColorMatrix in="SourceAlpha" result="hardAlpha" values="0 0 0 0 0 0 0 0 0 0 0 0 0 0 0 0 0 0 127 0"/><feOffset dx="-2.96"/><feGaussianBlur stdDeviation="3.85"/><feComposite in2="hardAlpha" operator="out"/><feColorMatrix values="0 0 0 0 0.241667 0 0 0 0 0 0 0 0 0 0.00947724 0 0 0 0.2 0"/><feBlend in2="BackgroundImageFix" result="effect1_dropShadow_63_7134"/><feBlend in="SourceGraphic" in2="effect1_dropShadow_63_7134" result="shape"/><feColorMatrix in="SourceAlpha" result="hardAlpha" values="0 0 0 0 0 0 0 0 0 0 0 0 0 0 0 0 0 0 127 0"/><feOffset dx="1.85"/><feGaussianBlur stdDeviation="1.62"/><feComposite in2="hardAlpha" k2="-1" k3="1" operator="arithmetic"/><feColorMatrix values="0 0 0 0 0.8375 0 0 0 0 0.0628125 0 0 0 0 0.094795 0 0 0 1 0"/><feBlend in2="shape" result="effect2_innerShadow_63_7134"/><feColorMatrix in="SourceAlpha" result="hardAlpha" values="0 0 0 0 0 0 0 0 0 0 0 0 0 0 0 0 0 0 127 0"/><feOffset dx="-1.85"/><feGaussianBlur stdDeviation="1.85"/><feComposite in2="hardAlpha" k2="-1" k3="1" operator="arithmetic"/><feColorMatrix values="0 0 0 0 1 0 0 0 0 0.3125 0 0 0 0 0.340883 0 0 0 1 0"/><feBlend in2="effect2_innerShadow_63_7134" result="effect3_innerShadow_63_7134"/></filter></defs></svg>